ply
format ascii 1.0
element vertex 2022
property float x
property float y
property float z
property uchar red
property uchar green
property uchar blue
end_header
0.313694 0.208570 0.512235 108 113 118
0.311976 0.208579 0.512053 110 115 120
0.317177 0.209020 0.514396 102 110 111
0.315457 0.209028 0.514214 89 97 98
0.313736 0.209037 0.514031 89 95 97
0.312016 0.209046 0.513849 91 97 99
0.310083 0.208049 0.513505 110 116 118
0.320442 0.208463 0.516398 103 110 114
0.318721 0.208471 0.516215 85 92 96
0.317001 0.208480 0.516033 89 97 98
0.315281 0.208489 0.515850 92 100 101
0.313560 0.208498 0.515668 100 106 108
0.311840 0.208507 0.515486 105 111 113
0.310120 0.208515 0.515303 103 109 111
0.323706 0.207906 0.518399 117 127 130
0.321986 0.207915 0.518217 90 100 103
0.320494 0.208928 0.518202 84 91 95
0.318771 0.208936 0.518019 90 97 101
0.317048 0.208945 0.517837 93 98 103
0.315104 0.207950 0.517487 112 117 122
0.313384 0.207958 0.517305 120 126 128
0.311664 0.207967 0.517122 117 123 125
0.309943 0.207976 0.516940 118 124 126
0.325486 0.208361 0.520389 102 113 113
0.323763 0.208370 0.520206 83 94 94
0.322040 0.208379 0.520024 80 91 91
0.320317 0.208387 0.519841 89 97 98
0.318594 0.208396 0.519658 89 97 98
0.316871 0.208405 0.519476 91 97 99
0.315148 0.208414 0.519293 104 110 112
0.313425 0.208422 0.519111 116 119 122
0.311487 0.207428 0.518759 141 144 147
0.329236 0.209808 0.522742 119 126 130
0.327508 0.209817 0.522558 93 104 104
0.325545 0.208823 0.522202 87 98 98
0.323819 0.208832 0.522019 84 92 93
0.322094 0.208841 0.521836 84 92 93
0.320368 0.208850 0.521653 103 108 113
0.318643 0.208859 0.521470 105 110 115
0.316917 0.208867 0.521287 114 120 122
0.314972 0.207873 0.520932 155 161 163
0.313249 0.207882 0.520750 176 179 182
0.331030 0.210260 0.524746 103 110 114
0.329300 0.210268 0.524562 92 99 103
0.327569 0.210277 0.524379 89 97 98
0.325838 0.210286 0.524195 93 101 102
0.324108 0.210295 0.524012 92 100 101
0.322377 0.210304 0.523828 97 105 106
0.320419 0.209311 0.523470 114 121 125
0.318691 0.209319 0.523287 131 138 142
0.316963 0.209328 0.523103 169 175 177
0.334810 0.211701 0.527119 120 127 131
0.333074 0.211710 0.526935 99 106 110
0.331338 0.211719 0.526751 90 97 101
0.329603 0.211728 0.526567 91 98 102
0.327867 0.211737 0.526383 88 96 97
0.326131 0.211745 0.526199 91 99 100
0.324395 0.211754 0.526015 107 114 118
0.322430 0.210762 0.525653 114 121 125
0.320469 0.209770 0.525291 152 160 161
0.318738 0.209779 0.525108 173 181 182
0.337851 0.210139 0.528955 144 152 153
0.336368 0.211148 0.528954 102 110 111
0.334632 0.211157 0.528770 90 100 103
0.333141 0.212166 0.528768 88 98 101
0.331403 0.212175 0.528584 89 99 102
0.329665 0.212184 0.528400 94 104 107
0.327689 0.211192 0.528034 102 112 115
0.326188 0.212201 0.528031 107 117 120
0.324217 0.211210 0.527666 133 139 141
0.322252 0.210219 0.527302 168 174 176
0.339662 0.210586 0.530974 132 140 139
0.338178 0.211594 0.530975 97 105 106
0.336440 0.211603 0.530791 90 98 99
0.334702 0.211612 0.530606 91 102 102
0.332963 0.211621 0.530422 94 105 105
0.331225 0.211630 0.530238 103 113 116
0.329486 0.211639 0.530053 103 113 116
0.327748 0.211647 0.529869 110 118 119
0.326010 0.211656 0.529685 141 149 150
0.341220 0.210033 0.532809 106 114 115
0.339484 0.210042 0.532625 99 107 108
0.338000 0.211049 0.532629 85 93 94
0.336262 0.211058 0.532444 86 94 95
0.334771 0.212065 0.532447 102 110 111
0.332785 0.211076 0.532076 102 110 111
0.331047 0.211085 0.531892 116 124 125
0.329308 0.211093 0.531707 128 136 137
0.327570 0.211102 0.531523 165 171 171
0.344513 0.209471 0.534828 125 135 138
0.342778 0.209480 0.534644 98 108 111
0.341042 0.209489 0.534460 95 105 108
0.339561 0.210495 0.534467 86 96 99
0.337822 0.210504 0.534283 91 99 100
0.336084 0.210513 0.534098 104 112 113
0.334592 0.211520 0.534104 113 119 119
0.332851 0.211528 0.533919 119 125 125
0.331110 0.211537 0.533734 147 153 153
0.329369 0.211546 0.533550 176 182 182
0.346071 0.208918 0.536664 120 128 129
0.344336 0.208927 0.536480 89 99 102
0.342859 0.209932 0.536489 88 98 101
0.341121 0.209941 0.536305 89 99 102
0.339382 0.209950 0.536121 89 99 102
0.337644 0.209959 0.535936 100 108 109
0.336155 0.210965 0.535944 118 126 127
0.334414 0.210974 0.535760 129 135 135
0.332673 0.210983 0.535575 169 175 175
0.349365 0.208356 0.538683 145 153 154
0.347896 0.209361 0.538696 102 109 113
0.346158 0.209370 0.538512 97 104 108
0.344419 0.209378 0.538327 90 97 101
0.342681 0.209387 0.538143 91 98 102
0.340943 0.209396 0.537959 94 104 107
0.339204 0.209405 0.537775 91 101 104
0.337466 0.209414 0.537590 111 119 120
0.335728 0.209423 0.537406 141 149 150
0.334235 0.210428 0.537416 178 181 182
0.351195 0.208798 0.540718 135 142 146
0.349457 0.208807 0.540534 97 104 108
0.347718 0.208816 0.540350 95 102 106
0.345980 0.208825 0.540166 95 102 106
0.344241 0.208833 0.539981 93 101 102
0.342503 0.208842 0.539797 99 107 108
0.340765 0.208851 0.539613 99 107 108
0.339026 0.208860 0.539428 125 133 134
0.337288 0.208869 0.539244 163 169 169
0.353029 0.209238 0.542759 123 130 134
0.351288 0.209247 0.542574 91 101 104
0.349547 0.209256 0.542390 94 104 107
0.347540 0.208271 0.542004 93 101 102
0.345802 0.208279 0.541819 100 108 109
0.344063 0.208288 0.541635 106 112 114
0.342325 0.208297 0.541451 110 116 118
0.340587 0.208306 0.541267 138 141 142
0.338595 0.207320 0.540882 176 179 180
0.354868 0.209677 0.544805 118 125 129
0.353125 0.209686 0.544620 92 99 103
0.351381 0.209695 0.544435 96 103 107
0.349369 0.208710 0.544046 97 104 108
0.347628 0.208719 0.543862 104 110 112
0.345624 0.207734 0.543473 111 117 119
0.343885 0.207743 0.543289 113 119 121
0.342147 0.207752 0.543105 150 156 158
0.356433 0.209121 0.546649 111 119 120
0.354690 0.209130 0.546464 89 97 98
0.352946 0.209139 0.546279 92 100 101
0.351203 0.209148 0.546094 92 100 101
0.349459 0.209157 0.545909 103 111 112
0.347450 0.208173 0.545518 114 120 122
0.345445 0.207189 0.545127 117 123 125
0.343707 0.207198 0.544943 160 166 168
0.360025 0.209549 0.548888 170 178 179
0.358279 0.209558 0.548703 112 119 123
0.356255 0.208575 0.548307 89 96 100
0.354511 0.208584 0.548123 92 99 103
0.352767 0.208593 0.547938 91 98 102
0.351024 0.208601 0.547753 106 114 115
0.349280 0.208610 0.547568 110 118 119
0.347271 0.207627 0.547174 131 137 139
0.345267 0.206644 0.546781 163 169 171
0.359846 0.209001 0.550549 107 115 116
0.358100 0.209010 0.550364 88 95 99
0.356354 0.209019 0.550179 92 99 103
0.354608 0.209028 0.549994 96 103 107
0.352862 0.209037 0.549809 105 112 116
0.351116 0.209046 0.549624 112 120 121
0.349102 0.208064 0.549227 146 154 155
0.347358 0.208072 0.549042 176 182 184
0.363160 0.208436 0.552581 162 170 169
0.361414 0.208445 0.552396 105 115 118
0.359667 0.208454 0.552210 86 96 99
0.357921 0.208463 0.552025 88 99 99
0.356175 0.208472 0.551840 93 104 104
0.354429 0.208480 0.551655 113 121 122
0.352683 0.208489 0.551470 107 115 116
0.350937 0.208498 0.551285 155 161 163
0.349191 0.208507 0.551100 181 187 189
0.365018 0.208869 0.554646 168 176 177
0.363269 0.208878 0.554461 106 114 115
0.361520 0.208887 0.554275 91 99 100
0.359771 0.208896 0.554090 95 103 104
0.358023 0.208905 0.553905 99 106 110
0.356274 0.208914 0.553719 105 112 116
0.354525 0.208922 0.553534 112 120 121
0.352777 0.208931 0.553348 153 161 162
0.351028 0.208940 0.553163 183 189 191
0.366587 0.208312 0.556495 171 177 175
0.364838 0.208321 0.556310 110 118 119
0.363090 0.208330 0.556124 91 99 100
0.361341 0.208338 0.555939 98 106 107
0.359592 0.208347 0.555754 102 110 111
0.357844 0.208356 0.555568 111 119 120
0.356095 0.208365 0.555383 109 117 118
0.354346 0.208374 0.555197 159 167 168
0.368157 0.207754 0.558344 164 172 169
0.366408 0.207763 0.558159 109 117 114
0.364659 0.207772 0.557973 91 99 98
0.362910 0.207781 0.557788 98 106 105
0.361162 0.207790 0.557603 102 110 111
0.359413 0.207799 0.557417 105 113 114
0.357664 0.207808 0.557232 117 125 126
0.355916 0.207817 0.557046 161 169 170
0.135579 0.208940 0.533689 131 137 139
0.133831 0.208949 0.533503 111 117 117
0.132082 0.208958 0.533318 125 131 131
0.370024 0.208184 0.560420 171 177 175
0.368272 0.208193 0.560235 113 121 120
0.366229 0.207215 0.559822 88 96 95
0.364480 0.207224 0.559637 97 105 106
0.362731 0.207233 0.559452 105 113 114
0.360983 0.207242 0.559266 114 120 122
0.359234 0.207251 0.559081 113 119 121
0.357485 0.207260 0.558896 161 167 169
0.135400 0.208392 0.535352 104 110 112
0.133651 0.208401 0.535167 104 109 114
0.131903 0.208409 0.534981 99 104 109
0.130154 0.208418 0.534796 133 138 143
0.371596 0.207626 0.562272 170 176 176
0.369844 0.207635 0.562087 114 120 120
0.368093 0.207644 0.561901 89 97 98
0.366342 0.207653 0.561715 98 106 107
0.364590 0.207662 0.561530 109 117 118
0.362839 0.207671 0.561344 110 118 119
0.361088 0.207680 0.561158 113 119 121
0.359337 0.207689 0.560973 156 162 164
0.135221 0.207843 0.537016 100 106 108
0.133472 0.207852 0.536830 104 109 116
0.131724 0.207861 0.536645 103 108 115
0.129975 0.207870 0.536460 100 105 110
0.128226 0.207879 0.536274 140 145 150
0.371716 0.208062 0.564171 118 124 126
0.369962 0.208071 0.563985 90 96 98
0.368208 0.208080 0.563799 100 108 109
0.366454 0.208089 0.563613 103 111 112
0.364700 0.208098 0.563427 112 118 120
0.362946 0.208107 0.563241 112 118 120
0.360908 0.207131 0.562824 166 169 172
0.134993 0.208282 0.538875 118 126 127
0.133293 0.207304 0.538494 107 114 120
0.131544 0.207313 0.538309 107 114 120
0.129796 0.207322 0.538123 97 104 108
0.128047 0.207331 0.537938 109 116 120
0.373290 0.207503 0.566025 125 131 131
0.371536 0.207512 0.565839 90 96 98
0.369782 0.207521 0.565653 97 103 105
0.368028 0.207530 0.565468 98 104 106
0.366274 0.207539 0.565282 114 120 122
0.364520 0.207548 0.565096 123 126 129
0.362767 0.207557 0.564910 169 172 175
0.133114 0.206756 0.540158 106 111 116
0.131311 0.207751 0.540170 112 117 122
0.129560 0.207760 0.539984 105 112 116
0.127868 0.206782 0.539602 98 105 109
0.126119 0.206791 0.539416 121 128 132
0.374864 0.206945 0.567880 132 137 142
0.373110 0.206954 0.567694 92 97 102
0.371356 0.206962 0.567508 93 98 103
0.369899 0.207955 0.567559 100 105 110
0.367849 0.206980 0.567136 111 117 119
0.366095 0.206989 0.566950 115 121 123
0.364341 0.206998 0.566764 163 169 171
0.362587 0.207007 0.566578 179 185 187
0.132883 0.207193 0.542022 146 152 154
0.131132 0.207202 0.541836 106 112 114
0.129380 0.207211 0.541650 108 114 116
0.127689 0.206234 0.541265 103 109 111
0.125878 0.207228 0.541279 97 104 108
0.124127 0.207237 0.541093 131 138 142
0.376438 0.206386 0.569734 143 149 151
0.374684 0.206395 0.569548 93 98 103
0.372930 0.206404 0.569362 96 101 106
0.371177 0.206412 0.569177 98 103 108
0.369719 0.207404 0.569230 108 113 118
0.367962 0.207413 0.569044 118 124 126
0.366206 0.207422 0.568858 160 166 168
0.130952 0.206653 0.543502 141 147 147
0.129201 0.206662 0.543317 106 112 114
0.127450 0.206670 0.543131 111 117 119
0.125698 0.206679 0.542945 98 108 111
0.123947 0.206688 0.542760 98 108 111
0.122196 0.206697 0.542574 141 153 157
0.378012 0.205827 0.571589 149 155 157
0.376565 0.206818 0.571646 93 99 101
0.374808 0.206827 0.571460 96 101 106
0.373052 0.206836 0.571274 104 109 114
0.371295 0.206845 0.571087 112 117 122
0.369539 0.206854 0.570901 115 120 125
0.367782 0.206863 0.570715 153 159 161
0.128964 0.207096 0.545187 127 133 133
0.127270 0.206121 0.544797 105 111 111
0.125519 0.206130 0.544611 104 115 115
0.123703 0.207123 0.544629 98 109 109
0.121949 0.207132 0.544443 115 127 131
0.379898 0.206249 0.573689 170 176 174
0.378450 0.207239 0.573749 108 114 116
0.376691 0.207248 0.573563 96 102 104
0.374932 0.207257 0.573376 103 110 114
0.373173 0.207266 0.573190 103 110 114
0.371115 0.206294 0.572758 106 113 117
0.369359 0.206303 0.572572 150 157 161
0.128784 0.206546 0.546856 168 174 174
0.127031 0.206555 0.546670 124 130 130
0.125277 0.206564 0.546484 107 117 120
0.123523 0.206573 0.546298 105 115 118
0.121769 0.206582 0.546112 100 110 115
0.120015 0.206591 0.545926 131 141 146
0.380029 0.206679 0.575609 135 141 139
0.378578 0.207668 0.575671 90 98 99
0.376816 0.207677 0.575484 102 110 111
0.375055 0.207686 0.575297 114 121 125
0.373293 0.207695 0.575111 106 113 117
0.371531 0.207704 0.574924 142 150 151
0.369474 0.206733 0.574490 177 185 186
0.126851 0.206005 0.548338 154 160 160
0.125097 0.206014 0.548152 107 118 118
0.123278 0.207005 0.548175 109 120 120
0.121521 0.207014 0.547989 102 112 117
0.119765 0.207023 0.547803 105 115 120
0.381921 0.207098 0.577720 149 152 153
0.380470 0.208086 0.577784 99 102 103
0.379013 0.209075 0.577848 96 102 104
0.377247 0.209084 0.577661 101 107 109
0.375480 0.209093 0.577474 108 114 116
0.373713 0.209102 0.577286 136 142 144
0.371649 0.208131 0.576849 178 184 186
0.124854 0.206446 0.550032 125 133 134
0.123098 0.206455 0.549846 109 117 118
0.121341 0.206464 0.549660 108 118 123
0.119514 0.207454 0.549684 100 110 115
0.117755 0.207463 0.549498 125 135 138
0.383817 0.207515 0.579837 161 167 167
0.382366 0.208503 0.579904 108 114 114
0.380909 0.209491 0.579970 92 98 98
0.379140 0.209500 0.579782 97 103 103
0.377371 0.209509 0.579595 104 110 110
0.375601 0.209518 0.579407 126 132 132
0.373832 0.209527 0.579219 172 178 178
0.124674 0.205895 0.551703 167 175 176
0.122918 0.205904 0.551517 110 118 119
0.121092 0.206894 0.551544 101 111 114
0.119333 0.206903 0.551358 104 114 117
0.117574 0.206912 0.551171 105 115 120
0.115815 0.206921 0.550985 146 156 161
0.384267 0.208918 0.582028 126 132 132
0.382497 0.208927 0.581841 91 97 97
0.381038 0.209914 0.581909 101 107 107
0.379574 0.210901 0.581977 108 114 114
0.377799 0.210910 0.581789 126 132 132
0.376025 0.210919 0.581600 174 180 180
0.122671 0.206333 0.553404 134 140 142
0.120912 0.206342 0.553218 104 114 117
0.119153 0.206351 0.553031 109 119 122
0.117320 0.207340 0.553060 98 108 111
0.115558 0.207349 0.552873 114 124 127
0.385855 0.208354 0.583899 139 145 145
0.384401 0.209340 0.583970 98 104 104
0.382629 0.209349 0.583782 101 107 107
0.381167 0.210335 0.583853 113 119 119
0.379392 0.210344 0.583665 115 121 121
0.377618 0.210354 0.583477 158 164 164
0.375843 0.210363 0.583289 177 183 183
0.122424 0.206761 0.555296 178 184 184
0.120663 0.206770 0.555109 116 124 125
0.118901 0.206779 0.554923 112 120 121
0.117139 0.206788 0.554736 105 116 116
0.115378 0.206797 0.554549 101 112 112
0.113616 0.206806 0.554362 137 148 148
0.387763 0.208767 0.586032 168 174 172
0.385991 0.208776 0.585844 97 105 104
0.384534 0.209761 0.585917 103 111 110
0.383071 0.210746 0.585990 111 119 120
0.381294 0.210755 0.585802 112 120 121
0.379517 0.210764 0.585614 140 146 146
0.377740 0.210773 0.585425 181 187 187
0.120482 0.206217 0.556785 153 161 160
0.118648 0.207205 0.556819 104 112 111
0.116884 0.207214 0.556632 106 114 115
0.115120 0.207222 0.556445 104 112 113
0.113356 0.207231 0.556258 112 123 123
0.387901 0.209186 0.587982 127 135 132
0.386443 0.210171 0.588058 96 104 103
0.384666 0.210180 0.587869 105 113 112
0.382889 0.210189 0.587681 113 121 122
0.381421 0.211174 0.587756 119 127 128
0.379642 0.211183 0.587567 175 181 181
0.118323 0.208606 0.558943 117 125 124
0.116553 0.208615 0.558755 112 120 121
0.114862 0.207647 0.558346 109 117 118
0.113095 0.207656 0.558158 99 106 110
0.111328 0.207665 0.557971 133 140 144
0.389815 0.209596 0.590125 148 156 155
0.388038 0.209605 0.589937 95 103 102
0.386261 0.209614 0.589749 100 107 111
0.384798 0.210598 0.589826 105 112 116
0.383019 0.210607 0.589638 118 125 129
0.381239 0.210616 0.589449 156 163 167
0.379460 0.210625 0.589260 181 187 187
0.118141 0.208051 0.560626 162 170 169
0.116372 0.208061 0.560439 110 118 119
0.114603 0.208070 0.560251 114 122 123
0.112833 0.208079 0.560063 107 114 118
0.111064 0.208088 0.559876 105 112 116
0.389955 0.210012 0.592085 107 115 116
0.388175 0.210021 0.591897 91 99 100
0.386396 0.210030 0.591708 106 113 117
0.384616 0.210039 0.591519 104 111 115
0.382836 0.210049 0.591331 133 140 144
0.381057 0.210058 0.591142 177 184 188
0.116115 0.208482 0.562349 126 134 133
0.114421 0.207515 0.561934 111 119 118
0.112652 0.207524 0.561747 113 120 124
0.110800 0.208509 0.561786 100 107 111
0.109028 0.208518 0.561598 141 148 152
0.391552 0.209445 0.593967 139 145 145
0.389773 0.209454 0.593779 98 104 106
0.387993 0.209463 0.593590 103 109 111
0.386213 0.209472 0.593401 110 115 120
0.384434 0.209481 0.593213 115 120 125
0.382654 0.209490 0.593024 174 179 184
0.115858 0.208901 0.564265 162 168 170
0.114162 0.207935 0.563847 108 114 116
0.112390 0.207944 0.563659 116 123 127
0.110618 0.207953 0.563472 104 111 115
0.108760 0.208937 0.563513 120 128 129
0.391370 0.208887 0.595660 100 106 106
0.389912 0.209868 0.595746 101 107 107
0.387811 0.208905 0.595283 110 116 116
0.386031 0.208914 0.595094 111 117 119
0.384251 0.208923 0.594906 151 157 159
0.382783 0.209905 0.594990 181 184 187
0.115676 0.208345 0.565953 184 192 193
0.113902 0.208354 0.565765 123 131 132
0.112127 0.208363 0.565577 116 123 127
0.110269 0.209346 0.565620 112 119 123
0.108492 0.209355 0.565432 105 112 116
0.106715 0.209364 0.565244 154 161 165
0.393293 0.209291 0.597820 138 144 144
0.391511 0.209301 0.597631 92 98 98
0.389729 0.209310 0.597442 110 118 119
0.387947 0.209319 0.597253 116 124 125
0.386164 0.209328 0.597064 127 130 131
0.384382 0.209337 0.596875 179 182 183
0.113641 0.208771 0.567688 152 160 161
0.111864 0.208780 0.567499 110 117 121
0.110087 0.208789 0.567311 114 121 125
0.108310 0.208798 0.567123 106 113 117
0.106443 0.209780 0.567168 125 132 136
0.394893 0.208723 0.599704 178 184 184
0.393111 0.208733 0.599515 110 118 119
0.391329 0.208742 0.599326 97 105 106
0.389546 0.208751 0.599137 117 125 126
0.387764 0.208760 0.598948 114 122 123
0.385982 0.208769 0.598759 165 168 169
0.113459 0.208214 0.569378 180 188 187
0.111682 0.208223 0.569190 116 124 125
0.109905 0.208232 0.569002 111 119 120
0.108041 0.209213 0.569049 105 115 118
0.106261 0.209222 0.568861 108 118 121
0.104481 0.209231 0.568672 160 168 169
0.394710 0.208165 0.601400 150 156 156
0.392928 0.208174 0.601211 92 100 101
0.391146 0.208183 0.601022 106 114 115
0.389364 0.208192 0.600833 116 124 125
0.387581 0.208201 0.600644 130 138 139
0.385799 0.208210 0.600455 182 188 188
0.113197 0.208628 0.571309 184 192 191
0.111418 0.208637 0.571120 144 152 153
0.109638 0.208646 0.570931 105 113 114
0.107858 0.208655 0.570743 114 121 125
0.106079 0.208664 0.570554 104 111 115
0.104299 0.208673 0.570365 140 148 149
0.394856 0.208575 0.603380 118 124 126
0.392746 0.207615 0.602906 95 102 106
0.391286 0.208593 0.603002 104 111 115
0.389181 0.207633 0.602528 110 117 121
0.387716 0.208611 0.602624 157 164 168
0.111235 0.208079 0.572813 174 182 183
0.109456 0.208088 0.572624 107 115 116
0.107676 0.208097 0.572436 116 124 125
0.105896 0.208106 0.572247 109 117 118
0.104117 0.208115 0.572058 114 122 123
0.396458 0.208006 0.605268 166 174 175
0.394673 0.208015 0.605078 92 100 101
0.392888 0.208024 0.604889 97 104 108
0.391103 0.208033 0.604700 105 112 116
0.389318 0.208042 0.604511 130 137 141
0.387534 0.208052 0.604322 178 185 189
0.111053 0.207521 0.574506 184 190 192
0.109273 0.207530 0.574317 128 134 136
0.107494 0.207539 0.574129 111 118 122
0.105714 0.207548 0.573940 110 117 121
0.103842 0.208528 0.573994 98 108 111
0.102059 0.208537 0.573806 152 162 165
0.396275 0.207446 0.606966 132 140 141
0.394490 0.207455 0.606776 93 101 102
0.392705 0.207465 0.606587 106 113 117
0.391242 0.208441 0.606687 106 113 117
0.389455 0.208450 0.606498 155 162 166
0.109006 0.207942 0.576257 150 158 159
0.107223 0.207951 0.576068 105 116 116
0.105441 0.207960 0.575879 112 123 123
0.103659 0.207969 0.575690 98 108 111
0.101877 0.207978 0.575501 128 138 141
0.397877 0.206878 0.608853 173 176 175
0.396092 0.206887 0.608664 103 111 112
0.394634 0.207862 0.608767 103 111 112
0.392847 0.207871 0.608577 111 118 122
0.391059 0.207881 0.608388 116 123 127
0.389272 0.207890 0.608198 174 182 183
0.108823 0.207383 0.577952 178 189 189
0.107041 0.207392 0.577763 107 117 120
0.105259 0.207401 0.577575 114 124 127
0.103476 0.207410 0.577386 107 117 120
0.101694 0.207419 0.577197 109 119 122
0.398026 0.207284 0.610846 151 154 153
0.396238 0.207293 0.610657 102 110 111
0.394451 0.207302 0.610467 117 125 126
0.392988 0.208277 0.610572 111 118 122
0.391198 0.208286 0.610383 137 144 148
0.106858 0.206833 0.579459 131 141 144
0.105076 0.206842 0.579270 107 117 120
0.103294 0.206851 0.579081 109 119 122
0.101512 0.206860 0.578892 100 110 113
0.099729 0.206869 0.578703 161 168 172
0.397843 0.206723 0.612547 121 127 127
0.396055 0.206732 0.612357 104 111 115
0.394594 0.207706 0.612465 117 124 128
0.393128 0.208680 0.612572 109 117 118
0.391657 0.209655 0.612679 168 176 177
0.106676 0.206274 0.581155 148 155 159
0.104893 0.206283 0.580966 106 113 117
0.103111 0.206292 0.580777 112 122 125
0.101232 0.207268 0.580840 102 112 115
0.099448 0.207278 0.580651 144 152 153
0.399447 0.206154 0.614437 175 181 181
0.397991 0.207127 0.614548 98 104 104
0.396201 0.207136 0.614358 102 109 113
0.395063 0.209073 0.614768 112 119 123
0.393268 0.209082 0.614577 122 133 133
0.391473 0.209092 0.614387 175 186 186
0.106404 0.206682 0.583106 167 174 178
0.104619 0.206691 0.582917 109 116 120
0.102834 0.206700 0.582728 114 124 127
0.101050 0.206709 0.582538 105 115 118
0.099265 0.206718 0.582349 130 137 141
0.399597 0.206556 0.616440 154 160 160
0.398139 0.207529 0.616553 93 99 99
0.396346 0.207538 0.616363 101 111 114
0.394879 0.208510 0.616476 103 113 116
0.393408 0.209483 0.616587 152 163 163
0.106221 0.206122 0.584804 177 184 188
0.104436 0.206131 0.584615 113 120 124
0.102651 0.206140 0.584426 113 120 124
0.100770 0.207115 0.584494 109 116 120
0.098982 0.207124 0.584304 116 124 125
0.399747 0.206958 0.618449 126 132 132
0.398286 0.207929 0.618564 94 100 100
0.396491 0.207938 0.618374 104 115 115
0.395021 0.208910 0.618488 103 114 114
0.393547 0.209882 0.618602 167 177 180
0.104161 0.206536 0.586573 128 136 137
0.102374 0.206545 0.586384 112 119 123
0.100587 0.206554 0.586194 111 118 122
0.098799 0.206563 0.586005 107 115 116
0.096909 0.207537 0.586075 161 169 170
0.399897 0.207357 0.620462 108 119 117
0.398102 0.207366 0.620272 100 111 109
0.396635 0.208337 0.620389 104 115 115
0.395162 0.209308 0.620506 108 119 119
0.393362 0.209317 0.620315 174 185 185
0.103978 0.205976 0.588274 149 157 158
0.102096 0.206948 0.588347 105 113 114
0.100306 0.206958 0.588157 113 121 122
0.098516 0.206967 0.587967 104 112 113
0.096726 0.206976 0.587778 149 157 158
0.401844 0.207746 0.622671 170 176 176
0.400046 0.207755 0.622480 95 106 104
0.398579 0.208725 0.622600 98 109 107
0.396778 0.208734 0.622409 105 116 116
0.394978 0.208744 0.622218 118 129 129
0.103702 0.206378 0.590240 167 173 173
0.101912 0.206387 0.590050 104 112 111
0.100025 0.207359 0.590125 116 124 123
0.098232 0.207368 0.589935 104 112 113
0.096337 0.208341 0.590009 141 149 150
0.401995 0.208142 0.624694 163 169 169
0.400194 0.208152 0.624504 90 101 101
0.398394 0.208161 0.624313 103 114 114
0.396594 0.208170 0.624122 105 115 118
0.394794 0.208179 0.623931 139 149 152
0.103333 0.207741 0.592478 174 180 180
0.101538 0.207750 0.592288 109 117 116
0.099743 0.207759 0.592097 114 122 121
0.097948 0.207769 0.591907 111 119 120
0.096153 0.207778 0.591717 135 143 144
0.402145 0.208537 0.626723 151 157 157
0.400342 0.208546 0.626532 93 103 106
0.398539 0.208555 0.626341 107 117 120
0.396737 0.208565 0.626149 107 117 120
0.394934 0.208574 0.625958 151 161 164
0.103149 0.207178 0.594186 178 186 185
0.099461 0.208158 0.594075 112 120 119
0.097663 0.208167 0.593884 110 118 119
0.095865 0.208176 0.593694 121 129 130
0.401960 0.207972 0.628438 131 137 135
0.400158 0.207981 0.628247 98 108 111
0.398355 0.207990 0.628056 105 115 118
0.396552 0.207999 0.627865 107 117 120
0.394749 0.208008 0.627674 160 170 173
0.102778 0.208537 0.596439 180 188 187
0.100978 0.208546 0.596248 125 133 134
0.099178 0.208555 0.596057 106 114 115
0.097377 0.208564 0.595866 109 120 120
0.095577 0.208573 0.595676 117 128 128
0.402110 0.208364 0.630474 110 116 114
0.400305 0.208373 0.630282 104 115 113
0.398499 0.208382 0.630091 105 116 114
0.396694 0.208392 0.629900 112 122 125
0.394888 0.208401 0.629708 173 183 186
0.100697 0.208941 0.598236 126 137 137
0.098993 0.207990 0.597770 104 115 115
0.097092 0.208959 0.597854 109 120 120
0.095289 0.208969 0.597662 108 119 119
0.403731 0.207789 0.632383 167 173 171
0.402259 0.208755 0.632514 103 109 107
0.400451 0.208764 0.632323 110 118 117
0.398643 0.208773 0.632131 111 119 118
0.396835 0.208782 0.631939 126 134 135
0.395027 0.208791 0.631748 177 185 186
0.100513 0.208376 0.599951 130 141 141
0.098710 0.208385 0.599760 104 115 115
0.096907 0.208394 0.599569 111 123 125
0.095104 0.208403 0.599378 106 118 120
0.404219 0.209135 0.634752 157 160 159
0.402408 0.209144 0.634560 102 105 104
0.400929 0.210109 0.634693 114 120 120
0.399116 0.210118 0.634501 106 112 112
0.397302 0.210127 0.634309 147 153 155
0.395489 0.210137 0.634116 177 183 185
0.100231 0.208769 0.601946 130 141 141
0.098426 0.208778 0.601755 107 118 118
0.096620 0.208787 0.601563 112 123 123
0.094815 0.208796 0.601372 107 118 118
0.404369 0.209522 0.636803 147 153 151
0.402556 0.209531 0.636610 103 109 107
0.400743 0.209540 0.636418 114 122 121
0.398930 0.209550 0.636226 104 112 111
0.397117 0.209559 0.636034 158 164 166
0.100046 0.208202 0.603664 133 144 144
0.098141 0.209169 0.603754 104 115 115
0.096435 0.208221 0.603281 113 121 122
0.094630 0.208230 0.603089 110 118 119
0.092717 0.209197 0.603179 167 175 176
0.404184 0.208953 0.638528 141 149 146
0.402370 0.208963 0.638335 103 111 108
0.400557 0.208972 0.638143 116 124 125
0.398744 0.208981 0.637951 106 114 115
0.396931 0.208990 0.637759 167 173 175
0.099764 0.208593 0.605666 139 150 150
0.097956 0.208602 0.605474 107 118 118
0.096148 0.208611 0.605283 119 125 127
0.094340 0.208621 0.605091 111 117 119
0.092532 0.208630 0.604899 167 175 176
0.403998 0.208385 0.640253 137 145 144
0.402185 0.208394 0.640060 105 113 112
0.400371 0.208403 0.639868 117 124 128
0.398558 0.208413 0.639676 113 120 124
0.396745 0.208422 0.639484 171 177 177
0.099481 0.208982 0.607673 144 152 153
0.097670 0.208991 0.607481 109 117 118
0.095860 0.209000 0.607289 118 126 127
0.094049 0.209009 0.607097 111 119 120
0.092238 0.209019 0.606905 164 172 173
0.403812 0.207816 0.641978 131 139 140
0.401999 0.207825 0.641785 105 113 114
0.400186 0.207835 0.641593 117 124 130
0.398372 0.207844 0.641401 117 124 130
0.396559 0.207853 0.641209 167 173 175
0.099197 0.209369 0.609685 147 155 156
0.097384 0.209378 0.609493 107 115 116
0.095571 0.209387 0.609301 118 126 127
0.093758 0.209397 0.609109 111 119 120
0.091945 0.209406 0.608916 162 173 173
0.403961 0.208200 0.644041 124 132 133
0.402146 0.208209 0.643848 106 114 115
0.400000 0.207266 0.643318 117 124 130
0.398514 0.208227 0.643463 116 123 129
0.396698 0.208237 0.643271 166 168 174
0.099012 0.208800 0.611410 146 154 155
0.097199 0.208810 0.611218 106 114 115
0.095385 0.208819 0.611026 115 126 126
0.093572 0.208828 0.610834 109 120 120
0.091759 0.208837 0.610641 160 171 171
0.403775 0.207630 0.645768 123 131 132
0.401960 0.207640 0.645576 114 122 123
0.400144 0.207649 0.645383 118 125 129
0.398328 0.207658 0.645191 118 125 129
0.396512 0.207667 0.644998 175 181 183
0.098826 0.208232 0.613135 138 146 147
0.097013 0.208241 0.612943 107 115 116
0.095200 0.208250 0.612751 114 125 125
0.093386 0.208260 0.612559 105 116 116
0.091573 0.208269 0.612366 158 169 169
0.403589 0.207061 0.647496 117 125 124
0.401774 0.207070 0.647303 116 124 123
0.399958 0.207079 0.647111 116 123 127
0.398142 0.207089 0.646918 121 128 132
0.396326 0.207098 0.646726 175 180 185
0.098640 0.207663 0.614860 132 143 141
0.096827 0.207673 0.614668 105 116 114
0.095014 0.207682 0.614476 111 124 123
0.093094 0.208644 0.614580 104 117 116
0.403403 0.206492 0.649223 106 112 110
0.401588 0.206501 0.649031 113 119 117
0.399772 0.206510 0.648838 115 120 125
0.397956 0.206519 0.648646 121 126 131
0.396140 0.206529 0.648453 176 178 184
0.098355 0.208046 0.616885 131 142 142
0.096540 0.208056 0.616692 105 116 116
0.094724 0.208065 0.616500 111 124 123
0.092908 0.208074 0.616307 104 117 116
0.403551 0.206871 0.651298 108 111 110
0.401733 0.206880 0.651106 122 125 124
0.399915 0.206889 0.650913 117 123 125
0.398096 0.206899 0.650720 122 128 130
0.396278 0.206908 0.650527 176 179 182
0.098169 0.207477 0.618612 129 140 140
0.096354 0.207486 0.618420 105 116 116
0.094538 0.207496 0.618227 114 125 125
0.092722 0.207505 0.618035 108 119 119
0.403365 0.206301 0.653028 108 114 112
0.401547 0.206310 0.652835 120 126 124
0.399728 0.206319 0.652643 116 124 125
0.397910 0.206329 0.652450 121 129 130
0.396092 0.206338 0.652257 176 179 180
0.097983 0.206908 0.620340 125 136 136
0.096168 0.206917 0.620147 108 119 119
0.094247 0.207876 0.620259 110 123 122
0.092429 0.207886 0.620066 109 122 121
0.403179 0.205731 0.654758 107 114 108
0.401360 0.205740 0.654565 117 124 118
0.399542 0.205749 0.654373 112 123 123
0.398050 0.206705 0.654532 116 127 127
0.395905 0.205768 0.653987 174 177 178
0.097698 0.207288 0.622374 119 130 130
0.095879 0.207297 0.622181 111 122 122
0.094061 0.207306 0.621988 109 121 123
0.092243 0.207315 0.621796 114 126 128
0.403326 0.206107 0.656843 107 115 112
0.401505 0.206116 0.656650 116 124 121
0.399684 0.206125 0.656457 114 124 127
0.397863 0.206134 0.656264 111 121 124
0.396042 0.206144 0.656071 176 179 180
0.097511 0.206717 0.624104 115 128 127
0.095693 0.206727 0.623911 111 124 123
0.093875 0.206736 0.623718 110 122 124
0.091949 0.207694 0.623834 120 132 134
0.403472 0.206481 0.658933 116 124 123
0.401649 0.206490 0.658740 114 122 121
0.399825 0.206500 0.658547 112 122 125
0.398002 0.206509 0.658353 111 121 124
0.396178 0.206518 0.658160 172 178 180
0.099046 0.207086 0.626338 169 180 178
0.097225 0.207095 0.626145 111 122 122
0.095404 0.207104 0.625952 112 123 123
0.093583 0.207114 0.625759 109 121 123
0.091654 0.208071 0.625877 131 143 145
0.403285 0.205909 0.660668 118 129 127
0.401792 0.206863 0.660834 112 123 121
0.399966 0.206873 0.660641 112 122 125
0.398140 0.206882 0.660447 108 118 121
0.396314 0.206891 0.660254 170 176 178
0.098761 0.207462 0.628385 166 174 173
0.096938 0.207471 0.628192 104 115 115
0.095114 0.207480 0.627999 112 123 123
0.093185 0.208436 0.628119 107 119 121
0.091359 0.208446 0.627925 141 153 155
0.403431 0.206281 0.662765 131 142 140
0.401605 0.206291 0.662572 105 116 114
0.399779 0.206300 0.662378 112 122 125
0.397953 0.206309 0.662185 104 114 117
0.396449 0.207262 0.662352 165 171 173
0.098476 0.207836 0.630437 157 165 166
0.096650 0.207845 0.630243 102 113 113
0.094824 0.207854 0.630050 115 126 126
0.092892 0.208810 0.630172 107 118 118
0.091063 0.208819 0.629978 150 161 161
0.403576 0.206652 0.664868 140 151 149
0.401748 0.206661 0.664674 100 111 109
0.399919 0.206670 0.664480 111 124 123
0.398415 0.207623 0.664650 102 115 114
0.396584 0.207632 0.664456 159 166 170
0.098191 0.208208 0.632494 154 162 163
0.096362 0.208218 0.632300 103 111 112
0.094430 0.209172 0.632425 117 125 126
0.092598 0.209182 0.632230 104 115 115
0.090767 0.209191 0.632036 153 164 164
0.403721 0.207021 0.666975 145 156 152
0.401890 0.207030 0.666781 101 112 108
0.400058 0.207039 0.666587 112 123 121
0.398227 0.207049 0.666392 109 120 118
0.396718 0.208000 0.666565 135 142 148
0.394884 0.208010 0.666370 176 183 189
0.097904 0.208579 0.634555 141 149 148
0.096073 0.208589 0.634361 107 115 114
0.094242 0.208598 0.634167 116 124 123
0.092411 0.208607 0.633973 108 119 119
0.090470 0.209561 0.634099 161 172 172
0.403533 0.206446 0.668717 154 162 159
0.402031 0.207397 0.668892 109 117 114
0.400197 0.207407 0.668698 114 125 123
0.398364 0.207416 0.668504 108 119 117
0.396530 0.207425 0.668309 125 132 138
0.395015 0.208376 0.668483 176 183 189
0.097618 0.208949 0.636621 113 121 120
0.095784 0.208958 0.636427 106 114 115
0.093950 0.208968 0.636233 113 121 122
0.092116 0.208977 0.636038 110 120 123
0.403677 0.206813 0.670831 161 167 165
0.401843 0.206822 0.670637 111 117 115
0.400010 0.206832 0.670443 116 127 125
0.398499 0.207781 0.670620 105 116 114
0.396984 0.208731 0.670796 115 125 130
0.395145 0.208741 0.670601 173 183 188
0.099167 0.209307 0.638887 168 174 176
0.097430 0.208374 0.638366 110 116 118
0.095596 0.208383 0.638172 109 116 120
0.093762 0.208393 0.637977 110 117 121
0.091928 0.208402 0.637783 117 127 130
0.403489 0.206238 0.672576 175 181 181
0.401984 0.207187 0.672756 112 118 118
0.400474 0.208136 0.672936 115 126 126
0.398635 0.208145 0.672741 108 119 119
0.396796 0.208155 0.672546 109 119 124
0.395275 0.209104 0.672724 166 176 181
0.098882 0.209673 0.640964 164 171 175
0.097043 0.209683 0.640769 107 114 118
0.095306 0.208750 0.640245 112 119 123
0.093470 0.208759 0.640051 110 117 121
0.091633 0.208769 0.639856 130 141 141
0.403632 0.206602 0.674698 186 189 190
0.402124 0.207550 0.674880 117 120 121
0.400285 0.207559 0.674685 112 123 123
0.398446 0.207569 0.674490 112 123 123
0.396928 0.208517 0.674672 107 117 122
0.395086 0.208527 0.674476 162 172 177
0.098694 0.209097 0.642713 148 155 159
0.096855 0.209106 0.642519 103 110 114
0.095016 0.209115 0.642324 114 121 125
0.093282 0.208184 0.641798 107 114 118
0.091445 0.208193 0.641603 150 161 161
0.402264 0.207912 0.677009 128 134 134
0.400422 0.207921 0.676814 112 122 127
0.398581 0.207930 0.676619 112 122 127
0.397060 0.208878 0.676802 104 114 119
0.395215 0.208887 0.676607 154 164 169
0.098408 0.209460 0.644797 135 142 146
0.096666 0.208529 0.644268 103 110 114
0.094827 0.208539 0.644073 116 124 125
0.093093 0.207608 0.643545 104 112 113
0.091257 0.207617 0.643350 159 170 168
0.402075 0.207334 0.678761 148 154 154
0.400559 0.208281 0.678948 110 120 125
0.398715 0.208290 0.678752 115 125 130
0.397191 0.209237 0.678938 103 113 118
0.395344 0.209247 0.678742 139 149 154
0.393497 0.209256 0.678546 176 183 187
0.098219 0.208883 0.646549 116 124 125
0.096478 0.207953 0.646018 107 115 116
0.094639 0.207962 0.645823 114 122 121
0.092800 0.207972 0.645628 113 121 120
0.402214 0.207693 0.680898 162 170 171
0.400370 0.207703 0.680702 103 113 118
0.398848 0.208649 0.680890 115 125 130
0.397001 0.208658 0.680695 110 120 125
0.395472 0.209604 0.680882 126 136 141
0.393623 0.209614 0.680686 180 187 191
0.099776 0.209235 0.648836 170 178 179
0.098030 0.208306 0.648301 102 110 111
0.096189 0.208315 0.648106 110 118 119
0.094450 0.207386 0.647572 107 115 116
0.092611 0.207395 0.647377 128 136 137
0.402352 0.208051 0.683039 178 186 187
0.400506 0.208060 0.682843 107 117 120
0.398659 0.208070 0.682647 115 125 128
0.397132 0.209015 0.682837 110 120 125
0.395283 0.209024 0.682641 111 121 126
0.393433 0.209034 0.682445 177 184 188
0.099587 0.208657 0.650590 151 157 157
0.097743 0.208666 0.650395 99 107 108
0.096000 0.207738 0.649858 110 118 119
0.094158 0.207747 0.649663 103 114 114
0.092423 0.206818 0.649127 146 157 157
0.400641 0.208416 0.684989 120 127 131
0.398792 0.208426 0.684793 112 119 123
0.396942 0.208435 0.684597 110 120 123
0.395093 0.208444 0.684401 102 112 115
0.393244 0.208454 0.684205 161 169 170
0.099303 0.209015 0.652689 130 138 137
0.097554 0.208088 0.652149 103 111 112
0.095710 0.208097 0.651954 111 119 120
0.093970 0.207169 0.651415 103 114 114
0.092128 0.207179 0.651220 160 171 171
0.400451 0.207836 0.686748 131 139 140
0.398602 0.207846 0.686552 107 115 116
0.396753 0.207855 0.686356 111 121 124
0.394904 0.207865 0.686160 102 112 115
0.393054 0.207874 0.685964 140 148 149
0.391516 0.208818 0.686158 182 190 191
0.100866 0.209363 0.654989 170 178 177
0.099017 0.209373 0.654793 114 122 121
0.097267 0.208446 0.654251 103 114 114
0.095521 0.207519 0.653708 110 121 121
0.093677 0.207528 0.653513 111 122 120
0.400262 0.207256 0.688508 159 167 168
0.398413 0.207266 0.688312 104 112 113
0.396563 0.207275 0.688116 114 122 123
0.394714 0.207285 0.687919 106 114 115
0.393178 0.208227 0.688116 125 133 134
0.391327 0.208237 0.687920 181 189 190
0.100677 0.208783 0.656749 154 165 163
0.098828 0.208793 0.656552 98 109 107
0.096978 0.208802 0.656356 108 119 119
0.095231 0.207876 0.655812 102 113 113
0.093488 0.206950 0.655267 131 142 140
0.400073 0.206677 0.690267 183 189 189
0.398223 0.206686 0.690071 107 113 113
0.396374 0.206695 0.689875 116 124 123
0.394841 0.207637 0.690074 113 121 120
0.392989 0.207647 0.689878 107 113 115
0.391448 0.208589 0.690077 172 178 180
0.100393 0.209138 0.658860 125 136 136
0.098638 0.208213 0.658312 100 111 111
0.096789 0.208222 0.658116 105 116 116
0.094940 0.208232 0.657920 103 114 114
0.093195 0.207307 0.657373 155 166 162
0.398034 0.206106 0.691830 132 138 138
0.396503 0.207047 0.692033 113 121 120
0.394651 0.207057 0.691836 114 122 121
0.392799 0.207066 0.691640 103 109 109
0.391258 0.208007 0.691841 156 162 162
0.389403 0.208017 0.691644 182 188 190
0.101964 0.209482 0.661173 161 171 174
0.100204 0.208558 0.660622 107 118 118
0.098352 0.208567 0.660425 103 114 114
0.096599 0.207643 0.659875 104 115 115
0.094750 0.207652 0.659679 111 122 122
0.398165 0.206457 0.693991 153 159 159
0.396313 0.206467 0.693794 105 113 112
0.394461 0.206476 0.693598 114 122 121
0.392922 0.207416 0.693802 104 112 111
0.391068 0.207426 0.693605 126 134 133
0.389521 0.208366 0.693808 182 188 190
0.101774 0.208900 0.662937 140 148 149
0.099919 0.208910 0.662740 98 106 107
0.098162 0.207986 0.662187 110 118 119
0.096310 0.207996 0.661991 103 111 112
0.094458 0.208005 0.661795 139 147 148
0.397975 0.205876 0.695753 171 177 177
0.396441 0.206816 0.695959 106 114 113
0.394587 0.206825 0.695763 112 120 119
0.392732 0.206835 0.695566 105 113 112
0.390878 0.206844 0.695370 106 114 113
0.389331 0.207784 0.695575 170 176 178
0.103258 0.210174 0.665618 173 181 182
0.101491 0.209251 0.665061 110 118 119
0.099729 0.208328 0.664505 103 111 112
0.097875 0.208338 0.664308 111 119 120
0.096020 0.208347 0.664112 105 113 114
0.094268 0.207424 0.663556 167 175 176
0.396251 0.206235 0.697724 121 127 127
0.394397 0.206244 0.697527 113 119 119
0.392542 0.206253 0.697330 111 119 118
0.390997 0.207192 0.697539 100 108 107
0.103068 0.209591 0.667387 154 162 161
0.101208 0.209600 0.667190 98 106 105
0.099444 0.208678 0.666631 104 115 113
0.097587 0.208688 0.666434 102 113 111
0.095830 0.207766 0.665876 132 140 139
0.396061 0.205653 0.699488 156 162 162
0.392664 0.206601 0.699502 112 118 118
0.390807 0.206610 0.699305 108 114 114
0.387397 0.207557 0.699318 179 185 187
0.104649 0.209929 0.669718 174 182 181
0.102697 0.210869 0.669886 118 129 127
0.100925 0.209948 0.669324 97 108 106
0.099158 0.209027 0.668762 104 115 113
0.097298 0.209036 0.668565 102 113 111
0.095439 0.209046 0.668368 154 162 161
0.394331 0.206009 0.701466 112 118 118
0.392474 0.206018 0.701269 113 121 120
0.390617 0.206028 0.701072 112 120 119
0.389066 0.206965 0.701285 105 111 113
0.387207 0.206974 0.701087 156 162 164
0.104282 0.211204 0.672225 158 169 167
0.102415 0.211214 0.672027 100 111 111
0.100548 0.211223 0.671829 103 114 114
0.098872 0.209373 0.670898 100 111 109
0.097010 0.209383 0.670700 121 132 130
0.394455 0.206353 0.703645 136 142 144
0.392595 0.206363 0.703448 109 117 116
0.390735 0.206372 0.703251 116 124 123
0.388876 0.206382 0.703054 104 110 112
0.387016 0.206391 0.702857 126 132 134
0.385157 0.206401 0.702659 183 189 191
0.105873 0.211538 0.674570 173 184 182
0.104003 0.211548 0.674372 124 135 133
0.102133 0.211557 0.674174 96 106 109
0.100263 0.211567 0.673975 104 114 117
0.098489 0.210647 0.673408 101 112 110
0.096622 0.210657 0.673210 151 162 160
0.394264 0.205770 0.705414 171 177 177
0.392404 0.205780 0.705217 105 113 112
0.390545 0.205789 0.705020 117 125 124
0.388685 0.205799 0.704823 109 117 118
0.386826 0.205808 0.704626 102 110 111
0.384966 0.205818 0.704429 170 175 180
0.105681 0.210952 0.676349 160 168 169
0.103723 0.211890 0.676523 102 110 111
0.101850 0.211899 0.676325 104 114 117
0.100071 0.210981 0.675754 103 113 116
0.098201 0.210990 0.675556 116 127 125
0.096430 0.210071 0.674986 168 179 177
0.392525 0.206122 0.707404 130 138 139
0.390663 0.206131 0.707206 109 117 118
0.388495 0.205216 0.706592 110 121 121
0.387242 0.207076 0.707228 101 112 112
0.385076 0.206160 0.706614 134 139 144
0.383214 0.206169 0.706417 183 188 193
0.107276 0.211283 0.678702 172 178 176
0.105317 0.212220 0.678878 128 136 137
0.103442 0.212230 0.678680 97 105 106
0.101567 0.212239 0.678481 109 117 118
0.099692 0.212249 0.678282 104 112 113
0.097913 0.211331 0.677709 153 164 162
0.392645 0.206463 0.709595 156 164 165
0.390780 0.206472 0.709397 105 113 114
0.388915 0.206482 0.709200 110 121 121
0.387353 0.207416 0.709421 103 114 114
0.385186 0.206501 0.708804 99 106 110
0.383321 0.206510 0.708607 167 174 178
0.107000 0.211623 0.680861 146 152 150
0.105038 0.212559 0.681040 102 110 111
0.103161 0.212568 0.680841 107 115 116
0.101283 0.212578 0.680642 104 112 111
0.099500 0.211661 0.680066 119 127 126
0.097625 0.211671 0.679867 171 179 178
0.390897 0.206811 0.711593 127 133 135
0.389030 0.206820 0.711396 111 119 120
0.387162 0.206830 0.711197 111 119 120
0.385295 0.206840 0.711000 99 106 110
0.383428 0.206849 0.710802 130 137 141
0.381560 0.206859 0.710604 181 188 194
0.108683 0.211025 0.682844 163 171 168
0.106724 0.211960 0.683025 113 121 118
0.104846 0.211970 0.682826 102 110 109
0.102879 0.212905 0.683007 109 117 116
0.100999 0.212915 0.682808 100 108 107
0.099213 0.211999 0.682229 153 161 160
0.390706 0.206225 0.713370 171 174 175
0.388838 0.206235 0.713172 110 118 117
0.386971 0.206244 0.712974 116 124 123
0.385403 0.207177 0.713200 107 115 116
0.383533 0.207187 0.713001 103 111 112
0.381369 0.206273 0.712380 154 159 164
0.108327 0.212287 0.685394 132 140 139
0.106447 0.212297 0.685195 98 106 105
0.104567 0.212306 0.684995 107 115 114
0.102686 0.212316 0.684796 106 114 113
0.100806 0.212325 0.684597 125 133 130
0.388952 0.206572 0.715375 130 138 137
0.387082 0.206581 0.715177 110 118 117
0.385212 0.206591 0.714979 110 121 119
0.383342 0.206600 0.714780 97 108 106
0.381472 0.206610 0.714582 114 121 125
0.379602 0.206619 0.714384 177 184 188
0.110015 0.211688 0.687382 154 162 163
0.108134 0.211697 0.687183 102 110 111
0.106254 0.211707 0.686983 103 111 112
0.104374 0.211717 0.686784 110 118 115
0.102494 0.211726 0.686585 107 115 112
0.100613 0.211736 0.686385 161 167 165
0.389065 0.206906 0.717583 175 183 184
0.387192 0.206916 0.717385 107 115 116
0.385020 0.206004 0.716758 112 123 123
0.383150 0.206014 0.716560 105 116 116
0.381280 0.206023 0.716361 98 105 111
0.379410 0.206033 0.716163 148 155 161
0.377540 0.206042 0.715965 184 189 194
0.111625 0.212012 0.689759 170 178 179
0.109742 0.212022 0.689559 118 126 127
0.107942 0.211108 0.688972 97 108 108
0.105977 0.212041 0.689160 105 116 116
0.104094 0.212050 0.688960 104 112 109
0.102211 0.212060 0.688761 134 142 139
0.387000 0.206329 0.719166 123 131 132
0.385128 0.206338 0.718968 116 123 127
0.383255 0.206348 0.718769 113 120 124
0.381089 0.205437 0.718140 102 109 115
0.379510 0.206367 0.718372 113 120 126
0.377638 0.206377 0.718174 170 177 183
0.111432 0.211422 0.691550 149 157 158
0.109549 0.211431 0.691350 98 106 107
0.107666 0.211441 0.691151 103 114 114
0.105784 0.211450 0.690951 100 111 111
0.103901 0.211460 0.690752 123 131 130
0.102018 0.211470 0.690552 167 175 174
0.387110 0.206661 0.721381 174 180 180
0.385235 0.206671 0.721182 111 119 120
0.383063 0.205761 0.720551 114 122 123
0.381191 0.205770 0.720352 111 121 124
0.379318 0.205780 0.720154 101 111 114
0.377446 0.205790 0.719955 127 134 140
0.375859 0.206719 0.720189 178 185 191
0.113047 0.211743 0.693935 157 165 166
0.111161 0.211753 0.693735 101 111 114
0.109356 0.210841 0.693142 98 108 111
0.107474 0.210850 0.692942 104 115 115
0.105591 0.210860 0.692742 108 119 119
0.103708 0.210870 0.692543 152 160 159
0.385042 0.206083 0.722966 150 156 158
0.383167 0.206093 0.722768 111 117 119
0.380999 0.205183 0.722134 108 118 123
0.379126 0.205193 0.721935 105 115 120
0.377254 0.205202 0.721737 105 112 118
0.375667 0.206131 0.721972 152 159 165
0.373792 0.206140 0.721774 183 188 193
0.114739 0.211142 0.695928 166 177 177
0.112854 0.211152 0.695728 114 125 125
0.110968 0.211162 0.695528 95 106 106
0.109163 0.210250 0.694933 103 114 114
0.107281 0.210260 0.694733 101 112 112
0.105398 0.210270 0.694534 132 143 143
0.103515 0.210279 0.694334 172 183 181
0.384850 0.205495 0.724750 183 186 187
0.382975 0.205505 0.724552 130 133 134
0.381100 0.205514 0.724353 109 117 118
0.379225 0.205524 0.724154 107 115 116
0.377350 0.205533 0.723955 102 109 115
0.375475 0.205543 0.723756 113 120 126
0.373883 0.206471 0.723994 167 172 179
0.116431 0.210542 0.697922 174 182 181
0.114546 0.210551 0.697722 126 134 135
0.112660 0.210561 0.697522 98 106 107
0.110775 0.210570 0.697322 103 111 112
0.108890 0.210580 0.697122 104 112 113
0.107088 0.209670 0.696525 116 127 125
0.105205 0.209679 0.696325 166 177 175
0.383079 0.205834 0.726776 172 175 176
0.381201 0.205844 0.726577 114 120 120
0.379323 0.205853 0.726378 113 119 119
0.377158 0.204945 0.725739 109 117 118
0.375568 0.205872 0.725980 102 110 111
0.373973 0.206799 0.726220 125 132 138
0.372093 0.206809 0.726020 174 181 187
0.118055 0.210860 0.700317 175 183 182
0.116167 0.210870 0.700117 138 146 145
0.114279 0.210879 0.699917 95 103 104
0.112467 0.209970 0.699316 100 108 109
0.110582 0.209979 0.699116 100 108 107
0.108697 0.209989 0.698916 102 110 109
0.106811 0.209998 0.698716 154 162 161
0.381301 0.206171 0.728806 165 171 169
0.379421 0.206181 0.728607 108 114 112
0.377541 0.206190 0.728407 111 119 118
0.375660 0.206200 0.728208 110 118 117
0.373780 0.206210 0.728009 99 106 110
0.371900 0.206219 0.727809 127 134 138
0.370020 0.206229 0.727610 179 184 191
0.117793 0.211186 0.702518 140 151 151
0.115974 0.210278 0.701913 96 107 107
0.114086 0.210287 0.701713 100 111 109
0.112198 0.210297 0.701513 103 114 112
0.110389 0.209388 0.700910 104 112 111
0.108503 0.209398 0.700710 135 143 142
0.379228 0.205591 0.730395 143 149 147
0.377348 0.205601 0.730196 111 119 118
0.375468 0.205610 0.729997 111 119 118
0.373588 0.205620 0.729797 107 114 118
0.371707 0.205630 0.729598 100 107 111
0.369827 0.205639 0.729399 140 147 153
0.367947 0.205649 0.729199 183 190 196
0.119490 0.210584 0.704517 152 163 161
0.117600 0.210593 0.704316 97 108 108
0.115780 0.209686 0.703709 94 105 105
0.113892 0.209695 0.703509 101 112 112
0.112004 0.209705 0.703309 97 108 108
0.110116 0.209714 0.703109 122 133 131
0.108310 0.208807 0.702504 167 178 176
0.379036 0.205002 0.732184 183 189 187
0.377442 0.205926 0.732432 126 132 132
0.375275 0.205021 0.731786 110 116 116
0.373395 0.205030 0.731586 109 119 122
0.371515 0.205040 0.731387 103 113 116
0.369634 0.205050 0.731188 100 110 115
0.367754 0.205059 0.730988 142 152 157
0.365874 0.205069 0.730789 180 187 193
0.121123 0.210898 0.706926 155 165 168
0.119230 0.210908 0.706725 100 110 113
0.117337 0.210917 0.706524 92 104 106
0.115515 0.210010 0.705915 102 114 116
0.113625 0.210020 0.705714 97 110 107
0.111811 0.209113 0.705105 107 120 117
0.109923 0.209122 0.704905 164 175 173
0.377536 0.206250 0.734673 169 172 173
0.375367 0.205345 0.734024 114 117 118
0.373484 0.205355 0.733824 109 117 118
0.371601 0.205365 0.733624 111 119 120
0.369718 0.205374 0.733425 102 112 115
0.367562 0.204470 0.732777 114 124 127
0.365681 0.204479 0.732578 149 156 162
0.364070 0.205403 0.732826 180 187 193
0.122822 0.210295 0.708928 160 171 171
0.120929 0.210304 0.708727 103 113 116
0.119036 0.210314 0.708526 94 104 107
0.117143 0.210324 0.708326 102 112 115
0.115322 0.209418 0.707713 101 111 114
0.113431 0.209427 0.707513 107 118 116
0.111541 0.209437 0.707313 159 170 168
0.375457 0.205668 0.736266 162 165 166
0.373572 0.205678 0.736067 109 117 116
0.371408 0.204774 0.735416 112 120 119
0.369525 0.204784 0.735216 107 118 118
0.367642 0.204793 0.735016 101 112 112
0.365760 0.204803 0.734817 109 119 124
0.363877 0.204813 0.734617 140 150 155
0.362260 0.205736 0.734867 178 183 188
0.124522 0.209692 0.710929 159 169 172
0.122628 0.209701 0.710729 107 117 120
0.120735 0.209711 0.710528 94 105 105
0.118842 0.209721 0.710327 102 113 113
0.116949 0.209730 0.710127 100 111 111
0.115056 0.209740 0.709926 103 114 114
0.113163 0.209749 0.709725 157 165 162
0.373379 0.205087 0.737860 153 159 159
0.371493 0.205096 0.737660 106 112 112
0.369332 0.204193 0.737007 110 121 119
0.367449 0.204203 0.736808 108 119 117
0.365567 0.204213 0.736608 107 114 118
0.363684 0.204222 0.736409 116 123 127
0.362066 0.205144 0.736661 149 154 161
0.360181 0.205154 0.736461 175 180 187
0.126221 0.209088 0.712931 163 171 170
0.124328 0.209098 0.712730 105 115 118
0.122372 0.210022 0.712947 93 103 106
0.120477 0.210032 0.712746 101 112 112
0.118581 0.210041 0.712545 97 108 108
0.116685 0.210051 0.712344 105 113 112
0.114862 0.209146 0.711727 150 158 157
0.371300 0.204505 0.739454 142 148 148
0.369415 0.204515 0.739254 102 113 111
0.367530 0.204524 0.739054 110 121 119
0.365644 0.204534 0.738855 105 115 118
0.363759 0.204544 0.738655 104 114 117
0.361873 0.204553 0.738455 116 123 129
0.359988 0.204563 0.738255 140 147 153
0.358103 0.204572 0.738055 169 174 181
0.127865 0.209398 0.715354 158 169 169
0.125970 0.209408 0.715153 104 115 115
0.124074 0.209418 0.714952 91 102 102
0.122116 0.210341 0.715171 100 111 111
0.120217 0.210351 0.714969 100 111 111
0.118319 0.210360 0.714768 100 111 111
0.116421 0.210370 0.714567 143 149 149
0.369222 0.203924 0.741048 131 139 138
0.367336 0.203933 0.740848 103 111 110
0.365451 0.203943 0.740648 109 119 122
0.363566 0.203952 0.740448 108 118 121
0.361680 0.203962 0.740249 106 113 119
0.359795 0.203972 0.740049 119 126 132
0.358169 0.204892 0.740305 136 141 150
0.356281 0.204902 0.740105 163 168 177
0.131462 0.208785 0.717559 175 183 182
0.129514 0.209707 0.717782 156 164 163
0.127616 0.209717 0.717580 95 105 108
0.125660 0.210639 0.717802 90 100 103
0.123759 0.210649 0.717601 100 110 113
0.121859 0.210658 0.717399 100 110 113
0.119958 0.210668 0.717198 98 109 109
0.118057 0.210678 0.716996 136 147 147
0.367143 0.203342 0.742642 134 140 140
0.365258 0.203352 0.742442 101 112 112
0.363372 0.203361 0.742242 108 119 119
0.361487 0.203371 0.742042 110 117 121
0.359864 0.204291 0.742302 106 113 117
0.357976 0.204300 0.742102 114 121 127
0.356088 0.204310 0.741901 131 138 144
0.354454 0.205230 0.742160 161 166 173
0.133022 0.210916 0.720843 177 183 183
0.131168 0.210014 0.720215 138 149 149
0.129215 0.210935 0.720439 94 105 105
0.127311 0.210945 0.720238 93 103 106
0.125408 0.210955 0.720036 102 112 115
0.123444 0.211876 0.720259 101 112 112
0.121538 0.211886 0.720057 100 111 111
0.119632 0.211896 0.719855 141 149 148
0.365334 0.203670 0.744698 139 147 144
0.363446 0.203679 0.744498 105 113 110
0.361558 0.203689 0.744298 110 118 119
0.359670 0.203699 0.744098 107 115 116
0.357782 0.203708 0.743898 107 114 118
0.355894 0.203718 0.743698 116 123 127
0.354260 0.204637 0.743958 133 140 146
0.352370 0.204646 0.743758 149 156 162
0.350479 0.204656 0.743557 171 178 182
0.134595 0.213042 0.724143 174 181 185
0.132684 0.213052 0.723941 128 135 139
0.130772 0.213061 0.723738 95 102 106
0.128861 0.213071 0.723535 97 104 108
0.126950 0.213081 0.723333 104 112 113
0.125039 0.213091 0.723130 100 108 109
0.123128 0.213100 0.722928 106 112 112
0.121280 0.212199 0.722298 136 142 142
0.363253 0.203087 0.746294 139 147 144
0.361365 0.203097 0.746094 103 111 108
0.359477 0.203107 0.745894 112 120 117
0.357848 0.204025 0.746158 110 118 117
0.355957 0.204034 0.745957 107 115 114
0.354067 0.204044 0.745757 112 122 127
0.352176 0.204054 0.745557 125 135 140
0.350534 0.204972 0.745819 155 162 168
0.348641 0.204982 0.745618 171 178 184
0.136225 0.214253 0.727028 171 179 180
0.134308 0.214263 0.726825 121 128 134
0.132392 0.214273 0.726622 90 97 103
0.130476 0.214282 0.726418 95 102 106
0.128612 0.213382 0.725785 103 110 114
0.126699 0.213392 0.725582 103 111 110
0.124843 0.212491 0.724949 106 114 113
0.122932 0.212501 0.724746 149 155 155
0.361435 0.203413 0.748357 140 146 144
0.359545 0.203422 0.748157 107 113 111
0.357654 0.203432 0.747956 111 119 118
0.355764 0.203442 0.747756 107 115 114
0.353873 0.203451 0.747556 104 111 117
0.351982 0.203461 0.747355 112 119 125
0.350092 0.203470 0.747155 123 133 138
0.348447 0.204388 0.747419 142 152 157
0.346554 0.204398 0.747219 167 174 178
0.139861 0.213633 0.729257 177 183 183
0.137904 0.214552 0.729489 167 174 178
0.135985 0.214562 0.729286 112 119 123
0.134066 0.214571 0.729082 89 99 102
0.132147 0.214581 0.728879 96 106 109
0.130228 0.214591 0.728675 102 113 113
0.128363 0.213691 0.728039 101 112 112
0.126447 0.213701 0.727835 106 114 111
0.124530 0.213711 0.727632 154 162 159
0.359351 0.202829 0.749956 151 157 155
0.357460 0.202839 0.749755 108 114 112
0.355570 0.202849 0.749555 112 118 116
0.353679 0.202858 0.749354 109 117 118
0.351789 0.202868 0.749154 104 112 113
0.349898 0.202878 0.748953 109 119 124
0.348253 0.203794 0.749220 117 127 132
0.346360 0.203804 0.749020 134 141 147
0.344707 0.204721 0.749286 161 168 174
0.342812 0.204730 0.749085 174 181 185
0.141545 0.213931 0.731721 176 182 184
0.139626 0.213940 0.731518 150 156 158
0.137708 0.213950 0.731315 100 107 113
0.135789 0.213960 0.731111 93 100 106
0.133824 0.214878 0.731344 98 108 111
0.131951 0.213979 0.730704 100 110 113
0.130032 0.213989 0.730501 99 107 106
0.128113 0.213999 0.730297 116 124 123
0.126250 0.213100 0.729659 162 170 167
0.357525 0.203152 0.752025 157 163 161
0.355632 0.203162 0.751824 111 117 115
0.353739 0.203172 0.751624 107 115 116
0.351595 0.202275 0.750952 104 112 113
0.349704 0.202285 0.750752 104 114 117
0.348059 0.203201 0.751022 103 113 116
0.346166 0.203210 0.750821 106 113 119
0.344273 0.203220 0.750620 123 130 136
0.342617 0.204136 0.750889 142 149 155
0.340722 0.204146 0.750688 168 175 181
0.143268 0.213319 0.733751 165 171 173
0.141349 0.213329 0.733547 126 133 137
0.139430 0.213339 0.733344 92 99 103
0.137511 0.213348 0.733140 95 105 108
0.135548 0.214266 0.733376 98 108 111
0.133627 0.214276 0.733172 102 110 111
0.131705 0.214285 0.732969 106 114 115
0.129784 0.214295 0.732765 121 129 128
0.127916 0.213397 0.732123 166 174 173
0.355438 0.202569 0.753625 170 173 172
0.353545 0.202578 0.753425 126 134 133
0.351652 0.202588 0.753224 109 117 116
0.349758 0.202597 0.753023 102 112 115
0.347865 0.202607 0.752823 104 114 117
0.345972 0.202617 0.752622 102 112 115
0.344079 0.202626 0.752421 105 115 118
0.342423 0.203542 0.752692 119 129 134
0.340527 0.203551 0.752491 133 143 148
0.339096 0.205372 0.753232 161 168 174
0.146881 0.213605 0.736426 174 182 181
0.144959 0.213614 0.736223 146 153 157
0.143038 0.213624 0.736019 104 111 115
0.141116 0.213634 0.735815 90 100 103
0.139195 0.213644 0.735612 94 104 107
0.137273 0.213654 0.735408 98 108 111
0.135352 0.213663 0.735204 97 107 110
0.133430 0.213673 0.735000 106 112 112
0.131509 0.213683 0.734797 136 142 142
0.129587 0.213693 0.734593 171 177 177
0.351458 0.201994 0.755025 142 150 149
0.349564 0.202004 0.754824 109 117 116
0.347671 0.202013 0.754624 106 114 113
0.345778 0.202023 0.754423 104 112 113
0.343885 0.202033 0.754222 102 110 111
0.341992 0.202042 0.754022 103 110 116
0.340333 0.202957 0.754295 109 116 122
0.338669 0.203871 0.754567 118 125 133
0.337000 0.204785 0.754839 148 155 163
0.335553 0.206604 0.755583 174 181 187
0.150503 0.213888 0.739108 176 184 183
0.148579 0.213898 0.738904 159 167 168
0.146655 0.213908 0.738700 123 131 132
0.144762 0.213012 0.738051 96 103 109
0.142841 0.213022 0.737847 99 106 112
0.140919 0.213031 0.737643 100 107 111
0.138998 0.213041 0.737440 102 109 113
0.137076 0.213051 0.737236 100 108 109
0.135155 0.213061 0.737032 110 118 119
0.133233 0.213071 0.736829 150 156 156
0.349370 0.201410 0.756626 164 172 171
0.347477 0.201420 0.756425 117 125 124
0.345584 0.201430 0.756224 112 120 119
0.343691 0.201439 0.756023 106 114 113
0.341798 0.201449 0.755823 104 112 113
0.339905 0.201459 0.755622 102 110 111
0.338475 0.203276 0.756373 103 110 116
0.336806 0.204189 0.756647 109 116 122
0.335131 0.205103 0.756921 133 140 148
0.333452 0.206016 0.757195 160 167 175
0.331546 0.206026 0.756993 180 187 191
0.152230 0.213275 0.741143 169 177 178
0.150306 0.213285 0.740939 135 143 144
0.148382 0.213295 0.740735 95 105 108
0.146458 0.213305 0.740531 91 101 104
0.144565 0.212409 0.739879 100 107 111
0.142610 0.213324 0.740123 103 110 114
0.140722 0.212429 0.739471 106 112 114
0.138801 0.212439 0.739268 108 114 116
0.136879 0.212448 0.739064 126 132 132
0.134958 0.212458 0.738860 162 168 168
0.345390 0.200836 0.758025 130 138 135
0.343497 0.200846 0.757825 118 126 123
0.341604 0.200855 0.757624 107 115 114
0.339711 0.200865 0.757423 104 112 111
0.338049 0.201778 0.757701 102 109 113
0.336382 0.202690 0.757978 100 107 111
0.334710 0.203603 0.758254 100 107 115
0.333033 0.204516 0.758530 114 121 129
0.331350 0.205429 0.758806 145 152 158
0.329444 0.205438 0.758604 170 177 183
0.327538 0.205448 0.758402 182 189 193
0.155881 0.212652 0.743381 173 181 182
0.153957 0.212662 0.743177 146 154 155
0.152033 0.212672 0.742973 113 120 124
0.150109 0.212682 0.742769 91 98 102
0.148185 0.212692 0.742565 96 106 109
0.146261 0.212701 0.742361 97 107 110
0.144337 0.212711 0.742157 100 108 109
0.142413 0.212721 0.741953 104 112 113
0.140489 0.212731 0.741749 117 123 121
0.138565 0.212741 0.741545 140 146 144
0.136640 0.212750 0.741341 171 178 172
0.343303 0.200252 0.759626 166 174 171
0.341410 0.200262 0.759425 118 126 125
0.339517 0.200271 0.759224 107 115 114
0.337624 0.200281 0.759024 107 115 116
0.335959 0.201193 0.759303 105 113 114
0.334289 0.202105 0.759583 103 110 114
0.332614 0.203017 0.759861 96 103 107
0.330713 0.203026 0.759660 98 105 111
0.329031 0.203938 0.759938 116 123 129
0.327343 0.204850 0.760215 146 153 159
0.325437 0.204860 0.760013 173 180 186
0.159521 0.212933 0.746075 175 183 184
0.157594 0.212943 0.745871 153 161 162
0.155668 0.212952 0.745666 116 123 127
0.153741 0.212962 0.745462 93 100 104
0.151836 0.212069 0.744804 88 98 101
0.149912 0.212078 0.744600 95 105 108
0.147988 0.212088 0.744396 96 106 109
0.146064 0.212098 0.744192 100 110 113
0.144140 0.212108 0.743988 103 111 112
0.142216 0.212118 0.743784 127 135 136
0.140291 0.212127 0.743580 160 166 164
0.339323 0.199678 0.761025 135 141 141
0.337430 0.199687 0.760825 114 120 122
0.335537 0.199697 0.760624 107 113 115
0.333869 0.200608 0.760906 102 112 115
0.331973 0.200618 0.760705 98 108 111
0.330078 0.200627 0.760504 97 107 110
0.328400 0.201539 0.760785 94 104 107
0.326717 0.202450 0.761065 97 107 112
0.325029 0.203361 0.761345 114 124 129
0.323336 0.204272 0.761624 140 150 157
0.321430 0.204282 0.761422 168 178 185
0.163177 0.212309 0.748316 168 178 181
0.161250 0.212319 0.748112 144 154 157
0.159324 0.212329 0.747908 116 123 129
0.157397 0.212339 0.747704 96 103 109
0.155470 0.212348 0.747499 93 100 106
0.153544 0.212358 0.747295 98 105 111
0.151617 0.212368 0.747091 99 106 110
0.149690 0.212378 0.746886 100 107 111
0.147791 0.211485 0.746226 102 110 111
0.145867 0.211495 0.746022 119 127 128
0.143943 0.211505 0.745818 143 149 149
0.335343 0.199103 0.762425 135 138 139
0.333450 0.199113 0.762224 112 120 121
0.331556 0.199123 0.762024 109 117 118
0.329883 0.200033 0.762308 100 110 113
0.327988 0.200043 0.762107 96 106 109
0.326307 0.200953 0.762390 97 107 110
0.324621 0.201863 0.762672 93 103 106
0.322720 0.201873 0.762471 95 105 112
0.321027 0.202783 0.762752 110 120 127
0.319123 0.202793 0.762551 135 141 152
0.317422 0.203704 0.762832 164 170 181
0.315516 0.203713 0.762630 180 187 191
0.166833 0.211685 0.750558 161 171 174
0.164906 0.211695 0.750353 138 148 151
0.162980 0.211705 0.750149 100 110 117
0.161053 0.211715 0.749945 95 105 112
0.159114 0.212626 0.750201 90 100 105
0.157200 0.211734 0.749537 97 107 112
0.155256 0.212646 0.749792 103 110 114
0.153346 0.211754 0.749128 102 109 113
0.151420 0.211764 0.748924 100 106 108
0.149493 0.211774 0.748720 108 114 116
0.147566 0.211783 0.748515 145 148 149
0.333256 0.198519 0.764025 165 171 173
0.331362 0.198529 0.763825 135 141 143
0.329469 0.198539 0.763624 109 117 118
0.327794 0.199448 0.763910 105 113 114
0.325898 0.199458 0.763709 102 110 111
0.324214 0.200367 0.763994 99 107 108
0.322316 0.200377 0.763793 99 106 110
0.320625 0.201287 0.764078 98 105 109
0.318724 0.201296 0.763876 96 103 111
0.317025 0.202206 0.764160 109 116 124
0.315321 0.203116 0.764443 138 145 153
0.313415 0.203125 0.764241 161 168 176
0.311509 0.203135 0.764039 178 185 191
0.172415 0.211052 0.753003 176 183 187
0.170489 0.211061 0.752799 155 165 170
0.168562 0.211071 0.752595 130 140 145
0.166635 0.211081 0.752391 102 112 117
0.164709 0.211091 0.752186 93 103 108
0.162782 0.211101 0.751982 94 104 109
0.160846 0.212012 0.752241 96 106 111
0.158917 0.212021 0.752036 98 108 111
0.156987 0.212031 0.751832 101 111 114
0.155058 0.212041 0.751627 105 111 113
0.153149 0.211150 0.750961 108 114 116
0.151222 0.211160 0.750757 137 140 141
0.149295 0.211170 0.750553 164 167 168
0.329495 0.198844 0.765915 164 170 170
0.327599 0.198854 0.765714 136 142 142
0.325704 0.198863 0.765513 115 121 121
0.323808 0.198873 0.765312 113 119 119
0.322122 0.199782 0.765599 102 105 106
0.320223 0.199791 0.765398 103 106 107
0.318325 0.199801 0.765197 99 106 110
0.316628 0.200710 0.765483 98 105 109
0.314727 0.200720 0.765282 96 103 111
0.313023 0.201628 0.765567 99 106 114
0.311314 0.202537 0.765852 125 132 140
0.309216 0.201648 0.765164 149 156 164
0.307501 0.202557 0.765448 172 182 187
0.305595 0.202567 0.765246 181 191 196
0.178011 0.211318 0.755917 172 182 185
0.176082 0.211328 0.755712 164 174 177
0.174145 0.210438 0.755041 142 149 153
0.172224 0.211348 0.755303 117 124 128
0.170291 0.210457 0.754632 94 104 109
0.168365 0.210467 0.754428 93 103 108
0.166438 0.210477 0.754224 91 101 104
0.164507 0.211387 0.754485 96 106 109
0.162577 0.211397 0.754281 97 107 110
0.160648 0.211407 0.754076 100 110 113
0.158719 0.211417 0.753872 103 111 112
0.156790 0.211426 0.753667 110 118 119
0.154860 0.211436 0.753463 121 127 127
0.152931 0.211446 0.753258 160 166 166
0.325724 0.199167 0.767808 165 171 169
0.323825 0.199177 0.767606 134 140 138
0.321927 0.199187 0.767405 113 116 115
0.320029 0.199196 0.767204 110 113 112
0.318130 0.199206 0.767003 103 111 112
0.316434 0.200114 0.767292 98 106 107
0.314533 0.200124 0.767090 97 104 108
0.312632 0.200133 0.766888 99 106 110
0.310731 0.200143 0.766687 95 102 108
0.309021 0.201051 0.766974 95 102 108
0.307306 0.201959 0.767261 110 117 123
0.305400 0.201969 0.767059 132 139 145
0.303494 0.201979 0.766857 151 161 166
0.301588 0.201988 0.766655 172 182 187
0.299860 0.202896 0.766941 181 191 196
0.181672 0.210694 0.758161 160 170 173
0.179743 0.210703 0.757957 136 146 149
0.177814 0.210713 0.757752 115 125 128
0.175885 0.210723 0.757548 102 112 115
0.173955 0.210733 0.757343 91 101 104
0.172026 0.210743 0.757139 89 99 102
0.170097 0.210753 0.756934 97 104 108
0.168168 0.210762 0.756730 100 107 111
0.166238 0.210772 0.756525 99 107 108
0.164309 0.210782 0.756321 100 108 109
0.162380 0.210792 0.756116 102 110 111
0.160451 0.210802 0.755912 107 115 116
0.158521 0.210812 0.755707 126 134 135
0.156592 0.210821 0.755503 160 168 169
0.322150 0.200386 0.770198 176 179 178
0.320041 0.199498 0.769503 140 143 142
0.318140 0.199508 0.769301 118 124 124
0.316440 0.200415 0.769593 105 111 111
0.314536 0.200425 0.769391 103 110 114
0.312829 0.201332 0.769681 100 107 111
0.310923 0.201342 0.769479 96 106 109
0.309017 0.201352 0.769277 95 105 108
0.307111 0.201361 0.769075 94 104 109
0.305390 0.202269 0.769364 94 104 109
0.303482 0.202278 0.769161 94 104 109
0.301754 0.203186 0.769449 103 113 118
0.299843 0.203196 0.769247 123 133 138
0.297931 0.203205 0.769044 152 162 167
0.296020 0.203215 0.768841 174 181 187
0.294449 0.205020 0.769617 182 189 195
0.189163 0.209151 0.760341 174 181 185
0.187237 0.209161 0.760136 154 161 165
0.185333 0.210069 0.760406 132 142 147
0.183404 0.210079 0.760201 110 120 125
0.181475 0.210089 0.759997 95 107 111
0.179545 0.210099 0.759792 89 101 105
0.177616 0.210108 0.759588 88 100 102
0.175687 0.210118 0.759383 90 102 104
0.173758 0.210128 0.759179 95 108 107
0.171828 0.210138 0.758974 97 110 109
0.169899 0.210148 0.758770 101 112 112
0.167970 0.210158 0.758565 97 108 108
0.166041 0.210167 0.758361 99 107 108
0.164111 0.210177 0.758156 113 121 122
0.162174 0.211086 0.758422 141 147 147
0.160243 0.211095 0.758217 168 174 174
0.318352 0.200706 0.772100 178 184 184
0.316446 0.200715 0.771898 147 153 153
0.314540 0.200725 0.771696 123 131 130
0.312634 0.200735 0.771494 107 115 114
0.310728 0.200744 0.771292 100 111 111
0.308822 0.200754 0.771090 98 109 109
0.307292 0.202557 0.771875 94 106 108
0.305380 0.202567 0.771673 97 109 111
0.303469 0.202577 0.771470 97 109 111
0.301558 0.202587 0.771267 92 104 106
0.299647 0.202596 0.771065 91 101 106
0.297911 0.203503 0.771354 91 101 106
0.295997 0.203513 0.771152 101 110 120
0.294253 0.204419 0.771440 123 132 142
0.292337 0.204429 0.771237 148 155 163
0.290585 0.205336 0.771525 167 174 182
0.288828 0.206242 0.771813 177 184 190
0.286907 0.206252 0.771609 183 190 196
0.284985 0.206262 0.771405 187 194 198
0.198640 0.209395 0.763673 176 184 185
0.196711 0.209405 0.763468 170 177 181
0.194782 0.209415 0.763264 162 169 173
0.192852 0.209425 0.763059 142 152 159
0.190923 0.209435 0.762855 123 133 140
0.188994 0.209444 0.762650 105 115 122
0.187065 0.209454 0.762446 94 104 111
0.185135 0.209464 0.762241 91 101 106
0.183206 0.209474 0.762037 91 101 106
0.181295 0.210381 0.762308 91 105 109
0.179363 0.210391 0.762103 93 107 111
0.177431 0.210401 0.761898 93 107 109
0.175499 0.210411 0.761693 95 109 111
0.173567 0.210421 0.761489 97 110 109
0.171636 0.210431 0.761284 94 107 106
0.169704 0.210440 0.761079 103 114 114
0.167772 0.210450 0.760874 122 133 133
0.165840 0.210460 0.760669 147 153 153
0.312829 0.201929 0.774301 169 175 175
0.310918 0.201939 0.774099 140 148 145
0.309007 0.201948 0.773896 114 122 119
0.307096 0.201958 0.773694 102 113 113
0.305370 0.202864 0.773987 101 112 112
0.303456 0.202874 0.773784 98 109 109
0.301722 0.203779 0.774076 101 112 112
0.299806 0.203789 0.773873 100 110 113
0.297889 0.203799 0.773670 97 107 110
0.295973 0.203809 0.773467 94 104 109
0.294057 0.203818 0.773264 90 100 105
0.292307 0.204724 0.773554 95 101 112
0.290388 0.204734 0.773351 100 106 117
0.288631 0.205640 0.773641 109 116 124
0.286710 0.205650 0.773437 121 128 136
0.284945 0.206556 0.773726 139 148 158
0.283021 0.206565 0.773522 153 162 172
0.281097 0.206575 0.773318 167 177 182
0.279173 0.206585 0.773114 176 186 191
0.277249 0.206595 0.772910 182 188 190
0.208089 0.208741 0.766531 172 182 185
0.206159 0.208751 0.766326 172 182 185
0.204279 0.209657 0.766603 165 175 180
0.202347 0.209667 0.766398 148 158 163
0.200415 0.209677 0.766194 135 145 150
0.198483 0.209687 0.765989 121 131 136
0.196551 0.209697 0.765784 105 115 120
0.194620 0.209707 0.765579 97 107 112
0.192655 0.208820 0.764895 91 101 108
0.190726 0.208830 0.764690 89 99 106
0.188796 0.208839 0.764486 89 99 104
0.186867 0.208849 0.764281 94 104 109
0.184960 0.209756 0.764555 97 107 112
0.183029 0.209766 0.764350 100 110 115
0.181097 0.209776 0.764146 97 109 111
0.179165 0.209785 0.763941 99 111 113
0.177245 0.210692 0.764214 98 109 109
0.175311 0.210702 0.764009 101 112 112
0.173377 0.210712 0.763803 111 119 118
0.171442 0.210722 0.763598 137 145 144
0.169508 0.210732 0.763393 162 170 169
0.307275 0.203149 0.776509 157 163 161
0.305358 0.203159 0.776306 129 135 133
0.303442 0.203169 0.776103 114 122 121
0.301526 0.203178 0.775899 106 114 113
0.299609 0.203188 0.775696 104 112 111
0.297693 0.203198 0.775493 103 111 110
0.295949 0.204103 0.775787 98 106 107
0.294030 0.204113 0.775583 99 107 108
0.292111 0.204122 0.775380 100 107 111
0.290356 0.205028 0.775673 97 104 108
0.288435 0.205037 0.775469 95 102 108
0.286672 0.205942 0.775761 92 99 105
0.284748 0.205952 0.775557 90 97 105
0.282824 0.205962 0.775353 92 99 107
0.280900 0.205972 0.775149 103 110 118
0.278976 0.205982 0.774945 116 123 131
0.277052 0.205991 0.774741 129 134 141
0.275128 0.206001 0.774537 141 146 153
0.273203 0.206011 0.774333 150 160 165
0.271141 0.205125 0.773636 159 169 174
0.269219 0.205135 0.773432 165 175 180
0.267298 0.205145 0.773228 171 181 186
0.265376 0.205155 0.773024 176 186 189
0.263583 0.206060 0.773313 180 190 193
0.261659 0.206070 0.773109 180 190 193
0.223251 0.207162 0.769516 177 189 193
0.221396 0.208067 0.769798 175 187 191
0.219398 0.207181 0.769108 172 184 188
0.217537 0.208087 0.769389 165 177 181
0.215608 0.208097 0.769184 158 168 173
0.213679 0.208107 0.768980 154 164 169
0.211750 0.208117 0.768775 146 153 159
0.209820 0.208126 0.768571 139 146 152
0.207891 0.208136 0.768366 122 132 139
0.206013 0.209042 0.768646 105 115 122
0.204081 0.209052 0.768441 96 106 113
0.202194 0.209957 0.768720 93 103 110
0.200260 0.209967 0.768515 93 103 108
0.198285 0.209081 0.767827 90 100 105
0.196353 0.209091 0.767622 93 103 108
0.194422 0.209101 0.767417 95 105 110
0.192490 0.209111 0.767212 98 108 111
0.190558 0.209121 0.767008 97 107 110
0.188626 0.209130 0.766803 95 105 108
0.186694 0.209140 0.766598 96 106 109
0.184762 0.209150 0.766393 102 110 111
0.182850 0.210056 0.766669 100 108 109
0.180916 0.210066 0.766464 107 115 116
0.178982 0.210076 0.766259 117 125 126
0.177047 0.210086 0.766054 128 136 135
0.175113 0.210095 0.765849 152 160 159
0.301688 0.204366 0.778723 162 168 168
0.299590 0.203482 0.778019 130 138 137
0.297671 0.203491 0.777816 117 125 124
0.295752 0.203501 0.777612 113 119 119
0.294002 0.204405 0.777908 111 117 117
0.292081 0.204415 0.777704 106 112 114
0.290159 0.204425 0.777501 101 107 109
0.288238 0.204435 0.777297 100 108 109
0.286475 0.205339 0.777591 98 106 107
0.284551 0.205349 0.777387 99 106 110
0.282627 0.205359 0.777183 99 106 110
0.280703 0.205369 0.776979 100 107 111
0.278779 0.205378 0.776775 97 104 108
0.276854 0.205388 0.776571 93 100 104
0.274930 0.205398 0.776367 92 99 103
0.273006 0.205408 0.776163 93 100 104
0.271082 0.205418 0.775959 93 100 104
0.269023 0.204533 0.775260 94 104 107
0.267101 0.204543 0.775056 97 107 110
0.265180 0.204552 0.774853 100 110 115
0.263386 0.205457 0.775144 109 119 124
0.261462 0.205467 0.774940 117 127 132
0.259538 0.205476 0.774736 124 134 139
0.257614 0.205486 0.774532 130 140 145
0.255690 0.205496 0.774328 142 152 157
0.253880 0.206401 0.774617 150 157 163
0.252066 0.207305 0.774906 150 157 163
0.250137 0.207315 0.774701 153 160 166
0.248208 0.207325 0.774497 156 163 169
0.246278 0.207335 0.774292 156 163 169
0.244349 0.207344 0.774088 157 164 170
0.242420 0.207354 0.773883 154 164 171
0.240587 0.208259 0.774170 154 164 171
0.238656 0.208269 0.773965 153 163 170
0.236724 0.208279 0.773760 153 163 170
0.234703 0.207394 0.773065 155 165 172
0.232774 0.207403 0.772861 153 163 170
0.230844 0.207413 0.772656 146 156 161
0.228915 0.207423 0.772452 138 148 153
0.226986 0.207433 0.772247 132 142 147
0.225057 0.207443 0.772043 125 135 140
0.223127 0.207453 0.771838 113 125 129
0.221198 0.207462 0.771634 102 114 118
0.219269 0.207472 0.771429 97 109 113
0.217340 0.207482 0.771224 96 108 112
0.215410 0.207492 0.771020 96 106 111
0.213542 0.208397 0.771303 95 105 110
0.211610 0.208407 0.771098 94 104 109
0.209678 0.208416 0.770893 94 104 109
0.207799 0.209321 0.771175 94 104 109
0.205865 0.209331 0.770970 98 108 113
0.203931 0.209341 0.770765 97 107 112
0.201996 0.209351 0.770560 98 108 113
0.200062 0.209361 0.770355 98 109 109
0.198127 0.209371 0.770150 97 108 108
0.196193 0.209380 0.769945 98 109 109
0.194259 0.209390 0.769740 100 111 111
0.192324 0.209400 0.769535 98 109 107
0.190390 0.209410 0.769330 98 109 107
0.188428 0.208525 0.768641 101 107 107
0.186496 0.208535 0.768436 111 117 117
0.184587 0.209440 0.768715 125 133 132
0.182652 0.209449 0.768509 147 155 154
0.180718 0.209459 0.768304 170 178 177
0.295898 0.204687 0.780442 171 179 180
0.293974 0.204697 0.780238 154 162 163
0.292050 0.204706 0.780034 132 140 139
0.290126 0.204716 0.779830 114 122 121
0.288202 0.204726 0.779626 110 116 116
0.286278 0.204736 0.779422 111 117 117
0.284354 0.204746 0.779218 105 113 114
0.282430 0.204755 0.779014 103 111 112
0.280506 0.204765 0.778810 103 110 114
0.278581 0.204775 0.778606 104 111 115
0.276657 0.204785 0.778402 99 106 110
0.274733 0.204795 0.778198 97 104 108
0.272809 0.204804 0.777994 96 104 105
0.270885 0.204814 0.777790 93 101 102
0.268961 0.204824 0.777586 96 104 105
0.267037 0.204834 0.777382 97 105 106
0.265113 0.204844 0.777178 95 106 106
0.263189 0.204853 0.776974 96 107 107
0.261265 0.204863 0.776770 95 105 108
0.259341 0.204873 0.776566 90 100 103
0.257416 0.204883 0.776362 91 101 106
0.255610 0.205787 0.776654 91 101 106
0.253683 0.205796 0.776450 90 100 105
0.251868 0.206700 0.776741 91 101 106
0.249939 0.206710 0.776537 94 104 109
0.248117 0.207614 0.776827 96 106 111
0.246185 0.207624 0.776622 98 105 111
0.244253 0.207633 0.776418 97 104 110
0.242222 0.206749 0.775719 97 104 110
0.240390 0.207653 0.776008 97 104 110
0.238458 0.207663 0.775803 94 104 111
0.236526 0.207673 0.775598 94 104 111
0.234594 0.207683 0.775394 90 100 107
0.232662 0.207693 0.775189 94 104 111
0.230730 0.207702 0.774984 91 101 106
0.228799 0.207712 0.774779 93 103 108
0.226867 0.207722 0.774574 93 103 108
0.224935 0.207732 0.774370 90 100 105
0.223003 0.207742 0.774165 97 107 112
0.221000 0.206858 0.773469 96 106 111
0.219139 0.207761 0.773755 98 105 111
0.217208 0.207771 0.773550 98 105 111
0.215276 0.207781 0.773346 98 105 111
0.213344 0.207791 0.773141 99 106 112
0.211412 0.207801 0.772936 102 109 115
0.209536 0.208705 0.773221 102 109 115
0.207601 0.208715 0.773016 101 111 116
0.205667 0.208725 0.772811 101 111 116
0.203780 0.209629 0.773094 98 108 111
0.201843 0.209639 0.772889 101 111 114
0.199906 0.209648 0.772684 102 110 109
0.197929 0.208764 0.771990 102 110 109
0.195995 0.208774 0.771785 102 110 109
0.194060 0.208784 0.771580 107 115 114
0.192126 0.208794 0.771375 120 128 125
0.190192 0.208803 0.771170 140 148 145
0.188257 0.208813 0.770965 165 171 169
0.288005 0.204123 0.781456 168 174 174
0.286081 0.204132 0.781252 149 155 155
0.284157 0.204142 0.781048 130 141 141
0.282232 0.204152 0.780844 117 128 128
0.280308 0.204162 0.780640 108 119 119
0.278384 0.204172 0.780436 108 119 119
0.276460 0.204181 0.780232 107 118 116
0.274536 0.204191 0.780028 104 115 113
0.272612 0.204201 0.779824 110 116 114
0.270688 0.204211 0.779621 108 114 112
0.268764 0.204221 0.779417 101 112 110
0.266840 0.204230 0.779213 101 112 110
0.264916 0.204240 0.779009 97 110 109
0.262992 0.204250 0.778805 99 112 111
0.261068 0.204260 0.778601 100 112 114
0.259266 0.205163 0.778896 97 109 111
0.257339 0.205173 0.778691 99 111 113
0.255412 0.205182 0.778487 96 108 110
0.253600 0.206085 0.778781 94 106 108
0.251671 0.206095 0.778577 95 107 109
0.249851 0.206998 0.778870 97 109 111
0.247919 0.207008 0.778665 99 111 113
0.246091 0.207911 0.778957 100 110 113
0.244157 0.207921 0.778752 98 108 111
0.242123 0.207038 0.778051 97 107 110
0.240288 0.207941 0.778342 97 107 110
0.238354 0.207950 0.778137 97 107 112
0.236419 0.207960 0.777932 98 108 113
0.234396 0.207077 0.777231 97 109 113
0.232464 0.207087 0.777027 97 109 113
0.230533 0.207097 0.776822 99 111 113
0.228601 0.207106 0.776617 99 111 113
0.226669 0.207116 0.776412 98 108 111
0.224737 0.207126 0.776208 100 110 113
0.222805 0.207136 0.776003 100 110 115
0.220873 0.207146 0.775798 101 111 116
0.218942 0.207156 0.775593 102 112 117
0.217075 0.208059 0.775881 102 112 117
0.215141 0.208069 0.775676 103 113 116
0.213206 0.208079 0.775471 105 115 118
0.211272 0.208088 0.775266 105 113 114
0.209338 0.208098 0.775061 103 111 112
0.207456 0.209002 0.775348 100 111 111
0.205519 0.209011 0.775142 102 113 113
0.203582 0.209021 0.774937 110 121 119
0.201645 0.209031 0.774732 118 129 127
0.199708 0.209041 0.774526 137 145 142
0.197771 0.209051 0.774321 144 152 149
0.195834 0.209061 0.774116 152 160 157
0.193897 0.209071 0.773910 169 177 174
0.280262 0.204451 0.782975 179 190 190
0.278335 0.204460 0.782771 165 176 176
0.276408 0.204470 0.782567 152 160 159
0.274482 0.204480 0.782363 139 147 146
0.272555 0.204490 0.782158 125 134 127
0.270628 0.204500 0.781954 121 130 123
0.268567 0.203617 0.781247 116 127 125
0.266643 0.203627 0.781043 109 120 118
0.264848 0.204529 0.781341 103 116 115
0.262922 0.204539 0.781137 102 115 114
0.260995 0.204549 0.780933 104 118 120
0.259190 0.205451 0.781230 98 112 114
0.257261 0.205461 0.781026 97 111 113
0.255332 0.205471 0.780821 100 114 116
0.253516 0.206373 0.781117 101 113 115
0.251585 0.206383 0.780913 101 113 115
0.249762 0.207285 0.781208 103 111 112
0.247827 0.207295 0.781003 103 111 112
0.245893 0.207304 0.780798 104 112 113
0.243959 0.207314 0.780593 103 111 112
0.242024 0.207324 0.780388 104 110 112
0.240090 0.207334 0.780182 106 112 114
0.238155 0.207344 0.779977 104 112 113
0.236221 0.207354 0.779772 106 114 115
0.234287 0.207364 0.779567 105 113 114
0.232352 0.207373 0.779362 105 113 114
0.230418 0.207383 0.779157 102 110 111
0.228483 0.207393 0.778952 99 107 108
0.226549 0.207403 0.778747 104 112 113
0.224615 0.207413 0.778542 102 110 111
0.222680 0.207423 0.778337 101 111 114
0.220746 0.207433 0.778132 103 113 116
0.218811 0.207442 0.777927 107 117 120
0.216877 0.207452 0.777722 107 117 120
0.214943 0.207462 0.777517 112 123 123
0.213068 0.208365 0.777807 115 126 126
0.211074 0.207482 0.777107 120 128 127
0.209194 0.208384 0.777396 132 140 139
0.207257 0.208394 0.777190 154 162 161
0.205370 0.209297 0.777479 163 171 170
0.203430 0.209307 0.777273 170 178 177
0.268639 0.204797 0.784088 185 193 192
0.266709 0.204807 0.783884 180 188 187
0.264780 0.204817 0.783679 172 183 181
0.262978 0.205718 0.783979 165 176 174
0.261046 0.205728 0.783774 159 170 168
0.259114 0.205737 0.783570 150 161 159
0.257182 0.205747 0.783365 146 157 155
0.255367 0.206649 0.783663 142 153 151
0.253546 0.207550 0.783961 133 141 140
0.251721 0.208451 0.784259 131 139 138
0.249781 0.208461 0.784053 131 137 137
0.247842 0.208471 0.783848 128 134 134
0.245902 0.208481 0.783642 124 127 128
0.243962 0.208491 0.783437 120 123 124
0.242023 0.208501 0.783231 120 123 122
0.240083 0.208511 0.783025 121 124 123
0.238144 0.208520 0.782820 123 126 125
0.236204 0.208530 0.782614 122 125 124
0.234265 0.208540 0.782408 122 128 126
0.232325 0.208550 0.782203 128 134 132
0.230385 0.208560 0.781997 132 138 136
0.228446 0.208570 0.781792 139 145 143
0.226429 0.207688 0.781087 148 154 152
0.224492 0.207698 0.780881 150 156 154
0.222555 0.207708 0.780676 155 163 162
0.220548 0.206826 0.779972 159 167 166
0.218613 0.206836 0.779767 161 169 168
0.216744 0.207737 0.780060 167 175 174
0.214807 0.207747 0.779855 173 181 180
