ply
format ascii 1.0
element vertex 1950
property float x
property float y
property float z
property uchar red
property uchar green
property uchar blue
end_header
0.483571 0.207166 0.570579 137 145 142
0.481822 0.207175 0.570394 138 146 143
0.480073 0.207184 0.570208 133 142 135
0.478325 0.207193 0.570023 128 137 130
0.476576 0.207202 0.569838 131 138 132
0.474375 0.206224 0.569411 132 139 133
0.472629 0.206233 0.569226 131 135 130
0.470883 0.206242 0.569041 126 130 125
0.468692 0.205264 0.568615 127 134 128
0.466948 0.205272 0.568431 127 134 128
0.465205 0.205281 0.568246 128 135 129
0.463461 0.205290 0.568061 131 138 132
0.461283 0.204312 0.567637 125 132 126
0.459542 0.204321 0.567452 131 138 132
0.457801 0.204330 0.567268 129 136 130
0.456060 0.204339 0.567083 131 138 132
0.454319 0.204348 0.566899 133 140 134
0.453000 0.205344 0.566952 131 138 132
0.451256 0.205352 0.566767 127 133 131
0.449513 0.205361 0.566582 131 137 135
0.447769 0.205370 0.566397 128 134 132
0.446437 0.206366 0.566449 129 135 133
0.444691 0.206375 0.566264 133 141 138
0.442945 0.206384 0.566079 139 147 144
0.441199 0.206393 0.565894 144 152 149
0.439452 0.206402 0.565709 144 152 149
0.437706 0.206411 0.565524 150 158 155
0.435960 0.206420 0.565339 139 147 144
0.434607 0.207416 0.565389 141 149 146
0.432859 0.207425 0.565203 139 147 144
0.430722 0.206446 0.564783 148 154 152
0.428976 0.206455 0.564598 150 156 154
0.427230 0.206464 0.564413 146 152 150
0.425103 0.205486 0.563995 149 155 153
0.423360 0.205495 0.563810 149 155 153
0.421616 0.205504 0.563625 149 155 153
0.419873 0.205512 0.563440 154 160 158
0.495633 0.206555 0.573541 134 140 140
0.493884 0.206564 0.573355 126 132 132
0.492135 0.206573 0.573170 125 131 131
0.490387 0.206582 0.572984 120 128 129
0.488638 0.206591 0.572799 114 122 123
0.486889 0.206600 0.572614 114 121 125
0.485140 0.206609 0.572428 113 120 124
0.483392 0.206618 0.572243 115 126 126
0.481643 0.206627 0.572058 117 128 128
0.479894 0.206636 0.571872 116 127 123
0.478146 0.206645 0.571687 121 132 128
0.476397 0.206654 0.571501 121 129 126
0.474648 0.206662 0.571316 117 125 122
0.472450 0.205685 0.570887 118 124 122
0.470704 0.205694 0.570702 122 128 126
0.468958 0.205703 0.570517 118 124 122
0.466770 0.204726 0.570089 113 119 117
0.465026 0.204735 0.569905 112 118 116
0.463282 0.204744 0.569720 117 123 121
0.461105 0.203766 0.569293 115 121 119
0.459364 0.203775 0.569109 110 116 114
0.457623 0.203784 0.568924 111 120 113
0.455882 0.203793 0.568739 110 119 112
0.454141 0.203802 0.568555 110 117 111
0.452821 0.204797 0.568611 108 115 109
0.451078 0.204806 0.568426 107 114 108
0.449334 0.204815 0.568241 104 111 105
0.447591 0.204823 0.568056 103 109 107
0.446258 0.205819 0.568111 104 110 108
0.444512 0.205828 0.567926 102 110 107
0.442766 0.205837 0.567740 102 110 107
0.441020 0.205845 0.567555 103 111 108
0.439674 0.206841 0.567608 103 111 108
0.437527 0.205863 0.567185 97 105 104
0.436177 0.206859 0.567238 97 105 104
0.434428 0.206867 0.567052 100 108 107
0.432289 0.205890 0.566630 98 106 105
0.430543 0.205899 0.566445 97 105 106
0.428797 0.205908 0.566260 95 103 104
0.427051 0.205917 0.566074 96 102 102
0.424924 0.204939 0.565653 98 104 104
0.423181 0.204948 0.565469 94 100 100
0.421437 0.204957 0.565284 97 103 103
0.419694 0.204966 0.565099 94 100 100
0.417950 0.204975 0.564914 93 99 99
0.416207 0.204983 0.564729 97 103 103
0.414099 0.204006 0.564310 98 104 104
0.412358 0.204015 0.564125 100 106 108
0.410617 0.204024 0.563941 98 104 106
0.408876 0.204032 0.563756 99 105 107
0.407135 0.204041 0.563572 98 104 106
0.405394 0.204050 0.563387 100 108 109
0.403653 0.204059 0.563203 109 117 118
0.401565 0.203081 0.562786 110 118 119
0.399827 0.203090 0.562601 110 118 119
0.398089 0.203099 0.562417 117 123 123
0.396350 0.203108 0.562233 118 124 124
0.394276 0.202130 0.561817 124 130 130
0.392540 0.202139 0.561633 131 137 137
0.390804 0.202148 0.561449 139 145 145
0.389068 0.202156 0.561265 142 148 148
0.387332 0.202165 0.561081 143 149 147
0.385597 0.202174 0.560897 141 147 145
0.384182 0.203170 0.560943 145 151 149
0.382443 0.203179 0.560758 146 152 150
0.380705 0.203188 0.560574 156 162 160
0.504197 0.205963 0.576131 126 132 130
0.502942 0.206957 0.576196 126 132 130
0.500700 0.205980 0.575760 124 130 130
0.499439 0.206975 0.575825 118 124 124
0.497202 0.205998 0.575390 114 120 120
0.495453 0.206007 0.575204 113 119 119
0.493705 0.206016 0.575019 112 118 120
0.491956 0.206025 0.574834 113 119 121
0.490207 0.206034 0.574648 110 118 119
0.488459 0.206043 0.574463 107 115 116
0.486710 0.206052 0.574277 102 113 113
0.484961 0.206061 0.574092 103 114 114
0.483213 0.206070 0.573907 99 112 111
0.481464 0.206078 0.573721 100 113 112
0.479715 0.206087 0.573536 99 112 111
0.477966 0.206096 0.573350 99 112 111
0.476218 0.206105 0.573165 97 105 104
0.474469 0.206114 0.572980 95 103 102
0.472720 0.206123 0.572794 96 104 103
0.470525 0.205147 0.572363 98 106 105
0.468779 0.205155 0.572178 99 107 106
0.467033 0.205164 0.571993 95 103 102
0.464847 0.204188 0.571563 92 100 99
0.463104 0.204197 0.571378 96 104 103
0.461360 0.204206 0.571194 96 104 103
0.459185 0.203229 0.570765 92 100 99
0.457444 0.203238 0.570580 91 99 96
0.455703 0.203247 0.570396 91 99 96
0.454386 0.204241 0.570454 98 107 100
0.452643 0.204250 0.570269 98 107 100
0.450899 0.204259 0.570085 99 106 100
0.449571 0.205253 0.570142 98 105 99
0.447825 0.205262 0.569957 94 100 98
0.446079 0.205271 0.569772 97 103 101
0.444333 0.205280 0.569587 97 105 102
0.442992 0.206275 0.569643 97 105 102
0.441244 0.206284 0.569457 96 104 101
0.439495 0.206292 0.569272 93 101 98
0.437746 0.206301 0.569087 96 104 101
0.435998 0.206310 0.568901 99 107 104
0.434249 0.206319 0.568716 96 104 103
0.432500 0.206328 0.568531 95 103 102
0.430752 0.206337 0.568345 96 104 103
0.428618 0.205360 0.567921 95 103 102
0.426872 0.205369 0.567736 96 102 102
0.425126 0.205378 0.567551 93 99 99
0.423002 0.204401 0.567127 93 99 99
0.421259 0.204410 0.566942 96 102 102
0.419515 0.204419 0.566758 93 99 99
0.417772 0.204428 0.566573 97 103 103
0.416028 0.204437 0.566388 97 103 103
0.414285 0.204446 0.566203 91 97 97
0.412179 0.203469 0.565782 89 95 97
0.410438 0.203478 0.565597 89 95 97
0.408697 0.203487 0.565413 85 93 94
0.406956 0.203495 0.565228 86 94 95
0.405216 0.203504 0.565044 86 93 97
0.403475 0.203513 0.564859 86 93 97
0.401734 0.203522 0.564674 89 96 100
0.399649 0.202545 0.564255 89 96 100
0.397911 0.202554 0.564071 89 97 98
0.396172 0.202563 0.563887 89 97 98
0.394434 0.202572 0.563702 89 95 97
0.392695 0.202580 0.563518 89 95 97
0.390957 0.202589 0.563334 90 96 98
0.389219 0.202598 0.563149 91 97 99
0.387480 0.202607 0.562965 92 98 100
0.385742 0.202616 0.562781 92 98 100
0.384003 0.202625 0.562597 91 97 97
0.382265 0.202634 0.562412 96 102 102
0.380527 0.202642 0.562228 98 104 104
0.378788 0.202651 0.562044 98 104 104
0.377360 0.203646 0.562091 102 109 113
0.375619 0.203655 0.561906 113 120 124
0.374183 0.204650 0.561952 120 127 131
0.372137 0.203673 0.561537 126 133 137
0.370696 0.204668 0.561582 138 146 147
0.368952 0.204677 0.561397 141 149 150
0.367209 0.204686 0.561213 147 155 152
0.365465 0.204694 0.561028 154 162 159
0.363722 0.204703 0.560843 161 167 165
0.509767 0.206372 0.578605 127 114 103
0.508016 0.206381 0.578419 118 118 114
0.506265 0.206390 0.578234 111 111 107
0.504513 0.206399 0.578048 105 111 111
0.502762 0.206408 0.577862 100 106 106
0.501011 0.206416 0.577677 96 102 102
0.499260 0.206425 0.577491 91 97 97
0.497508 0.206434 0.577305 90 98 99
0.495757 0.206443 0.577120 89 97 98
0.494006 0.206452 0.576934 89 97 98
0.491777 0.205477 0.576497 90 98 99
0.490028 0.205486 0.576312 92 100 101
0.488279 0.205495 0.576126 93 101 102
0.486531 0.205503 0.575941 92 100 101
0.484782 0.205512 0.575756 89 97 98
0.483033 0.205521 0.575570 86 99 98
0.481285 0.205530 0.575385 89 102 101
0.479536 0.205539 0.575199 85 97 99
0.477787 0.205548 0.575014 87 99 101
0.476039 0.205557 0.574829 92 104 106
0.474290 0.205566 0.574643 88 100 102
0.472541 0.205575 0.574458 89 100 100
0.470793 0.205584 0.574273 90 101 101
0.468600 0.204608 0.573839 91 102 100
0.466854 0.204617 0.573654 100 111 109
0.465108 0.204626 0.573469 96 107 105
0.462925 0.203650 0.573037 91 102 100
0.461182 0.203659 0.572852 91 102 100
0.459438 0.203668 0.572668 94 105 103
0.457266 0.202692 0.572237 91 102 100
0.455525 0.202701 0.572052 95 106 104
0.454207 0.203695 0.572113 93 101 98
0.452464 0.203703 0.571928 98 106 103
0.451139 0.204697 0.571988 104 110 108
0.449392 0.204706 0.571803 104 110 108
0.447646 0.204715 0.571618 100 106 104
0.446311 0.205708 0.571677 103 109 107
0.444562 0.205717 0.571492 100 108 105
0.442813 0.205726 0.571307 103 111 108
0.441065 0.205735 0.571121 103 111 108
0.439316 0.205744 0.570936 100 108 105
0.437567 0.205753 0.570750 102 113 109
0.435818 0.205762 0.570565 95 106 102
0.434070 0.205771 0.570380 99 107 104
0.432321 0.205780 0.570194 97 105 102
0.430572 0.205789 0.570009 97 103 103
0.428824 0.205798 0.569824 100 106 106
0.426693 0.204822 0.569397 107 110 111
0.424947 0.204830 0.569212 103 106 107
0.423201 0.204839 0.569027 108 111 112
0.421080 0.203863 0.568601 110 113 114
0.419337 0.203872 0.568416 101 107 107
0.417593 0.203881 0.568232 101 107 107
0.415850 0.203890 0.568047 99 107 106
0.413742 0.202914 0.567623 102 110 109
0.412001 0.202923 0.567438 97 105 106
0.410260 0.202932 0.567253 99 107 108
0.408519 0.202941 0.567069 99 107 108
0.406778 0.202949 0.566884 97 105 106
0.405388 0.203943 0.566938 93 100 104
0.403645 0.203952 0.566753 97 104 108
0.401555 0.202976 0.566331 95 105 108
0.399814 0.202985 0.566146 95 105 108
0.398073 0.202994 0.565962 96 106 109
0.396332 0.203003 0.565777 91 101 104
0.394591 0.203012 0.565592 91 98 102
0.392850 0.203020 0.565408 95 102 106
0.391109 0.203029 0.565223 93 100 104
0.389041 0.202053 0.564803 92 99 103
0.387627 0.203047 0.564854 92 100 101
0.385564 0.202071 0.564435 91 99 100
0.384146 0.203065 0.564485 92 100 101
0.382405 0.203074 0.564301 91 99 100
0.380664 0.203083 0.564116 91 99 100
0.378923 0.203091 0.563931 90 98 99
0.377182 0.203100 0.563747 88 98 101
0.375748 0.204094 0.563796 83 93 96
0.374004 0.204103 0.563611 87 97 100
0.372261 0.204112 0.563426 89 99 102
0.370517 0.204121 0.563241 89 100 100
0.368774 0.204130 0.563056 88 99 99
0.367030 0.204139 0.562871 91 99 98
0.365287 0.204148 0.562687 95 103 102
0.363543 0.204157 0.562502 99 107 106
0.361800 0.204166 0.562317 105 113 112
0.360056 0.204174 0.562132 110 117 123
0.358594 0.205169 0.562178 119 126 132
0.356848 0.205178 0.561993 131 138 146
0.355102 0.205186 0.561808 133 140 148
0.353629 0.206181 0.561852 139 146 150
0.351881 0.206190 0.561667 147 154 158
0.350132 0.206199 0.561481 160 163 164
0.510091 0.206806 0.580528 103 92 83
0.508337 0.206815 0.580342 96 96 92
0.506583 0.206824 0.580156 92 92 88
0.504829 0.206833 0.579970 84 90 88
0.503075 0.206842 0.579784 89 95 93
0.501322 0.206851 0.579598 93 101 100
0.499080 0.205876 0.579157 95 103 102
0.497329 0.205885 0.578972 97 105 104
0.495578 0.205894 0.578786 98 106 105
0.493826 0.205903 0.578600 95 103 102
0.492075 0.205912 0.578415 100 108 107
0.490324 0.205921 0.578229 99 105 105
0.488572 0.205930 0.578043 105 111 111
0.486821 0.205939 0.577858 106 112 112
0.484603 0.204964 0.577419 107 113 113
0.483319 0.205957 0.577486 106 114 113
0.481106 0.204982 0.577049 102 110 109
0.479357 0.204991 0.576863 104 112 113
0.477608 0.205000 0.576678 105 113 114
0.475859 0.205009 0.576492 104 112 113
0.474111 0.205018 0.576307 107 115 116
0.472362 0.205026 0.576122 107 115 116
0.470613 0.205035 0.575936 113 121 122
0.468865 0.205044 0.575751 110 118 117
0.467116 0.205053 0.575566 105 113 112
0.464929 0.204078 0.575130 111 119 118
0.463183 0.204087 0.574945 116 124 123
0.461436 0.204096 0.574760 114 125 125
0.459259 0.203121 0.574326 116 127 127
0.457516 0.203130 0.574142 115 126 124
0.455772 0.203139 0.573957 115 126 124
0.454452 0.204132 0.574020 116 127 123
0.452706 0.204141 0.573835 112 123 119
0.450960 0.204149 0.573650 113 121 118
0.449629 0.205142 0.573712 116 124 121
0.447880 0.205151 0.573526 120 128 125
0.446131 0.205160 0.573341 117 125 122
0.444383 0.205169 0.573156 112 120 117
0.442634 0.205178 0.572970 113 121 118
0.440885 0.205187 0.572785 116 124 121
0.439137 0.205196 0.572599 117 125 122
0.437388 0.205205 0.572414 113 121 118
0.435639 0.205214 0.572229 117 125 122
0.433891 0.205222 0.572043 118 126 123
0.432142 0.205231 0.571858 112 120 117
0.430393 0.205240 0.571673 115 121 119
0.428644 0.205249 0.571487 120 126 124
0.426896 0.205258 0.571302 119 122 121
0.425147 0.205267 0.571116 116 119 118
0.423022 0.204292 0.570688 114 120 118
0.421276 0.204301 0.570503 114 120 118
0.419158 0.203326 0.570075 114 120 120
0.417414 0.203334 0.569890 112 118 118
0.415671 0.203343 0.569705 114 122 121
0.413927 0.203352 0.569521 111 119 118
0.412184 0.203361 0.569336 114 122 123
0.410440 0.203370 0.569151 113 121 122
0.408697 0.203379 0.568966 113 121 122
0.406953 0.203388 0.568781 114 122 123
0.405210 0.203397 0.568596 110 121 121
0.403466 0.203406 0.568412 109 120 120
0.401723 0.203414 0.568227 107 117 120
0.399979 0.203423 0.568042 107 117 120
0.398235 0.203432 0.567857 105 115 118
0.396492 0.203441 0.567672 105 115 118
0.394748 0.203450 0.567487 110 121 121
0.393005 0.203459 0.567303 103 114 114
0.391261 0.203468 0.567118 104 112 111
0.389190 0.202492 0.566695 104 112 111
0.387449 0.202501 0.566511 104 110 110
0.385708 0.202510 0.566326 99 105 105
0.383967 0.202519 0.566141 97 105 104
0.382226 0.202528 0.565957 98 106 105
0.380485 0.202537 0.565772 102 110 109
0.378744 0.202546 0.565588 97 105 104
0.377003 0.202554 0.565403 96 104 105
0.375569 0.203548 0.565454 97 105 106
0.373826 0.203557 0.565269 98 106 107
0.372082 0.203566 0.565085 97 105 106
0.370339 0.203574 0.564900 95 103 104
0.368595 0.203583 0.564715 90 98 99
0.366852 0.203592 0.564530 90 98 97
0.365108 0.203601 0.564345 90 98 97
0.363365 0.203610 0.564160 90 98 97
0.361621 0.203619 0.563976 89 97 96
0.360161 0.204612 0.564024 89 97 98
0.358415 0.204621 0.563839 88 96 97
0.356669 0.204630 0.563654 91 98 104
0.354923 0.204639 0.563469 91 98 104
0.353450 0.205633 0.563516 95 103 104
0.351702 0.205641 0.563330 97 105 106
0.349953 0.205650 0.563145 106 109 110
0.348204 0.205659 0.562960 115 118 119
0.346456 0.205668 0.562774 122 128 128
0.344707 0.205677 0.562589 124 130 130
0.342958 0.205686 0.562404 140 145 150
0.341209 0.205695 0.562218 145 150 155
0.511665 0.206247 0.582382 113 100 89
0.509911 0.206256 0.582196 118 105 94
0.508157 0.206265 0.582010 112 107 103
0.506403 0.206274 0.581824 114 109 105
0.504650 0.206283 0.581638 110 111 107
0.502896 0.206292 0.581452 108 109 105
0.501142 0.206301 0.581267 107 116 109
0.499388 0.206310 0.581081 105 114 107
0.497634 0.206319 0.580895 103 111 108
0.495880 0.206328 0.580709 104 112 109
0.494126 0.206337 0.580523 110 116 114
0.491896 0.205363 0.580081 117 123 121
0.490144 0.205372 0.579895 112 115 114
0.488393 0.205381 0.579709 116 119 118
0.486642 0.205390 0.579524 123 126 125
0.484890 0.205399 0.579338 128 131 130
0.483139 0.205408 0.579152 127 133 133
0.481388 0.205416 0.578967 127 133 133
0.479637 0.205425 0.578781 130 138 137
0.477885 0.205434 0.578596 131 139 138
0.476134 0.205443 0.578410 131 139 140
0.474383 0.205452 0.578224 127 135 136
0.472183 0.204478 0.577785 131 139 138
0.470880 0.205470 0.577853 142 150 149
0.468685 0.204496 0.577415 137 145 144
0.466937 0.204505 0.577229 134 142 141
0.465188 0.204514 0.577044 138 146 145
0.463439 0.204523 0.576858 139 147 146
0.461691 0.204532 0.576673 137 145 146
0.459942 0.204540 0.576488 144 152 153
0.457765 0.203566 0.576051 136 147 147
0.456019 0.203575 0.575866 140 151 151
0.454696 0.204567 0.575932 146 157 155
0.452947 0.204576 0.575746 151 162 160
0.451198 0.204585 0.575561 147 158 154
0.449450 0.204594 0.575375 152 163 159
0.447701 0.204603 0.575190 151 162 160
0.445952 0.204612 0.575005 153 164 162
0.444204 0.204621 0.574819 151 162 162
0.442455 0.204630 0.574634 150 161 161
0.440706 0.204638 0.574448 156 164 163
0.438958 0.204647 0.574263 156 164 163
0.437209 0.204656 0.574078 157 165 164
0.435460 0.204665 0.573892 159 167 166
0.433711 0.204674 0.573707 162 170 169
0.431963 0.204683 0.573522 166 174 173
0.430214 0.204692 0.573336 168 174 174
0.428465 0.204701 0.573151 174 180 180
0.426717 0.204710 0.572965 169 175 173
0.424968 0.204719 0.572780 167 173 171
0.423219 0.204728 0.572595 164 170 168
0.421097 0.203753 0.572164 161 167 165
0.419351 0.203762 0.571979 162 168 168
0.417604 0.203771 0.571794 157 163 163
0.415858 0.203780 0.571609 154 162 163
0.414112 0.203789 0.571424 155 163 164
0.412366 0.203798 0.571239 155 162 166
0.410620 0.203807 0.571053 154 161 165
0.408874 0.203816 0.570868 153 160 164
0.407128 0.203824 0.570683 148 155 159
0.405382 0.203833 0.570498 145 155 158
0.403635 0.203842 0.570313 143 153 156
0.401889 0.203851 0.570128 133 143 146
0.400143 0.203860 0.569943 128 138 141
0.398397 0.203869 0.569758 125 133 134
0.396651 0.203878 0.569573 124 132 133
0.394905 0.203887 0.569387 125 131 131
0.393159 0.203896 0.569202 125 131 131
0.391413 0.203905 0.569017 122 125 124
0.389339 0.202930 0.568592 124 127 126
0.387596 0.202939 0.568407 119 122 121
0.385852 0.202948 0.568222 117 120 119
0.384108 0.202957 0.568037 113 119 117
0.382365 0.202965 0.567852 111 117 115
0.380307 0.201991 0.567429 113 121 118
0.378878 0.202983 0.567483 104 112 109
0.376825 0.202009 0.567060 111 119 118
0.375391 0.203001 0.567113 111 119 118
0.373647 0.203010 0.566928 107 115 114
0.371904 0.203019 0.566743 104 112 111
0.370160 0.203028 0.566559 103 111 110
0.368417 0.203037 0.566374 103 111 110
0.366673 0.203045 0.566189 97 105 102
0.364929 0.203054 0.566004 97 105 102
0.363475 0.204047 0.566056 99 107 104
0.361729 0.204056 0.565870 96 104 101
0.359982 0.204065 0.565685 95 103 102
0.358236 0.204074 0.565500 97 105 104
0.356490 0.204083 0.565315 96 107 107
0.355020 0.205075 0.565365 94 105 105
0.353271 0.205084 0.565179 96 104 103
0.351522 0.205093 0.564994 93 101 100
0.349774 0.205102 0.564809 91 97 97
0.348025 0.205111 0.564623 92 98 98
0.346276 0.205120 0.564438 92 98 98
0.344528 0.205129 0.564253 94 100 100
0.342779 0.205138 0.564067 96 102 104
0.341030 0.205147 0.563882 98 104 106
0.339282 0.205155 0.563696 103 108 115
0.337533 0.205164 0.563511 111 116 123
0.335784 0.205173 0.563326 125 132 138
0.334280 0.206166 0.563372 137 144 150
0.332529 0.206175 0.563186 147 154 158
0.330778 0.206184 0.563001 152 159 163
0.509731 0.205706 0.583865 121 108 97
0.508478 0.206697 0.583940 119 115 108
0.506721 0.206706 0.583754 123 119 112
0.504965 0.206715 0.583568 122 122 116
0.503208 0.206724 0.583381 124 124 118
0.501452 0.206733 0.583195 121 130 123
0.499695 0.206742 0.583009 120 129 122
0.497939 0.206751 0.582823 130 138 135
0.495701 0.205778 0.582377 140 148 145
0.493947 0.205787 0.582191 147 155 152
0.492193 0.205796 0.582006 157 165 162
0.490439 0.205805 0.581820 164 170 168
0.488685 0.205814 0.581634 163 169 167
0.486462 0.204840 0.581190 164 170 168
0.484711 0.204849 0.581004 165 171 169
0.482960 0.204858 0.580819 169 177 176
0.481208 0.204867 0.580633 171 179 178
0.479457 0.204876 0.580447 174 182 181
0.400307 0.204295 0.571848 182 190 191
0.398558 0.204304 0.571663 180 188 187
0.396810 0.204313 0.571478 178 186 185
0.395061 0.204322 0.571292 177 183 183
0.393312 0.204331 0.571107 177 183 183
0.391563 0.204340 0.570922 174 180 180
0.389488 0.203366 0.570493 175 181 181
0.387741 0.203375 0.570308 172 178 176
0.385995 0.203384 0.570123 170 176 174
0.384249 0.203393 0.569938 163 169 167
0.382186 0.202419 0.569511 150 156 154
0.380443 0.202428 0.569326 143 149 147
0.378699 0.202437 0.569142 139 145 143
0.376956 0.202445 0.568957 120 128 127
0.375212 0.202454 0.568772 118 126 125
0.373773 0.203446 0.568827 116 124 123
0.372026 0.203455 0.568642 118 126 125
0.370280 0.203464 0.568457 117 123 121
0.368534 0.203473 0.568272 119 125 123
0.366788 0.203482 0.568087 119 122 121
0.365042 0.203491 0.567902 113 116 115
0.363296 0.203499 0.567717 111 117 115
0.361550 0.203508 0.567532 108 114 112
0.360087 0.204500 0.567585 107 115 112
0.358338 0.204509 0.567399 107 115 112
0.356589 0.204518 0.567214 105 116 114
0.354841 0.204527 0.567029 103 114 112
0.353092 0.204536 0.566843 99 107 104
0.351343 0.204545 0.566658 98 106 103
0.349595 0.204554 0.566472 99 106 100
0.347846 0.204563 0.566287 94 101 95
0.346097 0.204571 0.566102 97 104 98
0.344348 0.204580 0.565916 96 103 97
0.342600 0.204589 0.565731 93 101 100
0.340851 0.204598 0.565545 93 101 100
0.339102 0.204607 0.565360 96 103 107
0.337354 0.204616 0.565175 91 98 102
0.335605 0.204625 0.564989 92 99 103
0.334101 0.205617 0.565038 99 106 110
0.332350 0.205626 0.564852 103 110 114
0.330598 0.205635 0.564667 104 111 115
0.329084 0.206627 0.564714 118 124 126
0.327330 0.206636 0.564528 128 134 136
0.325576 0.206645 0.564342 135 141 141
0.323822 0.206654 0.564157 146 152 152
0.322068 0.206663 0.563971 153 161 160
0.508797 0.207127 0.585875 159 155 148
0.507038 0.207136 0.585688 159 155 148
0.505279 0.207145 0.585502 162 162 156
0.503520 0.207154 0.585315 168 168 162
0.501761 0.207163 0.585129 173 177 172
0.375646 0.203872 0.570917 182 188 188
0.373897 0.203881 0.570731 178 181 180
0.372149 0.203889 0.570546 174 177 176
0.370400 0.203898 0.570361 173 173 173
0.368651 0.203907 0.570175 169 169 169
0.366902 0.203916 0.569990 166 166 166
0.365154 0.203925 0.569804 160 160 160
0.363405 0.203934 0.569619 148 154 152
0.361656 0.203943 0.569434 139 145 143
0.359908 0.203952 0.569248 121 129 128
0.358159 0.203961 0.569063 112 120 119
0.356410 0.203970 0.568878 110 118 117
0.354662 0.203979 0.568692 114 122 121
0.352913 0.203988 0.568507 114 122 119
0.351164 0.203996 0.568321 107 115 112
0.349415 0.204005 0.568136 111 118 112
0.347667 0.204014 0.567951 107 114 108
0.345918 0.204023 0.567765 104 113 106
0.344169 0.204032 0.567580 102 111 104
0.342421 0.204041 0.567395 97 108 108
0.340672 0.204050 0.567209 94 105 105
0.338923 0.204059 0.567024 94 105 105
0.337175 0.204068 0.566838 95 106 106
0.335426 0.204077 0.566653 94 104 107
0.333921 0.205068 0.566704 93 103 106
0.332170 0.205077 0.566518 91 101 104
0.330419 0.205086 0.566333 89 99 102
0.328904 0.206077 0.566383 91 99 100
0.327150 0.206086 0.566197 93 101 102
0.325397 0.206095 0.566011 99 107 108
0.323643 0.206104 0.565825 100 108 109
0.321889 0.206113 0.565639 111 118 122
0.320135 0.206122 0.565453 119 126 130
0.318381 0.206131 0.565267 129 135 137
0.316627 0.206140 0.565081 138 144 146
0.314657 0.205166 0.564662 147 150 153
0.312906 0.205175 0.564476 156 159 162
0.361763 0.204376 0.571341 185 188 187
0.360011 0.204385 0.571155 183 189 189
0.358260 0.204394 0.570969 178 184 184
0.356509 0.204403 0.570784 168 174 174
0.354757 0.204412 0.570598 162 168 168
0.353006 0.204421 0.570412 151 154 153
0.351255 0.204430 0.570227 142 145 144
0.349236 0.203457 0.569800 137 141 136
0.347488 0.203466 0.569614 133 137 132
0.345739 0.203475 0.569429 123 131 128
0.343990 0.203484 0.569244 113 121 118
0.342241 0.203493 0.569058 102 113 113
0.340493 0.203502 0.568873 105 116 116
0.338744 0.203511 0.568687 104 115 113
0.336995 0.203519 0.568502 101 112 110
0.335493 0.204510 0.568556 102 113 111
0.333742 0.204519 0.568370 101 112 110
0.331991 0.204528 0.568185 91 102 102
0.330478 0.205518 0.568237 93 104 104
0.328725 0.205527 0.568051 93 104 102
0.326971 0.205536 0.567866 94 105 103
0.325217 0.205545 0.567680 96 104 103
0.323463 0.205554 0.567494 91 99 98
0.321709 0.205563 0.567308 90 98 99
0.319955 0.205572 0.567122 92 100 101
0.318201 0.205581 0.566936 98 103 108
0.316447 0.205590 0.566750 105 110 115
0.314478 0.204617 0.566328 111 116 123
0.312727 0.204626 0.566142 119 124 131
0.310975 0.204635 0.565957 127 132 139
0.309224 0.204644 0.565771 134 139 146
0.307267 0.203671 0.565351 142 148 150
0.305519 0.203680 0.565165 149 155 157
0.349591 0.204870 0.571951 183 184 180
0.347573 0.203898 0.571522 181 182 178
0.345822 0.203907 0.571336 178 181 180
0.344070 0.203916 0.571150 173 176 175
0.342319 0.203925 0.570965 161 167 167
0.340568 0.203934 0.570779 140 146 146
0.338816 0.203943 0.570593 127 133 133
0.337065 0.203952 0.570408 118 124 124
0.335314 0.203961 0.570222 107 118 116
0.333563 0.203970 0.570036 112 123 121
0.332053 0.204959 0.570092 103 114 112
0.330299 0.204968 0.569906 107 118 116
0.328545 0.204977 0.569720 100 108 107
0.327024 0.205967 0.569774 98 106 105
0.325268 0.205976 0.569588 99 107 106
0.323512 0.205985 0.569402 97 105 104
0.321755 0.205994 0.569216 95 103 104
0.319776 0.205022 0.568790 96 104 105
0.318022 0.205031 0.568604 96 104 105
0.316268 0.205040 0.568419 96 104 105
0.314514 0.205049 0.568233 95 102 106
0.312547 0.204077 0.567809 92 99 103
0.310796 0.204086 0.567623 92 99 103
0.309045 0.204095 0.567437 95 102 106
0.307088 0.203123 0.567014 102 109 115
0.305340 0.203132 0.566829 105 112 118
0.303591 0.203140 0.566644 106 113 117
0.301842 0.203149 0.566458 121 128 132
0.300093 0.203158 0.566273 133 138 143
0.298345 0.203167 0.566087 143 148 153
0.338888 0.204374 0.572504 186 189 188
0.337134 0.204383 0.572318 183 186 185
0.335381 0.204392 0.572132 168 174 174
0.333627 0.204400 0.571946 155 161 161
0.331873 0.204409 0.571760 147 150 149
0.330357 0.205398 0.571818 129 132 131
0.328601 0.205407 0.571632 124 125 121
0.327078 0.206396 0.571688 123 124 120
0.325319 0.206405 0.571502 110 116 114
0.323332 0.205434 0.571073 107 113 111
0.321575 0.205443 0.570887 104 110 110
0.319819 0.205452 0.570701 107 113 113
0.318062 0.205461 0.570515 101 107 107
0.316306 0.205470 0.570328 98 104 104
0.314334 0.204499 0.569901 95 103 104
0.312580 0.204508 0.569715 93 101 102
0.310617 0.203537 0.569289 95 103 104
0.308865 0.203546 0.569103 96 104 105
0.307114 0.203554 0.568918 93 101 102
0.305160 0.202583 0.568493 97 105 106
0.303412 0.202592 0.568307 95 103 104
0.301663 0.202601 0.568122 92 100 101
0.299914 0.202610 0.567936 97 104 108
0.298166 0.202619 0.567751 103 110 114
0.296417 0.202628 0.567566 108 113 120
0.294668 0.202637 0.567380 121 126 133
0.293104 0.203626 0.567433 137 139 145
0.291352 0.203635 0.567247 149 151 157
0.289601 0.203644 0.567061 160 163 164
0.330416 0.205827 0.573735 185 188 187
0.328657 0.205836 0.573548 185 186 182
0.327130 0.206824 0.573607 176 177 173
0.325369 0.206833 0.573420 148 154 154
0.323379 0.205863 0.572989 129 135 135
0.321620 0.205871 0.572802 120 126 126
0.319861 0.205880 0.572616 118 124 124
0.318102 0.205889 0.572429 117 120 119
0.316126 0.204919 0.571999 115 118 117
0.314369 0.204928 0.571813 111 117 117
0.312401 0.203958 0.571384 111 117 117
0.310647 0.203967 0.571198 105 111 111
0.308686 0.202996 0.570770 98 104 104
0.306935 0.203005 0.570584 94 100 100
0.305183 0.203014 0.570398 96 102 102
0.303432 0.203023 0.570213 97 103 103
0.301681 0.203032 0.570027 94 100 100
0.299735 0.202062 0.569600 97 103 105
0.297986 0.202071 0.569415 98 104 106
0.296238 0.202079 0.569229 93 98 105
0.294676 0.203068 0.569284 93 98 105
0.292924 0.203077 0.569099 95 97 105
0.291173 0.203086 0.568913 105 107 115
0.289422 0.203095 0.568727 115 117 125
0.287670 0.203104 0.568542 124 126 134
0.285919 0.203112 0.568356 145 147 153
0.284168 0.203121 0.568170 162 164 170
0.323654 0.207268 0.575157 183 186 185
0.321665 0.206298 0.574723 183 186 187
0.319904 0.206307 0.574536 179 182 183
0.318142 0.206316 0.574349 176 176 178
0.316380 0.206325 0.574162 155 155 157
0.314404 0.205356 0.573730 128 134 136
0.312433 0.204386 0.573298 117 123 125
0.310467 0.203417 0.572867 113 119 119
0.308713 0.203426 0.572681 115 121 121
0.306959 0.203435 0.572495 114 120 118
0.305206 0.203444 0.572309 113 119 117
0.303253 0.202474 0.571879 110 116 114
0.301501 0.202483 0.571693 103 109 107
0.299750 0.202492 0.571507 105 111 111
0.297999 0.202501 0.571322 99 105 105
0.296247 0.202510 0.571136 94 99 104
0.294496 0.202519 0.570950 97 102 107
0.292745 0.202528 0.570765 98 103 108
0.290994 0.202537 0.570579 99 104 109
0.289242 0.202545 0.570393 98 103 108
0.287491 0.202554 0.570208 94 99 104
0.285740 0.202563 0.570022 105 107 115
0.283988 0.202572 0.569836 108 110 118
0.282237 0.202581 0.569651 121 123 131
0.280486 0.202590 0.569465 135 137 145
0.278735 0.202599 0.569280 158 160 168
0.314438 0.205782 0.575652 184 187 188
0.312465 0.204813 0.575217 180 183 184
0.310497 0.203844 0.574783 172 175 176
0.308740 0.203853 0.574597 164 167 168
0.306780 0.202885 0.574163 145 151 149
0.305026 0.202894 0.573977 133 139 137
0.303272 0.202903 0.573791 124 130 128
0.301518 0.202912 0.573605 113 119 117
0.299764 0.202920 0.573420 117 120 119
0.297819 0.201952 0.572988 115 118 117
0.296068 0.201961 0.572802 114 120 122
0.294503 0.202947 0.572862 113 119 121
0.292749 0.202956 0.572676 108 113 118
0.290814 0.201987 0.572245 103 108 113
0.289241 0.202974 0.572304 100 105 110
0.287487 0.202983 0.572118 94 99 104
0.285560 0.202014 0.571688 96 98 104
0.283809 0.202023 0.571503 99 101 107
0.282058 0.202032 0.571317 100 102 110
0.280306 0.202041 0.571131 98 100 108
0.278555 0.202050 0.570946 102 104 112
0.276804 0.202059 0.570760 113 115 123
0.275053 0.202068 0.570574 123 125 131
0.273301 0.202077 0.570389 148 150 156
0.271550 0.202086 0.570203 165 168 171
0.307008 0.204289 0.576331 181 184 185
0.305249 0.204297 0.576145 181 184 185
0.303291 0.203330 0.575709 180 183 182
0.301535 0.203339 0.575523 172 175 174
0.299585 0.202371 0.575088 158 158 158
0.297831 0.202379 0.574902 142 142 142
0.296077 0.202388 0.574716 126 129 132
0.294323 0.202397 0.574530 119 122 125
0.292569 0.202406 0.574344 119 125 127
0.290815 0.202415 0.574158 112 118 120
0.289061 0.202424 0.573973 113 116 119
0.287308 0.202433 0.573787 113 116 119
0.285554 0.202442 0.573601 107 112 117
0.283800 0.202451 0.573415 103 108 113
0.282046 0.202460 0.573229 103 108 115
0.280292 0.202469 0.573043 99 104 111
0.278376 0.201501 0.572612 99 104 111
0.276625 0.201510 0.572426 97 102 109
0.274873 0.201519 0.572240 96 101 108
0.273122 0.201528 0.572055 97 102 109
0.271371 0.201536 0.571869 107 109 115
0.269619 0.201545 0.571684 126 128 134
0.268015 0.202531 0.571741 148 153 158
0.266261 0.202540 0.571555 164 169 174
0.299791 0.203773 0.577259 185 185 185
0.298032 0.203782 0.577072 186 186 186
0.296085 0.202815 0.576635 178 178 180
0.294329 0.202824 0.576449 169 169 171
0.292572 0.202833 0.576263 163 166 167
0.290816 0.202841 0.576077 148 151 152
0.288882 0.201874 0.575641 136 135 135
0.287128 0.201883 0.575455 126 125 125
0.285374 0.201892 0.575269 116 119 120
0.283620 0.201901 0.575083 114 117 118
0.281866 0.201910 0.574897 110 115 120
0.280113 0.201919 0.574712 107 112 117
0.278359 0.201928 0.574526 105 110 115
0.276605 0.201937 0.574340 101 106 111
0.274851 0.201946 0.574154 103 108 113
0.273097 0.201955 0.573968 104 109 114
0.271343 0.201964 0.573782 101 106 111
0.269589 0.201973 0.573596 97 102 107
0.267835 0.201982 0.573410 101 106 113
0.266082 0.201990 0.573224 111 116 123
0.264328 0.201999 0.573038 129 134 141
0.262713 0.202985 0.573097 148 153 160
0.260956 0.202994 0.572911 169 171 177
0.287298 0.203284 0.577627 178 178 178
0.285367 0.202318 0.577189 161 161 161
0.283610 0.202327 0.577003 153 153 153
0.281854 0.202335 0.576817 133 133 135
0.280097 0.202344 0.576630 125 125 127
0.278341 0.202353 0.576444 117 120 123
0.276425 0.201387 0.576008 113 116 119
0.274671 0.201396 0.575822 113 116 119
0.272917 0.201405 0.575636 110 113 116
0.271163 0.201414 0.575450 106 111 116
0.269410 0.201423 0.575265 101 106 111
0.267656 0.201432 0.575079 100 105 110
0.265902 0.201441 0.574893 100 105 110
0.264148 0.201449 0.574707 98 103 108
0.262533 0.202434 0.574768 98 103 108
0.260777 0.202443 0.574582 107 109 115
0.259020 0.202452 0.574396 120 122 128
0.257395 0.203436 0.574457 137 137 141
0.255636 0.203445 0.574270 155 155 159
0.282008 0.203734 0.578994 186 186 188
0.280082 0.202768 0.578554 182 182 184
0.278323 0.202777 0.578368 160 163 164
0.276564 0.202786 0.578181 133 136 137
0.274805 0.202795 0.577995 129 129 131
0.272892 0.201829 0.577557 125 125 127
0.271135 0.201838 0.577371 120 123 126
0.269379 0.201847 0.577184 119 122 125
0.267622 0.201856 0.576998 113 116 119
0.265866 0.201865 0.576812 105 108 111
0.264109 0.201874 0.576626 105 108 111
0.262353 0.201883 0.576439 103 106 109
0.260597 0.201892 0.576253 101 104 107
0.258840 0.201901 0.576067 100 103 106
0.257214 0.202885 0.576130 103 103 107
0.255584 0.203869 0.576193 110 110 114
0.253948 0.204853 0.576255 122 122 126
0.252307 0.205836 0.576316 135 135 139
0.250660 0.206820 0.576377 154 153 160
0.276701 0.204183 0.580364 184 187 188
0.274781 0.203218 0.579923 175 175 175
0.273019 0.203227 0.579736 164 164 164
0.271106 0.202262 0.579296 143 143 145
0.269347 0.202271 0.579109 125 125 127
0.267588 0.202280 0.578923 118 118 120
0.265829 0.202289 0.578736 121 121 123
0.264070 0.202297 0.578550 121 121 125
0.262311 0.202306 0.578363 111 111 115
0.260552 0.202315 0.578177 107 107 111
0.258793 0.202324 0.577990 109 109 113
0.257165 0.203307 0.578055 105 108 111
0.255403 0.203316 0.577869 102 105 108
0.253767 0.204299 0.577933 101 104 107
0.252126 0.205282 0.577997 106 109 112
0.250479 0.206266 0.578060 109 112 115
0.248827 0.207249 0.578123 117 120 123
0.247170 0.208232 0.578185 133 133 137
0.245396 0.208241 0.577997 150 150 154
0.269612 0.204638 0.581551 182 181 183
0.267554 0.202701 0.580852 169 168 170
0.265792 0.202710 0.580665 154 153 155
0.264031 0.202719 0.580478 135 135 137
0.262269 0.202728 0.580292 123 123 125
0.260508 0.202737 0.580105 121 121 125
0.258746 0.202746 0.579918 121 121 125
0.257115 0.203728 0.579986 117 120 123
0.255478 0.204710 0.580052 112 115 118
0.253711 0.204719 0.579865 110 113 116
0.252067 0.205702 0.579931 108 111 114
0.250298 0.205711 0.579744 107 110 113
0.248646 0.206693 0.579809 105 108 111
0.246989 0.207675 0.579874 107 110 113
0.245214 0.207684 0.579686 112 115 118
0.243549 0.208667 0.579749 116 115 122
0.241665 0.207702 0.579309 135 134 141
0.239995 0.208685 0.579373 142 144 150
0.238218 0.208694 0.579184 152 154 160
0.264131 0.204111 0.582670 188 187 187
0.262364 0.204120 0.582483 181 180 180
0.260597 0.204129 0.582295 159 159 159
0.258831 0.204138 0.582108 139 139 139
0.257064 0.204147 0.581921 119 125 125
0.255297 0.204156 0.581733 113 119 119
0.253655 0.205138 0.581802 117 123 125
0.251886 0.205147 0.581615 114 120 122
0.250236 0.206128 0.581683 113 119 121
0.248464 0.206137 0.581495 112 118 120
0.246807 0.207119 0.581562 109 112 115
0.245032 0.207128 0.581374 108 111 114
0.243367 0.208109 0.581440 109 112 115
0.241590 0.208119 0.581252 109 112 115
0.239813 0.208128 0.581063 108 111 114
0.238036 0.208137 0.580875 115 118 121
0.236259 0.208146 0.580687 120 126 128
0.234482 0.208155 0.580498 129 135 137
0.232705 0.208164 0.580310 149 149 151
0.230928 0.208173 0.580121 165 165 167
0.258914 0.205528 0.584308 190 190 190
0.257142 0.205537 0.584120 180 180 180
0.255243 0.204574 0.583673 161 161 161
0.253598 0.205555 0.583744 140 143 144
0.251827 0.205564 0.583556 121 124 125
0.250174 0.206544 0.583626 119 122 123
0.248400 0.206553 0.583438 122 125 126
0.246739 0.207534 0.583508 117 120 121
0.244962 0.207543 0.583319 115 118 119
0.243185 0.207552 0.583131 110 113 116
0.241408 0.207561 0.582942 106 109 112
0.239631 0.207570 0.582754 106 112 114
0.237854 0.207579 0.582566 108 114 116
0.236077 0.207588 0.582377 107 113 115
0.234300 0.207598 0.582189 107 113 115
0.232523 0.207607 0.582000 114 117 118
0.230746 0.207616 0.581812 122 125 126
0.229057 0.208597 0.581878 134 137 138
0.227277 0.208606 0.581690 121 124 125
0.225498 0.208615 0.581501 162 162 166
0.253541 0.205970 0.585691 194 194 194
0.251767 0.205979 0.585503 183 183 183
0.250111 0.206959 0.585575 160 160 162
0.248334 0.206968 0.585387 140 140 142
0.246557 0.206977 0.585198 137 136 138
0.244780 0.206986 0.585010 130 129 131
0.243003 0.206995 0.584821 121 124 127
0.241226 0.207004 0.584633 115 118 121
0.239449 0.207013 0.584445 114 117 118
0.237672 0.207022 0.584256 113 116 117
0.235993 0.208002 0.584326 109 112 113
0.234214 0.208011 0.584138 109 112 113
0.232434 0.208020 0.583949 109 112 111
0.230654 0.208029 0.583760 108 111 110
0.228875 0.208039 0.583572 107 107 107
0.227095 0.208048 0.583383 102 102 102
0.225315 0.208057 0.583194 116 119 122
0.223536 0.208066 0.583006 138 141 144
0.221756 0.208075 0.582817 159 161 169
0.219976 0.208084 0.582628 174 176 184
0.248152 0.206411 0.587077 189 188 190
0.246489 0.207390 0.587151 190 189 191
0.244709 0.207399 0.586963 174 173 175
0.242821 0.206438 0.586512 150 150 152
0.241044 0.206447 0.586324 133 133 135
0.239370 0.207426 0.586397 123 123 125
0.237591 0.207435 0.586208 126 126 128
0.235811 0.207444 0.586019 122 125 124
0.234031 0.207453 0.585831 119 122 121
0.232252 0.207462 0.585642 114 117 116
0.230472 0.207471 0.585453 107 110 109
0.228692 0.207480 0.585265 107 107 107
0.226913 0.207490 0.585076 110 110 110
0.225133 0.207499 0.584887 108 111 112
0.223353 0.207508 0.584699 107 110 111
0.221574 0.207517 0.584510 108 110 116
0.219794 0.207526 0.584321 120 122 128
0.218014 0.207535 0.584133 142 141 148
0.216235 0.207544 0.583944 166 165 172
0.242747 0.206850 0.588467 188 188 190
0.240968 0.206859 0.588278 187 187 189
0.239188 0.206868 0.588090 175 175 177
0.237408 0.206877 0.587901 162 162 164
0.235629 0.206886 0.587712 136 139 140
0.233849 0.206895 0.587524 124 127 128
0.232069 0.206904 0.587335 127 130 129
0.230290 0.206913 0.587146 128 131 130
0.228510 0.206922 0.586958 124 124 124
0.226815 0.207901 0.587031 118 118 118
0.225033 0.207910 0.586842 116 116 116
0.223251 0.207919 0.586653 107 107 107
0.221469 0.207928 0.586464 108 111 112
0.219612 0.206968 0.586015 108 111 112
0.217832 0.206977 0.585826 105 108 111
0.216052 0.206986 0.585637 107 110 113
0.214273 0.206995 0.585449 121 121 125
0.212493 0.207004 0.585260 140 140 144
0.210652 0.206044 0.584812 160 160 162
0.235544 0.207297 0.589671 180 183 184
0.233762 0.207306 0.589482 170 173 174
0.231980 0.207315 0.589293 147 150 151
0.230197 0.207324 0.589104 134 137 138
0.228415 0.207333 0.588915 126 129 128
0.226633 0.207342 0.588727 124 127 126
0.224851 0.207351 0.588538 121 124 123
0.223068 0.207360 0.588349 116 119 118
0.221286 0.207369 0.588160 110 113 114
0.219504 0.207378 0.587971 109 112 113
0.217722 0.207387 0.587782 107 110 113
0.215870 0.206428 0.587330 102 105 108
0.214090 0.206437 0.587142 106 109 112
0.212311 0.206446 0.586953 107 110 113
0.210470 0.205486 0.586502 110 110 114
0.208693 0.205495 0.586314 126 126 130
0.206915 0.205505 0.586126 149 149 151
0.205138 0.205514 0.585937 169 169 171
0.203310 0.204554 0.585488 184 187 188
0.230104 0.207733 0.591067 181 184 185
0.228320 0.207742 0.590878 151 155 150
0.226450 0.206783 0.590422 145 149 144
0.224668 0.206792 0.590233 142 143 137
0.222886 0.206801 0.590044 132 133 127
0.221104 0.206810 0.589855 119 125 125
0.219321 0.206820 0.589666 115 121 121
0.217539 0.206829 0.589477 117 123 125
0.215757 0.206838 0.589288 112 118 120
0.213908 0.205879 0.588835 108 111 114
0.212129 0.205888 0.588646 109 112 115
0.210349 0.205897 0.588457 106 108 114
0.208569 0.205906 0.588269 106 108 114
0.206733 0.204947 0.587816 102 104 110
0.204956 0.204956 0.587628 110 112 118
0.203179 0.204965 0.587440 129 134 139
0.201354 0.204007 0.586988 150 155 160
0.199579 0.204016 0.586800 175 181 183
0.224567 0.207200 0.592198 189 190 181
0.222782 0.207210 0.592008 183 184 175
0.220998 0.207219 0.591819 167 167 167
0.219139 0.206261 0.591362 147 147 147
0.217357 0.206270 0.591173 128 128 130
0.215574 0.206279 0.590984 125 125 127
0.213792 0.206288 0.590795 120 123 126
0.211946 0.205330 0.590339 120 123 126
0.210167 0.205339 0.590151 116 119 122
0.208387 0.205348 0.589962 114 117 120
0.206607 0.205357 0.589773 108 114 116
0.204774 0.204399 0.589319 103 109 111
0.202997 0.204408 0.589130 98 103 108
0.201220 0.204417 0.588942 101 106 111
0.199443 0.204426 0.588754 113 118 123
0.197623 0.203468 0.588300 126 131 136
0.195889 0.204444 0.588377 150 155 162
0.194112 0.204454 0.588188 170 175 182
0.217245 0.206677 0.593139 193 192 192
0.215392 0.205720 0.592680 175 174 174
0.213609 0.205729 0.592491 145 145 147
0.211827 0.205738 0.592302 129 129 131
0.210045 0.205747 0.592113 124 127 130
0.208205 0.204790 0.591655 121 124 127
0.206425 0.204799 0.591466 120 126 128
0.204645 0.204808 0.591278 117 123 125
0.202815 0.203851 0.590821 107 113 115
0.201038 0.203860 0.590633 108 114 116
0.199261 0.203869 0.590444 103 108 113
0.197484 0.203878 0.590256 104 109 114
0.195707 0.203887 0.590067 103 108 113
0.193930 0.203896 0.589879 115 120 125
0.192153 0.203905 0.589691 134 139 146
0.190408 0.204881 0.589768 157 162 169
0.188628 0.204890 0.589580 178 181 184
0.211645 0.205179 0.593997 188 188 190
0.209862 0.205188 0.593808 172 175 178
0.208080 0.205198 0.593619 145 148 151
0.206298 0.205207 0.593431 126 129 132
0.204463 0.204250 0.592971 122 125 128
0.202683 0.204259 0.592782 124 130 130
0.200904 0.204268 0.592593 117 123 123
0.199124 0.204277 0.592405 112 118 118
0.197344 0.204287 0.592216 108 114 114
0.195565 0.204296 0.592028 101 107 107
0.193785 0.204305 0.591839 97 103 103
0.192005 0.204314 0.591650 100 105 110
0.190226 0.204323 0.591462 103 108 113
0.188446 0.204332 0.591273 119 121 127
0.186693 0.205307 0.591352 141 143 149
0.184911 0.205316 0.591163 176 179 180
0.207898 0.204639 0.595315 186 189 190
0.206115 0.204648 0.595126 184 187 188
0.204333 0.204657 0.594937 177 180 181
0.202551 0.204666 0.594748 147 150 149
0.200721 0.203710 0.594287 126 129 128
0.198942 0.203719 0.594098 117 123 123
0.197162 0.203728 0.593909 117 123 123
0.195382 0.203738 0.593721 118 124 126
0.193603 0.203747 0.593532 110 116 118
0.191823 0.203756 0.593343 105 111 113
0.190043 0.203765 0.593155 104 110 112
0.188264 0.203774 0.592966 105 107 113
0.186511 0.204748 0.593048 105 107 113
0.184729 0.204757 0.592859 119 119 121
0.182946 0.204766 0.592670 135 135 137
0.181164 0.204775 0.592481 157 160 161
0.202368 0.204107 0.596444 192 192 192
0.200586 0.204116 0.596255 182 182 182
0.198804 0.204125 0.596066 150 156 156
0.197022 0.204134 0.595877 131 137 137
0.195239 0.204143 0.595688 122 128 130
0.193420 0.203189 0.595225 120 126 128
0.191641 0.203198 0.595036 122 124 130
0.189861 0.203207 0.594848 114 116 122
0.188110 0.204180 0.594932 110 113 116
0.186328 0.204189 0.594743 110 113 116
0.184546 0.204198 0.594554 108 108 110
0.182764 0.204207 0.594366 108 108 110
0.180982 0.204216 0.594177 109 112 115
0.179215 0.205189 0.594260 131 134 137
0.177431 0.205198 0.594070 153 156 159
0.175657 0.206172 0.594153 173 176 179
0.196839 0.203575 0.597573 193 193 193
0.195057 0.203585 0.597384 176 176 178
0.193275 0.203594 0.597195 151 151 153
0.191492 0.203603 0.597006 133 136 139
0.189679 0.202649 0.596541 123 126 129
0.187928 0.203621 0.596628 127 130 133
0.186146 0.203630 0.596439 123 126 129
0.184363 0.203639 0.596250 120 123 124
0.182581 0.203648 0.596061 109 112 113
0.180799 0.203657 0.595872 104 110 110
0.179033 0.204630 0.595958 99 105 105
0.177248 0.204639 0.595768 99 107 108
0.175463 0.204648 0.595579 107 115 116
0.173686 0.205620 0.595663 142 145 146
0.171899 0.205629 0.595474 167 170 171
0.191310 0.203044 0.598701 183 186 189
0.189527 0.203053 0.598512 158 161 164
0.187745 0.203062 0.598324 135 138 141
0.185963 0.203071 0.598135 127 130 133
0.184181 0.203080 0.597946 123 126 127
0.182399 0.203089 0.597757 123 126 127
0.180616 0.203098 0.597568 115 121 121
0.178850 0.204070 0.597656 108 114 114
0.177065 0.204079 0.597466 108 114 114
0.175280 0.204088 0.597277 104 110 110
0.173503 0.205060 0.597364 98 104 106
0.171716 0.205069 0.597175 110 116 118
0.169928 0.205078 0.596985 135 141 143
0.168141 0.206050 0.597071 161 167 169
0.187563 0.202503 0.600019 187 190 193
0.185780 0.202512 0.599830 173 176 179
0.183998 0.202521 0.599641 148 151 150
0.182237 0.203492 0.599732 130 133 132
0.180452 0.203501 0.599543 128 131 130
0.178667 0.203510 0.599354 121 124 123
0.176882 0.203519 0.599164 112 118 120
0.175108 0.204490 0.599254 108 114 116
0.173320 0.204499 0.599064 111 117 119
0.171533 0.204508 0.598875 105 111 113
0.169745 0.204518 0.598686 103 109 111
0.167958 0.205488 0.598774 107 113 115
0.166165 0.206459 0.598861 133 139 141
0.164373 0.206468 0.598671 165 171 173
0.182054 0.202932 0.601430 187 187 187
0.180269 0.202942 0.601241 166 166 166
0.178499 0.203912 0.601333 139 139 139
0.176712 0.203921 0.601144 124 127 128
0.174924 0.203930 0.600954 122 125 126
0.173137 0.203939 0.600765 119 122 123
0.171350 0.203948 0.600575 114 117 118
0.169562 0.203957 0.600386 105 111 111
0.167775 0.203966 0.600196 108 114 114
0.165985 0.204936 0.600287 104 110 112
0.164195 0.204945 0.600097 110 116 118
0.162396 0.205915 0.600187 137 140 143
0.160604 0.205925 0.599997 169 172 175
0.176541 0.204320 0.603128 179 179 179
0.174751 0.204329 0.602939 151 151 151
0.172961 0.204338 0.602749 126 126 126
0.171166 0.203388 0.602276 129 129 129
0.169381 0.204357 0.602369 124 130 130
0.167591 0.204366 0.602180 114 120 120
0.165801 0.204375 0.601990 111 117 117
0.164005 0.205344 0.602082 105 111 111
0.162213 0.205353 0.601892 101 107 109
0.160409 0.206323 0.601983 110 116 118
0.158614 0.206332 0.601793 139 145 145
0.156803 0.207301 0.601884 167 173 173
0.172778 0.203777 0.604452 174 174 174
0.170988 0.203786 0.604262 152 152 152
0.169198 0.203795 0.604072 119 125 125
0.167408 0.203805 0.603882 121 127 127
0.165614 0.204773 0.603977 122 128 128
0.163822 0.204782 0.603787 113 119 119
0.162021 0.205751 0.603881 111 117 119
0.160225 0.205760 0.603691 105 111 113
0.158430 0.205769 0.603501 103 109 111
0.156602 0.207697 0.603877 112 118 120
0.154783 0.208665 0.603969 147 152 157
0.169017 0.205151 0.606351 176 176 176
0.167222 0.205160 0.606160 153 153 153
0.165427 0.205169 0.605970 124 127 128
0.163632 0.205179 0.605780 126 129 130
0.161837 0.205188 0.605589 121 124 127
0.160042 0.205197 0.605399 119 122 125
0.158232 0.206165 0.605495 108 114 116
0.156418 0.207132 0.605590 105 111 113
0.154599 0.208100 0.605685 100 107 111
0.152796 0.208109 0.605494 123 130 134
0.150993 0.208118 0.605302 156 161 168
0.165243 0.204607 0.607678 181 181 181
0.163448 0.204616 0.607487 150 150 150
0.161644 0.205583 0.607586 130 130 132
0.159846 0.205592 0.607396 126 126 128
0.158034 0.206559 0.607494 118 118 122
0.156234 0.206568 0.607303 114 114 118
0.154414 0.207535 0.607400 103 109 111
0.152589 0.208502 0.607496 103 109 111
0.150783 0.208511 0.607305 109 111 119
0.148978 0.208520 0.607114 130 132 140
0.147143 0.209487 0.607209 166 169 172
0.161450 0.205976 0.609588 185 185 187
0.159650 0.205985 0.609397 150 150 152
0.157835 0.206951 0.609497 131 130 132
0.156032 0.206960 0.609306 125 124 126
0.154229 0.206969 0.609115 124 124 126
0.152404 0.207936 0.609214 115 115 117
0.150599 0.207945 0.609023 110 113 116
0.148766 0.208911 0.609121 107 110 113
0.146928 0.209877 0.609219 121 121 123
0.145117 0.209886 0.609027 144 144 146
0.143271 0.210853 0.609123 174 174 176
0.157635 0.207342 0.611506 188 187 189
0.155830 0.207351 0.611315 151 150 152
0.154024 0.207360 0.611123 131 130 132
0.152196 0.208326 0.611224 123 122 124
0.150388 0.208335 0.611033 122 122 122
0.148580 0.208344 0.610841 110 110 110
0.146742 0.209310 0.610941 108 108 108
0.144931 0.209319 0.610749 105 105 105
0.143085 0.210284 0.610848 121 124 125
0.141272 0.210293 0.610656 157 160 161
0.139459 0.210303 0.610464 187 187 189
0.153799 0.208705 0.613431 166 165 165
0.151988 0.208714 0.613240 137 136 136
0.150178 0.208723 0.613048 124 124 124
0.148367 0.208733 0.612856 130 130 130
0.146557 0.208742 0.612664 119 122 121
0.144713 0.209706 0.612766 106 109 108
0.142900 0.209716 0.612574 109 112 113
0.141086 0.209725 0.612381 114 117 118
0.139273 0.209734 0.612189 142 145 148
0.137417 0.210699 0.612290 177 180 183
0.149967 0.209110 0.615067 153 153 149
0.148153 0.209119 0.614875 126 126 122
0.146340 0.209129 0.614683 129 130 126
0.144527 0.209138 0.614491 119 120 116
0.142714 0.209147 0.614298 109 112 111
0.140901 0.209156 0.614106 105 108 107
0.139087 0.209166 0.613914 105 111 113
0.137231 0.210129 0.614017 124 130 132
0.135415 0.210139 0.613825 164 167 170
0.147968 0.208551 0.616600 178 179 173
0.146154 0.208560 0.616408 143 143 137
0.144341 0.208569 0.616216 123 123 117
0.142528 0.208579 0.616024 123 126 125
0.140715 0.208588 0.615831 113 116 115
0.138860 0.209551 0.615937 108 114 116
0.137045 0.209560 0.615745 104 110 112
0.135229 0.209569 0.615552 115 117 123
0.133413 0.209579 0.615360 147 149 155
0.131546 0.210542 0.615464 185 188 189
0.144122 0.208954 0.618242 169 169 163
0.142306 0.208963 0.618050 131 131 131
0.140490 0.208972 0.617857 123 123 123
0.138674 0.208982 0.617665 115 118 119
0.136858 0.208991 0.617472 112 115 116
0.135043 0.209000 0.617280 107 110 113
0.133178 0.209962 0.617387 110 113 116
0.131359 0.209972 0.617194 138 141 144
0.129541 0.209981 0.617001 180 183 186
0.142120 0.208394 0.619777 189 190 186
0.140304 0.208403 0.619585 154 155 151
0.138446 0.209364 0.619695 115 118 117
0.136628 0.209374 0.619502 121 124 123
0.134810 0.209383 0.619309 119 122 123
0.132991 0.209392 0.619117 114 117 118
0.131173 0.209401 0.618924 108 111 112
0.129300 0.210363 0.619033 137 140 141
0.127479 0.210372 0.618840 183 186 187
0.138260 0.208794 0.621425 159 159 159
0.136442 0.208803 0.621232 123 123 123
0.134623 0.208813 0.621039 126 126 126
0.132755 0.209773 0.621151 123 123 123
0.130934 0.209783 0.620958 115 115 117
0.129113 0.209792 0.620765 111 111 113
0.127235 0.210753 0.620876 138 141 142
0.136210 0.209184 0.623270 167 167 163
0.134389 0.209193 0.623077 129 128 130
0.132568 0.209202 0.622884 125 124 126
0.130695 0.210162 0.622997 125 124 126
0.128871 0.210172 0.622804 120 119 121
0.126990 0.211132 0.622917 111 111 113
0.125164 0.211141 0.622723 153 153 155
0.136024 0.208613 0.625002 188 188 184
0.134155 0.209572 0.625119 180 174 178
0.132331 0.209581 0.624925 136 130 134
0.130455 0.210540 0.625041 128 124 125
0.128629 0.210550 0.624848 129 125 126
0.126803 0.210559 0.624654 119 122 121
0.124855 0.212468 0.625077 120 123 122
0.123024 0.212478 0.624883 174 177 178
0.133920 0.209949 0.627166 186 182 183
0.132094 0.209959 0.626972 183 179 180
0.130268 0.209968 0.626779 127 124 121
0.128386 0.210926 0.626897 127 124 121
0.126557 0.210936 0.626703 124 124 124
0.124667 0.211894 0.626820 114 114 114
0.122773 0.212852 0.626936 146 146 148
0.129974 0.211292 0.629144 180 180 176
0.128142 0.211301 0.628950 126 126 122
0.126252 0.212259 0.629070 124 123 123
0.124418 0.212268 0.628875 123 122 122
0.122585 0.212277 0.628681 117 120 121
0.120751 0.212287 0.628486 174 177 178
0.127898 0.211674 0.631009 173 173 169
0.126064 0.211684 0.630814 127 126 126
0.124231 0.211693 0.630620 129 128 128
0.122333 0.212650 0.630741 106 109 110
0.120496 0.212659 0.630546 152 155 156
0.127710 0.211099 0.632753 193 193 189
0.125817 0.212055 0.632877 149 149 149
0.123981 0.212065 0.632683 130 130 130
0.122080 0.213021 0.632806 107 113 113
0.120241 0.213030 0.632611 129 135 135
0.127409 0.212416 0.635140 193 189 190
0.125570 0.212425 0.634945 156 159 158
0.123731 0.212435 0.634750 126 129 128
0.121892 0.212444 0.634556 111 119 120
0.127220 0.211839 0.636890 168 167 167
0.125321 0.212794 0.637018 152 155 154
0.123480 0.212803 0.636823 123 126 125
0.121638 0.212812 0.636628 117 125 126
0.119797 0.212822 0.636433 116 124 125
0.125133 0.212216 0.638770 151 154 153
0.123291 0.212226 0.638575 119 122 121
0.121450 0.212235 0.638380 125 131 133
0.119608 0.212244 0.638185 119 125 127
0.124944 0.211639 0.640522 152 155 154
0.123040 0.212592 0.640655 113 116 115
0.121195 0.212601 0.640460 124 130 130
0.119419 0.211667 0.639937 122 128 128
0.124695 0.212004 0.642605 142 146 141
0.122851 0.212013 0.642410 107 111 106
0.121007 0.212023 0.642214 119 125 125
0.119162 0.212032 0.642019 121 127 127
0.126292 0.212358 0.644889 195 195 191
0.124445 0.212367 0.644693 124 127 126
0.122598 0.212377 0.644497 112 115 114
0.120818 0.211444 0.643969 115 121 121
0.118973 0.211454 0.643773 131 137 137
0.126103 0.211779 0.646646 189 189 189
0.124256 0.211788 0.646450 108 111 112
0.122409 0.211798 0.646254 114 117 118
0.120562 0.211807 0.646058 114 117 118
0.118716 0.211817 0.645862 147 150 151
0.125854 0.212140 0.648741 169 169 169
0.124005 0.212150 0.648545 108 111 112
0.122156 0.212159 0.648349 116 119 120
0.120307 0.212168 0.648153 114 117 116
0.118526 0.211238 0.647619 164 167 166
0.125665 0.211560 0.650500 142 142 142
0.123816 0.211570 0.650304 107 113 113
0.121966 0.211579 0.650108 119 125 125
0.120117 0.211589 0.649912 115 118 117
0.118268 0.211598 0.649716 183 186 185
0.127325 0.210971 0.652456 185 186 182
0.125476 0.210980 0.652260 117 118 114
0.123626 0.210990 0.652064 112 118 118
0.121777 0.210999 0.651868 118 124 124
0.119928 0.211009 0.651671 131 134 133
0.127135 0.210391 0.654215 155 156 152
0.125286 0.210400 0.654019 110 111 107
0.123437 0.210410 0.653823 119 125 123
0.121588 0.210419 0.653627 113 119 117
0.119738 0.210429 0.653431 156 162 162
0.128741 0.210739 0.656519 192 190 182
0.126889 0.210748 0.656323 118 119 115
0.125037 0.210757 0.656127 111 112 108
0.123247 0.209830 0.655582 119 125 125
0.121398 0.209839 0.655386 112 118 118
0.119549 0.209849 0.655190 170 176 176
0.130350 0.211085 0.658829 198 196 186
0.128496 0.211094 0.658632 172 170 160
0.126699 0.210167 0.658085 107 108 104
0.124847 0.210177 0.657888 121 122 118
0.122995 0.210186 0.657692 114 120 120
0.121143 0.210196 0.657496 134 140 140
0.130108 0.211438 0.660947 194 190 181
0.128306 0.210513 0.660397 130 126 117
0.126451 0.210522 0.660200 103 106 105
0.124597 0.210531 0.660003 122 125 124
0.122805 0.209606 0.659454 112 118 116
0.120954 0.209615 0.659258 165 171 169
0.131724 0.211781 0.663267 164 151 138
0.129917 0.210856 0.662714 156 154 146
0.128060 0.210866 0.662517 111 109 101
0.126261 0.209940 0.661964 113 116 117
0.124407 0.209950 0.661768 112 115 116
0.122616 0.209025 0.661216 135 138 137
0.131534 0.211198 0.665036 173 166 158
0.129674 0.211207 0.664839 117 116 116
0.127870 0.210283 0.664284 108 107 107
0.126071 0.209359 0.663728 117 120 119
0.124217 0.209368 0.663532 114 117 116
0.122362 0.209378 0.663335 162 165 164
0.131343 0.210615 0.666806 159 158 158
0.129483 0.210624 0.666609 107 110 111
0.127624 0.210634 0.666411 116 119 120
0.125823 0.209710 0.665854 120 123 124
0.124027 0.208787 0.665296 128 131 132
0.122172 0.208796 0.665100 177 180 179
0.132915 0.211886 0.669501 182 182 186
0.131101 0.210964 0.668939 123 123 127
0.129293 0.210041 0.668378 108 114 116
0.127433 0.210051 0.668181 120 126 128
0.125633 0.209128 0.667620 124 127 128
0.123775 0.209138 0.667423 143 146 147
0.121982 0.208215 0.666864 160 163 162
0.132724 0.211302 0.671275 149 151 157
0.130911 0.210380 0.670711 106 108 114
0.129102 0.209458 0.670147 112 117 124
0.127243 0.209468 0.669950 120 125 132
0.125383 0.209477 0.669753 125 131 131
0.123585 0.208555 0.669190 176 182 182
0.134351 0.211638 0.673616 178 178 180
0.132484 0.211647 0.673418 116 118 124
0.130720 0.209796 0.672482 106 108 114
0.128858 0.209805 0.672285 118 125 133
0.127052 0.208884 0.671719 114 121 129
0.125193 0.208894 0.671522 153 159 161
0.123333 0.208903 0.671325 178 184 186
0.134160 0.211052 0.675393 150 153 156
0.132292 0.211062 0.675195 108 113 118
0.130477 0.210142 0.674625 115 120 125
0.128667 0.209221 0.674056 119 124 129
0.126805 0.209231 0.673859 121 126 131
0.125002 0.208311 0.673291 180 182 188
0.133969 0.210467 0.677169 124 130 132
0.132101 0.210476 0.676971 105 113 114
0.130286 0.209557 0.676399 119 127 128
0.128421 0.209566 0.676202 118 124 126
0.126556 0.209576 0.676004 145 151 153
0.124752 0.208657 0.675433 188 188 192
0.135600 0.210800 0.679521 150 156 156
0.133730 0.210809 0.679322 106 112 112
0.131910 0.209891 0.678748 103 114 112
0.130042 0.209900 0.678550 122 133 131
0.128175 0.209910 0.678352 121 127 127
0.126308 0.209919 0.678154 177 183 183
0.137193 0.212058 0.682258 187 190 189
0.135408 0.210213 0.681300 118 126 125
0.133538 0.210223 0.681101 99 107 106
0.131719 0.209305 0.680524 115 126 124
0.129851 0.209315 0.680326 117 128 126
0.127984 0.209324 0.680128 154 160 158
0.137001 0.211470 0.684042 160 160 160
0.135171 0.210553 0.683461 110 113 114
0.133347 0.209636 0.682880 109 112 113
0.131477 0.209646 0.682682 112 120 119
0.129660 0.208729 0.682103 128 136 135
0.127793 0.208739 0.681905 184 187 186
0.138644 0.211798 0.686409 194 194 196
0.136809 0.210882 0.685825 126 126 128
0.134980 0.209966 0.685242 109 112 113
0.133107 0.209976 0.685044 121 124 125
0.131285 0.209060 0.684461 115 118 119
0.129415 0.209069 0.684263 163 166 167
0.138411 0.212134 0.688583 155 155 157
0.136574 0.211219 0.687997 110 110 112
0.134742 0.210304 0.687411 110 113 116
0.132867 0.210313 0.687212 121 124 127
0.130992 0.210323 0.687013 136 139 140
0.140099 0.211535 0.690571 185 185 189
0.138218 0.211544 0.690372 122 125 128
0.136338 0.211554 0.690173 109 112 115
0.134504 0.210639 0.689584 117 120 121
0.132626 0.210649 0.689385 117 120 121
0.130800 0.209735 0.688797 167 167 169
0.139906 0.210945 0.692360 151 154 157
0.138026 0.210955 0.692161 110 116 118
0.136145 0.210964 0.691961 115 121 123
0.134265 0.210974 0.691762 121 127 127
0.132385 0.210983 0.691563 122 128 128
0.130505 0.210993 0.691363 193 193 193
0.141521 0.212190 0.695139 170 176 178
0.139674 0.211278 0.694544 122 128 130
0.137792 0.211287 0.694344 116 124 125
0.135953 0.210375 0.693750 119 127 128
0.134073 0.210384 0.693551 119 125 125
0.132143 0.211316 0.693746 150 156 156
0.141328 0.211599 0.696933 133 139 141
0.139442 0.211609 0.696733 106 112 114
0.137599 0.210697 0.696136 113 121 122
0.135716 0.210706 0.695936 118 126 127
0.133833 0.210716 0.695736 128 134 132
0.131950 0.210726 0.695537 184 190 188
0.143020 0.210998 0.698926 165 168 169
0.141135 0.211008 0.698726 120 126 128
0.139249 0.211017 0.698527 108 114 116
0.137364 0.211027 0.698327 111 117 117
0.135478 0.211037 0.698127 114 120 120
0.133593 0.211046 0.697927 170 176 174
0.144680 0.211317 0.701323 193 193 197
0.142827 0.210407 0.700720 135 135 139
0.140941 0.210417 0.700520 109 112 115
0.139056 0.210426 0.700320 115 118 121
0.137171 0.210436 0.700120 120 126 124
0.135285 0.210446 0.699921 134 140 138
0.144487 0.210725 0.703119 160 160 164
0.142599 0.210735 0.702919 114 114 118
0.140748 0.209826 0.702314 106 109 110
0.138863 0.209835 0.702114 115 118 119
0.136978 0.209845 0.701914 124 130 128
0.135092 0.209854 0.701714 171 177 175
0.146182 0.210124 0.705116 168 168 170
0.144294 0.210133 0.704916 123 123 127
0.142406 0.210143 0.704715 114 114 118
0.140518 0.210153 0.704515 116 119 120
0.138630 0.210162 0.704315 116 119 120
0.136742 0.210172 0.704115 167 170 169
0.147849 0.210439 0.707523 184 187 190
0.145958 0.210449 0.707323 136 139 142
0.144100 0.209541 0.706712 114 117 120
0.142212 0.209551 0.706512 106 109 112
0.140324 0.209561 0.706311 115 118 119
0.138436 0.209570 0.706111 133 136 137
0.136548 0.209580 0.705911 190 190 190
0.149545 0.209837 0.709522 192 195 194
0.147655 0.209846 0.709322 143 149 151
0.145764 0.209856 0.709121 119 125 127
0.143874 0.209866 0.708921 107 113 115
0.142019 0.208959 0.708308 113 119 121
0.140131 0.208969 0.708108 115 121 121
0.138243 0.208978 0.707907 165 171 171
0.149326 0.210160 0.711737 163 166 165
0.147461 0.209254 0.711120 118 124 126
0.145571 0.209263 0.710920 106 112 114
0.143680 0.209273 0.710720 114 120 122
0.141789 0.209283 0.710519 114 120 122
0.139937 0.208376 0.709904 150 153 154
0.151025 0.209557 0.713739 175 181 183
0.149132 0.209566 0.713538 128 134 136
0.147239 0.209576 0.713338 117 123 125
0.145346 0.209585 0.713137 112 118 120
0.143486 0.208680 0.712518 117 123 123
0.141596 0.208690 0.712318 115 121 121
0.139705 0.208699 0.712117 190 194 189
0.152725 0.208953 0.715741 187 190 189
0.150831 0.208963 0.715540 140 148 149
0.148938 0.208973 0.715339 124 132 133
0.147045 0.208982 0.715139 106 114 115
0.145152 0.208992 0.714938 114 122 123
0.143259 0.209001 0.714737 117 123 121
0.141366 0.209011 0.714537 151 157 155
0.154424 0.208350 0.717743 198 201 200
0.152531 0.208360 0.717542 166 169 168
0.150614 0.209282 0.717765 127 132 137
0.148718 0.209292 0.717564 106 111 116
0.146822 0.209302 0.717363 111 119 120
0.144927 0.209311 0.717162 113 121 122
0.143065 0.208408 0.716538 133 140 134
0.154211 0.208669 0.719971 173 176 177
0.152315 0.208678 0.719770 128 131 132
0.150420 0.208688 0.719569 111 116 121
0.148524 0.208698 0.719368 105 110 115
0.146628 0.208707 0.719167 113 119 119
0.144732 0.208717 0.718966 119 125 125
0.142837 0.208727 0.718765 181 185 178
0.155913 0.208065 0.721975 185 188 187
0.154017 0.208074 0.721774 131 134 137
0.152099 0.208996 0.722003 121 124 127
0.150177 0.209917 0.722230 107 112 117
0.148276 0.209927 0.722029 113 118 123
0.146375 0.209936 0.721827 114 120 118
0.144474 0.209946 0.721626 160 166 164
0.157586 0.209282 0.724845 191 194 197
0.155685 0.209292 0.724643 140 143 146
0.153784 0.209301 0.724442 126 128 134
0.151883 0.209311 0.724240 106 108 114
0.149982 0.209321 0.724039 104 110 112
0.148081 0.209330 0.723837 114 120 122
0.146151 0.210251 0.724066 145 148 147
0.144247 0.210261 0.723865 197 200 199
0.159280 0.209586 0.727290 203 203 205
0.157377 0.209596 0.727088 151 154 157
0.155490 0.208696 0.726452 133 136 139
0.153589 0.208705 0.726250 109 111 117
0.151688 0.208715 0.726049 106 108 114
0.149763 0.209635 0.726281 117 120 123
0.147832 0.210555 0.726513 129 132 135
0.145926 0.210564 0.726311 186 189 188
0.159073 0.209899 0.729538 171 170 177
0.157167 0.209908 0.729336 128 130 136
0.155261 0.209918 0.729134 127 129 135
0.153355 0.209928 0.728932 109 111 117
0.151449 0.209937 0.728730 119 121 127
0.149543 0.209947 0.728528 124 127 128
0.147637 0.209957 0.728326 162 165 166
0.160764 0.211108 0.732435 186 185 192
0.158865 0.210209 0.731792 140 139 146
0.156957 0.210219 0.731590 123 125 131
0.155048 0.210229 0.731387 119 121 127
0.153160 0.209330 0.730746 120 123 126
0.151253 0.209340 0.730543 121 124 127
0.149322 0.210258 0.730780 140 143 142
0.147386 0.211176 0.731016 199 202 201
0.162472 0.211406 0.734899 195 195 197
0.160558 0.211416 0.734696 144 143 150
0.158657 0.210518 0.734050 130 129 136
0.156746 0.210528 0.733848 116 118 124
0.154835 0.210538 0.733645 119 121 127
0.152923 0.210547 0.733442 121 124 125
0.151012 0.210557 0.733240 124 127 128
0.149101 0.210567 0.733037 186 189 188
0.162268 0.211713 0.737165 159 159 163
0.160352 0.211723 0.736962 136 135 144
0.158448 0.210826 0.736313 126 125 134
0.156535 0.210835 0.736111 115 117 123
0.154621 0.210845 0.735908 116 118 124
0.152707 0.210855 0.735705 117 123 123
0.150793 0.210865 0.735502 168 174 174
0.163983 0.212008 0.739639 171 170 177
0.162064 0.212018 0.739436 137 136 143
0.160155 0.211122 0.738785 129 128 137
0.158239 0.211131 0.738582 116 115 124
0.156323 0.211141 0.738379 117 120 123
0.154406 0.211151 0.738175 115 118 121
0.152511 0.210255 0.737526 151 154 155
0.165702 0.212302 0.742120 187 187 189
0.163786 0.211406 0.741465 130 129 136
0.161867 0.211416 0.741262 128 127 134
0.159959 0.210521 0.740608 110 109 116
0.158043 0.210531 0.740405 110 109 116
0.156126 0.210540 0.740202 122 122 126
0.154210 0.210550 0.739999 138 138 142
0.152294 0.210560 0.739795 194 197 198
0.167427 0.211689 0.744151 193 196 197
0.165505 0.211699 0.743948 147 150 151
0.163590 0.210805 0.743291 131 130 137
0.161671 0.210814 0.743087 115 114 121
0.159763 0.209920 0.742431 105 105 109
0.157846 0.209930 0.742228 119 119 123
0.155930 0.209939 0.742025 126 126 128
0.153995 0.210854 0.742274 185 185 187
0.169153 0.211980 0.746640 197 200 199
0.167230 0.211087 0.745979 156 162 164
0.165308 0.211097 0.745776 124 130 132
0.163393 0.210203 0.745116 120 122 128
0.161474 0.210213 0.744913 105 107 113
0.159555 0.210222 0.744709 117 117 121
0.157636 0.210232 0.744506 118 118 122
0.155717 0.210242 0.744303 173 173 175
0.168956 0.211377 0.748470 180 183 184
0.167033 0.210484 0.747807 134 141 145
0.165111 0.210494 0.747604 120 127 131
0.163196 0.209601 0.746942 104 111 115
0.161277 0.209611 0.746739 116 123 127
0.159359 0.209621 0.746535 121 124 127
0.157440 0.209631 0.746332 151 154 157
0.155521 0.209640 0.746128 201 201 205
0.170683 0.210764 0.750505 193 198 203
0.168759 0.210774 0.750301 145 150 155
0.166836 0.209882 0.749636 121 128 134
0.164915 0.209892 0.749432 106 113 119
0.162993 0.209901 0.749228 106 113 117
0.161081 0.209009 0.748564 118 125 129
0.159162 0.209019 0.748361 125 131 131
0.157228 0.209931 0.748617 185 191 191
0.170485 0.210161 0.752335 160 165 172
0.168561 0.210170 0.752131 120 125 132
0.166639 0.209279 0.751464 114 121 127
0.164718 0.209289 0.751260 99 106 112
0.162796 0.209299 0.751056 119 125 127
0.160875 0.209309 0.750853 113 119 121
0.158953 0.209318 0.750649 160 166 166
0.172212 0.209547 0.754370 181 184 185
0.170288 0.209557 0.754166 127 134 140
0.168364 0.209567 0.753962 118 125 131
0.166442 0.208677 0.753292 98 105 109
0.164521 0.208687 0.753088 109 116 120
0.162599 0.208696 0.752884 113 119 119
0.160678 0.208706 0.752681 153 159 159
0.173939 0.208934 0.756404 195 201 203
0.172015 0.208944 0.756200 147 153 155
0.170091 0.208954 0.755996 117 124 130
0.168167 0.208964 0.755792 107 114 120
0.166243 0.208974 0.755588 113 118 125
0.164319 0.208983 0.755384 118 123 130
0.162395 0.208993 0.755180 141 147 149
0.160471 0.209003 0.754976 189 195 197
0.173742 0.208331 0.758235 159 161 167
0.171818 0.208341 0.758031 123 125 131
0.169894 0.208351 0.757827 110 117 123
0.167970 0.208360 0.757623 109 116 122
0.166046 0.208370 0.757419 120 125 132
0.164122 0.208380 0.757215 122 127 134
0.162198 0.208390 0.757011 186 188 194
0.175469 0.207718 0.760269 175 175 177
0.173545 0.207728 0.760065 120 122 128
0.171621 0.207738 0.759861 120 122 128
0.169697 0.207747 0.759657 111 118 122
0.167773 0.207757 0.759453 116 123 127
0.165849 0.207767 0.759249 114 119 124
0.163925 0.207777 0.759045 161 166 171
0.177208 0.208002 0.762781 186 189 192
0.175282 0.208011 0.762577 138 141 144
0.173355 0.208021 0.762373 127 129 135
0.171428 0.208031 0.762168 119 121 127
0.169500 0.207144 0.761488 119 124 129
0.167576 0.207154 0.761284 119 124 129
0.165652 0.207164 0.761080 148 151 154
0.178938 0.207388 0.764818 199 199 199
0.177011 0.207397 0.764614 152 154 160
0.175084 0.207407 0.764410 122 124 130
0.173158 0.207417 0.764206 114 116 122
0.171231 0.207427 0.764001 117 119 125
0.169304 0.207437 0.763797 120 123 126
0.167378 0.207447 0.763593 126 129 132
0.165451 0.207456 0.763389 192 192 194
0.180684 0.207669 0.767339 203 203 203
0.178755 0.207679 0.767134 178 178 178
0.176825 0.207689 0.766930 119 124 129
0.174896 0.207698 0.766725 115 120 125
0.172967 0.207708 0.766521 115 120 125
0.171038 0.207718 0.766316 115 120 125
0.169108 0.207728 0.766111 122 122 124
0.167179 0.207738 0.765907 174 174 176
0.180486 0.207064 0.769174 187 187 189
0.178557 0.207074 0.768969 130 130 132
0.176628 0.207084 0.768765 114 119 124
0.174699 0.207093 0.768560 118 123 128
0.172769 0.207103 0.768356 120 125 130
0.170840 0.207113 0.768151 115 120 125
0.168911 0.207123 0.767947 155 158 159
0.182237 0.207343 0.771702 200 200 202
0.180305 0.207353 0.771497 144 147 150
0.178373 0.207362 0.771292 120 123 126
0.176441 0.207372 0.771088 113 118 123
0.174510 0.207382 0.770883 119 124 129
0.172578 0.207392 0.770678 115 121 123
0.183992 0.207620 0.774236 200 203 204
0.182039 0.206737 0.773540 149 152 153
0.180107 0.206747 0.773335 120 125 130
0.178175 0.206757 0.773130 119 124 129
0.176254 0.207659 0.773415 116 123 127
0.174320 0.207669 0.773210 117 124 128
0.172386 0.207679 0.773005 124 130 130
0.170455 0.208582 0.773289 184 190 190
0.185752 0.207895 0.776775 206 206 208
0.183794 0.207013 0.776076 163 169 171
0.181859 0.207023 0.775871 125 131 133
0.179925 0.207033 0.775666 113 120 126
0.177991 0.207043 0.775461 117 124 130
0.176067 0.207945 0.775748 114 121 125
0.174130 0.207955 0.775542 130 137 141
0.172199 0.208857 0.775829 183 186 187
0.185577 0.208179 0.779113 184 187 190
0.183637 0.208189 0.778908 126 133 139
0.181680 0.207308 0.778207 110 117 123
0.179758 0.208209 0.778497 112 119 125
0.177819 0.208219 0.778291 113 120 126
0.175879 0.208229 0.778085 116 119 120
0.173947 0.209130 0.778374 167 170 171
0.187369 0.209342 0.782162 189 194 201
0.185401 0.208461 0.781457 132 137 144
0.183439 0.207581 0.780753 109 119 124
0.181499 0.207591 0.780547 109 119 124
0.179559 0.207601 0.780342 117 124 130
0.177633 0.208501 0.780634 117 124 130
0.175701 0.209401 0.780925 159 159 161
0.189142 0.209612 0.784719 201 201 205
0.187170 0.208732 0.784012 150 157 163
0.185225 0.208742 0.783806 112 119 125
0.183260 0.207862 0.783099 107 117 122
0.181318 0.207872 0.782893 112 122 127
0.179391 0.208772 0.783187 119 126 130
0.177459 0.209671 0.783481 131 138 142
0.175511 0.209681 0.783274 193 193 195
0.190921 0.209880 0.787283 201 204 207
0.188943 0.209001 0.786572 160 163 166
0.186996 0.209011 0.786366 114 121 127
0.185048 0.209021 0.786159 106 113 119
0.183081 0.208142 0.785450 111 118 122
0.181154 0.209041 0.785746 119 126 130
0.179206 0.209051 0.785540 127 135 134
0.177259 0.209060 0.785334 183 191 190
0.190721 0.209268 0.789138 168 173 180
0.188771 0.209278 0.788931 115 120 127
0.186796 0.208400 0.788218 100 107 115
0.184849 0.208410 0.788012 107 114 122
0.182902 0.208420 0.787805 118 126 127
0.180954 0.208430 0.787599 117 125 126
0.179021 0.209328 0.787898 167 175 174
0.192536 0.210421 0.792218 190 190 192
0.190521 0.208657 0.790993 124 129 136
0.188571 0.208667 0.790786 107 112 119
0.186621 0.208677 0.790579 106 113 119
0.184671 0.208687 0.790373 120 127 133
0.182721 0.208697 0.790166 118 124 124
0.180772 0.208707 0.789959 164 170 170
0.194290 0.209798 0.794286 198 201 204
0.192335 0.209808 0.794078 148 151 154
0.190380 0.209818 0.793871 111 116 125
0.188398 0.208942 0.793153 111 116 125
0.186421 0.208065 0.792435 111 116 121
0.184472 0.208075 0.792228 114 119 124
0.182522 0.208085 0.792021 155 158 159
0.180588 0.208981 0.792325 193 196 197
0.196082 0.210060 0.796868 203 203 205
0.194124 0.210070 0.796660 157 159 167
0.192135 0.209195 0.795938 115 117 125
0.190180 0.209205 0.795731 114 119 126
0.188225 0.209215 0.795524 117 122 129
0.186246 0.208339 0.794803 121 124 127
0.184315 0.209235 0.795109 149 152 155
0.182360 0.209245 0.794902 190 190 190
0.195881 0.209447 0.798730 163 166 169
0.193924 0.209457 0.798523 112 117 124
0.191966 0.209467 0.798315 114 119 126
0.190009 0.209476 0.798108 118 123 130
0.188025 0.208602 0.797384 118 123 130
0.186070 0.208612 0.797177 124 127 128
0.184115 0.208622 0.796969 178 181 182
0.197678 0.209706 0.801320 183 188 193
0.195717 0.209716 0.801112 120 125 130
0.193723 0.208843 0.800385 107 114 120
0.191766 0.208853 0.800177 114 121 127
0.189808 0.208863 0.799970 115 120 125
0.187850 0.208873 0.799762 120 125 130
0.185893 0.208883 0.799555 171 174 173
0.199437 0.209082 0.803393 191 194 193
0.197477 0.209092 0.803185 134 141 147
0.195517 0.209102 0.802977 106 113 119
0.193556 0.209112 0.802769 111 121 126
0.191596 0.209122 0.802562 116 126 131
0.189636 0.209132 0.802354 114 120 122
0.187650 0.208259 0.801625 158 164 166
0.185716 0.209152 0.801938 190 190 190
0.201240 0.209339 0.805991 193 199 201
0.199277 0.209349 0.805783 150 156 158
0.197314 0.209359 0.805575 106 113 117
0.195352 0.209369 0.805367 111 118 122
0.193389 0.209379 0.805159 116 123 127
0.191426 0.209389 0.804950 114 121 125
0.189463 0.209399 0.804742 151 154 155
0.187500 0.209409 0.804534 186 189 190
0.203048 0.209595 0.808594 198 201 204
0.201039 0.208724 0.807858 157 162 169
0.199076 0.208734 0.807650 108 113 120
0.197113 0.208744 0.807442 108 113 118
0.195150 0.208754 0.807234 120 125 130
0.193188 0.208764 0.807026 117 120 123
0.191225 0.208774 0.806818 136 139 142
0.189262 0.208784 0.806610 190 190 192
0.202846 0.208979 0.810464 170 172 178
0.200881 0.208989 0.810256 113 118 125
0.198916 0.208999 0.810048 110 115 122
0.196950 0.209009 0.809839 112 118 120
0.194985 0.209019 0.809631 115 121 123
0.193019 0.209029 0.809423 135 135 137
0.191054 0.209039 0.809214 188 188 190
0.204658 0.209232 0.813076 171 173 181
0.202690 0.209242 0.812867 116 118 126
0.200680 0.208373 0.812126 110 115 122
0.198714 0.208383 0.811917 115 120 127
0.196749 0.208393 0.811709 120 126 128
0.194819 0.209282 0.812033 127 133 135
0.192851 0.209292 0.811824 182 182 184
0.206425 0.208605 0.815157 176 175 182
0.204457 0.208615 0.814948 115 117 127
0.202489 0.208625 0.814739 112 114 124
0.200521 0.208635 0.814531 113 118 125
0.198553 0.208645 0.814322 117 122 129
0.196585 0.208655 0.814114 119 125 127
0.194617 0.208665 0.813905 172 178 180
0.208296 0.209734 0.818315 174 176 186
0.206273 0.208866 0.817567 115 117 127
0.204302 0.208876 0.817359 111 116 123
0.202287 0.208008 0.816612 114 119 126
0.200319 0.208018 0.816403 121 123 129
0.198351 0.208028 0.816194 117 119 125
0.196420 0.208916 0.816523 164 164 166
0.210067 0.209105 0.820402 181 184 187
0.208094 0.209115 0.820192 115 120 127
0.206121 0.209125 0.819983 110 115 122
0.204148 0.209136 0.819774 117 119 125
0.202130 0.208268 0.819024 120 122 128
0.200160 0.208278 0.818815 119 119 123
0.198189 0.208288 0.818607 152 152 156
0.211895 0.209353 0.823032 178 183 188
0.209920 0.209363 0.822823 121 126 131
0.207892 0.208497 0.822070 108 113 118
0.205919 0.208507 0.821860 113 118 123
0.203946 0.208517 0.821651 121 124 127
0.201973 0.208527 0.821442 116 119 122
0.199999 0.208537 0.821233 152 151 151
0.213669 0.208723 0.825121 172 175 176
0.211693 0.208733 0.824912 112 117 124
0.209717 0.208744 0.824702 105 110 117
0.207742 0.208754 0.824493 113 118 125
0.205766 0.208764 0.824283 118 123 130
0.203790 0.208774 0.824074 117 117 121
0.201815 0.208784 0.823864 152 152 156
0.215442 0.208094 0.827210 179 185 187
0.213466 0.208104 0.827001 131 137 139
0.211491 0.208114 0.826791 103 108 115
0.209569 0.208999 0.827131 114 119 126
0.207591 0.209009 0.826921 117 119 127
0.205613 0.209019 0.826711 112 114 122
0.203634 0.209029 0.826502 156 155 157
0.201656 0.209039 0.826292 190 189 191
0.215301 0.208348 0.829642 133 138 145
0.213323 0.208358 0.829432 103 108 115
0.211345 0.208368 0.829223 107 112 119
0.207439 0.209263 0.829354 119 118 125
0.205459 0.209273 0.829144 143 142 149
0.203478 0.209283 0.828934 194 193 193
0.220964 0.206825 0.831598 191 189 179
0.218988 0.206835 0.831388 176 179 180
0.217077 0.207718 0.831734 126 129 130
0.215098 0.207728 0.831524 102 109 115
0.213179 0.208611 0.831869 109 116 122
0.211198 0.208621 0.831659 117 122 127
0.209217 0.208631 0.831449 110 115 120
0.207236 0.208641 0.831239 143 142 144
0.222737 0.206195 0.833687 172 169 166
0.220762 0.206205 0.833477 170 167 164
0.218852 0.207088 0.833826 115 114 121
0.216874 0.207098 0.833616 110 109 116
0.214957 0.207980 0.833963 112 115 118
0.212976 0.207990 0.833753 116 119 122
0.210995 0.208000 0.833543 114 114 116
0.209014 0.208010 0.833333 146 146 148
0.222535 0.205576 0.835566 133 129 134
0.220559 0.205586 0.835357 113 109 114
0.218584 0.205596 0.835148 104 103 107
0.216671 0.206477 0.835498 115 114 118
0.214754 0.207359 0.835848 121 121 123
0.212773 0.207369 0.835638 116 116 118
0.210792 0.207379 0.835428 144 143 143
0.208865 0.208261 0.835777 191 190 190
0.222332 0.204956 0.837446 85 83 90
0.220357 0.204966 0.837237 97 95 102
0.218447 0.205847 0.837590 117 116 118
0.216469 0.205857 0.837380 122 121 123
0.214551 0.206738 0.837732 114 114 114
0.212570 0.206748 0.837522 137 137 137
0.210645 0.207629 0.837874 191 190 190
0.222130 0.204337 0.839326 79 81 87
0.220222 0.205217 0.839682 110 112 118
0.218244 0.205227 0.839472 121 121 123
0.216266 0.205237 0.839262 115 115 117
0.214348 0.206117 0.839617 143 143 139
0.212367 0.206127 0.839407 191 191 187
0.224049 0.205445 0.842551 101 103 109
0.222068 0.205455 0.842341 107 112 117
0.220088 0.205465 0.842131 119 124 129
0.218107 0.205475 0.841921 110 113 114
0.216189 0.206354 0.842278 153 156 157
0.221936 0.205702 0.844796 112 117 122
0.219952 0.205712 0.844586 118 123 128
0.217969 0.205722 0.844376 164 164 164
0.221872 0.206815 0.847829 120 126 126
0.219951 0.207693 0.848191 165 171 171
0.221807 0.207925 0.850872 169 177 176
