ply
format ascii 1.0
element vertex 1851
property float x
property float y
property float z
property uchar red
property uchar green
property uchar blue
end_header
0.326179 0.210065 0.512007 129 140 140
0.324459 0.210074 0.511825 129 139 142
0.329687 0.210515 0.514171 150 156 158
0.327963 0.210523 0.513988 91 102 102
0.326240 0.210532 0.513805 86 97 97
0.324517 0.210541 0.513623 93 103 106
0.322562 0.209543 0.513279 122 132 135
0.331478 0.210971 0.516158 158 163 168
0.329752 0.210980 0.515975 98 103 108
0.327787 0.209983 0.515628 89 96 102
0.326063 0.209992 0.515445 96 103 109
0.324340 0.210001 0.515262 89 99 104
0.322617 0.210009 0.515080 97 107 112
0.331301 0.210430 0.517800 102 109 115
0.329575 0.210439 0.517617 83 90 96
0.327849 0.210448 0.517434 94 104 109
0.325887 0.209451 0.517085 101 111 116
0.324163 0.209460 0.516902 104 114 119
0.322440 0.209469 0.516719 124 134 139
0.333097 0.210884 0.519794 117 125 126
0.331368 0.210893 0.519611 89 96 100
0.329398 0.209898 0.519259 97 104 108
0.327672 0.209907 0.519076 103 110 116
0.325946 0.209915 0.518893 107 114 120
0.324220 0.209924 0.518710 126 133 139
0.322495 0.209933 0.518527 168 175 181
0.334897 0.211337 0.521794 127 134 138
0.333166 0.211346 0.521611 86 93 97
0.331191 0.210351 0.521256 96 103 107
0.329462 0.210360 0.521072 104 111 115
0.327734 0.210369 0.520889 106 113 119
0.326005 0.210378 0.520706 118 125 131
0.324044 0.209383 0.520352 167 177 182
0.336702 0.211788 0.523800 141 149 150
0.334968 0.211797 0.523616 89 96 100
0.332988 0.210803 0.523258 91 98 102
0.331257 0.210812 0.523074 99 106 110
0.329526 0.210821 0.522891 111 118 122
0.327557 0.209827 0.522534 118 125 131
0.325828 0.209836 0.522350 164 171 177
0.336775 0.212246 0.525627 104 112 113
0.334790 0.211253 0.525266 85 92 96
0.332811 0.210260 0.524905 102 109 113
0.331080 0.210269 0.524721 111 118 122
0.329349 0.210278 0.524538 111 118 122
0.327618 0.210287 0.524354 152 159 163
0.338333 0.211693 0.527463 107 114 118
0.336597 0.211702 0.527279 88 95 99
0.334861 0.211710 0.527095 100 107 111
0.332879 0.210718 0.526731 113 120 124
0.331145 0.210727 0.526547 109 116 120
0.329171 0.209735 0.526185 141 148 152
0.339891 0.211140 0.529299 131 137 139
0.338408 0.212148 0.529298 89 96 100
0.336669 0.212157 0.529113 92 99 103
0.334683 0.211166 0.528747 111 118 122
0.332946 0.211175 0.528563 111 118 122
0.331210 0.211184 0.528379 132 139 143
0.341708 0.211586 0.531321 145 153 154
0.339969 0.211594 0.531136 93 101 102
0.338230 0.211603 0.530952 97 105 106
0.336491 0.211612 0.530768 104 112 113
0.334752 0.211621 0.530583 111 118 122
0.332768 0.210630 0.530214 127 134 138
0.331032 0.210639 0.530030 164 171 175
0.341529 0.211040 0.532975 103 111 112
0.339791 0.211049 0.532791 88 96 97
0.338052 0.211058 0.532606 99 106 110
0.336313 0.211067 0.532422 106 113 117
0.334574 0.211076 0.532238 112 119 123
0.332835 0.211085 0.532053 153 160 164
0.343090 0.210486 0.534814 127 133 135
0.341351 0.210495 0.534629 91 98 102
0.339867 0.211502 0.534635 99 106 110
0.338126 0.211510 0.534451 106 113 117
0.336384 0.211519 0.534266 109 116 120
0.334643 0.211528 0.534081 149 156 160
0.332901 0.211537 0.533897 170 177 181
0.344913 0.210929 0.536846 142 150 151
0.343171 0.210938 0.536661 96 104 105
0.341430 0.210947 0.536477 92 99 103
0.339689 0.210956 0.536292 107 114 118
0.337947 0.210964 0.536107 104 114 117
0.336206 0.210973 0.535923 132 142 145
0.334464 0.210982 0.535738 171 178 182
0.344734 0.210383 0.538503 106 114 115
0.342993 0.210392 0.538318 96 104 105
0.341252 0.210401 0.538133 102 109 113
0.339510 0.210410 0.537949 112 119 123
0.337769 0.210418 0.537764 122 132 135
0.336027 0.210427 0.537580 162 172 175
0.346562 0.210823 0.540543 133 141 142
0.344818 0.210832 0.540358 93 101 102
0.343074 0.210841 0.540173 99 107 108
0.341330 0.210850 0.539988 108 113 118
0.339586 0.210859 0.539803 117 122 127
0.337841 0.210868 0.539618 145 150 155
0.336097 0.210877 0.539434 163 168 173
0.348127 0.210267 0.542387 153 161 162
0.346383 0.210276 0.542202 98 106 107
0.344639 0.210285 0.542017 95 103 104
0.342895 0.210294 0.541832 109 117 118
0.341151 0.210303 0.541647 115 120 125
0.339407 0.210312 0.541463 128 133 138
0.337663 0.210321 0.541278 164 169 174
0.347948 0.209721 0.544046 107 115 116
0.346468 0.210723 0.544065 97 105 106
0.344721 0.210732 0.543880 104 112 113
0.342975 0.210741 0.543695 113 121 122
0.341228 0.210750 0.543510 120 125 132
0.339481 0.210759 0.543324 151 156 163
0.349782 0.210158 0.546097 147 155 154
0.348035 0.210166 0.545912 92 100 99
0.346289 0.210175 0.545727 104 112 111
0.344542 0.210184 0.545542 109 117 118
0.342796 0.210193 0.545356 113 121 122
0.341049 0.210202 0.545171 135 140 147
0.339302 0.210211 0.544986 168 173 180
0.349871 0.210602 0.547968 106 112 112
0.348122 0.210611 0.547783 97 105 104
0.346373 0.210620 0.547597 110 118 117
0.344624 0.210629 0.547412 111 119 120
0.342875 0.210638 0.547226 117 125 126
0.341125 0.210646 0.547041 167 174 180
0.351441 0.210044 0.549818 127 133 133
0.349692 0.210053 0.549632 96 102 102
0.347943 0.210062 0.549447 103 111 112
0.346194 0.210071 0.549261 112 120 121
0.344445 0.210080 0.549076 113 121 122
0.342695 0.210089 0.548890 150 158 159
0.353011 0.209487 0.551667 157 160 161
0.351262 0.209496 0.551482 99 105 105
0.349513 0.209505 0.551296 101 107 107
0.347764 0.209514 0.551111 107 115 116
0.346015 0.209523 0.550925 106 114 115
0.344265 0.209532 0.550740 134 142 143
0.342516 0.209541 0.550555 174 182 183
0.353105 0.209928 0.553548 124 127 128
0.351083 0.208948 0.553146 93 101 102
0.349334 0.208956 0.552960 106 114 115
0.347585 0.208965 0.552775 112 119 123
0.345835 0.208974 0.552589 113 120 124
0.344086 0.208983 0.552404 163 170 174
0.354677 0.209370 0.555401 151 154 155
0.352925 0.209379 0.555215 96 99 100
0.351173 0.209388 0.555029 103 109 111
0.349422 0.209397 0.554844 110 116 118
0.347670 0.209406 0.554658 105 115 118
0.345656 0.208426 0.554254 145 155 158
0.356526 0.209800 0.557476 171 174 177
0.354772 0.209809 0.557290 115 121 123
0.353018 0.209817 0.557104 90 96 98
0.350994 0.208839 0.556696 106 113 117
0.349242 0.208847 0.556510 104 111 115
0.347490 0.208856 0.556324 124 134 137
0.345739 0.208865 0.556139 167 177 180
0.356347 0.209249 0.559145 146 152 154
0.354592 0.209258 0.558959 98 103 108
0.352838 0.209267 0.558773 101 106 111
0.351084 0.209276 0.558587 111 118 122
0.349329 0.209285 0.558401 111 118 122
0.347311 0.208307 0.557991 153 164 164
0.357921 0.208690 0.561000 152 159 163
0.356444 0.209686 0.561041 109 116 120
0.354413 0.208708 0.560628 97 104 110
0.352658 0.208717 0.560442 110 117 123
0.350904 0.208726 0.560256 111 118 122
0.349150 0.208735 0.560070 137 144 148
0.347131 0.207758 0.559658 173 181 182
0.358021 0.209126 0.562899 117 127 132
0.356540 0.210120 0.562943 93 103 108
0.354507 0.209144 0.562526 98 108 113
0.352750 0.209153 0.562340 109 119 124
0.350724 0.208176 0.561925 110 117 121
0.348970 0.208185 0.561739 155 162 166
0.347216 0.208194 0.561553 157 164 168
0.359879 0.209550 0.564990 153 159 161
0.358119 0.209559 0.564803 96 106 111
0.356360 0.209568 0.564617 93 103 108
0.354600 0.209577 0.564430 108 120 124
0.352570 0.208602 0.564012 106 118 122
0.350813 0.208611 0.563825 131 141 146
0.348790 0.207635 0.563408 162 172 177
0.359980 0.209983 0.566899 126 133 137
0.358218 0.209992 0.566712 91 101 106
0.356180 0.209017 0.566290 103 113 118
0.354420 0.209026 0.566104 108 120 124
0.352661 0.209035 0.565917 114 126 130
0.350633 0.208060 0.565497 157 167 174
0.348876 0.208069 0.565311 160 170 177
0.361561 0.209421 0.568762 160 168 169
0.359799 0.209430 0.568575 99 107 108
0.358037 0.209439 0.568389 98 108 111
0.356275 0.209448 0.568202 108 118 121
0.354513 0.209457 0.568015 104 114 119
0.352480 0.208483 0.567591 131 141 146
0.350721 0.208492 0.567405 166 176 183
0.361947 0.210833 0.570920 140 147 151
0.359899 0.209860 0.570492 93 100 104
0.358134 0.209869 0.570305 106 113 119
0.356094 0.208896 0.569878 109 116 122
0.354332 0.208905 0.569691 116 123 129
0.352570 0.208914 0.569504 160 167 173
0.350541 0.207940 0.569079 166 173 179
0.363818 0.211251 0.573032 161 169 170
0.362049 0.211260 0.572844 105 112 116
0.359999 0.210288 0.572414 99 106 110
0.358231 0.210297 0.572226 105 112 118
0.356189 0.209324 0.571797 106 113 119
0.354152 0.208352 0.571368 139 146 152
0.352390 0.208361 0.571181 168 175 181
0.363637 0.210696 0.574715 133 139 141
0.361867 0.210705 0.574528 95 102 106
0.360097 0.210714 0.574340 104 111 115
0.358050 0.209743 0.573908 107 114 118
0.356008 0.208771 0.573476 113 120 124
0.354244 0.208780 0.573289 166 173 179
0.365513 0.211112 0.576835 168 174 176
0.363741 0.211121 0.576647 105 111 113
0.361968 0.211130 0.576460 97 104 108
0.359916 0.210159 0.576024 106 113 117
0.358146 0.210168 0.575836 109 116 122
0.356102 0.209198 0.575402 139 146 152
0.354063 0.208227 0.574967 174 181 187
0.365619 0.211535 0.578772 138 144 144
0.363844 0.211544 0.578584 94 100 100
0.361787 0.210574 0.578146 103 111 112
0.360014 0.210583 0.577958 107 115 116
0.357965 0.209613 0.577520 112 122 127
0.356195 0.209622 0.577332 164 174 179
0.367501 0.211948 0.580903 167 170 169
0.365437 0.210978 0.580461 110 116 116
0.363662 0.210988 0.580273 100 106 106
0.361887 0.210997 0.580085 112 119 123
0.359833 0.210027 0.579644 107 114 118
0.358060 0.210036 0.579456 144 154 159
0.356014 0.209067 0.579016 169 179 184
0.367319 0.211390 0.582594 141 144 145
0.365542 0.211399 0.582406 98 104 106
0.363764 0.211408 0.582217 107 113 115
0.361705 0.210440 0.581774 110 117 121
0.359930 0.210449 0.581585 105 112 116
0.358155 0.210458 0.581397 166 173 177
0.368915 0.210824 0.584474 162 168 168
0.367137 0.210833 0.584285 101 107 107
0.365360 0.210842 0.584097 105 110 115
0.363582 0.210851 0.583908 111 116 121
0.361804 0.210860 0.583720 102 109 113
0.360027 0.210869 0.583531 134 141 145
0.357973 0.209902 0.583086 174 181 185
0.368733 0.210266 0.586165 136 142 144
0.366955 0.210275 0.585976 96 102 104
0.365177 0.210284 0.585788 107 112 117
0.363400 0.210293 0.585600 110 115 120
0.361622 0.210303 0.585411 109 116 120
0.359845 0.210312 0.585223 164 171 175
0.370328 0.209700 0.588044 161 167 169
0.368550 0.209709 0.587856 106 111 116
0.366773 0.209718 0.587668 101 106 111
0.365281 0.210702 0.587742 112 117 122
0.363501 0.210711 0.587554 107 112 117
0.361440 0.209745 0.587102 133 140 144
0.359663 0.209754 0.586914 174 181 185
0.370439 0.210117 0.590002 136 142 142
0.368659 0.210126 0.589813 97 103 105
0.366879 0.210135 0.589625 106 112 114
0.365099 0.210144 0.589436 108 113 118
0.363319 0.210153 0.589247 115 120 125
0.361539 0.210162 0.589058 167 174 178
0.372037 0.209549 0.591884 162 168 168
0.370257 0.209558 0.591696 106 112 112
0.368477 0.209567 0.591507 100 106 108
0.366697 0.209576 0.591318 108 114 116
0.364916 0.209586 0.591129 110 115 120
0.363136 0.209595 0.590941 145 150 155
0.361356 0.209604 0.590752 174 179 184
0.371855 0.208991 0.593578 135 143 144
0.370075 0.209000 0.593389 95 103 104
0.368294 0.209009 0.593200 106 111 116
0.366514 0.209018 0.593012 107 112 117
0.364734 0.209027 0.592823 121 126 131
0.362954 0.209036 0.592634 171 176 181
0.373452 0.208424 0.595460 167 175 174
0.371672 0.208433 0.595271 105 113 114
0.369892 0.208442 0.595083 100 108 109
0.368112 0.208451 0.594894 110 117 121
0.366332 0.208460 0.594705 111 118 122
0.364552 0.208469 0.594517 147 152 157
0.363054 0.209450 0.594601 172 177 182
0.373270 0.207866 0.597154 140 148 147
0.371490 0.207875 0.596965 94 105 105
0.370002 0.208854 0.597053 101 112 112
0.368219 0.208864 0.596864 109 116 120
0.366437 0.208873 0.596675 114 121 125
0.364654 0.208882 0.596486 167 174 178
0.374868 0.207298 0.599036 162 170 169
0.373088 0.207307 0.598847 113 121 120
0.371602 0.208286 0.598938 97 107 110
0.369819 0.208296 0.598749 110 120 123
0.368037 0.208305 0.598560 109 116 120
0.366254 0.208314 0.598371 140 147 151
0.364471 0.208323 0.598182 169 176 180
0.374985 0.207709 0.601012 137 145 146
0.373202 0.207718 0.600823 97 105 106
0.371419 0.207727 0.600634 105 115 118
0.369637 0.207737 0.600445 114 124 127
0.367854 0.207746 0.600256 117 124 128
0.366071 0.207755 0.600067 157 164 168
0.376585 0.207141 0.602897 162 168 168
0.374802 0.207150 0.602708 109 117 118
0.373020 0.207159 0.602519 102 110 111
0.371237 0.207168 0.602330 109 119 124
0.369454 0.207178 0.602141 109 119 124
0.367671 0.207187 0.601952 141 148 152
0.366175 0.208164 0.602046 164 171 175
0.376704 0.207550 0.604880 134 142 141
0.374620 0.206591 0.604404 94 105 105
0.373133 0.207568 0.604501 108 119 119
0.371348 0.207577 0.604312 111 121 126
0.369563 0.207586 0.604123 110 120 125
0.367777 0.207595 0.603934 160 167 171
0.378610 0.207947 0.607058 163 171 172
0.376521 0.206990 0.606578 109 117 118
0.374736 0.206999 0.606389 103 113 116
0.372950 0.207008 0.606200 110 120 123
0.371165 0.207017 0.606011 109 119 122
0.369671 0.207993 0.606110 136 146 149
0.378427 0.207387 0.608759 139 149 152
0.376639 0.207396 0.608569 93 103 106
0.374851 0.207405 0.608380 103 113 116
0.373063 0.207414 0.608190 104 114 117
0.371275 0.207423 0.608001 119 129 134
0.369488 0.207432 0.607811 160 170 175
0.378547 0.207791 0.610754 115 126 126
0.376757 0.207800 0.610565 97 108 108
0.374668 0.206844 0.610081 109 119 122
0.372880 0.206854 0.609891 105 115 118
0.371385 0.207828 0.609995 144 154 159
0.369595 0.207837 0.609805 162 172 177
0.380765 0.209149 0.613243 161 169 168
0.378667 0.208194 0.612755 95 106 106
0.376573 0.207239 0.612268 105 116 116
0.374783 0.207248 0.612078 110 120 123
0.372992 0.207257 0.611888 109 119 122
0.371495 0.208231 0.611995 166 173 179
0.382377 0.208577 0.615142 165 171 171
0.380582 0.208586 0.614951 132 138 138
0.378786 0.208595 0.614761 96 104 105
0.376990 0.208604 0.614570 112 120 121
0.375195 0.208614 0.614380 109 119 122
0.373399 0.208623 0.614190 128 138 141
0.371603 0.208632 0.613999 170 177 181
0.382809 0.209939 0.617455 152 160 159
0.380703 0.208986 0.616962 105 113 112
0.378905 0.208995 0.616771 106 114 115
0.377106 0.209004 0.616581 114 122 123
0.375308 0.209013 0.616390 112 119 123
0.373510 0.209022 0.616199 156 163 167
0.384425 0.209365 0.619360 172 178 176
0.382624 0.209374 0.619169 127 135 132
0.380823 0.209384 0.618978 99 107 104
0.379023 0.209393 0.618787 112 120 119
0.377222 0.209402 0.618596 112 120 119
0.375421 0.209411 0.618405 128 134 136
0.373620 0.209420 0.618214 170 176 178
0.384550 0.209762 0.621381 157 163 161
0.382747 0.209771 0.621190 106 112 110
0.380943 0.209780 0.620998 110 116 114
0.379140 0.209789 0.620807 113 121 120
0.377337 0.209798 0.620616 110 118 117
0.375533 0.209808 0.620425 155 161 161
0.384365 0.209196 0.623096 127 133 133
0.382562 0.209205 0.622905 100 108 105
0.380759 0.209215 0.622714 113 121 118
0.378955 0.209224 0.622523 111 117 117
0.377152 0.209233 0.622332 125 131 131
0.375645 0.210202 0.622450 173 176 177
0.386296 0.209581 0.625316 164 172 171
0.384490 0.209590 0.625125 109 117 116
0.382684 0.209599 0.624933 106 114 113
0.380878 0.209608 0.624742 112 120 119
0.379072 0.209618 0.624551 103 109 111
0.377266 0.209627 0.624359 149 155 157
0.375460 0.209636 0.624168 171 174 175
0.386111 0.209014 0.627035 135 143 144
0.384305 0.209024 0.626843 97 105 106
0.382499 0.209033 0.626652 110 118 119
0.380693 0.209042 0.626460 105 113 114
0.378887 0.209051 0.626269 124 130 132
0.377380 0.210019 0.626392 174 180 182
0.387732 0.208439 0.628944 167 173 175
0.385926 0.208448 0.628753 105 113 114
0.384429 0.209415 0.628879 102 110 111
0.382620 0.209424 0.628687 112 120 121
0.381115 0.210391 0.628813 103 111 112
0.379304 0.210401 0.628621 153 159 161
0.377493 0.210410 0.628429 171 177 179
0.386052 0.208839 0.630791 96 104 103
0.384552 0.209805 0.630920 106 114 113
0.382741 0.209814 0.630728 110 118 119
0.380930 0.209823 0.630536 111 119 120
0.379119 0.209833 0.630344 172 175 178
0.389484 0.208253 0.632895 170 178 179
0.387675 0.208263 0.632704 127 135 136
0.386177 0.209228 0.632835 97 105 106
0.384366 0.209237 0.632643 114 122 123
0.382861 0.210202 0.632773 110 116 118
0.381047 0.210212 0.632581 143 149 151
0.379233 0.210221 0.632389 171 177 179
0.389614 0.208642 0.634942 153 164 164
0.387803 0.208651 0.634750 100 111 111
0.385992 0.208660 0.634558 105 116 116
0.384489 0.209625 0.634691 107 118 118
0.382675 0.209634 0.634499 106 113 117
0.380861 0.209643 0.634306 166 173 177
0.391557 0.209019 0.637186 168 176 175
0.389744 0.209028 0.636993 125 136 136
0.387930 0.209037 0.636801 97 108 108
0.386116 0.209047 0.636609 109 119 122
0.384303 0.209056 0.636417 100 110 113
0.382489 0.209065 0.636224 126 133 137
0.391372 0.208450 0.638911 161 169 168
0.389558 0.208459 0.638719 103 116 115
0.387744 0.208469 0.638527 102 115 114
0.385931 0.208478 0.638334 110 120 123
0.384117 0.208487 0.638142 103 113 116
0.382303 0.208496 0.637950 162 169 173
0.393000 0.207872 0.640829 159 170 170
0.391186 0.207881 0.640637 119 130 130
0.389687 0.208843 0.640778 96 109 108
0.387558 0.207900 0.640252 108 121 120
0.385745 0.207909 0.640060 110 121 121
0.383931 0.207918 0.639867 125 136 136
0.382117 0.207928 0.639675 171 179 180
0.393133 0.208255 0.642891 150 160 163
0.391317 0.208265 0.642698 98 108 111
0.389501 0.208274 0.642506 102 115 114
0.387685 0.208283 0.642313 110 123 122
0.385868 0.208292 0.642120 112 123 123
0.384052 0.208302 0.641928 146 157 157
0.394764 0.207677 0.644811 174 182 183
0.393267 0.208637 0.644957 132 142 145
0.391448 0.208646 0.644765 95 105 108
0.389629 0.208656 0.644572 108 120 122
0.387810 0.208665 0.644379 104 116 118
0.385682 0.207723 0.643848 128 136 137
0.383866 0.207732 0.643656 169 177 178
0.394899 0.208058 0.646881 167 175 176
0.393081 0.208067 0.646688 110 120 123
0.391262 0.208076 0.646495 103 113 116
0.389443 0.208085 0.646302 108 120 124
0.387624 0.208095 0.646109 106 118 122
0.385805 0.208104 0.645917 156 164 165
0.395035 0.208437 0.648955 153 161 162
0.393213 0.208446 0.648762 95 105 108
0.391392 0.208455 0.648569 107 117 120
0.389570 0.208465 0.648376 105 115 120
0.387749 0.208474 0.648183 119 129 134
0.385619 0.207534 0.647647 170 177 181
0.396669 0.207856 0.650881 170 178 179
0.395169 0.208814 0.651034 124 132 133
0.393345 0.208824 0.650841 98 108 111
0.391521 0.208833 0.650648 109 119 122
0.389697 0.208842 0.650454 100 110 113
0.387562 0.207903 0.649915 140 150 153
0.385741 0.207912 0.649722 174 181 185
0.396806 0.208233 0.652963 150 158 159
0.395303 0.209190 0.653118 105 113 114
0.393158 0.208252 0.652576 109 116 120
0.391650 0.209209 0.652731 110 117 121
0.389824 0.209218 0.652538 112 119 123
0.387686 0.208280 0.651996 171 178 182
0.398769 0.208599 0.655243 167 173 173
0.396943 0.208608 0.655050 128 136 137
0.395437 0.209565 0.655208 105 113 114
0.393290 0.208627 0.654663 112 119 123
0.391779 0.209583 0.654820 104 111 115
0.389637 0.208646 0.654275 141 148 154
0.387810 0.208655 0.654082 173 180 186
0.399234 0.209919 0.657690 154 160 160
0.397402 0.209928 0.657496 106 114 115
0.395570 0.209938 0.657302 107 115 116
0.393738 0.209947 0.657107 112 119 123
0.391907 0.209956 0.656913 109 116 120
0.389762 0.209019 0.656366 163 170 176
0.399046 0.209345 0.659433 140 146 146
0.397214 0.209354 0.659238 103 109 109
0.395382 0.209363 0.659044 113 119 119
0.393868 0.210318 0.659206 110 117 121
0.391719 0.209382 0.658656 121 128 132
0.389887 0.209391 0.658462 174 181 185
0.401018 0.209705 0.661729 175 181 181
0.399183 0.209715 0.661534 121 127 127
0.397349 0.209724 0.661340 107 113 113
0.395515 0.209734 0.661146 112 118 118
0.393680 0.209743 0.660951 110 116 118
0.391846 0.209752 0.660757 160 166 168
0.390012 0.209762 0.660562 173 181 182
0.401157 0.210074 0.663836 161 167 167
0.399320 0.210084 0.663641 101 107 107
0.397161 0.209149 0.663085 110 116 118
0.395647 0.210102 0.663252 110 116 118
0.393493 0.209168 0.662696 120 126 128
0.391658 0.209177 0.662502 174 180 182
0.400969 0.209498 0.665584 136 142 144
0.399132 0.209508 0.665389 103 109 111
0.397295 0.209517 0.665194 111 118 122
0.395458 0.209526 0.664999 106 113 117
0.393621 0.209536 0.664805 144 151 155
0.391470 0.208602 0.664247 178 185 189
0.402947 0.209855 0.667893 174 180 180
0.401108 0.209864 0.667698 114 122 123
0.399268 0.209874 0.667503 104 112 113
0.397429 0.209883 0.667308 112 119 123
0.395270 0.208950 0.666747 106 113 117
0.393433 0.208960 0.666552 166 173 177
0.391596 0.208969 0.666358 173 180 184
0.403088 0.210220 0.670013 165 171 171
0.401246 0.210229 0.669817 98 109 109
0.399404 0.210238 0.669622 108 119 119
0.397240 0.209306 0.669058 107 114 118
0.395401 0.209316 0.668863 121 128 132
0.393561 0.209325 0.668668 175 180 185
0.403228 0.210583 0.672137 148 154 154
0.401384 0.210592 0.671942 98 109 109
0.399539 0.210601 0.671746 110 121 121
0.397373 0.209670 0.671179 103 110 114
0.395531 0.209680 0.670984 141 148 152
0.393689 0.209689 0.670789 173 180 184
0.403368 0.210944 0.674267 117 125 126
0.401521 0.210953 0.674071 105 115 118
0.399674 0.210963 0.673875 111 121 124
0.397826 0.210972 0.673679 107 117 120
0.395661 0.210042 0.673110 154 164 167
0.393816 0.210051 0.672914 171 178 182
0.405026 0.210355 0.676220 159 167 168
0.403507 0.211304 0.676401 104 112 113
0.401657 0.211313 0.676205 111 119 120
0.399808 0.211323 0.676009 109 117 118
0.397637 0.210393 0.675437 118 125 129
0.395790 0.210403 0.675241 166 173 177
0.405167 0.210714 0.678357 141 149 148
0.403318 0.210724 0.678161 100 108 107
0.401468 0.210733 0.677965 110 120 123
0.399618 0.210743 0.677769 105 115 118
0.397768 0.210752 0.677573 141 148 152
0.395918 0.210762 0.677377 169 176 180
0.404978 0.210134 0.680117 121 129 128
0.403128 0.210144 0.679921 106 114 113
0.401278 0.210153 0.679725 112 119 123
0.399428 0.210163 0.679529 109 116 120
0.397579 0.210172 0.679332 164 169 174
0.395729 0.210181 0.679136 168 173 178
0.406638 0.209545 0.682073 168 174 174
0.404788 0.209554 0.681877 104 112 111
0.402939 0.209564 0.681681 110 118 117
0.401089 0.209573 0.681485 105 112 116
0.399239 0.209583 0.681288 124 131 135
0.397389 0.209592 0.681092 170 176 178
0.406449 0.208965 0.683833 154 160 160
0.404599 0.208974 0.683637 98 109 109
0.402749 0.208984 0.683441 111 122 122
0.401224 0.209929 0.683631 110 117 121
0.399372 0.209938 0.683435 144 151 155
0.397519 0.209948 0.683238 176 179 182
0.406259 0.208385 0.685593 133 141 140
0.404739 0.209329 0.685786 100 111 111
0.402887 0.209339 0.685590 111 122 122
0.401034 0.209348 0.685393 110 117 121
0.399182 0.209358 0.685197 152 159 163
0.406402 0.208739 0.687745 117 125 124
0.404549 0.208748 0.687548 102 114 116
0.402697 0.208758 0.687352 108 120 122
0.400844 0.208767 0.687156 110 117 121
0.398992 0.208777 0.686959 163 170 174
0.408064 0.208149 0.689703 169 177 178
0.406212 0.208158 0.689507 110 118 119
0.404359 0.208167 0.689311 108 120 124
0.402507 0.208177 0.689114 107 119 123
0.400655 0.208186 0.688918 118 125 131
0.398802 0.208196 0.688721 167 174 180
0.407874 0.207568 0.691466 162 170 171
0.406354 0.208510 0.691666 102 110 111
0.404499 0.208519 0.691470 110 120 125
0.402644 0.208529 0.691273 107 117 122
0.400789 0.208538 0.691077 128 138 145
0.398934 0.208548 0.690880 166 176 183
0.408018 0.207919 0.693628 153 161 162
0.406163 0.207928 0.693431 100 108 109
0.404309 0.207938 0.693235 112 120 121
0.402454 0.207947 0.693038 103 111 112
0.400599 0.207956 0.692841 139 149 154
0.407828 0.207337 0.695393 132 140 139
0.405973 0.207346 0.695196 106 114 113
0.404118 0.207356 0.694999 113 121 122
0.400409 0.207375 0.694606 152 162 167
0.407972 0.207685 0.697562 113 121 122
0.406114 0.207695 0.697365 110 118 119
0.404257 0.207704 0.697168 113 121 122
0.402399 0.207714 0.696971 109 117 118
0.400541 0.207723 0.696774 162 169 175
0.409974 0.208023 0.699934 164 170 170
0.408114 0.208032 0.699737 105 113 112
0.406254 0.208042 0.699539 112 120 119
0.404394 0.208051 0.699342 109 117 118
0.402534 0.208061 0.699145 120 128 129
0.400674 0.208070 0.698948 170 177 183
0.409784 0.207439 0.701703 155 161 161
0.407924 0.207449 0.701506 103 111 110
0.406064 0.207458 0.701309 114 122 121
0.404204 0.207468 0.701112 106 113 117
0.402343 0.207477 0.700915 138 145 149
0.409928 0.207784 0.703886 143 149 149
0.408066 0.207793 0.703688 104 112 113
0.406203 0.207803 0.703491 111 119 120
0.404340 0.207812 0.703293 98 108 111
0.402478 0.207822 0.703096 146 156 159
0.410407 0.209053 0.706487 139 145 145
0.408539 0.209063 0.706289 104 112 113
0.406671 0.209072 0.706091 112 120 121
0.404804 0.209082 0.705893 99 106 110
0.402936 0.209091 0.705695 161 168 172
0.410550 0.209394 0.708682 125 131 131
0.408680 0.209403 0.708484 108 119 119
0.406809 0.209413 0.708285 111 122 122
0.404939 0.209422 0.708087 109 116 120
0.403069 0.209432 0.707889 166 173 177
0.410693 0.209732 0.710881 107 115 114
0.408820 0.209742 0.710683 111 122 122
0.406618 0.208826 0.710065 112 123 123
0.404747 0.208836 0.709866 119 126 130
0.402877 0.208845 0.709668 170 177 181
0.412711 0.210060 0.713284 163 171 170
0.410835 0.210069 0.713085 100 108 107
0.408959 0.210079 0.712886 111 122 122
0.407084 0.210088 0.712688 105 116 116
0.405208 0.210098 0.712489 126 134 135
0.403333 0.210108 0.712290 171 179 180
0.412855 0.210395 0.715493 147 155 154
0.410977 0.210405 0.715294 105 113 112
0.409098 0.210414 0.715095 110 121 121
0.407220 0.210424 0.714896 104 115 115
0.405342 0.210433 0.714697 138 146 147
0.412998 0.210729 0.717708 134 142 141
0.411118 0.210739 0.717508 103 111 110
0.409237 0.210748 0.717309 110 121 121
0.407356 0.210758 0.717110 101 112 112
0.405475 0.210767 0.716910 153 161 162
0.412806 0.210139 0.719497 127 135 136
0.410925 0.210149 0.719298 105 113 114
0.409044 0.210158 0.719098 110 118 119
0.407163 0.210168 0.718899 103 111 112
0.405283 0.210178 0.718700 162 168 170
0.412613 0.209550 0.721286 119 127 126
0.410732 0.209559 0.721087 107 115 114
0.408851 0.209569 0.720888 107 115 116
0.407299 0.210500 0.721120 105 113 114
0.405415 0.210509 0.720920 164 169 174
0.412756 0.209880 0.723511 114 122 121
0.410872 0.209890 0.723311 114 122 121
0.408989 0.209899 0.723111 109 117 118
0.407106 0.209909 0.722912 111 119 120
0.405547 0.210839 0.723146 161 168 172
0.412563 0.209290 0.725302 116 124 123
0.410679 0.209299 0.725103 114 122 121
0.408796 0.209309 0.724903 112 120 121
0.407240 0.210238 0.725140 119 127 128
0.405354 0.210248 0.724940 167 174 178
0.412370 0.208699 0.727094 114 122 121
0.410486 0.208709 0.726894 113 121 120
0.408933 0.209637 0.727134 112 120 121
0.407047 0.209647 0.726934 117 125 126
0.405161 0.209656 0.726734 162 169 173
0.412511 0.209026 0.729328 114 122 121
0.410625 0.209036 0.729128 112 120 119
0.408739 0.209046 0.728928 112 120 121
0.406853 0.209055 0.728728 114 122 123
0.404967 0.209065 0.728528 160 167 171
0.412318 0.208435 0.731122 116 124 123
0.410432 0.208445 0.730922 107 115 114
0.408546 0.208454 0.730722 102 110 111
0.406987 0.209381 0.730966 110 118 119
0.405098 0.209391 0.730766 163 170 174
0.412125 0.207844 0.732916 122 128 128
0.410239 0.207853 0.732716 106 112 112
0.408682 0.208779 0.732963 95 102 106
0.406793 0.208789 0.732763 105 112 116
0.404905 0.208798 0.732563 152 159 165
0.403337 0.209724 0.732808 170 177 183
0.412265 0.208168 0.735160 125 131 131
0.410377 0.208177 0.734960 105 111 111
0.408488 0.208187 0.734760 102 109 113
0.406600 0.208197 0.734559 99 106 110
0.405035 0.209122 0.734808 148 155 161
0.403143 0.209131 0.734607 163 170 176
0.412072 0.207576 0.736957 138 144 144
0.410183 0.207585 0.736757 107 113 113
0.408623 0.208510 0.737008 105 115 118
0.406732 0.208519 0.736807 98 108 111
0.404841 0.208529 0.736607 137 144 150
0.403270 0.209453 0.736857 162 169 175
0.412211 0.207897 0.739208 161 167 167
0.410320 0.207907 0.739007 106 112 112
0.408429 0.207917 0.738807 109 120 120
0.406538 0.207926 0.738606 107 118 118
0.404970 0.208850 0.738859 117 127 130
0.403076 0.208859 0.738659 157 167 170
0.401183 0.208869 0.738458 163 169 171
0.410457 0.208227 0.741263 114 120 120
0.408563 0.208237 0.741062 109 120 120
0.406669 0.208246 0.740862 110 121 121
0.404776 0.208256 0.740661 104 114 117
0.403202 0.209179 0.740916 138 148 151
0.401306 0.209188 0.740715 163 168 173
0.410263 0.207633 0.743065 142 148 148
0.408369 0.207643 0.742864 109 117 116
0.406475 0.207653 0.742663 113 121 120
0.404582 0.207662 0.742462 98 106 107
0.403008 0.208584 0.742720 113 121 122
0.401112 0.208594 0.742519 153 158 163
0.399215 0.208604 0.742318 154 159 164
0.410399 0.207951 0.745328 176 184 183
0.408502 0.207961 0.745127 114 122 121
0.406606 0.207970 0.744926 114 122 121
0.404710 0.207980 0.744725 104 110 112
0.402814 0.207990 0.744524 96 102 104
0.400917 0.207999 0.744323 117 123 125
0.399021 0.208009 0.744122 147 153 155
0.397437 0.208930 0.744380 161 169 170
0.408962 0.209187 0.747858 142 148 148
0.406736 0.208286 0.747193 113 119 119
0.404516 0.207385 0.746529 107 113 115
0.402619 0.207395 0.746328 92 98 100
0.400723 0.207405 0.746127 93 100 104
0.398827 0.207414 0.745926 113 120 124
0.396931 0.207424 0.745725 140 148 149
0.395034 0.207434 0.745524 155 163 164
0.393138 0.207443 0.745323 167 172 177
0.406866 0.208601 0.749466 142 145 146
0.404964 0.208610 0.749264 105 108 109
0.402744 0.207710 0.748597 100 103 104
0.400845 0.207720 0.748396 92 100 101
0.398633 0.206820 0.747730 86 94 95
0.396736 0.206829 0.747529 97 104 108
0.394840 0.206839 0.747328 134 141 145
0.392944 0.206849 0.747127 161 168 174
0.391048 0.206858 0.746926 161 168 174
0.405091 0.208923 0.751541 135 138 137
0.402868 0.208024 0.750871 106 109 108
0.400967 0.208034 0.750670 94 100 100
0.398752 0.207134 0.750001 87 93 93
0.396853 0.207144 0.749800 85 92 96
0.394646 0.206244 0.749132 96 103 107
0.392750 0.206254 0.748931 119 126 134
0.390853 0.206264 0.748730 139 146 154
0.388957 0.206273 0.748529 150 156 167
0.403310 0.209244 0.753621 138 141 140
0.401088 0.208346 0.752949 108 115 109
0.398871 0.207447 0.752277 97 104 98
0.396969 0.207457 0.752076 99 107 108
0.394760 0.206558 0.751405 90 98 99
0.392861 0.206568 0.751204 89 96 102
0.390659 0.205669 0.750534 103 110 116
0.388763 0.205679 0.750333 135 141 152
0.386867 0.205689 0.750132 156 162 173
0.401208 0.208656 0.755233 153 160 154
0.398989 0.207758 0.754558 113 120 114
0.396774 0.206861 0.753885 105 113 112
0.394873 0.206870 0.753683 95 103 102
0.392666 0.205972 0.753010 91 98 102
0.390465 0.205075 0.752338 88 95 99
0.388569 0.205084 0.752137 90 97 105
0.386672 0.205094 0.751936 107 114 122
0.384481 0.204196 0.751264 141 148 156
0.382880 0.205113 0.751534 154 161 169
0.399106 0.208068 0.756844 172 178 176
0.397200 0.208078 0.756642 133 141 140
0.394678 0.206274 0.755492 110 118 117
0.392777 0.206284 0.755290 100 108 109
0.390875 0.206293 0.755089 95 103 104
0.388374 0.204490 0.753941 96 103 107
0.386478 0.204499 0.753740 95 102 106
0.384582 0.204509 0.753539 96 103 111
0.382686 0.204519 0.753338 110 117 125
0.380789 0.204528 0.753137 135 142 150
0.378893 0.204538 0.752936 154 161 169
0.376997 0.204548 0.752735 163 170 176
0.395098 0.207490 0.758254 159 167 166
0.392887 0.206593 0.757576 124 135 133
0.390681 0.205697 0.756898 102 113 111
0.388779 0.205707 0.756696 98 108 111
0.386581 0.204811 0.756019 97 107 110
0.384388 0.203914 0.755343 97 107 112
0.382491 0.203924 0.755142 94 104 109
0.380595 0.203934 0.754941 95 105 110
0.378699 0.203943 0.754740 105 115 120
0.376803 0.203953 0.754539 135 142 150
0.374906 0.203963 0.754338 155 162 170
0.373289 0.204878 0.754610 161 168 172
0.392996 0.206902 0.759866 181 189 188
0.391089 0.206911 0.759664 153 161 160
0.388884 0.206016 0.758983 118 131 130
0.386683 0.205120 0.758304 99 112 111
0.384782 0.205130 0.758102 94 106 110
0.382589 0.204235 0.757423 96 108 112
0.380979 0.205149 0.757699 96 106 111
0.378791 0.204254 0.757020 94 104 109
0.376892 0.204264 0.756819 95 102 108
0.374993 0.204273 0.756618 114 121 127
0.373095 0.204283 0.756417 137 144 150
0.371472 0.205198 0.756691 152 159 165
0.369570 0.205208 0.756489 159 166 172
0.388988 0.206323 0.761275 174 185 185
0.387081 0.206333 0.761073 147 158 158
0.384881 0.205438 0.760391 109 120 120
0.382685 0.204544 0.759709 98 109 109
0.380784 0.204553 0.759508 99 106 110
0.378883 0.204563 0.759306 97 104 108
0.376981 0.204573 0.759105 91 96 101
0.375080 0.204582 0.758903 94 99 104
0.373178 0.204592 0.758702 99 104 111
0.371277 0.204602 0.758500 112 117 124
0.369376 0.204611 0.758298 133 140 146
0.367474 0.204621 0.758097 146 153 159
0.365841 0.205535 0.758373 154 164 169
0.385273 0.206648 0.763167 173 184 184
0.383073 0.205754 0.762483 150 161 161
0.381166 0.205764 0.762281 118 126 125
0.379259 0.205774 0.762079 106 114 113
0.377070 0.204880 0.761395 100 106 108
0.375166 0.204890 0.761193 101 107 109
0.373262 0.204899 0.760991 103 109 111
0.371358 0.204909 0.760789 101 107 109
0.369454 0.204919 0.760588 97 105 106
0.367550 0.204929 0.760386 106 114 115
0.365646 0.204938 0.760184 125 135 140
0.363742 0.204948 0.759982 150 160 165
0.362100 0.205861 0.760260 144 154 159
0.381547 0.206972 0.765063 176 184 183
0.379635 0.206982 0.764861 146 154 153
0.377441 0.206089 0.764174 117 123 123
0.375251 0.205196 0.763488 110 116 116
0.373344 0.205205 0.763286 110 116 114
0.371438 0.205215 0.763084 100 106 104
0.369531 0.205225 0.762882 97 105 104
0.367355 0.204332 0.762197 96 104 103
0.365451 0.204341 0.761995 90 100 103
0.363282 0.203448 0.761312 107 117 120
0.361380 0.203458 0.761110 118 128 133
0.359479 0.203467 0.760908 147 157 162
0.357578 0.203477 0.760707 155 162 168
0.377528 0.206392 0.766477 173 181 180
0.375616 0.206402 0.766274 140 148 147
0.373704 0.206411 0.766071 119 127 124
0.371518 0.205519 0.765383 102 110 107
0.369336 0.204627 0.764696 100 111 109
0.367429 0.204637 0.764494 96 107 105
0.365256 0.203744 0.763807 90 101 99
0.363087 0.202852 0.763121 88 99 97
0.361186 0.202862 0.762919 88 98 101
0.359284 0.202871 0.762717 103 113 116
0.357383 0.202881 0.762516 123 130 136
0.355481 0.202891 0.762314 139 146 152
0.353832 0.203802 0.762596 153 160 168
0.373786 0.206713 0.768378 170 178 177
0.371597 0.205822 0.767688 140 148 147
0.369685 0.205831 0.767485 115 126 124
0.367234 0.204039 0.766307 97 108 106
0.365328 0.204048 0.766105 91 102 100
0.363421 0.204058 0.765903 90 101 99
0.361515 0.204068 0.765701 96 107 107
0.359349 0.203176 0.765013 93 104 104
0.357445 0.203186 0.764811 94 104 109
0.355287 0.202294 0.764123 101 111 116
0.353637 0.203205 0.764407 117 126 136
0.351733 0.203215 0.764205 137 146 156
0.350075 0.204126 0.764488 147 156 166
0.369761 0.206132 0.769794 173 184 182
0.367577 0.205242 0.769101 146 157 155
0.365666 0.205251 0.768898 121 127 125
0.363490 0.204361 0.768206 110 116 114
0.361319 0.203470 0.767515 102 110 111
0.359413 0.203480 0.767313 103 111 112
0.357506 0.203490 0.767111 101 111 114
0.355600 0.203499 0.766909 97 107 110
0.353693 0.203509 0.766706 94 104 111
0.351786 0.203519 0.766504 94 104 111
0.349880 0.203528 0.766302 110 120 127
0.347973 0.203538 0.766100 125 135 142
0.346067 0.203548 0.765898 141 148 156
0.344160 0.203558 0.765696 153 160 168
0.366003 0.206451 0.771701 177 183 183
0.363822 0.205561 0.771006 160 166 166
0.361646 0.204672 0.770312 128 136 135
0.359735 0.204681 0.770109 111 119 118
0.357823 0.204691 0.769906 104 111 115
0.355658 0.203801 0.769213 103 110 114
0.353749 0.203811 0.769011 102 109 113
0.351591 0.202921 0.768318 100 107 111
0.349930 0.203830 0.768606 97 104 110
0.347778 0.202940 0.767914 93 100 106
0.345871 0.202950 0.767712 102 109 115
0.343965 0.202960 0.767510 114 121 127
0.342058 0.202969 0.767308 134 139 146
0.340152 0.202979 0.767105 146 151 158
0.362234 0.206768 0.773612 184 190 192
0.360056 0.205879 0.772915 169 175 177
0.358139 0.205889 0.772712 135 143 144
0.355969 0.205000 0.772016 113 121 122
0.353804 0.204111 0.771320 105 113 114
0.351892 0.204121 0.771117 104 112 113
0.349980 0.204131 0.770915 100 106 108
0.347826 0.203241 0.770220 100 106 108
0.345916 0.203251 0.770017 100 105 110
0.343770 0.202362 0.769324 97 102 107
0.341863 0.202372 0.769121 99 104 111
0.339956 0.202381 0.768919 107 112 119
0.338050 0.202391 0.768717 123 130 136
0.336143 0.202401 0.768515 137 144 150
0.334237 0.202411 0.768313 143 153 158
0.332553 0.203319 0.768601 154 164 169
0.358198 0.206186 0.775032 185 193 194
0.356279 0.206196 0.774828 177 185 186
0.354109 0.205308 0.774129 149 157 156
0.352192 0.205317 0.773926 121 129 128
0.350275 0.205327 0.773723 106 112 112
0.348115 0.204439 0.773025 101 107 107
0.345961 0.203551 0.772328 99 107 108
0.344049 0.203560 0.772125 97 105 106
0.342138 0.203570 0.771923 99 107 108
0.339993 0.202682 0.771227 96 104 105
0.338084 0.202691 0.771024 95 102 106
0.336175 0.202701 0.770822 104 111 115
0.334266 0.202711 0.770619 114 121 127
0.332357 0.202721 0.770417 128 135 141
0.330448 0.202730 0.770215 140 147 151
0.328756 0.203638 0.770504 152 159 163
0.354413 0.206501 0.776948 190 196 196
0.352491 0.206511 0.776745 185 191 191
0.350324 0.205623 0.776044 168 176 177
0.348404 0.205633 0.775840 145 153 154
0.346245 0.204746 0.775140 113 121 120
0.344328 0.204755 0.774937 104 112 111
0.342411 0.204765 0.774734 101 112 112
0.340030 0.202980 0.773539 100 111 111
0.338118 0.202990 0.773336 96 106 109
0.336207 0.203000 0.773133 93 103 106
0.334071 0.202112 0.772436 96 106 109
0.332161 0.202122 0.772233 97 107 110
0.330252 0.202132 0.772031 99 106 110
0.328343 0.202141 0.771829 117 124 128
0.326434 0.202151 0.771626 130 137 143
0.324736 0.203058 0.771917 140 147 153
0.322825 0.203068 0.771715 152 159 165
0.348450 0.205928 0.778166 186 192 194
0.346528 0.205938 0.777962 180 188 187
0.344369 0.205051 0.777259 156 164 163
0.342449 0.205061 0.777056 118 129 129
0.340298 0.204174 0.776354 107 118 118
0.338152 0.203287 0.775653 102 113 113
0.336011 0.202400 0.774952 100 111 111
0.334099 0.202410 0.774750 97 107 110
0.332187 0.202420 0.774547 97 107 110
0.330276 0.202430 0.774344 97 107 110
0.328364 0.202439 0.774142 91 101 104
0.326452 0.202449 0.773939 94 104 109
0.324329 0.201562 0.773240 104 114 119
0.322420 0.201572 0.773038 121 128 136
0.320511 0.201582 0.772835 135 142 150
0.318602 0.201591 0.772633 145 152 156
0.316894 0.202498 0.772926 152 159 163
0.342487 0.205355 0.779383 180 188 187
0.340333 0.204469 0.778679 167 175 174
0.338414 0.204478 0.778475 140 148 147
0.336268 0.203592 0.777771 120 128 127
0.334351 0.203602 0.777568 105 116 116
0.332213 0.202716 0.776865 102 113 113
0.330517 0.203622 0.777162 96 107 107
0.328384 0.202736 0.776459 93 104 104
0.326256 0.201850 0.775758 96 106 111
0.324345 0.201859 0.775555 96 106 111
0.322433 0.201869 0.775352 94 104 111
0.320521 0.201879 0.775150 97 107 114
0.318609 0.201889 0.774947 111 118 124
0.316698 0.201898 0.774744 118 125 131
0.314786 0.201908 0.774542 135 142 148
0.313070 0.202814 0.774836 146 153 159
0.311348 0.203719 0.775130 145 155 160
0.336750 0.205676 0.781103 180 188 187
0.334602 0.204791 0.780397 155 163 162
0.332459 0.203906 0.779691 130 138 137
0.330321 0.203021 0.778985 110 121 121
0.328404 0.203030 0.778782 104 115 115
0.326487 0.203040 0.778579 98 108 111
0.324570 0.203050 0.778376 96 106 109
0.322445 0.202165 0.777672 99 106 110
0.320531 0.202174 0.777469 97 104 108
0.318414 0.201289 0.776766 100 105 112
0.316702 0.202194 0.777063 99 104 111
0.314788 0.202204 0.776860 102 109 115
0.313069 0.203109 0.777157 114 121 127
0.311152 0.203118 0.776953 124 131 137
0.309425 0.204023 0.777249 139 146 152
0.307693 0.204928 0.777544 150 160 165
0.305771 0.204938 0.777340 157 167 172
0.330561 0.204208 0.781818 176 187 187
0.328639 0.204218 0.781614 148 159 159
0.326504 0.203333 0.780906 119 130 130
0.324584 0.203343 0.780703 111 122 122
0.322457 0.202459 0.779996 105 111 113
0.320540 0.202468 0.779793 100 106 108
0.318623 0.202478 0.779590 99 105 107
0.316706 0.202488 0.779387 100 106 108
0.314789 0.202498 0.779183 100 106 108
0.313067 0.203402 0.779482 94 100 102
0.311148 0.203412 0.779279 95 103 104
0.309418 0.204316 0.779576 96 104 105
0.307496 0.204326 0.779373 108 118 123
0.305759 0.205230 0.779670 122 132 137
0.303834 0.205239 0.779466 130 140 143
0.301910 0.205249 0.779262 143 153 156
0.299985 0.205259 0.779058 159 166 170
0.326520 0.203625 0.783239 176 184 185
0.324598 0.203635 0.783035 157 165 166
0.322676 0.203645 0.782831 142 150 151
0.320754 0.203654 0.782627 120 128 129
0.318832 0.203664 0.782424 109 117 116
0.316710 0.202780 0.781715 107 115 114
0.314790 0.202790 0.781512 106 112 112
0.313066 0.203693 0.781812 98 104 104
0.311144 0.203703 0.781609 96 102 102
0.309411 0.204607 0.781909 99 105 105
0.307486 0.204616 0.781705 95 103 104
0.305562 0.204626 0.781501 93 101 102
0.303637 0.204636 0.781297 95 102 106
0.301713 0.204646 0.781093 106 113 117
0.299788 0.204656 0.780889 121 128 132
0.297863 0.204665 0.780685 134 141 145
0.295939 0.204675 0.780481 149 156 160
0.294014 0.204685 0.780276 159 166 170
0.320762 0.203944 0.784964 176 184 185
0.318837 0.203954 0.784760 160 168 169
0.316912 0.203964 0.784556 140 148 149
0.314988 0.203974 0.784352 119 127 126
0.313063 0.203983 0.784148 103 111 110
0.311138 0.203993 0.783944 102 110 109
0.309214 0.204003 0.783740 100 108 107
0.307289 0.204013 0.783536 93 101 102
0.305365 0.204023 0.783332 96 104 105
0.303440 0.204032 0.783128 92 99 103
0.301515 0.204042 0.782924 93 100 104
0.299591 0.204052 0.782720 95 102 106
0.297666 0.204062 0.782516 97 104 108
0.295742 0.204072 0.782312 106 113 119
0.293817 0.204082 0.782107 119 126 132
0.291892 0.204091 0.781904 139 146 152
0.289804 0.203208 0.781196 152 159 165
0.287882 0.203218 0.780992 157 167 172
0.314790 0.203370 0.786183 176 184 183
0.312866 0.203380 0.785979 164 172 171
0.310941 0.203390 0.785775 147 155 154
0.309206 0.204291 0.786079 123 131 130
0.307278 0.204301 0.785875 103 114 114
0.305351 0.204311 0.785671 97 108 108
0.303424 0.204321 0.785466 103 113 116
0.301497 0.204331 0.785262 96 106 109
0.299570 0.204341 0.785058 97 107 110
0.297642 0.204350 0.784854 96 106 109
0.295544 0.203468 0.784143 97 104 108
0.293620 0.203478 0.783939 95 102 106
0.291695 0.203488 0.783735 96 103 109
0.289771 0.203498 0.783530 109 116 122
0.287685 0.202615 0.782821 123 133 138
0.285763 0.202625 0.782617 133 143 148
0.283841 0.202635 0.782413 150 160 167
0.311127 0.204568 0.788629 188 194 194
0.309197 0.204578 0.788424 183 189 189
0.307267 0.204588 0.788219 170 178 179
0.305337 0.204598 0.788015 154 162 163
0.303408 0.204608 0.787810 125 133 134
0.301299 0.203726 0.787096 109 117 118
0.299372 0.203736 0.786891 103 111 112
0.297445 0.203746 0.786687 102 110 111
0.295347 0.202865 0.785974 98 106 107
0.293423 0.202875 0.785770 96 104 105
0.291498 0.202884 0.785565 96 103 107
0.289573 0.202894 0.785362 96 103 107
0.287649 0.202904 0.785157 91 101 106
0.285566 0.202023 0.784446 95 105 110
0.283644 0.202032 0.784242 100 109 119
0.281722 0.202042 0.784038 115 124 134
0.279800 0.202052 0.783834 132 141 153
0.277878 0.202062 0.783631 148 157 169
0.303210 0.204003 0.789646 182 190 191
0.301280 0.204013 0.789442 170 178 179
0.299350 0.204022 0.789237 146 152 152
0.297248 0.203142 0.788521 127 133 133
0.295320 0.203152 0.788316 106 114 113
0.293225 0.202271 0.787601 103 111 110
0.291301 0.202281 0.787397 104 112 113
0.289376 0.202291 0.787193 99 107 108
0.287452 0.202301 0.786988 99 106 110
0.285527 0.202310 0.786784 100 107 111
0.283602 0.202320 0.786580 96 103 109
0.281678 0.202330 0.786376 96 103 109
0.279753 0.202340 0.786172 96 103 111
0.277681 0.201459 0.785459 107 114 122
0.275759 0.201469 0.785255 124 128 140
0.273837 0.201479 0.785052 140 144 156
0.272055 0.202379 0.785356 153 159 170
0.297050 0.202538 0.790354 183 191 190
0.295123 0.202547 0.790150 175 183 182
0.293028 0.201668 0.789432 150 158 157
0.291104 0.201677 0.789228 118 126 127
0.289179 0.201687 0.789024 107 115 116
0.287254 0.201697 0.788820 106 112 114
0.285330 0.201707 0.788616 101 107 109
0.283405 0.201717 0.788411 103 109 111
0.281481 0.201726 0.788207 104 110 112
0.279556 0.201736 0.788003 101 106 111
0.277631 0.201746 0.787799 100 105 110
0.275707 0.201756 0.787595 97 102 109
0.273782 0.201766 0.787391 98 103 110
0.271857 0.201776 0.787187 113 118 127
0.269933 0.201785 0.786983 127 132 141
0.268008 0.201795 0.786779 145 152 160
0.266084 0.201805 0.786575 155 162 170
0.290906 0.201074 0.791059 182 190 191
0.288982 0.201084 0.790855 174 182 183
0.287057 0.201094 0.790651 152 160 161
0.285133 0.201103 0.790447 127 135 136
0.283208 0.201113 0.790243 112 118 120
0.281283 0.201123 0.790038 106 112 114
0.279359 0.201133 0.789834 103 108 113
0.277434 0.201143 0.789630 101 106 111
0.275510 0.201152 0.789426 100 105 110
0.273585 0.201162 0.789222 97 102 107
0.271660 0.201172 0.789018 97 104 110
0.269736 0.201182 0.788814 95 102 108
0.267811 0.201192 0.788610 97 104 110
0.265886 0.201201 0.788406 105 112 118
0.263962 0.201211 0.788202 127 134 140
0.262037 0.201221 0.787998 142 149 155
0.260113 0.201231 0.787794 156 163 169
0.285092 0.201388 0.792795 188 194 194
0.283165 0.201398 0.792591 176 184 185
0.281238 0.201408 0.792387 152 160 161
0.279162 0.200529 0.791665 130 138 139
0.277237 0.200539 0.791461 109 117 118
0.275312 0.200549 0.791257 105 113 114
0.273388 0.200559 0.791053 105 113 114
0.271463 0.200569 0.790849 102 109 113
0.269538 0.200578 0.790645 99 106 110
0.267614 0.200588 0.790441 99 106 110
0.265689 0.200598 0.790237 97 104 108
0.263765 0.200608 0.790033 93 100 104
0.261840 0.200618 0.789829 97 104 108
0.259915 0.200627 0.789625 109 116 122
0.258111 0.201525 0.789935 125 132 138
0.256184 0.201535 0.789731 142 147 154
0.254257 0.201545 0.789526 155 160 167
0.279113 0.200813 0.794016 185 193 194
0.277186 0.200823 0.793812 177 185 186
0.275259 0.200833 0.793607 153 161 160
0.273332 0.200842 0.793403 120 128 127
0.271404 0.200852 0.793199 108 119 119
0.269477 0.200862 0.792994 101 112 112
0.267550 0.200872 0.792790 97 107 110
0.265492 0.199995 0.792068 97 107 110
0.263567 0.200004 0.791864 94 106 108
0.261643 0.200014 0.791660 94 106 108
0.259841 0.200911 0.791973 90 100 105
0.257914 0.200921 0.791768 91 101 106
0.255987 0.200931 0.791564 96 106 111
0.254060 0.200941 0.791360 109 119 124
0.252132 0.200951 0.791156 130 137 143
0.250315 0.201848 0.791466 146 153 159
0.248385 0.201858 0.791262 156 163 169
0.273275 0.201125 0.795757 181 188 192
0.271345 0.201135 0.795553 170 177 181
0.269415 0.201144 0.795348 152 159 163
0.267352 0.200268 0.794623 127 135 136
0.265425 0.200278 0.794419 112 120 121
0.263498 0.200287 0.794215 100 111 111
0.261571 0.200297 0.794011 100 111 111
0.259644 0.200307 0.793806 98 108 111
0.257717 0.200317 0.793602 97 107 110
0.255789 0.200327 0.793398 95 105 108
0.253862 0.200336 0.793193 94 104 107
0.251935 0.200346 0.792989 96 103 107
0.250118 0.201243 0.793302 106 113 117
0.248188 0.201253 0.793098 111 118 126
0.246363 0.202149 0.793410 128 135 143
0.244430 0.202159 0.793205 148 155 163
0.242498 0.202169 0.793001 156 163 171
0.267288 0.200549 0.796980 184 192 193
0.265358 0.200559 0.796775 176 184 185
0.263428 0.200569 0.796570 146 154 155
0.261498 0.200579 0.796366 127 135 136
0.259569 0.200588 0.796161 112 120 121
0.257639 0.200598 0.795957 104 112 113
0.255709 0.200608 0.795752 99 107 108
0.253779 0.200618 0.795547 100 108 109
0.251850 0.200628 0.795343 99 106 110
0.249920 0.200638 0.795138 97 104 108
0.247990 0.200647 0.794934 98 105 109
0.246060 0.200657 0.794729 95 102 106
0.244131 0.200667 0.794525 100 105 112
0.242300 0.201563 0.794839 111 116 123
0.240368 0.201573 0.794634 121 128 134
0.238435 0.201583 0.794429 137 144 150
0.236594 0.202478 0.794743 147 154 160
0.263358 0.200849 0.798931 187 195 194
0.261425 0.200858 0.798726 183 191 190
0.259371 0.199983 0.797997 173 181 182
0.257441 0.199993 0.797793 147 155 156
0.255511 0.200003 0.797588 124 130 132
0.253582 0.200013 0.797383 114 120 122
0.251652 0.200023 0.797179 112 118 120
0.249722 0.200033 0.796974 106 112 114
0.247792 0.200042 0.796770 103 109 111
0.245967 0.200937 0.797087 97 103 105
0.244034 0.200947 0.796882 94 99 104
0.242201 0.201842 0.797199 93 98 103
0.240266 0.201852 0.796994 91 96 101
0.238331 0.201862 0.796789 96 101 106
0.236487 0.202757 0.797104 106 111 118
0.234638 0.203652 0.797419 121 126 133
0.232698 0.203662 0.797213 133 138 143
0.230675 0.202786 0.796488 139 144 149
0.228818 0.203681 0.796802 152 159 163
0.226878 0.203691 0.796596 162 169 173
0.224938 0.203701 0.796391 142 149 153
0.257482 0.201156 0.800681 185 193 194
0.255547 0.201166 0.800476 181 186 191
0.253498 0.200292 0.799745 168 173 178
0.251566 0.200302 0.799540 139 147 146
0.249633 0.200312 0.799335 121 129 128
0.247807 0.201206 0.799655 109 117 118
0.245872 0.201216 0.799450 103 111 112
0.243938 0.201225 0.799245 108 114 116
0.242003 0.201235 0.799040 107 113 115
0.240164 0.202129 0.799358 102 109 113
0.238320 0.203023 0.799676 97 104 108
0.236380 0.203033 0.799471 96 103 109
0.234440 0.203043 0.799265 98 105 111
0.232499 0.203053 0.799059 97 102 107
0.230643 0.203947 0.799376 104 109 114
0.228700 0.203957 0.799170 117 122 127
0.226757 0.203967 0.798964 129 134 139
0.224739 0.203093 0.798236 112 119 123
0.222872 0.203987 0.798552 137 144 148
0.220859 0.203112 0.797825 157 164 170
0.251590 0.201463 0.802434 186 192 192
0.249653 0.201472 0.802229 184 190 190
0.247715 0.201482 0.802023 169 175 175
0.245881 0.202376 0.802345 145 151 151
0.243941 0.202385 0.802139 125 133 134
0.242001 0.202395 0.801933 107 115 116
0.240061 0.202405 0.801728 103 110 114
0.238214 0.203299 0.802048 106 113 117
0.236362 0.204192 0.802367 103 110 114
0.234505 0.205085 0.802686 98 105 109
0.232557 0.205095 0.802480 98 105 109
0.230609 0.205105 0.802273 95 102 106
0.228661 0.205115 0.802067 90 97 101
0.226636 0.204242 0.801336 90 97 101
0.224691 0.204252 0.801130 88 95 101
0.222745 0.204261 0.800924 100 107 113
0.220730 0.203388 0.800194 114 121 129
0.218720 0.202514 0.799465 124 131 139
0.216845 0.203408 0.799782 138 143 150
0.245889 0.203533 0.805249 184 190 190
0.243944 0.203542 0.805043 182 190 189
0.241999 0.203552 0.804837 171 179 178
0.240053 0.203562 0.804630 154 160 160
0.238201 0.204455 0.804953 126 132 132
0.236253 0.204465 0.804746 110 118 119
0.234393 0.205357 0.805067 107 115 116
0.232443 0.205367 0.804860 106 114 115
0.230492 0.205377 0.804654 105 113 114
0.228542 0.205387 0.804447 100 107 111
0.226592 0.205397 0.804240 96 103 107
0.224641 0.205407 0.804033 96 106 109
0.222618 0.204534 0.803301 97 107 110
0.220671 0.204544 0.803094 95 105 108
0.218656 0.203671 0.802362 93 103 106
0.216710 0.203681 0.802156 98 103 110
0.214765 0.203691 0.801950 108 113 120
0.212820 0.203701 0.801743 119 124 129
0.210818 0.202828 0.801013 132 137 142
0.208875 0.202838 0.800807 140 145 150
0.238094 0.204726 0.807336 184 192 193
0.236144 0.204736 0.807130 177 183 185
0.234368 0.206510 0.807983 165 171 173
0.232413 0.206519 0.807776 144 147 150
0.230457 0.206529 0.807569 126 129 132
0.228502 0.206539 0.807361 113 119 121
0.226469 0.205667 0.806625 111 117 119
0.224516 0.205677 0.806418 105 115 118
0.222491 0.204805 0.805682 101 111 114
0.220540 0.204815 0.805475 101 111 114
0.218523 0.203943 0.804741 100 110 113
0.216575 0.203953 0.804534 96 103 107
0.214628 0.203963 0.804328 97 104 108
0.212621 0.203091 0.803594 94 99 104
0.210675 0.203101 0.803388 100 105 110
0.208784 0.203993 0.803708 106 111 118
0.206836 0.204003 0.803502 110 115 122
0.204840 0.203131 0.802769 125 130 137
0.202894 0.203141 0.802563 136 141 148
0.200949 0.203151 0.802357 142 149 155
0.230339 0.206797 0.809961 187 190 193
0.228381 0.206807 0.809754 178 184 184
0.226423 0.206817 0.809546 157 163 163
0.224390 0.205946 0.808807 104 117 116
0.222435 0.205956 0.808600 128 141 140
0.220479 0.205966 0.808392 111 121 124
0.218390 0.204214 0.807124 109 119 122
0.216440 0.204224 0.806917 104 114 117
0.214489 0.204234 0.806711 104 114 117
0.212480 0.203362 0.805974 102 109 113
0.210532 0.203372 0.805768 96 103 107
0.208584 0.203382 0.805561 94 99 104
0.206637 0.203392 0.805355 92 97 102
0.204689 0.203402 0.805148 92 99 103
0.202741 0.203412 0.804942 93 100 104
0.200750 0.202541 0.804207 99 106 112
0.198804 0.202551 0.804001 106 113 119
0.196821 0.201679 0.803268 129 134 141
0.194878 0.201689 0.803062 133 138 145
0.192903 0.200818 0.802329 132 139 147
0.190962 0.200827 0.802123 145 152 160
0.224338 0.207094 0.811735 120 135 134
0.222377 0.207104 0.811527 170 185 184
0.220417 0.207114 0.811319 171 181 184
0.218390 0.206243 0.810579 153 163 166
0.216368 0.205373 0.809838 125 135 138
0.214412 0.205383 0.809631 109 119 122
0.212398 0.204512 0.808892 106 114 115
0.210445 0.204522 0.808685 107 115 116
0.208438 0.203652 0.807946 110 116 118
0.206488 0.203662 0.807739 105 111 113
0.204538 0.203672 0.807532 98 104 106
0.202541 0.202801 0.806795 94 100 102
0.200594 0.202811 0.806589 98 104 106
0.198646 0.202821 0.806382 96 102 104
0.196660 0.201950 0.805646 94 99 104
0.194715 0.201960 0.805439 96 101 106
0.192737 0.201090 0.804704 106 111 118
0.190764 0.200219 0.803969 118 123 130
0.188824 0.200229 0.803763 131 138 146
0.186884 0.200239 0.803558 146 153 161
0.184943 0.200249 0.803352 155 165 170
0.183023 0.201139 0.803674 164 174 179
0.212314 0.205659 0.811819 157 165 166
0.210356 0.205669 0.811611 139 147 148
0.208398 0.205679 0.811404 123 131 132
0.206389 0.204809 0.810662 109 117 118
0.204434 0.204819 0.810455 106 114 115
0.202433 0.203950 0.809714 104 112 113
0.200480 0.203960 0.809507 103 111 112
0.198486 0.203090 0.808768 102 110 111
0.196498 0.202220 0.808029 100 107 111
0.194551 0.202230 0.807822 96 103 107
0.192603 0.202240 0.807616 91 98 102
0.190625 0.201370 0.806878 92 99 103
0.188652 0.200500 0.806140 91 98 104
0.186710 0.200510 0.805934 98 105 111
0.184789 0.201400 0.806259 104 111 117
0.182824 0.200530 0.805522 107 114 120
0.180899 0.201420 0.805847 119 126 134
0.178953 0.201430 0.805640 132 139 147
0.177020 0.202320 0.805964 142 149 157
0.175082 0.203209 0.806287 159 166 174
0.173138 0.204099 0.806609 168 175 181
0.206340 0.206833 0.814131 173 184 184
0.204329 0.205964 0.813387 154 162 161
0.202323 0.205095 0.812644 134 142 141
0.200365 0.205105 0.812436 125 133 134
0.198367 0.204236 0.811694 112 120 121
0.196374 0.203367 0.810951 110 117 121
0.194386 0.202498 0.810210 105 112 116
0.192435 0.202508 0.810003 103 110 114
0.190455 0.201639 0.809262 100 107 111
0.188507 0.201649 0.809056 95 105 108
0.186560 0.201659 0.808849 94 104 107
0.184612 0.201669 0.808643 96 106 109
0.182664 0.201679 0.808436 93 103 106
0.180716 0.201689 0.808230 90 100 105
0.178768 0.201699 0.808023 91 101 106
0.176832 0.202588 0.808349 96 106 113
0.174882 0.202598 0.808142 105 115 122
0.172938 0.203487 0.808467 117 127 134
0.170989 0.204376 0.808791 128 138 145
0.169035 0.205265 0.809115 144 151 157
0.167076 0.205275 0.808907 155 162 168
0.165114 0.206164 0.809230 161 168 172
0.163154 0.206174 0.809022 168 175 179
0.200249 0.206247 0.815375 175 181 183
0.198246 0.205379 0.814629 161 167 169
0.196248 0.204511 0.813884 141 148 152
0.194290 0.204521 0.813676 124 131 135
0.192300 0.203653 0.812932 109 119 122
0.190315 0.202785 0.812188 103 113 116
0.188335 0.201917 0.811445 100 110 113
0.186384 0.201926 0.811238 100 110 113
0.184434 0.201936 0.811032 102 113 113
0.182464 0.201068 0.810290 101 112 112
0.180517 0.201078 0.810083 98 109 109
0.178583 0.201966 0.810411 97 108 108
0.176632 0.201976 0.810205 95 105 108
0.174682 0.201986 0.809998 94 104 107
0.172744 0.203753 0.810859 88 100 104
0.170788 0.203763 0.810652 89 101 105
0.168834 0.204651 0.810978 93 103 110
0.166876 0.204661 0.810770 95 105 112
0.164914 0.205549 0.811095 104 114 119
0.162953 0.205559 0.810888 119 129 134
0.160992 0.205569 0.810680 130 140 143
0.159031 0.205579 0.810472 140 150 153
0.157071 0.205589 0.810264 150 157 161
0.155110 0.205599 0.810056 156 163 167
0.192163 0.204794 0.815871 173 181 182
0.190173 0.203927 0.815124 161 169 170
0.188188 0.203060 0.814378 146 154 155
0.186233 0.203070 0.814171 131 139 140
0.184256 0.202202 0.813425 117 125 124
0.182284 0.201335 0.812680 105 113 112
0.180333 0.201345 0.812474 101 112 110
0.178383 0.201355 0.812267 102 113 111
0.176444 0.202242 0.812597 101 112 112
0.174491 0.202252 0.812390 104 115 115
0.172544 0.203139 0.812719 98 108 111
0.170588 0.203149 0.812512 96 106 109
0.168632 0.203159 0.812305 96 106 109
0.166675 0.204047 0.812633 93 103 106
0.164713 0.204934 0.812961 93 103 106
0.162752 0.204944 0.812753 93 103 106
0.160791 0.204954 0.812545 90 100 103
0.158830 0.204964 0.812337 93 103 106
0.156870 0.204974 0.812129 96 106 109
0.154909 0.204984 0.811922 103 113 116
0.152968 0.204117 0.811180 112 119 123
0.151010 0.204127 0.810972 121 128 132
0.149052 0.204137 0.810765 132 139 145
0.147094 0.204147 0.810557 141 148 154
0.145135 0.204157 0.810350 151 161 166
0.143177 0.204166 0.810142 157 167 172
0.184098 0.203343 0.816364 183 191 190
0.182140 0.203353 0.816157 170 178 177
0.180166 0.202486 0.815409 150 161 157
0.178210 0.202496 0.815202 130 141 137
0.176254 0.202506 0.814995 117 125 124
0.174299 0.202516 0.814787 111 119 118
0.172343 0.202526 0.814580 111 119 118
0.170391 0.203413 0.814911 113 121 120
0.168433 0.203423 0.814704 111 119 120
0.166475 0.203433 0.814496 110 118 119
0.164512 0.204319 0.814826 106 114 115
0.162551 0.204329 0.814618 103 111 112
0.160590 0.204339 0.814411 100 108 109
0.158630 0.204349 0.814203 99 107 108
0.156669 0.204359 0.813995 99 107 108
0.154708 0.204369 0.813787 100 108 109
0.152747 0.204379 0.813579 96 104 105
0.150809 0.203513 0.812835 95 103 104
0.148851 0.203523 0.812628 96 103 107
0.146893 0.203533 0.812420 98 105 109
0.144935 0.203542 0.812213 107 114 120
0.142977 0.203552 0.812005 116 123 129
0.141019 0.203562 0.811797 121 128 134
0.139060 0.203572 0.811590 134 141 147
0.137102 0.203582 0.811382 137 144 150
0.135144 0.203592 0.811175 150 157 163
0.133140 0.204479 0.811501 160 167 173
0.131179 0.204489 0.811293 164 171 177
0.176075 0.203645 0.817939 183 191 190
0.174115 0.203655 0.817731 177 185 184
0.172154 0.203665 0.817523 167 175 176
0.170193 0.203675 0.817315 150 158 159
0.168232 0.203685 0.817107 131 139 140
0.166272 0.203695 0.816900 117 125 126
0.164311 0.203705 0.816692 111 119 120
0.162343 0.204590 0.817024 109 117 118
0.160379 0.204600 0.816816 110 118 117
0.158416 0.204610 0.816607 105 113 112
0.156453 0.204620 0.816399 109 117 116
0.154507 0.203754 0.815652 104 112 111
0.152546 0.203764 0.815444 105 113 114
0.150586 0.203775 0.815237 107 115 116
0.148651 0.202909 0.814491 103 111 112
0.146692 0.202919 0.814283 97 105 106
0.144734 0.202928 0.814076 100 107 111
0.142776 0.202938 0.813868 102 109 113
0.140818 0.202948 0.813660 98 105 109
0.138821 0.203834 0.813990 95 102 106
0.136902 0.202968 0.813245 96 103 107
0.134944 0.202978 0.813038 98 105 109
0.132939 0.203864 0.813366 102 109 115
0.130978 0.203874 0.813158 110 117 123
0.129018 0.203884 0.812950 124 129 136
0.127057 0.203894 0.812742 133 138 145
0.125096 0.203904 0.812534 143 147 159
0.123136 0.203914 0.812327 155 159 171
0.121175 0.203924 0.812119 160 167 175
0.119150 0.204811 0.812445 164 171 179
0.166068 0.203955 0.819308 185 193 194
0.164105 0.203965 0.819100 176 184 183
0.162142 0.203975 0.818892 170 178 177
0.160178 0.203985 0.818683 159 167 166
0.158215 0.203995 0.818475 148 156 155
0.156252 0.204005 0.818267 131 142 140
0.154288 0.204015 0.818059 116 127 125
0.152325 0.204025 0.817851 109 120 120
0.150385 0.203160 0.817102 107 118 118
0.148424 0.203170 0.816894 107 115 116
0.146463 0.203180 0.816686 107 115 116
0.144503 0.203190 0.816478 106 114 115
0.142575 0.202324 0.815731 105 113 114
0.140581 0.203210 0.816063 101 111 114
0.138621 0.203220 0.815855 103 113 116
0.136660 0.203230 0.815647 97 107 110
0.134699 0.203240 0.815439 95 105 108
0.132738 0.203250 0.815231 95 105 108
0.130778 0.203260 0.815023 97 107 110
0.128817 0.203270 0.814816 97 107 110
0.126856 0.203280 0.814608 96 106 109
0.124895 0.203290 0.814400 100 107 113
0.122935 0.203300 0.814192 104 111 117
0.120974 0.203310 0.813984 109 116 124
0.118949 0.204195 0.814313 117 124 132
0.116985 0.204205 0.814105 125 132 140
0.115022 0.204215 0.813896 133 140 148
0.113059 0.204225 0.813688 140 147 153
0.111095 0.204235 0.813480 145 152 158
0.109132 0.204245 0.813272 153 160 166
0.156035 0.204264 0.820679 184 192 191
0.154087 0.203399 0.819927 182 190 189
0.152124 0.203409 0.819719 171 182 180
0.150161 0.203419 0.819511 157 168 166
0.148197 0.203429 0.819303 146 152 152
0.146234 0.203439 0.819094 132 138 138
0.144271 0.203449 0.818886 120 128 129
0.142307 0.203459 0.818678 114 122 123
0.140344 0.203469 0.818470 106 118 120
0.138381 0.203479 0.818262 101 113 115
0.136417 0.203489 0.818054 102 114 116
0.134454 0.203499 0.817846 104 116 118
0.132491 0.203509 0.817637 104 114 117
0.130527 0.203519 0.817429 103 113 116
0.128564 0.203529 0.817221 103 113 116
0.126601 0.203539 0.817013 102 112 115
0.124638 0.203549 0.816805 100 110 113
0.122734 0.202685 0.816057 100 110 113
0.120711 0.203569 0.816389 93 103 108
0.118748 0.203579 0.816181 91 101 106
0.116784 0.203589 0.815972 93 103 108
0.114821 0.203599 0.815764 95 105 110
0.112858 0.203609 0.815556 97 104 112
0.110894 0.203619 0.815348 98 105 113
0.108931 0.203629 0.815140 107 114 122
0.106968 0.203639 0.814932 113 120 128
0.105004 0.203649 0.814724 120 127 135
0.103041 0.203659 0.814515 128 135 143
0.101078 0.203669 0.814307 139 146 152
0.099114 0.203679 0.814099 142 149 155
0.097151 0.203689 0.813891 146 153 157
0.095188 0.203699 0.813683 149 156 160
0.144038 0.203707 0.821299 183 189 191
0.142072 0.203717 0.821091 176 182 184
0.140143 0.202854 0.820338 169 177 178
0.138180 0.202864 0.820130 156 164 165
0.136216 0.202874 0.819922 142 150 151
0.134253 0.202884 0.819713 127 135 136
0.132290 0.202894 0.819505 114 120 120
0.130326 0.202904 0.819297 111 117 117
0.128363 0.202914 0.819089 104 117 116
0.126400 0.202924 0.818881 103 116 115
0.124436 0.202934 0.818673 107 119 121
0.122473 0.202944 0.818465 107 119 121
0.120510 0.202954 0.818256 104 116 118
0.118546 0.202964 0.818048 99 111 113
0.116516 0.203847 0.818381 103 110 114
0.114620 0.202984 0.817632 103 110 114
0.112657 0.202994 0.817424 98 105 111
0.110693 0.203004 0.817216 96 103 109
0.108730 0.203014 0.817008 100 107 113
0.106767 0.203024 0.816800 99 106 112
0.104803 0.203034 0.816592 93 100 106
0.102754 0.203918 0.816922 93 100 106
0.100788 0.203928 0.816714 96 103 107
0.098913 0.203064 0.815967 99 106 110
0.096950 0.203074 0.815759 105 112 116
0.094987 0.203084 0.815551 109 116 120
0.093023 0.203094 0.815343 115 125 130
0.090959 0.203978 0.815672 123 133 138
0.088993 0.203988 0.815464 125 135 142
0.087027 0.203998 0.815255 132 142 149
0.085061 0.204008 0.815047 139 146 152
0.083095 0.204018 0.814838 149 156 162
0.081130 0.204028 0.814630 151 156 161
0.079164 0.204038 0.814422 155 160 165
0.134007 0.203141 0.822127 185 191 193
0.132041 0.203151 0.821919 184 190 190
0.130075 0.203161 0.821710 176 182 182
0.128109 0.203171 0.821502 166 174 175
0.126144 0.203181 0.821294 152 160 161
0.124178 0.203191 0.821085 140 150 153
0.122212 0.203201 0.820877 136 146 149
0.120246 0.203211 0.820668 126 132 134
0.118280 0.203221 0.820460 113 119 121
0.116314 0.203231 0.820252 114 117 120
0.114348 0.203241 0.820043 109 112 115
0.112382 0.203251 0.819835 106 114 115
0.110416 0.203261 0.819626 107 115 116
0.108451 0.203271 0.819418 104 111 115
0.106485 0.203281 0.819210 105 112 116
0.104519 0.203291 0.819001 103 111 112
0.102553 0.203301 0.818793 100 108 109
0.100587 0.203311 0.818584 99 105 105
0.098621 0.203321 0.818376 103 109 109
0.096655 0.203331 0.818168 100 106 106
0.094689 0.203341 0.817959 99 105 105
0.092723 0.203351 0.817751 97 104 108
0.090758 0.203361 0.817542 97 104 108
0.088792 0.203371 0.817334 100 107 113
0.086826 0.203381 0.817126 104 111 117
0.084860 0.203391 0.816917 106 113 119
0.082894 0.203401 0.816709 113 120 126
0.080928 0.203411 0.816500 119 126 132
0.078845 0.204295 0.816830 124 131 137
0.076877 0.204305 0.816622 131 138 144
0.075030 0.203442 0.815875 134 141 147
0.073065 0.203452 0.815667 141 148 154
0.071099 0.203462 0.815458 138 145 151
0.069133 0.203472 0.815250 140 147 153
0.067167 0.203482 0.815042 144 151 157
0.121950 0.203457 0.823294 184 192 193
0.119982 0.203467 0.823085 183 191 192
0.118013 0.203477 0.822877 183 191 192
0.116045 0.203487 0.822668 176 182 184
0.114076 0.203497 0.822459 161 167 169
0.112108 0.203507 0.822250 142 150 151
0.110215 0.202645 0.821497 126 134 135
0.108249 0.202655 0.821288 120 128 127
0.106283 0.202665 0.821080 114 122 121
0.104317 0.202675 0.820871 114 117 116
0.102351 0.202685 0.820663 109 112 111
0.100386 0.202695 0.820455 109 112 111
0.098420 0.202705 0.820246 109 112 111
0.096454 0.202715 0.820038 106 112 110
0.094488 0.202725 0.819829 107 113 111
0.092522 0.202735 0.819621 105 111 111
0.090556 0.202745 0.819413 105 111 111
0.088590 0.202755 0.819204 104 110 110
0.086624 0.202765 0.818996 105 111 111
0.084658 0.202775 0.818787 103 109 111
0.082581 0.203657 0.819120 101 107 109
0.080612 0.203667 0.818912 101 106 111
0.078644 0.203677 0.818703 103 108 113
0.076675 0.203687 0.818494 100 105 110
0.074707 0.203697 0.818286 104 109 114
0.072738 0.203707 0.818077 111 116 121
0.070770 0.203718 0.817868 115 120 125
0.068801 0.203728 0.817660 121 128 132
0.066965 0.202865 0.816912 124 131 135
0.065000 0.202875 0.816703 133 140 144
0.063034 0.202885 0.816495 135 142 146
0.061068 0.202895 0.816287 135 142 146
0.059102 0.202905 0.816078 139 146 150
0.056990 0.203788 0.816408 136 146 149
0.055022 0.203798 0.816199 138 148 151
0.053054 0.203808 0.815990 138 149 149
0.051085 0.203818 0.815781 139 150 150
0.048961 0.204700 0.816109 142 153 153
0.046990 0.204710 0.815901 143 154 154
0.045019 0.204721 0.815692 146 156 159
0.043048 0.204731 0.815483 147 157 160
0.107890 0.203781 0.824253 183 189 189
0.105919 0.203791 0.824044 178 184 184
0.103948 0.203801 0.823835 171 177 175
0.101977 0.203811 0.823626 164 170 168
0.100006 0.203821 0.823417 153 161 158
0.098127 0.202960 0.822663 139 147 144
0.096064 0.203841 0.822999 121 129 128
0.094093 0.203851 0.822791 111 119 118
0.092221 0.202990 0.822037 110 118 115
0.090253 0.203000 0.821828 107 115 112
0.088284 0.203010 0.821619 107 115 112
0.086316 0.203020 0.821410 111 119 116
0.084347 0.203030 0.821202 109 117 116
0.082267 0.203912 0.821537 105 113 112
0.080296 0.203922 0.821328 104 112 113
0.078325 0.203932 0.821119 105 113 114
0.076354 0.203942 0.820910 103 110 114
0.074382 0.203952 0.820701 99 106 110
0.072537 0.203090 0.819950 99 105 107
0.070568 0.203100 0.819741 99 105 107
0.068600 0.203110 0.819532 97 103 105
0.066631 0.203120 0.819324 98 104 106
0.064663 0.203130 0.819115 100 105 110
0.062694 0.203140 0.818906 104 109 114
0.060726 0.203150 0.818698 108 114 116
0.058757 0.203160 0.818489 115 121 123
0.056789 0.203171 0.818280 122 128 130
0.054820 0.203181 0.818072 129 135 137
0.052701 0.204062 0.818403 133 139 141
0.050730 0.204072 0.818194 131 137 139
0.048603 0.204954 0.818524 130 138 139
0.046629 0.204964 0.818315 137 145 146
0.044655 0.204974 0.818105 133 143 146
0.042682 0.204984 0.817896 135 145 148
0.040708 0.204994 0.817687 133 143 148
0.038735 0.205004 0.817478 133 143 148
0.036589 0.205886 0.817806 135 145 152
0.034613 0.205896 0.817596 131 141 148
0.032637 0.205907 0.817387 131 141 148
0.030481 0.206788 0.817714 135 145 152
0.028503 0.206799 0.817504 130 140 147
0.026339 0.207681 0.817831 129 139 146
0.024171 0.208563 0.818156 129 139 146
0.022187 0.208573 0.817946 129 139 146
0.019819 0.210327 0.818806 126 136 141
0.017635 0.211209 0.819130 133 143 148
0.095768 0.204094 0.825423 182 190 189
0.093794 0.204104 0.825214 180 188 187
0.091820 0.204114 0.825004 170 178 177
0.089847 0.204124 0.824795 160 168 167
0.087873 0.204134 0.824586 149 157 156
0.085900 0.204144 0.824377 135 143 142
0.083926 0.204154 0.824167 121 132 132
0.081952 0.204164 0.823958 108 119 119
0.079979 0.204174 0.823749 103 114 114
0.078005 0.204184 0.823540 102 113 113
0.076031 0.204194 0.823331 103 111 112
0.074058 0.204204 0.823121 100 108 109
0.072084 0.204215 0.822912 103 111 110
0.070110 0.204225 0.822703 102 110 109
0.068137 0.204235 0.822494 101 107 105
0.066296 0.203374 0.821740 103 109 107
0.064325 0.203384 0.821531 103 111 112
0.062354 0.203394 0.821323 104 112 113
0.060383 0.203404 0.821114 99 106 110
0.058412 0.203414 0.820905 93 100 104
0.056441 0.203424 0.820696 96 104 105
0.054321 0.204305 0.821029 97 105 106
0.052348 0.204315 0.820820 96 104 105
0.050220 0.205196 0.821152 96 104 105
0.048244 0.205206 0.820943 98 106 107
0.046268 0.205216 0.820733 99 107 108
0.044130 0.206097 0.821065 104 111 115
0.042316 0.205236 0.820314 107 114 118
0.040173 0.206118 0.820645 107 114 118
0.038194 0.206128 0.820436 110 117 121
0.036215 0.206138 0.820226 107 114 120
0.034236 0.206148 0.820016 106 113 119
0.032081 0.207029 0.820346 103 113 118
0.029920 0.207910 0.820675 101 111 116
0.027936 0.207920 0.820464 98 108 113
0.025952 0.207930 0.820254 101 111 116
0.023780 0.208812 0.820582 93 103 108
0.021604 0.209693 0.820910 90 100 105
0.019422 0.210574 0.821236 93 100 106
0.017236 0.211455 0.821563 91 98 104
0.015044 0.212337 0.821888 105 110 115
0.013047 0.212347 0.821677 141 146 151
0.079546 0.205295 0.826723 172 183 183
0.077685 0.204435 0.825966 159 170 170
0.075709 0.204446 0.825756 152 160 157
0.073732 0.204456 0.825547 139 147 144
0.071756 0.204466 0.825337 127 133 131
0.069780 0.204476 0.825128 120 126 124
0.067804 0.204486 0.824918 111 119 116
0.065961 0.203626 0.824162 104 112 109
0.063987 0.203636 0.823953 100 111 109
0.062014 0.203646 0.823744 101 112 110
0.060040 0.203656 0.823534 102 113 113
0.057923 0.204536 0.823871 102 113 113
0.055947 0.204546 0.823661 101 112 112
0.053673 0.206297 0.824541 100 111 111
0.051540 0.207177 0.824876 97 105 106
0.049556 0.207187 0.824665 99 107 108
0.047572 0.207197 0.824455 98 106 107
0.045588 0.207207 0.824245 98 106 107
0.043604 0.207217 0.824034 95 105 108
0.041620 0.207227 0.823824 96 106 109
0.039636 0.207237 0.823614 94 104 107
0.037652 0.207248 0.823404 94 104 107
0.035668 0.207258 0.823193 94 104 107
0.033684 0.207268 0.822983 91 101 104
0.031523 0.208148 0.823314 88 100 102
0.029536 0.208158 0.823104 94 106 108
0.027550 0.208168 0.822893 92 106 110
0.025563 0.208179 0.822683 94 108 112
0.023389 0.209059 0.823013 93 107 111
0.021210 0.209939 0.823342 93 107 111
0.019026 0.210820 0.823671 95 107 111
0.016836 0.211700 0.824000 94 106 110
0.014839 0.211711 0.823788 92 97 102
0.012642 0.212591 0.824116 114 119 124
0.069321 0.205595 0.828107 178 186 183
0.067339 0.205605 0.827897 174 182 181
0.065358 0.205615 0.827687 167 175 174
0.063513 0.204756 0.826928 158 169 167
0.061534 0.204766 0.826718 147 158 156
0.059555 0.204776 0.826508 134 142 141
0.057432 0.205655 0.826846 124 132 131
0.055304 0.206535 0.827184 112 120 117
0.053320 0.206545 0.826974 110 118 115
0.051185 0.207424 0.827310 106 114 111
0.049198 0.207434 0.827100 105 113 110
0.047212 0.207444 0.826889 104 112 111
0.045066 0.208324 0.827225 103 111 110
0.043077 0.208334 0.827014 102 109 113
0.041087 0.208344 0.826803 102 109 113
0.039098 0.208354 0.826592 98 108 111
0.037109 0.208364 0.826381 101 111 114
0.035120 0.208375 0.826170 101 113 115
0.033131 0.208385 0.825959 102 114 116
0.030964 0.209264 0.826293 99 111 113
0.029153 0.208405 0.825538 97 109 111
0.026981 0.209284 0.825871 95 109 111
0.024989 0.209295 0.825660 95 109 111
0.022998 0.209305 0.825448 95 109 111
0.020816 0.210184 0.825780 95 109 111
0.018628 0.211064 0.826111 94 108 110
0.016631 0.211074 0.825900 93 107 109
0.014436 0.211954 0.826230 98 106 107
0.012236 0.212834 0.826560 112 120 121
0.054661 0.208518 0.830721 180 188 185
0.052669 0.208528 0.830510 178 186 183
0.050677 0.208538 0.830299 173 181 178
0.048686 0.208548 0.830088 166 174 171
0.046694 0.208558 0.829877 162 170 169
0.044702 0.208569 0.829666 163 171 170
0.042710 0.208579 0.829455 145 153 154
0.040719 0.208589 0.829243 140 148 149
0.038727 0.208599 0.829032 135 143 142
0.036565 0.209478 0.829369 132 140 139
0.034744 0.208619 0.828610 131 142 140
0.032577 0.209498 0.828946 126 137 135
0.030583 0.209508 0.828734 128 139 137
0.028588 0.209518 0.828523 129 140 138
0.026594 0.209529 0.828312 125 138 135
0.024414 0.210407 0.828646 127 140 137
0.022417 0.210418 0.828434 129 142 139
0.020230 0.211296 0.828768 129 142 139
0.018230 0.211307 0.828556 136 149 148
0.016231 0.211317 0.828344 136 149 148
0.014033 0.212196 0.828677 149 157 158
