ply
format ascii 1.0
element vertex 1851
property float x
property float y
property float z
property uchar red
property uchar green
property uchar blue
end_header
-0.165037 -0.125306 0.667000 129 140 140
-0.163307 -0.125306 0.667000 129 139 142
-0.168751 -0.123758 0.668000 150 156 158
-0.167018 -0.123758 0.668000 91 102 102
-0.165284 -0.123758 0.668000 86 97 97
-0.163551 -0.123758 0.668000 93 103 106
-0.161576 -0.123573 0.667000 122 132 135
-0.170739 -0.122206 0.669000 158 163 168
-0.169003 -0.122206 0.669000 98 103 108
-0.167018 -0.122023 0.668000 89 96 102
-0.165284 -0.122023 0.668000 96 103 109
-0.163551 -0.122023 0.668000 89 99 104
-0.161818 -0.122023 0.668000 97 107 112
-0.170739 -0.120468 0.669000 102 109 115
-0.169003 -0.120468 0.669000 83 90 96
-0.167268 -0.120468 0.669000 94 104 109
-0.165284 -0.120288 0.668000 101 111 116
-0.163551 -0.120288 0.668000 104 114 119
-0.161818 -0.120288 0.668000 124 134 139
-0.172732 -0.118907 0.670000 117 125 126
-0.170994 -0.118907 0.670000 89 96 100
-0.169003 -0.118730 0.669000 97 104 108
-0.167268 -0.118730 0.669000 103 110 116
-0.165532 -0.118730 0.669000 107 114 120
-0.163796 -0.118730 0.669000 126 133 139
-0.162061 -0.118730 0.669000 168 175 181
-0.174731 -0.117342 0.671000 127 134 138
-0.172990 -0.117342 0.671000 86 93 97
-0.170994 -0.117167 0.670000 96 103 107
-0.169256 -0.117167 0.670000 104 111 115
-0.167518 -0.117167 0.670000 106 113 119
-0.165779 -0.117167 0.670000 118 125 131
-0.163796 -0.116992 0.669000 167 177 182
-0.176735 -0.115771 0.672000 141 149 150
-0.174991 -0.115771 0.672000 89 96 100
-0.172990 -0.115598 0.671000 91 98 102
-0.171249 -0.115598 0.671000 99 106 110
-0.169508 -0.115598 0.671000 111 118 122
-0.167518 -0.115426 0.670000 118 125 131
-0.165779 -0.115426 0.670000 164 171 177
-0.176998 -0.114195 0.673000 104 112 113
-0.174991 -0.114025 0.672000 85 92 96
-0.172990 -0.113855 0.671000 102 109 113
-0.171249 -0.113855 0.671000 111 118 122
-0.169508 -0.113855 0.671000 111 118 122
-0.167768 -0.113855 0.671000 152 159 163
-0.178744 -0.112446 0.673000 107 114 118
-0.176998 -0.112446 0.673000 88 95 99
-0.175252 -0.112446 0.673000 100 107 111
-0.173248 -0.112279 0.672000 113 120 124
-0.171504 -0.112279 0.672000 109 116 120
-0.169508 -0.112112 0.671000 141 148 152
-0.180490 -0.110698 0.673000 131 137 139
-0.179009 -0.110862 0.674000 89 96 100
-0.177261 -0.110862 0.674000 92 99 103
-0.175252 -0.110698 0.673000 111 118 122
-0.173506 -0.110698 0.673000 111 118 122
-0.171760 -0.110698 0.673000 132 139 143
-0.182507 -0.109112 0.674000 145 153 154
-0.180758 -0.109112 0.674000 93 101 102
-0.179009 -0.109112 0.674000 97 105 106
-0.177261 -0.109112 0.674000 104 112 113
-0.175512 -0.109112 0.674000 111 118 122
-0.173506 -0.108950 0.673000 127 134 138
-0.171760 -0.108950 0.673000 164 171 175
-0.182507 -0.107361 0.674000 103 111 112
-0.180758 -0.107361 0.674000 88 96 97
-0.179009 -0.107361 0.674000 99 106 110
-0.177261 -0.107361 0.674000 106 113 117
-0.175512 -0.107361 0.674000 112 119 123
-0.173764 -0.107361 0.674000 153 160 164
-0.184255 -0.105610 0.674000 127 133 135
-0.182507 -0.105610 0.674000 91 98 102
-0.181026 -0.105766 0.675000 99 106 110
-0.179275 -0.105766 0.675000 106 113 117
-0.177524 -0.105766 0.675000 109 116 120
-0.175773 -0.105766 0.675000 149 156 160
-0.174021 -0.105766 0.675000 170 177 181
-0.186280 -0.104013 0.675000 142 150 151
-0.184529 -0.104013 0.675000 96 104 105
-0.182777 -0.104013 0.675000 92 99 103
-0.181026 -0.104013 0.675000 107 114 118
-0.179275 -0.104013 0.675000 104 114 117
-0.177524 -0.104013 0.675000 132 142 145
-0.175773 -0.104013 0.675000 171 178 182
-0.186280 -0.102259 0.675000 106 114 115
-0.184529 -0.102259 0.675000 96 104 105
-0.182777 -0.102259 0.675000 102 109 113
-0.181026 -0.102259 0.675000 112 119 123
-0.179275 -0.102259 0.675000 122 132 135
-0.177524 -0.102259 0.675000 162 172 175
-0.188310 -0.100655 0.676000 133 141 142
-0.186556 -0.100655 0.676000 93 101 102
-0.184802 -0.100655 0.676000 99 107 108
-0.183048 -0.100655 0.676000 108 113 118
-0.181294 -0.100655 0.676000 117 122 127
-0.179541 -0.100655 0.676000 145 150 155
-0.177787 -0.100655 0.676000 163 168 173
-0.190063 -0.098899 0.676000 153 161 162
-0.188310 -0.098899 0.676000 98 106 107
-0.186556 -0.098899 0.676000 95 103 104
-0.184802 -0.098899 0.676000 109 117 118
-0.183048 -0.098899 0.676000 115 120 125
-0.181294 -0.098899 0.676000 128 133 138
-0.179541 -0.098899 0.676000 164 169 174
-0.190063 -0.097142 0.676000 107 115 116
-0.188588 -0.097286 0.677000 97 105 106
-0.186832 -0.097286 0.677000 104 112 113
-0.185075 -0.097286 0.677000 113 121 122
-0.183319 -0.097286 0.677000 120 125 132
-0.181563 -0.097286 0.677000 151 156 163
-0.192101 -0.095527 0.677000 147 155 154
-0.190345 -0.095527 0.677000 92 100 99
-0.188588 -0.095527 0.677000 104 112 111
-0.186832 -0.095527 0.677000 109 117 118
-0.185075 -0.095527 0.677000 113 121 122
-0.183319 -0.095527 0.677000 135 140 147
-0.181563 -0.095527 0.677000 168 173 180
-0.192385 -0.093907 0.678000 106 112 112
-0.190626 -0.093907 0.678000 97 105 104
-0.188867 -0.093907 0.678000 110 118 117
-0.187108 -0.093907 0.678000 111 119 120
-0.185349 -0.093907 0.678000 117 125 126
-0.183590 -0.093907 0.678000 167 174 180
-0.194144 -0.092146 0.678000 127 133 133
-0.192385 -0.092146 0.678000 96 102 102
-0.190626 -0.092146 0.678000 103 111 112
-0.188867 -0.092146 0.678000 112 120 121
-0.187108 -0.092146 0.678000 113 121 122
-0.185349 -0.092146 0.678000 150 158 159
-0.195903 -0.090384 0.678000 157 160 161
-0.194144 -0.090384 0.678000 99 105 105
-0.192385 -0.090384 0.678000 101 107 107
-0.190626 -0.090384 0.678000 107 115 116
-0.188867 -0.090384 0.678000 106 114 115
-0.187108 -0.090384 0.678000 134 142 143
-0.185349 -0.090384 0.678000 174 182 183
-0.196192 -0.088754 0.679000 124 127 128
-0.194144 -0.088623 0.678000 93 101 102
-0.192385 -0.088623 0.678000 106 114 115
-0.190626 -0.088623 0.678000 112 119 123
-0.188867 -0.088623 0.678000 113 120 124
-0.187108 -0.088623 0.678000 163 170 174
-0.197953 -0.086990 0.679000 151 154 155
-0.196192 -0.086990 0.679000 96 99 100
-0.194430 -0.086990 0.679000 103 109 111
-0.192669 -0.086990 0.679000 110 116 118
-0.190907 -0.086990 0.679000 105 115 118
-0.188867 -0.086862 0.678000 145 155 158
-0.200009 -0.085352 0.680000 171 174 177
-0.198245 -0.085352 0.680000 115 121 123
-0.196481 -0.085352 0.680000 90 96 98
-0.194430 -0.085226 0.679000 106 113 117
-0.192669 -0.085226 0.679000 104 111 115
-0.190907 -0.085226 0.679000 124 134 137
-0.189145 -0.085226 0.679000 167 177 180
-0.200009 -0.083585 0.680000 146 152 154
-0.198245 -0.083585 0.680000 98 103 108
-0.196481 -0.083585 0.680000 101 106 111
-0.194716 -0.083585 0.680000 111 118 122
-0.192952 -0.083585 0.680000 111 118 122
-0.190907 -0.083462 0.679000 153 164 164
-0.201773 -0.081818 0.680000 152 159 163
-0.200303 -0.081939 0.681000 109 116 120
-0.198245 -0.081818 0.680000 97 104 110
-0.196481 -0.081818 0.680000 110 117 123
-0.194716 -0.081818 0.680000 111 118 122
-0.192952 -0.081818 0.680000 137 144 148
-0.190907 -0.081698 0.679000 173 181 182
-0.202070 -0.080170 0.681000 117 127 132
-0.200597 -0.080287 0.682000 93 103 108
-0.198536 -0.080170 0.681000 98 108 113
-0.196770 -0.080170 0.681000 109 119 124
-0.194716 -0.080052 0.680000 110 117 121
-0.192952 -0.080052 0.680000 155 162 166
-0.191188 -0.080052 0.680000 157 164 168
-0.204136 -0.078516 0.682000 153 159 161
-0.202367 -0.078516 0.682000 96 106 111
-0.200597 -0.078516 0.682000 93 103 108
-0.198828 -0.078516 0.682000 108 120 124
-0.196770 -0.078401 0.681000 106 118 122
-0.195003 -0.078401 0.681000 131 141 146
-0.192952 -0.078285 0.680000 162 172 177
-0.204435 -0.076857 0.683000 126 133 137
-0.202663 -0.076857 0.683000 91 101 106
-0.200597 -0.076744 0.682000 103 113 118
-0.198828 -0.076744 0.682000 108 120 124
-0.197059 -0.076744 0.682000 114 126 130
-0.195003 -0.076631 0.681000 157 167 174
-0.193236 -0.076631 0.681000 160 170 177
-0.206207 -0.075082 0.683000 160 168 169
-0.204435 -0.075082 0.683000 99 107 108
-0.202663 -0.075082 0.683000 98 108 111
-0.200891 -0.075082 0.683000 108 118 121
-0.199119 -0.075082 0.683000 104 114 119
-0.197059 -0.074972 0.682000 131 141 146
-0.195289 -0.074972 0.682000 166 176 183
-0.206811 -0.073523 0.685000 140 147 151
-0.204735 -0.073415 0.684000 93 100 104
-0.202960 -0.073415 0.684000 106 113 119
-0.200891 -0.073308 0.683000 109 116 122
-0.199119 -0.073308 0.683000 116 123 129
-0.197348 -0.073308 0.683000 160 167 173
-0.195289 -0.073201 0.682000 166 173 179
-0.208893 -0.071848 0.686000 161 169 170
-0.207113 -0.071848 0.686000 105 112 116
-0.205034 -0.071743 0.685000 99 106 110
-0.203257 -0.071743 0.685000 105 112 118
-0.201186 -0.071638 0.684000 106 113 119
-0.199119 -0.071534 0.683000 139 146 152
-0.197348 -0.071534 0.683000 168 175 181
-0.208893 -0.070066 0.686000 133 139 141
-0.207113 -0.070066 0.686000 95 102 106
-0.205333 -0.070066 0.686000 104 111 115
-0.203257 -0.069964 0.685000 107 114 118
-0.201186 -0.069861 0.684000 113 120 124
-0.199411 -0.069861 0.684000 166 173 179
-0.210980 -0.068383 0.687000 168 174 176
-0.209197 -0.068383 0.687000 105 111 113
-0.207415 -0.068383 0.687000 97 104 108
-0.205333 -0.068284 0.686000 106 113 117
-0.203554 -0.068284 0.686000 109 116 122
-0.201480 -0.068184 0.685000 139 146 152
-0.199411 -0.068084 0.684000 174 181 187
-0.211287 -0.066695 0.688000 138 144 144
-0.209502 -0.066695 0.688000 94 100 100
-0.207415 -0.066598 0.687000 103 111 112
-0.205633 -0.066598 0.687000 107 115 116
-0.203554 -0.066501 0.686000 112 122 127
-0.201774 -0.066501 0.686000 164 174 179
-0.213381 -0.065002 0.689000 167 170 169
-0.211287 -0.064908 0.688000 110 116 116
-0.209502 -0.064908 0.688000 100 106 106
-0.207717 -0.064908 0.688000 112 119 123
-0.205633 -0.064814 0.687000 107 114 118
-0.203850 -0.064814 0.687000 144 154 159
-0.201774 -0.064719 0.686000 169 179 184
-0.213381 -0.063212 0.689000 141 144 145
-0.211594 -0.063212 0.689000 98 104 106
-0.209806 -0.063212 0.689000 107 113 115
-0.207717 -0.063121 0.688000 110 117 121
-0.205932 -0.063121 0.688000 105 112 116
-0.204147 -0.063121 0.688000 166 173 177
-0.215169 -0.061423 0.689000 162 168 168
-0.213381 -0.061423 0.689000 101 107 107
-0.211594 -0.061423 0.689000 105 110 115
-0.209806 -0.061423 0.689000 111 116 121
-0.208019 -0.061423 0.689000 102 109 113
-0.206231 -0.061423 0.689000 134 141 145
-0.204147 -0.061333 0.688000 174 181 185
-0.215169 -0.059633 0.689000 136 142 144
-0.213381 -0.059633 0.689000 96 102 104
-0.211594 -0.059633 0.689000 107 112 117
-0.209806 -0.059633 0.689000 110 115 120
-0.208019 -0.059633 0.689000 109 116 120
-0.206231 -0.059633 0.689000 164 171 175
-0.216957 -0.057843 0.689000 161 167 169
-0.215169 -0.057843 0.689000 106 111 116
-0.213381 -0.057843 0.689000 101 106 111
-0.211901 -0.057927 0.690000 112 117 122
-0.210111 -0.057927 0.690000 107 112 117
-0.208019 -0.057843 0.689000 133 140 144
-0.206231 -0.057843 0.689000 174 181 185
-0.217271 -0.056134 0.690000 136 142 142
-0.215481 -0.056134 0.690000 97 103 105
-0.213691 -0.056134 0.690000 106 112 114
-0.211901 -0.056134 0.690000 108 113 118
-0.210111 -0.056134 0.690000 115 120 125
-0.208321 -0.056134 0.690000 167 174 178
-0.219062 -0.054342 0.690000 162 168 168
-0.217271 -0.054342 0.690000 106 112 112
-0.215481 -0.054342 0.690000 100 106 108
-0.213691 -0.054342 0.690000 108 114 116
-0.211901 -0.054342 0.690000 110 115 120
-0.210111 -0.054342 0.690000 145 150 155
-0.208321 -0.054342 0.690000 174 179 184
-0.219062 -0.052549 0.690000 135 143 144
-0.217271 -0.052549 0.690000 95 103 104
-0.215481 -0.052549 0.690000 106 111 116
-0.213691 -0.052549 0.690000 107 112 117
-0.211901 -0.052549 0.690000 121 126 131
-0.210111 -0.052549 0.690000 171 176 181
-0.220852 -0.050757 0.690000 167 175 174
-0.219062 -0.050757 0.690000 105 113 114
-0.217271 -0.050757 0.690000 100 108 109
-0.215481 -0.050757 0.690000 110 117 121
-0.213691 -0.050757 0.690000 111 118 122
-0.211901 -0.050757 0.690000 147 152 157
-0.210415 -0.050830 0.691000 172 177 182
-0.220852 -0.048964 0.690000 140 148 147
-0.219062 -0.048964 0.690000 94 105 105
-0.217586 -0.049035 0.691000 101 112 112
-0.215794 -0.049035 0.691000 109 116 120
-0.214001 -0.049035 0.691000 114 121 125
-0.212208 -0.049035 0.691000 167 174 178
-0.222642 -0.047172 0.690000 162 170 169
-0.220852 -0.047172 0.690000 113 121 120
-0.219379 -0.047240 0.691000 97 107 110
-0.217586 -0.047240 0.691000 110 120 123
-0.215794 -0.047240 0.691000 109 116 120
-0.214001 -0.047240 0.691000 140 147 151
-0.212208 -0.047240 0.691000 169 176 180
-0.222965 -0.045445 0.691000 137 145 146
-0.221172 -0.045445 0.691000 97 105 106
-0.219379 -0.045445 0.691000 105 115 118
-0.217586 -0.045445 0.691000 114 124 127
-0.215794 -0.045445 0.691000 117 124 128
-0.214001 -0.045445 0.691000 157 164 168
-0.224757 -0.043650 0.691000 162 168 168
-0.222965 -0.043650 0.691000 109 117 118
-0.221172 -0.043650 0.691000 102 110 111
-0.219379 -0.043650 0.691000 109 119 124
-0.217586 -0.043650 0.691000 109 119 124
-0.215794 -0.043650 0.691000 141 148 152
-0.214311 -0.043713 0.692000 164 171 175
-0.225083 -0.041915 0.692000 134 142 141
-0.222965 -0.041855 0.691000 94 105 105
-0.221492 -0.041915 0.692000 108 119 119
-0.219697 -0.041915 0.692000 111 121 126
-0.217901 -0.041915 0.692000 110 120 125
-0.216106 -0.041915 0.692000 160 167 171
-0.227206 -0.040176 0.693000 163 171 172
-0.225083 -0.040118 0.692000 109 117 118
-0.223287 -0.040118 0.692000 103 113 116
-0.221492 -0.040118 0.692000 110 120 123
-0.219697 -0.040118 0.692000 109 119 122
-0.218216 -0.040176 0.693000 136 146 149
-0.227206 -0.038375 0.693000 139 149 152
-0.225408 -0.038375 0.693000 93 103 106
-0.223610 -0.038375 0.693000 103 113 116
-0.221812 -0.038375 0.693000 104 114 117
-0.220014 -0.038375 0.693000 119 129 134
-0.218216 -0.038375 0.693000 160 170 175
-0.227534 -0.036628 0.694000 115 126 126
-0.225733 -0.036628 0.694000 97 108 108
-0.223610 -0.036575 0.693000 109 119 122
-0.221812 -0.036575 0.693000 105 115 118
-0.220332 -0.036628 0.694000 144 154 159
-0.218531 -0.036628 0.694000 162 172 177
-0.229995 -0.034925 0.696000 161 169 168
-0.227861 -0.034875 0.695000 95 106 106
-0.225733 -0.034825 0.694000 105 116 116
-0.223933 -0.034825 0.694000 110 120 123
-0.222132 -0.034825 0.694000 109 119 122
-0.220649 -0.034875 0.695000 166 173 179
-0.231801 -0.033117 0.696000 165 171 171
-0.229995 -0.033117 0.696000 132 138 138
-0.228189 -0.033117 0.696000 96 104 105
-0.226384 -0.033117 0.696000 112 120 121
-0.224578 -0.033117 0.696000 109 119 122
-0.222772 -0.033117 0.696000 128 138 141
-0.220966 -0.033117 0.696000 170 177 181
-0.232467 -0.031399 0.698000 152 160 159
-0.230325 -0.031354 0.697000 105 113 112
-0.228517 -0.031354 0.697000 106 114 115
-0.226709 -0.031354 0.697000 114 122 123
-0.224901 -0.031354 0.697000 112 119 123
-0.223092 -0.031354 0.697000 156 163 167
-0.234278 -0.029586 0.698000 172 178 176
-0.232467 -0.029586 0.698000 127 135 132
-0.230656 -0.029586 0.698000 99 107 104
-0.228845 -0.029586 0.698000 112 120 119
-0.227034 -0.029586 0.698000 112 120 119
-0.225223 -0.029586 0.698000 128 134 136
-0.223412 -0.029586 0.698000 170 176 178
-0.234613 -0.027812 0.699000 157 163 161
-0.232800 -0.027812 0.699000 106 112 110
-0.230986 -0.027812 0.699000 110 116 114
-0.229173 -0.027812 0.699000 113 121 120
-0.227359 -0.027812 0.699000 110 118 117
-0.225546 -0.027812 0.699000 155 161 161
-0.234613 -0.025996 0.699000 127 133 133
-0.232800 -0.025996 0.699000 100 108 105
-0.230986 -0.025996 0.699000 113 121 118
-0.229173 -0.025996 0.699000 111 117 117
-0.227359 -0.025996 0.699000 125 131 131
-0.225869 -0.026034 0.700000 173 176 177
-0.236765 -0.024215 0.700000 164 172 171
-0.234949 -0.024215 0.700000 109 117 116
-0.233133 -0.024215 0.700000 106 114 113
-0.231317 -0.024215 0.700000 112 120 119
-0.229501 -0.024215 0.700000 103 109 111
-0.227685 -0.024215 0.700000 149 155 157
-0.225869 -0.024215 0.700000 171 174 175
-0.236765 -0.022397 0.700000 135 143 144
-0.234949 -0.022397 0.700000 97 105 106
-0.233133 -0.022397 0.700000 110 118 119
-0.231317 -0.022397 0.700000 105 113 114
-0.229501 -0.022397 0.700000 124 130 132
-0.228010 -0.022429 0.701000 174 180 182
-0.238581 -0.020578 0.700000 167 173 175
-0.236765 -0.020578 0.700000 105 113 114
-0.235285 -0.020608 0.701000 102 110 111
-0.233466 -0.020608 0.701000 112 120 121
-0.231978 -0.020637 0.702000 103 111 112
-0.230156 -0.020637 0.702000 153 159 161
-0.228335 -0.020637 0.702000 171 177 179
-0.237103 -0.018787 0.701000 96 104 103
-0.235620 -0.018813 0.702000 106 114 113
-0.233799 -0.018813 0.702000 110 118 119
-0.231978 -0.018813 0.702000 111 119 120
-0.230156 -0.018813 0.702000 172 175 178
-0.240741 -0.016965 0.701000 170 178 179
-0.238922 -0.016965 0.701000 127 135 136
-0.237441 -0.016990 0.702000 97 105 106
-0.235620 -0.016990 0.702000 114 122 123
-0.234132 -0.017014 0.703000 110 116 118
-0.232308 -0.017014 0.703000 143 149 151
-0.230484 -0.017014 0.703000 171 177 179
-0.241084 -0.015166 0.702000 153 164 164
-0.239263 -0.015166 0.702000 100 111 111
-0.237441 -0.015166 0.702000 105 116 116
-0.235956 -0.015188 0.703000 107 118 118
-0.234132 -0.015188 0.703000 106 113 117
-0.232308 -0.015188 0.703000 166 173 177
-0.243251 -0.013361 0.703000 168 176 175
-0.241427 -0.013361 0.703000 125 136 136
-0.239604 -0.013361 0.703000 97 108 108
-0.237780 -0.013361 0.703000 109 119 122
-0.235956 -0.013361 0.703000 100 110 113
-0.234132 -0.013361 0.703000 126 133 137
-0.243251 -0.011535 0.703000 161 169 168
-0.241427 -0.011535 0.703000 103 116 115
-0.239604 -0.011535 0.703000 102 115 114
-0.237780 -0.011535 0.703000 110 120 123
-0.235956 -0.011535 0.703000 103 113 116
-0.234132 -0.011535 0.703000 162 169 173
-0.245075 -0.009709 0.703000 159 170 170
-0.243251 -0.009709 0.703000 119 130 130
-0.241771 -0.009723 0.704000 96 109 108
-0.239604 -0.009709 0.703000 108 121 120
-0.237780 -0.009709 0.703000 110 121 121
-0.235956 -0.009709 0.703000 125 136 136
-0.234132 -0.009709 0.703000 171 179 180
-0.245424 -0.007894 0.704000 150 160 163
-0.243597 -0.007894 0.704000 98 108 111
-0.241771 -0.007894 0.704000 102 115 114
-0.239944 -0.007894 0.704000 110 123 122
-0.238118 -0.007894 0.704000 112 123 123
-0.236291 -0.007894 0.704000 146 157 157
-0.247250 -0.006065 0.704000 174 182 183
-0.245772 -0.006073 0.705000 132 142 145
-0.243943 -0.006073 0.705000 95 105 108
-0.242114 -0.006073 0.705000 108 120 122
-0.240285 -0.006073 0.705000 104 116 118
-0.238118 -0.006065 0.704000 128 136 137
-0.236291 -0.006065 0.704000 169 177 178
-0.247601 -0.004242 0.705000 167 175 176
-0.245772 -0.004242 0.705000 110 120 123
-0.243943 -0.004242 0.705000 103 113 116
-0.242114 -0.004242 0.705000 108 120 124
-0.240285 -0.004242 0.705000 106 118 122
-0.238456 -0.004242 0.705000 156 164 165
-0.247953 -0.002414 0.706000 153 161 162
-0.246121 -0.002414 0.706000 95 105 108
-0.244289 -0.002414 0.706000 107 117 120
-0.242458 -0.002414 0.706000 105 115 120
-0.240626 -0.002414 0.706000 119 129 134
-0.238456 -0.002411 0.705000 170 177 181
-0.249784 -0.000580 0.706000 170 178 179
-0.248304 -0.000581 0.707000 124 132 133
-0.246470 -0.000581 0.707000 98 108 111
-0.244635 -0.000581 0.707000 109 119 122
-0.242801 -0.000581 0.707000 100 110 113
-0.240626 -0.000580 0.706000 140 150 153
-0.238794 -0.000580 0.706000 174 181 185
-0.250138 0.001256 0.707000 150 158 159
-0.248655 0.001258 0.708000 105 113 114
-0.246470 0.001256 0.707000 109 116 120
-0.244981 0.001258 0.708000 110 117 121
-0.243145 0.001258 0.708000 112 119 123
-0.240967 0.001256 0.707000 171 178 182
-0.252329 0.003097 0.708000 167 173 173
-0.250492 0.003097 0.708000 128 136 137
-0.249006 0.003101 0.709000 105 113 114
-0.246818 0.003097 0.708000 112 119 123
-0.245327 0.003101 0.709000 104 111 115
-0.243145 0.003097 0.708000 141 148 154
-0.241308 0.003097 0.708000 173 180 186
-0.253042 0.004950 0.710000 154 160 160
-0.251199 0.004950 0.710000 106 114 115
-0.249357 0.004950 0.710000 107 115 116
-0.247515 0.004950 0.710000 112 119 123
-0.245673 0.004950 0.710000 109 116 120
-0.243488 0.004943 0.709000 163 170 176
-0.253042 0.006795 0.710000 140 146 146
-0.251199 0.006795 0.710000 103 109 109
-0.249357 0.006795 0.710000 113 119 119
-0.247864 0.006804 0.711000 110 117 121
-0.245673 0.006795 0.710000 121 128 132
-0.243831 0.006795 0.710000 174 181 185
-0.255243 0.008651 0.711000 175 181 181
-0.253398 0.008651 0.711000 121 127 127
-0.251553 0.008651 0.711000 107 113 113
-0.249709 0.008651 0.711000 112 118 118
-0.247864 0.008651 0.711000 110 116 118
-0.246019 0.008651 0.711000 160 166 168
-0.244175 0.008651 0.711000 173 181 182
-0.255602 0.010513 0.712000 161 167 167
-0.253754 0.010513 0.712000 101 107 107
-0.251553 0.010498 0.711000 110 116 118
-0.250060 0.010513 0.712000 110 116 118
-0.247864 0.010498 0.711000 120 126 128
-0.246019 0.010498 0.711000 174 180 182
-0.255602 0.012363 0.712000 136 142 144
-0.253754 0.012363 0.712000 103 109 111
-0.251907 0.012363 0.712000 111 118 122
-0.250060 0.012363 0.712000 106 113 117
-0.248213 0.012363 0.712000 144 151 155
-0.246019 0.012345 0.711000 178 185 189
-0.257810 0.014232 0.713000 174 180 180
-0.255961 0.014232 0.713000 114 122 123
-0.254111 0.014232 0.713000 104 112 113
-0.252261 0.014232 0.713000 112 119 123
-0.250060 0.014212 0.712000 106 113 117
-0.248213 0.014212 0.712000 166 173 177
-0.246365 0.014212 0.712000 173 180 184
-0.258172 0.016107 0.714000 165 171 171
-0.256319 0.016107 0.714000 98 109 109
-0.254467 0.016107 0.714000 108 119 119
-0.252261 0.016085 0.713000 107 114 118
-0.250411 0.016085 0.713000 121 128 132
-0.248561 0.016085 0.713000 175 180 185
-0.258533 0.017987 0.715000 148 154 154
-0.256678 0.017987 0.715000 98 109 109
-0.254824 0.017987 0.715000 110 121 121
-0.252615 0.017962 0.714000 103 110 114
-0.250762 0.017962 0.714000 141 148 152
-0.248910 0.017962 0.714000 173 180 184
-0.258895 0.019872 0.716000 117 125 126
-0.257037 0.019872 0.716000 105 115 118
-0.255180 0.019872 0.716000 111 121 124
-0.253322 0.019872 0.716000 107 117 120
-0.251114 0.019845 0.715000 154 164 167
-0.249259 0.019845 0.715000 171 178 182
-0.260753 0.021732 0.716000 159 167 168
-0.259257 0.021763 0.717000 104 112 113
-0.257396 0.021763 0.717000 111 119 120
-0.255536 0.021763 0.717000 109 117 118
-0.253322 0.021732 0.716000 118 125 129
-0.251465 0.021732 0.716000 166 173 177
-0.261117 0.023625 0.717000 141 149 148
-0.259257 0.023625 0.717000 100 108 107
-0.257396 0.023625 0.717000 110 120 123
-0.255536 0.023625 0.717000 105 115 118
-0.253676 0.023625 0.717000 141 148 152
-0.251816 0.023625 0.717000 169 176 180
-0.261117 0.025488 0.717000 121 129 128
-0.259257 0.025488 0.717000 106 114 113
-0.257396 0.025488 0.717000 112 119 123
-0.255536 0.025488 0.717000 109 116 120
-0.253676 0.025488 0.717000 164 169 174
-0.251816 0.025488 0.717000 168 173 178
-0.262977 0.027351 0.717000 168 174 174
-0.261117 0.027351 0.717000 104 112 111
-0.259257 0.027351 0.717000 110 118 117
-0.257396 0.027351 0.717000 105 112 116
-0.255536 0.027351 0.717000 124 131 135
-0.253676 0.027351 0.717000 170 176 178
-0.262977 0.029213 0.717000 154 160 160
-0.261117 0.029213 0.717000 98 109 109
-0.259257 0.029213 0.717000 111 122 122
-0.257755 0.029254 0.718000 110 117 121
-0.255893 0.029254 0.718000 144 151 155
-0.254030 0.029254 0.718000 176 179 182
-0.262977 0.031076 0.717000 133 141 140
-0.261481 0.031119 0.718000 100 111 111
-0.259618 0.031119 0.718000 111 122 122
-0.257755 0.031119 0.718000 110 117 121
-0.255893 0.031119 0.718000 152 159 163
-0.263344 0.032985 0.718000 117 125 124
-0.261481 0.032985 0.718000 102 114 116
-0.259618 0.032985 0.718000 108 120 122
-0.257755 0.032985 0.718000 110 117 121
-0.255893 0.032985 0.718000 163 170 174
-0.265207 0.034850 0.718000 169 177 178
-0.263344 0.034850 0.718000 110 118 119
-0.261481 0.034850 0.718000 108 120 124
-0.259618 0.034850 0.718000 107 119 123
-0.257755 0.034850 0.718000 118 125 131
-0.255893 0.034850 0.718000 167 174 180
-0.265207 0.036715 0.718000 162 170 171
-0.263711 0.036766 0.719000 102 110 111
-0.261845 0.036766 0.719000 110 120 125
-0.259980 0.036766 0.719000 107 117 122
-0.258114 0.036766 0.719000 128 138 145
-0.256249 0.036766 0.719000 166 176 183
-0.265576 0.038634 0.719000 153 161 162
-0.263711 0.038634 0.719000 100 108 109
-0.261845 0.038634 0.719000 112 120 121
-0.259980 0.038634 0.719000 103 111 112
-0.258114 0.038634 0.719000 139 149 154
-0.265576 0.040502 0.719000 132 140 139
-0.263711 0.040502 0.719000 106 114 113
-0.261845 0.040502 0.719000 113 121 122
-0.258114 0.040502 0.719000 152 162 167
-0.265945 0.042429 0.720000 113 121 122
-0.264077 0.042429 0.720000 110 118 119
-0.262209 0.042429 0.720000 113 121 122
-0.260341 0.042429 0.720000 109 117 118
-0.258473 0.042429 0.720000 162 169 175
-0.268185 0.044361 0.721000 164 170 170
-0.266315 0.044361 0.721000 105 113 112
-0.264444 0.044361 0.721000 112 120 119
-0.262574 0.044361 0.721000 109 117 118
-0.260703 0.044361 0.721000 120 128 129
-0.258832 0.044361 0.721000 170 177 183
-0.268185 0.046234 0.721000 155 161 161
-0.266315 0.046234 0.721000 103 111 110
-0.264444 0.046234 0.721000 114 122 121
-0.262574 0.046234 0.721000 106 113 117
-0.260703 0.046234 0.721000 138 145 149
-0.268557 0.048173 0.722000 143 149 149
-0.266684 0.048173 0.722000 104 112 113
-0.264811 0.048173 0.722000 111 119 120
-0.262938 0.048173 0.722000 98 108 111
-0.261065 0.048173 0.722000 146 156 159
-0.269301 0.050188 0.724000 139 145 145
-0.267423 0.050188 0.724000 104 112 113
-0.265544 0.050188 0.724000 112 120 121
-0.263666 0.050188 0.724000 99 106 110
-0.261788 0.050188 0.724000 161 168 172
-0.269673 0.052140 0.725000 125 131 131
-0.267792 0.052140 0.725000 108 119 119
-0.265911 0.052140 0.725000 111 122 122
-0.264030 0.052140 0.725000 109 116 120
-0.262149 0.052140 0.725000 166 173 177
-0.270045 0.054098 0.726000 107 115 114
-0.268162 0.054098 0.726000 111 122 122
-0.265911 0.054024 0.725000 112 123 123
-0.264030 0.054024 0.725000 119 126 130
-0.262149 0.054024 0.725000 170 177 181
-0.272303 0.056061 0.727000 163 171 170
-0.270417 0.056061 0.727000 100 108 107
-0.268531 0.056061 0.727000 111 122 122
-0.266645 0.056061 0.727000 105 116 116
-0.264759 0.056061 0.727000 126 134 135
-0.262873 0.056061 0.727000 171 179 180
-0.272678 0.058030 0.728000 147 155 154
-0.270789 0.058030 0.728000 105 113 112
-0.268900 0.058030 0.728000 110 121 121
-0.267012 0.058030 0.728000 104 115 115
-0.265123 0.058030 0.728000 138 146 147
-0.273052 0.060003 0.729000 134 142 141
-0.271161 0.060003 0.729000 103 111 110
-0.269270 0.060003 0.729000 110 121 121
-0.267378 0.060003 0.729000 101 112 112
-0.265487 0.060003 0.729000 153 161 162
-0.273052 0.061897 0.729000 127 135 136
-0.271161 0.061897 0.729000 105 113 114
-0.269270 0.061897 0.729000 110 118 119
-0.267378 0.061897 0.729000 103 111 112
-0.265487 0.061897 0.729000 162 168 170
-0.273052 0.063791 0.729000 119 127 126
-0.271161 0.063791 0.729000 107 115 114
-0.269270 0.063791 0.729000 107 115 116
-0.267745 0.063878 0.730000 105 113 114
-0.265851 0.063878 0.730000 164 169 174
-0.273427 0.065775 0.730000 114 122 121
-0.271533 0.065775 0.730000 114 122 121
-0.269639 0.065775 0.730000 109 117 118
-0.267745 0.065775 0.730000 111 119 120
-0.266215 0.065865 0.731000 161 168 172
-0.273427 0.067671 0.730000 116 124 123
-0.271533 0.067671 0.730000 114 122 121
-0.269639 0.067671 0.730000 112 120 121
-0.268112 0.067764 0.731000 119 127 128
-0.266215 0.067764 0.731000 167 174 178
-0.273427 0.069568 0.730000 114 122 121
-0.271533 0.069568 0.730000 113 121 120
-0.270008 0.069663 0.731000 112 120 121
-0.268112 0.069663 0.731000 117 125 126
-0.266215 0.069663 0.731000 162 169 173
-0.273801 0.071562 0.731000 114 122 121
-0.271905 0.071562 0.731000 112 120 119
-0.270008 0.071562 0.731000 112 120 121
-0.268112 0.071562 0.731000 114 122 123
-0.266215 0.071562 0.731000 160 167 171
-0.273801 0.073461 0.731000 116 124 123
-0.271905 0.073461 0.731000 107 115 114
-0.270008 0.073461 0.731000 102 110 111
-0.268479 0.073561 0.732000 110 118 119
-0.266580 0.073561 0.732000 163 170 174
-0.273801 0.075360 0.731000 122 128 128
-0.271905 0.075360 0.731000 106 112 112
-0.270378 0.075463 0.732000 95 102 106
-0.268479 0.075463 0.732000 105 112 116
-0.266580 0.075463 0.732000 152 159 165
-0.265042 0.075566 0.733000 170 177 183
-0.274176 0.077365 0.732000 125 131 131
-0.272277 0.077365 0.732000 105 111 111
-0.270378 0.077365 0.732000 102 109 113
-0.268479 0.077365 0.732000 99 106 110
-0.266944 0.077470 0.733000 148 155 161
-0.265042 0.077470 0.733000 163 170 176
-0.274176 0.079266 0.732000 138 144 144
-0.272277 0.079266 0.732000 107 113 113
-0.270747 0.079375 0.733000 105 115 118
-0.268845 0.079375 0.733000 98 108 111
-0.266944 0.079375 0.733000 137 144 150
-0.265404 0.079483 0.734000 162 169 175
-0.274550 0.081279 0.733000 161 167 167
-0.272649 0.081279 0.733000 106 112 112
-0.270747 0.081279 0.733000 109 120 120
-0.268845 0.081279 0.733000 107 118 118
-0.267308 0.081390 0.734000 117 127 130
-0.265404 0.081390 0.734000 157 167 170
-0.263499 0.081390 0.734000 163 169 171
-0.273021 0.083296 0.734000 114 120 120
-0.271116 0.083296 0.734000 109 120 120
-0.269212 0.083296 0.734000 110 121 121
-0.267308 0.083296 0.734000 104 114 117
-0.265765 0.083410 0.735000 138 148 151
-0.263858 0.083410 0.735000 163 168 173
-0.273021 0.085203 0.734000 142 148 148
-0.271116 0.085203 0.734000 109 117 116
-0.269212 0.085203 0.734000 113 121 120
-0.267308 0.085203 0.734000 98 106 107
-0.265765 0.085319 0.735000 113 121 122
-0.263858 0.085319 0.735000 153 158 163
-0.261951 0.085319 0.735000 154 159 164
-0.273393 0.087229 0.735000 176 184 183
-0.271486 0.087229 0.735000 114 122 121
-0.269579 0.087229 0.735000 114 122 121
-0.267672 0.087229 0.735000 104 110 112
-0.265765 0.087229 0.735000 96 102 104
-0.263858 0.087229 0.735000 117 123 125
-0.261951 0.087229 0.735000 147 153 155
-0.260398 0.087347 0.736000 161 169 170
-0.272225 0.089381 0.737000 142 148 148
-0.269946 0.089259 0.736000 113 119 119
-0.267672 0.089138 0.735000 107 113 115
-0.265765 0.089138 0.735000 92 98 100
-0.263858 0.089138 0.735000 93 100 104
-0.261951 0.089138 0.735000 113 120 124
-0.260045 0.089138 0.735000 140 148 149
-0.258138 0.089138 0.735000 155 163 164
-0.256231 0.089138 0.735000 167 172 177
-0.270313 0.091295 0.737000 142 145 146
-0.268400 0.091295 0.737000 105 108 109
-0.266127 0.091171 0.736000 100 103 104
-0.264217 0.091171 0.736000 92 100 101
-0.261951 0.091047 0.735000 86 94 95
-0.260045 0.091047 0.735000 97 104 108
-0.258138 0.091047 0.735000 134 141 145
-0.256231 0.091047 0.735000 161 168 174
-0.254324 0.091047 0.735000 161 168 174
-0.268765 0.093336 0.738000 135 138 137
-0.266488 0.093210 0.737000 106 109 108
-0.264576 0.093210 0.737000 94 100 100
-0.262308 0.093083 0.736000 87 93 93
-0.260398 0.093083 0.736000 85 92 96
-0.258138 0.092957 0.735000 96 103 107
-0.256231 0.092957 0.735000 119 126 134
-0.254324 0.092957 0.735000 139 146 154
-0.252417 0.092957 0.735000 150 156 167
-0.267212 0.095383 0.739000 138 141 140
-0.264935 0.095253 0.738000 108 115 109
-0.262664 0.095124 0.737000 97 104 98
-0.260752 0.095124 0.737000 99 107 108
-0.258489 0.094995 0.736000 90 98 99
-0.256579 0.094995 0.736000 89 96 102
-0.254324 0.094866 0.735000 103 110 116
-0.252417 0.094866 0.735000 135 141 152
-0.250510 0.094866 0.735000 156 162 173
-0.265294 0.097302 0.739000 153 160 154
-0.263021 0.097171 0.738000 113 120 114
-0.260752 0.097039 0.737000 105 113 112
-0.258840 0.097039 0.737000 95 103 102
-0.256579 0.096907 0.736000 91 98 102
-0.254324 0.096776 0.735000 88 95 99
-0.252417 0.096776 0.735000 90 97 105
-0.250510 0.096776 0.735000 107 114 122
-0.248265 0.096644 0.734000 141 148 156
-0.246696 0.096776 0.735000 154 161 169
-0.263377 0.099222 0.739000 172 178 176
-0.261460 0.099222 0.739000 133 141 140
-0.258840 0.098954 0.737000 110 118 117
-0.256928 0.098954 0.737000 100 108 109
-0.255016 0.098954 0.737000 95 103 104
-0.252417 0.098685 0.735000 96 103 107
-0.250510 0.098685 0.735000 95 102 106
-0.248603 0.098685 0.735000 96 103 111
-0.246696 0.098685 0.735000 110 117 125
-0.244789 0.098685 0.735000 135 142 150
-0.242883 0.098685 0.735000 154 161 169
-0.240976 0.098685 0.735000 163 170 176
-0.259542 0.101142 0.739000 159 167 166
-0.257277 0.101005 0.738000 124 135 133
-0.255016 0.100868 0.737000 102 113 111
-0.253104 0.100868 0.737000 98 108 111
-0.250851 0.100731 0.736000 97 107 110
-0.248603 0.100594 0.735000 97 107 112
-0.246696 0.100594 0.735000 94 104 109
-0.244789 0.100594 0.735000 95 105 110
-0.242883 0.100594 0.735000 105 115 120
-0.240976 0.100594 0.735000 135 142 150
-0.239069 0.100594 0.735000 155 162 170
-0.237485 0.100731 0.736000 161 168 172
-0.257625 0.103062 0.739000 181 189 188
-0.255708 0.103062 0.739000 153 161 160
-0.253447 0.102922 0.738000 118 131 130
-0.251192 0.102783 0.737000 99 112 111
-0.249280 0.102783 0.737000 94 106 110
-0.247032 0.102643 0.736000 96 108 112
-0.245456 0.102783 0.737000 96 106 111
-0.243213 0.102643 0.736000 94 104 109
-0.241304 0.102643 0.736000 95 102 108
-0.239394 0.102643 0.736000 114 121 127
-0.237485 0.102643 0.736000 137 144 150
-0.235895 0.102783 0.737000 152 159 165
-0.233983 0.102783 0.737000 159 166 172
-0.253791 0.104982 0.739000 174 185 185
-0.251873 0.104982 0.739000 147 158 158
-0.249618 0.104839 0.738000 109 120 120
-0.247368 0.104697 0.737000 98 109 109
-0.245456 0.104697 0.737000 99 106 110
-0.243544 0.104697 0.737000 97 104 108
-0.241631 0.104697 0.737000 91 96 101
-0.239719 0.104697 0.737000 94 99 104
-0.237807 0.104697 0.737000 99 104 111
-0.235895 0.104697 0.737000 112 117 124
-0.233983 0.104697 0.737000 133 140 146
-0.232071 0.104697 0.737000 146 153 159
-0.230471 0.104839 0.738000 154 164 169
-0.250294 0.107046 0.740000 173 184 184
-0.248039 0.106901 0.739000 150 161 161
-0.246122 0.106901 0.739000 118 126 125
-0.244204 0.106901 0.739000 106 114 113
-0.241959 0.106757 0.738000 100 106 108
-0.240045 0.106757 0.738000 101 107 109
-0.238130 0.106757 0.738000 103 109 111
-0.236215 0.106757 0.738000 101 107 109
-0.234301 0.106757 0.738000 97 105 106
-0.232386 0.106757 0.738000 106 114 115
-0.230471 0.106757 0.738000 125 135 140
-0.228557 0.106757 0.738000 150 160 165
-0.226949 0.106901 0.739000 144 154 159
-0.246788 0.109116 0.741000 176 184 183
-0.244865 0.109116 0.741000 146 154 153
-0.242615 0.108968 0.740000 117 123 123
-0.240370 0.108821 0.739000 110 116 116
-0.238453 0.108821 0.739000 110 116 114
-0.236535 0.108821 0.739000 100 106 104
-0.234618 0.108821 0.739000 97 105 104
-0.232386 0.108674 0.738000 96 104 103
-0.230471 0.108674 0.738000 90 100 103
-0.228247 0.108527 0.737000 107 117 120
-0.226335 0.108527 0.737000 118 128 133
-0.224423 0.108527 0.737000 147 157 162
-0.222511 0.108527 0.737000 155 162 168
-0.242943 0.111041 0.741000 173 181 180
-0.241020 0.111041 0.741000 140 148 147
-0.239098 0.111041 0.741000 119 127 124
-0.236855 0.110891 0.740000 102 110 107
-0.234618 0.110741 0.739000 100 111 109
-0.232701 0.110741 0.739000 96 107 105
-0.230471 0.110591 0.738000 90 101 99
-0.228247 0.110441 0.737000 88 99 97
-0.226335 0.110441 0.737000 88 98 101
-0.224423 0.110441 0.737000 103 113 116
-0.222511 0.110441 0.737000 123 130 136
-0.220599 0.110441 0.737000 139 146 152
-0.218983 0.110591 0.738000 153 160 168
-0.239421 0.113118 0.742000 170 178 177
-0.237176 0.112966 0.741000 140 148 147
-0.235253 0.112966 0.741000 115 126 124
-0.232701 0.112661 0.739000 97 108 106
-0.230784 0.112661 0.739000 91 102 100
-0.228866 0.112661 0.739000 90 101 99
-0.226949 0.112661 0.739000 96 107 107
-0.224727 0.112508 0.738000 93 104 104
-0.222813 0.112508 0.738000 94 104 109
-0.220599 0.112356 0.737000 101 111 116
-0.218983 0.112508 0.738000 117 126 136
-0.217069 0.112508 0.738000 137 146 156
-0.215446 0.112661 0.739000 147 156 166
-0.235571 0.115046 0.742000 173 184 182
-0.233331 0.114891 0.741000 146 157 155
-0.231408 0.114891 0.741000 121 127 125
-0.229176 0.114736 0.740000 110 116 114
-0.226949 0.114580 0.739000 102 110 111
-0.225032 0.114580 0.739000 103 111 112
-0.223115 0.114580 0.739000 101 111 114
-0.221197 0.114580 0.739000 97 107 110
-0.219280 0.114580 0.739000 94 104 111
-0.217363 0.114580 0.739000 94 104 111
-0.215446 0.114580 0.739000 110 120 127
-0.213528 0.114580 0.739000 125 135 142
-0.211611 0.114580 0.739000 141 148 156
-0.209694 0.114580 0.739000 153 160 168
-0.232033 0.117131 0.743000 177 183 183
-0.229795 0.116973 0.742000 160 166 166
-0.227563 0.116816 0.741000 128 136 135
-0.225641 0.116816 0.741000 111 119 118
-0.223718 0.116816 0.741000 104 111 115
-0.221497 0.116658 0.740000 103 110 114
-0.219577 0.116658 0.740000 102 109 113
-0.217363 0.116500 0.739000 100 107 111
-0.215737 0.116658 0.740000 97 104 110
-0.213528 0.116500 0.739000 93 100 106
-0.211611 0.116500 0.739000 102 109 115
-0.209694 0.116500 0.739000 114 121 127
-0.207776 0.116500 0.739000 134 139 146
-0.205859 0.116500 0.739000 146 151 158
-0.228485 0.119221 0.744000 184 190 192
-0.226250 0.119061 0.743000 169 175 177
-0.224322 0.119061 0.743000 135 143 144
-0.222095 0.118901 0.742000 113 121 122
-0.219873 0.118741 0.741000 105 113 114
-0.217951 0.118741 0.741000 104 112 113
-0.216029 0.118741 0.741000 100 106 108
-0.213817 0.118580 0.740000 100 106 108
-0.211897 0.118580 0.740000 100 105 110
-0.209694 0.118420 0.739000 97 102 107
-0.207776 0.118420 0.739000 99 104 111
-0.205859 0.118420 0.739000 107 112 119
-0.203942 0.118420 0.739000 123 130 136
-0.202025 0.118420 0.739000 137 144 150
-0.200107 0.118420 0.739000 143 153 158
-0.198458 0.118580 0.740000 154 164 169
-0.224624 0.121154 0.744000 185 193 194
-0.222694 0.121154 0.744000 177 185 186
-0.220467 0.120991 0.743000 149 157 156
-0.218539 0.120991 0.743000 121 129 128
-0.216612 0.120991 0.743000 106 112 112
-0.214395 0.120828 0.742000 101 107 107
-0.212184 0.120666 0.741000 99 107 108
-0.210261 0.120666 0.741000 97 105 106
-0.208339 0.120666 0.741000 99 107 108
-0.206138 0.120503 0.740000 96 104 105
-0.204218 0.120503 0.740000 95 102 106
-0.202298 0.120503 0.740000 104 111 115
-0.200378 0.120503 0.740000 114 121 127
-0.198458 0.120503 0.740000 128 135 141
-0.196539 0.120503 0.740000 140 147 151
-0.194882 0.120666 0.741000 152 159 163
-0.221060 0.123252 0.745000 190 196 196
-0.219128 0.123252 0.745000 185 191 191
-0.216903 0.123087 0.744000 168 176 177
-0.214973 0.123087 0.744000 145 153 154
-0.212756 0.122921 0.743000 113 121 120
-0.210829 0.122921 0.743000 104 112 111
-0.208901 0.122921 0.743000 101 112 112
-0.206416 0.122591 0.741000 100 111 111
-0.204494 0.122591 0.741000 96 106 109
-0.202571 0.122591 0.741000 93 103 106
-0.200378 0.122425 0.740000 96 106 109
-0.198458 0.122425 0.740000 97 107 110
-0.196539 0.122425 0.740000 99 106 110
-0.194619 0.122425 0.740000 117 124 128
-0.192699 0.122425 0.740000 130 137 143
-0.191037 0.122591 0.741000 140 147 153
-0.189114 0.122591 0.741000 152 159 165
-0.215262 0.125188 0.745000 186 192 194
-0.213329 0.125188 0.745000 180 188 187
-0.211113 0.125020 0.744000 156 164 163
-0.209182 0.125020 0.744000 118 129 129
-0.206973 0.124852 0.743000 107 118 118
-0.204770 0.124684 0.742000 102 113 113
-0.202571 0.124516 0.741000 100 111 111
-0.200649 0.124516 0.741000 97 107 110
-0.198727 0.124516 0.741000 97 107 110
-0.196804 0.124516 0.741000 97 107 110
-0.194882 0.124516 0.741000 91 101 104
-0.192959 0.124516 0.741000 94 104 109
-0.190779 0.124347 0.740000 104 114 119
-0.188859 0.124347 0.740000 121 128 136
-0.186939 0.124347 0.740000 135 142 150
-0.185019 0.124347 0.740000 145 152 156
-0.183347 0.124516 0.741000 152 159 163
-0.209463 0.127123 0.745000 180 188 187
-0.207252 0.126952 0.744000 167 175 174
-0.205322 0.126952 0.744000 140 148 147
-0.203118 0.126782 0.743000 120 128 127
-0.201191 0.126782 0.743000 105 116 116
-0.198995 0.126611 0.742000 102 113 113
-0.197335 0.126782 0.743000 96 107 107
-0.195145 0.126611 0.742000 93 104 104
-0.192959 0.126441 0.741000 96 106 111
-0.191037 0.126441 0.741000 96 106 111
-0.189114 0.126441 0.741000 94 104 111
-0.187192 0.126441 0.741000 97 107 114
-0.185269 0.126441 0.741000 111 118 124
-0.183347 0.126441 0.741000 118 125 131
-0.181425 0.126441 0.741000 135 142 148
-0.179744 0.126611 0.742000 146 153 159
-0.178059 0.126782 0.743000 145 155 160
-0.203938 0.129232 0.746000 180 188 187
-0.201732 0.129058 0.745000 155 163 162
-0.199531 0.128885 0.744000 130 138 137
-0.197335 0.128712 0.743000 110 121 121
-0.195408 0.128712 0.743000 104 115 115
-0.193480 0.128712 0.743000 98 108 111
-0.191552 0.128712 0.743000 96 106 109
-0.189370 0.128539 0.742000 99 106 110
-0.187444 0.128539 0.742000 97 104 108
-0.185269 0.128366 0.741000 100 105 112
-0.183594 0.128539 0.742000 99 104 111
-0.181669 0.128539 0.742000 102 109 115
-0.179987 0.128712 0.743000 114 121 127
-0.178059 0.128712 0.743000 124 131 137
-0.176368 0.128885 0.744000 139 146 152
-0.174673 0.129058 0.745000 150 160 165
-0.172740 0.129058 0.745000 157 167 172
-0.197866 0.130994 0.745000 176 187 187
-0.195934 0.130994 0.745000 148 159 159
-0.193740 0.130818 0.744000 119 130 130
-0.191810 0.130818 0.744000 111 122 122
-0.189625 0.130642 0.743000 105 111 113
-0.187697 0.130642 0.743000 100 106 108
-0.185769 0.130642 0.743000 99 105 107
-0.183842 0.130642 0.743000 100 106 108
-0.181914 0.130642 0.743000 100 106 108
-0.180229 0.130818 0.744000 94 100 102
-0.178299 0.130818 0.744000 95 103 104
-0.176605 0.130994 0.745000 96 104 105
-0.174673 0.130994 0.745000 108 118 123
-0.172972 0.131170 0.746000 122 132 137
-0.171036 0.131170 0.746000 130 140 143
-0.169101 0.131170 0.746000 143 153 156
-0.167165 0.131170 0.746000 159 166 170
-0.194001 0.132929 0.745000 176 184 185
-0.192068 0.132929 0.745000 157 165 166
-0.190135 0.132929 0.745000 142 150 151
-0.188202 0.132929 0.745000 120 128 129
-0.186270 0.132929 0.745000 109 117 116
-0.184089 0.132751 0.744000 107 115 114
-0.182159 0.132751 0.744000 106 112 112
-0.180471 0.132929 0.745000 98 104 104
-0.178538 0.132929 0.745000 96 102 102
-0.176842 0.133108 0.746000 99 105 105
-0.174907 0.133108 0.746000 95 103 104
-0.172972 0.133108 0.746000 93 101 102
-0.171036 0.133108 0.746000 95 102 106
-0.169101 0.133108 0.746000 106 113 117
-0.167165 0.133108 0.746000 121 128 132
-0.165230 0.133108 0.746000 134 141 145
-0.163294 0.133108 0.746000 149 156 160
-0.161359 0.133108 0.746000 159 166 170
-0.188455 0.135046 0.746000 176 184 185
-0.186520 0.135046 0.746000 160 168 169
-0.184584 0.135046 0.746000 140 148 149
-0.182649 0.135046 0.746000 119 127 126
-0.180713 0.135046 0.746000 103 111 110
-0.178778 0.135046 0.746000 102 110 109
-0.176842 0.135046 0.746000 100 108 107
-0.174907 0.135046 0.746000 93 101 102
-0.172972 0.135046 0.746000 96 104 105
-0.171036 0.135046 0.746000 92 99 103
-0.169101 0.135046 0.746000 93 100 104
-0.167165 0.135046 0.746000 95 102 106
-0.165230 0.135046 0.746000 97 104 108
-0.163294 0.135046 0.746000 106 113 119
-0.161359 0.135046 0.746000 119 126 132
-0.159424 0.135046 0.746000 139 146 152
-0.157277 0.134865 0.745000 152 159 165
-0.155344 0.134865 0.745000 157 167 172
-0.182649 0.136984 0.746000 176 184 183
-0.180713 0.136984 0.746000 164 172 171
-0.178778 0.136984 0.746000 147 155 154
-0.177079 0.137167 0.747000 123 131 130
-0.175141 0.137167 0.747000 103 114 114
-0.173203 0.137167 0.747000 97 108 108
-0.171265 0.137167 0.747000 103 113 116
-0.169327 0.137167 0.747000 96 106 109
-0.167389 0.137167 0.747000 97 107 110
-0.165451 0.137167 0.747000 96 106 109
-0.163294 0.136984 0.746000 97 104 108
-0.161359 0.136984 0.746000 95 102 106
-0.159424 0.136984 0.746000 96 103 109
-0.157488 0.136984 0.746000 109 116 122
-0.155344 0.136800 0.745000 123 133 138
-0.153411 0.136800 0.745000 133 143 148
-0.151479 0.136800 0.745000 150 160 167
-0.179257 0.139294 0.748000 188 194 194
-0.177317 0.139294 0.748000 183 189 189
-0.175376 0.139294 0.748000 170 178 179
-0.173435 0.139294 0.748000 154 162 163
-0.171495 0.139294 0.748000 125 133 134
-0.169327 0.139108 0.747000 109 117 118
-0.167389 0.139108 0.747000 103 111 112
-0.165451 0.139108 0.747000 102 110 111
-0.163294 0.138922 0.746000 98 106 107
-0.161359 0.138922 0.746000 96 104 105
-0.159424 0.138922 0.746000 96 103 107
-0.157488 0.138922 0.746000 96 103 107
-0.155553 0.138922 0.746000 91 101 106
-0.153411 0.138735 0.745000 95 105 110
-0.151479 0.138735 0.745000 100 109 119
-0.149546 0.138735 0.745000 115 124 134
-0.147613 0.138735 0.745000 132 141 153
-0.145680 0.138735 0.745000 148 157 169
-0.171495 0.141237 0.748000 182 190 191
-0.169554 0.141237 0.748000 170 178 179
-0.167614 0.141237 0.748000 146 152 152
-0.165451 0.141048 0.747000 127 133 133
-0.163513 0.141048 0.747000 106 114 113
-0.161359 0.140860 0.746000 103 111 110
-0.159424 0.140860 0.746000 104 112 113
-0.157488 0.140860 0.746000 99 107 108
-0.155553 0.140860 0.746000 99 106 110
-0.153617 0.140860 0.746000 100 107 111
-0.151682 0.140860 0.746000 96 103 109
-0.149747 0.140860 0.746000 96 103 109
-0.147811 0.140860 0.746000 96 103 111
-0.145680 0.140671 0.745000 107 114 122
-0.143747 0.140671 0.745000 124 128 140
-0.141815 0.140671 0.745000 140 144 156
-0.140069 0.140860 0.746000 153 159 170
-0.165451 0.142989 0.747000 183 191 190
-0.163513 0.142989 0.747000 175 183 182
-0.161359 0.142797 0.746000 150 158 157
-0.159424 0.142797 0.746000 118 126 127
-0.157488 0.142797 0.746000 107 115 116
-0.155553 0.142797 0.746000 106 112 114
-0.153617 0.142797 0.746000 101 107 109
-0.151682 0.142797 0.746000 103 109 111
-0.149747 0.142797 0.746000 104 110 112
-0.147811 0.142797 0.746000 101 106 111
-0.145876 0.142797 0.746000 100 105 110
-0.143940 0.142797 0.746000 97 102 109
-0.142005 0.142797 0.746000 98 103 110
-0.140069 0.142797 0.746000 113 118 127
-0.138134 0.142797 0.746000 127 132 141
-0.136199 0.142797 0.746000 145 152 160
-0.134263 0.142797 0.746000 155 162 170
-0.159424 0.144735 0.746000 182 190 191
-0.157488 0.144735 0.746000 174 182 183
-0.155553 0.144735 0.746000 152 160 161
-0.153617 0.144735 0.746000 127 135 136
-0.151682 0.144735 0.746000 112 118 120
-0.149747 0.144735 0.746000 106 112 114
-0.147811 0.144735 0.746000 103 108 113
-0.145876 0.144735 0.746000 101 106 111
-0.143940 0.144735 0.746000 100 105 110
-0.142005 0.144735 0.746000 97 102 107
-0.140069 0.144735 0.746000 97 104 110
-0.138134 0.144735 0.746000 95 102 108
-0.136199 0.144735 0.746000 97 104 110
-0.134263 0.144735 0.746000 105 112 118
-0.132328 0.144735 0.746000 127 134 140
-0.130392 0.144735 0.746000 142 149 155
-0.128457 0.144735 0.746000 156 163 169
-0.153823 0.146870 0.747000 188 194 194
-0.151885 0.146870 0.747000 176 184 185
-0.149947 0.146870 0.747000 152 160 161
-0.147811 0.146673 0.746000 130 138 139
-0.145876 0.146673 0.746000 109 117 118
-0.143940 0.146673 0.746000 105 113 114
-0.142005 0.146673 0.746000 105 113 114
-0.140069 0.146673 0.746000 102 109 113
-0.138134 0.146673 0.746000 99 106 110
-0.136199 0.146673 0.746000 99 106 110
-0.134263 0.146673 0.746000 97 104 108
-0.132328 0.146673 0.746000 93 100 104
-0.130392 0.146673 0.746000 97 104 108
-0.128457 0.146673 0.746000 109 116 122
-0.126691 0.146870 0.747000 125 132 138
-0.124753 0.146870 0.747000 142 147 154
-0.122815 0.146870 0.747000 155 160 167
-0.148009 0.148811 0.747000 185 193 194
-0.146071 0.148811 0.747000 177 185 186
-0.144133 0.148811 0.747000 153 161 160
-0.142195 0.148811 0.747000 120 128 127
-0.140257 0.148811 0.747000 108 119 119
-0.138319 0.148811 0.747000 101 112 112
-0.136381 0.148811 0.747000 97 107 110
-0.134263 0.148611 0.746000 97 107 110
-0.132328 0.148611 0.746000 94 106 108
-0.130392 0.148611 0.746000 94 106 108
-0.128629 0.148811 0.747000 90 100 105
-0.126691 0.148811 0.747000 91 101 106
-0.124753 0.148811 0.747000 96 106 111
-0.122815 0.148811 0.747000 109 119 124
-0.120877 0.148811 0.747000 130 137 143
-0.119098 0.149010 0.748000 146 153 159
-0.117158 0.149010 0.748000 156 163 169
-0.142386 0.150953 0.748000 181 188 192
-0.140445 0.150953 0.748000 170 177 181
-0.138504 0.150953 0.748000 152 159 163
-0.136381 0.150751 0.747000 127 135 136
-0.134443 0.150751 0.747000 112 120 121
-0.132505 0.150751 0.747000 100 111 111
-0.130567 0.150751 0.747000 100 111 111
-0.128629 0.150751 0.747000 98 108 111
-0.126691 0.150751 0.747000 97 107 110
-0.124753 0.150751 0.747000 95 105 108
-0.122815 0.150751 0.747000 94 104 107
-0.120877 0.150751 0.747000 96 103 107
-0.119098 0.150953 0.748000 106 113 117
-0.117158 0.150953 0.748000 111 118 126
-0.115371 0.151155 0.749000 128 135 143
-0.113428 0.151155 0.749000 148 155 163
-0.111485 0.151155 0.749000 156 163 171
-0.136564 0.152896 0.748000 184 192 193
-0.134623 0.152896 0.748000 176 184 185
-0.132683 0.152896 0.748000 146 154 155
-0.130742 0.152896 0.748000 127 135 136
-0.128801 0.152896 0.748000 112 120 121
-0.126861 0.152896 0.748000 104 112 113
-0.124920 0.152896 0.748000 99 107 108
-0.122979 0.152896 0.748000 100 108 109
-0.121039 0.152896 0.748000 99 106 110
-0.119098 0.152896 0.748000 97 104 108
-0.117158 0.152896 0.748000 98 105 109
-0.115217 0.152896 0.748000 95 102 106
-0.113276 0.152896 0.748000 100 105 112
-0.111485 0.153101 0.749000 111 116 123
-0.109541 0.153101 0.749000 121 128 134
-0.107598 0.153101 0.749000 137 144 150
-0.105796 0.153305 0.750000 147 154 160
-0.132860 0.155046 0.749000 187 195 194
-0.130917 0.155046 0.749000 183 191 190
-0.128801 0.154839 0.748000 173 181 182
-0.126861 0.154839 0.748000 147 155 156
-0.124920 0.154839 0.748000 124 130 132
-0.122979 0.154839 0.748000 114 120 122
-0.121039 0.154839 0.748000 112 118 120
-0.119098 0.154839 0.748000 106 112 114
-0.117158 0.154839 0.748000 103 109 111
-0.115371 0.155046 0.749000 97 103 105
-0.113428 0.155046 0.749000 94 99 104
-0.111634 0.155253 0.750000 93 98 103
-0.109688 0.155253 0.750000 91 96 101
-0.107742 0.155253 0.750000 96 101 106
-0.105937 0.155460 0.751000 106 111 118
-0.104127 0.155667 0.752000 121 126 133
-0.102176 0.155667 0.752000 133 138 143
-0.100092 0.155460 0.751000 139 144 149
-0.098274 0.155667 0.752000 152 159 163
-0.096323 0.155667 0.752000 162 169 173
-0.094372 0.155667 0.752000 142 149 153
-0.127200 0.157202 0.750000 185 193 194
-0.125254 0.157202 0.750000 181 186 191
-0.123144 0.156992 0.749000 168 173 178
-0.121201 0.156992 0.749000 139 147 146
-0.119257 0.156992 0.749000 121 129 128
-0.117471 0.157202 0.750000 109 117 118
-0.115525 0.157202 0.750000 103 111 112
-0.113579 0.157202 0.750000 108 114 116
-0.111634 0.157202 0.750000 107 113 115
-0.109834 0.157411 0.751000 102 109 113
-0.108029 0.157621 0.752000 97 104 108
-0.106078 0.157621 0.752000 96 103 109
-0.104127 0.157621 0.752000 98 105 111
-0.102176 0.157621 0.752000 97 102 107
-0.100359 0.157831 0.753000 104 109 114
-0.098405 0.157831 0.753000 117 122 127
-0.096451 0.157831 0.753000 129 134 139
-0.094372 0.157621 0.752000 112 119 123
-0.092544 0.157831 0.753000 137 144 148
-0.090470 0.157621 0.752000 157 164 170
-0.121524 0.159362 0.751000 186 192 192
-0.119576 0.159362 0.751000 184 190 190
-0.117628 0.159362 0.751000 169 175 175
-0.115833 0.159575 0.752000 145 151 151
-0.113882 0.159575 0.752000 125 133 134
-0.111931 0.159575 0.752000 107 115 116
-0.109980 0.159575 0.752000 103 110 114
-0.108173 0.159787 0.753000 106 113 117
-0.106360 0.159999 0.754000 103 110 114
-0.104543 0.160211 0.755000 98 105 109
-0.102584 0.160211 0.755000 98 105 109
-0.100625 0.160211 0.755000 95 102 106
-0.098666 0.160211 0.755000 90 97 101
-0.096579 0.159999 0.754000 90 97 101
-0.094623 0.159999 0.754000 88 95 101
-0.092667 0.159999 0.754000 100 107 113
-0.090591 0.159787 0.753000 114 121 129
-0.088519 0.159575 0.752000 124 131 139
-0.086684 0.159787 0.753000 138 143 150
-0.116141 0.161958 0.754000 184 190 190
-0.114185 0.161958 0.754000 182 190 189
-0.112229 0.161958 0.754000 171 179 178
-0.110273 0.161958 0.754000 154 160 160
-0.108460 0.162172 0.755000 126 132 132
-0.106501 0.162172 0.755000 110 118 119
-0.104681 0.162387 0.756000 107 115 116
-0.102720 0.162387 0.756000 106 114 115
-0.100758 0.162387 0.756000 105 113 114
-0.098797 0.162387 0.756000 100 107 111
-0.096836 0.162387 0.756000 96 103 107
-0.094874 0.162387 0.756000 96 106 109
-0.092790 0.162172 0.755000 97 107 110
-0.090831 0.162172 0.755000 95 105 108
-0.088755 0.161958 0.754000 93 103 106
-0.086799 0.161958 0.754000 98 103 110
-0.084842 0.161958 0.754000 108 113 120
-0.082886 0.161958 0.754000 119 124 129
-0.080823 0.161743 0.753000 132 137 142
-0.078869 0.161743 0.753000 140 145 150
-0.108604 0.164351 0.756000 184 192 193
-0.106642 0.164351 0.756000 177 183 185
-0.104958 0.164786 0.758000 165 171 173
-0.102992 0.164786 0.758000 144 147 150
-0.101025 0.164786 0.758000 126 129 132
-0.099058 0.164786 0.758000 113 119 121
-0.096964 0.164569 0.757000 111 117 119
-0.095000 0.164569 0.757000 105 115 118
-0.092913 0.164351 0.756000 101 111 114
-0.090952 0.164351 0.756000 101 111 114
-0.088873 0.164134 0.755000 100 110 113
-0.086914 0.164134 0.755000 96 103 107
-0.084955 0.164134 0.755000 97 104 108
-0.082886 0.163916 0.754000 94 99 104
-0.080930 0.163916 0.754000 100 105 110
-0.079079 0.164134 0.755000 106 111 118
-0.077120 0.164134 0.755000 110 115 122
-0.075062 0.163916 0.754000 125 130 137
-0.073105 0.163916 0.754000 136 141 148
-0.071149 0.163916 0.754000 142 149 155
-0.101158 0.166975 0.759000 187 190 193
-0.099189 0.166975 0.759000 178 184 184
-0.097220 0.166975 0.759000 157 163 163
-0.095125 0.166755 0.758000 104 117 116
-0.093159 0.166755 0.758000 128 141 140
-0.091192 0.166755 0.758000 111 121 124
-0.088990 0.166315 0.756000 109 119 122
-0.087029 0.166315 0.756000 104 114 117
-0.085067 0.166315 0.756000 104 114 117
-0.082996 0.166095 0.755000 102 109 113
-0.081037 0.166095 0.755000 96 103 107
-0.079079 0.166095 0.755000 94 99 104
-0.077120 0.166095 0.755000 92 97 102
-0.075161 0.166095 0.755000 92 99 103
-0.073202 0.166095 0.755000 93 100 104
-0.071149 0.165875 0.754000 99 106 112
-0.069193 0.165875 0.754000 106 113 119
-0.067148 0.165655 0.753000 129 134 141
-0.065194 0.165655 0.753000 133 138 145
-0.063157 0.165435 0.752000 132 139 147
-0.061206 0.165435 0.752000 145 152 160
-0.095376 0.169170 0.760000 120 135 134
-0.093405 0.169170 0.760000 170 185 184
-0.091433 0.169170 0.760000 171 181 184
-0.089343 0.168947 0.759000 153 163 166
-0.087259 0.168724 0.758000 125 135 138
-0.085293 0.168724 0.758000 109 119 122
-0.083216 0.168502 0.757000 106 114 115
-0.081252 0.168502 0.757000 107 115 116
-0.079183 0.168279 0.756000 110 116 118
-0.077222 0.168279 0.756000 105 111 113
-0.075261 0.168279 0.756000 98 104 106
-0.073202 0.168057 0.755000 94 100 102
-0.071244 0.168057 0.755000 98 104 106
-0.069285 0.168057 0.755000 96 102 104
-0.067237 0.167834 0.754000 94 99 104
-0.065281 0.167834 0.754000 96 101 106
-0.063241 0.167611 0.753000 106 111 118
-0.061206 0.167389 0.752000 118 123 130
-0.059255 0.167389 0.752000 131 138 146
-0.057304 0.167389 0.752000 146 153 161
-0.055353 0.167389 0.752000 155 165 170
-0.053473 0.167611 0.753000 164 174 179
-0.083436 0.170919 0.759000 157 165 166
-0.081467 0.170919 0.759000 139 147 148
-0.079498 0.170919 0.759000 123 131 132
-0.077426 0.170693 0.758000 109 117 118
-0.075460 0.170693 0.758000 106 114 115
-0.073396 0.170468 0.757000 104 112 113
-0.071432 0.170468 0.757000 103 111 112
-0.069377 0.170243 0.756000 102 110 111
-0.067326 0.170018 0.755000 100 107 111
-0.065367 0.170018 0.755000 96 103 107
-0.063408 0.170018 0.755000 91 98 102
-0.061368 0.169793 0.754000 92 99 103
-0.059333 0.169568 0.753000 91 98 104
-0.057380 0.169568 0.753000 98 105 111
-0.055500 0.169793 0.754000 104 111 117
-0.053473 0.169568 0.753000 107 114 120
-0.051587 0.169793 0.754000 119 126 134
-0.049631 0.169793 0.754000 132 139 147
-0.047738 0.170018 0.755000 142 149 157
-0.045840 0.170243 0.756000 159 166 174
-0.043937 0.170468 0.757000 168 175 181
-0.077733 0.173346 0.761000 173 184 184
-0.075659 0.173118 0.760000 154 162 161
-0.073590 0.172890 0.759000 134 142 141
-0.071621 0.172890 0.759000 125 133 134
-0.069560 0.172663 0.758000 112 120 121
-0.067504 0.172435 0.757000 110 117 121
-0.065454 0.172207 0.756000 105 112 116
-0.063492 0.172207 0.756000 103 110 114
-0.061450 0.171979 0.755000 100 107 111
-0.059491 0.171979 0.755000 95 105 108
-0.057532 0.171979 0.755000 94 104 107
-0.055573 0.171979 0.755000 96 106 109
-0.053615 0.171979 0.755000 93 103 106
-0.051656 0.171979 0.755000 90 100 105
-0.049697 0.171979 0.755000 91 101 106
-0.047802 0.172207 0.756000 96 106 113
-0.045840 0.172207 0.756000 105 115 122
-0.043937 0.172435 0.757000 117 127 134
-0.042028 0.172663 0.758000 128 138 145
-0.040115 0.172890 0.759000 144 151 157
-0.038146 0.172890 0.759000 155 162 168
-0.036224 0.173118 0.760000 161 168 172
-0.034252 0.173118 0.760000 168 175 179
-0.071810 0.175323 0.761000 175 181 183
-0.069744 0.175093 0.760000 161 167 169
-0.067683 0.174862 0.759000 141 148 152
-0.065714 0.174862 0.759000 124 131 135
-0.063660 0.174632 0.758000 109 119 122
-0.061613 0.174401 0.757000 103 113 116
-0.059570 0.174171 0.756000 100 110 113
-0.057608 0.174171 0.756000 100 110 113
-0.055647 0.174171 0.756000 102 113 113
-0.053615 0.173941 0.755000 101 112 112
-0.051656 0.173941 0.755000 98 109 109
-0.049763 0.174171 0.756000 97 108 108
-0.047802 0.174171 0.756000 95 105 108
-0.045840 0.174171 0.756000 94 104 107
-0.043995 0.174632 0.758000 88 100 104
-0.042028 0.174632 0.758000 89 101 105
-0.040115 0.174862 0.759000 93 103 110
-0.038146 0.174862 0.759000 95 105 112
-0.036224 0.175093 0.760000 104 114 119
-0.034252 0.175093 0.760000 119 129 134
-0.032281 0.175093 0.760000 130 140 143
-0.030309 0.175093 0.760000 140 150 153
-0.028337 0.175093 0.760000 150 157 161
-0.026365 0.175093 0.760000 156 163 167
-0.063828 0.177067 0.760000 173 181 182
-0.061775 0.176834 0.759000 161 169 170
-0.059727 0.176601 0.758000 146 154 155
-0.057761 0.176601 0.758000 131 139 140
-0.055721 0.176368 0.757000 117 125 124
-0.053686 0.176135 0.756000 105 113 112
-0.051724 0.176135 0.756000 101 112 110
-0.049763 0.176135 0.756000 102 113 111
-0.047865 0.176368 0.757000 101 112 112
-0.045901 0.176368 0.757000 104 115 115
-0.043995 0.176601 0.758000 98 108 111
-0.042028 0.176601 0.758000 96 106 109
-0.040062 0.176601 0.758000 96 106 109
-0.038146 0.176834 0.759000 93 103 106
-0.036224 0.177067 0.760000 93 103 106
-0.034252 0.177067 0.760000 93 103 106
-0.032281 0.177067 0.760000 90 100 103
-0.030309 0.177067 0.760000 93 103 106
-0.028337 0.177067 0.760000 96 106 109
-0.026365 0.177067 0.760000 103 113 116
-0.024361 0.176834 0.759000 112 119 123
-0.022392 0.176834 0.759000 121 128 132
-0.020423 0.176834 0.759000 132 139 145
-0.018454 0.176834 0.759000 141 148 154
-0.016485 0.176834 0.759000 151 161 166
-0.014516 0.176834 0.759000 157 167 172
-0.055868 0.178806 0.759000 183 191 190
-0.053899 0.178806 0.759000 170 178 177
-0.051861 0.178570 0.758000 150 161 157
-0.049895 0.178570 0.758000 130 141 137
-0.047928 0.178570 0.758000 117 125 124
-0.045961 0.178570 0.758000 111 119 118
-0.043995 0.178570 0.758000 111 119 118
-0.042084 0.178806 0.759000 113 121 120
-0.040115 0.178806 0.759000 111 119 120
-0.038146 0.178806 0.759000 110 118 119
-0.036224 0.179041 0.760000 106 114 115
-0.034252 0.179041 0.760000 103 111 112
-0.032281 0.179041 0.760000 100 108 109
-0.030309 0.179041 0.760000 99 107 108
-0.028337 0.179041 0.760000 99 107 108
-0.026365 0.179041 0.760000 100 108 109
-0.024394 0.179041 0.760000 96 104 105
-0.022392 0.178806 0.759000 95 103 104
-0.020423 0.178806 0.759000 96 103 107
-0.018454 0.178806 0.759000 98 105 109
-0.016485 0.178806 0.759000 107 114 120
-0.014516 0.178806 0.759000 116 123 129
-0.012547 0.178806 0.759000 121 128 134
-0.010577 0.178806 0.759000 134 141 147
-0.008608 0.178806 0.759000 137 144 150
-0.006639 0.178806 0.759000 150 157 163
-0.004676 0.179041 0.760000 160 167 173
-0.002704 0.179041 0.760000 164 171 177
-0.048054 0.181016 0.760000 183 191 190
-0.046083 0.181016 0.760000 177 185 184
-0.044111 0.181016 0.760000 167 175 176
-0.042139 0.181016 0.760000 150 158 159
-0.040168 0.181016 0.760000 131 139 140
-0.038196 0.181016 0.760000 117 125 126
-0.036224 0.181016 0.760000 111 119 120
-0.034297 0.181254 0.761000 109 117 118
-0.032323 0.181254 0.761000 110 118 117
-0.030349 0.181254 0.761000 105 113 112
-0.028374 0.181254 0.761000 109 117 116
-0.026365 0.181016 0.760000 104 112 111
-0.024394 0.181016 0.760000 105 113 114
-0.022422 0.181016 0.760000 107 115 116
-0.020423 0.180777 0.759000 103 111 112
-0.018454 0.180777 0.759000 97 105 106
-0.016485 0.180777 0.759000 100 107 111
-0.014516 0.180777 0.759000 102 109 113
-0.012547 0.180777 0.759000 98 105 109
-0.010591 0.181016 0.760000 95 102 106
-0.008608 0.180777 0.759000 96 103 107
-0.006639 0.180777 0.759000 98 105 109
-0.004676 0.181016 0.760000 102 109 115
-0.002704 0.181016 0.760000 110 117 123
-0.000733 0.181016 0.760000 124 129 136
0.001239 0.181016 0.760000 133 138 145
0.003211 0.181016 0.760000 143 147 159
0.005183 0.181016 0.760000 155 159 171
0.007154 0.181016 0.760000 160 167 175
0.009138 0.181254 0.761000 164 171 179
-0.038246 0.183231 0.761000 185 193 194
-0.036272 0.183231 0.761000 176 184 183
-0.034297 0.183231 0.761000 170 178 177
-0.032323 0.183231 0.761000 159 167 166
-0.030349 0.183231 0.761000 148 156 155
-0.028374 0.183231 0.761000 131 142 140
-0.026400 0.183231 0.761000 116 127 125
-0.024426 0.183231 0.761000 109 120 120
-0.022422 0.182990 0.760000 107 118 118
-0.020450 0.182990 0.760000 107 115 116
-0.018478 0.182990 0.760000 107 115 116
-0.016507 0.182990 0.760000 106 114 115
-0.014516 0.182749 0.759000 105 113 114
-0.012563 0.182990 0.760000 101 111 114
-0.010591 0.182990 0.760000 103 113 116
-0.008620 0.182990 0.760000 97 107 110
-0.006648 0.182990 0.760000 95 105 108
-0.004676 0.182990 0.760000 95 105 108
-0.002704 0.182990 0.760000 97 107 110
-0.000733 0.182990 0.760000 97 107 110
0.001239 0.182990 0.760000 96 106 109
0.003211 0.182990 0.760000 100 107 113
0.005183 0.182990 0.760000 104 111 117
0.007154 0.182990 0.760000 109 116 124
0.009138 0.183231 0.761000 117 124 132
0.011112 0.183231 0.761000 125 132 140
0.013087 0.183231 0.761000 133 140 148
0.015061 0.183231 0.761000 140 147 153
0.017035 0.183231 0.761000 145 152 158
0.019010 0.183231 0.761000 153 160 166
-0.028412 0.185451 0.762000 184 192 191
-0.026400 0.185208 0.761000 182 190 189
-0.024426 0.185208 0.761000 171 182 180
-0.022451 0.185208 0.761000 157 168 166
-0.020477 0.185208 0.761000 146 152 152
-0.018503 0.185208 0.761000 132 138 138
-0.016528 0.185208 0.761000 120 128 129
-0.014554 0.185208 0.761000 114 122 123
-0.012580 0.185208 0.761000 106 118 120
-0.010605 0.185208 0.761000 101 113 115
-0.008631 0.185208 0.761000 102 114 116
-0.006657 0.185208 0.761000 104 116 118
-0.004682 0.185208 0.761000 104 114 117
-0.002708 0.185208 0.761000 103 113 116
-0.000734 0.185208 0.761000 103 113 116
0.001241 0.185208 0.761000 102 112 115
0.003215 0.185208 0.761000 100 110 113
0.005183 0.184964 0.760000 100 110 113
0.007164 0.185208 0.761000 93 103 108
0.009138 0.185208 0.761000 91 101 106
0.011112 0.185208 0.761000 93 103 108
0.013087 0.185208 0.761000 95 105 110
0.015061 0.185208 0.761000 97 104 112
0.017035 0.185208 0.761000 98 105 113
0.019010 0.185208 0.761000 107 114 122
0.020984 0.185208 0.761000 113 120 128
0.022958 0.185208 0.761000 120 127 135
0.024933 0.185208 0.761000 128 135 143
0.026907 0.185208 0.761000 139 146 152
0.028881 0.185208 0.761000 142 149 155
0.030856 0.185208 0.761000 146 153 157
0.032830 0.185208 0.761000 149 156 160
-0.016550 0.187431 0.762000 183 189 191
-0.014573 0.187431 0.762000 176 182 184
-0.012580 0.187185 0.761000 169 177 178
-0.010605 0.187185 0.761000 156 164 165
-0.008631 0.187185 0.761000 142 150 151
-0.006657 0.187185 0.761000 127 135 136
-0.004682 0.187185 0.761000 114 120 120
-0.002708 0.187185 0.761000 111 117 117
-0.000734 0.187185 0.761000 104 117 116
0.001241 0.187185 0.761000 103 116 115
0.003215 0.187185 0.761000 107 119 121
0.005189 0.187185 0.761000 107 119 121
0.007164 0.187185 0.761000 104 116 118
0.009138 0.187185 0.761000 99 111 113
0.011127 0.187431 0.762000 103 110 114
0.013087 0.187185 0.761000 103 110 114
0.015061 0.187185 0.761000 98 105 111
0.017035 0.187185 0.761000 96 103 109
0.019010 0.187185 0.761000 100 107 113
0.020984 0.187185 0.761000 99 106 112
0.022958 0.187185 0.761000 93 100 106
0.024966 0.187431 0.762000 93 100 106
0.026942 0.187431 0.762000 96 103 107
0.028881 0.187185 0.761000 99 106 110
0.030856 0.187185 0.761000 105 112 116
0.032830 0.187185 0.761000 109 116 120
0.034804 0.187185 0.761000 115 125 130
0.036827 0.187431 0.762000 123 133 138
0.038804 0.187431 0.762000 125 135 142
0.040781 0.187431 0.762000 132 142 149
0.042758 0.187431 0.762000 139 146 152
0.044735 0.187431 0.762000 149 156 162
0.046712 0.187431 0.762000 151 156 161
0.048689 0.187431 0.762000 155 160 165
-0.006665 0.189410 0.762000 185 191 193
-0.004688 0.189410 0.762000 184 190 190
-0.002712 0.189410 0.762000 176 182 182
-0.000735 0.189410 0.762000 166 174 175
0.001242 0.189410 0.762000 152 160 161
0.003219 0.189410 0.762000 140 150 153
0.005196 0.189410 0.762000 136 146 149
0.007173 0.189410 0.762000 126 132 134
0.009150 0.189410 0.762000 113 119 121
0.011127 0.189410 0.762000 114 117 120
0.013104 0.189410 0.762000 109 112 115
0.015081 0.189410 0.762000 106 114 115
0.017058 0.189410 0.762000 107 115 116
0.019035 0.189410 0.762000 104 111 115
0.021012 0.189410 0.762000 105 112 116
0.022989 0.189410 0.762000 103 111 112
0.024966 0.189410 0.762000 100 108 109
0.026942 0.189410 0.762000 99 105 105
0.028919 0.189410 0.762000 103 109 109
0.030896 0.189410 0.762000 100 106 106
0.032873 0.189410 0.762000 99 105 105
0.034850 0.189410 0.762000 97 104 108
0.036827 0.189410 0.762000 97 104 108
0.038804 0.189410 0.762000 100 107 113
0.040781 0.189410 0.762000 104 111 117
0.042758 0.189410 0.762000 106 113 119
0.044735 0.189410 0.762000 113 120 126
0.046712 0.189410 0.762000 119 126 132
0.048753 0.189659 0.763000 124 131 137
0.050732 0.189659 0.763000 131 138 144
0.052643 0.189410 0.762000 134 141 147
0.054619 0.189410 0.762000 141 148 154
0.056596 0.189410 0.762000 138 145 151
0.058573 0.189410 0.762000 140 147 153
0.060550 0.189410 0.762000 144 151 157
0.005203 0.191641 0.763000 184 192 193
0.007183 0.191641 0.763000 183 191 192
0.009162 0.191641 0.763000 183 191 192
0.011142 0.191641 0.763000 176 182 184
0.013121 0.191641 0.763000 161 167 169
0.015101 0.191641 0.763000 142 150 151
0.017058 0.191390 0.762000 126 134 135
0.019035 0.191390 0.762000 120 128 127
0.021012 0.191390 0.762000 114 122 121
0.022989 0.191390 0.762000 114 117 116
0.024966 0.191390 0.762000 109 112 111
0.026942 0.191390 0.762000 109 112 111
0.028919 0.191390 0.762000 109 112 111
0.030896 0.191390 0.762000 106 112 110
0.032873 0.191390 0.762000 107 113 111
0.034850 0.191390 0.762000 105 111 111
0.036827 0.191390 0.762000 105 111 111
0.038804 0.191390 0.762000 104 110 110
0.040781 0.191390 0.762000 105 111 111
0.042758 0.191390 0.762000 103 109 111
0.044794 0.191641 0.763000 101 107 109
0.046773 0.191641 0.763000 101 106 111
0.048753 0.191641 0.763000 103 108 113
0.050732 0.191641 0.763000 100 105 110
0.052712 0.191641 0.763000 104 109 114
0.054691 0.191641 0.763000 111 116 121
0.056671 0.191641 0.763000 115 120 125
0.058650 0.191641 0.763000 121 128 132
0.060550 0.191390 0.762000 124 131 135
0.062527 0.191390 0.762000 133 140 144
0.064504 0.191390 0.762000 135 142 146
0.066481 0.191390 0.762000 135 142 146
0.068458 0.191390 0.762000 139 146 150
0.070527 0.191641 0.763000 136 146 149
0.072507 0.191641 0.763000 138 148 151
0.074486 0.191641 0.763000 138 149 149
0.076466 0.191641 0.763000 139 150 150
0.078548 0.191892 0.764000 142 153 153
0.080530 0.191892 0.764000 143 154 154
0.082513 0.191892 0.764000 146 156 159
0.084495 0.191892 0.764000 147 157 160
0.019085 0.193877 0.764000 183 189 189
0.021067 0.193877 0.764000 178 184 184
0.023049 0.193877 0.764000 171 177 175
0.025031 0.193877 0.764000 164 170 168
0.027013 0.193877 0.764000 153 161 158
0.028957 0.193623 0.763000 139 147 144
0.030977 0.193877 0.764000 121 129 128
0.032960 0.193877 0.764000 111 119 118
0.034896 0.193623 0.763000 110 118 115
0.036875 0.193623 0.763000 107 115 112
0.038855 0.193623 0.763000 107 115 112
0.040834 0.193623 0.763000 111 119 116
0.042814 0.193623 0.763000 109 117 116
0.044852 0.193877 0.764000 105 113 112
0.046834 0.193877 0.764000 104 112 113
0.048816 0.193877 0.764000 105 113 114
0.050799 0.193877 0.764000 103 110 114
0.052781 0.193877 0.764000 99 106 110
0.054691 0.193623 0.763000 99 105 107
0.056671 0.193623 0.763000 99 105 107
0.058650 0.193623 0.763000 97 103 105
0.060630 0.193623 0.763000 98 104 106
0.062609 0.193623 0.763000 100 105 110
0.064589 0.193623 0.763000 104 109 114
0.066568 0.193623 0.763000 108 114 116
0.068548 0.193623 0.763000 115 121 123
0.070527 0.193623 0.763000 122 128 130
0.072507 0.193623 0.763000 129 135 137
0.074584 0.193877 0.764000 133 139 141
0.076566 0.193877 0.764000 131 137 139
0.078651 0.194130 0.765000 130 138 139
0.080636 0.194130 0.765000 137 145 146
0.082621 0.194130 0.765000 133 143 146
0.084605 0.194130 0.765000 135 145 148
0.086590 0.194130 0.765000 133 143 148
0.088575 0.194130 0.765000 133 143 148
0.090678 0.194384 0.766000 135 145 152
0.092665 0.194384 0.766000 131 141 148
0.094652 0.194384 0.766000 131 141 148
0.096766 0.194638 0.767000 135 145 152
0.098756 0.194638 0.767000 130 140 147
0.100877 0.194892 0.768000 129 139 146
0.103003 0.195146 0.769000 129 139 146
0.104999 0.195146 0.769000 129 139 146
0.107272 0.195653 0.771000 126 136 141
0.109414 0.195907 0.772000 133 143 148
0.031018 0.196118 0.765000 182 190 189
0.033003 0.196118 0.765000 180 188 187
0.034987 0.196118 0.765000 170 178 177
0.036972 0.196118 0.765000 160 168 167
0.038957 0.196118 0.765000 149 157 156
0.040942 0.196118 0.765000 135 143 142
0.042926 0.196118 0.765000 121 132 132
0.044911 0.196118 0.765000 108 119 119
0.046896 0.196118 0.765000 103 114 114
0.048880 0.196118 0.765000 102 113 113
0.050865 0.196118 0.765000 103 111 112
0.052850 0.196118 0.765000 100 108 109
0.054835 0.196118 0.765000 103 111 110
0.056819 0.196118 0.765000 102 110 109
0.058804 0.196118 0.765000 101 107 105
0.060709 0.195861 0.764000 103 109 107
0.062691 0.195861 0.764000 103 111 112
0.064673 0.195861 0.764000 104 112 113
0.066656 0.195861 0.764000 99 106 110
0.068638 0.195861 0.764000 93 100 104
0.070620 0.195861 0.764000 96 104 105
0.072697 0.196118 0.765000 97 105 106
0.074682 0.196118 0.765000 96 104 105
0.076767 0.196374 0.766000 96 104 105
0.078754 0.196374 0.766000 98 106 107
0.080741 0.196374 0.766000 99 107 108
0.082837 0.196631 0.767000 104 111 115
0.084716 0.196374 0.766000 107 114 118
0.086816 0.196631 0.767000 107 114 118
0.088806 0.196631 0.767000 110 117 121
0.090796 0.196631 0.767000 107 114 120
0.092786 0.196631 0.767000 106 113 119
0.094899 0.196887 0.768000 103 113 118
0.097018 0.197143 0.769000 101 111 116
0.099013 0.197143 0.769000 98 108 113
0.101008 0.197143 0.769000 101 111 116
0.103137 0.197400 0.770000 93 103 108
0.105272 0.197656 0.771000 90 100 105
0.107411 0.197912 0.772000 93 100 106
0.109556 0.198169 0.773000 91 98 104
0.111705 0.198425 0.774000 105 110 115
0.113713 0.198425 0.774000 141 146 151
0.047018 0.198623 0.767000 172 183 183
0.048944 0.198364 0.766000 159 170 170
0.050932 0.198364 0.766000 152 160 157
0.052919 0.198364 0.766000 139 147 144
0.054906 0.198364 0.766000 127 133 131
0.056893 0.198364 0.766000 120 126 124
0.058881 0.198364 0.766000 111 119 116
0.060789 0.198105 0.765000 104 112 109
0.062773 0.198105 0.765000 100 111 109
0.064758 0.198105 0.765000 101 112 110
0.066743 0.198105 0.765000 102 113 113
0.068817 0.198364 0.766000 102 113 113
0.070805 0.198364 0.766000 101 112 112
0.072982 0.198882 0.768000 100 111 111
0.075072 0.199141 0.769000 97 105 106
0.077067 0.199141 0.769000 99 107 108
0.079062 0.199141 0.769000 98 106 107
0.081057 0.199141 0.769000 98 106 107
0.083053 0.199141 0.769000 95 105 108
0.085048 0.199141 0.769000 96 106 109
0.087043 0.199141 0.769000 94 104 107
0.089038 0.199141 0.769000 94 104 107
0.091033 0.199141 0.769000 94 104 107
0.093028 0.199141 0.769000 91 101 104
0.095147 0.199400 0.770000 88 100 102
0.097144 0.199400 0.770000 94 106 108
0.099142 0.199400 0.770000 92 106 110
0.101140 0.199400 0.770000 94 108 112
0.103271 0.199659 0.771000 93 107 111
0.105408 0.199918 0.772000 93 107 111
0.107550 0.200177 0.773000 95 107 111
0.109697 0.200436 0.774000 94 106 110
0.111705 0.200436 0.774000 92 97 102
0.113860 0.200695 0.775000 114 119 124
0.057042 0.200877 0.768000 178 186 183
0.059035 0.200877 0.768000 174 182 181
0.061027 0.200877 0.768000 167 175 174
0.062937 0.200616 0.767000 158 169 167
0.064927 0.200616 0.767000 147 158 156
0.066917 0.200616 0.767000 134 142 141
0.068997 0.200877 0.768000 124 132 131
0.071082 0.201139 0.769000 112 120 117
0.073077 0.201139 0.769000 110 118 115
0.075170 0.201400 0.770000 106 114 111
0.077167 0.201400 0.770000 105 113 110
0.079165 0.201400 0.770000 104 112 111
0.081268 0.201662 0.771000 103 111 110
0.083269 0.201662 0.771000 102 109 113
0.085269 0.201662 0.771000 102 109 113
0.087269 0.201662 0.771000 98 108 111
0.089269 0.201662 0.771000 101 111 114
0.091270 0.201662 0.771000 101 113 115
0.093270 0.201662 0.771000 102 114 116
0.095394 0.201923 0.772000 99 111 113
0.097270 0.201662 0.771000 97 109 111
0.099400 0.201923 0.772000 95 109 111
0.101402 0.201923 0.772000 95 109 111
0.103405 0.201923 0.772000 95 109 111
0.105545 0.202185 0.773000 95 109 111
0.107689 0.202447 0.774000 94 108 110
0.109697 0.202447 0.774000 93 107 109
0.111850 0.202708 0.775000 98 106 107
0.114007 0.202970 0.776000 112 120 121
0.071359 0.203929 0.772000 180 188 185
0.073362 0.203929 0.772000 178 186 183
0.075365 0.203929 0.772000 173 181 178
0.077368 0.203929 0.772000 166 174 171
0.079371 0.203929 0.772000 162 170 169
0.081374 0.203929 0.772000 163 171 170
0.083377 0.203929 0.772000 145 153 154
0.085379 0.203929 0.772000 140 148 149
0.087382 0.203929 0.772000 135 143 142
0.089501 0.204193 0.773000 132 140 139
0.091388 0.203929 0.772000 131 142 140
0.093512 0.204193 0.773000 126 137 135
0.095517 0.204193 0.773000 128 139 137
0.097523 0.204193 0.773000 129 140 138
0.099528 0.204193 0.773000 125 138 135
0.101665 0.204457 0.774000 127 140 137
0.103673 0.204457 0.774000 129 142 139
0.105818 0.204721 0.775000 129 142 139
0.107828 0.204721 0.775000 136 149 148
0.109839 0.204721 0.775000 136 149 148
0.111994 0.204986 0.776000 149 157 158
