ply
format ascii 1.0
element vertex 337
property float x
property float y
property float z
end_header
-0.111662 -0.145923 0.660000
-0.110121 -0.146144 0.661000
-0.108410 -0.146144 0.661000
-0.113542 -0.144431 0.661000
-0.111832 -0.144431 0.661000
-0.110288 -0.144649 0.662000
-0.108574 -0.144649 0.662000
-0.118675 -0.142718 0.661000
-0.116964 -0.142718 0.661000
-0.115253 -0.142718 0.661000
-0.113714 -0.142934 0.662000
-0.112001 -0.142934 0.662000
-0.110288 -0.142934 0.662000
-0.108574 -0.142934 0.662000
-0.106861 -0.142934 0.662000
-0.105307 -0.143150 0.663000
-0.103591 -0.143150 0.663000
-0.101875 -0.143150 0.663000
-0.120567 -0.141218 0.662000
-0.118854 -0.141218 0.662000
-0.117141 -0.141218 0.662000
-0.115427 -0.141218 0.662000
-0.113714 -0.141218 0.662000
-0.112001 -0.141218 0.662000
-0.110454 -0.141432 0.663000
-0.108738 -0.141432 0.663000
-0.107022 -0.141432 0.663000
-0.105307 -0.141432 0.663000
-0.103747 -0.141645 0.664000
-0.122465 -0.139713 0.663000
-0.120749 -0.139713 0.663000
-0.119034 -0.139713 0.663000
-0.117318 -0.139713 0.663000
-0.115602 -0.139713 0.663000
-0.113886 -0.139713 0.663000
-0.112170 -0.139713 0.663000
-0.110454 -0.139713 0.663000
-0.108738 -0.139713 0.663000
-0.107022 -0.139713 0.663000
-0.105465 -0.139924 0.664000
-0.103747 -0.139924 0.664000
-0.126087 -0.138203 0.664000
-0.124369 -0.138203 0.664000
-0.122650 -0.138203 0.664000
-0.120932 -0.138203 0.664000
-0.119034 -0.137995 0.663000
-0.117318 -0.137995 0.663000
-0.115602 -0.137995 0.663000
-0.113886 -0.137995 0.663000
-0.112170 -0.137995 0.663000
-0.110454 -0.137995 0.663000
-0.108902 -0.138203 0.664000
-0.107184 -0.138203 0.664000
-0.105465 -0.138203 0.664000
-0.103747 -0.138203 0.664000
-0.102028 -0.138203 0.664000
-0.129524 -0.136483 0.664000
-0.127805 -0.136483 0.664000
-0.126087 -0.136483 0.664000
-0.124369 -0.136483 0.664000
-0.122650 -0.136483 0.664000
-0.120932 -0.136483 0.664000
-0.119213 -0.136483 0.664000
-0.117495 -0.136483 0.664000
-0.115776 -0.136483 0.664000
-0.114058 -0.136483 0.664000
-0.112339 -0.136483 0.664000
-0.110621 -0.136483 0.664000
-0.108902 -0.136483 0.664000
-0.107184 -0.136483 0.664000
-0.105465 -0.136483 0.664000
-0.103747 -0.136483 0.664000
-0.102028 -0.136483 0.664000
-0.133161 -0.134965 0.665000
-0.131440 -0.134965 0.665000
-0.129719 -0.134965 0.665000
-0.127998 -0.134965 0.665000
-0.126087 -0.134762 0.664000
-0.124369 -0.134762 0.664000
-0.122650 -0.134762 0.664000
-0.120932 -0.134762 0.664000
-0.119213 -0.134762 0.664000
-0.117495 -0.134762 0.664000
-0.115776 -0.134762 0.664000
-0.114058 -0.134762 0.664000
-0.112339 -0.134762 0.664000
-0.110621 -0.134762 0.664000
-0.108902 -0.134762 0.664000
-0.107184 -0.134762 0.664000
-0.105465 -0.134762 0.664000
-0.103747 -0.134762 0.664000
-0.102028 -0.134762 0.664000
-0.136603 -0.133242 0.665000
-0.134882 -0.133242 0.665000
-0.133161 -0.133242 0.665000
-0.131440 -0.133242 0.665000
-0.129719 -0.133242 0.665000
-0.127998 -0.133242 0.665000
-0.126277 -0.133242 0.665000
-0.124556 -0.133242 0.665000
-0.122835 -0.133242 0.665000
-0.121114 -0.133242 0.665000
-0.119213 -0.133041 0.664000
-0.117495 -0.133041 0.664000
-0.115776 -0.133041 0.664000
-0.114058 -0.133041 0.664000
-0.112339 -0.133041 0.664000
-0.110621 -0.133041 0.664000
-0.108902 -0.133041 0.664000
-0.107184 -0.133041 0.664000
-0.105465 -0.133041 0.664000
-0.103903 -0.133242 0.665000
-0.138324 -0.131518 0.665000
-0.136603 -0.131518 0.665000
-0.134882 -0.131518 0.665000
-0.133161 -0.131518 0.665000
-0.131440 -0.131518 0.665000
-0.129719 -0.131518 0.665000
-0.127998 -0.131518 0.665000
-0.126277 -0.131518 0.665000
-0.124556 -0.131518 0.665000
-0.122835 -0.131518 0.665000
-0.121114 -0.131518 0.665000
-0.119393 -0.131518 0.665000
-0.117672 -0.131518 0.665000
-0.115951 -0.131518 0.665000
-0.114229 -0.131518 0.665000
-0.112508 -0.131518 0.665000
-0.110787 -0.131518 0.665000
-0.109066 -0.131518 0.665000
-0.107345 -0.131518 0.665000
-0.105624 -0.131518 0.665000
-0.103903 -0.131518 0.665000
-0.141980 -0.129990 0.666000
-0.140256 -0.129990 0.666000
-0.138532 -0.129990 0.666000
-0.136603 -0.129795 0.665000
-0.134882 -0.129795 0.665000
-0.133161 -0.129795 0.665000
-0.131440 -0.129795 0.665000
-0.129719 -0.129795 0.665000
-0.127998 -0.129795 0.665000
-0.126277 -0.129795 0.665000
-0.124556 -0.129795 0.665000
-0.122835 -0.129795 0.665000
-0.121114 -0.129795 0.665000
-0.119393 -0.129795 0.665000
-0.117672 -0.129795 0.665000
-0.115951 -0.129795 0.665000
-0.114229 -0.129795 0.665000
-0.112508 -0.129795 0.665000
-0.110787 -0.129795 0.665000
-0.109066 -0.129795 0.665000
-0.107345 -0.129795 0.665000
-0.105624 -0.129795 0.665000
-0.103903 -0.129795 0.665000
-0.145427 -0.128264 0.666000
-0.143703 -0.128264 0.666000
-0.141980 -0.128264 0.666000
-0.140256 -0.128264 0.666000
-0.138532 -0.128264 0.666000
-0.136809 -0.128264 0.666000
-0.135085 -0.128264 0.666000
-0.133361 -0.128264 0.666000
-0.131440 -0.128072 0.665000
-0.129719 -0.128072 0.665000
-0.127998 -0.128072 0.665000
-0.126277 -0.128072 0.665000
-0.124556 -0.128072 0.665000
-0.122835 -0.128072 0.665000
-0.121114 -0.128072 0.665000
-0.119393 -0.128072 0.665000
-0.117672 -0.128072 0.665000
-0.115951 -0.128072 0.665000
-0.114229 -0.128072 0.665000
-0.112508 -0.128072 0.665000
-0.110787 -0.128072 0.665000
-0.109066 -0.128072 0.665000
-0.107345 -0.128072 0.665000
-0.147151 -0.126538 0.666000
-0.145427 -0.126538 0.666000
-0.143703 -0.126538 0.666000
-0.141980 -0.126538 0.666000
-0.140256 -0.126538 0.666000
-0.138532 -0.126538 0.666000
-0.136809 -0.126538 0.666000
-0.135085 -0.126538 0.666000
-0.133361 -0.126538 0.666000
-0.131638 -0.126538 0.666000
-0.129914 -0.126538 0.666000
-0.128190 -0.126538 0.666000
-0.126277 -0.126348 0.665000
-0.124556 -0.126348 0.665000
-0.122835 -0.126348 0.665000
-0.121114 -0.126348 0.665000
-0.119393 -0.126348 0.665000
-0.117672 -0.126348 0.665000
-0.115951 -0.126348 0.665000
-0.114229 -0.126348 0.665000
-0.112508 -0.126348 0.665000
-0.110787 -0.126348 0.665000
-0.109066 -0.126348 0.665000
-0.107345 -0.126348 0.665000
-0.147372 -0.125000 0.667000
-0.145645 -0.125000 0.667000
-0.143703 -0.124812 0.666000
-0.141980 -0.124812 0.666000
-0.140256 -0.124812 0.666000
-0.138532 -0.124812 0.666000
-0.136809 -0.124812 0.666000
-0.135085 -0.124812 0.666000
-0.133361 -0.124812 0.666000
-0.131638 -0.124812 0.666000
-0.129914 -0.124812 0.666000
-0.128190 -0.124812 0.666000
-0.126467 -0.124812 0.666000
-0.124743 -0.124812 0.666000
-0.123019 -0.124812 0.666000
-0.121114 -0.124625 0.665000
-0.119393 -0.124625 0.665000
-0.117672 -0.124625 0.665000
-0.115951 -0.124625 0.665000
-0.114229 -0.124625 0.665000
-0.112508 -0.124625 0.665000
-0.110954 -0.124812 0.666000
-0.109230 -0.124812 0.666000
-0.147372 -0.123271 0.667000
-0.145645 -0.123271 0.667000
-0.143919 -0.123271 0.667000
-0.142193 -0.123271 0.667000
-0.140467 -0.123271 0.667000
-0.138740 -0.123271 0.667000
-0.136809 -0.123086 0.666000
-0.135085 -0.123086 0.666000
-0.133361 -0.123086 0.666000
-0.131638 -0.123086 0.666000
-0.129914 -0.123086 0.666000
-0.128190 -0.123086 0.666000
-0.126467 -0.123086 0.666000
-0.124743 -0.123086 0.666000
-0.123019 -0.123086 0.666000
-0.121296 -0.123086 0.666000
-0.119572 -0.123086 0.666000
-0.117849 -0.123086 0.666000
-0.116125 -0.123086 0.666000
-0.114401 -0.123086 0.666000
-0.112678 -0.123086 0.666000
-0.110954 -0.123086 0.666000
-0.147372 -0.121543 0.667000
-0.145645 -0.121543 0.667000
-0.143919 -0.121543 0.667000
-0.142193 -0.121543 0.667000
-0.140467 -0.121543 0.667000
-0.138740 -0.121543 0.667000
-0.137014 -0.121543 0.667000
-0.135288 -0.121543 0.667000
-0.133562 -0.121543 0.667000
-0.131835 -0.121543 0.667000
-0.129914 -0.121360 0.666000
-0.128190 -0.121360 0.666000
-0.126467 -0.121360 0.666000
-0.124743 -0.121360 0.666000
-0.123019 -0.121360 0.666000
-0.121296 -0.121360 0.666000
-0.119572 -0.121360 0.666000
-0.117849 -0.121360 0.666000
-0.116125 -0.121360 0.666000
-0.114401 -0.121360 0.666000
-0.112678 -0.121360 0.666000
-0.110954 -0.121360 0.666000
-0.147372 -0.119814 0.667000
-0.145645 -0.119814 0.667000
-0.143919 -0.119814 0.667000
-0.142193 -0.119814 0.667000
-0.140467 -0.119814 0.667000
-0.138740 -0.119814 0.667000
-0.137014 -0.119814 0.667000
-0.135288 -0.119814 0.667000
-0.133562 -0.119814 0.667000
-0.131835 -0.119814 0.667000
-0.130109 -0.119814 0.667000
-0.128383 -0.119814 0.667000
-0.126657 -0.119814 0.667000
-0.124930 -0.119814 0.667000
-0.123204 -0.119814 0.667000
-0.121478 -0.119814 0.667000
-0.119752 -0.119814 0.667000
-0.118025 -0.119814 0.667000
-0.116299 -0.119814 0.667000
-0.114573 -0.119814 0.667000
-0.112847 -0.119814 0.667000
-0.147592 -0.118263 0.668000
-0.145645 -0.118086 0.667000
-0.143919 -0.118086 0.667000
-0.142406 -0.118263 0.668000
-0.140467 -0.118086 0.667000
-0.138740 -0.118086 0.667000
-0.137014 -0.118086 0.667000
-0.135288 -0.118086 0.667000
-0.133562 -0.118086 0.667000
-0.131835 -0.118086 0.667000
-0.130109 -0.118086 0.667000
-0.128383 -0.118086 0.667000
-0.126657 -0.118086 0.667000
-0.124930 -0.118086 0.667000
-0.123204 -0.118086 0.667000
-0.121478 -0.118086 0.667000
-0.116299 -0.118086 0.667000
-0.147592 -0.116532 0.668000
-0.145864 -0.116532 0.668000
-0.144135 -0.116532 0.668000
-0.142406 -0.116532 0.668000
-0.140677 -0.116532 0.668000
-0.138948 -0.116532 0.668000
-0.137220 -0.116532 0.668000
-0.135491 -0.116532 0.668000
-0.133762 -0.116532 0.668000
-0.132033 -0.116532 0.668000
-0.130304 -0.116532 0.668000
-0.128575 -0.116532 0.668000
-0.126847 -0.116532 0.668000
-0.125118 -0.116532 0.668000
-0.123389 -0.116532 0.668000
-0.147813 -0.114972 0.669000
-0.145864 -0.114800 0.668000
-0.144135 -0.114800 0.668000
-0.142406 -0.114800 0.668000
-0.140677 -0.114800 0.668000
-0.138948 -0.114800 0.668000
-0.137220 -0.114800 0.668000
-0.135491 -0.114800 0.668000
-0.133762 -0.114800 0.668000
-0.132033 -0.114800 0.668000
-0.130304 -0.114800 0.668000
-0.128575 -0.114800 0.668000
-0.126847 -0.114800 0.668000
-0.125118 -0.114800 0.668000
