ply
format ascii 1.0
element vertex 337
property float x
property float y
property float z
end_header
0.275397 0.210104 0.484730
0.273859 0.211131 0.484669
0.272157 0.211139 0.484488
0.277087 0.210580 0.486648
0.275385 0.210589 0.486468
0.273844 0.211615 0.486408
0.272140 0.211624 0.486228
0.282016 0.210021 0.488807
0.280315 0.210029 0.488627
0.278613 0.210038 0.488447
0.277077 0.211063 0.488391
0.275373 0.211072 0.488210
0.273670 0.211081 0.488029
0.271966 0.211089 0.487849
0.270262 0.211098 0.487668
0.268710 0.212123 0.487610
0.267004 0.212132 0.487430
0.265298 0.212141 0.487249
0.283717 0.210494 0.490734
0.282014 0.210503 0.490553
0.280310 0.210512 0.490373
0.278606 0.210520 0.490192
0.276902 0.210529 0.490011
0.275199 0.210538 0.489831
0.273654 0.211562 0.489776
0.271948 0.211571 0.489596
0.270242 0.211580 0.489415
0.268535 0.211588 0.489234
0.266978 0.212613 0.489178
0.285424 0.210966 0.492666
0.283717 0.210975 0.492485
0.282011 0.210984 0.492304
0.280305 0.210992 0.492123
0.278598 0.211001 0.491942
0.276892 0.211010 0.491762
0.275186 0.211019 0.491581
0.273480 0.211027 0.491400
0.271773 0.211036 0.491219
0.270067 0.211045 0.491038
0.268512 0.212068 0.490985
0.266803 0.212077 0.490804
0.288843 0.211428 0.494785
0.287135 0.211437 0.494603
0.285426 0.211445 0.494422
0.283717 0.211454 0.494241
0.281836 0.210449 0.493928
0.280130 0.210457 0.493747
0.278424 0.210466 0.493566
0.276717 0.210475 0.493385
0.275011 0.210483 0.493204
0.273305 0.210492 0.493023
0.271755 0.211515 0.492973
0.270046 0.211524 0.492792
0.268337 0.211533 0.492611
0.266628 0.211541 0.492430
0.264919 0.211550 0.492248
0.292086 0.210875 0.496773
0.290377 0.210883 0.496592
0.288668 0.210892 0.496410
0.286959 0.210901 0.496229
0.285251 0.210910 0.496048
0.283542 0.210918 0.495867
0.281833 0.210927 0.495686
0.280124 0.210936 0.495505
0.278415 0.210944 0.495323
0.276706 0.210953 0.495142
0.274997 0.210962 0.494961
0.273288 0.210971 0.494780
0.271580 0.210979 0.494599
0.269871 0.210988 0.494418
0.268162 0.210997 0.494237
0.266453 0.211005 0.494055
0.264744 0.211014 0.493874
0.295520 0.211334 0.498900
0.293809 0.211343 0.498719
0.292098 0.211351 0.498538
0.290386 0.211360 0.498356
0.288493 0.210356 0.498036
0.286784 0.210365 0.497855
0.285075 0.210374 0.497674
0.283367 0.210382 0.497493
0.281658 0.210391 0.497312
0.279949 0.210400 0.497130
0.278240 0.210409 0.496949
0.276531 0.210417 0.496768
0.274822 0.210426 0.496587
0.273113 0.210435 0.496406
0.271404 0.210443 0.496225
0.269696 0.210452 0.496043
0.267987 0.210461 0.495862
0.266278 0.210470 0.495681
0.264569 0.210478 0.495500
0.298768 0.210780 0.500891
0.297057 0.210789 0.500710
0.295345 0.210797 0.500529
0.293634 0.210806 0.500347
0.291922 0.210815 0.500166
0.290211 0.210824 0.499984
0.288499 0.210832 0.499803
0.286788 0.210841 0.499621
0.285076 0.210850 0.499440
0.283365 0.210858 0.499259
0.281483 0.209855 0.498937
0.279774 0.209864 0.498756
0.278065 0.209873 0.498575
0.276356 0.209881 0.498394
0.274647 0.209890 0.498213
0.272938 0.209899 0.498032
0.271229 0.209908 0.497850
0.269521 0.209916 0.497669
0.267812 0.209925 0.497488
0.266251 0.210946 0.497444
0.300304 0.210235 0.502701
0.298593 0.210243 0.502520
0.296881 0.210252 0.502338
0.295170 0.210261 0.502157
0.293458 0.210269 0.501975
0.291747 0.210278 0.501794
0.290035 0.210287 0.501613
0.288324 0.210296 0.501431
0.286613 0.210304 0.501250
0.284901 0.210313 0.501068
0.283190 0.210322 0.500887
0.281478 0.210330 0.500705
0.279767 0.210339 0.500524
0.278055 0.210348 0.500343
0.276344 0.210357 0.500161
0.274632 0.210365 0.499980
0.272921 0.210374 0.499798
0.271210 0.210383 0.499617
0.269498 0.210392 0.499435
0.267787 0.210400 0.499254
0.266075 0.210409 0.499073
0.303755 0.210690 0.504840
0.302041 0.210699 0.504659
0.300327 0.210708 0.504477
0.298417 0.209707 0.504148
0.296706 0.209715 0.503967
0.294994 0.209724 0.503785
0.293283 0.209733 0.503604
0.291572 0.209742 0.503422
0.289860 0.209750 0.503241
0.288149 0.209759 0.503059
0.286437 0.209768 0.502878
0.284726 0.209776 0.502696
0.283014 0.209785 0.502515
0.281303 0.209794 0.502334
0.279591 0.209803 0.502152
0.277880 0.209811 0.501971
0.276169 0.209820 0.501789
0.274457 0.209829 0.501608
0.272746 0.209837 0.501426
0.271034 0.209846 0.501245
0.269323 0.209855 0.501064
0.267611 0.209864 0.500882
0.265900 0.209872 0.500701
0.307008 0.210135 0.506835
0.305294 0.210144 0.506653
0.303580 0.210153 0.506471
0.301866 0.210162 0.506289
0.300152 0.210170 0.506108
0.298438 0.210179 0.505926
0.296724 0.210188 0.505744
0.295010 0.210197 0.505563
0.293108 0.209196 0.505232
0.291396 0.209205 0.505050
0.289685 0.209214 0.504869
0.287973 0.209222 0.504688
0.286262 0.209231 0.504506
0.284550 0.209240 0.504325
0.282839 0.209248 0.504143
0.281128 0.209257 0.503962
0.279416 0.209266 0.503780
0.277705 0.209275 0.503599
0.275993 0.209283 0.503418
0.274282 0.209292 0.503236
0.272570 0.209301 0.503055
0.270859 0.209310 0.502873
0.269147 0.209318 0.502692
0.308546 0.209589 0.508647
0.306832 0.209598 0.508465
0.305118 0.209607 0.508284
0.303404 0.209615 0.508102
0.301690 0.209624 0.507920
0.299976 0.209633 0.507738
0.298262 0.209642 0.507557
0.296548 0.209650 0.507375
0.294834 0.209659 0.507193
0.293120 0.209668 0.507012
0.291406 0.209677 0.506830
0.289692 0.209685 0.506648
0.287798 0.208686 0.506316
0.286087 0.208694 0.506134
0.284375 0.208703 0.505953
0.282664 0.208712 0.505772
0.280952 0.208721 0.505590
0.279241 0.208729 0.505409
0.277529 0.208738 0.505227
0.275818 0.208747 0.505046
0.274106 0.208755 0.504864
0.272395 0.208764 0.504683
0.270683 0.208773 0.504502
0.268972 0.208782 0.504320
0.308581 0.210059 0.510434
0.306865 0.210068 0.510252
0.304943 0.209069 0.509914
0.303229 0.209078 0.509733
0.301515 0.209087 0.509551
0.299801 0.209096 0.509369
0.298087 0.209104 0.509187
0.296373 0.209113 0.509006
0.294659 0.209122 0.508824
0.292945 0.209130 0.508642
0.291231 0.209139 0.508461
0.289516 0.209148 0.508279
0.287802 0.209157 0.508097
0.286088 0.209165 0.507915
0.284374 0.209174 0.507734
0.282488 0.208175 0.507400
0.280777 0.208184 0.507218
0.279065 0.208193 0.507037
0.277354 0.208201 0.506855
0.275642 0.208210 0.506674
0.273931 0.208219 0.506493
0.272376 0.209235 0.506462
0.270662 0.209244 0.506280
0.308406 0.209521 0.512067
0.306689 0.209530 0.511885
0.304972 0.209539 0.511703
0.303256 0.209547 0.511521
0.301539 0.209556 0.511339
0.299823 0.209565 0.511157
0.297911 0.208567 0.510818
0.296197 0.208576 0.510636
0.294483 0.208584 0.510455
0.292769 0.208593 0.510273
0.291055 0.208602 0.510091
0.289341 0.208610 0.509910
0.287627 0.208619 0.509728
0.285913 0.208628 0.509546
0.284199 0.208637 0.509364
0.282485 0.208645 0.509183
0.280771 0.208654 0.509001
0.279057 0.208663 0.508819
0.277343 0.208672 0.508638
0.275629 0.208680 0.508456
0.273915 0.208689 0.508274
0.272201 0.208698 0.508093
0.308230 0.208983 0.513700
0.306513 0.208992 0.513518
0.304797 0.209000 0.513336
0.303080 0.209009 0.513154
0.301363 0.209018 0.512972
0.299647 0.209027 0.512790
0.297930 0.209035 0.512608
0.296214 0.209044 0.512426
0.294497 0.209053 0.512244
0.292780 0.209062 0.512063
0.290879 0.208064 0.511722
0.289165 0.208073 0.511540
0.287451 0.208082 0.511359
0.285737 0.208090 0.511177
0.284023 0.208099 0.510995
0.282309 0.208108 0.510813
0.280595 0.208117 0.510632
0.278881 0.208125 0.510450
0.277167 0.208134 0.510268
0.275453 0.208143 0.510087
0.273739 0.208152 0.509905
0.272025 0.208160 0.509723
0.308054 0.208445 0.515333
0.306337 0.208453 0.515151
0.304621 0.208462 0.514969
0.302904 0.208471 0.514787
0.301187 0.208480 0.514606
0.299471 0.208488 0.514424
0.297754 0.208497 0.514242
0.296038 0.208506 0.514060
0.294321 0.208515 0.513878
0.292604 0.208523 0.513696
0.290888 0.208532 0.513514
0.289171 0.208541 0.513332
0.287455 0.208550 0.513150
0.285738 0.208558 0.512968
0.284022 0.208567 0.512786
0.282305 0.208576 0.512604
0.280588 0.208585 0.512422
0.278872 0.208593 0.512240
0.277155 0.208602 0.512058
0.275439 0.208611 0.511876
0.273722 0.208620 0.511694
0.308088 0.208911 0.517133
0.306161 0.207915 0.516785
0.304445 0.207924 0.516603
0.302930 0.208937 0.516586
0.301012 0.207941 0.516239
0.299295 0.207950 0.516057
0.297578 0.207959 0.515875
0.295862 0.207968 0.515693
0.294145 0.207976 0.515511
0.292429 0.207985 0.515329
0.290712 0.207994 0.515147
0.288995 0.208003 0.514965
0.287279 0.208011 0.514783
0.285562 0.208020 0.514601
0.283846 0.208029 0.514419
0.282129 0.208038 0.514237
0.276979 0.208064 0.513691
0.307912 0.208371 0.518768
0.306192 0.208380 0.518586
0.304473 0.208389 0.518404
0.302754 0.208398 0.518222
0.301035 0.208407 0.518039
0.299316 0.208415 0.517857
0.297597 0.208424 0.517675
0.295877 0.208433 0.517493
0.294158 0.208442 0.517310
0.292439 0.208450 0.517128
0.290720 0.208459 0.516946
0.289001 0.208468 0.516764
0.287282 0.208477 0.516581
0.285562 0.208485 0.516399
0.283843 0.208494 0.516217
0.307945 0.208835 0.520575
0.306016 0.207841 0.520222
0.304297 0.207850 0.520039
0.302578 0.207859 0.519857
0.300859 0.207867 0.519675
0.299140 0.207876 0.519493
0.297420 0.207885 0.519310
0.295701 0.207894 0.519128
0.293982 0.207903 0.518946
0.292263 0.207911 0.518764
0.290544 0.207920 0.518581
0.288825 0.207929 0.518399
0.287105 0.207938 0.518217
0.285386 0.207946 0.518035
