ply
format ascii 1.0
element vertex 945
property float x
property float y
property float z
property uchar red
property uchar green
property uchar blue
end_header
-0.104541 -0.472003 0.738325 149 130 124
-0.108742 -0.472288 0.741441 126 115 108
-0.106725 -0.472487 0.741119 121 90 79
-0.104197 -0.471773 0.740336 121 90 79
-0.102182 -0.471971 0.740014 152 106 98
-0.100168 -0.472170 0.739692 171 125 117
-0.108398 -0.472058 0.743454 119 106 95
-0.106381 -0.472256 0.743132 117 78 60
-0.104363 -0.472455 0.742810 130 91 73
-0.101839 -0.471742 0.742025 149 87 70
-0.099824 -0.471940 0.741703 155 93 76
-0.097809 -0.472139 0.741381 166 117 107
-0.095295 -0.471424 0.740597 181 132 122
-0.106036 -0.472026 0.745145 109 74 57
-0.104019 -0.472225 0.744823 116 81 64
-0.102002 -0.472424 0.744501 135 71 53
-0.099480 -0.471710 0.743713 148 84 66
-0.097465 -0.471909 0.743392 158 88 72
-0.095451 -0.472107 0.743070 165 95 79
-0.093436 -0.472306 0.742748 168 118 111
-0.090433 -0.470677 0.741499 181 131 124
-0.105692 -0.471796 0.747158 130 106 92
-0.103675 -0.471995 0.746836 108 84 70
-0.101658 -0.472194 0.746514 123 67 51
-0.099136 -0.471480 0.745724 128 72 56
-0.097122 -0.471679 0.745402 146 76 60
-0.095107 -0.471877 0.745080 152 82 66
-0.093092 -0.472076 0.744759 150 83 68
-0.090584 -0.471361 0.743971 172 105 90
-0.088080 -0.470646 0.743184 175 132 125
-0.085582 -0.469930 0.742397 180 137 130
-0.101313 -0.471963 0.748527 123 88 71
-0.098793 -0.471250 0.747734 111 76 59
-0.096778 -0.471449 0.747413 126 67 49
-0.094763 -0.471647 0.747091 138 79 61
-0.092748 -0.471846 0.746769 147 78 59
-0.090734 -0.472044 0.746447 154 85 66
-0.088228 -0.471330 0.745657 157 94 80
-0.085728 -0.470615 0.744868 178 115 101
-0.083232 -0.469899 0.744080 171 135 127
-0.098449 -0.471021 0.749745 130 111 98
-0.096434 -0.471219 0.749423 121 80 61
-0.094419 -0.471417 0.749102 114 73 54
-0.092405 -0.471616 0.748780 133 71 52
-0.090390 -0.471814 0.748458 139 77 58
-0.088375 -0.472013 0.748136 157 87 68
-0.085872 -0.471298 0.747344 156 86 67
-0.082890 -0.469670 0.746083 166 108 96
-0.080883 -0.469868 0.745762 182 124 112
-0.078395 -0.469152 0.744972 172 140 134
-0.094573 -0.472099 0.751587 125 104 87
-0.092556 -0.472298 0.751265 122 76 56
-0.090046 -0.471585 0.750469 117 71 51
-0.088031 -0.471783 0.750147 136 70 48
-0.086017 -0.471982 0.749825 144 78 56
-0.083032 -0.470354 0.748558 156 83 63
-0.080540 -0.469639 0.747765 162 89 69
-0.078053 -0.468923 0.746973 161 102 93
-0.075572 -0.468207 0.746181 187 128 119
-0.073095 -0.467490 0.745391 167 140 134
-0.090194 -0.472267 0.752955 123 98 80
-0.088177 -0.472465 0.752633 118 68 45
-0.085673 -0.471752 0.751836 115 65 42
-0.083658 -0.471950 0.751514 142 72 49
-0.081161 -0.471236 0.750717 152 82 59
-0.078191 -0.469608 0.749448 148 75 57
-0.075707 -0.468892 0.748653 161 88 70
-0.073702 -0.469089 0.748333 168 115 109
-0.071226 -0.468373 0.747540 189 136 130
-0.069224 -0.468570 0.747220 165 139 135
-0.087833 -0.472235 0.754646 140 108 88
-0.085816 -0.472434 0.754324 116 84 64
-0.083798 -0.472633 0.754002 125 67 44
-0.081300 -0.471919 0.753203 131 73 50
-0.079285 -0.472117 0.752881 149 76 56
-0.076317 -0.470489 0.751606 155 82 62
-0.073834 -0.469774 0.750809 153 83 69
-0.071356 -0.469058 0.750013 160 90 76
-0.069351 -0.469256 0.749693 170 124 118
-0.067346 -0.469453 0.749373 179 133 127
-0.083454 -0.472402 0.756015 132 96 77
-0.081437 -0.472601 0.755693 114 78 59
-0.079419 -0.472800 0.755371 130 68 49
-0.076926 -0.472086 0.754570 137 75 56
-0.074438 -0.471371 0.753770 146 76 60
-0.071955 -0.470656 0.752970 142 72 56
-0.069945 -0.470854 0.752649 145 80 69
-0.067936 -0.471052 0.752328 176 111 100
-0.065926 -0.471250 0.752007 171 135 127
-0.079075 -0.472570 0.757384 123 87 68
-0.077058 -0.472768 0.757062 111 75 56
-0.074568 -0.472054 0.756259 133 74 56
-0.072553 -0.472253 0.755937 138 79 61
-0.070538 -0.472451 0.755615 149 79 63
-0.068523 -0.472650 0.755293 156 86 70
-0.066046 -0.471934 0.754492 151 90 82
-0.064034 -0.472133 0.754171 181 120 112
-0.062479 -0.473245 0.754328 170 135 132
-0.077189 -0.473451 0.759559 129 110 95
-0.074696 -0.472737 0.758753 117 78 58
-0.072679 -0.472936 0.758431 112 73 53
-0.070662 -0.473134 0.758108 134 75 55
-0.068180 -0.472420 0.757304 138 79 59
-0.066165 -0.472618 0.756982 151 81 65
-0.064150 -0.472817 0.756660 151 81 65
-0.062135 -0.473015 0.756339 151 96 91
-0.060121 -0.473214 0.756017 176 121 116
-0.072804 -0.473618 0.760929 114 94 74
-0.070318 -0.472904 0.760122 122 76 56
-0.068300 -0.473103 0.759799 121 75 55
-0.066283 -0.473302 0.759477 140 74 54
-0.064266 -0.473500 0.759155 147 81 61
-0.062248 -0.473699 0.758833 150 83 66
-0.060231 -0.473898 0.758511 154 87 70
-0.058214 -0.474097 0.758189 165 119 113
-0.056645 -0.475210 0.758349 180 134 128
-0.070440 -0.473586 0.762623 132 104 85
-0.068884 -0.474698 0.762787 113 85 66
-0.066400 -0.473984 0.761977 121 66 47
-0.064380 -0.474183 0.761655 132 77 58
-0.062360 -0.474382 0.761332 144 78 56
-0.060341 -0.474581 0.761010 151 85 63
-0.058321 -0.474780 0.760687 148 84 68
-0.056301 -0.474979 0.760365 166 102 86
-0.054727 -0.476093 0.760527 166 128 121
-0.052705 -0.476292 0.760204 179 141 134
-0.066056 -0.473754 0.763993 130 96 76
-0.064036 -0.473953 0.763670 116 82 62
-0.062016 -0.474152 0.763348 127 68 48
-0.059996 -0.474351 0.763025 135 76 56
-0.057976 -0.474550 0.762703 146 77 56
-0.056404 -0.475663 0.762868 153 84 63
-0.054382 -0.475862 0.762545 147 84 72
-0.052360 -0.476061 0.762222 169 106 94
-0.050337 -0.476260 0.761899 169 134 129
-0.063691 -0.473723 0.765686 134 115 100
-0.061671 -0.473922 0.765364 121 82 62
-0.059651 -0.474120 0.765041 114 75 55
-0.058082 -0.475233 0.765209 136 74 55
-0.056059 -0.475432 0.764886 142 80 61
-0.054037 -0.475631 0.764563 152 82 66
-0.052015 -0.475830 0.764240 152 82 66
-0.049992 -0.476030 0.763917 149 92 83
-0.047970 -0.476229 0.763594 176 119 110
-0.045947 -0.476428 0.763271 170 138 132
-0.059307 -0.473890 0.767057 122 101 84
-0.057737 -0.475002 0.767227 122 76 58
-0.055714 -0.475201 0.766904 123 77 59
-0.053692 -0.475401 0.766581 138 74 56
-0.051670 -0.475600 0.766258 147 83 65
-0.049647 -0.475799 0.765935 154 84 68
-0.047625 -0.475998 0.765612 159 89 73
-0.045602 -0.476197 0.765289 158 104 94
-0.043580 -0.476397 0.764966 184 130 120
-0.055369 -0.474971 0.768922 118 92 77
-0.053347 -0.475170 0.768599 118 67 49
-0.051325 -0.475369 0.768276 127 76 58
-0.049302 -0.475568 0.767953 148 78 62
-0.047280 -0.475767 0.767630 153 83 67
-0.045257 -0.475967 0.767308 155 85 69
-0.043235 -0.476166 0.766985 159 89 73
-0.041212 -0.476365 0.766662 169 120 110
-0.039190 -0.476564 0.766339 187 138 128
-0.053002 -0.474939 0.770618 137 107 91
-0.050980 -0.475138 0.770295 111 81 65
-0.048957 -0.475338 0.769972 120 63 44
-0.046935 -0.475537 0.769649 126 69 50
-0.044912 -0.475736 0.769326 147 78 59
-0.042890 -0.475935 0.769003 151 82 63
-0.040867 -0.476134 0.768680 154 84 70
-0.038845 -0.476334 0.768357 168 98 84
-0.036823 -0.476533 0.768034 172 126 118
-0.034800 -0.476732 0.767711 180 134 126
-0.048612 -0.475107 0.771990 132 97 80
-0.047026 -0.476219 0.772166 114 79 62
-0.045001 -0.476419 0.771842 125 66 46
-0.042976 -0.476618 0.771519 137 78 58
-0.040951 -0.476818 0.771195 152 82 61
-0.038926 -0.477017 0.770872 153 83 62
-0.036478 -0.476302 0.770052 151 84 69
-0.034455 -0.476501 0.769729 175 108 93
-0.032433 -0.476701 0.769406 172 131 125
-0.044655 -0.476188 0.773863 126 87 69
-0.042630 -0.476387 0.773540 117 78 60
-0.040605 -0.476587 0.773216 136 74 55
-0.038580 -0.476786 0.772893 142 80 61
-0.036555 -0.476986 0.772569 154 84 63
-0.034530 -0.477185 0.772246 156 86 65
-0.032505 -0.477385 0.771923 157 94 82
-0.030480 -0.477584 0.771599 181 118 106
-0.028455 -0.477784 0.771276 174 137 132
-0.042285 -0.476156 0.775560 130 106 92
-0.040260 -0.476356 0.775237 122 78 60
-0.038235 -0.476555 0.774913 119 75 57
-0.036210 -0.476755 0.774590 134 71 50
-0.034185 -0.476954 0.774267 142 79 58
-0.032160 -0.477154 0.773943 154 85 66
-0.030135 -0.477353 0.773620 156 87 68
-0.028110 -0.477553 0.773297 167 108 99
-0.026085 -0.477752 0.772973 185 126 117
-0.024060 -0.477952 0.772650 169 139 132
-0.037889 -0.476324 0.776934 125 99 84
-0.035864 -0.476524 0.776611 124 76 57
-0.033839 -0.476723 0.776287 120 72 53
-0.031814 -0.476923 0.775964 136 73 52
-0.029789 -0.477122 0.775641 145 82 61
-0.027764 -0.477322 0.775317 152 82 68
-0.025739 -0.477521 0.774994 156 86 72
-0.023714 -0.477720 0.774670 164 109 104
-0.021690 -0.477920 0.774347 183 128 123
-0.033913 -0.477406 0.778815 120 95 77
-0.031885 -0.477606 0.778491 117 70 48
-0.029858 -0.477805 0.778167 123 76 54
-0.027830 -0.478005 0.777843 142 76 56
-0.025803 -0.478205 0.777519 151 85 65
-0.023775 -0.478405 0.777196 153 83 69
-0.021748 -0.478604 0.776872 169 99 85
-0.019720 -0.478804 0.776548 173 125 119
-0.029512 -0.477574 0.780190 118 88 70
-0.027484 -0.477774 0.779866 118 66 44
-0.025457 -0.477973 0.779543 127 75 53
-0.023429 -0.478173 0.779219 150 84 64
-0.021402 -0.478373 0.778895 154 88 68
-0.019374 -0.478573 0.778571 158 90 80
-0.017347 -0.478772 0.778247 172 104 94
-0.015319 -0.478972 0.777924 176 140 132
-0.027138 -0.477542 0.781890 130 96 76
-0.025111 -0.477742 0.781566 114 80 60
-0.023083 -0.477942 0.781242 135 73 54
-0.021056 -0.478142 0.780918 141 79 60
-0.019028 -0.478341 0.780595 158 85 67
-0.017001 -0.478541 0.780271 158 85 67
-0.014973 -0.478741 0.779947 162 104 92
-0.012946 -0.478940 0.779623 183 125 113
-0.010918 -0.479140 0.779299 173 143 136
-0.024765 -0.477511 0.783589 130 111 96
-0.022737 -0.477711 0.783265 126 85 66
-0.020710 -0.477910 0.782942 112 71 52
-0.018682 -0.478110 0.782618 133 67 47
-0.017052 -0.479225 0.782805 149 83 63
-0.014627 -0.478509 0.781970 156 86 67
-0.012600 -0.478709 0.781646 160 90 71
-0.010572 -0.478909 0.781323 161 107 97
-0.008545 -0.479109 0.780999 184 130 120
-0.020364 -0.477679 0.784965 120 95 77
-0.018337 -0.477879 0.784641 118 70 51
-0.016706 -0.478993 0.784831 118 70 51
-0.014676 -0.479193 0.784506 148 78 62
-0.012646 -0.479393 0.784182 154 84 68
-0.010226 -0.478678 0.783346 151 84 67
-0.008199 -0.478877 0.783022 159 92 75
-0.006171 -0.479077 0.782698 163 117 109
-0.004144 -0.479277 0.782375 178 132 124
-0.018389 -0.478561 0.787181 135 105 87
-0.016359 -0.478761 0.786856 112 82 64
-0.014329 -0.478961 0.786532 128 73 54
-0.012299 -0.479161 0.786208 132 77 58
-0.009881 -0.478446 0.785369 146 79 62
-0.007853 -0.478646 0.785046 154 87 70
-0.005826 -0.478846 0.784722 150 85 72
-0.003798 -0.479045 0.784398 162 97 84
-0.001771 -0.479245 0.784074 174 136 127
-0.013983 -0.478730 0.788558 128 92 73
-0.011953 -0.478930 0.788234 110 74 55
-0.009923 -0.479130 0.787910 123 64 44
-0.007507 -0.478415 0.787069 137 78 58
-0.005480 -0.478614 0.786745 152 82 63
-0.003452 -0.478814 0.786421 152 82 63
-0.001425 -0.479014 0.786097 154 91 77
0.000603 -0.479214 0.785774 175 112 98
0.003003 -0.478497 0.784935 174 138 130
-0.011607 -0.478698 0.790260 133 112 97
-0.009577 -0.478898 0.789936 121 80 63
-0.007161 -0.478183 0.789092 114 73 56
-0.005134 -0.478383 0.788768 134 70 52
-0.003106 -0.478583 0.788444 141 77 59
-0.001079 -0.478783 0.788121 152 82 63
0.000949 -0.478982 0.787797 157 87 68
0.002976 -0.479182 0.787473 159 99 86
0.005004 -0.479382 0.787149 181 121 108
0.007399 -0.478665 0.786309 178 142 134
-0.007200 -0.478867 0.791637 133 109 93
-0.004788 -0.478152 0.790792 123 77 59
-0.002760 -0.478351 0.790468 115 69 51
-0.000733 -0.478551 0.790144 138 72 52
0.001295 -0.478751 0.789820 149 83 63
0.003322 -0.478951 0.789496 154 84 63
0.005350 -0.479150 0.789173 154 84 63
0.007377 -0.479350 0.788849 160 104 92
0.009405 -0.479550 0.788525 179 123 111
0.011794 -0.478833 0.787683 179 145 137
-0.002414 -0.478120 0.792491 113 87 72
-0.000387 -0.478320 0.792167 119 71 52
0.001641 -0.478520 0.791843 118 70 51
0.003668 -0.478719 0.791520 143 77 57
0.005696 -0.478919 0.791196 149 83 63
0.007723 -0.479119 0.790872 152 83 62
0.009751 -0.479318 0.790548 158 89 68
0.011778 -0.479518 0.790224 164 113 99
0.013806 -0.479718 0.789901 182 131 117
-0.000041 -0.478089 0.794191 136 108 89
0.001987 -0.478288 0.793867 117 89 70
0.004014 -0.478488 0.793543 121 69 47
0.006042 -0.478688 0.793219 122 70 48
0.008069 -0.478887 0.792895 138 75 52
0.010097 -0.479087 0.792572 145 82 59
0.012124 -0.479287 0.792248 149 83 63
0.014152 -0.479487 0.791924 153 87 67
0.016179 -0.479686 0.791600 156 104 95
0.018207 -0.479886 0.791276 178 126 117
0.004360 -0.478257 0.795566 128 96 76
0.006387 -0.478456 0.795242 118 86 66
0.008415 -0.478656 0.794919 125 70 49
0.010442 -0.478856 0.794595 131 76 55
0.012470 -0.479056 0.794271 143 80 57
0.014497 -0.479255 0.793947 147 84 61
0.016525 -0.479455 0.793623 144 77 60
0.018553 -0.479655 0.793300 146 79 62
0.020580 -0.479854 0.792976 162 113 103
0.022955 -0.479137 0.792128 187 138 128
0.008396 -0.479340 0.797471 131 95 74
0.010426 -0.479540 0.797147 114 78 57
0.012456 -0.479740 0.796823 129 73 49
0.014486 -0.479940 0.796498 136 80 56
0.016871 -0.479224 0.795647 148 79 56
0.018898 -0.479423 0.795323 149 80 57
0.020926 -0.479623 0.794999 154 84 68
0.022953 -0.479823 0.794675 163 93 77
0.025326 -0.479106 0.793826 159 112 101
0.027351 -0.479305 0.793502 163 116 105
0.012802 -0.479508 0.798848 130 91 69
0.014832 -0.479708 0.798524 116 77 55
0.016862 -0.479908 0.798200 132 71 47
0.018892 -0.480108 0.797876 137 76 52
0.021272 -0.479392 0.797022 157 84 64
0.023299 -0.479592 0.796699 157 84 64
0.025327 -0.479791 0.796375 152 85 68
0.027696 -0.479074 0.795523 163 96 79
0.029721 -0.479273 0.795200 167 126 118
0.234571 -0.495650 0.760592 135 116 112
0.236586 -0.495848 0.760270 135 112 107
0.238600 -0.496047 0.759948 147 124 119
0.017209 -0.479677 0.800226 128 87 66
0.019239 -0.479877 0.799902 113 72 51
0.021269 -0.480077 0.799577 135 72 49
0.023645 -0.479360 0.798722 141 78 55
0.025673 -0.479560 0.798398 149 79 58
0.027700 -0.479760 0.798074 155 85 64
0.029728 -0.479959 0.797751 149 89 76
0.032092 -0.479242 0.796897 173 113 100
0.034117 -0.479441 0.796574 170 136 128
0.230885 -0.495023 0.763246 128 112 109
0.232900 -0.495221 0.762924 139 107 101
0.234915 -0.495420 0.762602 118 86 80
0.236929 -0.495618 0.762281 110 69 61
0.238944 -0.495817 0.761959 113 72 64
0.240959 -0.496015 0.761637 154 131 126
0.019234 -0.480560 0.802462 135 114 97
0.021615 -0.479845 0.801603 123 79 61
0.023645 -0.480045 0.801279 116 72 54
0.026019 -0.479329 0.800421 137 74 53
0.028046 -0.479528 0.800098 145 82 61
0.030074 -0.479728 0.799774 157 87 68
0.032101 -0.479928 0.799450 153 83 64
0.034129 -0.480128 0.799126 157 99 87
0.036487 -0.479410 0.798271 174 116 104
0.038512 -0.479609 0.797948 166 136 129
0.229214 -0.494595 0.765578 128 106 98
0.231229 -0.494793 0.765257 124 102 94
0.233244 -0.494992 0.764935 125 78 65
0.235258 -0.495190 0.764613 114 67 54
0.237273 -0.495389 0.764291 107 60 47
0.239288 -0.495587 0.763970 110 63 50
0.241303 -0.495785 0.763648 131 108 103
0.023646 -0.480729 0.803841 124 98 83
0.026021 -0.480013 0.802981 127 79 60
0.028392 -0.479297 0.802121 118 70 51
0.030420 -0.479497 0.801797 138 72 52
0.032447 -0.479697 0.801473 149 83 63
0.034475 -0.479896 0.801149 156 86 67
0.036502 -0.480096 0.800826 163 93 74
0.038530 -0.480296 0.800502 166 114 105
0.040557 -0.480495 0.800178 178 126 117
0.227543 -0.494166 0.767911 125 106 100
0.229558 -0.494365 0.767589 130 92 81
0.231658 -0.493622 0.766772 121 83 72
0.233671 -0.493820 0.766451 123 67 51
0.235602 -0.494960 0.766624 117 61 45
0.237617 -0.495159 0.766302 106 61 50
0.239632 -0.495357 0.765980 136 91 80
0.028398 -0.479982 0.804682 109 77 57
0.030428 -0.480182 0.804358 126 74 52
0.032793 -0.479465 0.803497 129 77 55
0.034820 -0.479665 0.803173 146 77 58
0.036848 -0.479865 0.802849 155 86 67
0.038875 -0.480064 0.802525 159 92 75
0.040903 -0.480264 0.802201 166 99 82
0.042931 -0.480464 0.801878 164 121 112
0.044958 -0.480664 0.801554 180 137 128
0.225872 -0.493738 0.770243 135 104 95
0.227887 -0.493936 0.769921 120 89 80
0.229989 -0.493194 0.769102 126 73 58
0.232002 -0.493392 0.768780 125 72 57
0.234014 -0.493591 0.768459 118 62 46
0.236026 -0.493789 0.768137 115 59 43
0.237961 -0.494929 0.768312 144 108 96
0.030774 -0.479950 0.806384 137 101 82
0.032804 -0.480150 0.806060 119 83 64
0.034834 -0.480350 0.805736 129 72 51
0.036864 -0.480550 0.805411 133 76 55
0.038894 -0.480750 0.805087 152 83 62
0.041249 -0.480033 0.804225 155 86 65
0.042955 -0.481150 0.804439 154 94 79
0.044985 -0.481350 0.804115 170 110 95
0.047015 -0.481550 0.803790 173 137 129
0.049045 -0.481750 0.803466 179 143 135
0.224201 -0.493310 0.772575 126 101 94
0.226216 -0.493508 0.772254 129 82 69
0.228230 -0.493707 0.771932 123 76 63
0.230333 -0.492965 0.771109 128 69 51
0.232260 -0.494104 0.771288 121 62 44
0.234275 -0.494302 0.770967 118 70 53
0.236290 -0.494500 0.770645 158 110 93
0.034849 -0.481034 0.808303 133 97 78
0.037211 -0.480318 0.807437 109 73 54
0.039241 -0.480518 0.807113 124 66 43
0.041271 -0.480718 0.806789 139 81 58
0.043301 -0.480918 0.806465 151 82 63
0.045012 -0.482036 0.806680 154 85 66
0.047045 -0.482236 0.806356 160 100 87
0.049077 -0.482436 0.806031 176 116 103
0.051110 -0.482636 0.805707 176 144 138
0.222530 -0.492881 0.774908 135 94 84
0.224545 -0.493080 0.774586 121 80 70
0.226559 -0.493278 0.774264 124 65 47
0.228574 -0.493477 0.773942 127 68 50
0.230589 -0.493675 0.773621 123 66 47
0.232604 -0.493874 0.773299 126 69 50
0.234618 -0.494072 0.772977 158 124 114
0.039261 -0.481203 0.809683 129 83 65
0.041294 -0.481403 0.809358 118 72 54
0.043326 -0.481603 0.809033 133 72 50
0.045359 -0.481804 0.808709 140 79 57
0.047391 -0.482004 0.808384 160 90 71
0.049111 -0.483122 0.808601 159 89 70
0.051146 -0.483322 0.808276 166 107 98
0.053181 -0.483523 0.807951 188 129 120
0.055216 -0.483723 0.807626 175 148 140
0.218742 -0.493193 0.778070 132 103 93
0.220859 -0.492453 0.777240 122 93 83
0.222874 -0.492651 0.776918 132 74 60
0.224888 -0.492850 0.776596 126 68 54
0.226903 -0.493048 0.776275 126 67 49
0.228918 -0.493247 0.775953 123 64 46
0.230933 -0.493445 0.775631 133 87 71
0.232863 -0.494584 0.775815 171 125 109
0.041317 -0.482087 0.811932 123 95 78
0.043352 -0.482288 0.811607 120 69 51
0.045388 -0.482488 0.811282 117 66 48
0.047423 -0.482689 0.810957 144 75 56
0.049458 -0.482889 0.810632 155 86 67
0.050872 -0.484925 0.811395 156 82 67
0.052913 -0.485126 0.811069 166 92 77
0.054953 -0.485327 0.810743 176 124 115
0.056993 -0.485528 0.810418 191 139 130
0.217173 -0.491826 0.779894 123 102 97
0.219188 -0.492025 0.779572 125 78 65
0.221202 -0.492223 0.779251 119 72 59
0.223217 -0.492422 0.778929 133 71 54
0.225232 -0.492620 0.778607 127 65 48
0.227247 -0.492818 0.778285 123 67 53
0.229173 -0.493956 0.778472 144 88 74
0.231190 -0.494155 0.778150 167 136 125
0.045100 -0.484089 0.814409 115 82 65
0.047140 -0.484290 0.814083 122 65 46
0.049180 -0.484491 0.813757 131 74 55
0.051220 -0.484692 0.813431 151 78 60
0.053261 -0.484893 0.813105 158 85 67
0.055301 -0.485094 0.812779 165 95 81
0.057341 -0.485295 0.812454 175 105 91
0.059381 -0.485496 0.812128 184 138 130
0.061422 -0.485697 0.811802 185 139 131
0.213487 -0.491199 0.782548 121 105 102
0.215502 -0.491398 0.782226 127 91 81
0.217517 -0.491596 0.781905 120 84 74
0.219531 -0.491795 0.781583 127 69 53
0.221546 -0.491993 0.781261 127 69 53
0.223561 -0.492192 0.780939 124 66 50
0.225576 -0.492390 0.780617 125 67 51
0.227500 -0.493527 0.780807 154 114 101
0.047173 -0.484974 0.816669 133 97 78
0.050949 -0.486293 0.816565 129 67 48
0.052995 -0.486494 0.816238 133 71 52
0.055345 -0.485778 0.815364 156 83 63
0.057387 -0.485980 0.815037 161 88 68
0.059729 -0.485263 0.814164 163 96 81
0.061770 -0.485464 0.813838 185 118 103
0.063810 -0.485665 0.813512 183 142 134
0.211705 -0.491707 0.785398 132 100 94
0.213831 -0.490969 0.784559 120 88 82
0.215846 -0.491168 0.784237 122 66 52
0.217860 -0.491366 0.783915 123 67 53
0.219875 -0.491565 0.783593 125 65 50
0.221890 -0.491763 0.783272 127 67 52
0.223905 -0.491962 0.782950 136 90 74
0.225827 -0.493098 0.783142 168 122 106
0.049253 -0.485858 0.818933 132 111 96
0.051298 -0.486059 0.818606 124 80 62
0.053344 -0.486261 0.818280 112 68 50
0.055389 -0.486462 0.817953 137 68 47
0.057736 -0.485747 0.817076 153 84 63
0.059779 -0.485948 0.816750 162 87 68
0.062118 -0.485231 0.815874 165 90 71
0.064158 -0.485432 0.815548 172 107 94
0.066781 -0.483797 0.814125 190 125 112
0.068816 -0.483997 0.813800 180 143 138
0.210032 -0.491279 0.787733 124 97 91
0.212160 -0.490541 0.786891 124 75 63
0.214175 -0.490740 0.786569 123 74 62
0.216295 -0.490001 0.785728 129 67 50
0.218204 -0.491137 0.785926 122 60 43
0.220219 -0.491335 0.785604 122 69 54
0.222234 -0.491534 0.785282 151 98 83
0.224248 -0.491732 0.784960 162 131 122
0.053387 -0.486944 0.820874 121 97 81
0.055435 -0.487146 0.820547 121 69 49
0.057783 -0.486431 0.819667 118 66 46
0.060127 -0.485715 0.818788 146 76 55
0.062466 -0.484999 0.817910 153 83 62
0.064506 -0.485200 0.817584 164 89 70
0.066546 -0.485400 0.817258 169 94 75
0.069163 -0.483765 0.815831 172 111 103
0.071198 -0.483965 0.815506 193 132 124
0.206342 -0.490651 0.790390 125 104 99
0.208359 -0.490850 0.790068 134 89 78
0.210489 -0.490113 0.789223 120 75 64
0.212503 -0.490311 0.788901 130 71 53
0.214626 -0.489574 0.788058 126 67 49
0.216638 -0.489772 0.787736 120 63 44
0.218650 -0.489970 0.787415 130 73 54
0.220563 -0.491105 0.787614 157 121 109
0.055784 -0.486912 0.822591 139 109 93
0.058132 -0.486197 0.821708 116 86 70
0.060476 -0.485482 0.820827 124 69 48
0.062814 -0.484766 0.819946 124 69 48
0.064854 -0.484967 0.819620 149 76 56
0.066894 -0.485168 0.819294 158 85 65
0.069510 -0.483533 0.817862 164 91 73
0.071545 -0.483733 0.817537 176 103 85
0.073581 -0.483934 0.817212 174 120 112
0.075616 -0.484134 0.816887 188 134 126
0.204668 -0.490222 0.792726 134 98 88
0.206686 -0.490421 0.792403 124 88 78
0.208703 -0.490620 0.792081 131 71 56
0.210832 -0.489883 0.791234 127 67 52
0.212847 -0.490081 0.790912 124 65 45
0.214969 -0.489344 0.790066 126 67 47
0.216981 -0.489542 0.789744 137 93 77
0.218993 -0.489741 0.789423 166 122 106
0.061122 -0.484332 0.822308 136 103 86
0.063162 -0.484533 0.821982 111 78 61
0.065202 -0.484734 0.821656 126 69 48
0.067822 -0.483100 0.820218 132 75 54
0.069857 -0.483301 0.819893 152 79 59
0.071893 -0.483501 0.819568 157 84 64
0.073928 -0.483701 0.819243 164 90 75
0.075963 -0.483902 0.818918 179 105 90
0.077998 -0.484102 0.818593 176 126 119
0.080308 -0.483384 0.817714 185 135 128
0.200729 -0.491462 0.796443 133 103 96
0.202752 -0.491661 0.796120 124 94 87
0.205013 -0.489992 0.794739 126 73 58
0.207030 -0.490191 0.794417 126 73 58
0.209161 -0.489455 0.793566 124 65 45
0.211176 -0.489653 0.793244 121 62 42
0.213191 -0.489852 0.792923 128 77 61
0.215312 -0.489114 0.792074 155 104 88
0.217324 -0.489313 0.791753 159 135 123
0.065550 -0.484501 0.823692 123 87 66
0.067591 -0.484702 0.823366 111 75 54
0.069631 -0.484903 0.823040 134 72 53
0.072240 -0.483269 0.821599 136 74 55
0.074275 -0.483469 0.821274 155 80 61
0.076310 -0.483670 0.820948 158 83 64
0.078345 -0.483870 0.820624 167 96 85
0.080380 -0.484071 0.820299 181 110 99
0.082687 -0.483352 0.819417 181 140 132
0.199052 -0.491032 0.798784 128 102 98
0.201074 -0.491231 0.798461 131 84 73
0.203218 -0.490497 0.797606 119 72 61
0.205357 -0.489762 0.796752 126 67 49
0.207374 -0.489961 0.796430 125 66 48
0.209391 -0.490159 0.796107 122 66 50
0.211520 -0.489423 0.795255 141 85 69
0.213643 -0.488687 0.794403 151 117 105
0.067939 -0.484469 0.825402 132 113 96
0.069979 -0.484670 0.825076 123 84 64
0.072019 -0.484871 0.824751 112 73 53
0.074059 -0.485072 0.824425 135 69 49
0.076100 -0.485273 0.824099 146 80 60
0.078693 -0.483638 0.822654 158 85 65
0.080728 -0.483838 0.822329 162 89 69
0.082763 -0.484039 0.822004 166 101 92
0.085067 -0.483321 0.821121 193 128 119
0.087099 -0.483521 0.820797 177 143 135
0.195352 -0.490403 0.801448 129 110 104
0.197374 -0.490602 0.801125 132 94 85
0.199397 -0.490801 0.800802 122 84 75
0.201419 -0.491001 0.800479 127 69 53
0.203563 -0.490266 0.799622 125 67 51
0.205701 -0.489532 0.798765 120 63 44
0.207718 -0.489730 0.798443 125 68 49
0.209736 -0.489929 0.798120 145 106 88
0.211864 -0.489193 0.797266 167 128 110
0.072367 -0.484639 0.826787 126 105 88
0.074407 -0.484840 0.826461 119 72 50
0.076448 -0.485041 0.826135 116 69 47
0.078488 -0.485242 0.825809 143 73 52
0.080528 -0.485443 0.825483 153 83 62
0.083110 -0.483807 0.824035 162 87 70
0.085145 -0.484007 0.823710 173 98 81
0.087180 -0.484208 0.823385 169 112 103
0.089479 -0.483489 0.822500 192 135 126
0.193541 -0.490905 0.804328 135 104 93
0.195697 -0.490172 0.803466 125 94 83
0.197719 -0.490371 0.803143 127 74 59
0.199742 -0.490571 0.802820 127 74 59
0.201764 -0.490770 0.802497 128 69 51
0.203787 -0.490969 0.802174 118 59 41
0.206045 -0.489302 0.800778 131 85 67
0.208062 -0.489500 0.800456 158 112 94
0.076240 -0.486642 0.829301 117 92 74
0.078285 -0.486844 0.828974 122 67 48
0.080603 -0.486127 0.828083 127 72 53
0.082917 -0.485411 0.827193 145 72 52
0.084957 -0.485612 0.826868 159 86 66
0.087528 -0.483976 0.825416 166 93 75
0.089563 -0.484176 0.825091 175 102 84
0.091598 -0.484377 0.824766 182 134 126
0.189837 -0.490275 0.806996 136 111 102
0.191862 -0.490474 0.806672 127 102 93
0.193887 -0.490674 0.806349 131 83 68
0.196042 -0.489941 0.805484 122 74 59
0.198064 -0.490141 0.805161 129 67 50
0.200087 -0.490340 0.804839 125 63 46
0.202109 -0.490539 0.804516 120 67 50
0.204132 -0.490738 0.804193 146 93 76
0.206154 -0.490938 0.803870 161 132 120
0.078359 -0.487528 0.831582 136 103 86
0.080407 -0.487730 0.831255 113 80 63
0.082725 -0.487013 0.830362 119 60 40
0.085037 -0.486297 0.829469 134 75 55
0.087345 -0.485580 0.828578 157 84 64
0.089385 -0.485781 0.828252 159 86 66
0.091945 -0.484144 0.826797 166 98 86
0.093980 -0.484345 0.826472 187 119 107
0.096270 -0.483626 0.825583 175 137 130
0.188157 -0.489844 0.809340 128 105 100
0.190182 -0.490044 0.809017 131 86 75
0.192207 -0.490243 0.808693 120 75 64
0.194232 -0.490443 0.808370 130 68 49
0.196387 -0.489711 0.807503 132 70 51
0.198409 -0.489910 0.807180 120 62 46
0.200432 -0.490109 0.806857 130 72 56
0.202454 -0.490308 0.806534 149 112 98
0.204477 -0.490508 0.806211 168 131 117
0.082804 -0.487698 0.832972 121 82 64
0.085119 -0.486982 0.832076 110 71 53
0.087429 -0.486265 0.831182 129 65 47
0.089472 -0.486466 0.830855 141 77 59
0.091774 -0.485749 0.829962 161 87 72
0.093814 -0.485950 0.829636 169 95 80
0.096363 -0.484313 0.828178 166 105 97
0.098398 -0.484514 0.827853 189 128 120
0.100682 -0.483795 0.826962 176 144 138
0.184453 -0.489214 0.812007 132 113 109
0.186478 -0.489414 0.811684 136 100 90
0.188503 -0.489613 0.811361 123 87 77
0.190528 -0.489813 0.811037 131 71 58
0.192687 -0.489082 0.810167 127 67 54
0.194710 -0.489281 0.809844 123 64 46
0.196732 -0.489480 0.809521 124 65 47
0.198755 -0.489679 0.809198 133 86 73
0.200777 -0.489878 0.808875 170 123 110
0.085201 -0.487666 0.834688 122 98 82
0.087513 -0.486950 0.833791 118 72 54
0.089559 -0.487151 0.833464 115 69 51
0.091863 -0.486434 0.832568 139 69 53
0.094162 -0.485717 0.831672 159 89 73
0.096202 -0.485918 0.831346 170 99 83
0.098745 -0.484281 0.829884 169 98 82
0.100780 -0.484482 0.829559 172 117 112
0.103061 -0.483763 0.828666 185 130 125
0.182773 -0.488784 0.814352 135 103 97
0.184798 -0.488983 0.814028 125 93 87
0.186823 -0.489183 0.813705 132 81 67
0.188848 -0.489382 0.813381 121 70 56
0.191010 -0.488652 0.812508 127 68 50
0.193032 -0.488851 0.812185 120 61 43
0.195055 -0.489050 0.811862 119 66 51
0.197077 -0.489249 0.811539 154 101 86
0.199100 -0.489448 0.811216 156 130 119
0.089647 -0.487836 0.836078 117 89 72
0.091694 -0.488037 0.835751 123 68 49
0.094254 -0.486403 0.834280 123 68 49
0.096297 -0.486604 0.833954 149 79 60
0.098591 -0.485886 0.833057 159 89 70
0.101127 -0.484250 0.831590 166 95 79
0.103162 -0.484450 0.831265 170 99 83
0.105198 -0.484651 0.830940 174 124 117
0.107473 -0.483931 0.830045 186 136 129
0.179069 -0.488154 0.817019 136 109 103
0.181094 -0.488353 0.816696 129 102 96
0.183265 -0.487624 0.815818 130 81 69
0.185288 -0.487823 0.815495 120 71 59
0.187310 -0.488022 0.815172 128 69 51
0.189332 -0.488222 0.814849 120 61 43
0.191355 -0.488421 0.814526 116 63 46
0.193377 -0.488620 0.814203 123 70 53
0.195269 -0.489750 0.814432 146 115 102
0.092044 -0.487804 0.837794 132 98 78
0.094347 -0.487087 0.836893 111 77 57
0.096645 -0.486371 0.835992 128 66 47
0.098939 -0.485654 0.835093 136 74 55
0.100979 -0.485855 0.834767 159 86 64
0.103510 -0.484218 0.833296 164 91 69
0.105545 -0.484418 0.832971 166 96 82
0.107580 -0.484619 0.832646 183 113 99
0.109853 -0.483900 0.831749 177 139 132
0.177389 -0.487723 0.819363 134 111 106
0.179565 -0.486995 0.818482 134 92 80
0.181588 -0.487194 0.818159 125 83 71
0.183610 -0.487393 0.817836 130 71 51
0.185633 -0.487592 0.817513 127 68 48
0.187655 -0.487792 0.817190 122 65 44
0.189678 -0.487991 0.816867 120 63 42
0.191700 -0.488190 0.816544 133 96 82
0.193589 -0.489319 0.816776 161 124 110
0.096742 -0.487056 0.838607 126 82 66
0.099037 -0.486339 0.837705 115 71 55
0.101327 -0.485622 0.836803 136 70 48
0.103367 -0.485823 0.836477 149 83 61
0.105892 -0.484186 0.835001 163 88 67
0.107927 -0.484387 0.834677 165 90 69
0.109962 -0.484587 0.834352 161 96 85
0.112232 -0.483868 0.833453 179 114 103
0.114265 -0.484068 0.833128 169 135 127
0.173685 -0.487094 0.822031 136 115 112
0.175710 -0.487293 0.821707 135 99 89
0.177888 -0.486565 0.820823 125 89 79
0.179910 -0.486764 0.820500 134 77 56
0.181933 -0.486963 0.820177 127 70 49
0.183955 -0.487163 0.819854 127 69 46
0.185978 -0.487362 0.819531 124 66 43
0.188000 -0.487561 0.819209 119 73 55
0.190023 -0.487760 0.818885 160 114 96
0.099385 -0.486106 0.839743 129 103 88
0.101428 -0.486307 0.839417 124 76 57
0.103715 -0.485590 0.838513 117 69 50
0.105755 -0.485791 0.838187 138 69 48
0.108274 -0.484155 0.836707 147 78 57
0.110309 -0.484355 0.836382 156 81 64
0.112345 -0.484555 0.836057 160 85 68
0.114380 -0.484756 0.835732 166 108 96
0.116415 -0.484956 0.835407 182 124 112
0.118677 -0.484237 0.834507 169 138 129
0.172005 -0.486663 0.824375 136 101 96
0.174030 -0.486862 0.824051 127 92 87
0.176055 -0.487062 0.823728 128 75 58
0.178233 -0.486334 0.822842 126 73 56
0.180255 -0.486533 0.822519 132 71 49
0.182278 -0.486733 0.822196 126 65 43
0.184300 -0.486932 0.821873 121 69 49
0.186323 -0.487131 0.821550 143 91 71
0.188345 -0.487330 0.821227 160 129 116
0.103819 -0.486275 0.841129 122 94 77
0.106104 -0.485558 0.840223 124 73 55
0.108144 -0.485759 0.839897 119 68 50
0.110184 -0.485960 0.839571 141 71 52
0.112692 -0.484323 0.838088 156 86 67
0.114727 -0.484524 0.837763 160 90 71
0.116762 -0.484724 0.837438 161 91 72
0.118797 -0.484925 0.837113 152 95 86
0.120832 -0.485125 0.836788 180 123 114
0.122868 -0.485326 0.836463 175 140 135
0.168136 -0.486959 0.827610 143 107 97
0.170164 -0.487159 0.827286 136 100 90
0.172351 -0.486432 0.826396 135 82 67
0.174376 -0.486631 0.826072 122 69 54
0.176401 -0.486831 0.825749 132 70 51
0.178578 -0.486103 0.824860 129 67 48
0.180600 -0.486303 0.824537 121 66 47
0.182623 -0.486502 0.824214 139 84 65
0.184645 -0.486701 0.823891 152 117 100
0.106452 -0.485326 0.842259 142 109 94
0.108492 -0.485527 0.841933 118 85 70
0.110532 -0.485727 0.841607 120 65 46
0.112572 -0.485928 0.841282 122 67 48
0.114613 -0.486129 0.840956 138 72 52
0.116653 -0.486330 0.840630 152 86 66
0.118693 -0.486531 0.840304 153 83 67
0.120733 -0.486732 0.839978 165 95 79
0.123215 -0.485093 0.838494 167 108 99
0.125250 -0.485294 0.838169 183 124 115
0.127285 -0.485494 0.837844 170 135 130
0.164427 -0.486328 0.830281 145 109 101
0.166454 -0.486528 0.829957 136 100 92
0.168482 -0.486727 0.829633 138 82 68
0.170671 -0.486001 0.828740 129 73 59
0.172696 -0.486201 0.828416 135 73 54
0.174721 -0.486400 0.828093 133 71 52
0.176746 -0.486600 0.827770 122 65 46
0.178771 -0.486799 0.827446 126 69 50
0.180796 -0.486999 0.827123 134 95 77
0.182968 -0.486271 0.826232 166 127 109
0.110880 -0.485495 0.843643 136 102 82
0.112920 -0.485696 0.843318 117 83 63
0.114961 -0.485897 0.842992 122 67 46
0.117001 -0.486098 0.842666 128 73 52
0.119041 -0.486299 0.842340 142 76 56
0.121081 -0.486500 0.842014 150 84 64
0.123122 -0.486701 0.841689 152 82 66
0.125162 -0.486902 0.841363 158 88 72
0.127202 -0.487103 0.841037 165 106 97
0.129667 -0.485463 0.839550 182 123 114
0.131703 -0.485663 0.839225 173 137 129
0.133738 -0.485864 0.838900 176 140 132
0.158513 -0.486421 0.833850 142 123 117
0.160543 -0.486621 0.833526 144 108 100
0.162745 -0.485897 0.832628 135 99 91
0.164773 -0.486097 0.832304 136 83 70
0.166800 -0.486296 0.831980 129 76 63
0.168828 -0.486496 0.831656 137 71 51
0.171017 -0.485770 0.830760 138 72 52
0.173042 -0.485970 0.830437 133 72 50
0.175067 -0.486169 0.830114 129 68 46
0.177092 -0.486369 0.829790 130 86 68
0.179117 -0.486568 0.829467 157 113 95
0.115079 -0.486582 0.845614 138 102 83
0.117122 -0.486784 0.845287 117 81 62
0.119164 -0.486985 0.844961 121 69 49
0.121207 -0.487186 0.844635 129 77 57
0.123470 -0.486468 0.843724 144 75 56
0.125510 -0.486669 0.843399 145 76 57
0.127550 -0.486870 0.843073 155 85 66
0.129591 -0.487071 0.842747 162 92 73
0.131631 -0.487272 0.842421 158 98 85
0.134085 -0.485631 0.840931 170 110 97
0.136120 -0.485832 0.840606 170 127 118
0.138155 -0.486032 0.840281 176 133 124
0.140190 -0.486233 0.839956 169 140 130
0.150553 -0.486313 0.837752 156 134 126
0.152770 -0.485590 0.836849 156 131 122
0.154800 -0.485790 0.836524 149 124 115
0.156830 -0.485990 0.836200 146 108 97
0.159036 -0.485266 0.835299 137 99 88
0.161064 -0.485466 0.834975 141 85 71
0.163091 -0.485666 0.834651 131 75 61
0.165119 -0.485865 0.834327 138 72 52
0.167146 -0.486065 0.834004 136 70 50
0.169174 -0.486265 0.833680 133 70 47
0.171362 -0.485539 0.832781 127 64 41
0.173387 -0.485739 0.832458 123 76 54
0.175412 -0.485938 0.832134 153 106 84
0.177437 -0.486138 0.831811 156 132 120
0.119289 -0.487670 0.847587 135 100 85
0.121334 -0.487872 0.847261 117 82 67
0.123379 -0.488073 0.846934 124 69 50
0.125425 -0.488275 0.846607 127 72 53
0.127684 -0.487557 0.845695 139 73 53
0.129727 -0.487758 0.845369 142 76 56
0.131979 -0.487039 0.844457 150 77 57
0.134019 -0.487240 0.844131 155 82 62
0.136059 -0.487441 0.843806 152 82 66
0.138502 -0.485800 0.842312 153 83 67
0.140538 -0.486001 0.841987 153 97 81
0.142573 -0.486201 0.841662 158 102 86
0.144802 -0.485480 0.840754 153 106 93
0.146834 -0.485680 0.840429 154 107 94
0.148867 -0.485880 0.840105 151 104 91
0.150900 -0.486081 0.839780 143 96 83
0.152932 -0.486281 0.839456 136 85 71
0.155146 -0.485558 0.838550 134 83 69
0.157176 -0.485758 0.838226 136 74 55
0.159206 -0.485958 0.837902 132 70 51
0.161236 -0.486158 0.837578 138 72 50
0.163437 -0.485434 0.836674 137 71 49
0.165465 -0.485634 0.836351 131 68 45
0.167492 -0.485834 0.836027 128 65 42
0.169520 -0.486034 0.835703 132 82 61
0.171547 -0.486233 0.835379 154 104 83
0.173575 -0.486433 0.835055 157 128 116
0.123509 -0.488759 0.849564 136 101 86
0.125557 -0.488960 0.849237 117 82 67
0.127819 -0.488243 0.848322 122 69 52
0.129864 -0.488444 0.847995 122 69 52
0.132118 -0.487726 0.847081 133 67 47
0.134161 -0.487927 0.846755 139 73 53
0.136407 -0.487208 0.845842 145 76 53
0.138448 -0.487409 0.845516 145 76 53
0.140885 -0.485769 0.844018 144 75 52
0.142920 -0.485969 0.843693 144 75 52
0.144955 -0.486169 0.843368 143 77 55
0.146990 -0.486370 0.843043 143 77 55
0.149025 -0.486570 0.842718 143 77 57
0.151246 -0.485849 0.841809 136 70 50
0.153279 -0.486049 0.841484 138 69 50
0.155312 -0.486249 0.841159 139 70 51
0.157522 -0.485527 0.840252 138 69 48
0.159552 -0.485727 0.839928 135 66 45
0.161582 -0.485927 0.839604 129 68 46
0.163612 -0.486127 0.839279 127 66 44
0.165810 -0.485403 0.838374 125 77 58
0.167838 -0.485602 0.838050 151 103 84
0.169865 -0.485802 0.837726 155 124 111
0.127954 -0.488929 0.850954 137 107 91
0.130002 -0.489130 0.850627 120 90 74
0.132050 -0.489332 0.850300 121 75 55
0.134304 -0.488614 0.849383 116 70 50
0.136552 -0.487895 0.848467 125 69 45
0.138796 -0.487176 0.847552 127 71 47
0.140836 -0.487377 0.847226 131 68 45
0.142876 -0.487578 0.846900 133 70 47
0.145302 -0.485937 0.845399 134 71 48
0.147337 -0.486138 0.845074 133 70 47
0.149373 -0.486338 0.844748 131 65 45
0.151593 -0.485617 0.843837 131 65 45
0.153626 -0.485817 0.843512 130 67 46
0.155658 -0.486017 0.843188 130 67 46
0.157691 -0.486218 0.842863 125 68 47
0.159724 -0.486418 0.842538 131 74 53
0.161929 -0.485695 0.841629 135 91 71
0.163959 -0.485895 0.841305 156 112 92
0.134448 -0.489300 0.852016 136 112 96
0.136698 -0.488582 0.851097 133 97 78
0.138944 -0.487864 0.850179 119 83 64
0.141184 -0.487145 0.849262 118 72 52
0.143224 -0.487346 0.848936 116 70 50
0.145265 -0.487547 0.848610 118 66 46
0.147685 -0.485906 0.847104 118 66 46
0.149720 -0.486106 0.846779 118 66 46
0.151755 -0.486307 0.846454 121 69 49
0.153790 -0.486507 0.846129 124 76 57
0.156005 -0.485785 0.845216 138 90 71
0.158038 -0.485986 0.844891 139 104 87
