ply
format ascii 1.0
element vertex 945
property float x
property float y
property float z
property uchar red
property uchar green
property uchar blue
end_header
-0.384100 0.206668 0.791000 149 130 124
-0.388691 0.208985 0.792000 126 115 108
-0.386638 0.208985 0.792000 121 90 79
-0.384100 0.208721 0.791000 121 90 79
-0.382050 0.208721 0.791000 152 106 98
-0.380000 0.208721 0.791000 171 125 117
-0.388691 0.211040 0.792000 119 106 95
-0.386638 0.211040 0.792000 117 78 60
-0.384586 0.211040 0.792000 130 91 73
-0.382050 0.210773 0.791000 149 87 70
-0.380000 0.210773 0.791000 155 93 76
-0.377950 0.210773 0.791000 166 117 107
-0.375425 0.210507 0.790000 181 132 122
-0.386638 0.213095 0.792000 109 74 57
-0.384586 0.213095 0.792000 116 81 64
-0.382533 0.213095 0.792000 135 71 53
-0.380000 0.212826 0.791000 148 84 66
-0.377950 0.212826 0.791000 158 88 72
-0.375900 0.212826 0.791000 165 95 79
-0.373850 0.212826 0.791000 168 118 111
-0.370860 0.212288 0.789000 181 131 124
-0.386638 0.215150 0.792000 130 106 92
-0.384586 0.215150 0.792000 108 84 70
-0.382533 0.215150 0.792000 123 67 51
-0.380000 0.214879 0.791000 128 72 56
-0.377950 0.214879 0.791000 146 76 60
-0.375900 0.214879 0.791000 152 82 66
-0.373850 0.214879 0.791000 150 83 68
-0.371330 0.214607 0.790000 172 105 90
-0.368816 0.214335 0.789000 175 132 125
-0.366306 0.214064 0.788000 180 137 130
-0.382533 0.217206 0.792000 123 88 71
-0.380000 0.216931 0.791000 111 76 59
-0.377950 0.216931 0.791000 126 67 49
-0.375900 0.216931 0.791000 138 79 61
-0.373850 0.216931 0.791000 147 78 59
-0.371800 0.216931 0.791000 154 85 66
-0.369283 0.216657 0.790000 157 94 80
-0.366771 0.216383 0.789000 178 115 101
-0.364264 0.216109 0.788000 171 135 127
-0.380000 0.218984 0.791000 130 111 98
-0.377950 0.218984 0.791000 121 80 61
-0.375900 0.218984 0.791000 114 73 54
-0.373850 0.218984 0.791000 133 71 52
-0.371800 0.218984 0.791000 139 77 58
-0.369750 0.218984 0.791000 157 87 68
-0.367236 0.218707 0.790000 156 86 67
-0.364264 0.218153 0.788000 166 108 96
-0.362222 0.218153 0.788000 182 124 112
-0.359722 0.217877 0.787000 172 140 134
-0.376375 0.221316 0.792000 125 104 87
-0.374323 0.221316 0.792000 122 76 56
-0.371800 0.221037 0.791000 117 71 51
-0.369750 0.221037 0.791000 136 70 48
-0.367701 0.221037 0.791000 144 78 56
-0.364726 0.220478 0.789000 156 83 63
-0.362222 0.220198 0.788000 162 89 69
-0.359722 0.219919 0.787000 161 102 93
-0.357228 0.219639 0.786000 187 128 119
-0.354739 0.219360 0.785000 167 140 134
-0.372270 0.223371 0.792000 123 98 80
-0.370218 0.223371 0.792000 118 68 45
-0.367701 0.223089 0.791000 115 65 42
-0.365651 0.223089 0.791000 142 72 49
-0.363141 0.222807 0.790000 152 82 59
-0.360179 0.222243 0.788000 148 75 57
-0.357683 0.221961 0.787000 161 88 70
-0.355643 0.221961 0.787000 168 115 109
-0.353154 0.221679 0.786000 189 136 130
-0.351117 0.221679 0.786000 165 139 135
-0.370218 0.225427 0.792000 140 108 88
-0.368165 0.225427 0.792000 116 84 64
-0.366113 0.225427 0.792000 125 67 44
-0.363601 0.225142 0.791000 131 73 50
-0.361551 0.225142 0.791000 149 76 56
-0.358592 0.224573 0.789000 155 82 62
-0.356095 0.224288 0.788000 153 83 69
-0.353604 0.224003 0.787000 160 90 76
-0.351564 0.224003 0.787000 170 124 118
-0.349525 0.224003 0.787000 179 133 127
-0.366113 0.227482 0.792000 132 96 77
-0.364060 0.227482 0.792000 114 78 59
-0.362008 0.227482 0.792000 130 68 49
-0.359501 0.227195 0.791000 137 75 56
-0.356999 0.226907 0.790000 146 76 60
-0.354502 0.226620 0.789000 142 72 56
-0.352457 0.226620 0.789000 145 80 69
-0.350413 0.226620 0.789000 176 111 100
-0.348368 0.226620 0.789000 171 135 127
-0.362008 0.229537 0.792000 123 87 68
-0.359955 0.229537 0.792000 111 75 56
-0.357451 0.229247 0.791000 133 74 56
-0.355401 0.229247 0.791000 138 79 61
-0.353351 0.229247 0.791000 149 79 63
-0.351301 0.229247 0.791000 156 86 70
-0.348810 0.228957 0.790000 151 90 82
-0.346762 0.228957 0.790000 181 120 112
-0.345151 0.229247 0.791000 170 135 132
-0.360410 0.231885 0.793000 129 110 95
-0.357903 0.231592 0.792000 117 78 58
-0.355850 0.231592 0.792000 112 73 53
-0.353798 0.231592 0.792000 134 75 55
-0.351301 0.231300 0.791000 138 79 59
-0.349251 0.231300 0.791000 151 81 65
-0.347201 0.231300 0.791000 151 81 65
-0.345151 0.231300 0.791000 151 96 91
-0.343101 0.231300 0.791000 176 121 116
-0.356299 0.233942 0.793000 114 94 74
-0.353798 0.233647 0.792000 122 76 56
-0.351745 0.233647 0.792000 121 75 55
-0.349693 0.233647 0.792000 140 74 54
-0.347640 0.233647 0.792000 147 81 61
-0.345588 0.233647 0.792000 150 83 66
-0.343535 0.233647 0.792000 154 87 70
-0.341482 0.233647 0.792000 165 119 113
-0.339859 0.233942 0.793000 180 134 128
-0.354244 0.236000 0.793000 132 104 85
-0.352633 0.236298 0.794000 113 85 66
-0.350134 0.236000 0.793000 121 66 47
-0.348079 0.236000 0.793000 132 77 58
-0.346024 0.236000 0.793000 144 78 56
-0.343969 0.236000 0.793000 151 85 63
-0.341914 0.236000 0.793000 148 84 68
-0.339859 0.236000 0.793000 166 102 86
-0.338229 0.236298 0.794000 166 128 121
-0.336172 0.236298 0.794000 179 141 134
-0.350134 0.238058 0.793000 130 96 76
-0.348079 0.238058 0.793000 116 82 62
-0.346024 0.238058 0.793000 127 68 48
-0.343969 0.238058 0.793000 135 76 56
-0.341914 0.238058 0.793000 146 77 56
-0.340287 0.238358 0.794000 153 84 63
-0.338229 0.238358 0.794000 147 84 72
-0.336172 0.238358 0.794000 169 106 94
-0.334114 0.238358 0.794000 169 134 129
-0.348079 0.240116 0.793000 134 115 100
-0.346024 0.240116 0.793000 121 82 62
-0.343969 0.240116 0.793000 114 75 55
-0.342345 0.240419 0.794000 136 74 55
-0.340287 0.240419 0.794000 142 80 61
-0.338229 0.240419 0.794000 152 82 66
-0.336172 0.240419 0.794000 152 82 66
-0.334114 0.240419 0.794000 149 92 83
-0.332056 0.240419 0.794000 176 119 110
-0.329999 0.240419 0.794000 170 138 132
-0.343969 0.242174 0.793000 122 101 84
-0.342345 0.242479 0.794000 122 76 58
-0.340287 0.242479 0.794000 123 77 59
-0.338229 0.242479 0.794000 138 74 56
-0.336172 0.242479 0.794000 147 83 65
-0.334114 0.242479 0.794000 154 84 68
-0.332056 0.242479 0.794000 159 89 73
-0.329999 0.242479 0.794000 158 104 94
-0.327941 0.242479 0.794000 184 130 120
-0.340287 0.244540 0.794000 118 92 77
-0.338229 0.244540 0.794000 118 67 49
-0.336172 0.244540 0.794000 127 76 58
-0.334114 0.244540 0.794000 148 78 62
-0.332056 0.244540 0.794000 153 83 67
-0.329999 0.244540 0.794000 155 85 69
-0.327941 0.244540 0.794000 159 89 73
-0.325883 0.244540 0.794000 169 120 110
-0.323825 0.244540 0.794000 187 138 128
-0.338229 0.246600 0.794000 137 107 91
-0.336172 0.246600 0.794000 111 81 65
-0.334114 0.246600 0.794000 120 63 44
-0.332056 0.246600 0.794000 126 69 50
-0.329999 0.246600 0.794000 147 78 59
-0.327941 0.246600 0.794000 151 82 63
-0.325883 0.246600 0.794000 154 84 70
-0.323825 0.246600 0.794000 168 98 84
-0.321768 0.246600 0.794000 172 126 118
-0.319710 0.246600 0.794000 180 134 126
-0.334114 0.248661 0.794000 132 97 80
-0.332474 0.248974 0.795000 114 79 62
-0.330414 0.248974 0.795000 125 66 46
-0.328354 0.248974 0.795000 137 78 58
-0.326294 0.248974 0.795000 152 82 61
-0.324233 0.248974 0.795000 153 83 62
-0.321768 0.248661 0.794000 151 84 69
-0.319710 0.248661 0.794000 175 108 93
-0.317652 0.248661 0.794000 172 131 125
-0.330414 0.251037 0.795000 126 87 69
-0.328354 0.251037 0.795000 117 78 60
-0.326294 0.251037 0.795000 136 74 55
-0.324233 0.251037 0.795000 142 80 61
-0.322173 0.251037 0.795000 154 84 63
-0.320113 0.251037 0.795000 156 86 65
-0.318052 0.251037 0.795000 157 94 82
-0.315992 0.251037 0.795000 181 118 106
-0.313932 0.251037 0.795000 174 137 132
-0.328354 0.253100 0.795000 130 106 92
-0.326294 0.253100 0.795000 122 78 60
-0.324233 0.253100 0.795000 119 75 57
-0.322173 0.253100 0.795000 134 71 50
-0.320113 0.253100 0.795000 142 79 58
-0.318052 0.253100 0.795000 154 85 66
-0.315992 0.253100 0.795000 156 87 68
-0.313932 0.253100 0.795000 167 108 99
-0.311871 0.253100 0.795000 185 126 117
-0.309811 0.253100 0.795000 169 139 132
-0.324233 0.255163 0.795000 125 99 84
-0.322173 0.255163 0.795000 124 76 57
-0.320113 0.255163 0.795000 120 72 53
-0.318052 0.255163 0.795000 136 73 52
-0.315992 0.255163 0.795000 145 82 61
-0.313932 0.255163 0.795000 152 82 68
-0.311871 0.255163 0.795000 156 86 72
-0.309811 0.255163 0.795000 164 109 104
-0.307751 0.255163 0.795000 183 128 123
-0.320515 0.257549 0.796000 120 95 77
-0.318452 0.257549 0.796000 117 70 48
-0.316390 0.257549 0.796000 123 76 54
-0.314327 0.257549 0.796000 142 76 56
-0.312264 0.257549 0.796000 151 85 65
-0.310201 0.257549 0.796000 153 83 69
-0.308138 0.257549 0.796000 169 99 85
-0.306075 0.257549 0.796000 173 125 119
-0.316390 0.259615 0.796000 118 88 70
-0.314327 0.259615 0.796000 118 66 44
-0.312264 0.259615 0.796000 127 75 53
-0.310201 0.259615 0.796000 150 84 64
-0.308138 0.259615 0.796000 154 88 68
-0.306075 0.259615 0.796000 158 90 80
-0.304012 0.259615 0.796000 172 104 94
-0.301949 0.259615 0.796000 176 140 132
-0.314327 0.261681 0.796000 130 96 76
-0.312264 0.261681 0.796000 114 80 60
-0.310201 0.261681 0.796000 135 73 54
-0.308138 0.261681 0.796000 141 79 60
-0.306075 0.261681 0.796000 158 85 67
-0.304012 0.261681 0.796000 158 85 67
-0.301949 0.261681 0.796000 162 104 92
-0.299886 0.261681 0.796000 183 125 113
-0.297823 0.261681 0.796000 173 143 136
-0.312264 0.263746 0.796000 130 111 96
-0.310201 0.263746 0.796000 126 85 66
-0.308138 0.263746 0.796000 112 71 52
-0.306075 0.263746 0.796000 133 67 47
-0.304394 0.264078 0.797000 149 83 63
-0.301949 0.263746 0.796000 156 86 67
-0.299886 0.263746 0.796000 160 90 71
-0.297823 0.263746 0.796000 161 107 97
-0.295761 0.263746 0.796000 184 130 120
-0.308138 0.265812 0.796000 120 95 77
-0.306075 0.265812 0.796000 118 70 51
-0.304394 0.266146 0.797000 118 70 51
-0.302329 0.266146 0.797000 148 78 62
-0.300263 0.266146 0.797000 154 84 68
-0.297823 0.265812 0.796000 151 84 67
-0.295761 0.265812 0.796000 159 92 75
-0.293698 0.265812 0.796000 163 117 109
-0.291635 0.265812 0.796000 178 132 124
-0.306460 0.268214 0.797000 135 105 87
-0.304394 0.268214 0.797000 112 82 64
-0.302329 0.268214 0.797000 128 73 54
-0.300263 0.268214 0.797000 132 77 58
-0.297823 0.267877 0.796000 146 79 62
-0.295761 0.267877 0.796000 154 87 70
-0.293698 0.267877 0.796000 150 85 72
-0.291635 0.267877 0.796000 162 97 84
-0.289572 0.267877 0.796000 174 136 127
-0.302329 0.270282 0.797000 128 92 73
-0.300263 0.270282 0.797000 110 74 55
-0.298198 0.270282 0.797000 123 64 44
-0.295761 0.269943 0.796000 137 78 58
-0.293698 0.269943 0.796000 152 82 63
-0.291635 0.269943 0.796000 152 82 63
-0.289572 0.269943 0.796000 154 91 77
-0.287509 0.269943 0.796000 175 112 98
-0.285087 0.269604 0.795000 174 138 130
-0.300263 0.272350 0.797000 133 112 97
-0.298198 0.272350 0.797000 121 80 63
-0.295761 0.272009 0.796000 114 73 56
-0.293698 0.272009 0.796000 134 70 52
-0.291635 0.272009 0.796000 141 77 59
-0.289572 0.272009 0.796000 152 82 63
-0.287509 0.272009 0.796000 157 87 68
-0.285446 0.272009 0.796000 159 99 86
-0.283383 0.272009 0.796000 181 121 108
-0.280967 0.271667 0.795000 178 142 134
-0.296132 0.274419 0.797000 133 109 93
-0.293698 0.274074 0.796000 123 77 59
-0.291635 0.274074 0.796000 115 69 51
-0.289572 0.274074 0.796000 138 72 52
-0.287509 0.274074 0.796000 149 83 63
-0.285446 0.274074 0.796000 154 84 63
-0.283383 0.274074 0.796000 154 84 63
-0.281320 0.274074 0.796000 160 104 92
-0.279257 0.274074 0.796000 179 123 111
-0.276846 0.273730 0.795000 179 145 137
-0.291635 0.276140 0.796000 113 87 72
-0.289572 0.276140 0.796000 119 71 52
-0.287509 0.276140 0.796000 118 70 51
-0.285446 0.276140 0.796000 143 77 57
-0.283383 0.276140 0.796000 149 83 63
-0.281320 0.276140 0.796000 152 83 62
-0.279257 0.276140 0.796000 158 89 68
-0.277194 0.276140 0.796000 164 113 99
-0.275132 0.276140 0.796000 182 131 117
-0.289572 0.278206 0.796000 136 108 89
-0.287509 0.278206 0.796000 117 89 70
-0.285446 0.278206 0.796000 121 69 47
-0.283383 0.278206 0.796000 122 70 48
-0.281320 0.278206 0.796000 138 75 52
-0.279257 0.278206 0.796000 145 82 59
-0.277194 0.278206 0.796000 149 83 63
-0.275132 0.278206 0.796000 153 87 67
-0.273069 0.278206 0.796000 156 104 95
-0.271006 0.278206 0.796000 178 126 117
-0.285446 0.280271 0.796000 128 96 76
-0.283383 0.280271 0.796000 118 86 66
-0.281320 0.280271 0.796000 125 70 49
-0.279257 0.280271 0.796000 131 76 55
-0.277194 0.280271 0.796000 143 80 57
-0.275132 0.280271 0.796000 147 84 61
-0.273069 0.280271 0.796000 144 77 60
-0.271006 0.280271 0.796000 146 79 62
-0.268943 0.280271 0.796000 162 113 103
-0.266545 0.279919 0.795000 187 138 128
-0.281674 0.282691 0.797000 131 95 74
-0.279608 0.282691 0.797000 114 78 57
-0.277543 0.282691 0.797000 129 73 49
-0.275477 0.282691 0.797000 136 80 56
-0.273069 0.282337 0.796000 148 79 56
-0.271006 0.282337 0.796000 149 80 57
-0.268943 0.282337 0.796000 154 84 68
-0.266880 0.282337 0.796000 163 93 77
-0.264484 0.281982 0.795000 159 112 101
-0.262424 0.281982 0.795000 163 116 105
-0.277543 0.284760 0.797000 130 91 69
-0.275477 0.284760 0.797000 116 77 55
-0.273412 0.284760 0.797000 132 71 47
-0.271346 0.284760 0.797000 137 76 52
-0.268943 0.284402 0.796000 157 84 64
-0.266880 0.284402 0.796000 157 84 64
-0.264817 0.284402 0.796000 152 85 68
-0.262424 0.284045 0.795000 163 96 79
-0.260364 0.284045 0.795000 167 126 118
-0.052010 0.282616 0.791000 135 116 112
-0.049960 0.282616 0.791000 135 112 107
-0.047910 0.282616 0.791000 147 124 119
-0.273412 0.286828 0.797000 128 87 66
-0.271346 0.286828 0.797000 113 72 51
-0.269281 0.286828 0.797000 135 72 49
-0.266880 0.286468 0.796000 141 78 55
-0.264817 0.286468 0.796000 149 79 58
-0.262754 0.286468 0.796000 155 85 64
-0.260691 0.286468 0.796000 149 89 76
-0.258304 0.286108 0.795000 173 113 100
-0.256243 0.286108 0.795000 170 136 128
-0.056110 0.284669 0.791000 128 112 109
-0.054060 0.284669 0.791000 139 107 101
-0.052010 0.284669 0.791000 118 86 80
-0.049960 0.284669 0.791000 110 69 61
-0.047910 0.284669 0.791000 113 72 64
-0.045860 0.284669 0.791000 154 131 126
-0.271687 0.289259 0.798000 135 114 97
-0.269281 0.288896 0.797000 123 79 61
-0.267215 0.288896 0.797000 116 72 54
-0.264817 0.288534 0.796000 137 74 53
-0.262754 0.288534 0.796000 145 82 61
-0.260691 0.288534 0.796000 157 87 68
-0.258628 0.288534 0.796000 153 83 64
-0.256566 0.288534 0.796000 157 99 87
-0.254183 0.288171 0.795000 174 116 104
-0.252123 0.288171 0.795000 166 136 129
-0.058160 0.286721 0.791000 128 106 98
-0.056110 0.286721 0.791000 124 102 94
-0.054060 0.286721 0.791000 125 78 65
-0.052010 0.286721 0.791000 114 67 54
-0.049960 0.286721 0.791000 107 60 47
-0.047910 0.286721 0.791000 110 63 50
-0.045860 0.286721 0.791000 131 108 103
-0.267551 0.291329 0.798000 124 98 83
-0.265150 0.290964 0.797000 127 79 60
-0.262754 0.290599 0.796000 118 70 51
-0.260691 0.290599 0.796000 138 72 52
-0.258628 0.290599 0.796000 149 83 63
-0.256566 0.290599 0.796000 156 86 67
-0.254503 0.290599 0.796000 163 93 74
-0.252440 0.290599 0.796000 166 114 105
-0.250377 0.290599 0.796000 178 126 117
-0.060210 0.288774 0.791000 125 106 100
-0.058160 0.288774 0.791000 130 92 81
-0.056039 0.288409 0.790000 121 83 72
-0.053992 0.288409 0.790000 123 67 51
-0.052010 0.288774 0.791000 117 61 45
-0.049960 0.288774 0.791000 106 61 50
-0.047910 0.288774 0.791000 136 91 80
-0.263084 0.293033 0.797000 109 77 57
-0.261019 0.293033 0.797000 126 74 52
-0.258628 0.292665 0.796000 129 77 55
-0.256566 0.292665 0.796000 146 77 58
-0.254503 0.292665 0.796000 155 86 67
-0.252440 0.292665 0.796000 159 92 75
-0.250377 0.292665 0.796000 166 99 82
-0.248314 0.292665 0.796000 164 121 112
-0.246251 0.292665 0.796000 180 137 128
-0.062260 0.290827 0.791000 135 104 95
-0.060210 0.290827 0.791000 120 89 80
-0.058086 0.290459 0.790000 126 73 58
-0.056039 0.290459 0.790000 125 72 57
-0.053992 0.290459 0.790000 118 62 46
-0.051944 0.290459 0.790000 115 59 43
-0.049960 0.290827 0.791000 144 108 96
-0.261019 0.295101 0.797000 137 101 82
-0.258953 0.295101 0.797000 119 83 64
-0.256888 0.295101 0.797000 129 72 51
-0.254822 0.295101 0.797000 133 76 55
-0.252757 0.295101 0.797000 152 83 62
-0.250377 0.294730 0.796000 155 86 65
-0.248626 0.295101 0.797000 154 94 79
-0.246560 0.295101 0.797000 170 110 95
-0.244495 0.295101 0.797000 173 137 129
-0.242429 0.295101 0.797000 179 143 135
-0.064310 0.292879 0.791000 126 101 94
-0.062260 0.292879 0.791000 129 82 69
-0.060210 0.292879 0.791000 123 76 63
-0.058086 0.292509 0.790000 128 69 51
-0.056110 0.292879 0.791000 121 62 44
-0.054060 0.292879 0.791000 118 70 53
-0.052010 0.292879 0.791000 158 110 93
-0.257210 0.297542 0.798000 133 97 78
-0.254822 0.297169 0.797000 109 73 54
-0.252757 0.297169 0.797000 124 66 43
-0.250691 0.297169 0.797000 139 81 58
-0.248626 0.297169 0.797000 151 82 63
-0.246870 0.297542 0.798000 154 85 66
-0.244802 0.297542 0.798000 160 100 87
-0.242734 0.297542 0.798000 176 116 103
-0.240666 0.297542 0.798000 176 144 138
-0.066360 0.294932 0.791000 135 94 84
-0.064310 0.294932 0.791000 121 80 70
-0.062260 0.294932 0.791000 124 65 47
-0.060210 0.294932 0.791000 127 68 50
-0.058160 0.294932 0.791000 123 66 47
-0.056110 0.294932 0.791000 126 69 50
-0.054060 0.294932 0.791000 158 124 114
-0.253074 0.299613 0.798000 129 83 65
-0.251006 0.299613 0.798000 118 72 54
-0.248938 0.299613 0.798000 133 72 50
-0.246870 0.299613 0.798000 140 79 57
-0.244802 0.299613 0.798000 160 90 71
-0.243038 0.299988 0.799000 159 89 70
-0.240967 0.299988 0.799000 166 107 98
-0.238896 0.299988 0.799000 188 129 120
-0.236826 0.299988 0.799000 175 148 140
-0.070549 0.297360 0.792000 132 103 93
-0.068410 0.296984 0.791000 122 93 83
-0.066360 0.296984 0.791000 132 74 60
-0.064310 0.296984 0.791000 126 68 54
-0.062260 0.296984 0.791000 126 67 49
-0.060210 0.296984 0.791000 123 64 46
-0.058160 0.296984 0.791000 133 87 71
-0.056181 0.297360 0.792000 171 125 109
-0.251321 0.302061 0.799000 123 95 78
-0.249250 0.302061 0.799000 120 69 51
-0.247179 0.302061 0.799000 117 66 48
-0.245108 0.302061 0.799000 144 75 56
-0.243038 0.302061 0.799000 155 86 67
-0.241570 0.302818 0.801000 156 82 67
-0.239494 0.302818 0.801000 166 92 77
-0.237419 0.302818 0.801000 176 124 115
-0.235343 0.302818 0.801000 191 139 130
-0.072510 0.299037 0.791000 123 102 97
-0.070460 0.299037 0.791000 125 78 65
-0.068410 0.299037 0.791000 119 72 59
-0.066360 0.299037 0.791000 133 71 54
-0.064310 0.299037 0.791000 127 65 48
-0.062260 0.299037 0.791000 123 67 53
-0.060286 0.299415 0.792000 144 88 74
-0.058233 0.299415 0.792000 167 136 125
-0.247798 0.304896 0.801000 115 82 65
-0.245722 0.304896 0.801000 122 65 46
-0.243646 0.304896 0.801000 131 74 55
-0.241570 0.304896 0.801000 151 78 60
-0.239494 0.304896 0.801000 158 85 67
-0.237419 0.304896 0.801000 165 95 81
-0.235343 0.304896 0.801000 175 105 91
-0.233267 0.304896 0.801000 184 138 130
-0.231191 0.304896 0.801000 185 139 131
-0.076609 0.301090 0.791000 121 105 102
-0.074559 0.301090 0.791000 127 91 81
-0.072510 0.301090 0.791000 120 84 74
-0.070460 0.301090 0.791000 127 69 53
-0.068410 0.301090 0.791000 127 69 53
-0.066360 0.301090 0.791000 124 66 50
-0.064310 0.301090 0.791000 125 67 51
-0.062339 0.301470 0.792000 154 114 101
-0.246029 0.307358 0.802000 133 97 78
-0.242173 0.307741 0.803000 129 67 48
-0.240092 0.307741 0.803000 133 71 52
-0.237715 0.307358 0.802000 156 83 63
-0.235637 0.307358 0.802000 161 88 68
-0.233267 0.306975 0.801000 163 96 81
-0.231191 0.306975 0.801000 185 118 103
-0.229115 0.306975 0.801000 183 142 134
-0.078759 0.303526 0.792000 132 100 94
-0.076609 0.303142 0.791000 120 88 82
-0.074559 0.303142 0.791000 122 66 52
-0.072510 0.303142 0.791000 123 67 53
-0.070460 0.303142 0.791000 125 65 50
-0.068410 0.303142 0.791000 127 67 52
-0.066360 0.303142 0.791000 136 90 74
-0.064391 0.303526 0.792000 168 122 106
-0.244255 0.309825 0.803000 132 111 96
-0.242173 0.309825 0.803000 124 80 62
-0.240092 0.309825 0.803000 112 68 50
-0.238011 0.309825 0.803000 137 68 47
-0.235637 0.309439 0.802000 153 84 63
-0.233558 0.309439 0.802000 162 87 68
-0.231191 0.309053 0.801000 165 90 71
-0.229115 0.309053 0.801000 172 107 94
-0.226472 0.308282 0.799000 190 125 112
-0.224402 0.308282 0.799000 180 143 138
-0.080811 0.305581 0.792000 124 97 91
-0.078659 0.305195 0.791000 124 75 63
-0.076609 0.305195 0.791000 123 74 62
-0.074465 0.304809 0.790000 129 67 50
-0.072510 0.305195 0.791000 122 60 43
-0.070460 0.305195 0.791000 122 69 54
-0.068410 0.305195 0.791000 151 98 83
-0.066360 0.305195 0.791000 162 131 122
-0.240391 0.312297 0.804000 121 97 81
-0.238308 0.312297 0.804000 121 69 49
-0.235930 0.311909 0.803000 118 66 46
-0.233558 0.311520 0.802000 146 76 55
-0.231191 0.311132 0.801000 153 83 62
-0.229115 0.311132 0.801000 164 89 70
-0.227039 0.311132 0.801000 169 94 75
-0.224402 0.310355 0.799000 172 111 103
-0.222331 0.310355 0.799000 193 132 124
-0.084916 0.307636 0.792000 125 104 99
-0.082864 0.307636 0.792000 134 89 78
-0.080709 0.307248 0.791000 120 75 64
-0.078659 0.307248 0.791000 130 71 53
-0.076513 0.306859 0.790000 126 67 49
-0.074465 0.306859 0.790000 120 63 44
-0.072418 0.306859 0.790000 130 73 54
-0.070460 0.307248 0.791000 157 121 109
-0.238308 0.314384 0.804000 139 109 93
-0.235930 0.313993 0.803000 116 86 70
-0.233558 0.313602 0.802000 124 69 48
-0.231191 0.313211 0.801000 124 69 48
-0.229115 0.313211 0.801000 149 76 56
-0.227039 0.313211 0.801000 158 85 65
-0.224402 0.312429 0.799000 164 91 73
-0.222331 0.312429 0.799000 176 103 85
-0.220260 0.312429 0.799000 174 120 112
-0.218190 0.312429 0.799000 188 134 126
-0.086969 0.309691 0.792000 134 98 88
-0.084916 0.309691 0.792000 124 88 78
-0.082864 0.309691 0.792000 131 71 56
-0.080709 0.309300 0.791000 127 67 52
-0.078659 0.309300 0.791000 124 65 45
-0.076513 0.308909 0.790000 126 67 47
-0.074465 0.308909 0.790000 137 93 77
-0.072418 0.308909 0.790000 166 122 106
-0.233267 0.315289 0.801000 136 103 86
-0.231191 0.315289 0.801000 111 78 61
-0.229115 0.315289 0.801000 126 69 48
-0.226472 0.314502 0.799000 132 75 54
-0.224402 0.314502 0.799000 152 79 59
-0.222331 0.314502 0.799000 157 84 64
-0.220260 0.314502 0.799000 164 90 75
-0.218190 0.314502 0.799000 179 105 90
-0.216119 0.314502 0.799000 176 126 119
-0.213781 0.314108 0.798000 185 135 128
-0.091304 0.312534 0.794000 133 103 96
-0.089246 0.312534 0.794000 124 94 87
-0.086969 0.311747 0.792000 126 73 58
-0.084916 0.311747 0.792000 126 73 58
-0.082759 0.311353 0.791000 124 65 45
-0.080709 0.311353 0.791000 121 62 42
-0.078659 0.311353 0.791000 128 77 61
-0.076513 0.310959 0.790000 155 104 88
-0.074465 0.310959 0.790000 159 135 123
-0.229115 0.317368 0.801000 123 87 66
-0.227039 0.317368 0.801000 111 75 54
-0.224963 0.317368 0.801000 134 72 53
-0.222331 0.316575 0.799000 136 74 55
-0.220260 0.316575 0.799000 155 80 61
-0.218190 0.316575 0.799000 158 83 64
-0.216119 0.316575 0.799000 167 96 85
-0.214048 0.316575 0.799000 181 110 99
-0.211712 0.316179 0.798000 181 140 132
-0.093362 0.314594 0.794000 128 102 98
-0.091304 0.314594 0.794000 131 84 73
-0.089134 0.314198 0.793000 119 72 61
-0.086969 0.313802 0.792000 126 67 49
-0.084916 0.313802 0.792000 125 66 48
-0.082864 0.313802 0.792000 122 66 50
-0.080709 0.313406 0.791000 141 85 69
-0.078560 0.313009 0.790000 151 117 105
-0.227039 0.319446 0.801000 132 113 96
-0.224963 0.319446 0.801000 123 84 64
-0.222888 0.319446 0.801000 112 73 53
-0.220812 0.319446 0.801000 135 69 49
-0.218736 0.319446 0.801000 146 80 60
-0.216119 0.318649 0.799000 158 85 65
-0.214048 0.318649 0.799000 162 89 69
-0.211978 0.318649 0.799000 166 101 92
-0.209644 0.318250 0.798000 193 128 119
-0.207576 0.318250 0.798000 177 143 135
-0.097477 0.316655 0.794000 129 110 104
-0.095419 0.316655 0.794000 132 94 85
-0.093362 0.316655 0.794000 122 84 75
-0.091304 0.316655 0.794000 127 69 53
-0.089134 0.316256 0.793000 125 67 51
-0.086969 0.315857 0.792000 120 63 44
-0.084916 0.315857 0.792000 125 68 49
-0.082864 0.315857 0.792000 145 106 88
-0.080709 0.315458 0.791000 167 128 110
-0.222888 0.321525 0.801000 126 105 88
-0.220812 0.321525 0.801000 119 72 50
-0.218736 0.321525 0.801000 116 69 47
-0.216660 0.321525 0.801000 143 73 52
-0.214584 0.321525 0.801000 153 83 62
-0.211978 0.320722 0.799000 162 87 70
-0.209907 0.320722 0.799000 173 98 81
-0.207836 0.320722 0.799000 169 112 103
-0.205508 0.320321 0.798000 192 135 126
-0.099660 0.319117 0.795000 135 104 93
-0.097477 0.318715 0.794000 125 94 83
-0.095419 0.318715 0.794000 127 74 59
-0.093362 0.318715 0.794000 127 74 59
-0.091304 0.318715 0.794000 128 69 51
-0.089246 0.318715 0.794000 118 59 41
-0.086969 0.317912 0.792000 131 85 67
-0.084916 0.317912 0.792000 158 112 94
-0.219282 0.324412 0.803000 117 92 74
-0.217201 0.324412 0.803000 122 67 48
-0.214852 0.324008 0.802000 127 72 53
-0.212508 0.323604 0.801000 145 72 52
-0.210433 0.323604 0.801000 159 86 66
-0.207836 0.322796 0.799000 166 93 75
-0.205766 0.322796 0.799000 175 102 84
-0.203695 0.322796 0.799000 182 134 126
-0.103781 0.321180 0.795000 136 111 102
-0.101720 0.321180 0.795000 127 102 93
-0.099660 0.321180 0.795000 131 83 68
-0.097477 0.320776 0.794000 122 74 59
-0.095419 0.320776 0.794000 129 67 50
-0.093362 0.320776 0.794000 125 63 46
-0.091304 0.320776 0.794000 120 67 50
-0.089246 0.320776 0.794000 146 93 76
-0.087189 0.320776 0.794000 161 132 120
-0.217472 0.326902 0.804000 136 103 86
-0.215388 0.326902 0.804000 113 80 63
-0.213039 0.326495 0.803000 119 60 40
-0.210695 0.326089 0.802000 134 75 55
-0.208357 0.325682 0.801000 157 84 64
-0.206281 0.325682 0.801000 159 86 66
-0.203695 0.324869 0.799000 166 98 86
-0.201624 0.324869 0.799000 187 119 107
-0.199304 0.324462 0.798000 175 137 130
-0.105841 0.323243 0.795000 128 105 100
-0.103781 0.323243 0.795000 131 86 75
-0.101720 0.323243 0.795000 120 75 64
-0.099660 0.323243 0.795000 130 68 49
-0.097477 0.322836 0.794000 132 70 51
-0.095419 0.322836 0.794000 120 62 46
-0.093362 0.322836 0.794000 130 72 56
-0.091304 0.322836 0.794000 149 112 98
-0.089246 0.322836 0.794000 168 131 117
-0.213304 0.328988 0.804000 121 82 64
-0.210958 0.328579 0.803000 110 71 53
-0.208617 0.328170 0.802000 129 65 47
-0.206538 0.328170 0.802000 141 77 59
-0.204205 0.327761 0.801000 161 87 72
-0.202129 0.327761 0.801000 169 95 80
-0.199554 0.326942 0.799000 166 105 97
-0.197483 0.326942 0.799000 189 128 120
-0.195168 0.326533 0.798000 176 144 138
-0.109962 0.325306 0.795000 132 113 109
-0.107901 0.325306 0.795000 136 100 90
-0.105841 0.325306 0.795000 123 87 77
-0.103781 0.325306 0.795000 131 71 58
-0.101593 0.324896 0.794000 127 67 54
-0.099535 0.324896 0.794000 123 64 46
-0.097477 0.324896 0.794000 124 65 47
-0.095419 0.324896 0.794000 133 86 73
-0.093362 0.324896 0.794000 170 123 110
-0.211221 0.331075 0.804000 122 98 82
-0.208877 0.330663 0.803000 118 72 54
-0.206796 0.330663 0.803000 115 69 51
-0.204460 0.330251 0.802000 139 69 53
-0.202129 0.329839 0.801000 159 89 73
-0.200053 0.329839 0.801000 170 99 83
-0.197483 0.329016 0.799000 169 98 82
-0.195412 0.329016 0.799000 172 117 112
-0.193100 0.328604 0.798000 185 130 125
-0.112022 0.327369 0.795000 135 103 97
-0.109962 0.327369 0.795000 125 93 87
-0.107901 0.327369 0.795000 132 81 67
-0.105841 0.327369 0.795000 121 70 56
-0.103650 0.326957 0.794000 127 68 50
-0.101593 0.326957 0.794000 120 61 43
-0.099535 0.326957 0.794000 119 66 51
-0.097477 0.326957 0.794000 154 101 86
-0.095419 0.326957 0.794000 156 130 119
-0.207053 0.333161 0.804000 117 89 72
-0.204970 0.333161 0.804000 123 68 49
-0.202381 0.332332 0.802000 123 68 49
-0.200303 0.332332 0.802000 149 79 60
-0.197977 0.331918 0.801000 159 89 70
-0.195412 0.331089 0.799000 166 95 79
-0.193342 0.331089 0.799000 170 99 83
-0.191271 0.331089 0.799000 174 124 117
-0.188964 0.330675 0.798000 186 136 129
-0.116143 0.329432 0.795000 136 109 103
-0.114082 0.329432 0.795000 129 102 96
-0.111881 0.329017 0.794000 130 81 69
-0.109823 0.329017 0.794000 120 71 59
-0.107766 0.329017 0.794000 128 69 51
-0.105708 0.329017 0.794000 120 61 43
-0.103650 0.329017 0.794000 116 63 46
-0.101593 0.329017 0.794000 123 70 53
-0.099660 0.329432 0.795000 146 115 102
-0.204970 0.335247 0.804000 132 98 78
-0.202634 0.334830 0.803000 111 77 57
-0.200303 0.334413 0.802000 128 66 47
-0.197977 0.333997 0.801000 136 74 55
-0.195902 0.333997 0.801000 159 86 64
-0.193342 0.333163 0.799000 164 91 69
-0.191271 0.333163 0.799000 166 96 82
-0.189200 0.333163 0.799000 183 113 99
-0.186896 0.332746 0.798000 177 139 132
-0.118203 0.331495 0.795000 134 111 106
-0.115996 0.331078 0.794000 134 92 80
-0.113939 0.331078 0.794000 125 83 71
-0.111881 0.331078 0.794000 130 71 51
-0.109823 0.331078 0.794000 127 68 48
-0.107766 0.331078 0.794000 122 65 44
-0.105708 0.331078 0.794000 120 63 42
-0.103650 0.331078 0.794000 133 96 82
-0.101720 0.331495 0.795000 161 124 110
-0.200553 0.336914 0.803000 126 82 66
-0.198225 0.336495 0.802000 115 71 55
-0.195902 0.336075 0.801000 136 70 48
-0.193826 0.336075 0.801000 149 83 61
-0.191271 0.335236 0.799000 163 88 67
-0.189200 0.335236 0.799000 165 90 69
-0.187130 0.335236 0.799000 161 96 85
-0.184827 0.334816 0.798000 179 114 103
-0.182759 0.334816 0.798000 169 135 127
-0.122323 0.333558 0.795000 136 115 112
-0.120263 0.333558 0.795000 135 99 89
-0.118054 0.333138 0.794000 125 89 79
-0.115996 0.333138 0.794000 134 77 56
-0.113939 0.333138 0.794000 127 70 49
-0.111881 0.333138 0.794000 127 69 46
-0.109823 0.333138 0.794000 124 66 43
-0.107766 0.333138 0.794000 119 73 55
-0.105708 0.333138 0.794000 160 114 96
-0.198225 0.338576 0.802000 129 103 88
-0.196146 0.338576 0.802000 124 76 57
-0.193826 0.338154 0.801000 117 69 50
-0.191750 0.338154 0.801000 138 69 48
-0.189200 0.337309 0.799000 147 78 57
-0.187130 0.337309 0.799000 156 81 64
-0.185059 0.337309 0.799000 160 85 68
-0.182988 0.337309 0.799000 166 108 96
-0.180918 0.337309 0.799000 182 124 112
-0.178623 0.336887 0.798000 169 138 129
-0.124384 0.335621 0.795000 136 101 96
-0.122323 0.335621 0.795000 127 92 87
-0.120263 0.335621 0.795000 128 75 58
-0.118054 0.335199 0.794000 126 73 56
-0.115996 0.335199 0.794000 132 71 49
-0.113939 0.335199 0.794000 126 65 43
-0.111881 0.335199 0.794000 121 69 49
-0.109823 0.335199 0.794000 143 91 71
-0.107766 0.335199 0.794000 160 129 116
-0.194068 0.340657 0.802000 122 94 77
-0.191750 0.340232 0.801000 124 73 55
-0.189674 0.340232 0.801000 119 68 50
-0.187598 0.340232 0.801000 141 71 52
-0.185059 0.339383 0.799000 156 86 67
-0.182988 0.339383 0.799000 160 90 71
-0.180918 0.339383 0.799000 161 91 72
-0.178847 0.339383 0.799000 152 95 86
-0.176776 0.339383 0.799000 180 123 114
-0.174706 0.339383 0.799000 175 140 135
-0.128666 0.338109 0.796000 143 107 97
-0.126603 0.338109 0.796000 136 100 90
-0.124384 0.337684 0.795000 135 82 67
-0.122323 0.337684 0.795000 122 69 54
-0.120263 0.337684 0.795000 132 70 51
-0.118054 0.337259 0.794000 129 67 48
-0.115996 0.337259 0.794000 121 66 47
-0.113939 0.337259 0.794000 139 84 65
-0.111881 0.337259 0.794000 152 117 100
-0.191750 0.342311 0.801000 142 109 94
-0.189674 0.342311 0.801000 118 85 70
-0.187598 0.342311 0.801000 120 65 46
-0.185522 0.342311 0.801000 122 67 48
-0.183446 0.342311 0.801000 138 72 52
-0.181371 0.342311 0.801000 152 86 66
-0.179295 0.342311 0.801000 153 83 67
-0.177219 0.342311 0.801000 165 95 79
-0.174706 0.341456 0.799000 167 108 99
-0.172635 0.341456 0.799000 183 124 115
-0.170564 0.341456 0.799000 170 135 130
-0.132792 0.340174 0.796000 145 109 101
-0.130729 0.340174 0.796000 136 100 92
-0.128666 0.340174 0.796000 138 82 68
-0.126444 0.339747 0.795000 129 73 59
-0.124384 0.339747 0.795000 135 73 54
-0.122323 0.339747 0.795000 133 71 52
-0.120263 0.339747 0.795000 122 65 46
-0.118203 0.339747 0.795000 126 69 50
-0.116143 0.339747 0.795000 134 95 77
-0.113939 0.339319 0.794000 166 127 109
-0.187598 0.344389 0.801000 136 102 82
-0.185522 0.344389 0.801000 117 83 63
-0.183446 0.344389 0.801000 122 67 46
-0.181371 0.344389 0.801000 128 73 52
-0.179295 0.344389 0.801000 142 76 56
-0.177219 0.344389 0.801000 150 84 64
-0.175143 0.344389 0.801000 152 82 66
-0.173067 0.344389 0.801000 158 88 72
-0.170991 0.344389 0.801000 165 106 97
-0.168494 0.343530 0.799000 182 123 114
-0.166423 0.343530 0.799000 173 137 129
-0.164352 0.343530 0.799000 176 140 132
-0.139155 0.342670 0.797000 142 123 117
-0.137090 0.342670 0.797000 144 108 100
-0.134855 0.342240 0.796000 135 99 91
-0.132792 0.342240 0.796000 136 83 70
-0.130729 0.342240 0.796000 129 76 63
-0.128666 0.342240 0.796000 137 71 51
-0.126444 0.341810 0.795000 138 72 52
-0.124384 0.341810 0.795000 133 72 50
-0.122323 0.341810 0.795000 129 68 46
-0.120263 0.341810 0.795000 130 86 68
-0.118203 0.341810 0.795000 157 113 95
-0.183675 0.346901 0.802000 138 102 83
-0.181597 0.346901 0.802000 117 81 62
-0.179519 0.346901 0.802000 121 69 49
-0.177440 0.346901 0.802000 129 77 57
-0.175143 0.346468 0.801000 144 75 56
-0.173067 0.346468 0.801000 145 76 57
-0.170991 0.346468 0.801000 155 85 66
-0.168915 0.346468 0.801000 162 92 73
-0.166840 0.346468 0.801000 158 98 85
-0.164352 0.345603 0.799000 170 110 97
-0.162282 0.345603 0.799000 170 127 118
-0.160211 0.345603 0.799000 176 133 124
-0.158140 0.345603 0.799000 169 140 130
-0.147602 0.345170 0.798000 156 134 126
-0.145352 0.344738 0.797000 156 131 122
-0.143286 0.344738 0.797000 149 124 115
-0.141221 0.344738 0.797000 146 108 97
-0.138981 0.344305 0.796000 137 99 88
-0.136918 0.344305 0.796000 141 85 71
-0.134855 0.344305 0.796000 131 75 61
-0.132792 0.344305 0.796000 138 72 52
-0.130729 0.344305 0.796000 136 70 50
-0.128666 0.344305 0.796000 133 70 47
-0.126444 0.343873 0.795000 127 64 41
-0.124384 0.343873 0.795000 123 76 54
-0.122323 0.343873 0.795000 153 106 84
-0.120263 0.343873 0.795000 156 132 120
-0.179742 0.349417 0.803000 135 100 85
-0.177661 0.349417 0.803000 117 82 67
-0.175580 0.349417 0.803000 124 69 50
-0.173499 0.349417 0.803000 127 72 53
-0.171205 0.348982 0.802000 139 73 53
-0.169126 0.348982 0.802000 142 76 56
-0.166840 0.348547 0.801000 150 77 57
-0.164764 0.348547 0.801000 155 82 62
-0.162688 0.348547 0.801000 152 82 66
-0.160211 0.347676 0.799000 153 83 67
-0.158140 0.347676 0.799000 153 97 81
-0.156070 0.347676 0.799000 158 102 86
-0.153806 0.347241 0.798000 153 106 93
-0.151738 0.347241 0.798000 154 107 94
-0.149670 0.347241 0.798000 151 104 91
-0.147602 0.347241 0.798000 143 96 83
-0.145534 0.347241 0.798000 136 85 71
-0.143286 0.346806 0.797000 134 83 69
-0.141221 0.346806 0.797000 136 74 55
-0.139155 0.346806 0.797000 132 70 51
-0.137090 0.346806 0.797000 138 72 50
-0.134855 0.346371 0.796000 137 71 49
-0.132792 0.346371 0.796000 131 68 45
-0.130729 0.346371 0.796000 128 65 42
-0.128666 0.346371 0.796000 132 82 61
-0.126603 0.346371 0.796000 154 104 83
-0.124540 0.346371 0.796000 157 128 116
-0.175799 0.351938 0.804000 136 101 86
-0.173715 0.351938 0.804000 117 82 67
-0.171418 0.351501 0.803000 122 69 52
-0.169337 0.351501 0.803000 122 69 52
-0.167048 0.351063 0.802000 133 67 47
-0.164969 0.351063 0.802000 139 73 53
-0.162688 0.350625 0.801000 145 76 53
-0.160612 0.350625 0.801000 145 76 53
-0.158140 0.349750 0.799000 144 75 52
-0.156070 0.349750 0.799000 144 75 52
-0.153999 0.349750 0.799000 143 77 55
-0.151928 0.349750 0.799000 143 77 55
-0.149858 0.349750 0.799000 143 77 57
-0.147602 0.349312 0.798000 136 70 50
-0.145534 0.349312 0.798000 138 69 50
-0.143466 0.349312 0.798000 139 70 51
-0.141221 0.348874 0.797000 138 69 48
-0.139155 0.348874 0.797000 135 66 45
-0.137090 0.348874 0.797000 129 68 46
-0.135024 0.348874 0.797000 127 66 44
-0.132792 0.348437 0.796000 125 77 58
-0.130729 0.348437 0.796000 151 103 84
-0.128666 0.348437 0.796000 155 124 111
-0.171632 0.354025 0.804000 137 107 91
-0.169548 0.354025 0.804000 120 90 74
-0.167464 0.354025 0.804000 121 75 55
-0.165175 0.353585 0.803000 116 70 50
-0.162891 0.353144 0.802000 125 69 45
-0.160612 0.352704 0.801000 127 71 47
-0.158536 0.352704 0.801000 131 68 45
-0.156460 0.352704 0.801000 133 70 47
-0.153999 0.351823 0.799000 134 71 48
-0.151928 0.351823 0.799000 133 70 47
-0.149858 0.351823 0.799000 131 65 45
-0.147602 0.351383 0.798000 131 65 45
-0.145534 0.351383 0.798000 130 67 46
-0.143466 0.351383 0.798000 130 67 46
-0.141398 0.351383 0.798000 125 68 47
-0.139330 0.351383 0.798000 131 74 53
-0.137090 0.350943 0.797000 135 91 71
-0.135024 0.350943 0.797000 156 112 92
-0.165381 0.356111 0.804000 136 112 96
-0.163094 0.355668 0.803000 133 97 78
-0.160813 0.355225 0.802000 119 83 64
-0.158536 0.354782 0.801000 118 72 52
-0.156460 0.354782 0.801000 116 70 50
-0.154384 0.354782 0.801000 118 66 46
-0.151928 0.353897 0.799000 118 66 46
-0.149858 0.353897 0.799000 118 66 46
-0.147787 0.353897 0.799000 121 69 49
-0.145716 0.353897 0.799000 124 76 57
-0.143466 0.353454 0.798000 138 90 71
-0.141398 0.353454 0.798000 139 104 87
