ply
format ascii 1.0
element vertex 2105
property float x
property float y
property float z
property uchar red
property uchar green
property uchar blue
end_header
0.422328 0.391375 0.590641 92 94 78
0.422417 0.391671 0.592474 88 90 74
0.423835 0.390939 0.594312 80 83 67
0.422505 0.391965 0.594312 83 86 70
0.427141 0.386187 0.595565 116 119 103
0.423925 0.391232 0.596153 79 82 66
0.422592 0.392257 0.596154 73 78 64
0.427615 0.387466 0.597691 119 121 110
0.426298 0.388490 0.597697 114 116 105
0.425345 0.390498 0.597994 84 87 69
0.424014 0.391523 0.597998 71 74 56
0.427713 0.387759 0.599533 68 70 61
0.426392 0.388782 0.599541 114 116 107
0.425436 0.390788 0.599841 112 114 103
0.449560 0.374377 0.617651 51 69 46
0.448291 0.375388 0.617692 76 94 71
0.447017 0.376399 0.617733 67 91 61
0.446142 0.378382 0.618095 23 47 17
0.450963 0.373652 0.619470 54 70 47
0.448874 0.372722 0.618861 75 103 65
0.448016 0.374702 0.619231 78 106 68
0.447148 0.376683 0.619599 79 108 67
0.446673 0.379634 0.620291 68 97 56
0.445782 0.381616 0.620655 23 41 18
0.451950 0.371958 0.620959 49 71 40
0.450275 0.371998 0.620677 81 103 72
0.449010 0.373007 0.620723 71 104 58
0.447741 0.374017 0.620769 71 104 58
0.447683 0.377934 0.621798 75 106 64
0.447202 0.380882 0.622496 77 108 66
0.446305 0.382861 0.622864 37 55 34
0.452933 0.370267 0.622442 56 74 51
0.451260 0.370307 0.622161 78 109 67
0.450000 0.371315 0.622211 77 108 66
0.449146 0.373291 0.622591 73 106 60
0.448281 0.375267 0.622969 76 109 63
0.448622 0.380149 0.624337 74 102 66
0.447729 0.382126 0.624711 44 72 36
0.456004 0.369505 0.624537 25 39 19
0.454331 0.369544 0.624255 57 85 49
0.452659 0.369584 0.623974 80 108 72
0.450986 0.369624 0.623692 76 110 61
0.449726 0.370631 0.623744 72 106 57
0.449280 0.373572 0.624463 79 112 66
0.449634 0.378448 0.625845 71 104 58
0.448748 0.380423 0.626224 39 61 30
0.447852 0.382398 0.626602 22 44 13
0.456978 0.367817 0.626012 22 44 17
0.454057 0.368862 0.625787 75 108 64
0.452384 0.368902 0.625505 71 104 60
0.451126 0.369907 0.625560 75 109 58
0.450275 0.371879 0.625951 76 110 59
0.450643 0.376750 0.627347 74 105 61
0.450171 0.379688 0.628068 31 62 18
0.449279 0.381661 0.628451 28 44 21
0.457947 0.366131 0.627481 35 51 30
0.456704 0.367135 0.627541 62 90 54
0.453783 0.368179 0.627318 73 107 56
0.452527 0.369184 0.627376 72 106 55
0.452095 0.372118 0.628111 68 100 49
0.452470 0.376983 0.629521 61 93 42
0.458054 0.362520 0.628257 29 51 22
0.456821 0.363523 0.628321 69 91 62
0.454760 0.366493 0.628789 73 106 60
0.453509 0.367497 0.628850 70 104 53
0.453085 0.370428 0.629594 73 107 56
0.453888 0.376251 0.631359 57 86 45
0.453426 0.379183 0.632096 30 59 18
0.452949 0.382116 0.632831 30 46 25
0.457285 0.356991 0.628322 34 51 33
0.456496 0.358955 0.628738 61 92 50
0.456548 0.362845 0.629843 78 109 67
0.454908 0.366774 0.630663 71 105 56
0.454072 0.368739 0.631070 74 106 57
0.454851 0.378447 0.633942 34 56 27
0.454380 0.381377 0.634685 27 49 20
0.457362 0.353396 0.629059 31 58 29
0.456153 0.354396 0.629132 73 100 71
0.455796 0.357320 0.629902 74 110 63
0.456702 0.363128 0.631713 68 104 57
0.454634 0.366092 0.632194 73 107 56
0.455859 0.376750 0.635442 25 51 11
0.455810 0.380638 0.636540 31 47 24
0.457426 0.349807 0.629779 45 62 44
0.455361 0.348886 0.629153 61 96 58
0.455884 0.353726 0.630636 71 106 68
0.457666 0.361448 0.633167 69 108 57
0.456032 0.365369 0.634007 69 103 54
0.457699 0.376976 0.637635 29 48 18
0.457241 0.379898 0.638395 26 45 15
0.458790 0.349103 0.631548 52 79 50
0.457159 0.349142 0.631274 73 100 71
0.455094 0.348221 0.630645 65 106 59
0.456475 0.354975 0.632846 65 106 59
0.457431 0.364647 0.635821 70 109 58
0.458835 0.345524 0.632244 61 79 58
0.456774 0.344605 0.631613 75 107 68
0.456891 0.348476 0.632767 72 104 65
0.454827 0.347556 0.632136 65 104 53
0.459643 0.361968 0.637203 67 106 55
0.459309 0.342909 0.633283 58 85 52
0.457690 0.342947 0.633010 76 103 70
0.456071 0.342986 0.632738 69 105 58
0.458015 0.354548 0.636499 68 104 57
0.461107 0.343165 0.635401 64 83 57
0.458602 0.341292 0.634402 68 101 57
0.456986 0.341331 0.634130 70 103 59
0.456790 0.348100 0.636117 70 107 55
0.461570 0.340556 0.636427 63 93 56
0.459954 0.340594 0.636154 73 103 66
0.458337 0.340633 0.635882 68 104 57
0.456721 0.340671 0.635610 69 105 58
0.227748 0.398250 0.612775 97 99 88
0.225926 0.397329 0.612178 94 95 84
0.224174 0.397370 0.611883 109 110 99
0.222296 0.395485 0.610985 68 69 60
0.462473 0.338904 0.637810 68 92 64
0.460860 0.338943 0.637538 70 106 63
0.459246 0.338981 0.637266 67 103 60
0.457632 0.339019 0.636995 66 104 56
0.227461 0.397534 0.614382 109 111 100
0.225639 0.396614 0.613782 115 113 103
0.223887 0.396655 0.613487 124 122 112
0.462922 0.336302 0.638816 65 95 58
0.461761 0.337293 0.638916 73 103 66
0.460150 0.337331 0.638645 66 104 56
0.458538 0.337370 0.638374 67 105 57
0.227243 0.397780 0.616296 66 71 61
0.225419 0.396860 0.615693 102 103 92
0.221724 0.394059 0.614184 123 125 112
0.219977 0.394100 0.613889 109 111 98
0.463361 0.333705 0.639811 64 86 59
0.462208 0.334694 0.639915 73 106 62
0.460602 0.334733 0.639644 69 102 58
0.459441 0.335722 0.639747 67 106 55
0.223312 0.395225 0.616695 123 125 116
0.221438 0.393346 0.615783 116 118 105
0.219632 0.392427 0.615181 122 124 111
0.217888 0.392468 0.614887 94 102 91
0.464248 0.332062 0.641172 69 97 61
0.462646 0.332100 0.640902 76 104 68
0.461495 0.333089 0.641009 70 103 57
0.460339 0.334077 0.641115 70 103 57
0.221151 0.392633 0.617382 124 126 117
0.219346 0.391715 0.616778 114 116 107
0.217602 0.391757 0.616484 49 56 50
0.464672 0.329472 0.642147 69 88 62
0.463531 0.330459 0.642258 77 108 66
0.462384 0.331447 0.642368 72 103 61
0.219060 0.391003 0.618375 55 59 54
0.217316 0.391045 0.618081 26 33 27
0.466679 0.326849 0.643379 37 50 33
0.465548 0.327835 0.643494 74 98 66
0.463954 0.327873 0.643226 78 102 70
0.462815 0.328859 0.643340 71 104 60
0.467546 0.325215 0.644718 34 52 29
0.466419 0.326200 0.644836 74 92 69
0.464828 0.326238 0.644568 77 107 68
0.463693 0.327223 0.644685 74 104 65
0.468874 0.324529 0.646439 37 52 34
0.467286 0.324567 0.646172 69 96 63
0.465697 0.324605 0.645905 76 103 70
0.464567 0.325589 0.646025 73 104 58
0.468148 0.322936 0.647503 68 91 66
0.467025 0.323919 0.647626 73 106 64
0.465437 0.323957 0.647359 71 104 62
0.464306 0.324939 0.647481 70 104 55
0.469006 0.321308 0.648828 60 90 53
0.467888 0.322289 0.648955 73 103 66
0.466302 0.322327 0.648688 68 104 57
0.465177 0.323308 0.648813 67 103 56
0.468280 0.319719 0.649881 66 102 57
0.467164 0.320699 0.650011 67 103 58
0.466043 0.321680 0.650139 67 103 56
0.468662 0.317154 0.650796 72 99 66
0.467554 0.318133 0.650930 67 103 56
0.466440 0.319112 0.651062 67 103 56
0.197926 0.388382 0.626973 113 105 61
0.196225 0.390327 0.627326 125 117 73
0.192754 0.392315 0.627382 69 64 19
0.469508 0.315533 0.652102 68 101 59
0.201075 0.385683 0.628508 98 90 46
0.199330 0.385724 0.628215 143 135 91
0.197612 0.386717 0.628248 143 132 78
0.195913 0.388660 0.628607 115 104 50
0.192466 0.391597 0.628993 102 92 35
0.190739 0.393541 0.629347 135 125 66
0.188988 0.394535 0.629375 132 122 63
0.468779 0.313952 0.653139 71 107 60
0.202567 0.385879 0.630730 108 108 84
0.200789 0.384971 0.630105 162 150 94
0.199044 0.385012 0.629812 145 133 77
0.197326 0.386004 0.629847 110 96 36
0.195626 0.387945 0.630211 94 80 20
0.192178 0.390879 0.630604 92 81 18
0.190434 0.391871 0.630635 118 108 40
0.188698 0.393813 0.630993 122 112 44
0.186942 0.394806 0.631022 128 122 68
0.202347 0.387064 0.632995 136 134 111
0.200534 0.385208 0.632035 151 138 85
0.198787 0.385249 0.631741 108 95 42
0.197040 0.385291 0.631447 105 93 25
0.195339 0.387230 0.631815 128 116 48
0.191871 0.389212 0.631885 130 120 50
0.190145 0.391152 0.632249 110 102 33
0.188409 0.393092 0.632611 118 110 41
0.186651 0.394084 0.632642 123 119 67
0.184897 0.396024 0.633001 125 121 69
0.200308 0.386390 0.634304 102 94 41
0.198528 0.385484 0.633674 114 106 53
0.196779 0.385526 0.633380 157 147 77
0.195052 0.386515 0.633419 155 145 75
0.191583 0.388495 0.633494 87 82 12
0.189856 0.390433 0.633862 77 79 16
0.188106 0.391423 0.633897 100 102 39
0.186361 0.393361 0.634263 95 96 58
0.200111 0.388515 0.636919 84 80 30
0.198242 0.384770 0.635276 154 150 100
0.196492 0.384812 0.634982 159 153 86
0.194765 0.385801 0.635023 113 107 40
0.193033 0.386789 0.635063 79 81 18
0.189553 0.388767 0.635141 69 80 30
0.187817 0.390703 0.635513 63 74 24
0.186062 0.391692 0.635550 32 40 11
0.198063 0.387839 0.638234 135 130 89
0.196230 0.385044 0.636922 108 103 44
0.194478 0.385086 0.636627 72 67 8
0.192745 0.386073 0.636670 75 84 30
0.191008 0.387061 0.636711 82 91 37
0.189250 0.387103 0.636416 69 91 46
0.187528 0.389983 0.637129 49 71 26
0.185772 0.390971 0.637168 25 42 12
0.196039 0.388108 0.639889 92 87 46
0.194255 0.387205 0.639252 71 66 25
0.192477 0.386302 0.638616 86 97 51
0.190736 0.387289 0.638660 89 100 54
0.188990 0.388276 0.638703 75 101 57
0.187228 0.388318 0.638406 68 94 50
0.185474 0.389305 0.638448 45 70 35
0.183715 0.390292 0.638488 23 48 13
0.194030 0.389318 0.641892 40 40 18
0.192244 0.388416 0.641252 34 48 12
0.190479 0.388458 0.640955 83 97 61
0.188701 0.387556 0.640316 81 107 65
0.186939 0.387598 0.640020 76 102 60
0.185185 0.388584 0.640063 64 95 53
0.183426 0.389570 0.640106 44 75 33
0.181662 0.390557 0.640149 19 42 19
0.190206 0.388681 0.642915 32 43 22
0.188425 0.387780 0.642273 76 101 66
0.186661 0.387822 0.641976 82 107 72
0.184896 0.387864 0.641679 73 106 64
0.183131 0.387906 0.641382 64 97 55
0.181369 0.388891 0.641427 41 70 38
0.179602 0.389877 0.641471 14 43 11
0.188161 0.388943 0.644582 31 49 26
0.186371 0.387102 0.643592 79 97 74
0.184607 0.387144 0.643295 75 107 68
0.182837 0.386244 0.642653 72 104 65
0.181077 0.387228 0.642701 63 98 60
0.179312 0.388212 0.642748 37 72 34
0.177539 0.390139 0.643137 18 43 22
0.186092 0.387323 0.645556 31 46 30
0.184317 0.386424 0.644911 75 102 71
0.182548 0.385525 0.644266 79 106 75
0.180786 0.385567 0.643970 66 101 61
0.179023 0.386550 0.644019 61 96 56
0.177255 0.387533 0.644068 39 70 40
0.175476 0.389458 0.644462 12 43 13
0.184035 0.386644 0.646877 32 53 31
0.182263 0.385746 0.646230 77 98 76
0.180497 0.384848 0.645583 73 105 68
0.178735 0.384890 0.645287 71 103 66
0.176969 0.385872 0.645338 64 98 63
0.175198 0.386854 0.645389 41 75 40
0.173422 0.387836 0.645439 14 39 18
0.183764 0.388739 0.649552 14 31 17
0.181978 0.385964 0.648197 29 46 32
0.180209 0.385068 0.647548 77 106 74
0.178446 0.384171 0.646900 77 106 74
0.176684 0.384213 0.646603 63 98 60
0.174922 0.384255 0.646307 55 90 52
0.173150 0.385236 0.646360 30 60 33
0.181695 0.387119 0.650524 22 36 25
0.179921 0.385285 0.649518 28 54 28
0.178157 0.383452 0.648514 75 101 75
0.176404 0.381618 0.647511 69 104 66
0.172880 0.382639 0.647271 54 88 55
0.171096 0.384558 0.647678 27 61 28
0.177864 0.384606 0.650838 32 52 33
0.176116 0.380901 0.649120 72 101 67
0.174367 0.380005 0.648469 70 99 65
0.172602 0.380984 0.648528 63 98 60
0.169057 0.382942 0.648644 25 53 26
0.175807 0.383927 0.652159 31 54 29
0.174079 0.379289 0.650075 78 101 76
0.172335 0.378395 0.649423 78 110 73
0.170557 0.380309 0.649841 72 104 67
0.167006 0.382265 0.649960 29 58 24
0.173783 0.379508 0.652041 45 65 46
0.172048 0.377680 0.651027 80 109 75
0.170296 0.377722 0.650733 77 106 72
0.168528 0.378699 0.650796 70 102 65
0.164955 0.381588 0.651277 30 56 30
0.171738 0.378833 0.653354 51 80 50
0.170009 0.377007 0.652337 80 109 79
0.168257 0.377049 0.652042 72 104 67
0.166486 0.378025 0.652107 69 101 64
0.162904 0.380911 0.652594 20 51 19
0.539705 0.397322 0.727931 93 86 55
0.169693 0.378158 0.654667 54 76 56
0.167987 0.375401 0.653283 77 108 74
0.166237 0.375443 0.652988 70 101 67
0.164422 0.378284 0.653780 66 100 67
0.160826 0.381167 0.654272 24 50 26
0.539405 0.396573 0.729611 86 88 52
0.537571 0.396617 0.729302 73 99 55
0.167683 0.375619 0.655250 53 82 52
0.165970 0.373797 0.654225 78 107 77
0.164223 0.373838 0.653931 68 102 67
0.162402 0.376676 0.654729 62 96 61
0.158772 0.380489 0.655591 15 46 16
0.540938 0.395781 0.731598 80 92 53
0.539104 0.395825 0.731290 79 91 52
0.537271 0.395869 0.730981 69 99 51
0.535933 0.396831 0.731126 69 99 51
0.165664 0.374015 0.656192 60 83 60
0.163960 0.372194 0.655164 75 109 76
0.162190 0.373167 0.655236 63 97 64
0.160332 0.376933 0.656406 55 89 56
0.542472 0.394989 0.733586 93 86 55
0.540638 0.395033 0.733277 75 94 52
0.539305 0.395994 0.733426 75 94 52
0.537469 0.396038 0.733117 71 97 53
0.535632 0.396082 0.732808 69 95 51
0.163674 0.371483 0.656761 65 95 68
0.161981 0.369664 0.655730 70 100 73
0.160157 0.372496 0.656542 64 98 65
0.158256 0.377188 0.658087 59 93 60
0.542677 0.395157 0.735726 90 87 55
0.537168 0.395289 0.734798 67 96 51
0.535331 0.395332 0.734489 67 96 51
0.161696 0.368954 0.657322 73 98 77
0.159957 0.368996 0.657029 75 104 74
0.158124 0.371825 0.657847 66 95 65
0.156208 0.376512 0.659402 66 88 68
0.543705 0.393449 0.737253 84 89 52
0.542376 0.394408 0.737407 85 90 53
0.540540 0.394452 0.737098 67 98 52
0.538703 0.394495 0.736789 66 97 51
0.536867 0.394539 0.736480 68 94 50
0.535030 0.394583 0.736170 69 95 51
0.161411 0.368245 0.658915 34 51 37
0.159731 0.366430 0.657876 80 102 82
0.157965 0.367399 0.657957 94 116 96
0.156091 0.371153 0.659152 97 119 103
0.154160 0.375836 0.660716 95 117 101
0.543912 0.393615 0.739398 80 92 53
0.542075 0.393659 0.739088 79 91 52
0.540239 0.393702 0.738779 65 98 52
0.538402 0.393746 0.738470 64 97 51
0.537063 0.394704 0.738625 70 91 49
0.535224 0.394748 0.738315 73 94 52
0.159446 0.365722 0.659464 40 60 45
0.157712 0.365764 0.659172 102 122 107
0.155909 0.367659 0.659629 112 133 122
0.154020 0.371409 0.660832 108 129 118
0.152072 0.376087 0.662405 62 80 76
0.545447 0.392822 0.741388 94 84 54
0.543611 0.392865 0.741079 73 95 50
0.541774 0.392909 0.740770 72 94 49
0.539938 0.392953 0.740461 64 98 49
0.538101 0.392997 0.740151 62 96 47
0.536762 0.393954 0.740309 77 92 49
0.534923 0.393998 0.739999 81 96 53
0.157461 0.364130 0.660382 59 75 64
0.155694 0.365097 0.660468 105 125 118
0.153885 0.366991 0.660928 113 133 126
0.152025 0.369811 0.661763 73 93 86
0.150021 0.375410 0.663722 58 78 71
0.545146 0.392072 0.743069 88 85 51
0.543310 0.392116 0.742760 70 97 50
0.541473 0.392160 0.742451 69 96 49
0.540138 0.393116 0.742611 64 96 47
0.538299 0.393160 0.742302 64 96 47
0.536461 0.393203 0.741992 83 88 51
0.155445 0.363465 0.661676 49 69 62
0.153676 0.364431 0.661763 102 122 115
0.151942 0.364472 0.661471 101 121 114
0.149991 0.369140 0.663068 99 119 112
0.147970 0.374733 0.665038 62 77 72
0.544845 0.391323 0.744751 82 88 51
0.543009 0.391367 0.744442 69 96 47
0.541676 0.392321 0.744605 69 96 47
0.539837 0.392365 0.744295 69 96 47
0.537998 0.392409 0.743986 67 94 45
0.536159 0.392453 0.743676 89 86 52
0.153661 0.357255 0.660684 83 101 95
0.151863 0.359144 0.661156 112 132 125
0.150142 0.359185 0.660866 99 119 112
0.148282 0.361999 0.661716 69 87 83
0.146211 0.368510 0.664080 39 57 53
0.541375 0.391571 0.746288 70 97 48
0.539536 0.391615 0.745979 75 93 47
0.537697 0.391659 0.745669 74 92 46
0.153497 0.353786 0.661105 47 60 55
0.151830 0.352903 0.660435 103 121 115
0.150124 0.352944 0.660148 121 139 133
0.148325 0.354831 0.660625 97 117 112
0.144385 0.364146 0.663860 45 60 57
0.151592 0.351285 0.661612 54 69 64
0.149889 0.351326 0.661325 107 122 117
0.148232 0.350444 0.660654 128 146 142
0.146432 0.352329 0.661135 84 102 98
0.149654 0.349710 0.662497 68 81 76
0.147954 0.349750 0.662211 117 135 129
0.146253 0.349791 0.661925 113 131 125
0.144499 0.350752 0.662024 91 109 103
0.541475 0.391134 0.752303 73 94 52
0.147675 0.349056 0.663768 85 103 97
0.146024 0.348176 0.663093 113 131 125
0.549761 0.395684 0.757834 67 96 51
0.546888 0.393916 0.756552 65 94 49
0.544529 0.393055 0.755755 76 90 50
0.542678 0.393099 0.755443 78 92 52
0.145746 0.347483 0.664648 107 121 112
0.554203 0.396645 0.761140 71 96 50
0.552338 0.396690 0.760826 71 96 50
0.549456 0.394925 0.759537 69 95 51
0.547597 0.394969 0.759224 63 89 45
0.544730 0.393204 0.757937 82 88 51
0.542374 0.392343 0.757139 86 92 55
0.555762 0.395840 0.763161 85 90 53
0.553897 0.395885 0.762847 72 97 51
0.552033 0.395929 0.762533 71 96 50
0.549660 0.395070 0.761729 69 94 48
0.547292 0.394210 0.760926 67 92 46
0.544426 0.392447 0.759635 85 87 53
0.557839 0.395937 0.765676 81 90 52
0.555972 0.395982 0.765361 81 90 52
0.554105 0.396026 0.765047 71 98 51
0.551727 0.395168 0.764240 69 96 49
0.549863 0.395212 0.763926 69 91 46
0.546987 0.393452 0.762628 70 92 47
0.545128 0.393496 0.762315 88 85 51
0.557533 0.395175 0.767385 77 91 51
0.555666 0.395220 0.767071 79 93 53
0.553799 0.395264 0.766757 71 98 51
0.551422 0.394407 0.765947 68 95 48
0.549557 0.394452 0.765633 69 89 44
0.547693 0.394496 0.765319 73 93 48
0.559614 0.395269 0.769908 88 83 50
0.557745 0.395314 0.769593 74 94 49
0.555360 0.394458 0.768780 74 94 49
0.553493 0.394502 0.768466 70 97 50
0.551626 0.394547 0.768152 64 91 44
0.549252 0.393691 0.767340 76 88 49
0.547387 0.393735 0.767026 78 90 51
0.559308 0.394506 0.771620 85 85 52
0.557438 0.394551 0.771305 70 94 51
0.555569 0.394595 0.770990 70 94 51
0.553699 0.394640 0.770676 69 94 48
0.551320 0.393785 0.769861 67 92 46
0.549453 0.393829 0.769547 83 89 52
0.547586 0.393874 0.769233 84 90 53
0.561393 0.394597 0.774151 84 89 54
0.559521 0.394641 0.773836 83 88 53
0.557132 0.393788 0.773017 70 96 52
0.555262 0.393832 0.772702 69 95 51
0.553393 0.393877 0.772387 69 90 48
0.551523 0.393921 0.772073 71 92 50
0.549147 0.393067 0.771256 90 90 57
0.561086 0.393833 0.775865 78 90 53
0.559214 0.393877 0.775550 79 91 54
0.556826 0.393025 0.774729 68 95 48
0.554956 0.393069 0.774414 66 93 46
0.553086 0.393114 0.774099 72 90 46
0.551217 0.393158 0.773785 76 94 50
0.549347 0.393203 0.773470 92 89 55
0.563175 0.393920 0.778404 89 86 54
0.560780 0.393069 0.777579 76 94 50
0.558907 0.393113 0.777264 74 92 48
0.557035 0.393158 0.776949 68 95 48
0.554650 0.392306 0.776126 64 91 44
0.552780 0.392351 0.775811 73 86 44
0.550910 0.392395 0.775496 77 90 48
0.137162 0.331399 0.672985 21 36 22
0.135492 0.331439 0.672704 50 77 48
0.133821 0.331479 0.672423 69 96 67
0.132151 0.331518 0.672142 55 87 50
0.562868 0.393155 0.780120 85 87 51
0.560993 0.393200 0.779804 71 93 46
0.558601 0.392349 0.778978 71 93 46
0.556728 0.392394 0.778663 67 94 45
0.554856 0.392438 0.778348 66 93 44
0.552474 0.391588 0.777523 83 89 49
0.550604 0.391632 0.777208 85 91 51
0.133618 0.329888 0.673540 70 93 70
0.132023 0.329019 0.672848 63 93 56
0.564961 0.393239 0.782667 83 90 50
0.563083 0.393284 0.782351 82 89 49
0.560686 0.392435 0.781521 70 96 45
0.558294 0.391585 0.780692 69 95 44
0.556422 0.391630 0.780377 67 93 42
0.554549 0.391674 0.780062 69 95 44
0.552677 0.391719 0.779747 86 87 49
0.135217 0.326444 0.674104 14 36 16
0.133557 0.326484 0.673824 47 69 49
0.131897 0.326523 0.673545 68 97 63
0.130161 0.327471 0.673679 55 84 50
0.564653 0.392473 0.784385 77 90 46
0.562776 0.392518 0.784069 78 91 47
0.560898 0.392562 0.783753 68 96 44
0.558504 0.391714 0.782922 68 96 44
0.556629 0.391759 0.782606 71 93 46
0.554243 0.390910 0.781776 71 93 46
0.552370 0.390955 0.781461 91 86 53
0.133499 0.323086 0.674095 28 48 31
0.131847 0.323125 0.673817 66 95 63
0.130042 0.324978 0.674370 58 87 55
0.566750 0.392554 0.786940 85 88 65
0.564346 0.391707 0.786104 75 93 49
0.562468 0.391752 0.785788 76 94 50
0.560591 0.391796 0.785472 68 96 44
0.558197 0.390949 0.784638 67 95 43
0.556322 0.390994 0.784323 74 94 49
0.554447 0.391038 0.784007 74 94 49
0.133300 0.321505 0.675189 17 34 18
0.131650 0.321545 0.674911 57 86 54
0.130000 0.321584 0.674633 61 90 58
0.128033 0.325248 0.676026 56 88 51
0.566968 0.392677 0.789183 85 92 70
0.564562 0.391831 0.788345 74 95 53
0.562682 0.391876 0.788028 72 93 51
0.560802 0.391921 0.787712 66 93 44
0.558406 0.391075 0.786875 64 91 42
0.556529 0.391120 0.786559 76 89 47
0.554651 0.391164 0.786243 79 92 50
0.131454 0.319967 0.676001 36 63 34
0.129730 0.320911 0.676144 62 89 60
0.127921 0.322760 0.676706 55 87 50
0.567186 0.392798 0.791431 81 93 67
0.565301 0.392843 0.791113 71 96 50
0.563416 0.392888 0.790796 68 93 47
0.561531 0.392933 0.790479 64 89 41
0.559130 0.392088 0.789639 65 90 42
0.557247 0.392133 0.789322 83 86 45
0.555365 0.392178 0.789005 87 90 49
0.131185 0.319295 0.677509 19 40 18
0.129537 0.319334 0.677231 65 86 64
0.127730 0.321181 0.677799 56 86 49
0.125995 0.322124 0.677942 55 85 48
0.569818 0.393761 0.794528 48 63 36
0.567928 0.393806 0.794210 75 90 63
0.566038 0.393851 0.793892 68 95 48
0.563627 0.393008 0.793048 67 94 47
0.561740 0.393053 0.792730 65 91 40
0.560368 0.393986 0.792937 67 93 42
0.558477 0.394031 0.792619 87 86 44
0.130915 0.318622 0.679017 20 37 21
0.129268 0.318662 0.678739 57 74 58
0.127540 0.319604 0.678887 58 86 50
0.125807 0.320546 0.679033 56 84 48
0.570036 0.393877 0.796788 65 82 52
0.568669 0.394810 0.796998 75 92 62
0.566773 0.394855 0.796679 66 95 50
0.564878 0.394900 0.796360 65 94 49
0.562983 0.394945 0.796041 69 91 44
0.561088 0.394990 0.795722 70 92 45
0.559192 0.395035 0.795403 89 85 47
0.128998 0.317990 0.680248 36 53 39
0.127269 0.318931 0.680397 65 92 59
0.125620 0.318970 0.680119 57 84 51
0.570781 0.394877 0.799584 69 89 56
0.569408 0.395809 0.799796 73 93 60
0.567507 0.395854 0.799476 66 96 48
0.565607 0.395900 0.799156 64 94 46
0.563190 0.395058 0.798306 69 87 41
0.561806 0.395990 0.798516 72 90 44
0.128728 0.317317 0.681756 26 40 29
0.127081 0.317357 0.681478 61 88 57
0.125433 0.317396 0.681201 58 85 54
0.123786 0.317435 0.680924 54 81 50
0.570997 0.394988 0.801856 77 102 65
0.569621 0.395919 0.802070 69 94 57
0.567718 0.395964 0.801749 67 97 49
0.565815 0.396010 0.801429 65 95 47
0.563912 0.396055 0.801109 70 85 42
0.562009 0.396100 0.800788 76 91 48
0.126811 0.316684 0.682986 49 70 46
0.125164 0.316724 0.682709 63 84 60
0.123603 0.315863 0.682001 56 83 54
0.573115 0.395052 0.804453 59 74 56
0.571738 0.395981 0.804669 69 97 61
0.569833 0.396027 0.804348 68 96 60
0.567927 0.396072 0.804027 66 95 50
0.566022 0.396118 0.803706 65 94 49
0.564116 0.396163 0.803386 73 85 46
0.562725 0.397093 0.803599 77 89 50
0.126623 0.315114 0.684061 32 52 33
0.124978 0.315153 0.683784 64 84 65
0.123334 0.315192 0.683507 56 85 53
0.573331 0.395158 0.806734 73 89 68
0.570044 0.396132 0.806631 68 96 58
0.568136 0.396178 0.806310 69 95 53
0.566228 0.396223 0.805988 64 90 48
0.564320 0.396269 0.805667 81 87 52
0.126354 0.314442 0.685566 24 44 25
0.124709 0.314482 0.685289 61 81 62
0.123064 0.314521 0.685013 57 86 54
0.121420 0.314560 0.684736 55 84 52
0.571639 0.395308 0.808699 67 96 55
0.569731 0.395354 0.808378 67 96 55
0.567823 0.395399 0.808057 67 93 51
0.565915 0.395445 0.807735 63 89 47
0.564007 0.395490 0.807414 80 86 53
0.126084 0.313771 0.687072 24 41 23
0.124439 0.313811 0.686795 59 76 58
0.122795 0.313850 0.686518 58 85 54
0.121241 0.312992 0.685804 58 85 54
0.119599 0.313031 0.685528 54 78 50
0.571327 0.394530 0.810446 66 97 53
0.569419 0.394575 0.810125 63 94 50
0.567511 0.394621 0.809803 64 90 46
0.565603 0.394666 0.809482 63 89 45
0.563695 0.394712 0.809161 81 86 53
0.124256 0.312244 0.687860 51 64 47
0.122614 0.312283 0.687584 63 87 57
0.120972 0.312322 0.687307 58 82 52
0.119330 0.312361 0.687031 60 87 56
0.571014 0.393751 0.812193 66 97 53
0.569106 0.393797 0.811872 63 94 50
0.567198 0.393842 0.811550 64 88 45
0.565290 0.393887 0.811229 65 89 46
0.563382 0.393933 0.810908 84 84 53
0.123987 0.311574 0.689364 38 48 32
0.122345 0.311613 0.689087 63 87 57
0.120703 0.311652 0.688811 59 83 53
0.119061 0.311691 0.688534 58 82 52
0.571226 0.393852 0.814488 64 97 51
0.569315 0.393897 0.814166 61 94 48
0.567405 0.393943 0.813845 65 86 44
0.565494 0.393988 0.813523 69 90 48
0.123718 0.310904 0.690867 32 42 30
0.122165 0.310049 0.690146 63 85 56
0.120526 0.310088 0.689870 62 84 55
0.118886 0.310127 0.689594 55 79 47
0.570913 0.393072 0.816237 66 97 51
0.569002 0.393117 0.815916 60 91 45
0.567092 0.393163 0.815594 67 86 46
0.565181 0.393208 0.815272 69 88 48
0.123449 0.310234 0.692371 29 41 31
0.121897 0.309380 0.691647 55 77 50
0.120257 0.309419 0.691371 62 84 57
0.118713 0.308565 0.690649 57 79 48
0.573037 0.393124 0.818861 70 95 58
0.571123 0.393169 0.818539 64 95 51
0.569210 0.393215 0.818217 59 90 46
0.567297 0.393260 0.817895 65 82 43
0.564868 0.392429 0.817021 69 86 47
0.123268 0.308672 0.693424 29 41 31
0.121718 0.307819 0.692699 48 67 41
0.120081 0.307858 0.692423 69 88 62
0.118540 0.307006 0.691699 57 80 46
0.116906 0.307045 0.691424 61 84 50
0.572723 0.392343 0.820613 67 96 55
0.570810 0.392388 0.820291 64 95 49
0.568897 0.392434 0.819969 59 90 44
0.566984 0.392480 0.819647 54 71 34
0.121450 0.307151 0.694197 40 57 31
0.119813 0.307190 0.693922 71 88 62
0.118272 0.306339 0.693195 57 80 44
0.116736 0.305487 0.692469 55 78 42
0.572935 0.392437 0.822923 64 95 53
0.571019 0.392483 0.822600 63 94 48
0.569103 0.392528 0.822277 55 86 40
0.567188 0.392574 0.821955 45 58 27
0.121273 0.305594 0.695242 29 46 20
0.119639 0.305633 0.694967 68 85 59
0.118101 0.304782 0.694238 57 80 44
0.116568 0.303932 0.693511 55 78 42
0.115040 0.303081 0.692784 54 76 49
0.572621 0.391655 0.824677 66 94 56
0.571228 0.392575 0.824914 59 88 43
0.568789 0.391747 0.824031 49 78 33
0.566874 0.391792 0.823709 40 52 24
0.121097 0.304039 0.696282 29 45 22
0.119465 0.304078 0.696007 67 83 60
0.117930 0.303228 0.695277 60 83 49
0.116598 0.300601 0.693637 56 79 45
0.579118 0.392482 0.828526 41 63 36
0.577198 0.392527 0.828202 81 103 76
0.575277 0.392573 0.827879 67 98 56
0.572832 0.391746 0.826993 65 96 54
0.570913 0.391792 0.826670 58 87 44
0.568995 0.391838 0.826347 44 73 30
0.567077 0.391883 0.826024 33 48 21
0.120921 0.302485 0.697317 28 43 25
0.119292 0.302524 0.697043 64 79 61
0.117760 0.301676 0.696310 62 84 53
0.116333 0.299939 0.695121 56 78 47
0.578804 0.391698 0.830284 50 72 43
0.577412 0.392615 0.830527 78 100 71
0.574962 0.391789 0.829638 68 99 55
0.572517 0.390963 0.828749 64 95 51
0.571120 0.391881 0.828991 58 87 44
0.569200 0.391927 0.828668 44 73 30
0.566762 0.391100 0.827780 27 39 15
0.119310 0.299200 0.697152 56 71 53
0.117688 0.299239 0.696879 61 83 54
0.116167 0.298391 0.696146 57 79 50
0.578489 0.390914 0.832043 50 72 41
0.577097 0.391830 0.832288 71 93 62
0.575173 0.391876 0.831964 67 98 54
0.573250 0.391922 0.831640 63 94 50
0.571327 0.391968 0.831316 59 88 47
0.569403 0.392013 0.830993 39 68 27
0.119140 0.297653 0.698174 45 62 48
0.117521 0.297692 0.697901 60 84 54
0.116002 0.296845 0.697166 58 82 52
0.578174 0.390130 0.833802 64 87 53
0.576782 0.391045 0.834049 74 97 63
0.574858 0.391091 0.833725 64 97 51
0.572935 0.391137 0.833401 57 90 44
0.571011 0.391183 0.833077 60 89 48
0.569088 0.391229 0.832754 33 62 21
0.118874 0.296992 0.699656 33 53 38
0.117354 0.296147 0.698918 57 84 53
0.115737 0.296185 0.698646 56 83 52
0.577329 0.388478 0.834987 69 92 58
0.575939 0.389392 0.835237 72 95 61
0.574018 0.389438 0.834914 65 96 50
0.572097 0.389484 0.834590 58 89 43
0.570696 0.390398 0.834838 60 88 50
0.568773 0.390444 0.834514 25 53 15
0.118705 0.295449 0.700670 29 46 32
0.117188 0.294604 0.699931 64 88 58
0.115574 0.294642 0.699659 56 80 50
0.576485 0.386828 0.836168 76 100 61
0.574569 0.386873 0.835845 72 96 57
0.573178 0.387787 0.836097 64 93 48
0.571260 0.387832 0.835775 60 89 44
0.569342 0.387878 0.835452 56 78 47
0.567423 0.387924 0.835129 28 50 19
0.118537 0.293907 0.701680 29 44 28
0.116923 0.293945 0.701409 64 88 56
0.115411 0.293101 0.700668 58 82 50
0.113800 0.293140 0.700396 55 80 45
0.575641 0.385180 0.837344 77 101 62
0.573728 0.385225 0.837022 72 96 57
0.571815 0.385271 0.836700 65 94 49
0.570424 0.386183 0.836954 61 90 45
0.568508 0.386229 0.836632 60 82 53
0.567109 0.387141 0.836885 48 70 41
0.118370 0.292367 0.702686 29 42 27
0.116858 0.291524 0.701942 62 84 53
0.115249 0.291562 0.701671 60 82 51
0.113640 0.291601 0.701401 56 81 46
0.576177 0.382623 0.838256 90 99 79
0.574798 0.383534 0.838515 76 99 63
0.572888 0.383579 0.838193 74 97 61
0.570977 0.383625 0.837872 66 97 53
0.569588 0.384536 0.838129 61 92 48
0.567675 0.384582 0.837807 71 89 66
0.118301 0.289949 0.703211 27 40 25
0.116694 0.289987 0.702941 62 82 49
0.115191 0.289145 0.702196 61 81 48
0.113482 0.290064 0.702400 56 81 44
0.575865 0.381845 0.840003 103 113 90
0.573957 0.381890 0.839682 73 98 63
0.572049 0.381936 0.839360 71 96 61
0.570141 0.381981 0.839039 65 95 58
0.568233 0.382026 0.838718 59 89 52
0.566843 0.382936 0.838978 106 122 101
0.118233 0.287535 0.703728 31 44 29
0.116632 0.287574 0.703458 59 79 46
0.115134 0.286733 0.702712 62 82 49
0.113535 0.286771 0.702443 54 82 44
0.575552 0.381066 0.841750 110 117 93
0.573644 0.381112 0.841429 69 92 56
0.571736 0.381157 0.841107 72 95 59
0.569828 0.381202 0.840786 66 94 58
0.567920 0.381248 0.840465 60 88 52
0.566012 0.381293 0.840144 114 128 108
0.118167 0.285126 0.704235 32 45 32
0.116571 0.285164 0.703966 56 78 47
0.114975 0.285202 0.703697 59 81 50
0.113379 0.285240 0.703429 54 82 46
0.574709 0.379425 0.842909 105 112 88
0.573331 0.380333 0.843176 69 94 57
0.570898 0.379516 0.842268 70 95 58
0.569515 0.380424 0.842533 65 93 57
0.567087 0.379607 0.841626 61 89 53
0.565699 0.380515 0.841891 113 124 103
0.118005 0.283598 0.705214 32 45 32
0.116411 0.283636 0.704946 52 74 47
0.114818 0.283674 0.704678 60 82 55
0.113224 0.283712 0.704409 54 82 46
0.574397 0.378648 0.844654 97 101 78
0.572491 0.378693 0.844333 75 98 62
0.570061 0.377878 0.843423 72 95 59
0.568680 0.378784 0.843691 65 93 57
0.566255 0.377968 0.842782 56 84 48
0.564352 0.378014 0.842462 118 130 106
0.116252 0.282109 0.705921 45 68 43
0.114661 0.282147 0.705653 60 83 58
0.113070 0.282185 0.705385 54 82 46
0.111479 0.282223 0.705117 53 81 45
0.574085 0.377870 0.846398 97 101 76
0.571652 0.377056 0.845485 77 100 64
0.569749 0.377101 0.845165 70 93 57
0.567324 0.376286 0.844254 66 91 56
0.565424 0.376332 0.843934 58 83 48
0.563523 0.376377 0.843614 132 142 119
0.116093 0.280585 0.706891 41 64 39
0.114505 0.280623 0.706624 64 87 62
0.112917 0.280661 0.706357 54 82 46
0.111328 0.280699 0.706089 53 81 45
0.573243 0.376234 0.847548 95 100 72
0.570813 0.375420 0.846633 74 98 59
0.568913 0.375466 0.846313 70 94 55
0.567013 0.375511 0.845994 65 88 52
0.565112 0.375556 0.845674 62 85 49
0.563212 0.375601 0.845354 141 148 126
0.115833 0.279937 0.708346 42 65 40
0.114245 0.279975 0.708078 62 85 60
0.112656 0.280013 0.707811 57 85 49
0.111068 0.280051 0.707543 52 80 44
0.573460 0.376315 0.849887 92 100 69
0.571028 0.375503 0.848970 71 95 54
0.569125 0.375548 0.848650 69 93 52
0.567222 0.375593 0.848329 65 88 52
0.565320 0.375639 0.848009 62 85 49
0.563417 0.375684 0.847689 138 145 123
0.115573 0.279289 0.709800 40 61 37
0.113984 0.279327 0.709532 62 83 59
0.112396 0.279365 0.709265 56 86 49
0.110808 0.279402 0.708998 51 81 44
0.573148 0.375538 0.851632 87 99 64
0.570717 0.374726 0.850712 74 100 58
0.569337 0.375628 0.850990 70 96 54
0.567431 0.375674 0.850670 67 91 52
0.565008 0.374862 0.849751 64 88 49
0.563105 0.374907 0.849431 137 144 122
0.115312 0.278641 0.711254 41 62 38
0.113724 0.278679 0.710987 62 83 59
0.112136 0.278717 0.710719 56 83 50
0.110547 0.278754 0.710452 52 79 46
0.572836 0.374760 0.853377 85 98 65
0.570930 0.374805 0.853056 76 102 62
0.569025 0.374851 0.852735 71 97 57
0.567119 0.374896 0.852414 67 90 54
0.565214 0.374942 0.852093 70 93 57
0.562793 0.374131 0.851173 140 146 127
0.115052 0.277993 0.712708 42 60 39
0.113464 0.278031 0.712441 65 83 62
0.111984 0.277197 0.711679 56 81 46
0.110399 0.277235 0.711412 55 80 45
0.573051 0.374837 0.855725 82 95 64
0.571143 0.374883 0.855404 77 102 65
0.569235 0.374928 0.855083 70 95 58
0.567327 0.374974 0.854762 62 85 51
0.565419 0.375019 0.854440 72 95 61
0.114896 0.276475 0.713665 41 59 38
0.113310 0.276513 0.713398 64 82 61
0.111725 0.276550 0.713131 58 83 48
0.110139 0.276588 0.712864 55 80 45
0.574646 0.374013 0.857793 121 134 103
0.572738 0.374059 0.857472 84 97 66
0.570830 0.374104 0.857151 77 102 65
0.568922 0.374150 0.856830 70 95 58
0.567014 0.374195 0.856509 62 87 52
0.565106 0.374240 0.856187 73 98 63
0.114636 0.275828 0.715117 41 59 36
0.113050 0.275865 0.714850 66 84 61
0.111574 0.275034 0.714083 56 81 46
0.109991 0.275072 0.713817 54 79 44
0.574334 0.373235 0.859540 125 138 105
0.572426 0.373280 0.859219 84 97 64
0.570518 0.373325 0.858898 75 101 61
0.568610 0.373371 0.858577 69 95 55
0.566702 0.373416 0.858256 60 85 50
0.564793 0.373462 0.857934 76 101 66
0.114481 0.274313 0.716066 42 63 39
0.112898 0.274351 0.715799 64 85 61
0.111425 0.273521 0.715031 58 83 48
0.109957 0.272690 0.714264 55 80 45
0.574021 0.372456 0.861287 121 134 101
0.572113 0.372501 0.860966 85 98 65
0.570205 0.372547 0.860645 74 100 60
0.568297 0.372592 0.860324 67 93 53
0.566389 0.372638 0.860003 60 84 52
0.564481 0.372683 0.859681 81 105 73
0.114433 0.271934 0.716506 45 66 42
0.112963 0.271105 0.715736 61 82 58
0.111387 0.271142 0.715471 58 83 48
0.573708 0.371677 0.863034 113 125 90
0.571800 0.371723 0.862713 89 101 66
0.569892 0.371768 0.862392 77 103 63
0.567984 0.371814 0.862071 71 97 57
0.566076 0.371859 0.861749 60 85 50
0.564168 0.371905 0.861428 75 100 65
0.114280 0.270424 0.717444 46 67 43
0.112813 0.269596 0.716672 59 80 56
0.111351 0.268768 0.715901 56 84 48
0.573396 0.370899 0.864781 114 126 91
0.571488 0.370944 0.864460 92 104 69
0.569580 0.370990 0.864139 78 104 64
0.567672 0.371035 0.863818 71 97 57
0.565764 0.371080 0.863496 68 93 58
0.563856 0.371126 0.863175 73 98 63
0.114447 0.266323 0.716848 46 67 43
0.112882 0.266360 0.716585 55 76 52
0.111317 0.266398 0.716321 56 83 50
0.109751 0.266435 0.716058 52 79 46
0.573083 0.370120 0.866528 113 127 91
0.571175 0.370166 0.866207 91 105 69
0.569267 0.370211 0.865886 80 106 64
0.567359 0.370256 0.865564 70 96 54
0.565451 0.370302 0.865243 62 85 51
0.563543 0.370347 0.864922 77 100 66
0.114191 0.265684 0.718281 50 71 47
0.112626 0.265721 0.718018 55 76 52
0.111172 0.264895 0.717243 54 81 48
0.572770 0.369341 0.868275 110 124 88
0.570862 0.369387 0.867954 89 103 67
0.568954 0.369432 0.867633 78 104 62
0.567046 0.369478 0.867311 70 96 54
0.565138 0.369523 0.866990 67 89 58
0.563230 0.369569 0.866669 77 99 68
0.572458 0.368563 0.870022 108 125 88
0.570550 0.368608 0.869701 84 101 64
0.568642 0.368654 0.869380 77 103 61
0.566734 0.368699 0.869058 69 95 53
0.564826 0.368745 0.868737 65 87 56
0.562918 0.368790 0.868416 76 98 67
0.561010 0.368836 0.868095 147 149 136
0.572145 0.367784 0.871769 114 130 96
0.570237 0.367830 0.871448 81 97 63
0.568329 0.367875 0.871127 75 101 61
0.566421 0.367921 0.870805 70 96 56
0.564513 0.367966 0.870484 59 82 48
0.562605 0.368011 0.870163 77 100 66
0.560697 0.368057 0.869842 148 153 139
0.571833 0.367006 0.873516 123 139 107
0.569924 0.367051 0.873195 82 98 66
0.568016 0.367097 0.872873 77 103 63
0.566108 0.367142 0.872552 68 94 54
0.564200 0.367187 0.872231 60 82 51
0.562805 0.368077 0.872536 76 98 67
0.560384 0.367278 0.871589 146 154 139
0.571520 0.366227 0.875263 117 129 101
0.569612 0.366272 0.874942 85 97 69
0.567704 0.366318 0.874620 77 102 65
0.565796 0.366363 0.874299 69 94 57
0.564403 0.367252 0.874606 68 90 61
0.561980 0.366454 0.873657 70 92 63
0.560582 0.367343 0.873963 147 152 138
0.569822 0.366336 0.877321 95 107 79
0.567911 0.366382 0.876999 78 103 68
0.566001 0.366427 0.876677 69 94 59
0.564090 0.366473 0.876356 68 90 61
0.562179 0.366518 0.876034 65 87 58
0.560778 0.367406 0.876343 137 142 128
0.569509 0.365556 0.879070 91 103 75
0.567598 0.365602 0.878748 78 103 68
0.565687 0.365647 0.878427 70 95 60
0.564291 0.366534 0.878738 67 89 60
0.561866 0.365738 0.877783 65 87 58
0.560465 0.366625 0.878094 131 136 122
0.567804 0.365662 0.881134 77 102 65
0.565891 0.365708 0.880812 70 95 58
0.563978 0.365754 0.880490 67 89 58
0.562065 0.365799 0.880168 68 90 59
0.560660 0.366685 0.880481 136 141 127
0.567491 0.364882 0.882886 78 103 66
0.565578 0.364927 0.882564 70 95 58
0.564178 0.365812 0.882880 67 90 56
0.562262 0.365858 0.882557 61 84 50
0.560346 0.365903 0.882235 136 138 125
0.569611 0.364893 0.885601 90 102 74
0.567695 0.364939 0.885279 81 107 67
0.565780 0.364985 0.884956 70 96 56
0.564377 0.365869 0.885274 67 92 57
0.561948 0.365076 0.884311 59 84 49
0.561049 0.366798 0.885267 129 134 120
0.569818 0.364949 0.887999 90 102 74
0.567899 0.364994 0.887676 82 108 68
0.565981 0.365040 0.887353 73 99 59
0.564063 0.365086 0.887030 67 91 59
0.562145 0.365131 0.886707 59 83 51
0.561242 0.366852 0.887668 124 129 117
0.569503 0.364166 0.889755 97 110 79
0.567585 0.364212 0.889432 80 106 66
0.566182 0.365093 0.889755 73 99 59
0.564773 0.365975 0.890076 64 91 58
0.562340 0.365185 0.889108 53 80 47
0.561434 0.366903 0.890073 127 135 122
0.570228 0.365053 0.892809 92 103 73
0.568305 0.365099 0.892485 83 109 67
0.566381 0.365144 0.892161 74 100 58
0.564458 0.365190 0.891837 64 91 58
0.563044 0.366071 0.892161 53 80 47
0.562132 0.367787 0.893129 119 129 113
0.115272 0.247108 0.730922 48 71 46
0.113737 0.247145 0.730663 60 83 58
0.112203 0.247181 0.730405 58 85 52
0.110668 0.247218 0.730147 58 85 52
0.569913 0.364268 0.894570 99 107 78
0.567990 0.364314 0.894246 82 106 65
0.566580 0.365194 0.894572 72 96 55
0.564654 0.365239 0.894248 64 92 54
0.563746 0.366953 0.895222 53 81 43
0.561815 0.366999 0.894897 116 130 110
0.116660 0.245597 0.732039 28 43 29
0.115128 0.245633 0.731781 54 77 52
0.113596 0.245670 0.731523 61 84 59
0.112064 0.245706 0.731265 56 83 52
0.569598 0.363483 0.896331 102 110 81
0.568191 0.364362 0.896660 79 100 60
0.566778 0.365241 0.896988 72 93 53
0.565361 0.366119 0.897315 66 92 52
0.563430 0.366165 0.896990 54 80 40
0.562005 0.367045 0.897316 116 127 106
0.116409 0.244972 0.733442 30 45 31
0.114877 0.245008 0.733184 60 84 56
0.113345 0.245045 0.732926 59 83 55
0.111813 0.245081 0.732668 56 83 52
0.570319 0.364362 0.899403 105 110 82
0.568907 0.365239 0.899734 86 107 67
0.566976 0.365285 0.899409 79 100 60
0.565555 0.366163 0.899738 67 93 53
0.564130 0.367041 0.900066 56 82 42
0.562699 0.367920 0.900394 106 117 98
0.116264 0.243500 0.734294 36 51 35
0.114734 0.243536 0.734036 61 85 55
0.113205 0.243573 0.733779 59 83 53
0.111675 0.243609 0.733521 56 83 52
0.570521 0.364405 0.901827 104 107 82
0.569106 0.365282 0.902159 90 111 73
0.567172 0.365328 0.901834 79 100 62
0.566259 0.367036 0.902822 65 93 55
0.564320 0.367082 0.902495 56 84 46
0.562886 0.367959 0.902825 97 106 86
0.116013 0.242876 0.735694 37 54 36
0.114592 0.242066 0.734884 65 87 56
0.113065 0.242103 0.734627 62 84 53
0.111538 0.242139 0.734370 60 82 53
0.571240 0.365277 0.904915 115 118 93
0.569819 0.366153 0.905249 91 112 74
0.567880 0.366199 0.904923 81 102 64
0.566451 0.367075 0.905256 66 94 56
0.565017 0.367951 0.905587 56 84 46
0.563073 0.367997 0.905260 85 96 75
0.117396 0.241371 0.736796 28 45 27
0.115869 0.241407 0.736539 58 75 57
0.114342 0.241443 0.736282 61 85 53
0.112815 0.241480 0.736025 60 84 52
0.111288 0.241516 0.735768 63 85 56
0.571440 0.365315 0.907351 115 119 94
0.570015 0.366190 0.907687 90 111 73
0.568074 0.366236 0.907360 86 107 69
0.566642 0.367111 0.907694 68 97 56
0.565205 0.367987 0.908028 60 89 48
0.563259 0.368033 0.907700 71 82 61
0.117146 0.240747 0.738194 31 51 32
0.115619 0.240784 0.737937 64 84 65
0.114201 0.239977 0.737123 59 83 51
0.112677 0.240013 0.736866 60 84 52
0.111153 0.240049 0.736610 67 89 60
0.572155 0.366179 0.910456 116 120 95
0.570211 0.366226 0.910129 90 111 73
0.568779 0.367100 0.910465 86 107 69
0.566833 0.367146 0.910138 68 97 56
0.564886 0.367192 0.909810 62 91 50
0.563444 0.368067 0.910145 66 81 56
0.561495 0.368113 0.909817 111 126 101
0.116896 0.240124 0.739592 39 59 40
0.115369 0.240161 0.739335 62 82 63
0.113952 0.239355 0.738519 56 83 50
0.112540 0.238548 0.737703 61 88 55
0.111018 0.238585 0.737447 63 85 58
0.570407 0.366259 0.912575 90 111 73
0.568460 0.366305 0.912248 86 107 69
0.566514 0.366352 0.911920 75 104 63
0.565073 0.367225 0.912258 64 93 52
0.563124 0.367271 0.911930 64 79 54
0.561676 0.368145 0.912266 105 120 95
0.116645 0.239501 0.740990 47 70 47
0.115226 0.238696 0.740171 63 86 63
0.113812 0.237891 0.739353 59 86 53
0.112290 0.237927 0.739096 60 87 54
0.110769 0.237964 0.738840 48 70 43
0.570601 0.366290 0.915027 97 114 77
0.568652 0.366337 0.914698 91 108 71
0.566703 0.366383 0.914370 74 100 60
0.564754 0.366430 0.914042 60 86 46
0.563308 0.367302 0.914382 59 76 48
0.561357 0.367348 0.914053 104 121 93
0.117922 0.238842 0.742646 25 39 28
0.116501 0.238038 0.741823 55 79 51
0.114976 0.238074 0.741567 63 87 59
0.113674 0.236430 0.740182 59 87 51
0.570282 0.365495 0.916811 98 112 76
0.568333 0.365541 0.916483 96 110 74
0.566384 0.365588 0.916155 80 106 66
0.564940 0.366459 0.916497 66 92 52
0.562988 0.366505 0.916168 56 75 47
0.561537 0.367377 0.916509 88 107 79
0.117672 0.238219 0.744044 37 51 40
0.116251 0.237416 0.743219 64 88 58
0.114727 0.237452 0.742962 61 85 55
0.113425 0.235810 0.741573 58 86 50
0.569962 0.364700 0.918595 100 111 79
0.568013 0.364746 0.918267 98 109 77
0.566572 0.365616 0.918612 74 100 60
0.564620 0.365663 0.918284 67 93 53
0.563171 0.366533 0.918627 62 84 53
0.561716 0.367403 0.918970 81 103 72
0.117526 0.236757 0.744871 51 68 52
0.116108 0.235956 0.744045 59 86 53
0.114586 0.235992 0.743789 57 84 51
0.569643 0.363904 0.920380 103 114 84
0.567694 0.363951 0.920052 99 110 80
0.566252 0.364820 0.920399 78 103 66
0.564300 0.364866 0.920070 69 94 57
0.562850 0.365735 0.920416 60 83 49
0.561396 0.366605 0.920762 72 95 61
0.559439 0.366651 0.920432 119 123 102
0.119004 0.234425 0.745378 22 42 25
0.117485 0.234461 0.745122 64 84 67
0.115965 0.234497 0.744866 59 87 51
0.114556 0.233696 0.744039 57 85 49
0.569323 0.363109 0.922164 106 116 89
0.567374 0.363155 0.921836 97 107 80
0.565932 0.364023 0.922186 83 108 71
0.563980 0.364070 0.921857 70 95 58
0.562530 0.364938 0.922206 62 85 51
0.561075 0.365806 0.922553 63 86 52
0.559118 0.365853 0.922224 113 120 98
0.118960 0.232133 0.745618 26 47 23
0.117445 0.232169 0.745363 67 88 64
0.567055 0.362360 0.923620 98 109 79
0.565612 0.363227 0.923972 84 109 72
0.563661 0.363274 0.923644 74 99 62
0.562210 0.364141 0.923995 64 89 52
0.560256 0.364187 0.923666 60 85 48
0.558798 0.365054 0.924015 108 115 91
0.566736 0.361565 0.925405 99 110 80
0.565292 0.362431 0.925759 83 112 71
0.563341 0.362477 0.925431 74 103 62
0.561890 0.363343 0.925784 64 89 52
0.559936 0.363390 0.925455 59 84 47
0.558477 0.364256 0.925807 99 106 82
0.566417 0.360770 0.927189 103 110 84
0.564973 0.361634 0.927546 83 112 71
0.563021 0.361681 0.927217 78 107 66
0.561570 0.362546 0.927573 68 94 54
0.559616 0.362592 0.927244 56 82 42
0.558157 0.363457 0.927598 89 99 74
0.566604 0.360791 0.929661 105 112 86
0.564653 0.360838 0.929333 87 112 75
0.562701 0.360884 0.929004 77 102 65
0.561250 0.361748 0.929362 68 97 56
0.559793 0.362612 0.929719 58 87 46
0.557836 0.362659 0.929389 71 83 57
0.556371 0.363523 0.929745 116 128 102
0.566285 0.359995 0.931448 105 112 86
0.564333 0.360042 0.931119 89 115 75
0.562382 0.360088 0.930791 82 108 68
0.560929 0.360951 0.931151 67 96 55
0.558975 0.360997 0.930822 61 90 49
0.558010 0.362677 0.931869 62 77 50
0.556050 0.362724 0.931539 103 118 91
0.564013 0.359245 0.932906 89 113 74
0.562563 0.360107 0.933269 84 108 69
0.560609 0.360154 0.932940 68 99 57
0.559151 0.361015 0.933302 60 91 49
0.557688 0.361878 0.933662 59 76 48
0.556220 0.362740 0.934022 93 110 82
0.095989 0.398520 0.874752 63 87 59
0.093951 0.398569 0.874409 61 85 57
0.092022 0.397788 0.873477 67 82 55
0.563694 0.358449 0.934693 94 112 79
0.562243 0.359310 0.935058 89 107 74
0.560289 0.359356 0.934729 72 102 63
0.558831 0.360217 0.935093 61 91 52
0.557367 0.361078 0.935456 63 82 56
0.556390 0.362754 0.936510 81 100 74
0.099532 0.399249 0.878490 76 93 67
0.097591 0.398469 0.877554 68 85 59
0.095655 0.397689 0.876618 66 90 62
0.093617 0.397737 0.876275 59 83 55
0.091578 0.397786 0.875932 90 102 76
0.563877 0.358466 0.937176 100 117 87
0.561923 0.358512 0.936847 88 105 75
0.560467 0.359372 0.937214 73 103 66
0.559006 0.360232 0.937580 66 96 59
0.557046 0.360279 0.937250 61 83 56
0.556558 0.362766 0.939003 69 91 64
0.554591 0.362812 0.938672 121 124 106
0.101045 0.400021 0.881896 125 128 110
0.099197 0.398415 0.880361 61 78 50
0.097257 0.397636 0.879422 71 88 60
0.095216 0.397684 0.879079 67 89 60
0.093283 0.396905 0.878142 57 79 50
0.091244 0.396954 0.877798 119 126 102
0.563557 0.357668 0.938965 102 117 88
0.561603 0.357715 0.938636 97 112 83
0.560146 0.358574 0.939005 81 111 74
0.558685 0.359432 0.939373 64 94 57
0.557218 0.360291 0.939741 64 88 58
0.556236 0.361963 0.940804 59 83 53
0.554269 0.362010 0.940473 114 120 101
0.100709 0.399185 0.883771 88 94 75
0.098660 0.399234 0.883426 63 82 54
0.096922 0.396803 0.881291 69 88 60
0.094881 0.396851 0.880948 67 89 58
0.092949 0.396073 0.880008 69 91 60
0.090799 0.396949 0.880260 135 139 114
0.561782 0.357728 0.941126 102 115 84
0.559826 0.357775 0.940797 92 120 82
0.558364 0.358633 0.941167 73 101 63
0.556896 0.359491 0.941537 67 91 59
0.555914 0.361160 0.942605 55 79 47
0.100275 0.399174 0.886247 72 81 61
0.098527 0.396747 0.884103 65 87 58
0.096484 0.396796 0.883759 68 90 61
0.094547 0.396019 0.882816 63 82 52
0.092506 0.396067 0.882473 93 112 82
0.561462 0.356930 0.942917 107 114 88
0.559505 0.356977 0.942588 90 118 80
0.558043 0.357833 0.942961 80 108 70
0.557067 0.359501 0.944035 67 92 57
0.555591 0.360358 0.944405 56 81 46
0.554111 0.361215 0.944775 85 96 75
0.101990 0.398288 0.888470 96 107 86
0.100038 0.397513 0.887523 63 74 53
0.098193 0.395913 0.885974 66 90 60
0.096253 0.395137 0.885029 64 88 58
0.094212 0.395186 0.884685 68 86 53
0.092281 0.394410 0.883741 116 134 101
0.561141 0.356132 0.944709 110 114 91
0.559681 0.356987 0.945085 90 118 80
0.557721 0.357034 0.944755 85 113 75
0.556254 0.357890 0.945129 67 95 59
0.555269 0.359555 0.946206 58 86 50
0.553788 0.360411 0.946578 70 85 60
0.101751 0.396628 0.889743 72 87 62
0.099901 0.395030 0.888189 68 83 58
0.097858 0.395079 0.887845 67 91 59
0.095919 0.394304 0.886897 61 85 53
0.093878 0.394353 0.886554 89 102 71
0.091947 0.393578 0.885607 126 139 108
0.555441 0.356281 0.946219 71 99 61
0.554458 0.357944 0.947301 59 87 49
0.553466 0.359608 0.948382 61 78 50
0.103749 0.393277 0.890140 110 113 95
0.101708 0.393326 0.889797 65 82 56
0.099667 0.393374 0.889453 72 89 63
0.097625 0.393423 0.889110 64 89 54
0.095690 0.392649 0.888160 60 85 50
0.093651 0.392698 0.887817 119 130 100
0.103605 0.390802 0.890789 90 94 73
0.101471 0.391671 0.891056 63 85 56
0.099433 0.391720 0.890712 69 91 62
0.097394 0.391769 0.890369 62 84 53
0.095356 0.391817 0.890026 69 91 60
0.093317 0.391866 0.889683 128 136 107
0.105494 0.388283 0.891769 97 107 84
0.103367 0.389151 0.892040 72 82 59
0.101334 0.389199 0.891698 64 88 58
0.099199 0.390068 0.891967 67 91 61
0.097164 0.390117 0.891624 64 83 53
0.095128 0.390165 0.891282 94 113 83
0.428497 0.144543 0.766302 100 118 83
0.105254 0.386635 0.893013 83 95 71
0.103130 0.387502 0.893287 76 88 64
0.101099 0.387551 0.892945 68 90 61
0.099068 0.387599 0.892603 68 90 61
0.097038 0.387647 0.892261 78 90 64
0.094900 0.388515 0.892532 116 128 102
0.428285 0.144015 0.767487 106 117 87
0.426502 0.143241 0.766554 96 122 82
0.107316 0.382488 0.892739 108 110 92
0.105204 0.383354 0.893017 71 88 62
0.103087 0.384220 0.893294 74 91 65
0.101064 0.384268 0.892954 70 92 65
0.098939 0.385134 0.893230 65 87 60
0.096809 0.386001 0.893505 103 110 88
0.427582 0.142684 0.767954 110 117 93
0.426290 0.142714 0.767736 98 123 86
0.424999 0.142745 0.767519 87 112 75
0.107170 0.380031 0.893346 89 92 74
0.105157 0.380079 0.893007 71 89 66
0.103047 0.380943 0.893288 72 90 67
0.100932 0.381808 0.893568 70 92 65
0.098914 0.381857 0.893228 74 96 69
0.096791 0.382722 0.893507 114 118 97
0.425590 0.141385 0.768198 99 121 90
0.424787 0.142218 0.768701 97 119 88
0.109302 0.375083 0.892412 98 107 87
0.107301 0.375131 0.892075 76 85 65
0.105301 0.375178 0.891738 70 91 67
0.103204 0.376042 0.892023 71 92 68
0.101101 0.376905 0.892308 72 90 67
0.098993 0.377769 0.892591 90 108 85
0.425867 0.141660 0.770101 104 123 95
0.424090 0.140890 0.769161 101 120 92
0.422801 0.140921 0.768944 72 103 69
0.107252 0.371870 0.892031 74 88 66
0.105259 0.371918 0.891695 69 92 67
0.101174 0.372828 0.891648 79 93 71
0.099179 0.372875 0.891312 105 119 97
0.425168 0.140333 0.770559 107 126 96
0.423879 0.140364 0.770342 99 118 88
0.422590 0.140395 0.770125 77 108 74
0.107112 0.369430 0.892600 70 89 63
0.105124 0.369477 0.892265 69 93 65
0.103039 0.370338 0.892558 69 93 65
0.101049 0.370386 0.892223 93 103 78
0.423668 0.139838 0.771522 103 118 89
0.422379 0.139869 0.771305 85 117 80
0.104991 0.367041 0.892826 69 91 62
0.102910 0.367901 0.893121 70 92 63
0.100824 0.368761 0.893416 108 112 89
0.423456 0.139312 0.772702 109 121 95
0.422167 0.139343 0.772485 96 124 86
0.420878 0.139373 0.772268 78 106 68
0.108997 0.362892 0.892778 70 94 62
0.107119 0.362127 0.891814 69 93 61
0.104956 0.363797 0.892746 74 91 63
0.102981 0.363844 0.892413 88 105 77
0.423245 0.138786 0.773882 119 126 104
0.421956 0.138817 0.773665 98 123 88
0.420667 0.138847 0.773448 87 112 77
0.111181 0.357178 0.891103 69 86 56
0.109133 0.358035 0.891409 69 97 61
0.107079 0.358892 0.891714 68 96 60
0.105020 0.359749 0.892017 86 98 70
0.102957 0.360607 0.892320 107 119 91
0.110950 0.355570 0.892257 69 91 62
0.108904 0.356426 0.892565 69 93 61
0.106947 0.356472 0.892236 73 97 65
0.104893 0.357329 0.892543 99 109 84
0.110811 0.353156 0.892766 68 95 64
0.108769 0.354011 0.893077 70 92 63
0.106817 0.354057 0.892749 81 103 74
0.104866 0.354104 0.892420 107 114 92
0.112880 0.348278 0.891664 68 95 64
0.110672 0.350746 0.893265 69 96 65
0.108635 0.351600 0.893580 82 99 71
0.106689 0.351646 0.893253 101 118 90
0.117185 0.340141 0.888275 69 91 64
0.115100 0.341799 0.889244 71 93 66
0.110900 0.345115 0.891177 68 95 64
0.108784 0.346774 0.892141 93 105 79
0.106562 0.349239 0.893747 110 122 96
0.417374 0.134664 0.777648 102 128 88
0.112957 0.340257 0.890030 69 93 63
0.416690 0.133350 0.778079 105 129 90
0.415409 0.133380 0.777863 102 126 87
0.114905 0.336214 0.889505 68 95 64
0.112910 0.337063 0.889834 77 96 68
0.413918 0.132888 0.778821 84 117 75
0.123138 0.325622 0.884680 107 111 88
0.119060 0.328922 0.886663 73 92 66
0.117006 0.330573 0.887652 68 97 65
0.114854 0.333027 0.889292 65 94 62
0.112777 0.334678 0.890277 93 108 81
0.110690 0.336330 0.891260 109 124 97
0.414519 0.131546 0.779461 111 124 93
0.413240 0.131576 0.779245 93 124 82
0.411961 0.131607 0.779030 88 119 77
0.122908 0.324055 0.885740 75 82 58
0.120956 0.324901 0.886081 69 93 63
0.118998 0.325748 0.886422 70 94 64
0.117121 0.325793 0.886105 73 97 69
0.114981 0.328243 0.887754 75 99 71
0.113006 0.329090 0.888092 111 121 96
0.414309 0.131024 0.780632 120 127 101
0.413031 0.131055 0.780416 100 129 88
0.411752 0.131085 0.780201 94 123 82
0.410473 0.131115 0.779986 73 106 64
0.124473 0.323246 0.887770 80 97 69
0.122601 0.323291 0.887454 73 90 62
0.120729 0.323336 0.887139 69 96 65
0.118774 0.324181 0.887482 69 96 65
0.116899 0.324226 0.887167 71 90 62
0.115024 0.324270 0.886851 94 113 85
0.414100 0.130502 0.781802 132 135 112
0.412821 0.130533 0.781587 102 123 85
0.411542 0.130563 0.781372 102 123 85
0.410263 0.130594 0.781157 89 122 78
0.126039 0.322438 0.889799 100 104 83
0.124166 0.322482 0.889484 68 92 62
0.122294 0.322527 0.889169 73 97 67
0.120422 0.322572 0.888853 69 96 65
0.118467 0.323416 0.889199 66 93 62
0.116592 0.323461 0.888883 90 102 76
0.114717 0.323505 0.888567 123 135 109
0.412611 0.130011 0.782758 115 131 97
0.411333 0.130041 0.782543 104 120 86
0.410054 0.130072 0.782327 91 122 78
0.127675 0.320831 0.891163 113 125 101
0.125732 0.321674 0.891513 75 87 63
0.123860 0.321718 0.891198 66 97 67
0.121987 0.321763 0.890883 65 96 66
0.120115 0.321808 0.890567 67 91 61
0.118159 0.322651 0.890915 76 100 70
0.116285 0.322696 0.890599 135 139 114
0.411123 0.129519 0.783714 109 117 88
0.409844 0.129550 0.783498 97 126 85
0.129238 0.320023 0.893190 122 125 109
0.127369 0.320068 0.892875 69 88 62
0.125425 0.320910 0.893227 70 89 63
0.123553 0.320954 0.892912 68 97 67
0.121681 0.320999 0.892597 66 95 65
0.119808 0.321044 0.892282 71 90 62
0.117852 0.321886 0.892632 113 132 104
0.410914 0.128998 0.784884 122 126 101
0.409635 0.129028 0.784669 102 127 90
0.127062 0.319305 0.894587 68 92 64
0.125118 0.320146 0.894941 73 97 69
0.123246 0.320190 0.894626 69 96 65
0.121374 0.320235 0.894311 66 93 62
0.119420 0.321076 0.894664 111 121 96
0.117545 0.321121 0.894348 135 145 120
0.408505 0.126941 0.784317 109 129 94
0.407689 0.127754 0.784864 104 124 89
0.405958 0.127002 0.783888 87 118 74
0.132494 0.316818 0.895896 139 142 121
0.130629 0.316863 0.895582 88 104 81
0.128695 0.317702 0.895941 72 88 65
0.126756 0.318542 0.896299 73 97 69
0.124886 0.318587 0.895984 73 97 69
0.122939 0.319426 0.896340 67 89 58
0.121067 0.319471 0.896025 88 110 79
0.119195 0.319516 0.895710 145 149 126
0.408297 0.126421 0.785483 120 133 100
0.407023 0.126452 0.785269 112 125 92
0.405749 0.126482 0.785054 93 124 78
0.404476 0.126512 0.784840 86 117 71
0.132188 0.316057 0.897603 107 113 94
0.130324 0.316102 0.897290 64 85 61
0.128389 0.316940 0.897650 74 95 71
0.126450 0.317779 0.898010 74 98 68
0.124580 0.317824 0.897696 71 95 65
0.122633 0.318662 0.898054 87 102 73
0.120760 0.318707 0.897739 137 152 123
0.406814 0.125932 0.786435 120 129 95
0.405541 0.125962 0.786220 96 125 80
0.403816 0.125212 0.785241 89 118 73
0.133810 0.314459 0.898946 113 129 108
0.131883 0.315297 0.899310 66 82 61
0.130018 0.315341 0.898997 67 94 65
0.128083 0.316178 0.899360 73 100 71
0.126143 0.317016 0.899722 70 94 62
0.124274 0.317061 0.899408 71 95 63
0.122326 0.317898 0.899769 131 138 112
0.404878 0.124663 0.786619 104 125 83
0.403607 0.124693 0.786405 100 121 79
0.402336 0.124723 0.786191 83 116 70
0.135488 0.312071 0.899602 124 130 113
0.133568 0.312908 0.899970 66 89 64
0.131643 0.313744 0.900337 69 92 67
0.129713 0.314580 0.900704 72 101 71
0.127848 0.314624 0.900390 71 100 70
0.125910 0.315461 0.900755 69 86 58
0.123967 0.316298 0.901119 108 125 97
0.403399 0.124174 0.787569 102 119 80
0.402128 0.124205 0.787355 92 123 77
0.135184 0.311314 0.901302 75 86 67
0.133264 0.312149 0.901672 68 94 68
0.131404 0.312193 0.901359 72 98 72
0.129476 0.313028 0.901729 71 100 68
0.127543 0.313864 0.902097 65 94 62
0.125604 0.314699 0.902465 101 111 86
0.123737 0.314744 0.902150 146 156 131
0.402741 0.122878 0.787960 120 129 95
0.401472 0.122908 0.787747 97 124 77
0.133023 0.310600 0.902689 72 99 70
0.131100 0.311434 0.903062 74 101 72
0.129240 0.311479 0.902749 69 91 62
0.127309 0.312313 0.903120 91 113 84
0.125373 0.313147 0.903490 144 148 125
0.401264 0.122391 0.788908 107 126 84
0.399995 0.122421 0.788695 102 121 79
0.398727 0.122451 0.788481 89 122 76
0.132719 0.309842 0.904390 75 102 71
0.130862 0.309887 0.904077 73 100 69
0.128935 0.310720 0.904451 93 108 81
0.127076 0.310764 0.904138 132 147 120
0.399788 0.121903 0.789856 106 118 79
0.398519 0.121933 0.789643 95 124 79
0.396811 0.121188 0.788654 89 118 73
0.395545 0.121218 0.788441 74 104 67
0.132415 0.309085 0.906090 76 100 70
0.130558 0.309129 0.905777 74 98 68
0.128701 0.309173 0.905464 133 143 118
0.399136 0.120611 0.790240 130 134 104
0.397870 0.120641 0.790026 98 122 79
0.396604 0.120671 0.789813 97 121 78
0.395338 0.120702 0.789600 85 117 78
0.394072 0.120732 0.789387 66 98 59
0.150739 0.168138 0.785706 91 100 80
0.149337 0.168171 0.785470 67 91 63
0.397663 0.120125 0.791186 108 127 89
0.396396 0.120155 0.790972 96 115 77
0.394695 0.119411 0.789980 89 122 80
0.393431 0.119441 0.789767 78 111 69
0.392598 0.120245 0.790333 62 94 57
0.151911 0.167533 0.787226 81 99 76
0.150509 0.167566 0.786990 66 84 61
0.149107 0.167599 0.786754 73 102 72
0.395751 0.118866 0.791350 111 124 93
0.394488 0.118896 0.791137 94 125 83
0.393224 0.118926 0.790924 91 122 80
0.391961 0.118956 0.790712 76 108 69
0.390697 0.118986 0.790499 66 98 59
0.154530 0.166110 0.788280 135 144 124
0.153131 0.166143 0.788045 91 100 80
0.151732 0.166176 0.787809 61 88 59
0.150333 0.166210 0.787574 73 100 71
0.394281 0.118380 0.792294 98 123 86
0.392585 0.117639 0.791298 95 120 83
0.391324 0.117669 0.791085 84 117 75
0.390063 0.117699 0.790873 77 110 68
0.388802 0.117729 0.790661 63 92 58
0.155743 0.164723 0.789093 139 143 122
0.154347 0.164756 0.788858 90 107 81
0.152902 0.165572 0.789326 66 83 57
0.151503 0.165606 0.789090 72 99 70
0.393639 0.117094 0.792664 113 133 100
0.391947 0.116353 0.791666 104 124 91
0.390688 0.116383 0.791454 86 118 79
0.389430 0.116413 0.791243 83 115 76
0.388171 0.116443 0.791031 73 105 68
0.156911 0.164119 0.790607 141 148 126
0.155514 0.164153 0.790372 93 100 78
0.154118 0.164186 0.790137 64 86 59
0.152672 0.165001 0.790607 75 97 70
0.151273 0.165035 0.790371 75 102 69
0.391740 0.115840 0.792818 116 128 102
0.390482 0.115870 0.792607 95 123 85
0.389224 0.115900 0.792395 92 120 82
0.387542 0.115160 0.791396 82 114 77
0.158079 0.163516 0.792121 140 143 125
0.156682 0.163550 0.791886 84 99 74
0.155286 0.163583 0.791651 72 87 62
0.153889 0.163616 0.791415 72 99 66
0.152443 0.164430 0.791888 75 102 69
0.389847 0.114588 0.792969 108 127 97
0.388592 0.114618 0.792757 95 114 84
0.387336 0.114648 0.792546 83 118 80
0.386080 0.114678 0.792334 82 117 79
0.159246 0.162913 0.793634 133 142 122
0.157850 0.162946 0.793399 84 93 73
0.156496 0.162200 0.792453 66 90 62
0.155057 0.163013 0.792929 76 100 72
0.153660 0.163046 0.792694 74 103 69
0.152264 0.163080 0.792459 74 103 69
0.388386 0.114105 0.793907 110 125 98
0.387130 0.114135 0.793696 89 121 84
0.385874 0.114165 0.793484 86 118 81
0.160414 0.162310 0.795148 130 133 115
0.159055 0.161565 0.794199 80 98 75
0.157661 0.161598 0.793964 69 87 64
0.156267 0.161631 0.793730 74 103 71
0.154873 0.161664 0.793495 77 106 74
0.153431 0.162476 0.793973 76 103 70
0.386924 0.113623 0.794845 99 126 93
0.385249 0.112886 0.793840 94 121 88
0.383995 0.112916 0.793629 81 116 76
0.161582 0.161707 0.796662 118 133 108
0.160221 0.160963 0.795710 73 88 63
0.158827 0.160996 0.795475 68 95 66
0.157433 0.161029 0.795241 76 103 74
0.156039 0.161062 0.795006 73 104 72
0.154645 0.161096 0.794771 73 104 72
0.385043 0.112375 0.794988 109 125 102
0.383790 0.112404 0.794777 89 121 84
0.382537 0.112434 0.794566 89 121 84
0.381283 0.112464 0.794355 75 110 72
0.162749 0.161104 0.798175 116 120 99
0.161353 0.161137 0.797940 70 92 63
0.159992 0.160394 0.796986 74 96 67
0.158598 0.160427 0.796751 75 104 72
0.157204 0.160460 0.796517 77 106 74
0.155810 0.160493 0.796282 77 106 74
0.383585 0.111893 0.795924 102 130 94
0.382331 0.111923 0.795713 95 123 87
0.381078 0.111953 0.795502 87 119 80
0.379825 0.111983 0.795291 87 119 80
0.378978 0.112777 0.795876 68 99 65
0.163946 0.159725 0.798966 112 127 102
0.162552 0.159759 0.798732 75 90 65
0.161158 0.159792 0.798497 72 99 66
0.159764 0.159825 0.798262 76 103 70
0.158370 0.159858 0.798028 78 107 75
0.156976 0.159891 0.797793 74 103 71
0.382126 0.111411 0.796861 108 123 94
0.380873 0.111441 0.796650 93 123 84
0.379619 0.111471 0.796439 88 118 79
0.378772 0.112265 0.797026 79 111 72
0.165164 0.157575 0.799026 99 105 86
0.163746 0.158382 0.799517 71 93 64
0.162323 0.159190 0.800008 77 99 70
0.160929 0.159223 0.799773 79 106 73
0.159535 0.159256 0.799539 80 107 74
0.158141 0.159289 0.799304 84 108 76
0.380667 0.110930 0.797797 103 126 90
0.379414 0.110960 0.797586 97 120 84
0.378566 0.111752 0.798176 84 117 75
0.377310 0.111782 0.797965 77 110 68
0.376055 0.111812 0.797753 68 100 63
0.166374 0.155429 0.799075 88 102 80
0.164963 0.156235 0.799570 76 90 68
0.163518 0.157815 0.800791 78 105 72
0.162095 0.158621 0.801284 79 106 73
0.160701 0.158654 0.801049 79 107 71
0.379209 0.110448 0.798734 107 123 91
0.378360 0.111240 0.799326 93 124 82
0.377105 0.111270 0.799114 91 122 80
0.375849 0.111300 0.798903 76 111 71
0.374593 0.111330 0.798692 68 103 63
0.167575 0.153288 0.799112 85 94 74
0.166172 0.154093 0.799611 71 93 64
0.164763 0.154898 0.800109 79 101 72
0.163290 0.157247 0.802065 78 108 71
0.161866 0.158052 0.802560 78 108 71
0.377750 0.109967 0.799670 101 126 89
0.376497 0.109997 0.799459 94 119 82
0.375643 0.110787 0.800053 87 122 82
0.374387 0.110817 0.799841 73 108 68
0.373131 0.110847 0.799630 68 100 61
0.371876 0.110877 0.799418 56 88 49
0.168748 0.151922 0.799873 79 96 70
0.167349 0.152725 0.800375 76 93 67
0.165945 0.153529 0.800876 74 102 66
0.164564 0.153562 0.800643 81 109 73
0.163123 0.155137 0.801875 80 108 70
0.376291 0.109485 0.800607 108 123 94
0.375038 0.109515 0.800396 93 124 82
0.373785 0.109545 0.800185 88 119 77
0.372926 0.110335 0.800780 78 111 69
0.371670 0.110365 0.800568 68 101 59
0.370414 0.110394 0.800357 61 90 58
0.171335 0.148216 0.798648 114 128 108
0.168563 0.149821 0.799660 74 98 68
0.164366 0.152228 0.801173 83 111 73
0.374833 0.109004 0.801543 99 125 85
0.373580 0.109033 0.801332 92 118 78
0.372326 0.109063 0.801121 83 116 72
0.371464 0.109852 0.801718 78 111 67
0.370208 0.109882 0.801507 72 104 67
0.368952 0.109912 0.801295 57 89 52
0.173864 0.146057 0.798877 133 141 126
0.172491 0.146858 0.799388 92 100 85
0.171127 0.146890 0.799159 69 92 69
0.373374 0.108522 0.802480 107 119 91
0.372121 0.108552 0.802269 94 125 81
0.370868 0.108582 0.802058 85 116 72
0.369614 0.108612 0.801847 80 113 71
0.368747 0.109399 0.802445 72 105 63
0.367491 0.109429 0.802234 64 95 61
0.175002 0.145469 0.800352 123 126 110
0.173642 0.145501 0.800123 80 95 77
0.172281 0.145534 0.799894 76 91 73
0.170920 0.145566 0.799665 74 103 73
0.169541 0.146366 0.800177 79 108 78
0.371916 0.108040 0.803416 106 130 91
0.370662 0.108070 0.803205 97 121 82
0.369409 0.108100 0.802994 87 120 76
0.368541 0.108887 0.803595 83 116 72
0.367285 0.108917 0.803383 76 108 69
0.366029 0.108947 0.803172 64 96 57
0.177501 0.144849 0.802056 131 134 116
0.176140 0.144881 0.801827 101 115 95
0.174779 0.144914 0.801598 79 93 73
0.173419 0.144946 0.801369 74 100 74
0.172058 0.144978 0.801140 79 105 79
0.170697 0.145011 0.800911 80 109 75
0.169336 0.145043 0.800682 82 111 77
0.370457 0.107559 0.804353 114 129 100
0.369204 0.107589 0.804142 92 123 81
0.367950 0.107619 0.803931 89 120 78
0.366697 0.107648 0.803720 85 118 76
0.365823 0.108434 0.804322 82 115 73
0.364944 0.109220 0.804923 72 103 69
0.178638 0.144261 0.803531 127 136 118
0.177278 0.144294 0.803302 98 107 89
0.175917 0.144326 0.803073 67 90 65
0.174556 0.144358 0.802844 80 103 78
0.173196 0.144391 0.802615 79 108 76
0.171849 0.143658 0.801639 81 110 78
0.170491 0.143690 0.801410 82 111 77
0.169133 0.143723 0.801182 79 108 74
0.368998 0.107077 0.805289 109 129 96
0.367745 0.107107 0.805078 99 119 86
0.366492 0.107137 0.804867 86 119 77
0.365618 0.107922 0.805472 83 116 74
0.364362 0.107952 0.805260 80 112 75
0.179776 0.143673 0.805006 124 127 109
0.178415 0.143706 0.804777 73 91 68
0.177055 0.143738 0.804548 77 95 72
0.175694 0.143771 0.804319 77 106 74
0.174343 0.143039 0.803340 79 108 76
0.172973 0.143836 0.803861 84 113 79
0.171612 0.143868 0.803632 86 115 81
0.170269 0.143136 0.802654 87 106 76
0.367540 0.106596 0.806225 117 129 103
0.366286 0.106626 0.806014 98 124 84
0.365033 0.106655 0.805803 95 121 81
0.364156 0.107439 0.806410 85 117 78
0.362900 0.107469 0.806198 83 115 76
0.182269 0.142291 0.805955 137 140 124
0.180911 0.142323 0.805726 98 112 90
0.179553 0.142355 0.805498 79 93 71
0.178195 0.142388 0.805269 75 102 71
0.176832 0.143183 0.805794 80 107 76
0.175471 0.143215 0.805565 81 111 74
0.174121 0.142485 0.804583 82 112 75
0.172750 0.143280 0.805106 91 115 83
0.171404 0.142549 0.804126 92 116 84
0.366081 0.106114 0.807162 119 135 103
0.364828 0.106144 0.806951 108 124 92
0.363575 0.106174 0.806740 92 120 82
0.362321 0.106204 0.806529 90 118 80
0.361068 0.106234 0.806318 82 117 77
0.183390 0.140181 0.805911 116 127 108
0.182042 0.140975 0.806441 89 100 81
0.180689 0.141769 0.806970 74 98 70
0.179331 0.141801 0.806741 77 101 73
0.177972 0.141833 0.806512 80 109 75
0.176614 0.141866 0.806284 85 114 80
0.175256 0.141898 0.806055 82 111 77
0.173898 0.141930 0.805826 85 114 80
0.172540 0.141963 0.805598 104 121 93
0.363369 0.105663 0.807887 109 129 94
0.362116 0.105692 0.807676 95 115 80
0.360863 0.105722 0.807465 86 119 77
0.359609 0.105752 0.807254 82 115 73
0.358356 0.105782 0.807043 74 110 67
0.356740 0.105060 0.806012 69 105 62
0.355490 0.105089 0.805802 67 96 66
0.185863 0.138803 0.806845 122 130 115
0.184522 0.139596 0.807378 100 108 93
0.183169 0.139628 0.807150 75 96 72
0.181820 0.140421 0.807682 81 102 78
0.180464 0.140454 0.807454 81 110 76
0.179108 0.141247 0.807985 81 110 76
0.177750 0.141279 0.807756 86 115 81
0.176392 0.141312 0.807527 85 114 80
0.175034 0.141344 0.807299 90 114 84
0.173675 0.141376 0.807070 106 130 100
0.361911 0.105181 0.808824 116 128 102
0.360657 0.105211 0.808613 99 129 90
0.359404 0.105241 0.808402 85 115 76
0.358151 0.105271 0.808191 83 119 76
0.356535 0.104549 0.807158 77 113 70
0.355285 0.104579 0.806947 78 110 73
0.354034 0.104609 0.806736 68 100 63
0.352783 0.104639 0.806526 64 91 69
0.188309 0.136669 0.807008 125 134 116
0.186978 0.137461 0.807545 106 115 97
0.185630 0.137493 0.807318 78 96 75
0.184291 0.138284 0.807854 72 90 69
0.182947 0.139076 0.808389 75 106 74
0.181594 0.139109 0.808161 82 113 81
0.180242 0.139901 0.808695 83 115 78
0.178887 0.139933 0.808467 85 117 80
0.177531 0.139965 0.808239 88 116 80
0.176169 0.140757 0.808771 86 114 78
0.174811 0.140790 0.808542 117 134 108
0.360452 0.104699 0.809760 115 135 102
0.358832 0.103979 0.808724 104 124 91
0.357581 0.104009 0.808513 87 120 78
0.356331 0.104039 0.808303 86 119 77
0.355080 0.104069 0.808092 80 112 73
0.353829 0.104098 0.807882 77 109 70
0.352578 0.104128 0.807671 72 103 69
0.351328 0.104158 0.807460 68 99 65
0.189415 0.135330 0.807699 115 120 106
0.188088 0.136120 0.808239 85 101 80
0.186743 0.136152 0.808013 76 92 71
0.185409 0.136943 0.808552 75 102 73
0.184061 0.136975 0.808325 79 106 77
0.182719 0.137766 0.808863 79 110 76
0.181369 0.137798 0.808636 84 115 81
0.180019 0.138589 0.809172 92 122 85
0.178666 0.138621 0.808944 88 118 81
0.177309 0.139412 0.809480 107 124 96
0.175947 0.140203 0.810014 121 138 110
0.357376 0.103499 0.809658 105 128 94
0.356126 0.103528 0.809448 98 121 87
0.354875 0.103558 0.809237 87 118 76
0.353624 0.103588 0.809027 86 117 75
0.352373 0.103618 0.808816 80 112 73
0.351123 0.103648 0.808606 73 105 66
0.349872 0.103677 0.808395 72 101 71
0.190538 0.134750 0.809154 93 107 87
0.189195 0.134782 0.808928 80 94 74
0.187852 0.134814 0.808702 76 100 72
0.186522 0.135603 0.809245 77 101 73
0.185177 0.135635 0.809018 84 113 79
0.183840 0.136425 0.809559 86 115 81
0.182492 0.136457 0.809332 87 116 82
0.181147 0.137247 0.809872 88 117 83
0.179797 0.138036 0.810411 98 117 89
0.178444 0.138069 0.810183 119 138 110
0.177087 0.138859 0.810721 136 145 125
0.355921 0.103018 0.810593 119 131 105
0.354670 0.103048 0.810382 97 122 85
0.353419 0.103078 0.810172 91 116 79
0.352169 0.103107 0.809961 86 119 77
0.350567 0.102389 0.808923 80 113 71
0.349667 0.103167 0.809540 76 112 69
0.348416 0.103197 0.809330 74 110 67
0.347166 0.103227 0.809119 74 103 69
0.191637 0.133414 0.809837 86 97 78
0.188975 0.134234 0.810158 79 101 74
0.187632 0.134266 0.809932 82 109 76
0.186302 0.135054 0.810476 88 115 82
0.184957 0.135086 0.810250 92 122 85
0.183611 0.135118 0.810023 91 121 84
0.182271 0.135907 0.810566 95 117 86
0.180923 0.135939 0.810339 102 124 93
0.179576 0.136728 0.810881 126 135 115
0.354465 0.102537 0.811527 123 138 111
0.353214 0.102567 0.811317 105 120 93
0.351611 0.101850 0.810276 92 121 80
0.350363 0.101880 0.810066 90 119 78
0.349462 0.102657 0.810685 81 117 72
0.348211 0.102686 0.810475 80 116 71
0.346961 0.102716 0.810264 78 114 71
0.345710 0.102746 0.810054 75 111 68
0.344459 0.102776 0.809843 72 101 69
0.190077 0.132899 0.810839 81 109 73
0.188755 0.133686 0.811387 86 114 78
0.187412 0.133718 0.811161 89 119 82
0.186069 0.133750 0.810935 93 123 86
0.184736 0.134537 0.811482 97 122 87
0.183391 0.134569 0.811255 101 126 91
0.182050 0.135357 0.811800 118 130 106
0.180702 0.135389 0.811574 127 139 115
0.351406 0.101341 0.811419 114 132 99
0.350508 0.102116 0.812041 102 120 87
0.349257 0.102146 0.811830 88 119 75
0.348007 0.102176 0.811620 85 116 72
0.346756 0.102206 0.811409 84 120 73
0.345505 0.102236 0.811199 82 118 71
0.344254 0.102265 0.810988 78 111 69
0.343004 0.102295 0.810778 72 105 63
0.191176 0.131566 0.811514 86 113 80
0.189858 0.132352 0.812066 87 117 78
0.188535 0.133138 0.812616 89 119 80
0.187192 0.133170 0.812390 94 124 85
0.185849 0.133202 0.812164 89 119 80
0.184506 0.133234 0.811938 111 128 98
0.183170 0.134020 0.812487 118 135 105
0.349052 0.101636 0.812975 108 129 91
0.347802 0.101666 0.812765 100 121 83
0.346551 0.101695 0.812554 91 122 76
0.345300 0.101725 0.812344 86 117 71
0.344049 0.101755 0.812133 80 116 69
0.342799 0.101785 0.811923 78 114 67
0.190956 0.131020 0.812739 87 119 80
0.189638 0.131805 0.813293 92 120 82
0.188298 0.131837 0.813067 93 121 83
0.186972 0.132622 0.813620 101 120 90
0.185629 0.132654 0.813394 112 131 101
0.347597 0.101155 0.813910 113 123 96
0.346346 0.101185 0.813699 97 121 80
0.344757 0.100471 0.812654 91 115 74
0.343508 0.100500 0.812443 80 113 67
0.342260 0.100530 0.812233 85 118 72
0.344552 0.099961 0.813796 118 134 102
0.343304 0.099991 0.813586 95 124 83
0.342389 0.100764 0.814213 90 119 78
0.202293 0.125140 0.812487 72 93 69
0.342184 0.100254 0.815358 113 130 104
0.203352 0.123819 0.813129 80 98 75
0.202076 0.124600 0.813697 79 106 75
0.200754 0.124632 0.813475 83 110 79
0.208303 0.121659 0.813636 76 89 72
0.207042 0.122439 0.814209 78 96 73
0.205724 0.122470 0.813988 84 102 79
0.204456 0.123249 0.814559 81 108 77
0.203136 0.123281 0.814337 83 110 79
0.201859 0.124061 0.814908 86 113 80
0.200537 0.124092 0.814685 92 119 86
0.211905 0.119536 0.813907 81 99 78
0.210656 0.120313 0.814484 70 88 67
0.209402 0.121092 0.815061 75 99 71
0.208087 0.121123 0.814840 77 101 73
0.206826 0.121901 0.815415 81 108 75
0.205509 0.121932 0.815194 87 114 81
0.204191 0.121964 0.814972 88 115 82
0.202874 0.121995 0.814750 94 121 88
0.201600 0.122774 0.815323 96 125 91
0.200320 0.123553 0.815896 95 124 90
0.212934 0.118224 0.814525 74 95 73
0.211690 0.119001 0.815106 70 99 67
0.210381 0.119032 0.814885 77 106 74
0.209129 0.119809 0.815465 79 109 70
0.207872 0.120586 0.816043 84 114 75
0.206557 0.120618 0.815822 91 122 80
0.205293 0.121395 0.816400 93 124 82
0.203976 0.121426 0.816178 95 123 87
0.221703 0.115985 0.815648 125 135 119
0.220401 0.116016 0.815429 111 121 105
0.219100 0.116047 0.815210 91 108 90
0.217798 0.116078 0.814991 74 91 73
0.216568 0.116853 0.815576 65 92 63
0.215264 0.116884 0.815357 73 100 71
0.214027 0.117660 0.815941 76 107 73
0.212720 0.117691 0.815721 79 110 76
0.211413 0.117722 0.815501 83 118 78
0.210166 0.118498 0.816084 85 120 80
0.208914 0.119274 0.816666 90 126 83
0.207657 0.120050 0.817247 91 127 84
0.206342 0.120081 0.817026 94 125 83
0.205077 0.120857 0.817606 95 126 84
0.203760 0.120889 0.817384 98 123 88
0.225305 0.114618 0.816687 128 136 123
0.224094 0.115391 0.817279 116 126 110
0.222792 0.115423 0.817059 98 108 92
0.221490 0.115454 0.816840 77 94 76
0.220188 0.115485 0.816621 72 89 71
0.218886 0.115516 0.816402 75 102 73
0.217584 0.115547 0.816183 79 106 77
0.216355 0.116321 0.816771 74 109 71
0.215050 0.116352 0.816551 78 113 75
0.213746 0.116383 0.816332 84 119 79
0.212506 0.117158 0.816918 85 120 80
0.211199 0.117189 0.816698 90 126 83
0.208699 0.118738 0.817867 96 127 85
0.228796 0.112511 0.816905 117 130 115
0.227596 0.113284 0.817501 98 111 96
0.226300 0.113315 0.817283 85 101 80
0.225093 0.114087 0.817877 79 95 74
0.223880 0.114860 0.818470 70 91 67
0.222579 0.114891 0.818251 70 91 67
0.221277 0.114922 0.818032 75 102 73
0.219975 0.114953 0.817813 79 106 77
0.218673 0.114984 0.817594 82 113 79
0.217371 0.115015 0.817375 83 114 80
0.216141 0.115789 0.817965 87 119 80
0.214837 0.115820 0.817745 93 125 86
0.213532 0.115851 0.817526 94 127 85
0.231070 0.111181 0.817709 94 109 93
0.228584 0.111983 0.818090 69 92 69
0.227384 0.112755 0.818688 70 93 70
0.226087 0.112785 0.818470 73 100 69
0.224880 0.113557 0.819067 73 100 69
0.223667 0.114329 0.819662 80 109 77
0.222365 0.114360 0.819443 82 111 79
0.221063 0.114391 0.819224 85 114 82
0.219761 0.114422 0.819005 89 118 86
0.218460 0.114453 0.818786 90 121 87
0.217158 0.114484 0.818567 91 122 88
0.215856 0.114515 0.818347 93 125 88
0.214623 0.115287 0.818940 94 126 89
0.239660 0.108960 0.818768 127 135 122
0.238374 0.108991 0.818552 120 130 116
0.237087 0.109022 0.818335 111 121 107
0.235801 0.109052 0.818119 94 109 91
0.234514 0.109083 0.817902 81 96 78
0.233335 0.109853 0.818506 72 92 73
0.232046 0.109884 0.818289 71 91 72
0.230858 0.110654 0.818891 68 94 68
0.228372 0.111455 0.819275 72 103 69
0.227171 0.112225 0.819875 78 109 75
0.225966 0.112996 0.820475 78 110 73
0.224667 0.113027 0.820256 84 116 79
0.223454 0.113798 0.820854 89 121 84
0.222152 0.113829 0.820635 87 119 82
0.220850 0.113860 0.820416 92 123 89
0.219548 0.113891 0.820197 94 125 91
0.218246 0.113922 0.819978 96 125 91
0.216944 0.113953 0.819758 96 125 91
0.215643 0.113984 0.819539 101 125 95
0.214409 0.114755 0.820134 109 133 103
0.245882 0.108282 0.821029 125 138 123
0.244596 0.108313 0.820813 114 127 112
0.243309 0.108343 0.820596 106 121 105
0.242023 0.108374 0.820379 94 109 93
0.240736 0.108405 0.820163 83 98 82
0.239450 0.108435 0.819946 75 90 74
0.238163 0.108466 0.819730 71 89 68
0.236877 0.108497 0.819513 70 88 67
0.235590 0.108527 0.819297 63 86 61
0.234304 0.108558 0.819080 67 90 65
0.233123 0.109327 0.819686 71 100 68
0.231834 0.109358 0.819469 77 106 74
0.230647 0.110127 0.820074 80 112 75
0.228159 0.110927 0.820460 85 118 76
0.226959 0.111696 0.821063 90 123 81
0.225662 0.111727 0.820844 89 122 80
0.224454 0.112497 0.821446 93 126 84
0.223240 0.113266 0.822046 95 125 86
0.221939 0.113298 0.821827 94 124 85
0.220637 0.113329 0.821608 100 122 91
0.219335 0.113360 0.821389 100 122 91
0.218033 0.113391 0.821170 108 127 99
0.216731 0.113422 0.820950 115 134 106
0.250250 0.104689 0.819749 106 121 107
0.249113 0.105456 0.820365 99 114 100
0.247971 0.106223 0.820980 90 107 91
0.246824 0.106990 0.821594 77 94 78
0.245540 0.107020 0.821378 68 88 69
0.244385 0.107788 0.821990 68 88 69
0.243098 0.107818 0.821774 65 90 69
0.241812 0.107849 0.821557 66 91 70
0.240525 0.107880 0.821341 71 98 69
0.239239 0.107910 0.821124 73 100 71
0.237952 0.107941 0.820908 72 99 66
0.236666 0.107972 0.820691 78 105 72
0.235379 0.108002 0.820474 81 111 72
0.234093 0.108033 0.820258 81 111 72
0.232806 0.108064 0.820041 92 123 81
0.231623 0.108832 0.820649 92 123 81
0.230435 0.109600 0.821256 91 122 78
0.229143 0.109630 0.821039 92 123 79
0.226653 0.110430 0.821427 96 127 83
0.225450 0.111198 0.822032 97 126 85
0.224153 0.111229 0.821813 99 128 87
0.222942 0.111998 0.822417 103 126 92
0.221642 0.112028 0.822198 105 128 94
0.220343 0.112059 0.821979 114 129 102
0.251030 0.102667 0.819465 64 86 68
0.249900 0.103433 0.820084 66 88 70
0.248904 0.104934 0.821536 67 89 71
0.247761 0.105700 0.822153 64 90 66
0.246480 0.105730 0.821937 68 94 70
0.245329 0.106497 0.822553 66 92 66
0.244046 0.106527 0.822337 73 99 73
0.242888 0.107293 0.822952 78 107 75
0.241601 0.107324 0.822735 78 107 75
0.240315 0.107355 0.822519 76 108 71
0.239028 0.107385 0.822302 79 111 74
0.237742 0.107416 0.822085 83 115 78
0.236455 0.107447 0.821869 85 117 80
0.235168 0.107477 0.821652 87 120 76
0.233882 0.107508 0.821436 87 120 76
0.232595 0.107539 0.821219 93 126 80
0.231412 0.108306 0.821829 93 126 80
0.230123 0.108336 0.821612 95 126 80
0.228932 0.109103 0.822222 98 129 83
0.226441 0.109901 0.822612 102 128 88
0.225237 0.110669 0.823219 102 122 89
0.223940 0.110700 0.823001 112 132 99
0.250821 0.102148 0.820629 74 103 73
0.249691 0.102913 0.821250 75 106 76
0.248694 0.104412 0.822707 76 107 77
0.247551 0.105177 0.823326 78 109 75
0.246270 0.105208 0.823111 83 114 80
0.245119 0.105973 0.823729 85 117 78
0.243835 0.106003 0.823513 85 117 78
0.242677 0.106768 0.824130 88 118 79
0.241390 0.106799 0.823913 88 118 79
0.240104 0.106830 0.823697 89 121 82
0.238817 0.106860 0.823480 89 121 82
0.237531 0.106891 0.823263 90 122 83
0.236244 0.106922 0.823047 90 122 83
0.234958 0.106952 0.822830 94 125 83
0.233671 0.106983 0.822614 94 125 83
0.232385 0.107014 0.822397 98 124 84
0.231201 0.107780 0.823010 99 125 85
0.229912 0.107810 0.822793 110 134 95
0.228623 0.107841 0.822576 117 141 102
0.250613 0.101630 0.821792 82 114 77
0.249483 0.102393 0.822417 84 116 77
0.248347 0.103157 0.823040 84 116 77
0.247206 0.103921 0.823662 87 119 80
0.246060 0.104685 0.824284 89 121 82
0.244778 0.104715 0.824068 89 122 80
0.243625 0.105479 0.824688 91 124 82
0.242341 0.105510 0.824472 94 125 83
0.241057 0.105540 0.824256 92 123 81
0.239773 0.105571 0.824040 94 122 84
0.238606 0.106335 0.824658 94 122 84
0.237320 0.106366 0.824441 98 123 88
0.236033 0.106397 0.824225 102 127 92
0.234747 0.106427 0.824008 107 127 94
0.233460 0.106458 0.823792 112 132 99
0.232174 0.106489 0.823575 122 138 106
0.250405 0.101111 0.822956 96 125 84
0.249274 0.101873 0.823583 95 124 83
0.248000 0.101904 0.823368 93 122 81
0.246861 0.102667 0.823994 95 124 83
0.245717 0.103429 0.824618 96 125 84
0.244439 0.103460 0.824402 97 122 85
0.243287 0.104223 0.825025 97 122 85
0.242006 0.104253 0.824810 102 122 87
0.240846 0.105016 0.825431 105 125 90
0.239562 0.105047 0.825215 109 127 94
0.238279 0.105078 0.824999 113 131 98
0.250197 0.100592 0.824120 114 132 97
0.248925 0.100623 0.823906 114 132 97
0.247791 0.101384 0.824535 113 131 96
0.246518 0.101414 0.824320 115 133 100
0.245244 0.101445 0.824106 117 135 102
0.244100 0.102207 0.824732 122 137 108
