ply
format ascii 1.0
element vertex 2105
property float x
property float y
property float z
property uchar red
property uchar green
property uchar blue
end_header
-0.254827 -0.134685 0.662000 92 94 78
-0.255212 -0.133166 0.663000 88 90 74
-0.256932 -0.131444 0.663000 80 83 67
-0.255597 -0.131642 0.664000 83 86 70
-0.260511 -0.128939 0.659000 116 119 103
-0.257319 -0.129917 0.664000 79 82 66
-0.255982 -0.130113 0.665000 73 78 64
-0.261302 -0.127613 0.661000 119 121 110
-0.259979 -0.127806 0.662000 114 116 105
-0.259042 -0.128192 0.664000 84 87 69
-0.257707 -0.128385 0.665000 71 74 56
-0.261697 -0.126086 0.662000 68 70 61
-0.260372 -0.126277 0.663000 114 116 107
-0.259432 -0.126658 0.665000 112 114 103
-0.286556 -0.107902 0.656000 51 69 46
-0.285288 -0.108066 0.657000 76 94 71
-0.284015 -0.108231 0.658000 67 91 61
-0.283166 -0.108560 0.660000 23 47 17
-0.288258 -0.106198 0.656000 54 70 47
-0.286119 -0.106036 0.655000 75 103 65
-0.285288 -0.106359 0.657000 78 106 68
-0.284447 -0.106683 0.659000 79 108 67
-0.284024 -0.107169 0.662000 68 97 56
-0.283160 -0.107493 0.664000 23 41 18
-0.289518 -0.104334 0.655000 49 71 40
-0.287818 -0.104334 0.655000 81 103 72
-0.286556 -0.104493 0.656000 71 104 58
-0.285288 -0.104653 0.657000 71 104 58
-0.285310 -0.105290 0.661000 75 106 64
-0.284882 -0.105768 0.664000 77 108 66
-0.284013 -0.106086 0.666000 37 55 34
-0.290772 -0.102476 0.654000 56 74 51
-0.289076 -0.102476 0.654000 78 109 67
-0.287818 -0.102633 0.655000 77 108 66
-0.286993 -0.102946 0.657000 73 106 60
-0.286157 -0.103259 0.659000 76 109 63
-0.286605 -0.104043 0.664000 74 102 66
-0.285740 -0.104356 0.666000 44 72 36
-0.294166 -0.100777 0.654000 25 39 19
-0.292469 -0.100777 0.654000 57 85 49
-0.290772 -0.100777 0.654000 80 108 72
-0.289076 -0.100777 0.654000 76 110 61
-0.287818 -0.100931 0.655000 72 106 57
-0.287429 -0.101393 0.658000 79 112 66
-0.287893 -0.102164 0.663000 71 104 58
-0.287037 -0.102472 0.665000 39 61 30
-0.286169 -0.102780 0.667000 22 44 13
-0.295410 -0.098926 0.653000 22 44 17
-0.292469 -0.099078 0.654000 75 108 64
-0.290772 -0.099078 0.654000 71 104 60
-0.289518 -0.099229 0.655000 75 109 58
-0.288697 -0.099532 0.657000 76 110 59
-0.289177 -0.100290 0.662000 74 105 61
-0.288762 -0.100744 0.665000 31 62 18
-0.287900 -0.101047 0.667000 28 44 21
-0.296649 -0.097081 0.652000 35 51 30
-0.295410 -0.097230 0.653000 62 90 54
-0.292469 -0.097379 0.654000 73 107 56
-0.291217 -0.097528 0.655000 72 106 55
-0.290844 -0.097974 0.658000 68 100 49
-0.291334 -0.098719 0.663000 61 93 42
-0.296968 -0.094948 0.649000 29 51 22
-0.295739 -0.095095 0.650000 69 91 62
-0.293716 -0.095534 0.653000 73 106 60
-0.292469 -0.095680 0.654000 70 104 53
-0.292106 -0.096119 0.657000 73 107 56
-0.293054 -0.096997 0.663000 57 86 45
-0.292652 -0.097436 0.666000 30 59 18
-0.292234 -0.097874 0.669000 30 46 25
-0.296351 -0.092544 0.644000 34 51 33
-0.295595 -0.092831 0.646000 61 92 50
-0.295739 -0.093406 0.650000 78 109 67
-0.294166 -0.093981 0.654000 71 105 56
-0.293363 -0.094268 0.656000 74 106 57
-0.294380 -0.095705 0.666000 34 56 27
-0.293970 -0.096136 0.669000 27 49 20
-0.296634 -0.090448 0.641000 31 58 29
-0.295431 -0.090589 0.642000 73 100 71
-0.295138 -0.091012 0.645000 74 110 63
-0.296194 -0.091859 0.651000 68 104 57
-0.294166 -0.092282 0.654000 73 107 56
-0.295663 -0.093834 0.665000 25 51 11
-0.295706 -0.094399 0.669000 31 47 24
-0.296900 -0.088367 0.638000 45 62 44
-0.294782 -0.088228 0.637000 61 96 58
-0.295431 -0.088921 0.642000 71 106 68
-0.297426 -0.090029 0.650000 69 108 57
-0.295863 -0.090583 0.654000 69 103 54
-0.297835 -0.092245 0.666000 29 48 18
-0.297441 -0.092661 0.669000 26 45 15
-0.298556 -0.086709 0.638000 52 79 50
-0.296900 -0.086709 0.638000 73 100 71
-0.294782 -0.086574 0.637000 65 106 59
-0.296351 -0.087525 0.644000 65 106 59
-0.297559 -0.088884 0.654000 70 109 58
-0.298799 -0.084652 0.635000 61 79 58
-0.296684 -0.084519 0.634000 75 107 68
-0.296900 -0.085052 0.638000 72 104 65
-0.294782 -0.084919 0.637000 65 104 53
-0.300032 -0.086918 0.652000 67 106 55
-0.299500 -0.082741 0.633000 58 85 52
-0.297858 -0.082741 0.633000 76 103 70
-0.296216 -0.082741 0.633000 69 105 58
-0.298485 -0.084310 0.645000 68 104 57
-0.301618 -0.081225 0.634000 64 83 57
-0.299027 -0.080969 0.632000 68 101 57
-0.297388 -0.080969 0.632000 70 103 59
-0.297366 -0.081865 0.639000 70 107 55
-0.302307 -0.079327 0.632000 63 93 56
-0.300667 -0.079327 0.632000 73 103 66
-0.299027 -0.079327 0.632000 68 104 57
-0.297388 -0.079327 0.632000 69 105 58
-0.066512 -0.086105 0.686000 97 99 88
-0.064638 -0.085979 0.685000 94 95 84
-0.062861 -0.085979 0.685000 109 110 99
-0.060906 -0.085728 0.683000 68 69 60
-0.303465 -0.077562 0.631000 68 92 64
-0.301828 -0.077562 0.631000 70 106 63
-0.300191 -0.077562 0.631000 67 103 60
-0.298554 -0.077562 0.631000 66 104 56
-0.066512 -0.084323 0.686000 109 111 100
-0.064638 -0.084200 0.685000 115 113 103
-0.062861 -0.084200 0.685000 124 122 112
-0.304135 -0.075682 0.629000 65 95 58
-0.302984 -0.075802 0.630000 73 103 66
-0.301350 -0.075802 0.630000 66 104 56
-0.299715 -0.075802 0.630000 67 105 57
-0.066609 -0.082661 0.687000 66 71 61
-0.064733 -0.082540 0.686000 102 103 92
-0.060906 -0.082179 0.683000 123 125 112
-0.059134 -0.082179 0.683000 109 111 98
-0.304795 -0.073813 0.627000 64 86 59
-0.303652 -0.073930 0.628000 73 106 62
-0.302023 -0.073930 0.628000 69 102 58
-0.300872 -0.074048 0.629000 67 106 55
-0.062861 -0.080641 0.685000 123 125 116
-0.060906 -0.080405 0.683000 116 118 105
-0.059047 -0.080287 0.682000 122 124 111
-0.057278 -0.080287 0.682000 94 102 91
-0.305933 -0.072069 0.626000 69 97 61
-0.304309 -0.072069 0.626000 76 104 68
-0.303168 -0.072184 0.627000 70 103 57
-0.302023 -0.072299 0.628000 70 103 57
-0.060906 -0.078631 0.683000 124 126 117
-0.059047 -0.078516 0.682000 114 116 107
-0.057278 -0.078516 0.682000 49 56 50
-0.306574 -0.070217 0.624000 69 88 62
-0.305444 -0.070330 0.625000 77 108 66
-0.304309 -0.070442 0.626000 72 103 61
-0.059047 -0.076744 0.682000 55 59 54
-0.057278 -0.076744 0.682000 26 33 27
-0.308819 -0.068376 0.622000 37 50 33
-0.307699 -0.068486 0.623000 74 98 66
-0.306083 -0.068486 0.623000 78 102 70
-0.304956 -0.068596 0.624000 71 104 60
-0.309934 -0.066653 0.621000 34 52 29
-0.308819 -0.066761 0.622000 74 92 69
-0.307206 -0.066761 0.622000 77 107 68
-0.306083 -0.066868 0.623000 74 104 65
-0.311545 -0.065040 0.621000 37 52 34
-0.309934 -0.065040 0.621000 69 96 63
-0.308323 -0.065040 0.621000 76 103 70
-0.307206 -0.065145 0.622000 73 104 58
-0.311043 -0.063325 0.620000 68 91 66
-0.309934 -0.063427 0.621000 73 106 64
-0.308323 -0.063427 0.621000 71 104 62
-0.307206 -0.063529 0.622000 70 104 55
-0.312148 -0.061614 0.619000 60 90 53
-0.311043 -0.061714 0.620000 73 103 66
-0.309435 -0.061714 0.620000 68 104 57
-0.308323 -0.061814 0.621000 67 103 56
-0.311643 -0.059909 0.618000 66 102 57
-0.310542 -0.060006 0.619000 67 103 58
-0.309435 -0.060103 0.620000 67 103 56
-0.312233 -0.058115 0.616000 72 99 66
-0.311139 -0.058210 0.617000 67 103 56
-0.310040 -0.058304 0.618000 67 103 56
-0.039700 -0.064531 0.684000 113 105 61
-0.038036 -0.064719 0.686000 125 117 73
-0.034577 -0.064908 0.688000 69 64 19
-0.313322 -0.056423 0.615000 68 101 59
-0.043123 -0.062570 0.682000 98 90 46
-0.041353 -0.062570 0.682000 143 135 91
-0.039642 -0.062662 0.683000 143 132 78
-0.037981 -0.062845 0.685000 115 104 50
-0.034577 -0.063121 0.688000 102 92 35
-0.032888 -0.063304 0.690000 135 125 66
-0.031143 -0.063396 0.691000 132 122 63
-0.312812 -0.054737 0.614000 71 107 60
-0.044958 -0.060888 0.683000 108 108 84
-0.043123 -0.060799 0.682000 162 150 94
-0.041353 -0.060799 0.682000 145 133 77
-0.039642 -0.060888 0.683000 110 96 36
-0.037981 -0.061066 0.685000 94 80 20
-0.034577 -0.061333 0.688000 92 81 18
-0.032840 -0.061423 0.689000 118 108 40
-0.031143 -0.061601 0.691000 122 112 44
-0.029392 -0.061690 0.692000 128 122 68
-0.045089 -0.059286 0.685000 136 134 111
-0.043186 -0.059113 0.683000 151 138 85
-0.041414 -0.059113 0.683000 108 95 42
-0.039642 -0.059113 0.683000 105 93 25
-0.037981 -0.059286 0.685000 128 116 48
-0.034527 -0.059460 0.687000 130 120 50
-0.032840 -0.059633 0.689000 110 102 33
-0.031143 -0.059806 0.691000 118 110 41
-0.029392 -0.059892 0.692000 123 119 67
-0.027677 -0.060065 0.694000 125 121 69
-0.043312 -0.057507 0.685000 102 94 41
-0.041474 -0.057423 0.684000 114 106 53
-0.039700 -0.057423 0.684000 157 147 77
-0.037981 -0.057507 0.685000 155 145 75
-0.034527 -0.057675 0.687000 87 82 12
-0.032840 -0.057843 0.689000 77 79 16
-0.031097 -0.057927 0.690000 100 102 39
-0.029392 -0.058095 0.692000 95 96 58
-0.043502 -0.055972 0.688000 84 80 30
-0.041474 -0.055646 0.684000 154 150 100
-0.039700 -0.055646 0.684000 159 153 86
-0.037981 -0.055727 0.685000 113 107 40
-0.036256 -0.055809 0.686000 79 81 18
-0.032792 -0.055972 0.688000 69 80 30
-0.031097 -0.056134 0.690000 63 74 24
-0.029350 -0.056216 0.691000 32 40 11
-0.041717 -0.054184 0.688000 135 130 89
-0.039758 -0.053948 0.685000 108 103 44
-0.037981 -0.053948 0.685000 72 67 8
-0.036256 -0.054027 0.686000 75 84 30
-0.034527 -0.054105 0.687000 82 91 37
-0.032745 -0.054105 0.687000 69 91 46
-0.031097 -0.054342 0.690000 49 71 26
-0.029350 -0.054420 0.691000 25 42 12
-0.039990 -0.052473 0.689000 92 87 46
-0.038147 -0.052397 0.688000 71 66 25
-0.036309 -0.052321 0.687000 86 97 51
-0.034577 -0.052397 0.688000 89 100 54
-0.032840 -0.052473 0.689000 75 101 57
-0.031052 -0.052473 0.689000 68 94 50
-0.029307 -0.052549 0.690000 45 70 35
-0.027557 -0.052625 0.691000 23 48 13
-0.038313 -0.050830 0.691000 40 40 18
-0.036468 -0.050757 0.690000 34 48 12
-0.034678 -0.050757 0.690000 83 97 61
-0.032840 -0.050683 0.689000 81 107 65
-0.031052 -0.050683 0.689000 76 102 60
-0.029307 -0.050757 0.690000 64 95 53
-0.027557 -0.050830 0.691000 44 75 33
-0.025802 -0.050904 0.692000 19 42 19
-0.034728 -0.049035 0.691000 32 43 22
-0.032888 -0.048964 0.690000 76 101 66
-0.031097 -0.048964 0.690000 82 107 72
-0.029307 -0.048964 0.690000 73 106 64
-0.027517 -0.048964 0.690000 64 97 55
-0.025764 -0.049035 0.691000 41 70 38
-0.024006 -0.049106 0.692000 14 43 11
-0.032983 -0.047308 0.692000 31 49 26
-0.031097 -0.047172 0.690000 79 97 74
-0.029307 -0.047172 0.690000 75 107 68
-0.027477 -0.047103 0.689000 72 104 65
-0.025727 -0.047172 0.690000 63 98 60
-0.023972 -0.047240 0.691000 37 72 34
-0.022243 -0.047377 0.693000 18 43 22
-0.031143 -0.045445 0.691000 31 46 30
-0.029307 -0.045379 0.690000 75 102 71
-0.027477 -0.045313 0.689000 79 106 75
-0.025690 -0.045313 0.689000 66 101 61
-0.023937 -0.045379 0.690000 61 96 56
-0.022179 -0.045445 0.691000 39 70 40
-0.020445 -0.045577 0.693000 12 43 13
-0.029350 -0.043650 0.691000 32 53 31
-0.027517 -0.043587 0.690000 77 98 76
-0.025690 -0.043524 0.689000 73 105 68
-0.023902 -0.043524 0.689000 71 103 66
-0.022147 -0.043587 0.690000 64 98 63
-0.020386 -0.043650 0.691000 41 75 40
-0.018620 -0.043713 0.692000 14 39 18
-0.029477 -0.042037 0.694000 14 31 17
-0.027557 -0.041855 0.691000 29 46 32
-0.025727 -0.041794 0.690000 77 106 74
-0.023902 -0.041734 0.689000 77 106 74
-0.022115 -0.041734 0.689000 63 98 60
-0.020327 -0.041734 0.689000 55 90 52
-0.018567 -0.041794 0.690000 30 60 33
-0.027637 -0.040176 0.693000 22 36 25
-0.025764 -0.040060 0.691000 28 54 28
-0.023902 -0.039944 0.689000 75 101 75
-0.022051 -0.039828 0.687000 69 104 66
-0.018513 -0.039886 0.688000 54 88 55
-0.016776 -0.040002 0.690000 27 61 28
-0.023972 -0.038265 0.691000 32 52 33
-0.022051 -0.038043 0.687000 72 101 67
-0.020239 -0.037988 0.686000 70 99 65
-0.018486 -0.038043 0.687000 63 98 60
-0.014965 -0.038154 0.689000 25 53 26
-0.022179 -0.036470 0.691000 31 54 29
-0.020239 -0.036206 0.686000 78 101 76
-0.018432 -0.036153 0.685000 78 110 73
-0.016703 -0.036258 0.687000 72 104 67
-0.013177 -0.036364 0.689000 29 58 24
-0.020268 -0.034474 0.687000 45 65 46
-0.018432 -0.034373 0.685000 80 109 75
-0.016655 -0.034373 0.685000 77 106 72
-0.014899 -0.034424 0.686000 70 102 65
-0.011389 -0.034574 0.689000 30 56 30
-0.018486 -0.032689 0.687000 51 80 50
-0.016655 -0.032594 0.685000 80 109 79
-0.014878 -0.032594 0.685000 72 104 67
-0.013120 -0.032641 0.686000 69 101 64
-0.009602 -0.032784 0.689000 20 51 19
-0.393190 -0.032254 0.717000 93 86 55
-0.016703 -0.030904 0.687000 54 76 56
-0.014856 -0.030769 0.684000 77 108 74
-0.013081 -0.030769 0.684000 70 101 67
-0.011356 -0.030904 0.687000 66 100 67
-0.007826 -0.031039 0.690000 24 50 26
-0.393190 -0.030391 0.717000 86 88 52
-0.391330 -0.030391 0.717000 73 99 55
-0.014878 -0.029035 0.685000 53 82 52
-0.013062 -0.028950 0.683000 78 107 77
-0.011290 -0.028950 0.683000 68 102 67
-0.009560 -0.029077 0.686000 62 96 61
-0.006036 -0.029247 0.690000 15 46 16
-0.395050 -0.028529 0.717000 80 92 53
-0.393190 -0.028529 0.717000 79 91 52
-0.391330 -0.028529 0.717000 69 99 51
-0.390013 -0.028568 0.718000 69 99 51
-0.013081 -0.027216 0.684000 60 83 60
-0.011274 -0.027136 0.682000 75 109 76
-0.009518 -0.027176 0.683000 63 97 64
-0.007792 -0.027335 0.687000 55 89 56
-0.396910 -0.026666 0.717000 93 86 55
-0.395050 -0.026666 0.717000 75 94 52
-0.393738 -0.026703 0.718000 75 94 52
-0.391875 -0.026703 0.718000 71 97 53
-0.390013 -0.026703 0.718000 69 95 51
-0.011274 -0.025364 0.682000 65 95 68
-0.009476 -0.025290 0.680000 70 100 73
-0.007746 -0.025401 0.683000 64 98 65
-0.006018 -0.025587 0.688000 59 93 60
-0.397464 -0.024838 0.718000 90 87 55
-0.391875 -0.024838 0.718000 67 96 51
-0.390013 -0.024838 0.718000 67 96 51
-0.009476 -0.023523 0.680000 73 98 77
-0.007712 -0.023523 0.680000 75 104 74
-0.005974 -0.023627 0.683000 66 95 65
-0.004233 -0.023800 0.688000 66 88 68
-0.398770 -0.022941 0.717000 84 89 52
-0.397464 -0.022973 0.718000 85 90 53
-0.395601 -0.022973 0.718000 67 98 52
-0.393738 -0.022973 0.718000 66 97 51
-0.391875 -0.022973 0.718000 68 94 50
-0.390013 -0.022973 0.718000 69 95 51
-0.009476 -0.021757 0.680000 34 51 37
-0.007690 -0.021693 0.678000 80 102 82
-0.005939 -0.021725 0.679000 94 116 96
-0.004202 -0.021853 0.683000 97 119 103
-0.002448 -0.022013 0.688000 95 117 101
-0.399327 -0.021107 0.718000 80 92 53
-0.397464 -0.021107 0.718000 79 91 52
-0.395601 -0.021107 0.718000 65 98 52
-0.393738 -0.021107 0.718000 64 97 51
-0.392421 -0.021137 0.719000 70 91 49
-0.390556 -0.021137 0.719000 73 94 52
-0.007690 -0.019931 0.678000 40 60 45
-0.005931 -0.019931 0.678000 102 122 107
-0.004184 -0.019990 0.680000 112 133 122
-0.002434 -0.020108 0.684000 108 129 118
-0.000664 -0.020255 0.689000 62 80 76
-0.401189 -0.019242 0.718000 94 84 54
-0.399327 -0.019242 0.718000 73 95 50
-0.397464 -0.019242 0.718000 72 94 49
-0.395601 -0.019242 0.718000 64 98 49
-0.393738 -0.019242 0.718000 62 96 47
-0.392421 -0.019269 0.719000 77 92 49
-0.390556 -0.019269 0.719000 81 96 53
-0.005922 -0.018143 0.677000 59 75 64
-0.004172 -0.018170 0.678000 105 125 118
-0.002420 -0.018224 0.680000 113 133 126
-0.000658 -0.018304 0.683000 73 93 86
0.001123 -0.018465 0.689000 58 78 71
-0.401189 -0.017377 0.718000 88 85 51
-0.399327 -0.017377 0.718000 70 97 50
-0.397464 -0.017377 0.718000 69 96 49
-0.396152 -0.017401 0.719000 64 96 47
-0.394287 -0.017401 0.719000 64 96 47
-0.392421 -0.017401 0.719000 83 88 51
-0.004165 -0.016385 0.677000 49 69 62
-0.002413 -0.016409 0.678000 102 122 115
-0.000654 -0.016409 0.678000 101 121 114
0.001114 -0.016530 0.683000 99 119 112
0.002911 -0.016675 0.689000 62 77 72
-0.401189 -0.015512 0.718000 82 88 51
-0.399327 -0.015512 0.718000 69 96 47
-0.398017 -0.015533 0.719000 69 96 47
-0.396152 -0.015533 0.719000 69 96 47
-0.394287 -0.015533 0.719000 67 94 45
-0.392421 -0.015533 0.719000 89 86 52
-0.002388 -0.014496 0.671000 83 101 95
-0.000649 -0.014539 0.673000 112 132 125
0.001097 -0.014539 0.673000 99 119 112
0.002856 -0.014604 0.676000 69 87 83
0.004657 -0.014756 0.683000 39 57 53
-0.398017 -0.013665 0.719000 70 97 48
-0.396152 -0.013665 0.719000 75 93 47
-0.394287 -0.013665 0.719000 74 92 46
-0.002377 -0.012696 0.668000 47 60 55
-0.000643 -0.012677 0.667000 103 121 115
0.001087 -0.012677 0.667000 121 139 133
0.002826 -0.012715 0.669000 97 117 112
0.006392 -0.012905 0.679000 45 60 57
-0.000642 -0.010928 0.666000 54 69 64
0.001086 -0.010928 0.666000 107 122 117
0.002809 -0.010912 0.665000 128 146 142
0.004548 -0.010944 0.667000 84 102 98
0.001084 -0.009184 0.665000 68 81 76
0.002809 -0.009184 0.665000 117 135 129
0.004535 -0.009184 0.665000 113 131 125
0.006269 -0.009198 0.666000 91 109 103
-0.399125 -0.008084 0.721000 73 94 52
0.002809 -0.007456 0.665000 85 103 97
0.004528 -0.007445 0.664000 113 131 125
-0.408104 -0.006263 0.727000 67 96 51
-0.405101 -0.006246 0.725000 65 94 49
-0.402664 -0.006237 0.724000 76 90 50
-0.400785 -0.006237 0.724000 78 92 52
0.004528 -0.005720 0.664000 107 121 112
-0.413010 -0.004386 0.729000 71 96 50
-0.411118 -0.004386 0.729000 71 96 50
-0.408104 -0.004374 0.727000 69 95 51
-0.406218 -0.004374 0.727000 63 89 45
-0.403220 -0.004362 0.725000 82 88 51
-0.400785 -0.004356 0.724000 86 92 55
-0.414901 -0.002493 0.729000 85 90 53
-0.413010 -0.002493 0.729000 72 97 51
-0.411118 -0.002493 0.729000 71 96 50
-0.408666 -0.002489 0.728000 69 94 48
-0.406218 -0.002486 0.727000 67 92 46
-0.403220 -0.002479 0.725000 85 87 53
-0.417364 -0.000600 0.730000 81 90 52
-0.415470 -0.000600 0.730000 81 90 52
-0.413576 -0.000600 0.730000 71 98 51
-0.411118 -0.000599 0.729000 69 96 49
-0.409227 -0.000599 0.729000 69 91 46
-0.406218 -0.000597 0.727000 70 92 47
-0.404332 -0.000597 0.727000 88 85 51
-0.417364 0.001297 0.730000 77 91 51
-0.415470 0.001297 0.730000 79 93 53
-0.413576 0.001297 0.730000 71 98 51
-0.411118 0.001295 0.729000 68 95 48
-0.409227 0.001295 0.729000 69 89 44
-0.407336 0.001295 0.729000 73 93 48
-0.419832 0.003198 0.731000 88 83 50
-0.417936 0.003198 0.731000 74 94 49
-0.415470 0.003193 0.730000 74 94 49
-0.413576 0.003193 0.730000 70 97 50
-0.411682 0.003193 0.730000 64 91 44
-0.409227 0.003189 0.729000 76 88 49
-0.407336 0.003189 0.729000 78 90 51
-0.419832 0.005097 0.731000 85 85 52
-0.417936 0.005097 0.731000 70 94 51
-0.416039 0.005097 0.731000 70 94 51
-0.414143 0.005097 0.731000 69 94 48
-0.411682 0.005090 0.730000 67 92 46
-0.409788 0.005090 0.730000 83 89 52
-0.407894 0.005090 0.730000 84 90 53
-0.422306 0.007005 0.732000 84 89 54
-0.420407 0.007005 0.732000 83 88 53
-0.417936 0.006996 0.731000 70 96 52
-0.416039 0.006996 0.731000 69 95 51
-0.414143 0.006996 0.731000 69 90 48
-0.412246 0.006996 0.731000 71 92 50
-0.409788 0.006986 0.730000 90 90 57
-0.422306 0.008907 0.732000 78 90 53
-0.420407 0.008907 0.732000 79 91 54
-0.417936 0.008895 0.731000 68 95 48
-0.416039 0.008895 0.731000 66 93 46
-0.414143 0.008895 0.731000 72 90 46
-0.412246 0.008895 0.731000 76 94 50
-0.410350 0.008895 0.731000 92 89 55
-0.424784 0.010823 0.733000 89 86 54
-0.422306 0.010808 0.732000 76 94 50
-0.420407 0.010808 0.732000 74 92 48
-0.418507 0.010808 0.732000 68 95 48
-0.416039 0.010794 0.731000 64 91 44
-0.414143 0.010794 0.731000 73 86 44
-0.412246 0.010794 0.731000 77 90 48
0.011229 0.009642 0.653000 21 36 22
0.012924 0.009642 0.653000 50 77 48
0.014618 0.009642 0.653000 69 96 67
0.016312 0.009642 0.653000 55 87 50
-0.424784 0.012727 0.733000 85 87 51
-0.422883 0.012727 0.733000 71 93 46
-0.420407 0.012710 0.732000 71 93 46
-0.418507 0.012710 0.732000 67 94 45
-0.416608 0.012710 0.732000 66 93 44
-0.414143 0.012693 0.731000 83 89 49
-0.412246 0.012693 0.731000 85 91 51
0.014595 0.011321 0.652000 70 93 70
0.016262 0.011304 0.651000 63 93 56
-0.427268 0.014652 0.734000 83 90 50
-0.425364 0.014652 0.734000 82 89 49
-0.422883 0.014632 0.733000 70 96 45
-0.420407 0.014612 0.732000 69 95 44
-0.418507 0.014612 0.732000 67 93 42
-0.416608 0.014612 0.732000 69 95 44
-0.414709 0.014612 0.732000 86 87 49
0.012844 0.012955 0.649000 14 36 16
0.014528 0.012955 0.649000 47 69 49
0.016212 0.012955 0.649000 68 97 63
0.017923 0.012975 0.650000 55 84 50
-0.427268 0.016558 0.734000 77 90 46
-0.425364 0.016558 0.734000 78 91 47
-0.423460 0.016558 0.734000 68 96 44
-0.420981 0.016536 0.733000 68 96 44
-0.419079 0.016536 0.733000 71 93 46
-0.416608 0.016513 0.732000 71 93 46
-0.414709 0.016513 0.732000 91 86 53
0.014461 0.014573 0.646000 28 48 31
0.016137 0.014573 0.646000 66 95 63
0.017868 0.014618 0.648000 58 87 55
-0.429757 0.018490 0.735000 85 88 65
-0.427268 0.018465 0.734000 75 93 49
-0.425364 0.018465 0.734000 76 94 50
-0.423460 0.018465 0.734000 68 96 44
-0.420981 0.018440 0.733000 67 95 43
-0.419079 0.018440 0.733000 74 94 49
-0.417177 0.018440 0.733000 74 94 49
0.014439 0.016226 0.645000 17 34 18
0.016112 0.016226 0.645000 57 86 54
0.017785 0.016226 0.645000 61 90 58
0.019580 0.016327 0.649000 56 88 51
-0.430342 0.020427 0.736000 85 92 70
-0.427850 0.020400 0.735000 74 95 53
-0.425943 0.020400 0.735000 72 93 51
-0.424036 0.020400 0.735000 66 93 44
-0.421555 0.020372 0.734000 64 91 42
-0.419651 0.020372 0.734000 76 89 47
-0.417747 0.020372 0.734000 79 92 50
0.016087 0.017874 0.644000 36 63 34
0.017785 0.017902 0.645000 62 89 60
0.019519 0.017957 0.647000 55 87 50
-0.430926 0.022370 0.737000 81 93 67
-0.429014 0.022370 0.737000 71 96 50
-0.427102 0.022370 0.737000 68 93 47
-0.425190 0.022370 0.737000 64 89 41
-0.422704 0.022339 0.736000 65 90 42
-0.420794 0.022339 0.736000 83 86 45
-0.418885 0.022339 0.736000 87 90 49
0.016087 0.019547 0.644000 19 40 18
0.017758 0.019547 0.644000 65 86 64
0.019489 0.019608 0.646000 56 86 49
0.021198 0.019638 0.647000 55 85 48
-0.434013 0.024350 0.739000 48 63 36
-0.432096 0.024350 0.739000 75 90 63
-0.430179 0.024350 0.739000 68 95 48
-0.427682 0.024317 0.738000 67 94 47
-0.425767 0.024317 0.738000 65 91 40
-0.424427 0.024350 0.739000 67 93 42
-0.422510 0.024350 0.739000 87 86 44
0.016087 0.021220 0.644000 20 37 21
0.017758 0.021220 0.644000 57 74 58
0.019459 0.021253 0.645000 58 86 50
0.021165 0.021286 0.646000 56 84 48
-0.434600 0.026306 0.740000 65 82 52
-0.433265 0.026341 0.741000 75 92 62
-0.431343 0.026341 0.741000 66 95 50
-0.429420 0.026341 0.741000 65 94 49
-0.427498 0.026341 0.741000 69 91 44
-0.425575 0.026341 0.741000 70 92 45
-0.423653 0.026341 0.741000 89 85 47
0.017758 0.022893 0.644000 36 53 39
0.019459 0.022929 0.645000 65 92 59
0.021132 0.022929 0.645000 57 84 51
-0.435775 0.028304 0.742000 69 89 56
-0.434435 0.028342 0.743000 73 93 60
-0.432507 0.028342 0.743000 66 96 48
-0.430579 0.028342 0.743000 64 94 46
-0.428075 0.028304 0.742000 69 87 41
-0.426724 0.028342 0.743000 72 90 44
0.017758 0.024566 0.644000 26 40 29
0.019429 0.024566 0.644000 61 88 57
0.021099 0.024566 0.644000 58 85 54
0.022770 0.024566 0.644000 54 81 50
-0.436362 0.030273 0.743000 77 102 65
-0.435019 0.030313 0.744000 69 94 57
-0.433089 0.030313 0.744000 67 97 49
-0.431159 0.030313 0.744000 65 95 47
-0.429229 0.030313 0.744000 70 85 42
-0.427298 0.030313 0.744000 76 91 48
0.019429 0.026239 0.644000 49 70 46
0.021099 0.026239 0.644000 63 84 60
0.022735 0.026198 0.643000 56 83 54
-0.438880 0.032246 0.744000 59 74 56
-0.437537 0.032289 0.745000 69 97 61
-0.435604 0.032289 0.745000 68 96 60
-0.433671 0.032289 0.745000 66 95 50
-0.431738 0.032289 0.745000 65 94 49
-0.429806 0.032289 0.745000 73 85 46
-0.428447 0.032333 0.746000 77 89 50
0.019399 0.027869 0.643000 32 52 33
0.021067 0.027869 0.643000 64 84 65
0.022735 0.027869 0.643000 56 85 53
-0.439470 0.034225 0.745000 73 89 68
-0.436189 0.034271 0.746000 68 96 58
-0.434253 0.034271 0.746000 69 95 53
-0.432318 0.034271 0.746000 64 90 48
-0.430383 0.034271 0.746000 81 87 52
0.019399 0.029539 0.643000 24 44 25
0.021067 0.029539 0.643000 61 81 62
0.022735 0.029539 0.643000 57 86 54
0.024403 0.029539 0.643000 55 84 52
-0.438124 0.036209 0.746000 67 96 55
-0.436189 0.036209 0.746000 67 96 55
-0.434253 0.036209 0.746000 67 93 51
-0.432318 0.036209 0.746000 63 89 47
-0.430383 0.036209 0.746000 80 86 53
0.019399 0.031209 0.643000 24 41 23
0.021067 0.031209 0.643000 59 76 58
0.022735 0.031209 0.643000 58 85 54
0.024365 0.031161 0.642000 58 85 54
0.026031 0.031161 0.642000 54 78 50
-0.438124 0.038147 0.746000 66 97 53
-0.436189 0.038147 0.746000 63 94 50
-0.434253 0.038147 0.746000 64 90 46
-0.432318 0.038147 0.746000 63 89 45
-0.430383 0.038147 0.746000 81 86 53
0.021034 0.032829 0.642000 51 64 47
0.022700 0.032829 0.642000 63 87 57
0.024365 0.032829 0.642000 58 82 52
0.026031 0.032829 0.642000 60 87 56
-0.438124 0.040085 0.746000 66 97 53
-0.436189 0.040085 0.746000 63 94 50
-0.434253 0.040085 0.746000 64 88 45
-0.432318 0.040085 0.746000 65 89 46
-0.430383 0.040085 0.746000 84 84 53
0.021034 0.034497 0.642000 38 48 32
0.022700 0.034497 0.642000 63 87 57
0.024365 0.034497 0.642000 59 83 53
0.026031 0.034497 0.642000 58 82 52
-0.438712 0.042079 0.747000 64 97 51
-0.436774 0.042079 0.747000 61 94 48
-0.434835 0.042079 0.747000 65 86 44
-0.432897 0.042079 0.747000 69 90 48
0.021034 0.036164 0.642000 32 42 30
0.022664 0.036108 0.641000 63 85 56
0.024327 0.036108 0.641000 62 84 55
0.025990 0.036108 0.641000 55 79 47
-0.438712 0.044020 0.747000 66 97 51
-0.436774 0.044020 0.747000 60 91 45
-0.434835 0.044020 0.747000 67 86 46
-0.432897 0.044020 0.747000 69 88 48
0.021034 0.037832 0.642000 29 41 31
0.022664 0.037773 0.641000 55 77 50
0.024327 0.037773 0.641000 62 84 57
0.025950 0.037714 0.640000 57 79 48
-0.441239 0.046022 0.748000 70 95 58
-0.439299 0.046022 0.748000 64 95 51
-0.437358 0.046022 0.748000 59 90 46
-0.435418 0.046022 0.748000 65 82 43
-0.432897 0.045960 0.747000 69 86 47
0.021001 0.039438 0.641000 29 41 31
0.022629 0.039377 0.640000 48 67 41
0.024289 0.039377 0.640000 69 88 62
0.025909 0.039315 0.639000 57 80 46
0.027567 0.039315 0.639000 61 84 50
-0.441239 0.047965 0.748000 67 96 55
-0.439299 0.047965 0.748000 64 95 49
-0.437358 0.047965 0.748000 59 90 44
-0.435418 0.047965 0.748000 54 71 34
0.022629 0.041039 0.640000 40 57 31
0.024289 0.041039 0.640000 71 88 62
0.025909 0.040975 0.639000 57 80 44
0.027524 0.040911 0.638000 55 78 42
-0.441829 0.049975 0.749000 64 95 53
-0.439886 0.049975 0.749000 63 94 48
-0.437943 0.049975 0.749000 55 86 40
-0.436000 0.049975 0.749000 45 58 27
0.022593 0.042635 0.639000 29 46 20
0.024251 0.042635 0.639000 68 85 59
0.025869 0.042569 0.638000 57 80 44
0.027481 0.042502 0.637000 55 78 42
0.029088 0.042435 0.636000 54 76 49
-0.441829 0.051921 0.749000 66 94 56
-0.440473 0.051990 0.750000 59 88 43
-0.437943 0.051921 0.749000 49 78 33
-0.436000 0.051921 0.749000 40 52 24
0.022558 0.044226 0.638000 29 45 22
0.024213 0.044226 0.638000 67 83 60
0.025828 0.044157 0.637000 60 83 49
0.027351 0.043949 0.634000 56 79 45
-0.448854 0.054010 0.751000 41 63 36
-0.446906 0.054010 0.751000 81 103 76
-0.444957 0.054010 0.751000 67 98 56
-0.442419 0.053938 0.750000 65 96 54
-0.440473 0.053938 0.750000 58 87 44
-0.438528 0.053938 0.750000 44 73 30
-0.436582 0.053938 0.750000 33 48 21
0.022523 0.045812 0.637000 28 43 25
0.024175 0.045812 0.637000 64 79 61
0.025787 0.045740 0.636000 62 84 53
0.027351 0.045596 0.634000 56 78 47
-0.448854 0.055961 0.751000 50 72 43
-0.447501 0.056036 0.752000 78 100 71
-0.444957 0.055961 0.751000 68 99 55
-0.442419 0.055887 0.750000 64 95 51
-0.441061 0.055961 0.751000 58 87 44
-0.439112 0.055961 0.751000 44 73 30
-0.436582 0.055887 0.750000 27 39 15
0.024062 0.047243 0.634000 56 71 53
0.025706 0.047243 0.634000 61 83 54
0.027308 0.047168 0.633000 57 79 50
-0.448854 0.057912 0.751000 50 72 41
-0.447501 0.057989 0.752000 71 93 62
-0.445550 0.057989 0.752000 67 98 54
-0.443599 0.057989 0.752000 63 94 50
-0.441648 0.057989 0.752000 59 88 47
-0.439697 0.057989 0.752000 39 68 27
0.024024 0.048813 0.633000 45 62 48
0.025666 0.048813 0.633000 60 84 54
0.027265 0.048736 0.632000 58 82 52
-0.448854 0.059863 0.751000 64 87 53
-0.447501 0.059943 0.752000 74 97 63
-0.445550 0.059943 0.752000 64 97 51
-0.443599 0.059943 0.752000 57 90 44
-0.441648 0.059943 0.752000 60 89 48
-0.439697 0.059943 0.752000 33 62 21
0.024024 0.050457 0.633000 33 53 38
0.025625 0.050377 0.632000 57 84 53
0.027265 0.050377 0.632000 56 83 52
-0.448257 0.061732 0.750000 69 92 58
-0.446906 0.061814 0.751000 72 95 61
-0.444957 0.061814 0.751000 65 96 50
-0.443009 0.061814 0.751000 58 89 43
-0.441648 0.061896 0.752000 60 88 50
-0.439697 0.061896 0.752000 25 53 15
0.023986 0.052019 0.632000 29 46 32
0.025585 0.051937 0.631000 64 88 58
0.027222 0.051937 0.631000 56 80 50
-0.447659 0.063595 0.749000 76 100 61
-0.445716 0.063595 0.749000 72 96 57
-0.444365 0.063680 0.750000 64 93 48
-0.442419 0.063680 0.750000 60 89 44
-0.440473 0.063680 0.750000 56 78 47
-0.438528 0.063680 0.750000 28 50 19
0.023948 0.053576 0.631000 29 44 28
0.025585 0.053576 0.631000 64 88 56
0.027179 0.053491 0.630000 58 82 50
0.028813 0.053491 0.630000 55 80 45
-0.447061 0.065453 0.748000 77 101 62
-0.445121 0.065453 0.748000 72 96 57
-0.443180 0.065453 0.748000 65 94 49
-0.441829 0.065541 0.749000 61 90 45
-0.439886 0.065541 0.749000 60 82 53
-0.438528 0.065628 0.750000 48 70 41
0.023910 0.055128 0.630000 29 42 27
0.025504 0.055040 0.629000 62 84 53
0.027136 0.055040 0.629000 60 82 51
0.028767 0.055040 0.629000 56 81 46
-0.447801 0.067216 0.746000 90 99 79
-0.446464 0.067307 0.747000 76 99 63
-0.444526 0.067307 0.747000 74 97 61
-0.442588 0.067307 0.747000 66 97 53
-0.441239 0.067397 0.748000 61 92 48
-0.439299 0.067397 0.748000 71 89 66
0.023834 0.056584 0.628000 27 40 25
0.025463 0.056584 0.628000 62 82 49
0.027049 0.056494 0.627000 61 81 48
0.028722 0.056584 0.628000 56 81 44
-0.447801 0.069154 0.746000 103 113 90
-0.445866 0.069154 0.746000 73 98 63
-0.443931 0.069154 0.746000 71 96 61
-0.441995 0.069154 0.746000 65 95 58
-0.440060 0.069154 0.746000 59 89 52
-0.438712 0.069247 0.747000 106 122 101
0.023758 0.058030 0.626000 31 44 29
0.025382 0.058030 0.626000 59 79 46
0.026963 0.057938 0.625000 62 82 49
0.028584 0.057938 0.625000 54 82 44
-0.447801 0.071092 0.746000 110 117 93
-0.445866 0.071092 0.746000 69 92 56
-0.443931 0.071092 0.746000 72 95 59
-0.441995 0.071092 0.746000 66 94 58
-0.440060 0.071092 0.746000 60 88 52
-0.438124 0.071092 0.746000 114 128 108
0.023682 0.059466 0.624000 32 45 32
0.025301 0.059466 0.624000 56 78 47
0.026920 0.059466 0.624000 59 81 50
0.028539 0.059466 0.624000 54 82 46
-0.447201 0.072932 0.745000 105 112 88
-0.445866 0.073030 0.746000 69 94 57
-0.443335 0.072932 0.745000 70 95 58
-0.441995 0.073030 0.746000 65 93 57
-0.439470 0.072932 0.745000 61 89 53
-0.438124 0.073030 0.746000 113 124 103
0.023644 0.060989 0.623000 32 45 32
0.025260 0.060989 0.623000 52 74 47
0.026877 0.060989 0.623000 60 82 55
0.028493 0.060989 0.623000 54 82 46
-0.447201 0.074868 0.745000 97 101 78
-0.445268 0.074868 0.745000 75 98 62
-0.442740 0.074767 0.744000 72 95 59
-0.441403 0.074868 0.745000 65 93 57
-0.438880 0.074767 0.744000 56 84 48
-0.436950 0.074767 0.744000 118 130 106
0.025220 0.062507 0.622000 45 68 43
0.026834 0.062507 0.622000 60 83 58
0.028447 0.062507 0.622000 54 82 46
0.030061 0.062507 0.622000 53 81 45
-0.447201 0.076803 0.745000 97 101 76
-0.444671 0.076700 0.744000 77 100 64
-0.442740 0.076700 0.744000 70 93 57
-0.440218 0.076597 0.743000 66 91 56
-0.438290 0.076597 0.743000 58 83 48
-0.436362 0.076597 0.743000 132 142 119
0.025179 0.064020 0.621000 41 64 39
0.026790 0.064020 0.621000 64 87 62
0.028402 0.064020 0.621000 54 82 46
0.030013 0.064020 0.621000 53 81 45
-0.446601 0.078633 0.744000 95 100 72
-0.444073 0.078527 0.743000 74 98 59
-0.442145 0.078527 0.743000 70 94 55
-0.440218 0.078527 0.743000 65 88 52
-0.438290 0.078527 0.743000 62 85 49
-0.436362 0.078527 0.743000 141 148 126
0.025179 0.065633 0.621000 42 65 40
0.026790 0.065633 0.621000 62 85 60
0.028402 0.065633 0.621000 57 85 49
0.030013 0.065633 0.621000 52 80 44
-0.447201 0.080674 0.745000 92 100 69
-0.444671 0.080566 0.744000 71 95 54
-0.442740 0.080566 0.744000 69 93 52
-0.440810 0.080566 0.744000 65 88 52
-0.438880 0.080566 0.744000 62 85 49
-0.436950 0.080566 0.744000 138 145 123
0.025179 0.067246 0.621000 40 61 37
0.026790 0.067246 0.621000 62 83 59
0.028402 0.067246 0.621000 56 86 49
0.030013 0.067246 0.621000 51 81 44
-0.447201 0.082609 0.745000 87 99 64
-0.444671 0.082498 0.744000 74 100 58
-0.443335 0.082609 0.745000 70 96 54
-0.441403 0.082609 0.745000 67 91 52
-0.438880 0.082498 0.744000 64 88 49
-0.436950 0.082498 0.744000 137 144 122
0.025179 0.068860 0.621000 41 62 38
0.026790 0.068860 0.621000 62 83 59
0.028402 0.068860 0.621000 56 83 50
0.030013 0.068860 0.621000 52 79 46
-0.447201 0.084545 0.745000 85 98 65
-0.445268 0.084545 0.745000 76 102 62
-0.443335 0.084545 0.745000 71 97 57
-0.441403 0.084545 0.745000 67 90 54
-0.439470 0.084545 0.745000 70 93 57
-0.436950 0.084431 0.744000 140 146 127
0.025179 0.070473 0.621000 42 60 39
0.026790 0.070473 0.621000 65 83 62
0.028356 0.070359 0.620000 56 81 46
0.029964 0.070359 0.620000 55 80 45
-0.447801 0.086596 0.746000 82 95 64
-0.445866 0.086596 0.746000 77 102 65
-0.443931 0.086596 0.746000 70 95 58
-0.441995 0.086596 0.746000 62 85 51
-0.440060 0.086596 0.746000 72 95 61
0.025139 0.071970 0.620000 41 59 38
0.026747 0.071970 0.620000 64 82 61
0.028356 0.071970 0.620000 58 83 48
0.029964 0.071970 0.620000 55 80 45
-0.449737 0.088534 0.746000 121 134 103
-0.447801 0.088534 0.746000 84 97 66
-0.445866 0.088534 0.746000 77 102 65
-0.443931 0.088534 0.746000 70 95 58
-0.441995 0.088534 0.746000 62 87 52
-0.440060 0.088534 0.746000 73 98 63
0.025139 0.073581 0.620000 41 59 36
0.026747 0.073581 0.620000 66 84 61
0.028310 0.073462 0.619000 56 81 46
0.029916 0.073462 0.619000 54 79 44
-0.449737 0.090472 0.746000 125 138 105
-0.447801 0.090472 0.746000 84 97 64
-0.445866 0.090472 0.746000 75 101 61
-0.443931 0.090472 0.746000 69 95 55
-0.441995 0.090472 0.746000 60 85 50
-0.440060 0.090472 0.746000 76 101 66
0.025098 0.075070 0.619000 42 63 39
0.026704 0.075070 0.619000 64 85 61
0.028264 0.074949 0.618000 58 83 48
0.029819 0.074827 0.617000 55 80 45
-0.449737 0.092410 0.746000 121 134 101
-0.447801 0.092410 0.746000 85 98 65
-0.445866 0.092410 0.746000 74 100 60
-0.443931 0.092410 0.746000 67 93 53
-0.441995 0.092410 0.746000 60 84 52
-0.440060 0.092410 0.746000 81 105 73
0.025017 0.076430 0.617000 45 66 42
0.026575 0.076306 0.616000 61 82 58
0.028173 0.076306 0.616000 58 83 48
-0.449737 0.094348 0.746000 113 125 90
-0.447801 0.094348 0.746000 89 101 66
-0.445866 0.094348 0.746000 77 103 63
-0.443931 0.094348 0.746000 71 97 57
-0.441995 0.094348 0.746000 60 85 50
-0.440060 0.094348 0.746000 75 100 65
0.024977 0.077907 0.616000 46 67 43
0.026532 0.077780 0.615000 59 80 56
0.028081 0.077654 0.614000 56 84 48
-0.449737 0.096286 0.746000 114 126 91
-0.447801 0.096286 0.746000 92 104 69
-0.445866 0.096286 0.746000 78 104 64
-0.443931 0.096286 0.746000 71 97 57
-0.441995 0.096286 0.746000 68 93 58
-0.440060 0.096286 0.746000 73 98 63
0.024814 0.078991 0.612000 46 67 43
0.026402 0.078991 0.612000 55 76 52
0.027990 0.078991 0.612000 56 83 50
0.029578 0.078991 0.612000 52 79 46
-0.449737 0.098224 0.746000 113 127 91
-0.447801 0.098224 0.746000 91 105 69
-0.445866 0.098224 0.746000 80 106 64
-0.443931 0.098224 0.746000 70 96 54
-0.441995 0.098224 0.746000 62 85 51
-0.440060 0.098224 0.746000 77 100 66
0.024814 0.080581 0.612000 50 71 47
0.026402 0.080581 0.612000 55 76 52
0.027944 0.080449 0.611000 54 81 48
-0.449737 0.100162 0.746000 110 124 88
-0.447801 0.100162 0.746000 89 103 67
-0.445866 0.100162 0.746000 78 104 62
-0.443931 0.100162 0.746000 70 96 54
-0.441995 0.100162 0.746000 67 89 58
-0.440060 0.100162 0.746000 77 99 68
-0.449737 0.102100 0.746000 108 125 88
-0.447801 0.102100 0.746000 84 101 64
-0.445866 0.102100 0.746000 77 103 61
-0.443931 0.102100 0.746000 69 95 53
-0.441995 0.102100 0.746000 65 87 56
-0.440060 0.102100 0.746000 76 98 67
-0.438124 0.102100 0.746000 147 149 136
-0.449737 0.104038 0.746000 114 130 96
-0.447801 0.104038 0.746000 81 97 63
-0.445866 0.104038 0.746000 75 101 61
-0.443931 0.104038 0.746000 70 96 56
-0.441995 0.104038 0.746000 59 82 48
-0.440060 0.104038 0.746000 77 100 66
-0.438124 0.104038 0.746000 148 153 139
-0.449737 0.105976 0.746000 123 139 107
-0.447801 0.105976 0.746000 82 98 66
-0.445866 0.105976 0.746000 77 103 63
-0.443931 0.105976 0.746000 68 94 54
-0.441995 0.105976 0.746000 60 82 51
-0.440650 0.106118 0.747000 76 98 67
-0.438124 0.105976 0.746000 146 154 139
-0.449737 0.107914 0.746000 117 129 101
-0.447801 0.107914 0.746000 85 97 69
-0.445866 0.107914 0.746000 77 102 65
-0.443931 0.107914 0.746000 69 94 57
-0.442588 0.108059 0.747000 68 90 61
-0.440060 0.107914 0.746000 70 92 63
-0.438712 0.108059 0.747000 147 152 138
-0.448402 0.109999 0.747000 95 107 79
-0.446464 0.109999 0.747000 78 103 68
-0.444526 0.109999 0.747000 69 94 59
-0.442588 0.109999 0.747000 68 90 61
-0.440650 0.109999 0.747000 65 87 58
-0.439299 0.110146 0.748000 137 142 128
-0.448402 0.111940 0.747000 91 103 75
-0.446464 0.111940 0.747000 78 103 68
-0.444526 0.111940 0.747000 70 95 60
-0.443180 0.112090 0.748000 67 89 60
-0.440650 0.111940 0.747000 65 87 58
-0.439299 0.112090 0.748000 131 136 122
-0.447061 0.114033 0.748000 77 102 65
-0.445121 0.114033 0.748000 70 95 58
-0.443180 0.114033 0.748000 67 89 58
-0.441239 0.114033 0.748000 68 90 59
-0.439886 0.114185 0.749000 136 141 127
-0.447061 0.115976 0.748000 78 103 66
-0.445121 0.115976 0.748000 70 95 58
-0.443773 0.116131 0.749000 67 90 56
-0.441829 0.116131 0.749000 61 84 50
-0.439886 0.116131 0.749000 136 138 125
-0.449602 0.118077 0.749000 90 102 74
-0.447659 0.118077 0.749000 81 107 67
-0.445716 0.118077 0.749000 70 96 56
-0.444365 0.118234 0.750000 67 92 57
-0.441829 0.118077 0.749000 59 84 49
-0.441061 0.118392 0.751000 129 134 120
-0.450202 0.120183 0.750000 90 102 74
-0.448257 0.120183 0.750000 82 108 68
-0.446311 0.120183 0.750000 73 99 59
-0.444365 0.120183 0.750000 67 91 59
-0.442419 0.120183 0.750000 59 83 51
-0.441648 0.120503 0.752000 124 129 117
-0.450202 0.122131 0.750000 97 110 79
-0.448257 0.122131 0.750000 80 106 66
-0.446906 0.122294 0.751000 73 99 59
-0.445550 0.122457 0.752000 64 91 58
-0.443009 0.122294 0.751000 53 80 47
-0.442235 0.122620 0.753000 127 135 122
-0.451403 0.124410 0.752000 92 103 73
-0.449452 0.124410 0.752000 83 109 67
-0.447501 0.124410 0.752000 74 100 58
-0.445550 0.124410 0.752000 64 91 58
-0.444189 0.124576 0.753000 53 80 47
-0.443410 0.124907 0.755000 119 129 113
0.021215 0.099264 0.600000 48 71 46
0.022771 0.099264 0.600000 60 83 58
0.024328 0.099264 0.600000 58 85 52
0.025884 0.099264 0.600000 58 85 52
-0.451403 0.126364 0.752000 99 107 78
-0.449452 0.126364 0.752000 82 106 65
-0.448096 0.126532 0.753000 72 96 55
-0.446142 0.126532 0.753000 64 92 54
-0.445369 0.126868 0.755000 53 81 43
-0.443410 0.126868 0.755000 116 130 110
0.019625 0.100654 0.599000 28 43 29
0.021179 0.100654 0.599000 54 77 52
0.022733 0.100654 0.599000 61 84 59
0.024287 0.100654 0.599000 56 83 52
-0.451403 0.128317 0.752000 102 110 81
-0.450050 0.128488 0.753000 79 100 60
-0.448691 0.128659 0.754000 72 93 53
-0.447327 0.128829 0.755000 66 92 52
-0.445369 0.128829 0.755000 54 80 40
-0.443997 0.129000 0.756000 116 127 106
0.019625 0.102210 0.599000 30 45 31
0.021179 0.102210 0.599000 60 84 56
0.022733 0.102210 0.599000 59 83 55
0.024287 0.102210 0.599000 56 83 52
-0.452603 0.130618 0.754000 105 110 82
-0.451245 0.130791 0.755000 86 107 67
-0.449286 0.130791 0.755000 79 100 60
-0.447920 0.130964 0.756000 67 93 53
-0.446548 0.131137 0.757000 56 82 42
-0.445172 0.131310 0.758000 106 117 98
0.019592 0.103593 0.598000 36 51 35
0.021144 0.103593 0.598000 61 85 55
0.022695 0.103593 0.598000 59 83 53
0.024247 0.103593 0.598000 56 83 52
-0.453204 0.132752 0.755000 104 107 82
-0.451843 0.132928 0.756000 90 111 73
-0.449881 0.132928 0.756000 79 100 62
-0.449105 0.133280 0.758000 65 93 55
-0.447138 0.133280 0.758000 56 84 46
-0.445759 0.133455 0.759000 97 106 86
0.019592 0.105147 0.598000 37 54 36
0.021108 0.104971 0.597000 65 87 56
0.022657 0.104971 0.597000 62 84 53
0.024206 0.104971 0.597000 60 82 53
-0.454404 0.135070 0.757000 115 118 93
-0.453038 0.135249 0.758000 91 112 74
-0.451071 0.135249 0.758000 81 102 64
-0.449697 0.135427 0.759000 66 94 56
-0.448318 0.135606 0.760000 56 84 46
-0.446346 0.135606 0.760000 85 96 75
0.018011 0.106522 0.597000 28 45 27
0.019560 0.106522 0.597000 58 75 57
0.021108 0.106522 0.597000 61 85 53
0.022657 0.106522 0.597000 60 84 52
0.024206 0.106522 0.597000 63 85 56
-0.455005 0.137218 0.758000 115 119 94
-0.453636 0.137399 0.759000 90 111 73
-0.451667 0.137399 0.759000 86 107 69
-0.450290 0.137580 0.760000 68 97 56
-0.448908 0.137761 0.761000 60 89 48
-0.446934 0.137761 0.761000 71 82 61
0.018011 0.108073 0.597000 31 51 32
0.019560 0.108073 0.597000 64 84 65
0.021073 0.107892 0.596000 59 83 51
0.022619 0.107892 0.596000 60 84 52
0.024166 0.107892 0.596000 67 89 60
-0.456205 0.139554 0.760000 116 120 95
-0.454233 0.139554 0.760000 90 111 73
-0.452857 0.139738 0.761000 86 107 69
-0.450882 0.139738 0.761000 68 97 56
-0.448908 0.139738 0.761000 62 91 50
-0.447521 0.139922 0.762000 66 81 56
-0.445544 0.139922 0.762000 111 126 101
0.018011 0.109624 0.597000 39 59 40
0.019560 0.109624 0.597000 62 82 63
0.021073 0.109440 0.596000 56 83 50
0.022581 0.109256 0.595000 61 88 55
0.024125 0.109256 0.595000 63 85 58
-0.454831 0.141715 0.761000 90 111 73
-0.452857 0.141715 0.761000 86 107 69
-0.450882 0.141715 0.761000 75 104 63
-0.449498 0.141901 0.762000 64 93 52
-0.447521 0.141901 0.762000 64 79 54
-0.446129 0.142087 0.763000 105 120 95
0.018011 0.111174 0.597000 47 70 47
0.019527 0.110988 0.596000 63 86 63
0.021038 0.110802 0.595000 59 86 53
0.022581 0.110802 0.595000 60 87 54
0.024125 0.110802 0.595000 48 70 43
-0.455429 0.143881 0.762000 97 114 77
-0.453452 0.143881 0.762000 91 108 71
-0.451475 0.143881 0.762000 74 100 60
-0.449498 0.143881 0.762000 60 86 46
-0.448108 0.144069 0.763000 59 76 48
-0.446129 0.144069 0.763000 104 121 93
0.016462 0.112725 0.597000 25 39 28
0.017981 0.112537 0.596000 55 79 51
0.019527 0.112537 0.596000 63 87 59
0.021002 0.112159 0.594000 59 87 51
-0.455429 0.145860 0.762000 98 112 76
-0.453452 0.145860 0.762000 96 110 74
-0.451475 0.145860 0.762000 80 106 66
-0.450088 0.146052 0.763000 66 92 52
-0.448108 0.146052 0.763000 56 75 47
-0.446713 0.146243 0.764000 88 107 79
0.016462 0.114276 0.597000 37 51 40
0.017981 0.114085 0.596000 64 88 58
0.019527 0.114085 0.596000 61 85 55
0.021002 0.113702 0.594000 58 86 50
-0.455429 0.147840 0.762000 100 111 79
-0.453452 0.147840 0.762000 98 109 77
-0.452067 0.148034 0.763000 74 100 60
-0.450088 0.148034 0.763000 67 93 53
-0.448696 0.148228 0.764000 62 84 53
-0.447298 0.148422 0.765000 81 103 72
0.016434 0.115633 0.596000 51 68 52
0.017950 0.115439 0.595000 59 86 53
0.019494 0.115439 0.595000 57 84 51
-0.455429 0.149819 0.762000 103 114 84
-0.453452 0.149819 0.762000 99 110 80
-0.452067 0.150016 0.763000 78 103 66
-0.450088 0.150016 0.763000 69 94 57
-0.448696 0.150212 0.764000 60 83 49
-0.447298 0.150409 0.765000 72 95 61
-0.445313 0.150409 0.765000 119 123 102
0.014838 0.116788 0.594000 22 42 25
0.016379 0.116788 0.594000 64 84 67
0.017920 0.116788 0.594000 59 87 51
0.019429 0.116592 0.593000 57 85 49
-0.455429 0.151799 0.762000 106 116 89
-0.453452 0.151799 0.762000 97 107 80
-0.452067 0.151998 0.763000 83 108 71
-0.450088 0.151998 0.763000 70 95 58
-0.448696 0.152197 0.764000 62 85 51
-0.447298 0.152396 0.765000 63 86 52
-0.445313 0.152396 0.765000 113 120 98
0.014788 0.117933 0.592000 26 47 23
0.016324 0.117933 0.592000 67 88 64
-0.453452 0.153778 0.762000 98 109 79
-0.452067 0.153980 0.763000 84 109 72
-0.450088 0.153980 0.763000 74 99 62
-0.448696 0.154182 0.764000 64 89 52
-0.446713 0.154182 0.764000 60 85 48
-0.445313 0.154384 0.765000 108 115 91
-0.453452 0.155758 0.762000 99 110 80
-0.452067 0.155962 0.763000 83 112 71
-0.450088 0.155962 0.763000 74 103 62
-0.448696 0.156167 0.764000 64 89 52
-0.446713 0.156167 0.764000 59 84 47
-0.445313 0.156371 0.765000 99 106 82
-0.453452 0.157737 0.762000 103 110 84
-0.452067 0.157944 0.763000 83 112 71
-0.450088 0.157944 0.763000 78 107 66
-0.448696 0.158151 0.764000 68 94 54
-0.446713 0.158151 0.764000 56 82 42
-0.445313 0.158358 0.765000 89 99 74
-0.454047 0.159927 0.763000 105 112 86
-0.452067 0.159927 0.763000 87 112 75
-0.450088 0.159927 0.763000 77 102 65
-0.448696 0.160136 0.764000 68 97 56
-0.447298 0.160346 0.765000 58 87 46
-0.445313 0.160346 0.765000 71 83 57
-0.443908 0.160555 0.766000 116 128 102
-0.454047 0.161909 0.763000 105 112 86
-0.452067 0.161909 0.763000 89 115 75
-0.450088 0.161909 0.763000 82 108 68
-0.448696 0.162121 0.764000 67 96 55
-0.446713 0.162121 0.764000 61 90 49
-0.445896 0.162545 0.766000 62 77 50
-0.443908 0.162545 0.766000 103 118 91
-0.452067 0.163891 0.763000 89 113 74
-0.450678 0.164106 0.764000 84 108 69
-0.448696 0.164106 0.764000 68 99 57
-0.447298 0.164320 0.765000 60 91 49
-0.445896 0.164535 0.766000 59 76 48
-0.444488 0.164750 0.767000 93 110 82
0.019909 0.171194 0.797000 63 87 59
0.021977 0.171194 0.797000 61 85 57
0.024014 0.170979 0.796000 67 82 55
-0.452067 0.165873 0.763000 94 112 79
-0.450678 0.166090 0.764000 89 107 74
-0.448696 0.166090 0.764000 72 102 63
-0.447298 0.166308 0.765000 61 91 52
-0.445896 0.166525 0.766000 63 82 56
-0.445067 0.166960 0.768000 81 100 74
0.015813 0.173699 0.799000 76 93 67
0.017864 0.173482 0.798000 68 85 59
0.019909 0.173264 0.797000 66 90 62
0.021977 0.173264 0.797000 59 83 55
0.024044 0.173264 0.797000 90 102 76
-0.452660 0.168075 0.764000 100 117 87
-0.450678 0.168075 0.764000 88 105 75
-0.449283 0.168295 0.765000 73 103 66
-0.447883 0.168515 0.766000 66 96 59
-0.445896 0.168515 0.766000 61 83 56
-0.445647 0.169175 0.769000 69 91 64
-0.443652 0.169175 0.769000 121 124 106
0.013775 0.176215 0.801000 125 128 110
0.015813 0.175775 0.799000 61 78 50
0.017864 0.175555 0.798000 71 88 60
0.019934 0.175555 0.798000 67 89 60
0.021977 0.175335 0.797000 57 79 50
0.024044 0.175335 0.797000 119 126 102
-0.452660 0.170060 0.764000 102 117 88
-0.450678 0.170060 0.764000 97 112 83
-0.449283 0.170282 0.765000 81 111 74
-0.447883 0.170505 0.766000 64 94 57
-0.446478 0.170728 0.767000 64 88 58
-0.445647 0.171173 0.769000 59 83 53
-0.443652 0.171173 0.769000 114 120 101
0.013775 0.178296 0.801000 88 94 75
0.015853 0.178296 0.801000 63 82 54
0.017864 0.177628 0.798000 69 88 60
0.019934 0.177628 0.798000 67 89 58
0.021977 0.177405 0.797000 69 91 60
0.024075 0.177628 0.798000 135 139 114
-0.451268 0.172270 0.765000 102 115 84
-0.449283 0.172270 0.765000 92 120 82
-0.447883 0.172495 0.766000 73 101 63
-0.446478 0.172720 0.767000 67 91 59
-0.445647 0.173171 0.769000 55 79 47
0.013792 0.180602 0.802000 72 81 61
0.015813 0.179926 0.799000 65 87 58
0.017886 0.179926 0.799000 68 90 61
0.019934 0.179701 0.798000 63 82 52
0.022004 0.179701 0.798000 93 112 82
-0.451268 0.174257 0.765000 107 114 88
-0.449283 0.174257 0.765000 90 118 80
-0.447883 0.174485 0.766000 80 108 70
-0.447060 0.174940 0.768000 67 92 57
-0.445647 0.175168 0.769000 56 81 46
-0.444229 0.175396 0.770000 85 96 75
0.011711 0.182685 0.802000 96 107 86
0.013775 0.182457 0.801000 63 74 53
0.015813 0.182002 0.799000 66 90 60
0.017864 0.181774 0.798000 64 88 58
0.019934 0.181774 0.798000 68 86 53
0.021977 0.181546 0.797000 116 134 101
-0.451268 0.176244 0.765000 110 114 91
-0.449870 0.176475 0.766000 90 118 80
-0.447883 0.176475 0.766000 85 113 75
-0.446478 0.176705 0.767000 67 95 59
-0.445647 0.177166 0.769000 58 86 50
-0.444229 0.177396 0.770000 70 85 60
0.011696 0.184538 0.801000 72 87 62
0.013740 0.184078 0.799000 68 83 58
0.015813 0.184078 0.799000 67 91 59
0.017864 0.183847 0.798000 61 85 53
0.019934 0.183847 0.798000 89 102 71
0.021977 0.183617 0.797000 126 139 108
-0.445896 0.178465 0.766000 71 99 61
-0.445067 0.178931 0.768000 59 87 49
-0.444229 0.179397 0.770000 61 78 50
0.009582 0.185920 0.798000 110 113 95
0.011653 0.185920 0.798000 65 82 56
0.013723 0.185920 0.798000 72 89 63
0.015793 0.185920 0.798000 64 89 54
0.017841 0.185687 0.797000 60 85 50
0.019909 0.185687 0.797000 119 130 100
0.009558 0.187522 0.796000 90 94 73
0.011638 0.187758 0.797000 63 85 56
0.013706 0.187758 0.797000 69 91 62
0.015774 0.187758 0.797000 62 84 53
0.017841 0.187758 0.797000 69 91 60
0.019909 0.187758 0.797000 128 136 107
0.007474 0.189114 0.794000 97 107 84
0.009546 0.189352 0.795000 72 82 59
0.011609 0.189352 0.795000 64 88 58
0.013689 0.189590 0.796000 67 91 61
0.015754 0.189590 0.796000 64 83 53
0.017819 0.189590 0.796000 94 113 83
-0.295860 0.121833 0.506000 100 118 83
0.007465 0.190936 0.793000 83 95 71
0.009534 0.191176 0.794000 76 88 64
0.011594 0.191176 0.794000 68 90 61
0.013654 0.191176 0.794000 68 90 61
0.015714 0.191176 0.794000 78 90 64
0.017797 0.191417 0.795000 116 128 102
-0.295860 0.123147 0.506000 106 117 87
-0.293965 0.122904 0.505000 96 122 82
0.005380 0.192022 0.789000 108 110 92
0.007437 0.192265 0.790000 71 88 62
0.009498 0.192509 0.791000 74 91 65
0.011550 0.192509 0.791000 70 92 65
0.013620 0.192752 0.792000 65 87 60
0.015694 0.192996 0.793000 103 110 88
-0.295275 0.124216 0.505000 110 117 93
-0.293965 0.124216 0.505000 98 123 86
-0.292655 0.124216 0.505000 87 112 75
0.005367 0.193580 0.787000 89 92 74
0.007408 0.193580 0.787000 71 89 66
0.009462 0.193826 0.788000 72 90 67
0.011521 0.194072 0.789000 70 92 65
0.013568 0.194072 0.789000 74 96 69
0.015635 0.194318 0.790000 114 118 97
-0.293383 0.125279 0.504000 99 121 90
-0.292655 0.125528 0.505000 97 119 88
0.003304 0.194381 0.782000 98 107 87
0.005333 0.194381 0.782000 76 85 65
0.007361 0.194381 0.782000 70 91 67
0.009402 0.194630 0.783000 71 92 68
0.011448 0.194879 0.784000 72 90 67
0.013499 0.195127 0.785000 90 108 85
-0.293965 0.126840 0.505000 104 123 95
-0.292075 0.126588 0.504000 101 120 92
-0.290768 0.126588 0.504000 72 103 69
0.005312 0.195659 0.779000 74 88 66
0.007333 0.195659 0.779000 69 92 67
0.011390 0.195911 0.780000 79 93 71
0.013413 0.195911 0.780000 105 119 97
-0.293383 0.127898 0.504000 107 126 96
-0.292075 0.127898 0.504000 99 118 88
-0.290768 0.127898 0.504000 77 108 74
0.005298 0.197176 0.777000 70 89 63
0.007314 0.197176 0.777000 69 93 65
0.009342 0.197429 0.778000 69 93 65
0.011361 0.197429 0.778000 93 103 78
-0.292075 0.129207 0.504000 103 118 89
-0.290768 0.129207 0.504000 85 117 80
0.007296 0.198681 0.775000 69 91 62
0.009318 0.198938 0.776000 70 92 63
0.011346 0.199194 0.777000 108 112 89
-0.292075 0.130516 0.504000 109 121 95
-0.290768 0.130516 0.504000 96 124 86
-0.289460 0.130516 0.504000 78 106 68
0.003257 0.199659 0.771000 70 94 62
0.005251 0.199400 0.770000 69 93 61
0.007267 0.199918 0.772000 74 91 63
0.009270 0.199918 0.772000 88 105 77
-0.292075 0.131826 0.504000 119 126 104
-0.290768 0.131826 0.504000 98 123 88
-0.289460 0.131826 0.504000 87 112 77
0.001247 0.200092 0.765000 69 86 56
0.003236 0.200354 0.766000 69 97 61
0.005230 0.200616 0.767000 68 96 60
0.007230 0.200877 0.768000 86 98 70
0.009234 0.201139 0.769000 107 119 91
0.001246 0.201816 0.764000 69 91 62
0.003232 0.202080 0.765000 69 93 61
0.005217 0.202080 0.765000 73 97 65
0.007211 0.202344 0.766000 99 109 84
0.001242 0.203267 0.762000 68 95 64
0.003223 0.203534 0.763000 70 92 63
0.005203 0.203534 0.763000 81 103 74
0.007183 0.203534 0.763000 107 114 92
-0.000730 0.203900 0.757000 68 95 64
0.001239 0.204708 0.760000 69 96 65
0.003215 0.204977 0.761000 82 99 71
0.005189 0.204977 0.761000 101 118 90
-0.004602 0.203419 0.748000 69 91 64
-0.002669 0.203963 0.750000 71 93 66
0.001229 0.205050 0.754000 68 95 64
0.003194 0.205594 0.756000 93 105 79
0.005176 0.206410 0.759000 110 122 96
-0.287009 0.137823 0.502000 102 128 88
-0.000722 0.205636 0.749000 69 93 63
-0.286437 0.138850 0.501000 105 129 90
-0.285138 0.138850 0.501000 102 126 87
-0.002651 0.206474 0.745000 68 95 64
-0.000719 0.206751 0.746000 77 96 68
-0.283838 0.140152 0.501000 84 117 75
-0.010215 0.205052 0.733000 107 111 88
-0.006447 0.206171 0.737000 73 92 66
-0.004547 0.206730 0.739000 68 97 65
-0.002640 0.207570 0.742000 65 94 62
-0.000717 0.208129 0.744000 93 108 81
0.001216 0.208689 0.746000 109 124 97
-0.284569 0.141171 0.500000 111 124 93
-0.283271 0.141171 0.500000 93 124 82
-0.281974 0.141171 0.500000 88 119 77
-0.010201 0.206674 0.732000 75 82 58
-0.008313 0.206956 0.733000 69 93 63
-0.006420 0.207239 0.734000 70 94 64
-0.004516 0.207239 0.734000 73 97 69
-0.002623 0.208086 0.737000 75 99 71
-0.000711 0.208368 0.738000 111 121 96
-0.284569 0.142470 0.500000 120 127 101
-0.283271 0.142470 0.500000 100 129 88
-0.281974 0.142470 0.500000 94 123 82
-0.280677 0.142470 0.500000 73 106 64
-0.012100 0.208576 0.732000 80 97 69
-0.010201 0.208576 0.732000 73 90 62
-0.008302 0.208576 0.732000 69 96 65
-0.006412 0.208860 0.733000 69 96 65
-0.004510 0.208860 0.733000 71 90 62
-0.002608 0.208860 0.733000 94 113 85
-0.284569 0.143769 0.500000 132 135 112
-0.283271 0.143769 0.500000 102 123 85
-0.281974 0.143769 0.500000 102 123 85
-0.280677 0.143769 0.500000 89 122 78
-0.013999 0.210477 0.732000 100 104 83
-0.012100 0.210477 0.732000 68 92 62
-0.010201 0.210477 0.732000 73 97 67
-0.008302 0.210477 0.732000 69 96 65
-0.006412 0.210765 0.733000 66 93 62
-0.004510 0.210765 0.733000 90 102 76
-0.002608 0.210765 0.733000 123 135 109
-0.283271 0.145067 0.500000 115 131 97
-0.281974 0.145067 0.500000 104 120 86
-0.280677 0.145067 0.500000 91 122 78
-0.015877 0.212089 0.731000 113 125 101
-0.013999 0.212379 0.732000 75 87 63
-0.012100 0.212379 0.732000 66 97 67
-0.010201 0.212379 0.732000 65 96 66
-0.008302 0.212379 0.732000 67 91 61
-0.006412 0.212669 0.733000 76 100 70
-0.004510 0.212669 0.733000 135 139 114
-0.281974 0.146366 0.500000 109 117 88
-0.280677 0.146366 0.500000 97 126 85
-0.017773 0.213988 0.731000 122 125 109
-0.015877 0.213988 0.731000 69 88 62
-0.013999 0.214280 0.732000 70 89 63
-0.012100 0.214280 0.732000 68 97 67
-0.010201 0.214280 0.732000 66 95 65
-0.008302 0.214280 0.732000 71 90 62
-0.006412 0.214573 0.733000 113 132 104
-0.281974 0.147665 0.500000 122 126 101
-0.280677 0.147665 0.500000 102 127 90
-0.015877 0.215887 0.731000 68 92 64
-0.013999 0.216182 0.732000 73 97 69
-0.012100 0.216182 0.732000 69 96 65
-0.010201 0.216182 0.732000 66 93 62
-0.008313 0.216477 0.733000 111 121 96
-0.006412 0.216477 0.733000 135 145 120
-0.279554 0.148368 0.498000 109 129 94
-0.278821 0.148666 0.499000 104 124 89
-0.276970 0.148368 0.498000 87 118 74
-0.021507 0.217190 0.729000 139 142 121
-0.019616 0.217190 0.729000 88 104 81
-0.017749 0.217488 0.730000 72 88 65
-0.015877 0.217786 0.731000 73 97 69
-0.013980 0.217786 0.731000 73 97 69
-0.012100 0.218084 0.732000 67 89 58
-0.010201 0.218084 0.732000 88 110 79
-0.008302 0.218084 0.732000 145 149 126
-0.279554 0.149662 0.498000 120 133 100
-0.278262 0.149662 0.498000 112 125 92
-0.276970 0.149662 0.498000 93 124 78
-0.275678 0.149662 0.498000 86 117 71
-0.021507 0.219084 0.729000 107 113 94
-0.019616 0.219084 0.729000 64 85 61
-0.017749 0.219384 0.730000 74 95 71
-0.015877 0.219685 0.731000 74 98 68
-0.013980 0.219685 0.731000 71 95 65
-0.012100 0.219985 0.732000 87 102 73
-0.010201 0.219985 0.732000 137 152 123
-0.278262 0.150956 0.498000 120 129 95
-0.276970 0.150956 0.498000 96 125 80
-0.275125 0.150653 0.497000 89 118 73
-0.023366 0.220674 0.728000 113 129 108
-0.021507 0.220977 0.729000 66 82 61
-0.019616 0.220977 0.729000 67 94 65
-0.017749 0.221281 0.730000 73 100 71
-0.015877 0.221584 0.731000 70 94 62
-0.013980 0.221584 0.731000 71 95 63
-0.012100 0.221887 0.732000 131 138 112
-0.276414 0.151944 0.497000 104 125 83
-0.275125 0.151944 0.497000 100 121 79
-0.273835 0.151944 0.497000 83 116 70
-0.025186 0.221954 0.726000 124 130 113
-0.023334 0.222260 0.727000 66 89 64
-0.021478 0.222565 0.728000 69 92 67
-0.019616 0.222871 0.729000 72 101 71
-0.017725 0.222871 0.729000 71 100 70
-0.015855 0.223177 0.730000 69 86 58
-0.013980 0.223483 0.731000 108 125 97
-0.275125 0.153235 0.497000 102 119 80
-0.273835 0.153235 0.497000 92 123 77
-0.025186 0.223840 0.726000 75 86 67
-0.023334 0.224148 0.727000 68 94 68
-0.021448 0.224148 0.727000 72 98 72
-0.019589 0.224457 0.728000 71 100 68
-0.017725 0.224765 0.729000 65 94 62
-0.015855 0.225073 0.730000 101 111 86
-0.013961 0.225073 0.730000 146 156 131
-0.274571 0.154215 0.496000 120 129 95
-0.273284 0.154215 0.496000 97 124 77
-0.023302 0.225726 0.726000 72 99 70
-0.021448 0.226037 0.727000 74 101 72
-0.019562 0.226037 0.727000 69 91 62
-0.017700 0.226348 0.728000 91 113 84
-0.015833 0.226659 0.729000 144 148 125
-0.273284 0.155504 0.496000 107 126 84
-0.271997 0.155504 0.496000 102 121 79
-0.270711 0.155504 0.496000 89 122 76
-0.023302 0.227612 0.726000 75 102 71
-0.021419 0.227612 0.726000 73 100 69
-0.019562 0.227926 0.727000 93 108 81
-0.017676 0.227926 0.727000 132 147 120
-0.271997 0.156792 0.496000 106 118 79
-0.270711 0.156792 0.496000 95 124 79
-0.268881 0.156476 0.495000 89 118 73
-0.267596 0.156476 0.495000 74 104 67
-0.023302 0.229498 0.726000 76 100 70
-0.021419 0.229498 0.726000 74 98 68
-0.019535 0.229498 0.726000 133 143 118
-0.271449 0.157762 0.495000 130 134 104
-0.270165 0.157762 0.495000 98 122 79
-0.268881 0.157762 0.495000 97 121 78
-0.267596 0.157762 0.495000 85 117 78
-0.266312 0.157762 0.495000 66 98 59
-0.024698 0.174654 0.548000 91 100 80
-0.023276 0.174654 0.548000 67 91 63
-0.270165 0.159048 0.495000 108 127 89
-0.268881 0.159048 0.495000 96 115 77
-0.267056 0.158727 0.494000 89 122 80
-0.265774 0.158727 0.494000 78 111 69
-0.265028 0.159048 0.495000 62 94 57
-0.026119 0.176077 0.548000 81 99 76
-0.024698 0.176077 0.548000 66 84 61
-0.023276 0.176077 0.548000 73 102 72
-0.268337 0.160010 0.494000 111 124 93
-0.267056 0.160010 0.494000 94 125 83
-0.265774 0.160010 0.494000 91 122 80
-0.264493 0.160010 0.494000 76 108 69
-0.263211 0.160010 0.494000 66 98 59
-0.028910 0.177177 0.547000 135 144 124
-0.027491 0.177177 0.547000 91 100 80
-0.026072 0.177177 0.547000 61 88 59
-0.024653 0.177177 0.547000 73 100 71
-0.267056 0.161293 0.494000 98 123 86
-0.265236 0.160967 0.493000 95 120 83
-0.263957 0.160967 0.493000 84 117 75
-0.262678 0.160967 0.493000 77 110 68
-0.261399 0.160967 0.493000 63 92 58
-0.030274 0.178271 0.546000 139 143 122
-0.028857 0.178271 0.546000 90 107 81
-0.027491 0.178598 0.547000 66 83 57
-0.026072 0.178598 0.547000 72 99 70
-0.266515 0.162247 0.493000 113 133 100
-0.264698 0.161918 0.492000 104 124 91
-0.263422 0.161918 0.492000 86 118 79
-0.262145 0.161918 0.492000 83 115 76
-0.260869 0.161918 0.492000 73 105 68
-0.031690 0.179690 0.546000 141 148 126
-0.030274 0.179690 0.546000 93 100 78
-0.028857 0.179690 0.546000 64 86 59
-0.027491 0.180019 0.547000 75 97 70
-0.026072 0.180019 0.547000 75 102 69
-0.264698 0.163196 0.492000 116 128 102
-0.263422 0.163196 0.492000 95 123 85
-0.262145 0.163196 0.492000 92 120 82
-0.260339 0.162865 0.491000 82 114 77
-0.033107 0.181108 0.546000 140 143 125
-0.031690 0.181108 0.546000 84 99 74
-0.030274 0.181108 0.546000 72 87 62
-0.028857 0.181108 0.546000 72 99 66
-0.027491 0.181440 0.547000 75 102 69
-0.262886 0.164140 0.491000 108 127 97
-0.261612 0.164140 0.491000 95 114 84
-0.260339 0.164140 0.491000 83 118 80
-0.259065 0.164140 0.491000 82 117 79
-0.034523 0.182527 0.546000 133 142 122
-0.033107 0.182527 0.546000 84 93 73
-0.031632 0.182192 0.545000 66 90 62
-0.030274 0.182527 0.546000 76 100 72
-0.028857 0.182527 0.546000 74 103 69
-0.027441 0.182527 0.546000 74 103 69
-0.261612 0.165416 0.491000 110 125 98
-0.260339 0.165416 0.491000 89 121 84
-0.259065 0.165416 0.491000 86 118 81
-0.035940 0.183945 0.546000 130 133 115
-0.034460 0.183608 0.545000 80 98 75
-0.033046 0.183608 0.545000 69 87 64
-0.031632 0.183608 0.545000 74 103 71
-0.030218 0.183608 0.545000 77 106 74
-0.028857 0.183945 0.546000 76 103 70
-0.260339 0.166691 0.491000 99 126 93
-0.258537 0.166352 0.490000 94 121 88
-0.257266 0.166352 0.490000 81 116 76
-0.037356 0.185363 0.546000 118 133 108
-0.035874 0.185024 0.545000 73 88 63
-0.034460 0.185024 0.545000 68 95 66
-0.033046 0.185024 0.545000 76 103 74
-0.031632 0.185024 0.545000 73 104 72
-0.030218 0.185024 0.545000 73 104 72
-0.258537 0.167625 0.490000 109 125 102
-0.257266 0.167625 0.490000 89 121 84
-0.255995 0.167625 0.490000 89 121 84
-0.254723 0.167625 0.490000 75 110 72
-0.038773 0.186782 0.546000 116 120 99
-0.037356 0.186782 0.546000 70 92 63
-0.035874 0.186440 0.545000 74 96 67
-0.034460 0.186440 0.545000 75 104 72
-0.033046 0.186440 0.545000 77 106 74
-0.031632 0.186440 0.545000 77 106 74
-0.257266 0.168898 0.490000 102 130 94
-0.255995 0.168898 0.490000 95 123 87
-0.254723 0.168898 0.490000 87 119 80
-0.253452 0.168898 0.490000 87 119 80
-0.252696 0.169242 0.491000 68 99 65
-0.040116 0.187856 0.545000 112 127 102
-0.038702 0.187856 0.545000 75 90 65
-0.037288 0.187856 0.545000 72 99 66
-0.035874 0.187856 0.545000 76 103 70
-0.034460 0.187856 0.545000 78 107 75
-0.033046 0.187856 0.545000 74 103 71
-0.255995 0.170171 0.490000 108 123 94
-0.254723 0.170171 0.490000 93 123 84
-0.253452 0.170171 0.490000 88 118 79
-0.252696 0.170518 0.491000 79 111 72
-0.041377 0.188577 0.543000 99 105 86
-0.040042 0.188924 0.544000 71 93 64
-0.038702 0.189271 0.545000 77 99 70
-0.037288 0.189271 0.545000 79 106 73
-0.035874 0.189271 0.545000 80 107 74
-0.034460 0.189271 0.545000 84 108 76
-0.254723 0.171444 0.490000 103 126 90
-0.253452 0.171444 0.490000 97 120 84
-0.252696 0.171793 0.491000 84 117 75
-0.251422 0.171793 0.491000 77 110 68
-0.250148 0.171793 0.491000 68 100 63
-0.042629 0.189288 0.541000 88 102 80
-0.041301 0.189638 0.542000 76 90 68
-0.040042 0.190337 0.544000 78 105 72
-0.038702 0.190687 0.545000 79 106 73
-0.037288 0.190687 0.545000 79 107 71
-0.253452 0.172716 0.490000 107 123 91
-0.252696 0.173069 0.491000 93 124 82
-0.251422 0.173069 0.491000 91 122 80
-0.250148 0.173069 0.491000 76 111 71
-0.248874 0.173069 0.491000 68 103 63
-0.043869 0.189988 0.539000 85 94 74
-0.042550 0.190341 0.540000 71 93 64
-0.041225 0.190693 0.541000 79 101 72
-0.040042 0.191751 0.544000 78 108 71
-0.038702 0.192103 0.545000 78 108 71
-0.252181 0.173989 0.490000 101 126 89
-0.250910 0.173989 0.490000 94 119 82
-0.250148 0.174345 0.491000 87 122 82
-0.248874 0.174345 0.491000 73 108 68
-0.247600 0.174345 0.491000 68 100 61
-0.246326 0.174345 0.491000 56 88 49
-0.045184 0.191033 0.538000 79 96 70
-0.043869 0.191388 0.539000 76 93 67
-0.042550 0.191743 0.540000 74 102 66
-0.041149 0.191743 0.540000 81 109 73
-0.039895 0.192454 0.542000 80 108 70
-0.250910 0.175262 0.490000 108 123 94
-0.249638 0.175262 0.490000 93 124 82
-0.248367 0.175262 0.490000 88 119 77
-0.247600 0.175620 0.491000 78 111 69
-0.246326 0.175620 0.491000 68 101 59
-0.245052 0.175620 0.491000 61 90 58
-0.047619 0.191000 0.534000 114 128 108
-0.045016 0.191716 0.536000 74 98 68
-0.041073 0.192789 0.539000 83 111 73
-0.249638 0.176535 0.490000 99 125 85
-0.248367 0.176535 0.490000 92 118 78
-0.247096 0.176535 0.490000 83 116 72
-0.246326 0.176896 0.491000 78 111 67
-0.245052 0.176896 0.491000 72 104 67
-0.243779 0.176896 0.491000 57 89 52
-0.050201 0.191667 0.532000 133 141 126
-0.048912 0.192027 0.533000 92 100 85
-0.047530 0.192027 0.533000 69 92 69
-0.248367 0.177808 0.490000 107 119 91
-0.247096 0.177808 0.490000 94 125 81
-0.245825 0.177808 0.490000 85 116 72
-0.244553 0.177808 0.490000 80 113 71
-0.243779 0.178171 0.491000 72 105 63
-0.242505 0.178171 0.491000 64 95 61
-0.051581 0.193049 0.532000 123 126 110
-0.050201 0.193049 0.532000 80 95 77
-0.048821 0.193049 0.532000 76 91 73
-0.047440 0.193049 0.532000 74 103 73
-0.046147 0.193412 0.533000 79 108 78
-0.247096 0.179081 0.490000 106 130 91
-0.245825 0.179081 0.490000 97 121 82
-0.244553 0.179081 0.490000 87 120 76
-0.243779 0.179447 0.491000 83 116 72
-0.242505 0.179447 0.491000 76 108 69
-0.241231 0.179447 0.491000 64 96 57
-0.054341 0.194431 0.532000 131 134 116
-0.052961 0.194431 0.532000 101 115 95
-0.051581 0.194431 0.532000 79 93 73
-0.050201 0.194431 0.532000 74 100 74
-0.048821 0.194431 0.532000 79 105 79
-0.047440 0.194431 0.532000 80 109 75
-0.046060 0.194431 0.532000 82 111 77
-0.245825 0.180354 0.490000 114 129 100
-0.244553 0.180354 0.490000 92 123 81
-0.243282 0.180354 0.490000 89 120 78
-0.242011 0.180354 0.490000 85 118 76
-0.241231 0.180722 0.491000 82 115 73
-0.240446 0.181090 0.492000 72 103 69
-0.055722 0.195813 0.532000 127 136 118
-0.054341 0.195813 0.532000 98 107 89
-0.052961 0.195813 0.532000 67 90 65
-0.051581 0.195813 0.532000 80 103 78
-0.050201 0.195813 0.532000 79 108 76
-0.048729 0.195445 0.531000 81 110 78
-0.047351 0.195445 0.531000 82 111 77
-0.045974 0.195445 0.531000 79 108 74
-0.244553 0.181627 0.490000 109 129 96
-0.243282 0.181627 0.490000 99 119 86
-0.242011 0.181627 0.490000 86 119 77
-0.241231 0.181998 0.491000 83 116 74
-0.239957 0.181998 0.491000 80 112 75
-0.057102 0.197195 0.532000 124 127 109
-0.055722 0.197195 0.532000 73 91 68
-0.054341 0.197195 0.532000 77 95 72
-0.052961 0.197195 0.532000 77 106 74
-0.051484 0.196824 0.531000 79 108 76
-0.050201 0.197195 0.532000 84 113 79
-0.048821 0.197195 0.532000 86 115 81
-0.047351 0.196824 0.531000 87 106 76
-0.243282 0.182900 0.490000 117 129 103
-0.242011 0.182900 0.490000 98 124 84
-0.240740 0.182900 0.490000 95 121 81
-0.239957 0.183273 0.491000 85 117 78
-0.238683 0.183273 0.491000 83 115 76
-0.059750 0.198204 0.531000 137 140 124
-0.058372 0.198204 0.531000 98 112 90
-0.056995 0.198204 0.531000 79 93 71
-0.055617 0.198204 0.531000 75 102 71
-0.054341 0.198577 0.532000 80 107 76
-0.052961 0.198577 0.532000 81 111 74
-0.051484 0.198204 0.531000 82 112 75
-0.050201 0.198577 0.532000 91 115 83
-0.048729 0.198204 0.531000 92 116 84
-0.242011 0.184173 0.490000 119 135 103
-0.240740 0.184173 0.490000 108 124 92
-0.239468 0.184173 0.490000 92 120 82
-0.238197 0.184173 0.490000 90 118 80
-0.236926 0.184173 0.490000 82 117 77
-0.060897 0.198832 0.529000 116 127 108
-0.059637 0.199207 0.530000 89 100 81
-0.058372 0.199583 0.531000 74 98 70
-0.056995 0.199583 0.531000 77 101 73
-0.055617 0.199583 0.531000 80 109 75
-0.054239 0.199583 0.531000 85 114 80
-0.052862 0.199583 0.531000 82 111 77
-0.051484 0.199583 0.531000 85 114 80
-0.050106 0.199583 0.531000 104 121 93
-0.239468 0.185446 0.490000 109 129 94
-0.238197 0.185446 0.490000 95 115 80
-0.236926 0.185446 0.490000 86 119 77
-0.235655 0.185446 0.490000 82 115 73
-0.234383 0.185446 0.490000 74 110 67
-0.232636 0.185067 0.489000 69 105 62
-0.231368 0.185067 0.489000 67 96 66
-0.063522 0.199827 0.528000 122 130 115
-0.062270 0.200206 0.529000 100 108 93
-0.060897 0.200206 0.529000 75 96 72
-0.059637 0.200584 0.530000 81 102 78
-0.058262 0.200584 0.530000 81 110 76
-0.056995 0.200963 0.531000 81 110 76
-0.055617 0.200963 0.531000 86 115 81
-0.054239 0.200963 0.531000 85 114 80
-0.052862 0.200963 0.531000 90 114 84
-0.051484 0.200963 0.531000 106 130 100
-0.238197 0.186719 0.490000 116 128 102
-0.236926 0.186719 0.490000 99 129 90
-0.235655 0.186719 0.490000 85 115 76
-0.234383 0.186719 0.490000 83 119 76
-0.232636 0.186338 0.489000 77 113 70
-0.231368 0.186338 0.489000 78 110 73
-0.230099 0.186338 0.489000 68 100 63
-0.228830 0.186338 0.489000 64 91 69
-0.066010 0.200437 0.526000 125 134 116
-0.064769 0.200818 0.527000 106 115 97
-0.063401 0.200818 0.527000 78 96 75
-0.062152 0.201199 0.528000 72 90 69
-0.060897 0.201580 0.529000 75 106 74
-0.059525 0.201580 0.529000 82 113 81
-0.058262 0.201961 0.530000 83 115 78
-0.056887 0.201961 0.530000 85 117 80
-0.055512 0.201961 0.530000 88 116 80
-0.054239 0.202342 0.531000 86 114 78
-0.052862 0.202342 0.531000 117 134 108
-0.236926 0.187992 0.490000 115 135 102
-0.235174 0.187608 0.489000 104 124 91
-0.233905 0.187608 0.489000 87 120 78
-0.232636 0.187608 0.489000 86 119 77
-0.231368 0.187608 0.489000 80 112 73
-0.230099 0.187608 0.489000 77 109 70
-0.228830 0.187608 0.489000 72 103 69
-0.227562 0.187608 0.489000 68 99 65
-0.067247 0.201420 0.525000 115 120 106
-0.066010 0.201803 0.526000 85 101 80
-0.064646 0.201803 0.526000 76 92 71
-0.063401 0.202187 0.527000 75 102 73
-0.062034 0.202187 0.527000 79 106 77
-0.060782 0.202571 0.528000 79 110 76
-0.059412 0.202571 0.528000 84 115 81
-0.058152 0.202954 0.529000 92 122 85
-0.056780 0.202954 0.529000 88 118 81
-0.055512 0.203338 0.530000 107 124 96
-0.054239 0.203722 0.531000 121 138 110
-0.233905 0.188878 0.489000 105 128 94
-0.232636 0.188878 0.489000 98 121 87
-0.231368 0.188878 0.489000 87 118 76
-0.230099 0.188878 0.489000 86 117 75
-0.228830 0.188878 0.489000 80 112 73
-0.227562 0.188878 0.489000 73 105 66
-0.226293 0.188878 0.489000 72 101 71
-0.068609 0.202784 0.525000 93 107 87
-0.067247 0.202784 0.525000 80 94 74
-0.065885 0.202784 0.525000 76 100 72
-0.064646 0.203170 0.526000 77 101 73
-0.063281 0.203170 0.526000 84 113 79
-0.062034 0.203556 0.527000 86 115 81
-0.060667 0.203556 0.527000 87 116 82
-0.059412 0.203942 0.528000 88 117 83
-0.058152 0.204329 0.529000 98 117 89
-0.056780 0.204329 0.529000 119 138 110
-0.055512 0.204715 0.530000 136 145 125
-0.232636 0.190149 0.489000 119 131 105
-0.231368 0.190149 0.489000 97 122 85
-0.230099 0.190149 0.489000 91 116 79
-0.228830 0.190149 0.489000 86 119 77
-0.227096 0.189760 0.488000 80 113 71
-0.226293 0.190149 0.489000 76 112 69
-0.225024 0.190149 0.489000 74 110 67
-0.223756 0.190149 0.489000 74 103 69
-0.069838 0.203759 0.524000 86 97 78
-0.067247 0.204147 0.525000 79 101 74
-0.065885 0.204147 0.525000 82 109 76
-0.064646 0.204536 0.526000 88 115 82
-0.063281 0.204536 0.526000 92 122 85
-0.061916 0.204536 0.526000 91 121 84
-0.060667 0.204925 0.527000 95 117 86
-0.059300 0.204925 0.527000 102 124 93
-0.058042 0.205314 0.528000 126 135 115
-0.231368 0.191419 0.489000 123 138 111
-0.230099 0.191419 0.489000 105 120 93
-0.228362 0.191028 0.488000 92 121 80
-0.227096 0.191028 0.488000 90 119 78
-0.226293 0.191419 0.489000 81 117 72
-0.225024 0.191419 0.489000 80 116 71
-0.223756 0.191419 0.489000 78 114 71
-0.222487 0.191419 0.489000 75 111 68
-0.221218 0.191419 0.489000 72 101 69
-0.068478 0.205120 0.524000 81 109 73
-0.067247 0.205511 0.525000 86 114 78
-0.065885 0.205511 0.525000 89 119 82
-0.064523 0.205511 0.525000 93 123 86
-0.063281 0.205903 0.526000 97 122 87
-0.061916 0.205903 0.526000 101 126 91
-0.060667 0.206294 0.527000 118 130 106
-0.059300 0.206294 0.527000 127 139 115
-0.228362 0.192295 0.488000 114 132 99
-0.227562 0.192689 0.489000 102 120 87
-0.226293 0.192689 0.489000 88 119 75
-0.225024 0.192689 0.489000 85 116 72
-0.223756 0.192689 0.489000 84 120 73
-0.222487 0.192689 0.489000 82 118 71
-0.221218 0.192689 0.489000 78 111 69
-0.219950 0.192689 0.489000 72 105 63
-0.069705 0.206087 0.523000 86 113 80
-0.068478 0.206481 0.524000 87 117 78
-0.067247 0.206875 0.525000 89 119 80
-0.065885 0.206875 0.525000 94 124 85
-0.064523 0.206875 0.525000 89 119 80
-0.063161 0.206875 0.525000 111 128 98
-0.061916 0.207269 0.526000 118 135 105
-0.226293 0.193960 0.489000 108 129 91
-0.225024 0.193960 0.489000 100 121 83
-0.223756 0.193960 0.489000 91 122 76
-0.222487 0.193960 0.489000 86 117 71
-0.221218 0.193960 0.489000 80 116 69
-0.219950 0.193960 0.489000 78 114 67
-0.069705 0.207446 0.523000 87 119 80
-0.068478 0.207842 0.524000 92 120 82
-0.067119 0.207842 0.524000 93 121 83
-0.065885 0.208239 0.525000 101 120 90
-0.064523 0.208239 0.525000 112 131 101
-0.225024 0.195230 0.489000 113 123 96
-0.223756 0.195230 0.489000 97 121 80
-0.222032 0.194831 0.488000 91 115 74
-0.220766 0.194831 0.488000 80 113 67
-0.219500 0.194831 0.488000 85 118 72
-0.222032 0.196099 0.488000 118 134 102
-0.220766 0.196099 0.488000 95 124 83
-0.219950 0.196500 0.489000 90 119 78
-0.080977 0.207752 0.517000 72 93 69
-0.219950 0.197771 0.489000 113 130 104
-0.082159 0.208691 0.516000 80 98 75
-0.080977 0.209095 0.517000 79 106 75
-0.079635 0.209095 0.517000 83 110 79
-0.087174 0.209217 0.514000 76 89 72
-0.086008 0.209624 0.515000 78 96 73
-0.084672 0.209624 0.515000 84 102 79
-0.083497 0.210031 0.516000 81 108 77
-0.082159 0.210031 0.516000 83 110 79
-0.080977 0.210438 0.517000 86 113 80
-0.079635 0.210438 0.517000 92 119 86
-0.090820 0.209733 0.512000 81 99 78
-0.089667 0.210143 0.513000 70 88 67
-0.088508 0.210552 0.514000 75 99 71
-0.087174 0.210552 0.514000 77 101 73
-0.086008 0.210962 0.515000 81 108 75
-0.084672 0.210962 0.515000 87 114 81
-0.083336 0.210962 0.515000 88 115 82
-0.081999 0.210962 0.515000 94 121 88
-0.080820 0.211372 0.516000 96 125 91
-0.079635 0.211781 0.517000 95 124 90
-0.091968 0.210651 0.511000 74 95 73
-0.090820 0.211063 0.512000 70 99 67
-0.089492 0.211063 0.512000 77 106 74
-0.088336 0.211475 0.513000 79 109 70
-0.087174 0.211888 0.514000 84 114 75
-0.085841 0.211888 0.514000 91 122 80
-0.084672 0.212300 0.515000 93 124 82
-0.083336 0.212300 0.515000 95 123 87
-0.100852 0.211149 0.509000 125 135 119
-0.099532 0.211149 0.509000 111 121 105
-0.098211 0.211149 0.509000 91 108 90
-0.096891 0.211149 0.509000 74 91 73
-0.095758 0.211564 0.510000 65 92 63
-0.094435 0.211564 0.510000 73 100 71
-0.093294 0.211978 0.511000 76 107 73
-0.091968 0.211978 0.511000 79 110 76
-0.090643 0.211978 0.511000 83 118 78
-0.089492 0.212393 0.512000 85 120 80
-0.088336 0.212808 0.513000 90 126 83
-0.087174 0.213223 0.514000 91 127 84
-0.085841 0.213223 0.514000 94 125 83
-0.084672 0.213638 0.515000 95 126 84
-0.083336 0.213638 0.515000 98 123 88
-0.104608 0.212054 0.508000 128 136 123
-0.103493 0.212471 0.509000 116 126 110
-0.102173 0.212471 0.509000 98 108 92
-0.100852 0.212471 0.509000 77 94 76
-0.099532 0.212471 0.509000 72 89 71
-0.098211 0.212471 0.509000 75 102 73
-0.096891 0.212471 0.509000 79 106 77
-0.095758 0.212888 0.510000 74 109 71
-0.094435 0.212888 0.510000 78 113 75
-0.093112 0.212888 0.510000 84 119 79
-0.091968 0.213306 0.511000 85 120 80
-0.090643 0.213306 0.511000 90 126 83
-0.088336 0.214141 0.513000 96 127 85
-0.108135 0.212533 0.506000 117 130 115
-0.107033 0.212953 0.507000 98 111 96
-0.105718 0.212953 0.507000 85 101 80
-0.104608 0.213373 0.508000 79 95 74
-0.103493 0.213793 0.509000 70 91 67
-0.102173 0.213793 0.509000 70 91 67
-0.100852 0.213793 0.509000 75 102 73
-0.099532 0.213793 0.509000 79 106 77
-0.098211 0.213793 0.509000 82 113 79
-0.096891 0.213793 0.509000 83 114 80
-0.095758 0.214213 0.510000 87 119 80
-0.094435 0.214213 0.510000 93 125 86
-0.093112 0.214213 0.510000 94 127 85
-0.110541 0.213425 0.505000 94 109 93
-0.108135 0.213848 0.506000 69 92 69
-0.107033 0.214270 0.507000 70 93 70
-0.105718 0.214270 0.507000 73 100 69
-0.104608 0.214693 0.508000 73 100 69
-0.103493 0.215116 0.509000 80 109 77
-0.102173 0.215116 0.509000 82 111 79
-0.100852 0.215116 0.509000 85 114 82
-0.099532 0.215116 0.509000 89 118 86
-0.098211 0.215116 0.509000 90 121 87
-0.096891 0.215116 0.509000 91 122 88
-0.095570 0.215116 0.509000 93 125 88
-0.094435 0.215538 0.510000 94 126 89
-0.119238 0.213887 0.503000 127 135 122
-0.117933 0.213887 0.503000 120 130 116
-0.116628 0.213887 0.503000 111 121 107
-0.115323 0.213887 0.503000 94 109 91
-0.114018 0.213887 0.503000 81 96 78
-0.112937 0.214312 0.504000 72 92 73
-0.111630 0.214312 0.504000 71 91 72
-0.110541 0.214737 0.505000 68 94 68
-0.108135 0.215162 0.506000 72 103 69
-0.107033 0.215587 0.507000 78 109 75
-0.105926 0.216013 0.508000 78 110 73
-0.104608 0.216013 0.508000 84 116 79
-0.103493 0.216438 0.509000 89 121 84
-0.102173 0.216438 0.509000 87 119 82
-0.100852 0.216438 0.509000 92 123 89
-0.099532 0.216438 0.509000 94 125 91
-0.098211 0.216438 0.509000 96 125 91
-0.096891 0.216438 0.509000 96 125 91
-0.095570 0.216438 0.509000 101 125 95
-0.094435 0.216863 0.510000 109 133 103
-0.125763 0.215193 0.503000 125 138 123
-0.124458 0.215193 0.503000 114 127 112
-0.123153 0.215193 0.503000 106 121 105
-0.121848 0.215193 0.503000 94 109 93
-0.120543 0.215193 0.503000 83 98 82
-0.119238 0.215193 0.503000 75 90 74
-0.117933 0.215193 0.503000 71 89 68
-0.116628 0.215193 0.503000 70 88 67
-0.115323 0.215193 0.503000 63 86 61
-0.114018 0.215193 0.503000 67 90 65
-0.112937 0.215621 0.504000 71 100 68
-0.111630 0.215621 0.504000 77 106 74
-0.110541 0.216049 0.505000 80 112 75
-0.108135 0.216477 0.506000 85 118 76
-0.107033 0.216905 0.507000 90 123 81
-0.105718 0.216905 0.507000 89 122 80
-0.104608 0.217332 0.508000 93 126 84
-0.103493 0.217760 0.509000 95 125 86
-0.102173 0.217760 0.509000 94 124 85
-0.100852 0.217760 0.509000 100 122 91
-0.099532 0.217760 0.509000 100 122 91
-0.098211 0.217760 0.509000 108 127 99
-0.096891 0.217760 0.509000 115 134 106
-0.129941 0.214778 0.499000 106 121 107
-0.128905 0.215209 0.500000 99 114 100
-0.127863 0.215639 0.501000 90 107 91
-0.126816 0.216070 0.502000 77 94 78
-0.125513 0.216070 0.502000 68 88 69
-0.124458 0.216500 0.503000 68 88 69
-0.123153 0.216500 0.503000 65 90 69
-0.121848 0.216500 0.503000 66 91 70
-0.120543 0.216500 0.503000 71 98 69
-0.119238 0.216500 0.503000 73 100 71
-0.117933 0.216500 0.503000 72 99 66
-0.116628 0.216500 0.503000 78 105 72
-0.115323 0.216500 0.503000 81 111 72
-0.114018 0.216500 0.503000 81 111 72
-0.112713 0.216500 0.503000 92 123 81
-0.111630 0.216930 0.504000 92 123 81
-0.110541 0.217361 0.505000 91 122 78
-0.109231 0.217361 0.505000 92 123 79
-0.106822 0.217791 0.506000 96 127 83
-0.105718 0.218222 0.507000 97 126 85
-0.104402 0.218222 0.507000 99 128 87
-0.103290 0.218652 0.508000 103 126 92
-0.101972 0.218652 0.508000 105 128 94
-0.100654 0.218652 0.508000 114 129 102
-0.130710 0.215209 0.497000 64 86 68
-0.129681 0.215642 0.498000 66 88 70
-0.128905 0.216508 0.500000 67 89 71
-0.127863 0.216941 0.501000 64 90 66
-0.126563 0.216941 0.501000 68 94 70
-0.125513 0.217374 0.502000 66 92 66
-0.124211 0.217374 0.502000 73 99 73
-0.123153 0.217807 0.503000 78 107 75
-0.121848 0.217807 0.503000 78 107 75
-0.120543 0.217807 0.503000 76 108 71
-0.119238 0.217807 0.503000 79 111 74
-0.117933 0.217807 0.503000 83 115 78
-0.116628 0.217807 0.503000 85 117 80
-0.115323 0.217807 0.503000 87 120 76
-0.114018 0.217807 0.503000 87 120 76
-0.112713 0.217807 0.503000 93 126 80
-0.111630 0.218240 0.504000 93 126 80
-0.110322 0.218240 0.504000 95 126 80
-0.109231 0.218673 0.505000 98 129 83
-0.106822 0.219106 0.506000 102 128 88
-0.105718 0.219539 0.507000 102 122 89
-0.104402 0.219539 0.507000 112 132 99
-0.130710 0.216500 0.497000 74 103 73
-0.129681 0.216935 0.498000 75 106 76
-0.128905 0.217807 0.500000 76 107 77
-0.127863 0.218242 0.501000 78 109 75
-0.126563 0.218242 0.501000 83 114 80
-0.125513 0.218678 0.502000 85 117 78
-0.124211 0.218678 0.502000 85 117 78
-0.123153 0.219113 0.503000 88 118 79
-0.121848 0.219113 0.503000 88 118 79
-0.120543 0.219113 0.503000 89 121 82
-0.119238 0.219113 0.503000 89 121 82
-0.117933 0.219113 0.503000 90 122 83
-0.116628 0.219113 0.503000 90 122 83
-0.115323 0.219113 0.503000 94 125 83
-0.114018 0.219113 0.503000 94 125 83
-0.112713 0.219113 0.503000 98 124 84
-0.111630 0.219549 0.504000 99 125 85
-0.110322 0.219549 0.504000 110 134 95
-0.109015 0.219549 0.504000 117 141 102
-0.130710 0.217791 0.497000 82 114 77
-0.129681 0.218229 0.498000 84 116 77
-0.128647 0.218667 0.499000 84 116 77
-0.127607 0.219105 0.500000 87 119 80
-0.126563 0.219544 0.501000 89 121 82
-0.125263 0.219544 0.501000 89 122 80
-0.124211 0.219982 0.502000 91 124 82
-0.122908 0.219982 0.502000 94 125 83
-0.121606 0.219982 0.502000 92 123 81
-0.120304 0.219982 0.502000 94 122 84
-0.119238 0.220420 0.503000 94 122 84
-0.117933 0.220420 0.503000 98 123 88
-0.116628 0.220420 0.503000 102 127 92
-0.115323 0.220420 0.503000 107 127 94
-0.114018 0.220420 0.503000 112 132 99
-0.112713 0.220420 0.503000 122 138 106
-0.130710 0.219082 0.497000 96 125 84
-0.129681 0.219523 0.498000 95 124 83
-0.128389 0.219523 0.498000 93 122 81
-0.127352 0.219964 0.499000 95 124 83
-0.126310 0.220404 0.500000 96 125 84
-0.125013 0.220404 0.500000 97 122 85
-0.123963 0.220845 0.501000 97 122 85
-0.122664 0.220845 0.501000 102 122 87
-0.121606 0.221286 0.502000 105 125 90
-0.120304 0.221286 0.502000 109 127 94
-0.119001 0.221286 0.502000 113 131 98
-0.130710 0.220373 0.497000 114 132 97
-0.129421 0.220373 0.497000 114 132 97
-0.128389 0.220816 0.498000 113 131 96
-0.127097 0.220816 0.498000 115 133 100
-0.125805 0.220816 0.498000 117 135 102
-0.124763 0.221260 0.499000 122 137 108
