ply
format ascii 1.0
element vertex 1977
property float x
property float y
property float z
property uchar red
property uchar green
property uchar blue
end_header
0.195802 0.397231 0.453922 70 99 67
0.194209 0.397269 0.453654 72 101 69
0.192617 0.397307 0.453386 70 99 67
0.191024 0.397345 0.453117 69 100 66
0.189416 0.396323 0.452773 63 94 60
0.203427 0.394275 0.456555 67 95 57
0.201839 0.394313 0.456287 86 114 76
0.185133 0.309994 0.447358 90 134 81
0.183742 0.308968 0.447047 88 131 81
0.182361 0.309001 0.446815 81 124 74
0.186314 0.311512 0.449019 111 162 94
0.184906 0.309429 0.448624 112 163 95
0.183523 0.309462 0.448391 110 161 95
0.182135 0.308437 0.448078 107 158 92
0.180755 0.308470 0.447846 105 152 92
0.179374 0.308503 0.447614 102 149 89
0.177994 0.308536 0.447381 96 137 88
0.176614 0.308569 0.447149 82 123 74
0.175233 0.308602 0.446916 63 92 58
0.186087 0.310945 0.450289 136 190 116
0.184679 0.308865 0.449890 130 184 110
0.183289 0.307841 0.449575 123 176 107
0.181909 0.307874 0.449342 120 173 104
0.180529 0.307907 0.449110 117 170 101
0.179148 0.307940 0.448877 113 166 97
0.177768 0.307973 0.448645 105 155 92
0.176387 0.308006 0.448413 108 158 95
0.175007 0.308039 0.448180 111 154 104
0.173627 0.308071 0.447948 99 142 92
0.185859 0.310379 0.451560 141 187 120
0.184453 0.308301 0.451156 140 186 119
0.183063 0.307278 0.450839 136 187 119
0.181683 0.307311 0.450606 134 185 117
0.180302 0.307344 0.450374 131 182 114
0.178922 0.307377 0.450141 126 177 109
0.177542 0.307409 0.449909 123 175 102
0.176161 0.307442 0.449677 119 171 98
0.174781 0.307475 0.449444 116 166 103
0.173400 0.307508 0.449212 117 167 104
0.172020 0.307541 0.448979 114 160 107
0.170640 0.307574 0.448747 105 151 98
0.185632 0.309812 0.452831 78 111 67
0.184226 0.307736 0.452422 86 119 75
0.182837 0.306715 0.452102 102 141 90
0.181457 0.306747 0.451870 124 163 112
0.180076 0.306780 0.451638 139 182 121
0.178696 0.306813 0.451405 144 187 126
0.177315 0.306846 0.451173 142 191 119
0.175935 0.306879 0.450940 138 187 115
0.174555 0.306912 0.450708 131 180 108
0.173174 0.306945 0.450476 123 172 100
0.171794 0.306978 0.450243 116 167 101
0.170413 0.307011 0.450011 112 163 97
0.169052 0.305988 0.449696 107 156 102
0.212043 0.367619 0.463544 139 171 122
0.210202 0.361340 0.462703 141 184 105
0.208587 0.359271 0.462254 132 175 96
0.206983 0.357202 0.461807 134 181 98
0.205213 0.350922 0.460978 124 171 88
0.185415 0.310299 0.454192 46 66 47
0.184008 0.308225 0.453778 45 65 46
0.182617 0.307205 0.453456 46 70 42
0.181230 0.306184 0.453134 51 75 47
0.179850 0.306217 0.452901 58 86 48
0.178470 0.306250 0.452669 86 114 76
0.177089 0.306283 0.452437 119 159 99
0.175709 0.306316 0.452204 141 181 121
0.174328 0.306349 0.451972 147 196 124
0.172948 0.306382 0.451739 140 189 117
0.171568 0.306414 0.451507 132 184 109
0.170187 0.306447 0.451275 124 176 101
0.168827 0.305426 0.450957 122 173 105
0.167449 0.305459 0.450725 119 170 102
0.166071 0.305492 0.450493 119 168 114
0.211685 0.364891 0.464746 148 189 122
0.209953 0.360722 0.464091 135 182 99
0.208340 0.358655 0.463637 131 178 95
0.206736 0.356588 0.463185 144 186 114
0.205187 0.355572 0.462834 107 149 77
0.179624 0.305654 0.454165 54 70 49
0.178243 0.305687 0.453933 46 62 41
0.176863 0.305720 0.453700 42 67 32
0.175483 0.305752 0.453468 67 92 57
0.174102 0.305785 0.453236 103 141 86
0.172722 0.305818 0.453003 137 175 120
0.171341 0.305851 0.452771 146 194 125
0.169961 0.305884 0.452539 143 191 122
0.168581 0.305917 0.452306 133 185 112
0.167223 0.304897 0.451987 127 179 106
0.165845 0.304929 0.451755 127 178 112
0.164467 0.304962 0.451523 125 176 110
0.163089 0.304995 0.451291 121 165 110
0.161712 0.305028 0.451059 115 159 104
0.216624 0.374661 0.467950 78 107 66
0.214780 0.369447 0.467173 139 168 127
0.213129 0.367383 0.466708 148 196 117
0.211595 0.367419 0.466450 138 186 107
0.210061 0.367456 0.466192 136 182 104
0.208479 0.366442 0.465832 142 188 110
0.175256 0.305189 0.454732 54 67 52
0.173876 0.305222 0.454500 47 69 38
0.172496 0.305255 0.454267 63 85 54
0.171115 0.305288 0.454035 98 135 83
0.169735 0.305321 0.453802 139 176 124
0.168354 0.305354 0.453570 147 193 124
0.166974 0.305386 0.453338 140 186 117
0.165594 0.305419 0.453105 131 183 110
0.164242 0.304400 0.452784 130 182 109
0.162864 0.304433 0.452552 125 176 110
0.161486 0.304466 0.452320 124 175 109
0.160144 0.303446 0.452001 122 165 115
0.158769 0.303479 0.451770 102 145 95
0.216249 0.371929 0.469159 129 164 110
0.214469 0.367769 0.468476 153 188 134
0.212933 0.367806 0.468218 147 196 112
0.211397 0.367843 0.467959 142 191 107
0.209911 0.368929 0.467805 134 179 106
0.208420 0.370015 0.467649 87 132 59
0.172256 0.305743 0.455625 52 66 55
0.170873 0.305775 0.455392 46 68 41
0.169490 0.305808 0.455159 69 91 64
0.168128 0.304790 0.454834 93 127 76
0.166748 0.304823 0.454601 137 171 120
0.165367 0.304856 0.454369 145 191 122
0.164016 0.303838 0.454046 140 186 117
0.162638 0.303870 0.453814 129 180 110
0.161260 0.303903 0.453582 127 178 108
0.159882 0.303936 0.453350 123 173 110
0.158543 0.302917 0.453029 126 176 113
0.157168 0.302950 0.452797 115 158 110
0.155837 0.301931 0.452477 88 131 83
0.154464 0.301964 0.452246 61 88 59
0.215995 0.371298 0.470575 146 187 122
0.214275 0.368191 0.469991 141 182 117
0.212737 0.368227 0.469732 152 200 121
0.211250 0.369312 0.469580 145 193 114
0.209809 0.371446 0.469533 85 120 64
0.167881 0.305277 0.456192 53 74 52
0.166498 0.305310 0.455959 55 76 54
0.165141 0.304293 0.455633 93 126 72
0.163761 0.304326 0.455401 141 174 120
0.162412 0.303308 0.455075 145 193 124
0.161034 0.303341 0.454843 140 188 119
0.159656 0.303374 0.454611 130 181 111
0.158318 0.302356 0.454288 130 181 111
0.156943 0.302389 0.454056 128 180 118
0.155656 0.300321 0.453644 120 172 110
0.152866 0.301437 0.453272 73 114 69
0.217538 0.374818 0.472695 143 173 134
0.215802 0.371714 0.472101 127 172 101
0.214138 0.369657 0.471620 131 176 105
0.212649 0.370741 0.471470 153 198 125
0.211259 0.373919 0.471538 99 144 71
0.209804 0.376051 0.471494 39 67 31
0.164915 0.303729 0.456897 45 69 41
0.163535 0.303762 0.456664 60 84 56
0.162154 0.303795 0.456432 110 148 93
0.160809 0.302779 0.456105 144 182 127
0.159431 0.302812 0.455873 143 191 122
0.158093 0.301795 0.455547 135 183 114
0.156717 0.301828 0.455316 131 182 112
0.155432 0.299762 0.454898 133 184 114
0.154062 0.299794 0.454667 125 172 112
0.152692 0.299827 0.454437 118 165 105
0.220665 0.378292 0.475102 41 58 42
0.217345 0.375229 0.474234 142 179 127
0.215726 0.374220 0.473859 131 181 104
0.214170 0.374257 0.473597 148 198 121
0.212667 0.375340 0.473447 123 164 101
0.211160 0.376423 0.473296 53 94 31
0.163309 0.303199 0.457928 49 63 52
0.161928 0.303232 0.457696 42 64 37
0.160583 0.302217 0.457366 74 96 69
0.159205 0.302249 0.457134 125 165 107
0.157827 0.302282 0.456902 150 190 132
0.156492 0.301267 0.456575 143 192 120
0.155162 0.300251 0.456248 132 181 109
0.153837 0.299235 0.455922 127 178 108
0.152467 0.299268 0.455691 123 174 104
0.151097 0.299300 0.455460 123 169 114
0.220475 0.378697 0.476654 80 103 80
0.218777 0.376645 0.476157 148 191 130
0.217151 0.375637 0.475778 136 179 118
0.215589 0.375674 0.475515 140 189 115
0.214027 0.375712 0.475252 150 199 125
0.212573 0.377839 0.475218 77 111 62
0.211161 0.381012 0.475296 40 74 25
0.160357 0.301654 0.458628 55 65 53
0.158979 0.301687 0.458396 59 82 46
0.157601 0.301720 0.458164 112 135 99
0.156267 0.300705 0.457834 144 188 124
0.154937 0.299691 0.457505 148 192 128
0.153613 0.298676 0.457176 130 182 109
0.152243 0.298709 0.456946 127 179 106
0.150872 0.298741 0.456715 123 176 109
0.149558 0.297726 0.456388 120 173 106
0.148191 0.297759 0.456158 112 155 105
0.220284 0.379100 0.478209 142 170 134
0.218585 0.377050 0.477708 156 203 131
0.217018 0.377087 0.477444 143 190 118
0.215451 0.377125 0.477180 154 203 131
0.212477 0.380331 0.477003 38 68 29
0.211056 0.383501 0.477087 49 79 40
0.157376 0.301158 0.459425 53 62 44
0.156041 0.300144 0.459093 78 105 58
0.154712 0.299131 0.458761 132 159 112
0.153388 0.298117 0.458431 143 189 120
0.152018 0.298150 0.458200 136 182 113
0.150648 0.298182 0.457969 125 179 105
0.149334 0.297168 0.457640 122 176 102
0.147966 0.297201 0.457410 125 176 110
0.146599 0.297233 0.457180 116 167 101
0.221941 0.383634 0.480522 81 111 63
0.220224 0.381587 0.480013 159 189 141
0.218518 0.379539 0.479505 144 192 115
0.216943 0.379576 0.479240 149 197 120
0.215369 0.379614 0.478975 149 195 128
0.213850 0.380694 0.478829 55 101 34
0.212432 0.383861 0.478921 44 68 36
0.155816 0.299583 0.460352 50 65 38
0.154441 0.299616 0.460121 66 81 54
0.153164 0.297558 0.459685 108 143 87
0.151845 0.296545 0.459353 150 185 129
0.150478 0.296578 0.459123 139 191 118
0.149110 0.296610 0.458893 130 182 109
0.147742 0.296643 0.458662 125 179 103
0.146437 0.295630 0.458332 125 179 103
0.145072 0.295662 0.458103 126 171 111
0.221681 0.382987 0.481973 124 157 101
0.220031 0.381984 0.481583 158 191 135
0.218386 0.380980 0.481193 143 191 112
0.216806 0.381017 0.480927 157 205 126
0.215284 0.382097 0.480784 117 160 101
0.213757 0.383176 0.480639 30 73 14
0.154262 0.298010 0.461275 57 65 54
0.152939 0.296999 0.460940 48 71 35
0.151569 0.297031 0.460709 103 126 90
0.150254 0.296019 0.460375 143 187 121
0.148886 0.296052 0.460145 149 193 127
0.147518 0.296085 0.459915 131 184 106
0.146213 0.295072 0.459582 126 179 101
0.144848 0.295105 0.459352 127 179 106
0.143483 0.295137 0.459123 122 174 101
0.223077 0.383343 0.483818 55 70 45
0.221489 0.383381 0.483551 151 190 126
0.219837 0.382378 0.483158 151 190 126
0.218252 0.382416 0.482891 145 195 116
0.216667 0.382454 0.482624 157 207 128
0.215139 0.383532 0.482482 59 96 46
0.213607 0.384611 0.482339 35 72 22
0.151345 0.296472 0.461964 54 67 50
0.150029 0.295461 0.461627 79 110 66
0.148662 0.295494 0.461397 139 170 126
0.147294 0.295527 0.461167 146 195 121
0.145989 0.294515 0.460832 136 185 111
0.144624 0.294548 0.460602 129 179 100
0.143259 0.294580 0.460372 127 177 98
0.141894 0.294613 0.460142 129 174 112
0.222886 0.383735 0.485401 97 115 82
0.221229 0.382733 0.485004 160 202 130
0.219642 0.382771 0.484737 148 190 118
0.218054 0.382809 0.484470 153 203 126
0.216526 0.383886 0.484330 139 189 112
0.215050 0.386004 0.484316 44 75 33
0.149805 0.294903 0.462879 46 67 45
0.148438 0.294936 0.462649 68 89 67
0.147131 0.293926 0.462312 121 161 103
0.145766 0.293958 0.462082 155 195 137
0.144401 0.293991 0.461852 147 195 118
0.143036 0.294023 0.461622 135 183 106
0.141670 0.294056 0.461392 130 177 105
0.140305 0.294088 0.461163 131 178 106
0.138940 0.294121 0.460933 109 147 99
0.222695 0.384125 0.486988 132 156 117
0.221036 0.383124 0.486589 151 196 123
0.219446 0.383162 0.486321 156 201 128
0.217917 0.384238 0.486184 162 209 137
0.216443 0.386353 0.486175 94 141 69
0.215015 0.389508 0.486294 42 66 36
0.148272 0.293336 0.463791 56 70 59
0.146907 0.293369 0.463561 59 87 49
0.145542 0.293401 0.463332 117 145 107
0.144177 0.293434 0.463102 150 196 127
0.142812 0.293466 0.462872 143 189 120
0.141447 0.293499 0.462642 135 185 108
0.140082 0.293531 0.462412 135 185 108
0.138717 0.293564 0.462182 130 175 113
0.137352 0.293596 0.461953 107 152 90
0.224241 0.386548 0.489117 51 77 33
0.222503 0.384512 0.488580 147 173 129
0.220842 0.383513 0.488178 150 196 120
0.219313 0.384588 0.488043 164 210 134
0.217840 0.386701 0.488040 158 202 136
0.216357 0.388814 0.488034 53 97 31
0.214920 0.391965 0.488159 45 68 43
0.145318 0.292844 0.464581 57 75 54
0.143953 0.292877 0.464352 103 141 84
0.142588 0.292909 0.464122 153 191 134
0.141223 0.292942 0.463892 140 189 115
0.139858 0.292974 0.463662 134 183 109
0.138493 0.293007 0.463432 127 179 106
0.137128 0.293039 0.463202 127 179 106
0.135763 0.293072 0.462973 111 150 97
0.224050 0.386932 0.490719 72 102 54
0.222379 0.385934 0.490313 156 186 138
0.220779 0.385972 0.490043 156 202 126
0.219242 0.387046 0.489909 167 213 137
0.217760 0.389157 0.489909 146 187 124
0.216269 0.391269 0.489908 32 73 10
0.143730 0.292320 0.465601 49 74 39
0.142365 0.292352 0.465372 101 126 91
0.140999 0.292385 0.465142 150 197 125
0.139634 0.292417 0.464912 143 190 118
0.138269 0.292450 0.464682 132 184 109
0.136904 0.292482 0.464452 129 181 106
0.135539 0.292515 0.464222 132 180 115
0.134174 0.292547 0.463993 109 157 92
0.223858 0.387313 0.492325 101 131 81
0.222253 0.387351 0.492055 151 181 131
0.220647 0.387389 0.491785 158 206 129
0.219168 0.389498 0.491790 169 217 140
0.217618 0.390572 0.491656 101 141 83
0.216063 0.391646 0.491521 26 66 8
0.142141 0.291795 0.466621 49 64 46
0.140776 0.291828 0.466392 92 130 75
0.139411 0.291860 0.466162 152 190 135
0.138046 0.291893 0.465932 145 194 120
0.136681 0.291925 0.465702 132 181 107
0.135316 0.291958 0.465472 127 179 106
0.133950 0.291990 0.465243 127 179 106
0.132498 0.293062 0.465125 120 162 108
0.223735 0.388726 0.494078 137 170 116
0.222125 0.388764 0.493807 143 176 122
0.220514 0.388803 0.493536 160 210 133
0.218967 0.389875 0.493405 167 217 140
0.217413 0.390948 0.493273 64 101 49
0.140552 0.291271 0.467641 40 67 34
0.139187 0.291303 0.467412 100 127 94
0.137822 0.291336 0.467182 149 195 128
0.136457 0.291368 0.466952 149 195 128
0.135009 0.292439 0.466838 133 185 110
0.133641 0.292471 0.466607 125 177 102
0.132273 0.292504 0.466377 126 179 112
0.130906 0.292536 0.466147 104 157 90
0.223541 0.389102 0.495696 145 183 124
0.221928 0.389140 0.495424 151 189 130
0.218764 0.390250 0.495024 162 211 137
0.217149 0.390289 0.494752 51 84 38
0.138887 0.291783 0.468780 48 65 47
0.137520 0.291815 0.468550 97 136 85
0.136152 0.291848 0.468320 155 194 143
0.134785 0.291881 0.468090 143 195 120
0.133417 0.291913 0.467860 132 184 109
0.132049 0.291946 0.467629 123 178 99
0.130682 0.291978 0.467399 124 179 100
0.129314 0.292011 0.467169 102 143 94
0.225034 0.390469 0.497737 65 82 64
0.223346 0.389476 0.497319 154 193 129
0.221731 0.389514 0.497047 156 195 131
0.220115 0.389553 0.496775 170 217 143
0.218561 0.390623 0.496648 145 192 118
0.217002 0.391694 0.496519 37 69 30
0.137296 0.291257 0.469802 46 73 40
0.135928 0.291290 0.469572 109 136 103
0.134560 0.291322 0.469342 152 198 129
0.133193 0.291355 0.469112 145 191 122
0.131825 0.291388 0.468881 133 188 105
0.130458 0.291420 0.468651 124 179 96
0.129090 0.291453 0.468421 127 175 110
0.127722 0.291485 0.468191 91 139 74
0.224840 0.390840 0.499368 87 110 87
0.223151 0.389847 0.498946 160 204 136
0.221532 0.389886 0.498674 162 206 138
0.219914 0.389924 0.498402 166 213 141
0.218357 0.390994 0.498276 131 178 106
0.216854 0.393095 0.498297 38 67 33
0.135704 0.290732 0.470824 54 69 51
0.134336 0.290764 0.470594 113 151 96
0.132969 0.290797 0.470364 158 196 141
0.131601 0.290830 0.470134 139 192 112
0.130234 0.290862 0.469903 137 190 110
0.128866 0.290895 0.469673 130 183 105
0.127498 0.290927 0.469443 127 180 102
0.126131 0.290960 0.469213 95 131 84
0.224646 0.391208 0.501002 98 121 96
0.222954 0.390217 0.500579 156 202 133
0.221333 0.390256 0.500306 163 209 140
0.219776 0.391324 0.500183 171 218 144
0.218214 0.392393 0.500059 120 167 93
0.216821 0.396553 0.500381 39 68 34
0.134112 0.290206 0.471846 54 82 46
0.132745 0.290239 0.471616 118 146 110
0.131377 0.290271 0.471386 157 204 130
0.130009 0.290304 0.471155 144 191 117
0.128642 0.290337 0.470925 134 184 103
0.127274 0.290369 0.470695 133 183 102
0.125806 0.291436 0.470587 127 173 108
0.124436 0.291468 0.470356 78 124 59
0.224592 0.393632 0.502949 104 128 100
0.222961 0.393671 0.502675 168 214 147
0.221330 0.393710 0.502400 161 207 140
0.219762 0.394778 0.502278 172 220 143
0.218249 0.396875 0.502306 101 149 72
0.216669 0.397943 0.502181 41 65 33
0.132521 0.289681 0.472868 63 79 58
0.131153 0.289713 0.472638 126 164 105
0.129785 0.289746 0.472408 161 199 140
0.128418 0.289779 0.472177 142 193 109
0.126952 0.290844 0.472072 135 186 102
0.125582 0.290877 0.471842 140 189 115
0.124212 0.290909 0.471611 121 170 96
0.122842 0.290942 0.471380 66 99 57
0.224465 0.395023 0.504754 112 134 107
0.222829 0.395061 0.504478 154 202 135
0.221193 0.395100 0.504203 166 214 147
0.219620 0.396167 0.504082 172 218 142
0.218041 0.397235 0.503960 75 121 45
0.216400 0.397274 0.503684 40 62 31
0.130929 0.289155 0.473890 64 90 50
0.129468 0.290220 0.473788 140 166 126
0.128098 0.290252 0.473557 151 197 117
0.126728 0.290285 0.473327 144 190 110
0.125357 0.290317 0.473096 136 186 105
0.124091 0.289318 0.472739 142 192 111
0.122617 0.290383 0.472635 113 156 99
0.224267 0.395382 0.506410 117 141 111
0.222628 0.395421 0.506134 150 199 127
0.220990 0.395460 0.505858 162 211 139
0.219413 0.396526 0.505739 169 215 139
0.217772 0.396565 0.505463 51 97 21
0.216188 0.397631 0.505343 42 61 31
0.130614 0.289628 0.475273 50 67 41
0.129243 0.289660 0.475042 76 93 67
0.127777 0.290724 0.474942 142 182 113
0.126503 0.289726 0.474581 155 195 126
0.125031 0.290789 0.474480 144 193 109
0.123659 0.290822 0.474249 140 189 105
0.122393 0.289824 0.473889 138 186 119
0.120913 0.290887 0.473787 99 147 80
0.224068 0.395739 0.508071 134 159 124
0.222427 0.395778 0.507794 163 211 134
0.220785 0.395817 0.507518 158 206 129
0.219206 0.396882 0.507401 165 210 139
0.217562 0.396921 0.507124 42 87 16
0.127455 0.291193 0.476331 87 118 63
0.126080 0.291226 0.476100 154 185 130
0.124705 0.291259 0.475868 150 198 117
0.123434 0.290262 0.475506 142 190 109
0.122061 0.290294 0.475274 133 182 108
0.120688 0.290327 0.475043 132 181 107
0.223868 0.396094 0.509736 149 174 137
0.222224 0.396133 0.509459 166 212 136
0.220580 0.396172 0.509183 160 206 130
0.218937 0.396211 0.508906 165 206 139
0.217352 0.397275 0.508790 39 80 13
0.127133 0.291661 0.477725 46 69 33
0.125855 0.290665 0.477359 113 136 100
0.124479 0.290698 0.477127 154 197 122
0.123104 0.290730 0.476896 150 193 118
0.121729 0.290763 0.476664 138 188 107
0.120463 0.289767 0.476300 141 191 110
0.118978 0.290829 0.476201 128 173 115
0.223598 0.395423 0.511241 157 181 142
0.221955 0.395462 0.510964 167 213 137
0.220375 0.396525 0.510852 166 212 136
0.218728 0.396564 0.510575 159 200 133
0.217140 0.397627 0.510461 34 75 8
0.125529 0.291131 0.478755 61 77 54
0.124151 0.291164 0.478523 126 162 99
0.122879 0.290169 0.478155 165 201 138
0.121503 0.290202 0.477924 146 197 113
0.120128 0.290235 0.477692 136 187 103
0.118753 0.290267 0.477461 135 183 114
0.223397 0.395775 0.512913 158 177 137
0.221751 0.395814 0.512636 172 215 140
0.220105 0.395853 0.512359 172 215 140
0.218519 0.396915 0.512248 151 192 129
0.216928 0.397977 0.512136 31 72 9
0.123925 0.290602 0.479784 63 95 46
0.122548 0.290635 0.479552 142 174 125
0.121278 0.289641 0.479183 157 205 124
0.119903 0.289673 0.478951 150 198 117
0.118527 0.289706 0.478720 138 188 109
0.115658 0.290799 0.478393 95 133 85
0.223195 0.396125 0.514590 158 177 135
0.221546 0.396164 0.514313 173 213 142
0.219960 0.397225 0.514204 174 214 143
0.218369 0.398286 0.514095 144 183 121
0.216773 0.399347 0.513985 30 69 7
0.123700 0.290040 0.481046 42 64 33
0.122322 0.290072 0.480814 91 113 82
0.120944 0.290105 0.480582 155 201 125
0.119566 0.290138 0.480350 158 204 128
0.118188 0.290171 0.480118 149 200 116
0.116810 0.290204 0.479886 138 189 105
0.115433 0.290237 0.479654 140 181 118
0.114055 0.290269 0.479422 82 123 60
0.222992 0.396472 0.516272 163 185 140
0.221406 0.397532 0.516166 169 212 137
0.219814 0.398592 0.516059 173 216 141
0.218217 0.399652 0.515951 144 183 119
0.216558 0.399692 0.515672 28 67 3
0.121990 0.290535 0.482218 58 71 54
0.120718 0.289543 0.481844 117 155 96
0.119340 0.289576 0.481612 166 204 145
0.117963 0.289609 0.481380 154 203 119
0.116585 0.289641 0.481148 148 197 113
0.115207 0.289674 0.480916 150 195 122
0.113829 0.289707 0.480684 129 174 101
0.112451 0.289740 0.480452 61 91 52
0.221263 0.398896 0.518028 170 211 135
0.219604 0.398936 0.517749 170 211 135
0.217945 0.398975 0.517470 144 180 119
0.216343 0.400035 0.517363 28 64 3
0.120492 0.288981 0.483105 56 87 41
0.119115 0.289014 0.482873 143 174 128
0.117737 0.289046 0.482641 160 210 129
0.116359 0.289079 0.482409 152 202 121
0.114981 0.289112 0.482177 151 199 118
0.113603 0.289145 0.481945 150 198 117
0.112225 0.289178 0.481713 106 140 89
0.110848 0.289210 0.481481 44 78 27
0.224379 0.399159 0.520283 53 73 26
0.222717 0.399198 0.520004 166 186 139
0.221056 0.399238 0.519724 178 216 141
0.219394 0.399277 0.519444 175 213 138
0.217732 0.399317 0.519164 143 179 118
0.216127 0.400375 0.519060 30 66 5
0.118776 0.289474 0.484281 82 109 78
0.117511 0.288484 0.483903 150 197 123
0.116133 0.288517 0.483671 157 204 130
0.114755 0.288550 0.483439 150 201 117
0.113377 0.288583 0.483207 146 197 113
0.111874 0.289638 0.483119 143 186 125
0.110494 0.289671 0.482887 72 115 54
0.224175 0.399498 0.521984 55 73 27
0.222511 0.399538 0.521704 167 185 139
0.220847 0.399577 0.521424 181 219 146
0.219183 0.399617 0.521144 176 214 141
0.217577 0.400674 0.521041 144 179 121
0.215910 0.400714 0.520761 32 67 9
0.118550 0.288911 0.485545 42 62 45
0.117170 0.288944 0.485313 108 152 88
0.115789 0.288976 0.485080 160 204 140
0.114409 0.289009 0.484848 155 206 122
0.113029 0.289042 0.484616 152 203 119
0.111648 0.289075 0.484383 154 202 133
0.110268 0.289108 0.484151 128 176 107
0.223971 0.399835 0.523690 57 75 29
0.222304 0.399875 0.523409 173 191 145
0.220637 0.399915 0.523129 181 222 148
0.218971 0.399954 0.522848 169 210 136
0.217362 0.401010 0.522748 139 174 118
0.215693 0.401050 0.522467 29 64 8
0.116944 0.288380 0.486577 56 89 45
0.115563 0.288413 0.486344 142 175 131
0.114183 0.288446 0.486112 160 210 129
0.112802 0.288479 0.485879 153 203 122
0.111296 0.289533 0.485796 152 205 127
0.109913 0.289566 0.485564 150 203 125
0.223765 0.400170 0.525400 52 73 31
0.222096 0.400210 0.525119 165 186 144
0.220427 0.400250 0.524838 180 223 148
0.218758 0.400289 0.524557 169 212 137
0.217088 0.400329 0.524276 142 177 119
0.215419 0.400369 0.523995 27 62 4
0.115337 0.287850 0.487608 83 110 79
0.113835 0.288902 0.487528 157 204 130
0.112452 0.288935 0.487295 161 208 134
0.111069 0.288968 0.487063 152 206 121
0.109686 0.289001 0.486830 150 204 119
0.108172 0.290054 0.486748 130 175 115
0.221887 0.400543 0.526834 161 182 142
0.220153 0.399569 0.526366 182 224 154
0.218484 0.399608 0.526085 166 208 138
0.216872 0.400662 0.525989 147 183 122
0.215200 0.400702 0.525708 28 64 3
0.114992 0.288305 0.489027 45 63 42
0.113609 0.288338 0.488794 117 157 97
0.112101 0.289390 0.488716 171 211 151
0.110716 0.289423 0.488483 160 210 129
0.109330 0.289456 0.488249 155 205 124
0.107813 0.290508 0.488169 156 203 131
0.221613 0.399861 0.528364 152 173 135
0.219942 0.399901 0.528083 181 226 155
0.218270 0.399940 0.527801 165 210 139
0.216598 0.399980 0.527520 149 185 124
0.214926 0.400020 0.527238 32 68 7
0.113260 0.288791 0.490218 66 98 49
0.111874 0.288824 0.489984 156 188 139
0.110361 0.289875 0.489908 172 220 141
0.108843 0.290926 0.489830 159 207 128
0.107453 0.290959 0.489596 157 205 126
0.106062 0.290992 0.489361 149 197 118
0.221339 0.399179 0.529895 143 167 128
0.219668 0.399218 0.529613 180 225 154
0.217996 0.399258 0.529332 171 216 145
0.216324 0.399298 0.529051 151 187 126
0.214706 0.400350 0.528958 34 70 9
0.112787 0.290259 0.491805 47 72 37
0.111522 0.289276 0.491412 95 120 85
0.110006 0.290326 0.491337 171 216 143
0.108616 0.290359 0.491103 167 212 139
0.107092 0.291409 0.491027 159 207 126
0.105699 0.291442 0.490792 158 206 125
0.104168 0.292492 0.490714 130 170 114
0.221129 0.399507 0.531619 138 161 127
0.219394 0.398536 0.531144 181 225 157
0.217780 0.399587 0.531055 174 218 150
0.216106 0.399627 0.530773 154 190 125
0.214432 0.399667 0.530491 36 72 7
0.111043 0.290741 0.493006 57 76 50
0.109650 0.290774 0.492771 137 178 111
0.108257 0.290807 0.492537 176 217 150
0.106731 0.291856 0.492462 168 216 135
0.105335 0.291889 0.492227 156 204 123
0.103939 0.291922 0.491992 156 200 136
0.220855 0.398824 0.533152 119 141 110
0.219180 0.398864 0.532870 174 218 152
0.217506 0.398904 0.532588 171 215 149
0.215832 0.398944 0.532306 160 196 131
0.214210 0.399994 0.532218 37 73 8
0.109293 0.291220 0.494210 71 105 56
0.107898 0.291253 0.493975 167 201 152
0.106502 0.291286 0.493740 172 220 141
0.104970 0.292334 0.493667 159 207 128
0.103572 0.292368 0.493432 161 208 136
0.102173 0.292401 0.493196 130 177 105
0.220643 0.399150 0.534883 112 136 106
0.218966 0.399190 0.534600 171 217 150
0.217289 0.399230 0.534318 168 214 147
0.215612 0.399270 0.534036 158 197 131
0.213988 0.400319 0.533950 39 78 12
0.109065 0.290650 0.495488 38 66 28
0.107669 0.290684 0.495253 113 141 103
0.106139 0.291731 0.495183 178 226 149
0.104741 0.291764 0.494947 168 216 139
0.103342 0.291797 0.494712 163 211 134
0.101944 0.291830 0.494477 157 205 128
0.220431 0.399474 0.536618 108 132 104
0.218751 0.399514 0.536336 169 213 147
0.217072 0.399554 0.536053 171 215 149
0.215392 0.399594 0.535770 157 198 131
0.213713 0.399634 0.535487 47 88 21
0.107308 0.291127 0.496698 71 90 62
0.105910 0.291160 0.496463 164 206 136
0.104512 0.291193 0.496228 175 217 147
0.103113 0.291227 0.495992 169 217 138
0.101573 0.292273 0.495923 166 214 135
0.220217 0.399795 0.538359 104 127 102
0.218476 0.398828 0.537873 167 208 143
0.216796 0.398868 0.537591 173 214 149
0.215171 0.399915 0.537509 159 203 137
0.213541 0.400963 0.537427 68 112 46
0.107079 0.290556 0.497979 47 60 43
0.105681 0.290589 0.497743 113 149 88
0.104282 0.290623 0.497508 177 213 152
0.102744 0.291668 0.497441 169 215 135
0.101343 0.291701 0.497205 160 206 126
0.099942 0.291734 0.496969 158 202 134
0.220003 0.400115 0.540104 83 104 80
0.218318 0.400155 0.539820 166 207 140
0.216634 0.400195 0.539536 173 214 147
0.214949 0.400235 0.539253 160 204 138
0.213316 0.401281 0.539172 80 124 58
0.211677 0.402328 0.539091 37 61 29
0.105316 0.291029 0.499195 53 85 36
0.103915 0.291063 0.498959 153 185 136
0.102515 0.291096 0.498724 174 220 140
0.101114 0.291129 0.498488 169 215 135
0.099567 0.292174 0.498422 151 199 122
0.219849 0.401437 0.542061 71 90 64
0.218101 0.400472 0.541569 167 207 138
0.216414 0.400513 0.541285 175 215 146
0.214780 0.401558 0.541207 165 206 139
0.213141 0.402603 0.541128 96 137 70
0.211449 0.402644 0.540843 35 59 29
0.103686 0.290491 0.500242 106 131 96
0.102285 0.290524 0.500006 168 216 137
0.100741 0.291568 0.499943 166 214 135
0.099337 0.291601 0.499707 154 205 121
0.097934 0.291634 0.499471 153 204 120
0.219633 0.401751 0.543817 63 80 54
0.217941 0.401792 0.543532 154 194 125
0.216248 0.401832 0.543247 173 213 144
0.214556 0.401872 0.542963 165 206 139
0.212914 0.402917 0.542886 112 153 86
0.211219 0.402957 0.542600 35 59 29
0.103318 0.290928 0.501701 47 68 44
0.101914 0.290961 0.501464 144 188 122
0.100367 0.292004 0.501403 166 210 144
0.098961 0.292037 0.501167 157 208 122
0.097406 0.293079 0.501104 153 204 118
0.095997 0.293113 0.500867 149 193 129
0.219416 0.402064 0.545579 53 68 43
0.217721 0.402104 0.545293 147 184 116
0.216026 0.402144 0.545008 175 212 144
0.214331 0.402185 0.544723 164 205 138
0.212686 0.403228 0.544648 119 160 93
0.210989 0.403269 0.544362 33 60 27
0.101542 0.291396 0.502927 90 128 73
0.099992 0.292437 0.502868 169 207 152
0.098437 0.293479 0.502808 159 210 126
0.097026 0.293512 0.502571 155 206 122
0.094049 0.294587 0.502271 107 152 79
0.092635 0.294621 0.502033 28 57 25
0.219198 0.402374 0.547345 51 61 38
0.217500 0.402414 0.547059 153 189 126
0.215803 0.402455 0.546773 171 207 144
0.214106 0.402495 0.546487 165 207 137
0.212408 0.402535 0.546202 125 167 97
0.210758 0.403578 0.546128 32 60 24
0.099617 0.292869 0.504338 150 180 141
0.098058 0.293909 0.504279 169 218 134
0.096645 0.293943 0.504041 159 208 124
0.095231 0.293977 0.503803 156 204 123
0.093817 0.294011 0.503565 147 195 114
0.092246 0.295051 0.503505 47 79 40
0.218979 0.402682 0.549115 49 60 39
0.217279 0.402722 0.548829 149 183 122
0.215579 0.402763 0.548543 172 206 145
0.213879 0.402803 0.548257 165 210 139
0.212179 0.402844 0.547971 134 179 108
0.210479 0.402884 0.547684 33 62 21
0.099240 0.293299 0.505812 92 115 90
0.097679 0.294338 0.505756 170 216 140
0.096263 0.294372 0.505517 164 210 134
0.094847 0.294406 0.505279 157 205 124
0.093430 0.294439 0.505040 159 207 126
0.091856 0.295479 0.504982 100 134 85
0.217001 0.402029 0.550386 127 160 102
0.215301 0.402069 0.550099 172 205 147
0.213601 0.402110 0.549813 168 210 138
0.211901 0.402150 0.549527 148 190 118
0.210201 0.402191 0.549241 41 67 23
0.098863 0.293727 0.507291 48 68 51
0.097299 0.294765 0.507236 150 192 122
0.095880 0.294799 0.506997 172 214 144
0.094461 0.294833 0.506759 159 208 124
0.093043 0.294866 0.506520 158 207 123
0.091624 0.294900 0.506281 140 180 120
0.216722 0.401335 0.551942 93 128 74
0.215022 0.401375 0.551656 169 204 150
0.213322 0.401416 0.551370 166 208 136
0.211622 0.401456 0.551083 158 200 128
0.209968 0.402496 0.551016 50 80 30
0.097066 0.294186 0.508535 104 142 83
0.095648 0.294220 0.508296 172 210 151
0.094229 0.294254 0.508058 157 206 120
0.092654 0.295291 0.508004 156 205 119
0.091233 0.295325 0.507765 160 204 136
0.216499 0.401639 0.553722 75 108 54
0.214797 0.401679 0.553435 166 199 145
0.213094 0.401720 0.553148 162 205 130
0.211392 0.401760 0.552862 161 204 129
0.209689 0.401801 0.552575 64 96 45
0.207987 0.401842 0.552289 36 68 17
0.096685 0.294610 0.510023 47 80 34
0.095264 0.294643 0.509784 150 183 137
0.093842 0.294677 0.509544 166 215 131
0.092421 0.294711 0.509305 156 205 121
0.091000 0.294745 0.509066 164 212 133
0.216220 0.400944 0.555280 68 98 48
0.214518 0.400985 0.554994 170 200 150
0.212815 0.401025 0.554707 159 202 127
0.211113 0.401066 0.554421 161 204 129
0.209410 0.401106 0.554134 89 123 72
0.207750 0.402144 0.554071 27 61 10
0.096303 0.295031 0.511515 30 58 20
0.094879 0.295065 0.511276 101 129 91
0.093455 0.295099 0.511036 171 219 140
0.092031 0.295133 0.510796 161 209 130
0.090448 0.296168 0.510746 157 207 126
0.088859 0.297204 0.510695 155 205 124
0.215996 0.401245 0.557067 57 87 37
0.214291 0.401285 0.556780 165 195 145
0.212536 0.400330 0.556266 158 201 126
0.210881 0.401367 0.556206 161 204 129
0.209176 0.401407 0.555919 117 151 100
0.207471 0.401448 0.555632 25 59 8
0.094341 0.296485 0.512966 62 84 53
0.092757 0.297519 0.512918 156 203 129
0.091325 0.297553 0.512677 165 212 138
0.089894 0.297588 0.512436 153 207 122
0.088462 0.297622 0.512195 161 215 130
0.215716 0.400549 0.558628 45 75 27
0.214011 0.400590 0.558341 154 184 136
0.212306 0.400630 0.558054 152 197 124
0.210601 0.400671 0.557767 158 203 130
0.208896 0.400712 0.557480 133 173 117
0.207191 0.400752 0.557193 25 65 9
0.093801 0.297900 0.514665 40 58 35
0.092367 0.297935 0.514423 114 158 90
0.090933 0.297969 0.514182 171 215 147
0.089499 0.298003 0.513940 153 207 122
0.088065 0.298037 0.513699 161 215 130
0.215491 0.400847 0.560422 31 60 17
0.213732 0.399894 0.559902 138 167 124
0.212027 0.399935 0.559615 156 203 129
0.210322 0.399975 0.559328 152 199 125
0.208617 0.400016 0.559041 144 184 124
0.091820 0.299346 0.516131 59 98 36
0.090381 0.299381 0.515889 167 206 144
0.088942 0.299415 0.515646 160 211 125
0.087503 0.299449 0.515404 159 210 124
0.213504 0.400191 0.561698 99 126 93
0.211796 0.400231 0.561410 161 207 138
0.210088 0.400272 0.561123 150 196 127
0.208381 0.400313 0.560835 151 195 127
0.206673 0.400353 0.560548 43 87 19
0.091429 0.299756 0.517648 36 66 16
0.089987 0.299791 0.517405 143 173 123
0.088545 0.299825 0.517163 164 215 131
0.087103 0.299860 0.516920 156 207 123
0.085661 0.299894 0.516677 165 210 137
0.213224 0.399494 0.563261 68 95 66
0.211516 0.399534 0.562974 159 205 140
0.209809 0.399575 0.562686 150 196 131
0.208101 0.399616 0.562399 158 203 132
0.206393 0.399656 0.562111 70 115 44
0.204723 0.400689 0.562059 30 57 26
0.091192 0.299168 0.518968 34 57 21
0.089751 0.299203 0.518725 106 129 93
0.088309 0.299237 0.518483 171 217 139
0.086867 0.299271 0.518240 160 206 128
0.085258 0.300302 0.518198 165 211 133
0.212994 0.399787 0.565064 59 80 56
0.211284 0.399828 0.564776 157 201 137
0.209529 0.398878 0.564250 155 199 135
0.207863 0.399910 0.564200 158 203 130
0.206153 0.399950 0.563912 84 129 56
0.204443 0.399991 0.563624 31 59 23
0.089355 0.299609 0.520249 62 81 55
0.087910 0.299644 0.520006 166 208 136
0.086466 0.299678 0.519763 169 211 139
0.084855 0.300708 0.519723 161 209 130
0.212714 0.399089 0.566630 51 67 44
0.211004 0.399130 0.566342 154 195 132
0.209293 0.399171 0.566054 157 198 135
0.207583 0.399212 0.565766 156 203 129
0.205913 0.400242 0.565718 105 152 78
0.204200 0.400283 0.565429 26 54 18
0.088958 0.300014 0.521778 40 56 35
0.087511 0.300049 0.521534 136 176 116
0.086064 0.300083 0.521291 174 214 154
0.083000 0.301147 0.521008 170 220 141
0.081378 0.302176 0.520968 144 183 130
0.212483 0.399380 0.568439 45 56 35
0.210770 0.399421 0.568151 136 172 111
0.209057 0.399462 0.567863 162 198 137
0.207345 0.399502 0.567574 155 203 126
0.205632 0.399543 0.567286 129 177 100
0.203956 0.400572 0.567239 27 57 18
0.086948 0.301445 0.523275 91 127 80
0.085496 0.301480 0.523031 175 211 164
0.084044 0.301514 0.522787 163 213 136
0.082422 0.302543 0.522749 167 217 140
0.080794 0.303571 0.522711 164 207 150
0.212251 0.399668 0.570254 43 54 33
0.210489 0.398722 0.569719 112 146 85
0.208777 0.398763 0.569431 166 200 139
0.207105 0.399791 0.569387 150 198 121
0.205390 0.399832 0.569098 143 191 114
0.203675 0.399873 0.568810 30 63 21
0.086384 0.302837 0.525026 51 84 42
0.084926 0.302872 0.524781 162 195 153
0.083469 0.302907 0.524535 173 222 148
0.081841 0.303934 0.524499 167 216 142
0.080382 0.303969 0.524253 173 219 154
0.210255 0.399009 0.571535 95 128 72
0.208539 0.399050 0.571247 165 198 142
0.206824 0.399091 0.570958 147 194 122
0.205109 0.399132 0.570669 149 196 124
0.203465 0.401146 0.570873 39 75 30
0.085817 0.304225 0.526786 30 58 20
0.084355 0.304260 0.526539 142 170 132
0.082893 0.304295 0.526293 176 221 148
0.081431 0.304330 0.526047 165 210 137
0.079794 0.305356 0.526012 174 218 150
0.209974 0.398309 0.573106 89 120 74
0.208301 0.399335 0.573067 164 195 149
0.206583 0.399376 0.572778 145 193 124
0.204903 0.400403 0.572738 150 198 129
0.203183 0.400443 0.572448 72 111 60
0.085413 0.304619 0.528339 27 52 17
0.083949 0.304654 0.528093 99 124 89
0.082484 0.304689 0.527846 173 218 147
0.081019 0.304723 0.527600 170 215 144
0.079554 0.304758 0.527353 177 221 153
0.209782 0.399578 0.575182 67 98 56
0.208020 0.398634 0.574640 162 193 151
0.206342 0.399660 0.574602 142 190 123
0.204621 0.399701 0.574313 153 201 134
0.202936 0.400726 0.574274 102 141 88
0.201245 0.401751 0.574235 23 62 9
0.083541 0.305045 0.529651 62 84 55
0.082074 0.305080 0.529404 169 210 143
0.080607 0.305115 0.529157 176 217 150
0.078965 0.306139 0.529126 173 217 149
0.209501 0.398876 0.576757 46 74 38
0.207780 0.398916 0.576467 157 185 149
0.206060 0.398957 0.576178 144 190 123
0.204376 0.399982 0.576142 155 201 134
0.202653 0.400023 0.575852 115 155 99
0.200962 0.401047 0.575815 20 60 4
0.083133 0.305435 0.531214 49 65 42
0.081664 0.305470 0.530966 147 188 125
0.080021 0.306493 0.530938 173 214 151
0.078549 0.306528 0.530690 163 209 140
0.077076 0.306563 0.530442 165 211 142
0.209263 0.399156 0.578589 42 66 34
0.207540 0.399197 0.578299 137 161 129
0.205817 0.399238 0.578009 156 200 134
0.204094 0.399279 0.577719 153 197 131
0.202405 0.400302 0.577685 128 171 114
0.200711 0.401326 0.577650 20 63 6
0.082389 0.307796 0.533225 38 53 37
0.080911 0.307831 0.532976 122 160 103
0.079433 0.307867 0.532727 172 210 153
0.077780 0.308889 0.532699 161 208 136
0.076300 0.308924 0.532450 165 212 140
0.209024 0.399434 0.580427 40 59 29
0.207299 0.399475 0.580136 130 149 119
0.205573 0.399516 0.579846 158 199 136
0.203848 0.399557 0.579555 153 194 131
0.202122 0.399598 0.579265 146 189 130
0.200428 0.400620 0.579232 38 81 22
0.080156 0.310187 0.535000 97 132 78
0.078671 0.310222 0.534750 171 206 152
0.077185 0.310258 0.534500 158 203 130
0.075700 0.310293 0.534250 164 209 136
0.208785 0.399709 0.582269 42 59 29
0.207016 0.398771 0.581716 110 127 97
0.205290 0.398812 0.581426 157 198 135
0.203601 0.399833 0.581396 148 189 126
0.201873 0.399874 0.581105 152 195 134
0.200144 0.399915 0.580814 48 91 30
0.079741 0.310566 0.536586 81 113 62
0.078253 0.310601 0.536335 165 197 146
0.076766 0.310637 0.536085 157 202 129
0.075278 0.310672 0.535834 159 204 131
0.208545 0.399983 0.584115 38 57 27
0.206774 0.399045 0.583560 86 105 75
0.205046 0.399087 0.583269 158 199 136
0.203317 0.399128 0.582978 144 185 122
0.201589 0.399169 0.582687 155 200 138
0.199891 0.400189 0.582659 55 100 38
0.079154 0.311927 0.538405 68 95 48
0.077661 0.311963 0.538153 163 190 143
0.076168 0.311998 0.537902 153 198 125
0.074675 0.312034 0.537651 160 205 132
0.206530 0.399318 0.585409 72 91 63
0.204800 0.399359 0.585117 155 196 133
0.203069 0.399401 0.584826 144 185 122
0.201338 0.399442 0.584535 151 196 134
0.199608 0.399483 0.584243 72 117 55
0.078220 0.315250 0.540694 53 79 35
0.076717 0.315286 0.540441 156 182 138
0.075214 0.315322 0.540188 158 203 130
0.073711 0.315357 0.539935 162 207 134
0.206247 0.398612 0.586993 56 72 51
0.204516 0.398653 0.586702 145 188 129
0.202786 0.398694 0.586410 144 187 128
0.201055 0.398736 0.586119 147 195 130
0.199354 0.399754 0.586095 105 153 88
0.197620 0.399795 0.585803 23 53 16
0.077456 0.317583 0.542770 41 67 23
0.075945 0.317619 0.542515 151 177 133
0.074434 0.317655 0.542261 157 202 131
0.206002 0.398882 0.588849 45 62 44
0.204269 0.398923 0.588557 136 179 122
0.202536 0.398964 0.588265 145 188 131
0.200803 0.399006 0.587973 148 194 129
0.199070 0.399047 0.587682 123 169 104
0.197336 0.399088 0.587390 24 54 17
0.077035 0.317947 0.544388 37 63 21
0.075522 0.317983 0.544133 146 172 130
0.074008 0.318019 0.543879 151 196 125
0.072495 0.318055 0.543624 157 202 131
0.205718 0.398174 0.590436 44 61 45
0.203985 0.398216 0.590144 133 172 119
0.202252 0.398257 0.589852 150 189 136
0.200519 0.398298 0.589560 141 187 122
0.198786 0.398340 0.589268 130 176 111
0.197052 0.398381 0.588977 30 60 21
0.205434 0.397467 0.592022 44 59 43
0.203701 0.397509 0.591731 125 162 112
0.201968 0.397550 0.591439 154 191 141
0.200235 0.397591 0.591147 137 183 116
0.198502 0.397632 0.590855 140 186 119
0.196794 0.398648 0.590837 39 70 28
0.205188 0.397733 0.593887 43 56 41
0.203417 0.396801 0.593317 115 149 100
0.201684 0.396842 0.593026 153 187 138
0.199951 0.396884 0.592734 140 186 117
0.198245 0.397898 0.592718 144 190 121
0.196510 0.397940 0.592426 49 82 40
0.076087 0.325836 0.551228 37 43 26
0.074722 0.324895 0.550727 89 102 71
0.073186 0.324931 0.550468 185 198 167
0.071649 0.324968 0.550209 172 191 151
0.204904 0.397024 0.595476 43 53 39
0.203168 0.397066 0.595184 102 134 83
0.201400 0.396135 0.594612 159 191 140
0.199697 0.397148 0.594600 138 184 115
0.197961 0.397190 0.594308 145 191 122
0.196250 0.398203 0.594294 56 92 49
0.075318 0.328138 0.553373 71 75 50
0.073771 0.328175 0.553112 111 124 93
0.072225 0.328212 0.552852 204 217 186
0.070678 0.328249 0.552591 211 226 197
0.202884 0.396357 0.596773 60 90 40
0.201148 0.396399 0.596481 160 190 140
0.199412 0.396440 0.596189 140 186 119
0.197676 0.396482 0.595897 147 193 126
0.195965 0.397494 0.595885 68 104 61
0.202633 0.396619 0.598647 54 81 32
0.200863 0.395691 0.598070 159 186 137
0.199128 0.395732 0.597778 139 183 117
0.197418 0.396743 0.597769 149 193 127
0.195704 0.397754 0.597760 80 116 73
0.193984 0.398766 0.597749 25 61 18
0.067808 0.405654 0.577623 87 89 76
0.202348 0.395910 0.600239 48 74 30
0.200610 0.395951 0.599946 152 178 134
0.198872 0.395992 0.599654 142 186 122
0.197134 0.396034 0.599361 146 190 126
0.195419 0.397044 0.599354 90 126 79
0.193719 0.399023 0.599630 25 61 14
0.067358 0.405911 0.579483 55 57 46
0.202064 0.395200 0.601830 42 68 28
0.200325 0.395242 0.601538 151 177 137
0.198587 0.395283 0.601245 143 188 126
0.196849 0.395324 0.600952 145 190 128
0.195133 0.396334 0.600947 103 139 92
0.193433 0.398311 0.601229 26 62 15
0.067070 0.405195 0.581091 37 39 26
0.065314 0.405237 0.580795 43 52 34
0.201811 0.395457 0.603714 38 63 26
0.200040 0.394532 0.603129 137 162 125
0.198302 0.394574 0.602837 144 189 127
0.196589 0.395582 0.602834 143 188 126
0.194871 0.396590 0.602831 108 144 97
0.193147 0.397599 0.602827 27 63 16
0.066454 0.406421 0.583216 50 52 39
0.201526 0.394747 0.605307 38 62 30
0.199785 0.394789 0.605014 130 154 122
0.198045 0.394830 0.604721 145 190 128
0.196304 0.394871 0.604428 141 186 124
0.194585 0.395879 0.604427 116 155 104
0.192881 0.397852 0.604718 29 68 17
0.066166 0.405702 0.584829 86 88 75
0.201273 0.395001 0.607198 39 63 33
0.199500 0.394078 0.606608 116 140 110
0.197759 0.394120 0.606315 145 192 132
0.196043 0.395126 0.606317 136 183 123
0.194321 0.396132 0.606318 128 168 112
0.192613 0.398103 0.606613 27 67 11
0.200987 0.394290 0.608794 39 63 35
0.199244 0.394331 0.608500 110 134 106
0.197500 0.394373 0.608207 144 194 133
0.195781 0.395378 0.608211 131 181 120
0.194056 0.396383 0.608214 136 179 122
0.192345 0.398352 0.608513 30 73 16
0.200733 0.394541 0.610691 39 62 37
0.198958 0.393620 0.610097 106 129 104
0.197241 0.394624 0.610103 145 195 136
0.195495 0.394665 0.609809 127 177 118
0.193791 0.396632 0.610114 141 184 127
0.192076 0.398599 0.610417 32 75 18
0.200447 0.393828 0.612290 36 62 36
0.198701 0.393870 0.611996 100 126 100
0.196955 0.393911 0.611702 144 194 135
0.195232 0.394915 0.611710 129 179 120
0.193524 0.396879 0.612019 141 184 123
0.191788 0.397883 0.612025 37 80 19
0.200191 0.394076 0.614194 38 64 40
0.198415 0.393157 0.613594 99 125 101
0.196669 0.393199 0.613300 145 192 132
0.194968 0.395162 0.613615 134 181 121
0.193237 0.396164 0.613625 142 186 122
0.199874 0.392403 0.615487 40 66 40
0.198128 0.392445 0.615193 95 121 95
0.196382 0.392486 0.614899 143 190 130
0.194681 0.394447 0.615219 133 180 120
0.192969 0.396408 0.615537 143 187 123
0.199618 0.392649 0.617396 38 64 40
0.197869 0.392691 0.617101 92 118 94
0.196121 0.392732 0.616807 147 192 132
0.194416 0.394691 0.617131 135 180 120
0.192681 0.395691 0.617145 142 186 122
0.197583 0.391977 0.618702 80 103 78
0.195858 0.392976 0.618720 148 193 133
0.194128 0.393975 0.618737 136 181 121
0.190653 0.395974 0.618767 64 107 46
0.197296 0.391264 0.620303 74 93 67
0.195571 0.392262 0.620323 148 191 132
0.193841 0.393260 0.620342 138 181 122
0.190365 0.395256 0.620378 74 117 56
0.197035 0.391505 0.622221 66 85 59
0.195284 0.391547 0.621926 147 192 132
0.193554 0.392544 0.621948 140 185 125
0.190077 0.394538 0.621988 82 125 66
0.188344 0.396491 0.622322 38 61 36
0.198527 0.391703 0.624439 49 68 42
0.196748 0.390791 0.623824 63 82 56
0.194997 0.390832 0.623529 145 188 127
0.193266 0.391828 0.623553 139 182 121
0.189789 0.393821 0.623598 91 134 75
0.188055 0.395771 0.623937 38 61 36
0.198240 0.390987 0.626044 42 61 35
0.196461 0.390076 0.625427 63 82 56
0.194710 0.390118 0.625133 144 187 128
0.192979 0.391113 0.625159 138 181 122
0.189501 0.393103 0.625208 97 142 82
0.187766 0.395052 0.625551 41 64 39
0.197952 0.390272 0.627650 38 59 35
0.196175 0.389362 0.627031 57 78 54
0.194423 0.389403 0.626736 143 186 127
0.192692 0.390397 0.626764 143 186 127
0.189213 0.392385 0.626819 92 137 77
0.187477 0.394332 0.627166 38 64 38
0.195888 0.388647 0.628634 60 81 57
0.194137 0.388689 0.628339 144 189 131
0.192404 0.389682 0.628370 141 186 128
0.188924 0.391668 0.628429 93 138 78
0.187188 0.393612 0.628781 42 69 40
0.195577 0.386983 0.629908 61 82 58
0.193850 0.387974 0.629942 146 189 132
0.192117 0.388966 0.629975 138 181 124
0.188649 0.391900 0.630366 86 129 70
0.186910 0.393843 0.630723 42 66 38
0.195245 0.384371 0.630847 60 81 57
0.193542 0.386311 0.631215 148 191 134
0.191830 0.388250 0.631581 141 184 127
0.188348 0.390232 0.631649 87 130 71
0.186620 0.393122 0.632340 41 65 37
0.196904 0.391201 0.635408 41 62 40
0.194981 0.384608 0.632777 64 85 63
0.193256 0.385597 0.632816 148 191 134
0.191542 0.387535 0.633187 146 189 132
0.188072 0.390463 0.633591 90 135 75
0.186331 0.392401 0.633957 45 69 41
0.196466 0.384800 0.635005 40 61 39
0.194673 0.382948 0.634039 69 90 68
0.192969 0.384884 0.634417 144 188 133
0.191255 0.386819 0.634792 142 186 131
0.187784 0.389744 0.635204 84 129 69
0.196155 0.383141 0.636268 40 62 42
0.194366 0.381291 0.635298 70 92 72
0.192683 0.384170 0.636018 142 188 135
0.190968 0.386104 0.636398 135 181 128
0.187507 0.389971 0.637153 83 128 68
0.194059 0.379636 0.636551 82 108 84
0.192396 0.383457 0.637618 143 189 136
0.188940 0.386375 0.638047 141 186 126
0.187218 0.389251 0.638768 76 121 61
0.195512 0.378885 0.638435 35 61 37
0.193753 0.377983 0.637800 88 114 90
0.192091 0.381799 0.638877 142 188 135
0.188653 0.385658 0.639655 143 188 128
0.186929 0.388532 0.640383 67 112 52
0.195205 0.377234 0.639681 32 57 36
0.193489 0.378217 0.639734 90 115 94
0.191805 0.381087 0.640475 139 188 132
0.188378 0.385884 0.641607 140 185 125
0.186640 0.387812 0.641998 60 105 45
0.194943 0.377467 0.641618 36 62 38
0.193205 0.377508 0.641325 94 120 96
0.191554 0.382258 0.642768 138 188 129
0.188102 0.386108 0.643563 138 183 121
0.186361 0.388034 0.643958 49 94 32
0.194658 0.376757 0.643210 35 60 39
0.192939 0.377739 0.643267 99 124 103
0.191267 0.381543 0.644371 139 189 130
0.187813 0.385390 0.645176 138 183 121
0.186071 0.387313 0.645575 44 89 27
0.194329 0.374169 0.644096 32 58 32
0.192635 0.376089 0.644508 101 127 101
0.190980 0.380829 0.645974 142 194 134
0.187536 0.385611 0.647139 137 180 121
0.185782 0.386592 0.647193 35 78 19
0.194045 0.373462 0.645683 33 57 29
0.192350 0.375380 0.646100 113 137 109
0.190693 0.380114 0.647578 144 196 136
0.187247 0.384891 0.648754 133 177 122
0.185501 0.386810 0.649163 31 75 20
0.193761 0.372755 0.647270 39 63 33
0.192065 0.374671 0.647691 125 149 119
0.190422 0.380337 0.649537 143 195 135
0.186958 0.384171 0.650369 123 167 114
0.185211 0.386088 0.650782 29 73 20
0.193477 0.372047 0.648856 38 65 34
0.191780 0.373961 0.649283 134 161 130
0.188381 0.379663 0.650848 128 180 120
0.186669 0.383451 0.651984 116 159 109
0.184929 0.386303 0.652759 26 69 19
0.193173 0.370405 0.650081 38 68 31
0.191496 0.373252 0.650875 141 171 134
0.188094 0.378948 0.652453 130 182 120
0.186380 0.382731 0.653599 99 142 94
0.184639 0.385580 0.654381 23 66 18
0.192890 0.369699 0.651666 39 71 34
0.191228 0.373477 0.652830 142 174 137
0.187819 0.379166 0.654422 129 181 121
0.186091 0.382012 0.655214 91 132 87
0.184355 0.385792 0.656365 22 63 18
0.192587 0.368059 0.652884 47 81 46
0.190926 0.371833 0.654058 144 178 143
0.187531 0.378450 0.656030 129 181 121
0.185802 0.381292 0.656829 80 122 79
0.194075 0.369177 0.655496 38 54 43
0.192304 0.367354 0.654466 66 105 68
0.190641 0.371124 0.655649 145 184 147
0.187243 0.377733 0.657638 132 183 126
0.185513 0.380572 0.658444 70 110 70
0.193770 0.367539 0.656711 38 55 41
0.192002 0.365718 0.655677 91 130 93
0.190356 0.370415 0.657241 144 183 146
0.186956 0.377016 0.659245 132 181 125
0.185224 0.379852 0.660059 63 98 60
0.444687 0.400859 0.716521 29 42 37
0.443212 0.401825 0.716643 30 43 38
0.441369 0.401869 0.716333 32 45 40
0.439526 0.401913 0.716022 30 41 37
0.437683 0.401957 0.715712 29 40 36
0.193465 0.365903 0.657921 37 54 40
0.191701 0.364084 0.656883 105 147 106
0.190071 0.369705 0.658832 138 180 139
0.186668 0.376300 0.660853 131 182 125
0.184927 0.378202 0.661302 49 81 44
0.446596 0.400985 0.718951 30 43 38
0.444753 0.401029 0.718641 31 44 39
0.442910 0.401073 0.718330 32 45 40
0.441067 0.401117 0.718020 33 46 41
0.439224 0.401161 0.717710 31 43 35
0.437381 0.401205 0.717400 29 41 33
0.435538 0.401249 0.717089 39 47 44
0.193142 0.363340 0.658750 40 55 39
0.191419 0.363381 0.658460 113 156 110
0.189756 0.367138 0.659672 134 177 131
0.188048 0.369037 0.660131 122 174 114
0.184624 0.375625 0.662166 37 67 30
0.446294 0.400233 0.720639 32 43 39
0.444451 0.400277 0.720328 32 43 39
0.442608 0.400321 0.720018 34 46 38
0.440765 0.400365 0.719708 34 46 38
0.438922 0.400409 0.719397 30 42 34
0.437079 0.400453 0.719087 27 39 31
0.435236 0.400496 0.718777 31 39 36
0.192840 0.361708 0.659949 44 59 41
0.191119 0.361749 0.659659 123 166 116
0.189458 0.365503 0.660881 140 183 133
0.187739 0.366472 0.660968 123 175 115
0.186064 0.372082 0.662938 116 168 108
0.445992 0.399481 0.722326 39 47 44
0.444149 0.399525 0.722016 40 48 45
0.442306 0.399569 0.721705 38 49 45
0.440463 0.399613 0.721395 36 47 43
0.438620 0.399657 0.721085 26 37 33
0.436777 0.399700 0.720775 26 37 33
0.434934 0.399744 0.720464 29 37 34
0.192519 0.359153 0.660762 53 74 52
0.190821 0.360121 0.660854 129 175 122
0.189160 0.363869 0.662086 132 178 125
0.187443 0.364838 0.662175 123 174 117
0.185750 0.368587 0.663401 95 146 89
0.443481 0.397855 0.723261 39 47 44
0.441640 0.397899 0.722951 36 44 43
0.439799 0.397943 0.722641 34 42 41
0.437959 0.397987 0.722332 26 37 35
0.436475 0.398948 0.722462 26 37 35
0.434632 0.398992 0.722152 31 39 38
0.192219 0.357527 0.661949 60 83 58
0.190523 0.358494 0.662044 133 179 126
0.188863 0.362238 0.663285 128 174 121
0.187171 0.365057 0.664141 126 175 119
0.443179 0.397104 0.724946 39 47 44
0.440975 0.396231 0.724193 32 45 44
0.437657 0.397236 0.724017 28 41 38
0.435817 0.397280 0.723707 31 44 41
0.434330 0.398240 0.723839 39 45 43
0.193630 0.355863 0.663419 32 59 30
0.191920 0.355903 0.663131 75 102 73
0.190226 0.356869 0.663229 133 179 126
0.188513 0.356910 0.662940 124 170 117
0.186865 0.362500 0.664959 131 177 122
0.442512 0.395438 0.726185 43 52 45
0.440674 0.395481 0.725875 26 41 36
0.438836 0.395525 0.725566 24 39 34
0.435515 0.396528 0.725392 38 50 42
0.434028 0.397488 0.725527 43 50 44
0.193329 0.354241 0.664596 26 53 24
0.191621 0.354282 0.664309 104 131 102
0.189914 0.354322 0.664021 133 179 124
0.188206 0.354363 0.663734 126 172 117
0.186520 0.356252 0.664220 130 172 120
0.441845 0.393773 0.727419 60 75 61
0.440010 0.393817 0.727110 44 69 50
0.438534 0.394775 0.727249 33 58 39
0.435214 0.395777 0.727077 38 53 37
0.193049 0.353544 0.666160 30 59 27
0.191342 0.353585 0.665872 127 156 124
0.189634 0.353626 0.665585 131 177 122
0.187926 0.353666 0.665297 127 173 118
0.186219 0.353707 0.665010 121 160 109
0.443012 0.392067 0.728956 83 103 84
0.441179 0.392111 0.728648 103 123 104
0.439346 0.392154 0.728339 94 125 95
0.437873 0.393112 0.728481 79 110 80
0.434912 0.395026 0.728762 43 60 42
0.192750 0.351926 0.667330 46 77 43
0.191044 0.351966 0.667043 135 166 132
0.189339 0.352007 0.666756 125 172 112
0.187634 0.352048 0.666469 129 176 116
0.185929 0.352088 0.666182 105 141 94
0.442712 0.391319 0.730634 101 125 97
0.440879 0.391363 0.730326 106 130 102
0.439046 0.391406 0.730017 82 117 79
0.437573 0.392363 0.730161 81 116 78
0.436094 0.393319 0.730305 52 73 49
0.192470 0.351230 0.668891 64 99 59
0.190765 0.351271 0.668604 134 169 129
0.189060 0.351311 0.668317 123 173 112
0.187355 0.351352 0.668030 129 179 118
0.185650 0.351392 0.667743 80 116 73
0.442045 0.389660 0.731856 107 135 99
0.440215 0.389704 0.731548 100 128 92
0.438746 0.390659 0.731695 80 115 77
0.437272 0.391614 0.731842 78 113 75
0.435793 0.392569 0.731988 48 71 46
0.193874 0.349574 0.670341 37 52 36
0.192172 0.349615 0.670054 79 120 75
0.190469 0.349655 0.669768 132 173 128
0.188767 0.349696 0.669481 121 171 110
0.187064 0.349736 0.669194 126 176 115
0.441379 0.388003 0.733073 109 137 99
0.439551 0.388046 0.732765 96 124 86
0.438445 0.389911 0.733373 81 116 76
0.436613 0.389954 0.733065 81 116 76
0.435492 0.391819 0.733670 46 72 48
0.193574 0.347961 0.671499 35 55 38
0.191893 0.348920 0.671613 109 152 104
0.190190 0.348961 0.671326 130 173 125
0.188488 0.349001 0.671040 123 173 112
0.186785 0.349042 0.670753 119 169 108
0.440348 0.385439 0.733824 109 138 97
0.438888 0.386391 0.733978 96 125 84
0.437424 0.387344 0.734131 80 118 74
0.436312 0.389206 0.734743 77 115 71
0.435191 0.391069 0.735353 45 71 47
0.193296 0.347267 0.673055 44 67 44
0.191596 0.347308 0.672769 121 166 116
0.189896 0.347348 0.672483 123 168 118
0.188196 0.347389 0.672197 124 174 113
0.186506 0.348347 0.672312 101 151 90
0.439318 0.382879 0.734566 111 140 97
0.438226 0.384739 0.735186 97 126 83
0.437124 0.386598 0.735804 70 108 64
0.436012 0.388458 0.736421 75 113 69
0.434889 0.390319 0.737036 40 66 40
0.193017 0.346574 0.674612 69 95 69
0.191317 0.346614 0.674326 125 174 118
0.189617 0.346655 0.674039 117 166 110
0.187917 0.346695 0.673753 127 174 114
0.439735 0.379373 0.735137 72 83 62
0.438290 0.380323 0.735299 111 140 97
0.437203 0.382181 0.735924 95 124 81
0.436105 0.384038 0.736548 70 108 64
0.435712 0.387711 0.738099 76 114 70
0.434234 0.388661 0.738255 43 69 43
0.194416 0.344924 0.676046 27 58 26
0.192719 0.344965 0.675761 101 132 100
0.191021 0.345005 0.675475 122 172 113
0.187639 0.346001 0.675310 128 175 117
0.185939 0.346042 0.675023 38 85 27
0.438704 0.376822 0.735857 75 89 67
0.437264 0.377771 0.736022 110 143 99
0.435819 0.378721 0.736185 93 126 82
0.435447 0.382388 0.737749 81 119 75
0.434697 0.385150 0.738844 73 111 67
0.433578 0.387006 0.739469 39 65 41
0.194116 0.343317 0.677190 33 67 32
0.192421 0.343358 0.676904 119 153 118
0.190726 0.343398 0.676619 120 172 110
0.189046 0.344353 0.676743 116 168 106
0.437675 0.374276 0.736568 79 95 74
0.436240 0.375224 0.736735 109 147 101
0.434799 0.376172 0.736902 81 119 73
0.434431 0.379835 0.738477 75 116 71
0.433685 0.382594 0.739579 60 101 56
0.433278 0.386258 0.741147 44 70 46
0.193816 0.341713 0.678329 52 87 47
0.192124 0.341753 0.678044 126 161 121
0.190432 0.341793 0.677759 119 169 106
0.188754 0.342747 0.677886 123 173 110
0.433781 0.373628 0.737610 88 129 82
0.432699 0.375479 0.738250 70 113 67
0.432318 0.379138 0.739833 56 99 53
0.432624 0.384606 0.742354 49 75 51
0.195208 0.340070 0.679747 35 49 38
0.193518 0.340110 0.679463 83 121 75
0.191828 0.340150 0.679178 124 162 116
0.190139 0.340191 0.678894 119 167 102
0.188462 0.341143 0.679023 133 181 116
0.434524 0.366488 0.736534 82 105 82
0.432765 0.371087 0.738308 87 129 86
0.431686 0.372936 0.738954 70 112 69
0.431618 0.382053 0.743083 46 69 46
0.194908 0.338469 0.680877 40 57 39
0.193220 0.338510 0.680593 110 149 96
0.191533 0.338550 0.680308 123 162 109
0.189846 0.338590 0.680025 125 171 106
0.432770 0.362154 0.736253 87 110 87
0.431029 0.366747 0.738042 91 133 90
0.431034 0.371300 0.740125 74 116 75
0.430261 0.378602 0.743327 47 70 47
0.194608 0.336871 0.682001 67 84 66
0.192924 0.336911 0.681717 122 165 108
0.191239 0.336951 0.681434 121 164 107
0.189554 0.336991 0.681150 129 173 109
0.431385 0.358729 0.736435 88 109 87
0.430346 0.360572 0.737097 107 149 108
0.429667 0.367864 0.740334 73 113 71
0.429611 0.376959 0.744512 50 71 49
0.196017 0.336143 0.683827 32 55 32
0.194332 0.336183 0.683543 95 118 95
0.192648 0.336224 0.683260 124 167 108
0.190946 0.335355 0.682554 121 164 105
0.189278 0.336304 0.682693 138 178 118
0.428544 0.351711 0.734671 89 110 88
0.428608 0.356251 0.736788 110 150 110
0.428287 0.359892 0.738419 96 136 96
0.427230 0.366276 0.741190 62 99 58
0.195716 0.334548 0.684944 30 61 31
0.194034 0.334588 0.684661 112 143 113
0.192352 0.334628 0.684378 117 164 104
0.190670 0.334668 0.684094 121 168 108
0.426801 0.347404 0.734330 84 105 83
0.426150 0.350141 0.735491 112 149 108
0.426202 0.354677 0.737618 94 131 90
0.425159 0.356516 0.738290 86 124 80
0.197096 0.332915 0.686339 32 46 35
0.195416 0.332955 0.686056 61 97 61
0.193737 0.332995 0.685773 124 160 124
0.192057 0.333035 0.685491 118 165 105
0.190394 0.333982 0.685634 127 174 114
0.426153 0.345798 0.735432 76 94 73
0.424419 0.345839 0.735140 116 154 110
0.423045 0.346778 0.735335 95 133 89
0.420953 0.345922 0.734556 82 123 78
0.196821 0.332230 0.687877 29 49 34
0.195141 0.332270 0.687594 98 139 92
0.193462 0.332310 0.687311 122 163 116
0.191782 0.332350 0.687028 119 164 102
0.190103 0.332390 0.686746 134 179 117
0.424052 0.340608 0.734570 65 81 60
0.422692 0.341546 0.734770 116 154 106
0.420969 0.341587 0.734480 97 135 87
0.196519 0.330640 0.688982 52 77 56
0.194842 0.330680 0.688699 116 160 105
0.193166 0.330720 0.688417 120 164 109
0.191507 0.331664 0.688566 125 170 108
0.422681 0.337219 0.734670 64 78 56
0.420968 0.337260 0.734381 117 154 104
0.419256 0.337301 0.734093 108 145 95
0.417188 0.336446 0.733314 82 124 72
0.197893 0.329012 0.690364 25 53 28
0.196219 0.329052 0.690082 88 116 91
0.194545 0.329092 0.689800 119 166 108
0.192870 0.329132 0.689518 114 161 103
0.191214 0.330075 0.689670 134 179 119
0.197619 0.328329 0.691897 42 73 41
0.195945 0.328369 0.691615 113 144 112
0.194270 0.328408 0.691333 116 163 103
0.192596 0.328448 0.691051 121 168 108
0.198989 0.326704 0.693271 33 50 36
0.197318 0.326744 0.692989 81 118 77
0.195646 0.326784 0.692708 118 155 114
0.193974 0.326824 0.692426 116 163 103
0.192322 0.327765 0.692584 129 176 116
0.198715 0.326022 0.694801 43 63 46
0.197044 0.326062 0.694520 103 144 95
0.195372 0.326102 0.694238 114 155 106
0.193700 0.326141 0.693957 125 172 112
0.192028 0.326181 0.693676 128 175 115
0.200082 0.324401 0.696168 31 57 31
0.198413 0.324440 0.695887 80 106 80
0.196743 0.324480 0.695606 112 158 103
0.195074 0.324520 0.695325 113 159 104
0.193426 0.325459 0.695488 133 178 118
0.199777 0.322821 0.697248 41 73 36
0.198110 0.322861 0.696967 105 137 100
0.196470 0.323799 0.697134 109 156 96
0.194800 0.323839 0.696853 125 172 112
0.193131 0.323879 0.696572 138 180 126
0.201104 0.320307 0.698152 41 58 40
0.199473 0.321244 0.698323 84 118 69
0.197809 0.321284 0.698043 117 151 102
0.196171 0.322221 0.698213 119 164 102
0.194504 0.322260 0.697932 136 181 119
0.192858 0.323197 0.698100 110 143 97
0.200832 0.319629 0.699674 67 88 64
0.199170 0.319669 0.699394 110 148 91
0.197509 0.319709 0.699114 106 144 87
0.195872 0.320644 0.699287 130 174 110
0.194208 0.320684 0.699006 135 179 115
0.202151 0.317122 0.700563 35 63 27
0.200495 0.317161 0.700284 95 123 87
0.198868 0.318096 0.700460 112 153 90
0.197209 0.318135 0.700181 112 153 90
0.195575 0.319070 0.700356 139 179 119
0.193913 0.319110 0.700076 88 128 68
0.409041 0.315984 0.739218 118 150 113
0.407372 0.316024 0.738937 118 150 113
0.203462 0.314619 0.701441 36 49 36
0.201846 0.315552 0.701621 66 97 53
0.200192 0.315592 0.701343 112 143 99
0.198567 0.316525 0.701522 109 150 83
0.196937 0.317458 0.701700 129 170 103
0.195278 0.317498 0.701421 124 162 107
0.407715 0.312647 0.739204 92 119 86
0.406053 0.312687 0.738924 132 159 126
0.404391 0.312727 0.738644 93 137 82
0.402730 0.312766 0.738365 84 128 73
0.203155 0.313052 0.702491 53 68 50
0.201506 0.313092 0.702214 104 141 89
0.199889 0.314024 0.702397 110 147 95
0.198267 0.314956 0.702578 119 160 93
0.196639 0.315888 0.702759 141 182 115
0.407442 0.311969 0.740725 49 71 42
0.405433 0.311125 0.739929 135 157 128
0.403774 0.311164 0.739650 114 156 104
0.402115 0.311204 0.739371 88 130 78
0.400456 0.311243 0.739091 78 119 74
0.204495 0.311449 0.703815 40 64 34
0.202885 0.312379 0.704001 82 106 76
0.201236 0.312419 0.703723 107 147 87
0.199587 0.312458 0.703446 116 156 96
0.197939 0.312497 0.703168 133 174 111
0.196316 0.313429 0.703352 105 146 83
0.404813 0.309564 0.740930 108 124 101
0.403157 0.309604 0.740651 131 169 121
0.401500 0.309643 0.740372 102 140 92
0.399844 0.309683 0.740093 77 120 72
0.397512 0.307955 0.738781 65 108 60
0.205831 0.309847 0.705132 44 57 44
0.204225 0.310777 0.705322 58 88 49
0.202579 0.310816 0.705045 106 136 97
0.200933 0.310855 0.704768 109 153 89
0.199317 0.311785 0.704955 129 173 109
0.197668 0.311825 0.704678 128 167 114
0.403847 0.307124 0.741405 72 85 70
0.402196 0.307163 0.741127 135 168 124
0.400544 0.307203 0.740849 124 157 113
0.398553 0.306360 0.740052 84 129 79
0.396905 0.306399 0.739774 79 124 74
0.394921 0.305556 0.738978 62 93 61
0.205561 0.309176 0.706637 57 75 54
0.203918 0.309215 0.706360 94 131 79
0.202274 0.309255 0.706084 104 141 89
0.199017 0.310223 0.705998 138 182 116
0.401581 0.305608 0.742117 108 136 100
0.399590 0.304766 0.741317 137 165 129
0.397944 0.304806 0.741040 101 145 92
0.396298 0.304845 0.740762 81 125 72
0.394317 0.304003 0.739964 76 112 69
0.206893 0.307578 0.707947 45 72 39
0.205252 0.307617 0.707671 93 120 87
0.202004 0.308584 0.707589 112 153 90
0.200361 0.308623 0.707312 146 187 124
0.400967 0.304055 0.743101 65 87 60
0.398979 0.303214 0.742300 138 160 133
0.397336 0.303254 0.742023 124 166 112
0.395692 0.303293 0.741746 84 126 72
0.393714 0.302451 0.740946 74 116 64
0.208220 0.305982 0.709251 44 61 45
0.206582 0.306021 0.708975 78 114 69
0.204983 0.306947 0.709173 104 140 95
0.203342 0.306986 0.708897 115 156 91
0.201701 0.307026 0.708621 139 180 115
0.398710 0.302544 0.743804 99 115 94
0.396728 0.301704 0.743001 137 176 125
0.395087 0.301743 0.742725 109 148 97
0.393112 0.300902 0.741923 84 128 73
0.391474 0.300941 0.741647 81 125 70
0.209450 0.302616 0.709595 34 58 30
0.207863 0.303541 0.709798 74 98 70
0.206271 0.304466 0.709999 98 136 79
0.204675 0.305391 0.710200 112 150 93
0.203036 0.305430 0.709924 137 178 115
0.398100 0.300995 0.744780 55 65 51
0.396459 0.301034 0.744504 122 155 109
0.394482 0.300195 0.743699 132 165 119
0.392178 0.298477 0.742368 92 139 81
0.390214 0.297638 0.741565 76 123 65
0.210715 0.300141 0.710403 40 53 38
0.209136 0.301065 0.710609 58 89 47
0.207551 0.301989 0.710814 102 133 91
0.205962 0.302913 0.711018 110 154 90
0.204367 0.303837 0.711222 128 172 108
0.395177 0.297733 0.744413 77 103 63
0.393209 0.296894 0.743608 137 163 123
0.391246 0.296056 0.742803 120 165 107
0.389288 0.295217 0.741999 94 139 81
0.212023 0.298555 0.711682 42 66 38
0.210400 0.298594 0.711409 66 90 62
0.208823 0.299516 0.711618 93 133 77
0.207241 0.300439 0.711826 108 148 92
0.205612 0.300478 0.711551 122 168 103
0.204022 0.301401 0.711758 142 188 123
0.392273 0.294476 0.744035 108 127 99
0.390315 0.293639 0.743228 130 173 116
0.388362 0.292801 0.742423 113 156 99
0.386742 0.292840 0.742150 83 130 72
0.213327 0.296971 0.712956 39 54 36
0.211707 0.297010 0.712683 61 93 54
0.210086 0.297048 0.712410 91 123 84
0.208511 0.297970 0.712622 97 142 80
0.206931 0.298892 0.712832 118 163 101
0.205305 0.298930 0.712559 148 191 132
0.391672 0.292938 0.744988 54 67 52
0.389717 0.292101 0.744180 119 152 108
0.387768 0.291265 0.743372 141 174 130
0.386150 0.291303 0.743100 99 146 84
0.384208 0.290466 0.742294 77 124 62
0.382592 0.290505 0.742022 73 115 63
0.214627 0.295389 0.714224 37 61 33
0.213009 0.295428 0.713952 64 88 60
0.211441 0.296348 0.714167 91 133 79
0.209820 0.296387 0.713894 102 144 90
0.208200 0.296425 0.713621 113 159 94
0.206622 0.297346 0.713835 140 186 121
0.389121 0.290566 0.745126 57 84 53
0.387174 0.289730 0.744317 139 166 135
0.385558 0.289769 0.744045 132 175 116
0.383943 0.289807 0.743773 94 137 78
0.382006 0.288971 0.742966 80 123 62
0.215980 0.294690 0.715978 43 58 40
0.214362 0.294729 0.715706 65 96 54
0.212744 0.294767 0.715433 87 118 76
0.211126 0.294806 0.715161 101 145 81
0.209555 0.295725 0.715378 122 166 102
0.207934 0.295764 0.715105 147 192 132
0.206313 0.295803 0.714832 125 170 110
0.386581 0.288198 0.745257 85 102 84
0.384968 0.288236 0.744986 139 174 120
0.383355 0.288275 0.744714 136 171 117
0.381422 0.287440 0.743905 103 144 79
0.379811 0.287478 0.743633 83 124 59
0.217273 0.293112 0.717238 42 66 34
0.215715 0.294030 0.717460 76 100 68
0.214097 0.294069 0.717187 91 131 75
0.212479 0.294107 0.716915 109 149 93
0.210860 0.294146 0.716642 124 168 104
0.209289 0.295064 0.716862 148 192 128
0.207669 0.295103 0.716589 128 166 120
0.384379 0.286706 0.745921 104 133 90
0.382768 0.286744 0.745650 149 178 135
0.380838 0.285910 0.744839 131 175 109
0.378912 0.285076 0.744028 98 142 76
0.377307 0.285114 0.743758 80 122 68
0.218624 0.292414 0.718989 45 63 40
0.217008 0.292453 0.718717 73 107 56
0.215393 0.292491 0.718445 96 130 79
0.213777 0.292530 0.718173 106 150 86
0.212213 0.293447 0.718396 131 175 111
0.210595 0.293485 0.718124 151 194 135
0.381860 0.284344 0.746039 112 134 103
0.380254 0.284383 0.745768 143 183 123
0.378649 0.284421 0.745498 130 170 110
0.376729 0.283588 0.744686 97 142 80
0.375126 0.283626 0.744416 73 118 56
0.373214 0.282793 0.743606 65 106 61
0.221524 0.290801 0.720512 39 54 38
0.219911 0.290839 0.720241 48 79 37
0.218298 0.290877 0.719969 89 120 78
0.216744 0.291793 0.720196 109 150 85
0.215128 0.291832 0.719924 118 159 94
0.213566 0.292748 0.720150 135 179 115
0.211948 0.292787 0.719878 153 197 133
0.210330 0.292825 0.719605 120 156 109
0.379353 0.281987 0.746148 111 145 96
0.377753 0.282025 0.745879 147 181 132
0.375838 0.281193 0.745066 121 167 102
0.373929 0.280361 0.744253 90 136 71
0.372025 0.279528 0.743441 80 125 67
0.222804 0.289228 0.721758 37 64 35
0.221260 0.290142 0.721989 61 88 59
0.219647 0.290181 0.721718 90 130 74
0.218034 0.290219 0.721446 98 138 82
0.216421 0.290258 0.721175 118 160 90
0.214863 0.291173 0.721404 144 186 116
0.213301 0.292088 0.721632 155 195 135
0.211683 0.292126 0.721359 119 159 99
0.378772 0.280465 0.747066 43 62 34
0.376858 0.279634 0.746251 112 131 103
0.374949 0.278803 0.745436 146 186 126
0.373356 0.278840 0.745167 133 173 113
0.371455 0.278009 0.744354 104 150 83
0.369865 0.278047 0.744086 76 122 55
0.368275 0.278085 0.743819 70 111 64
0.366384 0.277253 0.743007 39 80 33
0.225614 0.286744 0.722763 41 59 38
0.224080 0.287657 0.722998 51 69 48
0.222472 0.287695 0.722728 82 118 71
0.220930 0.288609 0.722961 105 141 94
0.219319 0.288647 0.722690 112 153 86
0.217769 0.289561 0.722923 121 162 95
0.216156 0.289599 0.722651 153 195 125
0.214599 0.290513 0.722883 141 183 113
0.212983 0.290552 0.722611 99 127 89
0.376281 0.278115 0.747162 49 59 45
0.374375 0.277284 0.746345 112 143 97
0.372785 0.277322 0.746077 152 183 137
0.371195 0.277360 0.745810 136 180 114
0.364537 0.276643 0.744193 58 90 53
0.226956 0.286050 0.724503 45 59 39
0.225351 0.286089 0.724233 66 96 57
0.223816 0.287001 0.724470 95 125 86
0.222208 0.287039 0.724200 105 146 83
0.220666 0.287952 0.724436 115 156 93
0.219055 0.287990 0.724165 134 176 104
0.217505 0.288903 0.724400 157 199 127
0.215892 0.288941 0.724128 139 174 118
0.374114 0.276635 0.747801 48 67 37
0.372524 0.276673 0.747533 111 130 100
0.370934 0.276711 0.747265 144 182 123
0.369039 0.275882 0.746448 145 183 124
0.363979 0.275128 0.745098 73 111 56
0.362394 0.275165 0.744831 62 100 45
0.228299 0.285357 0.726243 54 83 42
0.226693 0.285395 0.725973 80 109 68
0.225088 0.285434 0.725703 95 135 77
0.223483 0.285472 0.725432 103 143 85
0.221945 0.286383 0.725672 124 165 98
0.220337 0.286421 0.725401 145 186 119
0.218791 0.287333 0.725639 152 191 127
0.217181 0.287371 0.725368 123 162 98
0.215628 0.288283 0.725605 59 83 44
0.370366 0.275196 0.748169 89 115 71
0.368779 0.275234 0.747901 149 175 131
0.367191 0.275272 0.747634 144 183 121
0.365304 0.274443 0.746816 131 170 108
0.363719 0.274481 0.746549 103 144 79
0.361840 0.273652 0.745732 84 125 60
0.359966 0.272823 0.744915 76 112 65
0.229561 0.283792 0.727469 71 97 57
0.228036 0.284702 0.727713 96 134 77
0.226356 0.283868 0.726929 105 143 86
0.224825 0.284779 0.727172 116 160 96
0.223289 0.285689 0.727415 135 179 115
0.221614 0.284855 0.726632 157 198 135
0.220073 0.285765 0.726873 145 186 123
0.218465 0.285804 0.726603 100 130 80
0.216917 0.286714 0.726843 42 72 22
0.368519 0.274586 0.749355 74 90 67
0.366629 0.273759 0.748534 138 171 117
0.365045 0.273796 0.748267 155 188 134
0.363163 0.272969 0.747447 144 185 120
0.361286 0.272141 0.746628 121 162 97
0.359415 0.271313 0.745809 80 123 62
0.357838 0.271350 0.745544 73 116 55
0.233672 0.278671 0.727157 48 72 33
0.232166 0.279579 0.727406 78 102 63
0.230655 0.280488 0.727655 90 129 67
0.229140 0.281397 0.727903 106 145 83
0.227542 0.281435 0.727634 120 164 96
0.225944 0.281473 0.727365 137 181 113
0.224418 0.282382 0.727612 151 195 131
0.222887 0.283291 0.727857 160 204 140
0.221285 0.283329 0.727587 119 153 102
0.219746 0.284238 0.727831 65 99 48
0.218141 0.284276 0.727561 43 60 32
0.366370 0.273112 0.749985 54 76 45
0.364486 0.272285 0.749162 121 143 112
0.362607 0.271458 0.748340 151 187 126
0.360734 0.270632 0.747519 156 192 131
0.358865 0.269805 0.746699 122 166 98
0.357002 0.268977 0.745880 92 136 68
0.355430 0.269015 0.745615 66 111 49
0.353574 0.268188 0.744797 62 107 45
0.238087 0.277039 0.728894 47 60 43
0.236499 0.277077 0.728627 56 79 45
0.234912 0.277115 0.728359 81 104 70
0.231821 0.278060 0.728345 104 139 81
0.230313 0.278968 0.728596 121 166 95
0.228799 0.279875 0.728847 134 179 108
0.227280 0.280783 0.729097 146 191 120
0.225683 0.280821 0.728828 158 203 132
0.224156 0.281729 0.729077 151 191 133
0.222625 0.282637 0.729325 96 136 78
0.221022 0.282675 0.729055 46 70 42
0.219419 0.282713 0.728785 34 58 30
0.362349 0.270814 0.749786 87 113 73
0.360475 0.269988 0.748963 141 167 127
0.358607 0.269162 0.748141 157 198 131
0.357033 0.269199 0.747875 145 186 119
0.354887 0.267510 0.746498 110 155 84
0.353034 0.266683 0.745678 85 130 59
0.351467 0.266721 0.745414 72 117 57
0.349622 0.265894 0.744596 63 108 48
0.242183 0.272806 0.729048 47 63 40
0.240804 0.274580 0.729832 53 69 46
0.239221 0.274617 0.729566 63 89 47
0.237733 0.275523 0.729823 82 108 66
0.236148 0.275561 0.729557 91 129 70
0.234563 0.275599 0.729290 110 148 89
0.233064 0.276505 0.729546 117 159 87
0.231477 0.276543 0.729278 128 170 98
0.228380 0.277487 0.729265 156 203 129
0.226790 0.277525 0.728997 160 200 140
0.225274 0.278431 0.729250 110 150 90
0.223823 0.280207 0.730022 62 89 56
0.222362 0.281983 0.730792 37 64 31
0.359924 0.268482 0.749847 62 80 57
0.358349 0.268519 0.749582 122 156 107
0.356487 0.267694 0.748758 156 190 141
0.354630 0.266869 0.747935 151 195 127
0.352777 0.266044 0.747113 143 187 119
0.350930 0.265218 0.746292 114 161 89
0.349366 0.265256 0.746028 90 137 65
0.347801 0.265293 0.745765 75 118 59
0.345964 0.264467 0.744945 65 108 49
0.244972 0.271220 0.730495 41 60 32
0.243501 0.272125 0.730758 51 70 42
0.241924 0.272162 0.730493 68 98 50
0.240347 0.272200 0.730227 86 116 68
0.238866 0.273105 0.730488 93 129 66
0.237286 0.273142 0.730222 107 143 80
0.235797 0.274047 0.730482 115 157 85
0.234303 0.274952 0.730741 132 174 102
0.232718 0.274990 0.730474 145 190 119
0.231217 0.275895 0.730732 153 198 127
0.229629 0.275933 0.730464 156 200 136
0.357802 0.267015 0.750462 43 65 38
0.355942 0.266191 0.749636 92 114 87
0.354088 0.265367 0.748811 129 167 112
0.352521 0.265404 0.748548 159 197 142
0.350674 0.264580 0.747724 153 197 129
0.349110 0.264617 0.747460 137 181 113
0.347545 0.264655 0.747197 120 167 93
0.345981 0.264692 0.746934 97 144 70
0.344147 0.263867 0.746112 74 117 56
0.342585 0.263904 0.745849 66 109 48
0.249325 0.269599 0.732200 48 62 40
0.244714 0.270578 0.731937 79 114 60
0.243140 0.270615 0.731672 97 132 78
0.241666 0.271519 0.731937 101 141 70
0.240089 0.271556 0.731671 112 152 81
0.238607 0.272460 0.731935 129 172 95
0.237027 0.272497 0.731669 137 180 103
0.235538 0.273401 0.731931 151 194 119
0.233956 0.273439 0.731664 164 207 132
0.232459 0.274343 0.731925 154 194 134
0.230957 0.275247 0.732185 117 157 97
0.353831 0.264728 0.750246 51 75 43
0.352264 0.264765 0.749982 94 118 86
0.350418 0.263942 0.749156 147 182 126
0.348853 0.263979 0.748893 164 199 143
0.347289 0.264016 0.748629 153 197 129
0.345724 0.264053 0.748366 149 193 125
0.343891 0.263230 0.747542 128 174 105
0.342329 0.263267 0.747279 108 154 85
0.340503 0.262443 0.746457 88 133 71
0.338944 0.262480 0.746194 64 109 47
0.249180 0.269823 0.734174 78 107 62
0.244456 0.269935 0.733379 101 148 76
0.242882 0.269973 0.733114 118 165 93
0.241407 0.270875 0.733381 130 175 102
0.239830 0.270913 0.733115 136 181 108
0.238253 0.270950 0.732850 157 202 129
0.236768 0.271853 0.733115 163 208 135
0.235189 0.271890 0.732849 148 189 126
0.233696 0.272793 0.733113 116 157 94
0.232199 0.273696 0.733376 58 83 46
0.350161 0.263303 0.750589 63 88 51
0.348597 0.263341 0.750325 97 122 85
0.347032 0.263378 0.750062 151 187 126
0.345468 0.263415 0.749798 162 198 137
0.343635 0.262592 0.748972 155 199 131
0.342073 0.262630 0.748709 149 193 125
0.340248 0.261807 0.747884 132 180 111
0.338427 0.260984 0.747060 117 165 96
0.334546 0.258478 0.744854 77 123 58
0.248922 0.269180 0.735616 115 159 91
0.247348 0.269217 0.735351 118 168 91
0.245773 0.269255 0.735086 127 177 100
0.244198 0.269293 0.734820 145 193 116
0.242624 0.269330 0.734555 155 203 126
0.241049 0.269368 0.734290 164 209 138
0.239572 0.270269 0.734559 166 211 140
0.237994 0.270307 0.734294 142 180 121
0.236417 0.270344 0.734028 94 132 73
0.234930 0.271246 0.734295 58 83 46
0.233437 0.272148 0.734562 40 65 28
0.346776 0.262739 0.751494 59 82 48
0.345212 0.262777 0.751231 110 133 99
0.343379 0.261955 0.750402 147 183 122
0.341817 0.261992 0.750139 164 200 139
0.339992 0.261171 0.749312 160 205 134
0.338172 0.260349 0.748485 151 196 125
0.336357 0.259527 0.747660 135 180 107
0.334548 0.258705 0.746835 121 166 93
0.332490 0.257023 0.745449 105 147 75
0.330944 0.257060 0.745188 88 130 58
0.248664 0.268537 0.737057 149 195 115
0.247090 0.268575 0.736792 153 203 124
0.245408 0.267750 0.735989 163 213 134
0.243940 0.268650 0.736262 167 212 141
0.242366 0.268687 0.735997 157 202 131
0.240791 0.268725 0.735732 127 160 106
0.239313 0.269625 0.736003 93 126 72
0.237642 0.268800 0.735202 49 73 43
0.236159 0.269701 0.735472 40 64 34
0.343123 0.261318 0.751832 54 73 43
0.341561 0.261355 0.751569 85 104 74
0.339737 0.260534 0.750740 135 166 111
0.337917 0.259714 0.749911 159 190 135
0.336103 0.258893 0.749083 167 209 139
0.334038 0.257213 0.747690 165 207 137
0.332489 0.257250 0.747430 149 195 117
0.330690 0.256429 0.746604 136 182 104
0.329144 0.256466 0.746344 128 174 96
0.327597 0.256503 0.746083 116 162 84
0.325808 0.255681 0.745260 104 146 74
0.324025 0.254860 0.744437 91 133 61
0.322483 0.254896 0.744178 83 124 61
0.320942 0.254933 0.743918 81 122 59
0.305813 0.403926 0.831240 47 68 44
0.303832 0.403973 0.830907 44 67 42
0.301851 0.404020 0.830573 45 68 43
0.248406 0.267895 0.738499 173 216 139
0.246722 0.267071 0.737693 154 194 123
0.245150 0.267108 0.737429 131 171 100
0.243578 0.267146 0.737164 74 105 61
0.242108 0.268045 0.737439 49 80 36
0.240533 0.268082 0.737174 46 62 39
0.337662 0.259078 0.751336 67 84 56
0.335848 0.258258 0.750506 99 130 84
0.333785 0.256581 0.749109 144 175 129
0.332236 0.256618 0.748848 163 202 136
0.330437 0.255798 0.748020 172 211 145
0.328890 0.255835 0.747760 162 203 129
0.327344 0.255872 0.747499 155 196 122
0.325797 0.255909 0.747239 149 195 117
0.324011 0.255088 0.746414 141 187 109
0.322231 0.254267 0.745589 131 176 103
0.320689 0.254304 0.745329 120 165 92
0.333785 0.256805 0.751097 57 73 52
0.331982 0.255986 0.750266 71 94 58
0.330184 0.255167 0.749436 113 136 100
0.328637 0.255204 0.749176 140 175 119
0.327090 0.255241 0.748915 165 200 144
0.325544 0.255277 0.748655 167 209 139
0.323758 0.254458 0.747827 168 210 140
0.321978 0.253638 0.747000 162 208 132
0.320437 0.253675 0.746741 156 202 126
0.328384 0.254573 0.750592 51 70 42
0.326837 0.254610 0.750331 58 77 49
0.325290 0.254646 0.750071 74 100 56
0.323505 0.253828 0.749241 117 143 99
0.321726 0.253009 0.748411 152 183 126
0.320184 0.253046 0.748152 168 199 142
0.321473 0.252380 0.749823 50 65 36
0.319932 0.252417 0.749563 58 73 44
0.335372 0.406045 0.852260 45 73 46
0.333368 0.406093 0.851923 42 70 43
0.331364 0.406140 0.851585 37 67 40
0.329360 0.406188 0.851248 35 65 38
0.327355 0.406236 0.850911 39 69 42
0.325351 0.406283 0.850573 37 67 40
0.323347 0.406331 0.850236 37 67 40
0.321343 0.406379 0.849898 39 69 42
0.319339 0.406427 0.849561 43 72 42
0.312985 0.404863 0.847417 42 71 41
0.311154 0.405764 0.847646 43 71 46
