ply
format ascii 1.0
element vertex 1977
property float x
property float y
property float z
property uchar red
property uchar green
property uchar blue
end_header
-0.008677 -0.223735 0.623000 70 99 67
-0.007062 -0.223735 0.623000 72 101 69
-0.005447 -0.223735 0.623000 70 99 67
-0.003831 -0.223735 0.623000 69 100 66
-0.002212 -0.223376 0.622000 63 94 60
-0.016701 -0.221405 0.621000 67 95 57
-0.015091 -0.221405 0.621000 86 114 76
0.000882 -0.192882 0.541000 90 134 81
0.002280 -0.192526 0.540000 88 131 81
0.003680 -0.192526 0.540000 81 124 74
-0.000523 -0.192186 0.543000 111 162 94
0.000882 -0.191478 0.541000 112 163 95
0.002284 -0.191478 0.541000 110 161 95
0.003680 -0.191124 0.540000 107 158 92
0.005081 -0.191124 0.540000 105 152 92
0.006481 -0.191124 0.540000 102 149 89
0.007881 -0.191124 0.540000 96 137 88
0.009281 -0.191124 0.540000 82 123 74
0.010681 -0.191124 0.540000 63 92 58
-0.000523 -0.190776 0.543000 136 190 116
0.000882 -0.190073 0.541000 130 184 110
0.002280 -0.189722 0.540000 123 176 107
0.003680 -0.189722 0.540000 120 173 104
0.005081 -0.189722 0.540000 117 170 101
0.006481 -0.189722 0.540000 113 166 97
0.007881 -0.189722 0.540000 105 155 92
0.009281 -0.189722 0.540000 108 158 95
0.010681 -0.189722 0.540000 111 154 104
0.012082 -0.189722 0.540000 99 142 92
-0.000523 -0.189366 0.543000 141 187 120
0.000882 -0.188668 0.541000 140 186 119
0.002280 -0.188320 0.540000 136 187 119
0.003680 -0.188320 0.540000 134 185 117
0.005081 -0.188320 0.540000 131 182 114
0.006481 -0.188320 0.540000 126 177 109
0.007881 -0.188320 0.540000 123 175 102
0.009281 -0.188320 0.540000 119 171 98
0.010681 -0.188320 0.540000 116 166 103
0.012082 -0.188320 0.540000 117 167 104
0.013482 -0.188320 0.540000 114 160 107
0.014882 -0.188320 0.540000 105 151 98
-0.000523 -0.187956 0.543000 78 111 67
0.000882 -0.187264 0.541000 86 119 75
0.002280 -0.186918 0.540000 102 141 90
0.003680 -0.186918 0.540000 124 163 112
0.005081 -0.186918 0.540000 139 182 121
0.006481 -0.186918 0.540000 144 187 126
0.007881 -0.186918 0.540000 142 191 119
0.009281 -0.186918 0.540000 138 187 115
0.010681 -0.186918 0.540000 131 180 108
0.012082 -0.186918 0.540000 123 172 100
0.013482 -0.186918 0.540000 116 167 101
0.014882 -0.186918 0.540000 112 163 97
0.016252 -0.186571 0.539000 107 156 102
-0.026982 -0.205785 0.599000 139 171 122
-0.025174 -0.203724 0.593000 141 184 105
-0.023556 -0.203036 0.591000 132 175 96
-0.021949 -0.202349 0.589000 134 181 98
-0.020214 -0.200288 0.583000 124 171 88
-0.000524 -0.186890 0.544000 46 66 47
0.000883 -0.186203 0.542000 45 65 46
0.002284 -0.185859 0.541000 46 70 42
0.003680 -0.185516 0.540000 51 75 47
0.005081 -0.185516 0.540000 58 86 48
0.006481 -0.185516 0.540000 86 114 76
0.007881 -0.185516 0.540000 119 159 99
0.009281 -0.185516 0.540000 141 181 121
0.010681 -0.185516 0.540000 147 196 124
0.012082 -0.185516 0.540000 140 189 117
0.013482 -0.185516 0.540000 132 184 109
0.014882 -0.185516 0.540000 124 176 101
0.016252 -0.185172 0.539000 122 173 105
0.017650 -0.185172 0.539000 119 170 102
0.019047 -0.185172 0.539000 119 168 114
-0.026891 -0.203548 0.597000 148 189 122
-0.025174 -0.202184 0.593000 135 182 99
-0.023556 -0.201502 0.591000 131 178 95
-0.021949 -0.200820 0.589000 144 186 114
-0.020387 -0.200479 0.588000 107 149 77
0.005081 -0.184113 0.540000 54 70 49
0.006481 -0.184113 0.540000 46 62 41
0.007881 -0.184113 0.540000 42 67 32
0.009281 -0.184113 0.540000 67 92 57
0.010681 -0.184113 0.540000 103 141 86
0.012082 -0.184113 0.540000 137 175 120
0.013482 -0.184113 0.540000 146 194 125
0.014882 -0.184113 0.540000 143 191 122
0.016282 -0.184113 0.540000 133 185 112
0.017650 -0.183772 0.539000 127 179 106
0.019047 -0.183772 0.539000 127 178 112
0.020445 -0.183772 0.539000 125 176 110
0.021843 -0.183772 0.539000 121 165 110
0.023240 -0.183772 0.539000 115 159 104
-0.032064 -0.205381 0.607000 78 107 66
-0.030239 -0.203689 0.602000 139 168 127
-0.028582 -0.203013 0.600000 148 196 117
-0.027027 -0.203013 0.600000 138 186 107
-0.025471 -0.203013 0.600000 136 182 104
-0.023875 -0.202674 0.599000 142 188 110
0.009281 -0.182711 0.540000 54 67 52
0.010681 -0.182711 0.540000 47 69 38
0.012082 -0.182711 0.540000 63 85 54
0.013482 -0.182711 0.540000 98 135 83
0.014882 -0.182711 0.540000 139 176 124
0.016282 -0.182711 0.540000 147 193 124
0.017682 -0.182711 0.540000 140 186 117
0.019083 -0.182711 0.540000 131 183 110
0.020445 -0.182373 0.539000 130 182 109
0.021843 -0.182373 0.539000 125 176 110
0.023240 -0.182373 0.539000 124 175 109
0.024592 -0.182035 0.538000 122 165 115
0.025987 -0.182035 0.538000 102 145 95
-0.031958 -0.203134 0.605000 129 164 110
-0.030188 -0.201791 0.601000 153 188 134
-0.028630 -0.201791 0.601000 147 196 112
-0.027072 -0.201791 0.601000 142 191 107
-0.025556 -0.202126 0.602000 134 179 106
-0.024035 -0.202462 0.603000 87 132 59
0.012104 -0.181645 0.541000 52 66 55
0.013507 -0.181645 0.541000 46 68 41
0.014910 -0.181645 0.541000 69 91 64
0.016282 -0.181309 0.540000 93 127 76
0.017682 -0.181309 0.540000 137 171 120
0.019083 -0.181309 0.540000 145 191 122
0.020445 -0.180974 0.539000 140 186 117
0.021843 -0.180974 0.539000 129 180 110
0.023240 -0.180974 0.539000 127 178 108
0.024638 -0.180974 0.539000 123 173 110
0.025987 -0.180638 0.538000 126 176 113
0.027382 -0.180638 0.538000 115 158 110
0.028724 -0.180302 0.537000 88 131 83
0.030116 -0.180302 0.537000 61 88 59
-0.031958 -0.201563 0.605000 146 187 122
-0.030239 -0.200563 0.602000 141 182 117
-0.028678 -0.200563 0.602000 152 200 121
-0.027162 -0.200896 0.603000 145 193 114
-0.025683 -0.201563 0.605000 85 120 64
0.016312 -0.180240 0.541000 53 74 52
0.017715 -0.180240 0.541000 55 76 54
0.019083 -0.179907 0.540000 93 126 72
0.020483 -0.179907 0.540000 141 174 120
0.021843 -0.179574 0.539000 145 193 124
0.023240 -0.179574 0.539000 140 188 119
0.024638 -0.179574 0.539000 130 181 111
0.025987 -0.179241 0.538000 130 181 111
0.027382 -0.179241 0.538000 128 180 118
0.028670 -0.178575 0.536000 120 172 110
0.031509 -0.178908 0.537000 73 114 69
-0.033748 -0.201314 0.609000 143 173 134
-0.032011 -0.200322 0.606000 127 172 101
-0.030339 -0.199661 0.604000 131 176 105
-0.028821 -0.199992 0.605000 153 198 125
-0.027387 -0.200984 0.608000 99 144 71
-0.025895 -0.201645 0.610000 39 67 31
0.019083 -0.178505 0.540000 45 69 41
0.020483 -0.178505 0.540000 60 84 56
0.021883 -0.178505 0.540000 110 148 93
0.023240 -0.178175 0.539000 144 182 127
0.024638 -0.178175 0.539000 143 191 122
0.025987 -0.177844 0.538000 135 183 114
0.027382 -0.177844 0.538000 131 182 112
0.028670 -0.177183 0.536000 133 184 114
0.030060 -0.177183 0.536000 125 172 112
0.031450 -0.177183 0.536000 118 165 105
-0.037149 -0.201045 0.613000 41 58 42
-0.033804 -0.200061 0.610000 142 179 127
-0.032169 -0.199733 0.609000 131 181 104
-0.030590 -0.199733 0.609000 148 198 121
-0.029059 -0.200061 0.610000 123 164 101
-0.027522 -0.200389 0.611000 53 94 31
0.020483 -0.177103 0.540000 49 63 52
0.021883 -0.177103 0.540000 42 64 37
0.023240 -0.176775 0.539000 74 96 69
0.024638 -0.176775 0.539000 125 165 107
0.026035 -0.176775 0.539000 150 190 132
0.027382 -0.176447 0.538000 143 192 120
0.028724 -0.176119 0.537000 132 181 109
0.030060 -0.175791 0.536000 127 178 108
0.031450 -0.175791 0.536000 123 174 104
0.032840 -0.175791 0.536000 123 169 114
-0.037210 -0.199779 0.614000 80 103 80
-0.035502 -0.199128 0.612000 148 191 130
-0.033859 -0.198803 0.611000 136 179 118
-0.032275 -0.198803 0.611000 140 189 115
-0.030691 -0.198803 0.611000 150 199 125
-0.029202 -0.199453 0.613000 77 111 62
-0.027747 -0.200429 0.616000 40 74 25
0.023240 -0.175376 0.539000 55 65 53
0.024638 -0.175376 0.539000 59 82 46
0.026035 -0.175376 0.539000 112 135 99
0.027382 -0.175050 0.538000 144 188 124
0.028724 -0.174725 0.537000 148 192 128
0.030060 -0.174400 0.536000 130 182 109
0.031450 -0.174400 0.536000 127 179 106
0.032840 -0.174400 0.536000 123 176 109
0.034166 -0.174074 0.535000 120 173 106
0.035553 -0.174074 0.535000 112 155 105
-0.037270 -0.198507 0.615000 142 170 134
-0.035560 -0.197862 0.613000 156 203 131
-0.033970 -0.197862 0.613000 143 190 118
-0.032381 -0.197862 0.613000 154 203 131
-0.029345 -0.198830 0.616000 38 68 29
-0.027882 -0.199798 0.619000 49 79 40
0.026035 -0.173976 0.539000 53 62 44
0.027382 -0.173653 0.538000 78 105 58
0.028724 -0.173331 0.537000 132 159 112
0.030060 -0.173008 0.536000 143 189 120
0.031450 -0.173008 0.536000 136 182 113
0.032840 -0.173008 0.536000 125 179 105
0.034166 -0.172685 0.535000 122 176 102
0.035553 -0.172685 0.535000 125 176 110
0.036940 -0.172685 0.535000 116 167 101
-0.039181 -0.198511 0.620000 81 111 63
-0.037452 -0.197871 0.618000 159 189 141
-0.035734 -0.197231 0.616000 144 192 115
-0.034136 -0.197231 0.616000 149 197 120
-0.032539 -0.197231 0.616000 149 195 128
-0.030992 -0.197551 0.617000 55 101 34
-0.029535 -0.198511 0.620000 44 68 36
0.027382 -0.172257 0.538000 50 65 38
0.028777 -0.172257 0.538000 66 81 54
0.030060 -0.171616 0.536000 108 143 87
0.031391 -0.171296 0.535000 150 185 129
0.032778 -0.171296 0.535000 139 191 118
0.034166 -0.171296 0.535000 130 182 109
0.035553 -0.171296 0.535000 125 179 103
0.036871 -0.170976 0.534000 125 179 103
0.038256 -0.170976 0.534000 126 171 111
-0.039181 -0.196902 0.620000 124 157 101
-0.037513 -0.196584 0.619000 158 191 135
-0.035850 -0.196266 0.618000 143 191 112
-0.034247 -0.196266 0.618000 157 205 126
-0.032698 -0.196584 0.619000 117 160 101
-0.031143 -0.196902 0.620000 30 73 14
0.028724 -0.170542 0.537000 57 65 54
0.030060 -0.170225 0.536000 48 71 35
0.031450 -0.170225 0.536000 103 126 90
0.032778 -0.169907 0.535000 143 187 121
0.034166 -0.169907 0.535000 149 193 127
0.035553 -0.169907 0.535000 131 184 106
0.036871 -0.169589 0.534000 126 179 101
0.038256 -0.169589 0.534000 127 179 106
0.039640 -0.169589 0.534000 122 174 101
-0.040854 -0.195607 0.621000 55 70 45
-0.039244 -0.195607 0.621000 151 190 126
-0.037573 -0.195292 0.620000 151 190 126
-0.035966 -0.195292 0.620000 145 195 116
-0.034358 -0.195292 0.620000 157 207 128
-0.032803 -0.195607 0.621000 59 96 46
-0.031243 -0.195922 0.622000 35 72 22
0.031450 -0.168833 0.536000 54 67 50
0.032778 -0.168518 0.535000 79 110 66
0.034166 -0.168518 0.535000 139 170 126
0.035553 -0.168518 0.535000 146 195 121
0.036871 -0.168203 0.534000 136 185 111
0.038256 -0.168203 0.534000 129 179 100
0.039640 -0.168203 0.534000 127 177 98
0.041025 -0.168203 0.534000 129 174 112
-0.040920 -0.194307 0.622000 97 115 82
-0.039244 -0.193994 0.621000 160 202 130
-0.037634 -0.193994 0.621000 148 190 118
-0.036024 -0.193994 0.621000 153 203 126
-0.034469 -0.194307 0.622000 139 189 112
-0.032962 -0.194932 0.624000 44 75 33
0.032778 -0.167129 0.535000 46 67 45
0.034166 -0.167129 0.535000 68 89 67
0.035487 -0.166816 0.534000 121 161 103
0.036871 -0.166816 0.534000 155 195 137
0.038256 -0.166816 0.534000 147 195 118
0.039640 -0.166816 0.534000 135 183 106
0.041025 -0.166816 0.534000 130 177 105
0.042410 -0.166816 0.534000 131 178 106
0.043794 -0.166816 0.534000 109 147 99
-0.040986 -0.193002 0.623000 132 156 117
-0.039307 -0.192692 0.622000 151 196 123
-0.037695 -0.192692 0.622000 156 201 128
-0.036140 -0.193002 0.623000 162 209 137
-0.034635 -0.193621 0.625000 94 141 69
-0.033173 -0.194551 0.628000 42 66 36
0.034102 -0.165430 0.534000 56 70 59
0.035487 -0.165430 0.534000 59 87 49
0.036871 -0.165430 0.534000 117 145 107
0.038256 -0.165430 0.534000 150 196 127
0.039640 -0.165430 0.534000 143 189 120
0.041025 -0.165430 0.534000 135 185 108
0.042410 -0.165430 0.534000 135 185 108
0.043794 -0.165430 0.534000 130 175 113
0.045179 -0.165430 0.534000 107 152 90
-0.042807 -0.192306 0.626000 51 77 33
-0.041052 -0.191691 0.624000 147 173 129
-0.039371 -0.191384 0.623000 150 196 120
-0.037816 -0.191691 0.624000 164 210 134
-0.036314 -0.192306 0.626000 158 202 136
-0.034801 -0.192920 0.628000 53 97 31
-0.033331 -0.193842 0.631000 45 68 43
0.036871 -0.164043 0.534000 57 75 54
0.038256 -0.164043 0.534000 103 141 84
0.039640 -0.164043 0.534000 153 191 134
0.041025 -0.164043 0.534000 140 189 115
0.042410 -0.164043 0.534000 134 183 109
0.043794 -0.164043 0.534000 127 179 106
0.045179 -0.164043 0.534000 127 179 106
0.046564 -0.164043 0.534000 111 150 97
-0.042875 -0.190985 0.627000 72 102 54
-0.041183 -0.190680 0.626000 156 186 138
-0.039560 -0.190680 0.626000 156 202 126
-0.037998 -0.190985 0.627000 167 213 137
-0.036488 -0.191594 0.629000 146 187 124
-0.034968 -0.192203 0.631000 32 73 10
0.038256 -0.162657 0.534000 49 74 39
0.039640 -0.162657 0.534000 101 126 91
0.041025 -0.162657 0.534000 150 197 125
0.042410 -0.162657 0.534000 143 190 118
0.043794 -0.162657 0.534000 132 184 109
0.045179 -0.162657 0.534000 129 181 106
0.046564 -0.162657 0.534000 132 180 115
0.047948 -0.162657 0.534000 109 157 92
-0.042943 -0.189659 0.628000 101 131 81
-0.041315 -0.189659 0.628000 151 181 131
-0.039687 -0.189659 0.628000 158 206 129
-0.038179 -0.190263 0.630000 169 217 140
-0.036604 -0.190565 0.631000 101 141 83
-0.035023 -0.190867 0.632000 26 66 8
0.039640 -0.161270 0.534000 49 64 46
0.041025 -0.161270 0.534000 92 130 75
0.042410 -0.161270 0.534000 152 190 135
0.043794 -0.161270 0.534000 145 194 120
0.045179 -0.161270 0.534000 132 181 107
0.046564 -0.161270 0.534000 127 179 106
0.047948 -0.161270 0.534000 127 179 106
0.049425 -0.161572 0.535000 120 162 108
-0.043080 -0.188627 0.630000 137 170 116
-0.041447 -0.188627 0.630000 143 176 122
-0.039813 -0.188627 0.630000 160 210 133
-0.038240 -0.188927 0.631000 167 217 140
-0.036662 -0.189226 0.632000 64 101 49
0.041025 -0.159884 0.534000 40 67 34
0.042410 -0.159884 0.534000 100 127 94
0.043794 -0.159884 0.534000 149 195 128
0.045179 -0.159884 0.534000 149 195 128
0.046651 -0.160183 0.535000 133 185 110
0.048038 -0.160183 0.535000 125 177 102
0.049425 -0.160183 0.535000 126 179 112
0.050813 -0.160183 0.535000 104 157 90
-0.043149 -0.187288 0.631000 145 183 124
-0.041512 -0.187288 0.631000 151 189 130
-0.038301 -0.187585 0.632000 162 211 137
-0.036662 -0.187585 0.632000 51 84 38
0.042489 -0.158794 0.535000 48 65 47
0.043876 -0.158794 0.535000 97 136 85
0.045264 -0.158794 0.535000 155 194 143
0.046651 -0.158794 0.535000 143 195 120
0.048038 -0.158794 0.535000 132 184 109
0.049425 -0.158794 0.535000 123 178 99
0.050813 -0.158794 0.535000 124 179 100
0.052200 -0.158794 0.535000 102 143 94
-0.044927 -0.186238 0.633000 65 82 64
-0.043217 -0.185944 0.632000 154 193 129
-0.041578 -0.185944 0.632000 156 195 131
-0.039939 -0.185944 0.632000 170 217 143
-0.038361 -0.186238 0.633000 145 192 118
-0.036778 -0.186533 0.634000 37 69 30
0.043876 -0.157405 0.535000 46 73 40
0.045264 -0.157405 0.535000 109 136 103
0.046651 -0.157405 0.535000 152 198 129
0.048038 -0.157405 0.535000 145 191 122
0.049425 -0.157405 0.535000 133 188 105
0.050813 -0.157405 0.535000 124 179 96
0.052200 -0.157405 0.535000 127 175 110
0.053587 -0.157405 0.535000 91 139 74
-0.044998 -0.184886 0.634000 87 110 87
-0.043285 -0.184595 0.633000 160 204 136
-0.041644 -0.184595 0.633000 162 206 138
-0.040003 -0.184595 0.633000 166 213 141
-0.038422 -0.184886 0.634000 131 178 106
-0.036894 -0.185470 0.636000 38 67 33
0.045264 -0.156016 0.535000 54 69 51
0.046651 -0.156016 0.535000 113 151 96
0.048038 -0.156016 0.535000 158 196 141
0.049425 -0.156016 0.535000 139 192 112
0.050813 -0.156016 0.535000 137 190 110
0.052200 -0.156016 0.535000 130 183 105
0.053587 -0.156016 0.535000 127 180 102
0.054974 -0.156016 0.535000 95 131 84
-0.045069 -0.183529 0.635000 98 121 96
-0.043354 -0.183240 0.634000 156 202 133
-0.041710 -0.183240 0.634000 163 209 140
-0.040129 -0.183529 0.635000 171 218 144
-0.038543 -0.183818 0.636000 120 167 93
-0.037126 -0.184974 0.640000 39 68 34
0.046651 -0.154627 0.535000 54 82 46
0.048038 -0.154627 0.535000 118 146 110
0.049425 -0.154627 0.535000 157 204 130
0.050813 -0.154627 0.535000 144 191 117
0.052200 -0.154627 0.535000 134 184 103
0.053587 -0.154627 0.535000 133 183 102
0.055077 -0.154916 0.536000 127 173 108
0.056467 -0.154916 0.536000 78 124 59
-0.045282 -0.182740 0.638000 104 128 100
-0.043627 -0.182740 0.638000 168 214 147
-0.041973 -0.182740 0.638000 161 207 140
-0.040382 -0.183026 0.639000 172 220 143
-0.038846 -0.183599 0.641000 101 149 72
-0.037242 -0.183886 0.642000 41 65 33
0.048038 -0.153238 0.535000 63 79 58
0.049425 -0.153238 0.535000 126 164 105
0.050813 -0.153238 0.535000 161 199 140
0.052200 -0.153238 0.535000 142 193 109
0.053687 -0.153524 0.536000 135 186 102
0.055077 -0.153524 0.536000 140 189 115
0.056467 -0.153524 0.536000 121 170 96
0.057857 -0.153524 0.536000 66 99 57
-0.045423 -0.181651 0.640000 112 134 107
-0.043764 -0.181651 0.640000 154 202 135
-0.042104 -0.181651 0.640000 166 214 147
-0.040508 -0.181935 0.641000 172 218 142
-0.038907 -0.182219 0.642000 75 121 45
-0.037242 -0.182219 0.642000 40 62 31
0.049425 -0.151849 0.535000 64 90 50
0.050908 -0.152133 0.536000 140 166 126
0.052298 -0.152133 0.536000 151 197 117
0.053687 -0.152133 0.536000 144 190 110
0.055077 -0.152133 0.536000 136 186 105
0.056362 -0.151849 0.535000 142 192 111
0.057857 -0.152133 0.536000 113 156 99
-0.045494 -0.180271 0.641000 117 141 111
-0.043832 -0.180271 0.641000 150 199 127
-0.042170 -0.180271 0.641000 162 211 139
-0.040571 -0.180552 0.642000 169 215 139
-0.038907 -0.180552 0.642000 51 97 21
-0.037300 -0.180833 0.643000 42 61 31
0.049518 -0.150741 0.536000 50 67 41
0.050908 -0.150741 0.536000 76 93 67
0.052395 -0.151022 0.537000 142 182 113
0.053687 -0.150741 0.536000 155 195 126
0.055180 -0.151022 0.537000 144 193 109
0.056572 -0.151022 0.537000 140 189 105
0.057857 -0.150741 0.536000 138 186 119
0.059357 -0.151022 0.537000 99 147 80
-0.045565 -0.178885 0.642000 134 159 124
-0.043901 -0.178885 0.642000 163 211 134
-0.042236 -0.178885 0.642000 158 206 129
-0.040635 -0.179164 0.643000 165 210 139
-0.038967 -0.179164 0.643000 42 87 16
0.052493 -0.149907 0.538000 87 118 63
0.053888 -0.149907 0.538000 154 185 130
0.055283 -0.149907 0.538000 150 198 117
0.056572 -0.149628 0.537000 142 190 109
0.057965 -0.149628 0.537000 133 182 108
0.059357 -0.149628 0.537000 132 181 107
-0.045636 -0.177494 0.643000 149 174 137
-0.043969 -0.177494 0.643000 166 212 136
-0.042302 -0.177494 0.643000 160 206 130
-0.040635 -0.177494 0.643000 165 206 139
-0.039028 -0.177770 0.644000 39 80 13
0.052590 -0.148786 0.539000 46 69 33
0.053888 -0.148510 0.538000 113 136 100
0.055283 -0.148510 0.538000 154 197 122
0.056678 -0.148510 0.538000 150 193 118
0.058073 -0.148510 0.538000 138 188 107
0.059357 -0.148234 0.537000 141 191 110
0.060863 -0.148510 0.538000 128 173 115
-0.045636 -0.175825 0.643000 157 181 142
-0.043969 -0.175825 0.643000 167 213 137
-0.042368 -0.176098 0.644000 166 212 136
-0.040698 -0.176098 0.644000 159 200 133
-0.039088 -0.176371 0.645000 34 75 8
0.053988 -0.147386 0.539000 61 77 54
0.055385 -0.147386 0.539000 126 162 99
0.056678 -0.147113 0.538000 165 201 138
0.058073 -0.147113 0.538000 146 197 113
0.059468 -0.147113 0.538000 136 187 103
0.060863 -0.147113 0.538000 135 183 114
-0.045707 -0.174426 0.644000 158 177 137
-0.044037 -0.174426 0.644000 172 215 140
-0.042368 -0.174426 0.644000 172 215 140
-0.040761 -0.174697 0.645000 151 192 129
-0.039149 -0.174968 0.646000 31 72 9
0.055385 -0.145987 0.539000 63 95 46
0.056783 -0.145987 0.539000 142 174 125
0.058073 -0.145716 0.538000 157 205 124
0.059468 -0.145716 0.538000 150 198 117
0.060863 -0.145716 0.538000 138 188 109
0.063771 -0.145987 0.539000 95 133 85
-0.045778 -0.173022 0.645000 158 177 135
-0.044106 -0.173022 0.645000 173 213 142
-0.042499 -0.173290 0.646000 174 214 143
-0.040887 -0.173559 0.647000 144 183 121
-0.039270 -0.173827 0.648000 30 69 7
0.055385 -0.144587 0.539000 42 64 33
0.056783 -0.144587 0.539000 91 113 82
0.058181 -0.144587 0.539000 155 201 125
0.059578 -0.144587 0.539000 158 204 128
0.060976 -0.144587 0.539000 149 200 116
0.062374 -0.144587 0.539000 138 189 105
0.063771 -0.144587 0.539000 140 181 118
0.065169 -0.144587 0.539000 82 123 60
-0.045849 -0.171613 0.646000 163 185 140
-0.044243 -0.171879 0.647000 169 212 137
-0.042631 -0.172144 0.648000 173 216 141
-0.041014 -0.172410 0.649000 144 183 119
-0.039331 -0.172410 0.649000 28 67 3
0.056888 -0.143454 0.540000 58 71 54
0.058181 -0.143188 0.539000 117 155 96
0.059578 -0.143188 0.539000 166 204 145
0.060976 -0.143188 0.539000 154 203 119
0.062374 -0.143188 0.539000 148 197 113
0.063771 -0.143188 0.539000 150 195 122
0.065169 -0.143188 0.539000 129 174 101
0.066566 -0.143188 0.539000 61 91 52
-0.044379 -0.170725 0.649000 170 211 135
-0.042697 -0.170725 0.649000 170 211 135
-0.041014 -0.170725 0.649000 144 180 119
-0.039391 -0.170988 0.650000 28 64 3
0.058181 -0.141789 0.539000 56 87 41
0.059578 -0.141789 0.539000 143 174 128
0.060976 -0.141789 0.539000 160 210 129
0.062374 -0.141789 0.539000 152 202 121
0.063771 -0.141789 0.539000 151 199 118
0.065169 -0.141789 0.539000 150 198 117
0.066566 -0.141789 0.539000 106 140 89
0.067964 -0.141789 0.539000 44 78 27
-0.047819 -0.169300 0.650000 53 73 26
-0.046133 -0.169300 0.650000 166 186 139
-0.044448 -0.169300 0.650000 178 216 141
-0.042762 -0.169300 0.650000 175 213 138
-0.041077 -0.169300 0.650000 143 179 118
-0.039452 -0.169561 0.651000 30 66 5
0.059689 -0.140650 0.540000 82 109 78
0.060976 -0.140389 0.539000 150 197 123
0.062374 -0.140389 0.539000 157 204 130
0.063771 -0.140389 0.539000 150 201 117
0.065169 -0.140389 0.539000 146 197 113
0.066690 -0.140650 0.540000 143 186 125
0.068090 -0.140650 0.540000 72 115 54
-0.047892 -0.167871 0.651000 55 73 27
-0.046204 -0.167871 0.651000 167 185 139
-0.044516 -0.167871 0.651000 181 219 146
-0.042828 -0.167871 0.651000 176 214 141
-0.041203 -0.168128 0.652000 144 179 121
-0.039513 -0.168128 0.652000 32 67 9
0.059689 -0.139247 0.540000 42 62 45
0.061089 -0.139247 0.540000 108 152 88
0.062489 -0.139247 0.540000 160 204 140
0.063889 -0.139247 0.540000 155 206 122
0.065290 -0.139247 0.540000 152 203 119
0.066690 -0.139247 0.540000 154 202 133
0.068090 -0.139247 0.540000 128 176 107
-0.047966 -0.166436 0.652000 57 75 29
-0.046275 -0.166436 0.652000 173 191 145
-0.044585 -0.166436 0.652000 181 222 148
-0.042894 -0.166436 0.652000 169 210 136
-0.041266 -0.166691 0.653000 139 174 118
-0.039573 -0.166691 0.653000 29 64 8
0.061089 -0.137845 0.540000 56 89 45
0.062489 -0.137845 0.540000 142 175 131
0.063889 -0.137845 0.540000 160 210 129
0.065290 -0.137845 0.540000 153 203 122
0.066813 -0.138101 0.541000 152 205 127
0.068216 -0.138101 0.541000 150 203 125
-0.048039 -0.164995 0.653000 52 73 31
-0.046346 -0.164995 0.653000 165 186 144
-0.044653 -0.164995 0.653000 180 223 148
-0.042960 -0.164995 0.653000 169 212 137
-0.041266 -0.164995 0.653000 142 177 119
-0.039573 -0.164995 0.653000 27 62 4
0.062489 -0.136443 0.540000 83 110 79
0.064008 -0.136696 0.541000 157 204 130
0.065411 -0.136696 0.541000 161 208 134
0.066813 -0.136696 0.541000 152 206 121
0.068216 -0.136696 0.541000 150 204 119
0.069748 -0.136949 0.542000 130 175 115
-0.046417 -0.163550 0.654000 161 182 142
-0.044653 -0.163300 0.653000 182 224 154
-0.042960 -0.163300 0.653000 166 208 138
-0.041330 -0.163550 0.654000 147 183 122
-0.039634 -0.163550 0.654000 28 64 3
0.062605 -0.135291 0.541000 45 63 42
0.064008 -0.135291 0.541000 117 157 97
0.065532 -0.135541 0.542000 171 211 151
0.066937 -0.135541 0.542000 160 210 129
0.068342 -0.135541 0.542000 155 205 124
0.069876 -0.135791 0.543000 156 203 131
-0.046417 -0.161852 0.654000 152 173 135
-0.044721 -0.161852 0.654000 181 226 155
-0.043025 -0.161852 0.654000 165 210 139
-0.041330 -0.161852 0.654000 149 185 124
-0.039634 -0.161852 0.654000 32 68 7
0.064126 -0.134134 0.542000 66 98 49
0.065532 -0.134134 0.542000 156 188 139
0.067060 -0.134382 0.543000 172 220 141
0.068595 -0.134629 0.544000 159 207 128
0.070005 -0.134629 0.544000 157 205 126
0.071416 -0.134629 0.544000 149 197 118
-0.046417 -0.160154 0.654000 143 167 128
-0.044721 -0.160154 0.654000 180 225 154
-0.043025 -0.160154 0.654000 171 216 145
-0.041330 -0.160154 0.654000 151 187 126
-0.039694 -0.160399 0.655000 34 70 9
0.064363 -0.133217 0.544000 47 72 37
0.065652 -0.132972 0.543000 95 120 85
0.067184 -0.133217 0.544000 171 216 143
0.068595 -0.133217 0.544000 167 212 139
0.070134 -0.133462 0.545000 159 207 126
0.071547 -0.133462 0.545000 158 206 125
0.073094 -0.133706 0.546000 130 170 114
-0.046488 -0.158698 0.655000 138 161 127
-0.044721 -0.158456 0.654000 181 225 157
-0.043091 -0.158698 0.655000 174 218 150
-0.041393 -0.158698 0.655000 154 190 125
-0.039694 -0.158698 0.655000 36 72 7
0.065894 -0.132047 0.545000 57 76 50
0.067307 -0.132047 0.545000 137 178 111
0.068721 -0.132047 0.545000 176 217 150
0.070262 -0.132289 0.546000 168 216 135
0.071678 -0.132289 0.546000 156 204 123
0.073094 -0.132289 0.546000 156 200 136
-0.046488 -0.156997 0.655000 119 141 110
-0.044790 -0.156997 0.655000 174 218 152
-0.043091 -0.156997 0.655000 171 215 149
-0.041393 -0.156997 0.655000 160 196 131
-0.039755 -0.157237 0.656000 37 73 8
0.067431 -0.130871 0.546000 71 105 56
0.068847 -0.130871 0.546000 167 201 152
0.070262 -0.130871 0.546000 172 220 141
0.071810 -0.131111 0.547000 159 207 128
0.073228 -0.131111 0.547000 161 208 136
0.074646 -0.131111 0.547000 130 177 105
-0.046559 -0.155534 0.656000 112 136 106
-0.044858 -0.155534 0.656000 171 217 150
-0.043157 -0.155534 0.656000 168 214 147
-0.041456 -0.155534 0.656000 158 197 131
-0.039816 -0.155771 0.657000 39 78 12
0.067431 -0.129454 0.546000 38 66 28
0.068847 -0.129454 0.546000 113 141 103
0.070391 -0.129691 0.547000 178 226 149
0.071810 -0.129691 0.547000 168 216 139
0.073228 -0.129691 0.547000 163 211 134
0.074646 -0.129691 0.547000 157 205 128
-0.046630 -0.154065 0.657000 108 132 104
-0.044926 -0.154065 0.657000 169 213 147
-0.043223 -0.154065 0.657000 171 215 149
-0.041519 -0.154065 0.657000 157 198 131
-0.039816 -0.154065 0.657000 47 88 21
0.068973 -0.128270 0.547000 71 90 62
0.070391 -0.128270 0.547000 164 206 136
0.071810 -0.128270 0.547000 175 217 147
0.073228 -0.128270 0.547000 169 217 138
0.074783 -0.128505 0.548000 166 214 135
-0.046701 -0.152591 0.658000 104 127 102
-0.044926 -0.152359 0.657000 167 208 143
-0.043223 -0.152359 0.657000 173 214 149
-0.041582 -0.152591 0.658000 159 203 137
-0.039937 -0.152823 0.659000 68 112 46
0.068973 -0.126850 0.547000 47 60 43
0.070391 -0.126850 0.547000 113 149 88
0.071810 -0.126850 0.547000 177 213 152
0.073362 -0.127082 0.548000 169 215 135
0.074783 -0.127082 0.548000 160 206 126
0.076204 -0.127082 0.548000 158 202 134
-0.046772 -0.151112 0.659000 83 104 80
-0.045063 -0.151112 0.659000 166 207 140
-0.043354 -0.151112 0.659000 173 214 147
-0.041646 -0.151112 0.659000 160 204 138
-0.039997 -0.151341 0.660000 80 124 58
-0.038344 -0.151571 0.661000 37 61 29
0.070520 -0.125659 0.548000 53 85 36
0.071941 -0.125659 0.548000 153 185 136
0.073362 -0.125659 0.548000 174 220 140
0.074783 -0.125659 0.548000 169 215 135
0.076343 -0.125889 0.549000 151 199 122
-0.046914 -0.149854 0.661000 71 90 64
-0.045132 -0.149628 0.660000 167 207 138
-0.043420 -0.149628 0.660000 175 215 146
-0.041772 -0.149854 0.661000 165 206 139
-0.040119 -0.150081 0.662000 96 137 70
-0.038402 -0.150081 0.662000 35 59 29
0.071941 -0.124236 0.548000 106 131 96
0.073362 -0.124236 0.548000 168 216 137
0.074919 -0.124463 0.549000 166 214 135
0.076343 -0.124463 0.549000 154 205 121
0.077766 -0.124463 0.549000 153 204 120
-0.046985 -0.148362 0.662000 63 80 54
-0.045268 -0.148362 0.662000 154 194 125
-0.043552 -0.148362 0.662000 173 213 144
-0.041835 -0.148362 0.662000 165 206 139
-0.040179 -0.148586 0.663000 112 153 86
-0.038460 -0.148586 0.663000 35 59 29
0.072072 -0.123038 0.549000 47 68 44
0.073496 -0.123038 0.549000 144 188 122
0.075056 -0.123262 0.550000 166 210 144
0.076482 -0.123262 0.550000 157 208 122
0.078050 -0.123486 0.551000 153 204 118
0.079478 -0.123486 0.551000 149 193 129
-0.047056 -0.146865 0.663000 53 68 43
-0.045337 -0.146865 0.663000 147 184 116
-0.043618 -0.146865 0.663000 175 212 144
-0.041898 -0.146865 0.663000 164 205 138
-0.040240 -0.147087 0.664000 119 160 93
-0.038518 -0.147087 0.664000 33 60 27
0.073629 -0.121834 0.550000 90 128 73
0.075192 -0.122055 0.551000 169 207 152
0.076760 -0.122277 0.552000 159 210 126
0.078191 -0.122277 0.552000 155 206 122
0.081201 -0.122498 0.553000 107 152 79
0.082635 -0.122498 0.553000 28 57 25
-0.047127 -0.145363 0.664000 51 61 38
-0.045405 -0.145363 0.664000 153 189 126
-0.043683 -0.145363 0.664000 171 207 144
-0.041962 -0.145363 0.664000 165 207 137
-0.040240 -0.145363 0.664000 125 167 97
-0.038576 -0.145581 0.665000 32 60 24
0.075329 -0.120844 0.552000 150 180 141
0.076899 -0.121062 0.553000 169 218 134
0.078333 -0.121062 0.553000 159 208 124
0.079767 -0.121062 0.553000 156 204 123
0.081201 -0.121062 0.553000 147 195 114
0.082784 -0.121281 0.554000 47 79 40
-0.047198 -0.143855 0.665000 49 60 39
-0.045473 -0.143855 0.665000 149 183 122
-0.043749 -0.143855 0.665000 172 206 145
-0.042025 -0.143855 0.665000 165 210 139
-0.040300 -0.143855 0.665000 134 179 108
-0.038576 -0.143855 0.665000 33 62 21
0.075465 -0.119627 0.553000 92 115 90
0.077038 -0.119843 0.554000 170 216 140
0.078475 -0.119843 0.554000 164 210 134
0.079911 -0.119843 0.554000 157 205 124
0.081348 -0.119843 0.554000 159 207 126
0.082933 -0.120059 0.555000 100 134 85
-0.045473 -0.142128 0.665000 127 160 102
-0.043749 -0.142128 0.665000 172 205 147
-0.042025 -0.142128 0.665000 168 210 138
-0.040300 -0.142128 0.665000 148 190 118
-0.038576 -0.142128 0.665000 41 67 23
0.075601 -0.118405 0.554000 48 68 51
0.077177 -0.118618 0.555000 150 192 122
0.078616 -0.118618 0.555000 172 214 144
0.080055 -0.118618 0.555000 159 208 124
0.081494 -0.118618 0.555000 158 207 123
0.082933 -0.118618 0.555000 140 180 120
-0.045473 -0.140402 0.665000 93 128 74
-0.043749 -0.140402 0.665000 169 204 150
-0.042025 -0.140402 0.665000 166 208 136
-0.040300 -0.140402 0.665000 158 200 128
-0.038634 -0.140613 0.666000 50 80 30
0.077177 -0.117177 0.555000 104 142 83
0.078616 -0.117177 0.555000 172 210 151
0.080055 -0.117177 0.555000 157 206 120
0.081641 -0.117388 0.556000 156 205 119
0.083083 -0.117388 0.556000 160 204 136
-0.045542 -0.138884 0.666000 75 108 54
-0.043815 -0.138884 0.666000 166 199 145
-0.042088 -0.138884 0.666000 162 205 130
-0.040361 -0.138884 0.666000 161 204 129
-0.038634 -0.138884 0.666000 64 96 45
-0.036907 -0.138884 0.666000 36 68 17
0.077316 -0.115945 0.556000 47 80 34
0.078758 -0.115945 0.556000 150 183 137
0.080200 -0.115945 0.556000 166 215 131
0.081641 -0.115945 0.556000 156 205 121
0.083083 -0.115945 0.556000 164 212 133
-0.045542 -0.137154 0.666000 68 98 48
-0.043815 -0.137154 0.666000 170 200 150
-0.042088 -0.137154 0.666000 159 202 127
-0.040361 -0.137154 0.666000 161 204 129
-0.038634 -0.137154 0.666000 89 123 72
-0.036963 -0.137360 0.667000 27 61 10
0.077455 -0.114707 0.557000 30 58 20
0.078899 -0.114707 0.557000 101 129 91
0.080344 -0.114707 0.557000 171 219 140
0.081788 -0.114707 0.557000 161 209 130
0.083382 -0.114913 0.558000 157 207 126
0.084981 -0.115119 0.559000 155 205 124
-0.045610 -0.135628 0.667000 57 87 37
-0.043881 -0.135628 0.667000 165 195 145
-0.042088 -0.135425 0.666000 158 201 126
-0.040422 -0.135628 0.667000 161 204 129
-0.038692 -0.135628 0.667000 117 151 100
-0.036963 -0.135628 0.667000 25 59 8
0.079183 -0.113668 0.559000 62 84 53
0.080776 -0.113871 0.560000 156 203 129
0.082229 -0.113871 0.560000 165 212 138
0.083681 -0.113871 0.560000 153 207 122
0.085133 -0.113871 0.560000 161 215 130
-0.045610 -0.133897 0.667000 45 75 27
-0.043881 -0.133897 0.667000 154 184 136
-0.042151 -0.133897 0.667000 152 197 124
-0.040422 -0.133897 0.667000 158 203 130
-0.038692 -0.133897 0.667000 133 173 117
-0.036963 -0.133897 0.667000 25 65 9
0.079466 -0.112618 0.561000 40 58 35
0.080921 -0.112618 0.561000 114 158 90
0.082375 -0.112618 0.561000 171 215 147
0.083830 -0.112618 0.561000 153 207 122
0.085285 -0.112618 0.561000 161 215 130
-0.045679 -0.132363 0.668000 31 60 17
-0.043881 -0.132165 0.667000 138 167 124
-0.042151 -0.132165 0.667000 156 203 129
-0.040422 -0.132165 0.667000 152 199 125
-0.038692 -0.132165 0.667000 144 184 124
0.081209 -0.111557 0.563000 59 98 36
0.082669 -0.111557 0.563000 167 206 144
0.084129 -0.111557 0.563000 160 211 125
0.085589 -0.111557 0.563000 159 210 124
-0.043946 -0.130629 0.668000 99 126 93
-0.042214 -0.130629 0.668000 161 207 138
-0.040482 -0.130629 0.668000 150 196 127
-0.038750 -0.130629 0.668000 151 195 127
-0.037018 -0.130629 0.668000 43 87 19
0.081353 -0.110291 0.564000 36 66 16
0.082816 -0.110291 0.564000 143 173 123
0.084278 -0.110291 0.564000 164 215 131
0.085741 -0.110291 0.564000 156 207 123
0.087203 -0.110291 0.564000 165 210 137
-0.043946 -0.128894 0.668000 68 95 66
-0.042214 -0.128894 0.668000 159 205 140
-0.040482 -0.128894 0.668000 150 196 131
-0.038750 -0.128894 0.668000 158 203 132
-0.037018 -0.128894 0.668000 70 115 44
-0.035339 -0.129087 0.669000 30 57 26
0.081353 -0.108827 0.564000 34 57 21
0.082816 -0.108827 0.564000 106 129 93
0.084278 -0.108827 0.564000 171 217 139
0.085741 -0.108827 0.564000 160 206 128
0.087358 -0.109020 0.565000 165 211 133
-0.044012 -0.127350 0.669000 59 80 56
-0.042278 -0.127350 0.669000 157 201 137
-0.040482 -0.127160 0.668000 155 199 135
-0.038808 -0.127350 0.669000 158 203 130
-0.037073 -0.127350 0.669000 84 129 56
-0.035339 -0.127350 0.669000 31 59 23
0.082963 -0.107553 0.565000 62 81 55
0.084428 -0.107553 0.565000 166 208 136
0.085893 -0.107553 0.565000 169 211 139
0.087512 -0.107743 0.566000 161 209 130
-0.044012 -0.125613 0.669000 51 67 44
-0.042278 -0.125613 0.669000 154 195 132
-0.040543 -0.125613 0.669000 157 198 135
-0.038808 -0.125613 0.669000 156 203 129
-0.037129 -0.125801 0.670000 105 152 78
-0.035392 -0.125801 0.670000 26 54 18
0.083110 -0.106274 0.566000 40 56 35
0.084577 -0.106274 0.566000 136 176 116
0.086045 -0.106274 0.566000 174 214 154
0.089137 -0.106461 0.567000 170 220 141
0.090767 -0.106649 0.568000 144 183 130
-0.044078 -0.124061 0.670000 45 56 35
-0.042341 -0.124061 0.670000 136 172 111
-0.040603 -0.124061 0.670000 162 198 137
-0.038866 -0.124061 0.670000 155 203 126
-0.037129 -0.124061 0.670000 129 177 100
-0.035444 -0.124246 0.671000 27 57 18
0.084876 -0.105174 0.568000 91 127 80
0.086349 -0.105174 0.568000 175 211 164
0.087822 -0.105174 0.568000 163 213 136
0.089452 -0.105360 0.569000 167 217 140
0.091087 -0.105545 0.570000 164 207 150
-0.044144 -0.122504 0.671000 43 54 33
-0.042341 -0.122322 0.670000 112 146 85
-0.040603 -0.122322 0.670000 166 200 139
-0.038924 -0.122504 0.671000 150 198 121
-0.037184 -0.122504 0.671000 143 191 114
-0.035444 -0.122504 0.671000 30 63 21
0.085175 -0.104065 0.570000 51 84 42
0.086653 -0.104065 0.570000 162 195 153
0.088131 -0.104065 0.570000 173 222 148
0.089766 -0.104247 0.571000 167 216 142
0.091247 -0.104247 0.571000 173 219 154
-0.042404 -0.120762 0.671000 95 128 72
-0.040664 -0.120762 0.671000 165 198 142
-0.038924 -0.120762 0.671000 147 194 122
-0.037184 -0.120762 0.671000 149 196 124
-0.035550 -0.121122 0.673000 39 75 30
0.085474 -0.102945 0.572000 30 58 20
0.086957 -0.102945 0.572000 142 170 132
0.088440 -0.102945 0.572000 176 221 148
0.089923 -0.102945 0.572000 165 210 137
0.091566 -0.103125 0.573000 174 218 150
-0.042404 -0.119020 0.671000 89 120 74
-0.040725 -0.119197 0.672000 164 195 149
-0.038982 -0.119197 0.672000 145 193 124
-0.037295 -0.119375 0.673000 150 198 129
-0.035550 -0.119375 0.673000 72 111 60
0.085623 -0.101637 0.573000 27 52 17
0.087109 -0.101637 0.573000 99 124 89
0.088595 -0.101637 0.573000 173 218 147
0.090081 -0.101637 0.573000 170 215 144
0.091566 -0.101637 0.573000 177 221 153
-0.042530 -0.117627 0.673000 67 98 56
-0.040725 -0.117452 0.672000 162 193 151
-0.039040 -0.117627 0.673000 142 190 123
-0.037295 -0.117627 0.673000 153 201 134
-0.035603 -0.117802 0.674000 102 141 88
-0.033905 -0.117977 0.675000 23 62 9
0.087261 -0.100324 0.574000 62 84 55
0.088749 -0.100324 0.574000 169 210 143
0.090238 -0.100324 0.574000 176 217 150
0.091886 -0.100499 0.575000 173 217 149
-0.042530 -0.115880 0.673000 46 74 38
-0.040785 -0.115880 0.673000 157 185 149
-0.039040 -0.115880 0.673000 144 190 123
-0.037351 -0.116052 0.674000 155 201 134
-0.035603 -0.116052 0.674000 115 155 99
-0.033905 -0.116224 0.675000 20 60 4
0.087413 -0.099006 0.575000 49 65 42
0.088904 -0.099006 0.575000 147 188 125
0.090552 -0.099178 0.576000 173 214 151
0.092046 -0.099178 0.576000 163 209 140
0.093539 -0.099178 0.576000 165 211 142
-0.042594 -0.114302 0.674000 42 66 34
-0.040846 -0.114302 0.674000 137 161 129
-0.039098 -0.114302 0.674000 156 200 134
-0.037351 -0.114302 0.674000 153 197 131
-0.035656 -0.114472 0.675000 128 171 114
-0.033956 -0.114641 0.676000 20 63 6
0.087869 -0.098022 0.578000 38 53 37
0.089368 -0.098022 0.578000 122 160 103
0.090867 -0.098022 0.578000 172 210 153
0.092525 -0.098191 0.579000 161 208 136
0.094026 -0.098191 0.579000 165 212 140
-0.042657 -0.112719 0.675000 40 59 29
-0.040906 -0.112719 0.675000 130 149 119
-0.039156 -0.112719 0.675000 158 199 136
-0.037406 -0.112719 0.675000 153 194 131
-0.035656 -0.112719 0.675000 146 189 130
-0.033956 -0.112886 0.676000 38 81 22
0.089832 -0.097022 0.581000 97 132 78
0.091338 -0.097022 0.581000 171 206 152
0.092845 -0.097022 0.581000 158 203 130
0.094351 -0.097022 0.581000 164 209 136
-0.042720 -0.111131 0.676000 42 59 29
-0.040906 -0.110967 0.675000 110 127 97
-0.039156 -0.110967 0.675000 157 198 135
-0.037461 -0.111131 0.676000 148 189 126
-0.035709 -0.111131 0.676000 152 195 134
-0.033956 -0.111131 0.676000 48 91 30
0.089986 -0.095678 0.582000 81 113 62
0.091495 -0.095678 0.582000 165 197 146
0.093005 -0.095678 0.582000 157 202 129
0.094514 -0.095678 0.582000 159 204 131
-0.042783 -0.109538 0.677000 38 57 27
-0.040967 -0.109376 0.676000 86 105 75
-0.039214 -0.109376 0.676000 158 199 136
-0.037461 -0.109376 0.676000 144 185 122
-0.035709 -0.109376 0.676000 155 200 138
-0.034006 -0.109538 0.677000 55 100 38
0.090296 -0.094490 0.584000 68 95 48
0.091810 -0.094490 0.584000 163 190 143
0.093324 -0.094490 0.584000 153 198 125
0.094838 -0.094490 0.584000 160 205 132
-0.041028 -0.107780 0.677000 72 91 63
-0.039272 -0.107780 0.677000 155 196 133
-0.037517 -0.107780 0.677000 144 185 122
-0.035761 -0.107780 0.677000 151 196 134
-0.034006 -0.107780 0.677000 72 117 55
0.090914 -0.093611 0.588000 53 79 35
0.092439 -0.093611 0.588000 156 182 138
0.093963 -0.093611 0.588000 158 203 130
0.095488 -0.093611 0.588000 162 207 134
-0.041028 -0.106022 0.677000 56 72 51
-0.039272 -0.106022 0.677000 145 188 129
-0.037517 -0.106022 0.677000 144 187 128
-0.035761 -0.106022 0.677000 147 195 130
-0.034056 -0.106179 0.678000 105 153 88
-0.032298 -0.106179 0.678000 23 53 16
0.091378 -0.092554 0.591000 41 67 23
0.092910 -0.092554 0.591000 151 177 133
0.094443 -0.092554 0.591000 157 202 131
-0.041088 -0.104418 0.678000 45 62 44
-0.039330 -0.104418 0.678000 136 179 122
-0.037572 -0.104418 0.678000 145 188 131
-0.035814 -0.104418 0.678000 148 194 129
-0.034056 -0.104418 0.678000 123 169 104
-0.032298 -0.104418 0.678000 24 54 17
0.091532 -0.091173 0.592000 37 63 21
0.093068 -0.091173 0.592000 146 172 130
0.094603 -0.091173 0.592000 151 196 125
0.096138 -0.091173 0.592000 157 202 131
-0.041088 -0.102658 0.678000 44 61 45
-0.039330 -0.102658 0.678000 133 172 119
-0.037572 -0.102658 0.678000 150 189 136
-0.035814 -0.102658 0.678000 141 187 122
-0.034056 -0.102658 0.678000 130 176 111
-0.032298 -0.102658 0.678000 30 60 21
-0.041088 -0.100898 0.678000 44 59 43
-0.039330 -0.100898 0.678000 125 162 112
-0.037572 -0.100898 0.678000 154 191 141
-0.035814 -0.100898 0.678000 137 183 116
-0.034056 -0.100898 0.678000 140 186 119
-0.032346 -0.101046 0.679000 39 70 28
-0.041149 -0.099283 0.679000 43 56 41
-0.039330 -0.099137 0.678000 115 149 100
-0.037572 -0.099137 0.678000 153 187 138
-0.035814 -0.099137 0.678000 140 186 117
-0.034106 -0.099283 0.679000 144 190 121
-0.032346 -0.099283 0.679000 49 82 40
0.091518 -0.088024 0.602000 37 43 26
0.092924 -0.087878 0.601000 89 102 71
0.094482 -0.087878 0.601000 185 198 167
0.096041 -0.087878 0.601000 172 191 151
-0.041149 -0.097520 0.679000 43 53 39
-0.039388 -0.097520 0.679000 102 134 83
-0.037572 -0.097377 0.678000 159 191 140
-0.035867 -0.097520 0.679000 138 184 115
-0.034106 -0.097520 0.679000 145 191 122
-0.032393 -0.097664 0.680000 56 92 49
0.091974 -0.086892 0.605000 71 75 50
0.093542 -0.086892 0.605000 111 124 93
0.095111 -0.086892 0.605000 204 217 186
0.096680 -0.086892 0.605000 211 226 197
-0.039388 -0.095757 0.679000 60 90 40
-0.037628 -0.095757 0.679000 160 190 140
-0.035867 -0.095757 0.679000 140 186 119
-0.034106 -0.095757 0.679000 147 193 126
-0.032393 -0.095898 0.680000 68 104 61
-0.039446 -0.094133 0.680000 54 81 32
-0.037628 -0.093994 0.679000 159 186 137
-0.035867 -0.093994 0.679000 139 183 117
-0.034157 -0.094133 0.680000 149 193 127
-0.032441 -0.094271 0.681000 80 116 73
-0.030720 -0.094410 0.682000 25 61 18
0.097172 -0.094963 0.686000 87 89 76
-0.039446 -0.092367 0.680000 48 74 30
-0.037683 -0.092367 0.680000 152 178 134
-0.035920 -0.092367 0.680000 142 186 122
-0.034157 -0.092367 0.680000 146 190 126
-0.032441 -0.092503 0.681000 90 126 79
-0.030765 -0.092775 0.683000 25 61 14
0.097314 -0.093318 0.687000 55 57 46
-0.039446 -0.090602 0.680000 42 68 28
-0.037683 -0.090602 0.680000 151 177 137
-0.035920 -0.090602 0.680000 143 188 126
-0.034157 -0.090602 0.680000 145 190 128
-0.032441 -0.090735 0.681000 103 139 92
-0.030765 -0.091002 0.683000 26 62 15
0.097314 -0.091534 0.687000 37 39 26
0.099095 -0.091534 0.687000 43 52 34
-0.039504 -0.088967 0.681000 38 63 26
-0.037683 -0.088836 0.680000 137 162 125
-0.035920 -0.088836 0.680000 144 189 127
-0.034207 -0.088967 0.681000 143 188 126
-0.032489 -0.089098 0.682000 108 144 97
-0.030765 -0.089228 0.683000 27 63 16
0.097597 -0.090012 0.689000 50 52 39
-0.039504 -0.087199 0.681000 38 62 30
-0.037738 -0.087199 0.681000 130 154 122
-0.035973 -0.087199 0.681000 145 190 128
-0.034207 -0.087199 0.681000 141 186 124
-0.032489 -0.087327 0.682000 116 155 104
-0.030810 -0.087583 0.684000 29 68 17
0.097597 -0.088223 0.689000 86 88 75
-0.039562 -0.085556 0.682000 39 63 33
-0.037738 -0.085431 0.681000 116 140 110
-0.035973 -0.085431 0.681000 145 192 132
-0.034257 -0.085556 0.682000 136 183 123
-0.032536 -0.085681 0.683000 128 168 112
-0.030855 -0.085932 0.685000 27 67 11
-0.039562 -0.083785 0.682000 39 63 35
-0.037794 -0.083785 0.682000 110 134 106
-0.036025 -0.083785 0.682000 144 194 133
-0.034307 -0.083908 0.683000 131 181 120
-0.032584 -0.084031 0.684000 136 179 122
-0.030900 -0.084277 0.686000 30 73 16
-0.039620 -0.082135 0.683000 39 62 37
-0.037794 -0.082015 0.682000 106 129 104
-0.036078 -0.082135 0.683000 145 195 136
-0.034307 -0.082135 0.683000 127 177 118
-0.032632 -0.082375 0.685000 141 184 127
-0.030945 -0.082616 0.687000 32 75 18
-0.039620 -0.080361 0.683000 36 62 36
-0.037849 -0.080361 0.683000 100 126 100
-0.036078 -0.080361 0.683000 144 194 135
-0.034357 -0.080479 0.684000 129 179 120
-0.032679 -0.080714 0.686000 141 184 123
-0.030945 -0.080832 0.687000 37 80 19
-0.039678 -0.078703 0.684000 38 64 40
-0.037849 -0.078588 0.683000 99 125 101
-0.036078 -0.078588 0.683000 145 192 132
-0.034408 -0.078818 0.685000 134 181 121
-0.032679 -0.078933 0.686000 142 186 122
-0.039620 -0.076815 0.683000 40 66 40
-0.037849 -0.076815 0.683000 95 121 95
-0.036078 -0.076815 0.683000 143 190 130
-0.034408 -0.077040 0.685000 133 180 120
-0.032727 -0.077265 0.687000 143 187 123
-0.039678 -0.075151 0.684000 38 64 40
-0.037905 -0.075151 0.684000 92 118 94
-0.036131 -0.075151 0.684000 147 192 132
-0.034458 -0.075371 0.686000 135 180 120
-0.032727 -0.075481 0.687000 142 186 122
-0.037905 -0.073375 0.684000 80 103 78
-0.036184 -0.073483 0.685000 148 193 133
-0.034458 -0.073590 0.686000 136 181 121
-0.030990 -0.073804 0.688000 64 107 46
-0.037905 -0.071599 0.684000 74 93 67
-0.036184 -0.071704 0.685000 148 191 132
-0.034458 -0.071809 0.686000 138 181 122
-0.030990 -0.072018 0.688000 74 117 56
-0.037960 -0.069925 0.685000 66 85 59
-0.036184 -0.069925 0.685000 147 192 132
-0.034458 -0.070028 0.686000 140 185 125
-0.030990 -0.070232 0.688000 82 125 66
-0.029291 -0.070436 0.690000 38 61 36
-0.039794 -0.068246 0.686000 49 68 42
-0.037960 -0.068147 0.685000 63 82 56
-0.036184 -0.068147 0.685000 145 188 127
-0.034458 -0.068246 0.686000 139 182 121
-0.030990 -0.068445 0.688000 91 134 75
-0.029291 -0.068644 0.690000 38 61 36
-0.039794 -0.066465 0.686000 42 61 35
-0.037960 -0.066368 0.685000 63 82 56
-0.036184 -0.066368 0.685000 144 187 128
-0.034458 -0.066465 0.686000 138 181 122
-0.030990 -0.066659 0.688000 97 142 82
-0.029291 -0.066853 0.690000 41 64 39
-0.039794 -0.064684 0.686000 38 59 35
-0.037960 -0.064590 0.685000 57 78 54
-0.036184 -0.064590 0.685000 143 186 127
-0.034458 -0.064684 0.686000 143 186 127
-0.030990 -0.064873 0.688000 92 137 77
-0.029291 -0.065061 0.690000 38 64 38
-0.037960 -0.062811 0.685000 60 81 57
-0.036184 -0.062811 0.685000 144 189 131
-0.034458 -0.062903 0.686000 141 186 128
-0.030990 -0.063086 0.688000 93 138 78
-0.029291 -0.063270 0.690000 42 69 40
-0.037905 -0.060944 0.684000 61 82 58
-0.036184 -0.061033 0.685000 146 189 132
-0.034458 -0.061122 0.686000 138 181 124
-0.031036 -0.061389 0.689000 86 129 70
-0.029334 -0.061567 0.691000 42 66 38
-0.037794 -0.058995 0.682000 60 81 57
-0.036131 -0.059168 0.684000 148 191 134
-0.034458 -0.059341 0.686000 141 184 127
-0.030990 -0.059514 0.688000 87 130 71
-0.029334 -0.059773 0.691000 41 65 37
-0.040026 -0.057895 0.690000 41 62 40
-0.037849 -0.057308 0.683000 64 85 63
-0.036131 -0.057392 0.684000 148 191 134
-0.034458 -0.057560 0.686000 146 189 132
-0.031036 -0.057811 0.689000 90 135 75
-0.029334 -0.057979 0.691000 45 69 41
-0.039678 -0.055616 0.684000 40 61 39
-0.037794 -0.055453 0.682000 69 90 68
-0.036131 -0.055616 0.684000 144 188 133
-0.034458 -0.055778 0.686000 142 186 131
-0.031036 -0.056022 0.689000 84 129 69
-0.039620 -0.053761 0.683000 40 62 42
-0.037738 -0.053604 0.681000 70 92 72
-0.036131 -0.053840 0.684000 142 188 135
-0.034458 -0.053997 0.686000 135 181 128
-0.031081 -0.054312 0.690000 83 128 68
-0.037683 -0.051759 0.680000 82 108 84
-0.036131 -0.052064 0.684000 143 189 136
-0.032727 -0.052292 0.687000 141 186 126
-0.031081 -0.052521 0.690000 76 121 61
-0.039446 -0.049994 0.680000 35 61 37
-0.037628 -0.049920 0.679000 88 114 90
-0.036078 -0.050214 0.683000 142 188 135
-0.032727 -0.050509 0.687000 143 188 128
-0.031081 -0.050729 0.690000 67 112 52
-0.039388 -0.048157 0.679000 32 57 36
-0.037683 -0.048228 0.680000 90 115 94
-0.036078 -0.048441 0.683000 139 188 132
-0.032774 -0.048796 0.688000 140 185 125
-0.031081 -0.048938 0.690000 60 105 45
-0.039446 -0.046463 0.680000 36 62 38
-0.037683 -0.046463 0.680000 94 120 96
-0.036184 -0.046804 0.685000 138 188 129
-0.032822 -0.047078 0.689000 138 183 121
-0.031126 -0.047214 0.691000 49 94 32
-0.039446 -0.044697 0.680000 35 60 39
-0.037738 -0.044763 0.681000 99 124 103
-0.036184 -0.045026 0.685000 139 189 130
-0.032822 -0.045289 0.689000 138 183 121
-0.031126 -0.045420 0.691000 44 89 27
-0.039330 -0.042805 0.678000 32 58 32
-0.037683 -0.042932 0.680000 101 127 101
-0.036184 -0.043247 0.685000 142 194 134
-0.032870 -0.043563 0.690000 137 180 121
-0.031126 -0.043626 0.691000 35 78 19
-0.039330 -0.041045 0.678000 33 57 29
-0.037683 -0.041166 0.680000 113 137 109
-0.036184 -0.041469 0.685000 144 196 136
-0.032870 -0.041772 0.690000 133 177 122
-0.031171 -0.041893 0.692000 31 75 20
-0.039330 -0.039285 0.678000 39 63 33
-0.037683 -0.039401 0.680000 125 149 119
-0.036237 -0.039748 0.686000 143 195 135
-0.032870 -0.039980 0.690000 123 167 114
-0.031171 -0.040096 0.692000 29 73 20
-0.039330 -0.037524 0.678000 38 65 34
-0.037683 -0.037635 0.680000 134 161 130
-0.034458 -0.037967 0.686000 128 180 120
-0.032870 -0.038188 0.690000 116 159 109
-0.031216 -0.038355 0.693000 26 69 19
-0.039272 -0.035711 0.677000 38 68 31
-0.037683 -0.035869 0.680000 141 171 134
-0.034458 -0.036186 0.686000 130 182 120
-0.032870 -0.036397 0.690000 99 142 94
-0.031216 -0.036555 0.693000 23 66 18
-0.039272 -0.033953 0.677000 39 71 34
-0.037738 -0.034154 0.681000 142 174 137
-0.034508 -0.034455 0.687000 129 181 121
-0.032870 -0.034605 0.690000 91 132 87
-0.031261 -0.034806 0.694000 22 63 18
-0.039214 -0.032148 0.676000 47 81 46
-0.037683 -0.032338 0.680000 144 178 143
-0.034508 -0.032671 0.687000 129 181 121
-0.032870 -0.032814 0.690000 80 122 79
-0.041088 -0.030483 0.678000 38 54 43
-0.039214 -0.030393 0.676000 66 105 68
-0.037683 -0.030573 0.680000 145 184 147
-0.034508 -0.030887 0.687000 132 183 126
-0.032870 -0.031022 0.690000 70 110 70
-0.041028 -0.028680 0.677000 38 55 41
-0.039156 -0.028595 0.675000 91 130 93
-0.037683 -0.028807 0.680000 144 183 146
-0.034508 -0.029104 0.687000 132 181 125
-0.032870 -0.029231 0.690000 63 98 60
-0.297539 -0.028632 0.720000 29 42 37
-0.296083 -0.028672 0.721000 30 43 38
-0.294213 -0.028672 0.721000 32 45 40
-0.292343 -0.028672 0.721000 30 41 37
-0.290474 -0.028672 0.721000 29 40 36
-0.040967 -0.026883 0.676000 37 54 40
-0.039098 -0.026803 0.674000 105 147 106
-0.037683 -0.027042 0.680000 138 180 139
-0.034508 -0.027320 0.687000 131 182 125
-0.032822 -0.027400 0.689000 49 81 44
-0.299822 -0.026800 0.721000 30 43 38
-0.297952 -0.026800 0.721000 31 44 39
-0.296083 -0.026800 0.721000 32 45 40
-0.294213 -0.026800 0.721000 33 46 41
-0.292343 -0.026800 0.721000 31 43 35
-0.290474 -0.026800 0.721000 29 41 33
-0.288604 -0.026800 0.721000 39 47 44
-0.040846 -0.025053 0.674000 40 55 39
-0.039098 -0.025053 0.674000 113 156 110
-0.037572 -0.025202 0.678000 134 177 131
-0.035920 -0.025276 0.680000 122 174 114
-0.032727 -0.025536 0.687000 37 67 30
-0.299822 -0.024928 0.721000 32 43 39
-0.297952 -0.024928 0.721000 32 43 39
-0.296083 -0.024928 0.721000 34 46 38
-0.294213 -0.024928 0.721000 34 46 38
-0.292343 -0.024928 0.721000 30 42 34
-0.290474 -0.024928 0.721000 27 39 31
-0.288604 -0.024928 0.721000 31 39 36
-0.040785 -0.023269 0.673000 44 59 41
-0.039040 -0.023269 0.673000 123 166 116
-0.037517 -0.023407 0.677000 140 183 133
-0.035814 -0.023441 0.678000 123 175 115
-0.034357 -0.023649 0.684000 116 168 108
-0.299822 -0.023056 0.721000 39 47 44
-0.297952 -0.023056 0.721000 40 48 45
-0.296083 -0.023056 0.721000 38 49 45
-0.294213 -0.023056 0.721000 36 47 43
-0.292343 -0.023056 0.721000 26 37 33
-0.290474 -0.023056 0.721000 26 37 33
-0.288604 -0.023056 0.721000 29 37 34
-0.040664 -0.021457 0.671000 53 74 52
-0.038982 -0.021489 0.672000 129 175 122
-0.037461 -0.021617 0.676000 132 178 125
-0.035761 -0.021649 0.677000 123 174 117
-0.034207 -0.021777 0.681000 95 146 89
-0.297539 -0.021155 0.720000 39 47 44
-0.295672 -0.021155 0.720000 36 44 43
-0.293805 -0.021155 0.720000 34 42 41
-0.291938 -0.021155 0.720000 26 37 35
-0.290474 -0.021184 0.721000 26 37 35
-0.288604 -0.021184 0.721000 31 39 38
-0.040603 -0.019686 0.670000 60 83 58
-0.038924 -0.019715 0.671000 133 179 126
-0.037406 -0.019833 0.675000 128 174 121
-0.035814 -0.019921 0.678000 126 175 119
-0.297539 -0.019285 0.720000 39 47 44
-0.295261 -0.019258 0.719000 32 45 44
-0.291938 -0.019285 0.720000 28 41 38
-0.290071 -0.019285 0.720000 31 44 41
-0.288604 -0.019312 0.721000 39 45 43
-0.042278 -0.017919 0.669000 32 59 30
-0.040543 -0.017919 0.669000 75 102 73
-0.038866 -0.017946 0.670000 133 179 126
-0.037129 -0.017946 0.670000 124 170 117
-0.035709 -0.018107 0.676000 131 177 122
-0.297126 -0.017392 0.719000 43 52 45
-0.295261 -0.017392 0.719000 26 41 36
-0.293397 -0.017392 0.719000 24 39 34
-0.290071 -0.017416 0.720000 38 50 42
-0.288604 -0.017440 0.721000 43 50 44
-0.042214 -0.016158 0.668000 26 53 24
-0.040482 -0.016158 0.668000 104 131 102
-0.038750 -0.016158 0.668000 133 179 124
-0.037018 -0.016158 0.668000 126 172 117
-0.035392 -0.016206 0.670000 130 172 120
-0.296712 -0.015503 0.718000 60 75 61
-0.294851 -0.015503 0.718000 44 69 50
-0.293397 -0.015525 0.719000 33 58 39
-0.290071 -0.015546 0.720000 38 53 37
-0.042214 -0.014424 0.668000 30 59 27
-0.040482 -0.014424 0.668000 127 156 124
-0.038750 -0.014424 0.668000 131 177 122
-0.037018 -0.014424 0.668000 127 173 118
-0.035286 -0.014424 0.668000 121 160 109
-0.298158 -0.013620 0.717000 83 103 84
-0.296299 -0.013620 0.717000 103 123 104
-0.294440 -0.013620 0.717000 94 125 95
-0.292989 -0.013639 0.718000 79 110 80
-0.290071 -0.013677 0.720000 43 60 42
-0.042151 -0.012670 0.667000 46 77 43
-0.040422 -0.012670 0.667000 135 166 132
-0.038692 -0.012670 0.667000 125 172 112
-0.036963 -0.012670 0.667000 129 176 116
-0.035233 -0.012670 0.667000 105 141 94
-0.298158 -0.011758 0.717000 101 125 97
-0.296299 -0.011758 0.717000 106 130 102
-0.294440 -0.011758 0.717000 82 117 79
-0.292989 -0.011775 0.718000 81 116 78
-0.291532 -0.011791 0.719000 52 73 49
-0.042151 -0.010938 0.667000 64 99 59
-0.040422 -0.010938 0.667000 134 169 129
-0.038692 -0.010938 0.667000 123 173 112
-0.036963 -0.010938 0.667000 129 179 118
-0.035233 -0.010938 0.667000 80 116 73
-0.297742 -0.009883 0.716000 107 135 99
-0.295886 -0.009883 0.716000 100 128 92
-0.294440 -0.009897 0.717000 80 115 77
-0.292989 -0.009911 0.718000 78 113 75
-0.291532 -0.009924 0.719000 48 71 46
-0.043815 -0.009193 0.666000 37 52 36
-0.042088 -0.009193 0.666000 79 120 75
-0.040361 -0.009193 0.666000 132 173 128
-0.038634 -0.009193 0.666000 121 171 110
-0.036907 -0.009193 0.666000 126 176 115
-0.297327 -0.008013 0.715000 109 137 99
-0.295473 -0.008013 0.715000 96 124 86
-0.294440 -0.008035 0.717000 81 116 76
-0.292581 -0.008035 0.717000 81 116 76
-0.291532 -0.008058 0.719000 46 72 48
-0.043749 -0.007452 0.665000 35 55 38
-0.042088 -0.007464 0.666000 109 152 104
-0.040361 -0.007464 0.666000 130 173 125
-0.038634 -0.007464 0.666000 123 173 112
-0.036907 -0.007464 0.666000 119 169 108
-0.296495 -0.006139 0.713000 109 138 97
-0.295059 -0.006148 0.714000 96 125 84
-0.293619 -0.006156 0.715000 80 118 74
-0.292581 -0.006174 0.717000 77 115 71
-0.291532 -0.006191 0.719000 45 71 47
-0.043749 -0.005726 0.665000 44 67 44
-0.042025 -0.005726 0.665000 121 166 116
-0.040300 -0.005726 0.665000 123 168 118
-0.038576 -0.005726 0.665000 124 174 113
-0.036907 -0.005734 0.666000 101 151 90
-0.295663 -0.004276 0.711000 111 140 97
-0.294646 -0.004288 0.713000 97 126 83
-0.293619 -0.004300 0.715000 70 108 64
-0.292581 -0.004312 0.717000 75 113 69
-0.291532 -0.004324 0.719000 40 66 40
-0.043749 -0.003999 0.665000 69 95 69
-0.042025 -0.003999 0.665000 125 174 118
-0.040300 -0.003999 0.665000 117 166 110
-0.038576 -0.003999 0.665000 127 174 114
-0.296252 -0.002420 0.708000 72 83 62
-0.294832 -0.002423 0.709000 111 140 97
-0.293820 -0.002430 0.711000 95 124 81
-0.292797 -0.002437 0.713000 70 108 64
-0.292581 -0.002450 0.717000 76 114 70
-0.291127 -0.002454 0.718000 43 69 43
-0.045405 -0.002269 0.664000 27 58 26
-0.043683 -0.002269 0.664000 101 132 100
-0.041962 -0.002269 0.664000 122 172 113
-0.038576 -0.002273 0.665000 128 175 117
-0.036852 -0.002273 0.665000 38 85 27
-0.295415 -0.000580 0.706000 75 89 67
-0.294000 -0.000580 0.707000 110 143 99
-0.292580 -0.000581 0.708000 93 126 82
-0.292387 -0.000585 0.712000 81 119 75
-0.291765 -0.000587 0.715000 73 111 67
-0.290722 -0.000589 0.717000 39 65 41
-0.045337 -0.000544 0.663000 33 67 32
-0.043618 -0.000544 0.663000 119 153 118
-0.041898 -0.000544 0.663000 120 172 110
-0.040240 -0.000545 0.664000 116 168 106
-0.294578 0.001250 0.704000 79 95 74
-0.293168 0.001252 0.705000 109 147 101
-0.291753 0.001253 0.706000 81 119 73
-0.291565 0.001261 0.710000 75 116 71
-0.290948 0.001266 0.713000 60 101 56
-0.290722 0.001273 0.717000 44 70 46
-0.045268 0.001175 0.662000 52 87 47
-0.043552 0.001175 0.662000 126 161 121
-0.041835 0.001175 0.662000 119 169 106
-0.040179 0.001177 0.663000 123 173 110
-0.290927 0.003078 0.704000 88 129 82
-0.289923 0.003087 0.706000 70 113 67
-0.289724 0.003104 0.710000 56 99 53
-0.290316 0.003130 0.716000 49 75 51
-0.046914 0.002890 0.661000 35 49 38
-0.045200 0.002890 0.661000 83 121 75
-0.043486 0.002890 0.661000 124 162 116
-0.041772 0.002890 0.661000 119 167 102
-0.040119 0.002894 0.662000 133 181 116
-0.291649 0.004857 0.697000 82 105 82
-0.290100 0.004892 0.702000 87 129 86
-0.289101 0.004906 0.704000 70 112 69
-0.289505 0.004975 0.714000 46 69 46
-0.046843 0.004599 0.660000 40 57 39
-0.045132 0.004599 0.660000 110 149 96
-0.043420 0.004599 0.660000 123 162 109
-0.041709 0.004599 0.660000 125 171 106
-0.289975 0.006628 0.693000 87 110 87
-0.288447 0.006676 0.698000 91 133 90
-0.288691 0.006724 0.703000 74 116 75
-0.288289 0.006800 0.711000 47 70 47
-0.046772 0.006303 0.659000 67 84 66
-0.045063 0.006303 0.659000 122 165 108
-0.043354 0.006303 0.659000 121 164 107
-0.041646 0.006303 0.659000 129 173 109
-0.288720 0.008391 0.690000 88 109 87
-0.287762 0.008415 0.692000 107 149 108
-0.287459 0.008513 0.700000 73 113 71
-0.287883 0.008634 0.710000 50 71 49
-0.048481 0.008014 0.659000 32 55 32
-0.046772 0.008014 0.659000 95 118 95
-0.045063 0.008014 0.659000 124 167 108
-0.043289 0.008002 0.658000 121 164 105
-0.041646 0.008014 0.659000 138 178 118
-0.285791 0.010079 0.683000 89 110 88
-0.286099 0.010153 0.688000 110 150 110
-0.285968 0.010212 0.692000 96 136 96
-0.285236 0.010315 0.699000 62 99 58
-0.048407 0.009710 0.658000 30 61 31
-0.046701 0.009710 0.658000 112 143 113
-0.044995 0.009710 0.658000 117 164 104
-0.043289 0.009710 0.658000 121 168 108
-0.284117 0.011783 0.679000 84 105 83
-0.283604 0.011835 0.682000 112 149 108
-0.283902 0.011922 0.687000 94 131 90
-0.282942 0.011957 0.689000 86 124 80
-0.050037 0.011402 0.657000 32 46 35
-0.048334 0.011402 0.657000 61 97 61
-0.046630 0.011402 0.657000 124 160 124
-0.044926 0.011402 0.657000 118 165 105
-0.043289 0.011419 0.658000 127 174 114
-0.283698 0.013526 0.678000 76 94 73
-0.281940 0.013526 0.678000 116 154 110
-0.280596 0.013546 0.679000 95 133 89
-0.278424 0.013526 0.678000 82 123 78
-0.050037 0.013107 0.657000 29 49 34
-0.048334 0.013107 0.657000 98 139 92
-0.046630 0.013107 0.657000 122 163 116
-0.044926 0.013107 0.657000 119 164 102
-0.043223 0.013107 0.657000 134 179 117
-0.281606 0.015174 0.673000 65 81 60
-0.280277 0.015196 0.674000 116 154 106
-0.278529 0.015196 0.674000 97 135 87
-0.049961 0.014791 0.656000 52 77 56
-0.048260 0.014791 0.656000 116 160 105
-0.046559 0.014791 0.656000 120 164 109
-0.044926 0.014813 0.657000 125 170 108
-0.280351 0.016846 0.670000 64 78 56
-0.278614 0.016846 0.670000 117 154 104
-0.276876 0.016846 0.670000 108 145 95
-0.274728 0.016821 0.669000 82 124 72
-0.051583 0.016469 0.655000 25 53 28
-0.049885 0.016469 0.655000 88 116 91
-0.048186 0.016469 0.655000 119 166 108
-0.046488 0.016469 0.655000 114 161 103
-0.044858 0.016494 0.656000 134 179 119
-0.051583 0.018169 0.655000 42 73 41
-0.049885 0.018169 0.655000 113 144 112
-0.048186 0.018169 0.655000 116 163 103
-0.046488 0.018169 0.655000 121 168 108
-0.053200 0.019840 0.654000 33 50 36
-0.051505 0.019840 0.654000 81 118 77
-0.049809 0.019840 0.654000 118 155 114
-0.048113 0.019840 0.654000 116 163 103
-0.046488 0.019870 0.655000 129 176 116
-0.053200 0.021538 0.654000 43 63 46
-0.051505 0.021538 0.654000 103 144 95
-0.049809 0.021538 0.654000 114 155 106
-0.048113 0.021538 0.654000 125 172 112
-0.046417 0.021538 0.654000 128 175 115
-0.054812 0.023200 0.653000 31 57 31
-0.053119 0.023200 0.653000 80 106 80
-0.051426 0.023200 0.653000 112 158 103
-0.049733 0.023200 0.653000 113 159 104
-0.048113 0.023236 0.654000 133 178 118
-0.054728 0.024858 0.652000 41 73 36
-0.053038 0.024858 0.652000 105 137 100
-0.051426 0.024896 0.653000 109 156 96
-0.049733 0.024896 0.653000 125 172 112
-0.048039 0.024896 0.653000 138 180 126
-0.056246 0.026469 0.650000 41 58 40
-0.054644 0.026510 0.651000 84 118 69
-0.052956 0.026510 0.651000 117 151 102
-0.051347 0.026550 0.652000 119 164 102
-0.049656 0.026550 0.652000 136 181 119
-0.048039 0.026591 0.653000 110 143 97
-0.056246 0.028157 0.650000 67 88 64
-0.054560 0.028157 0.650000 110 148 91
-0.052875 0.028157 0.650000 106 144 87
-0.051268 0.028200 0.651000 130 174 110
-0.049580 0.028200 0.651000 135 179 115
-0.057753 0.029753 0.648000 35 63 27
-0.056073 0.029753 0.648000 95 123 87
-0.054476 0.029798 0.649000 112 153 90
-0.052794 0.029798 0.649000 112 153 90
-0.051190 0.029844 0.650000 139 179 119
-0.049504 0.029844 0.650000 88 128 68
-0.268158 0.031678 0.653000 118 150 113
-0.266465 0.031678 0.653000 118 150 113
-0.059250 0.031338 0.646000 36 49 36
-0.057664 0.031387 0.647000 66 97 53
-0.055986 0.031387 0.647000 112 143 99
-0.054393 0.031435 0.648000 109 150 83
-0.052794 0.031484 0.649000 129 170 103
-0.051111 0.031484 0.649000 124 162 107
-0.266926 0.033220 0.650000 92 119 86
-0.265241 0.033220 0.650000 132 159 126
-0.263555 0.033220 0.650000 93 137 82
-0.261870 0.033220 0.650000 84 128 73
-0.059158 0.032964 0.645000 53 68 50
-0.057486 0.032964 0.645000 104 141 89
-0.055900 0.033015 0.646000 110 147 95
-0.054309 0.033066 0.647000 119 160 93
-0.052712 0.033117 0.648000 141 182 115
-0.266926 0.034907 0.650000 49 71 42
-0.264832 0.034854 0.649000 135 157 128
-0.263150 0.034854 0.649000 114 156 104
-0.261467 0.034854 0.649000 88 130 78
-0.259784 0.034854 0.649000 78 119 74
-0.060736 0.034585 0.644000 40 64 34
-0.059158 0.034639 0.645000 82 106 76
-0.057486 0.034639 0.645000 107 147 87
-0.055813 0.034639 0.645000 116 156 96
-0.054141 0.034639 0.645000 133 174 111
-0.052550 0.034693 0.646000 105 146 83
-0.264424 0.036482 0.648000 108 124 101
-0.262744 0.036482 0.648000 131 169 121
-0.261064 0.036482 0.648000 102 140 92
-0.259384 0.036482 0.648000 77 120 72
-0.256908 0.036370 0.646000 65 108 60
-0.062309 0.036201 0.643000 44 57 44
-0.060736 0.036257 0.644000 58 88 49
-0.059066 0.036257 0.644000 106 136 97
-0.057397 0.036257 0.644000 109 153 89
-0.055813 0.036314 0.645000 129 173 109
-0.054141 0.036314 0.645000 128 167 114
-0.263608 0.038047 0.646000 72 85 70
-0.261933 0.038047 0.646000 135 168 124
-0.260258 0.038047 0.646000 124 157 113
-0.258183 0.037988 0.645000 84 129 79
-0.256510 0.037988 0.645000 79 124 74
-0.254443 0.037929 0.644000 62 93 61
-0.062309 0.037870 0.643000 57 75 54
-0.060642 0.037870 0.643000 94 131 79
-0.058975 0.037870 0.643000 104 141 89
-0.055727 0.037929 0.644000 138 182 116
-0.261528 0.039663 0.645000 108 136 100
-0.259452 0.039601 0.644000 137 165 129
-0.257783 0.039601 0.644000 101 145 92
-0.256113 0.039601 0.644000 81 125 72
-0.254048 0.039540 0.643000 76 112 69
-0.063877 0.039478 0.642000 45 72 39
-0.062212 0.039478 0.642000 93 120 87
-0.058975 0.039540 0.643000 112 153 90
-0.057307 0.039540 0.643000 146 187 124
-0.261122 0.041274 0.644000 65 87 60
-0.259050 0.041209 0.643000 138 160 133
-0.257382 0.041209 0.643000 124 166 112
-0.255715 0.041209 0.643000 84 126 72
-0.253653 0.041145 0.642000 74 116 64
-0.065440 0.041081 0.641000 44 61 45
-0.063778 0.041081 0.641000 78 114 69
-0.062212 0.041145 0.642000 104 140 95
-0.060548 0.041145 0.642000 115 156 91
-0.058883 0.041145 0.642000 139 180 115
-0.259050 0.042879 0.643000 99 115 94
-0.256982 0.042812 0.642000 137 176 125
-0.255317 0.042812 0.642000 109 148 97
-0.253257 0.042746 0.641000 84 128 73
-0.251595 0.042746 0.641000 81 125 70
-0.066788 0.042545 0.638000 34 58 30
-0.065235 0.042612 0.639000 74 98 70
-0.063678 0.042679 0.640000 98 136 79
-0.062115 0.042746 0.641000 112 150 93
-0.060453 0.042746 0.641000 137 178 115
-0.258647 0.044479 0.642000 55 65 51
-0.256982 0.044479 0.642000 122 155 109
-0.254920 0.044410 0.641000 132 165 119
-0.252467 0.044271 0.639000 92 139 81
-0.250418 0.044202 0.638000 76 123 65
-0.068227 0.044063 0.636000 40 53 38
-0.066683 0.044133 0.637000 58 89 47
-0.065133 0.044202 0.638000 102 133 91
-0.063579 0.044271 0.639000 110 154 90
-0.062019 0.044341 0.640000 128 172 108
-0.255781 0.045930 0.639000 77 103 63
-0.253727 0.045859 0.638000 137 163 123
-0.251677 0.045787 0.637000 120 165 107
-0.249633 0.045715 0.636000 94 139 81
-0.069767 0.045643 0.635000 42 66 38
-0.068120 0.045643 0.635000 66 90 62
-0.066578 0.045715 0.636000 93 133 77
-0.065031 0.045787 0.637000 108 148 92
-0.063380 0.045787 0.637000 122 168 103
-0.061825 0.045859 0.638000 142 188 123
-0.252931 0.047366 0.636000 108 127 99
-0.250887 0.047292 0.635000 130 173 116
-0.248848 0.047217 0.634000 113 156 99
-0.247204 0.047217 0.634000 83 130 72
-0.071301 0.047217 0.634000 39 54 36
-0.069657 0.047217 0.634000 61 93 54
-0.068013 0.047217 0.634000 91 123 84
-0.066474 0.047292 0.635000 97 142 80
-0.064929 0.047366 0.636000 118 163 101
-0.063280 0.047366 0.636000 148 191 132
-0.252533 0.048940 0.635000 54 67 52
-0.250492 0.048863 0.634000 119 152 108
-0.248455 0.048786 0.633000 141 174 130
-0.246814 0.048786 0.633000 99 146 84
-0.244785 0.048709 0.632000 77 124 62
-0.243147 0.048709 0.632000 73 115 63
-0.072830 0.048786 0.633000 37 61 33
-0.071188 0.048786 0.633000 64 88 60
-0.069657 0.048863 0.634000 91 133 79
-0.068013 0.048863 0.634000 102 144 90
-0.066369 0.048863 0.634000 113 159 94
-0.064827 0.048940 0.635000 140 186 121
-0.250097 0.050430 0.633000 57 84 53
-0.248063 0.050350 0.632000 139 166 135
-0.246424 0.050350 0.632000 132 175 116
-0.244785 0.050350 0.632000 94 137 78
-0.242762 0.050270 0.631000 80 123 62
-0.074471 0.050430 0.633000 43 58 40
-0.072830 0.050430 0.633000 65 96 54
-0.071188 0.050430 0.633000 87 118 76
-0.069547 0.050430 0.633000 101 145 81
-0.068013 0.050509 0.634000 122 166 102
-0.066369 0.050509 0.634000 147 192 132
-0.064725 0.050509 0.634000 125 170 110
-0.247670 0.051909 0.631000 85 102 84
-0.246034 0.051909 0.631000 139 174 120
-0.244398 0.051909 0.631000 136 171 117
-0.242377 0.051826 0.630000 103 144 79
-0.240743 0.051826 0.630000 83 124 59
-0.075992 0.051991 0.632000 42 66 34
-0.074471 0.052073 0.633000 76 100 68
-0.072830 0.052073 0.633000 91 131 75
-0.071188 0.052073 0.633000 109 149 93
-0.069547 0.052073 0.633000 124 168 104
-0.068013 0.052155 0.634000 148 192 128
-0.066369 0.052155 0.634000 128 166 120
-0.245644 0.053462 0.630000 104 133 90
-0.244011 0.053462 0.630000 149 178 135
-0.241992 0.053377 0.629000 131 175 109
-0.239979 0.053292 0.628000 98 142 76
-0.238351 0.053292 0.628000 80 122 68
-0.077631 0.053632 0.632000 45 63 40
-0.075992 0.053632 0.632000 73 107 56
-0.074353 0.053632 0.632000 96 130 79
-0.072715 0.053632 0.632000 106 150 86
-0.071188 0.053717 0.633000 131 175 111
-0.069547 0.053717 0.633000 151 194 135
-0.243236 0.054923 0.628000 112 134 103
-0.241608 0.054923 0.628000 143 183 123
-0.239979 0.054923 0.628000 130 170 110
-0.237971 0.054836 0.627000 97 142 80
-0.236345 0.054836 0.627000 73 118 56
-0.234345 0.054748 0.626000 65 106 61
-0.080781 0.055185 0.631000 39 54 38
-0.079144 0.055185 0.631000 48 79 37
-0.077508 0.055185 0.631000 89 120 78
-0.075992 0.055273 0.632000 109 150 85
-0.074353 0.055273 0.632000 118 159 94
-0.072830 0.055360 0.633000 135 179 115
-0.071188 0.055360 0.633000 153 197 133
-0.069547 0.055360 0.633000 120 156 109
-0.240838 0.056373 0.626000 111 145 96
-0.239215 0.056373 0.626000 147 181 132
-0.237212 0.056283 0.625000 121 167 102
-0.235215 0.056193 0.624000 90 136 71
-0.233222 0.056103 0.623000 80 125 67
-0.082286 0.056734 0.630000 37 64 35
-0.080781 0.056824 0.631000 61 88 59
-0.079144 0.056824 0.631000 90 130 74
-0.077508 0.056824 0.631000 98 138 82
-0.075872 0.056824 0.631000 118 160 90
-0.074353 0.056914 0.632000 144 186 116
-0.072830 0.057004 0.633000 155 195 135
-0.071188 0.057004 0.633000 119 159 99
-0.240453 0.057906 0.625000 43 62 34
-0.238451 0.057813 0.624000 112 131 103
-0.236453 0.057721 0.623000 146 186 126
-0.234838 0.057721 0.623000 133 173 113
-0.232848 0.057628 0.622000 104 150 83
-0.231235 0.057628 0.622000 76 122 55
-0.229622 0.057628 0.622000 70 111 64
-0.227643 0.057536 0.621000 39 80 33
-0.085282 0.058184 0.628000 41 59 38
-0.083786 0.058277 0.629000 51 69 48
-0.082155 0.058277 0.629000 82 118 71
-0.080652 0.058369 0.630000 105 141 94
-0.079019 0.058369 0.630000 112 153 86
-0.077508 0.058462 0.631000 121 162 95
-0.075872 0.058462 0.631000 153 195 125
-0.074353 0.058555 0.632000 141 183 113
-0.072715 0.058555 0.632000 99 127 89
-0.238069 0.059338 0.623000 49 59 45
-0.236074 0.059243 0.622000 112 143 97
-0.234461 0.059243 0.622000 152 183 137
-0.232848 0.059243 0.622000 136 180 114
-0.226033 0.059148 0.621000 58 90 53
-0.086910 0.059815 0.628000 45 59 39
-0.085282 0.059815 0.628000 66 96 57
-0.083786 0.059910 0.629000 95 125 86
-0.082155 0.059910 0.629000 105 146 83
-0.080652 0.060005 0.630000 115 156 93
-0.079019 0.060005 0.630000 134 176 104
-0.077508 0.060100 0.631000 157 199 127
-0.075872 0.060100 0.631000 139 174 118
-0.236074 0.060858 0.622000 48 67 37
-0.234461 0.060858 0.622000 111 130 100
-0.232848 0.060858 0.622000 144 182 123
-0.230863 0.060760 0.621000 145 183 124
-0.225669 0.060662 0.620000 73 111 56
-0.224061 0.060662 0.620000 62 100 45
-0.088538 0.061445 0.628000 54 83 42
-0.086910 0.061445 0.628000 80 109 68
-0.085282 0.061445 0.628000 95 135 77
-0.083653 0.061445 0.628000 103 143 85
-0.082155 0.061543 0.629000 124 165 98
-0.080524 0.061543 0.629000 145 186 119
-0.079019 0.061641 0.630000 152 191 127
-0.077385 0.061641 0.630000 123 162 98
-0.075872 0.061739 0.631000 59 83 44
-0.232474 0.062373 0.621000 89 115 71
-0.230863 0.062373 0.621000 149 175 131
-0.229253 0.062373 0.621000 144 183 121
-0.227276 0.062272 0.620000 131 170 108
-0.225669 0.062272 0.620000 103 144 79
-0.223700 0.062172 0.619000 84 125 60
-0.221736 0.062071 0.618000 76 112 65
-0.090023 0.062975 0.627000 71 97 57
-0.088538 0.063076 0.628000 96 134 77
-0.086772 0.062975 0.627000 105 143 86
-0.085282 0.063076 0.628000 116 160 96
-0.083786 0.063176 0.629000 135 179 115
-0.082025 0.063076 0.628000 157 198 135
-0.080524 0.063176 0.629000 145 186 123
-0.078893 0.063176 0.629000 100 130 80
-0.077385 0.063277 0.630000 42 72 22
-0.230863 0.063985 0.621000 74 90 67
-0.228884 0.063882 0.620000 138 171 117
-0.227276 0.063882 0.620000 155 188 134
-0.225305 0.063779 0.619000 144 185 120
-0.223338 0.063676 0.618000 121 162 97
-0.221377 0.063573 0.617000 80 123 62
-0.219777 0.063573 0.617000 73 116 55
-0.094144 0.064088 0.622000 48 72 33
-0.092680 0.064191 0.623000 78 102 63
-0.091211 0.064294 0.624000 90 129 67
-0.089736 0.064397 0.625000 106 145 83
-0.088115 0.064397 0.625000 120 164 96
-0.086495 0.064397 0.625000 137 181 113
-0.085010 0.064500 0.626000 151 195 131
-0.083520 0.064603 0.627000 160 204 140
-0.081894 0.064603 0.627000 119 153 102
-0.080396 0.064706 0.628000 65 99 48
-0.078768 0.064706 0.628000 43 60 32
-0.228884 0.065492 0.620000 54 76 45
-0.226910 0.065386 0.619000 121 143 112
-0.224941 0.065281 0.618000 151 187 126
-0.222977 0.065175 0.617000 156 192 131
-0.221018 0.065069 0.616000 122 166 98
-0.219065 0.064964 0.615000 92 136 68
-0.217470 0.064964 0.615000 66 111 49
-0.215524 0.064858 0.614000 62 107 45
-0.098823 0.065597 0.621000 47 60 43
-0.097213 0.065597 0.621000 56 79 45
-0.095603 0.065597 0.621000 81 104 70
-0.092531 0.065703 0.622000 104 139 81
-0.091064 0.065809 0.623000 121 166 95
-0.089593 0.065914 0.624000 134 179 108
-0.088115 0.066020 0.625000 146 191 120
-0.086495 0.066020 0.625000 158 203 132
-0.085010 0.066126 0.626000 151 191 133
-0.083520 0.066231 0.627000 96 136 78
-0.081894 0.066231 0.627000 46 70 42
-0.080268 0.066231 0.627000 34 58 30
-0.224941 0.066885 0.618000 87 113 73
-0.222977 0.066777 0.617000 141 167 127
-0.221018 0.066669 0.616000 157 198 131
-0.219421 0.066669 0.616000 145 186 119
-0.217116 0.066452 0.614000 110 155 84
-0.215173 0.066344 0.613000 85 130 59
-0.213584 0.066344 0.613000 72 117 57
-0.211648 0.066236 0.612000 63 108 48
-0.102986 0.066777 0.617000 47 63 40
-0.101715 0.066993 0.619000 53 69 46
-0.100110 0.066993 0.619000 63 89 47
-0.098664 0.067102 0.620000 82 108 66
-0.097056 0.067102 0.620000 91 129 70
-0.095449 0.067102 0.620000 110 148 89
-0.093993 0.067210 0.621000 117 159 87
-0.092382 0.067210 0.621000 128 170 98
-0.089305 0.067318 0.622000 156 203 129
-0.087693 0.067318 0.622000 160 200 140
-0.086218 0.067426 0.623000 110 150 90
-0.084874 0.067643 0.625000 62 89 56
-0.083520 0.067859 0.627000 37 64 31
-0.222615 0.068268 0.616000 62 80 57
-0.221018 0.068268 0.616000 122 156 107
-0.219065 0.068157 0.615000 156 190 141
-0.217116 0.068046 0.614000 151 195 127
-0.215173 0.067936 0.613000 143 187 119
-0.213235 0.067825 0.612000 114 161 89
-0.211648 0.067825 0.612000 90 137 65
-0.210061 0.067825 0.612000 75 118 59
-0.208134 0.067714 0.611000 65 108 49
-0.106014 0.068268 0.616000 41 60 32
-0.104586 0.068379 0.617000 51 70 42
-0.102986 0.068379 0.617000 68 98 50
-0.101386 0.068379 0.617000 86 116 68
-0.099948 0.068490 0.618000 93 129 66
-0.098346 0.068490 0.618000 107 143 80
-0.096900 0.068600 0.619000 115 157 85
-0.095449 0.068711 0.620000 132 174 102
-0.093841 0.068711 0.620000 145 190 119
-0.092382 0.068822 0.621000 153 198 127
-0.090772 0.068822 0.621000 156 200 136
-0.220659 0.069754 0.615000 43 65 38
-0.218708 0.069641 0.614000 92 114 87
-0.216763 0.069527 0.613000 129 167 112
-0.215173 0.069527 0.613000 159 197 142
-0.213235 0.069414 0.612000 153 197 129
-0.211648 0.069414 0.612000 137 181 113
-0.210061 0.069414 0.612000 120 167 93
-0.208475 0.069414 0.612000 97 144 70
-0.206550 0.069300 0.611000 74 117 56
-0.204965 0.069300 0.611000 66 109 48
-0.110626 0.069754 0.615000 48 62 40
-0.106014 0.069867 0.616000 79 114 60
-0.104417 0.069867 0.616000 97 132 78
-0.102986 0.069981 0.617000 101 141 70
-0.101386 0.069981 0.617000 112 152 81
-0.099948 0.070094 0.618000 129 172 95
-0.098346 0.070094 0.618000 137 180 103
-0.096900 0.070208 0.619000 151 194 119
-0.095295 0.070208 0.619000 164 207 132
-0.093841 0.070321 0.620000 154 194 134
-0.092382 0.070435 0.621000 117 157 97
-0.216763 0.071119 0.613000 51 75 43
-0.215173 0.071119 0.613000 94 118 86
-0.213235 0.071003 0.612000 147 182 126
-0.211648 0.071003 0.612000 164 199 143
-0.210061 0.071003 0.612000 153 197 129
-0.208475 0.071003 0.612000 149 193 125
-0.206550 0.070887 0.611000 128 174 105
-0.204965 0.070887 0.611000 108 154 85
-0.203048 0.070771 0.610000 88 133 71
-0.201466 0.070771 0.610000 64 109 47
-0.110806 0.071467 0.616000 78 107 62
-0.106014 0.071467 0.616000 101 148 76
-0.104417 0.071467 0.616000 118 165 93
-0.102986 0.071583 0.617000 130 175 102
-0.101386 0.071583 0.617000 136 181 108
-0.099787 0.071583 0.617000 157 202 129
-0.098346 0.071699 0.618000 163 208 135
-0.096743 0.071699 0.618000 148 189 126
-0.095295 0.071815 0.619000 116 157 94
-0.093841 0.071931 0.620000 58 83 46
-0.213235 0.072592 0.612000 63 88 51
-0.211648 0.072592 0.612000 97 122 85
-0.210061 0.072592 0.612000 151 187 126
-0.208475 0.072592 0.612000 162 198 137
-0.206550 0.072473 0.611000 155 199 131
-0.204965 0.072473 0.611000 149 193 125
-0.203048 0.072355 0.610000 132 180 111
-0.201136 0.072236 0.609000 117 165 96
-0.197003 0.071880 0.606000 77 123 58
-0.110806 0.073066 0.616000 115 159 91
-0.109209 0.073066 0.616000 118 168 91
-0.107611 0.073066 0.616000 127 177 100
-0.106014 0.073066 0.616000 145 193 116
-0.104417 0.073066 0.616000 155 203 126
-0.102819 0.073066 0.616000 164 209 138
-0.101386 0.073185 0.617000 166 211 140
-0.099787 0.073185 0.617000 142 180 121
-0.098187 0.073185 0.617000 94 132 73
-0.096743 0.073303 0.618000 58 83 46
-0.095295 0.073422 0.619000 40 65 28
-0.210061 0.074181 0.612000 59 82 48
-0.208475 0.074181 0.612000 110 133 99
-0.206550 0.074060 0.611000 147 183 122
-0.204965 0.074060 0.611000 164 200 139
-0.203048 0.073938 0.610000 160 205 134
-0.201136 0.073817 0.609000 151 196 125
-0.199229 0.073696 0.608000 135 180 107
-0.197328 0.073575 0.607000 121 166 93
-0.195109 0.073332 0.605000 105 147 75
-0.193540 0.073332 0.605000 88 130 58
-0.110806 0.074666 0.616000 149 195 115
-0.109209 0.074666 0.616000 153 203 124
-0.107437 0.074544 0.615000 163 213 134
-0.106014 0.074666 0.616000 167 212 141
-0.104417 0.074666 0.616000 157 202 131
-0.102819 0.074666 0.616000 127 160 106
-0.101386 0.074787 0.617000 93 126 72
-0.099625 0.074666 0.616000 49 73 43
-0.098187 0.074787 0.617000 40 64 34
-0.206550 0.075646 0.611000 54 73 43
-0.204965 0.075646 0.611000 85 104 74
-0.203048 0.075522 0.610000 135 166 111
-0.201136 0.075398 0.609000 159 190 135
-0.199229 0.075275 0.608000 167 209 139
-0.197003 0.075027 0.606000 165 207 137
-0.195431 0.075027 0.606000 149 195 117
-0.193540 0.074903 0.605000 136 182 104
-0.191971 0.074903 0.605000 128 174 96
-0.190402 0.074903 0.605000 116 162 84
-0.188522 0.074779 0.604000 104 146 74
-0.186646 0.074655 0.603000 91 133 61
-0.185082 0.074655 0.603000 83 124 61
-0.183519 0.074655 0.603000 81 122 59
-0.179598 0.095950 0.775000 47 68 44
-0.177588 0.095950 0.775000 44 67 42
-0.175579 0.095950 0.775000 45 68 43
-0.110806 0.076265 0.616000 173 216 139
-0.109031 0.076141 0.615000 154 194 123
-0.107437 0.076141 0.615000 131 171 100
-0.105842 0.076141 0.615000 74 105 61
-0.104417 0.076265 0.616000 49 80 36
-0.102819 0.076265 0.616000 46 62 39
-0.201136 0.076980 0.609000 67 84 56
-0.199229 0.076853 0.608000 99 130 84
-0.197003 0.076600 0.606000 144 175 129
-0.195431 0.076600 0.606000 163 202 136
-0.193540 0.076474 0.605000 172 211 145
-0.191971 0.076474 0.605000 162 203 129
-0.190402 0.076474 0.605000 155 196 122
-0.188834 0.076474 0.605000 149 195 117
-0.186955 0.076348 0.604000 141 187 109
-0.185082 0.076221 0.603000 131 176 103
-0.183519 0.076221 0.603000 120 165 92
-0.197328 0.078303 0.607000 57 73 52
-0.195431 0.078174 0.606000 71 94 58
-0.193540 0.078045 0.605000 113 136 100
-0.191971 0.078045 0.605000 140 175 119
-0.190402 0.078045 0.605000 165 200 144
-0.188834 0.078045 0.605000 167 209 139
-0.186955 0.077916 0.604000 168 210 140
-0.185082 0.077787 0.603000 162 208 132
-0.183519 0.077787 0.603000 156 202 126
-0.191971 0.079616 0.605000 51 70 42
-0.190402 0.079616 0.605000 58 77 49
-0.188834 0.079616 0.605000 74 100 56
-0.186955 0.079484 0.604000 117 143 99
-0.185082 0.079352 0.603000 152 183 126
-0.183519 0.079352 0.603000 168 199 142
-0.185082 0.080918 0.603000 50 65 36
-0.183519 0.080918 0.603000 58 73 44
-0.212177 0.109278 0.784000 45 73 46
-0.210144 0.109278 0.784000 42 70 43
-0.208111 0.109278 0.784000 37 67 40
-0.206078 0.109278 0.784000 35 65 38
-0.204046 0.109278 0.784000 39 69 42
-0.202013 0.109278 0.784000 37 67 40
-0.199980 0.109278 0.784000 37 67 40
-0.197947 0.109278 0.784000 39 69 42
-0.195914 0.109278 0.784000 43 72 42
-0.189331 0.108999 0.782000 42 71 41
-0.187543 0.109139 0.783000 43 71 46
