ply
format ascii 1.0
element vertex 2022
property float x
property float y
property float z
property uchar red
property uchar green
property uchar blue
end_header
-0.152653 -0.123354 0.666000 108 113 118
-0.150926 -0.123354 0.666000 110 115 120
-0.156342 -0.121807 0.667000 102 110 111
-0.154612 -0.121807 0.667000 89 97 98
-0.152882 -0.121807 0.667000 89 95 97
-0.151152 -0.121807 0.667000 91 97 99
-0.149198 -0.121625 0.666000 110 116 118
-0.159802 -0.120075 0.667000 103 110 114
-0.158072 -0.120075 0.667000 85 92 96
-0.156342 -0.120075 0.667000 89 97 98
-0.154612 -0.120075 0.667000 92 100 101
-0.152882 -0.120075 0.667000 100 106 108
-0.151152 -0.120075 0.667000 105 111 113
-0.149422 -0.120075 0.667000 103 109 111
-0.163262 -0.118343 0.667000 117 127 130
-0.161532 -0.118343 0.667000 90 100 103
-0.160042 -0.118520 0.668000 84 91 95
-0.158309 -0.118520 0.668000 90 97 101
-0.156577 -0.118520 0.668000 93 98 103
-0.154612 -0.118343 0.667000 112 117 122
-0.152882 -0.118343 0.667000 120 126 128
-0.151152 -0.118343 0.667000 117 123 125
-0.149422 -0.118343 0.667000 118 124 126
-0.165239 -0.116785 0.668000 102 113 113
-0.163507 -0.116785 0.668000 83 94 94
-0.161774 -0.116785 0.668000 80 91 91
-0.160042 -0.116785 0.668000 89 97 98
-0.158309 -0.116785 0.668000 89 97 98
-0.156577 -0.116785 0.668000 91 97 99
-0.154844 -0.116785 0.668000 104 110 112
-0.153111 -0.116785 0.668000 116 119 122
-0.151152 -0.116610 0.667000 141 144 147
-0.169210 -0.115395 0.670000 119 126 130
-0.167472 -0.115395 0.670000 93 104 104
-0.165487 -0.115223 0.669000 87 98 98
-0.163752 -0.115223 0.669000 84 92 93
-0.162016 -0.115223 0.669000 84 92 93
-0.160281 -0.115223 0.669000 103 108 113
-0.158546 -0.115223 0.669000 105 110 115
-0.156811 -0.115223 0.669000 114 120 122
-0.154844 -0.115050 0.668000 155 161 163
-0.153111 -0.115050 0.668000 176 179 182
-0.171203 -0.113824 0.671000 103 110 114
-0.169462 -0.113824 0.671000 92 99 103
-0.167722 -0.113824 0.671000 89 97 98
-0.165982 -0.113824 0.671000 93 101 102
-0.164241 -0.113824 0.671000 92 100 101
-0.162501 -0.113824 0.671000 97 105 106
-0.160521 -0.113655 0.670000 114 121 125
-0.158783 -0.113655 0.670000 131 138 142
-0.157045 -0.113655 0.670000 169 175 177
-0.175204 -0.112416 0.673000 120 127 131
-0.173459 -0.112416 0.673000 99 106 110
-0.171713 -0.112416 0.673000 90 97 101
-0.169967 -0.112416 0.673000 91 98 102
-0.168222 -0.112416 0.673000 88 96 97
-0.166476 -0.112416 0.673000 91 99 100
-0.164731 -0.112416 0.673000 107 114 118
-0.162743 -0.112249 0.672000 114 121 125
-0.160760 -0.112082 0.671000 152 160 161
-0.159020 -0.112082 0.671000 173 181 182
-0.178430 -0.110503 0.672000 144 152 153
-0.176950 -0.110668 0.673000 102 110 111
-0.175204 -0.110668 0.673000 90 100 103
-0.173716 -0.110832 0.674000 88 98 101
-0.171968 -0.110832 0.674000 89 99 102
-0.170220 -0.110832 0.674000 94 104 107
-0.168222 -0.110668 0.673000 102 112 115
-0.166724 -0.110832 0.674000 107 117 120
-0.164731 -0.110668 0.673000 133 139 141
-0.162743 -0.110503 0.672000 168 174 176
-0.180441 -0.108920 0.673000 132 140 139
-0.178961 -0.109082 0.674000 97 105 106
-0.177213 -0.109082 0.674000 90 98 99
-0.175464 -0.109082 0.674000 91 102 102
-0.173716 -0.109082 0.674000 94 105 105
-0.171968 -0.109082 0.674000 103 113 116
-0.170220 -0.109082 0.674000 103 113 116
-0.168472 -0.109082 0.674000 110 118 119
-0.166724 -0.109082 0.674000 141 149 150
-0.182186 -0.107172 0.673000 106 114 115
-0.180441 -0.107172 0.673000 99 107 108
-0.178961 -0.107331 0.674000 85 93 94
-0.177213 -0.107331 0.674000 86 94 95
-0.175725 -0.107491 0.675000 102 110 111
-0.173716 -0.107331 0.674000 102 110 111
-0.171968 -0.107331 0.674000 116 124 125
-0.170220 -0.107331 0.674000 128 136 137
-0.168472 -0.107331 0.674000 165 171 171
-0.185677 -0.105424 0.673000 125 135 138
-0.183932 -0.105424 0.673000 98 108 111
-0.182186 -0.105424 0.673000 95 105 108
-0.180709 -0.105581 0.674000 86 96 99
-0.178961 -0.105581 0.674000 91 99 100
-0.177213 -0.105581 0.674000 104 112 113
-0.175725 -0.105738 0.675000 113 119 119
-0.173974 -0.105738 0.675000 119 125 125
-0.172223 -0.105738 0.675000 147 153 153
-0.170473 -0.105738 0.675000 176 182 182
-0.187423 -0.103676 0.673000 120 128 129
-0.185677 -0.103676 0.673000 89 99 102
-0.184205 -0.103830 0.674000 88 98 101
-0.182457 -0.103830 0.674000 89 99 102
-0.180709 -0.103830 0.674000 89 99 102
-0.178961 -0.103830 0.674000 100 108 109
-0.177475 -0.103985 0.675000 118 126 127
-0.175725 -0.103985 0.675000 129 135 135
-0.173974 -0.103985 0.675000 169 175 175
-0.190914 -0.101929 0.673000 145 153 154
-0.189450 -0.102080 0.674000 102 109 113
-0.187701 -0.102080 0.674000 97 104 108
-0.185953 -0.102080 0.674000 90 97 101
-0.184205 -0.102080 0.674000 91 98 102
-0.182457 -0.102080 0.674000 94 104 107
-0.180709 -0.102080 0.674000 91 101 104
-0.178961 -0.102080 0.674000 111 119 120
-0.177213 -0.102080 0.674000 141 149 150
-0.175725 -0.102231 0.675000 178 181 182
-0.192946 -0.100330 0.674000 135 142 146
-0.191198 -0.100330 0.674000 97 104 108
-0.189450 -0.100330 0.674000 95 102 106
-0.187701 -0.100330 0.674000 95 102 106
-0.185953 -0.100330 0.674000 93 101 102
-0.184205 -0.100330 0.674000 99 107 108
-0.182457 -0.100330 0.674000 99 107 108
-0.180709 -0.100330 0.674000 125 133 134
-0.178961 -0.100330 0.674000 163 169 169
-0.194983 -0.098725 0.675000 123 130 134
-0.193232 -0.098725 0.675000 91 101 104
-0.191481 -0.098725 0.675000 94 104 107
-0.189450 -0.098579 0.674000 93 101 102
-0.187701 -0.098579 0.674000 100 108 109
-0.185953 -0.098579 0.674000 106 112 114
-0.184205 -0.098579 0.674000 110 116 118
-0.182457 -0.098579 0.674000 138 141 142
-0.180441 -0.098433 0.673000 176 179 180
-0.197025 -0.097116 0.676000 118 125 129
-0.195272 -0.097116 0.676000 92 99 103
-0.193518 -0.097116 0.676000 96 103 107
-0.191481 -0.096972 0.675000 97 104 108
-0.189731 -0.096972 0.675000 104 110 112
-0.187701 -0.096829 0.674000 111 117 119
-0.185953 -0.096829 0.674000 113 119 121
-0.184205 -0.096829 0.674000 150 156 158
-0.198778 -0.095360 0.676000 111 119 120
-0.197025 -0.095360 0.676000 89 97 98
-0.195272 -0.095360 0.676000 92 100 101
-0.193518 -0.095360 0.676000 92 100 101
-0.191765 -0.095360 0.676000 103 111 112
-0.189731 -0.095219 0.675000 114 120 122
-0.187701 -0.095078 0.674000 117 123 125
-0.185953 -0.095078 0.674000 160 166 168
-0.202584 -0.093743 0.677000 170 178 179
-0.200828 -0.093743 0.677000 112 119 123
-0.198778 -0.093605 0.676000 89 96 100
-0.197025 -0.093605 0.676000 92 99 103
-0.195272 -0.093605 0.676000 91 98 102
-0.193518 -0.093605 0.676000 106 114 115
-0.191765 -0.093605 0.676000 110 118 119
-0.189731 -0.093466 0.675000 131 137 139
-0.187701 -0.093328 0.674000 163 169 171
-0.202584 -0.091985 0.677000 107 115 116
-0.200828 -0.091985 0.677000 88 95 99
-0.199072 -0.091985 0.677000 92 99 103
-0.197317 -0.091985 0.677000 96 103 107
-0.195561 -0.091985 0.677000 105 112 116
-0.193805 -0.091985 0.677000 112 120 121
-0.191765 -0.091849 0.676000 146 154 155
-0.190012 -0.091849 0.676000 176 182 184
-0.206096 -0.090227 0.677000 162 170 169
-0.204340 -0.090227 0.677000 105 115 118
-0.202584 -0.090227 0.677000 86 96 99
-0.200828 -0.090227 0.677000 88 99 99
-0.199072 -0.090227 0.677000 93 104 104
-0.197317 -0.090227 0.677000 113 121 122
-0.195561 -0.090227 0.677000 107 115 116
-0.193805 -0.090227 0.677000 155 161 163
-0.192049 -0.090227 0.677000 181 187 189
-0.208159 -0.088599 0.678000 168 176 177
-0.206401 -0.088599 0.678000 106 114 115
-0.204642 -0.088599 0.678000 91 99 100
-0.202884 -0.088599 0.678000 95 103 104
-0.201125 -0.088599 0.678000 99 106 110
-0.199367 -0.088599 0.678000 105 112 116
-0.197608 -0.088599 0.678000 112 120 121
-0.195849 -0.088599 0.678000 153 161 162
-0.194091 -0.088599 0.678000 183 189 191
-0.209918 -0.086838 0.678000 171 177 175
-0.208159 -0.086838 0.678000 110 118 119
-0.206401 -0.086838 0.678000 91 99 100
-0.204642 -0.086838 0.678000 98 106 107
-0.202884 -0.086838 0.678000 102 110 111
-0.201125 -0.086838 0.678000 111 119 120
-0.199367 -0.086838 0.678000 109 117 118
-0.197608 -0.086838 0.678000 159 167 168
-0.211676 -0.085077 0.678000 164 172 169
-0.209918 -0.085077 0.678000 109 117 114
-0.208159 -0.085077 0.678000 91 99 98
-0.206401 -0.085077 0.678000 98 106 105
-0.204642 -0.085077 0.678000 102 110 111
-0.202884 -0.085077 0.678000 105 113 114
-0.201125 -0.085077 0.678000 117 125 126
-0.199367 -0.085077 0.678000 161 169 170
0.022207 -0.085077 0.678000 131 137 139
0.023966 -0.085077 0.678000 111 117 117
0.025724 -0.085077 0.678000 125 131 131
-0.213750 -0.083439 0.679000 171 177 175
-0.211988 -0.083439 0.679000 113 121 120
-0.209918 -0.083317 0.678000 88 96 95
-0.208159 -0.083317 0.678000 97 105 106
-0.206401 -0.083317 0.678000 105 113 114
-0.204642 -0.083317 0.678000 114 120 122
-0.202884 -0.083317 0.678000 113 119 121
-0.201125 -0.083317 0.678000 161 167 169
0.022207 -0.083317 0.678000 104 110 112
0.023966 -0.083317 0.678000 104 109 114
0.025724 -0.083317 0.678000 99 104 109
0.027483 -0.083317 0.678000 133 138 143
-0.215511 -0.081676 0.679000 170 176 176
-0.213750 -0.081676 0.679000 114 120 120
-0.211988 -0.081676 0.679000 89 97 98
-0.210227 -0.081676 0.679000 98 106 107
-0.208466 -0.081676 0.679000 109 117 118
-0.206705 -0.081676 0.679000 110 118 119
-0.204944 -0.081676 0.679000 113 119 121
-0.203183 -0.081676 0.679000 156 162 164
0.022207 -0.081556 0.678000 100 106 108
0.023966 -0.081556 0.678000 104 109 116
0.025724 -0.081556 0.678000 103 108 115
0.027483 -0.081556 0.678000 100 105 110
0.029241 -0.081556 0.678000 140 145 150
-0.215828 -0.080030 0.680000 118 124 126
-0.214064 -0.080030 0.680000 90 96 98
-0.212301 -0.080030 0.680000 100 108 109
-0.210537 -0.080030 0.680000 103 111 112
-0.208773 -0.080030 0.680000 112 118 120
-0.207009 -0.080030 0.680000 112 118 120
-0.204944 -0.079913 0.679000 166 169 172
0.022240 -0.079913 0.679000 118 126 127
0.023966 -0.079795 0.678000 107 114 120
0.025724 -0.079795 0.678000 107 114 120
0.027483 -0.079795 0.678000 97 104 108
0.029241 -0.079795 0.678000 109 116 120
-0.217592 -0.078264 0.680000 125 131 131
-0.215828 -0.078264 0.680000 90 96 98
-0.214064 -0.078264 0.680000 97 103 105
-0.212301 -0.078264 0.680000 98 104 106
-0.210537 -0.078264 0.680000 114 120 122
-0.208773 -0.078264 0.680000 123 126 129
-0.207009 -0.078264 0.680000 169 172 175
0.023966 -0.078034 0.678000 106 111 116
0.025762 -0.078149 0.679000 112 117 122
0.027523 -0.078149 0.679000 105 112 116
0.029241 -0.078034 0.678000 98 105 109
0.031000 -0.078034 0.678000 121 128 132
-0.219355 -0.076498 0.680000 132 137 142
-0.217592 -0.076498 0.680000 92 97 102
-0.215828 -0.076498 0.680000 93 98 103
-0.214379 -0.076611 0.681000 100 105 110
-0.212301 -0.076498 0.680000 111 117 119
-0.210537 -0.076498 0.680000 115 121 123
-0.208773 -0.076498 0.680000 163 169 171
-0.207009 -0.076498 0.680000 179 185 187
0.024001 -0.076386 0.679000 146 152 154
0.025762 -0.076386 0.679000 106 112 114
0.027523 -0.076386 0.679000 108 114 116
0.029241 -0.076273 0.678000 103 109 111
0.031046 -0.076386 0.679000 97 104 108
0.032807 -0.076386 0.679000 131 138 142
-0.221119 -0.074732 0.680000 143 149 151
-0.219355 -0.074732 0.680000 93 98 103
-0.217592 -0.074732 0.680000 96 101 106
-0.215828 -0.074732 0.680000 98 103 108
-0.214379 -0.074842 0.681000 108 113 118
-0.212613 -0.074842 0.681000 118 124 126
-0.210846 -0.074842 0.681000 160 166 168
0.025762 -0.074622 0.679000 141 147 147
0.027523 -0.074622 0.679000 106 112 114
0.029285 -0.074622 0.679000 111 117 119
0.031046 -0.074622 0.679000 98 108 111
0.032807 -0.074622 0.679000 98 108 111
0.034568 -0.074622 0.679000 141 153 157
-0.222883 -0.072966 0.680000 149 155 157
-0.221444 -0.073073 0.681000 93 99 101
-0.219678 -0.073073 0.681000 96 101 106
-0.217912 -0.073073 0.681000 104 109 114
-0.216145 -0.073073 0.681000 112 117 122
-0.214379 -0.073073 0.681000 115 120 125
-0.212613 -0.073073 0.681000 153 159 161
0.027564 -0.072966 0.680000 127 133 133
0.029285 -0.072859 0.679000 105 111 111
0.031046 -0.072859 0.679000 104 115 115
0.032855 -0.072966 0.680000 98 109 109
0.034619 -0.072966 0.680000 115 127 131
-0.224977 -0.071305 0.681000 170 176 174
-0.223538 -0.071409 0.682000 108 114 116
-0.221769 -0.071409 0.682000 96 102 104
-0.220001 -0.071409 0.682000 103 110 114
-0.218232 -0.071409 0.682000 103 110 114
-0.216145 -0.071305 0.681000 106 113 117
-0.214379 -0.071305 0.681000 150 157 161
0.027564 -0.071200 0.680000 168 174 174
0.029328 -0.071200 0.680000 124 130 130
0.031091 -0.071200 0.680000 107 117 120
0.032855 -0.071200 0.680000 105 115 118
0.034619 -0.071200 0.680000 100 110 115
0.036383 -0.071200 0.680000 131 141 146
-0.225307 -0.069638 0.682000 135 141 139
-0.223866 -0.069740 0.683000 90 98 99
-0.222095 -0.069740 0.683000 102 110 111
-0.220323 -0.069740 0.683000 114 121 125
-0.218552 -0.069740 0.683000 106 113 117
-0.216780 -0.069740 0.683000 142 150 151
-0.214694 -0.069638 0.682000 177 185 186
0.029328 -0.069434 0.680000 154 160 160
0.031091 -0.069434 0.680000 107 118 118
0.032903 -0.069536 0.681000 109 120 120
0.034670 -0.069536 0.681000 102 112 117
0.036436 -0.069536 0.681000 105 115 120
-0.227409 -0.067966 0.683000 149 152 153
-0.225968 -0.068066 0.684000 99 102 103
-0.224522 -0.068165 0.685000 96 102 104
-0.222745 -0.068165 0.685000 101 107 109
-0.220968 -0.068165 0.685000 108 114 116
-0.219192 -0.068165 0.685000 136 142 144
-0.217098 -0.068066 0.684000 178 184 186
0.031137 -0.067767 0.681000 125 133 134
0.032903 -0.067767 0.681000 109 117 118
0.034670 -0.067767 0.681000 108 118 123
0.036490 -0.067867 0.682000 100 110 115
0.038258 -0.067867 0.682000 125 135 138
-0.229516 -0.066290 0.684000 161 167 167
-0.228075 -0.066386 0.685000 108 114 114
-0.226629 -0.066483 0.686000 92 98 98
-0.224849 -0.066483 0.686000 97 103 103
-0.223070 -0.066483 0.686000 104 110 110
-0.221291 -0.066483 0.686000 126 132 132
-0.219512 -0.066483 0.686000 172 178 178
0.031137 -0.065999 0.681000 167 175 176
0.032903 -0.065999 0.681000 110 118 119
0.034721 -0.066096 0.682000 101 111 114
0.036490 -0.066096 0.682000 104 114 117
0.038258 -0.066096 0.682000 105 115 120
0.040027 -0.066096 0.682000 146 156 161
-0.230187 -0.064702 0.686000 126 132 132
-0.228408 -0.064702 0.686000 91 97 97
-0.226959 -0.064796 0.687000 101 107 107
-0.225505 -0.064890 0.688000 108 114 114
-0.223721 -0.064890 0.688000 126 132 132
-0.221936 -0.064890 0.688000 174 180 180
0.032952 -0.064324 0.682000 134 140 142
0.034721 -0.064324 0.682000 104 114 117
0.036490 -0.064324 0.682000 109 119 122
0.038315 -0.064419 0.683000 98 108 111
0.040086 -0.064419 0.683000 114 124 127
-0.231967 -0.062920 0.686000 139 145 145
-0.230523 -0.063012 0.687000 98 104 104
-0.228741 -0.063012 0.687000 101 107 107
-0.227289 -0.063104 0.688000 113 119 119
-0.225505 -0.063104 0.688000 115 121 121
-0.223721 -0.063104 0.688000 158 164 164
-0.221936 -0.063104 0.688000 177 183 183
0.033000 -0.062645 0.683000 178 184 184
0.034772 -0.062645 0.683000 116 124 125
0.036543 -0.062645 0.683000 112 120 121
0.038315 -0.062645 0.683000 105 116 116
0.040086 -0.062645 0.683000 101 112 112
0.041858 -0.062645 0.683000 137 148 148
-0.234087 -0.061228 0.687000 168 174 172
-0.232305 -0.061228 0.687000 97 105 104
-0.230858 -0.061317 0.688000 103 111 110
-0.229407 -0.061406 0.689000 111 119 120
-0.227620 -0.061406 0.689000 112 120 121
-0.225833 -0.061406 0.689000 140 146 146
-0.224046 -0.061406 0.689000 181 187 187
0.034772 -0.060871 0.683000 153 161 160
0.036597 -0.060960 0.684000 104 112 111
0.038371 -0.060960 0.684000 106 114 115
0.040145 -0.060960 0.684000 104 112 113
0.041919 -0.060960 0.684000 112 123 123
-0.234427 -0.059530 0.688000 127 135 132
-0.232981 -0.059616 0.689000 96 104 103
-0.231194 -0.059616 0.689000 105 113 112
-0.229407 -0.059616 0.689000 113 121 122
-0.227950 -0.059703 0.690000 119 127 128
-0.226161 -0.059703 0.690000 175 181 181
0.036704 -0.059357 0.686000 117 125 124
0.038483 -0.059357 0.686000 112 120 121
0.040203 -0.059270 0.685000 109 117 118
0.041980 -0.059270 0.685000 99 106 110
0.043757 -0.059270 0.685000 133 140 144
-0.236555 -0.057827 0.689000 148 156 155
-0.234768 -0.057827 0.689000 95 103 102
-0.232981 -0.057827 0.689000 100 107 111
-0.231529 -0.057911 0.690000 105 112 116
-0.229740 -0.057911 0.690000 118 125 129
-0.227950 -0.057911 0.690000 156 163 167
-0.226161 -0.057911 0.690000 181 187 187
0.036704 -0.057575 0.686000 162 170 169
0.038483 -0.057575 0.686000 110 118 119
0.040262 -0.057575 0.686000 114 122 123
0.042041 -0.057575 0.686000 107 114 118
0.043821 -0.057575 0.686000 105 112 116
-0.236898 -0.056119 0.690000 107 115 116
-0.235109 -0.056119 0.690000 91 99 100
-0.233319 -0.056119 0.690000 106 113 117
-0.231529 -0.056119 0.690000 104 111 115
-0.229740 -0.056119 0.690000 133 140 144
-0.227950 -0.056119 0.690000 177 184 188
0.038539 -0.055875 0.687000 126 134 133
0.040262 -0.055794 0.686000 111 119 118
0.042041 -0.055794 0.686000 113 120 124
0.043885 -0.055875 0.687000 100 107 111
0.045666 -0.055875 0.687000 141 148 152
-0.238688 -0.054327 0.690000 139 145 145
-0.236898 -0.054327 0.690000 98 104 106
-0.235109 -0.054327 0.690000 103 109 111
-0.233319 -0.054327 0.690000 110 115 120
-0.231529 -0.054327 0.690000 115 120 125
-0.229740 -0.054327 0.690000 174 179 184
0.038595 -0.054169 0.688000 162 168 170
0.040321 -0.054091 0.687000 108 114 116
0.042103 -0.054091 0.687000 116 123 127
0.043885 -0.054091 0.687000 104 111 115
0.045733 -0.054169 0.688000 120 128 129
-0.238688 -0.052535 0.690000 100 106 106
-0.237242 -0.052611 0.691000 101 107 107
-0.235109 -0.052535 0.690000 110 116 116
-0.233319 -0.052535 0.690000 111 117 119
-0.231529 -0.052535 0.690000 151 157 159
-0.230073 -0.052611 0.691000 181 184 187
0.038595 -0.052383 0.688000 184 192 193
0.040380 -0.052383 0.688000 123 131 132
0.042164 -0.052383 0.688000 116 123 127
0.044012 -0.052459 0.689000 112 119 123
0.045799 -0.052459 0.689000 105 112 116
0.047586 -0.052459 0.689000 154 161 165
-0.240826 -0.050816 0.691000 138 144 144
-0.239034 -0.050816 0.691000 92 98 98
-0.237242 -0.050816 0.691000 110 118 119
-0.235450 -0.050816 0.691000 116 124 125
-0.233657 -0.050816 0.691000 127 130 131
-0.231865 -0.050816 0.691000 179 182 183
0.040438 -0.050669 0.689000 152 160 161
0.042225 -0.050669 0.689000 110 117 121
0.044012 -0.050669 0.689000 114 121 125
0.045799 -0.050669 0.689000 106 113 117
0.047655 -0.050743 0.690000 125 132 136
-0.242618 -0.049022 0.691000 178 184 184
-0.240826 -0.049022 0.691000 110 118 119
-0.239034 -0.049022 0.691000 97 105 106
-0.237242 -0.049022 0.691000 117 125 126
-0.235450 -0.049022 0.691000 114 122 123
-0.233657 -0.049022 0.691000 165 168 169
0.040438 -0.048880 0.689000 180 188 187
0.042225 -0.048880 0.689000 116 124 125
0.044012 -0.048880 0.689000 111 119 120
0.045866 -0.048951 0.690000 105 115 118
0.047655 -0.048951 0.690000 108 118 121
0.049445 -0.048951 0.690000 160 168 169
-0.242618 -0.047227 0.691000 150 156 156
-0.240826 -0.047227 0.691000 92 100 101
-0.239034 -0.047227 0.691000 106 114 115
-0.237242 -0.047227 0.691000 116 124 125
-0.235450 -0.047227 0.691000 130 138 139
-0.233657 -0.047227 0.691000 182 188 188
0.040497 -0.047159 0.690000 184 192 191
0.042287 -0.047159 0.690000 144 152 153
0.044076 -0.047159 0.690000 105 113 114
0.045866 -0.047159 0.690000 114 121 125
0.047655 -0.047159 0.690000 104 111 115
0.049445 -0.047159 0.690000 140 148 149
-0.242970 -0.045498 0.692000 118 124 126
-0.240826 -0.045433 0.691000 95 102 106
-0.239380 -0.045498 0.692000 104 111 115
-0.237242 -0.045433 0.691000 110 117 121
-0.235790 -0.045498 0.692000 157 164 168
0.042287 -0.045367 0.690000 174 182 183
0.044076 -0.045367 0.690000 107 115 116
0.045866 -0.045367 0.690000 116 124 125
0.047655 -0.045367 0.690000 109 117 118
0.049445 -0.045367 0.690000 114 122 123
-0.244764 -0.043701 0.692000 166 174 175
-0.242970 -0.043701 0.692000 92 100 101
-0.241175 -0.043701 0.692000 97 104 108
-0.239380 -0.043701 0.692000 105 112 116
-0.237585 -0.043701 0.692000 130 137 141
-0.235790 -0.043701 0.692000 178 185 189
0.042287 -0.043575 0.690000 184 190 192
0.044076 -0.043575 0.690000 128 134 136
0.045866 -0.043575 0.690000 111 118 122
0.047655 -0.043575 0.690000 110 117 121
0.049517 -0.043638 0.691000 98 108 111
0.051309 -0.043638 0.691000 152 162 165
-0.244764 -0.041904 0.692000 132 140 141
-0.242970 -0.041904 0.692000 93 101 102
-0.241175 -0.041904 0.692000 106 113 117
-0.239726 -0.041965 0.693000 106 113 117
-0.237928 -0.041965 0.693000 155 162 166
0.044140 -0.041843 0.691000 150 158 159
0.045932 -0.041843 0.691000 105 116 116
0.047725 -0.041843 0.691000 112 123 123
0.049517 -0.041843 0.691000 98 108 111
0.051309 -0.041843 0.691000 128 138 141
-0.246559 -0.040107 0.692000 173 176 175
-0.244764 -0.040107 0.692000 103 111 112
-0.243321 -0.040165 0.693000 103 111 112
-0.241523 -0.040165 0.693000 111 118 122
-0.239726 -0.040165 0.693000 116 123 127
-0.237928 -0.040165 0.693000 174 182 183
0.044140 -0.040049 0.691000 178 189 189
0.045932 -0.040049 0.691000 107 117 120
0.047725 -0.040049 0.691000 114 124 127
0.049517 -0.040049 0.691000 107 117 120
0.051309 -0.040049 0.691000 109 119 122
-0.246916 -0.038365 0.693000 151 154 153
-0.245118 -0.038365 0.693000 102 110 111
-0.243321 -0.038365 0.693000 117 125 126
-0.241872 -0.038420 0.694000 111 118 122
-0.240072 -0.038420 0.694000 137 144 148
0.045932 -0.038254 0.691000 131 141 144
0.047725 -0.038254 0.691000 107 117 120
0.049517 -0.038254 0.691000 109 119 122
0.051309 -0.038254 0.691000 100 110 113
0.053101 -0.038254 0.691000 161 168 172
-0.246916 -0.036565 0.693000 121 127 127
-0.245118 -0.036565 0.693000 104 111 115
-0.243672 -0.036618 0.694000 117 124 128
-0.242220 -0.036671 0.695000 109 117 118
-0.240764 -0.036723 0.696000 168 176 177
0.045932 -0.036460 0.691000 148 155 159
0.047725 -0.036460 0.691000 106 113 117
0.049517 -0.036460 0.691000 112 122 125
0.051383 -0.036512 0.692000 102 112 115
0.053178 -0.036512 0.692000 144 152 153
-0.248713 -0.034765 0.693000 175 181 181
-0.247272 -0.034815 0.694000 98 104 104
-0.245472 -0.034815 0.694000 102 109 113
-0.244374 -0.034916 0.696000 112 119 123
-0.242569 -0.034916 0.696000 122 133 133
-0.240764 -0.034916 0.696000 175 186 186
0.045999 -0.034715 0.692000 167 174 178
0.047794 -0.034715 0.692000 109 116 120
0.049588 -0.034715 0.692000 114 124 127
0.051383 -0.034715 0.692000 105 115 118
0.053178 -0.034715 0.692000 130 137 141
-0.249072 -0.033013 0.694000 154 160 160
-0.247628 -0.033061 0.695000 93 99 99
-0.245826 -0.033061 0.695000 101 111 114
-0.244374 -0.033108 0.696000 103 113 116
-0.242917 -0.033156 0.697000 152 163 163
0.045999 -0.032918 0.692000 177 184 188
0.047794 -0.032918 0.692000 113 120 124
0.049588 -0.032918 0.692000 113 120 124
0.051458 -0.032966 0.693000 109 116 120
0.053255 -0.032966 0.693000 116 124 125
-0.249431 -0.031256 0.695000 126 132 132
-0.247984 -0.031301 0.696000 94 100 100
-0.246179 -0.031301 0.696000 104 115 115
-0.244725 -0.031346 0.697000 103 114 114
-0.243266 -0.031391 0.698000 167 177 180
0.047863 -0.031166 0.693000 128 136 137
0.049660 -0.031166 0.693000 112 119 123
0.051458 -0.031166 0.693000 111 118 122
0.053255 -0.031166 0.693000 107 115 116
0.055132 -0.031211 0.694000 161 169 170
-0.249790 -0.029493 0.696000 108 119 117
-0.247984 -0.029493 0.696000 100 111 109
-0.246533 -0.029535 0.697000 104 115 115
-0.245076 -0.029578 0.698000 108 119 119
-0.243266 -0.029578 0.698000 174 185 185
0.047863 -0.029366 0.693000 149 157 158
0.049732 -0.029408 0.694000 105 113 114
0.051532 -0.029408 0.694000 113 121 122
0.053332 -0.029408 0.694000 104 112 113
0.055132 -0.029408 0.694000 149 157 158
-0.251956 -0.027725 0.697000 170 176 176
-0.250149 -0.027725 0.697000 95 106 104
-0.248697 -0.027765 0.698000 98 109 107
-0.246887 -0.027765 0.698000 105 116 116
-0.245076 -0.027765 0.698000 118 129 129
0.047932 -0.027606 0.694000 167 173 173
0.049732 -0.027606 0.694000 104 112 111
0.051606 -0.027646 0.695000 116 124 123
0.053409 -0.027646 0.695000 104 112 113
0.055291 -0.027685 0.696000 141 149 150
-0.252318 -0.025952 0.698000 163 169 169
-0.250507 -0.025952 0.698000 90 101 101
-0.248697 -0.025952 0.698000 103 114 114
-0.246887 -0.025952 0.698000 105 115 118
-0.245076 -0.025952 0.698000 139 149 152
0.048070 -0.025878 0.696000 174 180 180
0.049875 -0.025878 0.696000 109 117 116
0.051680 -0.025878 0.696000 114 122 121
0.053485 -0.025878 0.696000 111 119 120
0.055291 -0.025878 0.696000 135 143 144
-0.252679 -0.024174 0.699000 151 157 157
-0.250866 -0.024174 0.699000 93 103 106
-0.249053 -0.024174 0.699000 107 117 120
-0.247240 -0.024174 0.699000 107 117 120
-0.245427 -0.024174 0.699000 151 161 164
0.048070 -0.024070 0.696000 178 186 185
0.051755 -0.024105 0.697000 112 120 119
0.053562 -0.024105 0.697000 110 118 119
0.055370 -0.024105 0.697000 121 129 130
-0.252679 -0.022359 0.699000 131 137 135
-0.250866 -0.022359 0.699000 98 108 111
-0.249053 -0.022359 0.699000 105 115 118
-0.247240 -0.022359 0.699000 107 117 120
-0.245427 -0.022359 0.699000 160 170 173
0.048208 -0.022327 0.698000 180 188 187
0.050018 -0.022327 0.698000 125 133 134
0.051829 -0.022327 0.698000 106 114 115
0.053639 -0.022327 0.698000 109 120 120
0.055450 -0.022327 0.698000 117 128 128
-0.253041 -0.020573 0.700000 110 116 114
-0.251225 -0.020573 0.700000 104 115 113
-0.249410 -0.020573 0.700000 105 116 114
-0.247594 -0.020573 0.700000 112 122 125
-0.245779 -0.020573 0.700000 173 183 186
0.050090 -0.020543 0.699000 126 137 137
0.051829 -0.020514 0.698000 104 115 115
0.053716 -0.020543 0.699000 109 120 120
0.055529 -0.020543 0.699000 108 119 119
-0.254856 -0.018755 0.700000 167 173 171
-0.253402 -0.018781 0.701000 103 109 107
-0.251584 -0.018781 0.701000 110 118 117
-0.249766 -0.018781 0.701000 111 119 118
-0.247948 -0.018781 0.701000 126 134 135
-0.246130 -0.018781 0.701000 177 185 186
0.050090 -0.018728 0.699000 130 141 141
0.051903 -0.018728 0.699000 104 115 115
0.053716 -0.018728 0.699000 111 123 125
0.055529 -0.018728 0.699000 106 118 120
-0.255585 -0.016985 0.702000 157 160 159
-0.253764 -0.016985 0.702000 102 105 104
-0.252302 -0.017009 0.703000 114 120 120
-0.250479 -0.017009 0.703000 106 112 112
-0.248655 -0.017009 0.703000 147 153 155
-0.246832 -0.017009 0.703000 177 183 185
0.050162 -0.016937 0.700000 130 141 141
0.051977 -0.016937 0.700000 107 118 118
0.053793 -0.016937 0.700000 112 123 123
0.055608 -0.016937 0.700000 107 118 118
-0.255949 -0.015183 0.703000 147 153 151
-0.254125 -0.015183 0.703000 103 109 107
-0.252302 -0.015183 0.703000 114 122 121
-0.250479 -0.015183 0.703000 104 112 111
-0.248655 -0.015183 0.703000 158 164 166
0.050162 -0.015119 0.700000 133 144 144
0.052052 -0.015140 0.701000 104 115 115
0.053793 -0.015119 0.700000 113 121 122
0.055608 -0.015119 0.700000 110 118 119
0.057506 -0.015140 0.701000 167 175 176
-0.255949 -0.013358 0.703000 141 149 146
-0.254125 -0.013358 0.703000 103 111 108
-0.252302 -0.013358 0.703000 116 124 125
-0.250479 -0.013358 0.703000 106 114 115
-0.248655 -0.013358 0.703000 167 173 175
0.050233 -0.013320 0.701000 139 150 150
0.052052 -0.013320 0.701000 107 118 118
0.053870 -0.013320 0.701000 119 125 127
0.055688 -0.013320 0.701000 111 117 119
0.057506 -0.013320 0.701000 167 175 176
-0.255949 -0.011532 0.703000 137 145 144
-0.254125 -0.011532 0.703000 105 113 112
-0.252302 -0.011532 0.703000 117 124 128
-0.250479 -0.011532 0.703000 113 120 124
-0.248655 -0.011532 0.703000 171 177 177
0.050305 -0.011516 0.702000 144 152 153
0.052126 -0.011516 0.702000 109 117 118
0.053947 -0.011516 0.702000 118 126 127
0.055767 -0.011516 0.702000 111 119 120
0.057588 -0.011516 0.702000 164 172 173
-0.255949 -0.009706 0.703000 131 139 140
-0.254125 -0.009706 0.703000 105 113 114
-0.252302 -0.009706 0.703000 117 124 130
-0.250479 -0.009706 0.703000 117 124 130
-0.248655 -0.009706 0.703000 167 173 175
0.050377 -0.009706 0.703000 147 155 156
0.052200 -0.009706 0.703000 107 115 116
0.054023 -0.009706 0.703000 118 126 127
0.055847 -0.009706 0.703000 111 119 120
0.057670 -0.009706 0.703000 162 173 173
-0.256313 -0.007892 0.704000 124 132 133
-0.254487 -0.007892 0.704000 106 114 115
-0.252302 -0.007880 0.703000 117 124 130
-0.250835 -0.007892 0.704000 116 123 129
-0.249009 -0.007892 0.704000 166 168 174
0.050377 -0.007880 0.703000 146 154 155
0.052200 -0.007880 0.703000 106 114 115
0.054023 -0.007880 0.703000 115 126 126
0.055847 -0.007880 0.703000 109 120 120
0.057670 -0.007880 0.703000 160 171 171
-0.256313 -0.006063 0.704000 123 131 132
-0.254487 -0.006063 0.704000 114 122 123
-0.252661 -0.006063 0.704000 118 125 129
-0.250835 -0.006063 0.704000 118 125 129
-0.249009 -0.006063 0.704000 175 181 183
0.050377 -0.006055 0.703000 138 146 147
0.052200 -0.006055 0.703000 107 115 116
0.054023 -0.006055 0.703000 114 125 125
0.055847 -0.006055 0.703000 105 116 116
0.057670 -0.006055 0.703000 158 169 169
-0.256313 -0.004235 0.704000 117 125 124
-0.254487 -0.004235 0.704000 116 124 123
-0.252661 -0.004235 0.704000 116 123 127
-0.250835 -0.004235 0.704000 121 128 132
-0.249009 -0.004235 0.704000 175 180 185
0.050377 -0.004229 0.703000 132 143 141
0.052200 -0.004229 0.703000 105 116 114
0.054023 -0.004229 0.703000 111 124 123
0.055926 -0.004235 0.704000 104 117 116
-0.256313 -0.002406 0.704000 106 112 110
-0.254487 -0.002406 0.704000 113 119 117
-0.252661 -0.002406 0.704000 115 120 125
-0.250835 -0.002406 0.704000 121 126 131
-0.249009 -0.002406 0.704000 176 178 184
0.050448 -0.002406 0.704000 131 142 142
0.052274 -0.002406 0.704000 105 116 116
0.054100 -0.002406 0.704000 111 124 123
0.055926 -0.002406 0.704000 104 117 116
-0.256677 -0.000579 0.705000 108 111 110
-0.254848 -0.000579 0.705000 122 125 124
-0.253020 -0.000579 0.705000 117 123 125
-0.251191 -0.000579 0.705000 122 128 130
-0.249363 -0.000579 0.705000 176 179 182
0.050448 -0.000578 0.704000 129 140 140
0.052274 -0.000578 0.704000 105 116 116
0.054100 -0.000578 0.704000 114 125 125
0.055926 -0.000578 0.704000 108 119 119
-0.256677 0.001252 0.705000 108 114 112
-0.254848 0.001252 0.705000 120 126 124
-0.253020 0.001252 0.705000 116 124 125
-0.251191 0.001252 0.705000 121 129 130
-0.249363 0.001252 0.705000 176 179 180
0.050448 0.001250 0.704000 125 136 136
0.052274 0.001250 0.704000 108 119 119
0.054177 0.001252 0.705000 110 123 122
0.056006 0.001252 0.705000 109 122 121
-0.256677 0.003083 0.705000 107 114 108
-0.254848 0.003083 0.705000 117 124 118
-0.253020 0.003083 0.705000 112 123 123
-0.251547 0.003087 0.706000 116 127 127
-0.249363 0.003083 0.705000 174 177 178
0.050520 0.003083 0.705000 119 130 130
0.052349 0.003083 0.705000 111 122 122
0.054177 0.003083 0.705000 109 121 123
0.056006 0.003083 0.705000 114 126 128
-0.257041 0.004921 0.706000 107 115 112
-0.255210 0.004921 0.706000 116 124 121
-0.253379 0.004921 0.706000 114 124 127
-0.251547 0.004921 0.706000 111 121 124
-0.249716 0.004921 0.706000 176 179 180
0.050520 0.004914 0.705000 115 128 127
0.052349 0.004914 0.705000 111 124 123
0.054177 0.004914 0.705000 110 122 124
0.056085 0.004921 0.706000 120 132 134
-0.257405 0.006764 0.707000 116 124 123
-0.255571 0.006764 0.707000 114 122 121
-0.253738 0.006764 0.707000 112 122 125
-0.251904 0.006764 0.707000 111 121 124
-0.250070 0.006764 0.707000 172 178 180
0.048761 0.006754 0.706000 169 180 178
0.050592 0.006754 0.706000 111 122 122
0.052423 0.006754 0.706000 112 123 123
0.054254 0.006754 0.706000 109 121 123
0.056165 0.006764 0.707000 131 143 145
-0.257405 0.008600 0.707000 118 129 127
-0.255933 0.008612 0.708000 112 123 121
-0.254096 0.008612 0.708000 112 122 125
-0.252260 0.008612 0.708000 108 118 121
-0.250424 0.008612 0.708000 170 176 178
0.048830 0.008600 0.707000 166 174 173
0.050663 0.008600 0.707000 104 115 115
0.052497 0.008600 0.707000 112 123 123
0.054408 0.008612 0.708000 107 119 121
0.056244 0.008612 0.708000 141 153 155
-0.257769 0.010451 0.708000 131 142 140
-0.255933 0.010451 0.708000 105 116 114
-0.254096 0.010451 0.708000 112 122 125
-0.252260 0.010451 0.708000 104 114 117
-0.250777 0.010466 0.709000 165 171 173
0.048899 0.010451 0.708000 157 165 166
0.050735 0.010451 0.708000 102 113 113
0.052571 0.010451 0.708000 115 126 126
0.054485 0.010466 0.709000 107 118 118
0.056323 0.010466 0.709000 150 161 161
-0.258133 0.012307 0.709000 140 151 149
-0.256294 0.012307 0.709000 100 111 109
-0.254455 0.012307 0.709000 111 124 123
-0.252973 0.012325 0.710000 102 115 114
-0.251131 0.012325 0.710000 159 166 170
0.048968 0.012307 0.709000 154 162 163
0.050807 0.012307 0.709000 103 111 112
0.052720 0.012325 0.710000 117 125 126
0.054561 0.012325 0.710000 104 115 115
0.056403 0.012325 0.710000 153 164 164
-0.258497 0.014169 0.710000 145 156 152
-0.256656 0.014169 0.710000 101 112 108
-0.254814 0.014169 0.710000 112 123 121
-0.252973 0.014169 0.710000 109 120 118
-0.251485 0.014189 0.711000 135 142 148
-0.249641 0.014189 0.711000 176 183 189
0.049037 0.014169 0.710000 141 149 148
0.050878 0.014169 0.710000 107 115 114
0.052720 0.014169 0.710000 116 124 123
0.054561 0.014169 0.710000 108 119 119
0.056482 0.014189 0.711000 161 172 172
-0.258497 0.016013 0.710000 154 162 159
-0.257017 0.016035 0.711000 109 117 114
-0.255173 0.016035 0.711000 114 125 123
-0.253329 0.016035 0.711000 108 119 117
-0.251485 0.016035 0.711000 125 132 138
-0.249992 0.016058 0.712000 176 183 189
0.049106 0.016035 0.711000 113 121 120
0.050950 0.016035 0.711000 106 114 115
0.052794 0.016035 0.711000 113 121 122
0.054638 0.016035 0.711000 110 120 123
-0.258861 0.017882 0.711000 161 167 165
-0.257017 0.017882 0.711000 111 117 115
-0.255173 0.017882 0.711000 116 127 125
-0.253685 0.017907 0.712000 105 116 114
-0.252192 0.017932 0.713000 115 125 130
-0.250343 0.017932 0.713000 173 183 188
0.047328 0.017907 0.712000 168 174 176
0.049106 0.017882 0.711000 110 116 118
0.050950 0.017882 0.711000 109 116 120
0.052794 0.017882 0.711000 110 117 121
0.054638 0.017882 0.711000 117 127 130
-0.258861 0.019728 0.711000 175 181 181
-0.257379 0.019756 0.712000 112 118 118
-0.255891 0.019784 0.713000 115 126 126
-0.254042 0.019784 0.713000 108 119 119
-0.252192 0.019784 0.713000 109 119 124
-0.250694 0.019811 0.714000 166 176 181
0.047395 0.019784 0.713000 164 171 175
0.049244 0.019784 0.713000 107 114 118
0.051022 0.019756 0.712000 112 119 123
0.052868 0.019756 0.712000 110 117 121
0.054715 0.019756 0.712000 130 141 141
-0.259225 0.021605 0.712000 186 189 190
-0.257740 0.021635 0.713000 117 120 121
-0.255891 0.021635 0.713000 112 123 123
-0.254042 0.021635 0.713000 112 123 123
-0.252546 0.021666 0.714000 107 117 122
-0.250694 0.021666 0.714000 162 172 177
0.047395 0.021635 0.713000 148 155 159
0.049244 0.021635 0.713000 103 110 114
0.051093 0.021635 0.713000 114 121 125
0.052868 0.021605 0.712000 107 114 118
0.054715 0.021605 0.712000 150 161 161
-0.258102 0.023520 0.714000 128 134 134
-0.256250 0.023520 0.714000 112 122 127
-0.254398 0.023520 0.714000 112 122 127
-0.252900 0.023553 0.715000 104 114 119
-0.251045 0.023553 0.715000 154 164 169
0.047461 0.023520 0.714000 135 142 146
0.049244 0.023487 0.713000 103 110 114
0.051093 0.023487 0.713000 116 124 125
0.052868 0.023454 0.712000 104 112 113
0.054715 0.023454 0.712000 159 170 168
-0.258102 0.025374 0.714000 148 154 154
-0.256609 0.025410 0.715000 110 120 125
-0.254754 0.025410 0.715000 115 125 130
-0.253253 0.025446 0.716000 103 113 118
-0.251396 0.025446 0.716000 139 149 154
-0.249539 0.025446 0.716000 176 183 187
0.047461 0.025374 0.714000 116 124 125
0.049244 0.025339 0.713000 107 115 116
0.051093 0.025339 0.713000 114 122 121
0.052943 0.025339 0.713000 113 121 120
-0.258463 0.027267 0.715000 162 170 171
-0.256609 0.027267 0.715000 103 113 118
-0.255110 0.027305 0.716000 115 125 130
-0.253253 0.027305 0.716000 110 120 125
-0.251747 0.027343 0.717000 126 136 141
-0.249888 0.027343 0.717000 180 187 191
0.045673 0.027267 0.715000 170 178 179
0.047461 0.027229 0.714000 102 110 111
0.049313 0.027229 0.714000 110 118 119
0.051093 0.027191 0.713000 107 115 116
0.052943 0.027191 0.713000 128 136 137
-0.258825 0.029165 0.716000 178 186 187
-0.256968 0.029165 0.716000 107 117 120
-0.255110 0.029165 0.716000 115 125 128
-0.253607 0.029205 0.717000 110 120 125
-0.251747 0.029205 0.717000 111 121 126
-0.249888 0.029205 0.717000 177 184 188
0.045673 0.029124 0.715000 151 157 157
0.047528 0.029124 0.715000 99 107 108
0.049313 0.029083 0.714000 110 118 119
0.051165 0.029083 0.714000 103 114 114
0.052943 0.029042 0.713000 146 157 157
-0.257326 0.031067 0.717000 120 127 131
-0.255467 0.031067 0.717000 112 119 123
-0.253607 0.031067 0.717000 110 120 123
-0.251747 0.031067 0.717000 102 112 115
-0.249888 0.031067 0.717000 161 169 170
0.045737 0.031024 0.716000 130 138 137
0.047528 0.030981 0.715000 103 111 112
0.049382 0.030981 0.715000 111 119 120
0.051165 0.030937 0.714000 103 114 114
0.053017 0.030937 0.714000 160 171 171
-0.257326 0.032930 0.717000 131 139 140
-0.255467 0.032930 0.717000 107 115 116
-0.253607 0.032930 0.717000 111 121 124
-0.251747 0.032930 0.717000 102 112 115
-0.249888 0.032930 0.717000 140 148 149
-0.248374 0.032976 0.718000 182 190 191
0.043941 0.032930 0.717000 170 178 177
0.045801 0.032930 0.717000 114 122 121
0.047594 0.032884 0.716000 103 114 114
0.049382 0.032838 0.715000 110 121 121
0.051237 0.032838 0.715000 111 122 120
-0.257326 0.034792 0.717000 159 167 168
-0.255467 0.034792 0.717000 104 112 113
-0.253607 0.034792 0.717000 114 122 123
-0.251747 0.034792 0.717000 106 114 115
-0.250236 0.034840 0.718000 125 133 134
-0.248374 0.034840 0.718000 181 189 190
0.043941 0.034792 0.717000 154 165 163
0.045801 0.034792 0.717000 98 109 107
0.047661 0.034792 0.717000 108 119 119
0.049451 0.034743 0.716000 102 113 113
0.051237 0.034695 0.715000 131 142 140
-0.257326 0.036654 0.717000 183 189 189
-0.255467 0.036654 0.717000 107 113 113
-0.253607 0.036654 0.717000 116 124 123
-0.252099 0.036705 0.718000 113 121 120
-0.250236 0.036705 0.718000 107 113 115
-0.248720 0.036756 0.719000 172 178 180
0.044003 0.036705 0.718000 125 136 136
0.045801 0.036654 0.717000 100 111 111
0.047661 0.036654 0.717000 105 116 116
0.049520 0.036654 0.717000 103 114 114
0.051308 0.036603 0.716000 155 166 162
-0.255467 0.038516 0.717000 132 138 138
-0.253961 0.038570 0.718000 113 121 120
-0.252099 0.038570 0.718000 114 122 121
-0.250236 0.038570 0.718000 103 109 109
-0.248720 0.038623 0.719000 156 162 162
-0.246855 0.038623 0.719000 182 188 190
0.042199 0.038623 0.719000 161 171 174
0.044003 0.038570 0.718000 107 118 118
0.045865 0.038570 0.718000 103 114 114
0.047661 0.038516 0.717000 104 115 115
0.049520 0.038516 0.717000 111 122 122
-0.255823 0.040434 0.718000 153 159 159
-0.253961 0.040434 0.718000 105 113 112
-0.252099 0.040434 0.718000 114 122 121
-0.250585 0.040491 0.719000 104 112 111
-0.248720 0.040491 0.719000 126 134 133
-0.247198 0.040547 0.720000 182 188 190
0.042199 0.040491 0.719000 140 148 149
0.044064 0.040491 0.719000 98 106 107
0.045865 0.040434 0.718000 110 118 119
0.047727 0.040434 0.718000 103 111 112
0.049589 0.040434 0.718000 139 147 148
-0.255823 0.042299 0.718000 171 177 177
-0.254314 0.042358 0.719000 106 114 113
-0.252450 0.042358 0.719000 112 120 119
-0.250585 0.042358 0.719000 105 113 112
-0.248720 0.042358 0.719000 106 114 113
-0.247198 0.042417 0.720000 170 176 178
0.040446 0.042476 0.721000 173 181 182
0.042258 0.042417 0.720000 110 118 119
0.044064 0.042358 0.719000 103 111 112
0.045929 0.042358 0.719000 111 119 120
0.047794 0.042358 0.719000 105 113 114
0.049589 0.042299 0.718000 167 175 176
-0.254314 0.044225 0.719000 121 127 127
-0.252450 0.044225 0.719000 113 119 119
-0.250585 0.044225 0.719000 111 119 118
-0.249066 0.044287 0.720000 100 108 107
0.040446 0.044348 0.721000 154 162 161
0.042316 0.044348 0.721000 98 106 105
0.044125 0.044287 0.720000 104 115 113
0.045993 0.044287 0.720000 102 113 111
0.047794 0.044225 0.719000 132 140 139
-0.254314 0.046093 0.719000 156 162 162
-0.250933 0.046157 0.720000 112 118 118
-0.249066 0.046157 0.720000 108 114 114
-0.245672 0.046221 0.721000 179 185 187
0.038630 0.046285 0.722000 174 182 181
0.040558 0.046349 0.723000 118 129 127
0.042375 0.046285 0.722000 97 108 106
0.044186 0.046221 0.721000 104 115 113
0.046056 0.046221 0.721000 102 113 111
0.047926 0.046221 0.721000 154 162 161
-0.252801 0.048027 0.720000 112 118 118
-0.250933 0.048027 0.720000 113 121 120
-0.249066 0.048027 0.720000 112 120 119
-0.247542 0.048093 0.721000 105 111 113
-0.245672 0.048093 0.721000 156 162 164
0.038737 0.048294 0.724000 158 169 167
0.040615 0.048294 0.724000 100 111 111
0.042492 0.048294 0.724000 103 114 114
0.044248 0.048160 0.722000 100 111 109
0.046120 0.048160 0.722000 121 132 130
-0.253152 0.049966 0.721000 136 142 144
-0.251282 0.049966 0.721000 109 117 116
-0.249412 0.049966 0.721000 116 124 123
-0.247542 0.049966 0.721000 104 110 112
-0.245672 0.049966 0.721000 126 132 134
-0.243802 0.049966 0.721000 183 189 191
0.036910 0.050243 0.725000 173 184 182
0.038790 0.050243 0.725000 124 135 133
0.040671 0.050243 0.725000 96 106 109
0.042551 0.050243 0.725000 104 114 117
0.044370 0.050174 0.724000 101 112 110
0.046248 0.050174 0.724000 151 162 160
-0.253152 0.051839 0.721000 171 177 177
-0.251282 0.051839 0.721000 105 113 112
-0.249412 0.051839 0.721000 117 125 124
-0.247542 0.051839 0.721000 109 117 118
-0.245672 0.051839 0.721000 102 110 111
-0.243802 0.051839 0.721000 170 175 180
0.036910 0.052126 0.725000 160 168 169
0.038844 0.052198 0.726000 102 110 111
0.040727 0.052198 0.726000 104 114 117
0.042551 0.052126 0.725000 103 113 116
0.044432 0.052126 0.725000 116 127 125
0.046248 0.052054 0.724000 168 179 177
-0.251630 0.053786 0.722000 130 138 139
-0.249758 0.053786 0.722000 109 117 118
-0.247542 0.053711 0.721000 110 121 121
-0.246353 0.053860 0.723000 101 112 112
-0.244140 0.053786 0.722000 134 139 144
-0.242267 0.053786 0.722000 183 188 193
0.035078 0.054084 0.726000 172 178 176
0.037012 0.054158 0.727000 128 136 137
0.038897 0.054158 0.727000 97 105 106
0.040783 0.054158 0.727000 109 117 118
0.042668 0.054158 0.727000 104 112 113
0.044493 0.054084 0.726000 153 164 162
-0.251979 0.055738 0.723000 156 164 165
-0.250104 0.055738 0.723000 105 113 114
-0.248228 0.055738 0.723000 110 121 121
-0.246694 0.055815 0.724000 103 114 114
-0.244478 0.055738 0.723000 99 106 110
-0.242603 0.055738 0.723000 167 174 178
0.035126 0.056046 0.727000 146 152 150
0.037063 0.056123 0.728000 102 110 111
0.038951 0.056123 0.728000 107 115 116
0.040839 0.056123 0.728000 104 112 111
0.042668 0.056046 0.727000 119 127 126
0.044554 0.056046 0.727000 171 179 178
-0.250450 0.057695 0.724000 127 133 135
-0.248572 0.057695 0.724000 111 119 120
-0.246694 0.057695 0.724000 111 119 120
-0.244816 0.057695 0.724000 99 106 110
-0.242938 0.057695 0.724000 130 137 141
-0.241060 0.057695 0.724000 181 188 194
0.033240 0.057934 0.727000 163 171 168
0.035174 0.058014 0.728000 113 121 118
0.037063 0.058014 0.728000 102 110 109
0.039004 0.058094 0.729000 109 117 116
0.040895 0.058094 0.729000 100 108 107
0.042727 0.058014 0.728000 153 161 160
-0.250450 0.059575 0.724000 171 174 175
-0.248572 0.059575 0.724000 110 118 117
-0.246694 0.059575 0.724000 116 124 123
-0.245154 0.059658 0.725000 107 115 116
-0.243274 0.059658 0.725000 103 111 112
-0.241060 0.059575 0.724000 154 159 164
0.033332 0.059987 0.729000 132 140 139
0.035223 0.059987 0.729000 98 106 105
0.037113 0.059987 0.729000 107 115 114
0.039004 0.059987 0.729000 106 114 113
0.040895 0.059987 0.729000 125 133 130
-0.248915 0.061541 0.725000 130 138 137
-0.247035 0.061541 0.725000 110 118 117
-0.245154 0.061541 0.725000 110 121 119
-0.243274 0.061541 0.725000 97 108 106
-0.241393 0.061541 0.725000 114 121 125
-0.239513 0.061541 0.725000 177 184 188
0.031441 0.061880 0.729000 154 162 163
0.033332 0.061880 0.729000 102 110 111
0.035223 0.061880 0.729000 103 111 112
0.037113 0.061880 0.729000 110 118 115
0.039004 0.061880 0.729000 107 115 112
0.040895 0.061880 0.729000 161 167 165
-0.249258 0.063511 0.726000 175 183 184
-0.247375 0.063511 0.726000 107 115 116
-0.245154 0.063424 0.725000 112 123 123
-0.243274 0.063424 0.725000 105 116 116
-0.241393 0.063424 0.725000 98 105 111
-0.239513 0.063424 0.725000 148 155 161
-0.237632 0.063424 0.725000 184 189 194
0.029591 0.063861 0.730000 170 178 179
0.031484 0.063861 0.730000 118 126 127
0.033332 0.063774 0.729000 97 108 108
0.035271 0.063861 0.730000 105 116 116
0.037164 0.063861 0.730000 104 112 109
0.039058 0.063861 0.730000 134 142 139
-0.247375 0.065397 0.726000 123 131 132
-0.245492 0.065397 0.726000 116 123 127
-0.243609 0.065397 0.726000 113 120 124
-0.241393 0.065306 0.725000 102 109 115
-0.239843 0.065397 0.726000 113 120 126
-0.237960 0.065397 0.726000 170 177 183
0.029591 0.065757 0.730000 149 157 158
0.031484 0.065757 0.730000 98 106 107
0.033378 0.065757 0.730000 103 114 114
0.035271 0.065757 0.730000 100 111 111
0.037164 0.065757 0.730000 123 131 130
0.039058 0.065757 0.730000 167 175 174
-0.247716 0.067375 0.727000 174 180 180
-0.245830 0.067375 0.727000 111 119 120
-0.243609 0.067282 0.726000 114 122 123
-0.241726 0.067282 0.726000 111 121 124
-0.239843 0.067282 0.726000 101 111 114
-0.237960 0.067282 0.726000 127 134 140
-0.236402 0.067375 0.727000 178 185 191
0.027735 0.067745 0.731000 157 165 166
0.029631 0.067745 0.731000 101 111 114
0.031484 0.067653 0.730000 98 108 111
0.033378 0.067653 0.730000 104 115 115
0.035271 0.067653 0.730000 108 119 119
0.037164 0.067653 0.730000 152 160 159
-0.245830 0.069263 0.727000 150 156 158
-0.243945 0.069263 0.727000 111 117 119
-0.241726 0.069168 0.726000 108 118 123
-0.239843 0.069168 0.726000 105 115 120
-0.237960 0.069168 0.726000 105 112 118
-0.236402 0.069263 0.727000 152 159 165
-0.234517 0.069263 0.727000 183 188 193
0.025839 0.069644 0.731000 166 177 177
0.027735 0.069644 0.731000 114 125 125
0.029631 0.069644 0.731000 95 106 106
0.031484 0.069549 0.730000 103 114 114
0.033378 0.069549 0.730000 101 112 112
0.035271 0.069549 0.730000 132 143 143
0.037164 0.069549 0.730000 172 183 181
-0.245830 0.071151 0.727000 183 186 187
-0.243945 0.071151 0.727000 130 133 134
-0.242059 0.071151 0.727000 109 117 118
-0.240174 0.071151 0.727000 107 115 116
-0.238288 0.071151 0.727000 102 109 115
-0.236402 0.071151 0.727000 113 120 126
-0.234839 0.071249 0.728000 167 172 179
0.023943 0.071542 0.731000 174 182 181
0.025839 0.071542 0.731000 126 134 135
0.027735 0.071542 0.731000 98 106 107
0.029631 0.071542 0.731000 103 111 112
0.031527 0.071542 0.731000 104 112 113
0.033378 0.071445 0.730000 116 127 125
0.035271 0.071445 0.730000 166 177 175
-0.244280 0.073140 0.728000 172 175 176
-0.242392 0.073140 0.728000 114 120 120
-0.240504 0.073140 0.728000 113 119 119
-0.238288 0.073039 0.727000 109 117 118
-0.236728 0.073140 0.728000 102 110 111
-0.235162 0.073240 0.729000 125 132 138
-0.233271 0.073240 0.729000 174 181 187
0.022078 0.073541 0.732000 175 183 182
0.023976 0.073541 0.732000 138 146 145
0.025875 0.073541 0.732000 95 103 104
0.027735 0.073441 0.731000 100 108 109
0.029631 0.073441 0.731000 100 108 107
0.031527 0.073441 0.731000 102 110 109
0.033423 0.073441 0.731000 154 162 161
-0.242725 0.075133 0.729000 165 171 169
-0.240834 0.075133 0.729000 108 114 112
-0.238944 0.075133 0.729000 111 119 118
-0.237053 0.075133 0.729000 110 118 117
-0.235162 0.075133 0.729000 99 106 110
-0.233271 0.075133 0.729000 127 134 138
-0.231380 0.075133 0.729000 179 184 191
0.022108 0.075546 0.733000 140 151 151
0.023976 0.075442 0.732000 96 107 107
0.025875 0.075442 0.732000 100 111 109
0.027773 0.075442 0.732000 103 114 112
0.029631 0.075339 0.731000 104 112 111
0.031527 0.075339 0.731000 135 143 142
-0.240834 0.077027 0.729000 143 149 147
-0.238944 0.077027 0.729000 111 119 118
-0.237053 0.077027 0.729000 111 119 118
-0.235162 0.077027 0.729000 107 114 118
-0.233271 0.077027 0.729000 100 107 111
-0.231380 0.077027 0.729000 140 147 153
-0.229490 0.077027 0.729000 183 190 196
0.020206 0.077449 0.733000 152 163 161
0.022108 0.077449 0.733000 97 108 108
0.023976 0.077344 0.732000 94 105 105
0.025875 0.077344 0.732000 101 112 112
0.027773 0.077344 0.732000 97 108 108
0.029672 0.077344 0.732000 122 133 131
0.031527 0.077238 0.731000 167 178 176
-0.240834 0.078920 0.729000 183 189 187
-0.239271 0.079028 0.730000 126 132 132
-0.237053 0.078920 0.729000 110 116 116
-0.235162 0.078920 0.729000 109 119 122
-0.233271 0.078920 0.729000 103 113 116
-0.231380 0.078920 0.729000 100 110 115
-0.229490 0.078920 0.729000 142 152 157
-0.227599 0.078920 0.729000 180 187 193
0.018330 0.079461 0.734000 155 165 168
0.020234 0.079461 0.734000 100 110 113
0.022138 0.079461 0.734000 92 104 106
0.024009 0.079353 0.733000 102 114 116
0.025910 0.079353 0.733000 97 110 107
0.027773 0.079245 0.732000 107 120 117
0.029672 0.079245 0.732000 164 175 173
-0.239599 0.081035 0.731000 169 172 173
-0.237378 0.080924 0.730000 114 117 118
-0.235485 0.080924 0.730000 109 117 118
-0.233591 0.080924 0.730000 111 119 120
-0.231698 0.080924 0.730000 102 112 115
-0.229490 0.080813 0.729000 114 124 127
-0.227599 0.080813 0.729000 149 156 162
-0.226018 0.080924 0.730000 180 187 193
0.016427 0.081367 0.734000 160 171 171
0.018330 0.081367 0.734000 103 113 116
0.020234 0.081367 0.734000 94 104 107
0.022138 0.081367 0.734000 102 112 115
0.024009 0.081257 0.733000 101 111 114
0.025910 0.081257 0.733000 107 118 116
0.027811 0.081257 0.733000 159 170 168
-0.237703 0.082933 0.731000 162 165 166
-0.235807 0.082933 0.731000 109 117 116
-0.233591 0.082820 0.730000 112 120 119
-0.231698 0.082820 0.730000 107 118 118
-0.229804 0.082820 0.730000 101 112 112
-0.227911 0.082820 0.730000 109 119 124
-0.226018 0.082820 0.730000 140 150 155
-0.224431 0.082933 0.731000 178 183 188
0.014523 0.083274 0.734000 159 169 172
0.016427 0.083274 0.734000 107 117 120
0.018330 0.083274 0.734000 94 105 105
0.020234 0.083274 0.734000 102 113 113
0.022138 0.083274 0.734000 100 111 111
0.024042 0.083274 0.734000 103 114 114
0.025945 0.083274 0.734000 157 165 162
-0.235807 0.084832 0.731000 153 159 159
-0.233911 0.084832 0.731000 106 112 112
-0.231698 0.084716 0.730000 110 121 119
-0.229804 0.084716 0.730000 108 119 117
-0.227911 0.084716 0.730000 107 114 118
-0.226018 0.084716 0.730000 116 123 127
-0.224431 0.084832 0.731000 149 154 161
-0.222535 0.084832 0.731000 175 180 187
0.012619 0.085180 0.734000 163 171 170
0.014523 0.085180 0.734000 105 115 118
0.016449 0.085296 0.735000 93 103 106
0.018355 0.085296 0.735000 101 112 112
0.020262 0.085296 0.735000 97 108 108
0.022168 0.085296 0.735000 105 113 112
0.024042 0.085180 0.734000 150 158 157
-0.233911 0.086730 0.731000 142 148 148
-0.232015 0.086730 0.731000 102 113 111
-0.230119 0.086730 0.731000 110 121 119
-0.228223 0.086730 0.731000 105 115 118
-0.226327 0.086730 0.731000 104 114 117
-0.224431 0.086730 0.731000 116 123 129
-0.222535 0.086730 0.731000 140 147 153
-0.220639 0.086730 0.731000 169 174 181
0.010730 0.087205 0.735000 158 169 169
0.012636 0.087205 0.735000 104 115 115
0.014543 0.087205 0.735000 91 102 102
0.016471 0.087324 0.736000 100 111 111
0.018380 0.087324 0.736000 100 111 111
0.020289 0.087324 0.736000 100 111 111
0.022198 0.087324 0.736000 143 149 149
-0.232015 0.088629 0.731000 131 139 138
-0.230119 0.088629 0.731000 103 111 110
-0.228223 0.088629 0.731000 109 119 122
-0.226327 0.088629 0.731000 108 118 121
-0.224431 0.088629 0.731000 106 113 119
-0.222535 0.088629 0.731000 119 126 132
-0.220941 0.088750 0.732000 136 141 150
-0.219042 0.088750 0.732000 163 168 177
0.006917 0.089114 0.735000 175 183 182
0.008835 0.089235 0.736000 156 164 163
0.010744 0.089235 0.736000 95 105 108
0.012671 0.089356 0.737000 90 100 103
0.014582 0.089356 0.737000 100 110 113
0.016494 0.089356 0.737000 100 110 113
0.018405 0.089356 0.737000 98 109 109
0.020317 0.089356 0.737000 136 147 147
-0.230119 0.090527 0.731000 134 140 140
-0.228223 0.090527 0.731000 101 112 112
-0.226327 0.090527 0.731000 108 119 119
-0.224431 0.090527 0.731000 110 117 121
-0.222840 0.090651 0.732000 106 113 117
-0.220941 0.090651 0.732000 114 121 127
-0.219042 0.090651 0.732000 131 138 144
-0.217441 0.090775 0.733000 161 166 173
0.005031 0.091394 0.738000 177 183 183
0.006936 0.091270 0.737000 138 149 149
0.008859 0.091394 0.738000 94 105 105
0.010774 0.091394 0.738000 93 103 106
0.012688 0.091394 0.738000 102 112 115
0.014622 0.091518 0.739000 101 112 112
0.016538 0.091518 0.739000 100 111 111
0.018455 0.091518 0.739000 141 149 148
-0.228535 0.092552 0.732000 139 147 144
-0.226637 0.092552 0.732000 105 113 110
-0.224738 0.092552 0.732000 110 118 119
-0.222840 0.092552 0.732000 107 115 116
-0.220941 0.092552 0.732000 107 114 118
-0.219042 0.092552 0.732000 116 123 127
-0.217441 0.092679 0.733000 133 140 146
-0.215539 0.092679 0.733000 149 156 162
-0.213638 0.092679 0.733000 171 178 182
0.003130 0.093690 0.741000 174 181 185
0.005052 0.093690 0.741000 128 135 139
0.006974 0.093690 0.741000 95 102 106
0.008895 0.093690 0.741000 97 104 108
0.010817 0.093690 0.741000 104 112 113
0.012739 0.093690 0.741000 100 108 109
0.014661 0.093690 0.741000 106 112 112
0.016561 0.093564 0.740000 136 142 142
-0.226637 0.094453 0.732000 139 147 144
-0.224738 0.094453 0.732000 103 111 108
-0.222840 0.094453 0.732000 112 120 117
-0.221243 0.094582 0.733000 110 118 117
-0.219342 0.094582 0.733000 107 115 114
-0.217441 0.094582 0.733000 112 122 127
-0.215539 0.094582 0.733000 125 135 140
-0.213930 0.094711 0.734000 155 162 168
-0.212026 0.094711 0.734000 171 178 184
0.001211 0.095873 0.743000 171 179 180
0.003138 0.095873 0.743000 121 128 134
0.005065 0.095873 0.743000 90 97 103
0.006992 0.095873 0.743000 95 102 106
0.008907 0.095744 0.742000 103 110 114
0.010832 0.095744 0.742000 103 111 110
0.012739 0.095615 0.741000 106 114 113
0.014661 0.095615 0.741000 149 155 155
-0.225045 0.096486 0.733000 140 146 144
-0.223144 0.096486 0.733000 107 113 111
-0.221243 0.096486 0.733000 111 119 118
-0.219342 0.096486 0.733000 107 115 114
-0.217441 0.096486 0.733000 104 111 117
-0.215539 0.096486 0.733000 112 119 125
-0.213638 0.096486 0.733000 123 133 138
-0.212026 0.096618 0.734000 142 152 157
-0.210122 0.096618 0.734000 167 174 178
-0.002643 0.097802 0.743000 177 183 183
-0.000717 0.097934 0.744000 167 174 178
0.001213 0.097934 0.744000 112 119 123
0.003142 0.097934 0.744000 89 99 102
0.005072 0.097934 0.744000 96 106 109
0.007002 0.097934 0.744000 102 113 113
0.008919 0.097802 0.743000 101 112 112
0.010847 0.097802 0.743000 106 114 111
0.012774 0.097802 0.743000 154 162 159
-0.223144 0.098390 0.733000 151 157 155
-0.221243 0.098390 0.733000 108 114 112
-0.219342 0.098390 0.733000 112 118 116
-0.217441 0.098390 0.733000 109 117 118
-0.215539 0.098390 0.733000 104 112 113
-0.213638 0.098390 0.733000 109 119 124
-0.212026 0.098524 0.734000 117 127 132
-0.210122 0.098524 0.734000 134 141 147
-0.208502 0.098658 0.735000 161 168 174
-0.206596 0.098658 0.735000 174 181 185
-0.004576 0.099866 0.744000 176 182 184
-0.002647 0.099866 0.744000 150 156 158
-0.000717 0.099866 0.744000 100 107 113
0.001213 0.099866 0.744000 93 100 106
0.003147 0.100001 0.745000 98 108 111
0.005072 0.099866 0.744000 100 110 113
0.007002 0.099866 0.744000 99 107 106
0.008931 0.099866 0.744000 116 124 123
0.010847 0.099732 0.743000 162 170 167
-0.221545 0.100430 0.734000 157 163 161
-0.219641 0.100430 0.734000 111 117 115
-0.217737 0.100430 0.734000 107 115 116
-0.215539 0.100293 0.733000 104 112 113
-0.213638 0.100293 0.733000 104 114 117
-0.212026 0.100430 0.734000 103 113 116
-0.210122 0.100430 0.734000 106 113 119
-0.208218 0.100430 0.734000 123 130 136
-0.206596 0.100567 0.735000 142 149 155
-0.204689 0.100567 0.735000 168 175 181
-0.006506 0.101799 0.744000 165 171 173
-0.004576 0.101799 0.744000 126 133 137
-0.002647 0.101799 0.744000 92 99 103
-0.000717 0.101799 0.744000 95 105 108
0.001214 0.101935 0.745000 98 108 111
0.003147 0.101935 0.745000 102 110 111
0.005079 0.101935 0.745000 106 114 115
0.007011 0.101935 0.745000 121 129 128
0.008931 0.101799 0.744000 166 174 173
-0.219641 0.102337 0.734000 170 173 172
-0.217737 0.102337 0.734000 126 134 133
-0.215833 0.102337 0.734000 109 117 116
-0.213930 0.102337 0.734000 102 112 115
-0.212026 0.102337 0.734000 104 114 117
-0.210122 0.102337 0.734000 102 112 115
-0.208218 0.102337 0.734000 105 115 118
-0.206596 0.102476 0.735000 119 129 134
-0.204689 0.102476 0.735000 133 143 148
-0.203335 0.102755 0.737000 161 168 174
-0.010380 0.103870 0.745000 174 182 181
-0.008447 0.103870 0.745000 146 153 157
-0.006515 0.103870 0.745000 104 111 115
-0.004583 0.103870 0.745000 90 100 103
-0.002650 0.103870 0.745000 94 104 107
-0.000718 0.103870 0.745000 98 108 111
0.001214 0.103870 0.745000 97 107 110
0.003147 0.103870 0.745000 106 112 112
0.005079 0.103870 0.745000 136 142 142
0.007011 0.103870 0.745000 171 177 177
-0.215833 0.104243 0.734000 142 150 149
-0.213930 0.104243 0.734000 109 117 116
-0.212026 0.104243 0.734000 106 114 113
-0.210122 0.104243 0.734000 104 112 113
-0.208218 0.104243 0.734000 102 110 111
-0.206315 0.104243 0.734000 103 110 116
-0.204689 0.104385 0.735000 109 116 122
-0.203059 0.104527 0.736000 118 125 133
-0.201423 0.104669 0.737000 148 155 163
-0.200053 0.104953 0.739000 174 181 187
-0.014263 0.105947 0.746000 176 184 183
-0.012328 0.105947 0.746000 159 167 168
-0.010393 0.105947 0.746000 123 131 132
-0.008447 0.105805 0.745000 96 103 109
-0.006515 0.105805 0.745000 99 106 112
-0.004583 0.105805 0.745000 100 107 111
-0.002650 0.105805 0.745000 102 109 113
-0.000718 0.105805 0.745000 100 108 109
0.001214 0.105805 0.745000 110 118 119
0.003147 0.105805 0.745000 150 156 156
-0.213930 0.106149 0.734000 164 172 171
-0.212026 0.106149 0.734000 117 125 124
-0.210122 0.106149 0.734000 112 120 119
-0.208218 0.106149 0.734000 106 114 113
-0.206315 0.106149 0.734000 104 112 113
-0.204411 0.106149 0.734000 102 110 111
-0.203059 0.106438 0.736000 103 110 116
-0.201423 0.106583 0.737000 109 116 122
-0.199782 0.106728 0.738000 133 140 148
-0.198136 0.106872 0.739000 160 167 175
-0.196220 0.106872 0.739000 180 187 191
-0.016198 0.107885 0.746000 169 177 178
-0.014263 0.107885 0.746000 135 143 144
-0.012328 0.107885 0.746000 95 105 108
-0.010393 0.107885 0.746000 91 101 104
-0.008447 0.107740 0.745000 100 107 111
-0.006524 0.107885 0.746000 103 110 114
-0.004583 0.107740 0.745000 106 112 114
-0.002650 0.107740 0.745000 108 114 116
-0.000718 0.107740 0.745000 126 132 132
0.001214 0.107740 0.745000 162 168 168
-0.210122 0.108055 0.734000 130 138 135
-0.208218 0.108055 0.734000 118 126 123
-0.206315 0.108055 0.734000 107 115 114
-0.204411 0.108055 0.734000 104 112 111
-0.202783 0.108203 0.735000 102 109 113
-0.201150 0.108350 0.736000 100 107 111
-0.199512 0.108497 0.737000 100 107 115
-0.197868 0.108644 0.738000 114 121 129
-0.196220 0.108792 0.739000 145 152 158
-0.194303 0.108792 0.739000 170 177 183
-0.192386 0.108792 0.739000 182 189 193
-0.020068 0.109822 0.746000 173 181 182
-0.018133 0.109822 0.746000 146 154 155
-0.016198 0.109822 0.746000 113 120 124
-0.014263 0.109822 0.746000 91 98 102
-0.012328 0.109822 0.746000 96 106 109
-0.010393 0.109822 0.746000 97 107 110
-0.008459 0.109822 0.746000 100 108 109
-0.006524 0.109822 0.746000 104 112 113
-0.004589 0.109822 0.746000 117 123 121
-0.002654 0.109822 0.746000 140 146 144
-0.000719 0.109822 0.746000 171 178 172
-0.208218 0.109962 0.734000 166 174 171
-0.206315 0.109962 0.734000 118 126 125
-0.204411 0.109962 0.734000 107 115 114
-0.202507 0.109962 0.734000 107 115 116
-0.200877 0.110112 0.735000 105 113 114
-0.199241 0.110261 0.736000 103 110 114
-0.197600 0.110411 0.737000 96 103 107
-0.195688 0.110411 0.737000 98 105 111
-0.194040 0.110561 0.738000 116 123 129
-0.192386 0.110711 0.739000 146 153 159
-0.190469 0.110711 0.739000 173 180 186
-0.023970 0.111909 0.747000 175 183 184
-0.022032 0.111909 0.747000 153 161 162
-0.020095 0.111909 0.747000 116 123 127
-0.018157 0.111909 0.747000 93 100 104
-0.016198 0.111759 0.746000 88 98 101
-0.014263 0.111759 0.746000 95 105 108
-0.012328 0.111759 0.746000 96 106 109
-0.010393 0.111759 0.746000 100 110 113
-0.008459 0.111759 0.746000 103 111 112
-0.006524 0.111759 0.746000 127 135 136
-0.004589 0.111759 0.746000 160 166 164
-0.204411 0.111868 0.734000 135 141 141
-0.202507 0.111868 0.734000 114 120 122
-0.200603 0.111868 0.734000 107 113 115
-0.198970 0.112020 0.735000 102 112 115
-0.197064 0.112020 0.735000 98 108 111
-0.195157 0.112020 0.735000 97 107 110
-0.193514 0.112173 0.736000 94 104 107
-0.191865 0.112325 0.737000 97 107 112
-0.190212 0.112478 0.738000 114 124 129
-0.188553 0.112630 0.739000 140 150 157
-0.186636 0.112630 0.739000 168 178 185
-0.027845 0.113849 0.747000 168 178 181
-0.025907 0.113849 0.747000 144 154 157
-0.023970 0.113849 0.747000 116 123 129
-0.022032 0.113849 0.747000 96 103 109
-0.020095 0.113849 0.747000 93 100 106
-0.018157 0.113849 0.747000 98 105 111
-0.016220 0.113849 0.747000 99 106 110
-0.014282 0.113849 0.747000 100 107 111
-0.012328 0.113697 0.746000 102 110 111
-0.010393 0.113697 0.746000 119 127 128
-0.008459 0.113697 0.746000 143 149 149
-0.200603 0.113774 0.734000 135 138 139
-0.198699 0.113774 0.734000 112 120 121
-0.196796 0.113774 0.734000 109 117 118
-0.195157 0.113929 0.735000 100 110 113
-0.193251 0.113929 0.735000 96 106 109
-0.191605 0.114084 0.736000 97 107 110
-0.189954 0.114239 0.737000 93 103 106
-0.188042 0.114239 0.737000 95 105 112
-0.186383 0.114394 0.738000 110 120 127
-0.184469 0.114394 0.738000 135 141 152
-0.182802 0.114549 0.739000 164 170 181
-0.180886 0.114549 0.739000 180 187 191
-0.031720 0.115789 0.747000 161 171 174
-0.029782 0.115789 0.747000 138 148 151
-0.027845 0.115789 0.747000 100 110 117
-0.025907 0.115789 0.747000 95 105 112
-0.024002 0.115944 0.748000 90 100 105
-0.022032 0.115789 0.747000 97 107 112
-0.020122 0.115944 0.748000 103 110 114
-0.018157 0.115789 0.747000 102 109 113
-0.016220 0.115789 0.747000 100 106 108
-0.014282 0.115789 0.747000 108 114 116
-0.012345 0.115789 0.747000 145 148 149
-0.198699 0.115681 0.734000 165 171 173
-0.196796 0.115681 0.734000 135 141 143
-0.194892 0.115681 0.734000 109 117 118
-0.193251 0.115838 0.735000 105 113 114
-0.191345 0.115838 0.735000 102 110 111
-0.189696 0.115996 0.736000 99 107 108
-0.187787 0.115996 0.736000 99 106 110
-0.186131 0.116153 0.737000 98 105 109
-0.184219 0.116153 0.737000 96 103 111
-0.182555 0.116311 0.738000 109 116 124
-0.180886 0.116469 0.739000 138 145 153
-0.178969 0.116469 0.739000 161 168 176
-0.177052 0.116469 0.739000 178 185 191
-0.037532 0.117729 0.747000 176 183 187
-0.035595 0.117729 0.747000 155 165 170
-0.033657 0.117729 0.747000 130 140 145
-0.031720 0.117729 0.747000 102 112 117
-0.029782 0.117729 0.747000 93 103 108
-0.027845 0.117729 0.747000 94 104 109
-0.025942 0.117887 0.748000 96 106 111
-0.024002 0.117887 0.748000 98 108 111
-0.022062 0.117887 0.748000 101 111 114
-0.020122 0.117887 0.748000 105 111 113
-0.018157 0.117729 0.747000 108 114 116
-0.016220 0.117729 0.747000 137 140 141
-0.014282 0.117729 0.747000 164 167 168
-0.195157 0.117747 0.735000 164 170 170
-0.193251 0.117747 0.735000 136 142 142
-0.191345 0.117747 0.735000 115 121 121
-0.189438 0.117747 0.735000 113 119 119
-0.187787 0.117907 0.736000 102 105 106
-0.185878 0.117907 0.736000 103 106 107
-0.183969 0.117907 0.736000 99 106 110
-0.182308 0.118067 0.737000 98 105 109
-0.180396 0.118067 0.737000 96 103 111
-0.178727 0.118228 0.738000 99 106 114
-0.177052 0.118388 0.739000 125 132 140
-0.174898 0.118228 0.738000 149 156 164
-0.173219 0.118388 0.739000 172 182 187
-0.171302 0.118388 0.739000 181 191 196
-0.043403 0.119830 0.748000 172 182 185
-0.041463 0.119830 0.748000 164 174 177
-0.039470 0.119669 0.747000 142 149 153
-0.037582 0.119830 0.748000 117 124 128
-0.035595 0.119669 0.747000 94 104 109
-0.033657 0.119669 0.747000 93 103 108
-0.031720 0.119669 0.747000 91 101 104
-0.029822 0.119830 0.748000 96 106 109
-0.027882 0.119830 0.748000 97 107 110
-0.025942 0.119830 0.748000 100 110 113
-0.024002 0.119830 0.748000 103 111 112
-0.022062 0.119830 0.748000 110 118 119
-0.020122 0.119830 0.748000 121 127 127
-0.018182 0.119830 0.748000 160 166 166
-0.191605 0.119819 0.736000 165 171 169
-0.189696 0.119819 0.736000 134 140 138
-0.187787 0.119819 0.736000 113 116 115
-0.185878 0.119819 0.736000 110 113 112
-0.183969 0.119819 0.736000 103 111 112
-0.182308 0.119982 0.737000 98 106 107
-0.180396 0.119982 0.737000 97 104 108
-0.178485 0.119982 0.737000 99 106 110
-0.176573 0.119982 0.737000 95 102 108
-0.174898 0.120144 0.738000 95 102 108
-0.173219 0.120307 0.739000 110 117 123
-0.171302 0.120307 0.739000 132 139 145
-0.169385 0.120307 0.739000 151 161 166
-0.167468 0.120307 0.739000 172 182 187
-0.165776 0.120470 0.740000 181 191 196
-0.047283 0.121772 0.748000 160 170 173
-0.045343 0.121772 0.748000 136 146 149
-0.043403 0.121772 0.748000 115 125 128
-0.041463 0.121772 0.748000 102 112 115
-0.039523 0.121772 0.748000 91 101 104
-0.037582 0.121772 0.748000 89 99 102
-0.035642 0.121772 0.748000 97 104 108
-0.033702 0.121772 0.748000 100 107 111
-0.031762 0.121772 0.748000 99 107 108
-0.029822 0.121772 0.748000 100 108 109
-0.027882 0.121772 0.748000 102 110 111
-0.025942 0.121772 0.748000 107 115 116
-0.024002 0.121772 0.748000 126 134 135
-0.022062 0.121772 0.748000 160 168 169
-0.188297 0.122061 0.738000 176 179 178
-0.186131 0.121896 0.737000 140 143 142
-0.184219 0.121896 0.737000 118 124 124
-0.182555 0.122061 0.738000 105 111 111
-0.180641 0.122061 0.738000 103 110 114
-0.178969 0.122226 0.739000 100 107 111
-0.177052 0.122226 0.739000 96 106 109
-0.175135 0.122226 0.739000 95 105 108
-0.173219 0.122226 0.739000 94 104 109
-0.171534 0.122392 0.740000 94 104 109
-0.169614 0.122392 0.740000 94 104 109
-0.167922 0.122557 0.741000 103 113 118
-0.166000 0.122557 0.741000 123 133 138
-0.164078 0.122557 0.741000 152 162 167
-0.162156 0.122557 0.741000 174 181 187
-0.160666 0.122888 0.743000 182 189 195
-0.054970 0.123550 0.747000 174 181 185
-0.053032 0.123550 0.747000 154 161 165
-0.051163 0.123715 0.748000 132 142 147
-0.049223 0.123715 0.748000 110 120 125
-0.047283 0.123715 0.748000 95 107 111
-0.045343 0.123715 0.748000 89 101 105
-0.043403 0.123715 0.748000 88 100 102
-0.041463 0.123715 0.748000 90 102 104
-0.039523 0.123715 0.748000 95 108 107
-0.037582 0.123715 0.748000 97 110 109
-0.035642 0.123715 0.748000 101 112 112
-0.033702 0.123715 0.748000 97 108 108
-0.031762 0.123715 0.748000 99 107 108
-0.029822 0.123715 0.748000 113 121 122
-0.027919 0.123880 0.749000 141 147 147
-0.025977 0.123880 0.749000 168 174 174
-0.184719 0.124146 0.739000 178 184 184
-0.182802 0.124146 0.739000 147 153 153
-0.180886 0.124146 0.739000 123 131 130
-0.178969 0.124146 0.739000 107 115 114
-0.177052 0.124146 0.739000 100 111 111
-0.175135 0.124146 0.739000 98 109 109
-0.173687 0.124482 0.741000 94 106 108
-0.171766 0.124482 0.741000 97 109 111
-0.169844 0.124482 0.741000 97 109 111
-0.167922 0.124482 0.741000 92 104 106
-0.166000 0.124482 0.741000 91 101 106
-0.164299 0.124650 0.742000 91 101 106
-0.162375 0.124650 0.742000 101 110 120
-0.160666 0.124818 0.743000 123 132 142
-0.158739 0.124818 0.743000 148 155 163
-0.157023 0.124986 0.744000 167 174 182
-0.155302 0.125154 0.745000 177 184 190
-0.153370 0.125154 0.745000 183 190 196
-0.151437 0.125154 0.745000 187 194 198
-0.064744 0.125658 0.748000 176 184 185
-0.062804 0.125658 0.748000 170 177 181
-0.060863 0.125658 0.748000 162 169 173
-0.058923 0.125658 0.748000 142 152 159
-0.056983 0.125658 0.748000 123 133 140
-0.055043 0.125658 0.748000 105 115 122
-0.053103 0.125658 0.748000 94 104 111
-0.051163 0.125658 0.748000 91 101 106
-0.049223 0.125658 0.748000 91 101 106
-0.047346 0.125826 0.749000 91 105 109
-0.045403 0.125826 0.749000 93 107 111
-0.043461 0.125826 0.749000 93 107 109
-0.041518 0.125826 0.749000 95 109 111
-0.039575 0.125826 0.749000 97 110 109
-0.037633 0.125826 0.749000 94 107 106
-0.035690 0.125826 0.749000 103 114 114
-0.033747 0.125826 0.749000 122 133 133
-0.031805 0.125826 0.749000 147 153 153
-0.179453 0.126406 0.741000 169 175 175
-0.177531 0.126406 0.741000 140 148 145
-0.175609 0.126406 0.741000 114 122 119
-0.173687 0.126406 0.741000 102 113 113
-0.171997 0.126577 0.742000 101 112 112
-0.170073 0.126577 0.742000 98 109 109
-0.168375 0.126747 0.743000 101 112 112
-0.166448 0.126747 0.743000 100 110 113
-0.164521 0.126747 0.743000 97 107 110
-0.162594 0.126747 0.743000 94 104 109
-0.160666 0.126747 0.743000 90 100 105
-0.158953 0.126918 0.744000 95 101 112
-0.157023 0.126918 0.744000 100 106 117
-0.155302 0.127088 0.745000 109 116 124
-0.153370 0.127088 0.745000 121 128 136
-0.151641 0.127259 0.746000 139 148 158
-0.149706 0.127259 0.746000 153 162 172
-0.147771 0.127259 0.746000 167 177 182
-0.145836 0.127259 0.746000 176 186 191
-0.143901 0.127259 0.746000 182 188 190
-0.074444 0.127600 0.748000 172 182 185
-0.072504 0.127600 0.748000 172 182 185
-0.070658 0.127771 0.749000 165 175 180
-0.068715 0.127771 0.749000 148 158 163
-0.066773 0.127771 0.749000 135 145 150
-0.064830 0.127771 0.749000 121 131 136
-0.062887 0.127771 0.749000 105 115 120
-0.060945 0.127771 0.749000 97 107 112
-0.058923 0.127600 0.748000 91 101 108
-0.056983 0.127600 0.748000 89 99 106
-0.055043 0.127600 0.748000 89 99 104
-0.053103 0.127600 0.748000 94 104 109
-0.051231 0.127771 0.749000 97 107 112
-0.049289 0.127771 0.749000 100 110 115
-0.047346 0.127771 0.749000 97 109 111
-0.045403 0.127771 0.749000 99 111 113
-0.043519 0.127941 0.750000 98 109 109
-0.041573 0.127941 0.750000 101 112 112
-0.039628 0.127941 0.750000 111 119 118
-0.037683 0.127941 0.750000 137 145 144
-0.035738 0.127941 0.750000 162 170 169
-0.174156 0.128677 0.743000 157 163 161
-0.172229 0.128677 0.743000 129 135 133
-0.170302 0.128677 0.743000 114 122 121
-0.168375 0.128677 0.743000 106 114 113
-0.166448 0.128677 0.743000 104 112 111
-0.164521 0.128677 0.743000 103 111 110
-0.162812 0.128850 0.744000 98 106 107
-0.160883 0.128850 0.744000 99 107 108
-0.158953 0.128850 0.744000 100 107 111
-0.157234 0.129023 0.745000 97 104 108
-0.155302 0.129023 0.745000 95 102 108
-0.153576 0.129197 0.746000 92 99 105
-0.151641 0.129197 0.746000 90 97 105
-0.149706 0.129197 0.746000 92 99 107
-0.147771 0.129197 0.746000 103 110 118
-0.145836 0.129197 0.746000 116 123 131
-0.143901 0.129197 0.746000 129 134 141
-0.141966 0.129197 0.746000 141 146 153
-0.140031 0.129197 0.746000 150 160 165
-0.137911 0.129023 0.745000 159 169 174
-0.135979 0.129023 0.745000 165 175 180
-0.134047 0.129023 0.745000 171 181 186
-0.132114 0.129023 0.745000 176 186 189
-0.130357 0.129197 0.746000 180 190 193
-0.128422 0.129197 0.746000 180 190 193
-0.089844 0.129370 0.747000 177 189 193
-0.088025 0.129543 0.748000 175 187 191
-0.085969 0.129370 0.747000 172 184 188
-0.084144 0.129543 0.748000 165 177 181
-0.082204 0.129543 0.748000 158 168 173
-0.080264 0.129543 0.748000 154 164 169
-0.078324 0.129543 0.748000 146 153 159
-0.076384 0.129543 0.748000 139 146 152
-0.074444 0.129543 0.748000 122 132 139
-0.072601 0.129716 0.749000 105 115 122
-0.070658 0.129716 0.749000 96 106 113
-0.068807 0.129889 0.750000 93 103 110
-0.066862 0.129889 0.750000 93 103 108
-0.064830 0.129716 0.749000 90 100 105
-0.062887 0.129716 0.749000 93 103 108
-0.060945 0.129716 0.749000 95 105 110
-0.059002 0.129716 0.749000 98 108 111
-0.057059 0.129716 0.749000 97 107 110
-0.055117 0.129716 0.749000 95 105 108
-0.053174 0.129716 0.749000 96 106 109
-0.051231 0.129716 0.749000 102 110 111
-0.049355 0.129889 0.750000 100 108 109
-0.047409 0.129889 0.750000 107 115 116
-0.045464 0.129889 0.750000 117 125 126
-0.043519 0.129889 0.750000 128 136 135
-0.041573 0.129889 0.750000 152 160 159
-0.168828 0.130958 0.745000 162 168 168
-0.166672 0.130782 0.744000 130 138 137
-0.164742 0.130782 0.744000 117 125 124
-0.162812 0.130782 0.744000 113 119 119
-0.161099 0.130958 0.745000 111 117 117
-0.159167 0.130958 0.745000 106 112 114
-0.157234 0.130958 0.745000 101 107 109
-0.155302 0.130958 0.745000 100 108 109
-0.153576 0.131134 0.746000 98 106 107
-0.151641 0.131134 0.746000 99 106 110
-0.149706 0.131134 0.746000 99 106 110
-0.147771 0.131134 0.746000 100 107 111
-0.145836 0.131134 0.746000 97 104 108
-0.143901 0.131134 0.746000 93 100 104
-0.141966 0.131134 0.746000 92 99 103
-0.140031 0.131134 0.746000 93 100 104
-0.138096 0.131134 0.746000 93 100 104
-0.135979 0.130958 0.745000 94 104 107
-0.134047 0.130958 0.745000 97 107 110
-0.132114 0.130958 0.745000 100 110 115
-0.130357 0.131134 0.746000 109 119 124
-0.128422 0.131134 0.746000 117 127 132
-0.126487 0.131134 0.746000 124 134 139
-0.124552 0.131134 0.746000 130 140 145
-0.122617 0.131134 0.746000 142 152 157
-0.120844 0.131310 0.747000 150 157 163
-0.119066 0.131486 0.748000 150 157 163
-0.117126 0.131486 0.748000 153 160 166
-0.115186 0.131486 0.748000 156 163 169
-0.113246 0.131486 0.748000 156 163 169
-0.111306 0.131486 0.748000 157 164 170
-0.109365 0.131486 0.748000 154 164 171
-0.107569 0.131661 0.749000 154 164 171
-0.105626 0.131661 0.749000 153 163 170
-0.103684 0.131661 0.749000 153 163 170
-0.101605 0.131486 0.748000 155 165 172
-0.099665 0.131486 0.748000 153 163 170
-0.097725 0.131486 0.748000 146 156 161
-0.095785 0.131486 0.748000 138 148 153
-0.093845 0.131486 0.748000 132 142 147
-0.091905 0.131486 0.748000 125 135 140
-0.089965 0.131486 0.748000 113 125 129
-0.088025 0.131486 0.748000 102 114 118
-0.086084 0.131486 0.748000 97 109 113
-0.084144 0.131486 0.748000 96 108 112
-0.082204 0.131486 0.748000 96 106 111
-0.080372 0.131661 0.749000 95 105 110
-0.078429 0.131661 0.749000 94 104 109
-0.076486 0.131661 0.749000 94 104 109
-0.074643 0.131837 0.750000 94 104 109
-0.072698 0.131837 0.750000 98 108 113
-0.070753 0.131837 0.750000 97 107 112
-0.068807 0.131837 0.750000 98 108 113
-0.066862 0.131837 0.750000 98 109 109
-0.064917 0.131837 0.750000 97 108 108
-0.062971 0.131837 0.750000 98 109 109
-0.061026 0.131837 0.750000 100 111 111
-0.059081 0.131837 0.750000 98 109 107
-0.057136 0.131837 0.750000 98 109 107
-0.055117 0.131661 0.749000 101 107 107
-0.053174 0.131661 0.749000 111 117 117
-0.051300 0.131837 0.750000 125 133 132
-0.049355 0.131837 0.750000 147 155 154
-0.047409 0.131837 0.750000 170 178 177
-0.163250 0.133071 0.746000 171 179 180
-0.161315 0.133071 0.746000 154 162 163
-0.159380 0.133071 0.746000 132 140 139
-0.157445 0.133071 0.746000 114 122 121
-0.155510 0.133071 0.746000 110 116 116
-0.153576 0.133071 0.746000 111 117 117
-0.151641 0.133071 0.746000 105 113 114
-0.149706 0.133071 0.746000 103 111 112
-0.147771 0.133071 0.746000 103 110 114
-0.145836 0.133071 0.746000 104 111 115
-0.143901 0.133071 0.746000 99 106 110
-0.141966 0.133071 0.746000 97 104 108
-0.140031 0.133071 0.746000 96 104 105
-0.138096 0.133071 0.746000 93 101 102
-0.136162 0.133071 0.746000 96 104 105
-0.134227 0.133071 0.746000 97 105 106
-0.132292 0.133071 0.746000 95 106 106
-0.130357 0.133071 0.746000 96 107 107
-0.128422 0.133071 0.746000 95 105 108
-0.126487 0.133071 0.746000 90 100 103
-0.124552 0.133071 0.746000 91 101 106
-0.122782 0.133250 0.747000 91 101 106
-0.120844 0.133250 0.747000 90 100 105
-0.119066 0.133428 0.748000 91 101 106
-0.117126 0.133428 0.748000 94 104 109
-0.115340 0.133607 0.749000 96 106 111
-0.113397 0.133607 0.749000 98 105 111
-0.111454 0.133607 0.749000 97 104 110
-0.109365 0.133428 0.748000 97 104 110
-0.107569 0.133607 0.749000 97 104 110
-0.105626 0.133607 0.749000 94 104 111
-0.103684 0.133607 0.749000 94 104 111
-0.101741 0.133607 0.749000 90 100 107
-0.099798 0.133607 0.749000 94 104 111
-0.097856 0.133607 0.749000 91 101 106
-0.095913 0.133607 0.749000 93 103 108
-0.093970 0.133607 0.749000 93 103 108
-0.092028 0.133607 0.749000 90 100 105
-0.090085 0.133607 0.749000 97 107 112
-0.088025 0.133428 0.748000 96 106 111
-0.086200 0.133607 0.749000 98 105 111
-0.084257 0.133607 0.749000 98 105 111
-0.082314 0.133607 0.749000 98 105 111
-0.080372 0.133607 0.749000 99 106 112
-0.078429 0.133607 0.749000 102 109 115
-0.076588 0.133785 0.750000 102 109 115
-0.074643 0.133785 0.750000 101 111 116
-0.072698 0.133785 0.750000 101 111 116
-0.070847 0.133963 0.751000 98 108 111
-0.068899 0.133963 0.751000 101 111 114
-0.066951 0.133963 0.751000 102 110 109
-0.064917 0.133785 0.750000 102 110 109
-0.062971 0.133785 0.750000 102 110 109
-0.061026 0.133785 0.750000 107 115 114
-0.059081 0.133785 0.750000 120 128 125
-0.057136 0.133785 0.750000 140 148 145
-0.055190 0.133785 0.750000 165 171 169
-0.155510 0.135009 0.746000 168 174 174
-0.153576 0.135009 0.746000 149 155 155
-0.151641 0.135009 0.746000 130 141 141
-0.149706 0.135009 0.746000 117 128 128
-0.147771 0.135009 0.746000 108 119 119
-0.145836 0.135009 0.746000 108 119 119
-0.143901 0.135009 0.746000 107 118 116
-0.141966 0.135009 0.746000 104 115 113
-0.140031 0.135009 0.746000 110 116 114
-0.138096 0.135009 0.746000 108 114 112
-0.136162 0.135009 0.746000 101 112 110
-0.134227 0.135009 0.746000 101 112 110
-0.132292 0.135009 0.746000 97 110 109
-0.130357 0.135009 0.746000 99 112 111
-0.128422 0.135009 0.746000 100 112 114
-0.126657 0.135190 0.747000 97 109 111
-0.124719 0.135190 0.747000 99 111 113
-0.122782 0.135190 0.747000 96 108 110
-0.121006 0.135371 0.748000 94 106 108
-0.119066 0.135371 0.748000 95 107 109
-0.117282 0.135552 0.749000 97 109 111
-0.115340 0.135552 0.749000 99 111 113
-0.113548 0.135733 0.750000 100 110 113
-0.111603 0.135733 0.750000 98 108 111
-0.109512 0.135552 0.749000 97 107 110
-0.107713 0.135733 0.750000 97 107 110
-0.105767 0.135733 0.750000 97 107 112
-0.103822 0.135733 0.750000 98 108 113
-0.101741 0.135552 0.749000 97 109 113
-0.099798 0.135552 0.749000 97 109 113
-0.097856 0.135552 0.749000 99 111 113
-0.095913 0.135552 0.749000 99 111 113
-0.093970 0.135552 0.749000 98 108 111
-0.092028 0.135552 0.749000 100 110 113
-0.090085 0.135552 0.749000 100 110 115
-0.088142 0.135552 0.749000 101 111 116
-0.086200 0.135552 0.749000 102 112 117
-0.084369 0.135733 0.750000 102 112 117
-0.082424 0.135733 0.750000 103 113 116
-0.080479 0.135733 0.750000 105 115 118
-0.078534 0.135733 0.750000 105 113 114
-0.076588 0.135733 0.750000 103 111 112
-0.074743 0.135914 0.751000 100 111 111
-0.072795 0.135914 0.751000 102 113 113
-0.070847 0.135914 0.751000 110 121 119
-0.068899 0.135914 0.751000 118 129 127
-0.066951 0.135914 0.751000 137 145 142
-0.065003 0.135914 0.751000 144 152 149
-0.063055 0.135914 0.751000 152 160 157
-0.061108 0.135914 0.751000 169 177 174
-0.147969 0.137130 0.747000 179 190 190
-0.146031 0.137130 0.747000 165 176 176
-0.144094 0.137130 0.747000 152 160 159
-0.142157 0.137130 0.747000 139 147 146
-0.140219 0.137130 0.747000 125 134 127
-0.138282 0.137130 0.747000 121 130 123
-0.136162 0.136946 0.746000 116 127 125
-0.134227 0.136946 0.746000 109 120 118
-0.132469 0.137130 0.747000 103 116 115
-0.130532 0.137130 0.747000 102 115 114
-0.128594 0.137130 0.747000 104 118 120
-0.126826 0.137313 0.748000 98 112 114
-0.124886 0.137313 0.748000 97 111 113
-0.122946 0.137313 0.748000 100 114 116
-0.121168 0.137497 0.749000 101 113 115
-0.119225 0.137497 0.749000 101 113 115
-0.117439 0.137681 0.750000 103 111 112
-0.115494 0.137681 0.750000 103 111 112
-0.113548 0.137681 0.750000 104 112 113
-0.111603 0.137681 0.750000 103 111 112
-0.109658 0.137681 0.750000 104 110 112
-0.107713 0.137681 0.750000 106 112 114
-0.105767 0.137681 0.750000 104 112 113
-0.103822 0.137681 0.750000 106 114 115
-0.101877 0.137681 0.750000 105 113 114
-0.099932 0.137681 0.750000 105 113 114
-0.097986 0.137681 0.750000 102 110 111
-0.096041 0.137681 0.750000 99 107 108
-0.094096 0.137681 0.750000 104 112 113
-0.092150 0.137681 0.750000 102 110 111
-0.090205 0.137681 0.750000 101 111 114
-0.088260 0.137681 0.750000 103 113 116
-0.086315 0.137681 0.750000 107 117 120
-0.084369 0.137681 0.750000 107 117 120
-0.082424 0.137681 0.750000 112 123 123
-0.080586 0.137864 0.751000 115 126 126
-0.078534 0.137681 0.750000 120 128 127
-0.076690 0.137864 0.751000 132 140 139
-0.074743 0.137864 0.751000 154 162 161
-0.072892 0.138048 0.752000 163 171 170
-0.070941 0.138048 0.752000 170 178 177
-0.136527 0.139256 0.748000 185 193 192
-0.134587 0.139256 0.748000 180 188 187
-0.132646 0.139256 0.748000 172 183 181
-0.130881 0.139442 0.749000 165 176 174
-0.128938 0.139442 0.749000 159 170 168
-0.126996 0.139442 0.749000 150 161 159
-0.125053 0.139442 0.749000 146 157 155
-0.123275 0.139628 0.750000 142 153 151
-0.121491 0.139815 0.751000 133 141 140
-0.119703 0.140001 0.752000 131 139 138
-0.117752 0.140001 0.752000 131 137 137
-0.115802 0.140001 0.752000 128 134 134
-0.113851 0.140001 0.752000 124 127 128
-0.111901 0.140001 0.752000 120 123 124
-0.109950 0.140001 0.752000 120 123 122
-0.108000 0.140001 0.752000 121 124 123
-0.106049 0.140001 0.752000 123 126 125
-0.104099 0.140001 0.752000 122 125 124
-0.102148 0.140001 0.752000 122 128 126
-0.100198 0.140001 0.752000 128 134 132
-0.098248 0.140001 0.752000 132 138 136
-0.096297 0.140001 0.752000 139 145 143
-0.094221 0.139815 0.751000 148 154 152
-0.092273 0.139815 0.751000 150 156 154
-0.090325 0.139815 0.751000 155 163 162
-0.088260 0.139628 0.750000 159 167 166
-0.086315 0.139628 0.750000 161 169 168
-0.084482 0.139815 0.751000 167 175 174
-0.082534 0.139815 0.751000 173 181 180
