ply
format ascii 1.0
element vertex 1579
property float x
property float y
property float z
property uchar red
property uchar green
property uchar blue
end_header
-0.176643 -0.118047 0.729000 68 65 33
-0.174751 -0.118047 0.729000 66 66 33
-0.172860 -0.118047 0.729000 65 65 32
-0.170968 -0.118047 0.729000 69 71 37
-0.169076 -0.118047 0.729000 74 76 42
-0.167184 -0.118047 0.729000 70 75 38
-0.165292 -0.118047 0.729000 74 79 42
-0.163400 -0.118047 0.729000 75 82 42
-0.161509 -0.118047 0.729000 75 82 42
-0.159617 -0.118047 0.729000 75 84 46
-0.157509 -0.117885 0.728000 74 83 45
-0.155406 -0.117724 0.727000 107 112 84
-0.153308 -0.117562 0.726000 124 129 101
-0.151215 -0.117400 0.725000 123 126 103
-0.149128 -0.117238 0.724000 118 121 98
-0.147045 -0.117076 0.723000 118 121 100
-0.144968 -0.116914 0.722000 111 114 93
-0.142897 -0.116752 0.721000 91 93 75
-0.141025 -0.116752 0.721000 85 87 69
-0.138961 -0.116590 0.720000 81 83 70
-0.136903 -0.116428 0.719000 76 78 65
-0.135037 -0.116428 0.719000 79 81 68
-0.132986 -0.116266 0.718000 80 82 69
-0.131122 -0.116266 0.718000 78 77 60
-0.186613 -0.116472 0.731000 79 75 39
-0.184716 -0.116472 0.731000 76 72 36
-0.182819 -0.116472 0.731000 75 76 38
-0.180922 -0.116472 0.731000 77 78 40
-0.179025 -0.116472 0.731000 76 83 41
-0.177128 -0.116472 0.731000 82 89 47
-0.175231 -0.116472 0.731000 82 95 51
-0.173334 -0.116472 0.731000 85 98 54
-0.171437 -0.116472 0.731000 83 101 55
-0.169540 -0.116472 0.731000 82 100 54
-0.167413 -0.116312 0.730000 84 102 56
-0.165519 -0.116312 0.730000 89 107 61
-0.163625 -0.116312 0.730000 86 104 58
-0.161730 -0.116312 0.730000 89 107 61
-0.159617 -0.116153 0.729000 88 105 64
-0.157725 -0.116153 0.729000 88 105 64
-0.155619 -0.115994 0.728000 125 136 106
-0.153519 -0.115834 0.727000 142 153 123
-0.151424 -0.115675 0.726000 142 149 123
-0.149128 -0.115356 0.724000 140 147 121
-0.147249 -0.115356 0.724000 138 145 123
-0.145169 -0.115197 0.723000 141 148 126
-0.142897 -0.114878 0.721000 132 141 121
-0.141025 -0.114878 0.721000 119 128 108
-0.138961 -0.114719 0.720000 116 127 108
-0.136903 -0.114560 0.719000 104 115 96
-0.135037 -0.114560 0.719000 99 110 89
-0.132986 -0.114400 0.718000 99 110 89
-0.131122 -0.114400 0.718000 108 118 93
-0.129259 -0.114400 0.718000 113 123 98
-0.127396 -0.114400 0.718000 81 89 60
-0.125532 -0.114400 0.718000 81 89 60
-0.123669 -0.114400 0.718000 79 88 54
-0.121806 -0.114400 0.718000 80 89 55
-0.119943 -0.114400 0.718000 80 89 55
-0.118079 -0.114400 0.718000 80 89 55
-0.116216 -0.114400 0.718000 83 88 55
-0.114353 -0.114400 0.718000 81 86 53
-0.112489 -0.114400 0.718000 82 87 54
-0.110626 -0.114400 0.718000 81 86 53
-0.194467 -0.114729 0.732000 69 73 43
-0.192567 -0.114729 0.732000 72 76 46
-0.190667 -0.114729 0.732000 73 79 37
-0.188510 -0.114572 0.731000 73 79 37
-0.186613 -0.114572 0.731000 82 90 45
-0.184716 -0.114572 0.731000 89 97 52
-0.182819 -0.114572 0.731000 88 104 54
-0.180922 -0.114572 0.731000 92 108 58
-0.179025 -0.114572 0.731000 94 115 61
-0.177128 -0.114572 0.731000 88 109 55
-0.175231 -0.114572 0.731000 89 115 60
-0.173334 -0.114572 0.731000 88 114 59
-0.171437 -0.114572 0.731000 91 117 64
-0.169540 -0.114572 0.731000 91 117 64
-0.167643 -0.114572 0.731000 90 112 65
-0.165746 -0.114572 0.731000 88 110 63
-0.163849 -0.114572 0.731000 88 114 70
-0.161952 -0.114572 0.731000 90 116 72
-0.160055 -0.114572 0.731000 92 115 79
-0.158158 -0.114572 0.731000 90 113 77
-0.155833 -0.114259 0.729000 132 143 113
-0.153941 -0.114259 0.729000 142 153 123
-0.151841 -0.114102 0.728000 145 150 122
-0.149746 -0.113945 0.727000 144 149 121
-0.147452 -0.113632 0.725000 143 147 124
-0.145370 -0.113475 0.724000 145 149 126
-0.143293 -0.113318 0.723000 142 152 129
-0.141025 -0.113005 0.721000 142 152 129
-0.139154 -0.113005 0.721000 142 153 132
-0.137093 -0.112848 0.720000 141 152 131
-0.135037 -0.112691 0.719000 138 150 126
-0.133171 -0.112691 0.719000 135 147 123
-0.131305 -0.112691 0.719000 139 151 125
-0.129259 -0.112535 0.718000 125 137 111
-0.127396 -0.112535 0.718000 87 105 72
-0.125532 -0.112535 0.718000 87 105 72
-0.123669 -0.112535 0.718000 88 108 61
-0.121806 -0.112535 0.718000 87 107 60
-0.119943 -0.112535 0.718000 86 107 57
-0.118079 -0.112535 0.718000 80 101 51
-0.116216 -0.112535 0.718000 81 101 56
-0.114353 -0.112535 0.718000 79 99 54
-0.112489 -0.112535 0.718000 78 97 55
-0.110626 -0.112535 0.718000 76 95 53
-0.108763 -0.112535 0.718000 77 94 55
-0.106900 -0.112535 0.718000 79 96 57
-0.105036 -0.112535 0.718000 80 92 55
-0.103029 -0.112378 0.717000 80 92 55
-0.101169 -0.112378 0.717000 84 90 57
-0.099308 -0.112378 0.717000 82 88 55
-0.097447 -0.112378 0.717000 84 88 60
-0.095587 -0.112378 0.717000 83 87 59
-0.198808 -0.113135 0.734000 96 103 79
-0.196635 -0.112981 0.733000 77 84 60
-0.194467 -0.112827 0.732000 70 88 44
-0.192567 -0.112827 0.732000 84 102 58
-0.190667 -0.112827 0.732000 90 109 60
-0.188768 -0.112827 0.732000 93 112 63
-0.186868 -0.112827 0.732000 89 110 58
-0.184969 -0.112827 0.732000 90 111 59
-0.183069 -0.112827 0.732000 93 114 60
-0.181169 -0.112827 0.732000 93 114 60
-0.179270 -0.112827 0.732000 95 117 58
-0.177370 -0.112827 0.732000 96 118 59
-0.175471 -0.112827 0.732000 97 121 64
-0.173571 -0.112827 0.732000 101 125 68
-0.171671 -0.112827 0.732000 99 122 70
-0.169772 -0.112827 0.732000 99 122 70
-0.167872 -0.112827 0.732000 98 119 81
-0.165972 -0.112827 0.732000 136 157 119
-0.164073 -0.112827 0.732000 135 162 133
-0.162173 -0.112827 0.732000 108 135 106
-0.160274 -0.112827 0.732000 100 119 89
-0.158158 -0.112673 0.731000 102 121 91
-0.156261 -0.112673 0.731000 128 129 100
-0.154152 -0.112519 0.730000 136 137 108
-0.152258 -0.112519 0.730000 143 139 114
-0.150158 -0.112364 0.729000 145 141 116
-0.147859 -0.112056 0.727000 140 144 121
-0.145772 -0.111902 0.726000 146 150 127
-0.143689 -0.111748 0.725000 148 157 139
-0.141612 -0.111594 0.724000 146 155 137
-0.139540 -0.111440 0.723000 149 158 140
-0.137283 -0.111131 0.721000 148 157 139
-0.135412 -0.111131 0.721000 147 156 138
-0.133356 -0.110977 0.720000 146 155 137
-0.131488 -0.110977 0.720000 147 154 132
-0.129439 -0.110823 0.719000 138 145 123
-0.127573 -0.110823 0.719000 103 114 84
-0.125707 -0.110823 0.719000 101 112 82
-0.123841 -0.110823 0.719000 99 114 69
-0.121975 -0.110823 0.719000 98 113 68
-0.120110 -0.110823 0.719000 98 114 66
-0.118244 -0.110823 0.719000 97 113 65
-0.116378 -0.110823 0.719000 91 107 59
-0.114512 -0.110823 0.719000 91 107 59
-0.112646 -0.110823 0.719000 89 108 59
-0.110780 -0.110823 0.719000 89 108 59
-0.108914 -0.110823 0.719000 87 106 57
-0.106900 -0.110669 0.718000 83 102 53
-0.105036 -0.110669 0.718000 81 101 54
-0.103173 -0.110669 0.718000 82 102 55
-0.101169 -0.110515 0.717000 81 101 56
-0.099308 -0.110515 0.717000 79 99 54
-0.097447 -0.110515 0.717000 78 97 57
-0.095587 -0.110515 0.717000 76 95 55
-0.093726 -0.110515 0.717000 78 90 53
-0.091865 -0.110515 0.717000 77 89 52
-0.090004 -0.110515 0.717000 80 86 53
-0.088144 -0.110515 0.717000 81 87 54
-0.086283 -0.110515 0.717000 84 86 54
-0.084422 -0.110515 0.717000 83 85 53
-0.205637 -0.111834 0.738000 98 100 82
-0.203169 -0.111531 0.736000 82 89 63
-0.200712 -0.111228 0.734000 84 91 65
-0.198808 -0.111228 0.734000 80 99 57
-0.196635 -0.111076 0.733000 83 102 60
-0.194467 -0.110925 0.732000 84 110 59
-0.192567 -0.110925 0.732000 90 116 65
-0.190667 -0.110925 0.732000 88 114 63
-0.188510 -0.110773 0.731000 92 118 67
-0.186613 -0.110773 0.731000 95 118 68
-0.184716 -0.110773 0.731000 97 120 70
-0.182819 -0.110773 0.731000 100 121 69
-0.180922 -0.110773 0.731000 99 120 68
-0.179270 -0.110925 0.732000 104 120 68
-0.177370 -0.110925 0.732000 103 119 67
-0.175471 -0.110925 0.732000 104 118 69
-0.173571 -0.110925 0.732000 105 119 70
-0.171906 -0.111076 0.733000 105 115 74
-0.169772 -0.110925 0.732000 106 116 75
-0.168101 -0.111076 0.733000 107 115 86
-0.166199 -0.111076 0.733000 151 159 130
-0.164073 -0.110925 0.732000 175 187 163
-0.162173 -0.110925 0.732000 199 211 187
-0.160274 -0.110925 0.732000 223 224 195
-0.158374 -0.110925 0.732000 216 217 188
-0.156261 -0.110773 0.731000 208 198 170
-0.154364 -0.110773 0.731000 184 174 146
-0.152467 -0.110773 0.731000 171 166 148
-0.150364 -0.110622 0.730000 155 150 132
-0.148266 -0.110470 0.729000 124 132 117
-0.146374 -0.110470 0.729000 110 118 103
-0.144086 -0.110167 0.727000 97 110 93
-0.142003 -0.110015 0.726000 95 108 91
-0.139926 -0.109864 0.725000 99 109 93
-0.137855 -0.109712 0.724000 103 113 97
-0.135600 -0.109409 0.722000 105 114 94
-0.133541 -0.109258 0.721000 106 115 95
-0.131670 -0.109258 0.721000 112 115 90
-0.129619 -0.109106 0.720000 110 113 88
-0.127751 -0.109106 0.720000 106 108 76
-0.125707 -0.108955 0.719000 107 109 77
-0.124014 -0.109106 0.720000 110 113 74
-0.122145 -0.109106 0.720000 111 114 75
-0.120277 -0.109106 0.720000 113 117 73
-0.118408 -0.109106 0.720000 112 116 72
-0.116540 -0.109106 0.720000 106 113 68
-0.114671 -0.109106 0.720000 105 112 67
-0.112803 -0.109106 0.720000 103 111 64
-0.110934 -0.109106 0.720000 104 112 65
-0.109066 -0.109106 0.720000 94 113 62
-0.107048 -0.108955 0.719000 94 113 62
-0.105183 -0.108955 0.719000 86 111 63
-0.103173 -0.108803 0.718000 86 111 63
-0.101310 -0.108803 0.718000 82 111 66
-0.099446 -0.108803 0.718000 80 109 64
-0.097447 -0.108652 0.717000 79 108 65
-0.095587 -0.108652 0.717000 78 107 64
-0.093726 -0.108652 0.717000 77 103 61
-0.091865 -0.108652 0.717000 74 100 58
-0.090004 -0.108652 0.717000 78 97 57
-0.088144 -0.108652 0.717000 75 94 54
-0.086283 -0.108652 0.717000 75 92 53
-0.084422 -0.108652 0.717000 75 92 53
-0.082562 -0.108652 0.717000 80 89 55
-0.080701 -0.108652 0.717000 79 88 54
-0.078840 -0.108652 0.717000 85 81 56
-0.069537 -0.108652 0.717000 78 63 33
-0.067676 -0.108652 0.717000 73 61 32
-0.065816 -0.108652 0.717000 70 58 29
-0.063955 -0.108652 0.717000 63 58 38
-0.062094 -0.108652 0.717000 59 54 34
-0.060233 -0.108652 0.717000 53 54 43
-0.058373 -0.108652 0.717000 52 53 42
-0.056512 -0.108652 0.717000 52 53 44
-0.054651 -0.108652 0.717000 52 53 44
-0.210035 -0.110214 0.740000 115 119 98
-0.207833 -0.110065 0.739000 99 112 81
-0.205637 -0.109916 0.738000 92 105 74
-0.203169 -0.109618 0.736000 89 108 66
-0.200712 -0.109320 0.734000 88 107 65
-0.198537 -0.109171 0.733000 85 113 61
-0.196635 -0.109171 0.733000 89 117 65
-0.194467 -0.109023 0.732000 89 116 67
-0.192567 -0.109023 0.732000 91 118 69
-0.190407 -0.108874 0.731000 99 121 76
-0.188510 -0.108874 0.731000 100 122 77
-0.186613 -0.108874 0.731000 103 121 77
-0.184716 -0.108874 0.731000 101 119 75
-0.183069 -0.109023 0.732000 102 109 69
-0.181169 -0.109023 0.732000 102 109 69
-0.179270 -0.109023 0.732000 104 104 69
-0.177370 -0.109023 0.732000 102 102 67
-0.175471 -0.109023 0.732000 104 101 69
-0.173808 -0.109171 0.733000 106 103 71
-0.171906 -0.109171 0.733000 110 105 74
-0.170004 -0.109171 0.733000 111 106 75
-0.168101 -0.109171 0.733000 113 105 79
-0.166426 -0.109320 0.734000 105 97 71
-0.160493 -0.109171 0.733000 127 109 87
-0.158590 -0.109171 0.733000 132 114 92
-0.156474 -0.109023 0.732000 156 143 121
-0.154575 -0.109023 0.732000 193 180 158
-0.146575 -0.108725 0.730000 213 222 204
-0.132218 -0.107831 0.724000 187 170 143
-0.130159 -0.107682 0.723000 176 159 132
-0.128105 -0.107533 0.722000 174 155 126
-0.126057 -0.107384 0.721000 169 150 121
-0.124186 -0.107384 0.721000 154 136 104
-0.122315 -0.107384 0.721000 145 127 95
-0.120444 -0.107384 0.721000 139 125 90
-0.118573 -0.107384 0.721000 139 125 90
-0.116702 -0.107384 0.721000 135 126 89
-0.114831 -0.107384 0.721000 132 123 86
-0.112959 -0.107384 0.721000 123 125 82
-0.111088 -0.107384 0.721000 121 123 80
-0.109217 -0.107384 0.721000 106 125 83
-0.107197 -0.107235 0.720000 102 121 79
-0.105183 -0.107086 0.719000 91 122 78
-0.103317 -0.107086 0.719000 87 118 74
-0.101310 -0.106937 0.718000 77 114 73
-0.099446 -0.106937 0.718000 73 110 69
-0.097583 -0.106937 0.718000 77 109 70
-0.095720 -0.106937 0.718000 76 108 69
-0.093726 -0.106788 0.717000 81 102 60
-0.091865 -0.106788 0.717000 87 108 66
-0.090004 -0.106788 0.717000 85 107 62
-0.088144 -0.106788 0.717000 84 106 61
-0.086283 -0.106788 0.717000 79 104 58
-0.084422 -0.106788 0.717000 74 99 53
-0.082562 -0.106788 0.717000 74 95 55
-0.080701 -0.106788 0.717000 73 94 54
-0.078840 -0.106788 0.717000 73 72 44
-0.076980 -0.106788 0.717000 52 51 23
-0.075119 -0.106788 0.717000 129 110 81
-0.073258 -0.106788 0.717000 132 113 84
-0.071398 -0.106788 0.717000 83 67 21
-0.069537 -0.106788 0.717000 107 91 45
-0.067676 -0.106788 0.717000 117 106 70
-0.065816 -0.106788 0.717000 60 49 13
-0.063955 -0.106788 0.717000 55 52 36
-0.062094 -0.106788 0.717000 54 51 35
-0.060233 -0.106788 0.717000 46 50 43
-0.058373 -0.106788 0.717000 45 49 42
-0.056512 -0.106788 0.717000 46 50 43
-0.054651 -0.106788 0.717000 45 49 42
-0.215031 -0.108876 0.744000 105 112 88
-0.212528 -0.108584 0.742000 93 108 79
-0.210035 -0.108291 0.740000 93 108 79
-0.207552 -0.107998 0.738000 90 111 71
-0.205358 -0.107852 0.737000 92 113 73
-0.202893 -0.107559 0.735000 91 113 68
-0.200712 -0.107413 0.734000 95 117 72
-0.198537 -0.107267 0.733000 95 120 74
-0.196366 -0.107120 0.732000 99 124 78
-0.194467 -0.107120 0.732000 104 125 83
-0.192304 -0.106974 0.731000 111 132 90
-0.190407 -0.106974 0.731000 118 131 98
-0.188510 -0.106974 0.731000 114 127 94
-0.186613 -0.106974 0.731000 115 119 91
-0.184716 -0.106974 0.731000 102 106 78
-0.182819 -0.106974 0.731000 100 99 73
-0.180922 -0.106974 0.731000 99 98 72
-0.122824 -0.105950 0.724000 203 184 157
-0.120945 -0.105950 0.724000 203 188 160
-0.119066 -0.105950 0.724000 207 192 164
-0.117187 -0.105950 0.724000 206 196 168
-0.115308 -0.105950 0.724000 208 198 170
-0.113429 -0.105950 0.724000 208 204 177
-0.111551 -0.105950 0.724000 209 205 178
-0.109520 -0.105803 0.723000 200 210 185
-0.107346 -0.105511 0.721000 199 209 184
-0.105475 -0.105511 0.721000 190 212 183
-0.103460 -0.105364 0.720000 189 211 182
-0.101451 -0.105218 0.719000 179 208 174
-0.099585 -0.105218 0.719000 167 196 162
-0.097719 -0.105218 0.719000 160 179 141
-0.095720 -0.105072 0.718000 150 169 131
-0.093857 -0.105072 0.718000 146 153 113
-0.091993 -0.105072 0.718000 116 123 83
-0.090130 -0.105072 0.718000 105 120 75
-0.088267 -0.105072 0.718000 102 117 72
-0.086403 -0.105072 0.718000 95 117 72
-0.084540 -0.105072 0.718000 91 113 68
-0.082562 -0.104925 0.717000 89 108 66
-0.080701 -0.104925 0.717000 93 112 70
-0.078840 -0.104925 0.717000 64 64 31
-0.076980 -0.104925 0.717000 78 78 45
-0.075119 -0.104925 0.717000 161 135 93
-0.073258 -0.104925 0.717000 139 113 71
-0.071398 -0.104925 0.717000 93 75 14
-0.069537 -0.104925 0.717000 149 131 70
-0.067676 -0.104925 0.717000 122 112 71
-0.065816 -0.104925 0.717000 55 45 4
-0.063955 -0.104925 0.717000 49 50 39
-0.062094 -0.104925 0.717000 52 53 42
-0.060233 -0.104925 0.717000 49 52 51
-0.058373 -0.104925 0.717000 48 51 50
-0.056512 -0.104925 0.717000 45 49 44
-0.054651 -0.104925 0.717000 46 50 45
-0.052791 -0.104925 0.717000 45 49 42
-0.221417 -0.107231 0.746000 110 117 91
-0.218893 -0.106943 0.744000 99 106 80
-0.216962 -0.106943 0.744000 90 106 72
-0.214453 -0.106656 0.742000 90 106 72
-0.211955 -0.106368 0.740000 91 112 74
-0.209183 -0.105937 0.737000 91 112 74
-0.206989 -0.105793 0.736000 93 117 76
-0.204801 -0.105650 0.735000 93 117 76
-0.202617 -0.105506 0.734000 101 122 82
-0.200439 -0.105362 0.733000 104 125 85
-0.197995 -0.105075 0.731000 112 128 94
-0.196098 -0.105075 0.731000 118 134 100
-0.194201 -0.105075 0.731000 125 137 109
-0.192304 -0.105075 0.731000 127 139 111
-0.190407 -0.105075 0.731000 131 135 114
-0.092121 -0.103350 0.719000 149 139 107
-0.090256 -0.103350 0.719000 119 119 84
-0.088390 -0.103350 0.719000 114 114 79
-0.086524 -0.103350 0.719000 109 115 78
-0.084540 -0.103206 0.718000 111 117 80
-0.082677 -0.103206 0.718000 110 122 87
-0.080814 -0.103206 0.718000 106 118 83
-0.078840 -0.103062 0.717000 68 59 24
-0.076980 -0.103062 0.717000 106 97 62
-0.075119 -0.103062 0.717000 181 147 94
-0.073258 -0.103062 0.717000 139 105 52
-0.071398 -0.103062 0.717000 116 94 30
-0.069537 -0.103062 0.717000 166 144 80
-0.067676 -0.103062 0.717000 94 86 44
-0.065816 -0.103062 0.717000 54 46 4
-0.063955 -0.103062 0.717000 52 52 46
-0.062094 -0.103062 0.717000 52 52 46
-0.060233 -0.103062 0.717000 49 53 48
-0.058373 -0.103062 0.717000 49 53 48
-0.056512 -0.103062 0.717000 46 49 48
-0.054651 -0.103062 0.717000 48 51 50
-0.227834 -0.105574 0.748000 80 82 64
-0.225591 -0.105433 0.747000 78 89 59
-0.223353 -0.105292 0.746000 85 96 66
-0.221121 -0.105151 0.745000 90 109 67
-0.218893 -0.105010 0.744000 93 112 70
-0.216671 -0.104869 0.743000 92 113 71
-0.214453 -0.104728 0.742000 93 114 72
-0.211955 -0.104445 0.740000 96 120 79
-0.209183 -0.104022 0.737000 99 123 82
-0.206708 -0.103740 0.735000 110 128 95
-0.204522 -0.103598 0.734000 117 135 102
-0.202341 -0.103457 0.733000 125 137 109
-0.199892 -0.103175 0.731000 127 139 111
-0.197995 -0.103175 0.731000 126 136 111
-0.195830 -0.103034 0.730000 126 136 111
-0.075119 -0.101199 0.717000 184 149 94
-0.073258 -0.101199 0.717000 143 108 53
-0.071398 -0.101199 0.717000 136 111 46
-0.069537 -0.101199 0.717000 179 154 89
-0.067676 -0.101199 0.717000 90 82 42
-0.065816 -0.101199 0.717000 56 48 8
-0.063955 -0.101199 0.717000 53 54 48
-0.062094 -0.101199 0.717000 51 52 46
-0.060233 -0.101199 0.717000 51 52 48
-0.058373 -0.101199 0.717000 50 51 47
-0.056512 -0.101199 0.717000 48 52 47
-0.054651 -0.101199 0.717000 48 52 47
-0.052791 -0.101199 0.717000 48 52 47
-0.234195 -0.104739 0.756000 69 72 56
-0.230083 -0.103769 0.749000 73 84 54
-0.227530 -0.103492 0.747000 86 97 67
-0.225591 -0.103492 0.747000 88 109 67
-0.223353 -0.103354 0.746000 90 111 69
-0.221417 -0.103354 0.746000 90 117 68
-0.219187 -0.103215 0.745000 92 119 70
-0.217545 -0.103354 0.746000 98 123 77
-0.215899 -0.103492 0.747000 100 125 79
-0.213674 -0.103354 0.746000 95 115 82
-0.209183 -0.102107 0.737000 94 114 81
-0.206708 -0.101830 0.735000 107 118 97
-0.204522 -0.101691 0.734000 121 132 111
-0.202341 -0.101553 0.733000 136 139 121
-0.073360 -0.099474 0.718000 141 108 52
-0.071497 -0.099474 0.718000 158 129 63
-0.069537 -0.099336 0.717000 187 158 92
-0.067676 -0.099336 0.717000 88 78 37
-0.065816 -0.099336 0.717000 60 50 9
-0.063955 -0.099336 0.717000 56 57 48
-0.062094 -0.099336 0.717000 55 56 47
-0.060233 -0.099336 0.717000 53 54 48
-0.058373 -0.099336 0.717000 52 53 47
-0.056512 -0.099336 0.717000 49 53 48
-0.054651 -0.099336 0.717000 49 53 48
-0.052791 -0.099336 0.717000 53 52 52
-0.051001 -0.099474 0.718000 45 44 44
-0.237174 -0.102367 0.753000 71 75 54
-0.234283 -0.101959 0.750000 74 87 54
-0.231717 -0.101687 0.748000 86 99 66
-0.229468 -0.101551 0.747000 87 108 66
-0.227530 -0.101551 0.747000 88 109 67
-0.225591 -0.101551 0.747000 91 118 71
-0.223653 -0.101551 0.747000 91 118 71
-0.222011 -0.101687 0.748000 96 122 78
-0.220364 -0.101823 0.749000 94 120 76
-0.217545 -0.101415 0.746000 85 105 72
-0.217344 -0.102231 0.752000 71 91 58
-0.215995 -0.103454 0.761000 80 94 72
-0.073463 -0.097745 0.719000 157 126 74
-0.071597 -0.097745 0.719000 176 146 73
-0.069731 -0.097745 0.719000 185 155 82
-0.067771 -0.097609 0.718000 103 84 30
-0.065907 -0.097609 0.718000 72 53 0
-0.064044 -0.097609 0.718000 62 61 46
-0.062181 -0.097609 0.718000 64 63 48
-0.060317 -0.097609 0.718000 60 62 53
-0.058454 -0.097609 0.718000 61 63 54
-0.056591 -0.097609 0.718000 58 59 55
-0.054728 -0.097609 0.718000 59 60 56
-0.052938 -0.097745 0.719000 56 55 55
-0.239801 -0.099877 0.749000 126 128 110
-0.237858 -0.099877 0.749000 103 116 83
-0.235914 -0.099877 0.749000 88 101 68
-0.233345 -0.099610 0.747000 83 108 62
-0.231407 -0.099610 0.747000 84 109 63
-0.229468 -0.099610 0.747000 94 120 76
-0.227530 -0.099610 0.747000 92 118 74
-0.225591 -0.099610 0.747000 96 122 80
-0.223952 -0.099743 0.748000 88 114 72
-0.223198 -0.100277 0.752000 72 91 61
-0.221045 -0.101077 0.758000 62 76 54
-0.073769 -0.096276 0.722000 174 140 89
-0.071796 -0.096143 0.721000 180 144 66
-0.069925 -0.096143 0.721000 192 156 78
-0.067959 -0.096010 0.720000 142 118 48
-0.066091 -0.096010 0.720000 101 77 7
-0.064133 -0.095876 0.719000 66 58 34
-0.062267 -0.095876 0.719000 64 56 32
-0.060485 -0.096010 0.720000 60 58 48
-0.058617 -0.096010 0.720000 63 61 51
-0.056749 -0.096010 0.720000 62 62 58
-0.054880 -0.096010 0.720000 66 66 62
-0.053012 -0.096010 0.720000 62 58 59
-0.245316 -0.098584 0.754000 123 125 109
-0.243682 -0.098715 0.755000 104 114 89
-0.239481 -0.097800 0.748000 98 108 83
-0.237222 -0.097669 0.747000 85 109 66
-0.235284 -0.097669 0.747000 86 110 67
-0.233658 -0.097800 0.748000 85 112 65
-0.231717 -0.097800 0.748000 91 118 71
-0.230390 -0.098061 0.750000 100 124 83
-0.228748 -0.098192 0.751000 104 128 87
-0.226048 -0.098715 0.755000 98 117 87
-0.225573 -0.099369 0.760000 89 96 74
-0.225071 -0.100022 0.765000 75 82 60
-0.072194 -0.094792 0.725000 181 144 73
-0.070216 -0.094662 0.724000 180 143 72
-0.068243 -0.094531 0.723000 175 150 85
-0.066274 -0.094400 0.722000 168 143 78
-0.064312 -0.094269 0.721000 112 96 73
-0.062441 -0.094269 0.721000 100 84 61
-0.060569 -0.094269 0.721000 82 72 60
-0.058698 -0.094269 0.721000 70 60 48
-0.243689 -0.095984 0.749000 103 107 86
-0.241745 -0.095984 0.749000 89 108 70
-0.239481 -0.095856 0.748000 89 108 70
-0.237540 -0.095856 0.748000 89 115 71
-0.235599 -0.095856 0.748000 91 117 73
-0.234283 -0.096112 0.750000 95 119 76
-0.231311 -0.096497 0.753000 115 132 102
-0.227225 -0.095600 0.746000 121 138 108
-0.247576 -0.094038 0.749000 114 118 95
-0.245961 -0.094163 0.750000 93 107 71
-0.244014 -0.094163 0.750000 92 106 70
-0.241745 -0.094038 0.749000 92 113 71
-0.239801 -0.094038 0.749000 91 112 70
-0.236229 -0.094163 0.750000 107 128 88
-0.233970 -0.094038 0.749000 118 134 102
-0.231717 -0.093912 0.748000 125 141 109
-0.229776 -0.093912 0.748000 127 136 116
-0.251128 -0.091969 0.748000 119 122 99
-0.249187 -0.091969 0.748000 100 111 79
-0.246915 -0.091846 0.747000 92 103 71
-0.245633 -0.092091 0.749000 92 111 71
-0.242391 -0.092337 0.751000 94 115 75
-0.240762 -0.092460 0.752000 97 118 78
-0.240716 -0.093198 0.758000 118 131 100
-0.239694 -0.093567 0.761000 121 134 103
-0.236157 -0.092952 0.756000 128 135 111
-0.251716 -0.089543 0.744000 113 121 90
-0.250457 -0.089784 0.746000 94 102 71
-0.248521 -0.089784 0.746000 91 108 67
-0.246585 -0.089784 0.746000 94 111 70
-0.244977 -0.089904 0.747000 97 116 76
-0.243363 -0.090025 0.748000 96 115 75
-0.243963 -0.091710 0.762000 119 132 99
-0.243256 -0.092191 0.766000 132 136 113
-0.252965 -0.087375 0.742000 113 116 91
-0.251378 -0.087492 0.743000 87 104 63
-0.250121 -0.087728 0.745000 90 107 66
-0.248521 -0.087846 0.746000 91 113 68
-0.246585 -0.087846 0.746000 97 119 74
-0.244977 -0.087963 0.747000 103 119 85
-0.243689 -0.088199 0.749000 115 131 97
-0.252624 -0.085331 0.741000 92 106 70
-0.250701 -0.085331 0.741000 89 114 66
-0.249449 -0.085562 0.743000 93 118 70
-0.247521 -0.085562 0.743000 96 115 75
-0.246254 -0.085792 0.745000 104 123 83
-0.258546 -0.084081 0.747000 96 103 77
-0.254547 -0.083406 0.741000 86 106 61
-0.252624 -0.083406 0.741000 93 113 68
-0.250701 -0.083406 0.741000 93 115 70
-0.249114 -0.083518 0.742000 94 116 71
-0.247521 -0.083631 0.743000 112 125 94
-0.245924 -0.083743 0.744000 121 134 103
-0.257162 -0.081700 0.743000 88 105 68
-0.255234 -0.081700 0.743000 91 113 68
-0.252624 -0.081480 0.741000 94 116 71
-0.250701 -0.081480 0.741000 96 113 74
-0.248778 -0.081480 0.741000 118 135 96
-0.273210 -0.082883 0.772000 111 121 94
-0.257508 -0.079877 0.744000 91 112 70
-0.254890 -0.079662 0.742000 93 115 70
-0.252624 -0.079555 0.741000 100 122 77
-0.263477 -0.078572 0.750000 92 111 73
-0.260136 -0.078153 0.746000 90 115 69
-0.257508 -0.077944 0.744000 95 120 74
-0.255234 -0.077839 0.743000 109 126 85
-0.314135 -0.065149 0.827000 116 124 95
-0.301706 -0.042263 0.763000 102 114 86
-0.298547 -0.042097 0.760000 90 102 74
-0.303288 -0.040228 0.762000 123 126 105
-0.300915 -0.040175 0.761000 100 118 83
-0.298154 -0.040069 0.759000 93 111 76
-0.295014 -0.039911 0.756000 93 117 76
-0.302890 -0.038197 0.761000 117 121 98
-0.299728 -0.038047 0.758000 93 112 74
-0.298154 -0.038097 0.759000 95 114 76
-0.296575 -0.038147 0.760000 98 119 81
-0.304864 -0.036220 0.761000 121 129 100
-0.302094 -0.036125 0.759000 101 109 80
-0.300519 -0.036172 0.760000 88 112 73
-0.298940 -0.036220 0.761000 86 110 71
-0.298916 -0.036458 0.766000 93 111 78
-0.304063 -0.034152 0.759000 109 125 91
-0.301297 -0.034062 0.757000 93 109 75
-0.300124 -0.034152 0.759000 84 108 69
-0.298940 -0.034242 0.761000 81 105 66
-0.306436 -0.032223 0.760000 123 125 107
-0.304464 -0.032223 0.760000 94 113 75
-0.302094 -0.032180 0.759000 90 109 71
-0.300519 -0.032223 0.760000 84 108 69
-0.300904 -0.032477 0.766000 86 110 71
-0.306839 -0.030287 0.761000 108 112 89
-0.305265 -0.030327 0.762000 88 109 69
-0.303288 -0.030327 0.762000 90 111 71
-0.302082 -0.030606 0.769000 99 120 82
-0.307646 -0.028384 0.763000 109 113 88
-0.304880 -0.028496 0.766000 92 113 73
-0.304078 -0.028608 0.769000 95 113 78
-0.305225 -0.028905 0.777000 94 112 77
-0.306721 -0.029240 0.786000 104 107 86
-0.308855 -0.026506 0.766000 102 110 81
-0.306867 -0.026506 0.766000 91 115 74
-0.306870 -0.026679 0.771000 92 116 75
-0.307975 -0.027128 0.784000 124 140 108
-0.310032 -0.024451 0.764000 105 118 87
-0.308069 -0.024611 0.769000 92 116 75
-0.309258 -0.024867 0.777000 90 114 73
-0.312484 -0.022789 0.775000 96 112 78
-0.314034 -0.023201 0.789000 92 113 75
0.141736 -0.014297 0.752000 101 98 93
0.143687 -0.014297 0.752000 127 124 121
0.145639 -0.014297 0.752000 120 117 114
0.137649 -0.012326 0.751000 73 69 60
0.139598 -0.012326 0.751000 92 88 81
0.141547 -0.012326 0.751000 125 121 114
0.143496 -0.012326 0.751000 130 130 126
0.145251 -0.012310 0.750000 137 137 133
0.135520 -0.010361 0.750000 75 71 62
0.137283 -0.010347 0.749000 88 84 75
0.139226 -0.010347 0.749000 113 109 102
0.141170 -0.010347 0.749000 123 119 112
0.143114 -0.010347 0.749000 116 120 115
0.133395 -0.008401 0.749000 57 55 47
0.135158 -0.008389 0.748000 66 67 58
0.137099 -0.008389 0.748000 97 98 89
0.139041 -0.008389 0.748000 98 98 98
0.140982 -0.008389 0.748000 95 95 95
0.131276 -0.006446 0.748000 47 47 41
0.133217 -0.006446 0.748000 53 53 47
0.135158 -0.006446 0.748000 48 51 50
0.137099 -0.006446 0.748000 69 72 71
0.138855 -0.006437 0.747000 76 80 92
0.129335 -0.004502 0.748000 55 55 49
0.131101 -0.004496 0.747000 52 53 49
0.133039 -0.004496 0.747000 53 54 50
0.134978 -0.004496 0.747000 48 50 56
0.136916 -0.004496 0.747000 41 43 49
0.138855 -0.004496 0.747000 97 99 125
0.140793 -0.004496 0.747000 125 127 153
0.142732 -0.004496 0.747000 79 84 93
0.129162 -0.002555 0.747000 47 48 44
0.131101 -0.002555 0.747000 53 53 53
0.133039 -0.002555 0.747000 53 53 53
0.134978 -0.002555 0.747000 45 47 57
0.136916 -0.002555 0.747000 65 67 77
0.138855 -0.002555 0.747000 135 137 163
0.140793 -0.002555 0.747000 108 110 136
0.142732 -0.002555 0.747000 45 47 57
0.129162 -0.000614 0.747000 50 51 47
0.131101 -0.000614 0.747000 51 54 53
0.133039 -0.000614 0.747000 51 54 53
0.134978 -0.000614 0.747000 43 48 53
0.136916 -0.000614 0.747000 79 84 89
0.138855 -0.000614 0.747000 112 112 130
0.140793 -0.000614 0.747000 52 52 70
0.142732 -0.000614 0.747000 50 53 56
0.127223 0.001327 0.747000 47 48 44
0.129162 0.001327 0.747000 54 55 51
0.131101 0.001327 0.747000 51 54 53
0.133039 0.001327 0.747000 50 53 52
0.134978 0.001327 0.747000 43 49 49
0.136733 0.001326 0.746000 41 47 47
0.138855 0.001327 0.747000 44 49 54
0.140793 0.001327 0.747000 44 49 54
0.127223 0.003268 0.747000 44 48 43
0.129162 0.003268 0.747000 51 55 50
0.131101 0.003268 0.747000 49 55 53
0.133039 0.003268 0.747000 46 52 50
0.134978 0.003268 0.747000 41 49 48
0.136916 0.003268 0.747000 42 50 49
0.138855 0.003268 0.747000 46 52 52
0.125453 0.005217 0.748000 81 81 75
0.127394 0.005217 0.748000 48 52 47
0.129335 0.005217 0.748000 51 55 50
0.131276 0.005217 0.748000 48 54 52
0.133217 0.005217 0.748000 44 50 48
0.135158 0.005217 0.748000 42 50 47
0.137099 0.005217 0.748000 46 54 51
0.125620 0.007170 0.749000 58 59 53
0.127394 0.007160 0.748000 50 54 49
0.129335 0.007160 0.748000 51 55 50
0.131276 0.007160 0.748000 49 56 50
0.133217 0.007160 0.748000 48 55 49
0.135158 0.007160 0.748000 50 58 55
0.125788 0.009128 0.750000 55 56 50
0.127734 0.009128 0.750000 53 57 50
0.129681 0.009128 0.750000 53 57 50
0.131452 0.009116 0.749000 53 60 54
0.133395 0.009116 0.749000 53 60 54
0.124172 0.011107 0.752000 67 71 64
0.126124 0.011107 0.752000 55 59 52
0.127905 0.011092 0.751000 53 60 54
0.129681 0.011077 0.750000 53 60 54
0.131627 0.011077 0.750000 51 58 52
0.135700 0.011092 0.751000 63 67 62
0.137649 0.011092 0.751000 81 85 80
0.124337 0.013078 0.753000 58 65 59
0.126291 0.013078 0.753000 51 58 52
0.128075 0.013061 0.752000 51 58 52
0.130027 0.013061 0.752000 50 57 51
0.131978 0.013061 0.752000 50 57 51
0.133930 0.013061 0.752000 57 64 58
0.135881 0.013061 0.752000 69 73 68
0.122383 0.015035 0.753000 66 67 61
0.124337 0.015035 0.753000 56 60 55
0.126291 0.015035 0.753000 55 59 54
0.128245 0.015035 0.753000 49 55 53
0.130199 0.015035 0.753000 49 55 53
0.132154 0.015035 0.753000 49 56 50
0.134286 0.015055 0.754000 61 68 62
0.122546 0.017014 0.754000 75 76 67
0.124502 0.017014 0.754000 47 54 48
0.126459 0.017014 0.754000 53 60 54
0.128416 0.017014 0.754000 49 56 50
0.130372 0.017014 0.754000 48 55 49
0.132505 0.017037 0.755000 57 61 56
0.122708 0.018999 0.755000 102 104 93
0.124667 0.018999 0.755000 57 65 54
0.126627 0.018999 0.755000 47 55 44
0.128586 0.018999 0.755000 48 57 48
0.120909 0.020988 0.756000 114 119 105
0.122871 0.020988 0.756000 103 108 94
0.124832 0.020988 0.756000 84 97 80
0.126794 0.020988 0.756000 65 78 61
0.120909 0.022953 0.756000 107 115 100
0.122871 0.022953 0.756000 82 90 75
0.119104 0.024950 0.757000 119 121 108
0.121069 0.024950 0.757000 83 94 73
0.123033 0.024950 0.757000 81 92 71
0.123196 0.026953 0.758000 80 94 72
0.125163 0.026953 0.758000 81 96 71
-0.322956 0.037675 0.776000 107 115 84
-0.323789 0.039794 0.778000 107 115 86
0.124325 0.045470 0.846000 107 115 102
0.126820 0.045578 0.848000 83 100 74
0.136102 0.045739 0.851000 134 145 126
0.122274 0.047725 0.847000 77 87 73
0.124619 0.047781 0.848000 86 96 82
0.126969 0.047838 0.849000 83 102 76
0.131685 0.047950 0.851000 89 105 82
0.133894 0.047950 0.851000 100 116 93
0.131685 0.050162 0.851000 80 96 73
0.134051 0.050221 0.852000 80 96 73
0.131840 0.052435 0.852000 73 87 67
0.122852 0.054585 0.851000 78 99 75
0.125207 0.054649 0.852000 79 100 76
0.127568 0.054713 0.853000 79 100 76
0.129933 0.054777 0.854000 69 90 66
0.132150 0.054777 0.854000 65 78 61
0.125501 0.056996 0.854000 73 96 71
0.127717 0.056996 0.854000 114 130 107
0.129933 0.056996 0.854000 125 141 118
-0.355270 0.059562 0.859000 72 77 63
0.115953 0.058869 0.849000 145 151 134
0.123285 0.059215 0.854000 77 96 70
0.125648 0.059285 0.855000 88 107 81
0.128016 0.059354 0.856000 149 160 139
-0.356097 0.061938 0.861000 65 70 56
0.113750 0.061075 0.849000 153 162 142
-0.354274 0.064250 0.862000 97 113 81
-0.345875 0.064772 0.869000 67 81 61
0.111547 0.063281 0.849000 158 163 149
-0.345875 0.067030 0.869000 66 82 61
-0.346273 0.069368 0.870000 76 92 69
-0.344015 0.069368 0.870000 78 86 73
-0.344411 0.071711 0.871000 88 90 77
-0.342543 0.078591 0.872000 78 89 68
-0.342936 0.080949 0.873000 71 87 64
-0.343329 0.083313 0.874000 66 84 61
-0.341061 0.085584 0.874000 67 80 67
-0.338405 0.092292 0.873000 60 76 53
-0.335755 0.094452 0.872000 69 74 60
-0.335755 0.096718 0.872000 67 72 58
-0.335370 0.098870 0.871000 63 72 54
-0.333109 0.098870 0.871000 65 74 56
-0.333109 0.101134 0.871000 66 78 54
-0.330849 0.101134 0.871000 72 74 61
0.077990 0.090335 0.778000 172 172 168
-0.330849 0.103397 0.871000 70 75 61
0.077990 0.092357 0.778000 176 176 170
0.080009 0.092357 0.778000 135 145 129
0.082028 0.092357 0.778000 85 95 79
-0.328589 0.105660 0.871000 73 79 62
0.075971 0.094379 0.778000 167 169 160
0.077990 0.094379 0.778000 152 154 145
0.080009 0.094379 0.778000 89 105 84
0.082028 0.094379 0.778000 87 103 82
0.084047 0.094379 0.778000 85 106 84
-0.328589 0.107924 0.871000 68 77 57
-0.326328 0.107924 0.871000 73 78 68
0.074047 0.096524 0.779000 173 173 169
0.076069 0.096524 0.779000 151 159 146
0.077990 0.096400 0.778000 91 99 86
0.080009 0.096400 0.778000 86 104 83
0.082028 0.096400 0.778000 90 108 87
0.084155 0.096524 0.779000 108 124 103
0.072118 0.098675 0.780000 174 176 167
0.074047 0.098548 0.779000 160 162 153
0.076069 0.098548 0.779000 94 107 90
0.078091 0.098548 0.779000 84 97 80
0.080009 0.098422 0.778000 88 106 85
0.082028 0.098422 0.778000 98 116 95
0.070184 0.100831 0.781000 170 173 172
0.072118 0.100702 0.780000 164 172 161
0.074047 0.100573 0.779000 108 116 105
0.076069 0.100573 0.779000 85 101 80
0.077990 0.100444 0.778000 95 111 90
0.080112 0.100573 0.779000 99 115 94
0.082134 0.100573 0.779000 145 161 140
0.068419 0.103255 0.784000 132 141 134
0.070274 0.102992 0.782000 135 144 137
0.072211 0.102860 0.781000 100 115 99
0.074047 0.102597 0.779000 90 105 89
0.076069 0.102597 0.779000 94 112 91
0.078091 0.102597 0.779000 101 119 98
0.080112 0.102597 0.779000 142 155 138
0.066469 0.105427 0.785000 102 110 111
0.068419 0.105293 0.784000 98 110 100
0.070274 0.105024 0.782000 90 102 92
0.072211 0.104890 0.781000 89 109 90
0.074047 0.104621 0.779000 93 113 94
0.076069 0.104621 0.779000 105 122 104
0.078091 0.104621 0.779000 112 129 111
0.064514 0.107604 0.786000 87 98 94
0.066385 0.107330 0.784000 93 104 100
0.068419 0.107330 0.784000 91 108 92
0.070364 0.107193 0.783000 91 108 92
0.072211 0.106919 0.781000 93 113 94
0.074143 0.106782 0.780000 99 119 100
0.076069 0.106645 0.779000 105 122 106
0.078091 0.106645 0.779000 109 126 110
0.060435 0.109646 0.786000 144 148 143
0.062395 0.109507 0.785000 123 127 122
0.064432 0.109507 0.785000 103 113 101
0.066385 0.109367 0.784000 93 103 91
0.068419 0.109367 0.784000 85 107 89
0.058246 0.111404 0.784000 173 176 177
0.060281 0.111404 0.784000 177 181 174
0.062395 0.111547 0.785000 169 173 166
0.064350 0.111404 0.784000 119 132 117
0.066385 0.111404 0.784000 91 104 89
0.068419 0.111404 0.784000 90 110 95
0.058246 0.113442 0.784000 170 173 172
0.060281 0.113442 0.784000 165 173 162
0.062236 0.113297 0.783000 112 120 109
0.064350 0.113442 0.784000 83 98 84
0.066385 0.113442 0.784000 89 104 90
0.056068 0.115184 0.782000 165 168 167
0.058098 0.115184 0.782000 167 170 169
0.060127 0.115184 0.782000 102 117 103
0.062156 0.115184 0.782000 87 102 88
0.053970 0.117067 0.781000 169 169 169
0.055997 0.117067 0.781000 163 170 164
0.058023 0.117067 0.781000 108 115 109
0.060050 0.117067 0.781000 82 102 85
0.062077 0.117067 0.781000 91 111 94
0.052010 0.119249 0.782000 167 168 164
0.053970 0.119096 0.781000 162 163 159
0.055925 0.118944 0.780000 100 114 103
0.057949 0.118944 0.780000 85 99 88
0.059973 0.118944 0.780000 96 116 101
0.050108 0.121591 0.784000 174 178 171
0.052010 0.121281 0.782000 141 150 141
0.053970 0.121125 0.781000 95 104 95
0.055925 0.120970 0.780000 90 110 93
0.057949 0.120970 0.780000 92 112 95
0.059896 0.120815 0.779000 94 111 95
0.046450 0.124732 0.791000 169 170 164
0.048135 0.123786 0.785000 172 180 169
0.050108 0.123628 0.784000 135 143 132
0.052010 0.123313 0.782000 86 103 85
0.053970 0.123155 0.781000 88 105 87
0.055925 0.122997 0.780000 95 113 92
0.057875 0.122840 0.779000 102 120 99
0.044622 0.127428 0.795000 173 178 168
0.046509 0.126948 0.792000 166 171 161
0.048380 0.126467 0.789000 117 132 116
0.050172 0.125826 0.785000 88 103 87
0.052143 0.125665 0.784000 98 119 97
0.054039 0.125345 0.782000 99 120 98
0.055997 0.125184 0.781000 106 122 101
0.042666 0.129820 0.797000 170 177 169
0.044622 0.129494 0.795000 156 166 154
0.046626 0.129331 0.794000 109 119 107
0.048503 0.128843 0.791000 83 106 83
0.050300 0.128191 0.787000 90 113 90
0.052143 0.127702 0.784000 91 114 89
-0.265920 0.129078 0.780000 56 64 49
-0.263557 0.128912 0.779000 72 72 72
0.040852 0.132718 0.802000 162 171 162
0.042719 0.132057 0.798000 141 150 141
0.044678 0.131726 0.796000 83 103 86
0.046626 0.131395 0.794000 88 108 91
0.048564 0.131064 0.792000 96 119 96
0.050428 0.130567 0.789000 98 121 98
0.052342 0.130236 0.787000 130 148 127
-0.272391 0.132281 0.787000 73 92 62
-0.270005 0.132113 0.786000 64 81 55
-0.267284 0.131777 0.784000 50 67 41
-0.264234 0.131273 0.781000 58 66 55
-0.261871 0.131105 0.780000 61 69 58
-0.259514 0.130937 0.779000 75 75 75
-0.257162 0.130768 0.778000 77 77 77
0.037010 0.135979 0.809000 106 119 118
0.039061 0.135811 0.808000 109 122 121
0.042719 0.134130 0.798000 86 102 91
0.044678 0.133794 0.796000 92 114 94
0.046626 0.133458 0.794000 101 123 103
-0.276177 0.135180 0.792000 85 110 75
-0.273429 0.134838 0.790000 61 86 51
-0.271036 0.134668 0.789000 63 83 50
-0.267965 0.134156 0.786000 58 78 45
-0.264572 0.133473 0.782000 54 70 47
-0.262207 0.133302 0.781000 53 69 46
-0.259847 0.133131 0.780000 66 70 63
-0.257493 0.132961 0.779000 70 74 67
-0.255143 0.132790 0.778000 75 79 74
0.034910 0.138081 0.809000 99 113 115
0.036964 0.137911 0.808000 95 113 107
0.039061 0.137911 0.808000 90 108 102
0.041311 0.138423 0.811000 87 109 93
0.043255 0.137911 0.808000 95 117 101
0.044678 0.135862 0.796000 99 124 103
-0.273775 0.137064 0.791000 101 125 93
-0.271036 0.136718 0.789000 69 93 54
-0.268306 0.136371 0.787000 74 98 59
-0.265587 0.136025 0.785000 63 85 54
-0.262879 0.135678 0.783000 56 78 47
-0.260180 0.135332 0.781000 56 66 50
-0.257823 0.135158 0.780000 55 65 49
-0.255471 0.134985 0.779000 67 75 64
-0.253124 0.134812 0.778000 70 78 67
0.028541 0.139837 0.807000 111 124 121
0.030674 0.140010 0.808000 100 113 110
0.032770 0.140010 0.808000 87 102 97
0.034867 0.140010 0.808000 91 106 101
0.036873 0.139664 0.806000 86 111 94
0.038964 0.139664 0.806000 86 111 94
0.041361 0.140703 0.812000 94 119 98
0.043522 0.140877 0.813000 103 128 107
0.044790 0.138277 0.798000 104 126 108
-0.273775 0.139120 0.791000 145 151 132
-0.271379 0.138944 0.790000 102 120 85
-0.268647 0.138592 0.788000 100 118 83
-0.265926 0.138240 0.786000 78 101 65
-0.263214 0.137889 0.784000 63 86 50
-0.260847 0.137713 0.783000 66 83 55
-0.258484 0.137537 0.782000 57 74 46
-0.255799 0.137185 0.780000 56 66 50
-0.253449 0.137009 0.779000 56 66 50
-0.251428 0.137009 0.779000 67 72 62
0.026283 0.141055 0.802000 160 169 162
0.028435 0.141406 0.804000 156 170 159
0.030560 0.141582 0.805000 137 151 140
0.032689 0.141758 0.806000 88 110 92
0.034781 0.141758 0.806000 85 107 89
0.036827 0.141582 0.805000 95 118 95
0.039206 0.142637 0.811000 104 127 104
0.043683 0.143517 0.816000 99 120 98
-0.271723 0.141175 0.791000 107 114 88
-0.268988 0.140818 0.789000 112 119 93
-0.266602 0.140640 0.788000 106 125 87
-0.264222 0.140461 0.787000 81 100 62
-0.261513 0.140104 0.785000 74 95 57
-0.259145 0.139926 0.784000 66 87 49
-0.256455 0.139569 0.782000 65 82 56
-0.254425 0.139569 0.782000 63 80 54
-0.252073 0.139391 0.781000 67 75 62
-0.249406 0.139034 0.779000 70 78 65
0.021983 0.142246 0.797000 154 161 155
0.024051 0.142246 0.797000 157 169 159
0.026119 0.142246 0.797000 152 164 154
0.028223 0.142425 0.798000 109 126 112
0.030332 0.142603 0.799000 98 115 101
0.032486 0.142960 0.801000 90 113 90
0.034565 0.142960 0.801000 101 124 101
-0.269670 0.143231 0.791000 105 98 81
-0.267279 0.143050 0.790000 110 118 89
-0.264893 0.142869 0.789000 108 116 87
-0.262512 0.142688 0.788000 90 109 69
-0.260137 0.142506 0.787000 74 93 53
-0.257767 0.142325 0.786000 69 87 54
-0.255402 0.142144 0.785000 68 86 53
-0.253364 0.142144 0.785000 70 84 62
0.019889 0.144136 0.796000 149 158 149
0.021955 0.144136 0.796000 148 157 148
0.024021 0.144136 0.796000 118 133 119
0.026087 0.144136 0.796000 97 112 98
0.028152 0.144136 0.796000 87 109 89
0.030256 0.144317 0.797000 94 116 96
0.032365 0.144498 0.798000 99 125 101
0.034436 0.144498 0.798000 104 130 106
0.036552 0.144679 0.799000 134 151 133
-0.265229 0.145103 0.790000 115 111 86
-0.262846 0.144919 0.789000 112 121 87
-0.260798 0.144919 0.789000 108 117 83
-0.259078 0.145103 0.790000 83 102 62
-0.257354 0.145286 0.791000 72 91 51
-0.255301 0.145286 0.791000 69 86 58
-0.252608 0.144919 0.789000 71 88 60
-0.250243 0.144735 0.788000 70 84 62
-0.246153 0.144735 0.788000 79 84 70
0.015758 0.146205 0.796000 145 154 145
0.017824 0.146205 0.796000 140 149 140
0.019864 0.146021 0.795000 125 137 127
0.021928 0.146021 0.795000 98 110 100
0.023960 0.145837 0.794000 89 111 93
0.026021 0.145837 0.794000 96 118 100
0.028117 0.146021 0.795000 101 127 103
0.030218 0.146205 0.796000 104 130 106
0.032284 0.146205 0.796000 119 139 120
0.034349 0.146205 0.796000 140 160 141
-0.263845 0.147528 0.792000 102 96 70
-0.261790 0.147528 0.792000 116 110 84
-0.259734 0.147528 0.792000 108 117 83
-0.257679 0.147528 0.792000 105 114 80
-0.255624 0.147528 0.792000 82 101 63
-0.253568 0.147528 0.792000 74 93 55
-0.251195 0.147342 0.791000 71 88 58
-0.248828 0.147155 0.790000 69 86 56
-0.247090 0.147342 0.791000 72 81 61
-0.244418 0.146969 0.789000 75 84 64
0.011802 0.150508 0.808000 128 139 135
0.013727 0.148646 0.798000 126 137 133
0.015758 0.148273 0.796000 118 132 121
0.017824 0.148273 0.796000 100 114 103
0.019864 0.148087 0.795000 89 109 90
0.021900 0.147900 0.794000 92 112 93
0.023930 0.147714 0.793000 99 124 103
0.025988 0.147714 0.793000 104 129 108
0.028082 0.147900 0.794000 116 138 118
0.030142 0.147900 0.794000 126 148 128
0.032203 0.147900 0.794000 142 159 145
-0.260390 0.149964 0.794000 108 104 77
-0.258330 0.149964 0.794000 113 109 82
-0.256269 0.149964 0.794000 111 123 88
-0.254209 0.149964 0.794000 100 112 77
-0.251831 0.149775 0.793000 75 94 56
-0.249773 0.149775 0.793000 69 88 50
-0.247715 0.149775 0.793000 72 88 56
-0.245347 0.149586 0.792000 70 86 54
-0.242985 0.149397 0.791000 74 81 59
-0.240323 0.149019 0.789000 75 82 60
0.005661 0.156763 0.830000 113 126 125
0.011933 0.154308 0.817000 110 124 115
0.015798 0.150719 0.798000 90 110 91
0.017824 0.150341 0.796000 95 115 96
0.019839 0.149964 0.794000 99 122 99
0.021845 0.149586 0.792000 104 127 104
0.023870 0.149397 0.791000 112 134 114
0.025890 0.149208 0.790000 118 140 120
0.027940 0.149208 0.790000 139 156 142
0.030028 0.149397 0.791000 139 156 142
-0.256269 0.152027 0.794000 107 107 76
-0.254209 0.152027 0.794000 115 115 84
-0.252148 0.152027 0.794000 109 123 85
-0.250088 0.152027 0.794000 95 109 71
-0.248027 0.152027 0.794000 83 100 61
-0.245657 0.151835 0.793000 72 89 50
-0.243292 0.151644 0.792000 71 84 51
-0.240627 0.151261 0.790000 70 83 50
-0.238275 0.151070 0.789000 72 79 57
-0.235030 0.150304 0.785000 74 81 59
-0.000812 0.161217 0.842000 82 93 93
0.001372 0.161026 0.841000 81 92 92
0.003533 0.160069 0.836000 84 95 91
0.005682 0.159494 0.833000 88 99 95
0.012109 0.158728 0.829000 89 111 93
0.015817 0.152984 0.799000 101 127 101
0.017824 0.152410 0.796000 104 130 104
0.019839 0.152027 0.794000 108 134 110
0.021845 0.151644 0.792000 117 143 119
0.023840 0.151261 0.790000 130 150 135
0.025857 0.151070 0.789000 130 150 135
-0.252148 0.154090 0.794000 106 107 78
-0.250088 0.154090 0.794000 117 118 89
-0.248027 0.154090 0.794000 107 119 82
-0.245967 0.154090 0.794000 90 102 65
-0.243599 0.153896 0.793000 75 89 51
-0.241236 0.153702 0.792000 70 84 46
-0.238577 0.153314 0.790000 71 84 51
-0.235629 0.152732 0.787000 71 84 51
-0.232993 0.152344 0.785000 74 80 61
-0.230367 0.151955 0.783000 73 79 60
-0.227169 0.151179 0.779000 76 77 66
-0.224858 0.150985 0.778000 84 85 74
-0.222266 0.150597 0.776000 100 95 91
-0.009632 0.164764 0.849000 97 103 105
-0.007420 0.164570 0.848000 93 99 101
-0.005219 0.164570 0.848000 89 97 94
-0.003011 0.164182 0.846000 86 94 91
-0.000815 0.163988 0.845000 86 97 93
0.001378 0.163988 0.845000 86 97 93
0.003562 0.163599 0.843000 85 101 90
0.005709 0.162435 0.837000 87 103 92
0.010017 0.161853 0.834000 94 116 96
0.012167 0.161659 0.833000 99 125 99
0.014329 0.161659 0.833000 104 130 104
0.016471 0.161465 0.832000 110 136 110
-0.248027 0.156153 0.794000 111 107 80
-0.245967 0.156153 0.794000 116 112 85
-0.243906 0.156153 0.794000 104 116 79
-0.241236 0.155760 0.792000 85 97 60
-0.238879 0.155563 0.791000 74 91 52
-0.236228 0.155170 0.789000 72 89 50
-0.233586 0.154777 0.787000 72 87 58
-0.230956 0.154383 0.785000 69 84 55
-0.227752 0.153597 0.781000 72 81 63
-0.225147 0.153203 0.779000 71 80 62
-0.222839 0.153007 0.778000 78 79 70
-0.219401 0.152023 0.773000 88 89 80
-0.216551 0.151433 0.770000 100 97 92
-0.214274 0.151237 0.769000 107 104 99
-0.016280 0.167363 0.851000 125 130 135
-0.014038 0.166970 0.849000 94 100 98
-0.011835 0.166970 0.849000 90 96 94
-0.009632 0.166970 0.849000 87 94 88
-0.007420 0.166773 0.848000 87 94 88
-0.005219 0.166773 0.848000 86 99 86
-0.003018 0.166773 0.848000 88 101 88
-0.000816 0.166380 0.846000 86 106 91
0.001380 0.166380 0.846000 86 106 91
0.003575 0.166380 0.846000 85 111 87
0.010053 0.164610 0.837000 107 133 107
0.012196 0.164217 0.835000 112 135 110
0.016748 0.166380 0.846000 97 117 100
0.018943 0.166380 0.846000 92 112 95
0.021589 0.169920 0.864000 96 110 101
-0.245967 0.158217 0.794000 103 89 70
-0.243906 0.158217 0.794000 112 111 83
-0.241846 0.158217 0.794000 114 113 85
-0.239181 0.157818 0.792000 106 118 83
-0.236826 0.157619 0.791000 93 105 70
-0.234180 0.157220 0.789000 73 91 56
-0.231544 0.156822 0.787000 73 91 56
-0.228627 0.156224 0.784000 73 90 62
-0.225725 0.155626 0.781000 71 88 60
-0.223126 0.155228 0.779000 70 80 64
-0.220820 0.155028 0.778000 69 79 63
-0.217957 0.154431 0.775000 71 73 64
-0.215668 0.154231 0.774000 74 76 67
-0.213107 0.153833 0.772000 120 116 117
-0.210830 0.153634 0.771000 142 138 139
-0.016280 0.169575 0.851000 85 88 89
-0.014055 0.169375 0.850000 86 93 87
-0.011835 0.169176 0.849000 87 94 88
-0.009632 0.169176 0.849000 84 97 84
-0.003018 0.168977 0.848000 90 110 91
-0.000818 0.168977 0.848000 88 114 90
0.001383 0.168977 0.848000 96 122 98
0.003588 0.169176 0.849000 106 133 104
0.005791 0.169176 0.849000 109 136 107
0.007994 0.169176 0.849000 110 133 108
0.012430 0.169575 0.851000 97 114 96
0.014673 0.169973 0.853000 95 112 94
0.016926 0.170372 0.855000 97 112 98
-0.239785 0.160280 0.794000 105 106 79
-0.237126 0.159876 0.792000 113 114 87
-0.234774 0.159674 0.791000 103 114 82
-0.232132 0.159271 0.789000 98 109 77
-0.229502 0.158867 0.787000 79 97 64
-0.226592 0.158261 0.784000 72 90 57
-0.223698 0.157656 0.781000 71 88 60
-0.221104 0.157252 0.779000 69 86 58
-0.218801 0.157050 0.778000 70 84 62
-0.216504 0.156848 0.777000 66 80 58
-0.214487 0.156848 0.777000 69 70 64
-0.212197 0.156646 0.776000 79 80 74
-0.210184 0.156646 0.776000 122 118 119
-0.016299 0.171988 0.852000 86 93 87
-0.003022 0.171382 0.849000 101 124 101
-0.000819 0.171382 0.849000 106 129 106
0.001388 0.171786 0.851000 111 134 111
0.003596 0.171786 0.851000 110 133 110
0.005805 0.171786 0.851000 106 129 106
0.012605 0.174208 0.863000 98 111 98
-0.235070 0.161934 0.792000 106 107 80
-0.232427 0.161525 0.790000 112 113 86
-0.229793 0.161116 0.788000 110 121 89
-0.227170 0.160707 0.786000 100 111 79
-0.224558 0.160298 0.784000 88 106 73
-0.221672 0.159685 0.781000 86 104 71
-0.219364 0.159481 0.780000 77 96 66
-0.214763 0.159072 0.778000 72 86 64
-0.212744 0.159072 0.778000 67 81 59
-0.210725 0.159072 0.778000 73 77 70
-0.208706 0.159072 0.778000 75 79 72
-0.206687 0.159072 0.778000 103 99 102
-0.204931 0.159276 0.779000 172 168 171
-0.202649 0.159072 0.778000 210 208 215
-0.014071 0.173997 0.851000 92 108 87
-0.003029 0.173997 0.851000 113 130 112
-0.000822 0.174202 0.852000 107 124 110
0.001393 0.174611 0.854000 102 119 105
0.003609 0.174611 0.854000 99 114 98
0.005839 0.175020 0.856000 103 118 102
0.008079 0.175429 0.858000 107 117 105
-0.230668 0.163785 0.791000 101 97 72
-0.228326 0.163578 0.790000 109 105 80
-0.225703 0.163164 0.788000 108 119 89
-0.222807 0.162543 0.785000 106 117 87
-0.220207 0.162129 0.783000 100 118 85
-0.217618 0.161715 0.781000 92 110 77
-0.215315 0.161507 0.780000 84 104 71
-0.213291 0.161507 0.780000 76 96 63
-0.211267 0.161507 0.780000 78 95 67
-0.209243 0.161507 0.780000 73 90 62
-0.207219 0.161507 0.780000 72 82 70
-0.205457 0.161715 0.781000 74 84 72
-0.203431 0.161715 0.781000 87 90 91
-0.201404 0.161715 0.781000 99 102 103
-0.199377 0.161715 0.781000 125 125 127
-0.196340 0.160886 0.777000 196 196 198
-0.193823 0.160472 0.775000 232 232 236
-0.224226 0.165631 0.790000 106 101 79
-0.221614 0.165212 0.788000 109 114 86
-0.219290 0.165002 0.787000 110 115 87
-0.216972 0.164792 0.786000 102 118 84
-0.214658 0.164583 0.785000 100 116 82
-0.212350 0.164373 0.784000 89 107 72
-0.210316 0.164373 0.784000 85 103 68
-0.208281 0.164373 0.784000 76 95 67
-0.206773 0.164792 0.786000 77 96 68
-0.204473 0.164583 0.785000 79 94 76
-0.202435 0.164583 0.785000 75 90 72
-0.200143 0.164373 0.784000 76 82 80
-0.197603 0.163954 0.782000 80 86 84
-0.194573 0.163115 0.778000 101 104 107
-0.192554 0.163115 0.778000 131 134 137
-0.190046 0.162696 0.776000 159 158 167
-0.187305 0.162067 0.773000 202 201 210
-0.218352 0.167896 0.791000 109 113 85
-0.216299 0.167896 0.791000 113 117 89
-0.213705 0.167471 0.789000 112 125 92
-0.211657 0.167471 0.789000 104 117 84
-0.209610 0.167471 0.789000 93 113 78
-0.207562 0.167471 0.789000 83 103 68
-0.205515 0.167471 0.789000 81 101 68
-0.203467 0.167471 0.789000 83 103 70
-0.201419 0.167471 0.789000 80 98 77
-0.196074 0.166410 0.784000 69 83 74
-0.193297 0.165773 0.781000 69 83 74
-0.190780 0.165349 0.779000 75 83 84
-0.188516 0.165137 0.778000 84 92 93
-0.186258 0.164924 0.777000 96 102 104
-0.215059 0.170596 0.794000 107 107 83
-0.212730 0.170381 0.793000 110 110 86
-0.210407 0.170166 0.792000 113 124 92
-0.208351 0.170166 0.792000 115 126 94
-0.206296 0.170166 0.792000 108 127 89
-0.203983 0.169951 0.791000 100 119 81
-0.201930 0.169951 0.791000 92 112 79
-0.199372 0.169522 0.789000 86 106 73
-0.189728 0.168233 0.783000 78 93 77
-0.186737 0.167373 0.779000 73 88 74
-0.184715 0.167373 0.779000 71 86 72
-0.182459 0.167158 0.778000 70 81 79
-0.180440 0.167158 0.778000 75 86 84
-0.178421 0.167158 0.778000 90 101 97
-0.176402 0.167158 0.778000 111 122 118
-0.174383 0.167158 0.778000 134 146 148
-0.172364 0.167158 0.778000 184 196 198
-0.058673 0.177471 0.826000 72 88 96
-0.209140 0.172877 0.795000 107 105 82
-0.207077 0.172877 0.795000 106 110 82
-0.204756 0.172659 0.794000 113 117 89
-0.202696 0.172659 0.794000 117 125 96
-0.200130 0.172224 0.792000 114 122 93
-0.197574 0.171789 0.790000 112 124 96
-0.195277 0.171572 0.789000 103 115 87
-0.192984 0.171355 0.788000 88 105 75
-0.188175 0.170702 0.785000 85 102 72
-0.183397 0.170050 0.782000 82 99 73
-0.180904 0.169615 0.780000 81 98 72
-0.179109 0.169832 0.781000 78 93 75
-0.175056 0.169832 0.781000 70 86 75
-0.173029 0.169832 0.781000 66 82 71
-0.170783 0.169615 0.780000 60 77 80
-0.166949 0.169832 0.781000 89 98 91
-0.063265 0.180488 0.830000 86 105 95
-0.060890 0.179835 0.827000 85 110 93
-0.058673 0.179618 0.826000 88 113 96
-0.056461 0.179400 0.825000 89 115 89
-0.200888 0.174943 0.795000 116 111 91
-0.198575 0.174722 0.794000 115 115 91
-0.196267 0.174502 0.793000 115 115 91
-0.193964 0.174282 0.792000 117 124 98
-0.191666 0.174062 0.791000 115 122 96
-0.189134 0.173622 0.789000 107 123 91
-0.186612 0.173182 0.787000 102 118 86
-0.184570 0.173182 0.787000 94 113 83
-0.182064 0.172742 0.785000 86 105 75
-0.179797 0.172522 0.784000 81 100 70
-0.176177 0.172962 0.786000 77 96 66
-0.173915 0.172742 0.785000 76 95 65
-0.171659 0.172522 0.784000 69 91 64
-0.169625 0.172522 0.784000 68 90 63
-0.148729 0.176703 0.803000 88 93 83
-0.146828 0.176923 0.804000 92 96 89
-0.145101 0.177363 0.806000 89 93 86
-0.143187 0.177583 0.807000 92 96 89
-0.141268 0.177803 0.808000 93 97 90
-0.139171 0.177803 0.808000 94 98 91
-0.137074 0.177803 0.808000 95 99 92
-0.134977 0.177803 0.808000 99 103 96
-0.133045 0.178023 0.809000 99 103 96
-0.067328 0.181984 0.827000 91 113 95
-0.065340 0.182424 0.829000 94 121 99
-0.063188 0.182424 0.829000 94 121 99
-0.060816 0.181764 0.826000 98 127 97
-0.058530 0.181324 0.824000 102 131 101
-0.056461 0.181544 0.825000 108 137 107
-0.190333 0.176786 0.794000 116 119 94
-0.187798 0.176340 0.792000 122 125 100
-0.185274 0.175895 0.790000 116 128 100
-0.182992 0.175672 0.789000 114 126 98
-0.180715 0.175450 0.788000 111 127 95
-0.178670 0.175450 0.788000 105 121 89
-0.176849 0.175672 0.789000 97 117 82
-0.174580 0.175450 0.788000 92 112 77
-0.172316 0.175227 0.787000 88 112 73
-0.170274 0.175227 0.787000 85 109 70
-0.168445 0.175450 0.788000 76 101 64
-0.166611 0.175672 0.789000 77 102 65
-0.165189 0.176340 0.792000 70 93 59
-0.157563 0.177008 0.795000 75 92 66
-0.146828 0.179012 0.804000 75 86 67
-0.144741 0.179012 0.804000 74 85 66
-0.143010 0.179458 0.806000 74 84 68
-0.141268 0.179903 0.808000 76 86 70
-0.139171 0.179903 0.808000 76 86 72
-0.137074 0.179903 0.808000 74 84 70
-0.134977 0.179903 0.808000 79 87 74
-0.133045 0.180125 0.809000 79 87 74
-0.130945 0.180125 0.809000 79 87 76
-0.128687 0.179903 0.808000 77 85 74
-0.126590 0.179903 0.808000 71 80 71
-0.124493 0.179903 0.808000 72 81 72
-0.122396 0.179903 0.808000 78 87 78
-0.120299 0.179903 0.808000 78 87 78
-0.118349 0.180125 0.809000 76 88 78
-0.116249 0.180125 0.809000 79 91 81
-0.114291 0.180348 0.810000 79 91 81
-0.112189 0.180348 0.810000 77 89 79
-0.110087 0.180348 0.810000 76 88 78
-0.108118 0.180571 0.811000 74 86 76
-0.106013 0.180571 0.811000 67 81 70
-0.104037 0.180793 0.812000 67 81 70
-0.101930 0.180793 0.812000 67 83 72
-0.099823 0.180793 0.812000 67 83 72
-0.097715 0.180793 0.812000 72 89 75
-0.095608 0.180793 0.812000 73 90 76
-0.089286 0.180793 0.812000 78 98 79
-0.087179 0.180793 0.812000 79 99 80
-0.085072 0.180793 0.812000 81 102 80
-0.082965 0.180793 0.812000 86 107 85
-0.080957 0.181016 0.813000 90 113 90
-0.078944 0.181239 0.814000 92 115 92
-0.076926 0.181461 0.815000 95 118 95
-0.073142 0.182575 0.820000 101 125 97
-0.071187 0.183020 0.822000 102 126 98
-0.069306 0.183688 0.825000 101 127 101
-0.067247 0.183911 0.826000 108 134 108
-0.062960 0.183911 0.826000 113 141 114
-0.060816 0.183911 0.826000 114 142 115
-0.058530 0.183465 0.824000 112 140 113
-0.056324 0.183243 0.823000 106 132 106
-0.052052 0.183243 0.823000 90 113 90
-0.049856 0.183020 0.822000 84 107 84
-0.183687 0.178398 0.792000 111 109 88
-0.181173 0.177948 0.790000 111 114 89
-0.179123 0.177948 0.790000 115 118 93
-0.177297 0.178173 0.791000 116 124 95
-0.174801 0.177723 0.789000 119 127 98
-0.172754 0.177723 0.789000 108 125 88
-0.170706 0.177723 0.789000 105 122 85
-0.169086 0.178173 0.791000 107 126 88
-0.167034 0.178173 0.791000 103 122 84
-0.165189 0.178398 0.792000 99 120 82
-0.151945 0.179750 0.798000 79 99 66
-0.150062 0.179975 0.799000 76 99 65
-0.148359 0.180426 0.801000 72 95 61
-0.146645 0.180876 0.803000 72 94 63
-0.144741 0.181101 0.804000 74 96 65
-0.142832 0.181327 0.805000 71 93 64
-0.140918 0.181552 0.806000 70 92 63
-0.138999 0.181777 0.807000 74 93 67
-0.137074 0.182002 0.808000 74 93 67
-0.134977 0.182002 0.808000 73 91 68
-0.132880 0.182002 0.808000 76 94 71
-0.130783 0.182002 0.808000 78 94 73
-0.128687 0.182002 0.808000 78 94 73
-0.126590 0.182002 0.808000 78 94 73
-0.124493 0.182002 0.808000 76 92 71
-0.122396 0.182002 0.808000 73 90 72
-0.120299 0.182002 0.808000 74 91 73
-0.118349 0.182228 0.809000 77 94 76
-0.116249 0.182228 0.809000 78 95 77
-0.114291 0.182453 0.810000 80 97 79
-0.112189 0.182453 0.810000 80 97 79
-0.110087 0.182453 0.810000 78 98 79
-0.108118 0.182678 0.811000 77 97 78
-0.106144 0.182903 0.812000 76 97 75
-0.104037 0.182903 0.812000 78 99 77
-0.101930 0.182903 0.812000 80 103 78
-0.099823 0.182903 0.812000 81 104 79
-0.097715 0.182903 0.812000 82 106 78
-0.095608 0.182903 0.812000 83 107 79
-0.093501 0.182903 0.812000 87 114 83
-0.091394 0.182903 0.812000 88 115 84
-0.089286 0.182903 0.812000 91 115 83
-0.087179 0.182903 0.812000 94 118 86
-0.085072 0.182903 0.812000 99 123 93
-0.082965 0.182903 0.812000 104 128 98
-0.080957 0.183129 0.813000 109 133 103
-0.078847 0.183129 0.813000 115 139 109
-0.076832 0.183354 0.814000 118 142 114
-0.074903 0.183804 0.816000 117 141 113
-0.072964 0.184255 0.818000 118 140 113
-0.071014 0.184705 0.820000 118 140 113
-0.069054 0.185156 0.822000 109 132 107
-0.067165 0.185832 0.825000 101 124 99
-0.065024 0.185832 0.825000 91 114 91
-0.062807 0.185606 0.824000 85 108 85
-0.060669 0.185606 0.824000 81 101 84
-0.058459 0.185381 0.823000 77 97 80
-0.056324 0.185381 0.823000 80 95 79
-0.173849 0.180912 0.794000 107 107 83
-0.171788 0.180912 0.794000 111 111 87
-0.169728 0.180912 0.794000 113 117 89
-0.167667 0.180912 0.794000 113 117 89
-0.165607 0.180912 0.794000 113 121 90
-0.163546 0.180912 0.794000 116 124 93
-0.161486 0.180912 0.794000 119 131 96
-0.159425 0.180912 0.794000 119 131 96
-0.157761 0.181368 0.796000 114 131 94
-0.155695 0.181368 0.796000 107 124 87
-0.153823 0.181596 0.797000 103 122 84
-0.151945 0.181824 0.798000 101 120 82
-0.149874 0.181824 0.798000 98 119 81
-0.148359 0.182507 0.801000 99 120 82
-0.146462 0.182735 0.802000 94 115 77
-0.144741 0.183191 0.804000 93 114 76
-0.142832 0.183419 0.805000 92 116 77
-0.140918 0.183646 0.806000 88 112 73
-0.138999 0.183874 0.807000 89 113 74
-0.136904 0.183874 0.807000 89 113 74
-0.134977 0.184102 0.808000 87 107 74
-0.132880 0.184102 0.808000 84 104 71
-0.130783 0.184102 0.808000 84 104 71
-0.128687 0.184102 0.808000 86 106 73
-0.126590 0.184102 0.808000 84 103 73
-0.124493 0.184102 0.808000 87 106 76
-0.122396 0.184102 0.808000 83 105 76
-0.120299 0.184102 0.808000 84 106 77
-0.118349 0.184330 0.809000 82 104 77
-0.116249 0.184330 0.809000 83 105 78
-0.114150 0.184330 0.809000 83 105 78
-0.112189 0.184558 0.810000 84 106 79
-0.110087 0.184558 0.810000 89 111 82
-0.108118 0.184786 0.811000 93 115 86
-0.106144 0.185013 0.812000 92 116 84
-0.104037 0.185013 0.812000 97 121 89
-0.101930 0.185013 0.812000 97 121 89
-0.099823 0.185013 0.812000 98 122 90
-0.097715 0.185013 0.812000 103 127 95
-0.095608 0.185013 0.812000 106 130 98
-0.093501 0.185013 0.812000 110 133 99
-0.091394 0.185013 0.812000 116 139 105
-0.089286 0.185013 0.812000 120 140 107
-0.087179 0.185013 0.812000 119 139 106
-0.085072 0.185013 0.812000 116 135 105
-0.082965 0.185013 0.812000 109 128 98
-0.080957 0.185241 0.813000 107 124 98
-0.078847 0.185241 0.813000 106 123 97
-0.076832 0.185469 0.814000 95 111 88
-0.074811 0.185697 0.815000 90 106 83
-0.072875 0.186153 0.817000 81 97 76
-0.070928 0.186608 0.819000 76 92 71
-0.068970 0.187064 0.821000 77 90 75
-0.161892 0.183436 0.796000 109 105 80
-0.159827 0.183436 0.796000 106 102 77
-0.157761 0.183436 0.796000 108 109 82
-0.155695 0.183436 0.796000 113 114 87
-0.153823 0.183667 0.797000 114 119 89
-0.151754 0.183667 0.797000 116 121 91
-0.149874 0.183897 0.798000 115 123 92
-0.147988 0.184128 0.799000 119 127 96
-0.146280 0.184589 0.801000 116 130 94
-0.144561 0.185049 0.803000 114 128 92
-0.142655 0.185280 0.804000 112 129 90
-0.140743 0.185510 0.805000 107 124 85
-0.138826 0.185741 0.806000 111 128 91
-0.136904 0.185971 0.807000 110 127 90
-0.134810 0.185971 0.807000 110 127 90
-0.132880 0.186202 0.808000 112 129 92
-0.130783 0.186202 0.808000 113 132 94
-0.128687 0.186202 0.808000 111 130 92
-0.126590 0.186202 0.808000 111 130 92
-0.124493 0.186202 0.808000 111 130 92
-0.122396 0.186202 0.808000 113 131 96
-0.120299 0.186202 0.808000 115 133 98
-0.118349 0.186432 0.809000 115 133 100
-0.116249 0.186432 0.809000 115 133 100
-0.114291 0.186663 0.810000 113 131 98
-0.112189 0.186663 0.810000 114 132 99
-0.110223 0.186893 0.811000 108 126 93
-0.108251 0.187123 0.812000 113 131 98
-0.106144 0.187123 0.812000 114 132 99
-0.104037 0.187123 0.812000 114 132 99
-0.101930 0.187123 0.812000 111 129 96
-0.099823 0.187123 0.812000 110 128 95
-0.097715 0.187123 0.812000 110 125 96
-0.095608 0.187123 0.812000 107 122 93
-0.093501 0.187123 0.812000 105 120 91
-0.091394 0.187123 0.812000 101 116 87
-0.089286 0.187123 0.812000 99 109 82
-0.087179 0.187123 0.812000 98 108 81
-0.085072 0.187123 0.812000 101 105 82
-0.082965 0.187123 0.812000 102 106 83
-0.080957 0.187354 0.813000 94 96 78
-0.078847 0.187354 0.813000 89 91 73
-0.144201 0.186670 0.801000 105 103 80
-0.142477 0.187136 0.803000 104 105 78
-0.140568 0.187369 0.804000 106 107 80
-0.138654 0.187602 0.805000 104 108 80
-0.136735 0.187835 0.806000 104 108 80
-0.134643 0.187835 0.806000 103 107 77
-0.132716 0.188068 0.807000 103 107 77
-0.130622 0.188068 0.807000 102 107 77
-0.128687 0.188301 0.808000 103 108 78
-0.126433 0.188068 0.807000 103 108 78
-0.124339 0.188068 0.807000 104 109 79
-0.122396 0.188301 0.808000 104 109 79
-0.120299 0.188301 0.808000 104 109 79
-0.118349 0.188534 0.809000 103 108 80
-0.116249 0.188534 0.809000 104 109 81
-0.114291 0.188767 0.810000 103 108 80
-0.112189 0.188767 0.810000 104 109 81
-0.110223 0.189000 0.811000 103 107 82
-0.108251 0.189233 0.812000 102 106 81
-0.106144 0.189233 0.812000 103 107 82
-0.104037 0.189233 0.812000 102 106 81
-0.101930 0.189233 0.812000 98 102 79
-0.099823 0.189233 0.812000 98 102 79
