ply
format ascii 1.0
element vertex 1950
property float x
property float y
property float z
property uchar red
property uchar green
property uchar blue
end_header
0.563476 0.158943 0.562426 137 145 142
0.561775 0.159215 0.562073 138 146 143
0.560074 0.159487 0.561719 133 142 135
0.558372 0.159758 0.561366 128 137 130
0.556671 0.160030 0.561013 131 138 132
0.554385 0.159384 0.560431 132 139 133
0.552686 0.159655 0.560078 131 135 130
0.550988 0.159926 0.559726 126 130 125
0.548711 0.159278 0.559146 127 134 128
0.547015 0.159549 0.558794 127 134 128
0.545319 0.159820 0.558442 128 135 129
0.543623 0.160091 0.558089 131 138 132
0.541359 0.159441 0.557513 125 132 126
0.539665 0.159711 0.557161 131 138 132
0.537972 0.159982 0.556809 129 136 130
0.536278 0.160252 0.556457 131 138 132
0.534585 0.160523 0.556105 133 140 134
0.533446 0.161716 0.555975 131 138 132
0.531750 0.161986 0.555623 127 133 131
0.530054 0.162257 0.555271 131 137 135
0.528358 0.162528 0.554918 128 134 132
0.527207 0.163723 0.554785 129 135 133
0.525509 0.163994 0.554433 133 141 138
0.523810 0.164265 0.554080 139 147 144
0.522111 0.164536 0.553727 144 152 149
0.520413 0.164808 0.553374 144 152 149
0.518714 0.165079 0.553021 150 158 155
0.517016 0.165350 0.552668 139 147 144
0.515845 0.166548 0.552531 141 149 146
0.514144 0.166820 0.552178 139 147 144
0.511920 0.166164 0.551610 148 154 152
0.510221 0.166435 0.551257 150 156 154
0.508523 0.166706 0.550904 146 152 150
0.506309 0.166048 0.550338 149 155 153
0.504613 0.166319 0.549985 149 155 153
0.502917 0.166590 0.549633 149 155 153
0.501221 0.166861 0.549281 154 160 158
0.574974 0.156649 0.566567 134 140 140
0.573273 0.156920 0.566213 126 132 132
0.571572 0.157192 0.565860 125 131 131
0.569871 0.157463 0.565506 120 128 129
0.568170 0.157735 0.565153 114 122 123
0.566469 0.158007 0.564800 114 121 125
0.564768 0.158278 0.564446 113 120 124
0.563067 0.158550 0.564093 115 126 126
0.561366 0.158821 0.563740 117 128 128
0.559664 0.159093 0.563386 116 127 123
0.557963 0.159365 0.563033 121 132 128
0.556262 0.159636 0.562679 121 129 126
0.554561 0.159908 0.562326 117 125 122
0.552278 0.159262 0.561743 118 124 122
0.550579 0.159533 0.561390 122 128 126
0.548881 0.159804 0.561037 118 124 122
0.546607 0.159157 0.560456 113 119 117
0.544911 0.159427 0.560103 112 118 116
0.543215 0.159698 0.559751 117 123 121
0.540951 0.159049 0.559172 115 121 119
0.539258 0.159319 0.558820 110 116 114
0.537564 0.159590 0.558468 111 120 113
0.535871 0.159860 0.558117 110 119 112
0.534177 0.160131 0.557765 110 117 111
0.533038 0.161323 0.557637 108 115 109
0.531342 0.161594 0.557285 107 114 108
0.529646 0.161865 0.556932 104 111 105
0.527950 0.162135 0.556580 103 109 107
0.526799 0.163330 0.556450 104 110 108
0.525100 0.163601 0.556097 102 110 107
0.523402 0.163872 0.555744 102 110 107
0.521703 0.164143 0.555391 103 111 108
0.520539 0.165340 0.555258 103 111 108
0.518306 0.164686 0.554685 97 105 104
0.517137 0.165883 0.554552 97 105 104
0.515436 0.166155 0.554198 100 108 107
0.513210 0.165499 0.553627 98 106 105
0.511511 0.165770 0.553274 97 105 106
0.509813 0.166042 0.552921 95 103 104
0.508114 0.166313 0.552568 96 102 102
0.505901 0.165656 0.552000 98 104 104
0.504205 0.165926 0.551647 94 100 100
0.502509 0.166197 0.551295 97 103 103
0.500813 0.166468 0.550943 94 100 100
0.499117 0.166739 0.550590 93 99 99
0.497421 0.167010 0.550238 97 103 103
0.495225 0.166350 0.549673 98 104 104
0.493531 0.166620 0.549321 100 106 108
0.491838 0.166890 0.548969 98 104 106
0.490144 0.167161 0.548617 99 105 107
0.488451 0.167431 0.548266 98 104 106
0.486757 0.167702 0.547914 100 108 109
0.485063 0.167972 0.547562 109 117 118
0.482888 0.167309 0.547001 110 118 119
0.481197 0.167579 0.546650 110 118 119
0.479506 0.167849 0.546299 117 123 123
0.477815 0.168119 0.545947 118 124 124
0.475652 0.167454 0.545389 124 130 130
0.473963 0.167723 0.545038 131 137 137
0.472274 0.167993 0.544687 139 145 145
0.470586 0.168262 0.544337 142 148 148
0.468897 0.168532 0.543986 143 149 147
0.467209 0.168802 0.543635 141 147 145
0.465977 0.170009 0.543488 145 151 149
0.464286 0.170279 0.543137 146 152 150
0.462595 0.170549 0.542786 156 162 160
0.583071 0.154897 0.570000 126 132 130
0.581994 0.156079 0.569888 126 132 130
0.579669 0.155440 0.569293 124 130 130
0.578587 0.156623 0.569180 118 124 124
0.576266 0.155983 0.568587 114 120 120
0.574565 0.156255 0.568233 113 119 119
0.572864 0.156526 0.567880 112 118 120
0.571163 0.156798 0.567527 113 119 121
0.569462 0.157070 0.567173 110 118 119
0.567761 0.157341 0.566820 107 115 116
0.566060 0.157613 0.566466 102 113 113
0.564359 0.157884 0.566113 103 114 114
0.562658 0.158156 0.565760 99 112 111
0.560956 0.158428 0.565406 100 113 112
0.559255 0.158699 0.565053 99 112 111
0.557554 0.158971 0.564700 99 112 111
0.555853 0.159242 0.564346 97 105 104
0.554152 0.159514 0.563993 95 103 102
0.552451 0.159786 0.563639 96 104 103
0.550171 0.159140 0.563054 98 106 105
0.548472 0.159411 0.562701 99 107 106
0.546773 0.159682 0.562348 95 103 102
0.544503 0.159035 0.561765 92 100 99
0.542807 0.159306 0.561413 96 104 103
0.541111 0.159576 0.561061 96 104 103
0.538851 0.158927 0.560480 92 100 99
0.537157 0.159198 0.560128 91 99 96
0.535463 0.159468 0.559776 91 99 96
0.534327 0.160660 0.559651 98 107 100
0.532631 0.160930 0.559299 98 107 100
0.530934 0.161201 0.558947 99 106 100
0.529787 0.162394 0.558820 98 105 99
0.528089 0.162665 0.558467 94 100 98
0.526390 0.162937 0.558114 97 103 101
0.524692 0.163208 0.557761 97 105 102
0.523532 0.164403 0.557632 97 105 102
0.521831 0.164674 0.557279 96 104 101
0.520130 0.164946 0.556925 93 101 98
0.518429 0.165218 0.556572 96 104 101
0.516728 0.165489 0.556218 99 107 104
0.515027 0.165761 0.555865 96 104 103
0.513326 0.166032 0.555512 95 103 102
0.511624 0.166304 0.555158 96 104 103
0.509404 0.165649 0.554586 95 103 102
0.507706 0.165920 0.554233 96 102 102
0.506007 0.166191 0.553880 93 99 99
0.503797 0.165534 0.553309 93 99 99
0.502101 0.165805 0.552957 96 102 102
0.500405 0.166076 0.552604 93 99 99
0.498709 0.166346 0.552252 97 103 103
0.497013 0.166617 0.551900 97 103 103
0.495317 0.166888 0.551547 91 97 97
0.493124 0.166228 0.550981 89 95 97
0.491430 0.166498 0.550629 89 95 97
0.489737 0.166769 0.550277 85 93 94
0.488043 0.167039 0.549925 86 94 95
0.486350 0.167310 0.549573 86 93 97
0.484656 0.167580 0.549221 86 93 97
0.482963 0.167850 0.548870 89 96 100
0.480790 0.167187 0.548307 89 96 100
0.479099 0.167457 0.547956 89 97 98
0.477408 0.167727 0.547604 89 97 98
0.475717 0.167997 0.547253 89 95 97
0.474026 0.168267 0.546902 89 95 97
0.472335 0.168537 0.546550 90 96 98
0.470644 0.168807 0.546199 91 97 99
0.468953 0.169077 0.545848 92 98 100
0.467262 0.169347 0.545496 92 98 100
0.465570 0.169617 0.545145 91 97 97
0.463879 0.169887 0.544794 96 102 102
0.462188 0.170157 0.544443 98 104 104
0.460497 0.170427 0.544091 98 104 104
0.459252 0.171636 0.543944 102 109 113
0.457559 0.171906 0.543592 113 120 124
0.456307 0.173116 0.543444 120 127 131
0.454172 0.172447 0.542889 126 133 137
0.452914 0.173658 0.542739 138 146 147
0.451218 0.173929 0.542387 141 149 150
0.449522 0.174199 0.542034 147 155 152
0.447826 0.174470 0.541682 154 162 159
0.446130 0.174741 0.541330 161 167 165
0.588399 0.154596 0.572973 127 114 103
0.586695 0.154868 0.572619 118 118 114
0.584992 0.155140 0.572265 111 111 107
0.583288 0.155412 0.571911 105 111 111
0.581584 0.155684 0.571557 100 106 106
0.579881 0.155956 0.571203 96 102 102
0.578177 0.156228 0.570850 91 97 97
0.576474 0.156500 0.570496 90 98 99
0.574770 0.156772 0.570142 89 97 98
0.573066 0.157044 0.569788 89 97 98
0.570754 0.156404 0.569193 90 98 99
0.569053 0.156676 0.568840 92 100 101
0.567352 0.156947 0.568487 93 101 102
0.565651 0.157219 0.568133 92 100 101
0.563950 0.157491 0.567780 89 97 98
0.562248 0.157762 0.567427 86 99 98
0.560547 0.158034 0.567073 89 102 101
0.558846 0.158305 0.566720 85 97 99
0.557145 0.158577 0.566366 87 99 101
0.555444 0.158849 0.566013 92 104 106
0.553743 0.159120 0.565660 88 100 102
0.552042 0.159392 0.565306 89 100 100
0.550341 0.159663 0.564953 90 101 101
0.548063 0.159018 0.564366 91 102 100
0.546365 0.159289 0.564013 100 111 109
0.544666 0.159560 0.563660 96 107 105
0.542399 0.158913 0.563075 91 102 100
0.540703 0.159184 0.562723 91 102 100
0.539007 0.159455 0.562370 94 105 103
0.536750 0.158806 0.561787 91 102 100
0.535056 0.159076 0.561435 95 106 104
0.533919 0.160267 0.561313 93 101 98
0.532223 0.160538 0.560961 98 106 103
0.531078 0.161730 0.560837 104 110 108
0.529379 0.162001 0.560484 104 110 108
0.527680 0.162272 0.560131 100 106 104
0.526525 0.163466 0.560005 103 109 107
0.524824 0.163737 0.559652 100 108 105
0.523123 0.164009 0.559299 103 111 108
0.521422 0.164281 0.558945 103 111 108
0.519721 0.164552 0.558592 100 108 105
0.518020 0.164824 0.558239 102 113 109
0.516319 0.165095 0.557885 95 106 102
0.514618 0.165367 0.557532 99 107 104
0.512916 0.165639 0.557178 97 105 102
0.511215 0.165910 0.556825 97 103 103
0.509514 0.166182 0.556472 100 106 106
0.507297 0.165527 0.555897 107 110 111
0.505599 0.165798 0.555544 103 106 107
0.503900 0.166069 0.555191 108 111 112
0.501693 0.165412 0.554619 110 113 114
0.499997 0.165683 0.554266 101 107 107
0.498301 0.165954 0.553914 101 107 107
0.496605 0.166225 0.553562 99 107 106
0.494410 0.165566 0.552992 102 110 109
0.492717 0.165836 0.552640 97 105 106
0.491023 0.166106 0.552288 99 107 108
0.489330 0.166377 0.551936 99 107 108
0.487636 0.166647 0.551584 97 105 106
0.486428 0.167849 0.551448 93 100 104
0.484732 0.168120 0.551095 97 104 108
0.482555 0.167458 0.550529 95 105 108
0.480862 0.167729 0.550177 95 105 108
0.479168 0.167999 0.549825 96 106 109
0.477475 0.168270 0.549474 91 101 104
0.475781 0.168540 0.549122 91 98 102
0.474087 0.168810 0.548770 95 102 106
0.472394 0.169081 0.548418 93 100 104
0.470237 0.168416 0.547856 92 99 103
0.469007 0.169622 0.547714 92 100 101
0.466855 0.168956 0.547153 91 99 100
0.465619 0.170162 0.547011 92 100 101
0.463926 0.170433 0.546659 91 99 100
0.462232 0.170703 0.546307 91 99 100
0.460539 0.170974 0.545955 90 98 99
0.458845 0.171244 0.545604 88 98 101
0.457595 0.172453 0.545458 83 93 96
0.455899 0.172724 0.545106 87 97 100
0.454203 0.172994 0.544753 89 99 102
0.452506 0.173265 0.544401 89 100 100
0.450810 0.173536 0.544048 88 99 99
0.449114 0.173807 0.543696 91 99 98
0.447418 0.174078 0.543344 95 103 102
0.445722 0.174348 0.542991 99 107 106
0.444026 0.174619 0.542639 105 113 112
0.442330 0.174890 0.542287 110 117 123
0.441052 0.176103 0.542135 119 126 132
0.439353 0.176374 0.541782 131 138 146
0.437655 0.176646 0.541430 133 140 148
0.436367 0.177860 0.541276 139 146 150
0.434666 0.178132 0.540923 147 154 158
0.432965 0.178404 0.540569 160 163 164
0.588622 0.155109 0.574890 103 92 83
0.586916 0.155382 0.574536 96 96 92
0.585210 0.155654 0.574182 92 92 88
0.583504 0.155927 0.573827 84 90 88
0.581798 0.156199 0.573473 89 95 93
0.580092 0.156471 0.573118 93 101 100
0.577767 0.155834 0.572519 95 103 102
0.576064 0.156106 0.572165 97 105 104
0.574360 0.156378 0.571811 98 106 105
0.572657 0.156650 0.571457 95 103 102
0.570953 0.156922 0.571103 100 108 107
0.569249 0.157194 0.570749 99 105 105
0.567546 0.157466 0.570395 105 111 111
0.565842 0.157738 0.570041 106 112 112
0.563540 0.157097 0.569447 107 113 113
0.562435 0.158282 0.569334 106 114 113
0.560138 0.157640 0.568740 102 110 109
0.558437 0.157912 0.568386 104 112 113
0.556736 0.158183 0.568033 105 113 114
0.555035 0.158455 0.567680 104 112 113
0.553334 0.158727 0.567326 107 115 116
0.551633 0.158998 0.566973 107 115 116
0.549932 0.159270 0.566620 113 121 122
0.548231 0.159541 0.566266 110 118 117
0.546529 0.159813 0.565913 105 113 112
0.544258 0.159167 0.565324 111 119 118
0.542559 0.159438 0.564971 116 124 123
0.540861 0.159709 0.564619 114 125 125
0.538599 0.159062 0.564032 116 127 127
0.536903 0.159333 0.563680 115 126 124
0.535207 0.159604 0.563327 115 126 124
0.534066 0.160794 0.563207 116 127 123
0.532368 0.161065 0.562854 112 123 119
0.530669 0.161337 0.562501 113 121 118
0.529518 0.162529 0.562379 116 124 121
0.527817 0.162800 0.562026 120 128 125
0.526116 0.163072 0.561672 117 125 122
0.524415 0.163344 0.561319 112 120 117
0.522714 0.163615 0.560965 113 121 118
0.521013 0.163887 0.560612 116 124 121
0.519312 0.164158 0.560259 117 125 122
0.517611 0.164430 0.559905 113 121 118
0.515909 0.164702 0.559552 117 125 122
0.514208 0.164973 0.559199 118 126 123
0.512507 0.165245 0.558845 112 120 117
0.510806 0.165516 0.558492 115 121 119
0.509105 0.165788 0.558138 120 126 124
0.507404 0.166060 0.557785 119 122 121
0.505703 0.166331 0.557432 116 119 118
0.503491 0.165676 0.556856 114 120 118
0.501793 0.165947 0.556503 114 120 118
0.499589 0.165290 0.555928 114 120 120
0.497893 0.165561 0.555576 112 118 118
0.496197 0.165832 0.555224 114 122 121
0.494501 0.166103 0.554871 111 119 118
0.492805 0.166374 0.554519 114 122 123
0.491109 0.166644 0.554167 113 121 122
0.489412 0.166915 0.553814 113 121 122
0.487716 0.167186 0.553462 114 122 123
0.486020 0.167457 0.553110 110 121 121
0.484324 0.167728 0.552757 109 120 120
0.482628 0.167998 0.552405 107 117 120
0.480932 0.168269 0.552052 107 117 120
0.479236 0.168540 0.551700 105 115 118
0.477540 0.168811 0.551348 105 115 118
0.475844 0.169082 0.550995 110 121 121
0.474148 0.169352 0.550643 103 114 114
0.472452 0.169623 0.550291 104 112 111
0.470293 0.168959 0.549726 104 112 111
0.468599 0.169230 0.549374 104 110 110
0.466906 0.169500 0.549022 99 105 105
0.465212 0.169770 0.548670 97 105 104
0.463519 0.170041 0.548318 98 106 105
0.461825 0.170311 0.547967 102 110 109
0.460131 0.170582 0.547615 97 105 104
0.458438 0.170852 0.547263 96 104 105
0.457187 0.172060 0.547120 97 105 106
0.455491 0.172331 0.546767 98 106 107
0.453795 0.172602 0.546415 97 105 106
0.452099 0.172873 0.546063 95 103 104
0.450402 0.173143 0.545710 90 98 99
0.448706 0.173414 0.545358 90 98 97
0.447010 0.173685 0.545006 90 98 97
0.445314 0.173956 0.544653 90 98 97
0.443618 0.174227 0.544301 89 97 96
0.442342 0.175439 0.544153 89 97 98
0.440643 0.175710 0.543800 88 96 97
0.438945 0.175981 0.543447 91 98 104
0.437246 0.176252 0.543094 91 98 104
0.435958 0.177467 0.542943 95 103 104
0.434256 0.177738 0.542590 97 105 106
0.432555 0.178010 0.542236 106 109 110
0.430854 0.178282 0.541883 115 118 119
0.429153 0.178553 0.541529 122 128 128
0.427452 0.178825 0.541176 124 130 130
0.425751 0.179096 0.540823 140 145 150
0.424050 0.179368 0.540469 145 150 155
0.589918 0.154442 0.576917 113 100 89
0.588212 0.154715 0.576562 118 105 94
0.586506 0.154987 0.576208 112 107 103
0.584800 0.155259 0.575853 114 109 105
0.583094 0.155532 0.575499 110 111 107
0.581388 0.155804 0.575144 108 109 105
0.579681 0.156077 0.574790 107 116 109
0.577975 0.156349 0.574436 105 114 107
0.576269 0.156621 0.574081 103 111 108
0.574563 0.156894 0.573727 104 112 109
0.572857 0.157166 0.573372 110 116 114
0.570543 0.156528 0.572772 117 123 121
0.568840 0.156800 0.572419 112 115 114
0.567136 0.157072 0.572065 116 119 118
0.565432 0.157344 0.571711 123 126 125
0.563729 0.157616 0.571357 128 131 130
0.562025 0.157888 0.571003 127 133 133
0.560322 0.158160 0.570649 127 133 133
0.558618 0.158432 0.570295 130 138 137
0.556914 0.158704 0.569941 131 139 138
0.555211 0.158976 0.569587 131 139 140
0.553507 0.159248 0.569233 127 135 136
0.551224 0.158604 0.568640 131 139 138
0.550100 0.159792 0.568526 142 150 149
0.547821 0.159148 0.567933 137 145 144
0.546120 0.159419 0.567580 134 142 141
0.544419 0.159691 0.567226 138 146 145
0.542718 0.159962 0.566873 139 147 146
0.541017 0.160234 0.566519 137 145 146
0.539316 0.160506 0.566166 144 152 153
0.537055 0.159859 0.565577 136 147 147
0.535356 0.160130 0.565224 140 151 151
0.534213 0.161320 0.565106 146 157 155
0.532511 0.161592 0.564753 151 162 160
0.530810 0.161864 0.564399 147 158 154
0.529109 0.162135 0.564046 152 163 159
0.527408 0.162407 0.563692 151 162 160
0.525707 0.162678 0.563339 153 164 162
0.524006 0.162950 0.562986 151 162 162
0.522305 0.163222 0.562632 150 161 161
0.520604 0.163493 0.562279 156 164 163
0.518903 0.163765 0.561925 156 164 163
0.517201 0.164036 0.561572 157 165 164
0.515500 0.164308 0.561219 159 167 166
0.513799 0.164580 0.560865 162 170 169
0.512098 0.164851 0.560512 166 174 173
0.510397 0.165123 0.560159 168 174 174
0.508696 0.165394 0.559805 174 180 180
0.506995 0.165666 0.559452 169 175 173
0.505294 0.165938 0.559098 167 173 171
0.503593 0.166209 0.558745 164 170 168
0.501384 0.165554 0.558167 161 167 165
0.499686 0.165825 0.557814 162 168 168
0.497987 0.166096 0.557461 157 163 163
0.496289 0.166367 0.557108 154 162 163
0.494590 0.166639 0.556756 155 163 164
0.492891 0.166910 0.556403 155 162 166
0.491193 0.167181 0.556050 154 161 165
0.489494 0.167452 0.555697 153 160 164
0.487796 0.167723 0.555344 148 155 159
0.486097 0.167995 0.554991 145 155 158
0.484398 0.168266 0.554638 143 153 156
0.482700 0.168537 0.554286 133 143 146
0.481001 0.168808 0.553933 128 138 141
0.479303 0.169079 0.553580 125 133 134
0.477604 0.169351 0.553227 124 132 133
0.475905 0.169622 0.552874 125 131 131
0.474207 0.169893 0.552521 125 131 131
0.472508 0.170164 0.552168 122 125 124
0.470348 0.169501 0.551600 124 127 126
0.468652 0.169772 0.551248 119 122 121
0.466955 0.170043 0.550896 117 120 119
0.465259 0.170314 0.550543 113 119 117
0.463563 0.170584 0.550191 111 117 115
0.461418 0.169919 0.549626 113 121 118
0.460171 0.171126 0.549486 104 112 109
0.458031 0.170460 0.548922 111 119 118
0.456779 0.171668 0.548782 111 119 118
0.455083 0.171938 0.548429 107 115 114
0.453387 0.172209 0.548077 104 112 111
0.451691 0.172480 0.547725 103 111 110
0.449995 0.172751 0.547372 103 111 110
0.448299 0.173022 0.547020 97 105 102
0.446602 0.173292 0.546668 97 105 102
0.445331 0.174503 0.546523 99 107 104
0.443632 0.174775 0.546170 96 104 101
0.441934 0.175046 0.545817 95 103 102
0.440235 0.175317 0.545464 97 105 104
0.438536 0.175588 0.545111 96 107 107
0.437250 0.176801 0.544963 94 105 105
0.435548 0.177073 0.544610 96 104 103
0.433847 0.177345 0.544256 93 101 100
0.432146 0.177616 0.543903 91 97 97
0.430445 0.177888 0.543550 92 98 98
0.428744 0.178159 0.543196 92 98 98
0.427043 0.178431 0.542843 94 100 100
0.425342 0.178703 0.542489 96 102 104
0.423641 0.178974 0.542136 98 104 106
0.421940 0.179246 0.541783 103 108 115
0.420238 0.179517 0.541429 111 116 123
0.418537 0.179789 0.541076 125 132 138
0.417218 0.181008 0.540921 137 144 150
0.415514 0.181280 0.540567 147 154 158
0.413811 0.181552 0.540213 152 159 163
0.587802 0.154320 0.578234 121 108 97
0.586725 0.155499 0.578132 119 115 108
0.585017 0.155772 0.577777 123 119 112
0.583308 0.156044 0.577422 122 122 116
0.581599 0.156317 0.577067 124 124 118
0.579891 0.156590 0.576712 121 130 123
0.578182 0.156863 0.576357 120 129 122
0.576473 0.157136 0.576002 130 138 135
0.574153 0.156499 0.575398 140 148 145
0.572447 0.156771 0.575044 147 155 152
0.570741 0.157044 0.574690 157 165 162
0.569034 0.157316 0.574335 164 170 168
0.567328 0.157588 0.573981 163 169 167
0.565023 0.156949 0.573380 164 170 168
0.563319 0.157221 0.573026 165 171 169
0.561616 0.157493 0.572672 169 177 176
0.559912 0.157765 0.572318 171 179 178
0.558208 0.158037 0.571964 174 182 181
0.481069 0.169346 0.555818 182 190 191
0.479368 0.169618 0.555464 180 188 187
0.477667 0.169889 0.555111 178 186 185
0.475966 0.170161 0.554758 177 183 183
0.474265 0.170433 0.554404 177 183 183
0.472564 0.170704 0.554051 174 180 180
0.470401 0.170042 0.553480 175 181 181
0.468702 0.170313 0.553127 172 178 176
0.467004 0.170585 0.552774 170 176 174
0.465305 0.170856 0.552421 163 169 167
0.463155 0.170192 0.551853 150 156 154
0.461459 0.170463 0.551500 143 149 147
0.459763 0.170734 0.551148 139 145 143
0.458067 0.171004 0.550796 120 128 127
0.456371 0.171275 0.550443 118 126 125
0.455114 0.172483 0.550304 116 124 123
0.453415 0.172754 0.549951 118 126 125
0.451717 0.173025 0.549598 117 123 121
0.450018 0.173297 0.549245 119 125 123
0.448319 0.173568 0.548893 119 122 121
0.446621 0.173839 0.548540 113 116 115
0.444922 0.174110 0.548187 111 117 115
0.443224 0.174381 0.547834 108 114 112
0.441944 0.175593 0.547690 107 115 112
0.440243 0.175864 0.547337 107 115 112
0.438542 0.176136 0.546983 105 116 114
0.436840 0.176408 0.546630 103 114 112
0.435139 0.176679 0.546276 99 107 104
0.433438 0.176951 0.545923 98 106 103
0.431737 0.177222 0.545570 99 106 100
0.430036 0.177494 0.545216 94 101 95
0.428335 0.177766 0.544863 97 104 98
0.426634 0.178037 0.544510 96 103 97
0.424933 0.178309 0.544156 93 101 100
0.423232 0.178580 0.543803 93 101 100
0.421530 0.178852 0.543449 96 103 107
0.419829 0.179124 0.543096 91 98 102
0.418128 0.179395 0.542743 92 99 103
0.416808 0.180613 0.542590 99 106 110
0.415105 0.180885 0.542236 103 110 114
0.413401 0.181157 0.541882 104 111 115
0.412071 0.182377 0.541728 118 124 126
0.410365 0.182649 0.541374 128 134 136
0.408659 0.182922 0.541019 135 141 141
0.406953 0.183194 0.540665 146 152 152
0.405247 0.183466 0.540310 153 161 160
0.586943 0.156009 0.580061 159 155 148
0.585232 0.156283 0.579706 159 155 148
0.583521 0.156556 0.579350 162 162 156
0.581810 0.156829 0.578995 168 168 162
0.580099 0.157102 0.578639 173 177 172
0.456845 0.172755 0.552537 182 188 188
0.455144 0.173026 0.552184 178 181 180
0.453442 0.173298 0.551830 174 177 176
0.451741 0.173570 0.551477 173 173 173
0.450040 0.173841 0.551124 169 169 169
0.448339 0.174113 0.550770 166 166 166
0.446638 0.174384 0.550417 160 160 160
0.444937 0.174656 0.550064 148 154 152
0.443236 0.174928 0.549710 139 145 143
0.441535 0.175199 0.549357 121 129 128
0.439834 0.175471 0.549003 112 120 119
0.438132 0.175742 0.548650 110 118 117
0.436431 0.176014 0.548297 114 122 121
0.434730 0.176286 0.547943 114 122 119
0.433029 0.176557 0.547590 107 115 112
0.431328 0.176829 0.547237 111 118 112
0.429627 0.177100 0.546883 107 114 108
0.427926 0.177372 0.546530 104 113 106
0.426225 0.177644 0.546176 102 111 104
0.424524 0.177915 0.545823 97 108 108
0.422822 0.178187 0.545470 94 105 105
0.421121 0.178458 0.545116 94 105 105
0.419420 0.178730 0.544763 95 106 106
0.417719 0.179002 0.544409 94 104 107
0.416399 0.180219 0.544260 93 103 106
0.414695 0.180491 0.543906 91 101 104
0.412991 0.180763 0.543552 89 99 102
0.411661 0.181982 0.543400 91 99 100
0.409955 0.182254 0.543045 93 101 102
0.408249 0.182527 0.542691 99 107 108
0.406542 0.182799 0.542336 100 108 109
0.404836 0.183071 0.541982 111 118 122
0.403130 0.183344 0.541628 119 126 130
0.401424 0.183616 0.541273 129 135 137
0.399718 0.183889 0.540919 138 144 146
0.397659 0.183211 0.540367 147 150 153
0.395955 0.183483 0.540013 156 159 162
0.443247 0.175473 0.551591 185 188 187
0.441543 0.175745 0.551237 183 189 189
0.439839 0.176017 0.550883 178 184 184
0.438136 0.176289 0.550530 168 174 174
0.436432 0.176561 0.550176 162 168 168
0.434729 0.176833 0.549822 151 154 153
0.433025 0.177105 0.549468 142 145 144
0.430919 0.176435 0.548903 137 141 136
0.429218 0.176707 0.548550 133 137 132
0.427517 0.176978 0.548196 123 131 128
0.425816 0.177250 0.547843 113 121 118
0.424114 0.177521 0.547490 102 113 113
0.422413 0.177793 0.547136 105 116 116
0.420712 0.178065 0.546783 104 115 113
0.419011 0.178336 0.546430 101 112 110
0.417692 0.179553 0.546283 102 113 111
0.415989 0.179825 0.545929 101 112 110
0.414285 0.180097 0.545575 91 102 102
0.412957 0.181315 0.545426 93 104 104
0.411250 0.181587 0.545071 93 104 102
0.409544 0.181859 0.544717 94 105 103
0.407838 0.182132 0.544363 96 104 103
0.406132 0.182404 0.544008 91 99 98
0.404426 0.182677 0.543654 90 98 99
0.402720 0.182949 0.543299 92 100 101
0.401014 0.183221 0.542945 98 103 108
0.399308 0.183494 0.542590 105 110 115
0.397249 0.182817 0.542036 111 116 123
0.395546 0.183089 0.541682 119 124 131
0.393842 0.183361 0.541328 127 132 139
0.392138 0.183633 0.540974 134 139 146
0.390092 0.182953 0.540422 142 148 150
0.388391 0.183225 0.540069 149 155 157
0.431314 0.177923 0.550996 183 184 180
0.429208 0.177254 0.550429 181 182 178
0.427504 0.177526 0.550075 178 181 180
0.425801 0.177798 0.549721 173 176 175
0.424097 0.178070 0.549368 161 167 167
0.422394 0.178342 0.549014 140 146 146
0.420690 0.178614 0.548660 127 133 133
0.418986 0.178886 0.548306 118 124 124
0.417283 0.179158 0.547952 107 118 116
0.415579 0.179430 0.547598 112 123 121
0.414252 0.180647 0.547452 103 114 112
0.412546 0.180920 0.547098 107 118 116
0.410840 0.181192 0.546743 100 108 107
0.409503 0.182411 0.546595 98 106 105
0.407795 0.182683 0.546240 99 107 106
0.406086 0.182956 0.545885 97 105 104
0.404377 0.183229 0.545530 95 103 104
0.402310 0.182554 0.544971 96 104 105
0.400603 0.182826 0.544617 96 104 105
0.398897 0.183099 0.544262 96 104 105
0.397191 0.183371 0.543908 95 102 106
0.395136 0.182694 0.543351 92 99 103
0.393432 0.182966 0.542997 92 99 103
0.391729 0.183238 0.542643 95 102 106
0.389683 0.182560 0.542089 102 109 115
0.387982 0.182831 0.541735 105 112 118
0.386281 0.183103 0.541382 106 113 117
0.384580 0.183374 0.541029 121 128 132
0.382879 0.183646 0.540675 133 138 143
0.381178 0.183918 0.540322 143 148 153
0.420667 0.179163 0.550541 186 189 188
0.418960 0.179435 0.550187 183 186 185
0.417254 0.179708 0.549833 168 174 174
0.415548 0.179980 0.549478 155 161 161
0.413842 0.180252 0.549124 147 150 149
0.412510 0.181470 0.548979 129 132 131
0.410801 0.181742 0.548624 124 125 121
0.409461 0.182961 0.548478 123 124 120
0.407750 0.183234 0.548122 110 116 114
0.405675 0.182561 0.547559 107 113 111
0.403966 0.182834 0.547204 104 110 110
0.402258 0.183106 0.546849 107 113 113
0.400549 0.183379 0.546494 101 107 107
0.398841 0.183652 0.546139 98 104 104
0.396781 0.182976 0.545579 95 103 104
0.395075 0.183249 0.545225 93 101 102
0.393022 0.182572 0.544667 95 103 104
0.391319 0.182844 0.544313 96 104 105
0.389615 0.183116 0.543959 93 101 102
0.387573 0.182437 0.543402 97 105 106
0.385872 0.182709 0.543049 95 103 104
0.384171 0.182981 0.542696 92 100 101
0.382470 0.183252 0.542342 97 104 108
0.380769 0.183524 0.541989 103 110 114
0.379068 0.183795 0.541635 108 113 120
0.377366 0.184067 0.541282 121 126 133
0.375986 0.185292 0.541127 137 139 145
0.374283 0.185564 0.540774 149 151 157
0.372579 0.185836 0.540420 160 163 164
0.412472 0.182018 0.550865 185 188 187
0.410761 0.182292 0.550510 185 186 182
0.409418 0.183510 0.550366 176 177 173
0.407704 0.183783 0.550010 148 154 154
0.405627 0.183111 0.549444 129 135 135
0.403916 0.183384 0.549088 120 126 126
0.402205 0.183657 0.548733 118 124 124
0.400494 0.183931 0.548377 117 120 119
0.398430 0.183256 0.547814 115 118 117
0.396721 0.183529 0.547459 111 117 117
0.394664 0.182854 0.546897 111 117 117
0.392958 0.183126 0.546542 105 111 111
0.390909 0.182450 0.545982 98 104 104
0.389206 0.182722 0.545628 94 100 100
0.387502 0.182994 0.545274 96 102 102
0.385798 0.183266 0.544920 97 103 103
0.384095 0.183538 0.544566 94 100 100
0.382061 0.182859 0.544009 97 103 105
0.380360 0.183130 0.543656 98 104 106
0.378658 0.183402 0.543302 93 98 105
0.377280 0.184626 0.543151 93 98 105
0.375577 0.184898 0.542797 95 97 105
0.373873 0.185170 0.542443 105 107 115
0.372169 0.185442 0.542089 115 117 125
0.370466 0.185714 0.541735 124 126 134
0.368762 0.185986 0.541381 145 147 153
0.367059 0.186258 0.541027 162 164 170
0.405941 0.184606 0.551545 183 186 185
0.403865 0.183934 0.550977 183 186 187
0.402151 0.184207 0.550621 179 182 183
0.400437 0.184481 0.550265 176 176 178
0.398724 0.184755 0.549909 155 155 157
0.396660 0.184081 0.549343 128 134 136
0.394601 0.183407 0.548778 117 123 125
0.392548 0.182731 0.548214 113 119 119
0.390842 0.183004 0.547860 115 121 121
0.389136 0.183276 0.547505 114 120 118
0.387430 0.183549 0.547151 113 119 117
0.385389 0.182871 0.546589 110 116 114
0.383685 0.183143 0.546235 103 109 107
0.381981 0.183415 0.545882 105 111 111
0.380278 0.183687 0.545528 99 105 105
0.378574 0.183959 0.545174 94 99 104
0.376871 0.184231 0.544820 97 102 107
0.375167 0.184503 0.544466 98 103 108
0.373463 0.184775 0.544112 99 104 109
0.371760 0.185047 0.543758 98 103 108
0.370056 0.185319 0.543404 94 99 104
0.368352 0.185591 0.543050 105 107 115
0.366649 0.185863 0.542696 108 110 118
0.364945 0.186135 0.542342 121 123 131
0.363242 0.186407 0.541989 135 137 145
0.361538 0.186679 0.541635 158 160 168
0.396598 0.184632 0.551232 184 187 188
0.394537 0.183958 0.550664 180 183 184
0.392482 0.183284 0.550097 172 175 176
0.390773 0.183557 0.549742 164 167 168
0.388725 0.182881 0.549177 145 151 149
0.387019 0.183154 0.548822 133 139 137
0.385313 0.183426 0.548468 124 130 128
0.383607 0.183698 0.548114 113 119 117
0.381901 0.183971 0.547759 117 120 119
0.379868 0.183293 0.547197 115 118 117
0.378164 0.183565 0.546843 114 120 122
0.376782 0.184788 0.546696 113 119 121
0.375076 0.185060 0.546341 108 113 118
0.373054 0.184381 0.545781 103 108 113
0.371664 0.185605 0.545633 100 105 110
0.369958 0.185878 0.545278 94 99 104
0.367943 0.185197 0.544720 96 98 104
0.366239 0.185469 0.544366 99 101 107
0.364535 0.185741 0.544012 100 102 110
0.362832 0.186013 0.543658 98 100 108
0.361128 0.186285 0.543304 102 104 112
0.359425 0.186557 0.542950 113 115 123
0.357721 0.186829 0.542596 123 125 131
0.356017 0.187101 0.542242 148 150 156
0.354314 0.187373 0.541888 165 168 171
0.388992 0.184382 0.551274 181 184 185
0.387281 0.184655 0.550919 181 184 185
0.385236 0.183980 0.550351 180 183 182
0.383528 0.184252 0.549996 172 175 174
0.381491 0.183576 0.549431 158 158 158
0.379784 0.183848 0.549076 142 142 142
0.378078 0.184121 0.548722 126 129 132
0.376372 0.184393 0.548368 119 122 125
0.374666 0.184666 0.548013 119 125 127
0.372960 0.184938 0.547659 112 118 120
0.371254 0.185210 0.547304 113 116 119
0.369548 0.185483 0.546950 113 116 119
0.367842 0.185755 0.546595 107 112 117
0.366135 0.186028 0.546241 103 108 113
0.364429 0.186300 0.545887 103 108 115
0.362723 0.186572 0.545532 99 104 111
0.360719 0.185891 0.544973 99 104 111
0.359015 0.186163 0.544619 97 102 109
0.357311 0.186435 0.544265 96 101 108
0.355608 0.186707 0.543911 97 102 109
0.353904 0.186979 0.543558 107 109 115
0.352200 0.187251 0.543204 126 128 134
0.350780 0.188479 0.543051 148 153 158
0.349074 0.188752 0.542697 164 169 174
0.381736 0.185078 0.551529 185 185 185
0.380025 0.185352 0.551173 186 186 186
0.377991 0.184675 0.550606 178 178 180
0.376282 0.184948 0.550251 169 169 171
0.374574 0.185221 0.549896 163 166 167
0.372865 0.185494 0.549541 148 151 152
0.370843 0.184815 0.548976 136 135 135
0.369137 0.185088 0.548622 126 125 125
0.367431 0.185360 0.548267 116 119 120
0.365725 0.185633 0.547913 114 117 118
0.364019 0.185905 0.547558 110 115 120
0.362313 0.186177 0.547204 107 112 117
0.360607 0.186450 0.546849 105 110 115
0.358901 0.186722 0.546495 101 106 111
0.357194 0.186995 0.546141 103 108 113
0.355488 0.187267 0.545786 104 109 114
0.353782 0.187539 0.545432 101 106 111
0.352076 0.187812 0.545077 97 102 107
0.350370 0.188084 0.544723 101 106 113
0.348664 0.188357 0.544368 111 116 123
0.346958 0.188629 0.544014 129 134 141
0.345527 0.189858 0.543862 148 153 160
0.343818 0.190131 0.543507 169 171 177
0.369347 0.186595 0.550717 178 178 178
0.367328 0.185917 0.550150 161 161 161
0.365620 0.186189 0.549795 153 153 153
0.363911 0.186462 0.549440 133 133 135
0.362202 0.186735 0.549085 125 125 127
0.360494 0.187008 0.548730 117 120 123
0.358490 0.186327 0.548167 113 116 119
0.356784 0.186600 0.547812 113 116 119
0.355078 0.186872 0.547458 110 113 116
0.353372 0.187145 0.547103 106 111 116
0.351666 0.187417 0.546749 101 106 111
0.349960 0.187689 0.546395 100 105 110
0.348254 0.187962 0.546040 100 105 110
0.346547 0.188234 0.545686 98 103 108
0.345116 0.189463 0.545536 98 103 108
0.343407 0.189736 0.545181 107 109 115
0.341699 0.190009 0.544826 120 122 128
0.340257 0.191239 0.544674 137 137 141
0.338546 0.191512 0.544319 155 155 159
0.364104 0.187970 0.551540 186 186 188
0.362091 0.187292 0.550972 182 182 184
0.360380 0.187565 0.550617 160 163 164
0.358668 0.187838 0.550261 133 136 137
0.356957 0.188111 0.549906 129 129 131
0.354957 0.187431 0.549340 125 125 127
0.353248 0.187704 0.548985 120 123 126
0.351540 0.187976 0.548630 119 122 125
0.349831 0.188249 0.548275 113 116 119
0.348122 0.188522 0.547920 105 108 111
0.346414 0.188795 0.547565 105 108 111
0.344705 0.189068 0.547210 103 106 109
0.342996 0.189340 0.546855 101 104 107
0.341288 0.189613 0.546500 100 103 106
0.339846 0.190843 0.546351 103 103 107
0.338399 0.192074 0.546201 110 110 114
0.336947 0.193305 0.546049 122 122 126
0.335490 0.194538 0.545897 135 135 139
0.334028 0.195771 0.545743 154 153 160
0.358844 0.189346 0.552365 184 187 188
0.356837 0.188668 0.551796 175 175 175
0.355123 0.188941 0.551440 164 164 164
0.353123 0.188261 0.550871 143 143 145
0.351412 0.188535 0.550516 125 125 127
0.349701 0.188808 0.550160 118 118 120
0.347990 0.189081 0.549805 121 121 123
0.346279 0.189354 0.549449 121 121 125
0.344568 0.189627 0.549094 111 111 115
0.342857 0.189901 0.548738 107 107 111
0.341145 0.190174 0.548383 109 109 113
0.339700 0.191404 0.548236 105 108 111
0.337987 0.191677 0.547880 102 105 108
0.336534 0.192908 0.547731 101 104 107
0.335076 0.194140 0.547581 106 109 112
0.333614 0.195373 0.547430 109 112 115
0.332146 0.196606 0.547278 117 120 123
0.330673 0.197840 0.547125 133 133 137
0.328947 0.198116 0.546766 150 150 154
0.351850 0.190998 0.552835 182 181 183
0.349570 0.189365 0.552051 169 168 170
0.347856 0.189639 0.551695 154 153 155
0.346143 0.189913 0.551339 135 135 137
0.344429 0.190186 0.550983 123 123 125
0.342716 0.190460 0.550627 121 121 125
0.341002 0.190733 0.550271 121 121 125
0.339554 0.191963 0.550125 117 120 123
0.338100 0.193193 0.549979 112 115 118
0.336382 0.193468 0.549622 110 113 116
0.334921 0.194699 0.549474 108 111 114
0.333200 0.194974 0.549116 107 110 113
0.331731 0.196207 0.548967 105 108 111
0.330258 0.197441 0.548816 107 110 113
0.328532 0.197716 0.548457 112 115 118
0.327051 0.198951 0.548305 116 115 122
0.325079 0.198268 0.547740 135 134 141
0.323594 0.199503 0.547587 142 144 150
0.321865 0.199779 0.547228 152 154 160
0.346280 0.191424 0.553448 188 187 187
0.344562 0.191698 0.553091 181 180 180
0.342843 0.191972 0.552734 159 159 159
0.341124 0.192247 0.552377 139 139 139
0.339406 0.192521 0.552020 119 125 125
0.337687 0.192796 0.551663 113 119 119
0.336228 0.194026 0.551518 117 123 125
0.334507 0.194301 0.551160 114 120 122
0.333041 0.195533 0.551013 113 119 121
0.331317 0.195808 0.550655 112 118 120
0.329843 0.197041 0.550507 109 112 115
0.328117 0.197317 0.550149 108 111 114
0.326635 0.198551 0.549999 109 112 115
0.324907 0.198827 0.549640 109 112 115
0.323178 0.199103 0.549281 108 111 114
0.321449 0.199379 0.548922 115 118 121
0.319720 0.199655 0.548562 120 126 128
0.317992 0.199931 0.548203 129 135 137
0.316263 0.200207 0.547844 149 149 151
0.314534 0.200483 0.547485 165 165 167
0.341244 0.193758 0.554493 190 190 190
0.339521 0.194033 0.554135 180 180 180
0.337535 0.193353 0.553562 161 161 161
0.336073 0.194583 0.553419 140 143 144
0.334350 0.194859 0.553060 121 124 125
0.332880 0.196090 0.552916 119 122 123
0.331154 0.196366 0.552557 122 125 126
0.329677 0.197599 0.552411 117 120 121
0.327948 0.197875 0.552052 115 118 119
0.326219 0.198151 0.551693 110 113 116
0.324491 0.198427 0.551334 106 109 112
0.322762 0.198703 0.550974 106 112 114
0.321033 0.198979 0.550615 108 114 116
0.319305 0.199255 0.550256 107 113 115
0.317576 0.199531 0.549897 107 113 115
0.315847 0.199807 0.549538 114 117 118
0.314119 0.200083 0.549179 122 125 126
0.312614 0.201320 0.549027 134 137 138
0.310883 0.201596 0.548667 121 124 125
0.309151 0.201873 0.548308 162 162 166
0.335917 0.195140 0.555324 194 194 194
0.334191 0.195415 0.554966 183 183 183
0.332719 0.196647 0.554823 160 160 162
0.330990 0.196923 0.554464 140 140 142
0.329261 0.197199 0.554105 137 136 138
0.327532 0.197475 0.553746 130 129 131
0.325804 0.197751 0.553387 121 124 127
0.324075 0.198027 0.553027 115 118 121
0.322346 0.198303 0.552668 114 117 118
0.320618 0.198579 0.552309 113 116 117
0.319122 0.199814 0.552162 109 112 113
0.317391 0.200090 0.551802 109 112 113
0.315660 0.200367 0.551442 109 112 111
0.313929 0.200643 0.551083 108 111 110
0.312198 0.200919 0.550723 107 107 107
0.310466 0.201196 0.550364 102 102 102
0.308735 0.201472 0.550004 116 119 122
0.307004 0.201749 0.549644 138 141 144
0.305273 0.202025 0.549285 159 161 169
0.303541 0.202301 0.548925 174 176 184
0.330574 0.196523 0.556158 189 188 190
0.329093 0.197755 0.556016 190 189 191
0.327362 0.198031 0.555656 174 173 175
0.325388 0.197351 0.555080 150 150 152
0.323659 0.197627 0.554721 133 133 135
0.322168 0.198860 0.554577 123 123 125
0.320437 0.199137 0.554218 126 126 128
0.318706 0.199413 0.553858 122 125 124
0.316975 0.199690 0.553498 119 122 121
0.315244 0.199966 0.553139 114 117 116
0.313512 0.200242 0.552779 107 110 109
0.311781 0.200519 0.552419 107 107 107
0.310050 0.200795 0.552060 110 110 110
0.308319 0.201072 0.551700 108 111 112
0.306588 0.201348 0.551341 107 110 111
0.304856 0.201624 0.550981 108 110 116
0.303125 0.201901 0.550621 120 122 128
0.301394 0.202177 0.550262 142 141 148
0.299663 0.202454 0.549902 166 165 172
0.325215 0.197907 0.556993 188 188 190
0.323483 0.198183 0.556633 187 187 189
0.321752 0.198460 0.556274 175 175 177
0.320021 0.198736 0.555914 162 162 164
0.318290 0.199012 0.555554 136 139 140
0.316558 0.199289 0.555195 124 127 128
0.314827 0.199565 0.554835 127 130 129
0.313096 0.199842 0.554475 128 131 130
0.311365 0.200118 0.554116 124 124 124
0.309853 0.201354 0.553970 118 118 118
0.308120 0.201631 0.553610 116 116 116
0.306386 0.201908 0.553250 107 107 107
0.304652 0.202185 0.552890 108 111 112
0.302709 0.201500 0.552318 108 111 112
0.300978 0.201776 0.551958 105 108 111
0.299246 0.202053 0.551598 107 110 113
0.297515 0.202329 0.551239 121 121 125
0.295784 0.202606 0.550879 140 140 144
0.293856 0.201919 0.550310 160 160 162
0.318105 0.199569 0.557470 180 183 184
0.316371 0.199846 0.557109 170 173 174
0.314638 0.200123 0.556749 147 150 151
0.312904 0.200399 0.556389 134 137 138
0.311170 0.200676 0.556029 126 129 128
0.309436 0.200953 0.555669 124 127 126
0.307703 0.201230 0.555309 121 124 123
0.305969 0.201507 0.554949 116 119 118
0.304235 0.201783 0.554588 110 113 114
0.302501 0.202060 0.554228 109 112 113
0.300768 0.202337 0.553868 107 110 113
0.298830 0.201652 0.553295 102 105 108
0.297099 0.201929 0.552935 106 109 112
0.295368 0.202205 0.552575 107 110 113
0.293440 0.201518 0.552004 110 110 114
0.291711 0.201794 0.551645 126 126 130
0.289982 0.202070 0.551286 149 149 151
0.288254 0.202346 0.550927 169 169 171
0.286338 0.201658 0.550358 184 187 188
0.312710 0.200956 0.558308 181 184 185
0.310974 0.201233 0.557947 151 155 150
0.309019 0.200552 0.557368 145 149 144
0.307286 0.200829 0.557007 142 143 137
0.305552 0.201105 0.556647 132 133 127
0.303818 0.201382 0.556287 119 125 125
0.302085 0.201659 0.555927 115 121 121
0.300351 0.201936 0.555567 117 123 125
0.298617 0.202213 0.555207 112 118 120
0.296682 0.201528 0.554631 108 111 114
0.294951 0.201804 0.554272 109 112 115
0.293220 0.202081 0.553912 106 108 114
0.291489 0.202357 0.553552 106 108 114
0.289567 0.201670 0.552979 102 104 110
0.287838 0.201946 0.552620 110 112 118
0.286109 0.202222 0.552261 129 134 139
0.284197 0.201534 0.551691 150 155 160
0.282471 0.201810 0.551332 175 181 183
0.307084 0.201386 0.558927 189 190 181
0.305348 0.201663 0.558566 183 184 175
0.303612 0.201940 0.558206 167 167 167
0.301668 0.201258 0.557626 147 147 147
0.299934 0.201534 0.557266 128 128 130
0.298200 0.201811 0.556905 125 125 127
0.296466 0.202088 0.556545 120 123 126
0.294535 0.201403 0.555968 120 123 126
0.292804 0.201680 0.555608 116 119 122
0.291072 0.201956 0.555249 114 117 120
0.289341 0.202233 0.554889 108 114 116
0.287422 0.201546 0.554314 103 109 111
0.285693 0.201822 0.553955 98 103 108
0.283965 0.202098 0.553596 101 106 111
0.282236 0.202374 0.553237 113 118 123
0.280330 0.201686 0.552665 126 131 136
0.278779 0.202926 0.552519 150 155 162
0.277050 0.203202 0.552160 170 175 182
0.299722 0.202093 0.559185 193 192 192
0.297783 0.201410 0.558604 175 174 174
0.296049 0.201687 0.558244 145 145 147
0.294316 0.201964 0.557884 129 129 131
0.292582 0.202240 0.557524 124 127 130
0.290656 0.201556 0.556945 121 124 127
0.288925 0.201832 0.556585 120 126 128
0.287194 0.202108 0.556226 117 123 125
0.285278 0.201422 0.555649 107 113 115
0.283549 0.201698 0.555290 108 114 116
0.281820 0.201974 0.554931 103 108 113
0.280092 0.202250 0.554572 104 109 114
0.278363 0.202526 0.554212 103 108 113
0.276634 0.202802 0.553853 115 120 125
0.274905 0.203078 0.553494 134 139 146
0.273344 0.204320 0.553348 157 162 169
0.271613 0.204596 0.552989 178 181 184
0.293899 0.201562 0.559583 188 188 190
0.292165 0.201839 0.559222 172 175 178
0.290431 0.202116 0.558862 145 148 151
0.288698 0.202393 0.558502 126 129 132
0.286777 0.201708 0.557922 122 125 128
0.285046 0.201984 0.557562 124 130 130
0.283315 0.202261 0.557203 117 123 123
0.281584 0.202537 0.556843 112 118 118
0.279852 0.202813 0.556483 108 114 114
0.278121 0.203090 0.556124 101 107 107
0.276390 0.203366 0.555764 97 103 103
0.274659 0.203643 0.555404 100 105 110
0.272928 0.203919 0.555045 103 108 113
0.271196 0.204195 0.554685 119 121 127
0.269627 0.205438 0.554540 141 143 149
0.267893 0.205714 0.554180 176 179 180
0.290014 0.201715 0.560561 186 189 190
0.288281 0.201991 0.560201 184 187 188
0.286547 0.202268 0.559841 177 180 181
0.284813 0.202545 0.559480 147 150 149
0.282898 0.201860 0.558899 126 129 128
0.281167 0.202136 0.558539 117 123 123
0.279436 0.202413 0.558180 117 123 123
0.277705 0.202689 0.557820 118 124 126
0.275974 0.202965 0.557460 110 116 118
0.274242 0.203242 0.557101 105 111 113
0.272511 0.203518 0.556741 104 110 112
0.270780 0.203795 0.556381 105 107 113
0.269210 0.205036 0.556239 105 107 113
0.267476 0.205313 0.555879 119 119 121
0.265742 0.205590 0.555519 135 135 137
0.264009 0.205867 0.555159 157 160 161
0.284396 0.202144 0.561179 192 192 192
0.282663 0.202421 0.560819 182 182 182
0.280929 0.202697 0.560459 150 156 156
0.279195 0.202974 0.560099 131 137 137
0.277461 0.203251 0.559739 122 128 130
0.275557 0.202565 0.559157 120 126 128
0.273826 0.202841 0.558797 122 124 130
0.272095 0.203118 0.558437 114 116 122
0.270526 0.204358 0.558298 110 113 116
0.268793 0.204635 0.557938 110 113 116
0.267059 0.204912 0.557578 108 108 110
0.265325 0.205189 0.557217 108 108 110
0.263592 0.205465 0.556857 109 112 115
0.262008 0.206708 0.556715 131 134 137
0.260272 0.206986 0.556354 153 156 159
0.258681 0.208230 0.556210 173 176 179
0.278778 0.202573 0.561797 193 193 193
0.277044 0.202850 0.561437 176 176 178
0.275311 0.203126 0.561077 151 151 153
0.273577 0.203403 0.560717 133 136 139
0.271678 0.202717 0.560134 123 126 129
0.270109 0.203957 0.559997 127 130 133
0.268376 0.204234 0.559637 123 126 129
0.266642 0.204511 0.559276 120 123 124
0.264908 0.204787 0.558916 109 112 113
0.263175 0.205064 0.558556 104 110 110
0.261591 0.206307 0.558416 99 105 105
0.259854 0.206584 0.558055 99 107 108
0.258118 0.206861 0.557695 107 115 116
0.256524 0.208105 0.557552 142 145 146
0.254785 0.208383 0.557191 167 170 171
0.273160 0.203002 0.562416 183 186 189
0.271426 0.203279 0.562056 158 161 164
0.269693 0.203556 0.561695 135 138 141
0.267959 0.203832 0.561335 127 130 133
0.266225 0.204109 0.560975 123 126 127
0.264491 0.204386 0.560615 123 126 127
0.262758 0.204663 0.560255 115 121 121
0.261173 0.205905 0.560117 108 114 114
0.259437 0.206182 0.559757 108 114 114
0.257701 0.206459 0.559396 104 110 110
0.256106 0.207703 0.559256 98 104 106
0.254367 0.207980 0.558895 110 116 118
0.252628 0.208258 0.558534 135 141 143
0.251024 0.209503 0.558392 161 167 169
0.269276 0.203154 0.563394 187 190 193
0.267542 0.203431 0.563034 173 176 179
0.265808 0.203708 0.562674 148 151 150
0.264228 0.204948 0.562540 130 133 132
0.262492 0.205226 0.562179 128 131 130
0.260755 0.205503 0.561818 121 124 123
0.259019 0.205780 0.561458 112 118 120
0.257426 0.207023 0.561321 108 114 116
0.255688 0.207300 0.560960 111 117 119
0.253949 0.207578 0.560599 105 111 113
0.252210 0.207855 0.560237 103 109 111
0.250605 0.209100 0.560098 107 113 115
0.248994 0.210345 0.559958 133 139 141
0.247251 0.210624 0.559595 165 171 173
0.263810 0.204547 0.564241 187 187 187
0.262074 0.204824 0.563880 166 166 166
0.260486 0.206065 0.563747 139 139 139
0.258747 0.206343 0.563386 124 127 128
0.257008 0.206620 0.563025 122 125 126
0.255269 0.206898 0.562663 119 122 123
0.253531 0.207175 0.562302 114 117 118
0.251792 0.207453 0.561941 105 111 111
0.250053 0.207731 0.561580 108 114 114
0.248445 0.208975 0.561442 104 110 112
0.246704 0.209253 0.561081 110 116 118
0.245088 0.210499 0.560942 137 140 143
0.243344 0.210777 0.560580 169 172 175
0.258474 0.206904 0.565319 179 179 179
0.256732 0.207182 0.564957 151 151 151
0.254991 0.207460 0.564595 126 126 126
0.253113 0.206773 0.564006 129 129 129
0.251509 0.208016 0.563872 124 130 130
0.249767 0.208294 0.563510 114 120 120
0.248026 0.208572 0.563149 111 117 117
0.246412 0.209817 0.563013 105 111 111
0.244668 0.210095 0.562650 101 107 109
0.243047 0.211341 0.562513 110 116 118
0.241300 0.211619 0.562150 139 145 145
0.239671 0.212866 0.562011 167 173 173
0.254572 0.207057 0.566302 174 174 174
0.252831 0.207335 0.565940 152 152 152
0.251090 0.207613 0.565578 119 125 125
0.249349 0.207891 0.565216 121 127 127
0.247736 0.209134 0.565083 122 128 128
0.245993 0.209413 0.564721 113 119 119
0.244373 0.210658 0.564587 111 117 119
0.242627 0.210936 0.564224 105 111 113
0.240880 0.211215 0.563861 103 109 111
0.239367 0.213429 0.563951 112 118 120
0.237730 0.214677 0.563812 147 152 157
0.250938 0.209138 0.567749 176 176 176
0.249192 0.209417 0.567386 153 153 153
0.247445 0.209696 0.567023 124 127 128
0.245699 0.209975 0.566660 126 129 130
0.243953 0.210253 0.566298 121 124 127
0.242207 0.210532 0.565935 119 122 125
0.240579 0.211778 0.565801 108 114 116
0.238946 0.213024 0.565667 105 111 113
0.237308 0.214271 0.565531 100 107 111
0.235554 0.214551 0.565166 123 130 134
0.233801 0.214831 0.564802 156 161 168
0.247026 0.209292 0.568734 181 181 181
0.245279 0.209570 0.568371 150 150 150
0.243656 0.210815 0.568241 130 130 132
0.241907 0.211094 0.567878 126 126 128
0.240276 0.212339 0.567746 118 118 122
0.238525 0.212619 0.567383 114 114 118
0.236886 0.213865 0.567249 103 109 111
0.235243 0.215112 0.567115 103 109 111
0.233487 0.215393 0.566750 109 111 119
0.231730 0.215673 0.566385 130 132 140
0.230077 0.216922 0.566249 166 169 172
0.243358 0.211374 0.570190 185 185 187
0.241606 0.211654 0.569826 150 150 152
0.239972 0.212899 0.569696 131 130 132
0.238218 0.213179 0.569332 125 124 126
0.236465 0.213459 0.568968 124 124 126
0.234821 0.214706 0.568836 115 115 117
0.233064 0.214986 0.568471 110 113 116
0.231413 0.216234 0.568338 107 110 113
0.229756 0.217483 0.568203 121 121 123
0.227995 0.217764 0.567837 144 144 146
0.226331 0.219014 0.567701 174 174 176
0.239667 0.213458 0.571651 188 187 189
0.237911 0.213738 0.571286 151 150 152
0.236154 0.214019 0.570921 131 130 132
0.234507 0.215265 0.570792 123 122 124
0.232748 0.215546 0.570426 122 122 122
0.230990 0.215827 0.570061 110 110 110
0.229332 0.217075 0.569929 108 108 108
0.227571 0.217356 0.569563 105 105 105
0.225906 0.218605 0.569429 121 124 125
0.224143 0.218887 0.569063 157 160 161
0.222379 0.219169 0.568696 187 187 189
0.235954 0.215542 0.573118 166 165 165
0.234193 0.215824 0.572752 137 136 136
0.232431 0.216105 0.572386 124 124 124
0.230670 0.216386 0.572020 130 130 130
0.228909 0.216667 0.571655 119 122 121
0.227246 0.217916 0.571524 106 109 108
0.225482 0.218197 0.571158 109 112 113
0.223718 0.218479 0.570791 114 117 118
0.221954 0.218760 0.570425 142 145 148
0.220279 0.220011 0.570292 177 180 183
0.232113 0.216663 0.574351 153 153 149
0.230349 0.216944 0.573985 126 126 122
0.228586 0.217226 0.573619 129 130 126
0.226822 0.217507 0.573252 119 120 116
0.225058 0.217789 0.572886 109 112 111
0.223294 0.218071 0.572519 105 108 107
0.221530 0.218352 0.572153 105 111 113
0.219854 0.219602 0.572022 124 130 132
0.218088 0.219884 0.571655 164 167 170
0.229925 0.216536 0.575713 178 179 173
0.228161 0.216817 0.575347 143 143 137
0.226398 0.217099 0.574980 123 123 117
0.224634 0.217381 0.574614 123 126 125
0.222870 0.217662 0.574248 113 116 115
0.221196 0.218911 0.574120 108 114 116
0.219429 0.219193 0.573753 104 110 112
0.217663 0.219475 0.573386 115 117 123
0.215897 0.219757 0.573019 147 149 155
0.214210 0.221008 0.572889 185 188 189
0.226070 0.217656 0.576951 169 169 163
0.224304 0.217938 0.576584 131 131 131
0.222537 0.218220 0.576218 123 123 123
0.220771 0.218502 0.575851 115 118 119
0.219005 0.218784 0.575484 112 115 116
0.217238 0.219066 0.575117 107 110 113
0.215554 0.220316 0.574989 110 113 116
0.213785 0.220598 0.574622 138 141 144
0.212016 0.220881 0.574254 180 183 186
0.223879 0.217529 0.578315 189 190 186
0.222113 0.217811 0.577948 154 155 151
0.220435 0.219059 0.577825 115 118 117
0.218666 0.219342 0.577457 121 124 123
0.216897 0.219624 0.577090 119 122 123
0.215128 0.219907 0.576723 114 117 118
0.213359 0.220189 0.576355 108 111 112
0.211667 0.221439 0.576228 137 140 141
0.209895 0.221722 0.575861 183 186 187
0.220009 0.218650 0.579558 159 159 159
0.218240 0.218932 0.579191 123 123 123
0.216472 0.219215 0.578823 126 126 126
0.214783 0.220464 0.578700 123 123 123
0.213012 0.220747 0.578332 115 115 117
0.211241 0.221029 0.577964 111 111 113
0.209542 0.222280 0.577839 138 141 142
0.217900 0.219488 0.581172 167 167 163
0.216129 0.219771 0.580804 129 128 130
0.214357 0.220054 0.580436 125 124 126
0.212663 0.221303 0.580314 125 124 126
0.210889 0.221586 0.579946 120 119 121
0.209188 0.222837 0.579822 111 111 113
0.207411 0.223120 0.579453 153 153 155
0.217474 0.219078 0.582907 188 188 184
0.215784 0.220326 0.582789 180 174 178
0.214010 0.220609 0.582421 136 130 134
0.212313 0.221858 0.582301 128 124 125
0.210537 0.222142 0.581932 129 125 126
0.208760 0.222425 0.581563 119 122 121
0.207122 0.224643 0.581689 120 123 122
0.205341 0.224927 0.581318 174 177 178
0.215439 0.220880 0.584780 186 182 183
0.213662 0.221163 0.584411 183 179 180
0.211886 0.221447 0.584042 127 124 121
0.210183 0.222696 0.583923 127 124 121
0.208404 0.222980 0.583554 124 124 124
0.206694 0.224231 0.583434 114 114 114
0.204979 0.225482 0.583313 146 146 148
0.211610 0.222965 0.586290 180 180 176
0.209828 0.223250 0.585920 126 126 122
0.208117 0.224500 0.585802 124 123 123
0.206334 0.224784 0.585432 123 122 122
0.204550 0.225069 0.585061 117 120 121
0.202766 0.225354 0.584691 174 177 178
0.209472 0.223802 0.587921 173 173 169
0.207688 0.224087 0.587550 127 126 126
0.205904 0.224371 0.587180 129 128 128
0.204185 0.225622 0.587063 106 109 110
0.202399 0.225907 0.586692 152 155 156
0.209043 0.223389 0.589669 193 193 189
0.207329 0.224638 0.589556 149 149 149
0.205542 0.224923 0.589185 130 130 130
0.203820 0.226174 0.589070 107 113 113
0.202031 0.226459 0.588699 129 135 135
0.208757 0.224903 0.591938 193 189 190
0.206968 0.225188 0.591566 156 159 158
0.205179 0.225474 0.591195 126 129 128
0.203390 0.225760 0.590823 111 119 120
0.208326 0.224489 0.593691 168 167 167
0.206605 0.225737 0.593582 152 155 154
0.204814 0.226023 0.593209 123 126 125
0.203023 0.226309 0.592837 117 125 126
0.201231 0.226595 0.592465 116 124 125
0.206175 0.225323 0.595337 151 154 153
0.204383 0.225609 0.594965 119 122 121
0.202592 0.225895 0.594593 125 131 133
0.200800 0.226181 0.594220 119 125 127
0.205744 0.224908 0.597092 152 155 154
0.204017 0.226156 0.596987 113 116 115
0.202223 0.226443 0.596614 124 130 130
0.200369 0.225766 0.595976 122 128 128
0.205379 0.225455 0.599117 142 146 141
0.203585 0.225741 0.598745 107 111 106
0.201791 0.226028 0.598372 119 125 125
0.199997 0.226314 0.597999 121 127 127
0.206810 0.225714 0.601521 195 195 191
0.205013 0.226000 0.601148 124 127 126
0.203217 0.226287 0.600774 112 115 114
0.201360 0.225612 0.600130 115 121 121
0.199566 0.225899 0.599757 131 137 137
0.206378 0.225298 0.603281 189 189 189
0.204581 0.225585 0.602908 108 111 112
0.202785 0.225871 0.602535 114 117 118
0.200988 0.226158 0.602161 114 117 118
0.199192 0.226445 0.601788 147 150 151
0.206013 0.225841 0.605319 169 169 169
0.204214 0.226128 0.604945 108 111 112
0.202415 0.226416 0.604572 116 119 120
0.200616 0.226703 0.604198 114 117 116
0.198760 0.226029 0.603548 164 167 166
0.205580 0.225425 0.607082 142 142 142
0.203781 0.225712 0.606708 107 113 113
0.201982 0.225999 0.606334 119 125 125
0.200183 0.226286 0.605960 115 118 117
0.198384 0.226574 0.605587 183 186 185
0.206946 0.224721 0.609218 185 186 182
0.205147 0.225008 0.608844 117 118 114
0.203348 0.225296 0.608471 112 118 118
0.201549 0.225583 0.608097 118 124 124
0.199750 0.225870 0.607723 131 134 133
0.206514 0.224305 0.610981 155 156 152
0.204715 0.224592 0.610607 110 111 107
0.202916 0.224879 0.610233 119 125 123
0.201117 0.225166 0.609860 113 119 117
0.199318 0.225454 0.609486 156 162 162
0.207950 0.224557 0.613406 192 190 182
0.206148 0.224845 0.613032 118 119 115
0.204347 0.225133 0.612657 111 112 108
0.202483 0.224463 0.611996 119 125 125
0.200684 0.224750 0.611622 112 118 118
0.198885 0.225037 0.611248 170 176 176
0.209389 0.224808 0.615837 198 196 186
0.207585 0.225096 0.615462 172 170 160
0.205715 0.224428 0.614797 107 108 104
0.203913 0.224716 0.614422 121 122 118
0.202112 0.225003 0.614048 114 120 120
0.200310 0.225291 0.613674 134 140 140
0.209026 0.225345 0.617899 194 190 181
0.207151 0.224678 0.617230 130 126 117
0.205347 0.224966 0.616855 103 106 105
0.203543 0.225254 0.616480 122 125 124
0.201679 0.224586 0.615813 112 118 116
0.199877 0.224874 0.615439 165 171 169
0.210471 0.225592 0.620341 164 151 138
0.208592 0.224927 0.619669 156 154 146
0.206785 0.225215 0.619293 111 109 101
0.204914 0.224549 0.618622 113 116 117
0.203110 0.224837 0.618248 112 115 116
0.201245 0.224169 0.617578 135 138 137
0.210036 0.225173 0.622113 173 166 158
0.208227 0.225462 0.621738 117 116 116
0.206351 0.224797 0.621063 108 107 107
0.204480 0.224131 0.620390 117 120 119
0.202676 0.224419 0.620015 114 117 116
0.200872 0.224707 0.619640 162 165 164
0.209601 0.224755 0.623886 159 158 158
0.207792 0.225043 0.623510 107 110 111
0.205983 0.225332 0.623134 116 119 120
0.204110 0.224667 0.622458 120 123 124
0.202242 0.224002 0.621783 128 131 132
0.200438 0.224290 0.621408 177 180 179
0.211122 0.225950 0.626644 182 182 186
0.209237 0.225288 0.625963 123 123 127
0.207357 0.224625 0.625283 108 114 116
0.205548 0.224914 0.624907 120 126 128
0.203675 0.224249 0.624228 124 127 128
0.201869 0.224538 0.623853 143 146 147
0.200004 0.223872 0.623176 160 163 162
0.210685 0.225530 0.628422 149 151 157
0.208801 0.224868 0.627738 106 108 114
0.206922 0.224206 0.627055 112 117 124
0.205113 0.224495 0.626679 120 125 132
0.203304 0.224784 0.626304 125 131 131
0.201434 0.224120 0.625623 176 182 182
0.212138 0.225770 0.630886 178 178 180
0.210321 0.226060 0.630509 116 118 124
0.208365 0.224449 0.629513 106 108 114
0.206554 0.224738 0.629137 118 125 133
0.204678 0.224076 0.628452 114 121 129
0.202869 0.224365 0.628076 153 159 161
0.201060 0.224654 0.627700 178 184 186
0.211701 0.225350 0.632666 150 153 156
0.209884 0.225640 0.632289 108 113 118
0.207999 0.224980 0.631600 115 120 125
0.206118 0.224319 0.630911 119 124 129
0.204307 0.224608 0.630535 121 126 131
0.202434 0.223946 0.629849 180 182 188
0.211264 0.224930 0.634446 124 130 132
0.209448 0.225220 0.634069 105 113 114
0.207563 0.224560 0.633377 119 127 128
0.205749 0.224850 0.633000 118 124 126
0.203935 0.225139 0.632623 145 151 153
0.202060 0.224478 0.631934 188 188 192
0.212719 0.225167 0.636922 150 156 156
0.210900 0.225457 0.636544 106 112 112
0.209011 0.224799 0.635849 103 114 112
0.207194 0.225089 0.635471 122 133 131
0.205378 0.225379 0.635094 121 127 127
0.203561 0.225669 0.634717 177 183 183
0.214255 0.226349 0.639725 187 190 189
0.212282 0.224746 0.638704 118 126 125
0.210463 0.225036 0.638326 99 107 106
0.208574 0.224379 0.637628 115 126 124
0.206757 0.224669 0.637251 117 128 126
0.204941 0.224959 0.636874 154 160 158
0.213817 0.225927 0.641512 160 160 160
0.211919 0.225271 0.640810 110 113 114
0.210025 0.224615 0.640109 109 112 113
0.208206 0.224906 0.639731 112 120 119
0.206320 0.224248 0.639031 128 136 135
0.204504 0.224538 0.638654 184 187 186
0.215281 0.226158 0.644005 194 194 196
0.213378 0.225504 0.643299 126 126 128
0.211480 0.224850 0.642594 109 112 113
0.209659 0.225141 0.642216 121 124 125
0.207769 0.224485 0.641513 115 118 119
0.205950 0.224775 0.641135 163 166 167
0.214920 0.226680 0.646124 155 155 157
0.213015 0.226027 0.645415 110 110 112
0.211115 0.225374 0.644707 110 113 116
0.209291 0.225665 0.644328 121 124 127
0.207467 0.225956 0.643950 136 139 140
0.216309 0.225965 0.648296 185 185 189
0.214480 0.226257 0.647916 122 125 128
0.212651 0.226549 0.647536 109 112 115
0.210749 0.225896 0.646825 117 120 121
0.208923 0.226188 0.646446 117 120 121
0.207029 0.225534 0.645737 167 167 169
0.215869 0.225542 0.650088 151 154 157
0.214040 0.225834 0.649708 110 116 118
0.212211 0.226126 0.649328 115 121 123
0.210382 0.226418 0.648948 121 127 127
0.208553 0.226710 0.648568 122 128 128
0.206724 0.227002 0.648188 193 193 193
0.217421 0.226710 0.652935 170 176 178
0.215508 0.226061 0.652217 122 128 130
0.213676 0.226353 0.651837 116 124 125
0.211771 0.225702 0.651120 119 127 128
0.209942 0.225994 0.650740 119 125 125
0.208181 0.227230 0.650695 150 156 156
0.216979 0.226286 0.654733 133 139 141
0.215145 0.226579 0.654352 106 112 114
0.213236 0.225929 0.653631 113 121 122
0.211404 0.226222 0.653251 118 126 127
0.209573 0.226514 0.652870 128 134 132
0.207741 0.226806 0.652490 184 190 188
0.218372 0.225568 0.656911 165 168 169
0.216538 0.225861 0.656530 120 126 128
0.214704 0.226154 0.656149 108 114 116
0.212870 0.226447 0.655768 111 117 117
0.211036 0.226740 0.655387 114 120 120
0.209202 0.227033 0.655006 170 176 174
0.219850 0.225791 0.659435 193 193 197
0.217931 0.225144 0.658708 135 135 139
0.216097 0.225437 0.658327 109 112 115
0.214263 0.225730 0.657946 115 118 121
0.212429 0.226022 0.657565 120 126 124
0.210595 0.226315 0.657184 134 140 138
0.219408 0.225366 0.661234 160 160 164
0.217572 0.225659 0.660853 114 114 118
0.215656 0.225012 0.660124 106 109 110
0.213822 0.225305 0.659743 115 118 119
0.211988 0.225598 0.659362 124 130 128
0.210154 0.225891 0.658981 171 177 175
0.220803 0.224647 0.663415 168 168 170
0.218966 0.224940 0.663034 123 123 127
0.217130 0.225234 0.662652 114 114 118
0.215293 0.225527 0.662271 116 119 120
0.213457 0.225820 0.661889 116 119 120
0.211620 0.226113 0.661508 167 170 169
0.222286 0.224866 0.665951 184 187 190
0.220447 0.225159 0.665569 136 139 142
0.218525 0.224515 0.664833 114 117 120
0.216688 0.224809 0.664452 106 109 112
0.214852 0.225102 0.664070 115 118 119
0.213015 0.225395 0.663689 133 136 137
0.211178 0.225688 0.663307 190 190 190
0.223682 0.224147 0.668135 192 195 194
0.221843 0.224440 0.667753 143 149 151
0.220004 0.224734 0.667371 119 125 127
0.218165 0.225027 0.666989 107 113 115
0.216247 0.224383 0.666251 113 119 121
0.214410 0.224677 0.665870 115 121 121
0.212573 0.224970 0.665488 165 171 171
0.223329 0.224656 0.670297 163 166 165
0.221401 0.224015 0.669555 118 124 126
0.219562 0.224308 0.669173 106 112 114
0.217723 0.224602 0.668791 114 120 122
0.215884 0.224895 0.668409 114 120 122
0.213968 0.224252 0.667669 150 153 154
0.224728 0.223936 0.672484 175 181 183
0.222886 0.224230 0.672101 128 134 136
0.221045 0.224524 0.671719 117 123 125
0.219203 0.224818 0.671336 112 118 120
0.217281 0.224176 0.670593 117 123 123
0.215441 0.224470 0.670211 115 121 121
0.213602 0.224763 0.669829 190 194 189
0.226127 0.223216 0.674671 187 190 189
0.224285 0.223510 0.674288 140 148 149
0.222443 0.223804 0.673906 124 132 133
0.220602 0.224098 0.673523 106 114 115
0.218760 0.224392 0.673141 114 122 123
0.216918 0.224686 0.672758 117 123 121
0.215077 0.224980 0.672376 151 157 155
0.227525 0.222495 0.676858 198 201 200
0.225684 0.222790 0.676475 166 169 168
0.223932 0.224017 0.676461 127 132 137
0.222088 0.224311 0.676078 106 111 116
0.220243 0.224606 0.675694 111 119 120
0.218399 0.224900 0.675311 113 121 122
0.216476 0.224260 0.674563 133 140 134
0.227176 0.223001 0.679034 173 176 177
0.225332 0.223296 0.678651 128 131 132
0.223488 0.223590 0.678268 111 116 121
0.221644 0.223884 0.677884 105 110 115
0.219800 0.224179 0.677501 113 119 119
0.217956 0.224473 0.677118 119 125 125
0.216112 0.224768 0.676735 181 185 178
0.228577 0.222280 0.681224 185 188 187
0.226733 0.222574 0.680841 131 134 137
0.224980 0.223800 0.680831 121 124 127
0.223222 0.225027 0.680820 107 112 117
0.221372 0.225323 0.680436 113 118 123
0.219523 0.225618 0.680052 114 120 118
0.217674 0.225913 0.679668 160 166 164
0.230173 0.223418 0.684168 191 194 197
0.228324 0.223714 0.683784 140 143 146
0.226475 0.224009 0.683400 126 128 134
0.224626 0.224304 0.683016 106 108 114
0.222777 0.224599 0.682632 104 110 112
0.220928 0.224895 0.682248 114 120 122
0.219161 0.226122 0.682238 145 148 147
0.217310 0.226418 0.681853 197 200 199
0.231678 0.223624 0.686745 203 203 205
0.229826 0.223920 0.686360 151 154 157
0.227880 0.223286 0.685596 133 136 139
0.226030 0.223581 0.685212 109 111 117
0.224181 0.223876 0.684828 106 108 114
0.222419 0.225102 0.684821 117 120 123
0.220653 0.226329 0.684814 129 132 135
0.218798 0.226625 0.684429 186 189 188
0.231332 0.224124 0.688942 171 170 177
0.229477 0.224420 0.688556 128 130 136
0.227623 0.224716 0.688171 127 129 135
0.225769 0.225012 0.687786 109 111 117
0.223915 0.225308 0.687401 119 121 127
0.222061 0.225604 0.687016 124 127 128
0.220207 0.225900 0.686630 162 165 166
0.232942 0.225254 0.691915 186 185 192
0.230984 0.224623 0.691143 140 139 146
0.229128 0.224919 0.690758 123 125 131
0.227271 0.225215 0.690372 119 121 127
0.225323 0.224583 0.689603 120 123 126
0.223469 0.224879 0.689218 121 124 127
0.221701 0.226105 0.689215 140 143 142
0.219928 0.227331 0.689211 199 202 201
0.234457 0.225453 0.694511 195 195 197
0.232595 0.225750 0.694125 144 143 150
0.230636 0.225120 0.693350 130 129 136
0.228777 0.225417 0.692964 116 118 124
0.226917 0.225714 0.692578 119 121 127
0.225058 0.226011 0.692192 121 124 125
0.223199 0.226307 0.691805 124 127 128
0.221340 0.226604 0.691419 186 189 188
0.234112 0.225948 0.696727 159 159 163
0.232248 0.226245 0.696339 136 135 144
0.230286 0.225616 0.695562 126 125 134
0.228424 0.225914 0.695175 115 117 123
0.226563 0.226211 0.694789 116 118 124
0.224701 0.226508 0.694402 117 123 123
0.222839 0.226805 0.694015 168 174 174
0.235632 0.226143 0.699335 171 170 177
0.233765 0.226442 0.698947 137 136 143
0.231799 0.225814 0.698166 129 128 137
0.229935 0.226111 0.697779 116 115 124
0.228071 0.226409 0.697391 117 120 123
0.226207 0.226707 0.697004 115 118 121
0.224253 0.226077 0.696226 151 154 155
0.237156 0.226337 0.701949 187 187 189
0.235183 0.225711 0.701164 130 129 136
0.233316 0.226009 0.700776 128 127 134
0.231351 0.225382 0.699993 110 109 116
0.229487 0.225680 0.699605 110 109 116
0.227623 0.225978 0.699218 122 122 126
0.225758 0.226275 0.698831 138 138 142
0.223894 0.226573 0.698444 194 197 198
0.238576 0.225606 0.704168 193 196 197
0.236706 0.225905 0.703780 147 150 151
0.234734 0.225279 0.702993 131 130 137
0.232867 0.225577 0.702605 115 114 121
0.230903 0.224951 0.701819 105 105 109
0.229038 0.225249 0.701432 119 119 123
0.227174 0.225546 0.701045 126 126 128
0.225401 0.226770 0.701054 185 185 187
0.240105 0.225797 0.706791 197 200 199
0.238126 0.225173 0.706000 156 162 164
0.236257 0.225472 0.705612 124 130 132
0.234285 0.224847 0.704822 120 122 128
0.232418 0.225145 0.704434 105 107 113
0.230552 0.225443 0.704046 117 117 121
0.228685 0.225741 0.703658 118 118 122
0.226818 0.226039 0.703271 173 173 175
0.239655 0.225364 0.708625 180 183 184
0.237676 0.224741 0.707831 134 141 145
0.235807 0.225039 0.707443 120 127 131
0.233836 0.224415 0.706651 104 111 115
0.231969 0.224713 0.706263 116 123 127
0.230103 0.225011 0.705875 121 124 127
0.228236 0.225309 0.705487 151 154 157
0.226369 0.225607 0.705100 201 201 205
0.241077 0.224632 0.710848 193 198 203
0.239205 0.224930 0.710459 145 150 155
0.237227 0.224308 0.709663 121 128 134
0.235358 0.224607 0.709275 106 113 119
0.233489 0.224905 0.708886 106 113 117
0.231521 0.224281 0.708092 118 125 129
0.229654 0.224579 0.707704 125 131 131
0.227881 0.225800 0.707721 185 191 191
0.240627 0.224198 0.712682 160 165 172
0.238755 0.224497 0.712293 120 125 132
0.236777 0.223876 0.711494 114 121 127
0.234908 0.224174 0.711106 99 106 112
0.233039 0.224472 0.710718 119 125 127
0.231170 0.224771 0.710329 113 119 121
0.229301 0.225069 0.709941 160 166 166
0.242048 0.223466 0.714905 181 184 185
0.240176 0.223765 0.714516 127 134 140
0.238305 0.224064 0.714127 118 125 131
0.236328 0.223443 0.713326 98 105 109
0.234459 0.223741 0.712937 109 116 120
0.232589 0.224040 0.712549 113 119 119
0.230720 0.224338 0.712161 153 159 159
0.243470 0.222734 0.717127 195 201 203
0.241598 0.223033 0.716739 147 153 155
0.239726 0.223332 0.716350 117 124 130
0.237855 0.223631 0.715961 107 114 120
0.235983 0.223930 0.715572 113 118 125
0.234111 0.224229 0.715183 118 123 130
0.232239 0.224527 0.714795 141 147 149
0.230368 0.224826 0.714406 189 195 197
0.243020 0.222301 0.718961 159 161 167
0.241148 0.222600 0.718573 123 125 131
0.239276 0.222899 0.718184 110 117 123
0.237404 0.223198 0.717795 109 116 122
0.235533 0.223496 0.717406 120 125 132
0.233661 0.223795 0.717017 122 127 134
0.231789 0.224094 0.716628 186 188 194
0.244441 0.221569 0.721184 175 175 177
0.242569 0.221868 0.720795 120 122 128
0.240698 0.222167 0.720407 120 122 128
0.238826 0.222466 0.720018 111 118 122
0.236954 0.222764 0.719629 116 123 127
0.235083 0.223063 0.719240 114 119 124
0.233211 0.223362 0.718851 161 166 171
0.245980 0.221752 0.723832 186 189 192
0.244106 0.222051 0.723443 138 141 144
0.242232 0.222351 0.723054 127 129 135
0.240358 0.222650 0.722664 119 121 127
0.238376 0.222032 0.721852 119 124 129
0.236504 0.222331 0.721463 119 124 129
0.234632 0.222630 0.721074 148 151 154
0.247404 0.221019 0.726058 199 199 199
0.245530 0.221318 0.725669 152 154 160
0.243655 0.221618 0.725279 122 124 130
0.241781 0.221917 0.724890 114 116 122
0.239907 0.222216 0.724501 117 119 125
0.238033 0.222515 0.724111 120 123 126
0.236159 0.222815 0.723722 126 129 132
0.234284 0.223114 0.723333 192 192 194
0.248949 0.221199 0.728715 203 203 203
0.247072 0.221499 0.728325 178 178 178
0.245195 0.221799 0.727935 119 124 129
0.243319 0.222098 0.727545 115 120 125
0.241442 0.222398 0.727156 115 120 125
0.239565 0.222698 0.726766 115 120 125
0.237689 0.222997 0.726376 122 122 124
0.235812 0.223297 0.725986 174 174 176
0.248498 0.220765 0.730554 187 187 189
0.246621 0.221065 0.730164 130 130 132
0.244744 0.221364 0.729774 114 119 124
0.242867 0.221664 0.729384 118 123 128
0.240991 0.221964 0.728994 120 125 130
0.239114 0.222263 0.728605 115 120 125
0.237237 0.222563 0.728215 155 158 159
0.250046 0.220943 0.733219 200 200 202
0.248167 0.221243 0.732829 144 147 150
0.246287 0.221543 0.732439 120 123 126
0.244408 0.221843 0.732048 113 118 123
0.242529 0.222143 0.731658 119 124 129
0.240650 0.222443 0.731267 115 121 123
0.251598 0.221118 0.735891 200 203 204
0.249594 0.220508 0.735061 149 152 153
0.247715 0.220808 0.734670 120 125 130
0.245835 0.221108 0.734280 119 124 129
0.244071 0.222320 0.734327 116 123 127
0.242189 0.222621 0.733936 117 124 128
0.240307 0.222921 0.733545 124 130 130
0.238533 0.224135 0.733590 184 190 190
0.253154 0.221292 0.738568 206 206 208
0.251145 0.220683 0.737735 163 169 171
0.249264 0.220983 0.737344 125 131 133
0.247382 0.221284 0.736953 113 120 126
0.245500 0.221584 0.736562 117 124 130
0.243732 0.222796 0.736611 114 121 125
0.241848 0.223097 0.736220 130 137 141
0.240073 0.224311 0.736267 183 186 187
0.252827 0.221765 0.740860 184 187 190
0.250940 0.222067 0.740468 126 133 139
0.248932 0.221458 0.739632 110 117 123
0.247166 0.222669 0.739684 112 119 125
0.245280 0.222970 0.739292 113 120 126
0.243393 0.223271 0.738900 116 119 120
0.241617 0.224484 0.738950 167 170 171
0.254516 0.222844 0.743997 189 194 201
0.252498 0.222237 0.743156 132 137 144
0.250486 0.221630 0.742316 109 119 124
0.248599 0.221931 0.741924 109 119 124
0.246713 0.222232 0.741532 117 124 130
0.244941 0.223444 0.741586 117 124 130
0.243165 0.224656 0.741639 159 159 161
0.256082 0.223011 0.746694 201 201 205
0.254061 0.222406 0.745850 150 157 163
0.252169 0.222708 0.745457 112 119 125
0.250155 0.222102 0.744615 107 117 122
0.248265 0.222403 0.744222 112 122 127
0.246494 0.223614 0.744278 119 126 130
0.244717 0.224826 0.744333 131 138 142
0.242822 0.225128 0.743940 193 193 195
0.257653 0.223176 0.749398 201 204 207
0.255627 0.222573 0.748550 160 163 166
0.253732 0.222875 0.748157 114 121 127
0.251838 0.223177 0.747763 106 113 119
0.249822 0.222572 0.746918 111 118 122
0.248050 0.223782 0.746976 119 126 130
0.246155 0.224085 0.746583 127 135 134
0.244261 0.224387 0.746189 183 191 190
0.257197 0.222737 0.751256 168 173 180
0.255300 0.223040 0.750862 115 120 127
0.253277 0.222437 0.750013 100 107 115
0.251383 0.222739 0.749619 107 114 122
0.249488 0.223041 0.749226 118 126 127
0.247594 0.223344 0.748832 117 125 126
0.245816 0.224554 0.748892 167 175 174
0.258904 0.223805 0.754428 190 190 192
0.256740 0.222298 0.753115 124 129 136
0.254844 0.222601 0.752721 107 112 119
0.252947 0.222904 0.752327 106 113 119
0.251050 0.223207 0.751933 120 127 133
0.249153 0.223510 0.751539 118 124 124
0.247256 0.223813 0.751145 164 170 170
0.260348 0.223061 0.756687 198 201 204
0.258446 0.223365 0.756292 148 151 154
0.256544 0.223668 0.755896 111 116 125
0.254515 0.223067 0.755040 111 116 125
0.252491 0.222465 0.754185 111 116 121
0.250594 0.222768 0.753791 114 119 124
0.248697 0.223071 0.753397 155 158 159
0.246918 0.224280 0.753462 193 196 197
0.261929 0.223220 0.759411 203 203 205
0.260025 0.223524 0.759015 157 159 167
0.257989 0.222925 0.758155 115 117 125
0.256087 0.223228 0.757760 114 119 126
0.254185 0.223532 0.757365 117 122 129
0.252159 0.222931 0.756507 121 124 127
0.250381 0.224139 0.756575 149 152 155
0.248480 0.224443 0.756180 190 190 190
0.261471 0.222779 0.761277 163 166 169
0.259567 0.223083 0.760881 112 117 124
0.257663 0.223387 0.760485 114 119 126
0.255758 0.223691 0.760090 118 123 130
0.253728 0.223092 0.759228 118 123 130
0.251826 0.223395 0.758833 124 127 128
0.249924 0.223699 0.758438 178 181 182
0.263056 0.222935 0.764009 183 188 193
0.261149 0.223240 0.763613 120 125 130
0.259109 0.222642 0.762747 107 114 120
0.257205 0.222946 0.762351 114 121 127
0.255300 0.223251 0.761956 115 120 125
0.253396 0.223555 0.761560 120 125 130
0.251492 0.223859 0.761164 171 174 173
0.264504 0.222190 0.766273 191 194 193
0.262597 0.222494 0.765877 134 141 147
0.260690 0.222799 0.765481 106 113 119
0.258784 0.223103 0.765085 111 121 126
0.256877 0.223407 0.764689 116 126 131
0.254970 0.223712 0.764293 114 120 122
0.252938 0.223114 0.763426 158 164 166
0.251156 0.224321 0.763501 190 190 190
0.266094 0.222343 0.769015 193 199 201
0.264185 0.222648 0.768618 150 156 158
0.262276 0.222953 0.768221 106 113 117
0.260366 0.223258 0.767825 111 118 122
0.258457 0.223562 0.767428 116 123 127
0.256548 0.223867 0.767032 114 121 125
0.254638 0.224172 0.766635 151 154 155
0.252729 0.224477 0.766238 186 189 190
0.267688 0.222495 0.771762 198 201 204
0.265635 0.221901 0.770886 157 162 169
0.263726 0.222206 0.770489 108 113 120
0.261816 0.222511 0.770092 108 113 118
0.259907 0.222816 0.769696 120 125 130
0.257998 0.223121 0.769299 117 120 123
0.256088 0.223425 0.768902 136 139 142
0.254179 0.223730 0.768506 190 190 192
0.267229 0.222052 0.773635 170 172 178
0.265317 0.222357 0.773238 113 118 125
0.263405 0.222663 0.772841 110 115 122
0.261493 0.222968 0.772444 112 118 120
0.259581 0.223273 0.772047 115 121 123
0.257669 0.223578 0.771650 135 135 137
0.255757 0.223884 0.771253 188 188 190
0.268826 0.222201 0.776391 171 173 181
0.266912 0.222507 0.775993 116 118 126
0.264857 0.221915 0.775112 110 115 122
0.262945 0.222220 0.774714 115 120 127
0.261033 0.222525 0.774317 120 126 128
0.259254 0.223729 0.774403 127 133 135
0.257340 0.224035 0.774005 182 182 184
0.270280 0.221452 0.778665 176 175 182
0.268365 0.221758 0.778267 115 117 127
0.266451 0.222063 0.777869 112 114 124
0.264537 0.222369 0.777472 113 118 125
0.262622 0.222675 0.777074 117 122 129
0.260708 0.222980 0.776676 119 125 127
0.258794 0.223286 0.776278 172 178 180
0.272032 0.222493 0.781921 174 176 186
0.269966 0.221904 0.781031 115 117 127
0.268049 0.222210 0.780633 111 116 123
0.265991 0.221620 0.779745 114 119 126
0.264076 0.221926 0.779347 121 123 129
0.262162 0.222232 0.778950 117 119 125
0.260382 0.223434 0.779040 164 164 166
0.273490 0.221742 0.784200 181 184 187
0.271570 0.222048 0.783801 115 120 127
0.269651 0.222355 0.783403 110 115 122
0.267731 0.222661 0.783004 117 119 125
0.265671 0.222073 0.782113 120 122 128
0.263754 0.222379 0.781715 119 119 123
0.261837 0.222685 0.781317 152 152 156
0.275100 0.221884 0.786977 178 183 188
0.273178 0.222191 0.786577 121 126 131
0.271109 0.221604 0.785682 108 113 118
0.269189 0.221911 0.785283 113 118 123
0.267270 0.222217 0.784884 121 124 127
0.265350 0.222524 0.784486 116 119 122
0.263431 0.222830 0.784087 152 151 151
0.276560 0.221132 0.789259 172 175 176
0.274638 0.221439 0.788860 112 117 124
0.272716 0.221746 0.788460 105 110 117
0.270794 0.222053 0.788061 113 118 125
0.268872 0.222360 0.787662 118 123 130
0.266950 0.222667 0.787263 117 117 121
0.265029 0.222973 0.786863 152 152 156
0.278020 0.220381 0.791541 179 185 187
0.276098 0.220688 0.791142 131 137 139
0.274176 0.220994 0.790743 103 108 115
0.272403 0.222193 0.790845 114 119 126
0.270479 0.222500 0.790445 117 119 127
0.268554 0.222808 0.790046 112 114 122
0.266630 0.223115 0.789646 156 155 157
0.264705 0.223422 0.789246 190 189 191
0.277713 0.220826 0.793930 133 138 145
0.275789 0.221133 0.793530 103 108 115
0.273865 0.221441 0.793131 107 112 119
0.270162 0.222947 0.792835 119 118 125
0.268235 0.223254 0.792434 143 142 149
0.266308 0.223562 0.792034 194 193 193
0.282861 0.218570 0.796505 191 189 179
0.280939 0.218877 0.796106 176 179 180
0.279175 0.220073 0.796215 126 129 130
0.277251 0.220381 0.795816 102 109 115
0.275479 0.221578 0.795923 109 116 122
0.273552 0.221886 0.795523 117 122 127
0.271625 0.222193 0.795123 110 115 120
0.269698 0.222501 0.794723 143 142 144
0.284321 0.217819 0.798788 172 169 166
0.282399 0.218126 0.798388 170 167 164
0.280637 0.219321 0.798501 115 114 121
0.278712 0.219628 0.798101 110 109 116
0.276943 0.220824 0.798212 112 115 118
0.275016 0.221132 0.797812 116 119 122
0.273089 0.221439 0.797411 114 114 116
0.271162 0.221747 0.797011 146 146 148
0.283858 0.217374 0.800671 133 129 134
0.281936 0.217681 0.800272 113 109 114
0.280015 0.217988 0.799872 104 103 107
0.278249 0.219182 0.799987 115 114 118
0.276479 0.220378 0.800100 121 121 123
0.274552 0.220686 0.799700 116 116 118
0.272625 0.220994 0.799299 144 143 143
0.270845 0.222191 0.799410 191 190 190
0.283396 0.216929 0.802554 85 83 90
0.281474 0.217236 0.802155 97 95 102
0.279711 0.218430 0.802272 117 116 118
0.277787 0.218737 0.801872 122 121 123
0.276016 0.219932 0.801988 114 114 114
0.274089 0.220240 0.801588 137 137 137
0.272311 0.221436 0.801702 191 190 190
0.282934 0.216484 0.804437 79 81 87
0.281173 0.217677 0.804557 110 112 118
0.279248 0.217984 0.804157 121 121 123
0.277324 0.218292 0.803758 115 115 117
0.275552 0.219486 0.803876 143 143 139
0.273626 0.219794 0.803476 191 191 187
0.284724 0.217502 0.807765 101 103 109
0.282797 0.217810 0.807365 107 112 117
0.280870 0.218117 0.806965 119 124 129
0.278943 0.218425 0.806565 110 113 114
0.277171 0.219619 0.806685 153 156 157
0.282495 0.218248 0.809778 112 117 122
0.280566 0.218556 0.809377 118 123 128
0.278636 0.218864 0.808976 164 164 164
0.282354 0.219569 0.812723 120 126 126
0.280578 0.220763 0.812848 165 171 171
0.282210 0.220888 0.815678 169 177 176
