ply
format ascii 1.0
element vertex 801
property float x
property float y
property float z
property uchar red
property uchar green
property uchar blue
end_header
0.245625 0.188947 0.883000 159 146 150
0.247907 0.188947 0.883000 147 134 138
0.250473 0.189161 0.884000 153 130 129
0.252758 0.189161 0.884000 196 173 172
0.245625 0.191232 0.883000 115 94 93
0.248188 0.191449 0.884000 104 83 82
0.250473 0.191449 0.884000 117 80 77
0.252758 0.191449 0.884000 151 114 111
0.243343 0.193517 0.883000 117 107 107
0.245625 0.193517 0.883000 108 80 77
0.248188 0.193736 0.884000 106 78 75
0.250473 0.193736 0.884000 113 72 64
0.252758 0.193736 0.884000 154 113 105
0.255331 0.193956 0.885000 218 202 197
0.243343 0.195802 0.883000 116 104 102
0.245625 0.195802 0.883000 110 78 72
0.248188 0.196024 0.884000 113 81 75
0.250756 0.196246 0.885000 117 75 63
0.252758 0.196024 0.884000 177 135 123
0.255042 0.196024 0.884000 227 208 202
0.243343 0.198088 0.883000 111 99 97
0.245625 0.198088 0.883000 111 77 69
0.248188 0.198312 0.884000 109 75 67
0.250756 0.198536 0.885000 126 81 68
0.252758 0.198312 0.884000 197 152 139
0.255042 0.198312 0.884000 225 206 200
0.243343 0.200373 0.883000 108 91 91
0.245625 0.200373 0.883000 111 73 66
0.248188 0.200600 0.884000 114 76 69
0.250473 0.200600 0.884000 133 88 75
0.252758 0.200600 0.884000 215 170 157
0.243619 0.202887 0.884000 102 83 81
0.245903 0.202887 0.884000 117 74 65
0.248188 0.202887 0.884000 112 69 60
0.250473 0.202887 0.884000 142 100 88
0.252472 0.202658 0.883000 230 188 176
0.243619 0.205175 0.884000 104 81 78
0.245903 0.205175 0.884000 119 73 65
0.248188 0.205175 0.884000 117 71 63
0.250473 0.205175 0.884000 153 113 100
0.252472 0.204943 0.883000 234 194 181
0.241334 0.207463 0.884000 131 108 103
0.243619 0.207463 0.884000 103 80 75
0.245903 0.207463 0.884000 122 75 64
0.248188 0.207463 0.884000 123 76 65
0.250473 0.207463 0.884000 180 140 127
0.252472 0.207228 0.883000 237 197 184
0.241880 0.210225 0.886000 133 108 101
0.243894 0.209988 0.885000 99 74 67
0.245903 0.209751 0.884000 118 69 57
0.248188 0.209751 0.884000 127 78 66
0.250473 0.209751 0.884000 199 164 149
0.252472 0.209513 0.883000 234 199 184
0.241880 0.212518 0.886000 118 91 85
0.243894 0.212278 0.885000 104 77 71
0.246182 0.212278 0.885000 117 68 56
0.248469 0.212278 0.885000 136 87 75
0.250473 0.212039 0.884000 211 177 165
0.241880 0.214811 0.886000 113 81 75
0.244170 0.214811 0.886000 106 74 68
0.246182 0.214569 0.885000 117 71 55
0.248469 0.214569 0.885000 157 111 95
0.250473 0.214326 0.884000 219 188 177
0.239590 0.217104 0.886000 147 130 130
0.241880 0.217104 0.886000 109 75 67
0.244170 0.217104 0.886000 109 75 67
0.246460 0.217104 0.886000 119 71 56
0.248469 0.216859 0.885000 171 123 108
0.250756 0.216859 0.885000 224 198 187
0.239590 0.219397 0.886000 129 113 110
0.241880 0.219397 0.886000 112 71 65
0.244170 0.219397 0.886000 116 75 69
0.246460 0.219397 0.886000 128 77 63
0.248750 0.219397 0.886000 193 142 128
0.250756 0.219149 0.885000 223 201 193
0.239590 0.221690 0.886000 115 94 93
0.241880 0.221690 0.886000 113 70 61
0.244170 0.221690 0.886000 115 72 63
0.246460 0.221690 0.886000 133 87 71
0.248750 0.221690 0.886000 213 167 151
0.239860 0.224236 0.887000 106 83 80
0.242153 0.224236 0.887000 120 74 66
0.244445 0.224236 0.887000 114 68 60
0.246738 0.224236 0.887000 145 101 85
0.249030 0.224236 0.887000 227 183 167
0.237836 0.226787 0.888000 151 125 121
0.240131 0.226787 0.888000 101 75 71
0.242426 0.226787 0.888000 122 75 62
0.244721 0.226787 0.888000 122 75 62
0.247016 0.226787 0.888000 162 122 107
0.249311 0.226787 0.888000 232 192 177
0.237836 0.229085 0.888000 131 104 98
0.240131 0.229085 0.888000 103 76 70
0.242426 0.229085 0.888000 119 67 56
0.244721 0.229085 0.888000 131 79 68
0.247016 0.229085 0.888000 186 149 135
0.249311 0.229085 0.888000 234 197 183
0.237836 0.231383 0.888000 122 92 87
0.240131 0.231383 0.888000 105 75 70
0.242699 0.231643 0.889000 121 68 55
0.244997 0.231643 0.889000 140 87 74
0.247294 0.231643 0.889000 202 167 152
0.249592 0.231643 0.889000 233 198 183
0.237836 0.233681 0.888000 117 80 75
0.240131 0.233681 0.888000 111 74 69
0.242699 0.233944 0.889000 122 69 54
0.244997 0.233944 0.889000 161 108 93
0.247294 0.233944 0.889000 220 186 176
0.235541 0.235979 0.888000 136 119 119
0.237836 0.235979 0.888000 110 72 65
0.240401 0.236245 0.889000 114 76 69
0.242699 0.236245 0.889000 120 69 55
0.244997 0.236245 0.889000 180 129 115
0.247294 0.236245 0.889000 226 197 187
0.235541 0.238277 0.888000 119 99 100
0.237836 0.238277 0.888000 110 69 63
0.240401 0.238546 0.889000 114 73 67
0.242699 0.238546 0.889000 127 79 64
0.244997 0.238546 0.889000 198 150 135
0.247294 0.238546 0.889000 221 199 189
0.235541 0.240575 0.888000 109 88 85
0.237836 0.240575 0.888000 115 72 63
0.240401 0.240846 0.889000 110 67 58
0.242699 0.240846 0.889000 143 95 80
0.244997 0.240846 0.889000 218 170 155
0.247294 0.240846 0.889000 216 196 186
0.235541 0.242873 0.888000 106 80 78
0.237836 0.242873 0.888000 120 75 64
0.240401 0.243147 0.889000 113 68 57
0.242699 0.243147 0.889000 160 114 98
0.244997 0.243147 0.889000 230 184 168
0.233508 0.245448 0.889000 143 116 110
0.235541 0.245172 0.888000 103 76 70
0.237836 0.245172 0.888000 121 74 61
0.240401 0.245448 0.889000 119 72 59
0.242699 0.245448 0.889000 177 133 117
0.244997 0.245448 0.889000 235 191 175
0.233508 0.247748 0.889000 124 94 89
0.235541 0.247470 0.888000 104 74 69
0.237836 0.247470 0.888000 117 68 56
0.240401 0.247748 0.889000 126 77 65
0.242699 0.247748 0.889000 199 159 144
0.244997 0.247748 0.889000 232 192 177
0.233508 0.250049 0.889000 115 80 75
0.235541 0.249768 0.888000 112 77 72
0.237836 0.249768 0.888000 117 69 54
0.240401 0.250049 0.889000 134 86 71
0.242699 0.250049 0.889000 213 180 165
0.233508 0.252350 0.889000 110 74 66
0.235541 0.252066 0.888000 113 77 69
0.237836 0.252066 0.888000 118 67 53
0.240131 0.252066 0.888000 154 103 89
0.242699 0.252350 0.889000 220 189 178
0.231211 0.254650 0.889000 130 114 111
0.233246 0.254364 0.888000 110 72 65
0.235541 0.254364 0.888000 110 72 65
0.237836 0.254364 0.888000 120 69 55
0.240401 0.254650 0.889000 173 122 108
0.242699 0.254650 0.889000 221 195 184
0.231211 0.256951 0.889000 113 92 89
0.233246 0.256662 0.888000 123 77 71
0.235541 0.256662 0.888000 113 67 61
0.237836 0.256662 0.888000 126 80 64
0.240401 0.256951 0.889000 199 153 137
0.242699 0.256951 0.889000 221 199 189
0.231211 0.259252 0.889000 108 85 82
0.233246 0.258960 0.888000 126 79 68
0.235541 0.258960 0.888000 116 69 58
0.237836 0.258960 0.888000 138 92 76
0.240401 0.259252 0.889000 222 176 160
0.228913 0.261553 0.889000 133 107 103
0.231211 0.261553 0.889000 110 84 80
0.233246 0.261258 0.888000 128 76 65
0.235541 0.261258 0.888000 121 69 58
0.238104 0.261553 0.889000 154 110 94
0.240401 0.261553 0.889000 232 188 172
0.228913 0.263853 0.889000 127 102 95
0.231211 0.263853 0.889000 108 83 76
0.233246 0.263556 0.888000 127 74 61
0.235541 0.263556 0.888000 125 72 59
0.238104 0.263853 0.889000 179 134 121
0.240401 0.263853 0.889000 234 189 176
0.228913 0.266154 0.889000 120 90 83
0.231211 0.266154 0.889000 115 85 78
0.233246 0.265855 0.888000 122 69 54
0.235806 0.266154 0.889000 133 80 65
0.238104 0.266154 0.889000 203 163 150
0.226870 0.268757 0.890000 127 113 107
0.228913 0.268455 0.889000 118 87 78
0.231211 0.268455 0.889000 114 83 74
0.233508 0.268455 0.889000 121 68 53
0.235806 0.268455 0.889000 148 95 80
0.238104 0.268455 0.889000 217 181 169
0.226870 0.271060 0.890000 117 101 96
0.228913 0.270755 0.889000 125 89 79
0.231211 0.270755 0.889000 118 82 72
0.233508 0.270755 0.889000 125 72 57
0.235806 0.270755 0.889000 172 119 104
0.238104 0.270755 0.889000 223 194 184
0.226870 0.273363 0.890000 116 97 91
0.229170 0.273363 0.890000 129 91 80
0.231211 0.273056 0.889000 112 74 63
0.233508 0.273056 0.889000 130 77 62
0.235806 0.273056 0.889000 199 146 131
0.238104 0.273056 0.889000 222 197 188
0.224570 0.275667 0.890000 139 117 109
0.226870 0.275667 0.890000 117 95 87
0.228913 0.275357 0.889000 129 84 73
0.231471 0.275667 0.890000 116 71 60
0.233771 0.275667 0.890000 143 95 78
0.236071 0.275667 0.890000 219 171 154
0.224570 0.277970 0.890000 129 102 94
0.226870 0.277970 0.890000 118 91 83
0.229170 0.277970 0.890000 122 74 59
0.231471 0.277970 0.890000 118 70 55
0.233771 0.277970 0.890000 165 121 105
0.236071 0.277970 0.890000 229 185 169
0.224570 0.280273 0.890000 125 94 85
0.226870 0.280273 0.890000 118 87 78
0.229170 0.280273 0.890000 121 70 52
0.231471 0.280273 0.890000 129 78 60
0.233771 0.280273 0.890000 187 147 132
0.236071 0.280273 0.890000 231 191 176
0.222270 0.282576 0.890000 129 113 108
0.224570 0.282576 0.890000 128 92 82
0.226870 0.282576 0.890000 122 86 76
0.229170 0.282576 0.890000 119 68 50
0.231471 0.282576 0.890000 147 96 78
0.233771 0.282576 0.890000 204 173 160
0.222270 0.284880 0.890000 119 98 95
0.224570 0.284880 0.890000 132 90 78
0.226870 0.284880 0.890000 119 77 65
0.229170 0.284880 0.890000 123 75 56
0.231471 0.284880 0.890000 173 125 106
0.233771 0.284880 0.890000 214 193 180
0.220464 0.287828 0.892000 144 119 112
0.222270 0.287183 0.890000 115 90 83
0.224570 0.287183 0.890000 129 81 66
0.226870 0.287183 0.890000 115 67 52
0.229170 0.287183 0.890000 133 85 66
0.231471 0.287183 0.890000 208 160 141
0.233771 0.287183 0.890000 211 196 186
0.220464 0.290137 0.892000 135 103 97
0.222519 0.289811 0.891000 119 87 81
0.224570 0.289486 0.890000 127 74 59
0.226870 0.289486 0.890000 119 66 51
0.229170 0.289486 0.890000 153 112 93
0.231471 0.289486 0.890000 227 186 167
0.220464 0.292445 0.892000 124 86 77
0.222769 0.292445 0.892000 121 83 74
0.224822 0.292117 0.891000 124 68 52
0.226870 0.291790 0.890000 131 75 59
0.229170 0.291790 0.890000 182 147 132
0.231471 0.291790 0.890000 229 194 179
0.218158 0.294754 0.892000 129 106 101
0.220464 0.294754 0.892000 123 74 64
0.222769 0.294754 0.892000 125 76 66
0.225075 0.294754 0.892000 120 67 50
0.227125 0.294423 0.891000 163 110 93
0.229428 0.294423 0.891000 215 189 176
0.215853 0.297062 0.892000 153 123 116
0.218158 0.297062 0.892000 122 92 85
0.220464 0.297062 0.892000 128 72 58
0.222769 0.297062 0.892000 125 69 55
0.225075 0.297062 0.892000 138 90 73
0.227380 0.297062 0.892000 203 155 138
0.229685 0.297062 0.892000 214 196 187
0.213548 0.299371 0.892000 160 141 139
0.215853 0.299371 0.892000 135 97 88
0.218158 0.299371 0.892000 116 78 69
0.220464 0.299371 0.892000 128 72 58
0.222769 0.299371 0.892000 127 71 57
0.225075 0.299371 0.892000 167 127 112
0.227380 0.299371 0.892000 223 183 168
0.213548 0.301679 0.892000 147 121 117
0.215853 0.301679 0.892000 132 80 69
0.218403 0.302017 0.893000 124 72 61
0.220711 0.302017 0.893000 123 70 55
0.222769 0.301679 0.892000 150 97 82
0.225075 0.301679 0.892000 201 172 158
0.208937 0.303988 0.892000 162 141 138
0.211242 0.303988 0.892000 152 109 102
0.213787 0.304328 0.893000 129 86 79
0.216095 0.304328 0.893000 133 73 58
0.218647 0.304669 0.894000 126 66 51
0.220958 0.304669 0.894000 139 93 77
0.223019 0.304328 0.893000 200 154 138
0.206631 0.306296 0.892000 173 134 130
0.209171 0.306639 0.893000 149 110 106
0.211479 0.306639 0.893000 144 84 71
0.213787 0.306639 0.893000 139 79 66
0.216095 0.306639 0.893000 133 75 59
0.218647 0.306983 0.894000 140 82 66
0.220958 0.306983 0.894000 175 144 133
0.223269 0.306983 0.894000 218 187 176
0.202020 0.308605 0.892000 183 141 138
0.204326 0.308605 0.892000 162 120 117
0.206863 0.308950 0.893000 153 95 83
0.209171 0.308950 0.893000 137 79 67
0.211716 0.309296 0.894000 141 78 64
0.214026 0.309296 0.894000 137 74 60
0.216337 0.309296 0.894000 136 89 76
0.218647 0.309296 0.894000 186 139 126
0.192799 0.310913 0.892000 198 165 166
0.195104 0.310913 0.892000 190 157 158
0.197410 0.310913 0.892000 180 130 127
0.199715 0.310913 0.892000 160 110 107
0.202020 0.310913 0.892000 155 90 81
0.204326 0.310913 0.892000 147 82 73
0.206631 0.310913 0.892000 146 78 66
0.208937 0.310913 0.892000 147 79 67
0.211479 0.311262 0.893000 134 78 66
0.213787 0.311262 0.893000 153 97 85
0.216337 0.311610 0.894000 184 158 147
0.183783 0.313573 0.893000 202 169 168
0.186091 0.313573 0.893000 189 156 155
0.188188 0.313221 0.892000 185 138 137
0.190493 0.313221 0.892000 170 123 122
0.192799 0.313221 0.892000 162 101 95
0.195104 0.313221 0.892000 155 94 88
0.197631 0.313573 0.893000 159 87 76
0.199715 0.313221 0.892000 155 83 72
0.202020 0.313221 0.892000 156 86 72
0.204326 0.313221 0.892000 153 83 69
0.206863 0.313573 0.893000 140 82 66
0.209171 0.313573 0.893000 152 94 78
0.211479 0.313573 0.893000 172 136 124
0.213787 0.313573 0.893000 208 172 160
0.172436 0.316237 0.894000 197 164 163
0.174746 0.316237 0.894000 194 147 146
0.177057 0.316237 0.894000 187 140 139
0.179167 0.315884 0.893000 183 131 122
0.181475 0.315884 0.893000 177 125 116
0.183783 0.315884 0.893000 174 113 105
0.186299 0.316237 0.894000 165 104 96
0.188399 0.315884 0.893000 165 97 85
0.190707 0.315884 0.893000 161 93 81
0.193015 0.315884 0.893000 162 91 75
0.195323 0.315884 0.893000 160 89 73
0.197852 0.316237 0.894000 153 86 71
0.199939 0.315884 0.893000 151 84 69
0.202247 0.315884 0.893000 145 87 71
0.204555 0.315884 0.893000 157 99 83
0.206863 0.315884 0.893000 165 130 115
0.209171 0.315884 0.893000 200 165 150
0.151980 0.319264 0.896000 198 165 164
0.154295 0.319264 0.896000 196 163 162
0.156611 0.319264 0.896000 194 155 151
0.158927 0.319264 0.896000 188 149 145
0.161063 0.318907 0.895000 186 140 134
0.163376 0.318907 0.895000 179 133 127
0.165504 0.318551 0.894000 182 128 120
0.167815 0.318551 0.894000 171 117 109
0.170125 0.318551 0.894000 169 106 94
0.172436 0.318551 0.894000 165 102 90
0.174746 0.318551 0.894000 167 96 85
0.177057 0.318551 0.894000 162 91 80
0.179367 0.318551 0.894000 161 90 74
0.181678 0.318551 0.894000 163 92 76
0.183989 0.318551 0.894000 162 91 75
0.186299 0.318551 0.894000 160 89 73
0.188610 0.318551 0.894000 160 93 76
0.190920 0.318551 0.894000 159 92 75
0.193231 0.318551 0.894000 149 87 70
0.195542 0.318551 0.894000 148 86 69
0.197852 0.318551 0.894000 145 97 82
0.200163 0.318551 0.894000 164 116 101
0.202473 0.318551 0.894000 174 143 134
0.204784 0.318551 0.894000 203 172 163
0.138393 0.322300 0.898000 189 154 151
0.140714 0.322300 0.898000 180 145 142
0.143035 0.322300 0.898000 180 134 126
0.145032 0.321582 0.896000 169 123 115
0.147348 0.321582 0.896000 167 113 103
0.149664 0.321582 0.896000 158 104 94
0.151810 0.321224 0.895000 162 102 91
0.154123 0.321224 0.895000 162 102 91
0.156262 0.320865 0.894000 158 93 82
0.158572 0.320865 0.894000 161 96 85
0.160883 0.320865 0.894000 164 96 84
0.163011 0.320506 0.893000 165 97 85
0.165319 0.320506 0.893000 168 97 81
0.167627 0.320506 0.893000 163 92 76
0.169935 0.320506 0.893000 162 91 75
0.172243 0.320506 0.893000 162 91 75
0.174551 0.320506 0.893000 156 86 70
0.176859 0.320506 0.893000 162 92 76
0.179367 0.320865 0.894000 153 86 69
0.181678 0.320865 0.894000 153 86 69
0.183989 0.320865 0.894000 147 90 71
0.186299 0.320865 0.894000 146 89 70
0.188610 0.320865 0.894000 145 97 80
0.190920 0.320865 0.894000 155 107 90
0.193231 0.320865 0.894000 163 127 115
0.195760 0.321224 0.895000 181 145 133
0.197852 0.320865 0.894000 189 168 163
0.126789 0.324624 0.898000 181 148 147
0.129110 0.324624 0.898000 183 137 131
0.131723 0.325347 0.900000 170 124 118
0.133751 0.324624 0.898000 165 108 101
0.136072 0.324624 0.898000 157 100 93
0.138393 0.324624 0.898000 157 94 82
0.140714 0.324624 0.898000 154 91 79
0.143035 0.324624 0.898000 158 94 78
0.145032 0.323901 0.896000 157 93 77
0.147348 0.323901 0.896000 157 90 75
0.149497 0.323540 0.895000 156 89 74
0.151640 0.323178 0.894000 152 88 72
0.153951 0.323178 0.894000 152 88 72
0.156262 0.323178 0.894000 154 90 74
0.158395 0.322817 0.893000 149 85 69
0.160703 0.322817 0.893000 148 86 69
0.162828 0.322455 0.892000 146 84 67
0.165134 0.322455 0.892000 144 85 67
0.167439 0.322455 0.892000 146 87 69
0.169745 0.322455 0.892000 145 87 71
0.172050 0.322455 0.892000 146 88 72
0.174355 0.322455 0.892000 145 97 82
0.176661 0.322455 0.892000 152 104 89
0.178966 0.322455 0.892000 156 116 103
0.181475 0.322817 0.893000 166 126 113
0.183783 0.322817 0.893000 171 142 132
0.186299 0.323178 0.894000 188 159 149
0.188610 0.323178 0.894000 194 174 166
0.115184 0.326948 0.898000 187 150 145
0.117505 0.326948 0.898000 171 134 129
0.119826 0.326948 0.898000 173 125 117
0.122147 0.326948 0.898000 163 115 107
0.124468 0.326948 0.898000 160 100 89
0.126789 0.326948 0.898000 155 95 84
0.129110 0.326948 0.898000 157 93 77
0.131431 0.326948 0.898000 157 93 77
0.133751 0.326948 0.898000 161 94 79
0.136072 0.326948 0.898000 163 96 81
0.138393 0.326948 0.898000 158 94 78
0.140401 0.326220 0.896000 155 91 75
0.142717 0.326220 0.896000 146 87 69
0.145032 0.326220 0.896000 145 86 68
0.147184 0.325856 0.895000 143 85 69
0.149497 0.325856 0.895000 143 85 69
0.151640 0.325492 0.894000 141 88 73
0.153951 0.325492 0.894000 144 91 76
0.156087 0.325128 0.893000 143 97 81
0.158217 0.324764 0.892000 145 99 83
0.160523 0.324764 0.892000 145 103 89
0.162828 0.324764 0.892000 153 111 97
0.165134 0.324764 0.892000 161 127 115
0.167439 0.324764 0.892000 171 137 125
0.169745 0.324764 0.892000 181 152 142
0.172050 0.324764 0.892000 186 157 147
0.174355 0.324764 0.892000 183 162 157
0.176661 0.324764 0.892000 187 166 161
0.105900 0.329272 0.898000 179 138 132
0.107980 0.328539 0.896000 168 127 121
0.110542 0.329272 0.898000 166 109 102
0.112612 0.328539 0.896000 158 101 94
0.114927 0.328539 0.896000 158 95 83
0.117243 0.328539 0.896000 155 92 80
0.119559 0.328539 0.896000 160 93 78
0.121875 0.328539 0.896000 164 97 82
0.124191 0.328539 0.896000 163 97 77
0.126789 0.329272 0.898000 161 95 75
0.129110 0.329272 0.898000 159 95 77
0.131431 0.329272 0.898000 156 92 74
0.133751 0.329272 0.898000 148 91 72
0.136072 0.329272 0.898000 147 90 71
0.138393 0.329272 0.898000 140 92 75
0.140401 0.328539 0.896000 144 96 79
0.142717 0.328539 0.896000 154 114 99
0.145032 0.328539 0.896000 160 120 105
0.147184 0.328172 0.895000 165 134 123
0.149330 0.327806 0.894000 174 143 132
0.151640 0.327806 0.894000 178 153 144
0.153779 0.327439 0.893000 179 154 145
0.155912 0.327072 0.892000 178 160 151
0.158217 0.327072 0.892000 186 168 159
0.094506 0.332335 0.900000 175 144 142
0.096832 0.332335 0.900000 175 131 129
0.098938 0.331596 0.898000 164 120 118
0.101258 0.331596 0.898000 163 106 97
0.103579 0.331596 0.898000 155 98 89
0.105900 0.331596 0.898000 156 91 78
0.107980 0.330858 0.896000 155 90 77
0.110296 0.330858 0.896000 156 86 70
0.112612 0.330858 0.896000 158 88 72
0.114927 0.330858 0.896000 162 92 76
0.117243 0.330858 0.896000 160 90 74
0.119559 0.330858 0.896000 152 88 70
0.121875 0.330858 0.896000 154 90 72
0.124191 0.330858 0.896000 148 91 72
0.126789 0.331596 0.898000 147 90 71
0.129110 0.331596 0.898000 144 98 80
0.131431 0.331596 0.898000 152 106 88
0.133751 0.331596 0.898000 156 120 108
0.136072 0.331596 0.898000 172 136 124
0.138393 0.331596 0.898000 181 156 147
0.140714 0.331596 0.898000 191 166 157
0.082967 0.335036 0.901000 177 140 137
0.085201 0.334664 0.900000 165 128 125
0.087527 0.334664 0.900000 168 115 109
0.089853 0.334664 0.900000 156 103 97
0.092180 0.334664 0.900000 149 89 78
0.094506 0.334664 0.900000 145 85 74
0.096617 0.333920 0.898000 151 83 71
0.098938 0.333920 0.898000 150 82 70
0.101258 0.333920 0.898000 150 86 68
0.103579 0.333920 0.898000 150 86 68
0.105900 0.333920 0.898000 149 87 68
0.107980 0.333177 0.896000 147 85 66
0.110296 0.333177 0.896000 143 81 64
0.112612 0.333177 0.896000 146 84 67
0.114927 0.333177 0.896000 143 90 73
0.117243 0.333177 0.896000 148 95 78
0.119559 0.333177 0.896000 148 106 92
0.121875 0.333177 0.896000 166 124 110
0.124468 0.333920 0.898000 172 143 131
0.126789 0.333920 0.898000 181 152 140
0.129110 0.333920 0.898000 181 161 153
0.073407 0.336244 0.898000 178 141 138
0.075728 0.336244 0.898000 171 134 131
0.078049 0.336244 0.898000 160 110 103
0.080549 0.336993 0.900000 147 97 90
0.082875 0.336993 0.900000 153 90 76
0.085201 0.336993 0.900000 148 85 71
0.087527 0.336993 0.900000 151 81 65
0.089853 0.336993 0.900000 149 79 63
0.092180 0.336993 0.900000 149 82 65
0.094506 0.336993 0.900000 149 82 65
0.096617 0.336244 0.898000 140 78 59
0.098938 0.336244 0.898000 142 80 61
0.101258 0.336244 0.898000 138 82 66
0.103579 0.336244 0.898000 141 85 69
0.105900 0.336244 0.898000 145 99 83
0.107980 0.335495 0.896000 157 111 95
0.110296 0.335495 0.896000 156 122 110
0.112612 0.335495 0.896000 174 140 128
0.114927 0.335495 0.896000 178 154 142
0.117243 0.335495 0.896000 183 159 147
0.066445 0.338568 0.898000 171 136 133
0.068765 0.338568 0.898000 168 118 111
0.071086 0.338568 0.898000 158 108 101
0.073407 0.338568 0.898000 149 89 76
0.075897 0.339322 0.900000 142 82 69
0.078223 0.339322 0.900000 149 82 67
0.080549 0.339322 0.900000 146 79 64
0.082875 0.339322 0.900000 149 82 65
0.085201 0.339322 0.900000 149 82 65
0.087625 0.339699 0.901000 146 84 67
0.089853 0.339322 0.900000 142 80 63
0.092180 0.339322 0.900000 141 85 69
0.094611 0.339699 0.901000 149 93 77
0.096939 0.339699 0.901000 148 107 90
0.099158 0.339322 0.900000 157 116 99
0.101258 0.338568 0.898000 160 129 118
0.103579 0.338568 0.898000 176 145 134
0.105900 0.338568 0.898000 174 156 147
0.054840 0.340892 0.898000 183 150 149
0.057161 0.340892 0.898000 174 141 140
0.059349 0.340133 0.896000 172 124 118
0.061803 0.340892 0.898000 160 112 106
0.064124 0.340892 0.898000 153 95 83
0.066445 0.340892 0.898000 146 88 76
0.068765 0.340892 0.898000 149 82 67
0.071086 0.340892 0.898000 149 82 67
0.073571 0.341651 0.900000 150 83 66
0.075897 0.341651 0.900000 150 83 66
0.078223 0.341651 0.900000 146 84 65
0.080639 0.342031 0.901000 143 81 62
0.082875 0.341651 0.900000 140 87 72
0.085201 0.341651 0.900000 146 93 78
0.087722 0.342411 0.902000 149 109 94
0.090053 0.342411 0.902000 169 129 114
0.092384 0.342411 0.902000 174 145 135
0.094716 0.342411 0.902000 183 154 144
0.043235 0.343216 0.898000 180 154 150
0.045556 0.343216 0.898000 178 143 140
0.047770 0.342452 0.896000 169 134 131
0.050086 0.342452 0.896000 166 118 112
0.052402 0.342452 0.896000 153 105 99
0.054718 0.342452 0.896000 155 95 84
0.057033 0.342452 0.896000 147 87 76
0.059349 0.342452 0.896000 147 80 65
0.061665 0.342452 0.896000 149 82 67
0.063981 0.342452 0.896000 150 83 68
0.066445 0.343216 0.898000 151 84 69
0.068765 0.343216 0.898000 146 84 67
0.071086 0.343216 0.898000 144 82 65
0.073571 0.343981 0.900000 135 83 63
0.075981 0.344363 0.901000 143 91 71
0.078310 0.344363 0.901000 151 111 96
0.080639 0.344363 0.901000 170 130 115
0.082967 0.344363 0.901000 178 152 141
0.031560 0.344771 0.896000 180 143 140
0.033876 0.344771 0.896000 172 135 132
0.036192 0.344771 0.896000 168 122 116
0.038507 0.344771 0.896000 161 115 109
0.040823 0.344771 0.896000 156 104 93
0.043139 0.344771 0.896000 147 95 84
0.045455 0.344771 0.896000 146 88 74
0.047770 0.344771 0.896000 144 86 72
0.050086 0.344771 0.896000 145 81 65
0.052343 0.344386 0.895000 148 84 68
0.054657 0.344386 0.895000 154 90 74
0.057033 0.344771 0.896000 149 85 69
0.059349 0.344771 0.896000 146 84 67
0.061665 0.344771 0.896000 143 81 64
0.063981 0.344771 0.896000 139 81 65
0.066445 0.345540 0.898000 145 87 71
0.068765 0.345540 0.898000 147 102 89
0.071086 0.345540 0.898000 165 120 107
0.073653 0.346695 0.901000 171 142 130
0.075981 0.346695 0.901000 186 157 145
0.017666 0.347089 0.896000 175 140 137
0.019959 0.346702 0.895000 172 137 134
0.022272 0.346702 0.895000 176 130 124
0.024585 0.346702 0.895000 161 115 109
0.026899 0.346702 0.895000 157 103 93
0.029212 0.346702 0.895000 149 95 85
0.031525 0.346702 0.895000 147 84 72
0.033838 0.346702 0.895000 146 83 71
0.036151 0.346702 0.895000 144 81 67
0.038464 0.346702 0.895000 143 80 66
0.040823 0.347089 0.896000 146 87 69
0.043091 0.346702 0.895000 145 86 68
0.045404 0.346702 0.895000 144 87 68
0.047664 0.346315 0.894000 144 87 68
0.049974 0.346315 0.894000 142 83 65
0.052285 0.346315 0.894000 140 81 63
0.054657 0.346702 0.895000 139 86 69
0.056970 0.346702 0.895000 142 89 72
0.059283 0.346702 0.895000 141 99 85
0.061665 0.347089 0.896000 154 112 98
0.063981 0.347089 0.896000 167 136 125
0.066445 0.347864 0.898000 183 152 141
0.003788 0.350968 0.900000 173 145 142
0.006114 0.350968 0.900000 169 141 138
0.008421 0.350188 0.898000 171 132 128
0.010742 0.350188 0.898000 164 125 121
0.013063 0.350188 0.898000 163 110 104
0.015350 0.349408 0.896000 150 97 91
0.017666 0.349408 0.896000 149 89 76
0.019959 0.349018 0.895000 145 85 72
0.022272 0.349018 0.895000 145 80 67
0.024585 0.349018 0.895000 140 75 62
0.026899 0.349018 0.895000 138 74 58
0.029212 0.349018 0.895000 141 77 61
0.031525 0.349018 0.895000 140 78 61
0.033800 0.348628 0.894000 137 75 58
0.036111 0.348628 0.894000 137 80 61
0.038421 0.348628 0.894000 138 81 62
0.040778 0.349018 0.895000 133 82 66
0.043091 0.349018 0.895000 133 82 66
0.045353 0.348628 0.894000 134 90 72
0.047664 0.348628 0.894000 137 93 75
0.049974 0.348628 0.894000 146 108 97
0.052285 0.348628 0.894000 163 125 114
0.054596 0.348628 0.894000 164 137 129
0.056970 0.349018 0.895000 172 145 137
-0.010146 0.352512 0.898000 174 146 143
-0.007843 0.353297 0.900000 169 141 138
-0.005517 0.353297 0.900000 168 130 123
-0.003190 0.353297 0.900000 163 125 118
-0.000864 0.353297 0.900000 158 110 102
0.001462 0.353297 0.900000 151 103 95
0.003788 0.353297 0.900000 153 96 87
0.006114 0.353297 0.900000 144 87 78
0.008421 0.352512 0.898000 144 81 69
0.010742 0.352512 0.898000 142 79 67
0.013063 0.352512 0.898000 145 77 65
0.015350 0.351727 0.896000 149 81 69
0.017666 0.351727 0.896000 148 86 69
0.019981 0.351727 0.896000 143 81 64
0.022297 0.351727 0.896000 142 83 65
0.024613 0.351727 0.896000 138 79 61
0.026899 0.351335 0.895000 132 76 60
0.029212 0.351335 0.895000 138 82 66
0.031525 0.351335 0.895000 137 91 75
0.033838 0.351335 0.895000 144 98 82
0.036111 0.350942 0.894000 146 110 98
0.038421 0.350942 0.894000 153 117 105
0.040732 0.350942 0.894000 162 133 123
0.043043 0.350942 0.894000 173 144 134
-0.024125 0.355626 0.900000 174 143 141
-0.021799 0.355626 0.900000 168 137 135
-0.019473 0.355626 0.900000 169 127 124
-0.017109 0.354836 0.898000 162 120 117
-0.014788 0.354836 0.898000 161 111 106
-0.012467 0.354836 0.898000 153 103 98
-0.010146 0.354836 0.898000 146 92 84
-0.007825 0.354836 0.898000 139 85 77
-0.005504 0.354836 0.898000 146 86 73
-0.003183 0.354836 0.898000 140 80 67
-0.000862 0.354836 0.898000 142 78 62
0.001462 0.355626 0.900000 143 79 63
0.003788 0.355626 0.900000 146 84 67
0.006114 0.355626 0.900000 144 82 65
0.008440 0.355626 0.900000 144 82 65
0.010742 0.354836 0.898000 142 80 63
0.013063 0.354836 0.898000 138 81 62
0.015384 0.354836 0.898000 138 81 62
0.017705 0.354836 0.898000 133 85 68
0.019981 0.354046 0.896000 138 90 73
0.022297 0.354046 0.896000 141 101 86
0.024613 0.354046 0.896000 155 115 100
0.026929 0.354046 0.896000 159 128 115
0.029212 0.353651 0.895000 174 143 130
0.031525 0.353651 0.895000 168 150 139
-0.035676 0.357160 0.898000 171 140 140
-0.033355 0.357160 0.898000 169 127 124
-0.031034 0.357160 0.898000 158 116 113
-0.028714 0.357160 0.898000 153 105 99
-0.026393 0.357160 0.898000 145 97 91
-0.024072 0.357160 0.898000 151 94 85
-0.021751 0.357160 0.898000 146 89 80
-0.019430 0.357160 0.898000 148 85 73
-0.017109 0.357160 0.898000 143 80 68
-0.014788 0.357160 0.898000 142 77 64
-0.012467 0.357160 0.898000 144 79 66
-0.010146 0.357160 0.898000 143 78 65
-0.007825 0.357160 0.898000 142 77 64
-0.005504 0.357160 0.898000 144 85 67
-0.003183 0.357160 0.898000 139 80 62
-0.000862 0.357160 0.898000 131 74 55
0.001459 0.357160 0.898000 131 74 55
0.003788 0.357956 0.900000 130 77 60
0.006100 0.357160 0.898000 135 82 65
0.008421 0.357160 0.898000 137 91 75
0.010742 0.357160 0.898000 146 100 84
0.013063 0.357160 0.898000 150 114 102
0.015384 0.357160 0.898000 160 124 112
0.017705 0.357160 0.898000 162 140 130
0.020026 0.357160 0.898000 170 148 138
-0.049712 0.360285 0.900000 152 128 130
-0.047281 0.359484 0.898000 159 120 116
-0.044960 0.359484 0.898000 152 113 109
-0.042639 0.359484 0.898000 147 99 91
-0.040228 0.358684 0.896000 140 92 84
-0.037913 0.358684 0.896000 144 87 78
-0.035597 0.358684 0.896000 139 82 73
-0.033355 0.359484 0.898000 138 78 65
-0.030965 0.358684 0.896000 139 79 66
-0.028650 0.358684 0.896000 140 77 63
-0.026393 0.359484 0.898000 141 78 64
-0.024072 0.359484 0.898000 146 84 67
-0.021751 0.359484 0.898000 140 78 61
-0.019430 0.359484 0.898000 135 76 58
-0.017109 0.359484 0.898000 139 80 62
-0.014788 0.359484 0.898000 136 79 60
-0.012467 0.359484 0.898000 133 76 57
-0.010146 0.359484 0.898000 129 76 59
-0.007825 0.359484 0.898000 134 81 64
-0.005504 0.359484 0.898000 133 89 73
-0.003183 0.359484 0.898000 140 96 80
-0.000862 0.359484 0.898000 151 111 96
0.001459 0.359484 0.898000 160 120 105
0.003779 0.359484 0.898000 158 129 117
0.006100 0.359484 0.898000 167 138 126
0.008421 0.359484 0.898000 169 149 141
-0.054546 0.363823 0.903000 114 98 95
-0.052096 0.363017 0.901000 126 85 79
-0.049712 0.362614 0.900000 125 84 78
-0.047281 0.361808 0.898000 137 74 62
-0.044960 0.361808 0.898000 136 73 61
-0.042544 0.361002 0.896000 135 75 62
-0.040228 0.361002 0.896000 132 72 59
-0.037913 0.361002 0.896000 134 76 60
-0.035597 0.361002 0.896000 140 82 66
-0.033281 0.361002 0.896000 138 80 64
-0.030965 0.361002 0.896000 136 78 62
-0.028650 0.361002 0.896000 134 78 62
-0.026334 0.361002 0.896000 134 78 62
-0.024018 0.361002 0.896000 132 81 65
-0.021751 0.361808 0.898000 136 85 69
-0.019430 0.361808 0.898000 134 93 76
-0.017109 0.361808 0.898000 143 102 85
-0.014788 0.361808 0.898000 151 118 103
-0.012467 0.361808 0.898000 164 131 116
-0.010146 0.361808 0.898000 165 139 126
-0.007825 0.361808 0.898000 171 145 132
-0.054546 0.366160 0.903000 112 96 91
-0.052096 0.365349 0.901000 112 78 70
-0.049712 0.364943 0.900000 112 78 70
-0.047281 0.364132 0.898000 124 73 59
-0.044960 0.364132 0.898000 124 73 59
-0.042544 0.363321 0.896000 123 75 60
-0.040228 0.363321 0.896000 126 78 63
-0.037913 0.363321 0.896000 127 82 69
-0.035597 0.363321 0.896000 138 93 80
-0.033281 0.363321 0.896000 144 104 91
-0.030965 0.363321 0.896000 151 111 98
-0.028650 0.363321 0.896000 157 121 109
-0.026334 0.363321 0.896000 165 129 117
-0.024018 0.363321 0.896000 164 138 127
-0.021702 0.363321 0.896000 170 144 133
-0.052154 0.368088 0.902000 122 103 97
-0.049712 0.367272 0.900000 119 100 94
-0.047281 0.366456 0.898000 133 104 94
-0.044960 0.366456 0.898000 148 119 109
-0.042544 0.365640 0.896000 162 136 125
-0.040228 0.365640 0.896000 166 140 129
-0.037913 0.365640 0.896000 168 148 140
