ply
format ascii 1.0
element vertex 801
property float x
property float y
property float z
property uchar red
property uchar green
property uchar blue
end_header
0.504309 -0.625942 0.633744 159 146 150
0.506552 -0.626163 0.633386 147 134 138
0.509032 -0.627376 0.633319 153 130 129
0.511277 -0.627597 0.632961 196 173 172
0.504691 -0.625686 0.635983 115 94 93
0.507169 -0.626899 0.635919 104 83 82
0.509415 -0.627120 0.635560 117 80 77
0.511660 -0.627341 0.635202 151 114 111
0.502831 -0.625209 0.638579 117 107 107
0.505074 -0.625430 0.638221 108 80 77
0.507552 -0.626642 0.638160 106 78 75
0.509798 -0.626864 0.637801 113 72 64
0.512043 -0.627085 0.637442 154 113 105
0.514532 -0.628298 0.637379 218 202 197
0.503214 -0.624953 0.640817 116 104 102
0.505457 -0.625174 0.640459 110 78 72
0.507935 -0.626386 0.640400 113 81 75
0.510419 -0.627599 0.640341 117 75 63
0.512427 -0.626829 0.639683 177 135 123
0.514672 -0.627050 0.639325 227 208 202
0.503596 -0.624697 0.643056 111 99 97
0.505839 -0.624918 0.642698 111 77 69
0.508319 -0.626130 0.642641 109 75 67
0.510803 -0.627342 0.642584 126 81 68
0.512810 -0.626572 0.641924 197 152 139
0.515055 -0.626794 0.641566 225 206 200
0.503979 -0.624441 0.645294 108 91 91
0.506222 -0.624662 0.644936 111 73 66
0.508702 -0.625874 0.644882 114 76 69
0.510947 -0.626095 0.644524 133 88 75
0.513193 -0.626316 0.644165 215 170 157
0.504594 -0.625175 0.647840 102 83 81
0.506839 -0.625396 0.647482 117 74 65
0.509085 -0.625618 0.647123 112 69 60
0.511330 -0.625839 0.646764 142 100 88
0.513334 -0.625069 0.646100 230 188 176
0.504977 -0.624919 0.650081 104 81 78
0.507222 -0.625140 0.649723 119 73 65
0.509468 -0.625361 0.649364 117 71 63
0.511713 -0.625583 0.649005 153 113 100
0.513716 -0.624813 0.648338 234 194 181
0.503114 -0.624442 0.652681 131 108 103
0.505360 -0.624663 0.652322 103 80 75
0.507605 -0.624884 0.651963 122 75 64
0.509851 -0.625105 0.651605 123 76 65
0.512097 -0.625326 0.651246 180 140 127
0.514099 -0.624557 0.650576 237 197 184
0.503959 -0.626163 0.655553 133 108 101
0.505976 -0.625396 0.654878 99 74 67
0.507989 -0.624628 0.654204 118 69 57
0.510234 -0.624849 0.653846 127 78 66
0.512480 -0.625070 0.653487 199 164 149
0.514482 -0.624301 0.652815 234 199 184
0.504343 -0.625906 0.657799 118 91 85
0.506360 -0.625139 0.657122 104 77 71
0.508608 -0.625361 0.656763 117 68 56
0.510856 -0.625582 0.656404 136 87 75
0.512863 -0.624814 0.655728 211 177 165
0.504727 -0.625650 0.660045 113 81 75
0.506978 -0.625871 0.659686 106 74 68
0.508991 -0.625104 0.659006 117 71 55
0.511240 -0.625326 0.658647 157 111 95
0.513246 -0.624558 0.657969 219 188 177
0.502860 -0.625171 0.662650 147 130 130
0.505111 -0.625393 0.662291 109 75 67
0.507362 -0.625614 0.661932 109 75 67
0.509612 -0.625836 0.661572 119 71 56
0.511623 -0.625069 0.660890 171 123 108
0.513871 -0.625291 0.660531 224 198 187
0.503244 -0.624914 0.664896 129 113 110
0.505495 -0.625136 0.664537 112 71 65
0.507745 -0.625358 0.664177 116 75 69
0.509996 -0.625579 0.663818 128 77 63
0.512247 -0.625801 0.663459 193 142 128
0.514255 -0.625034 0.662775 223 201 193
0.503628 -0.624658 0.667142 115 94 93
0.505879 -0.624879 0.666783 113 70 61
0.508129 -0.625101 0.666423 115 72 63
0.510380 -0.625323 0.666064 133 87 71
0.512631 -0.625544 0.665704 213 167 151
0.504243 -0.625388 0.669720 106 83 80
0.506496 -0.625610 0.669360 120 74 66
0.508749 -0.625832 0.669000 114 68 60
0.511003 -0.626053 0.668640 145 101 85
0.513256 -0.626275 0.668280 227 183 167
0.502603 -0.625895 0.672662 151 125 121
0.504859 -0.626117 0.672302 101 75 71
0.507114 -0.626339 0.671942 122 75 62
0.509370 -0.626562 0.671582 122 75 62
0.511626 -0.626784 0.671221 162 122 107
0.513882 -0.627006 0.670861 232 192 177
0.502988 -0.625638 0.674913 131 104 98
0.505243 -0.625860 0.674553 103 76 70
0.507499 -0.626082 0.674193 119 67 56
0.509755 -0.626304 0.673833 131 79 68
0.512011 -0.626526 0.673472 186 149 135
0.514266 -0.626749 0.673112 234 197 183
0.503373 -0.625380 0.677164 122 92 87
0.505628 -0.625602 0.676804 105 75 70
0.508119 -0.626811 0.676782 121 68 55
0.510377 -0.627033 0.676422 140 87 74
0.512635 -0.627256 0.676061 202 167 152
0.514894 -0.627478 0.675701 233 198 183
0.503757 -0.625123 0.679415 117 80 75
0.506013 -0.625345 0.679055 111 74 69
0.508504 -0.626553 0.679036 122 69 54
0.510762 -0.626776 0.678675 161 108 93
0.513021 -0.626998 0.678315 220 186 176
0.501886 -0.624643 0.682027 136 119 119
0.504142 -0.624866 0.681666 110 72 65
0.506631 -0.626073 0.681650 114 76 69
0.508889 -0.626296 0.681290 120 69 55
0.511147 -0.626518 0.680929 180 129 115
0.513406 -0.626741 0.680568 226 197 187
0.502271 -0.624386 0.684278 119 99 100
0.504527 -0.624608 0.683917 110 69 63
0.507016 -0.625816 0.683904 114 73 67
0.509274 -0.626038 0.683543 127 79 64
0.511533 -0.626260 0.683182 198 150 135
0.513791 -0.626483 0.682822 221 199 189
0.502656 -0.624129 0.686529 109 88 85
0.504912 -0.624351 0.686168 115 72 63
0.507401 -0.625558 0.686157 110 67 58
0.509660 -0.625780 0.685797 143 95 80
0.511918 -0.626003 0.685436 218 170 155
0.514176 -0.626225 0.685075 216 196 186
0.503041 -0.623871 0.688779 106 80 78
0.505297 -0.624093 0.688419 120 75 64
0.507787 -0.625300 0.688411 113 68 57
0.510045 -0.625523 0.688050 160 114 98
0.512303 -0.625745 0.687689 230 184 168
0.501397 -0.624375 0.691746 143 116 110
0.503426 -0.623614 0.691031 103 76 70
0.505682 -0.623836 0.690670 121 74 61
0.508172 -0.625043 0.690664 119 72 59
0.510430 -0.625265 0.690304 177 133 117
0.512689 -0.625488 0.689943 235 191 175
0.501783 -0.624118 0.694000 124 94 89
0.503811 -0.623357 0.693282 104 74 69
0.506066 -0.623579 0.692921 117 68 56
0.508557 -0.624785 0.692918 126 77 65
0.510816 -0.625007 0.692557 199 159 144
0.513074 -0.625230 0.692197 232 192 177
0.502168 -0.623860 0.696253 115 80 75
0.504196 -0.623099 0.695533 112 77 72
0.506451 -0.623321 0.695172 117 69 54
0.508943 -0.624527 0.695171 134 86 71
0.511201 -0.624750 0.694811 213 180 165
0.502553 -0.623602 0.698507 110 74 66
0.504580 -0.622842 0.697783 113 77 69
0.506836 -0.623064 0.697423 118 67 53
0.509092 -0.623286 0.697063 154 103 89
0.511586 -0.624492 0.697064 220 189 178
0.500680 -0.623122 0.701121 130 114 111
0.502709 -0.622362 0.700395 110 72 65
0.504965 -0.622585 0.700034 110 72 65
0.507221 -0.622807 0.699674 120 69 55
0.509713 -0.624012 0.699678 173 122 108
0.511971 -0.624234 0.699318 221 195 184
0.501065 -0.622865 0.703375 113 92 89
0.503094 -0.622105 0.702646 123 77 71
0.505350 -0.622327 0.702286 113 67 61
0.507606 -0.622549 0.701925 126 80 64
0.510098 -0.623754 0.701932 199 153 137
0.512357 -0.623977 0.701571 221 199 189
0.501451 -0.622607 0.705628 108 85 82
0.503479 -0.621848 0.704897 126 79 68
0.505735 -0.622070 0.704537 116 69 58
0.507990 -0.622292 0.704176 138 92 76
0.510484 -0.623497 0.704186 222 176 160
0.499578 -0.622127 0.708242 133 107 103
0.501836 -0.622349 0.707882 110 84 80
0.503864 -0.621590 0.707148 128 76 65
0.506120 -0.621812 0.706787 121 69 58
0.508611 -0.623017 0.706800 154 110 94
0.510869 -0.623239 0.706439 232 188 172
0.499963 -0.621869 0.710496 127 102 95
0.502221 -0.622092 0.710135 108 83 76
0.504249 -0.621333 0.709399 127 74 61
0.506504 -0.621555 0.709038 125 72 59
0.508996 -0.622759 0.709053 179 134 121
0.511254 -0.622981 0.708693 234 189 176
0.500348 -0.621612 0.712749 120 90 83
0.502606 -0.621834 0.712389 115 85 78
0.504634 -0.621076 0.711650 122 69 54
0.507123 -0.622279 0.711667 133 80 65
0.509381 -0.622501 0.711307 203 163 150
0.498699 -0.622111 0.715746 127 113 107
0.500733 -0.621354 0.715003 118 87 78
0.502992 -0.621576 0.714642 114 83 74
0.505250 -0.621799 0.714282 121 68 53
0.507508 -0.622021 0.713921 148 95 80
0.509766 -0.622244 0.713560 217 181 169
0.499085 -0.621853 0.718002 117 101 96
0.501119 -0.621096 0.717256 125 89 79
0.503377 -0.621319 0.716896 118 82 72
0.505635 -0.621541 0.716535 125 72 57
0.507893 -0.621764 0.716174 172 119 104
0.510152 -0.621986 0.715814 223 194 184
0.499470 -0.621595 0.720258 116 97 91
0.501731 -0.621818 0.719897 129 91 80
0.503762 -0.621061 0.719149 112 74 63
0.506020 -0.621284 0.718789 130 77 62
0.508279 -0.621506 0.718428 199 146 131
0.510537 -0.621728 0.718067 222 197 188
0.497595 -0.621115 0.722875 139 117 109
0.499856 -0.621337 0.722514 117 95 87
0.501889 -0.620581 0.721763 129 84 73
0.504378 -0.621783 0.721792 116 71 60
0.506638 -0.622006 0.721431 143 95 78
0.508899 -0.622228 0.721070 219 171 154
0.497981 -0.620857 0.725131 129 102 94
0.500242 -0.621080 0.724770 118 91 83
0.502503 -0.621302 0.724409 122 74 59
0.504763 -0.621525 0.724048 118 70 55
0.507024 -0.621748 0.723687 165 121 105
0.509285 -0.621970 0.723326 229 185 169
0.498367 -0.620599 0.727387 125 94 85
0.500627 -0.620822 0.727026 118 87 78
0.502888 -0.621044 0.726665 121 70 52
0.505149 -0.621267 0.726304 129 78 60
0.507410 -0.621490 0.725943 187 147 132
0.509671 -0.621712 0.725582 231 191 176
0.496492 -0.620118 0.730004 129 113 108
0.498752 -0.620341 0.729643 128 92 82
0.501013 -0.620564 0.729282 122 86 76
0.503274 -0.620786 0.728921 119 68 50
0.505535 -0.621009 0.728560 147 96 78
0.507796 -0.621232 0.728199 204 173 160
0.496877 -0.619860 0.732260 119 98 95
0.499138 -0.620083 0.731899 132 90 78
0.501399 -0.620306 0.731538 119 77 65
0.503660 -0.620528 0.731177 123 75 56
0.505920 -0.620751 0.730816 173 125 106
0.508181 -0.620974 0.730455 214 193 180
0.495442 -0.621333 0.735684 144 119 112
0.497263 -0.619602 0.734516 115 90 83
0.499524 -0.619825 0.734155 129 81 66
0.501785 -0.620048 0.733794 115 67 52
0.504045 -0.620271 0.733433 133 85 66
0.506306 -0.620493 0.733072 208 160 141
0.508567 -0.620716 0.732711 211 196 186
0.495828 -0.621075 0.737945 135 103 97
0.497871 -0.620321 0.737178 119 87 81
0.499909 -0.619567 0.736411 127 74 59
0.502170 -0.619790 0.736050 119 66 51
0.504431 -0.620013 0.735689 153 112 93
0.506692 -0.620235 0.735328 227 186 167
0.496215 -0.620816 0.740207 124 86 77
0.498480 -0.621039 0.739845 121 83 74
0.500521 -0.620286 0.739075 124 68 52
0.502556 -0.619532 0.738306 131 75 59
0.504817 -0.619755 0.737945 182 147 132
0.507078 -0.619977 0.737584 229 194 179
0.494335 -0.620335 0.742830 129 106 101
0.496601 -0.620558 0.742468 123 74 64
0.498867 -0.620781 0.742106 125 76 66
0.501133 -0.621004 0.741744 120 67 50
0.503170 -0.620251 0.740972 163 110 93
0.505434 -0.620474 0.740611 215 189 176
0.492456 -0.619853 0.745453 153 123 116
0.494722 -0.620076 0.745091 122 92 85
0.496988 -0.620299 0.744729 128 72 58
0.499254 -0.620522 0.744367 125 69 55
0.501520 -0.620746 0.744005 138 90 73
0.503785 -0.620969 0.743643 203 155 138
0.506051 -0.621192 0.743281 214 196 187
0.490577 -0.619371 0.748076 160 141 139
0.492843 -0.619594 0.747714 135 97 88
0.495108 -0.619818 0.747352 116 78 69
0.497374 -0.620041 0.746990 128 72 58
0.499640 -0.620264 0.746628 127 71 57
0.501906 -0.620487 0.746266 167 127 112
0.504172 -0.620710 0.745904 223 183 168
0.490963 -0.619113 0.750337 147 121 117
0.493229 -0.619336 0.749975 132 80 69
0.495715 -0.620534 0.750032 124 72 61
0.497983 -0.620757 0.749670 123 70 55
0.500027 -0.620005 0.748889 150 97 82
0.502293 -0.620229 0.748527 201 172 158
0.486818 -0.618408 0.753322 162 141 138
0.489084 -0.618631 0.752960 152 109 102
0.491565 -0.619828 0.753020 129 86 79
0.493833 -0.620052 0.752658 133 73 58
0.496322 -0.621249 0.752718 126 66 51
0.498593 -0.621473 0.752355 139 93 77
0.500639 -0.620722 0.751571 200 154 138
0.484939 -0.617926 0.755945 173 134 130
0.487415 -0.619122 0.756009 149 110 106
0.489684 -0.619346 0.755646 144 84 71
0.491952 -0.619569 0.755284 139 79 66
0.494220 -0.619793 0.754922 133 75 59
0.496709 -0.620990 0.754984 140 82 66
0.498980 -0.621214 0.754621 175 144 133
0.501251 -0.621438 0.754258 218 187 176
0.480794 -0.617221 0.758929 183 141 138
0.483059 -0.617444 0.758568 162 120 117
0.485534 -0.618640 0.758634 153 95 83
0.487802 -0.618864 0.758272 137 79 67
0.490284 -0.620060 0.758338 141 78 64
0.492555 -0.620284 0.757975 137 74 60
0.494826 -0.620508 0.757613 136 89 76
0.497097 -0.620731 0.757250 186 139 126
0.472117 -0.616070 0.762638 198 165 166
0.474382 -0.616293 0.762276 190 157 158
0.476648 -0.616516 0.761914 180 130 127
0.478914 -0.616739 0.761552 160 110 107
0.481180 -0.616963 0.761191 155 90 81
0.483446 -0.617186 0.760829 147 82 73
0.485712 -0.617409 0.760467 146 78 66
0.487978 -0.617632 0.760105 147 79 67
0.490457 -0.618828 0.760174 134 78 66
0.492726 -0.619052 0.759811 153 97 85
0.495213 -0.620249 0.759879 184 158 147
0.463623 -0.615888 0.766784 202 169 168
0.465892 -0.616111 0.766422 189 156 155
0.467971 -0.615365 0.765623 185 138 137
0.470237 -0.615588 0.765261 170 123 122
0.472503 -0.615811 0.764899 162 101 95
0.474769 -0.616034 0.764537 155 94 88
0.477234 -0.617229 0.764611 159 87 76
0.479301 -0.616481 0.763814 155 83 72
0.481567 -0.616704 0.763452 156 86 72
0.483833 -0.616927 0.763090 153 83 69
0.486308 -0.618123 0.763162 140 82 66
0.488576 -0.618346 0.762800 152 94 78
0.490844 -0.618569 0.762437 172 136 124
0.493113 -0.618793 0.762075 208 172 160
0.452840 -0.615480 0.771302 197 164 163
0.455111 -0.615704 0.770939 194 147 146
0.457382 -0.615927 0.770577 187 140 139
0.459474 -0.615182 0.769773 183 131 122
0.461742 -0.615406 0.769410 177 125 116
0.464010 -0.615629 0.769048 174 113 105
0.466466 -0.616822 0.769126 165 104 96
0.468547 -0.616076 0.768324 165 97 85
0.470816 -0.616300 0.767961 161 93 81
0.473084 -0.616523 0.767599 162 91 75
0.475353 -0.616746 0.767237 160 89 73
0.477820 -0.617941 0.767313 153 86 71
0.479889 -0.617193 0.766512 151 84 69
0.482158 -0.617417 0.766150 145 87 71
0.484426 -0.617640 0.765788 157 99 83
0.486695 -0.617864 0.765426 165 130 115
0.488963 -0.618087 0.765063 200 165 150
0.433087 -0.615139 0.777729 198 165 164
0.435363 -0.615363 0.777366 196 163 162
0.437639 -0.615587 0.777002 194 155 151
0.439915 -0.615811 0.776639 188 149 145
0.442032 -0.615069 0.775828 186 140 134
0.444305 -0.615293 0.775465 179 133 127
0.446414 -0.614550 0.774656 182 128 120
0.448685 -0.614774 0.774293 171 117 109
0.450956 -0.614997 0.773931 169 106 94
0.453227 -0.615221 0.773568 165 102 90
0.455498 -0.615445 0.773205 167 96 85
0.457769 -0.615668 0.772843 162 91 80
0.460040 -0.615892 0.772480 161 90 74
0.462311 -0.616116 0.772117 163 92 76
0.464582 -0.616339 0.771755 162 91 75
0.466853 -0.616563 0.771392 160 89 73
0.469124 -0.616787 0.771029 160 93 76
0.471395 -0.617011 0.770667 159 92 75
0.473666 -0.617234 0.770304 149 87 70
0.475937 -0.617458 0.769941 148 86 69
0.478208 -0.617682 0.769579 145 97 82
0.480479 -0.617905 0.769216 164 116 101
0.482750 -0.618129 0.768853 174 143 134
0.485021 -0.618353 0.768491 203 172 163
0.420088 -0.615461 0.783089 189 154 151
0.422369 -0.615686 0.782725 180 145 142
0.424650 -0.615910 0.782360 180 134 126
0.426647 -0.614206 0.781091 169 123 115
0.428923 -0.614431 0.780728 167 113 103
0.431199 -0.614655 0.780364 158 104 94
0.433326 -0.613914 0.779549 162 102 91
0.435599 -0.614138 0.779186 162 102 91
0.437718 -0.613396 0.778373 158 93 82
0.439989 -0.613620 0.778010 161 96 85
0.442260 -0.613843 0.777648 164 96 84
0.444369 -0.613101 0.776836 165 97 85
0.446637 -0.613324 0.776474 168 97 81
0.448905 -0.613547 0.776111 163 92 76
0.451174 -0.613771 0.775749 162 91 75
0.453442 -0.613994 0.775387 162 91 75
0.455711 -0.614218 0.775025 156 86 70
0.457979 -0.614441 0.774662 162 92 76
0.460428 -0.615633 0.774746 153 86 69
0.462699 -0.615857 0.774384 153 86 69
0.464970 -0.616080 0.774021 147 90 71
0.467241 -0.616304 0.773658 146 89 70
0.469511 -0.616528 0.773296 145 97 80
0.471782 -0.616751 0.772933 155 107 90
0.474053 -0.616975 0.772570 163 127 115
0.476522 -0.618169 0.772651 181 145 133
0.478595 -0.617423 0.771845 189 168 163
0.409071 -0.614077 0.787187 181 148 147
0.411352 -0.614302 0.786822 183 137 131
0.413888 -0.616452 0.787373 170 124 118
0.415915 -0.614751 0.786094 165 108 101
0.418196 -0.614976 0.785730 157 100 93
0.420477 -0.615201 0.785365 157 94 82
0.422758 -0.615426 0.785001 154 91 79
0.425039 -0.615650 0.784637 158 94 78
0.427035 -0.613947 0.783362 157 93 77
0.429311 -0.614171 0.782999 157 90 75
0.431440 -0.613430 0.782181 156 89 74
0.433564 -0.612689 0.781365 152 88 72
0.435835 -0.612913 0.781002 152 88 72
0.438105 -0.613137 0.780639 154 90 74
0.440219 -0.612395 0.779824 149 85 69
0.442487 -0.612618 0.779462 148 86 69
0.444593 -0.611876 0.778648 146 84 67
0.446859 -0.612099 0.778286 144 85 67
0.449125 -0.612322 0.777924 146 87 69
0.451391 -0.612545 0.777562 145 87 71
0.453656 -0.612768 0.777200 146 88 72
0.455922 -0.612992 0.776839 145 97 82
0.458188 -0.613215 0.776477 152 104 89
0.460454 -0.613438 0.776115 156 116 103
0.462903 -0.614629 0.776201 166 126 113
0.465171 -0.614853 0.775839 171 142 132
0.467628 -0.616045 0.775925 188 159 149
0.469899 -0.616269 0.775562 194 174 166
0.398055 -0.612693 0.791284 187 150 145
0.400336 -0.612918 0.790920 171 134 129
0.402617 -0.613143 0.790556 173 125 117
0.404898 -0.613368 0.790192 163 115 107
0.407179 -0.613592 0.789827 160 100 89
0.409460 -0.613817 0.789463 155 95 84
0.411741 -0.614042 0.789099 157 93 77
0.414023 -0.614266 0.788734 157 93 77
0.416304 -0.614491 0.788370 161 94 79
0.418585 -0.614716 0.788006 163 96 81
0.420866 -0.614941 0.787642 158 94 78
0.422872 -0.613239 0.786361 155 91 75
0.425148 -0.613463 0.785997 146 87 69
0.427424 -0.613687 0.785634 145 86 68
0.429554 -0.612947 0.784813 143 85 69
0.431828 -0.613171 0.784450 143 85 69
0.433951 -0.612430 0.783631 141 88 73
0.436222 -0.612654 0.783268 144 91 76
0.438337 -0.611913 0.782450 143 97 81
0.440448 -0.611171 0.781633 145 99 83
0.442714 -0.611394 0.781271 145 103 89
0.444980 -0.611617 0.780909 153 111 97
0.447245 -0.611840 0.780547 161 127 115
0.449511 -0.612063 0.780185 171 137 125
0.451777 -0.612287 0.779823 181 152 142
0.454043 -0.612510 0.779462 186 157 147
0.456309 -0.612733 0.779100 183 162 157
0.458575 -0.612956 0.778738 187 166 161
0.389319 -0.611534 0.795018 179 138 132
0.391395 -0.609840 0.793721 168 127 121
0.393882 -0.611984 0.794289 166 109 102
0.395947 -0.610288 0.792994 158 101 94
0.398223 -0.610513 0.792630 158 95 83
0.400500 -0.610737 0.792267 155 92 80
0.402776 -0.610961 0.791903 160 93 78
0.405052 -0.611185 0.791540 164 97 82
0.407328 -0.611409 0.791176 163 97 77
0.409849 -0.613557 0.791739 161 95 75
0.412131 -0.613782 0.791375 159 95 77
0.414412 -0.614006 0.791011 156 92 74
0.416693 -0.614231 0.790646 148 91 72
0.418974 -0.614456 0.790282 147 90 71
0.421255 -0.614680 0.789918 140 92 75
0.423260 -0.612979 0.788632 144 96 79
0.425536 -0.613203 0.788268 154 114 99
0.427812 -0.613427 0.787905 160 120 105
0.429942 -0.612688 0.787082 165 134 123
0.432067 -0.611948 0.786260 174 143 132
0.434338 -0.612171 0.785897 178 153 144
0.436456 -0.611430 0.785076 179 154 145
0.438568 -0.610689 0.784256 178 160 151
0.440834 -0.610912 0.783894 186 168 159
0.378479 -0.612066 0.800059 175 144 142
0.380765 -0.612291 0.799694 175 131 129
0.382865 -0.610600 0.798387 164 120 118
0.385146 -0.610825 0.798023 163 106 97
0.387427 -0.611050 0.797659 155 98 89
0.389709 -0.611274 0.797294 156 91 78
0.391784 -0.609580 0.795992 155 90 77
0.394060 -0.609805 0.795628 156 86 70
0.396336 -0.610029 0.795265 158 88 72
0.398612 -0.610253 0.794901 162 92 76
0.400888 -0.610477 0.794538 160 90 74
0.403164 -0.610701 0.794175 152 88 70
0.405440 -0.610926 0.793811 154 90 72
0.407716 -0.611150 0.793448 148 91 72
0.410239 -0.613297 0.794016 147 90 71
0.412520 -0.613521 0.793651 144 98 80
0.414801 -0.613746 0.793287 152 106 88
0.417082 -0.613971 0.792923 156 120 108
0.419363 -0.614195 0.792559 172 136 124
0.421644 -0.614420 0.792194 181 156 147
0.423925 -0.614645 0.791830 191 166 157
0.367513 -0.611636 0.804642 177 140 137
0.369724 -0.610905 0.803800 165 128 125
0.372010 -0.611130 0.803435 168 115 109
0.374296 -0.611355 0.803070 156 103 97
0.376582 -0.611580 0.802705 149 89 78
0.378869 -0.611805 0.802340 145 85 74
0.380973 -0.610115 0.801028 151 83 71
0.383254 -0.610340 0.800663 150 82 70
0.385536 -0.610565 0.800299 150 86 68
0.387817 -0.610789 0.799935 150 86 68
0.390098 -0.611014 0.799571 149 87 68
0.392172 -0.609321 0.798263 147 85 66
0.394448 -0.609545 0.797900 143 81 64
0.396724 -0.609769 0.797536 146 84 67
0.399000 -0.609993 0.797173 143 90 73
0.401276 -0.610218 0.796809 148 95 78
0.403552 -0.610442 0.796446 148 106 92
0.405828 -0.610666 0.796082 166 124 110
0.408347 -0.612812 0.796656 172 143 131
0.410628 -0.613036 0.796292 181 152 140
0.412909 -0.613261 0.795928 181 161 153
0.358551 -0.607608 0.806947 178 141 138
0.360832 -0.607833 0.806583 171 134 131
0.363113 -0.608057 0.806218 160 110 103
0.365541 -0.610193 0.806812 147 97 90
0.367828 -0.610419 0.806447 153 90 76
0.370114 -0.610644 0.806082 148 85 71
0.372400 -0.610869 0.805717 151 81 65
0.374686 -0.611094 0.805352 149 79 63
0.376972 -0.611319 0.804987 149 82 65
0.379259 -0.611545 0.804622 149 82 65
0.381362 -0.609855 0.803304 140 78 59
0.383644 -0.610080 0.802940 142 80 61
0.385925 -0.610304 0.802576 138 82 66
0.388206 -0.610529 0.802211 141 85 69
0.390487 -0.610754 0.801847 145 99 83
0.392560 -0.609061 0.800534 157 111 95
0.394836 -0.609285 0.800171 156 122 110
0.397112 -0.609509 0.799807 174 140 128
0.399388 -0.609734 0.799444 178 154 142
0.401664 -0.609958 0.799081 183 159 147
0.352097 -0.606673 0.810316 171 136 133
0.354378 -0.606898 0.809952 168 118 111
0.356659 -0.607123 0.809588 158 108 101
0.358940 -0.607348 0.809223 149 89 76
0.361359 -0.609482 0.809824 142 82 69
0.363645 -0.609707 0.809459 149 82 67
0.365931 -0.609933 0.809094 146 79 64
0.368218 -0.610158 0.808728 149 82 65
0.370504 -0.610383 0.808363 149 82 65
0.372871 -0.611564 0.808479 146 84 67
0.375076 -0.610833 0.807633 142 80 63
0.377362 -0.611059 0.807268 141 85 69
0.379738 -0.612241 0.807382 149 93 77
0.382026 -0.612466 0.807017 148 107 90
0.384221 -0.611734 0.806173 157 116 99
0.386314 -0.610044 0.804852 160 129 118
0.388595 -0.610269 0.804488 176 145 134
0.390876 -0.610493 0.804123 174 156 147
0.341081 -0.605290 0.814414 183 150 149
0.343362 -0.605514 0.814050 174 141 140
0.345540 -0.603833 0.812710 172 124 118
0.347924 -0.605964 0.813321 160 112 106
0.350205 -0.606189 0.812957 153 95 83
0.352486 -0.606413 0.812593 146 88 76
0.354767 -0.606638 0.812228 149 82 67
0.357048 -0.606863 0.811864 149 82 67
0.359463 -0.608996 0.812470 150 83 66
0.361749 -0.609221 0.812105 150 83 66
0.364035 -0.609447 0.811740 146 84 65
0.366396 -0.610627 0.811859 143 81 62
0.368608 -0.609897 0.811010 140 87 72
0.370894 -0.610122 0.810645 146 93 78
0.373344 -0.612259 0.811245 149 109 94
0.375635 -0.612485 0.810879 169 129 114
0.377926 -0.612711 0.810513 174 145 135
0.380218 -0.612936 0.810148 183 154 144
0.330064 -0.603906 0.818512 180 154 150
0.332345 -0.604131 0.818148 178 143 140
0.334548 -0.602453 0.816799 169 134 131
0.336824 -0.602677 0.816435 166 118 112
0.339100 -0.602901 0.816072 153 105 99
0.341376 -0.603125 0.815708 155 95 84
0.343652 -0.603350 0.815345 147 87 76
0.345928 -0.603574 0.814981 147 80 65
0.348204 -0.603798 0.814618 149 82 67
0.350480 -0.604022 0.814254 150 83 68
0.352875 -0.606153 0.814869 151 84 69
0.355156 -0.606378 0.814505 146 84 67
0.357438 -0.606602 0.814140 144 82 65
0.359853 -0.608735 0.814752 135 83 63
0.362209 -0.609915 0.814874 143 91 71
0.364497 -0.610140 0.814509 151 111 96
0.366786 -0.610366 0.814143 170 130 115
0.369075 -0.610591 0.813778 178 152 141
0.319004 -0.600624 0.821614 180 143 140
0.321280 -0.600848 0.821251 172 135 132
0.323556 -0.601072 0.820887 168 122 116
0.325832 -0.601296 0.820524 161 115 109
0.328108 -0.601520 0.820160 156 104 93
0.330384 -0.601745 0.819797 147 95 84
0.332660 -0.601969 0.819433 146 88 74
0.334936 -0.602193 0.819070 144 86 72
0.337212 -0.602417 0.818707 145 81 65
0.339444 -0.601690 0.817849 148 84 68
0.341717 -0.601914 0.817486 154 90 74
0.344041 -0.603090 0.817616 149 85 69
0.346317 -0.603314 0.817253 146 84 67
0.348593 -0.603538 0.816889 143 81 64
0.350869 -0.603762 0.816526 139 81 65
0.353265 -0.605893 0.817145 145 87 71
0.355546 -0.606117 0.816781 147 102 89
0.357827 -0.606342 0.816417 165 120 107
0.360310 -0.609428 0.817523 171 142 130
0.362599 -0.609654 0.817158 186 157 145
0.305736 -0.599019 0.826066 175 140 137
0.308003 -0.598295 0.825201 172 137 134
0.310276 -0.598519 0.824838 176 130 124
0.312550 -0.598743 0.824475 161 115 109
0.314823 -0.598967 0.824112 157 103 93
0.317097 -0.599191 0.823748 149 95 85
0.319370 -0.599415 0.823385 147 84 72
0.321644 -0.599639 0.823022 146 83 71
0.323917 -0.599863 0.822659 144 81 67
0.326191 -0.600087 0.822296 143 80 66
0.328497 -0.601261 0.822432 146 87 69
0.330738 -0.600535 0.821570 145 86 68
0.333011 -0.600759 0.821207 144 87 68
0.335245 -0.600032 0.820347 144 87 68
0.337516 -0.600255 0.819984 142 83 65
0.339787 -0.600479 0.819621 140 81 63
0.342105 -0.601654 0.819755 139 86 69
0.344379 -0.601878 0.819392 142 89 72
0.346652 -0.602102 0.819028 141 99 85
0.348981 -0.603279 0.819160 154 112 98
0.351257 -0.603503 0.818797 167 136 125
0.353654 -0.605632 0.819422 183 152 141
0.292437 -0.601197 0.832549 173 145 142
0.294723 -0.601422 0.832184 169 141 138
0.297015 -0.599755 0.830805 171 132 128
0.299296 -0.599979 0.830441 164 125 121
0.301577 -0.600204 0.830077 163 110 104
0.303848 -0.598535 0.828701 150 97 91
0.306124 -0.598759 0.828338 149 89 76
0.308391 -0.598036 0.827469 145 85 72
0.310664 -0.598260 0.827106 145 80 67
0.312938 -0.598484 0.826743 140 75 62
0.315211 -0.598708 0.826380 138 74 58
0.317485 -0.598932 0.826017 141 77 61
0.319758 -0.599155 0.825654 140 78 61
0.322006 -0.598431 0.824789 137 75 58
0.324277 -0.598654 0.824426 137 80 61
0.326548 -0.598878 0.824063 138 81 62
0.328852 -0.600051 0.824202 133 82 66
0.331126 -0.600275 0.823839 133 82 66
0.333361 -0.599549 0.822975 134 90 72
0.335632 -0.599773 0.822613 137 93 75
0.337903 -0.599996 0.822250 146 108 97
0.340174 -0.600220 0.821887 163 125 114
0.342445 -0.600444 0.821525 164 137 129
0.344767 -0.601619 0.821660 172 145 137
0.279155 -0.597697 0.835996 174 146 143
0.281396 -0.599810 0.836656 169 141 138
0.283682 -0.600035 0.836291 168 130 123
0.285968 -0.600260 0.835926 163 125 118
0.288255 -0.600485 0.835561 158 110 102
0.290541 -0.600711 0.835195 151 103 95
0.292827 -0.600936 0.834830 153 96 87
0.295113 -0.601161 0.834465 144 87 78
0.297404 -0.599494 0.833082 144 81 69
0.299685 -0.599719 0.832717 142 79 67
0.301966 -0.599944 0.832353 145 77 65
0.304237 -0.598275 0.830972 149 81 69
0.306513 -0.598499 0.830609 148 86 69
0.308789 -0.598724 0.830245 143 81 64
0.311065 -0.598948 0.829882 142 83 65
0.313341 -0.599172 0.829519 138 79 61
0.315599 -0.598448 0.828649 132 76 60
0.317872 -0.598672 0.828286 138 82 66
0.320146 -0.598896 0.827923 137 91 75
0.322419 -0.599120 0.827560 144 98 82
0.324665 -0.598395 0.826692 146 110 98
0.326936 -0.598619 0.826330 153 117 105
0.329207 -0.598843 0.825967 162 133 123
0.331478 -0.599066 0.825604 173 144 134
0.265783 -0.597973 0.841493 174 143 141
0.268069 -0.598198 0.841128 168 137 135
0.270355 -0.598423 0.840763 169 127 124
0.272701 -0.596762 0.839365 162 120 117
0.274982 -0.596987 0.839001 161 111 106
0.277263 -0.597212 0.838636 153 103 98
0.279544 -0.597436 0.838272 146 92 84
0.281825 -0.597661 0.837908 139 85 77
0.284106 -0.597886 0.837544 146 86 73
0.286388 -0.598111 0.837179 140 80 67
0.288669 -0.598335 0.836815 142 78 62
0.290931 -0.600450 0.837477 143 79 63
0.293217 -0.600675 0.837112 146 84 67
0.295503 -0.600900 0.836747 144 82 65
0.297789 -0.601125 0.836382 144 82 65
0.300074 -0.599459 0.834994 142 80 63
0.302355 -0.599684 0.834629 138 81 62
0.304637 -0.599908 0.834265 138 81 62
0.306918 -0.600133 0.833901 133 85 68
0.309177 -0.598464 0.832517 138 90 73
0.311453 -0.598688 0.832153 141 101 86
0.313729 -0.598912 0.831790 155 115 100
0.316005 -0.599137 0.831426 159 128 115
0.318260 -0.598413 0.830555 174 143 130
0.320534 -0.598637 0.830192 168 150 139
0.254841 -0.594704 0.844556 171 140 140
0.257122 -0.594929 0.844191 169 127 124
0.259403 -0.595154 0.843827 158 116 113
0.261684 -0.595379 0.843463 153 105 99
0.263965 -0.595603 0.843099 145 97 91
0.266247 -0.595828 0.842734 151 94 85
0.268528 -0.596053 0.842370 146 89 80
0.270809 -0.596277 0.842006 148 85 73
0.273090 -0.596502 0.841641 143 80 68
0.275371 -0.596727 0.841277 142 77 64
0.277652 -0.596952 0.840913 144 79 66
0.279933 -0.597176 0.840549 143 78 65
0.282214 -0.597401 0.840184 142 77 64
0.284496 -0.597626 0.839820 144 85 67
0.286777 -0.597850 0.839456 139 80 62
0.289058 -0.598075 0.839091 131 74 55
0.291339 -0.598300 0.838727 131 74 55
0.293607 -0.600414 0.839393 130 77 60
0.295901 -0.598749 0.837999 135 82 65
0.298182 -0.598974 0.837634 137 91 75
0.300463 -0.599199 0.837270 146 100 84
0.302745 -0.599423 0.836906 150 114 102
0.305026 -0.599648 0.836541 160 124 112
0.307307 -0.599873 0.836177 162 140 130
0.309588 -0.600097 0.835813 170 148 138
0.241414 -0.594974 0.850072 152 128 130
0.243825 -0.593321 0.848653 159 120 116
0.246106 -0.593545 0.848289 152 113 109
0.248387 -0.593770 0.847925 147 99 91
0.250777 -0.592115 0.846510 140 92 84
0.253053 -0.592339 0.846146 144 87 78
0.255329 -0.592564 0.845783 139 82 73
0.257511 -0.594669 0.846468 138 78 65
0.259881 -0.593012 0.845056 139 79 66
0.262157 -0.593236 0.844692 140 77 63
0.264355 -0.595343 0.845375 141 78 64
0.266636 -0.595568 0.845011 146 84 67
0.268917 -0.595792 0.844646 140 78 61
0.271198 -0.596017 0.844282 135 76 58
0.273479 -0.596242 0.843918 139 80 62
0.275760 -0.596467 0.843553 136 79 60
0.278041 -0.596691 0.843189 133 76 57
0.280322 -0.596916 0.842825 129 76 59
0.282604 -0.597141 0.842461 134 81 64
0.284885 -0.597365 0.842096 133 89 73
0.287166 -0.597590 0.841732 140 96 80
0.289447 -0.597815 0.841368 151 111 96
0.291728 -0.598040 0.841003 160 120 105
0.294009 -0.598264 0.840639 158 129 117
0.296290 -0.598489 0.840275 167 138 126
0.298571 -0.598714 0.839911 169 149 141
0.237025 -0.597076 0.854675 114 98 95
0.239452 -0.595426 0.853248 126 85 79
0.241804 -0.594713 0.852353 125 84 78
0.244214 -0.593060 0.850930 137 74 62
0.246495 -0.593285 0.850566 136 73 61
0.248889 -0.591631 0.849145 135 75 62
0.251165 -0.591856 0.848781 132 72 59
0.253441 -0.592080 0.848418 134 76 60
0.255717 -0.592304 0.848054 140 82 66
0.257993 -0.592528 0.847691 138 80 64
0.260269 -0.592752 0.847327 136 78 62
0.262545 -0.592977 0.846964 134 78 62
0.264821 -0.593201 0.846600 134 78 62
0.267097 -0.593425 0.846237 132 81 65
0.269306 -0.595532 0.846923 136 85 69
0.271587 -0.595757 0.846558 134 93 76
0.273868 -0.595982 0.846194 143 102 85
0.276149 -0.596206 0.845830 151 118 103
0.278431 -0.596431 0.845466 164 131 116
0.280712 -0.596656 0.845101 165 139 126
0.282993 -0.596880 0.844737 171 145 132
0.237416 -0.596815 0.856964 112 96 91
0.239842 -0.595165 0.855532 112 78 70
0.242195 -0.594452 0.854635 112 78 70
0.244603 -0.592800 0.853206 124 73 59
0.246884 -0.593025 0.852842 124 73 59
0.249277 -0.591372 0.851416 123 75 60
0.251553 -0.591596 0.851052 126 78 63
0.253829 -0.591820 0.850689 127 82 69
0.256105 -0.592044 0.850325 138 93 80
0.258381 -0.592269 0.849962 144 104 91
0.260657 -0.592493 0.849598 151 111 98
0.262933 -0.592717 0.849235 157 121 109
0.265209 -0.592941 0.848871 165 129 117
0.267485 -0.593165 0.848508 164 138 127
0.269762 -0.593390 0.848145 170 144 133
0.240167 -0.595841 0.858351 122 103 97
0.242585 -0.594191 0.856916 119 100 94
0.244992 -0.592540 0.855483 133 104 94
0.247273 -0.592765 0.855118 148 119 109
0.249665 -0.591112 0.853687 162 136 125
0.251942 -0.591336 0.853324 166 140 129
0.254218 -0.591560 0.852960 168 148 140
