ply
format ascii 1.0
element vertex 1692
property float x
property float y
property float z
property uchar red
property uchar green
property uchar blue
end_header
0.201645 0.207160 0.464513 53 92 39
0.200010 0.208194 0.464424 64 108 40
0.198322 0.208202 0.464245 82 126 58
0.196635 0.208211 0.464066 92 141 69
0.194948 0.208219 0.463887 100 149 77
0.193261 0.208228 0.463708 106 155 81
0.191573 0.208237 0.463529 112 161 87
0.161906 0.095346 0.455290 120 189 90
0.160514 0.094331 0.455051 123 185 92
0.159110 0.094338 0.454902 119 181 88
0.157707 0.094345 0.454753 111 164 82
0.156325 0.093329 0.454516 102 155 73
0.163168 0.094898 0.456777 123 193 91
0.161762 0.094905 0.456628 125 195 93
0.160370 0.093890 0.456386 124 195 88
0.158967 0.093898 0.456237 124 195 88
0.157582 0.092883 0.455997 128 197 91
0.156181 0.092890 0.455848 123 192 86
0.154805 0.091875 0.455609 126 186 90
0.153407 0.091883 0.455460 118 178 82
0.152008 0.091890 0.455312 100 150 69
0.150610 0.091897 0.455164 77 127 46
0.163024 0.094457 0.458115 139 206 110
0.161630 0.093443 0.457870 137 204 108
0.160226 0.093450 0.457722 128 197 89
0.158840 0.092437 0.457478 126 195 87
0.157458 0.091423 0.457235 123 195 81
0.156060 0.091430 0.457087 118 190 76
0.154662 0.091437 0.456939 117 187 74
0.153291 0.090423 0.456697 123 193 80
0.151895 0.090430 0.456549 121 184 82
0.150499 0.090437 0.456401 121 184 82
0.149103 0.090444 0.456253 111 170 81
0.147708 0.090452 0.456105 94 153 64
0.146312 0.090459 0.455957 72 118 63
0.144916 0.090466 0.455809 47 93 38
0.162880 0.094016 0.459452 80 131 63
0.161486 0.093003 0.459206 115 166 98
0.160097 0.091990 0.458959 126 186 94
0.158696 0.091997 0.458811 140 200 108
0.157315 0.090984 0.458566 135 206 99
0.155917 0.090991 0.458417 130 201 94
0.154518 0.090999 0.458269 124 193 83
0.153148 0.089985 0.458025 128 197 87
0.151752 0.089993 0.457877 123 192 82
0.150356 0.090000 0.457729 121 190 80
0.148960 0.090007 0.457581 120 187 79
0.147565 0.090014 0.457433 124 191 83
0.146169 0.090021 0.457285 121 182 92
0.144773 0.090028 0.457137 106 167 77
0.143423 0.089015 0.456895 80 135 74
0.161354 0.091544 0.460441 42 71 37
0.159968 0.090532 0.460192 36 79 22
0.158570 0.090539 0.460044 57 100 43
0.157192 0.089526 0.459797 79 137 57
0.155773 0.090553 0.459748 119 177 97
0.154400 0.089541 0.459501 135 200 104
0.153005 0.089548 0.459353 144 209 113
0.151609 0.089555 0.459205 133 202 96
0.150213 0.089562 0.459057 129 198 92
0.148817 0.089569 0.458909 125 195 82
0.147422 0.089576 0.458761 123 193 80
0.146067 0.088564 0.458516 127 194 84
0.144673 0.088571 0.458368 123 190 80
0.143280 0.088578 0.458221 119 186 92
0.141887 0.088585 0.458073 111 178 84
0.140494 0.088592 0.457925 91 146 81
0.158444 0.089082 0.461273 50 68 45
0.157049 0.089089 0.461125 41 71 32
0.155653 0.089096 0.460977 39 69 30
0.154257 0.089103 0.460829 43 92 36
0.152862 0.089110 0.460681 86 135 79
0.151466 0.089117 0.460533 112 175 93
0.150103 0.088106 0.460284 138 201 119
0.148710 0.088113 0.460137 137 205 102
0.147317 0.088120 0.459989 132 200 97
0.145924 0.088127 0.459841 126 196 83
0.144531 0.088134 0.459694 122 192 79
0.143138 0.088141 0.459546 116 188 74
0.141744 0.088148 0.459398 116 188 74
0.140351 0.088156 0.459251 119 184 88
0.138958 0.088163 0.459103 118 183 87
0.137565 0.088170 0.458955 102 158 90
0.152747 0.087655 0.461905 41 71 44
0.151354 0.087662 0.461758 38 82 39
0.149961 0.087669 0.461610 56 100 57
0.148567 0.087676 0.461462 95 151 79
0.147174 0.087683 0.461314 126 182 110
0.145781 0.087690 0.461167 135 203 100
0.144388 0.087697 0.461019 130 198 95
0.142995 0.087704 0.460871 124 196 82
0.141602 0.087712 0.460724 122 194 80
0.140208 0.087719 0.460576 117 187 74
0.138869 0.086708 0.460328 115 185 72
0.137479 0.086715 0.460180 124 189 93
0.136088 0.086722 0.460033 121 186 90
0.134698 0.086729 0.459886 98 154 84
0.149818 0.087232 0.462935 36 65 45
0.148425 0.087239 0.462788 27 63 27
0.147031 0.087246 0.462640 37 73 37
0.145680 0.086236 0.462388 71 120 46
0.144289 0.086243 0.462240 120 169 95
0.142899 0.086251 0.462093 133 200 94
0.141508 0.086258 0.461946 138 205 99
0.140117 0.086265 0.461798 134 202 89
0.138727 0.086272 0.461651 127 195 82
0.137336 0.086279 0.461503 122 191 81
0.135946 0.086286 0.461356 123 192 82
0.134555 0.086293 0.461208 121 188 92
0.133165 0.086300 0.461061 117 184 88
0.131774 0.086307 0.460914 102 156 82
0.222388 0.152466 0.479202 133 188 94
0.220652 0.150442 0.478796 124 182 84
0.145537 0.085800 0.463711 29 61 22
0.144147 0.085807 0.463563 37 69 30
0.142756 0.085814 0.463416 57 106 34
0.141366 0.085822 0.463269 102 151 79
0.139975 0.085829 0.463121 136 199 97
0.138584 0.085836 0.462974 142 205 103
0.137194 0.085843 0.462826 132 201 91
0.135803 0.085850 0.462679 128 197 87
0.134413 0.085857 0.462531 131 200 90
0.133022 0.085864 0.462384 122 191 81
0.131632 0.085871 0.462237 120 185 87
0.130241 0.085878 0.462089 116 181 83
0.128850 0.085885 0.461942 97 149 76
0.225729 0.156019 0.481513 135 180 109
0.224065 0.155012 0.481223 128 190 86
0.222318 0.152991 0.480811 130 192 88
0.220667 0.151984 0.480522 131 188 97
0.142614 0.085378 0.464739 43 70 37
0.141223 0.085386 0.464591 40 67 34
0.139833 0.085393 0.464444 55 100 40
0.138442 0.085400 0.464297 101 146 86
0.137051 0.085407 0.464149 133 193 101
0.135661 0.085414 0.464002 148 208 116
0.134270 0.085421 0.463854 135 202 92
0.132880 0.085428 0.463707 131 198 88
0.131489 0.085435 0.463560 126 193 83
0.130099 0.085442 0.463412 124 191 81
0.128708 0.085449 0.463265 123 189 88
0.127317 0.085456 0.463117 112 178 77
0.125927 0.085464 0.462970 104 157 88
0.227430 0.158560 0.483554 122 171 85
0.225662 0.156540 0.483134 140 189 103
0.223997 0.155534 0.482842 126 189 87
0.222425 0.155542 0.482675 133 196 94
0.139690 0.084957 0.465767 42 69 40
0.138300 0.084964 0.465620 38 65 36
0.136909 0.084971 0.465472 57 99 45
0.135518 0.084978 0.465325 93 135 81
0.134128 0.084985 0.465177 135 195 103
0.132737 0.084992 0.465030 147 207 115
0.131347 0.084999 0.464883 140 207 97
0.129956 0.085006 0.464735 132 199 89
0.128566 0.085013 0.464588 122 191 81
0.127175 0.085020 0.464440 117 186 76
0.125784 0.085028 0.464293 121 186 92
0.124475 0.084020 0.464038 117 182 88
0.123087 0.084027 0.463891 94 145 79
0.229245 0.162109 0.485741 107 141 92
0.227365 0.159078 0.485186 143 199 100
0.225689 0.158073 0.484889 131 187 88
0.223927 0.156055 0.484465 132 194 99
0.136766 0.084535 0.466795 44 63 37
0.135376 0.084542 0.466648 45 64 38
0.133985 0.084549 0.466500 60 100 40
0.132595 0.084556 0.466353 110 150 90
0.131204 0.084563 0.466206 135 200 104
0.129814 0.084570 0.466058 141 206 110
0.128423 0.084577 0.465911 136 207 98
0.127032 0.084584 0.465763 129 200 91
0.125642 0.084591 0.465616 121 192 85
0.124333 0.083585 0.465358 116 187 80
0.122945 0.083592 0.465211 120 184 95
0.121557 0.083599 0.465064 101 165 76
0.231078 0.165652 0.487949 73 114 51
0.229082 0.161611 0.487253 140 181 118
0.227396 0.160607 0.486953 136 198 94
0.225622 0.158590 0.486522 121 183 79
0.223949 0.157586 0.486224 126 187 99
0.133843 0.084113 0.467823 44 63 33
0.132452 0.084120 0.467676 44 63 33
0.131062 0.084127 0.467528 50 96 27
0.129671 0.084134 0.467381 116 162 93
0.128354 0.083128 0.467120 137 205 104
0.126890 0.084148 0.467086 143 211 110
0.125578 0.083142 0.466826 136 207 100
0.124190 0.083149 0.466679 134 205 98
0.122802 0.083156 0.466532 123 192 93
0.121414 0.083163 0.466385 115 184 85
0.120026 0.083171 0.466237 121 180 102
0.231016 0.166162 0.489606 127 177 100
0.229117 0.163136 0.489033 145 195 118
0.227330 0.161121 0.488596 127 191 84
0.225647 0.160117 0.488294 140 204 97
0.223878 0.158102 0.487859 83 137 61
0.130919 0.083691 0.468851 44 69 34
0.129529 0.083698 0.468704 37 62 27
0.128138 0.083705 0.468557 55 104 32
0.126824 0.082700 0.468294 116 165 93
0.125357 0.083719 0.468262 140 207 109
0.124048 0.082714 0.467999 146 213 115
0.122660 0.082721 0.467852 140 208 107
0.121272 0.082728 0.467705 129 197 96
0.119795 0.083748 0.467672 121 188 92
0.118404 0.083755 0.467525 122 189 93
0.117014 0.083762 0.467377 112 170 90
0.232661 0.167673 0.491574 72 99 66
0.230852 0.165659 0.491130 138 193 101
0.229052 0.163646 0.490687 122 177 85
0.227359 0.162644 0.490381 130 194 89
0.127996 0.083269 0.469880 36 68 31
0.126605 0.083276 0.469732 40 72 35
0.125215 0.083283 0.469585 81 134 65
0.123824 0.083290 0.469437 129 182 113
0.122433 0.083298 0.469290 148 214 113
0.121130 0.082293 0.469026 148 214 113
0.119652 0.083312 0.468995 144 211 105
0.118262 0.083319 0.468848 131 198 92
0.116871 0.083326 0.468700 132 195 95
0.115481 0.083333 0.468553 118 181 81
0.232704 0.169188 0.493382 132 166 117
0.230889 0.167177 0.492933 130 188 88
0.229085 0.165165 0.492484 121 179 79
0.227962 0.170223 0.493008 135 195 101
0.125072 0.082847 0.470908 30 66 32
0.123681 0.082854 0.470760 51 87 53
0.122291 0.082862 0.470613 102 159 82
0.120900 0.082869 0.470465 144 201 124
0.119510 0.082876 0.470318 154 217 115
0.118119 0.082883 0.470171 154 217 115
0.116729 0.082890 0.470023 139 206 98
0.115338 0.082897 0.469876 134 201 93
0.113947 0.082904 0.469728 134 196 99
0.112557 0.082911 0.469581 112 174 77
0.234257 0.169683 0.495230 58 94 29
0.231127 0.170709 0.495029 126 184 84
0.229706 0.172735 0.495141 131 189 89
0.228369 0.175771 0.495393 122 177 96
0.123539 0.082418 0.472083 42 62 45
0.122148 0.082425 0.471936 33 71 25
0.120758 0.082433 0.471788 77 115 69
0.119367 0.082440 0.471641 120 178 96
0.117977 0.082447 0.471494 151 209 127
0.116586 0.082454 0.471346 151 218 112
0.115196 0.082461 0.471199 141 208 102
0.113805 0.082468 0.471051 141 208 102
0.112311 0.083485 0.471024 131 198 92
0.110918 0.083492 0.470876 121 180 93
0.234513 0.173210 0.497345 109 150 72
0.232682 0.171202 0.496884 141 182 104
0.231263 0.173226 0.497001 124 180 83
0.229833 0.175251 0.497117 141 197 100
0.119225 0.082004 0.472964 43 85 33
0.117834 0.082011 0.472816 88 130 78
0.116444 0.082018 0.472669 143 202 113
0.115053 0.082025 0.472522 157 216 127
0.113663 0.082032 0.472374 156 223 117
0.112272 0.082039 0.472227 145 212 106
0.110775 0.083055 0.472202 135 201 98
0.109382 0.083063 0.472054 124 190 87
0.107989 0.083070 0.471906 108 162 88
0.106596 0.083077 0.471759 55 109 35
0.234452 0.173707 0.499039 145 189 107
0.232721 0.172708 0.498719 134 178 96
0.231296 0.174731 0.498841 136 191 97
0.230056 0.178769 0.499254 131 186 92
0.117598 0.082583 0.474266 42 68 42
0.116205 0.082590 0.474118 71 116 54
0.114812 0.082597 0.473970 141 186 124
0.113419 0.082604 0.473823 157 220 120
0.112026 0.082612 0.473675 151 214 114
0.110633 0.082619 0.473527 138 207 99
0.109240 0.082626 0.473380 129 198 90
0.107846 0.082633 0.473232 131 196 102
0.106453 0.082640 0.473084 110 175 81
0.236128 0.175202 0.501060 94 118 86
0.234390 0.174204 0.500738 152 200 112
0.232760 0.174212 0.500565 138 186 98
0.231329 0.176233 0.500690 143 200 107
0.230374 0.183288 0.501559 88 145 52
0.115966 0.083161 0.475572 34 68 37
0.114571 0.083168 0.475424 59 93 62
0.113276 0.082168 0.475148 113 168 89
0.111883 0.082175 0.475000 152 207 128
0.110490 0.082182 0.474853 153 220 114
0.109097 0.082189 0.474705 153 220 114
0.107704 0.082196 0.474557 141 207 104
0.106310 0.082203 0.474410 132 198 95
0.104917 0.082210 0.474262 124 182 102
0.236176 0.176701 0.502919 125 151 109
0.234328 0.174698 0.502441 151 202 106
0.232797 0.175712 0.502420 140 191 95
0.231659 0.180749 0.503004 143 198 108
0.230399 0.184781 0.503435 58 113 23
0.112930 0.083744 0.476734 41 81 41
0.111636 0.082745 0.476456 86 126 86
0.110240 0.082752 0.476308 143 203 109
0.108845 0.082759 0.476160 163 223 129
0.107449 0.082766 0.476012 156 220 113
0.106053 0.082773 0.475864 151 215 108
0.104657 0.082780 0.475716 136 197 107
0.103262 0.082787 0.475568 136 197 107
0.236222 0.178197 0.504787 151 179 125
0.234474 0.177201 0.504459 140 193 95
0.233139 0.180224 0.504748 146 199 101
0.231888 0.184252 0.505189 134 185 101
0.111389 0.083313 0.477916 37 62 45
0.110097 0.082314 0.477636 60 110 49
0.108702 0.082321 0.477488 136 186 125
0.107306 0.082328 0.477340 161 224 122
0.105910 0.082335 0.477192 163 226 124
0.104514 0.082343 0.477044 160 223 121
0.103119 0.082350 0.476896 147 210 108
0.101600 0.083363 0.476878 147 206 128
0.100202 0.083370 0.476730 110 169 91
0.238244 0.182694 0.507313 61 95 34
0.236374 0.180694 0.506823 152 186 125
0.234619 0.179699 0.506491 129 185 88
0.233275 0.182720 0.506786 144 200 103
0.109740 0.083887 0.479233 39 70 36
0.108449 0.082889 0.478950 56 87 53
0.107050 0.082896 0.478802 121 176 95
0.105652 0.082903 0.478653 157 212 131
0.104254 0.082910 0.478505 168 231 129
0.102856 0.082917 0.478357 161 224 122
0.101457 0.082924 0.478209 146 208 111
0.099934 0.083937 0.478193 144 206 109
0.098533 0.083944 0.478045 119 169 106
0.238074 0.182175 0.508889 94 134 65
0.236418 0.182183 0.508713 141 181 112
0.234762 0.182192 0.508538 136 192 95
0.233207 0.183204 0.508521 146 202 105
0.108195 0.083455 0.480417 42 62 43
0.106794 0.083462 0.480269 43 86 27
0.105509 0.082465 0.479984 114 157 98
0.104111 0.082472 0.479836 158 218 122
0.102712 0.082479 0.479687 170 230 134
0.101191 0.083490 0.479675 162 226 121
0.099916 0.082493 0.479391 147 211 106
0.098389 0.083505 0.479378 146 207 119
0.238014 0.182658 0.510627 117 159 89
0.236355 0.182666 0.510451 155 197 127
0.233138 0.183686 0.510261 144 202 102
0.231772 0.186702 0.510570 42 88 23
0.105250 0.083030 0.481453 37 61 29
0.103849 0.083037 0.481304 109 157 78
0.102448 0.083044 0.481156 161 209 130
0.101047 0.083051 0.481007 165 229 124
0.099521 0.084062 0.480996 162 226 121
0.098117 0.084069 0.480848 144 211 105
0.096714 0.084076 0.480699 151 218 112
0.095310 0.084084 0.480550 130 183 114
0.237952 0.183140 0.512371 138 183 112
0.236291 0.183148 0.512194 159 204 133
0.234733 0.184158 0.512183 152 210 112
0.233270 0.186170 0.512335 130 188 90
0.103587 0.083601 0.482778 45 76 32
0.102184 0.083608 0.482629 92 123 79
0.100780 0.083615 0.482481 145 200 108
0.099377 0.083622 0.482332 169 224 132
0.097973 0.083629 0.482183 159 228 118
0.096570 0.083636 0.482034 145 214 104
0.095032 0.084646 0.482025 145 211 120
0.093626 0.084654 0.481876 128 194 103
0.092081 0.085664 0.481865 64 105 56
0.239998 0.187614 0.514966 51 70 44
0.237890 0.183619 0.514119 142 187 114
0.236332 0.184629 0.514109 150 195 122
0.234872 0.186639 0.514267 155 210 116
0.233502 0.189650 0.514589 116 171 77
0.232116 0.192662 0.514910 25 63 8
0.101919 0.084170 0.484108 42 64 44
0.100513 0.084177 0.483959 75 119 55
0.099107 0.084184 0.483810 148 192 128
0.097700 0.084191 0.483660 166 233 125
0.096163 0.085200 0.483653 159 226 118
0.094754 0.085208 0.483504 144 212 109
0.093346 0.085215 0.483355 146 214 111
0.091798 0.086224 0.483347 126 179 108
0.239937 0.188089 0.516729 73 92 64
0.238044 0.186098 0.516212 144 190 112
0.236478 0.187106 0.516204 138 184 106
0.235009 0.189115 0.516365 148 200 107
0.233530 0.191124 0.516525 102 154 61
0.100369 0.083736 0.485296 32 63 31
0.098962 0.083743 0.485147 71 102 70
0.097427 0.084752 0.485143 140 199 112
0.096019 0.084759 0.484994 162 221 134
0.094610 0.084766 0.484844 149 218 110
0.093064 0.085774 0.484839 142 211 103
0.091653 0.085782 0.484689 145 210 116
0.239986 0.189562 0.518670 85 105 70
0.238088 0.187572 0.518147 151 196 107
0.236517 0.188580 0.518141 152 197 108
0.235042 0.190587 0.518307 150 202 111
0.233458 0.191595 0.518300 85 137 46
0.098691 0.084303 0.486632 43 63 48
0.097153 0.085310 0.486630 67 114 54
0.095742 0.085317 0.486481 141 188 128
0.094331 0.085325 0.486331 153 221 120
0.092920 0.085332 0.486181 145 213 112
0.091508 0.085339 0.486032 142 213 106
0.089955 0.086347 0.486028 142 213 106
0.239924 0.190033 0.520445 89 115 73
0.238239 0.190042 0.520267 148 197 102
0.236554 0.190050 0.520088 156 205 110
0.234972 0.191057 0.520084 149 201 112
0.233485 0.193063 0.520253 56 108 19
0.232278 0.198064 0.520942 27 62 24
0.095597 0.084875 0.487823 64 95 65
0.094186 0.084882 0.487674 131 194 110
0.092775 0.084889 0.487524 152 215 131
0.091224 0.085896 0.487523 146 220 112
0.089810 0.085903 0.487373 137 211 103
0.088396 0.085911 0.487223 138 203 105
0.239861 0.190502 0.522225 95 124 81
0.238174 0.190511 0.522047 135 186 90
0.236487 0.190520 0.521868 156 207 111
0.234901 0.191526 0.521866 144 198 111
0.233510 0.194528 0.522216 37 91 4
0.095453 0.084432 0.489166 42 61 51
0.094042 0.084440 0.489016 58 107 51
0.092493 0.085446 0.489018 140 189 133
0.091079 0.085453 0.488868 153 223 121
0.089665 0.085460 0.488718 145 215 113
0.088106 0.086466 0.488719 145 216 109
0.086689 0.086474 0.488569 142 213 106
0.239688 0.189973 0.523831 99 130 88
0.238001 0.189982 0.523652 150 203 107
0.236418 0.190987 0.523652 157 210 114
0.234932 0.192990 0.523832 138 195 104
0.233634 0.196986 0.524368 26 83 0
0.092348 0.085002 0.490363 71 102 72
0.090934 0.085010 0.490213 137 201 110
0.089377 0.086015 0.490216 154 218 127
0.087961 0.086022 0.490066 143 214 105
0.086396 0.087028 0.490069 142 213 104
0.084826 0.088033 0.490071 140 205 111
0.239625 0.190440 0.525618 109 139 100
0.237935 0.190449 0.525439 152 207 113
0.236453 0.192450 0.525624 154 209 115
0.234962 0.194450 0.525807 136 190 105
0.090648 0.085564 0.491714 65 117 55
0.089232 0.085571 0.491564 139 191 129
0.087669 0.086575 0.491569 153 222 114
0.086250 0.086583 0.491419 150 219 111
0.084680 0.087587 0.491423 138 205 99
0.083105 0.088592 0.491427 139 206 100
0.239670 0.191901 0.527596 120 151 109
0.237975 0.191910 0.527416 152 207 113
0.236384 0.192913 0.527421 153 208 114
0.234990 0.195908 0.527793 130 186 100
0.088943 0.086123 0.493069 69 105 69
0.087378 0.087127 0.493077 141 202 114
0.085956 0.087134 0.492926 156 217 129
0.082959 0.088145 0.492782 137 204 94
0.081378 0.089149 0.492788 142 202 108
0.239605 0.192364 0.529396 127 160 118
0.238013 0.193367 0.529403 150 202 111
0.236521 0.195364 0.529596 157 209 118
0.233307 0.197371 0.529607 13 66 0
0.088654 0.086674 0.494580 38 63 42
0.085661 0.087684 0.494439 148 199 133
0.084085 0.088687 0.494447 150 214 105
0.082659 0.088694 0.494296 144 208 99
0.081075 0.089697 0.494304 143 207 98
0.079646 0.089705 0.494153 140 204 95
0.239756 0.194812 0.531580 129 165 122
0.236449 0.195823 0.531408 157 214 123
0.234842 0.196826 0.531416 123 175 100
0.233230 0.197828 0.531423 15 67 0
0.086940 0.087230 0.495944 31 67 24
0.085366 0.088233 0.495956 91 127 84
0.083939 0.088240 0.495805 149 210 109
0.082358 0.089242 0.495815 148 209 108
0.080929 0.089249 0.495664 139 208 90
0.079340 0.090252 0.495674 141 210 92
0.077908 0.090259 0.495522 130 186 98
0.239907 0.197256 0.533780 125 163 117
0.237982 0.195279 0.533214 143 199 111
0.236377 0.196280 0.533225 158 214 126
0.234767 0.197282 0.533235 117 168 98
0.233152 0.198284 0.533244 16 67 0
0.085070 0.088779 0.497478 41 62 40
0.083641 0.088787 0.497327 110 165 75
0.082212 0.088794 0.497175 153 208 118
0.080625 0.089795 0.497188 142 208 89
0.079193 0.089803 0.497036 141 207 88
0.077761 0.089810 0.496884 144 208 101
0.239731 0.196719 0.535409 131 174 126
0.238018 0.196727 0.535228 147 203 117
0.236305 0.196736 0.535046 156 212 126
0.234692 0.197737 0.535058 116 167 99
0.233074 0.198738 0.535070 15 66 0
0.083342 0.089332 0.498854 44 82 23
0.081910 0.089339 0.498702 123 161 102
0.080478 0.089346 0.498550 150 213 102
0.078886 0.090347 0.498564 143 206 95
0.077452 0.090354 0.498412 142 207 93
0.076017 0.090362 0.498260 137 202 88
0.239663 0.197173 0.537236 136 179 133
0.237948 0.197181 0.537054 147 202 119
0.236232 0.197190 0.536872 153 208 125
0.234516 0.197199 0.536691 117 170 99
0.232898 0.198199 0.536705 16 69 0
0.081608 0.089882 0.500233 62 86 56
0.080173 0.089890 0.500081 131 186 92
0.078739 0.089897 0.499929 153 208 114
0.077305 0.089904 0.499777 147 212 100
0.075870 0.089912 0.499625 142 207 95
0.239595 0.197625 0.539068 133 171 127
0.237772 0.196644 0.538687 147 205 121
0.236159 0.197643 0.538704 151 209 125
0.234440 0.197651 0.538522 117 170 99
0.232819 0.198651 0.538538 15 68 0
0.081461 0.089433 0.501598 37 52 36
0.080026 0.089440 0.501446 66 110 44
0.078592 0.089447 0.501294 146 190 124
0.076994 0.090446 0.501313 149 213 108
0.075391 0.091446 0.501331 143 207 102
0.073952 0.091453 0.501178 145 210 114
0.239419 0.197086 0.540703 128 161 119
0.237701 0.197095 0.540521 153 208 125
0.235983 0.197104 0.540338 151 206 123
0.234364 0.198102 0.540358 123 175 102
0.232740 0.199100 0.540376 17 69 0
0.079721 0.089981 0.502984 43 74 30
0.078123 0.090979 0.503006 98 129 85
0.076683 0.090987 0.502853 153 210 117
0.075077 0.091985 0.502874 150 207 114
0.073466 0.092983 0.502894 142 208 107
0.071850 0.093982 0.502913 145 211 110
0.239350 0.197536 0.542542 113 146 102
0.237629 0.197545 0.542360 140 196 108
0.235908 0.197554 0.542177 150 206 118
0.234187 0.197563 0.541995 126 178 103
0.232660 0.199549 0.542219 19 71 0
0.077653 0.092508 0.504728 51 70 40
0.076208 0.092516 0.504574 126 172 92
0.074763 0.092523 0.504421 164 210 130
0.072980 0.094510 0.504619 146 213 107
0.071530 0.094518 0.504465 147 214 108
0.239280 0.197985 0.544386 106 140 91
0.237557 0.197993 0.544203 143 200 105
0.235833 0.198002 0.544021 149 206 111
0.234209 0.198999 0.544044 126 178 103
0.232676 0.200984 0.544273 18 70 0
0.075731 0.094041 0.506305 70 105 37
0.074282 0.094049 0.506152 151 186 118
0.072662 0.095045 0.506176 152 214 108
0.071038 0.096042 0.506199 143 205 99
0.069583 0.096049 0.506045 149 213 108
0.239316 0.199418 0.546445 102 128 84
0.237484 0.198440 0.546052 151 206 112
0.235758 0.198449 0.545869 147 202 108
0.234131 0.199445 0.545895 129 183 107
0.232595 0.201428 0.546128 17 71 0
0.075418 0.094575 0.507866 36 61 15
0.073799 0.095571 0.507892 93 118 72
0.072344 0.095578 0.507738 147 205 105
0.070889 0.095586 0.507584 146 204 104
0.069434 0.095593 0.507429 144 212 99
0.239246 0.199863 0.548301 98 122 81
0.237514 0.199872 0.548117 155 207 118
0.235783 0.199880 0.547934 153 205 116
0.234151 0.200876 0.547961 136 191 112
0.232609 0.202857 0.548199 18 73 0
0.073650 0.095115 0.509276 50 67 37
0.072195 0.095122 0.509122 106 157 71
0.070567 0.096117 0.509150 157 208 122
0.069110 0.096125 0.508996 140 209 91
0.067652 0.096132 0.508841 135 204 86
0.239280 0.201291 0.550377 83 104 66
0.237544 0.201300 0.550193 148 199 113
0.235807 0.201309 0.550008 155 206 120
0.234071 0.201317 0.549824 142 197 116
0.232526 0.203297 0.550067 24 79 0
0.071705 0.096640 0.510877 53 94 27
0.070245 0.096647 0.510722 140 181 114
0.068785 0.096654 0.510567 148 213 101
0.065684 0.097656 0.510441 154 216 112
0.239313 0.202716 0.552462 80 101 63
0.237572 0.202725 0.552278 152 203 117
0.235830 0.202734 0.552093 157 208 122
0.234089 0.202743 0.551908 144 197 115
0.232443 0.203736 0.551939 30 83 1
0.069923 0.097175 0.512298 92 124 75
0.068460 0.097183 0.512143 149 211 107
0.066819 0.098176 0.512175 148 210 106
0.065173 0.099170 0.512206 147 211 102
0.063521 0.100164 0.512237 150 214 105
0.239240 0.203154 0.554338 76 96 63
0.237496 0.203163 0.554153 162 211 127
0.235752 0.203171 0.553968 156 205 121
0.234008 0.203180 0.553783 145 198 116
0.232359 0.204173 0.553817 40 93 11
0.230705 0.205166 0.553850 29 60 30
0.069253 0.099672 0.514259 38 62 32
0.067782 0.099680 0.514103 116 173 80
0.066312 0.099687 0.513947 156 213 120
0.064660 0.100680 0.513981 144 208 99
0.063187 0.100688 0.513824 149 213 104
0.239167 0.203590 0.556219 70 89 61
0.237420 0.203599 0.556034 162 210 129
0.235674 0.203608 0.555849 148 196 115
0.233927 0.203617 0.555664 147 202 119
0.232180 0.203626 0.555478 55 110 27
0.230526 0.204618 0.555514 27 61 26
0.067279 0.101188 0.515886 58 110 35
0.065804 0.101195 0.515730 150 202 127
0.064147 0.102187 0.515765 149 217 104
0.062668 0.102195 0.515608 146 214 101
0.061004 0.103187 0.515642 152 211 122
0.239093 0.204024 0.558105 64 85 61
0.237241 0.203051 0.557696 147 196 122
0.235495 0.203060 0.557510 157 206 132
0.233748 0.203069 0.557325 151 207 121
0.232096 0.204060 0.557363 80 136 50
0.230347 0.204069 0.557178 28 63 23
0.066775 0.102693 0.517679 25 64 11
0.065295 0.102700 0.517522 121 160 107
0.063814 0.102708 0.517365 152 219 111
0.062149 0.103699 0.517402 144 211 103
0.060665 0.103706 0.517244 147 213 112
0.238913 0.203476 0.559769 49 69 50
0.237164 0.203485 0.559584 132 183 113
0.235415 0.203494 0.559398 155 206 136
0.233666 0.203503 0.559213 149 208 119
0.231917 0.203512 0.559027 101 160 71
0.230259 0.204502 0.559067 30 63 19
0.064605 0.105184 0.519520 80 110 73
0.063298 0.104209 0.519166 149 210 111
0.061812 0.104217 0.519009 148 209 110
0.060139 0.105207 0.519047 145 214 108
0.238734 0.202928 0.561433 40 62 44
0.236985 0.202936 0.561248 131 182 114
0.235236 0.202945 0.561062 155 206 138
0.233487 0.202954 0.560877 149 209 117
0.231737 0.202963 0.560691 115 175 83
0.230080 0.203953 0.560734 27 63 16
0.064094 0.106682 0.521335 37 65 38
0.062600 0.106689 0.521176 124 180 94
0.061106 0.106697 0.521018 159 215 129
0.059612 0.106705 0.520860 143 212 106
0.057929 0.107694 0.520899 145 214 108
0.236907 0.203368 0.563143 131 182 116
0.235155 0.203377 0.562957 154 205 139
0.233404 0.203386 0.562772 141 203 108
0.231652 0.203395 0.562586 123 185 90
0.229991 0.204383 0.562631 25 64 13
0.063581 0.108176 0.523159 29 54 35
0.062082 0.108184 0.523000 72 124 51
0.060583 0.108191 0.522841 157 209 136
0.059084 0.108199 0.522682 142 208 105
0.057585 0.108207 0.522523 151 217 114
0.236728 0.202819 0.564810 112 160 95
0.234976 0.202828 0.564624 159 207 142
0.233320 0.203815 0.564672 145 210 116
0.231566 0.203824 0.564485 127 192 98
0.229902 0.204812 0.564532 23 65 13
0.061746 0.108694 0.524629 39 82 21
0.060245 0.108702 0.524470 148 191 130
0.058743 0.108709 0.524311 149 212 112
0.057242 0.108717 0.524152 147 210 110
0.055740 0.108725 0.523993 149 208 121
0.236649 0.203247 0.566712 93 136 75
0.234895 0.203256 0.566527 160 203 142
0.233141 0.203265 0.566341 151 212 122
0.229722 0.204262 0.566204 24 68 15
0.061227 0.110183 0.526470 26 60 11
0.059905 0.109211 0.526105 127 161 112
0.058401 0.109218 0.525945 154 212 112
0.056897 0.109226 0.525786 145 203 103
0.055200 0.110213 0.525831 152 209 114
0.236671 0.204652 0.568859 71 110 48
0.234813 0.203684 0.568434 161 200 138
0.233056 0.203693 0.568248 152 211 122
0.231299 0.203702 0.568061 144 203 114
0.229633 0.204688 0.568113 31 77 22
0.060706 0.111668 0.528321 27 53 11
0.059194 0.111676 0.528160 98 124 82
0.057682 0.111683 0.528000 152 208 111
0.056170 0.111691 0.527840 146 202 105
0.054659 0.111699 0.527680 153 209 110
0.236591 0.205077 0.570774 59 100 37
0.234829 0.205086 0.570587 159 200 137
0.232972 0.204118 0.570160 149 208 119
0.231305 0.205104 0.570213 150 209 120
0.229543 0.205113 0.570027 45 91 36
0.058481 0.114136 0.530231 60 83 49
0.056962 0.114143 0.530070 148 200 111
0.055442 0.114151 0.529909 150 202 113
0.053729 0.115137 0.529958 152 208 111
0.236611 0.206476 0.572937 47 87 27
0.234746 0.205509 0.572507 158 198 138
0.232981 0.205518 0.572320 161 223 128
0.231217 0.205527 0.572133 147 209 114
0.229542 0.206512 0.572188 61 109 44
0.227862 0.207497 0.572243 21 69 4
0.057953 0.115614 0.532103 38 57 29
0.056428 0.115622 0.531941 133 182 98
0.054904 0.115629 0.531780 156 205 121
0.053379 0.115637 0.531618 155 211 114
0.236529 0.206897 0.574865 37 74 22
0.234760 0.206906 0.574677 146 183 131
0.232895 0.205940 0.574244 163 223 129
0.231220 0.206924 0.574302 150 210 116
0.229450 0.206933 0.574114 84 136 63
0.227767 0.207917 0.574171 12 64 0
0.057424 0.117089 0.533985 33 50 24
0.055894 0.117096 0.533823 119 165 87
0.236448 0.207316 0.576797 27 65 19
0.234675 0.207325 0.576609 116 154 108
0.232903 0.207334 0.576421 162 224 131
0.231131 0.207343 0.576233 149 211 118
0.229358 0.207352 0.576045 108 163 84
0.227673 0.208336 0.576104 9 64 0
0.056707 0.119536 0.536095 38 53 35
0.055169 0.119544 0.535932 108 152 88
0.234591 0.207743 0.578546 118 156 112
0.232721 0.206779 0.578107 157 218 128
0.231041 0.207761 0.578169 151 212 122
0.229266 0.207770 0.577981 129 184 105
0.227577 0.208753 0.578043 17 72 0
0.055988 0.121978 0.538219 42 57 41
0.234505 0.208159 0.580487 104 141 100
0.232634 0.207195 0.580046 155 216 126
0.230859 0.207205 0.579858 155 216 126
0.229173 0.208186 0.579922 140 198 114
0.227395 0.208195 0.579734 24 82 0
0.234323 0.207602 0.582179 77 108 76
0.232546 0.207611 0.581990 161 216 133
0.230768 0.207620 0.581802 164 219 136
0.228990 0.207629 0.581613 144 202 118
0.227299 0.208610 0.581679 43 101 17
0.234237 0.208015 0.584128 62 85 62
0.232457 0.208024 0.583939 156 203 129
0.230677 0.208033 0.583750 178 225 151
0.228897 0.208042 0.583562 154 207 129
0.227116 0.208051 0.583373 65 118 40
0.234055 0.207457 0.585821 46 68 48
0.232274 0.207466 0.585633 150 190 130
0.230494 0.207475 0.585444 178 218 158
0.228714 0.207484 0.585255 161 212 144
0.227019 0.208463 0.585326 81 132 64
0.225237 0.208473 0.585137 22 60 30
0.233968 0.207868 0.587778 40 60 43
0.232185 0.207877 0.587589 141 184 127
0.230402 0.207886 0.587400 169 212 155
0.228619 0.207895 0.587211 164 215 147
0.226922 0.208874 0.587284 94 145 77
0.225137 0.208883 0.587094 17 53 19
0.049429 0.203960 0.566951 77 80 64
0.233880 0.208278 0.589739 38 55 39
0.232095 0.208287 0.589550 118 162 107
0.230310 0.208296 0.589361 169 213 158
0.228524 0.208305 0.589171 164 217 146
0.226739 0.208314 0.588982 109 162 91
0.225036 0.209292 0.589057 18 54 11
0.232004 0.208695 0.591516 88 134 81
0.230216 0.208704 0.591326 171 217 164
0.228429 0.208713 0.591137 170 225 146
0.226641 0.208722 0.590947 126 181 102
0.224853 0.208731 0.590758 26 65 14
0.051691 0.197995 0.569308 76 71 28
0.231821 0.208134 0.593217 71 115 62
0.230033 0.208143 0.593027 168 212 159
0.228245 0.208152 0.592838 170 228 146
0.226542 0.209128 0.592918 144 202 120
0.224751 0.209138 0.592728 34 76 22
0.053099 0.198404 0.571408 116 121 88
0.051682 0.196476 0.570737 138 134 84
0.231730 0.208540 0.595190 44 81 31
0.229939 0.208549 0.595001 161 198 148
0.228149 0.208558 0.594811 174 229 148
0.226358 0.208567 0.594621 154 209 128
0.224649 0.209542 0.594702 45 89 36
0.052413 0.200754 0.573816 125 127 82
0.051502 0.195926 0.572406 136 134 84
0.049922 0.194968 0.571976 64 62 12
0.231729 0.209909 0.597444 42 72 22
0.229845 0.208953 0.596979 152 182 132
0.228052 0.208962 0.596788 171 224 144
0.226259 0.208971 0.596598 159 212 132
0.224547 0.209945 0.596682 77 123 70
0.053499 0.203091 0.576428 131 127 79
0.052062 0.201167 0.575745 140 136 88
0.050979 0.197309 0.574569 117 117 64
0.049568 0.195385 0.573889 46 46 0
0.048167 0.193460 0.573210 57 78 28
0.044765 0.183820 0.570198 82 124 52
0.231637 0.210310 0.599429 35 65 17
0.229750 0.209355 0.598961 143 173 125
0.227954 0.209364 0.598771 166 216 139
0.226159 0.209373 0.598581 162 212 135
0.224444 0.210347 0.598667 104 151 93
0.222646 0.210356 0.598476 21 68 10
0.053318 0.202535 0.578116 126 123 78
0.051712 0.201578 0.577679 154 151 106
0.050111 0.200621 0.577241 105 109 50
0.049039 0.196766 0.576057 50 54 0
0.047811 0.193878 0.575124 82 110 54
0.046239 0.192921 0.574689 89 117 61
0.044672 0.191964 0.574255 83 126 47
0.045142 0.180382 0.571093 104 147 68
0.231543 0.210710 0.601420 32 57 20
0.229654 0.209756 0.600949 144 169 132
0.227856 0.209765 0.600759 163 213 134
0.226058 0.209774 0.600568 163 213 134
0.224340 0.210747 0.600656 119 169 106
0.222540 0.210756 0.600465 15 65 2
0.051191 0.202952 0.579869 151 153 108
0.049586 0.201996 0.579429 123 124 57
0.047985 0.201040 0.578989 54 55 0
0.047100 0.196224 0.577544 95 119 58
0.045880 0.193338 0.576604 123 147 86
0.041750 0.187574 0.574546 139 177 100
0.229558 0.210155 0.602942 94 118 86
0.227757 0.210164 0.602751 165 220 141
0.225957 0.210173 0.602560 159 214 135
0.224156 0.210182 0.602369 131 182 112
0.222433 0.211154 0.602459 15 66 0
0.049231 0.202404 0.581372 143 145 82
0.047454 0.202413 0.581183 113 115 52
0.045854 0.201458 0.580741 69 82 22
0.044259 0.200502 0.580299 112 125 65
0.042304 0.201476 0.580365 107 139 79
0.040344 0.202449 0.580430 96 128 68
0.038378 0.203422 0.580494 60 86 42
0.229462 0.210552 0.604940 73 100 71
0.227573 0.209599 0.604464 156 213 136
0.225772 0.209608 0.604273 157 214 137
0.224052 0.210580 0.604366 143 195 120
0.222248 0.210589 0.604175 32 84 9
0.229277 0.209987 0.606655 52 79 50
0.227473 0.209996 0.606464 151 208 131
0.225670 0.210005 0.606273 163 220 143
0.223867 0.210014 0.606082 151 206 125
0.222141 0.210985 0.606176 46 101 20
0.229179 0.210382 0.608660 44 71 42
0.227374 0.210391 0.608469 153 206 124
0.225485 0.209440 0.607989 169 222 140
0.223762 0.210409 0.608086 153 209 123
0.221956 0.210418 0.607895 57 113 27
0.228994 0.209815 0.610379 36 58 29
0.227189 0.209825 0.610187 141 191 102
0.225383 0.209834 0.609996 168 218 129
0.223577 0.209843 0.609804 157 212 120
0.221771 0.209852 0.609613 73 128 36
0.220039 0.210821 0.609712 24 59 21
0.228896 0.210208 0.612391 35 54 26
0.227088 0.210217 0.612199 134 179 90
0.225198 0.209267 0.611714 164 209 120
0.223392 0.209277 0.611522 159 214 120
0.221662 0.210245 0.611624 97 152 58
0.219854 0.210254 0.611432 20 58 14
0.226902 0.209650 0.613920 129 172 84
0.225094 0.209659 0.613728 167 210 122
0.223285 0.209668 0.613536 162 218 121
0.221477 0.209678 0.613345 121 177 80
0.219742 0.210645 0.613448 17 58 11
0.226717 0.209083 0.615640 118 160 79
0.224909 0.209092 0.615449 167 209 128
0.223100 0.209101 0.615257 164 222 124
0.219557 0.210077 0.615171 21 63 11
0.226615 0.209472 0.617662 74 116 46
0.224804 0.209482 0.617470 160 202 132
0.222993 0.209491 0.617278 159 217 119
0.221182 0.209500 0.617086 138 196 98
0.219371 0.209509 0.616894 27 70 9
0.226513 0.209860 0.619689 44 85 22
0.224619 0.208914 0.619193 153 194 131
0.222808 0.208923 0.619001 156 213 118
0.220997 0.208932 0.618809 144 201 106
0.219185 0.208941 0.618617 45 89 21
0.226327 0.209291 0.621415 34 74 16
0.224514 0.209301 0.621222 145 185 127
0.222622 0.208355 0.620724 154 212 114
0.220811 0.208364 0.620532 150 208 110
0.219000 0.208373 0.620340 67 114 40
0.226141 0.208723 0.623140 29 68 15
0.224328 0.208732 0.622948 134 173 120
0.222514 0.208741 0.622756 158 213 119
0.220700 0.208750 0.622563 154 209 115
0.218887 0.208760 0.622371 86 133 59
0.217073 0.208769 0.622179 14 61 0
0.225956 0.208154 0.624866 26 63 11
0.224142 0.208163 0.624673 117 154 102
0.222328 0.208173 0.624481 158 213 121
0.220515 0.208182 0.624289 154 209 117
0.218701 0.208191 0.624097 98 148 71
0.216887 0.208200 0.623904 14 64 0
0.223956 0.207595 0.626399 100 132 83
0.222142 0.207604 0.626207 157 212 118
0.220329 0.207613 0.626014 152 207 113
0.218515 0.207622 0.625822 113 163 86
0.216701 0.207632 0.625630 12 62 0
0.223770 0.207026 0.628124 87 118 72
0.221957 0.207035 0.627932 153 208 114
0.220143 0.207044 0.627740 148 203 109
0.218329 0.207054 0.627548 123 176 98
0.216516 0.207063 0.627355 10 63 0
0.223663 0.207408 0.630168 78 106 70
0.221847 0.207417 0.629976 147 204 113
0.219957 0.206476 0.629465 146 203 112
0.218143 0.206485 0.629273 131 189 107
0.216330 0.206494 0.629081 17 75 0
0.223477 0.206838 0.631896 62 89 58
0.221661 0.206848 0.631703 141 200 113
0.219771 0.205907 0.631191 144 203 116
0.217958 0.205916 0.630998 136 195 108
0.216144 0.205925 0.630806 26 85 0
0.223291 0.206269 0.633624 46 70 40
0.221475 0.206278 0.633431 135 193 111
0.219659 0.206287 0.633239 144 202 120
0.217843 0.206297 0.633046 139 200 110
0.216026 0.206306 0.632854 45 106 16
0.223183 0.206648 0.635678 38 62 32
0.221289 0.205709 0.635159 129 186 109
0.219473 0.205718 0.634967 143 200 123
0.217656 0.205727 0.634774 142 204 107
0.215840 0.205736 0.634582 65 127 30
0.214024 0.205746 0.634389 23 57 6
0.222997 0.206077 0.637408 32 59 30
0.221178 0.206087 0.637215 126 183 106
0.219287 0.205148 0.636695 140 197 120
0.217470 0.205158 0.636502 143 206 106
0.215654 0.205167 0.636310 91 154 54
0.213838 0.205176 0.636117 19 59 3
0.222811 0.205507 0.639138 31 57 33
0.220992 0.205516 0.638946 125 179 105
0.219101 0.204579 0.638423 144 198 124
0.217284 0.204588 0.638230 137 200 98
0.215468 0.204597 0.638038 107 170 68
0.213717 0.205553 0.638174 17 60 1
0.220806 0.204946 0.640676 114 168 92
0.218987 0.204955 0.640483 142 196 120
0.217168 0.204965 0.640290 133 196 94
0.215349 0.204974 0.640097 117 180 78
0.213530 0.204983 0.639905 20 65 5
0.220694 0.205321 0.642742 94 147 69
0.218800 0.204385 0.642214 144 197 119
0.216982 0.204394 0.642021 132 199 93
0.215163 0.204404 0.641828 123 190 84
0.213344 0.204413 0.641635 22 72 9
0.220507 0.204750 0.644474 67 114 40
0.218686 0.204759 0.644281 147 194 120
0.216795 0.203824 0.643751 130 197 89
0.214976 0.203833 0.643558 130 197 89
0.213222 0.204787 0.643702 25 77 13
0.220395 0.205122 0.646547 49 94 21
0.218499 0.204188 0.646014 146 191 118
0.216609 0.203254 0.645481 130 197 91
0.214790 0.203263 0.645289 133 200 94
0.213035 0.204216 0.645435 37 89 25
0.220282 0.205493 0.648625 41 82 15
0.218384 0.204560 0.648089 147 188 121
0.216491 0.203626 0.647554 126 192 91
0.214670 0.203635 0.647361 137 203 102
0.212912 0.204587 0.647509 46 101 36
0.220168 0.205862 0.650708 36 76 18
0.218197 0.203988 0.649825 140 180 122
0.216373 0.203997 0.649631 128 195 101
0.214549 0.204006 0.649438 133 200 106
0.212725 0.204015 0.649244 57 112 47
0.211022 0.205909 0.649738 10 65 0
0.220054 0.206230 0.652796 33 72 21
0.218081 0.204357 0.651907 129 168 117
0.216254 0.204366 0.651713 126 192 103
0.214428 0.204375 0.651520 131 197 108
0.212601 0.204385 0.651326 70 126 58
0.210895 0.206276 0.651825 7 63 0
0.219866 0.205655 0.654538 24 62 14
0.217964 0.204724 0.653994 118 156 108
0.216067 0.203793 0.653451 122 189 104
0.214241 0.203803 0.653257 128 195 110
0.212477 0.204752 0.653413 87 143 71
0.210768 0.206642 0.653916 7 63 0
0.219751 0.206020 0.656633 21 57 12
0.217847 0.205090 0.656087 106 142 97
0.216015 0.205100 0.655892 124 189 105
0.214183 0.205109 0.655698 119 184 100
0.212352 0.205118 0.655504 113 173 92
0.210580 0.206067 0.655661 6 66 0
0.219636 0.206384 0.658733 20 56 13
0.217729 0.205455 0.658184 99 135 92
0.215828 0.204525 0.657635 126 191 105
0.213996 0.204535 0.657441 123 188 102
0.212226 0.205483 0.657601 118 178 95
0.210452 0.206431 0.657760 11 71 0
0.217541 0.204879 0.659929 94 126 87
0.215707 0.204889 0.659735 133 197 108
0.213873 0.204898 0.659540 130 194 105
0.212038 0.204907 0.659346 126 184 100
0.210323 0.206793 0.659863 16 74 0
0.217492 0.206178 0.662393 92 124 85
0.215586 0.205251 0.661839 131 195 106
0.213749 0.205260 0.661644 125 189 100
0.211974 0.206207 0.661808 129 189 106
0.210193 0.207153 0.661971 16 76 0
0.217304 0.205602 0.664143 78 113 73
0.215464 0.205611 0.663948 135 198 112
0.213625 0.205620 0.663753 125 188 102
0.211847 0.206566 0.663919 135 194 107
0.210063 0.207512 0.664085 31 90 3
0.217184 0.205960 0.666257 66 101 61
0.215276 0.205034 0.665698 137 198 108
0.213436 0.205043 0.665503 127 188 98
0.211658 0.205988 0.665672 137 198 108
0.209933 0.207869 0.666203 39 100 10
0.216995 0.205383 0.668010 48 80 41
0.215087 0.204457 0.667448 135 197 104
0.213311 0.205401 0.667619 126 188 95
0.211530 0.206345 0.667790 138 203 109
0.209744 0.207290 0.667960 47 112 18
0.216807 0.204805 0.669762 35 65 26
0.214899 0.203881 0.669198 134 193 104
0.213122 0.204824 0.669372 127 186 97
0.211341 0.205767 0.669545 140 202 107
0.209612 0.207644 0.670086 58 120 25
0.207818 0.208588 0.670258 17 53 17
0.216618 0.204227 0.671515 31 59 23
0.214710 0.203304 0.670948 136 192 104
0.212934 0.204246 0.671124 128 184 96
0.211212 0.206122 0.671671 140 202 109
0.209423 0.207064 0.671846 56 118 25
0.207628 0.208007 0.672020 17 56 19
0.216429 0.203650 0.673267 30 55 20
0.214587 0.203659 0.673072 133 187 100
0.212745 0.203669 0.672877 126 180 93
0.211023 0.205543 0.673428 135 196 106
0.209233 0.206484 0.673606 73 134 44
0.207438 0.207426 0.673782 17 58 24
0.216240 0.203072 0.675020 28 50 19
0.214398 0.203082 0.674825 130 184 97
0.212556 0.203091 0.674629 125 179 92
0.210834 0.204963 0.675186 128 189 101
0.209044 0.205904 0.675365 75 136 48
0.207303 0.207776 0.675920 17 58 24
0.216052 0.202495 0.676772 26 48 19
0.214145 0.201573 0.676198 127 181 96
0.212368 0.202513 0.676382 124 178 93
0.210645 0.204384 0.676943 129 190 100
0.208854 0.205324 0.677125 75 136 46
0.207113 0.207195 0.677685 17 56 23
0.215863 0.201917 0.678525 26 45 17
0.213956 0.200997 0.677948 123 176 94
0.212117 0.201006 0.677753 130 183 101
0.210396 0.202875 0.678320 132 193 103
0.208665 0.204744 0.678885 78 139 49
0.206923 0.206613 0.679449 18 57 24
0.215674 0.201339 0.680277 24 43 15
0.213768 0.200420 0.679698 123 173 92
0.211990 0.201358 0.679887 131 181 100
0.210207 0.202297 0.680075 132 193 103
0.208475 0.204164 0.680645 83 144 54
0.206733 0.206032 0.681214 17 56 23
0.215485 0.200762 0.682030 23 42 16
0.213580 0.199843 0.681448 120 170 91
0.211801 0.200781 0.681639 133 183 104
0.210018 0.201718 0.681830 130 189 102
0.208286 0.203584 0.682405 86 145 58
0.206543 0.205450 0.682979 15 54 21
0.215297 0.200184 0.683782 23 41 20
0.213391 0.199266 0.683198 122 169 95
0.211613 0.200203 0.683392 136 183 109
0.209888 0.202067 0.683973 130 190 105
0.208096 0.203004 0.684165 89 149 64
0.206353 0.204868 0.684744 14 52 22
0.215174 0.200533 0.685926 28 47 21
0.213266 0.199616 0.685340 119 166 92
0.211485 0.200552 0.685535 136 183 109
0.209698 0.201488 0.685730 130 193 109
0.207907 0.202424 0.685924 87 150 66
0.206163 0.204287 0.686508 11 50 17
0.437093 0.209935 0.715869 30 43 40
0.435218 0.209945 0.715670 22 36 38
0.433342 0.209955 0.715471 22 36 38
0.431467 0.209964 0.715272 20 35 34
0.429591 0.209974 0.715074 20 35 34
0.214985 0.199955 0.687681 29 48 18
0.213014 0.198113 0.686698 122 170 91
0.211235 0.199048 0.686897 130 178 99
0.209509 0.200909 0.687487 139 199 116
0.207717 0.201844 0.687684 85 145 62
0.205973 0.203705 0.688273 15 54 19
0.436901 0.209347 0.717653 33 46 45
0.435026 0.209357 0.717454 21 38 39
0.433150 0.209367 0.717256 20 37 38
0.431274 0.209376 0.717057 15 33 29
0.429399 0.209386 0.716858 18 36 32
0.427523 0.209395 0.716659 18 29 25
0.214731 0.198451 0.689040 25 49 17
0.212826 0.197536 0.688449 118 166 85
0.211046 0.198470 0.688649 137 185 104
0.209320 0.200330 0.689245 133 193 108
0.207528 0.201264 0.689444 82 142 57
0.205835 0.204048 0.690433 20 59 22
0.438212 0.207827 0.719205 33 44 42
0.436339 0.207837 0.719007 34 45 43
0.434466 0.207846 0.718808 24 39 38
0.432593 0.207856 0.718610 24 39 38
0.431082 0.208788 0.718841 24 39 34
0.429207 0.208798 0.718642 20 35 30
0.427331 0.208807 0.718444 18 31 26
0.212637 0.196959 0.690199 120 171 85
0.210858 0.197893 0.690402 132 183 97
0.209131 0.199750 0.691002 136 198 105
0.207338 0.200684 0.691204 80 142 49
0.205645 0.203466 0.692200 19 60 22
0.438020 0.207240 0.720987 34 45 41
0.436147 0.207249 0.720789 37 48 44
0.434274 0.207259 0.720590 30 41 39
0.432401 0.207269 0.720392 30 41 39
0.430890 0.208200 0.720626 28 41 36
0.429014 0.208209 0.720427 22 35 30
0.427139 0.208219 0.720228 24 37 32
0.212511 0.197306 0.692349 120 172 81
0.210669 0.197315 0.692154 127 179 88
0.208998 0.200094 0.693160 132 194 99
0.207149 0.200104 0.692964 76 138 43
0.205455 0.202883 0.693967 17 58 20
0.437457 0.205732 0.722333 37 48 46
0.435586 0.205741 0.722135 33 44 42
0.433716 0.205751 0.721936 34 42 39
0.431846 0.205760 0.721738 33 41 38
0.430337 0.206691 0.721975 28 41 36
0.428822 0.207621 0.722211 25 38 33
0.426947 0.207631 0.722012 26 40 31
0.212260 0.195806 0.693699 123 175 86
0.210480 0.196737 0.693907 126 178 89
0.208809 0.199514 0.694920 132 194 99
0.206959 0.199524 0.694724 68 130 35
0.205265 0.202301 0.695734 15 56 18
0.436894 0.204225 0.723674 33 44 40
0.435026 0.204234 0.723476 31 42 38
0.433158 0.204244 0.723278 29 40 36
0.431290 0.204254 0.723080 27 38 34
0.429784 0.205183 0.723319 29 42 37
0.428630 0.207033 0.723996 31 44 39
0.426755 0.207043 0.723797 32 45 40
0.212072 0.195229 0.695449 124 181 88
0.210292 0.196160 0.695659 120 177 84
0.208619 0.198934 0.696680 132 194 101
0.206824 0.199866 0.696889 61 123 30
0.205126 0.202640 0.697906 15 54 19
0.435960 0.201801 0.724569 26 40 29
0.434466 0.202729 0.724812 25 39 28
0.432601 0.202739 0.724614 25 39 30
0.431099 0.203668 0.724857 26 40 31
0.429592 0.204597 0.725099 31 45 36
0.428438 0.206445 0.725780 36 50 41
0.426918 0.207374 0.726021 35 49 40
0.211760 0.192810 0.696382 124 184 92
0.210044 0.194661 0.697004 119 179 87
0.208430 0.198354 0.698440 129 190 102
0.206634 0.199285 0.698651 56 117 29
0.204935 0.202057 0.699676 17 53 19
0.435399 0.200298 0.725897 58 76 55
0.433538 0.200308 0.725700 36 54 33
0.431678 0.200317 0.725503 21 41 22
0.430181 0.201245 0.725749 22 42 23
0.429040 0.203092 0.726436 29 45 34
0.428246 0.205857 0.727564 35 51 40
0.211511 0.191315 0.697717 128 187 100
0.209855 0.194085 0.698754 119 178 91
0.208240 0.197774 0.700199 130 190 107
0.206444 0.198704 0.700413 42 102 19
0.434837 0.198797 0.727221 88 112 82
0.432980 0.198807 0.727024 77 101 71
0.431488 0.199734 0.727273 65 94 60
0.429628 0.199743 0.727075 35 64 30
0.428848 0.202506 0.728213 34 56 40
0.428054 0.205269 0.729349 37 59 43
0.212964 0.187973 0.698413 59 91 54
0.211201 0.188902 0.698633 125 185 100
0.209609 0.192588 0.700091 119 179 94
0.208051 0.197194 0.701959 127 187 104
0.206308 0.199042 0.702588 25 85 2
0.436132 0.197288 0.728737 76 92 71
0.433907 0.196381 0.728091 80 110 71
0.432422 0.197307 0.728343 74 104 65
0.430567 0.197317 0.728147 69 105 62
0.429075 0.198243 0.728398 53 89 46
0.428297 0.201003 0.729543 52 74 56
0.427861 0.204681 0.731133 44 66 48
0.212714 0.186483 0.699733 64 99 61
0.211014 0.188329 0.700371 123 183 98
0.209420 0.192012 0.701838 120 180 95
0.207861 0.196614 0.703719 125 185 104
0.435196 0.194875 0.729599 70 89 63
0.433347 0.194884 0.729403 76 112 67
0.431864 0.195810 0.729657 69 105 60
0.430377 0.196735 0.729911 64 100 57
0.428884 0.197661 0.730165 70 106 63
0.428106 0.200419 0.731317 63 85 67
0.212465 0.184994 0.701047 80 115 75
0.210706 0.185921 0.701272 125 186 98
0.209232 0.191437 0.703586 119 180 92
0.207672 0.196034 0.705479 123 181 101
0.435007 0.194295 0.731359 75 97 70
0.433157 0.194304 0.731163 72 113 64
0.431307 0.194313 0.730967 66 107 58
0.429822 0.195238 0.731223 66 104 60
0.428332 0.196163 0.731479 52 90 46
0.427915 0.199834 0.733092 41 63 43
0.212215 0.183507 0.702357 85 121 78
0.210459 0.184433 0.702585 123 184 96
0.208986 0.189944 0.704913 118 179 91
0.207482 0.195454 0.707239 120 174 98
0.434073 0.191886 0.732206 88 110 81
0.432229 0.191895 0.732011 71 113 59
0.431118 0.193733 0.732726 64 106 52
0.429268 0.193743 0.732530 67 103 58
0.427780 0.194667 0.732789 40 76 31
0.427365 0.198334 0.734412 48 66 45
0.211967 0.182022 0.703661 99 132 86
0.210273 0.183863 0.704315 125 187 94
0.208913 0.191201 0.707504 127 189 96
0.207293 0.194874 0.708999 100 152 79
0.433512 0.190394 0.733503 91 115 83
0.430562 0.192240 0.734028 65 108 51
0.429079 0.193163 0.734290 64 97 55
0.427590 0.194086 0.734552 42 75 33
0.427533 0.198664 0.736641 51 66 48
0.211781 0.181453 0.705387 113 151 96
0.210146 0.184208 0.706471 125 186 96
0.208782 0.191539 0.709679 134 195 105
0.207103 0.194294 0.710759 75 126 60
0.432581 0.187990 0.734333 92 120 84
0.431851 0.190738 0.735521 72 115 56
0.428889 0.192583 0.736050 58 88 49
0.427400 0.193505 0.736314 45 75 36
0.213473 0.181789 0.707733 29 70 7
0.211595 0.180884 0.707112 122 163 100
0.209960 0.183637 0.708204 125 187 90
0.208593 0.190961 0.711432 134 196 99
0.206914 0.193714 0.712518 52 102 41
0.432734 0.183757 0.734421 58 88 49
0.432021 0.186502 0.735618 84 114 75
0.431293 0.189248 0.736813 65 108 47
0.427211 0.192924 0.738076 42 70 32
0.213223 0.180306 0.709030 31 77 8
0.211409 0.180315 0.708838 126 172 103
0.209832 0.183979 0.710367 125 187 90
0.208404 0.190384 0.713184 129 191 94
0.206724 0.193134 0.714278 41 88 30
0.431799 0.181362 0.735226 80 111 67
0.430720 0.183194 0.735965 86 117 73
0.430736 0.187759 0.738099 67 107 47
0.427021 0.192343 0.739838 51 76 39
0.212973 0.178825 0.710322 44 95 25
0.211224 0.179747 0.710563 124 175 105
0.209645 0.183407 0.712102 125 187 90
0.208216 0.189806 0.714937 119 181 84
0.430866 0.178970 0.736022 90 123 77
0.429791 0.180800 0.736766 80 113 67
0.430179 0.186272 0.739381 72 112 52
0.212660 0.176433 0.711174 85 138 67
0.211038 0.179178 0.712289 125 178 107
0.209459 0.182835 0.713838 126 186 92
0.208027 0.189229 0.716689 107 167 73
0.430307 0.177491 0.737279 88 127 76
0.429234 0.179319 0.738028 79 118 67
0.429255 0.183877 0.740188 72 115 56
0.212475 0.175867 0.712892 104 156 83
0.210852 0.178609 0.714014 127 179 106
0.209330 0.183175 0.716011 132 188 102
0.207894 0.189562 0.718879 92 148 62
0.428257 0.172378 0.736637 91 130 79
0.428307 0.176931 0.738812 77 116 65
0.428332 0.181485 0.740985 74 117 60
0.214294 0.178022 0.716124 33 64 34
0.212290 0.175300 0.714610 114 168 92
0.210727 0.178951 0.716180 128 182 106
0.209259 0.184423 0.718629 133 188 109
0.207760 0.189894 0.721074 47 102 23
0.423601 0.160918 0.732638 97 134 84
0.426308 0.176372 0.740345 71 114 57
0.213845 0.173815 0.716076 58 89 57
0.210541 0.178382 0.717908 126 181 102
0.209129 0.184758 0.720814 132 184 111
0.207626 0.190225 0.723274 22 74 1
0.420069 0.152199 0.730016 101 135 86
0.215396 0.172332 0.717537 18 50 11
0.213661 0.173250 0.717792 89 121 82
0.210355 0.177812 0.719636 132 187 104
0.208941 0.184183 0.722559 123 174 104
0.215076 0.169952 0.718353 20 57 7
0.213411 0.171777 0.719059 109 146 96
0.210228 0.178150 0.721812 128 187 98
0.208868 0.185423 0.725199 81 133 69
0.214623 0.165760 0.718257 40 78 21
0.213097 0.169398 0.719871 127 165 108
0.209923 0.175766 0.722642 130 189 102
0.208451 0.181218 0.725149 48 99 42
0.214306 0.163388 0.719048 70 114 50
0.212655 0.165209 0.719766 130 174 110
0.211303 0.171563 0.722748 122 178 92
0.207923 0.175206 0.724175 14 59 9
0.215834 0.161915 0.720474 26 48 28
0.214057 0.161924 0.720286 99 148 76
0.212408 0.163744 0.721009 128 177 105
0.210810 0.166470 0.722186 128 184 96
0.209256 0.170101 0.723817 107 163 75
0.215652 0.161358 0.722165 37 65 38
0.213875 0.161367 0.721977 118 171 93
0.212097 0.161376 0.721788 129 182 104
0.210504 0.164099 0.722974 137 190 108
0.217248 0.160791 0.724045 19 50 16
0.215401 0.159897 0.723395 72 103 69
0.213626 0.159906 0.723207 125 179 94
0.216923 0.158428 0.724808 34 68 19
0.215082 0.157534 0.724157 110 144 95
0.213312 0.157543 0.723969 126 178 87
0.211542 0.157552 0.723781 136 188 97
0.218440 0.156961 0.726216 27 48 26
0.216671 0.156970 0.726028 53 94 29
0.214832 0.156077 0.725374 121 162 97
0.213065 0.156086 0.725187 129 184 94
0.218113 0.154603 0.726961 29 56 27
0.216348 0.154612 0.726774 102 150 73
0.214583 0.154621 0.726587 129 177 100
0.212819 0.154630 0.726400 129 183 96
0.217859 0.153149 0.728169 55 85 46
0.216097 0.153158 0.727982 115 171 83
0.214335 0.153167 0.727795 126 182 94
0.214087 0.151715 0.728998 130 187 92
0.227239 0.135960 0.739766 35 68 24
0.228609 0.133626 0.740593 36 57 35
0.226974 0.134526 0.740910 60 106 37
0.391488 0.100170 0.741749 100 117 91
0.389857 0.100179 0.741576 128 175 103
0.387878 0.099298 0.740873 105 152 80
0.230063 0.132186 0.741912 35 63 25
0.228432 0.133086 0.742232 67 95 57
0.226709 0.133094 0.742050 108 162 77
0.389339 0.098779 0.742594 113 157 93
0.387363 0.097898 0.741888 127 171 107
0.385738 0.097907 0.741716 100 155 72
0.231512 0.130748 0.743225 49 64 46
0.229887 0.131647 0.743549 61 101 41
0.228166 0.131655 0.743366 116 156 96
0.386501 0.095613 0.742364 128 166 118
0.384535 0.094734 0.741657 116 171 90
0.382575 0.093854 0.740951 97 152 71
0.380960 0.093862 0.740779 78 135 60
0.232956 0.129311 0.744533 44 68 36
0.231336 0.130209 0.744860 62 86 54
0.229618 0.130218 0.744677 97 150 72
0.227989 0.131116 0.745003 122 175 97
0.385987 0.094218 0.743367 100 129 99
0.384025 0.093339 0.742658 124 177 106
0.382067 0.092461 0.741950 117 170 99
0.380115 0.091582 0.741242 85 148 64
0.378168 0.090703 0.740534 69 132 48
0.234396 0.127876 0.745835 38 58 39
0.232781 0.128773 0.746165 64 107 50
0.231065 0.128782 0.745983 103 146 89
0.229442 0.129679 0.746312 115 176 88
0.227723 0.129688 0.746130 127 188 100
0.383170 0.091061 0.743115 107 151 96
0.381560 0.091069 0.742944 133 177 122
0.379610 0.090191 0.742234 105 168 84
0.377666 0.089313 0.741524 84 147 63
0.376061 0.089321 0.741354 64 126 47
0.235729 0.125555 0.746618 39 69 32
0.234121 0.126452 0.746951 67 97 60
0.232508 0.127348 0.747283 96 151 72
0.230889 0.128244 0.747615 121 176 97
0.229174 0.128253 0.747434 133 194 104
0.380711 0.088793 0.743391 124 156 119
0.379106 0.088801 0.743221 127 185 105
0.377165 0.087924 0.742509 111 169 89
0.375563 0.087932 0.742339 83 147 56
0.373960 0.087940 0.742169 64 128 37
0.236948 0.122351 0.746873 43 61 40
0.235452 0.124133 0.747726 73 117 53
0.233846 0.125029 0.748062 109 153 89
0.232235 0.125924 0.748397 121 181 89
0.230619 0.126819 0.748732 134 194 102
0.378264 0.086529 0.743659 126 174 109
0.376664 0.086537 0.743489 134 182 117
0.375064 0.086545 0.743320 107 168 78
0.373465 0.086553 0.743150 89 150 60
0.371865 0.086561 0.742980 67 125 43
0.369940 0.085685 0.742268 38 96 14
0.238261 0.120038 0.747631 46 78 39
0.236670 0.120932 0.747971 84 116 77
0.235176 0.122713 0.748829 106 161 78
0.233572 0.123607 0.749168 131 186 103
0.232060 0.125388 0.750024 137 197 105
0.377422 0.084260 0.744087 54 92 46
0.375828 0.084268 0.743918 132 170 124
0.374567 0.085160 0.744295 135 191 105
0.372639 0.084284 0.743580 113 169 83
0.371373 0.085176 0.743956 86 148 55
0.369450 0.084300 0.743242 63 125 32
0.368179 0.085192 0.743618 44 93 39
0.239673 0.118613 0.748900 68 95 64
0.238087 0.119506 0.749243 84 135 69
0.236496 0.120400 0.749586 121 172 106
0.234900 0.121294 0.749927 130 190 96
0.233299 0.122187 0.750269 134 194 100
0.374992 0.082002 0.744336 61 89 62
0.373736 0.082893 0.744717 134 180 111
0.371814 0.082018 0.743999 142 188 119
0.370553 0.082909 0.744379 111 171 77
0.368961 0.082917 0.744210 92 152 58
0.367369 0.082925 0.744042 79 135 63
0.242770 0.117181 0.750344 38 61 36
0.241080 0.117189 0.750165 66 116 57
0.239390 0.117198 0.749986 94 144 85
0.237807 0.118091 0.750331 112 173 85
0.236218 0.118984 0.750676 130 191 103
0.234625 0.119876 0.751021 135 195 101
0.372907 0.080629 0.745129 62 98 55
0.371320 0.080637 0.744960 139 175 132
0.369734 0.080645 0.744792 136 191 101
0.368473 0.081536 0.745175 127 182 92
0.366883 0.081544 0.745006 108 169 79
0.365294 0.081552 0.744838 77 138 48
0.364022 0.082442 0.745219 62 114 52
0.362431 0.082451 0.745050 31 83 21
0.244170 0.115759 0.751602 41 83 31
0.242483 0.115767 0.751424 65 107 55
0.240907 0.116659 0.751772 98 159 71
0.239217 0.116668 0.751593 110 171 83
0.237633 0.117560 0.751941 135 196 95
0.236045 0.118452 0.752289 140 201 100
0.370497 0.078377 0.745363 68 90 70
0.369243 0.079266 0.745749 137 183 114
0.367985 0.080156 0.746134 145 191 122
0.366720 0.081046 0.746518 121 181 85
0.365131 0.081054 0.746349 114 174 78
0.363542 0.081062 0.746181 90 149 60
0.361953 0.081070 0.746013 71 130 41
0.360364 0.081078 0.745844 51 94 35
0.358774 0.081086 0.745676 31 74 15
0.247251 0.114330 0.753034 33 69 26
0.245685 0.115221 0.753386 61 97 54
0.243997 0.115230 0.753208 73 131 49
0.242310 0.115238 0.753029 105 163 81
0.240734 0.116130 0.753380 126 190 83
0.239044 0.116138 0.753201 133 197 90
0.237460 0.117029 0.753551 146 203 110
0.368754 0.077889 0.746700 54 90 47
0.367497 0.078778 0.747088 125 161 118
0.366235 0.079667 0.747475 145 199 112
0.364649 0.079675 0.747307 134 188 101
0.363379 0.080563 0.747693 109 168 63
0.361475 0.079691 0.746970 99 158 53
0.360201 0.080580 0.747356 86 142 43
0.358302 0.079707 0.746634 61 117 18
0.356716 0.079715 0.746466 39 77 22
0.250069 0.111140 0.753391 35 67 30
0.248639 0.112912 0.754281 51 83 46
0.247078 0.113802 0.754637 73 128 49
0.243825 0.114701 0.754813 110 176 73
0.242137 0.114709 0.754634 131 197 94
0.240561 0.115600 0.754988 135 201 98
0.367010 0.077401 0.748037 49 71 44
0.365751 0.078289 0.748427 112 158 91
0.364167 0.078297 0.748259 143 189 122
0.362899 0.079185 0.748648 139 197 97
0.361313 0.079193 0.748480 124 182 82
0.359726 0.079201 0.748312 106 170 52
0.357830 0.078330 0.747587 88 152 34
0.356246 0.078338 0.747419 72 124 31
0.251317 0.108844 0.754090 43 73 36
0.249897 0.110614 0.754987 72 119 47
0.248343 0.111503 0.755345 87 134 62
0.246905 0.113274 0.756240 105 168 68
0.243652 0.114172 0.756418 143 205 108
0.241964 0.114180 0.756239 144 206 109
0.240277 0.114189 0.756060 123 178 97
0.364004 0.077801 0.749766 105 135 98
0.362420 0.077809 0.749598 140 193 111
0.360836 0.077817 0.749430 144 197 115
0.359252 0.077825 0.749262 128 191 78
0.357668 0.077833 0.749094 118 181 68
0.355778 0.076962 0.748368 101 165 49
0.354196 0.076970 0.748200 77 141 25
0.352314 0.076099 0.747475 60 110 31
0.253955 0.104782 0.753875 42 70 32
0.252425 0.105671 0.754239 58 106 37
0.251017 0.107439 0.755141 90 138 69
0.249599 0.109208 0.756043 105 166 67
0.248048 0.110097 0.756404 126 187 88
0.246612 0.111865 0.757304 132 200 99
0.245048 0.112754 0.757664 139 207 106
0.362258 0.077312 0.751105 78 115 63
0.360674 0.077320 0.750937 133 170 118
0.358779 0.076450 0.750208 140 198 98
0.357197 0.076458 0.750040 133 191 91
0.355616 0.076466 0.749873 125 191 74
0.354034 0.076474 0.749705 114 180 63
0.352152 0.075604 0.748977 98 162 57
0.350573 0.075612 0.748810 68 132 27
0.348698 0.074741 0.748083 47 95 26
0.258628 0.103357 0.755441 36 65 20
0.256970 0.103365 0.755265 47 76 31
0.255446 0.104253 0.755632 57 105 36
0.253785 0.104261 0.755456 85 133 64
0.252254 0.105149 0.755822 106 168 73
0.250718 0.106037 0.756188 121 183 88
0.249302 0.107804 0.757094 132 196 89
0.247876 0.109571 0.758000 143 207 100
0.358617 0.075954 0.751712 102 145 84
0.357035 0.075962 0.751545 145 188 127
0.355454 0.075970 0.751377 145 204 97
0.353569 0.075101 0.750647 138 197 90
0.351990 0.075109 0.750479 129 194 82
0.350411 0.075117 0.750312 118 183 71
0.348537 0.074247 0.749582 99 160 59
0.346961 0.074255 0.749415 70 131 30
0.261776 0.102820 0.757371 37 69 20
0.260117 0.102828 0.757195 48 80 31
0.258458 0.102837 0.757019 62 112 35
0.256800 0.102845 0.756843 92 142 65
0.255141 0.102853 0.756668 111 172 73
0.253615 0.103740 0.757037 126 187 88
0.251953 0.103749 0.756860 140 204 97
0.250547 0.105514 0.757773 146 210 103
0.356565 0.074589 0.752483 74 102 77
0.354986 0.074597 0.752316 127 174 102
0.353407 0.074605 0.752149 154 201 129
0.351828 0.074614 0.751981 146 205 98
0.349952 0.073745 0.751249 142 201 94
0.348375 0.073753 0.751082 127 190 77
0.346799 0.073761 0.750915 120 183 70
0.345223 0.073769 0.750748 97 160 60
0.343359 0.072900 0.750017 70 133 33
0.264924 0.102283 0.759301 39 77 29
0.263265 0.102291 0.759125 50 88 40
0.261606 0.102300 0.758949 66 119 39
0.259947 0.102308 0.758773 89 142 62
0.258289 0.102316 0.758598 106 170 63
0.256630 0.102325 0.758422 123 187 80
0.254971 0.102333 0.758246 133 197 90
0.253444 0.103219 0.758617 147 211 104
0.251783 0.103228 0.758441 151 212 111
0.250249 0.104114 0.758812 134 195 94
0.248710 0.105000 0.759182 99 143 77
0.353245 0.074110 0.753651 98 127 93
0.351667 0.074118 0.753483 140 188 109
0.349790 0.073251 0.752749 156 204 125
0.348214 0.073259 0.752582 141 203 99
0.346638 0.073267 0.752415 138 200 96
0.345061 0.073275 0.752247 127 194 88
0.343198 0.072407 0.751514 120 187 81
0.341624 0.072415 0.751347 104 166 73
0.340050 0.072423 0.751180 80 142 49
0.271068 0.099975 0.760477 36 65 24
0.269572 0.100860 0.760854 39 68 27
0.268072 0.101746 0.761231 41 84 25
0.266413 0.101754 0.761055 65 108 49
0.264754 0.101762 0.760879 81 139 59
0.263095 0.101771 0.760703 93 151 71
0.261436 0.101779 0.760527 104 170 67
0.259777 0.101788 0.760352 120 186 83
0.258119 0.101796 0.760176 131 198 90
0.256460 0.101805 0.760000 137 204 96
0.254801 0.101813 0.759824 151 212 111
0.253142 0.101822 0.759648 141 202 101
0.251613 0.102707 0.760022 95 142 70
0.351205 0.072748 0.754416 55 88 42
0.349629 0.072756 0.754248 103 136 90
0.348052 0.072764 0.754081 145 200 119
0.346476 0.072772 0.753914 156 211 130
0.344900 0.072780 0.753747 142 204 107
0.343036 0.071913 0.753011 139 201 104
0.341463 0.071921 0.752844 134 200 99
0.339889 0.071929 0.752678 131 197 96
0.338036 0.071062 0.751943 116 181 83
0.336465 0.071070 0.751776 90 155 57
0.334620 0.070203 0.751042 65 121 33
0.274682 0.093301 0.758684 45 69 41
0.273378 0.095061 0.759622 43 73 25
0.272063 0.096821 0.760559 51 81 33
0.270738 0.098581 0.761495 64 109 36
0.269403 0.100341 0.762430 85 130 57
0.267902 0.101225 0.762809 94 153 64
0.266243 0.101234 0.762633 113 172 83
0.264584 0.101242 0.762457 122 191 94
0.262925 0.101251 0.762282 130 199 102
0.261266 0.101259 0.762106 142 207 109
0.259607 0.101268 0.761930 144 209 111
0.257949 0.101276 0.761754 151 214 114
0.256290 0.101285 0.761578 139 202 102
0.254631 0.101293 0.761402 101 148 74
0.347891 0.072270 0.755581 54 90 43
0.346315 0.072278 0.755414 101 137 90
0.344449 0.071412 0.754675 147 202 121
0.342875 0.071420 0.754508 159 214 133
0.341302 0.071428 0.754342 151 208 113
0.339728 0.071436 0.754175 140 197 102
0.337875 0.070569 0.753438 132 199 91
0.336028 0.069703 0.752701 132 199 91
0.334185 0.068837 0.751965 125 192 84
0.332348 0.067970 0.751230 110 177 69
0.330516 0.067104 0.750495 98 158 64
0.328955 0.067112 0.750329 74 134 40
0.275809 0.091030 0.759295 59 104 42
0.274347 0.091913 0.759681 76 121 59
0.273044 0.093671 0.760625 89 142 62
0.271894 0.096305 0.762125 111 164 84
0.270569 0.098063 0.763066 122 184 89
0.269233 0.099822 0.764006 132 194 99
0.267732 0.100705 0.764387 126 193 95
0.266073 0.100714 0.764212 135 202 104
0.264414 0.100722 0.764036 143 212 115
0.262755 0.100731 0.763860 148 217 120
0.261096 0.100739 0.763684 145 211 122
0.344288 0.070918 0.756173 53 86 40
0.342714 0.070926 0.756006 97 130 84
0.341140 0.070934 0.755839 143 192 108
0.339567 0.070942 0.755672 163 212 128
0.337714 0.070077 0.754933 155 219 114
0.335591 0.068338 0.753621 144 208 103
0.333751 0.067472 0.752883 134 201 91
0.331917 0.066606 0.752145 125 192 82
0.330088 0.065741 0.751408 128 195 87
0.328264 0.064875 0.750671 120 187 79
0.326708 0.064883 0.750506 108 169 70
0.324892 0.064017 0.749771 95 156 57
0.323339 0.064025 0.749606 80 133 51
0.275642 0.090519 0.760847 103 168 74
0.274179 0.091401 0.761235 118 183 89
0.272876 0.093158 0.762183 120 182 78
0.271726 0.095789 0.763691 131 193 89
0.270400 0.097546 0.764637 136 199 97
0.269063 0.099302 0.765582 146 209 107
0.267407 0.099311 0.765406 150 219 122
0.265903 0.100194 0.765790 151 220 123
0.340979 0.070441 0.757336 43 72 27
0.339124 0.069576 0.756594 78 107 62
0.337553 0.069584 0.756427 121 168 85
0.335430 0.067846 0.755111 151 198 115
0.333591 0.066982 0.754370 157 219 115
0.331757 0.066117 0.753630 158 220 116
0.329928 0.065252 0.752890 154 216 110
0.328104 0.064387 0.752151 145 207 101
0.326549 0.064395 0.751986 136 198 90
0.324733 0.063530 0.751248 128 190 82
0.323180 0.063538 0.751083 122 184 76
0.275475 0.090007 0.762398 130 197 91
0.274012 0.090889 0.762788 137 204 98
0.272709 0.092644 0.763742 147 211 104
0.271395 0.094399 0.764694 151 215 108
0.335270 0.067355 0.756601 56 85 40
0.333431 0.066491 0.755857 80 124 56
0.331597 0.065627 0.755115 134 178 110
0.329768 0.064763 0.754373 159 209 120
0.327945 0.063899 0.753631 172 222 133
0.326389 0.063907 0.753466 164 222 124
0.324574 0.063043 0.752726 160 218 120
0.323020 0.063051 0.752561 151 215 108
0.275308 0.089496 0.763949 159 220 119
0.273845 0.090377 0.764342 152 213 112
0.272376 0.091258 0.764735 145 200 106
0.329609 0.064275 0.755855 53 82 37
0.327786 0.063411 0.755111 86 115 70
0.326230 0.063419 0.754946 109 154 92
0.324414 0.062556 0.754203 147 192 130
0.322861 0.062564 0.754039 156 216 133
0.324255 0.062069 0.755681 41 69 42
0.322702 0.062077 0.755516 43 85 44
0.342732 0.211294 0.854705 146 191 118
0.340735 0.211304 0.854494 157 202 129
0.338738 0.211314 0.854282 164 207 128
0.336741 0.211324 0.854070 164 207 128
0.334744 0.211334 0.853859 160 202 119
0.332534 0.210475 0.853069 160 202 119
0.330540 0.210485 0.852857 158 200 117
0.328338 0.209625 0.852068 153 195 112
0.326347 0.209635 0.851857 143 189 111
0.324355 0.209645 0.851646 121 167 89
0.322363 0.209656 0.851435 83 136 69
0.320371 0.209666 0.851224 66 119 52
0.318380 0.209676 0.851012 53 107 51
0.316388 0.209686 0.850801 46 100 44
0.314396 0.209696 0.850590 49 85 38
0.338533 0.210688 0.856182 39 65 12
0.336536 0.210698 0.855970 45 71 18
0.334540 0.210708 0.855758 50 74 17
0.332543 0.210718 0.855547 49 73 16
0.330336 0.209859 0.854755 50 74 17
0.328342 0.209870 0.854543 48 72 15
0.326347 0.209880 0.854332 47 69 24
