ply
format ascii 1.0
element vertex 1692
property float x
property float y
property float z
property uchar red
property uchar green
property uchar blue
end_header
-0.036206 -0.156603 0.653000 53 92 39
-0.034565 -0.156843 0.654000 64 108 40
-0.032868 -0.156843 0.654000 82 126 58
-0.031172 -0.156843 0.654000 92 141 69
-0.029475 -0.156843 0.654000 100 149 77
-0.027778 -0.156843 0.654000 106 155 81
-0.026082 -0.156843 0.654000 112 161 87
0.003716 -0.126455 0.545000 120 189 90
0.005121 -0.126223 0.544000 123 185 92
0.006532 -0.126223 0.544000 119 181 88
0.007944 -0.126223 0.544000 111 164 82
0.009338 -0.125991 0.543000 102 155 73
0.002302 -0.125039 0.545000 123 193 91
0.003716 -0.125039 0.545000 125 195 93
0.005121 -0.124810 0.544000 124 195 88
0.006532 -0.124810 0.544000 124 195 88
0.007929 -0.124580 0.543000 128 197 91
0.009338 -0.124580 0.543000 123 192 86
0.010727 -0.124351 0.542000 126 186 90
0.012133 -0.124351 0.542000 118 178 82
0.013539 -0.124351 0.542000 100 150 69
0.014945 -0.124351 0.542000 77 127 46
0.002302 -0.123623 0.545000 139 206 110
0.003710 -0.123397 0.544000 137 204 108
0.005121 -0.123397 0.544000 128 197 89
0.006520 -0.123170 0.543000 126 195 87
0.007914 -0.122943 0.542000 123 195 81
0.009321 -0.122943 0.542000 118 190 76
0.010727 -0.122943 0.542000 117 187 74
0.012111 -0.122716 0.541000 123 193 80
0.013514 -0.122716 0.541000 121 184 82
0.014918 -0.122716 0.541000 121 184 82
0.016321 -0.122716 0.541000 111 170 81
0.017725 -0.122716 0.541000 94 153 64
0.019128 -0.122716 0.541000 72 118 63
0.020532 -0.122716 0.541000 47 93 38
0.002302 -0.122208 0.545000 80 131 63
0.003710 -0.121983 0.544000 115 166 98
0.005112 -0.121759 0.543000 126 186 94
0.006520 -0.121759 0.543000 140 200 108
0.007914 -0.121535 0.542000 135 206 99
0.009321 -0.121535 0.542000 130 201 94
0.010727 -0.121535 0.542000 124 193 83
0.012111 -0.121311 0.541000 128 197 87
0.013514 -0.121311 0.541000 123 192 82
0.014918 -0.121311 0.541000 121 190 80
0.016321 -0.121311 0.541000 120 187 79
0.017725 -0.121311 0.541000 124 191 83
0.019128 -0.121311 0.541000 121 182 92
0.020532 -0.121311 0.541000 106 167 77
0.021895 -0.121087 0.540000 80 135 74
0.003703 -0.120349 0.543000 42 71 37
0.005102 -0.120127 0.542000 36 79 22
0.006508 -0.120127 0.542000 57 100 43
0.007900 -0.119905 0.541000 79 137 57
0.009321 -0.120127 0.542000 119 177 97
0.010707 -0.119905 0.541000 135 200 104
0.012111 -0.119905 0.541000 144 209 113
0.013514 -0.119905 0.541000 133 202 96
0.014918 -0.119905 0.541000 129 198 92
0.016321 -0.119905 0.541000 125 195 82
0.017725 -0.119905 0.541000 123 193 80
0.019093 -0.119684 0.540000 127 194 84
0.020494 -0.119684 0.540000 123 190 80
0.021895 -0.119684 0.540000 119 186 92
0.023296 -0.119684 0.540000 111 178 84
0.024697 -0.119684 0.540000 91 146 81
0.006496 -0.118500 0.541000 50 68 45
0.007900 -0.118500 0.541000 41 71 32
0.009303 -0.118500 0.541000 39 69 30
0.010707 -0.118500 0.541000 43 92 36
0.012111 -0.118500 0.541000 86 135 79
0.013514 -0.118500 0.541000 112 175 93
0.014890 -0.118281 0.540000 138 201 119
0.016291 -0.118281 0.540000 137 205 102
0.017692 -0.118281 0.540000 132 200 97
0.019093 -0.118281 0.540000 126 196 83
0.020494 -0.118281 0.540000 122 192 79
0.021895 -0.118281 0.540000 116 188 74
0.023296 -0.118281 0.540000 116 188 74
0.024697 -0.118281 0.540000 119 184 88
0.026098 -0.118281 0.540000 118 183 87
0.027499 -0.118281 0.540000 102 158 90
0.012088 -0.116878 0.540000 41 71 44
0.013489 -0.116878 0.540000 38 82 39
0.014890 -0.116878 0.540000 56 100 57
0.016291 -0.116878 0.540000 95 151 79
0.017692 -0.116878 0.540000 126 182 110
0.019093 -0.116878 0.540000 135 203 100
0.020494 -0.116878 0.540000 130 198 95
0.021895 -0.116878 0.540000 124 196 82
0.023296 -0.116878 0.540000 122 194 80
0.024697 -0.116878 0.540000 117 187 74
0.026050 -0.116662 0.539000 115 185 72
0.027448 -0.116662 0.539000 124 189 93
0.028846 -0.116662 0.539000 121 186 90
0.030245 -0.116662 0.539000 98 154 84
0.014890 -0.115475 0.540000 36 65 45
0.016291 -0.115475 0.540000 27 63 27
0.017692 -0.115475 0.540000 37 73 37
0.019058 -0.115261 0.539000 71 120 46
0.020456 -0.115261 0.539000 120 169 95
0.021854 -0.115261 0.539000 133 200 94
0.023253 -0.115261 0.539000 138 205 99
0.024651 -0.115261 0.539000 134 202 89
0.026050 -0.115261 0.539000 127 195 82
0.027448 -0.115261 0.539000 122 191 81
0.028846 -0.115261 0.539000 123 192 82
0.030245 -0.115261 0.539000 121 188 92
0.031643 -0.115261 0.539000 117 184 88
0.033042 -0.115261 0.539000 102 156 82
-0.058659 -0.127803 0.605000 133 188 94
-0.056900 -0.127381 0.603000 124 182 84
0.019058 -0.113861 0.539000 29 61 22
0.020456 -0.113861 0.539000 37 69 30
0.021854 -0.113861 0.539000 57 106 34
0.023253 -0.113861 0.539000 102 151 79
0.024651 -0.113861 0.539000 136 199 97
0.026050 -0.113861 0.539000 142 205 103
0.027448 -0.113861 0.539000 132 201 91
0.028846 -0.113861 0.539000 128 197 87
0.030245 -0.113861 0.539000 131 200 90
0.031643 -0.113861 0.539000 122 191 81
0.033042 -0.113861 0.539000 120 185 87
0.034440 -0.113861 0.539000 116 181 83
0.035838 -0.113861 0.539000 97 149 76
-0.062207 -0.127066 0.609000 135 180 109
-0.060527 -0.126858 0.608000 128 190 86
-0.058756 -0.126440 0.606000 130 192 88
-0.057089 -0.126232 0.605000 131 188 97
0.021854 -0.112461 0.539000 43 70 37
0.023253 -0.112461 0.539000 40 67 34
0.024651 -0.112461 0.539000 55 100 40
0.026050 -0.112461 0.539000 101 146 86
0.027448 -0.112461 0.539000 133 193 101
0.028846 -0.112461 0.539000 148 208 116
0.030245 -0.112461 0.539000 135 202 92
0.031643 -0.112461 0.539000 131 198 88
0.033042 -0.112461 0.539000 126 193 83
0.034440 -0.112461 0.539000 124 191 81
0.035838 -0.112461 0.539000 123 189 88
0.037237 -0.112461 0.539000 112 178 77
0.038635 -0.112461 0.539000 104 157 88
-0.064101 -0.126102 0.612000 122 171 85
-0.062309 -0.125690 0.610000 140 189 103
-0.060627 -0.125484 0.609000 126 189 87
-0.059047 -0.125484 0.609000 133 196 94
0.024651 -0.111061 0.539000 42 69 40
0.026050 -0.111061 0.539000 38 65 36
0.027448 -0.111061 0.539000 57 99 45
0.028846 -0.111061 0.539000 93 135 81
0.030245 -0.111061 0.539000 135 195 103
0.031643 -0.111061 0.539000 147 207 115
0.033042 -0.111061 0.539000 140 207 97
0.034440 -0.111061 0.539000 132 199 89
0.035838 -0.111061 0.539000 122 191 81
0.037237 -0.111061 0.539000 117 186 76
0.038635 -0.111061 0.539000 121 186 92
0.039959 -0.110855 0.538000 117 182 88
0.041355 -0.110855 0.538000 94 145 79
-0.066118 -0.125326 0.616000 107 141 92
-0.064206 -0.124716 0.613000 143 199 100
-0.062513 -0.124512 0.612000 131 187 88
-0.060726 -0.124106 0.610000 132 194 99
0.027448 -0.109660 0.539000 44 63 37
0.028846 -0.109660 0.539000 45 64 38
0.030245 -0.109660 0.539000 60 100 40
0.031643 -0.109660 0.539000 110 150 90
0.033042 -0.109660 0.539000 135 200 104
0.034440 -0.109660 0.539000 141 206 110
0.035838 -0.109660 0.539000 136 207 98
0.037237 -0.109660 0.539000 129 200 91
0.038635 -0.109660 0.539000 121 192 85
0.039959 -0.109457 0.538000 116 187 80
0.041355 -0.109457 0.538000 120 184 95
0.042751 -0.109457 0.538000 101 165 76
-0.068156 -0.124529 0.620000 73 114 51
-0.066118 -0.123726 0.616000 140 181 118
-0.064415 -0.123525 0.615000 136 198 94
-0.062615 -0.123123 0.613000 121 183 79
-0.060925 -0.122923 0.612000 126 187 99
0.030245 -0.108260 0.539000 44 63 33
0.031643 -0.108260 0.539000 44 63 33
0.033042 -0.108260 0.539000 50 96 27
0.034440 -0.108260 0.539000 116 162 93
0.035772 -0.108059 0.538000 137 205 104
0.037237 -0.108260 0.539000 143 211 110
0.038563 -0.108059 0.538000 136 207 100
0.039959 -0.108059 0.538000 134 205 98
0.041355 -0.108059 0.538000 123 192 93
0.042751 -0.108059 0.538000 115 184 85
0.044147 -0.108059 0.538000 121 180 102
-0.068266 -0.123117 0.621000 127 177 100
-0.066333 -0.122522 0.618000 145 195 118
-0.064520 -0.122126 0.616000 127 191 84
-0.062820 -0.121927 0.615000 140 204 97
-0.061025 -0.121531 0.613000 83 137 61
0.033042 -0.106860 0.539000 44 69 34
0.034440 -0.106860 0.539000 37 62 27
0.035838 -0.106860 0.539000 55 104 32
0.037168 -0.106662 0.538000 116 165 93
0.038635 -0.106860 0.539000 140 207 109
0.039959 -0.106662 0.538000 146 213 115
0.041355 -0.106662 0.538000 140 208 107
0.042751 -0.106662 0.538000 129 197 96
0.044229 -0.106860 0.539000 121 188 92
0.045627 -0.106860 0.539000 122 189 93
0.047025 -0.106860 0.539000 112 170 90
-0.070102 -0.121895 0.623000 72 99 66
-0.068266 -0.121504 0.621000 138 193 101
-0.066440 -0.121112 0.619000 122 177 85
-0.064729 -0.120917 0.618000 130 194 89
0.035838 -0.105460 0.539000 36 68 31
0.037237 -0.105460 0.539000 40 72 35
0.038635 -0.105460 0.539000 81 134 65
0.040033 -0.105460 0.539000 129 182 113
0.041432 -0.105460 0.539000 148 214 113
0.042751 -0.105264 0.538000 148 214 113
0.044229 -0.105460 0.539000 144 211 105
0.045627 -0.105460 0.539000 131 198 92
0.047025 -0.105460 0.539000 132 195 95
0.048424 -0.105460 0.539000 118 181 81
-0.070327 -0.120663 0.625000 132 166 117
-0.068486 -0.120277 0.623000 130 188 88
-0.066655 -0.119890 0.621000 121 179 79
-0.065567 -0.120856 0.626000 135 195 101
0.038635 -0.104060 0.539000 30 66 32
0.040033 -0.104060 0.539000 51 87 53
0.041432 -0.104060 0.539000 102 159 82
0.042830 -0.104060 0.539000 144 201 124
0.044229 -0.104060 0.539000 154 217 115
0.045627 -0.104060 0.539000 154 217 115
0.047025 -0.104060 0.539000 139 206 98
0.048424 -0.104060 0.539000 134 201 93
0.049822 -0.104060 0.539000 134 196 99
0.051220 -0.104060 0.539000 112 174 77
-0.072064 -0.119230 0.626000 58 94 29
-0.068925 -0.119420 0.627000 126 184 84
-0.067513 -0.119801 0.629000 131 189 89
-0.066196 -0.120372 0.632000 122 177 96
0.040033 -0.102659 0.539000 42 62 45
0.041432 -0.102659 0.539000 33 71 25
0.042830 -0.102659 0.539000 77 115 69
0.044229 -0.102659 0.539000 120 178 96
0.045627 -0.102659 0.539000 151 209 127
0.047025 -0.102659 0.539000 151 218 112
0.048424 -0.102659 0.539000 141 208 102
0.049822 -0.102659 0.539000 141 208 102
0.051315 -0.102850 0.540000 131 198 92
0.052716 -0.102850 0.540000 121 180 93
-0.072524 -0.118355 0.630000 109 150 72
-0.070665 -0.117979 0.628000 141 182 104
-0.069255 -0.118355 0.630000 124 180 83
-0.067835 -0.118731 0.632000 141 197 100
0.044229 -0.101259 0.539000 43 85 33
0.045627 -0.101259 0.539000 88 130 78
0.047025 -0.101259 0.539000 143 202 113
0.048424 -0.101259 0.539000 157 216 127
0.049822 -0.101259 0.539000 156 223 117
0.051220 -0.101259 0.539000 145 212 106
0.052716 -0.101447 0.540000 135 201 98
0.054117 -0.101447 0.540000 124 190 87
0.055518 -0.101447 0.540000 108 162 88
0.056919 -0.101447 0.540000 55 109 35
-0.072639 -0.116903 0.631000 145 189 107
-0.070890 -0.116718 0.630000 134 178 96
-0.069475 -0.117089 0.632000 136 191 97
-0.068265 -0.117830 0.636000 131 186 92
0.045712 -0.100044 0.540000 42 68 42
0.047113 -0.100044 0.540000 71 116 54
0.048514 -0.100044 0.540000 141 186 124
0.049915 -0.100044 0.540000 157 220 120
0.051315 -0.100044 0.540000 151 214 114
0.052716 -0.100044 0.540000 138 207 99
0.054117 -0.100044 0.540000 129 198 90
0.055518 -0.100044 0.540000 131 196 102
0.056919 -0.100044 0.540000 110 175 81
-0.074512 -0.115630 0.633000 94 118 86
-0.072754 -0.115447 0.632000 152 200 112
-0.071115 -0.115447 0.632000 138 186 98
-0.069695 -0.115812 0.634000 143 200 107
-0.068801 -0.117091 0.641000 88 145 52
0.047200 -0.098824 0.541000 34 68 37
0.048603 -0.098824 0.541000 59 93 62
0.049915 -0.098641 0.540000 113 168 89
0.051315 -0.098641 0.540000 152 207 128
0.052716 -0.098641 0.540000 153 220 114
0.054117 -0.098641 0.540000 153 220 114
0.055518 -0.098641 0.540000 141 207 104
0.056919 -0.098641 0.540000 132 198 95
0.058320 -0.098641 0.540000 124 182 102
-0.074747 -0.114345 0.635000 125 151 109
-0.072869 -0.113985 0.633000 151 202 106
-0.071340 -0.114165 0.634000 140 191 95
-0.070244 -0.115066 0.639000 143 198 108
-0.069016 -0.115786 0.643000 58 113 23
0.050099 -0.097599 0.542000 41 81 41
0.051411 -0.097419 0.541000 86 126 86
0.052814 -0.097419 0.541000 143 203 109
0.054218 -0.097419 0.541000 163 223 129
0.055621 -0.097419 0.541000 156 220 113
0.057025 -0.097419 0.541000 151 215 108
0.058428 -0.097419 0.541000 136 197 107
0.059832 -0.097419 0.541000 136 197 107
-0.074983 -0.113051 0.637000 151 179 125
-0.073215 -0.112873 0.636000 140 193 95
-0.071902 -0.113406 0.639000 146 199 101
-0.070684 -0.114115 0.643000 134 185 101
0.051506 -0.096191 0.542000 37 62 45
0.052814 -0.096013 0.541000 60 110 49
0.054218 -0.096013 0.541000 136 186 125
0.055621 -0.096013 0.541000 161 224 122
0.057025 -0.096013 0.541000 163 226 124
0.058428 -0.096013 0.541000 160 223 121
0.059832 -0.096013 0.541000 147 210 108
0.061349 -0.096191 0.542000 147 206 128
0.062755 -0.096191 0.542000 110 169 91
-0.077237 -0.112270 0.642000 61 95 34
-0.075336 -0.111920 0.640000 152 186 125
-0.073560 -0.111746 0.639000 129 185 88
-0.072240 -0.112270 0.642000 144 200 103
0.053009 -0.094957 0.543000 39 70 36
0.054318 -0.094783 0.542000 56 87 53
0.055724 -0.094783 0.542000 121 176 95
0.057130 -0.094783 0.542000 157 212 131
0.058536 -0.094783 0.542000 168 231 129
0.059943 -0.094783 0.542000 161 224 122
0.061349 -0.094783 0.542000 146 208 111
0.062871 -0.094957 0.543000 144 206 109
0.064279 -0.094957 0.543000 119 169 106
-0.077237 -0.110602 0.642000 94 134 65
-0.075571 -0.110602 0.642000 141 181 112
-0.073905 -0.110602 0.642000 136 192 95
-0.072352 -0.110775 0.643000 146 202 105
0.054418 -0.093547 0.543000 42 62 43
0.055827 -0.093547 0.543000 43 86 27
0.057130 -0.093375 0.542000 114 157 98
0.058536 -0.093375 0.542000 158 218 122
0.059943 -0.093375 0.542000 170 230 134
0.061462 -0.093547 0.543000 162 226 121
0.062755 -0.093375 0.542000 147 211 106
0.064279 -0.093547 0.543000 146 207 119
-0.077357 -0.109104 0.643000 117 159 89
-0.075689 -0.109104 0.643000 155 197 127
-0.072465 -0.109274 0.644000 144 202 102
-0.071124 -0.109783 0.647000 42 88 23
0.057236 -0.092136 0.543000 37 61 29
0.058644 -0.092136 0.543000 109 157 78
0.060053 -0.092136 0.543000 161 209 130
0.061462 -0.092136 0.543000 165 229 124
0.062986 -0.092306 0.544000 162 226 121
0.064398 -0.092306 0.544000 144 211 105
0.065809 -0.092306 0.544000 151 218 112
0.067220 -0.092306 0.544000 130 183 114
-0.077477 -0.107601 0.644000 138 183 112
-0.075806 -0.107601 0.644000 159 204 133
-0.074251 -0.107768 0.645000 152 210 112
-0.072802 -0.108102 0.647000 130 188 90
0.058752 -0.090893 0.544000 45 76 32
0.060164 -0.090893 0.544000 92 123 79
0.061575 -0.090893 0.544000 145 200 108
0.062986 -0.090893 0.544000 169 224 132
0.064398 -0.090893 0.544000 159 228 118
0.065809 -0.090893 0.544000 145 214 104
0.067344 -0.091060 0.545000 145 211 120
0.068758 -0.091060 0.545000 128 194 103
0.070301 -0.091227 0.546000 64 105 56
-0.079763 -0.106750 0.649000 51 70 44
-0.077598 -0.106092 0.645000 142 187 114
-0.076042 -0.106257 0.646000 150 195 122
-0.074596 -0.106586 0.648000 155 210 116
-0.073253 -0.107079 0.651000 116 171 77
-0.071893 -0.107573 0.654000 25 63 8
0.060274 -0.089644 0.545000 42 64 44
0.061688 -0.089644 0.545000 75 119 55
0.063102 -0.089644 0.545000 148 192 128
0.064516 -0.089644 0.545000 166 233 125
0.066051 -0.089808 0.546000 159 226 118
0.067468 -0.089808 0.546000 144 212 109
0.068884 -0.089808 0.546000 146 214 111
0.070429 -0.089973 0.547000 126 179 108
-0.079885 -0.105226 0.650000 73 92 64
-0.077958 -0.104902 0.648000 144 190 112
-0.076395 -0.105064 0.649000 138 184 106
-0.074942 -0.105388 0.651000 148 200 107
-0.073478 -0.105712 0.653000 102 154 61
0.061688 -0.088228 0.545000 32 63 31
0.063102 -0.088228 0.545000 71 102 70
0.064635 -0.088390 0.546000 140 199 112
0.066051 -0.088390 0.546000 162 221 134
0.067468 -0.088390 0.546000 149 218 110
0.069010 -0.088552 0.547000 142 211 103
0.070429 -0.088552 0.547000 145 210 116
-0.080131 -0.103856 0.652000 85 105 70
-0.078199 -0.103538 0.650000 151 196 107
-0.076630 -0.103697 0.651000 152 197 108
-0.075172 -0.104015 0.653000 150 202 111
-0.073590 -0.104175 0.654000 85 137 46
0.063218 -0.086972 0.546000 43 63 48
0.064753 -0.087131 0.547000 67 114 54
0.066172 -0.087131 0.547000 141 188 128
0.067591 -0.087131 0.547000 153 221 120
0.069010 -0.087131 0.547000 145 213 112
0.070429 -0.087131 0.547000 142 213 106
0.071980 -0.087290 0.548000 142 213 106
-0.080254 -0.102319 0.653000 89 115 73
-0.078560 -0.102319 0.653000 148 197 102
-0.076866 -0.102319 0.653000 156 205 110
-0.075287 -0.102476 0.654000 149 201 112
-0.073815 -0.102789 0.656000 56 108 19
-0.072663 -0.103573 0.661000 27 62 24
0.066172 -0.085710 0.547000 64 95 65
0.067591 -0.085710 0.547000 131 194 110
0.069010 -0.085710 0.547000 152 215 131
0.070558 -0.085867 0.548000 146 220 112
0.071980 -0.085867 0.548000 137 211 103
0.073402 -0.085867 0.548000 138 203 105
-0.080377 -0.100777 0.654000 95 124 81
-0.078680 -0.100777 0.654000 135 186 90
-0.076984 -0.100777 0.654000 156 207 111
-0.075402 -0.100931 0.655000 144 198 111
-0.074040 -0.101393 0.658000 37 91 4
0.066172 -0.084289 0.547000 42 61 51
0.067591 -0.084289 0.547000 58 107 51
0.069136 -0.084443 0.548000 140 189 133
0.070558 -0.084443 0.548000 153 223 121
0.071980 -0.084443 0.548000 145 215 113
0.073536 -0.084597 0.549000 145 216 109
0.074960 -0.084597 0.549000 142 213 106
-0.080377 -0.099078 0.654000 99 130 88
-0.078680 -0.099078 0.654000 150 203 107
-0.077101 -0.099229 0.655000 157 210 114
-0.075632 -0.099532 0.657000 138 195 104
-0.074378 -0.100138 0.661000 26 83 0
0.069136 -0.083019 0.548000 71 102 72
0.070558 -0.083019 0.548000 137 201 110
0.072111 -0.083171 0.549000 154 218 127
0.073536 -0.083171 0.549000 143 214 105
0.075096 -0.083322 0.550000 142 213 104
0.076663 -0.083474 0.551000 140 205 111
-0.080500 -0.097528 0.655000 109 139 100
-0.078801 -0.097528 0.655000 152 207 113
-0.077337 -0.097826 0.657000 154 209 115
-0.075862 -0.098123 0.659000 136 190 105
0.070687 -0.081745 0.549000 65 117 55
0.072111 -0.081745 0.549000 139 191 129
0.073670 -0.081894 0.550000 153 222 114
0.075096 -0.081894 0.550000 150 219 111
0.076663 -0.082042 0.551000 138 205 99
0.078234 -0.082191 0.552000 139 206 100
-0.080746 -0.096119 0.657000 120 151 109
-0.079041 -0.096119 0.657000 152 207 113
-0.077454 -0.096265 0.658000 153 208 114
-0.076093 -0.096704 0.661000 130 186 100
0.072243 -0.080465 0.550000 69 105 69
0.073803 -0.080611 0.551000 141 202 114
0.075233 -0.080611 0.551000 156 217 129
0.078234 -0.080757 0.552000 137 204 94
0.079810 -0.080904 0.553000 142 202 108
-0.080869 -0.094556 0.658000 127 160 118
-0.079282 -0.094699 0.659000 150 202 111
-0.077808 -0.094987 0.661000 157 209 118
-0.074603 -0.095274 0.663000 13 66 0
0.072374 -0.079180 0.551000 38 63 42
0.075370 -0.079323 0.552000 148 199 133
0.076941 -0.079467 0.553000 150 214 105
0.078375 -0.079467 0.553000 144 208 99
0.079955 -0.079611 0.554000 143 207 98
0.081392 -0.079611 0.554000 140 204 95
-0.081237 -0.093270 0.661000 129 165 122
-0.077925 -0.093411 0.662000 157 214 123
-0.076323 -0.093552 0.663000 123 175 100
-0.074715 -0.093693 0.664000 15 67 0
0.073937 -0.077889 0.552000 31 67 24
0.075506 -0.078030 0.553000 91 127 84
0.076941 -0.078030 0.553000 149 210 109
0.078517 -0.078172 0.554000 148 209 108
0.079955 -0.078172 0.554000 139 208 90
0.081539 -0.078313 0.555000 141 210 92
0.082979 -0.078313 0.555000 130 186 98
-0.081606 -0.091968 0.664000 125 163 117
-0.079643 -0.091691 0.662000 143 199 111
-0.078043 -0.091830 0.663000 158 214 126
-0.076438 -0.091968 0.664000 117 168 98
-0.074828 -0.092107 0.665000 16 67 0
0.075643 -0.076732 0.554000 41 62 40
0.077080 -0.076732 0.554000 110 165 75
0.078517 -0.076732 0.554000 153 208 118
0.080099 -0.076871 0.555000 142 208 89
0.081539 -0.076871 0.555000 141 207 88
0.082979 -0.076871 0.555000 144 208 101
-0.081606 -0.090243 0.664000 131 174 126
-0.079883 -0.090243 0.664000 147 203 117
-0.078161 -0.090243 0.664000 156 212 126
-0.076553 -0.090379 0.665000 116 167 99
-0.074940 -0.090515 0.666000 15 66 0
0.077219 -0.075429 0.555000 44 82 23
0.078659 -0.075429 0.555000 123 161 102
0.080099 -0.075429 0.555000 150 213 102
0.081686 -0.075565 0.556000 143 206 95
0.083128 -0.075565 0.556000 142 207 93
0.084571 -0.075565 0.556000 137 202 88
-0.081729 -0.088651 0.665000 136 179 133
-0.080004 -0.088651 0.665000 147 202 119
-0.078278 -0.088651 0.665000 153 208 125
-0.076553 -0.088651 0.665000 117 170 99
-0.074940 -0.088785 0.666000 16 69 0
0.078801 -0.074121 0.556000 62 86 56
0.080243 -0.074121 0.556000 131 186 92
0.081686 -0.074121 0.556000 153 208 114
0.083128 -0.074121 0.556000 147 212 100
0.084571 -0.074121 0.556000 142 207 95
-0.081852 -0.087055 0.666000 133 171 127
-0.080004 -0.086924 0.665000 147 205 121
-0.078396 -0.087055 0.666000 151 209 125
-0.076668 -0.087055 0.666000 117 170 99
-0.075053 -0.087185 0.667000 15 68 0
0.078801 -0.072676 0.556000 37 52 36
0.080243 -0.072676 0.556000 66 110 44
0.081686 -0.072676 0.556000 146 190 124
0.083278 -0.072807 0.557000 149 213 108
0.084875 -0.072938 0.558000 143 207 102
0.086323 -0.072938 0.558000 145 210 114
-0.081852 -0.085324 0.666000 128 161 119
-0.080124 -0.085324 0.666000 153 208 125
-0.078396 -0.085324 0.666000 151 206 123
-0.076783 -0.085453 0.667000 123 175 102
-0.075165 -0.085581 0.668000 17 69 0
0.080387 -0.071360 0.557000 43 74 30
0.081979 -0.071488 0.558000 98 129 85
0.083427 -0.071488 0.558000 153 210 117
0.085027 -0.071616 0.559000 150 207 114
0.086632 -0.071744 0.560000 142 208 107
0.088242 -0.071872 0.561000 145 211 110
-0.081975 -0.083720 0.667000 113 146 102
-0.080244 -0.083720 0.667000 140 196 108
-0.078514 -0.083720 0.667000 150 206 118
-0.076783 -0.083720 0.667000 126 178 103
-0.075278 -0.083971 0.669000 19 71 0
0.082273 -0.070290 0.560000 51 70 40
0.083726 -0.070290 0.560000 126 172 92
0.085179 -0.070290 0.560000 164 210 130
0.086941 -0.070541 0.562000 146 213 107
0.088399 -0.070541 0.562000 147 214 108
-0.082098 -0.082110 0.668000 106 140 91
-0.080365 -0.082110 0.668000 143 200 105
-0.078632 -0.082110 0.668000 149 206 111
-0.077014 -0.082233 0.669000 126 178 103
-0.075503 -0.082479 0.671000 18 70 0
0.084025 -0.069081 0.562000 70 105 37
0.085483 -0.069081 0.562000 151 186 118
0.087096 -0.069203 0.563000 152 214 108
0.088714 -0.069326 0.564000 143 205 99
0.090177 -0.069326 0.564000 149 213 108
-0.082343 -0.080615 0.670000 102 128 84
-0.080485 -0.080495 0.669000 151 206 112
-0.078749 -0.080495 0.669000 147 202 108
-0.077129 -0.080615 0.670000 129 183 107
-0.075616 -0.080856 0.672000 17 71 0
0.084175 -0.067741 0.563000 36 61 15
0.085787 -0.067861 0.564000 93 118 72
0.087251 -0.067861 0.564000 147 205 105
0.088714 -0.067861 0.564000 146 204 104
0.090177 -0.067861 0.564000 144 212 99
-0.082466 -0.078992 0.671000 98 122 81
-0.080726 -0.078992 0.671000 155 207 118
-0.078985 -0.078992 0.671000 153 205 116
-0.077359 -0.079110 0.672000 136 191 112
-0.075841 -0.079346 0.674000 18 73 0
0.085787 -0.066396 0.564000 50 67 37
0.087251 -0.066396 0.564000 106 157 71
0.088871 -0.066514 0.565000 157 208 122
0.090337 -0.066514 0.565000 140 209 91
0.091803 -0.066514 0.565000 135 204 86
-0.082712 -0.077480 0.673000 83 104 66
-0.080966 -0.077480 0.673000 148 199 113
-0.079220 -0.077480 0.673000 155 206 120
-0.077474 -0.077480 0.673000 142 197 116
-0.075953 -0.077710 0.675000 24 79 0
0.087560 -0.065161 0.566000 53 94 27
0.089029 -0.065161 0.566000 140 181 114
0.090497 -0.065161 0.566000 148 213 101
0.093599 -0.065276 0.567000 154 216 112
-0.082958 -0.075956 0.675000 80 101 63
-0.081207 -0.075956 0.675000 152 203 117
-0.079456 -0.075956 0.675000 157 208 122
-0.077704 -0.075956 0.675000 144 197 115
-0.076066 -0.076069 0.676000 30 83 1
0.089186 -0.063803 0.567000 92 124 75
0.090657 -0.063803 0.567000 149 211 107
0.092290 -0.063916 0.568000 148 210 106
0.093929 -0.064028 0.569000 147 211 102
0.095573 -0.064141 0.570000 150 214 105
-0.083081 -0.074313 0.676000 76 96 63
-0.081327 -0.074313 0.676000 162 211 127
-0.079573 -0.074313 0.676000 156 205 121
-0.077819 -0.074313 0.676000 145 198 116
-0.076178 -0.074423 0.677000 40 93 11
-0.074532 -0.074533 0.678000 29 60 30
0.089658 -0.062660 0.570000 38 62 32
0.091137 -0.062660 0.570000 116 173 80
0.092615 -0.062660 0.570000 156 213 120
0.094259 -0.062770 0.571000 144 208 99
0.095741 -0.062770 0.571000 149 213 104
-0.083204 -0.072664 0.677000 70 89 61
-0.081447 -0.072664 0.677000 162 210 129
-0.079691 -0.072664 0.677000 148 196 115
-0.077935 -0.072664 0.677000 147 202 119
-0.076178 -0.072664 0.677000 55 110 27
-0.074532 -0.072771 0.678000 27 61 26
0.091456 -0.061394 0.572000 58 110 35
0.092940 -0.061394 0.572000 150 202 127
0.094589 -0.061501 0.573000 149 217 104
0.096076 -0.061501 0.573000 146 214 101
0.097733 -0.061609 0.574000 152 211 122
-0.083327 -0.071010 0.678000 64 85 61
-0.081447 -0.070905 0.677000 147 196 122
-0.079691 -0.070905 0.677000 157 206 132
-0.077935 -0.070905 0.677000 151 207 121
-0.076291 -0.071010 0.678000 80 136 50
-0.074532 -0.071010 0.678000 28 63 23
0.091776 -0.060118 0.574000 25 64 11
0.093265 -0.060118 0.574000 121 160 107
0.094754 -0.060118 0.574000 152 219 111
0.096411 -0.060222 0.575000 144 211 103
0.097903 -0.060222 0.575000 147 213 112
-0.083327 -0.069249 0.678000 49 69 50
-0.081568 -0.069249 0.678000 132 183 113
-0.079809 -0.069249 0.678000 155 206 136
-0.078050 -0.069249 0.678000 149 208 119
-0.076291 -0.069249 0.678000 101 160 71
-0.074642 -0.069351 0.679000 30 63 19
0.093753 -0.058933 0.577000 80 110 73
0.095085 -0.058831 0.576000 149 210 111
0.096579 -0.058831 0.576000 148 209 110
0.098244 -0.058933 0.577000 145 214 108
-0.083327 -0.067487 0.678000 40 62 44
-0.081568 -0.067487 0.678000 131 182 114
-0.079809 -0.067487 0.678000 155 206 138
-0.078050 -0.067487 0.678000 149 209 117
-0.076291 -0.067487 0.678000 115 175 83
-0.074642 -0.067587 0.679000 27 63 16
0.094078 -0.057633 0.579000 37 65 38
0.095580 -0.057633 0.579000 124 180 94
0.097082 -0.057633 0.579000 159 215 129
0.098584 -0.057633 0.579000 143 212 106
0.100259 -0.057732 0.580000 145 214 108
-0.081688 -0.065823 0.679000 131 182 116
-0.079926 -0.065823 0.679000 154 205 139
-0.078165 -0.065823 0.679000 141 203 108
-0.076403 -0.065823 0.679000 123 185 90
-0.074752 -0.065920 0.680000 25 64 13
0.094403 -0.056323 0.581000 29 54 35
0.095910 -0.056323 0.581000 72 124 51
0.097417 -0.056323 0.581000 157 209 136
0.098925 -0.056323 0.581000 142 208 105
0.100432 -0.056323 0.581000 151 217 114
-0.081688 -0.064059 0.679000 112 160 95
-0.079926 -0.064059 0.679000 159 207 142
-0.078280 -0.064153 0.680000 145 210 116
-0.076516 -0.064153 0.680000 127 192 98
-0.074861 -0.064248 0.681000 23 65 13
0.096075 -0.054908 0.582000 39 82 21
0.097585 -0.054908 0.582000 148 191 130
0.099095 -0.054908 0.582000 149 212 112
0.100605 -0.054908 0.582000 147 210 110
0.102115 -0.054908 0.582000 149 208 121
-0.081808 -0.062387 0.680000 93 136 75
-0.080044 -0.062387 0.680000 160 203 142
-0.078280 -0.062387 0.680000 151 212 122
-0.074861 -0.062479 0.681000 24 68 15
0.096405 -0.053579 0.584000 26 60 11
0.097753 -0.053487 0.583000 127 161 112
0.099265 -0.053487 0.583000 154 212 112
0.100778 -0.053487 0.583000 145 203 103
0.102466 -0.053579 0.584000 152 209 114
-0.082049 -0.060799 0.682000 71 110 48
-0.080162 -0.060709 0.681000 161 200 138
-0.078395 -0.060709 0.681000 152 211 122
-0.076628 -0.060709 0.681000 144 203 114
-0.074971 -0.060799 0.682000 31 77 22
0.096735 -0.052240 0.586000 27 53 11
0.098256 -0.052240 0.586000 98 124 82
0.099776 -0.052240 0.586000 152 208 111
0.101296 -0.052240 0.586000 146 202 105
0.102817 -0.052240 0.586000 153 209 110
-0.082169 -0.059113 0.683000 59 100 37
-0.080397 -0.059113 0.683000 159 200 137
-0.078510 -0.059027 0.682000 149 208 119
-0.076853 -0.059113 0.683000 150 209 120
-0.075081 -0.059113 0.683000 45 91 36
0.098759 -0.050978 0.589000 60 83 49
0.100287 -0.050978 0.589000 148 200 111
0.101815 -0.050978 0.589000 150 202 113
0.103518 -0.051064 0.590000 152 208 111
-0.082410 -0.057507 0.685000 47 87 27
-0.080515 -0.057423 0.684000 158 198 138
-0.078740 -0.057423 0.684000 161 223 128
-0.076966 -0.057423 0.684000 147 209 114
-0.075301 -0.057507 0.685000 61 109 44
-0.073631 -0.057591 0.686000 21 69 4
0.099094 -0.049616 0.591000 38 57 29
0.100627 -0.049616 0.591000 133 182 98
0.102161 -0.049616 0.591000 156 205 121
0.103694 -0.049616 0.591000 155 211 114
-0.082530 -0.055809 0.686000 37 74 22
-0.080750 -0.055809 0.686000 146 183 131
-0.078856 -0.055727 0.685000 163 223 129
-0.077191 -0.055809 0.686000 150 210 116
-0.075411 -0.055809 0.686000 84 136 63
-0.073739 -0.055890 0.687000 12 64 0
0.099429 -0.048243 0.593000 33 50 24
0.100968 -0.048243 0.593000 119 165 87
-0.082650 -0.054105 0.687000 27 65 19
-0.080868 -0.054105 0.687000 116 154 108
-0.079086 -0.054105 0.687000 162 224 131
-0.077303 -0.054105 0.687000 149 211 118
-0.075521 -0.054105 0.687000 108 163 84
-0.073846 -0.054184 0.688000 9 64 0
0.099932 -0.046939 0.596000 38 53 35
0.101479 -0.046939 0.596000 108 152 88
-0.080986 -0.052397 0.688000 118 156 112
-0.079086 -0.052321 0.687000 157 218 128
-0.077416 -0.052397 0.688000 151 212 122
-0.075631 -0.052397 0.688000 129 184 105
-0.073953 -0.052473 0.689000 17 72 0
0.100435 -0.045619 0.599000 42 57 41
-0.081104 -0.050683 0.689000 104 141 100
-0.079201 -0.050610 0.688000 155 216 126
-0.077416 -0.050610 0.688000 155 216 126
-0.075741 -0.050683 0.689000 140 198 114
-0.073953 -0.050683 0.689000 24 82 0
-0.081104 -0.048893 0.689000 77 108 76
-0.079316 -0.048893 0.689000 161 216 133
-0.077528 -0.048893 0.689000 164 219 136
-0.075741 -0.048893 0.689000 144 202 118
-0.074061 -0.048964 0.690000 43 101 17
-0.081221 -0.047172 0.690000 62 85 62
-0.079431 -0.047172 0.690000 156 203 129
-0.077641 -0.047172 0.690000 178 225 151
-0.075851 -0.047172 0.690000 154 207 129
-0.074061 -0.047172 0.690000 65 118 40
-0.081221 -0.045379 0.690000 46 68 48
-0.079431 -0.045379 0.690000 150 190 130
-0.077641 -0.045379 0.690000 178 218 158
-0.075851 -0.045379 0.690000 161 212 144
-0.074168 -0.045445 0.691000 81 132 64
-0.072375 -0.045445 0.691000 22 60 30
-0.081339 -0.043650 0.691000 40 60 43
-0.079546 -0.043650 0.691000 141 184 127
-0.077753 -0.043650 0.691000 169 212 155
-0.075961 -0.043650 0.691000 164 215 147
-0.074275 -0.043713 0.692000 94 145 77
-0.072480 -0.043713 0.692000 17 53 19
0.104344 -0.043334 0.686000 77 80 64
-0.081457 -0.041915 0.692000 38 55 39
-0.079661 -0.041915 0.692000 118 162 107
-0.077866 -0.041915 0.692000 169 213 158
-0.076071 -0.041915 0.692000 164 217 146
-0.074275 -0.041915 0.692000 109 162 91
-0.072585 -0.041976 0.693000 18 54 11
-0.079776 -0.040176 0.693000 88 134 81
-0.077979 -0.040176 0.693000 171 217 164
-0.076181 -0.040176 0.693000 170 225 146
-0.074383 -0.040176 0.693000 126 181 102
-0.072585 -0.040176 0.693000 26 65 14
0.101817 -0.039480 0.681000 76 71 28
-0.079776 -0.038375 0.693000 71 115 62
-0.077979 -0.038375 0.693000 168 212 159
-0.076181 -0.038375 0.693000 170 228 146
-0.074490 -0.038431 0.694000 144 202 120
-0.072690 -0.038431 0.694000 34 76 22
0.100197 -0.037766 0.682000 116 121 88
0.101668 -0.037655 0.680000 138 134 84
-0.079892 -0.036628 0.694000 44 81 31
-0.078091 -0.036628 0.694000 161 198 148
-0.076291 -0.036628 0.694000 174 229 148
-0.074490 -0.036628 0.694000 154 209 128
-0.072794 -0.036681 0.695000 45 89 36
0.100638 -0.036153 0.685000 125 127 82
0.101668 -0.035889 0.680000 136 134 84
0.103280 -0.035836 0.679000 64 62 12
-0.080122 -0.034925 0.696000 42 72 22
-0.078204 -0.034875 0.695000 152 182 132
-0.076400 -0.034875 0.695000 171 224 144
-0.074597 -0.034875 0.695000 159 212 132
-0.072899 -0.034925 0.696000 77 123 70
0.099294 -0.034524 0.688000 131 127 79
0.100785 -0.034424 0.686000 140 136 88
0.101967 -0.034223 0.682000 117 117 64
0.103432 -0.034122 0.680000 46 46 0
0.104886 -0.034022 0.678000 57 78 28
0.108539 -0.033520 0.668000 82 124 52
-0.080237 -0.033165 0.697000 35 65 17
-0.078316 -0.033117 0.696000 143 173 125
-0.076510 -0.033117 0.696000 166 216 139
-0.074705 -0.033117 0.696000 162 212 135
-0.073004 -0.033165 0.697000 104 151 93
-0.071195 -0.033165 0.697000 21 68 10
0.099294 -0.032737 0.688000 126 123 78
0.100932 -0.032689 0.687000 154 151 106
0.102565 -0.032641 0.686000 105 109 50
0.103736 -0.032451 0.682000 50 54 0
0.105041 -0.032308 0.679000 82 110 54
0.106645 -0.032261 0.678000 89 117 61
0.108245 -0.032213 0.677000 83 126 47
0.108051 -0.031642 0.665000 104 147 68
-0.080352 -0.031399 0.698000 32 57 20
-0.078429 -0.031354 0.697000 144 169 132
-0.076620 -0.031354 0.697000 163 213 134
-0.074812 -0.031354 0.697000 163 213 134
-0.073108 -0.031399 0.698000 119 169 106
-0.071298 -0.031399 0.698000 15 65 2
0.101226 -0.030994 0.689000 151 153 108
0.102864 -0.030949 0.688000 123 124 57
0.104496 -0.030904 0.687000 54 55 0
0.105505 -0.030679 0.682000 95 119 58
0.106803 -0.030544 0.679000 123 147 86
0.111097 -0.030275 0.673000 139 177 100
-0.078541 -0.029586 0.698000 94 118 86
-0.076730 -0.029586 0.698000 165 220 141
-0.074919 -0.029586 0.698000 159 214 135
-0.073108 -0.029586 0.698000 131 182 112
-0.071400 -0.029628 0.699000 15 66 0
0.103013 -0.029204 0.689000 143 145 82
0.104801 -0.029204 0.689000 113 115 52
0.106433 -0.029162 0.688000 69 82 22
0.108061 -0.029120 0.687000 112 125 65
0.110003 -0.029162 0.688000 107 139 79
0.111951 -0.029204 0.689000 96 128 68
0.113903 -0.029247 0.690000 60 86 42
-0.078654 -0.027812 0.699000 73 100 71
-0.076730 -0.027773 0.698000 156 213 136
-0.074919 -0.027773 0.698000 157 214 137
-0.073213 -0.027812 0.699000 143 195 120
-0.071400 -0.027812 0.699000 32 84 9
-0.078654 -0.025996 0.699000 52 79 50
-0.076840 -0.025996 0.699000 151 208 131
-0.075027 -0.025996 0.699000 163 220 143
-0.073213 -0.025996 0.699000 151 206 125
-0.071502 -0.026034 0.700000 46 101 20
-0.078766 -0.024215 0.700000 44 71 42
-0.076950 -0.024215 0.700000 153 206 124
-0.075027 -0.024181 0.699000 169 222 140
-0.073318 -0.024215 0.700000 153 209 123
-0.071502 -0.024215 0.700000 57 113 27
-0.078766 -0.022397 0.700000 36 58 29
-0.076950 -0.022397 0.700000 141 191 102
-0.075134 -0.022397 0.700000 168 218 129
-0.073318 -0.022397 0.700000 157 212 120
-0.071502 -0.022397 0.700000 73 128 36
-0.069785 -0.022429 0.701000 24 59 21
-0.078879 -0.020608 0.701000 35 54 26
-0.077060 -0.020608 0.701000 134 179 90
-0.075134 -0.020578 0.700000 164 209 120
-0.073318 -0.020578 0.700000 159 214 120
-0.071604 -0.020608 0.701000 97 152 58
-0.069785 -0.020608 0.701000 20 58 14
-0.077060 -0.018787 0.701000 129 172 84
-0.075241 -0.018787 0.701000 167 210 122
-0.073423 -0.018787 0.701000 162 218 121
-0.071604 -0.018787 0.701000 121 177 80
-0.069885 -0.018813 0.702000 17 58 11
-0.077060 -0.016965 0.701000 118 160 79
-0.075241 -0.016965 0.701000 167 209 128
-0.073423 -0.016965 0.701000 164 222 124
-0.069885 -0.016990 0.702000 21 63 11
-0.077170 -0.015166 0.702000 74 116 46
-0.075349 -0.015166 0.702000 160 202 132
-0.073527 -0.015166 0.702000 159 217 119
-0.071706 -0.015166 0.702000 138 196 98
-0.069885 -0.015166 0.702000 27 70 9
-0.077280 -0.013361 0.703000 44 85 22
-0.075349 -0.013342 0.702000 153 194 131
-0.073527 -0.013342 0.702000 156 213 118
-0.071706 -0.013342 0.702000 144 201 106
-0.069885 -0.013342 0.702000 45 89 21
-0.077280 -0.011535 0.703000 34 74 16
-0.075456 -0.011535 0.703000 145 185 127
-0.073527 -0.011519 0.702000 154 212 114
-0.071706 -0.011519 0.702000 150 208 110
-0.069885 -0.011519 0.702000 67 114 40
-0.077280 -0.009709 0.703000 29 68 15
-0.075456 -0.009709 0.703000 134 173 120
-0.073632 -0.009709 0.703000 158 213 119
-0.071808 -0.009709 0.703000 154 209 115
-0.069984 -0.009709 0.703000 86 133 59
-0.068161 -0.009709 0.703000 14 61 0
-0.077280 -0.007883 0.703000 26 63 11
-0.075456 -0.007883 0.703000 117 154 102
-0.073632 -0.007883 0.703000 158 213 121
-0.071808 -0.007883 0.703000 154 209 117
-0.069984 -0.007883 0.703000 98 148 71
-0.068161 -0.007883 0.703000 14 64 0
-0.075456 -0.006056 0.703000 100 132 83
-0.073632 -0.006056 0.703000 157 212 118
-0.071808 -0.006056 0.703000 152 207 113
-0.069984 -0.006056 0.703000 113 163 86
-0.068161 -0.006056 0.703000 12 62 0
-0.075456 -0.004230 0.703000 87 118 72
-0.073632 -0.004230 0.703000 153 208 114
-0.071808 -0.004230 0.703000 148 203 109
-0.069984 -0.004230 0.703000 123 176 98
-0.068161 -0.004230 0.703000 10 63 0
-0.075563 -0.002407 0.704000 78 106 70
-0.073737 -0.002407 0.704000 147 204 113
-0.071808 -0.002404 0.703000 146 203 112
-0.069984 -0.002404 0.703000 131 189 107
-0.068161 -0.002404 0.703000 17 75 0
-0.075563 -0.000578 0.704000 62 89 58
-0.073737 -0.000578 0.704000 141 200 113
-0.071808 -0.000577 0.703000 144 203 116
-0.069984 -0.000577 0.703000 136 195 108
-0.068161 -0.000577 0.703000 26 85 0
-0.075563 0.001251 0.704000 46 70 40
-0.073737 0.001251 0.704000 135 193 111
-0.071910 0.001251 0.704000 144 202 120
-0.070084 0.001251 0.704000 139 200 110
-0.068258 0.001251 0.704000 45 106 16
-0.075671 0.003084 0.705000 38 62 32
-0.073737 0.003079 0.704000 129 186 109
-0.071910 0.003079 0.704000 143 200 123
-0.070084 0.003079 0.704000 142 204 107
-0.068258 0.003079 0.704000 65 127 30
-0.066431 0.003079 0.704000 23 57 6
-0.075671 0.004915 0.705000 32 59 30
-0.073842 0.004915 0.705000 126 183 106
-0.071910 0.004908 0.704000 140 197 120
-0.070084 0.004908 0.704000 143 206 106
-0.068258 0.004908 0.704000 91 154 54
-0.066431 0.004908 0.704000 19 59 3
-0.075671 0.006747 0.705000 31 57 33
-0.073842 0.006747 0.705000 125 179 105
-0.071910 0.006737 0.704000 144 198 124
-0.070084 0.006737 0.704000 137 200 98
-0.068258 0.006737 0.704000 107 170 68
-0.066525 0.006747 0.705000 17 60 1
-0.073842 0.008578 0.705000 114 168 92
-0.072013 0.008578 0.705000 142 196 120
-0.070184 0.008578 0.705000 133 196 94
-0.068355 0.008578 0.705000 117 180 78
-0.066525 0.008578 0.705000 20 65 5
-0.073946 0.010424 0.706000 94 147 69
-0.072013 0.010410 0.705000 144 197 119
-0.070184 0.010410 0.705000 132 199 93
-0.068355 0.010410 0.705000 123 190 84
-0.066525 0.010410 0.705000 22 72 9
-0.073946 0.012259 0.706000 67 114 40
-0.072115 0.012259 0.706000 147 194 120
-0.070184 0.012241 0.705000 130 197 89
-0.068355 0.012241 0.705000 130 197 89
-0.066620 0.012259 0.706000 25 77 13
-0.074051 0.014113 0.707000 49 94 21
-0.072115 0.014093 0.706000 146 191 118
-0.070184 0.014073 0.705000 130 197 91
-0.068355 0.014073 0.705000 133 200 94
-0.066620 0.014093 0.706000 37 89 25
-0.074156 0.015972 0.708000 41 82 15
-0.072217 0.015949 0.707000 147 188 121
-0.070283 0.015927 0.706000 126 192 91
-0.068451 0.015927 0.706000 137 203 102
-0.066714 0.015949 0.707000 46 101 36
-0.074261 0.017836 0.709000 36 76 18
-0.072217 0.017786 0.707000 140 180 122
-0.070383 0.017786 0.707000 128 195 101
-0.068548 0.017786 0.707000 133 200 106
-0.066714 0.017786 0.707000 57 112 47
-0.065063 0.017836 0.709000 10 65 0
-0.074365 0.019706 0.710000 33 72 21
-0.072319 0.019650 0.708000 129 168 117
-0.070482 0.019650 0.708000 126 192 103
-0.068645 0.019650 0.708000 131 197 108
-0.066809 0.019650 0.708000 70 126 58
-0.065155 0.019706 0.710000 7 63 0
-0.074365 0.021550 0.710000 24 62 14
-0.072421 0.021520 0.709000 118 156 108
-0.070482 0.021490 0.708000 122 189 104
-0.068645 0.021490 0.708000 128 195 110
-0.066903 0.021520 0.709000 87 143 71
-0.065247 0.021581 0.711000 7 63 0
-0.074470 0.023428 0.711000 21 57 12
-0.072523 0.023395 0.710000 106 142 97
-0.070681 0.023395 0.710000 124 189 105
-0.068839 0.023395 0.710000 119 184 100
-0.066997 0.023395 0.710000 113 173 92
-0.065247 0.023428 0.711000 6 66 0
-0.074575 0.025310 0.712000 20 56 13
-0.072625 0.025275 0.711000 99 135 92
-0.070681 0.025239 0.710000 126 191 105
-0.068839 0.025239 0.710000 123 188 102
-0.067092 0.025275 0.711000 118 178 95
-0.065339 0.025310 0.712000 11 71 0
-0.072625 0.027122 0.711000 94 126 87
-0.070781 0.027122 0.711000 133 197 108
-0.068936 0.027122 0.711000 130 194 105
-0.067092 0.027122 0.711000 126 184 100
-0.065431 0.027198 0.713000 16 74 0
-0.072830 0.029050 0.713000 92 124 85
-0.070880 0.029010 0.712000 131 195 106
-0.069033 0.029010 0.712000 125 189 100
-0.067280 0.029050 0.713000 129 189 106
-0.065522 0.029091 0.714000 16 76 0
-0.072830 0.030903 0.713000 78 113 73
-0.070980 0.030903 0.713000 135 198 112
-0.069130 0.030903 0.713000 125 188 102
-0.067375 0.030946 0.714000 135 194 107
-0.065614 0.030989 0.715000 31 90 3
-0.072932 0.032801 0.714000 66 101 61
-0.070980 0.032755 0.713000 137 198 108
-0.069130 0.032755 0.713000 127 188 98
-0.067375 0.032801 0.714000 137 198 108
-0.065706 0.032893 0.716000 39 100 10
-0.072932 0.034656 0.714000 48 80 41
-0.070980 0.034607 0.713000 135 197 104
-0.069227 0.034656 0.714000 126 188 95
-0.067469 0.034704 0.715000 138 203 109
-0.065706 0.034753 0.716000 47 112 18
-0.072932 0.036510 0.714000 35 65 26
-0.070980 0.036459 0.713000 134 193 104
-0.069227 0.036510 0.714000 127 186 97
-0.067469 0.036562 0.715000 140 202 107
-0.065798 0.036664 0.717000 58 120 25
-0.064027 0.036715 0.718000 17 53 17
-0.072932 0.038365 0.714000 31 59 23
-0.070980 0.038312 0.713000 136 192 104
-0.069227 0.038365 0.714000 128 184 96
-0.067563 0.038473 0.716000 140 202 109
-0.065798 0.038526 0.717000 56 118 25
-0.064027 0.038580 0.718000 17 56 19
-0.072932 0.040220 0.714000 30 55 20
-0.071080 0.040220 0.714000 133 187 100
-0.069227 0.040220 0.714000 126 180 93
-0.067563 0.040333 0.716000 135 196 106
-0.065798 0.040389 0.717000 73 134 44
-0.064027 0.040445 0.718000 17 58 24
-0.072932 0.042075 0.714000 28 50 19
-0.071080 0.042075 0.714000 130 184 97
-0.069227 0.042075 0.714000 125 179 92
-0.067563 0.042193 0.716000 128 189 101
-0.065798 0.042252 0.717000 75 136 48
-0.064116 0.042370 0.719000 17 58 24
-0.072932 0.043930 0.714000 26 48 19
-0.070980 0.043868 0.713000 127 181 96
-0.069227 0.043930 0.714000 124 178 93
-0.067563 0.044053 0.716000 129 190 100
-0.065798 0.044114 0.717000 75 136 46
-0.064116 0.044237 0.719000 17 56 23
-0.072932 0.045785 0.714000 26 45 17
-0.070980 0.045721 0.713000 123 176 94
-0.069130 0.045721 0.713000 130 183 101
-0.067469 0.045849 0.715000 132 193 103
-0.065798 0.045977 0.717000 78 139 49
-0.064116 0.046105 0.719000 18 57 24
-0.072932 0.047640 0.714000 24 43 15
-0.070980 0.047573 0.713000 123 173 92
-0.069227 0.047640 0.714000 131 181 100
-0.067469 0.047706 0.715000 132 193 103
-0.065798 0.047840 0.717000 83 144 54
-0.064116 0.047973 0.719000 17 56 23
-0.072932 0.049494 0.714000 23 42 16
-0.070980 0.049425 0.713000 120 170 91
-0.069227 0.049494 0.714000 133 183 104
-0.067469 0.049564 0.715000 130 189 102
-0.065798 0.049702 0.717000 86 145 58
-0.064116 0.049841 0.719000 15 54 21
-0.072932 0.051349 0.714000 23 41 20
-0.070980 0.051277 0.713000 122 169 95
-0.069227 0.051349 0.714000 136 183 109
-0.067563 0.051493 0.716000 130 190 105
-0.065798 0.051565 0.717000 89 149 64
-0.064116 0.051709 0.719000 14 52 22
-0.073034 0.053279 0.715000 28 47 21
-0.071080 0.053204 0.714000 119 166 92
-0.069324 0.053279 0.715000 136 183 109
-0.067563 0.053353 0.716000 130 193 109
-0.065798 0.053428 0.717000 87 150 66
-0.064116 0.053577 0.719000 11 50 17
-0.296823 0.056061 0.727000 30 43 40
-0.294937 0.056061 0.727000 22 36 38
-0.293051 0.056061 0.727000 22 36 38
-0.291164 0.056061 0.727000 20 35 34
-0.289278 0.056061 0.727000 20 35 34
-0.073034 0.055136 0.715000 29 48 18
-0.070980 0.054982 0.713000 122 170 91
-0.069227 0.055059 0.714000 130 178 99
-0.067563 0.055213 0.716000 139 199 116
-0.065798 0.055290 0.717000 85 145 62
-0.064116 0.055444 0.719000 15 54 19
-0.296823 0.057950 0.727000 33 46 45
-0.294937 0.057950 0.727000 21 38 39
-0.293051 0.057950 0.727000 20 37 38
-0.291164 0.057950 0.727000 15 33 29
-0.289278 0.057950 0.727000 18 36 32
-0.287392 0.057950 0.727000 18 29 25
-0.072932 0.056914 0.714000 25 49 17
-0.070980 0.056834 0.713000 118 166 85
-0.069227 0.056914 0.714000 137 185 104
-0.067563 0.057073 0.716000 133 193 108
-0.065798 0.057153 0.717000 82 142 57
-0.064205 0.057392 0.720000 20 59 22
-0.298298 0.059756 0.726000 33 44 42
-0.296415 0.059756 0.726000 34 45 43
-0.294531 0.059756 0.726000 24 39 38
-0.292647 0.059756 0.726000 24 39 38
-0.291164 0.059839 0.727000 24 39 34
-0.289278 0.059839 0.727000 20 35 30
-0.287392 0.059839 0.727000 18 31 26
-0.070980 0.058686 0.713000 120 171 85
-0.069227 0.058769 0.714000 132 183 97
-0.067563 0.058933 0.716000 136 198 105
-0.065798 0.059016 0.717000 80 142 49
-0.064205 0.059262 0.720000 19 60 22
-0.298298 0.061642 0.726000 34 45 41
-0.296415 0.061642 0.726000 37 48 44
-0.294531 0.061642 0.726000 30 41 39
-0.292647 0.061642 0.726000 30 41 39
-0.291164 0.061727 0.727000 28 41 36
-0.289278 0.061727 0.727000 22 35 30
-0.287392 0.061727 0.727000 24 37 32
-0.071080 0.060623 0.714000 120 172 81
-0.069227 0.060623 0.714000 127 179 88
-0.067658 0.060878 0.717000 132 194 99
-0.065798 0.060878 0.717000 76 138 43
-0.064205 0.061133 0.720000 17 58 20
-0.297887 0.063441 0.725000 37 48 46
-0.296006 0.063441 0.725000 33 44 42
-0.294125 0.063441 0.725000 34 42 39
-0.292244 0.063441 0.725000 33 41 38
-0.290764 0.063528 0.726000 28 41 36
-0.289278 0.063616 0.727000 25 38 33
-0.287392 0.063616 0.727000 26 40 31
-0.070980 0.062391 0.713000 123 175 86
-0.069227 0.062478 0.714000 126 178 89
-0.067658 0.062741 0.717000 132 194 99
-0.065798 0.062741 0.717000 68 130 35
-0.064205 0.063003 0.720000 15 56 18
-0.297476 0.065234 0.724000 33 44 40
-0.295598 0.065234 0.724000 31 42 38
-0.293720 0.065234 0.724000 29 40 36
-0.291841 0.065234 0.724000 27 38 34
-0.290363 0.065324 0.725000 29 42 37
-0.289278 0.065504 0.727000 31 44 39
-0.287392 0.065504 0.727000 32 45 40
-0.070980 0.064243 0.713000 124 181 88
-0.069227 0.064333 0.714000 120 177 84
-0.067658 0.064603 0.717000 132 194 101
-0.065889 0.064694 0.718000 61 123 30
-0.064294 0.064964 0.721000 15 54 19
-0.296655 0.066930 0.722000 26 40 29
-0.295190 0.067022 0.723000 25 39 28
-0.293314 0.067022 0.723000 25 39 30
-0.291841 0.067115 0.724000 26 40 31
-0.290363 0.067208 0.725000 31 45 36
-0.289278 0.067393 0.727000 36 50 41
-0.287787 0.067486 0.728000 35 49 40
-0.070781 0.065910 0.711000 124 184 92
-0.069130 0.066095 0.713000 119 179 87
-0.067658 0.066466 0.717000 129 190 102
-0.065889 0.066559 0.718000 56 117 29
-0.064294 0.066837 0.721000 17 53 19
-0.296244 0.068710 0.721000 58 76 55
-0.294373 0.068710 0.721000 36 54 33
-0.292503 0.068710 0.721000 21 41 22
-0.291035 0.068805 0.722000 22 42 23
-0.289963 0.068996 0.724000 29 45 34
-0.289278 0.069282 0.727000 35 51 40
-0.070681 0.067662 0.710000 128 187 100
-0.069130 0.067948 0.713000 119 178 91
-0.067658 0.068329 0.717000 130 190 107
-0.065889 0.068424 0.718000 42 102 19
-0.295833 0.070485 0.720000 88 112 82
-0.293965 0.070485 0.720000 77 101 71
-0.292503 0.070583 0.721000 65 94 60
-0.290632 0.070583 0.721000 35 64 30
-0.289963 0.070877 0.724000 34 56 40
-0.289278 0.071170 0.727000 37 59 43
-0.072217 0.069212 0.707000 59 91 54
-0.070482 0.069310 0.708000 125 185 100
-0.069033 0.069702 0.712000 119 179 94
-0.067658 0.070191 0.717000 127 187 104
-0.065981 0.070387 0.719000 25 85 2
-0.297287 0.072255 0.719000 76 92 71
-0.295011 0.072154 0.718000 80 110 71
-0.293557 0.072255 0.719000 74 104 65
-0.291691 0.072255 0.719000 69 105 62
-0.290229 0.072355 0.720000 53 89 46
-0.289562 0.072657 0.723000 52 74 56
-0.289278 0.073059 0.727000 44 66 48
-0.072115 0.070949 0.706000 64 99 61
-0.070482 0.071150 0.708000 123 183 98
-0.069033 0.071552 0.712000 120 180 95
-0.067658 0.072054 0.717000 125 185 104
-0.296460 0.073917 0.717000 70 89 63
-0.294600 0.073917 0.717000 76 112 67
-0.293148 0.074020 0.718000 69 105 60
-0.291691 0.074123 0.719000 64 100 57
-0.290229 0.074226 0.720000 70 106 63
-0.289562 0.074535 0.723000 63 85 67
-0.072013 0.072680 0.705000 80 115 75
-0.070283 0.072783 0.706000 125 186 98
-0.069033 0.073401 0.712000 119 180 92
-0.067658 0.073917 0.717000 123 181 101
-0.296460 0.075779 0.717000 75 97 70
-0.294600 0.075779 0.717000 72 113 64
-0.292740 0.075779 0.717000 66 107 58
-0.291285 0.075885 0.718000 66 104 60
-0.289826 0.075991 0.719000 52 90 46
-0.289562 0.076413 0.723000 41 63 43
-0.071910 0.074405 0.704000 85 121 78
-0.070184 0.074511 0.705000 123 184 96
-0.068936 0.075145 0.711000 118 179 91
-0.067658 0.075779 0.717000 120 174 98
-0.295633 0.077425 0.715000 88 110 81
-0.293778 0.077425 0.715000 71 113 59
-0.292740 0.077642 0.717000 64 106 52
-0.290880 0.077642 0.717000 67 103 58
-0.289423 0.077750 0.718000 40 76 31
-0.289162 0.078183 0.722000 48 66 45
-0.071808 0.076126 0.703000 99 132 86
-0.070184 0.076342 0.705000 125 187 94
-0.069130 0.077209 0.713000 127 189 96
-0.067658 0.077642 0.717000 100 152 79
-0.295220 0.079172 0.714000 91 115 83
-0.292332 0.079394 0.716000 65 108 51
-0.290880 0.079505 0.717000 64 97 55
-0.289423 0.079615 0.718000 42 75 33
-0.289562 0.080170 0.723000 51 66 48
-0.071808 0.077952 0.703000 113 151 96
-0.070283 0.078285 0.706000 125 186 96
-0.069227 0.079172 0.714000 134 195 105
-0.067658 0.079505 0.717000 75 126 60
-0.294393 0.080800 0.712000 92 120 84
-0.293778 0.081140 0.715000 72 115 56
-0.290880 0.081367 0.717000 58 88 49
-0.289423 0.081481 0.718000 45 75 36
-0.073737 0.079892 0.704000 29 70 7
-0.071808 0.079778 0.703000 122 163 100
-0.070283 0.080119 0.706000 125 187 90
-0.069227 0.081027 0.714000 134 196 99
-0.067658 0.081367 0.717000 52 102 41
-0.294576 0.082185 0.708000 58 88 49
-0.293979 0.082533 0.711000 84 114 75
-0.293368 0.082882 0.714000 65 108 47
-0.289423 0.083346 0.718000 42 70 32
-0.073632 0.081605 0.703000 31 77 8
-0.071808 0.081605 0.703000 126 172 103
-0.070383 0.082069 0.707000 125 187 90
-0.069227 0.082882 0.714000 129 191 94
-0.067658 0.083230 0.717000 41 88 30
-0.293744 0.083787 0.706000 80 111 67
-0.292739 0.084024 0.708000 86 117 73
-0.292957 0.084618 0.713000 67 107 47
-0.289423 0.085211 0.718000 51 76 39
-0.073527 0.083312 0.702000 44 95 25
-0.071808 0.083431 0.703000 124 175 105
-0.070383 0.083906 0.707000 125 187 90
-0.069227 0.084736 0.714000 119 181 84
-0.292912 0.085379 0.704000 90 123 77
-0.291912 0.085621 0.706000 80 113 67
-0.292546 0.086349 0.712000 72 112 52
-0.073318 0.084893 0.700000 85 138 67
-0.071808 0.085257 0.703000 125 178 107
-0.070383 0.085742 0.707000 126 186 92
-0.069227 0.086591 0.714000 107 167 73
-0.292496 0.087084 0.703000 88 127 76
-0.291499 0.087331 0.705000 79 118 67
-0.291724 0.087951 0.710000 72 115 56
-0.073318 0.086712 0.700000 104 156 83
-0.071808 0.087084 0.703000 127 179 106
-0.070482 0.087703 0.708000 132 188 102
-0.069324 0.088570 0.715000 92 148 62
-0.290415 0.088277 0.698000 91 130 79
-0.290672 0.088910 0.703000 77 116 65
-0.290902 0.089542 0.708000 74 117 60
-0.075456 0.088910 0.703000 33 64 34
-0.073318 0.088530 0.700000 114 168 92
-0.071910 0.089036 0.704000 128 182 106
-0.070681 0.089795 0.710000 133 188 109
-0.069421 0.090554 0.716000 47 102 23
-0.285422 0.088542 0.686000 97 134 84
-0.288848 0.090736 0.703000 71 114 57
-0.075027 0.090220 0.699000 58 89 57
-0.071910 0.090865 0.704000 126 181 102
-0.070781 0.091769 0.711000 132 184 111
-0.069518 0.092543 0.717000 22 74 1
-0.281678 0.089139 0.677000 101 135 86
-0.076730 0.091904 0.698000 18 50 11
-0.075027 0.092036 0.699000 89 121 82
-0.071910 0.092694 0.704000 132 187 104
-0.070781 0.093616 0.711000 123 174 104
-0.076510 0.093449 0.696000 20 57 7
-0.074919 0.093717 0.698000 109 146 96
-0.072013 0.094657 0.705000 128 187 98
-0.070980 0.095731 0.713000 81 133 69
-0.076071 0.094709 0.692000 40 78 21
-0.074705 0.095257 0.696000 127 165 108
-0.071808 0.096215 0.703000 130 189 102
-0.070582 0.097036 0.709000 48 99 42
-0.075851 0.096228 0.690000 70 114 50
-0.074275 0.096507 0.692000 130 174 110
-0.073213 0.097483 0.699000 122 178 92
-0.069984 0.098041 0.703000 14 59 9
-0.077528 0.097879 0.689000 26 48 28
-0.075741 0.097879 0.689000 99 148 76
-0.074168 0.098163 0.691000 128 177 105
-0.072690 0.098589 0.694000 128 184 96
-0.071298 0.099157 0.698000 107 163 75
-0.077528 0.099668 0.689000 37 65 38
-0.075741 0.099668 0.689000 118 171 93
-0.073953 0.099668 0.689000 129 182 104
-0.072480 0.100102 0.692000 137 190 108
-0.079316 0.101458 0.689000 19 50 16
-0.077416 0.101311 0.688000 72 103 69
-0.075631 0.101311 0.688000 125 179 94
-0.079086 0.102949 0.687000 34 68 19
-0.077191 0.102799 0.686000 110 144 95
-0.075411 0.102799 0.686000 126 178 87
-0.073631 0.102799 0.686000 136 188 97
-0.080750 0.104581 0.686000 27 48 26
-0.078971 0.104581 0.686000 53 94 29
-0.077078 0.104428 0.685000 121 162 97
-0.075301 0.104428 0.685000 129 184 94
-0.080515 0.106053 0.684000 29 56 27
-0.078740 0.106053 0.684000 102 150 73
-0.076966 0.106053 0.684000 129 177 100
-0.075191 0.106053 0.684000 129 183 96
-0.080397 0.107672 0.683000 55 85 46
-0.078625 0.107672 0.683000 115 171 83
-0.076853 0.107672 0.683000 126 182 94
-0.076741 0.109286 0.682000 130 187 92
-0.091035 0.123028 0.670000 35 68 24
-0.092496 0.124396 0.668000 36 57 35
-0.090899 0.124582 0.669000 60 106 37
-0.254756 0.119334 0.632000 100 117 91
-0.253117 0.119334 0.632000 128 175 103
-0.251079 0.119145 0.631000 105 152 80
-0.094088 0.125943 0.667000 35 63 25
-0.092496 0.126132 0.668000 67 95 57
-0.090763 0.126132 0.668000 108 162 77
-0.252716 0.120784 0.631000 113 157 93
-0.250681 0.120593 0.630000 127 171 107
-0.249047 0.120593 0.630000 100 155 72
-0.095675 0.127484 0.666000 49 64 46
-0.094088 0.127676 0.667000 61 101 41
-0.092358 0.127676 0.667000 116 156 96
-0.249886 0.121842 0.628000 128 166 118
-0.247861 0.121648 0.627000 116 171 90
-0.245842 0.121454 0.626000 97 152 71
-0.244217 0.121454 0.626000 78 135 60
-0.097256 0.129020 0.665000 44 68 36
-0.095675 0.129214 0.666000 62 86 54
-0.093947 0.129214 0.666000 97 150 72
-0.092358 0.129408 0.667000 122 175 97
-0.249488 0.123276 0.627000 100 129 99
-0.247466 0.123080 0.626000 124 177 106
-0.245449 0.122883 0.625000 117 170 99
-0.243437 0.122687 0.624000 85 148 64
-0.241431 0.122490 0.623000 69 132 48
-0.098833 0.130551 0.664000 38 58 39
-0.097256 0.130748 0.665000 64 107 50
-0.095531 0.130748 0.665000 103 146 89
-0.093947 0.130944 0.666000 115 176 88
-0.092219 0.130944 0.666000 127 188 100
-0.246675 0.124308 0.624000 107 151 96
-0.245056 0.124308 0.624000 133 177 122
-0.243047 0.124108 0.623000 105 168 84
-0.241043 0.123909 0.622000 84 147 63
-0.239429 0.123909 0.622000 64 126 47
-0.100253 0.131878 0.662000 39 69 32
-0.098684 0.132077 0.663000 67 97 60
-0.097110 0.132276 0.664000 96 151 72
-0.095531 0.132475 0.665000 121 176 97
-0.093806 0.132475 0.665000 133 194 104
-0.244271 0.125525 0.622000 124 156 119
-0.242657 0.125525 0.622000 127 185 105
-0.240656 0.125323 0.621000 111 169 89
-0.239045 0.125323 0.621000 83 147 56
-0.237433 0.125323 0.621000 64 128 37
-0.101508 0.132992 0.659000 43 61 40
-0.100101 0.133396 0.661000 73 117 53
-0.098535 0.133597 0.662000 109 153 89
-0.096964 0.133799 0.663000 121 181 89
-0.095388 0.134001 0.664000 134 194 102
-0.241877 0.126732 0.620000 126 174 109
-0.240268 0.126732 0.620000 134 182 117
-0.238660 0.126732 0.620000 107 168 78
-0.237051 0.126732 0.620000 89 150 60
-0.235443 0.126732 0.620000 67 125 43
-0.233457 0.126528 0.619000 38 96 14
-0.102905 0.134295 0.657000 46 78 39
-0.101354 0.134500 0.658000 84 116 77
-0.099950 0.134908 0.660000 106 161 78
-0.098386 0.135113 0.661000 131 186 103
-0.096964 0.135522 0.663000 137 197 105
-0.241096 0.127929 0.618000 54 92 46
-0.239493 0.127929 0.618000 132 170 124
-0.238275 0.128136 0.619000 135 191 105
-0.236286 0.127929 0.618000 113 169 83
-0.235063 0.128136 0.619000 86 148 55
-0.233080 0.127929 0.618000 63 125 32
-0.231851 0.128136 0.619000 44 93 39
-0.104450 0.135795 0.656000 68 95 64
-0.102905 0.136002 0.657000 84 135 69
-0.101354 0.136209 0.658000 121 172 106
-0.099798 0.136416 0.659000 130 190 96
-0.098238 0.136623 0.660000 134 194 100
-0.238718 0.129115 0.616000 61 89 62
-0.237505 0.129325 0.617000 134 180 111
-0.235522 0.129115 0.616000 142 188 119
-0.234303 0.129325 0.617000 111 171 77
-0.232703 0.129325 0.617000 92 152 58
-0.231102 0.129325 0.617000 79 135 63
-0.107689 0.137290 0.655000 38 61 36
-0.105990 0.137290 0.655000 66 116 57
-0.104291 0.137290 0.655000 94 144 85
-0.102748 0.137499 0.656000 112 173 85
-0.101200 0.137709 0.657000 130 191 103
-0.099647 0.137918 0.658000 135 195 101
-0.236735 0.130503 0.615000 62 98 55
-0.235139 0.130503 0.615000 139 175 132
-0.233544 0.130503 0.615000 136 191 101
-0.232325 0.130715 0.616000 127 182 92
-0.230727 0.130715 0.616000 108 169 79
-0.229129 0.130715 0.616000 77 138 48
-0.227900 0.130927 0.617000 62 114 52
-0.226300 0.130927 0.617000 31 83 21
-0.109222 0.138779 0.654000 41 83 31
-0.107525 0.138779 0.654000 65 107 55
-0.105990 0.138991 0.655000 98 159 71
-0.104291 0.138991 0.655000 110 171 83
-0.102748 0.139203 0.656000 135 196 95
-0.101200 0.139416 0.657000 140 201 100
-0.234375 0.131671 0.613000 68 90 70
-0.233164 0.131886 0.614000 137 183 114
-0.231948 0.132101 0.615000 145 191 122
-0.230727 0.132316 0.616000 121 181 85
-0.229129 0.132316 0.616000 114 174 78
-0.227531 0.132316 0.616000 90 149 60
-0.225933 0.132316 0.616000 71 130 41
-0.224335 0.132316 0.616000 51 94 35
-0.222737 0.132316 0.616000 31 74 15
-0.112443 0.140263 0.653000 33 69 26
-0.110918 0.140478 0.654000 61 97 54
-0.109222 0.140478 0.654000 73 131 49
-0.107525 0.140478 0.654000 105 163 81
-0.105990 0.140693 0.655000 126 190 83
-0.104291 0.140693 0.655000 133 197 90
-0.102748 0.140907 0.656000 146 203 110
-0.232784 0.133264 0.613000 54 90 47
-0.231571 0.133481 0.614000 125 161 118
-0.230353 0.133698 0.615000 145 199 112
-0.228757 0.133698 0.615000 134 188 101
-0.227531 0.133916 0.616000 109 168 63
-0.225566 0.133698 0.615000 99 158 53
-0.224335 0.133916 0.616000 86 142 43
-0.222375 0.133698 0.615000 61 117 18
-0.220779 0.133698 0.615000 39 77 22
-0.115299 0.141307 0.650000 35 67 30
-0.113962 0.141742 0.652000 51 83 46
-0.112443 0.141959 0.653000 73 128 49
-0.109222 0.142177 0.654000 110 176 73
-0.107525 0.142177 0.654000 131 197 94
-0.105990 0.142394 0.655000 135 201 98
-0.231194 0.134856 0.613000 49 71 44
-0.229978 0.135076 0.614000 112 158 91
-0.228385 0.135076 0.614000 143 189 122
-0.227162 0.135296 0.615000 139 197 97
-0.225566 0.135296 0.615000 124 182 82
-0.223971 0.135296 0.615000 106 170 52
-0.222013 0.135076 0.614000 88 152 34
-0.220420 0.135076 0.614000 72 124 31
-0.116625 0.142556 0.648000 43 73 36
-0.115299 0.142996 0.650000 72 119 47
-0.113787 0.143216 0.651000 87 134 62
-0.112443 0.143656 0.653000 105 168 68
-0.109222 0.143876 0.654000 143 205 108
-0.107525 0.143876 0.654000 144 206 109
-0.105828 0.143876 0.654000 123 178 97
-0.228385 0.136671 0.614000 105 135 98
-0.226792 0.136671 0.614000 140 193 111
-0.225199 0.136671 0.614000 144 197 115
-0.223606 0.136671 0.614000 128 191 78
-0.222013 0.136671 0.614000 118 181 68
-0.220061 0.136449 0.613000 101 165 49
-0.218471 0.136449 0.613000 77 141 25
-0.216527 0.136226 0.612000 60 110 31
-0.119247 0.143349 0.644000 42 70 32
-0.117759 0.143571 0.645000 58 106 37
-0.116445 0.144017 0.647000 90 138 69
-0.115122 0.144462 0.649000 105 166 67
-0.113613 0.144684 0.650000 126 187 88
-0.112271 0.145130 0.652000 132 200 99
-0.110749 0.145352 0.653000 139 207 106
-0.226792 0.138266 0.614000 78 115 63
-0.225199 0.138266 0.614000 133 170 118
-0.223242 0.138041 0.613000 140 198 98
-0.221652 0.138041 0.613000 133 191 91
-0.220061 0.138041 0.613000 125 191 74
-0.218471 0.138041 0.613000 114 180 63
-0.216527 0.137816 0.612000 98 162 57
-0.214939 0.137816 0.612000 68 132 27
-0.213003 0.137591 0.611000 47 95 26
-0.124067 0.144797 0.643000 36 65 20
-0.122398 0.144797 0.643000 47 76 31
-0.120918 0.145022 0.644000 57 105 36
-0.119247 0.145022 0.644000 85 133 64
-0.117759 0.145247 0.645000 106 168 73
-0.116265 0.145472 0.646000 121 183 88
-0.114944 0.145923 0.648000 132 196 89
-0.113613 0.146373 0.650000 143 207 100
-0.223242 0.139633 0.613000 102 145 84
-0.221652 0.139633 0.613000 145 188 127
-0.220061 0.139633 0.613000 145 204 97
-0.218115 0.139406 0.612000 138 197 90
-0.216527 0.139406 0.612000 129 194 82
-0.214939 0.139406 0.612000 118 183 71
-0.213003 0.139178 0.611000 99 160 59
-0.211418 0.139178 0.611000 70 131 30
-0.127403 0.146467 0.643000 37 69 20
-0.125735 0.146467 0.643000 48 80 31
-0.124067 0.146467 0.643000 62 112 35
-0.122398 0.146467 0.643000 92 142 65
-0.120730 0.146467 0.643000 111 172 73
-0.119247 0.146695 0.644000 126 187 88
-0.117576 0.146695 0.644000 140 204 97
-0.116265 0.147150 0.646000 146 210 103
-0.221290 0.140996 0.612000 74 102 77
-0.219702 0.140996 0.612000 127 174 102
-0.218115 0.140996 0.612000 154 201 129
-0.216527 0.140996 0.612000 146 205 98
-0.214588 0.140765 0.611000 142 201 94
-0.213003 0.140765 0.611000 127 190 77
-0.211418 0.140765 0.611000 120 183 70
-0.209832 0.140765 0.611000 97 160 60
-0.207906 0.140535 0.610000 70 133 33
-0.130739 0.148137 0.643000 39 77 29
-0.129071 0.148137 0.643000 50 88 40
-0.127403 0.148137 0.643000 66 119 39
-0.125735 0.148137 0.643000 89 142 62
-0.124067 0.148137 0.643000 106 170 63
-0.122398 0.148137 0.643000 123 187 80
-0.120730 0.148137 0.643000 133 197 90
-0.119247 0.148368 0.644000 147 211 104
-0.117576 0.148368 0.644000 151 212 111
-0.116085 0.148598 0.645000 134 195 94
-0.114589 0.148829 0.646000 99 143 77
-0.218115 0.142585 0.612000 98 127 93
-0.216527 0.142585 0.612000 140 188 109
-0.214588 0.142352 0.611000 156 204 125
-0.213003 0.142352 0.611000 141 203 99
-0.211418 0.142352 0.611000 138 200 96
-0.209832 0.142352 0.611000 127 194 88
-0.207906 0.142119 0.610000 120 187 81
-0.206324 0.142119 0.610000 104 166 73
-0.204741 0.142119 0.610000 80 142 49
-0.136985 0.149342 0.641000 36 65 24
-0.135533 0.149575 0.642000 39 68 27
-0.134076 0.149808 0.643000 41 84 25
-0.132407 0.149808 0.643000 65 108 49
-0.130739 0.149808 0.643000 81 139 59
-0.129071 0.149808 0.643000 93 151 71
-0.127403 0.149808 0.643000 104 170 67
-0.125735 0.149808 0.643000 120 186 83
-0.124067 0.149808 0.643000 131 198 90
-0.122398 0.149808 0.643000 137 204 96
-0.120730 0.149808 0.643000 151 212 111
-0.119062 0.149808 0.643000 141 202 101
-0.117576 0.150041 0.644000 95 142 70
-0.216173 0.143940 0.611000 55 88 42
-0.214588 0.143940 0.611000 103 136 90
-0.213003 0.143940 0.611000 145 200 119
-0.211418 0.143940 0.611000 156 211 130
-0.209832 0.143940 0.611000 142 204 107
-0.207906 0.143704 0.610000 139 201 104
-0.206324 0.143704 0.610000 134 200 99
-0.204741 0.143704 0.610000 131 197 96
-0.202826 0.143469 0.609000 116 181 83
-0.201246 0.143469 0.609000 90 155 57
-0.199338 0.143233 0.608000 65 121 33
-0.140423 0.149358 0.634000 45 69 41
-0.139216 0.149829 0.636000 43 73 25
-0.137999 0.150300 0.638000 51 81 33
-0.136771 0.150772 0.640000 64 109 36
-0.135533 0.151243 0.642000 85 130 57
-0.134076 0.151478 0.643000 94 153 64
-0.132407 0.151478 0.643000 113 172 83
-0.130739 0.151478 0.643000 122 191 94
-0.129071 0.151478 0.643000 130 199 102
-0.127403 0.151478 0.643000 142 207 109
-0.125735 0.151478 0.643000 144 209 111
-0.124067 0.151478 0.643000 151 214 114
-0.122398 0.151478 0.643000 139 202 102
-0.120730 0.151478 0.643000 101 148 74
-0.213003 0.145527 0.611000 54 90 43
-0.211418 0.145527 0.611000 101 137 90
-0.209489 0.145289 0.610000 147 202 121
-0.207906 0.145289 0.610000 159 214 133
-0.206324 0.145289 0.610000 151 208 113
-0.204741 0.145289 0.610000 140 197 102
-0.202826 0.145051 0.609000 132 199 91
-0.200915 0.144812 0.608000 132 199 91
-0.199010 0.144574 0.607000 125 192 84
-0.197110 0.144336 0.606000 110 177 69
-0.195215 0.144098 0.605000 98 158 64
-0.193645 0.144098 0.605000 74 134 40
-0.141620 0.150529 0.632000 59 104 42
-0.140202 0.150767 0.633000 76 121 59
-0.138997 0.151243 0.635000 89 142 62
-0.137999 0.151958 0.638000 111 164 84
-0.136771 0.152434 0.640000 122 184 89
-0.135533 0.152911 0.642000 132 194 99
-0.134076 0.153149 0.643000 126 193 95
-0.132407 0.153149 0.643000 135 202 104
-0.130739 0.153149 0.643000 143 212 115
-0.129071 0.153149 0.643000 148 217 120
-0.127403 0.153149 0.643000 145 211 122
-0.209489 0.146873 0.610000 53 86 40
-0.207906 0.146873 0.610000 97 130 84
-0.206324 0.146873 0.610000 143 192 108
-0.204741 0.146873 0.610000 163 212 128
-0.202826 0.146633 0.609000 155 219 114
-0.200585 0.146151 0.607000 144 208 103
-0.198682 0.145910 0.606000 134 201 91
-0.196785 0.145670 0.605000 125 192 82
-0.194892 0.145429 0.604000 128 195 87
-0.193005 0.145188 0.603000 120 187 79
-0.191441 0.145188 0.603000 108 169 70
-0.189561 0.144947 0.602000 95 156 57
-0.188000 0.144947 0.602000 80 133 51
-0.141620 0.152171 0.632000 103 168 74
-0.140202 0.152411 0.633000 118 183 89
-0.138997 0.152893 0.635000 120 182 78
-0.137999 0.153615 0.638000 131 193 89
-0.136771 0.154097 0.640000 136 199 97
-0.135533 0.154578 0.642000 146 209 107
-0.133867 0.154578 0.642000 150 219 122
-0.132407 0.154819 0.643000 151 220 123
-0.206324 0.148458 0.610000 43 72 27
-0.204406 0.148215 0.609000 78 107 62
-0.202826 0.148215 0.609000 121 168 85
-0.200585 0.147728 0.607000 151 198 115
-0.198682 0.147485 0.606000 157 219 115
-0.196785 0.147241 0.605000 158 220 116
-0.194892 0.146998 0.604000 154 216 110
-0.193005 0.146755 0.603000 145 207 101
-0.191441 0.146755 0.603000 136 198 90
-0.189561 0.146511 0.602000 128 190 82
-0.188000 0.146511 0.602000 122 184 76
-0.141620 0.153812 0.632000 130 197 91
-0.140202 0.154056 0.633000 137 204 98
-0.138997 0.154543 0.635000 147 211 104
-0.137782 0.155029 0.637000 151 215 108
-0.200585 0.149305 0.607000 56 85 40
-0.198682 0.149059 0.606000 80 124 56
-0.196785 0.148813 0.605000 134 178 110
-0.194892 0.148567 0.604000 159 209 120
-0.193005 0.148321 0.603000 172 222 133
-0.191441 0.148321 0.603000 164 222 124
-0.189561 0.148075 0.602000 160 218 120
-0.188000 0.148075 0.602000 151 215 108
-0.141620 0.155454 0.632000 159 220 119
-0.140202 0.155700 0.633000 152 213 112
-0.138778 0.155946 0.634000 145 200 106
-0.194892 0.150136 0.604000 53 82 37
-0.193005 0.149888 0.603000 86 115 70
-0.191441 0.149888 0.603000 109 154 92
-0.189561 0.149639 0.602000 147 192 130
-0.188000 0.149639 0.602000 156 216 133
-0.189561 0.151203 0.602000 41 69 42
-0.188000 0.151203 0.602000 43 85 44
-0.217617 0.196414 0.774000 146 191 118
-0.215609 0.196414 0.774000 157 202 129
-0.213601 0.196414 0.774000 164 207 128
-0.211593 0.196414 0.774000 164 207 128
-0.209585 0.196414 0.774000 160 202 119
-0.207309 0.196161 0.773000 160 202 119
-0.205303 0.196161 0.773000 158 200 117
-0.203035 0.195907 0.772000 153 195 112
-0.201032 0.195907 0.772000 143 189 111
-0.199029 0.195907 0.772000 121 167 89
-0.197026 0.195907 0.772000 83 136 69
-0.195023 0.195907 0.772000 66 119 52
-0.193020 0.195907 0.772000 53 107 51
-0.191017 0.195907 0.772000 46 100 44
-0.189014 0.195907 0.772000 49 85 38
-0.213601 0.198425 0.774000 39 65 12
-0.211593 0.198425 0.774000 45 71 18
-0.209585 0.198425 0.774000 50 74 17
-0.207577 0.198425 0.774000 49 73 16
-0.205303 0.198169 0.773000 50 74 17
-0.203298 0.198169 0.773000 48 72 15
-0.201292 0.198169 0.773000 47 69 24
