ply
format ascii 1.0
element vertex 1044
property float x
property float y
property float z
property uchar red
property uchar green
property uchar blue
end_header
0.264926 0.049002 0.765000 140 121 119
0.266560 0.048938 0.764000 108 89 87
0.268539 0.048938 0.764000 119 84 79
0.270519 0.048938 0.764000 139 104 99
0.272499 0.048938 0.764000 192 176 171
0.262943 0.050987 0.765000 117 106 110
0.264926 0.050987 0.765000 120 95 88
0.266908 0.050987 0.765000 96 71 64
0.268539 0.050920 0.764000 108 62 54
0.270519 0.050920 0.764000 129 83 75
0.272499 0.050920 0.764000 196 169 163
0.263287 0.053041 0.766000 107 92 91
0.264926 0.052972 0.765000 117 88 78
0.266908 0.052972 0.765000 106 77 67
0.268891 0.052972 0.765000 112 65 52
0.270874 0.052972 0.765000 125 78 65
0.272499 0.052903 0.764000 193 157 149
0.274479 0.052903 0.764000 212 176 168
0.263287 0.055029 0.766000 105 89 86
0.264926 0.054957 0.765000 118 87 78
0.266908 0.054957 0.765000 110 79 70
0.268891 0.054957 0.765000 116 68 53
0.270874 0.054957 0.765000 125 77 62
0.272856 0.054957 0.765000 184 143 133
0.274839 0.054957 0.765000 217 176 166
0.263287 0.057017 0.766000 106 92 88
0.264926 0.056942 0.765000 118 87 76
0.266908 0.056942 0.765000 111 80 69
0.268891 0.056942 0.765000 118 67 53
0.270874 0.056942 0.765000 127 76 62
0.272856 0.056942 0.765000 184 142 130
0.274839 0.056942 0.765000 221 179 167
0.263631 0.059082 0.767000 107 96 91
0.265272 0.059005 0.766000 117 88 78
0.266908 0.058928 0.765000 111 82 72
0.268891 0.058928 0.765000 117 66 52
0.270874 0.058928 0.765000 125 74 60
0.272856 0.058928 0.765000 186 141 128
0.274839 0.058928 0.765000 221 176 163
0.265272 0.060992 0.766000 115 86 76
0.267257 0.060992 0.766000 111 82 72
0.269242 0.060992 0.766000 118 67 53
0.271228 0.060992 0.766000 124 73 59
0.273213 0.060992 0.766000 179 134 121
0.275198 0.060992 0.766000 221 176 163
0.265272 0.062980 0.766000 112 82 75
0.267257 0.062980 0.766000 111 81 74
0.269242 0.062980 0.766000 116 68 53
0.271228 0.062980 0.766000 120 72 57
0.273213 0.062980 0.766000 168 123 110
0.275198 0.062980 0.766000 220 175 162
0.265272 0.064968 0.766000 113 83 76
0.267257 0.064968 0.766000 112 82 75
0.269242 0.064968 0.766000 118 67 53
0.271228 0.064968 0.766000 119 68 54
0.273569 0.065053 0.767000 166 122 106
0.275557 0.065053 0.767000 220 176 160
0.265272 0.066956 0.766000 115 85 78
0.267257 0.066956 0.766000 110 80 73
0.269242 0.066956 0.766000 121 70 56
0.271582 0.067043 0.767000 114 63 49
0.273926 0.067130 0.768000 163 119 103
0.275916 0.067130 0.768000 219 175 159
0.265619 0.069033 0.767000 113 86 78
0.267606 0.069033 0.767000 108 81 73
0.269594 0.069033 0.767000 119 71 56
0.271936 0.069123 0.768000 113 65 50
0.274283 0.069213 0.769000 160 114 98
0.276276 0.069213 0.769000 220 174 158
0.265619 0.071024 0.767000 115 88 80
0.267955 0.071116 0.768000 111 84 76
0.270297 0.071209 0.769000 119 71 56
0.272290 0.071209 0.769000 116 68 53
0.274283 0.071209 0.769000 154 106 91
0.276635 0.071302 0.770000 221 173 158
0.265965 0.073109 0.768000 113 88 81
0.267955 0.073109 0.768000 109 84 77
0.270297 0.073205 0.769000 119 73 57
0.272290 0.073205 0.769000 112 66 50
0.274639 0.073300 0.770000 151 103 88
0.276994 0.073395 0.771000 221 173 158
0.279354 0.073490 0.772000 194 175 169
0.265965 0.075102 0.768000 114 89 82
0.267955 0.075102 0.768000 106 81 74
0.270297 0.075200 0.769000 117 71 55
0.272644 0.075298 0.770000 114 68 52
0.274996 0.075396 0.771000 145 97 80
0.277354 0.075493 0.772000 218 170 153
0.279354 0.075493 0.772000 193 174 168
0.265965 0.077095 0.768000 115 92 87
0.268304 0.077196 0.769000 105 82 77
0.270297 0.077196 0.769000 114 69 56
0.272998 0.077396 0.771000 108 63 50
0.274996 0.077396 0.771000 140 92 77
0.277354 0.077497 0.772000 215 167 152
0.279354 0.077497 0.772000 192 173 167
0.265965 0.079088 0.768000 116 90 86
0.268304 0.079191 0.769000 110 84 80
0.270648 0.079294 0.770000 112 70 58
0.272998 0.079397 0.771000 105 63 51
0.275353 0.079500 0.772000 144 97 84
0.277354 0.079500 0.772000 216 169 156
0.280078 0.079706 0.774000 199 180 174
0.268304 0.081187 0.769000 107 81 77
0.270648 0.081292 0.770000 112 70 58
0.273352 0.081503 0.772000 105 63 51
0.275353 0.081503 0.772000 140 95 82
0.277713 0.081609 0.773000 207 162 149
0.280078 0.081715 0.774000 201 182 176
0.268304 0.083182 0.769000 105 80 73
0.271000 0.083399 0.771000 113 71 59
0.273352 0.083507 0.772000 105 63 51
0.275709 0.083615 0.773000 138 93 80
0.278072 0.083723 0.774000 207 162 149
0.280078 0.083723 0.774000 200 181 175
0.268304 0.085178 0.769000 106 84 76
0.271000 0.085399 0.771000 113 73 60
0.273352 0.085510 0.772000 105 65 52
0.275709 0.085621 0.773000 142 95 82
0.278072 0.085732 0.774000 208 161 148
0.280440 0.085842 0.775000 200 181 175
0.268304 0.087173 0.769000 108 86 78
0.271000 0.087400 0.771000 114 72 60
0.273352 0.087514 0.772000 106 64 52
0.276066 0.087740 0.774000 140 93 80
0.278072 0.087740 0.774000 204 157 144
0.280440 0.087854 0.775000 201 182 176
0.268304 0.089169 0.769000 102 82 74
0.271351 0.089517 0.772000 113 71 59
0.273352 0.089517 0.772000 105 63 51
0.276066 0.089749 0.774000 135 89 73
0.278072 0.089749 0.774000 200 154 138
0.280440 0.089865 0.775000 200 179 174
0.268653 0.091283 0.770000 104 82 74
0.271351 0.091520 0.772000 114 72 60
0.273352 0.091520 0.772000 104 62 50
0.276066 0.091757 0.774000 133 84 72
0.278072 0.091757 0.774000 207 158 146
0.280440 0.091876 0.775000 200 179 174
0.268653 0.093281 0.770000 108 83 76
0.271000 0.093402 0.771000 115 72 63
0.273352 0.093524 0.772000 105 62 53
0.275709 0.093645 0.773000 137 88 76
0.278072 0.093766 0.774000 205 156 144
0.280440 0.093887 0.775000 200 179 174
0.268653 0.095279 0.770000 108 83 76
0.271000 0.095403 0.771000 115 72 63
0.273352 0.095527 0.772000 103 60 51
0.275709 0.095651 0.773000 136 85 71
0.278072 0.095774 0.774000 207 156 142
0.280078 0.095774 0.774000 202 180 172
0.268653 0.097278 0.770000 110 85 78
0.271000 0.097404 0.771000 114 72 60
0.273352 0.097530 0.772000 104 62 50
0.275353 0.097530 0.772000 130 82 67
0.277713 0.097657 0.773000 207 159 144
0.280078 0.097783 0.774000 202 177 170
0.269002 0.099405 0.771000 108 83 76
0.271000 0.099405 0.771000 114 72 60
0.273352 0.099534 0.772000 104 62 50
0.275353 0.099534 0.772000 129 78 62
0.277713 0.099662 0.773000 204 153 137
0.279716 0.099662 0.773000 202 177 170
0.269002 0.101405 0.771000 107 84 79
0.271000 0.101405 0.771000 113 73 60
0.273352 0.101537 0.772000 101 61 48
0.275353 0.101537 0.772000 128 77 61
0.277354 0.101537 0.772000 203 152 136
0.279716 0.101668 0.773000 202 177 168
0.269002 0.103406 0.771000 104 81 76
0.271000 0.103406 0.771000 113 73 60
0.272998 0.103406 0.771000 105 65 52
0.275353 0.103540 0.772000 126 78 61
0.277354 0.103540 0.772000 197 149 132
0.279716 0.103674 0.773000 200 178 168
0.269002 0.105407 0.771000 102 81 76
0.271000 0.105407 0.771000 113 73 60
0.273352 0.105544 0.772000 106 66 53
0.275353 0.105544 0.772000 126 78 61
0.277354 0.105544 0.772000 196 148 131
0.279716 0.105680 0.773000 202 180 172
0.269351 0.107547 0.772000 103 82 77
0.271351 0.107547 0.772000 110 73 59
0.273352 0.107547 0.772000 105 68 54
0.275353 0.107547 0.772000 119 71 54
0.277354 0.107547 0.772000 194 146 129
0.279716 0.107686 0.773000 196 174 166
0.269351 0.109550 0.772000 99 78 73
0.271351 0.109550 0.772000 111 74 60
0.273352 0.109550 0.772000 107 70 56
0.275353 0.109550 0.772000 120 72 55
0.277713 0.109692 0.773000 191 143 126
0.279716 0.109692 0.773000 192 170 160
0.269351 0.111554 0.772000 103 82 79
0.271351 0.111554 0.772000 112 74 63
0.273352 0.111554 0.772000 107 69 58
0.275353 0.111554 0.772000 119 71 54
0.277713 0.111698 0.773000 186 138 121
0.280078 0.111843 0.774000 198 176 166
0.269700 0.113704 0.773000 108 85 82
0.271351 0.113557 0.772000 111 73 62
0.273706 0.113704 0.773000 105 67 56
0.275709 0.113704 0.773000 117 69 52
0.278072 0.113851 0.774000 183 135 118
0.280078 0.113851 0.774000 198 176 166
0.269700 0.115710 0.773000 105 79 77
0.271703 0.115710 0.773000 114 73 63
0.273706 0.115710 0.773000 105 64 54
0.276066 0.115860 0.774000 116 68 51
0.278072 0.115860 0.774000 185 137 120
0.280440 0.116009 0.775000 199 177 167
0.269700 0.117716 0.773000 106 83 78
0.271703 0.117716 0.773000 114 73 63
0.273706 0.117716 0.773000 105 64 54
0.276066 0.117868 0.774000 113 65 48
0.278072 0.117868 0.774000 176 128 111
0.280440 0.118020 0.775000 197 175 165
0.269700 0.119722 0.773000 107 84 79
0.271703 0.119722 0.773000 114 73 63
0.273706 0.119722 0.773000 105 64 54
0.276066 0.119877 0.774000 115 67 50
0.278431 0.120032 0.775000 165 117 100
0.280440 0.120032 0.775000 196 174 164
0.269700 0.121728 0.773000 103 80 75
0.271703 0.121728 0.773000 114 73 63
0.274060 0.121885 0.774000 107 66 56
0.276066 0.121885 0.774000 115 67 50
0.278431 0.122043 0.775000 171 123 106
0.280440 0.122043 0.775000 199 175 163
0.269700 0.123734 0.773000 105 82 77
0.271703 0.123734 0.773000 116 75 65
0.274060 0.123894 0.774000 107 66 56
0.276066 0.123894 0.774000 115 67 50
0.278431 0.124054 0.775000 172 124 107
0.280802 0.124214 0.776000 200 176 164
0.270049 0.125902 0.774000 103 82 77
0.272054 0.125902 0.774000 114 73 63
0.274060 0.125902 0.774000 106 65 55
0.276423 0.126065 0.775000 115 67 50
0.278431 0.126065 0.775000 165 117 100
0.280802 0.126228 0.776000 202 176 165
0.270049 0.127911 0.774000 105 84 79
0.272054 0.127911 0.774000 113 72 62
0.274060 0.127911 0.774000 107 66 56
0.276423 0.128076 0.775000 115 64 48
0.278431 0.128076 0.775000 166 115 99
0.280802 0.128241 0.776000 202 173 163
0.270049 0.129919 0.774000 108 85 80
0.272054 0.129919 0.774000 109 71 60
0.274414 0.130087 0.775000 108 70 59
0.276423 0.130087 0.775000 120 67 52
0.278791 0.130255 0.776000 176 123 108
0.280802 0.130255 0.776000 202 173 163
0.270397 0.132098 0.775000 105 82 77
0.272054 0.131928 0.774000 110 73 59
0.274414 0.132098 0.775000 107 70 56
0.276423 0.132098 0.775000 123 67 51
0.278791 0.132269 0.776000 180 124 108
0.280802 0.132269 0.776000 203 174 162
0.270397 0.134109 0.775000 101 80 75
0.272406 0.134109 0.775000 112 75 61
0.274414 0.134109 0.775000 105 68 54
0.276423 0.134109 0.775000 121 65 49
0.278791 0.134282 0.776000 179 123 107
0.280802 0.134282 0.776000 203 174 162
0.270397 0.136121 0.775000 105 86 80
0.272406 0.136121 0.775000 116 75 65
0.274768 0.136296 0.776000 107 66 56
0.276780 0.136296 0.776000 120 67 50
0.278791 0.136296 0.776000 170 117 100
0.280802 0.136296 0.776000 203 172 161
0.270746 0.138310 0.776000 102 83 77
0.272757 0.138310 0.776000 114 73 63
0.274768 0.138310 0.776000 107 66 56
0.276780 0.138310 0.776000 123 70 53
0.278791 0.138310 0.776000 177 124 107
0.281164 0.138488 0.777000 202 173 161
0.270746 0.140324 0.776000 105 86 80
0.272757 0.140324 0.776000 113 73 60
0.274768 0.140324 0.776000 107 67 54
0.276780 0.140324 0.776000 123 70 53
0.278791 0.140324 0.776000 176 123 106
0.281164 0.140504 0.777000 203 172 163
0.271095 0.142521 0.777000 107 88 82
0.272757 0.142337 0.776000 110 72 61
0.274768 0.142337 0.776000 105 67 56
0.276780 0.142337 0.776000 122 69 54
0.279150 0.142521 0.777000 179 126 111
0.281164 0.142521 0.777000 202 172 165
0.271095 0.144537 0.777000 105 86 80
0.272757 0.144351 0.776000 113 73 60
0.274768 0.144351 0.776000 106 66 53
0.276780 0.144351 0.776000 129 76 61
0.279150 0.144537 0.777000 185 132 117
0.281164 0.144537 0.777000 201 174 166
0.271095 0.146553 0.777000 104 84 76
0.272757 0.146365 0.776000 113 71 59
0.274768 0.146365 0.776000 100 58 46
0.276780 0.146365 0.776000 128 77 61
0.279150 0.146553 0.777000 184 133 117
0.281164 0.146553 0.777000 200 175 166
0.271095 0.148570 0.777000 102 82 74
0.272757 0.148379 0.776000 113 71 59
0.274768 0.148379 0.776000 100 58 46
0.276780 0.148379 0.776000 127 76 60
0.279150 0.148570 0.777000 191 140 124
0.281164 0.148570 0.777000 197 175 167
0.271095 0.150586 0.777000 105 83 75
0.272757 0.150392 0.776000 115 70 57
0.274768 0.150392 0.776000 104 59 46
0.276780 0.150392 0.776000 125 77 60
0.279150 0.150586 0.777000 201 153 136
0.281164 0.150586 0.777000 197 175 167
0.271095 0.152602 0.777000 106 81 74
0.273109 0.152602 0.777000 115 70 57
0.275123 0.152602 0.777000 105 60 47
0.277136 0.152602 0.777000 129 83 67
0.279150 0.152602 0.777000 201 155 139
0.269082 0.154619 0.777000 115 88 82
0.271095 0.154619 0.777000 107 80 74
0.273109 0.154619 0.777000 115 70 57
0.275123 0.154619 0.777000 107 62 49
0.277136 0.154619 0.777000 137 93 77
0.279150 0.154619 0.777000 201 157 141
0.269082 0.156635 0.777000 114 87 81
0.271095 0.156635 0.777000 106 79 73
0.273109 0.156635 0.777000 115 68 55
0.275123 0.156635 0.777000 109 62 49
0.277136 0.156635 0.777000 139 97 83
0.279150 0.156635 0.777000 207 165 151
0.269082 0.158651 0.777000 111 84 78
0.271095 0.158651 0.777000 104 77 71
0.273109 0.158651 0.777000 113 64 52
0.275123 0.158651 0.777000 109 60 48
0.277136 0.158651 0.777000 156 114 100
0.279150 0.158651 0.777000 212 170 156
0.269082 0.160668 0.777000 111 81 76
0.271095 0.160668 0.777000 104 74 69
0.273109 0.160668 0.777000 111 60 46
0.275123 0.160668 0.777000 115 64 50
0.277136 0.160668 0.777000 167 127 114
0.279150 0.160668 0.777000 213 173 160
0.269082 0.162684 0.777000 109 77 71
0.271095 0.162684 0.777000 103 71 65
0.273109 0.162684 0.777000 109 61 46
0.275123 0.162684 0.777000 120 72 57
0.277136 0.162684 0.777000 173 135 124
0.279150 0.162684 0.777000 209 171 160
0.267412 0.164912 0.778000 108 93 92
0.269082 0.164700 0.777000 109 74 69
0.271095 0.164700 0.777000 105 70 65
0.273109 0.164700 0.777000 108 60 45
0.275123 0.164700 0.777000 133 85 70
0.277136 0.164700 0.777000 196 160 150
0.267412 0.166931 0.778000 107 91 88
0.269428 0.166931 0.778000 110 72 63
0.271095 0.166717 0.777000 108 70 61
0.273109 0.166717 0.777000 106 60 44
0.275477 0.166931 0.778000 150 104 88
0.277136 0.166717 0.777000 200 171 161
0.265395 0.168950 0.778000 123 104 100
0.267412 0.168950 0.778000 98 79 75
0.269428 0.168950 0.778000 115 70 59
0.271444 0.168950 0.778000 110 65 54
0.273460 0.168950 0.778000 114 68 52
0.275477 0.168950 0.778000 178 132 116
0.277493 0.168950 0.778000 195 173 165
0.265395 0.170969 0.778000 117 91 87
0.267412 0.170969 0.778000 101 75 71
0.269428 0.170969 0.778000 116 67 55
0.271444 0.170969 0.778000 109 60 48
0.273460 0.170969 0.778000 130 86 70
0.275477 0.170969 0.778000 199 155 139
0.263379 0.172988 0.778000 127 112 111
0.265395 0.172988 0.778000 118 83 78
0.267412 0.172988 0.778000 107 72 67
0.269428 0.172988 0.778000 117 66 52
0.271444 0.172988 0.778000 113 62 48
0.273460 0.172988 0.778000 159 119 104
0.275477 0.172988 0.778000 208 168 153
0.263379 0.175007 0.778000 119 96 95
0.265395 0.175007 0.778000 121 78 71
0.267412 0.175007 0.778000 113 70 63
0.269428 0.175007 0.778000 114 61 46
0.271444 0.175007 0.778000 135 82 67
0.273460 0.175007 0.778000 184 150 140
0.261699 0.177253 0.779000 131 100 98
0.263379 0.177026 0.778000 106 75 73
0.265395 0.177026 0.778000 120 68 57
0.267412 0.177026 0.778000 115 63 52
0.269428 0.177026 0.778000 117 69 54
0.271444 0.177026 0.778000 172 124 109
0.273460 0.177026 0.778000 193 171 161
0.259680 0.179275 0.779000 135 116 114
0.261699 0.179275 0.779000 126 85 77
0.263379 0.179045 0.778000 119 78 70
0.265395 0.179045 0.778000 121 68 53
0.267412 0.179045 0.778000 116 63 48
0.269428 0.179045 0.778000 142 100 86
0.271444 0.179045 0.778000 199 157 143
0.257661 0.181296 0.779000 141 111 106
0.259680 0.181296 0.779000 119 89 84
0.261699 0.181296 0.779000 128 76 65
0.263379 0.181064 0.778000 124 72 61
0.265395 0.181064 0.778000 118 65 50
0.267412 0.181064 0.778000 140 87 72
0.269428 0.181064 0.778000 181 150 141
0.255970 0.183553 0.780000 138 117 116
0.257661 0.183318 0.779000 132 91 83
0.259680 0.183318 0.779000 119 78 70
0.261699 0.183318 0.779000 129 73 59
0.263718 0.183318 0.779000 124 68 54
0.265395 0.183082 0.778000 128 82 66
0.267412 0.183082 0.778000 174 128 112
0.269428 0.183082 0.778000 192 173 167
0.253949 0.185577 0.780000 146 111 106
0.255642 0.185339 0.779000 121 86 81
0.257661 0.185339 0.779000 130 76 66
0.259680 0.185339 0.779000 128 74 64
0.261699 0.185339 0.779000 123 70 55
0.263718 0.185339 0.779000 133 80 65
0.265736 0.185339 0.779000 167 133 123
0.267412 0.185101 0.778000 203 169 159
0.251928 0.187601 0.780000 134 111 110
0.253949 0.187601 0.780000 130 80 73
0.255970 0.187601 0.780000 126 76 69
0.257661 0.187361 0.779000 136 78 64
0.259680 0.187361 0.779000 130 72 58
0.261699 0.187361 0.779000 130 83 70
0.263718 0.187361 0.779000 175 128 115
0.265736 0.187361 0.779000 189 170 164
0.248203 0.189868 0.781000 139 124 123
0.249906 0.189625 0.780000 139 102 97
0.251928 0.189625 0.780000 129 92 87
0.253949 0.189625 0.780000 130 74 62
0.255642 0.189382 0.779000 132 76 64
0.257661 0.189382 0.779000 126 73 60
0.259680 0.189382 0.779000 133 80 67
0.261699 0.189382 0.779000 169 138 127
0.246179 0.191895 0.781000 144 116 115
0.248203 0.191895 0.781000 123 95 94
0.250227 0.191895 0.781000 127 75 66
0.251928 0.191649 0.780000 132 80 71
0.253949 0.191649 0.780000 129 73 61
0.255970 0.191649 0.780000 129 73 61
0.257661 0.191404 0.779000 134 92 80
0.259680 0.191404 0.779000 178 136 124
0.244467 0.194170 0.782000 133 110 109
0.246494 0.194170 0.782000 134 84 77
0.248203 0.193922 0.781000 129 79 72
0.249906 0.193674 0.780000 137 79 65
0.251928 0.193674 0.780000 134 76 62
0.253949 0.193674 0.780000 132 85 72
0.255970 0.193674 0.780000 158 111 98
0.257661 0.193425 0.779000 176 154 146
0.240721 0.196450 0.783000 138 116 118
0.242751 0.196450 0.783000 136 90 86
0.244780 0.196450 0.783000 126 80 76
0.246494 0.196199 0.782000 139 76 64
0.248203 0.195949 0.781000 140 77 65
0.250227 0.195949 0.781000 132 76 62
0.251928 0.195698 0.780000 139 83 69
0.253949 0.195698 0.780000 162 131 120
0.255970 0.195698 0.780000 188 157 146
0.236361 0.198229 0.782000 146 126 129
0.238692 0.198482 0.783000 148 106 105
0.240721 0.198482 0.783000 127 85 84
0.242751 0.198482 0.783000 139 79 68
0.244467 0.198229 0.782000 139 79 68
0.246494 0.198229 0.782000 137 77 62
0.248203 0.197975 0.781000 133 73 58
0.250227 0.197975 0.781000 140 98 86
0.251928 0.197722 0.780000 180 138 126
0.234034 0.200002 0.781000 149 114 111
0.236361 0.200258 0.782000 134 99 96
0.238387 0.200258 0.782000 140 79 71
0.240414 0.200258 0.782000 134 73 65
0.242441 0.200258 0.782000 135 75 60
0.244467 0.200258 0.782000 135 75 60
0.246494 0.200258 0.782000 137 88 76
0.248203 0.200002 0.781000 160 111 99
0.250227 0.200002 0.781000 179 154 145
0.229986 0.202029 0.781000 151 118 117
0.232010 0.202029 0.781000 131 98 97
0.234034 0.202029 0.781000 139 82 75
0.236361 0.202287 0.782000 136 79 72
0.238387 0.202287 0.782000 141 76 65
0.240721 0.202546 0.783000 138 73 62
0.242751 0.202546 0.783000 132 81 67
0.244467 0.202287 0.782000 152 101 87
0.246494 0.202287 0.782000 173 142 131
0.225938 0.204055 0.781000 156 128 127
0.227962 0.204055 0.781000 141 113 112
0.229986 0.204055 0.781000 139 87 78
0.232010 0.204055 0.781000 135 83 74
0.234034 0.204055 0.781000 143 78 67
0.236058 0.204055 0.781000 142 77 66
0.238387 0.204317 0.782000 134 76 62
0.240414 0.204317 0.782000 145 87 73
0.242441 0.204317 0.782000 157 123 111
0.244467 0.204317 0.782000 189 155 143
0.224201 0.206346 0.782000 141 115 115
0.225938 0.206082 0.781000 141 95 89
0.227962 0.206082 0.781000 131 85 79
0.229986 0.206082 0.781000 141 81 66
0.232010 0.206082 0.781000 142 82 67
0.234034 0.206082 0.781000 135 75 60
0.236058 0.206082 0.781000 139 79 64
0.238082 0.206082 0.781000 148 107 97
0.240414 0.206346 0.782000 184 143 133
0.220429 0.208642 0.783000 146 122 124
0.222174 0.208375 0.782000 146 98 94
0.224201 0.208375 0.782000 133 85 81
0.225938 0.208109 0.781000 137 79 63
0.227962 0.208109 0.781000 139 81 65
0.229986 0.208109 0.781000 140 80 65
0.232010 0.208109 0.781000 138 78 63
0.234034 0.208109 0.781000 140 95 84
0.236058 0.208109 0.781000 172 127 116
0.216647 0.210943 0.784000 140 118 120
0.218679 0.210943 0.784000 147 99 95
0.220429 0.210674 0.783000 131 83 79
0.222459 0.210674 0.783000 139 76 64
0.224201 0.210404 0.782000 141 78 66
0.225938 0.210135 0.781000 134 74 59
0.228254 0.210404 0.782000 134 74 59
0.229986 0.210135 0.781000 139 92 79
0.232010 0.210135 0.781000 168 121 108
0.234034 0.210135 0.781000 176 155 150
0.214889 0.213249 0.785000 151 109 106
0.216647 0.212977 0.784000 131 89 86
0.218679 0.212977 0.784000 141 78 68
0.220711 0.212977 0.784000 142 79 69
0.222459 0.212705 0.783000 140 77 63
0.224201 0.212434 0.782000 134 71 57
0.226228 0.212434 0.782000 132 83 71
0.228254 0.212434 0.782000 158 109 97
0.230281 0.212434 0.782000 173 148 141
0.211089 0.215560 0.786000 150 114 114
0.212855 0.215286 0.785000 130 94 94
0.214615 0.215012 0.784000 137 78 69
0.216647 0.215012 0.784000 136 77 68
0.218679 0.215012 0.784000 139 76 62
0.220711 0.215012 0.784000 137 74 60
0.222459 0.214737 0.783000 131 80 66
0.224488 0.214737 0.783000 150 99 85
0.226228 0.214463 0.782000 169 140 130
0.209052 0.217600 0.786000 136 108 107
0.210820 0.217323 0.785000 139 85 77
0.212584 0.217046 0.784000 132 78 70
0.214615 0.217046 0.784000 140 80 65
0.216371 0.216769 0.783000 137 77 62
0.218400 0.216769 0.783000 134 78 64
0.220429 0.216769 0.783000 150 94 80
0.222743 0.217046 0.784000 167 136 125
0.224488 0.216769 0.783000 185 154 143
0.204978 0.219639 0.786000 139 115 117
0.207015 0.219639 0.786000 140 90 85
0.208786 0.219360 0.785000 132 82 77
0.210552 0.219081 0.784000 141 78 64
0.212584 0.219081 0.784000 137 74 60
0.214342 0.218801 0.783000 134 76 60
0.216371 0.218801 0.783000 147 89 73
0.218400 0.218801 0.783000 159 123 111
0.220429 0.218801 0.783000 186 150 138
0.202683 0.221397 0.785000 148 106 103
0.204717 0.221397 0.785000 130 88 85
0.206752 0.221397 0.785000 140 77 65
0.208520 0.221115 0.784000 141 78 66
0.210283 0.220833 0.783000 134 74 59
0.212312 0.220833 0.783000 139 79 64
0.214068 0.220551 0.782000 149 107 93
0.216095 0.220551 0.782000 185 143 129
0.198867 0.223719 0.786000 148 115 114
0.200904 0.223719 0.786000 137 104 103
0.202683 0.223434 0.785000 143 84 75
0.204456 0.223149 0.784000 137 78 69
0.206488 0.223149 0.784000 141 78 64
0.208520 0.223149 0.784000 139 76 62
0.210283 0.222865 0.783000 139 91 76
0.212041 0.222580 0.782000 167 119 104
0.214068 0.222580 0.782000 178 156 148
0.196830 0.225758 0.786000 135 109 109
0.198867 0.225758 0.786000 144 94 87
0.200648 0.225471 0.785000 133 83 76
0.202425 0.225184 0.784000 141 78 64
0.204456 0.225184 0.784000 137 74 60
0.206488 0.225184 0.784000 135 79 67
0.208254 0.224897 0.783000 155 99 87
0.210015 0.224610 0.782000 175 144 135
0.192511 0.227508 0.785000 138 122 119
0.194545 0.227508 0.785000 143 99 97
0.196580 0.227508 0.785000 127 83 81
0.198614 0.227508 0.785000 141 78 66
0.200393 0.227218 0.784000 142 79 67
0.202425 0.227218 0.784000 137 79 65
0.204196 0.226929 0.783000 140 82 68
0.206225 0.226929 0.783000 152 116 104
0.208254 0.226929 0.783000 192 156 144
0.190477 0.229545 0.785000 151 114 111
0.192266 0.229253 0.784000 134 97 94
0.194297 0.229253 0.784000 138 80 68
0.196329 0.229253 0.784000 138 80 68
0.198361 0.229253 0.784000 139 76 62
0.200393 0.229253 0.784000 141 78 64
0.202166 0.228960 0.783000 138 91 78
0.204196 0.228960 0.783000 177 130 117
0.188442 0.231582 0.785000 137 109 106
0.190477 0.231582 0.785000 145 88 79
0.192511 0.231582 0.785000 137 80 71
0.194297 0.231287 0.784000 144 79 66
0.196329 0.231287 0.784000 141 76 63
0.198361 0.231287 0.784000 135 82 67
0.200393 0.231287 0.784000 156 103 88
0.202166 0.230992 0.783000 173 146 138
0.184373 0.233619 0.785000 145 122 121
0.186408 0.233619 0.785000 147 101 93
0.188202 0.233322 0.784000 129 83 75
0.190234 0.233322 0.784000 145 78 61
0.192266 0.233322 0.784000 145 78 61
0.194297 0.233322 0.784000 137 77 62
0.196329 0.233322 0.784000 148 88 73
0.198361 0.233322 0.784000 164 126 115
0.200393 0.233322 0.784000 194 156 145
0.182339 0.235657 0.785000 145 103 100
0.184138 0.235356 0.784000 130 88 85
0.186170 0.235356 0.784000 134 74 59
0.188202 0.235356 0.784000 137 77 62
0.190234 0.235356 0.784000 136 74 55
0.192266 0.235356 0.784000 140 78 59
0.194297 0.235356 0.784000 145 103 91
0.196329 0.235356 0.784000 180 138 126
0.178497 0.237996 0.786000 148 112 112
0.180305 0.237694 0.785000 128 92 92
0.182107 0.237391 0.784000 127 70 61
0.184138 0.237391 0.784000 132 75 66
0.186170 0.237391 0.784000 137 74 60
0.187962 0.237088 0.783000 139 76 62
0.189991 0.237088 0.783000 142 91 77
0.192020 0.237088 0.783000 168 117 103
0.194050 0.237088 0.783000 178 153 146
0.176460 0.240036 0.786000 144 116 113
0.178497 0.240036 0.786000 145 92 86
0.180075 0.239425 0.784000 132 79 73
0.182107 0.239425 0.784000 137 77 64
0.184138 0.239425 0.784000 134 74 61
0.185933 0.239120 0.783000 136 80 66
0.187722 0.238815 0.782000 156 100 86
0.189749 0.238815 0.782000 174 143 132
0.191775 0.238815 0.782000 190 159 148
0.172606 0.242384 0.787000 140 119 118
0.174645 0.242384 0.787000 145 97 91
0.176460 0.242076 0.786000 131 83 77
0.178497 0.242076 0.786000 137 74 62
0.180075 0.241460 0.784000 135 72 60
0.182107 0.241460 0.784000 131 73 59
0.184138 0.241460 0.784000 144 86 72
0.185933 0.241152 0.783000 165 128 114
0.187722 0.240844 0.782000 188 151 137
0.170566 0.244426 0.787000 145 107 100
0.172606 0.244426 0.787000 131 93 86
0.174645 0.244426 0.787000 139 79 66
0.176460 0.244115 0.786000 138 78 65
0.178497 0.244115 0.786000 137 78 60
0.180075 0.243494 0.784000 141 82 64
0.182107 0.243494 0.784000 154 109 96
0.184138 0.243494 0.784000 182 137 124
0.168527 0.246468 0.787000 133 98 95
0.170566 0.246468 0.787000 135 79 67
0.172606 0.246468 0.787000 135 79 67
0.174645 0.246468 0.787000 137 75 58
0.176460 0.246155 0.786000 134 72 55
0.178497 0.246155 0.786000 135 84 68
0.180305 0.245842 0.785000 171 120 104
0.182107 0.245529 0.784000 180 155 146
0.164447 0.248511 0.787000 139 107 103
0.166487 0.248511 0.787000 136 84 73
0.168527 0.248511 0.787000 129 77 66
0.170566 0.248511 0.787000 140 78 61
0.172606 0.248511 0.787000 135 73 56
0.174645 0.248511 0.787000 130 74 60
0.176460 0.248195 0.786000 159 103 89
0.178497 0.248195 0.786000 173 142 133
0.180305 0.247879 0.785000 187 156 147
0.162408 0.250553 0.787000 145 97 91
0.164447 0.250553 0.787000 126 78 72
0.166487 0.250553 0.787000 132 72 57
0.168527 0.250553 0.787000 134 74 59
0.170566 0.250553 0.787000 132 72 57
0.172606 0.250553 0.787000 142 82 67
0.174645 0.250553 0.787000 160 119 109
0.176460 0.250234 0.786000 190 149 139
0.158329 0.252595 0.787000 135 96 92
0.160368 0.252595 0.787000 128 89 85
0.162408 0.252595 0.787000 133 73 60
0.164447 0.252595 0.787000 132 72 59
0.166487 0.252595 0.787000 135 75 60
0.168527 0.252595 0.787000 135 75 60
0.170566 0.252595 0.787000 145 98 85
0.172606 0.252595 0.787000 189 142 129
0.174645 0.252595 0.787000 182 159 154
0.156289 0.254637 0.787000 122 96 92
0.158329 0.254637 0.787000 126 72 62
0.160368 0.254637 0.787000 129 75 65
0.162408 0.254637 0.787000 133 70 56
0.164447 0.254637 0.787000 129 66 52
0.166487 0.254637 0.787000 138 87 71
0.168527 0.254637 0.787000 169 118 102
0.170566 0.254637 0.787000 181 152 142
0.152210 0.256680 0.787000 132 113 111
0.154250 0.256680 0.787000 133 90 83
0.156289 0.256680 0.787000 115 72 65
0.158329 0.256680 0.787000 135 71 55
0.160368 0.256680 0.787000 133 69 53
0.162408 0.256680 0.787000 131 73 57
0.164447 0.256680 0.787000 148 90 74
0.166487 0.256680 0.787000 176 140 128
0.168527 0.256680 0.787000 192 156 144
0.150170 0.258722 0.787000 138 106 100
0.152210 0.258722 0.787000 124 92 86
0.154250 0.258722 0.787000 134 76 62
0.156289 0.258722 0.787000 131 73 59
0.158329 0.258722 0.787000 129 67 50
0.160368 0.258722 0.787000 136 74 57
0.162408 0.258722 0.787000 153 106 93
0.164447 0.258722 0.787000 190 143 130
0.148131 0.260764 0.787000 128 100 97
0.150170 0.260764 0.787000 130 76 66
0.152210 0.260764 0.787000 127 73 63
0.154446 0.261095 0.788000 134 70 54
0.156488 0.261095 0.788000 133 69 53
0.158530 0.261095 0.788000 135 82 67
0.160572 0.261095 0.788000 174 121 106
0.162614 0.261095 0.788000 182 155 147
0.144052 0.262806 0.787000 133 111 113
0.146091 0.262806 0.787000 136 90 84
0.148131 0.262806 0.787000 128 82 76
0.150170 0.262806 0.787000 134 74 61
0.152403 0.263140 0.788000 127 67 54
0.154446 0.263140 0.788000 127 67 54
0.156488 0.263140 0.788000 147 87 74
0.158731 0.263474 0.789000 159 123 113
0.160776 0.263474 0.789000 189 153 143
0.140150 0.265185 0.788000 138 121 123
0.142012 0.264849 0.787000 141 104 101
0.144052 0.264849 0.787000 124 87 84
0.146277 0.265185 0.788000 133 75 61
0.148319 0.265185 0.788000 133 75 61
0.150552 0.265522 0.789000 131 71 56
0.152597 0.265522 0.789000 128 68 53
0.154642 0.265522 0.789000 152 105 92
0.156686 0.265522 0.789000 193 146 133
0.138283 0.267569 0.789000 144 113 113
0.140328 0.267569 0.789000 126 95 95
0.142373 0.267569 0.789000 137 83 75
0.144418 0.267569 0.789000 130 76 68
0.146463 0.267569 0.789000 135 73 56
0.148507 0.267569 0.789000 133 71 54
0.150552 0.267569 0.789000 134 83 67
0.152597 0.267569 0.789000 170 119 103
0.154838 0.267908 0.790000 186 160 149
0.136239 0.269617 0.789000 131 108 107
0.138283 0.269617 0.789000 132 84 78
0.140328 0.269617 0.789000 124 76 70
0.142373 0.269617 0.789000 140 75 62
0.144418 0.269617 0.789000 138 73 60
0.146463 0.269617 0.789000 131 74 55
0.148695 0.269958 0.790000 143 86 67
0.150743 0.269958 0.790000 172 136 124
0.152790 0.269958 0.790000 200 164 152
0.132484 0.272353 0.791000 142 122 123
0.134364 0.272008 0.790000 140 98 95
0.136411 0.272008 0.790000 124 82 79
0.138459 0.272008 0.790000 135 75 62
0.140506 0.272008 0.790000 137 77 64
0.142553 0.272008 0.790000 134 71 57
0.144601 0.272008 0.790000 134 71 57
0.146648 0.272008 0.790000 149 107 93
0.148884 0.272353 0.791000 186 144 130
0.128547 0.274752 0.792000 141 129 127
0.130434 0.274405 0.791000 143 108 105
0.132484 0.274405 0.791000 127 92 89
0.134534 0.274405 0.791000 132 76 64
0.136584 0.274405 0.791000 135 79 67
0.138634 0.274405 0.791000 136 73 59
0.140684 0.274405 0.791000 136 73 59
0.142734 0.274405 0.791000 134 83 69
0.144784 0.274405 0.791000 166 115 101
0.146834 0.274405 0.791000 185 160 151
0.126494 0.276808 0.792000 139 111 108
0.128547 0.276808 0.792000 129 101 98
0.130434 0.276458 0.791000 133 79 69
0.132484 0.276458 0.791000 132 78 68
0.134534 0.276458 0.791000 139 76 62
0.136584 0.276458 0.791000 136 73 59
0.138634 0.276458 0.791000 130 74 60
0.140684 0.276458 0.791000 146 90 76
0.142914 0.276808 0.792000 170 139 128
0.124442 0.278863 0.792000 135 112 109
0.126494 0.278863 0.792000 140 88 79
0.128547 0.278863 0.792000 129 77 68
0.130434 0.278511 0.791000 138 74 58
0.132484 0.278511 0.791000 140 76 60
0.134534 0.278511 0.791000 131 73 57
0.136757 0.278863 0.792000 139 81 65
0.138809 0.278863 0.792000 160 120 107
0.140862 0.278863 0.792000 189 149 136
0.120337 0.280918 0.792000 132 111 110
0.122389 0.280918 0.792000 142 96 90
0.124442 0.280918 0.792000 127 81 75
0.126494 0.280918 0.792000 139 72 57
0.128547 0.280918 0.792000 142 75 60
0.130434 0.280563 0.791000 136 72 54
0.132484 0.280563 0.791000 136 72 54
0.134704 0.280918 0.792000 144 100 84
0.136757 0.280918 0.792000 183 139 123
0.118284 0.282973 0.792000 142 103 99
0.120337 0.282973 0.792000 124 85 81
0.122389 0.282973 0.792000 136 73 61
0.124442 0.282973 0.792000 130 67 55
0.126494 0.282973 0.792000 137 70 53
0.128547 0.282973 0.792000 136 69 52
0.130599 0.282973 0.792000 136 85 67
0.132652 0.282973 0.792000 168 117 99
0.134704 0.282973 0.792000 181 157 145
0.114179 0.285028 0.792000 145 113 109
0.116231 0.285028 0.792000 134 102 98
0.118284 0.285028 0.792000 137 78 69
0.120337 0.285028 0.792000 131 72 63
0.122389 0.285028 0.792000 137 73 57
0.124442 0.285028 0.792000 135 71 55
0.126494 0.285028 0.792000 135 79 63
0.128547 0.285028 0.792000 160 104 88
0.130599 0.285028 0.792000 175 146 134
0.112126 0.287084 0.792000 132 104 101
0.114179 0.287084 0.792000 133 81 72
0.116231 0.287084 0.792000 125 73 64
0.118284 0.287084 0.792000 135 70 57
0.120337 0.287084 0.792000 134 69 56
0.122389 0.287084 0.792000 130 70 55
0.124442 0.287084 0.792000 148 88 73
0.126494 0.287084 0.792000 167 131 119
0.128547 0.287084 0.792000 189 153 141
0.108021 0.289139 0.792000 138 119 117
0.110074 0.289139 0.792000 132 91 83
0.112126 0.289139 0.792000 124 83 75
0.114179 0.289139 0.792000 137 74 60
0.116231 0.289139 0.792000 137 74 60
0.118433 0.289504 0.793000 132 69 55
0.120488 0.289504 0.793000 140 77 63
0.122698 0.289869 0.794000 159 114 101
0.124599 0.289504 0.793000 193 148 135
0.105969 0.291194 0.792000 134 104 99
0.108021 0.291194 0.792000 124 94 89
0.110074 0.291194 0.792000 132 74 60
0.112126 0.291194 0.792000 133 75 61
0.114179 0.291194 0.792000 132 70 53
0.116378 0.291562 0.793000 132 70 53
0.118583 0.291930 0.794000 138 90 75
0.120640 0.291930 0.794000 174 126 111
0.101864 0.293249 0.792000 143 117 115
0.103916 0.293249 0.792000 124 98 96
0.105969 0.293249 0.792000 124 77 66
0.108021 0.293249 0.792000 125 78 67
0.110213 0.293620 0.793000 136 74 55
0.112268 0.293620 0.793000 130 68 49
0.114323 0.293620 0.793000 132 76 60
0.116525 0.293990 0.794000 164 108 92
0.118583 0.293990 0.794000 180 149 136
0.099811 0.295305 0.792000 131 111 112
0.101864 0.295305 0.792000 132 91 83
0.104047 0.295678 0.793000 118 77 69
0.106103 0.295678 0.793000 134 71 57
0.108158 0.295678 0.793000 134 71 57
0.110352 0.296050 0.794000 131 72 54
0.112410 0.296050 0.794000 141 82 64
0.114467 0.296050 0.794000 164 127 113
0.116525 0.296050 0.794000 187 150 136
0.097759 0.297360 0.792000 135 100 97
0.099937 0.297735 0.793000 111 76 73
0.101992 0.297735 0.793000 131 73 59
0.104047 0.297735 0.793000 132 74 60
0.106236 0.298111 0.794000 132 70 53
0.108294 0.298111 0.794000 134 72 55
0.110352 0.298111 0.794000 148 100 85
0.112410 0.298111 0.794000 181 133 118
0.093772 0.299793 0.793000 138 110 109
0.095827 0.299793 0.793000 117 89 88
0.097882 0.299793 0.793000 127 75 66
0.099937 0.299793 0.793000 126 74 65
0.102121 0.300171 0.794000 134 72 55
0.104179 0.300171 0.794000 134 72 55
0.106236 0.300171 0.794000 136 80 66
0.108294 0.300171 0.794000 164 108 94
0.110352 0.300171 0.794000 180 149 140
0.091601 0.301470 0.792000 129 107 109
0.093654 0.301470 0.792000 124 76 72
0.095706 0.301470 0.792000 119 71 67
0.097882 0.301851 0.793000 134 71 57
0.100063 0.302232 0.794000 133 70 56
0.102121 0.302232 0.794000 130 70 55
0.104179 0.302232 0.794000 148 88 73
0.106236 0.302232 0.794000 167 127 114
0.087607 0.303909 0.793000 133 113 114
0.089549 0.303526 0.792000 126 87 85
0.091601 0.303526 0.792000 115 76 74
0.093654 0.303526 0.792000 134 71 59
0.095706 0.303526 0.792000 134 71 59
0.097882 0.303909 0.793000 130 68 51
0.100063 0.304292 0.794000 136 74 57
0.102121 0.304292 0.794000 157 113 97
0.104179 0.304292 0.794000 190 146 130
0.085659 0.306353 0.794000 132 100 96
0.087607 0.305967 0.793000 113 81 77
0.089662 0.305967 0.793000 130 73 64
0.091601 0.305581 0.792000 130 73 64
0.093772 0.305967 0.793000 132 70 53
0.095827 0.305967 0.793000 128 66 49
0.098006 0.306353 0.794000 135 84 66
0.100063 0.306353 0.794000 173 122 104
0.081544 0.308413 0.794000 144 113 111
0.083602 0.308413 0.794000 127 96 94
0.085659 0.308413 0.794000 126 74 63
0.087607 0.308025 0.793000 127 75 64
0.089662 0.308025 0.793000 135 73 56
0.091601 0.307636 0.792000 129 67 50
0.093772 0.308025 0.793000 129 73 57
0.095948 0.308413 0.794000 153 97 81
0.098006 0.308413 0.794000 179 145 133
0.079486 0.310473 0.794000 128 105 102
0.081544 0.310473 0.794000 129 81 73
0.083602 0.310473 0.794000 124 76 68
0.085659 0.310473 0.794000 136 74 57
0.087607 0.310082 0.793000 134 72 55
0.089662 0.310082 0.793000 126 66 51
0.091717 0.310082 0.793000 142 82 67
0.093890 0.310473 0.794000 166 126 113
0.095948 0.310473 0.794000 188 148 135
0.075371 0.312534 0.794000 132 113 111
0.077428 0.312534 0.794000 133 90 85
0.079486 0.312534 0.794000 117 74 69
0.081544 0.312534 0.794000 133 70 58
0.083602 0.312534 0.794000 134 71 59
0.085659 0.312534 0.794000 129 67 50
0.087717 0.312534 0.794000 140 78 61
0.089775 0.312534 0.794000 148 103 90
0.091832 0.312534 0.794000 186 141 128
0.073313 0.314594 0.794000 134 99 96
0.075371 0.314594 0.794000 119 84 81
0.077428 0.314594 0.794000 127 67 56
0.079486 0.314594 0.794000 131 71 60
0.081544 0.314594 0.794000 133 68 55
0.083602 0.314594 0.794000 130 65 52
0.085659 0.314594 0.794000 140 89 73
0.087717 0.314594 0.794000 173 122 106
0.089775 0.314594 0.794000 180 156 144
0.069198 0.316655 0.794000 140 107 106
0.071255 0.316655 0.794000 125 92 91
0.073313 0.316655 0.794000 129 75 67
0.075371 0.316655 0.794000 125 71 63
0.077428 0.316655 0.794000 133 68 55
0.079486 0.316655 0.794000 128 63 50
0.081544 0.316655 0.794000 133 75 61
0.083602 0.316655 0.794000 155 97 83
0.085551 0.316256 0.793000 173 142 129
0.067140 0.318715 0.794000 130 102 101
0.069198 0.318715 0.794000 136 87 77
0.071255 0.318715 0.794000 126 77 67
0.073313 0.318715 0.794000 137 75 58
0.075371 0.318715 0.794000 134 72 55
0.077428 0.318715 0.794000 127 67 52
0.079486 0.318715 0.794000 146 86 71
0.081544 0.318715 0.794000 166 126 113
0.083496 0.318314 0.793000 192 152 139
0.063104 0.321180 0.795000 138 115 114
0.065082 0.320776 0.794000 138 95 88
0.067140 0.320776 0.794000 121 78 71
0.069198 0.320776 0.794000 136 74 55
0.071255 0.320776 0.794000 135 73 54
0.073313 0.320776 0.794000 130 68 49
0.075371 0.320776 0.794000 140 78 59
0.077428 0.320776 0.794000 156 111 98
0.079386 0.320372 0.793000 184 139 126
0.061044 0.323243 0.795000 140 101 97
0.063104 0.323243 0.795000 123 84 80
0.065082 0.322836 0.794000 135 75 60
0.067140 0.322836 0.794000 134 74 59
0.069198 0.322836 0.794000 134 70 52
0.071255 0.322836 0.794000 131 67 49
0.073313 0.322836 0.794000 140 89 73
0.075276 0.322429 0.793000 174 123 107
0.077331 0.322429 0.793000 179 154 145
0.056923 0.325306 0.795000 141 110 108
0.058983 0.325306 0.795000 126 95 93
0.061044 0.325306 0.795000 132 78 68
0.063104 0.325306 0.795000 129 75 65
0.065082 0.324896 0.794000 137 73 55
0.067140 0.324896 0.794000 135 71 53
0.069198 0.324896 0.794000 134 78 62
0.071255 0.324896 0.794000 159 103 87
0.073221 0.324487 0.793000 178 144 132
0.054863 0.327369 0.795000 132 109 108
0.056923 0.327369 0.795000 130 82 76
0.058983 0.327369 0.795000 123 75 69
0.061044 0.327369 0.795000 133 69 53
0.063024 0.326957 0.794000 135 71 55
0.065082 0.326957 0.794000 132 70 53
0.067140 0.326957 0.794000 142 80 63
0.069198 0.326957 0.794000 168 126 112
0.071255 0.326957 0.794000 193 151 137
0.050742 0.329432 0.795000 130 115 114
0.052802 0.329432 0.795000 132 91 85
0.054863 0.329432 0.795000 119 78 72
0.056923 0.329432 0.795000 134 71 57
0.058983 0.329432 0.795000 134 71 57
0.061044 0.329432 0.795000 128 64 48
0.063024 0.329017 0.794000 140 76 60
0.065082 0.329017 0.794000 157 111 95
0.067140 0.329017 0.794000 186 140 124
0.048743 0.331912 0.796000 129 106 101
0.050742 0.331495 0.795000 112 89 84
0.052802 0.331495 0.795000 130 73 64
0.054863 0.331495 0.795000 130 73 64
0.056923 0.331495 0.795000 133 69 53
0.058983 0.331495 0.795000 133 69 53
0.061044 0.331495 0.795000 149 96 79
0.063104 0.331495 0.795000 181 128 111
0.065082 0.331078 0.794000 182 153 143
0.048743 0.333977 0.796000 106 79 71
0.050742 0.333558 0.795000 106 79 71
0.052802 0.333558 0.795000 131 75 61
0.054863 0.333558 0.795000 124 68 54
0.056923 0.333558 0.795000 137 79 63
0.058983 0.333558 0.795000 162 104 88
0.061044 0.333558 0.795000 183 149 139
0.048743 0.336043 0.796000 119 97 87
0.050806 0.336043 0.796000 100 78 68
0.052869 0.336043 0.796000 117 72 61
0.054932 0.336043 0.796000 130 85 74
0.056995 0.336043 0.796000 167 125 113
0.059057 0.336043 0.796000 192 150 138
0.050806 0.338109 0.796000 147 136 129
0.052869 0.338109 0.796000 136 110 99
0.054932 0.338109 0.796000 171 145 134
