ply
format ascii 1.0
element vertex 1044
property float x
property float y
property float z
property uchar red
property uchar green
property uchar blue
end_header
0.508960 -0.526782 0.478738 140 121 119
0.510632 -0.525958 0.478293 108 89 87
0.512578 -0.526150 0.477982 119 84 79
0.514524 -0.526342 0.477671 139 104 99
0.516470 -0.526533 0.477360 192 176 171
0.507344 -0.526368 0.480994 117 106 110
0.509292 -0.526560 0.480683 120 95 88
0.511241 -0.526752 0.480371 96 71 64
0.512910 -0.525928 0.479924 108 62 54
0.514856 -0.526120 0.479613 129 83 75
0.516802 -0.526311 0.479302 196 169 163
0.507948 -0.527160 0.483078 107 92 91
0.509625 -0.526337 0.482627 117 88 78
0.511573 -0.526529 0.482316 106 77 67
0.513522 -0.526721 0.482005 112 65 52
0.515470 -0.526913 0.481694 125 78 65
0.517134 -0.526089 0.481244 193 157 149
0.519080 -0.526281 0.480934 212 176 168
0.508281 -0.526937 0.485025 105 89 86
0.509957 -0.526115 0.484572 118 87 78
0.511906 -0.526307 0.484260 110 79 70
0.513854 -0.526499 0.483949 116 68 53
0.515803 -0.526691 0.483638 125 77 62
0.517751 -0.526883 0.483327 184 143 133
0.519700 -0.527075 0.483016 217 176 166
0.508614 -0.526715 0.486972 106 92 88
0.510290 -0.525893 0.486516 118 87 76
0.512238 -0.526085 0.486205 111 80 69
0.514187 -0.526277 0.485894 118 67 53
0.516135 -0.526469 0.485583 127 76 62
0.518084 -0.526660 0.485271 184 142 130
0.520032 -0.526852 0.484960 221 179 167
0.509220 -0.527506 0.489067 107 96 91
0.510898 -0.526684 0.488608 117 88 78
0.512571 -0.525862 0.488149 111 82 72
0.514519 -0.526054 0.487838 117 66 52
0.516468 -0.526246 0.487527 125 74 60
0.518416 -0.526438 0.487216 186 141 128
0.520365 -0.526630 0.486905 221 176 163
0.511231 -0.526462 0.490555 115 86 76
0.513182 -0.526654 0.490243 111 82 72
0.515133 -0.526846 0.489932 118 67 53
0.517084 -0.527038 0.489620 124 73 59
0.519035 -0.527230 0.489309 179 134 121
0.520986 -0.527423 0.488997 221 176 163
0.511564 -0.526239 0.492502 112 82 75
0.513515 -0.526431 0.492190 111 81 74
0.515466 -0.526623 0.491879 116 68 53
0.517417 -0.526816 0.491567 120 72 57
0.519368 -0.527008 0.491256 168 123 110
0.521319 -0.527200 0.490944 220 175 162
0.511897 -0.526016 0.494449 113 83 76
0.513848 -0.526209 0.494137 112 82 75
0.515799 -0.526401 0.493826 118 67 53
0.517750 -0.526593 0.493514 119 68 54
0.519989 -0.527799 0.493356 166 122 106
0.521942 -0.527992 0.493044 220 176 160
0.512230 -0.525794 0.496396 115 85 78
0.514181 -0.525986 0.496084 110 80 73
0.516132 -0.526178 0.495773 121 70 56
0.518368 -0.527384 0.495618 114 63 49
0.520610 -0.528590 0.495461 163 119 103
0.522566 -0.528783 0.495149 219 175 159
0.512841 -0.526584 0.498503 113 86 78
0.514794 -0.526776 0.498191 108 81 73
0.516748 -0.526969 0.497879 119 71 56
0.518987 -0.528174 0.497726 113 65 50
0.521232 -0.529380 0.497572 160 114 98
0.523191 -0.529573 0.497259 220 174 158
0.513174 -0.526361 0.500453 115 88 80
0.515409 -0.527566 0.500303 111 84 76
0.517649 -0.528771 0.500152 119 71 56
0.519607 -0.528964 0.499839 116 68 53
0.521566 -0.529157 0.499527 154 106 91
0.523816 -0.530363 0.499374 221 173 158
0.513786 -0.527150 0.502567 113 88 81
0.515742 -0.527342 0.502255 109 84 77
0.517983 -0.528548 0.502107 119 73 57
0.519941 -0.528740 0.501794 112 66 50
0.522189 -0.529946 0.501645 151 103 88
0.524442 -0.531153 0.501495 221 173 158
0.526701 -0.532359 0.501344 194 175 169
0.514120 -0.526927 0.504519 114 89 82
0.516076 -0.527119 0.504207 106 81 74
0.518317 -0.528324 0.504062 117 71 55
0.520563 -0.529529 0.503915 114 68 52
0.522814 -0.530735 0.503768 145 97 80
0.525070 -0.531941 0.503620 218 170 153
0.527036 -0.532135 0.503306 193 174 168
0.514454 -0.526703 0.506472 115 92 87
0.516692 -0.527908 0.506329 105 82 77
0.518651 -0.528101 0.506016 114 69 56
0.521185 -0.530318 0.506041 108 63 50
0.523149 -0.530511 0.505728 140 92 77
0.525405 -0.531717 0.505582 215 167 152
0.527372 -0.531911 0.505268 192 173 167
0.514787 -0.526480 0.508424 116 90 86
0.517026 -0.527684 0.508284 110 84 80
0.519271 -0.528889 0.508143 112 70 58
0.521520 -0.530094 0.508001 105 63 51
0.523774 -0.531299 0.507859 144 97 84
0.525741 -0.531493 0.507545 216 169 156
0.528298 -0.533711 0.507571 199 180 174
0.517361 -0.527461 0.510238 107 81 77
0.519605 -0.528665 0.510100 112 70 58
0.522143 -0.530881 0.510135 105 63 51
0.524110 -0.531075 0.509821 140 95 82
0.526370 -0.532280 0.509680 207 162 149
0.528635 -0.533486 0.509539 201 182 176
0.517695 -0.527237 0.512193 105 80 73
0.520226 -0.529452 0.512234 113 71 59
0.522479 -0.530657 0.512097 105 63 51
0.524737 -0.531862 0.511959 138 93 80
0.527000 -0.533067 0.511821 207 162 149
0.528971 -0.533261 0.511506 200 181 175
0.518029 -0.527014 0.514148 106 84 76
0.520561 -0.529228 0.514194 113 73 60
0.522814 -0.530432 0.514060 105 65 52
0.525073 -0.531637 0.513924 142 95 82
0.527336 -0.532842 0.513788 208 161 148
0.529604 -0.534048 0.513651 200 181 175
0.518363 -0.526790 0.516102 108 86 78
0.520896 -0.529004 0.516154 114 72 60
0.523150 -0.530208 0.516022 106 64 52
0.525701 -0.532423 0.516070 140 93 80
0.527672 -0.532617 0.515756 204 157 144
0.529941 -0.533823 0.515621 201 182 176
0.518697 -0.526567 0.518057 102 82 74
0.521519 -0.529790 0.518298 113 71 59
0.523485 -0.529984 0.517984 105 63 51
0.526037 -0.532198 0.518038 135 89 73
0.528009 -0.532393 0.517723 200 154 138
0.530278 -0.533598 0.517591 200 179 174
0.519317 -0.527353 0.520199 104 82 74
0.521854 -0.529566 0.520260 114 72 60
0.523821 -0.529759 0.519946 104 62 50
0.526373 -0.531973 0.520005 133 84 72
0.528345 -0.532168 0.519690 207 158 146
0.530615 -0.533373 0.519561 200 179 174
0.519652 -0.527129 0.522156 108 83 76
0.521901 -0.528332 0.522033 115 72 63
0.524156 -0.529535 0.521909 105 62 53
0.526416 -0.530739 0.521784 137 88 76
0.528681 -0.531943 0.521658 205 156 144
0.530951 -0.533147 0.521531 200 179 174
0.519986 -0.526905 0.524114 108 83 76
0.522236 -0.528108 0.523993 115 72 63
0.524492 -0.529311 0.523871 103 60 51
0.526752 -0.530514 0.523748 136 85 71
0.529018 -0.531718 0.523625 207 156 142
0.530989 -0.531912 0.523310 202 180 172
0.520321 -0.526681 0.526071 110 85 78
0.522571 -0.527884 0.525952 114 72 60
0.524827 -0.529086 0.525833 104 62 50
0.526794 -0.529280 0.525519 130 82 67
0.529057 -0.530483 0.525399 207 159 144
0.531325 -0.531687 0.525278 202 177 170
0.520943 -0.527466 0.528226 108 83 76
0.522906 -0.527660 0.527912 114 72 60
0.525163 -0.528862 0.527795 104 62 50
0.527129 -0.529056 0.527481 129 78 62
0.529393 -0.530259 0.527364 204 153 137
0.531362 -0.530453 0.527049 202 177 170
0.521278 -0.527242 0.530185 107 84 79
0.523241 -0.527435 0.529872 113 73 60
0.525498 -0.528638 0.529758 101 61 48
0.527465 -0.528831 0.529444 128 77 61
0.529431 -0.529025 0.529130 203 152 136
0.531698 -0.530228 0.529014 202 177 168
0.521613 -0.527018 0.532145 104 81 76
0.523576 -0.527211 0.531832 113 73 60
0.525540 -0.527405 0.531518 105 65 52
0.527800 -0.528607 0.531406 126 78 61
0.529766 -0.528801 0.531092 197 149 132
0.532034 -0.530003 0.530979 200 178 168
0.521948 -0.526794 0.534105 102 81 76
0.523912 -0.526987 0.533791 113 73 60
0.526169 -0.528189 0.533682 106 66 53
0.528135 -0.528383 0.533368 126 78 61
0.530102 -0.528576 0.533054 196 148 131
0.532369 -0.529779 0.532944 202 180 172
0.522572 -0.527577 0.536273 103 82 77
0.524538 -0.527771 0.535959 110 73 59
0.526504 -0.527964 0.535645 105 68 54
0.528471 -0.528158 0.535331 119 71 54
0.530437 -0.528352 0.535016 194 146 129
0.532705 -0.529554 0.534908 196 174 166
0.522907 -0.527353 0.538235 99 78 73
0.524874 -0.527546 0.537921 111 74 60
0.526840 -0.527740 0.537607 107 70 56
0.528806 -0.527934 0.537293 120 72 55
0.531072 -0.529135 0.537188 191 143 126
0.533041 -0.529329 0.536873 192 170 160
0.523243 -0.527128 0.540197 103 82 79
0.525209 -0.527322 0.539883 112 74 63
0.527175 -0.527516 0.539569 107 69 58
0.529142 -0.527710 0.539255 119 71 54
0.531408 -0.528911 0.539152 186 138 121
0.533680 -0.530113 0.539049 198 176 166
0.523868 -0.527910 0.542375 108 85 82
0.525545 -0.527098 0.541845 111 73 62
0.527806 -0.528298 0.541746 105 67 56
0.529775 -0.528492 0.541432 117 69 52
0.532045 -0.529693 0.541331 183 135 118
0.534016 -0.529888 0.541016 198 176 166
0.524204 -0.527686 0.544340 105 79 77
0.526173 -0.527880 0.544025 114 73 63
0.528142 -0.528074 0.543711 105 64 54
0.530409 -0.529274 0.543613 116 68 51
0.532381 -0.529469 0.543299 185 137 120
0.534656 -0.530670 0.543200 199 177 167
0.524540 -0.527461 0.546305 106 83 78
0.526509 -0.527655 0.545990 114 73 63
0.528478 -0.527849 0.545676 105 64 54
0.530746 -0.529049 0.545581 113 65 48
0.532717 -0.529244 0.545266 176 128 111
0.534993 -0.530445 0.545170 197 175 165
0.524876 -0.527236 0.548269 107 84 79
0.526845 -0.527430 0.547955 114 73 63
0.528814 -0.527624 0.547641 105 64 54
0.531082 -0.528825 0.547548 115 67 50
0.533355 -0.530025 0.547455 165 117 100
0.535329 -0.530220 0.547140 196 174 164
0.525212 -0.527012 0.550234 103 80 75
0.527181 -0.527206 0.549920 114 73 63
0.529447 -0.528405 0.549830 107 66 56
0.531418 -0.528600 0.549515 115 67 50
0.533692 -0.529800 0.549425 171 123 106
0.535666 -0.529994 0.549110 199 175 163
0.525548 -0.526787 0.552199 105 82 77
0.527517 -0.526981 0.551885 116 75 65
0.529783 -0.528180 0.551798 107 66 56
0.531755 -0.528375 0.551483 115 67 50
0.534029 -0.529575 0.551395 172 124 107
0.536308 -0.530775 0.551306 200 176 164
0.526177 -0.527567 0.554395 103 82 77
0.528148 -0.527761 0.554080 114 73 63
0.530120 -0.527955 0.553765 106 65 55
0.532392 -0.529155 0.553680 115 67 50
0.534366 -0.529349 0.553365 165 117 100
0.536645 -0.530550 0.553278 202 176 165
0.526513 -0.527342 0.556362 105 84 79
0.528485 -0.527536 0.556047 113 72 62
0.530456 -0.527731 0.555732 107 66 56
0.532728 -0.528930 0.555650 115 64 48
0.534702 -0.529124 0.555334 166 115 99
0.536983 -0.530324 0.555251 202 173 163
0.526849 -0.527117 0.558329 108 85 80
0.528821 -0.527311 0.558015 109 71 60
0.531091 -0.528510 0.557935 108 70 59
0.533065 -0.528705 0.557620 120 67 52
0.535343 -0.529904 0.557539 176 123 108
0.537320 -0.530099 0.557223 202 173 163
0.527480 -0.527896 0.560535 105 82 77
0.529157 -0.527086 0.559982 110 73 59
0.531428 -0.528285 0.559905 107 70 56
0.533402 -0.528479 0.559590 123 67 51
0.535680 -0.529679 0.559511 180 124 108
0.537657 -0.529873 0.559195 203 174 162
0.527817 -0.527671 0.562505 101 80 75
0.529791 -0.527865 0.562190 112 75 61
0.531765 -0.528060 0.561875 105 68 54
0.533739 -0.528254 0.561559 121 65 49
0.536018 -0.529453 0.561484 179 123 107
0.537994 -0.529648 0.561168 203 174 162
0.528153 -0.527446 0.564475 105 86 80
0.530128 -0.527640 0.564160 116 75 65
0.532402 -0.528838 0.564087 107 66 56
0.534378 -0.529033 0.563772 120 67 50
0.536355 -0.529227 0.563456 170 117 100
0.538331 -0.529422 0.563140 203 172 161
0.528786 -0.528223 0.566691 102 83 77
0.530762 -0.528418 0.566375 114 73 63
0.532739 -0.528613 0.566060 107 66 56
0.534715 -0.528807 0.565744 123 70 53
0.536692 -0.529002 0.565428 177 124 107
0.538977 -0.530201 0.565357 202 173 161
0.529123 -0.527998 0.568663 105 86 80
0.531100 -0.528192 0.568348 113 73 60
0.533076 -0.528387 0.568032 107 67 54
0.535053 -0.528582 0.567716 123 70 53
0.537029 -0.528776 0.567401 176 123 106
0.539315 -0.529975 0.567332 203 172 163
0.529757 -0.528774 0.570887 107 88 82
0.531437 -0.527967 0.570320 110 72 61
0.533413 -0.528162 0.570005 105 67 56
0.535390 -0.528356 0.569689 122 69 54
0.537673 -0.529554 0.569623 179 126 111
0.539652 -0.529749 0.569307 202 172 165
0.530094 -0.528549 0.572862 105 86 80
0.531774 -0.527741 0.572293 113 73 60
0.533751 -0.527936 0.571977 106 66 53
0.535727 -0.528131 0.571661 129 76 61
0.538011 -0.529328 0.571598 185 132 117
0.539990 -0.529523 0.571282 201 174 166
0.530432 -0.528323 0.574837 104 84 76
0.532111 -0.527516 0.574265 113 71 59
0.534088 -0.527711 0.573949 100 58 46
0.536064 -0.527905 0.573634 128 77 61
0.538348 -0.529103 0.573573 184 133 117
0.540327 -0.529298 0.573257 200 175 166
0.530769 -0.528097 0.576812 102 82 74
0.532448 -0.527290 0.576238 113 71 59
0.534425 -0.527485 0.575922 100 58 46
0.536402 -0.527680 0.575606 127 76 60
0.538686 -0.528877 0.575548 191 140 124
0.540665 -0.529072 0.575232 197 175 167
0.531107 -0.527871 0.578787 105 83 75
0.532786 -0.527065 0.578210 115 70 57
0.534762 -0.527260 0.577894 104 59 46
0.536739 -0.527454 0.577579 125 77 60
0.539024 -0.528651 0.577523 201 153 136
0.541003 -0.528846 0.577207 197 175 167
0.531445 -0.527645 0.580762 106 81 74
0.533424 -0.527840 0.580446 115 70 57
0.535403 -0.528035 0.580130 105 60 47
0.537382 -0.528230 0.579814 129 83 67
0.539361 -0.528425 0.579498 201 155 139
0.529803 -0.527225 0.583053 115 88 82
0.531782 -0.527420 0.582737 107 80 74
0.533762 -0.527615 0.582421 115 70 57
0.535741 -0.527810 0.582105 107 62 49
0.537720 -0.528004 0.581789 137 93 77
0.539699 -0.528199 0.581473 201 157 141
0.530141 -0.526999 0.585028 114 87 81
0.532120 -0.527194 0.584712 106 79 73
0.534099 -0.527389 0.584396 115 68 55
0.536078 -0.527584 0.584080 109 62 49
0.538057 -0.527779 0.583764 139 97 83
0.540036 -0.527974 0.583448 207 165 151
0.530479 -0.526773 0.587003 111 84 78
0.532458 -0.526968 0.586687 104 77 71
0.534437 -0.527163 0.586371 113 64 52
0.536416 -0.527358 0.586055 109 60 48
0.538395 -0.527553 0.585739 156 114 100
0.540374 -0.527748 0.585423 212 170 156
0.530816 -0.526547 0.588978 111 81 76
0.532795 -0.526742 0.588662 104 74 69
0.534774 -0.526937 0.588346 111 60 46
0.536754 -0.527132 0.588030 115 64 50
0.538733 -0.527327 0.587714 167 127 114
0.540712 -0.527522 0.587398 213 173 160
0.531154 -0.526321 0.590953 109 77 71
0.533133 -0.526516 0.590637 103 71 65
0.535112 -0.526711 0.590321 109 61 46
0.537091 -0.526906 0.590005 120 72 57
0.539070 -0.527101 0.589689 173 135 124
0.541049 -0.527296 0.589373 209 171 160
0.529808 -0.526899 0.593524 108 93 92
0.531491 -0.526096 0.592928 109 74 69
0.533471 -0.526291 0.592612 105 70 65
0.535450 -0.526486 0.592296 108 60 45
0.537429 -0.526681 0.591980 133 85 70
0.539408 -0.526875 0.591664 196 160 150
0.530146 -0.526673 0.595501 107 91 88
0.532128 -0.526868 0.595185 110 72 63
0.533808 -0.526065 0.594587 108 70 61
0.535787 -0.526260 0.594271 106 60 44
0.538073 -0.527454 0.594236 150 104 88
0.539746 -0.526650 0.593639 200 171 161
0.528503 -0.526252 0.597795 123 104 100
0.530485 -0.526447 0.597479 98 79 75
0.532466 -0.526642 0.597162 115 70 59
0.534448 -0.526838 0.596846 110 65 54
0.536430 -0.527033 0.596529 114 68 52
0.538411 -0.527228 0.596213 178 132 116
0.540393 -0.527423 0.595897 195 173 165
0.528841 -0.526026 0.599773 117 91 87
0.530823 -0.526221 0.599456 101 75 71
0.532804 -0.526416 0.599140 116 67 55
0.534786 -0.526611 0.598824 109 60 48
0.536768 -0.526807 0.598507 130 86 70
0.538749 -0.527002 0.598191 199 155 139
0.527197 -0.525605 0.602067 127 112 111
0.529179 -0.525800 0.601750 118 83 78
0.531161 -0.525995 0.601434 107 72 67
0.533142 -0.526190 0.601117 117 66 52
0.535124 -0.526385 0.600801 113 62 48
0.537106 -0.526581 0.600485 159 119 104
0.539087 -0.526776 0.600168 208 168 153
0.527535 -0.525378 0.604044 119 96 95
0.529517 -0.525574 0.603728 121 78 71
0.531499 -0.525769 0.603411 113 70 63
0.533480 -0.525964 0.603095 114 61 46
0.535462 -0.526159 0.602779 135 82 67
0.537444 -0.526354 0.602462 184 150 140
0.526183 -0.525953 0.606635 131 100 98
0.527874 -0.525152 0.606022 106 75 73
0.529855 -0.525348 0.605705 120 68 57
0.531837 -0.525543 0.605389 115 63 52
0.533818 -0.525738 0.605073 117 69 54
0.535800 -0.525933 0.604756 172 124 109
0.537782 -0.526128 0.604440 193 171 161
0.524537 -0.525531 0.608932 135 116 114
0.526521 -0.525727 0.608615 126 85 77
0.528212 -0.524926 0.607999 119 78 70
0.530193 -0.525121 0.607683 121 68 53
0.532175 -0.525317 0.607367 116 63 48
0.534157 -0.525512 0.607050 142 100 86
0.536138 -0.525707 0.606734 199 157 143
0.522892 -0.525109 0.611229 141 111 106
0.524876 -0.525305 0.610912 119 89 84
0.526860 -0.525500 0.610595 128 76 65
0.528550 -0.524700 0.609977 124 72 61
0.530531 -0.524895 0.609661 118 65 50
0.532513 -0.525091 0.609344 140 87 72
0.534495 -0.525286 0.609028 181 150 141
0.521531 -0.525682 0.613831 138 117 116
0.523230 -0.524883 0.613209 132 91 83
0.525214 -0.525079 0.612892 119 78 70
0.527198 -0.525274 0.612575 129 73 59
0.529183 -0.525469 0.612258 124 68 54
0.530869 -0.524669 0.611638 128 82 66
0.532851 -0.524864 0.611322 174 128 112
0.534833 -0.525060 0.611005 192 173 167
0.519883 -0.525260 0.616131 146 111 106
0.521584 -0.524461 0.615506 121 86 81
0.523569 -0.524657 0.615189 130 76 66
0.525553 -0.524852 0.614872 128 74 64
0.527537 -0.525048 0.614555 123 70 55
0.529521 -0.525243 0.614238 133 80 65
0.531505 -0.525439 0.613921 167 133 123
0.533189 -0.524638 0.613299 203 169 159
0.518235 -0.524837 0.618431 134 111 110
0.520222 -0.525033 0.618113 130 80 73
0.522208 -0.525229 0.617796 126 76 69
0.523907 -0.524430 0.617169 136 78 64
0.525891 -0.524626 0.616852 130 72 58
0.527875 -0.524821 0.616535 130 83 70
0.529860 -0.525017 0.616218 175 128 115
0.531844 -0.525212 0.615901 189 170 164
0.514876 -0.525212 0.621362 139 124 123
0.516587 -0.524415 0.620731 139 102 97
0.518574 -0.524611 0.620413 129 92 87
0.520561 -0.524806 0.620096 130 74 62
0.522261 -0.524009 0.619466 132 76 64
0.524246 -0.524204 0.619149 126 73 60
0.526230 -0.524399 0.618832 133 80 67
0.528214 -0.524595 0.618515 169 138 127
0.513226 -0.524789 0.623665 144 116 115
0.515215 -0.524985 0.623348 123 95 94
0.517205 -0.525181 0.623030 127 75 66
0.518913 -0.524384 0.622396 132 80 71
0.520899 -0.524580 0.622079 129 73 61
0.522886 -0.524775 0.621761 129 73 61
0.524584 -0.523978 0.621129 134 92 80
0.526568 -0.524173 0.620812 178 136 124
0.511848 -0.525357 0.626288 133 110 109
0.513840 -0.525554 0.625970 134 84 77
0.515555 -0.524758 0.625333 129 79 72
0.517265 -0.523962 0.624696 137 79 65
0.519252 -0.524157 0.624378 134 76 62
0.521238 -0.524353 0.624061 132 85 72
0.523225 -0.524549 0.623744 158 111 98
0.524923 -0.523751 0.623109 176 154 146
0.508471 -0.525728 0.629236 138 116 118
0.510465 -0.525925 0.628918 136 90 86
0.512460 -0.526121 0.628599 126 80 76
0.514179 -0.525326 0.627958 139 76 64
0.515894 -0.524531 0.627318 140 77 65
0.517884 -0.524727 0.627000 132 76 62
0.519591 -0.523931 0.626361 139 83 69
0.521577 -0.524126 0.626044 162 131 120
0.523564 -0.524322 0.625727 188 157 146
0.504560 -0.524118 0.631536 146 126 129
0.506817 -0.525304 0.631545 148 106 105
0.508811 -0.525501 0.631226 127 85 84
0.510805 -0.525697 0.630908 139 79 68
0.512527 -0.524903 0.630264 139 79 68
0.514519 -0.525099 0.629946 137 77 62
0.516234 -0.524304 0.629303 133 73 58
0.518223 -0.524500 0.628985 140 98 86
0.519930 -0.523704 0.628344 180 138 126
0.502648 -0.522705 0.633512 149 114 111
0.504900 -0.523891 0.633524 134 99 96
0.506892 -0.524087 0.633206 140 79 71
0.508884 -0.524283 0.632888 134 73 65
0.510875 -0.524479 0.632570 135 75 60
0.512867 -0.524676 0.632252 135 75 60
0.514859 -0.524872 0.631933 137 88 76
0.516573 -0.524077 0.631288 160 111 99
0.518562 -0.524273 0.630970 179 154 145
0.499009 -0.522086 0.636132 151 118 117
0.500998 -0.522282 0.635815 131 98 97
0.502987 -0.522478 0.635497 139 82 75
0.505240 -0.523663 0.635512 136 79 72
0.507231 -0.523860 0.635193 141 76 65
0.509492 -0.525046 0.635207 138 73 62
0.511486 -0.525242 0.634888 132 81 67
0.513207 -0.524448 0.634239 152 101 87
0.515199 -0.524645 0.633921 173 142 131
0.495369 -0.521468 0.638753 156 128 127
0.497359 -0.521663 0.638435 141 113 112
0.499348 -0.521859 0.638118 139 87 78
0.501337 -0.522055 0.637800 135 83 74
0.503327 -0.522251 0.637482 143 78 67
0.505316 -0.522447 0.637164 142 77 66
0.507571 -0.523632 0.637181 134 76 62
0.509563 -0.523829 0.636863 145 87 73
0.511555 -0.524025 0.636545 157 123 111
0.513547 -0.524221 0.636227 189 155 143
0.493968 -0.522032 0.641395 141 115 115
0.495709 -0.521241 0.640738 141 95 89
0.497698 -0.521437 0.640420 131 85 79
0.499687 -0.521632 0.640103 141 81 66
0.501677 -0.521828 0.639785 142 82 67
0.503666 -0.522024 0.639467 135 75 60
0.505655 -0.522220 0.639150 139 79 64
0.507645 -0.522416 0.638832 148 107 97
0.509903 -0.523601 0.638851 184 143 133
0.490568 -0.522398 0.644362 146 122 124
0.492316 -0.521608 0.643701 146 98 94
0.494308 -0.521805 0.643383 133 85 81
0.496048 -0.521014 0.642723 137 79 63
0.498037 -0.521210 0.642406 139 81 65
0.500027 -0.521405 0.642088 140 80 65
0.502016 -0.521601 0.641770 138 78 63
0.504005 -0.521797 0.641452 140 95 84
0.505995 -0.521993 0.641135 172 127 116
0.487159 -0.522764 0.647336 140 118 120
0.489156 -0.522960 0.647017 147 99 95
0.490909 -0.522171 0.646353 131 83 79
0.492903 -0.522367 0.646034 139 76 64
0.494648 -0.521577 0.645371 141 78 66
0.496388 -0.520787 0.644708 134 74 59
0.498631 -0.521970 0.644735 134 74 59
0.500366 -0.521179 0.644073 139 92 79
0.502355 -0.521375 0.643755 168 121 108
0.504345 -0.521571 0.643438 176 155 150
0.485740 -0.523324 0.649997 151 109 106
0.487500 -0.522536 0.649329 131 89 86
0.489497 -0.522733 0.649010 141 78 68
0.491494 -0.522929 0.648691 142 79 69
0.493243 -0.522140 0.648024 140 77 63
0.494988 -0.521350 0.647359 134 71 57
0.496979 -0.521546 0.647040 132 83 71
0.498971 -0.521742 0.646722 158 109 97
0.500963 -0.521939 0.646404 173 148 141
0.482315 -0.523686 0.652984 150 114 114
0.484082 -0.522899 0.652312 130 94 94
0.485844 -0.522111 0.651641 137 78 69
0.487841 -0.522308 0.651322 136 77 68
0.489837 -0.522505 0.651003 139 76 62
0.491834 -0.522701 0.650684 137 74 60
0.493583 -0.521912 0.650015 131 80 66
0.495578 -0.522109 0.649696 150 99 85
0.497319 -0.521319 0.649028 169 140 130
0.480654 -0.523261 0.655301 136 108 107
0.482423 -0.522474 0.654626 139 85 77
0.484187 -0.521687 0.653952 132 78 70
0.486184 -0.521883 0.653633 140 80 65
0.487940 -0.521095 0.652960 137 77 62
0.489935 -0.521292 0.652642 134 78 64
0.491929 -0.521488 0.652323 150 94 80
0.494172 -0.522670 0.652358 167 136 125
0.495918 -0.521881 0.651686 185 154 143
0.476992 -0.522638 0.657939 139 115 117
0.478994 -0.522835 0.657619 140 90 85
0.480765 -0.522049 0.656941 132 82 77
0.482531 -0.521262 0.656264 141 78 64
0.484528 -0.521459 0.655945 137 74 60
0.486286 -0.520671 0.655269 134 76 60
0.488281 -0.520868 0.654951 147 89 73
0.490275 -0.521064 0.654632 159 123 111
0.492270 -0.521261 0.654314 186 150 138
0.475108 -0.521230 0.659894 148 106 103
0.477107 -0.521427 0.659575 130 88 85
0.479107 -0.521624 0.659256 140 77 65
0.480875 -0.520838 0.658576 141 78 66
0.482638 -0.520051 0.657896 134 74 59
0.484632 -0.520247 0.657578 139 79 64
0.486388 -0.519460 0.656900 149 107 93
0.488379 -0.519656 0.656582 185 143 129
0.471669 -0.521590 0.662894 148 115 114
0.473671 -0.521787 0.662574 137 104 103
0.475449 -0.521002 0.661890 143 84 75
0.477222 -0.520216 0.661206 137 78 69
0.479218 -0.520413 0.660887 141 78 64
0.481215 -0.520610 0.660568 139 76 62
0.482978 -0.519823 0.659887 139 91 76
0.484736 -0.519037 0.659206 167 119 104
0.486727 -0.519233 0.658887 178 156 148
0.470008 -0.521164 0.665211 135 109 109
0.472010 -0.521361 0.664891 144 94 87
0.473790 -0.520577 0.664204 133 83 76
0.475565 -0.519792 0.663518 141 78 64
0.477562 -0.519989 0.663199 137 74 60
0.479559 -0.520185 0.662880 135 79 67
0.481324 -0.519399 0.662195 155 99 87
0.483083 -0.518613 0.661511 175 144 135
0.466134 -0.519561 0.667477 138 122 119
0.468133 -0.519758 0.667158 143 99 97
0.470133 -0.519955 0.666838 127 83 81
0.472132 -0.520152 0.666519 141 78 66
0.473909 -0.519367 0.665830 142 79 67
0.475906 -0.519564 0.665511 137 79 65
0.477675 -0.518779 0.664822 140 82 68
0.479670 -0.518975 0.664504 152 116 104
0.481664 -0.519172 0.664186 192 156 144
0.464475 -0.519136 0.669791 151 114 111
0.466262 -0.518353 0.669098 134 97 94
0.468259 -0.518549 0.668779 138 80 68
0.470256 -0.518746 0.668460 138 80 68
0.472253 -0.518943 0.668141 139 76 62
0.474250 -0.519139 0.667822 141 78 64
0.476021 -0.518355 0.667131 138 91 78
0.478016 -0.518551 0.666813 177 130 117
0.462817 -0.518711 0.672106 137 109 106
0.464816 -0.518908 0.671787 145 88 79
0.466816 -0.519105 0.671467 137 80 71
0.468600 -0.518322 0.670772 144 79 66
0.470596 -0.518518 0.670453 141 76 63
0.472593 -0.518715 0.670134 135 82 67
0.474590 -0.518912 0.669815 156 103 88
0.476361 -0.518127 0.669122 173 146 138
0.459159 -0.518089 0.674740 145 122 121
0.461158 -0.518286 0.674421 147 101 93
0.462949 -0.517504 0.673721 129 83 75
0.464946 -0.517700 0.673402 145 78 61
0.466943 -0.517897 0.673083 145 78 61
0.468940 -0.518094 0.672765 137 77 62
0.470937 -0.518290 0.672446 148 88 73
0.472934 -0.518487 0.672127 164 126 115
0.474931 -0.518684 0.671808 194 156 145
0.457501 -0.517663 0.677055 145 103 100
0.459296 -0.516882 0.676352 130 88 85
0.461293 -0.517079 0.676033 134 74 59
0.463290 -0.517276 0.675714 137 77 62
0.465287 -0.517472 0.675395 136 74 55
0.467284 -0.517669 0.675076 140 78 59
0.469281 -0.517866 0.674757 145 103 91
0.471278 -0.518063 0.674438 180 138 126
0.454039 -0.518018 0.680076 148 112 112
0.455842 -0.517238 0.679369 128 92 92
0.457640 -0.516458 0.678663 127 70 61
0.459637 -0.516654 0.678345 132 75 66
0.461634 -0.516851 0.678026 137 74 60
0.463421 -0.516070 0.677322 139 76 62
0.465416 -0.516266 0.677003 142 91 77
0.467410 -0.516463 0.676685 168 117 103
0.469405 -0.516659 0.676366 178 153 146
0.452379 -0.517593 0.682393 144 116 113
0.454381 -0.517790 0.682074 145 92 86
0.455984 -0.516033 0.680975 132 79 73
0.457981 -0.516230 0.680656 137 77 64
0.459978 -0.516427 0.680337 134 74 61
0.461767 -0.515646 0.679630 136 80 66
0.463552 -0.514864 0.678924 156 100 86
0.465544 -0.515060 0.678606 174 143 132
0.467535 -0.515256 0.678288 190 159 148
0.448906 -0.517946 0.685424 140 119 118
0.450911 -0.518143 0.685104 145 97 91
0.452720 -0.517364 0.684391 131 83 77
0.454722 -0.517562 0.684072 137 74 62
0.456324 -0.515805 0.682968 135 72 60
0.458321 -0.516002 0.682649 131 73 59
0.460318 -0.516199 0.682330 144 86 72
0.462107 -0.515418 0.681621 165 128 114
0.463892 -0.514637 0.680912 188 151 137
0.447244 -0.517520 0.687745 145 107 100
0.449248 -0.517717 0.687425 131 93 86
0.451253 -0.517914 0.687104 139 79 66
0.453062 -0.517136 0.686389 138 78 65
0.455064 -0.517333 0.686069 137 78 60
0.456665 -0.515578 0.684961 141 82 64
0.458662 -0.515774 0.684642 154 109 96
0.460659 -0.515971 0.684323 182 137 124
0.445581 -0.517093 0.690065 133 98 95
0.447586 -0.517291 0.689745 135 79 67
0.449590 -0.517488 0.689425 135 79 67
0.451595 -0.517686 0.689105 137 75 58
0.453403 -0.516908 0.688387 134 72 55
0.455406 -0.517105 0.688067 135 84 68
0.457207 -0.516326 0.687351 171 120 104
0.459003 -0.515546 0.686635 180 155 146
0.441914 -0.516470 0.692706 139 107 103
0.443918 -0.516667 0.692386 136 84 73
0.445923 -0.516865 0.692066 129 77 66
0.447928 -0.517062 0.691746 140 78 61
0.449932 -0.517260 0.691425 135 73 56
0.451937 -0.517457 0.691105 130 74 60
0.453745 -0.516679 0.690385 159 103 89
0.455747 -0.516876 0.690065 173 142 133
0.457548 -0.516098 0.689346 187 156 147
0.440251 -0.516044 0.695026 145 97 91
0.442256 -0.516241 0.694706 126 78 72
0.444260 -0.516438 0.694386 132 72 57
0.446265 -0.516636 0.694066 134 74 59
0.448270 -0.516833 0.693746 132 72 57
0.450274 -0.517031 0.693426 142 82 67
0.452279 -0.517228 0.693106 160 119 109
0.454087 -0.516451 0.692383 190 149 139
0.436584 -0.515420 0.697667 135 96 92
0.438589 -0.515617 0.697347 128 89 85
0.440593 -0.515815 0.697027 133 73 60
0.442598 -0.516012 0.696707 132 72 59
0.444602 -0.516210 0.696387 135 75 60
0.446607 -0.516407 0.696066 135 75 60
0.448611 -0.516605 0.695746 145 98 85
0.450616 -0.516802 0.695426 189 142 129
0.452621 -0.517000 0.695106 182 159 154
0.434921 -0.514994 0.699988 122 96 92
0.436926 -0.515191 0.699667 126 72 62
0.438931 -0.515389 0.699347 129 75 65
0.440935 -0.515586 0.699027 133 70 56
0.442940 -0.515784 0.698707 129 66 52
0.444944 -0.515981 0.698387 138 87 71
0.446949 -0.516179 0.698067 169 118 102
0.448954 -0.516376 0.697747 181 152 142
0.431254 -0.514370 0.702628 132 113 111
0.433259 -0.514568 0.702308 133 90 83
0.435263 -0.514765 0.701988 115 72 65
0.437268 -0.514963 0.701668 135 71 55
0.439273 -0.515160 0.701348 133 69 53
0.441277 -0.515358 0.701028 131 73 57
0.443282 -0.515555 0.700707 148 90 74
0.445286 -0.515752 0.700387 176 140 128
0.447291 -0.515950 0.700067 192 156 144
0.429592 -0.513944 0.704949 138 106 100
0.431596 -0.514141 0.704629 124 92 86
0.433601 -0.514339 0.704309 134 76 62
0.435605 -0.514536 0.703988 131 73 59
0.437610 -0.514734 0.703668 129 67 50
0.439615 -0.514931 0.703348 136 74 57
0.441619 -0.515129 0.703028 153 106 93
0.443624 -0.515326 0.702708 190 143 130
0.427929 -0.513518 0.707269 128 100 97
0.429934 -0.513715 0.706949 130 76 66
0.431938 -0.513913 0.706629 127 73 63
0.434114 -0.515081 0.706729 134 70 54
0.436121 -0.515279 0.706408 133 69 53
0.438128 -0.515476 0.706088 135 82 67
0.440135 -0.515674 0.705767 174 121 106
0.442142 -0.515872 0.705447 182 155 147
0.424262 -0.512894 0.709910 133 111 113
0.426266 -0.513092 0.709590 136 90 84
0.428271 -0.513289 0.709270 128 82 76
0.430276 -0.513487 0.708950 134 74 61
0.432449 -0.514654 0.709052 127 67 54
0.434456 -0.514852 0.708732 127 67 54
0.436463 -0.515050 0.708411 147 87 74
0.438647 -0.516219 0.708513 159 123 113
0.440656 -0.516417 0.708192 189 153 143
0.420748 -0.513239 0.712979 138 121 123
0.422599 -0.512468 0.712230 141 104 101
0.424604 -0.512666 0.711910 124 87 84
0.426770 -0.513832 0.712017 133 75 61
0.428777 -0.514030 0.711696 133 75 61
0.430951 -0.515197 0.711802 131 71 56
0.432961 -0.515395 0.711481 128 68 53
0.434970 -0.515593 0.711160 152 105 92
0.436980 -0.515791 0.710839 193 146 133
0.419236 -0.513780 0.715733 144 113 113
0.421245 -0.513978 0.715412 126 95 95
0.423255 -0.514176 0.715091 137 83 75
0.425265 -0.514374 0.714770 130 76 68
0.427274 -0.514572 0.714449 135 73 56
0.429284 -0.514770 0.714128 133 71 54
0.431294 -0.514968 0.713807 134 83 67
0.433303 -0.515166 0.713486 170 119 103
0.435485 -0.516334 0.713593 186 160 149
0.417569 -0.513353 0.718059 131 108 107
0.419578 -0.513551 0.717739 132 84 78
0.421588 -0.513749 0.717417 124 76 70
0.423598 -0.513947 0.717097 140 75 62
0.425607 -0.514145 0.716776 138 73 60
0.427617 -0.514343 0.716455 131 74 55
0.429792 -0.515510 0.716565 143 86 67
0.431804 -0.515708 0.716244 172 136 124
0.433816 -0.515906 0.715922 200 164 152
0.414182 -0.514661 0.721581 142 122 123
0.416049 -0.513893 0.720823 140 98 95
0.418062 -0.514091 0.720501 124 82 79
0.420074 -0.514289 0.720180 135 75 62
0.422086 -0.514487 0.719859 137 77 64
0.424098 -0.514686 0.719537 134 71 57
0.426111 -0.514884 0.719216 134 71 57
0.428123 -0.515082 0.718895 149 107 93
0.430301 -0.516249 0.719007 186 144 130
0.410637 -0.515000 0.724676 141 129 127
0.412511 -0.514233 0.723914 143 108 105
0.414526 -0.514431 0.723592 127 92 89
0.416541 -0.514630 0.723270 132 76 64
0.418556 -0.514828 0.722948 135 79 67
0.420570 -0.515027 0.722627 136 73 59
0.422585 -0.515225 0.722305 136 73 59
0.424600 -0.515424 0.721983 134 83 69
0.426615 -0.515622 0.721661 166 115 101
0.428629 -0.515821 0.721340 185 160 151
0.408964 -0.514571 0.727011 139 111 108
0.410981 -0.514770 0.726689 129 101 98
0.412855 -0.514003 0.725924 133 79 69
0.414870 -0.514201 0.725602 132 78 68
0.416884 -0.514400 0.725281 139 76 62
0.418899 -0.514598 0.724959 136 73 59
0.420914 -0.514797 0.724637 130 74 60
0.422929 -0.514995 0.724315 146 90 76
0.425102 -0.516161 0.724434 170 139 128
0.407290 -0.514142 0.729346 135 112 109
0.409308 -0.514341 0.729024 140 88 79
0.411325 -0.514540 0.728702 129 77 68
0.413199 -0.513773 0.727935 138 74 58
0.415213 -0.513972 0.727613 140 76 60
0.417228 -0.514170 0.727291 131 73 57
0.419394 -0.515335 0.727414 139 81 65
0.421412 -0.515534 0.727091 160 120 107
0.423429 -0.515732 0.726769 189 149 136
0.403600 -0.513515 0.732004 132 111 110
0.405617 -0.513714 0.731682 142 96 90
0.407635 -0.513912 0.731360 127 81 75
0.409652 -0.514111 0.731037 139 72 57
0.411669 -0.514310 0.730715 142 75 60
0.413542 -0.513543 0.729945 136 72 54
0.415557 -0.513742 0.729624 136 72 54
0.417721 -0.514906 0.729749 144 100 84
0.419739 -0.515105 0.729427 183 139 123
0.401927 -0.513086 0.734339 142 103 99
0.403944 -0.513285 0.734017 124 85 81
0.405961 -0.513483 0.733695 136 73 61
0.407979 -0.513682 0.733373 130 67 55
0.409996 -0.513881 0.733050 137 70 53
0.412013 -0.514080 0.732728 136 69 52
0.414031 -0.514278 0.732406 136 85 67
0.416048 -0.514477 0.732084 168 117 99
0.418065 -0.514676 0.731762 181 157 145
0.398236 -0.512458 0.736997 145 113 109
0.400254 -0.512657 0.736674 134 102 98
0.402271 -0.512856 0.736352 137 78 69
0.404288 -0.513055 0.736030 131 72 63
0.406306 -0.513253 0.735708 137 73 57
0.408323 -0.513452 0.735386 135 71 55
0.410340 -0.513651 0.735064 135 79 63
0.412358 -0.513849 0.734741 160 104 88
0.414375 -0.514048 0.734419 175 146 134
0.396563 -0.512030 0.739332 132 104 101
0.398580 -0.512228 0.739010 133 81 72
0.400598 -0.512427 0.738688 125 73 64
0.402615 -0.512626 0.738365 135 70 57
0.404632 -0.512824 0.738043 134 69 56
0.406650 -0.513023 0.737721 130 70 55
0.408667 -0.513222 0.737399 148 88 73
0.410684 -0.513421 0.737077 167 131 119
0.412702 -0.513619 0.736755 189 153 141
0.392873 -0.511402 0.741989 138 119 117
0.394890 -0.511601 0.741667 132 91 83
0.396907 -0.511799 0.741345 124 83 75
0.398925 -0.511998 0.741023 137 74 60
0.400942 -0.512197 0.740701 137 74 60
0.403090 -0.513358 0.740839 132 69 55
0.405110 -0.513557 0.740516 140 77 63
0.407265 -0.514719 0.740653 159 114 101
0.409150 -0.513955 0.739871 193 148 135
0.391199 -0.510973 0.744325 134 104 99
0.393217 -0.511172 0.744002 124 94 89
0.395234 -0.511371 0.743680 132 74 60
0.397251 -0.511569 0.743358 133 75 61
0.399269 -0.511768 0.743036 132 70 53
0.401415 -0.512929 0.743177 132 70 53
0.403566 -0.514090 0.743317 138 90 75
0.405588 -0.514289 0.742995 174 126 111
0.387509 -0.510346 0.746982 143 117 115
0.389526 -0.510544 0.746660 124 98 96
0.391544 -0.510743 0.746338 124 77 66
0.393561 -0.510942 0.746015 125 78 67
0.395700 -0.512101 0.746160 136 74 55
0.397720 -0.512300 0.745838 130 68 49
0.399739 -0.512499 0.745515 132 76 60
0.401888 -0.513660 0.745659 164 108 92
0.403911 -0.513859 0.745336 180 149 136
0.385836 -0.509917 0.749317 131 111 112
0.387853 -0.510115 0.748995 132 91 83
0.389985 -0.511274 0.749144 118 77 69
0.392004 -0.511473 0.748821 134 71 57
0.394024 -0.511672 0.748499 134 71 57
0.396166 -0.512832 0.748646 131 72 54
0.398188 -0.513031 0.748323 141 82 64
0.400211 -0.513230 0.748000 164 127 113
0.402233 -0.513429 0.747677 187 150 136
0.384163 -0.509488 0.751652 135 100 97
0.386289 -0.510646 0.751805 111 76 73
0.388309 -0.510845 0.751482 131 73 59
0.390329 -0.511044 0.751159 132 74 60
0.392466 -0.512202 0.751310 132 70 53
0.394489 -0.512402 0.750987 134 72 55
0.396511 -0.512601 0.750664 148 100 85
0.398533 -0.512800 0.750341 181 133 118
0.380574 -0.509818 0.754788 138 110 109
0.382594 -0.510017 0.754465 117 89 88
0.384614 -0.510216 0.754143 127 75 66
0.386634 -0.510415 0.753820 126 74 65
0.388766 -0.511573 0.753974 134 72 55
0.390789 -0.511773 0.753651 134 72 55
0.392811 -0.511972 0.753328 136 80 66
0.394834 -0.512171 0.753005 164 108 94
0.396856 -0.512370 0.752682 180 149 140
0.378799 -0.508431 0.756645 129 107 109
0.380816 -0.508630 0.756323 124 76 72
0.382834 -0.508829 0.756001 119 71 67
0.384959 -0.509986 0.756158 134 71 57
0.387089 -0.511143 0.756315 133 70 56
0.389111 -0.511343 0.755992 130 70 55
0.391134 -0.511542 0.755669 148 88 73
0.393156 -0.511741 0.755346 167 127 114
0.375204 -0.508760 0.759787 133 113 114
0.377126 -0.508002 0.758980 126 87 85
0.379143 -0.508201 0.758658 115 76 74
0.381160 -0.508400 0.758336 134 71 59
0.383178 -0.508599 0.758014 134 71 59
0.385303 -0.509755 0.758174 130 68 51
0.387434 -0.510913 0.758333 136 74 57
0.389456 -0.511112 0.758010 157 113 97
0.391479 -0.511311 0.757687 190 146 130
0.373622 -0.509287 0.762612 132 100 96
0.375549 -0.508530 0.761803 113 81 77
0.377568 -0.508729 0.761480 130 73 64
0.379487 -0.507971 0.760671 130 73 64
0.381608 -0.509127 0.760835 132 70 53
0.383628 -0.509326 0.760512 128 66 49
0.385757 -0.510483 0.760675 135 84 66
0.387779 -0.510682 0.760352 173 122 104
0.369922 -0.508658 0.765277 144 113 111
0.371945 -0.508857 0.764954 127 96 94
0.373967 -0.509057 0.764631 126 74 63
0.375893 -0.508300 0.763818 127 75 64
0.377913 -0.508499 0.763496 135 73 56
0.379831 -0.507741 0.762685 129 67 50
0.381953 -0.508896 0.762851 129 73 57
0.384079 -0.510053 0.763016 153 97 81
0.386102 -0.510252 0.762693 179 145 133
0.368245 -0.508228 0.767618 128 105 102
0.370267 -0.508427 0.767295 129 81 73
0.372290 -0.508627 0.766972 124 76 68
0.374312 -0.508826 0.766649 136 74 57
0.376238 -0.508069 0.765834 134 72 55
0.378258 -0.508268 0.765511 126 66 51
0.380278 -0.508467 0.765189 142 82 67
0.382402 -0.509623 0.765357 166 126 113
0.384424 -0.509822 0.765034 188 148 135
0.364545 -0.507599 0.770282 132 113 111
0.366568 -0.507798 0.769959 133 90 85
0.368590 -0.507997 0.769636 117 74 69
0.370612 -0.508197 0.769313 133 70 58
0.372635 -0.508396 0.768990 134 71 59
0.374657 -0.508595 0.768667 129 67 50
0.376680 -0.508794 0.768344 140 78 61
0.378702 -0.508994 0.768021 148 103 90
0.380724 -0.509193 0.767698 186 141 128
0.362868 -0.507169 0.772623 134 99 96
0.364890 -0.507368 0.772300 119 84 81
0.366913 -0.507567 0.771977 127 67 56
0.368935 -0.507767 0.771654 131 71 60
0.370957 -0.507966 0.771331 133 68 55
0.372980 -0.508165 0.771008 130 65 52
0.375002 -0.508364 0.770685 140 89 73
0.377025 -0.508564 0.770362 173 122 106
0.379047 -0.508763 0.770039 180 156 144
0.359168 -0.506540 0.775287 140 107 106
0.361190 -0.506739 0.774964 125 92 91
0.363213 -0.506938 0.774641 129 75 67
0.365235 -0.507138 0.774318 125 71 63
0.367258 -0.507337 0.773995 133 68 55
0.369280 -0.507536 0.773672 128 63 50
0.371302 -0.507735 0.773349 133 75 61
0.373325 -0.507934 0.773026 155 97 83
0.375252 -0.507179 0.772203 173 142 129
0.357491 -0.506110 0.777628 130 102 101
0.359513 -0.506309 0.777305 136 87 77
0.361535 -0.506508 0.776982 126 77 67
0.363558 -0.506708 0.776659 137 75 58
0.365580 -0.506907 0.776336 134 72 55
0.367603 -0.507106 0.776013 127 67 52
0.369625 -0.507305 0.775690 146 86 71
0.371647 -0.507504 0.775367 166 126 113
0.373576 -0.506749 0.774542 192 152 139
0.353859 -0.506432 0.780802 138 115 114
0.355813 -0.505680 0.779969 138 95 88
0.357836 -0.505879 0.779647 121 78 71
0.359858 -0.506078 0.779324 136 74 55
0.361880 -0.506278 0.779001 135 73 54
0.363903 -0.506477 0.778678 130 68 49
0.365925 -0.506676 0.778355 140 78 59
0.367948 -0.506875 0.778032 156 111 98
0.369881 -0.506121 0.777202 184 139 126
0.352180 -0.506002 0.783146 140 101 97
0.354205 -0.506201 0.782823 123 84 80
0.356158 -0.505449 0.781988 135 75 60
0.358181 -0.505648 0.781665 134 74 59
0.360203 -0.505848 0.781342 134 70 52
0.362225 -0.506047 0.781019 131 67 49
0.364248 -0.506246 0.780696 140 89 73
0.366186 -0.505493 0.779863 174 123 107
0.368206 -0.505692 0.779541 179 154 145
0.348475 -0.505372 0.785814 141 110 108
0.350500 -0.505571 0.785490 126 95 93
0.352525 -0.505771 0.785167 132 78 68
0.354550 -0.505970 0.784843 129 75 65
0.356503 -0.505218 0.784006 137 73 55
0.358526 -0.505418 0.783683 135 71 53
0.360548 -0.505617 0.783360 134 78 62
0.362570 -0.505816 0.783037 159 103 87
0.364511 -0.505063 0.782201 178 144 132
0.346796 -0.504941 0.788158 132 109 108
0.348821 -0.505141 0.787834 130 82 76
0.350846 -0.505340 0.787511 123 75 69
0.352871 -0.505540 0.787188 133 69 53
0.354826 -0.504789 0.786347 135 71 55
0.356848 -0.504988 0.786024 132 70 53
0.358871 -0.505187 0.785701 142 80 63
0.360893 -0.505386 0.785378 168 126 112
0.362915 -0.505585 0.785055 193 151 137
0.343091 -0.504311 0.790825 130 115 114
0.345116 -0.504511 0.790502 132 91 85
0.347141 -0.504710 0.790178 119 78 72
0.349166 -0.504910 0.789855 134 71 57
0.351191 -0.505109 0.789532 134 71 57
0.353216 -0.505309 0.789208 128 64 48
0.355171 -0.504558 0.788365 140 76 60
0.357193 -0.504757 0.788042 157 111 95
0.359216 -0.504956 0.787719 186 140 124
0.341464 -0.504829 0.793694 129 106 101
0.343437 -0.504080 0.792846 112 89 84
0.345462 -0.504280 0.792523 130 73 64
0.347487 -0.504479 0.792199 130 73 64
0.349512 -0.504679 0.791876 133 69 53
0.351537 -0.504878 0.791552 133 69 53
0.353561 -0.505078 0.791229 149 96 79
0.355586 -0.505277 0.790906 181 128 111
0.357538 -0.504526 0.790060 182 153 143
0.341810 -0.504598 0.795718 106 79 71
0.343782 -0.503849 0.794867 106 79 71
0.345807 -0.504049 0.794543 131 75 61
0.347832 -0.504248 0.794220 124 68 54
0.349857 -0.504448 0.793897 137 79 63
0.351882 -0.504647 0.793573 162 104 88
0.353907 -0.504847 0.793250 183 149 139
0.342156 -0.504366 0.797741 119 97 87
0.344184 -0.504566 0.797417 100 78 68
0.346211 -0.504766 0.797093 117 72 61
0.348239 -0.504965 0.796770 130 85 74
0.350266 -0.505165 0.796446 167 125 113
0.352294 -0.505365 0.796122 192 150 138
0.344530 -0.504335 0.799440 147 136 129
0.346557 -0.504534 0.799117 136 110 99
0.348585 -0.504734 0.798793 171 145 134
