ply
format ascii 1.0
element vertex 1600
property float x
property float y
property float z
property uchar red
property uchar green
property uchar blue
end_header
0.251853 0.395938 0.603306 62 71 12
0.250115 0.395980 0.603014 69 78 19
0.248480 0.396991 0.603013 80 115 61
0.246740 0.397033 0.602720 51 86 32
0.245000 0.397074 0.602427 31 62 20
0.253305 0.395188 0.605189 141 130 55
0.251568 0.395229 0.604897 71 88 29
0.249934 0.396240 0.604898 144 161 102
0.248195 0.396281 0.604605 149 196 122
0.246455 0.396323 0.604313 135 182 108
0.244715 0.396364 0.604020 94 140 71
0.243069 0.397375 0.604019 38 84 15
0.241327 0.397417 0.603726 30 61 19
0.253129 0.395447 0.607077 100 93 31
0.251389 0.395489 0.606784 106 133 71
0.249649 0.395530 0.606491 180 207 145
0.248010 0.396540 0.606494 171 222 138
0.246268 0.396581 0.606201 167 218 134
0.244526 0.396623 0.605907 137 191 104
0.242783 0.396664 0.605614 119 173 86
0.241041 0.396706 0.605321 81 127 58
0.239299 0.396747 0.605027 40 86 17
0.237557 0.396789 0.604734 27 59 20
0.251315 0.396713 0.608975 67 92 44
0.249570 0.396754 0.608681 146 171 123
0.247825 0.396796 0.608387 172 221 137
0.246080 0.396837 0.608094 180 229 145
0.244335 0.396879 0.607800 174 230 131
0.242590 0.396920 0.607506 161 217 118
0.240756 0.395995 0.606916 142 199 106
0.239013 0.396036 0.606623 117 174 81
0.237271 0.396078 0.606329 77 128 58
0.233866 0.397128 0.606037 28 63 25
0.249591 0.398940 0.611181 57 75 42
0.247739 0.398016 0.610586 81 121 63
0.245989 0.398058 0.610291 146 186 128
0.244239 0.398099 0.609997 168 223 129
0.242397 0.397175 0.609403 171 226 132
0.240649 0.397216 0.609109 167 226 121
0.238815 0.396292 0.608516 168 227 122
0.237070 0.396333 0.608222 146 203 108
0.235325 0.396375 0.607929 122 179 84
0.233580 0.396416 0.607635 84 135 69
0.231912 0.397425 0.607638 46 97 31
0.230165 0.397466 0.607344 24 63 26
0.245895 0.399274 0.612498 49 74 39
0.244140 0.399315 0.612203 86 132 67
0.242294 0.398392 0.611606 141 187 122
0.240541 0.398434 0.611311 171 226 132
0.238702 0.397510 0.610715 181 236 142
0.236868 0.396587 0.610120 176 238 134
0.235121 0.396628 0.609826 156 218 114
0.233373 0.396670 0.609532 131 191 97
0.231626 0.396711 0.609238 115 175 81
0.229879 0.396753 0.608943 86 139 70
0.228202 0.397760 0.608947 38 91 22
0.226453 0.397802 0.608653 24 64 24
0.243947 0.399563 0.614114 39 67 31
0.242189 0.399605 0.613818 46 74 38
0.240343 0.398683 0.613219 90 137 65
0.238588 0.398725 0.612923 137 184 112
0.236749 0.397802 0.612325 172 232 136
0.234996 0.397844 0.612030 179 239 143
0.233244 0.397886 0.611735 171 234 134
0.231492 0.397927 0.611440 146 209 109
0.229739 0.397969 0.611145 134 196 101
0.227987 0.398011 0.610850 112 174 79
0.226234 0.398053 0.610555 82 134 59
0.224482 0.398094 0.610260 41 93 18
0.222792 0.399101 0.610264 33 68 28
0.240232 0.399893 0.615437 43 71 35
0.238471 0.399935 0.615141 50 78 42
0.236628 0.399014 0.614540 80 126 57
0.234871 0.399055 0.614244 142 188 119
0.233035 0.398134 0.613644 164 224 130
0.231280 0.398176 0.613348 179 239 145
0.229525 0.398218 0.613053 175 238 138
0.227770 0.398259 0.612757 163 226 126
0.226015 0.398301 0.612462 143 205 110
0.224260 0.398343 0.612166 123 185 90
0.222505 0.398385 0.611871 101 153 78
0.220810 0.399390 0.611877 53 105 30
0.219052 0.399432 0.611581 35 71 26
0.236506 0.400221 0.616763 39 68 34
0.234743 0.400263 0.616467 48 77 43
0.232903 0.399343 0.615863 73 117 49
0.231142 0.399384 0.615567 128 172 104
0.229382 0.399426 0.615271 167 224 129
0.227622 0.399468 0.614974 178 235 140
0.225862 0.399510 0.614678 170 231 130
0.224102 0.399552 0.614382 162 223 122
0.222279 0.398631 0.613782 149 210 111
0.220522 0.398673 0.613486 128 189 90
0.218821 0.399678 0.613493 104 159 80
0.217061 0.399720 0.613196 64 119 40
0.215301 0.399762 0.612900 36 78 26
0.232768 0.400547 0.618093 46 73 42
0.231003 0.400589 0.617795 51 78 47
0.229238 0.400631 0.617498 70 111 48
0.227403 0.399712 0.616893 130 171 108
0.225640 0.399754 0.616597 160 216 119
0.223878 0.399796 0.616300 175 231 134
0.222115 0.399838 0.616003 170 232 126
0.220293 0.398918 0.615401 156 218 112
0.218533 0.398960 0.615104 143 206 104
0.216827 0.399964 0.615113 129 192 90
0.215064 0.400006 0.614816 109 164 81
0.213301 0.400048 0.614519 69 124 41
0.211539 0.400090 0.614223 41 83 31
0.229020 0.400871 0.619425 52 76 46
0.227183 0.399953 0.618817 47 71 41
0.225418 0.399995 0.618520 59 99 39
0.223653 0.400037 0.618223 116 156 96
0.221888 0.400079 0.617926 153 210 117
0.220122 0.400121 0.617628 172 229 136
0.218301 0.399202 0.617024 170 234 129
0.216538 0.399244 0.616727 155 219 114
0.214775 0.399286 0.616430 144 206 100
0.213012 0.399328 0.616133 130 192 86
0.211250 0.399370 0.615837 109 163 76
0.209531 0.400373 0.615845 76 130 43
0.207765 0.400415 0.615548 42 84 32
0.223427 0.400276 0.620150 51 70 42
0.221659 0.400318 0.619853 59 99 43
0.219833 0.399401 0.619245 101 141 85
0.218068 0.399443 0.618948 140 193 111
0.216302 0.399485 0.618650 168 221 139
0.214537 0.399527 0.618353 172 233 132
0.212772 0.399569 0.618056 163 224 123
0.211007 0.399611 0.617759 151 210 105
0.209241 0.399653 0.617462 143 202 97
0.207476 0.399695 0.617164 119 172 90
0.205711 0.399737 0.616867 98 151 69
0.203945 0.399779 0.616570 74 103 69
0.202213 0.400781 0.616579 60 89 55
0.291758 0.396000 0.632715 116 137 97
0.289834 0.395086 0.632088 81 102 62
0.288232 0.396084 0.632122 69 83 61
0.219602 0.399639 0.621174 54 73 45
0.217834 0.399681 0.620876 57 91 40
0.216066 0.399723 0.620578 96 130 79
0.214298 0.399765 0.620281 135 191 105
0.212483 0.398848 0.619672 166 222 136
0.210717 0.398890 0.619375 172 230 130
0.208952 0.398933 0.619078 170 228 128
0.207187 0.398975 0.618781 161 216 126
0.205459 0.399976 0.618793 141 196 106
0.203691 0.400018 0.618495 159 190 144
0.201923 0.400060 0.618198 163 194 148
0.200155 0.400102 0.617900 152 172 155
0.198388 0.400144 0.617602 88 108 91
0.293397 0.396194 0.634959 144 173 132
0.291631 0.396236 0.634662 149 188 124
0.289866 0.396278 0.634365 139 178 114
0.288101 0.396320 0.634067 99 127 89
0.215829 0.399959 0.622511 59 74 49
0.214009 0.399044 0.621899 56 87 34
0.212241 0.399086 0.621602 82 113 60
0.210473 0.399128 0.621304 136 187 101
0.208705 0.399170 0.621007 166 217 131
0.206937 0.399212 0.620709 176 226 149
0.205169 0.399254 0.620411 177 227 150
0.203401 0.399296 0.620114 199 232 186
0.201634 0.399339 0.619816 206 239 193
0.199866 0.399381 0.619519 202 222 203
0.198098 0.399423 0.619221 163 183 164
0.196330 0.399465 0.618923 141 159 153
0.194562 0.399507 0.618626 112 130 124
0.295040 0.396385 0.637208 125 171 102
0.293272 0.396427 0.636911 162 208 139
0.291504 0.396469 0.636613 167 222 130
0.289736 0.396511 0.636315 165 220 128
0.287968 0.396554 0.636018 138 169 125
0.210228 0.399363 0.623238 51 80 35
0.208457 0.399406 0.622940 82 111 66
0.206687 0.399448 0.622642 124 162 107
0.204916 0.399490 0.622344 176 214 159
0.203146 0.399532 0.622046 208 239 195
0.201376 0.399574 0.621748 205 236 192
0.199576 0.398659 0.621137 183 207 175
0.197835 0.399659 0.621152 175 199 167
0.196064 0.399701 0.620854 189 211 195
0.194294 0.399743 0.620556 195 217 201
0.192505 0.398828 0.619947 155 173 167
0.190737 0.398870 0.619649 96 114 108
0.188969 0.398912 0.619351 63 78 75
0.296518 0.395622 0.639125 115 156 111
0.294750 0.395664 0.638827 152 212 116
0.292982 0.395706 0.638529 154 214 118
0.291376 0.396701 0.638569 176 231 139
0.289606 0.396743 0.638271 145 200 108
0.287992 0.397738 0.638310 56 87 53
0.206436 0.399681 0.624580 50 76 50
0.204663 0.399724 0.624281 75 101 75
0.202890 0.399766 0.623983 152 176 144
0.201117 0.399808 0.623684 197 221 189
0.199344 0.399850 0.623386 214 237 203
0.197571 0.399893 0.623087 206 229 195
0.195798 0.399935 0.622789 206 233 202
0.194004 0.399021 0.622177 227 254 223
0.192233 0.399063 0.621879 211 236 217
0.190463 0.399105 0.621580 192 217 198
0.188693 0.399147 0.621282 159 178 168
0.186922 0.399189 0.620984 113 132 122
0.185152 0.399231 0.620686 76 91 88
0.298168 0.395810 0.641382 84 135 65
0.296397 0.395852 0.641084 153 204 134
0.294627 0.395894 0.640786 148 213 99
0.292856 0.395936 0.640488 168 233 119
0.291247 0.396931 0.640530 164 219 138
0.289633 0.397925 0.640571 72 127 46
0.200888 0.400995 0.625943 90 107 91
0.199081 0.400082 0.625327 147 168 146
0.197306 0.400124 0.625028 199 220 198
0.195530 0.400166 0.624729 230 254 226
0.193755 0.400209 0.624430 226 250 222
0.191961 0.399296 0.623815 203 230 201
0.190188 0.399338 0.623517 217 244 215
0.188403 0.398425 0.622903 217 237 218
0.186632 0.398467 0.622605 204 224 205
0.184862 0.398509 0.622307 180 197 183
0.183091 0.398551 0.622009 136 153 139
0.299822 0.395996 0.643646 70 102 63
0.298049 0.396038 0.643347 141 201 105
0.296276 0.396080 0.643049 150 210 114
0.294503 0.396123 0.642750 158 225 115
0.292893 0.397116 0.642794 165 232 122
0.289500 0.398151 0.642538 37 88 22
0.197091 0.402262 0.627611 87 100 85
0.195307 0.402305 0.627311 126 148 128
0.193504 0.401393 0.626692 179 201 181
0.191706 0.400481 0.626074 221 242 220
0.189913 0.399569 0.625458 227 248 226
0.188137 0.399611 0.625159 210 226 203
0.186352 0.398699 0.624543 203 219 196
0.184579 0.398741 0.624245 213 231 208
0.182806 0.398783 0.623946 214 232 209
0.181031 0.397871 0.623332 188 209 185
0.179260 0.397913 0.623034 143 164 140
0.177490 0.397955 0.622736 73 95 75
0.299704 0.396222 0.645615 133 179 112
0.297929 0.396264 0.645317 151 215 106
0.296153 0.396307 0.645018 151 215 106
0.294543 0.397299 0.645064 163 229 128
0.292928 0.398291 0.645110 124 190 89
0.291147 0.398333 0.644810 39 80 31
0.193271 0.403526 0.629285 79 92 77
0.191466 0.402615 0.628664 129 142 125
0.189666 0.401704 0.628043 192 205 188
0.187870 0.400793 0.627423 224 240 219
0.186080 0.399882 0.626804 230 246 225
0.184295 0.398971 0.626186 232 254 225
0.182516 0.398060 0.625569 232 254 225
0.180743 0.398102 0.625271 222 249 216
0.178970 0.398144 0.624972 199 226 193
0.177197 0.398187 0.624674 127 163 120
0.175424 0.398229 0.624375 74 110 67
0.301539 0.397352 0.648239 117 174 81
0.299759 0.397394 0.647939 153 210 117
0.297978 0.397437 0.647639 148 213 101
0.296198 0.397479 0.647339 161 226 114
0.294582 0.398470 0.647387 143 202 115
0.292961 0.399462 0.647434 40 99 12
0.189402 0.402881 0.630320 74 87 74
0.187602 0.401971 0.629697 109 119 105
0.185816 0.402014 0.629397 173 183 169
0.184024 0.401104 0.628775 210 232 205
0.182237 0.400194 0.628154 231 253 226
0.180453 0.398331 0.627214 226 255 211
0.178678 0.398374 0.626915 202 233 187
0.176902 0.398416 0.626616 144 189 118
0.175133 0.397505 0.625999 138 183 112
0.173360 0.397548 0.625700 110 162 87
0.171587 0.397590 0.625402 74 126 51
0.303561 0.399425 0.651225 112 157 99
0.301772 0.399468 0.650924 151 214 103
0.299984 0.399510 0.650623 151 214 103
0.298196 0.399553 0.650322 164 228 119
0.296408 0.399595 0.650021 155 219 110
0.294784 0.400586 0.650070 67 112 50
0.185541 0.403188 0.631679 72 81 72
0.183744 0.402279 0.631054 104 120 99
0.181952 0.401370 0.630430 159 175 154
0.180165 0.400461 0.629807 191 222 176
0.178384 0.399552 0.629185 187 218 172
0.176607 0.398643 0.628564 155 204 120
0.174836 0.397734 0.627943 148 197 113
0.173060 0.397776 0.627644 139 197 99
0.171285 0.397818 0.627345 131 189 91
0.169524 0.396909 0.626727 100 154 78
0.167734 0.397903 0.626747 65 119 43
0.165958 0.397945 0.626449 43 81 35
0.305415 0.400545 0.653874 91 144 64
0.303445 0.399642 0.653217 148 201 121
0.301654 0.399684 0.652916 147 211 91
0.299863 0.399727 0.652614 158 222 102
0.298242 0.400716 0.652666 166 223 128
0.296448 0.400759 0.652364 79 136 41
0.181666 0.402543 0.632716 63 78 62
0.179874 0.401635 0.632089 74 98 68
0.178088 0.400727 0.631464 110 134 104
0.176307 0.399819 0.630839 140 183 106
0.174531 0.398910 0.630216 164 207 130
0.172760 0.398002 0.629593 152 211 104
0.170994 0.397094 0.628971 139 198 91
0.169218 0.397136 0.628672 137 196 93
0.167443 0.397178 0.628373 125 184 81
0.165667 0.397221 0.628074 97 151 77
0.163892 0.397263 0.627775 59 113 39
0.307097 0.400716 0.656175 75 110 72
0.305301 0.400759 0.655873 145 204 99
0.303505 0.400801 0.655571 154 213 108
0.301709 0.400844 0.655268 162 226 108
0.299913 0.400887 0.654966 173 237 119
0.298286 0.401875 0.655019 108 160 87
0.296487 0.401918 0.654716 36 88 15
0.177790 0.401897 0.633752 53 69 48
0.176005 0.400990 0.633125 58 90 41
0.174224 0.400083 0.632498 94 126 77
0.172448 0.399176 0.631872 143 193 104
0.170678 0.398269 0.631247 159 209 120
0.168912 0.397361 0.630622 147 206 101
0.167152 0.396454 0.629999 137 196 91
0.165376 0.396496 0.629700 127 190 88
0.163601 0.396538 0.629401 117 180 78
0.161825 0.396581 0.629102 80 131 63
0.160050 0.396623 0.628803 47 98 30
0.308782 0.400884 0.658483 64 110 45
0.306984 0.400927 0.658180 142 188 123
0.305185 0.400970 0.657877 151 214 101
0.303387 0.401013 0.657574 162 225 112
0.301588 0.401055 0.657272 165 229 122
0.299789 0.401098 0.656969 119 183 76
0.297991 0.401141 0.656666 50 89 38
0.172135 0.400346 0.634160 53 88 34
0.170360 0.399440 0.633531 89 124 70
0.168605 0.397584 0.632577 133 187 100
0.166825 0.397627 0.632277 148 202 115
0.165065 0.396720 0.631651 143 205 101
0.163310 0.395814 0.631026 136 198 94
0.161534 0.395856 0.630728 128 191 91
0.159787 0.394949 0.630104 108 171 71
0.157983 0.395941 0.630130 82 133 67
0.156208 0.395983 0.629831 49 100 34
0.310286 0.400107 0.660432 62 89 56
0.308487 0.400150 0.660129 131 185 100
0.306689 0.400193 0.659827 157 211 126
0.304890 0.400236 0.659524 152 220 107
0.303268 0.401222 0.659582 166 234 121
0.301467 0.401265 0.659279 129 188 99
0.299665 0.401308 0.658976 38 97 8
0.170040 0.400606 0.635826 56 75 49
0.168281 0.398753 0.634866 54 92 35
0.166496 0.398796 0.634565 105 143 86
0.164752 0.396943 0.633608 137 193 105
0.162948 0.397933 0.633636 147 203 115
0.161191 0.397027 0.633008 139 202 102
0.159468 0.395174 0.632054 127 190 90
0.157692 0.395216 0.631755 120 181 91
0.155951 0.394310 0.631130 97 158 68
0.154141 0.395301 0.631158 68 117 61
0.152366 0.395343 0.630859 39 88 32
0.311978 0.400272 0.662748 47 86 33
0.310177 0.400315 0.662444 130 169 116
0.308376 0.400358 0.662141 155 216 115
0.306575 0.400401 0.661838 154 215 114
0.304774 0.400444 0.661535 165 232 124
0.302972 0.400487 0.661232 144 211 103
0.301344 0.401472 0.661292 51 97 32
0.166127 0.401854 0.637525 49 71 42
0.164352 0.400950 0.636892 59 97 38
0.162607 0.399099 0.635929 118 156 97
0.160846 0.398195 0.635298 140 200 108
0.159119 0.396343 0.634339 144 204 112
0.157402 0.394492 0.633381 136 198 105
0.155626 0.394534 0.633082 132 194 101
0.153887 0.393629 0.632455 108 171 89
0.152115 0.393671 0.632156 73 136 54
0.150342 0.393713 0.631858 51 94 46
0.313484 0.399494 0.664700 49 71 40
0.311683 0.399537 0.664397 118 168 89
0.310067 0.400521 0.664461 157 207 128
0.308263 0.400564 0.664158 151 216 104
0.306460 0.400607 0.663854 165 230 118
0.304656 0.400650 0.663550 152 212 118
0.302852 0.400693 0.663247 51 111 17
0.164014 0.402110 0.639200 54 78 48
0.162240 0.401207 0.638564 48 72 42
0.160499 0.399358 0.637598 79 123 57
0.158767 0.397509 0.636633 127 171 105
0.157046 0.395659 0.635669 140 202 107
0.155300 0.394755 0.635039 136 198 103
0.153560 0.393852 0.634409 130 195 99
0.151824 0.392948 0.633780 127 192 96
0.150051 0.392990 0.633481 99 156 81
0.148278 0.393032 0.633183 63 120 45
0.146505 0.393074 0.632884 48 83 45
0.315182 0.399656 0.667024 40 75 19
0.313379 0.399699 0.666720 122 157 101
0.311575 0.399742 0.666416 151 213 105
0.309771 0.399785 0.666113 152 214 106
0.308150 0.400768 0.666179 165 230 118
0.306344 0.400811 0.665875 156 221 109
0.304715 0.401794 0.665940 63 107 43
0.302906 0.401837 0.665635 34 78 14
0.160123 0.401462 0.640241 44 71 38
0.158384 0.399615 0.639270 46 73 40
0.156656 0.397767 0.638301 90 136 69
0.154938 0.395920 0.637333 131 177 110
0.153231 0.394072 0.636367 139 201 106
0.151534 0.392224 0.635403 130 192 97
0.149761 0.392267 0.635105 129 191 94
0.147988 0.392309 0.634806 120 182 85
0.146263 0.391406 0.634176 86 139 72
0.144442 0.392393 0.634209 54 107 40
0.315079 0.399859 0.669049 107 157 68
0.313273 0.399902 0.668745 154 204 115
0.311467 0.399945 0.668441 148 212 92
0.309845 0.400927 0.668509 162 226 106
0.308036 0.400970 0.668205 160 217 124
0.306406 0.401952 0.668272 72 129 36
0.156264 0.399870 0.640946 40 68 30
0.154539 0.398024 0.639973 62 90 52
0.152825 0.396179 0.639001 105 157 84
0.151161 0.393389 0.637696 139 191 118
0.149470 0.391543 0.636728 140 202 105
0.147697 0.391585 0.636429 135 197 100
0.145973 0.390683 0.635797 124 189 93
0.144253 0.389781 0.635166 103 168 72
0.142432 0.390767 0.635201 67 116 60
0.318395 0.399036 0.671311 34 72 15
0.316783 0.400016 0.671384 105 143 86
0.314975 0.400059 0.671079 146 205 98
0.313166 0.400102 0.670775 151 210 103
0.311544 0.401083 0.670845 164 224 112
0.309916 0.402064 0.670915 166 226 114
0.308102 0.402107 0.670610 88 132 64
0.306467 0.403088 0.670679 32 76 8
0.154138 0.400122 0.642626 58 71 54
0.152416 0.398279 0.641648 46 77 31
0.150705 0.396436 0.640672 81 112 66
0.149048 0.393649 0.639361 123 176 96
0.147407 0.390862 0.638053 143 196 116
0.145731 0.389017 0.637083 133 199 98
0.143964 0.389060 0.636785 128 194 93
0.142196 0.389102 0.636487 118 178 93
0.140371 0.390087 0.636524 82 142 57
0.138601 0.390129 0.636226 58 101 55
0.320303 0.400128 0.674029 38 60 31
0.318492 0.400171 0.673724 96 147 63
0.316681 0.400214 0.673419 150 201 117
0.314869 0.400258 0.673114 150 213 100
0.313247 0.401237 0.673187 163 226 113
0.311619 0.402217 0.673259 175 228 132
0.309986 0.403197 0.673331 92 145 49
0.308167 0.403240 0.673025 41 67 23
0.150287 0.398532 0.643328 54 72 49
0.148580 0.396691 0.642347 56 94 39
0.146929 0.393907 0.641030 109 147 92
0.145294 0.391123 0.639716 140 202 109
0.143622 0.389280 0.638741 136 198 105
0.141906 0.388380 0.638106 132 197 101
0.140138 0.388422 0.637808 121 186 90
0.138370 0.388464 0.637511 91 147 77
0.136540 0.389449 0.637549 62 118 48
0.320205 0.400324 0.676069 96 129 83
0.318587 0.401303 0.676146 142 206 101
0.316771 0.401346 0.675840 155 219 114
0.314954 0.401389 0.675534 171 231 121
0.313326 0.402368 0.675609 173 233 123
0.311693 0.403347 0.675683 102 142 71
0.146448 0.396944 0.644026 56 78 51
0.144854 0.393222 0.642363 74 120 55
0.143280 0.389499 0.640702 133 179 114
0.141616 0.387659 0.639724 137 198 108
0.139848 0.387701 0.639427 137 198 108
0.138081 0.387743 0.639129 127 190 104
0.136313 0.387785 0.638832 103 166 80
0.134480 0.388769 0.638872 75 127 65
0.132642 0.389753 0.638911 38 90 28
0.323739 0.400432 0.678726 37 60 37
0.321922 0.400475 0.678420 76 127 57
0.320304 0.401453 0.678499 144 195 125
0.318485 0.401496 0.678193 154 219 107
0.316666 0.401539 0.677887 168 233 121
0.315037 0.402517 0.677964 176 230 129
0.311579 0.403538 0.677733 53 80 33
0.144361 0.396254 0.645367 51 80 48
0.142726 0.393477 0.644037 64 93 61
0.141271 0.387878 0.641685 108 159 89
0.139559 0.386980 0.641045 141 192 122
0.137791 0.387022 0.640748 134 195 105
0.136023 0.387064 0.640450 128 189 99
0.134255 0.387106 0.640153 118 177 99
0.132419 0.388089 0.640195 77 136 58
0.130578 0.389071 0.640236 53 96 50
0.323644 0.400624 0.680777 83 120 79
0.322025 0.401600 0.680858 142 202 106
0.320203 0.401643 0.680552 156 216 120
0.318382 0.401687 0.680245 164 227 116
0.316753 0.402663 0.680324 171 234 123
0.314929 0.402707 0.680017 112 158 82
0.313292 0.403684 0.680095 46 92 16
0.140592 0.393730 0.645716 53 88 50
0.139211 0.387197 0.643008 96 131 93
0.137501 0.386300 0.642366 138 192 116
0.135733 0.386342 0.642069 136 190 114
0.133966 0.386384 0.641771 132 193 105
0.132198 0.386427 0.641474 126 187 99
0.130430 0.386469 0.641176 96 149 82
0.128515 0.388390 0.641561 60 113 46
0.325575 0.401702 0.683530 79 130 60
0.323750 0.401745 0.683223 143 194 124
0.321926 0.401789 0.682916 155 217 111
0.320102 0.401832 0.682609 165 227 121
0.318473 0.402808 0.682690 175 230 136
0.316646 0.402851 0.682383 111 166 72
0.315009 0.403827 0.682463 48 82 31
0.136906 0.390270 0.645714 70 114 59
0.135444 0.385621 0.643687 126 170 115
0.133676 0.385663 0.643390 137 195 111
0.131908 0.385705 0.643092 138 196 112
0.130140 0.385747 0.642794 129 187 105
0.128372 0.385789 0.642497 105 163 81
0.327307 0.401845 0.685900 82 120 74
0.325480 0.401888 0.685593 143 203 107
0.323855 0.402863 0.685678 156 216 120
0.322026 0.402906 0.685370 169 231 127
0.320197 0.402950 0.685062 176 238 134
0.318368 0.402994 0.684754 116 163 91
0.316538 0.403037 0.684446 41 88 16
0.134833 0.389586 0.647044 59 86 55
0.133320 0.385879 0.645356 104 152 83
0.131618 0.384984 0.644711 141 189 120
0.129851 0.385026 0.644413 137 197 112
0.128083 0.385068 0.644115 129 189 104
0.126315 0.385110 0.643818 115 174 96
0.124388 0.387028 0.644210 76 135 57
0.329252 0.402915 0.688673 73 125 50
0.327421 0.402959 0.688364 140 192 117
0.325589 0.403003 0.688056 148 212 105
0.323757 0.403046 0.687747 161 225 118
0.321925 0.403090 0.687439 176 236 140
0.320093 0.403134 0.687131 119 179 83
0.318455 0.404107 0.687216 46 83 31
0.132626 0.390775 0.649074 47 80 36
0.131259 0.385199 0.646678 91 124 80
0.129561 0.384305 0.646032 135 190 109
0.127793 0.384347 0.645734 142 197 116
0.126025 0.384389 0.645436 130 190 105
0.124257 0.384431 0.645139 108 168 83
0.122407 0.385410 0.645188 85 138 71
0.330995 0.403053 0.691057 83 121 73
0.329161 0.403097 0.690748 130 193 93
0.327327 0.403140 0.690439 151 214 114
0.325492 0.403184 0.690131 158 221 110
0.323658 0.403228 0.689822 175 238 127
0.321824 0.403271 0.689513 126 176 95
0.319989 0.403315 0.689204 47 97 16
0.130408 0.391959 0.651112 53 74 52
0.129199 0.384519 0.648001 71 114 53
0.127503 0.383625 0.647353 132 175 114
0.125813 0.382732 0.646705 135 194 107
0.124048 0.382774 0.646408 124 183 96
0.122200 0.383752 0.646460 113 171 89
0.120347 0.384729 0.646511 81 139 57
0.332529 0.402261 0.693045 67 121 45
0.330695 0.402304 0.692737 137 191 115
0.328860 0.402348 0.692428 150 214 105
0.327026 0.402392 0.692119 158 222 113
0.325192 0.402435 0.691810 172 231 128
0.323357 0.402479 0.691501 131 190 87
0.321721 0.403451 0.691592 53 93 37
0.125524 0.382011 0.648321 116 168 95
0.123840 0.381119 0.647672 131 183 110
0.122077 0.381161 0.647375 126 185 98
0.120228 0.382138 0.647429 112 171 84
0.118463 0.382180 0.647132 93 146 79
0.334279 0.402395 0.695438 76 113 72
0.332442 0.402439 0.695129 131 191 95
0.330605 0.402482 0.694820 154 214 118
0.328768 0.402526 0.694510 165 228 117
0.326931 0.402570 0.694201 175 238 127
0.325094 0.402614 0.693892 133 183 104
0.323457 0.403584 0.693985 45 95 16
0.123470 0.381333 0.649640 104 142 96
0.121872 0.379508 0.648635 136 191 110
0.120198 0.378616 0.647985 130 185 104
0.118440 0.378658 0.647689 106 164 82
0.116500 0.380568 0.648099 90 148 66
0.336032 0.402527 0.697836 75 126 60
0.334193 0.402571 0.697527 138 189 123
0.332353 0.402614 0.697217 151 213 109
0.330514 0.402658 0.696907 171 233 129
0.328674 0.402702 0.696598 178 236 138
0.326835 0.402746 0.696288 138 196 98
0.324995 0.402790 0.695978 56 96 40
0.121499 0.379722 0.650603 101 147 82
0.119997 0.376967 0.649238 137 183 118
0.118510 0.374211 0.647876 129 184 101
0.116578 0.376118 0.648292 118 173 90
0.114543 0.378958 0.649061 93 147 71
0.112492 0.381798 0.649827 65 119 43
0.337790 0.402657 0.700240 78 114 71
0.335948 0.402700 0.699930 140 196 108
0.334106 0.402744 0.699620 159 215 127
0.332264 0.402788 0.699310 172 230 130
0.330422 0.402832 0.699000 177 235 135
0.328580 0.402876 0.698690 138 189 105
0.326738 0.402920 0.698380 55 106 22
0.118403 0.371634 0.648760 129 181 106
0.116845 0.369813 0.647752 126 178 103
0.114823 0.372649 0.648530 114 172 88
0.112689 0.376418 0.649663 99 157 73
0.110534 0.380187 0.650792 81 124 67
0.339552 0.402784 0.702650 77 125 58
0.337708 0.402828 0.702339 140 188 121
0.335863 0.402872 0.702029 154 215 116
0.334018 0.402916 0.701718 164 225 126
0.332174 0.402960 0.701407 181 237 140
0.330329 0.403004 0.701097 131 187 90
0.328485 0.403048 0.700786 55 91 30
0.118748 0.364410 0.647834 86 129 68
0.116838 0.366312 0.648263 130 173 112
0.114919 0.368214 0.648690 125 180 99
0.112988 0.370117 0.649116 117 172 91
0.111048 0.372020 0.649540 95 148 77
0.108788 0.376716 0.651037 78 131 60
0.342939 0.401943 0.704960 30 71 24
0.341095 0.401987 0.704649 89 130 83
0.339250 0.402031 0.704338 141 201 109
0.337405 0.402075 0.704028 154 214 122
0.335561 0.402119 0.703717 166 225 122
0.333716 0.402163 0.703407 177 236 133
0.332083 0.403129 0.703510 126 169 90
0.330236 0.403173 0.703199 47 90 11
0.114921 0.364718 0.649193 123 172 100
0.113096 0.365689 0.649264 129 178 106
0.111165 0.367589 0.649695 106 163 86
0.109637 0.365771 0.648682 88 145 68
0.107802 0.366742 0.648751 78 125 65
0.344939 0.402988 0.707796 37 65 38
0.343089 0.403032 0.707485 88 141 70
0.341240 0.403077 0.707174 144 197 126
0.339390 0.403121 0.706862 152 214 110
0.337540 0.403165 0.706551 158 220 116
0.335691 0.403209 0.706239 174 230 133
0.333841 0.403253 0.705928 117 173 76
0.332202 0.404218 0.706032 51 81 33
0.115407 0.356584 0.647862 74 111 59
0.113701 0.356625 0.647575 130 167 115
0.112197 0.354808 0.646561 124 179 100
0.110599 0.353920 0.645912 102 157 78
0.109007 0.353032 0.645264 84 140 68
0.346717 0.403109 0.710223 33 71 25
0.344864 0.403153 0.709911 98 136 90
0.343012 0.403198 0.709599 142 204 109
0.341160 0.403242 0.709287 148 210 115
0.339308 0.403286 0.708976 158 220 116
0.337455 0.403330 0.708664 168 230 126
0.335603 0.403374 0.708352 119 166 94
0.333964 0.404338 0.708459 43 90 18
0.113619 0.354074 0.648405 80 107 74
0.112020 0.353186 0.647753 122 173 103
0.110321 0.353227 0.647467 121 172 102
0.108836 0.351412 0.646452 96 156 73
0.107251 0.350524 0.645803 82 142 59
0.105784 0.348709 0.644790 79 126 68
0.348266 0.402309 0.712231 43 69 45
0.346413 0.402353 0.711919 103 152 80
0.344561 0.402398 0.711607 148 197 125
0.342709 0.402442 0.711295 148 211 111
0.341079 0.403405 0.711406 157 220 120
0.339224 0.403449 0.711094 170 226 140
0.337370 0.403493 0.710781 104 160 74
0.335515 0.403537 0.710469 48 82 33
0.113539 0.351526 0.649226 53 68 50
0.111945 0.350640 0.648573 77 118 69
0.110356 0.349754 0.647920 123 164 115
0.108772 0.348867 0.647269 119 176 99
0.107194 0.347981 0.646618 95 152 75
0.105620 0.347094 0.645968 80 137 62
0.350050 0.402427 0.714665 41 78 28
0.347962 0.401553 0.713926 112 149 99
0.346110 0.401598 0.713615 147 207 113
0.344485 0.402559 0.713729 152 212 118
0.342630 0.402604 0.713416 165 227 130
0.340775 0.402648 0.713104 165 227 130
0.339140 0.403610 0.713216 105 151 84
0.337500 0.404572 0.713328 40 86 19
0.111770 0.349023 0.649753 52 79 50
0.110289 0.347212 0.648729 80 107 78
0.108711 0.346327 0.648076 116 167 101
0.107027 0.346367 0.647793 112 163 97
0.105457 0.345481 0.647141 93 151 71
0.103776 0.345521 0.646858 83 141 61
0.351600 0.401626 0.716676 50 79 49
0.349746 0.401670 0.716364 116 163 89
0.347891 0.401714 0.716051 155 202 128
0.346036 0.401758 0.715739 148 211 111
0.344181 0.401803 0.715427 164 227 127
0.342551 0.402763 0.715542 165 224 137
0.340916 0.403724 0.715657 94 153 66
0.339056 0.403769 0.715344 49 80 34
0.110118 0.345600 0.649901 55 72 56
0.108435 0.345640 0.649617 77 116 65
0.106862 0.344755 0.648963 119 158 107
0.105408 0.342946 0.647938 103 158 79
0.103732 0.342986 0.647656 90 145 66
0.353151 0.400825 0.718686 51 95 40
0.351297 0.400869 0.718374 125 169 114
0.349442 0.400913 0.718062 150 210 114
0.347819 0.401873 0.718181 151 211 115
0.345961 0.401917 0.717868 162 225 123
0.344331 0.402877 0.717986 160 223 121
0.342471 0.402921 0.717673 93 139 74
0.340611 0.402965 0.717360 40 86 21
0.108268 0.344029 0.650784 51 78 45
0.106809 0.342222 0.649754 87 114 81
0.105133 0.342262 0.649472 114 163 91
0.103573 0.341378 0.648817 106 155 83
0.101900 0.341418 0.648536 92 142 63
0.354702 0.400024 0.720697 56 92 56
0.353087 0.400982 0.720819 126 186 103
0.351229 0.401026 0.720507 144 204 121
0.349372 0.401071 0.720194 146 210 103
0.347746 0.402029 0.720315 163 227 120
0.345886 0.402074 0.720002 156 215 128
0.344252 0.403032 0.720122 73 132 45
0.342613 0.403991 0.720240 45 75 38
0.106646 0.340616 0.650913 57 74 56
0.104972 0.340655 0.650631 101 139 80
0.103299 0.340695 0.650349 122 160 101
0.101745 0.339812 0.649693 99 150 66
0.100074 0.339852 0.649412 85 136 52
0.356253 0.399223 0.722707 71 123 61
0.354640 0.400180 0.722833 135 187 125
0.353021 0.401137 0.722957 143 206 106
0.351161 0.401182 0.722644 144 207 107
0.349301 0.401226 0.722331 167 230 128
0.347672 0.402184 0.722454 148 211 109
0.346038 0.403141 0.722576 65 110 52
0.344173 0.403186 0.722262 42 87 29
0.104698 0.339973 0.652163 51 80 39
0.103142 0.339091 0.651504 102 131 90
0.101471 0.339131 0.651222 108 156 77
0.099923 0.338249 0.650565 90 138 59
0.357804 0.398421 0.724718 97 135 91
0.355949 0.398466 0.724406 141 201 118
0.354576 0.400334 0.724973 147 207 124
0.352716 0.400378 0.724660 147 213 110
0.351092 0.401335 0.724786 161 227 124
0.347597 0.402336 0.724598 58 118 33
0.345732 0.402380 0.724284 46 78 41
0.103103 0.336568 0.652274 71 95 65
0.101557 0.335687 0.651614 110 155 84
0.099894 0.335726 0.651334 105 150 79
0.098357 0.334845 0.650676 79 129 52
0.096696 0.334885 0.650396 77 127 50
0.361210 0.397576 0.727040 52 78 52
0.359355 0.397620 0.726728 107 158 92
0.357500 0.397665 0.726416 148 199 133
0.356131 0.399531 0.726989 147 209 114
0.354271 0.399575 0.726676 154 216 121
0.352649 0.400530 0.726805 163 225 128
0.349157 0.401530 0.726619 53 101 34
0.103066 0.334049 0.653034 68 89 67
0.101526 0.333169 0.652373 83 121 64
0.099991 0.332289 0.651713 113 151 94
0.098461 0.331408 0.651053 94 142 65
0.362761 0.396775 0.729051 54 92 44
0.360906 0.396819 0.728739 115 153 105
0.359051 0.396863 0.728426 148 206 122
0.357441 0.397818 0.728560 143 201 117
0.355826 0.398772 0.728692 156 216 122
0.352581 0.400681 0.728955 126 179 97
0.350716 0.400725 0.728641 45 98 16
0.101616 0.329736 0.652739 65 96 54
0.100089 0.328857 0.652078 107 138 96
0.098442 0.328896 0.651800 99 144 73
0.096923 0.328017 0.651140 85 130 59
0.364312 0.395974 0.731061 75 105 68
0.362457 0.396018 0.730749 127 179 104
0.360602 0.396062 0.730437 152 204 129
0.358994 0.397015 0.730573 142 204 109
0.357382 0.397968 0.730708 157 219 124
0.354141 0.399875 0.730976 104 158 71
0.352276 0.399919 0.730662 55 88 42
0.099943 0.327267 0.653200 73 97 67
0.098298 0.327306 0.652923 100 141 78
0.096782 0.326428 0.652261 90 131 68
0.095139 0.326467 0.651985 82 126 62
0.365863 0.395173 0.733072 74 118 54
0.364008 0.395217 0.732760 131 175 111
0.362153 0.395261 0.732447 145 203 105
0.360547 0.396213 0.732586 147 205 107
0.358937 0.397165 0.732724 159 219 123
0.355700 0.399070 0.732998 94 138 74
0.354074 0.400022 0.733133 45 89 25
0.099798 0.325679 0.654318 65 81 60
0.098282 0.324802 0.653654 84 119 65
0.096642 0.324841 0.653378 98 133 79
0.095002 0.324880 0.653101 81 127 60
0.369268 0.394328 0.735395 45 83 37
0.367413 0.394372 0.735082 94 132 86
0.365815 0.395323 0.735225 138 192 105
0.363958 0.395367 0.734912 141 195 108
0.360492 0.396362 0.734740 159 221 115
0.357260 0.398264 0.735019 66 121 40
0.355636 0.399215 0.735158 54 82 44
0.098395 0.321386 0.653985 67 96 51
0.096892 0.320509 0.653320 106 135 90
0.095527 0.318716 0.652267 83 129 62
0.094037 0.317839 0.651605 78 124 57
0.371083 0.394432 0.737864 64 93 61
0.369226 0.394476 0.737551 107 158 88
0.367368 0.394520 0.737238 137 188 118
0.365511 0.394565 0.736925 142 203 104
0.363907 0.395514 0.737069 152 213 114
0.362047 0.395559 0.736756 156 216 120
0.360684 0.397414 0.737355 130 190 94
0.358819 0.397458 0.737041 52 95 36
0.098637 0.317061 0.653909 62 87 52
0.097015 0.317100 0.653636 90 115 80
0.095526 0.316224 0.652971 88 132 68
0.094042 0.315348 0.652307 78 122 58
0.372636 0.393630 0.739877 68 115 57
0.370779 0.393674 0.739564 127 174 116
0.368921 0.393718 0.739251 141 200 113
0.367322 0.394667 0.739399 140 199 112
0.365462 0.394711 0.739086 161 218 125
0.364109 0.396564 0.739690 159 216 123
0.362244 0.396609 0.739377 118 168 91
0.360627 0.397558 0.739521 38 88 11
0.097011 0.314611 0.654332 77 95 72
0.095394 0.314649 0.654060 90 128 73
0.092436 0.312899 0.652729 75 119 53
0.376047 0.392783 0.742203 53 91 47
0.374189 0.392827 0.741890 81 119 75
0.372066 0.391969 0.741114 125 185 102
0.370474 0.392916 0.741265 134 194 111
0.368877 0.393863 0.741415 135 197 102
0.367275 0.394811 0.741564 154 216 121
0.365668 0.395759 0.741712 153 207 122
0.364056 0.396707 0.741859 94 148 63
0.362439 0.397654 0.742006 51 82 38
0.096877 0.313039 0.655416 66 81 63
0.095396 0.312164 0.654747 95 127 78
0.093920 0.311290 0.654080 87 119 70
0.092450 0.310416 0.653414 81 122 57
0.377327 0.391079 0.743749 62 89 58
0.375472 0.391123 0.743437 93 147 73
0.373885 0.392069 0.743591 126 180 106
0.372027 0.392114 0.743278 132 198 97
0.370433 0.393060 0.743431 134 200 99
0.368833 0.394007 0.743583 154 214 120
0.367228 0.394953 0.743734 138 198 104
0.365873 0.396802 0.744348 76 114 55
0.364002 0.396847 0.744033 47 85 26
0.095400 0.309684 0.655426 88 117 74
0.093929 0.308810 0.654757 88 117 74
0.092603 0.307025 0.653691 81 120 58
0.091288 0.305240 0.652627 82 121 59
0.378603 0.389377 0.745289 66 109 52
0.375168 0.390366 0.745135 127 187 91
0.373580 0.391312 0.745291 126 186 90
0.371988 0.392257 0.745447 143 207 102
0.370390 0.393202 0.745601 150 214 109
0.368787 0.394148 0.745755 134 183 109
0.367436 0.395994 0.746375 55 104 30
0.365566 0.396039 0.746060 56 81 46
0.095405 0.307207 0.656095 77 102 67
0.094077 0.305424 0.655024 91 116 81
0.092620 0.304551 0.654355 77 117 57
0.091168 0.303679 0.653687 80 120 60
0.379597 0.386778 0.746352 85 118 76
0.378299 0.388621 0.746985 121 174 92
0.374864 0.389610 0.746833 122 184 80
0.373543 0.391454 0.747463 152 214 110
0.371947 0.392398 0.747620 153 208 118
0.370608 0.394242 0.748247 104 159 69
0.369000 0.395187 0.748402 53 85 34
0.095412 0.304734 0.656754 69 93 61
0.093953 0.303863 0.656083 97 121 89
0.092639 0.302082 0.655009 79 119 61
0.091335 0.300300 0.653937 80 120 62
0.380862 0.385082 0.747878 87 133 64
0.379571 0.386923 0.748518 130 176 107
0.376415 0.388808 0.748843 136 192 95
0.375098 0.390650 0.749479 161 218 123
0.373771 0.392492 0.750112 147 204 109
0.372170 0.393436 0.750271 103 139 76
0.370564 0.394379 0.750429 48 84 21
0.095556 0.301358 0.656999 73 97 65
0.093967 0.301396 0.656731 95 119 87
0.092659 0.299616 0.655654 77 115 60
0.091504 0.296928 0.654174 82 120 65
0.383965 0.383344 0.749709 77 120 63
0.382123 0.383388 0.749399 115 158 101
0.380560 0.384329 0.749567 126 181 87
0.379268 0.386168 0.750211 134 189 95
0.376382 0.388949 0.751018 159 215 116
0.375331 0.391687 0.752134 139 185 105
0.373998 0.393527 0.752771 73 119 39
0.372391 0.394469 0.752932 60 78 43
0.095431 0.299802 0.658045 70 95 60
0.094122 0.298025 0.656963 94 119 84
0.092822 0.296248 0.655882 76 114 59
0.091676 0.293562 0.654397 88 126 71
0.385219 0.381652 0.751225 91 124 82
0.383380 0.381696 0.750915 115 171 85
0.381821 0.382636 0.751086 121 177 91
0.380536 0.384473 0.751736 129 187 87
0.377662 0.387250 0.752552 151 206 112
0.376890 0.390881 0.754155 110 165 71
0.375561 0.392719 0.754798 62 93 40
0.095716 0.295529 0.657856 68 94 52
0.094555 0.292848 0.656361 91 117 75
0.093128 0.291979 0.655687 75 110 56
0.091850 0.290203 0.654605 98 133 79
0.388306 0.379918 0.753043 72 99 66
0.386757 0.380857 0.753218 89 144 65
0.384918 0.380901 0.752909 122 177 98
0.383362 0.381840 0.753083 118 180 76
0.381800 0.382780 0.753255 127 189 85
0.379213 0.386449 0.754563 139 197 97
0.378450 0.390076 0.756177 80 124 60
0.377125 0.391911 0.756826 43 87 23
0.096003 0.291265 0.657648 71 100 55
0.094576 0.290397 0.656972 88 117 72
0.093155 0.289529 0.656297 89 122 66
0.092027 0.286850 0.654800 110 143 87
0.389549 0.378231 0.754547 82 122 62
0.388005 0.379169 0.754725 116 156 96
0.386168 0.379213 0.754416 108 170 66
0.384617 0.380151 0.754593 113 175 71
0.383343 0.381983 0.755255 133 195 87
0.380486 0.384754 0.756088 118 168 89
0.380009 0.389270 0.758199 67 117 38
0.096294 0.287009 0.657421 85 118 64
0.095296 0.283429 0.655500 86 119 65
0.093893 0.282561 0.654826 109 142 86
0.391083 0.377439 0.756535 93 126 80
0.389249 0.377483 0.756227 109 163 78
0.387414 0.377526 0.755918 114 168 83
0.386155 0.379356 0.756587 120 182 74
0.384885 0.381186 0.757254 136 198 90
0.382315 0.384847 0.758584 85 142 49
0.381568 0.388465 0.760220 50 84 35
0.098403 0.280919 0.656600 73 102 61
0.096863 0.280955 0.656340 70 109 47
0.095463 0.280089 0.655664 87 126 64
0.093925 0.280125 0.655405 121 154 96
0.394751 0.377495 0.759326 85 113 75
0.392617 0.376647 0.758524 102 149 75
0.390782 0.376690 0.758215 119 166 92
0.388948 0.376734 0.757906 114 172 74
0.387403 0.377670 0.758089 128 186 88
0.386427 0.380390 0.759254 143 201 103
0.383866 0.384046 0.760594 75 116 51
0.383128 0.387659 0.762242 48 89 24
0.100089 0.277547 0.657007 76 111 55
0.098691 0.276682 0.656329 83 118 62
0.097161 0.276718 0.656071 89 131 61
0.095631 0.276755 0.655814 109 151 81
0.396891 0.378483 0.762309 95 139 73
0.394450 0.376745 0.761008 110 154 88
0.392316 0.375898 0.760203 110 168 70
0.390776 0.376833 0.760389 118 176 78
0.388939 0.376876 0.760080 135 192 97
0.387970 0.379593 0.761253 150 207 112
0.385416 0.383245 0.762605 59 107 30
0.384969 0.387745 0.764756 56 79 45
0.102283 0.270579 0.655704 78 108 60
0.100768 0.270615 0.655449 80 126 48
0.099254 0.270651 0.655194 92 138 60
0.097601 0.271588 0.655361 109 155 79
0.096084 0.271624 0.655106 131 177 101
0.396287 0.376841 0.763497 104 156 65
0.394149 0.375995 0.762690 107 159 68
0.392312 0.376039 0.762380 124 182 82
0.390769 0.376973 0.762568 136 194 94
0.389512 0.378796 0.763252 141 192 106
0.107810 0.260855 0.653585 75 101 61
0.105818 0.264490 0.655041 82 108 68
0.102427 0.267261 0.655814 91 134 57
0.100921 0.267297 0.655560 98 148 57
0.099278 0.268233 0.655731 115 165 74
0.097630 0.269169 0.655902 137 183 107
0.393878 0.369871 0.761675 114 163 66
0.391460 0.368137 0.760368 127 176 79
0.392307 0.376178 0.764562 139 192 96
0.389500 0.378932 0.765440 66 99 45
0.111611 0.252090 0.651578 71 103 54
0.109903 0.253922 0.652191 79 111 62
0.107690 0.259349 0.654519 80 125 54
0.105825 0.262081 0.655556 86 131 60
0.104074 0.263914 0.656161 83 138 44
0.102312 0.265747 0.656765 93 148 54
0.100807 0.265783 0.656512 123 176 80
0.113069 0.249662 0.652301 77 116 54
0.109783 0.252424 0.653105 90 140 61
0.107695 0.256947 0.655017 94 149 55
0.105833 0.259676 0.656061 101 156 62
0.124539 0.235383 0.648784 63 101 44
0.112830 0.249066 0.653638 103 158 66
0.124206 0.235697 0.650527 88 144 56
0.123973 0.235116 0.651832 107 177 75
0.148078 0.210803 0.645215 88 136 57
0.146658 0.211727 0.645438 92 140 61
0.123739 0.234534 0.653136 144 214 110
0.158959 0.204648 0.645540 100 156 68
0.157616 0.204680 0.645314 95 151 63
0.156228 0.205602 0.645545 94 151 56
0.154836 0.206525 0.645775 99 156 61
0.153438 0.207447 0.646004 101 159 59
0.152035 0.208370 0.646233 107 165 65
0.149271 0.209325 0.646232 114 173 68
0.147856 0.210248 0.646459 114 178 71
0.146435 0.211172 0.646684 115 179 72
0.123506 0.233953 0.654441 174 232 134
0.201823 0.408280 0.761921 43 70 37
0.199889 0.408326 0.761595 38 69 27
0.197955 0.408372 0.761270 39 70 28
0.196020 0.408418 0.760944 41 75 26
0.158739 0.204099 0.646770 113 183 68
0.157396 0.204131 0.646543 114 184 69
0.156008 0.205053 0.646777 117 188 70
0.154615 0.205974 0.647009 118 189 71
0.153217 0.206896 0.647241 123 192 72
0.151813 0.207818 0.647472 116 185 65
0.149049 0.208772 0.647474 132 198 77
0.147633 0.209694 0.647703 135 201 84
0.146212 0.210616 0.647930 141 207 90
0.200578 0.183029 0.644751 57 100 43
0.199291 0.183060 0.644534 63 106 49
0.198004 0.183090 0.644318 67 112 50
0.196717 0.183121 0.644101 69 114 52
0.195462 0.184038 0.644359 77 123 54
0.194173 0.184069 0.644142 81 127 58
0.192910 0.184986 0.644399 90 139 55
0.191642 0.185904 0.644655 95 144 60
0.190369 0.186821 0.644910 99 151 60
0.189071 0.186852 0.644692 102 154 63
0.187807 0.188657 0.645418 108 164 67
0.158519 0.203551 0.647999 140 216 94
0.157175 0.203583 0.647773 146 222 100
0.155787 0.204504 0.648009 148 224 104
0.154394 0.205424 0.648244 155 231 111
0.152995 0.206345 0.648478 163 235 119
0.151592 0.207265 0.648711 167 239 123
0.148827 0.208219 0.648715 179 248 128
0.147411 0.209140 0.648946 183 247 129
0.145989 0.210061 0.649177 186 250 132
0.259108 0.404435 0.774741 50 74 31
0.257073 0.403598 0.773927 48 74 30
0.255245 0.404527 0.774091 48 74 30
0.253313 0.404573 0.773766 44 75 29
0.215449 0.177714 0.646109 71 116 43
0.214174 0.177744 0.645894 74 119 46
0.212900 0.177774 0.645679 83 126 49
0.211626 0.177805 0.645465 94 137 60
0.210414 0.178720 0.645733 105 151 71
0.209197 0.179635 0.646000 103 149 69
0.205411 0.180611 0.645834 111 162 76
0.202894 0.181558 0.645883 115 170 80
0.201610 0.181588 0.645666 119 174 84
0.200367 0.182504 0.645929 116 175 86
0.199080 0.182535 0.645712 112 171 82
0.197793 0.182565 0.645496 116 176 82
0.196506 0.182596 0.645279 121 181 87
0.195251 0.183512 0.645540 119 181 77
0.193961 0.183543 0.645323 122 184 80
0.192698 0.184459 0.645582 123 187 71
0.191430 0.185376 0.645840 124 188 72
0.190156 0.186292 0.646098 123 187 67
0.188859 0.186323 0.645879 126 190 70
0.187594 0.188126 0.646610 132 199 75
0.158298 0.203003 0.649229 179 252 133
0.156955 0.203035 0.649003 181 254 135
0.155567 0.203955 0.649241 181 255 147
0.154173 0.204874 0.649478 179 253 145
0.152774 0.205794 0.649715 181 250 151
0.151370 0.206713 0.649950 180 249 150
0.148605 0.207665 0.649957 163 220 125
0.147188 0.208585 0.650190 153 201 109
0.145766 0.209505 0.650423 142 190 98
0.241619 0.173910 0.650293 64 103 37
0.240353 0.173940 0.650080 75 114 48
0.239086 0.173970 0.649867 81 120 54
0.237820 0.174000 0.649653 84 124 55
0.236553 0.174030 0.649440 87 127 58
0.235287 0.174061 0.649227 90 131 55
0.221610 0.177042 0.648347 123 180 85
0.220336 0.177072 0.648133 128 185 90
0.219062 0.177103 0.647918 128 185 90
0.217788 0.177133 0.647704 124 182 82
0.216514 0.177163 0.647489 125 183 83
0.215240 0.177194 0.647275 126 188 80
0.213966 0.177224 0.647061 131 193 85
0.212692 0.177254 0.646846 134 197 86
0.211418 0.177285 0.646631 133 196 85
0.210205 0.178199 0.646902 131 194 83
0.208987 0.179113 0.647171 133 196 85
0.207708 0.179143 0.646956 127 195 80
0.206483 0.180058 0.647224 132 200 85
0.205201 0.180088 0.647008 132 203 85
0.202684 0.181033 0.647058 136 207 89
0.201399 0.181064 0.646842 135 206 88
0.200156 0.181979 0.647107 132 203 85
0.198869 0.182010 0.646891 130 201 83
0.197582 0.182040 0.646674 131 204 83
0.196296 0.182071 0.646457 135 208 87
0.195039 0.182986 0.646720 136 209 86
0.193750 0.183017 0.646503 139 212 89
0.192486 0.183932 0.646765 142 214 87
0.191217 0.184847 0.647025 143 215 88
0.189944 0.185763 0.647285 147 219 90
0.188646 0.185794 0.647067 149 221 92
0.187380 0.187594 0.647802 154 226 97
0.158078 0.202455 0.650459 161 211 120
0.156735 0.202487 0.650233 148 198 107
0.155346 0.203405 0.650473 122 174 99
0.153952 0.204324 0.650713 95 147 72
0.152553 0.205242 0.650952 81 128 66
0.151148 0.206161 0.651189 67 114 52
0.148383 0.207112 0.651198 56 91 33
0.146965 0.208031 0.651434 59 82 28
0.145607 0.208063 0.651205 61 84 30
0.258980 0.172090 0.653933 83 124 59
0.257558 0.171240 0.653217 87 132 59
0.256297 0.171270 0.653005 88 133 60
0.255035 0.171300 0.652793 89 139 60
0.253774 0.171330 0.652580 90 140 61
0.252661 0.172241 0.652869 93 143 62
0.251397 0.172271 0.652657 100 150 69
0.250133 0.172301 0.652444 102 152 71
0.248869 0.172331 0.652231 106 156 75
0.247468 0.171480 0.651518 107 158 72
0.246206 0.171510 0.651306 113 164 78
0.245078 0.172421 0.651593 108 163 71
0.243814 0.172452 0.651380 116 171 79
0.242678 0.173363 0.651666 115 174 71
0.241286 0.172512 0.650955 116 175 72
0.240023 0.172542 0.650742 115 174 71
0.238759 0.172572 0.650529 125 184 81
0.237612 0.173483 0.650813 131 189 89
0.236346 0.173514 0.650600 131 189 89
0.235079 0.173544 0.650386 135 194 91
0.221401 0.176522 0.649514 142 208 91
0.220127 0.176552 0.649299 140 206 87
0.218853 0.176583 0.649085 137 203 84
0.217579 0.176613 0.648870 140 204 84
0.216305 0.176643 0.648656 138 202 82
0.215031 0.176674 0.648441 146 213 87
0.213757 0.176704 0.648227 141 208 82
0.212483 0.176734 0.648013 137 207 80
0.211209 0.176765 0.647798 139 209 82
0.209996 0.177678 0.648071 142 213 91
0.208778 0.178591 0.648342 143 214 92
0.207499 0.178621 0.648127 144 217 94
0.206273 0.179535 0.648397 144 217 94
0.204991 0.179565 0.648181 142 219 92
0.202473 0.180509 0.648234 155 229 101
0.201189 0.180540 0.648018 159 233 105
0.199945 0.181454 0.648286 162 236 108
0.198658 0.181484 0.648069 162 236 108
0.197372 0.181515 0.647852 165 237 108
0.196085 0.181546 0.647636 173 245 116
0.194828 0.182460 0.647901 174 246 117
0.193539 0.182490 0.647684 172 244 115
0.192275 0.183405 0.647948 172 244 115
0.191005 0.184319 0.648211 174 246 117
0.189731 0.185234 0.648473 176 250 120
0.188434 0.185264 0.648255 173 247 117
0.187167 0.187063 0.648995 173 247 119
0.286171 0.174454 0.661619 58 93 35
0.284685 0.173606 0.660890 61 96 38
0.283413 0.173637 0.660676 66 105 41
0.282142 0.173667 0.660462 69 108 44
0.280870 0.173697 0.660248 69 110 43
0.279397 0.172849 0.659521 73 114 47
0.278128 0.172880 0.659307 79 121 49
0.276859 0.172910 0.659094 82 124 52
0.275397 0.172062 0.658368 81 126 53
0.274130 0.172092 0.658155 86 131 58
0.272864 0.172122 0.657942 91 138 64
0.271412 0.171273 0.657218 100 147 73
0.269964 0.170425 0.656495 103 155 80
0.268703 0.170455 0.656283 101 153 78
0.267442 0.170485 0.656071 101 156 73
0.266180 0.170515 0.655858 107 162 79
0.264919 0.170545 0.655646 112 171 82
0.263487 0.169696 0.654926 116 175 86
0.262228 0.169726 0.654714 116 176 84
0.261135 0.170635 0.655009 115 175 83
0.259874 0.170665 0.654797 119 179 83
0.258613 0.170695 0.654584 120 180 84
0.257351 0.170725 0.654372 119 181 75
0.256090 0.170755 0.654160 124 186 80
0.254829 0.170785 0.653947 128 193 81
0.253567 0.170815 0.653735 136 201 89
0.252306 0.170846 0.653523 136 199 88
0.251045 0.170876 0.653310 134 197 86
0.249784 0.170906 0.653098 142 204 96
0.248522 0.170936 0.652886 147 209 101
0.247261 0.170966 0.652673 149 212 101
0.246135 0.171876 0.652963 149 212 101
0.244871 0.171906 0.652750 145 209 91
0.243607 0.171936 0.652537 144 208 90
0.242343 0.171966 0.652324 140 205 78
0.241079 0.171996 0.652112 144 209 82
0.239815 0.172026 0.651899 142 208 78
0.238552 0.172056 0.651686 141 207 77
0.237405 0.172967 0.651972 143 210 86
0.236138 0.172997 0.651759 149 216 92
0.234872 0.173027 0.651546 149 215 94
0.233606 0.173057 0.651333 143 209 88
0.232446 0.173968 0.651617 141 211 86
0.221193 0.176002 0.650680 162 229 101
0.219919 0.176032 0.650466 165 231 101
0.218644 0.176063 0.650251 165 231 101
0.217370 0.176093 0.650037 173 236 107
0.216096 0.176123 0.649822 177 240 111
0.214822 0.176154 0.649608 171 237 105
0.213548 0.176184 0.649393 172 238 106
0.212274 0.176215 0.649179 179 246 118
0.211000 0.176245 0.648965 184 251 123
0.209787 0.177157 0.649239 180 250 125
0.208568 0.178069 0.649513 176 246 121
0.207289 0.178099 0.649298 173 246 123
0.206063 0.179012 0.649571 172 245 122
0.204781 0.179042 0.649355 168 246 121
0.202263 0.179985 0.649410 177 255 128
0.200978 0.180016 0.649194 180 255 131
0.199734 0.180929 0.649464 184 255 131
0.198448 0.180959 0.649247 184 255 131
0.197161 0.180990 0.649030 186 253 125
0.195874 0.181021 0.648814 186 253 125
0.194617 0.181934 0.649081 193 253 128
0.193327 0.181964 0.648864 192 252 127
0.192063 0.182877 0.649131 197 252 130
0.190793 0.183791 0.649396 194 249 127
0.189518 0.184704 0.649661 186 245 129
0.188221 0.184735 0.649442 179 238 122
0.186953 0.186531 0.650187 165 226 127
0.391881 0.288719 0.744666 75 73 34
0.390267 0.288758 0.744394 75 73 34
0.388652 0.288796 0.744123 67 75 44
0.387038 0.288835 0.743851 67 75 44
0.385750 0.289747 0.744116 59 74 47
0.307620 0.177828 0.668840 56 91 33
0.306586 0.178735 0.669147 66 101 43
0.305296 0.178766 0.668930 82 117 59
0.304007 0.178796 0.668713 83 118 60
0.302717 0.178827 0.668496 74 114 54
0.291730 0.176443 0.665202 93 146 66
0.290227 0.175597 0.664467 97 150 70
0.288948 0.175627 0.664252 103 157 72
0.287452 0.174781 0.663518 105 159 74
0.285962 0.173934 0.662786 108 165 72
0.284688 0.173965 0.662571 113 170 77
0.283205 0.173118 0.661840 118 176 78
0.281933 0.173148 0.661626 120 178 80
0.280662 0.173178 0.661412 117 176 73
0.279189 0.172332 0.660683 118 177 74
0.277920 0.172362 0.660469 125 184 77
0.276652 0.172392 0.660255 130 189 82
0.275189 0.171545 0.659528 133 192 85
0.273923 0.171575 0.659315 139 198 91
0.272656 0.171605 0.659101 136 198 92
0.271204 0.170758 0.658375 134 196 90
0.269758 0.169910 0.657650 140 204 95
0.268496 0.169940 0.657438 139 203 94
0.267235 0.169970 0.657225 140 205 91
0.265974 0.170000 0.657013 140 205 91
0.264712 0.170030 0.656801 139 204 90
0.263281 0.169182 0.656078 135 200 86
0.262022 0.169212 0.655866 141 206 92
0.260929 0.170120 0.656164 139 204 90
0.259667 0.170151 0.655951 142 208 91
0.258406 0.170181 0.655739 143 209 92
0.257145 0.170211 0.655527 140 207 83
0.255883 0.170241 0.655314 144 211 87
0.254622 0.170271 0.655102 142 212 85
0.253361 0.170301 0.654890 145 215 88
0.252100 0.170331 0.654677 148 218 93
0.250838 0.170361 0.654465 149 219 94
0.249577 0.170391 0.654253 148 218 93
0.248316 0.170421 0.654040 152 222 97
0.247054 0.170451 0.653828 152 222 97
0.245928 0.171360 0.654120 146 216 91
0.244664 0.171390 0.653907 146 214 81
0.243400 0.171420 0.653694 153 221 88
0.242136 0.171450 0.653482 158 226 82
0.240872 0.171480 0.653269 158 226 82
0.239608 0.171510 0.653056 163 231 87
0.238344 0.171540 0.652843 164 232 88
0.237197 0.172450 0.653132 168 234 102
0.235931 0.172480 0.652919 173 239 107
0.234664 0.172510 0.652705 171 238 114
0.233398 0.172540 0.652492 176 243 119
0.232238 0.173450 0.652778 176 245 123
0.220984 0.175482 0.651847 192 255 133
0.219710 0.175512 0.651632 194 255 130
0.218436 0.175543 0.651418 193 255 129
0.217162 0.175573 0.651203 192 253 125
0.215888 0.175604 0.650989 194 255 127
0.214613 0.175634 0.650774 196 254 125
0.213339 0.175664 0.650560 199 255 128
0.212065 0.175695 0.650346 198 255 131
0.210791 0.175725 0.650131 197 254 130
0.209577 0.176636 0.650408 192 250 139
0.208358 0.177547 0.650685 187 245 134
0.207079 0.177577 0.650469 177 243 140
0.205800 0.177608 0.650254 174 240 137
0.204571 0.178519 0.650529 163 235 137
0.202052 0.179461 0.650586 156 230 133
0.200768 0.179492 0.650370 153 227 130
0.199524 0.180403 0.650642 153 222 127
0.198237 0.180434 0.650425 146 215 120
0.196950 0.180465 0.650209 140 200 106
0.195663 0.180495 0.649992 127 187 93
0.194406 0.181407 0.650262 118 162 67
0.193116 0.181438 0.650045 103 147 52
0.314111 0.178025 0.671630 105 150 63
0.312557 0.177181 0.670885 104 154 63
0.311270 0.177211 0.670668 105 155 64
0.309983 0.177242 0.670452 111 163 74
0.308697 0.177273 0.670235 112 164 75
0.307410 0.177303 0.670018 116 166 75
0.306374 0.178209 0.670328 121 171 80
0.305085 0.178240 0.670111 126 178 87
0.303796 0.178270 0.669894 126 178 87
0.302506 0.178301 0.669677 126 182 85
0.301217 0.178332 0.669460 126 182 85
0.299688 0.177487 0.668718 124 186 78
0.298402 0.177518 0.668502 128 190 82
0.297115 0.177548 0.668285 129 192 81
0.292802 0.175889 0.666591 138 201 90
0.291520 0.175920 0.666375 141 206 94
0.290017 0.175075 0.665638 142 207 95
0.288738 0.175105 0.665423 141 206 94
0.287243 0.174260 0.664687 140 205 93
0.285753 0.173414 0.663952 135 203 88
0.284479 0.173445 0.663738 137 205 90
0.282997 0.172599 0.663004 138 207 87
0.281725 0.172629 0.662790 140 209 89
0.280454 0.172660 0.662576 143 210 86
0.278982 0.171814 0.661844 147 214 90
0.277713 0.171844 0.661631 148 215 87
0.276444 0.171874 0.661417 148 215 87
0.274982 0.171028 0.660687 153 220 94
0.273715 0.171058 0.660474 153 220 94
0.272449 0.171088 0.660261 151 218 92
0.270997 0.170242 0.659532 155 222 96
0.269551 0.169395 0.658805 153 220 92
0.268290 0.169426 0.658593 151 218 90
0.267028 0.169456 0.658380 155 223 92
0.265767 0.169486 0.658168 156 224 93
0.264506 0.169516 0.657956 159 229 102
0.263075 0.168669 0.657231 161 231 104
0.261816 0.168699 0.657019 161 231 104
0.260722 0.169606 0.657319 162 232 105
0.259461 0.169636 0.657106 160 230 105
0.258199 0.169666 0.656894 162 232 107
0.256938 0.169696 0.656682 168 238 113
0.255677 0.169726 0.656469 168 238 113
0.254415 0.169756 0.656257 171 243 118
0.253154 0.169786 0.656045 171 243 118
0.251893 0.169816 0.655832 170 243 120
0.250632 0.169846 0.655620 169 242 119
0.249370 0.169876 0.655408 171 242 122
0.248109 0.169906 0.655195 171 242 122
0.246848 0.169936 0.654983 175 246 126
0.245720 0.170844 0.655277 178 249 129
0.244457 0.170874 0.655064 188 255 129
0.243193 0.170904 0.654851 186 253 127
0.241929 0.170934 0.654639 193 255 123
0.240665 0.170965 0.654426 194 255 124
0.239401 0.170995 0.654213 195 255 120
0.238137 0.171025 0.654000 194 255 119
0.236990 0.171933 0.654291 196 254 125
0.235723 0.171963 0.654078 197 255 126
0.234457 0.171993 0.653865 196 255 138
0.233190 0.172024 0.653652 193 254 135
0.232030 0.172932 0.653940 188 252 143
0.220775 0.174962 0.653013 153 215 120
0.219501 0.174993 0.652799 149 202 106
0.218227 0.175023 0.652584 139 192 96
0.216953 0.175053 0.652370 134 183 86
0.215679 0.175084 0.652155 130 179 82
0.214405 0.175114 0.651941 127 169 72
0.213131 0.175144 0.651726 119 161 64
0.211857 0.175175 0.651512 115 151 65
0.210582 0.175205 0.651298 106 142 56
0.209368 0.176115 0.651577 96 130 58
0.208149 0.177025 0.651856 87 121 49
0.388072 0.283080 0.744638 117 162 60
0.386801 0.283991 0.744910 110 159 64
0.313900 0.177498 0.672811 136 196 86
0.312346 0.176656 0.672063 133 196 85
0.311059 0.176686 0.671846 136 199 88
0.309773 0.176717 0.671630 137 201 92
0.308486 0.176747 0.671413 136 200 91
0.307199 0.176778 0.671196 141 203 95
0.306163 0.177683 0.671509 145 207 99
0.304874 0.177713 0.671291 152 215 104
0.303584 0.177744 0.671074 151 214 103
0.302295 0.177775 0.670857 148 212 94
0.301005 0.177806 0.670640 150 214 96
0.299478 0.176962 0.669897 154 221 97
0.298191 0.176993 0.669680 156 223 99
0.296904 0.177023 0.669463 152 222 95
0.292592 0.175366 0.667765 155 225 98
0.291310 0.175397 0.667549 154 224 99
0.289808 0.174553 0.666809 148 218 93
0.288528 0.174583 0.666594 151 222 100
0.287034 0.173739 0.665856 154 225 103
0.285544 0.172894 0.665119 152 225 102
0.284270 0.172925 0.664904 151 224 101
0.282788 0.172080 0.664169 153 227 101
0.281517 0.172110 0.663954 152 226 100
0.280245 0.172141 0.663740 157 229 102
0.278774 0.171296 0.663006 156 228 101
0.277505 0.171326 0.662793 158 230 103
0.276236 0.171356 0.662579 163 235 108
0.274774 0.170511 0.661847 167 239 114
0.273508 0.170541 0.661633 167 239 114
0.272241 0.170572 0.661420 165 235 110
0.270790 0.169726 0.660690 167 237 112
0.269344 0.168881 0.659960 172 239 113
0.268083 0.168911 0.659747 178 245 119
0.266822 0.168941 0.659535 178 243 118
0.265560 0.168971 0.659323 186 251 126
0.264299 0.169001 0.659110 187 252 127
0.262868 0.168155 0.658383 187 252 127
0.261610 0.168185 0.658171 187 252 129
0.260515 0.169091 0.658473 187 252 129
0.259254 0.169121 0.658261 190 255 135
0.257993 0.169151 0.658049 190 255 135
0.256731 0.169181 0.657836 187 255 140
0.255470 0.169211 0.657624 187 255 140
0.254209 0.169241 0.657412 185 255 145
0.252947 0.169271 0.657199 186 255 146
0.251686 0.169301 0.656987 182 255 150
0.250425 0.169331 0.656775 183 255 151
0.249164 0.169362 0.656562 179 251 153
0.247902 0.169392 0.656350 176 248 150
0.246641 0.169422 0.656138 178 245 147
0.245380 0.169452 0.655925 174 241 143
0.244118 0.169482 0.655713 177 235 137
0.242986 0.170389 0.656009 173 231 133
0.241722 0.170419 0.655796 170 222 121
0.240458 0.170449 0.655583 165 217 116
0.239315 0.171356 0.655877 165 207 108
0.237930 0.170509 0.655158 163 205 106
0.236782 0.171416 0.655451 160 197 104
0.235516 0.171446 0.655237 153 190 97
0.234249 0.171477 0.655024 146 184 97
0.232983 0.171507 0.654811 138 176 89
0.231717 0.171537 0.654598 112 155 78
0.399479 0.260177 0.735849 187 174 91
0.397126 0.261991 0.736430 163 178 81
0.390572 0.277088 0.743636 145 187 76
0.389323 0.277996 0.743915 139 181 70
0.388070 0.278905 0.744193 135 182 72
0.386478 0.278943 0.743925 140 187 77
0.384887 0.278981 0.743657 141 194 84
0.383623 0.279890 0.743933 142 195 85
0.382355 0.280799 0.744208 135 195 85
0.380758 0.280837 0.743940 136 196 86
0.379162 0.280875 0.743671 130 193 82
0.377248 0.280042 0.742860 129 192 81
0.313689 0.176972 0.673992 157 228 106
0.312135 0.176130 0.673241 151 222 104
0.310849 0.176161 0.673025 151 222 104
0.309562 0.176192 0.672808 151 224 105
0.308275 0.176222 0.672591 149 222 103
0.306988 0.176253 0.672375 152 225 104
0.305952 0.177157 0.672689 150 223 102
0.304663 0.177187 0.672472 153 222 100
0.303373 0.177218 0.672255 155 224 102
0.302084 0.177249 0.672038 156 226 101
0.300794 0.177279 0.671821 154 224 99
0.299267 0.176437 0.671075 155 222 96
0.297980 0.176468 0.670858 157 224 98
0.296693 0.176498 0.670642 155 222 94
0.292382 0.174843 0.668938 162 229 101
0.291100 0.174874 0.668722 163 230 104
0.289598 0.174031 0.667981 165 232 106
0.288319 0.174061 0.667765 167 234 110
0.286825 0.173218 0.667025 170 237 113
0.285335 0.172374 0.666285 170 239 117
0.284061 0.172405 0.666071 172 241 119
0.282580 0.171561 0.665333 171 242 122
0.281308 0.171592 0.665119 173 244 124
0.280037 0.171622 0.664905 174 247 126
0.278566 0.170778 0.664168 174 247 126
0.277297 0.170808 0.663954 178 251 130
0.276028 0.170839 0.663741 180 253 132
0.274567 0.169994 0.663006 183 255 137
0.273300 0.170025 0.662793 181 254 135
0.272034 0.170055 0.662580 183 248 136
0.270583 0.169210 0.661847 182 247 135
0.269138 0.168366 0.661114 188 243 135
0.267876 0.168396 0.660902 187 242 134
0.266615 0.168426 0.660690 187 235 129
0.265354 0.168456 0.660477 182 230 124
0.264092 0.168486 0.660265 184 226 125
0.262831 0.168516 0.660053 181 223 122
0.261403 0.167671 0.659324 177 217 116
0.260309 0.168576 0.659628 174 214 113
0.259047 0.168606 0.659416 163 204 110
0.257786 0.168637 0.659203 151 192 98
0.255263 0.168697 0.658779 109 158 72
0.254002 0.168727 0.658566 92 147 66
0.252741 0.168757 0.658354 83 138 57
0.251480 0.168787 0.658142 69 127 56
0.250218 0.168817 0.657929 68 126 55
0.247696 0.168877 0.657505 57 117 52
0.246434 0.168907 0.657292 61 113 51
0.245173 0.168937 0.657080 61 113 51
0.243912 0.168967 0.656868 66 106 46
0.242779 0.169873 0.657166 62 102 42
0.391213 0.274664 0.744258 169 191 92
0.389972 0.275571 0.744540 166 196 91
0.387139 0.276516 0.744555 162 199 90
0.385553 0.276554 0.744288 161 198 89
0.382708 0.277500 0.744300 157 206 93
0.381119 0.277537 0.744032 152 208 95
0.379530 0.277575 0.743765 153 209 96
0.377942 0.277613 0.743497 151 212 95
0.313477 0.176446 0.675172 151 224 101
0.311925 0.175605 0.674419 150 226 106
0.310638 0.175636 0.674203 151 227 107
0.309351 0.175667 0.673986 154 231 113
0.308064 0.175697 0.673770 156 233 115
0.306777 0.175728 0.673553 155 233 112
0.305741 0.176630 0.673870 156 234 113
0.304451 0.176661 0.673653 157 233 113
0.303162 0.176692 0.673435 160 236 116
0.301872 0.176722 0.673218 170 243 120
0.300583 0.176753 0.673001 166 239 116
0.299056 0.175912 0.672253 177 244 120
0.297769 0.175942 0.672036 177 244 120
0.296482 0.175973 0.671820 181 241 118
0.292172 0.174320 0.670112 186 239 118
0.290668 0.173478 0.669367 186 235 122
0.289388 0.173509 0.669152 185 234 121
0.288109 0.173539 0.668936 186 232 127
0.286615 0.172697 0.668194 184 230 125
0.285127 0.171855 0.667452 177 227 125
0.283853 0.171885 0.667237 170 220 118
0.282372 0.171042 0.666497 157 210 114
0.281100 0.171073 0.666283 143 196 100
0.279829 0.171103 0.666069 132 189 94
0.278358 0.170260 0.665330 126 183 88
0.277089 0.170290 0.665116 118 176 92
0.275626 0.169448 0.664379 108 166 82
0.274359 0.169478 0.664166 100 158 76
0.273093 0.169508 0.663952 98 156 74
0.391685 0.267864 0.742373 212 187 120
0.390467 0.268769 0.742662 207 190 120
0.389243 0.269675 0.742949 209 192 122
0.387675 0.269713 0.742685 201 192 115
0.386443 0.270619 0.742972 201 192 115
0.385207 0.271525 0.743257 193 197 111
0.383965 0.272431 0.743542 193 197 111
0.382390 0.272469 0.743277 182 208 112
0.381140 0.273375 0.743560 181 207 111
0.379562 0.273413 0.743294 172 211 108
0.313001 0.175049 0.675814 159 216 112
0.311714 0.175080 0.675598 148 210 117
0.310427 0.175111 0.675381 142 204 111
0.309140 0.175141 0.675164 138 201 115
0.307853 0.175172 0.674948 138 201 115
0.306566 0.175203 0.674731 137 200 116
0.305279 0.175233 0.674514 132 195 111
0.304240 0.176135 0.674833 125 190 106
0.302951 0.176166 0.674616 123 188 104
0.301661 0.176196 0.674399 123 186 100
0.300372 0.176227 0.674182 119 182 96
0.298845 0.175387 0.673431 115 171 85
0.297558 0.175417 0.673215 101 157 71
0.296271 0.175448 0.672998 91 139 49
0.390593 0.403854 0.821047 85 112 34
0.388631 0.403901 0.820717 78 105 29
0.386668 0.403947 0.820386 76 103 27
0.384974 0.404863 0.820597 65 98 29
0.382744 0.404041 0.819726 62 95 26
0.380781 0.404088 0.819395 51 89 34
0.379079 0.405004 0.819605 47 85 30
0.377114 0.405051 0.819274 46 87 38
0.375149 0.405097 0.818943 46 87 38
0.373185 0.405144 0.818612 43 86 38
0.371220 0.405191 0.818282 42 85 37
0.369255 0.405238 0.817951 36 81 31
0.367290 0.405285 0.817620 35 80 30
0.365567 0.406201 0.817826 38 81 33
