ply
format ascii 1.0
element vertex 1473
property float x
property float y
property float z
property uchar red
property uchar green
property uchar blue
end_header
-0.149974 -0.197743 0.633000 55 74 46
-0.148332 -0.197743 0.633000 59 84 49
-0.146691 -0.197743 0.633000 66 91 56
-0.115261 -0.157132 0.503000 56 88 51
-0.113277 -0.156195 0.500000 50 82 45
-0.111532 -0.155570 0.498000 40 71 37
-0.117260 -0.156756 0.506000 76 109 65
-0.115261 -0.155826 0.503000 71 107 60
-0.113730 -0.155517 0.502000 73 109 62
-0.111308 -0.153968 0.497000 73 111 63
-0.109798 -0.153658 0.496000 74 112 64
-0.108512 -0.153658 0.496000 77 110 68
-0.125656 -0.159435 0.519000 65 98 56
-0.123831 -0.158821 0.517000 64 100 55
-0.119744 -0.156978 0.511000 69 103 54
-0.117260 -0.155442 0.506000 71 105 56
-0.115261 -0.154520 0.503000 67 104 54
-0.113730 -0.154213 0.502000 68 105 55
-0.111308 -0.152677 0.497000 68 107 56
-0.109798 -0.152370 0.496000 67 106 55
-0.108512 -0.152370 0.496000 70 107 57
-0.107010 -0.152063 0.495000 73 110 60
-0.125414 -0.157783 0.518000 62 98 53
-0.123591 -0.157174 0.516000 57 93 48
-0.121543 -0.156260 0.513000 59 95 50
-0.117260 -0.154128 0.506000 66 99 53
-0.115261 -0.153214 0.503000 69 103 54
-0.111980 -0.152301 0.500000 71 105 56
-0.110020 -0.151387 0.497000 71 105 56
-0.108512 -0.151082 0.496000 73 107 56
-0.107010 -0.150778 0.495000 75 109 58
-0.105299 -0.150168 0.493000 73 107 56
-0.103599 -0.149559 0.491000 72 106 55
-0.102117 -0.149255 0.490000 75 112 62
-0.125172 -0.156136 0.517000 56 89 45
-0.123591 -0.155834 0.516000 61 94 52
-0.121306 -0.154626 0.512000 65 98 56
-0.119509 -0.154022 0.510000 64 95 53
-0.117955 -0.153720 0.509000 64 95 53
-0.110020 -0.150096 0.497000 83 112 67
-0.108512 -0.149794 0.496000 75 107 58
-0.107226 -0.149794 0.496000 77 109 60
-0.105513 -0.149190 0.494000 76 111 57
-0.103810 -0.148586 0.492000 77 112 58
-0.102117 -0.147982 0.490000 77 112 58
-0.100023 -0.146774 0.486000 78 113 59
-0.098154 -0.145868 0.483000 77 114 62
-0.125172 -0.154794 0.517000 57 86 43
-0.123352 -0.154195 0.515000 39 63 35
-0.121069 -0.152998 0.511000 19 43 15
-0.119509 -0.152698 0.510000 15 34 6
-0.117260 -0.151501 0.506000 16 35 7
-0.115490 -0.150902 0.504000 19 36 8
-0.113956 -0.150602 0.503000 25 42 14
-0.112428 -0.150303 0.502000 21 43 12
-0.110020 -0.148806 0.497000 43 65 34
-0.108512 -0.148506 0.496000 68 93 56
-0.107226 -0.148506 0.496000 75 100 63
-0.105513 -0.147908 0.494000 82 109 62
-0.103810 -0.147309 0.492000 81 108 61
-0.102117 -0.146710 0.490000 76 107 54
-0.100023 -0.145512 0.486000 79 110 57
-0.098357 -0.144914 0.484000 77 115 60
-0.096701 -0.144315 0.482000 80 118 63
-0.094461 -0.142818 0.477000 77 115 60
-0.110684 -0.148406 0.500000 13 27 7
-0.108512 -0.147219 0.496000 9 25 2
-0.107226 -0.147219 0.496000 16 32 9
-0.105513 -0.146625 0.494000 36 52 20
-0.103810 -0.146031 0.492000 64 80 48
-0.101700 -0.144844 0.488000 81 102 60
-0.100023 -0.144251 0.486000 88 109 67
-0.098357 -0.143657 0.484000 77 109 60
-0.096701 -0.143063 0.482000 80 112 63
-0.094461 -0.141579 0.477000 80 117 65
-0.093028 -0.141282 0.476000 81 118 66
-0.091215 -0.140392 0.473000 83 122 71
-0.088387 -0.139798 0.471000 88 124 77
-0.105299 -0.145048 0.493000 10 21 2
-0.103599 -0.144460 0.491000 14 25 6
-0.102117 -0.144166 0.490000 38 50 24
-0.095898 -0.140635 0.478000 83 108 71
-0.094461 -0.140341 0.477000 78 111 65
-0.092833 -0.139752 0.475000 82 115 69
-0.091215 -0.139164 0.473000 82 119 69
-0.089608 -0.138575 0.471000 82 119 69
-0.088387 -0.138575 0.471000 82 119 67
-0.086796 -0.137987 0.469000 85 122 70
-0.085397 -0.137693 0.468000 87 120 74
-0.084004 -0.137399 0.467000 69 102 56
-0.099818 -0.141435 0.485000 11 16 4
-0.095898 -0.139394 0.478000 47 63 40
-0.092637 -0.138227 0.474000 87 115 79
-0.091023 -0.137644 0.472000 83 117 68
-0.089608 -0.137353 0.471000 80 114 65
-0.088387 -0.137353 0.471000 83 117 66
-0.086796 -0.136769 0.469000 84 118 67
-0.085397 -0.136478 0.468000 83 120 68
-0.083824 -0.135894 0.466000 81 118 66
-0.082616 -0.135894 0.466000 85 114 69
-0.096500 -0.139020 0.481000 8 20 10
-0.091023 -0.136419 0.472000 80 106 66
-0.089608 -0.136130 0.471000 91 117 77
-0.088012 -0.135552 0.469000 87 117 67
-0.086611 -0.135263 0.468000 80 110 60
-0.085215 -0.134974 0.467000 78 113 59
-0.083824 -0.134685 0.466000 77 112 58
-0.082438 -0.134396 0.465000 79 112 58
-0.081233 -0.134396 0.465000 82 115 61
-0.089608 -0.134907 0.471000 62 80 57
-0.088200 -0.134620 0.470000 89 113 70
-0.086611 -0.134047 0.468000 85 109 66
-0.085215 -0.133761 0.467000 78 109 56
-0.083824 -0.133475 0.466000 74 105 52
-0.082438 -0.133188 0.465000 74 107 51
-0.081058 -0.132902 0.464000 78 111 55
-0.079855 -0.132902 0.464000 73 103 55
-0.078482 -0.132615 0.463000 68 98 50
-0.089418 -0.133400 0.470000 8 23 7
-0.088012 -0.133116 0.469000 33 50 20
-0.086426 -0.132548 0.467000 72 89 59
-0.085032 -0.132265 0.466000 86 109 59
-0.083824 -0.132265 0.466000 77 100 50
-0.082438 -0.131981 0.465000 68 99 42
-0.081058 -0.131697 0.464000 66 97 40
-0.079855 -0.131697 0.464000 65 95 45
-0.078482 -0.131413 0.463000 60 90 40
-0.076781 -0.130562 0.460000 64 90 50
-0.166044 -0.169302 0.602000 53 68 41
-0.163936 -0.168740 0.600000 67 82 55
-0.086426 -0.131336 0.467000 10 25 7
-0.085032 -0.131055 0.466000 47 63 31
-0.083644 -0.130774 0.465000 76 92 60
-0.082438 -0.130774 0.465000 72 97 49
-0.081058 -0.130492 0.464000 64 89 41
-0.079855 -0.130492 0.464000 63 91 39
-0.078313 -0.129930 0.462000 62 90 38
-0.076781 -0.129367 0.460000 54 84 36
-0.075588 -0.129367 0.460000 58 88 40
-0.167699 -0.169411 0.608000 31 47 26
-0.165029 -0.168297 0.604000 69 85 64
-0.162651 -0.167461 0.601000 63 87 55
-0.083644 -0.129566 0.465000 25 36 17
-0.082438 -0.129566 0.465000 66 86 51
-0.081058 -0.129288 0.464000 72 92 57
-0.079855 -0.129288 0.464000 60 87 40
-0.078313 -0.128730 0.462000 58 85 38
-0.076781 -0.128173 0.460000 54 84 36
-0.075424 -0.127894 0.459000 56 86 38
-0.168064 -0.171421 0.621000 54 75 53
-0.166722 -0.171697 0.622000 19 40 18
-0.081058 -0.128083 0.464000 56 72 51
-0.079855 -0.128083 0.464000 67 93 53
-0.078313 -0.127531 0.462000 60 86 46
-0.076781 -0.126979 0.460000 53 83 35
-0.075424 -0.126703 0.459000 53 83 35
-0.074233 -0.126703 0.459000 52 82 34
-0.072884 -0.126427 0.458000 49 79 31
-0.071697 -0.126427 0.458000 55 81 41
-0.081058 -0.126878 0.464000 9 23 12
-0.079855 -0.126878 0.464000 32 54 27
-0.077974 -0.125784 0.460000 57 79 52
-0.076614 -0.125511 0.459000 58 84 42
-0.075424 -0.125511 0.459000 53 79 37
-0.074233 -0.125511 0.459000 51 81 33
-0.072884 -0.125237 0.458000 51 81 33
-0.071697 -0.125237 0.458000 49 78 35
-0.070355 -0.124964 0.457000 45 74 31
-0.069019 -0.124691 0.456000 46 69 44
-0.078313 -0.125132 0.462000 22 39 25
-0.076781 -0.124590 0.460000 53 75 44
-0.075424 -0.124319 0.459000 59 81 50
-0.074233 -0.124319 0.459000 52 78 34
-0.072884 -0.124048 0.458000 51 77 33
-0.071540 -0.123777 0.457000 47 73 31
-0.070201 -0.123507 0.456000 45 71 29
-0.068867 -0.123236 0.455000 43 70 37
-0.067688 -0.123236 0.455000 45 72 39
-0.076614 -0.123127 0.459000 14 30 9
-0.075424 -0.123127 0.459000 43 59 38
-0.074072 -0.122859 0.458000 61 81 46
-0.072725 -0.122591 0.457000 54 74 39
-0.071383 -0.122323 0.456000 46 72 32
-0.070047 -0.122054 0.455000 45 71 31
-0.068867 -0.122054 0.455000 42 70 34
-0.067539 -0.121786 0.454000 43 71 35
-0.066362 -0.121786 0.454000 46 70 42
-0.075424 -0.121936 0.459000 12 24 14
-0.074072 -0.121670 0.458000 44 61 35
-0.072725 -0.121404 0.457000 61 78 52
-0.071383 -0.121139 0.456000 46 69 33
-0.070047 -0.120873 0.455000 43 66 30
-0.068716 -0.120607 0.454000 39 67 29
-0.067539 -0.120607 0.454000 40 68 30
-0.066362 -0.120607 0.454000 37 65 29
-0.073910 -0.120218 0.457000 11 26 10
-0.072566 -0.119955 0.456000 45 60 44
-0.071227 -0.119692 0.455000 55 74 44
-0.069893 -0.119429 0.454000 49 68 38
-0.068716 -0.119429 0.454000 44 69 32
-0.067539 -0.119429 0.454000 42 67 30
-0.066215 -0.119165 0.453000 42 70 32
-0.065041 -0.119165 0.453000 39 67 29
-0.063866 -0.119165 0.453000 36 65 35
-0.071227 -0.118510 0.455000 38 53 28
-0.069893 -0.118250 0.454000 57 72 47
-0.068716 -0.118250 0.454000 49 69 34
-0.067390 -0.117989 0.453000 50 70 35
-0.066069 -0.117729 0.452000 45 69 30
-0.064897 -0.117729 0.452000 45 69 30
-0.063584 -0.117468 0.451000 38 65 32
-0.071070 -0.117071 0.454000 15 20 6
-0.069893 -0.117071 0.454000 39 44 30
-0.068565 -0.116813 0.453000 63 76 45
-0.067241 -0.116555 0.452000 56 69 38
-0.066069 -0.116555 0.452000 50 69 31
-0.064754 -0.116297 0.451000 49 68 30
-0.063584 -0.116297 0.451000 39 67 29
-0.069893 -0.115892 0.454000 14 21 13
-0.068565 -0.115637 0.453000 38 50 26
-0.067241 -0.115382 0.452000 66 78 54
-0.065923 -0.115126 0.451000 58 75 38
-0.064610 -0.114871 0.450000 54 71 34
-0.063443 -0.114871 0.450000 40 66 26
-0.067092 -0.113955 0.451000 30 43 28
-0.065777 -0.113703 0.450000 61 79 46
-0.064610 -0.113703 0.450000 53 71 38
-0.063302 -0.113450 0.449000 43 66 30
-0.062138 -0.113450 0.449000 41 64 28
-0.089491 -0.166511 0.659000 36 65 31
-0.087783 -0.166511 0.659000 37 66 32
-0.086204 -0.166764 0.660000 35 64 34
-0.084493 -0.166764 0.660000 28 57 27
-0.065631 -0.112284 0.449000 24 40 17
-0.064323 -0.112034 0.448000 63 79 56
-0.063161 -0.112034 0.448000 49 68 38
-0.062000 -0.112034 0.448000 45 64 34
-0.060838 -0.112034 0.448000 39 66 33
-0.087783 -0.164800 0.659000 40 67 34
-0.086074 -0.164800 0.659000 36 65 31
-0.084493 -0.165050 0.660000 36 65 31
-0.082907 -0.165301 0.661000 26 52 28
-0.062000 -0.110871 0.448000 49 68 40
-0.060702 -0.110624 0.447000 43 65 34
-0.087916 -0.163337 0.660000 43 65 34
-0.086204 -0.163337 0.660000 38 66 30
-0.084493 -0.163337 0.660000 40 68 32
-0.082907 -0.163584 0.661000 38 67 35
-0.081193 -0.163584 0.661000 21 50 18
-0.089627 -0.161623 0.660000 46 68 37
-0.059410 -0.109218 0.446000 46 68 37
-0.086204 -0.161623 0.660000 42 67 30
-0.084493 -0.161623 0.660000 44 69 32
-0.082907 -0.161868 0.661000 39 67 31
-0.081316 -0.162113 0.662000 39 67 31
-0.079599 -0.162113 0.662000 16 41 20
-0.091200 -0.159667 0.659000 36 51 35
-0.087916 -0.159910 0.660000 49 71 42
-0.086204 -0.159910 0.660000 42 65 29
-0.084621 -0.160152 0.661000 42 65 29
-0.082907 -0.160152 0.661000 42 71 30
-0.079599 -0.160394 0.662000 38 67 37
-0.089627 -0.158196 0.660000 24 42 19
-0.088049 -0.158436 0.661000 62 80 57
-0.086335 -0.158436 0.661000 47 72 35
-0.084621 -0.158436 0.661000 45 70 33
-0.081316 -0.158675 0.662000 42 71 30
-0.079599 -0.158675 0.662000 39 71 34
-0.077883 -0.158675 0.662000 35 67 30
-0.088049 -0.156719 0.661000 32 47 29
-0.086335 -0.156719 0.661000 52 71 41
-0.083033 -0.156956 0.662000 40 69 28
-0.081316 -0.156956 0.662000 42 71 30
-0.079599 -0.156956 0.662000 35 68 26
-0.076281 -0.157194 0.663000 32 61 31
-0.074562 -0.157194 0.663000 3 32 2
-0.088049 -0.155003 0.661000 12 22 10
-0.084749 -0.155238 0.662000 61 78 52
-0.083033 -0.155238 0.662000 47 71 32
-0.081316 -0.155238 0.662000 45 69 30
-0.079720 -0.155472 0.663000 36 67 23
-0.078001 -0.155472 0.663000 41 72 28
-0.076281 -0.155472 0.663000 41 71 34
-0.074562 -0.155472 0.663000 32 62 25
-0.086335 -0.153287 0.661000 11 27 6
-0.083033 -0.153519 0.662000 54 74 39
-0.081316 -0.153519 0.662000 49 69 34
-0.079720 -0.153751 0.663000 39 68 25
-0.078001 -0.153751 0.663000 39 68 25
-0.076281 -0.153751 0.663000 39 70 28
-0.074675 -0.153983 0.664000 41 72 30
-0.072843 -0.153751 0.663000 33 55 28
-0.084749 -0.151800 0.662000 13 26 13
-0.083158 -0.152029 0.663000 54 69 40
-0.081439 -0.152029 0.663000 64 79 50
-0.079720 -0.152029 0.663000 50 74 33
-0.078118 -0.152259 0.664000 43 67 26
-0.076396 -0.152259 0.664000 42 71 28
-0.074675 -0.152259 0.664000 42 71 28
-0.072953 -0.152259 0.664000 47 71 39
-0.071231 -0.152259 0.664000 30 54 22
-0.083158 -0.150308 0.663000 24 36 12
-0.081439 -0.150308 0.663000 45 57 33
-0.079840 -0.150535 0.664000 59 79 44
-0.078118 -0.150535 0.664000 50 70 35
-0.076396 -0.150535 0.664000 43 72 31
-0.074675 -0.150535 0.664000 40 69 28
-0.072953 -0.150535 0.664000 43 71 35
-0.071231 -0.150535 0.664000 36 64 28
-0.069614 -0.150761 0.665000 21 42 20
-0.081439 -0.148586 0.663000 29 44 28
-0.079840 -0.148811 0.664000 59 78 48
-0.078118 -0.148811 0.664000 55 74 44
-0.076396 -0.148811 0.664000 47 72 35
-0.074787 -0.149035 0.665000 41 66 29
-0.072953 -0.148811 0.664000 41 71 32
-0.071339 -0.149035 0.665000 41 71 32
-0.069614 -0.149035 0.665000 39 66 37
-0.067890 -0.149035 0.665000 25 52 23
-0.079840 -0.147087 0.664000 22 40 19
-0.078118 -0.147087 0.664000 57 75 54
-0.076512 -0.147308 0.665000 49 74 39
-0.074787 -0.147308 0.665000 46 71 36
-0.073063 -0.147308 0.665000 38 68 29
-0.071339 -0.147308 0.665000 39 69 30
-0.069614 -0.147308 0.665000 41 70 38
-0.067890 -0.147308 0.665000 39 68 36
-0.066165 -0.147308 0.665000 17 37 18
-0.078118 -0.145363 0.664000 42 57 41
-0.076512 -0.145581 0.665000 57 79 50
-0.048921 -0.095230 0.435000 52 74 45
-0.047683 -0.095011 0.434000 40 68 32
-0.046558 -0.095011 0.434000 40 68 32
-0.069614 -0.145581 0.665000 41 70 36
-0.067992 -0.145800 0.666000 41 70 36
-0.066265 -0.145800 0.666000 32 58 34
-0.064538 -0.145800 0.666000 10 36 12
-0.076512 -0.143855 0.665000 43 61 38
-0.048808 -0.093884 0.434000 64 82 59
-0.047683 -0.093884 0.434000 47 72 37
-0.046450 -0.093668 0.433000 46 71 36
-0.045328 -0.093668 0.433000 44 74 37
-0.067992 -0.144071 0.666000 41 71 34
-0.066265 -0.144071 0.666000 41 70 40
-0.064538 -0.144071 0.666000 36 65 35
-0.048808 -0.092757 0.434000 50 63 48
-0.047573 -0.092544 0.433000 53 75 44
-0.046450 -0.092544 0.433000 48 70 39
-0.045328 -0.092544 0.433000 45 73 35
-0.067992 -0.142342 0.666000 44 72 34
-0.042983 -0.092330 0.432000 41 70 36
-0.041863 -0.092330 0.432000 45 74 40
-0.040742 -0.092330 0.432000 26 52 28
-0.048808 -0.091631 0.434000 15 28 15
-0.047573 -0.091419 0.433000 50 72 45
-0.046450 -0.091419 0.433000 53 75 48
-0.045328 -0.091419 0.433000 48 73 36
-0.044103 -0.091208 0.432000 45 70 33
-0.042983 -0.091208 0.432000 43 72 31
-0.041863 -0.091208 0.432000 44 73 32
-0.040742 -0.091208 0.432000 42 66 36
-0.061176 -0.140824 0.667000 12 36 6
-0.047573 -0.090295 0.433000 25 46 24
-0.046450 -0.090295 0.433000 52 73 51
-0.045223 -0.090087 0.432000 53 78 41
-0.044103 -0.090087 0.432000 53 78 41
-0.042983 -0.090087 0.432000 49 75 31
-0.041863 -0.090087 0.432000 46 72 28
-0.040742 -0.090087 0.432000 47 73 33
-0.047573 -0.089171 0.433000 8 28 11
-0.046343 -0.088965 0.432000 26 46 29
-0.045223 -0.088965 0.432000 59 82 48
-0.044103 -0.088965 0.432000 53 76 42
-0.042983 -0.088965 0.432000 48 72 29
-0.041766 -0.088759 0.431000 46 70 27
-0.040648 -0.088759 0.431000 48 72 29
-0.039530 -0.088759 0.431000 47 71 28
-0.046343 -0.087843 0.432000 14 29 13
-0.045223 -0.087843 0.432000 50 72 41
-0.044103 -0.087843 0.432000 59 81 50
-0.042983 -0.087843 0.432000 49 73 30
-0.041766 -0.087640 0.431000 47 71 28
-0.040648 -0.087640 0.431000 47 71 28
-0.039439 -0.087437 0.430000 46 70 27
-0.038324 -0.087437 0.430000 48 71 37
-0.037209 -0.087437 0.430000 25 48 14
-0.045223 -0.086722 0.432000 12 31 5
-0.044001 -0.086521 0.431000 57 76 50
-0.042883 -0.086521 0.431000 56 80 39
-0.041766 -0.086521 0.431000 49 73 32
-0.040554 -0.086320 0.430000 47 72 26
-0.039439 -0.086320 0.430000 46 71 25
-0.038235 -0.086119 0.429000 46 72 32
-0.037122 -0.086119 0.429000 44 70 30
-0.036010 -0.086119 0.429000 21 39 16
-0.045223 -0.085600 0.432000 15 29 9
-0.044001 -0.085402 0.431000 26 40 20
-0.042883 -0.085402 0.431000 61 81 48
-0.041669 -0.085204 0.430000 56 76 43
-0.040554 -0.085204 0.430000 48 72 29
-0.039439 -0.085204 0.430000 47 71 28
-0.038235 -0.085006 0.429000 46 72 32
-0.037122 -0.085006 0.429000 44 70 30
-0.035926 -0.084807 0.428000 46 68 39
-0.044001 -0.084283 0.431000 12 22 10
-0.042784 -0.084087 0.430000 37 56 30
-0.041669 -0.084087 0.430000 62 81 55
-0.040554 -0.084087 0.430000 52 76 37
-0.039347 -0.083892 0.429000 48 72 33
-0.038235 -0.083892 0.429000 46 72 30
-0.037122 -0.083892 0.429000 45 71 29
-0.035926 -0.083696 0.428000 46 70 38
-0.034816 -0.083696 0.428000 34 58 26
-0.042784 -0.082971 0.430000 13 30 14
-0.041572 -0.082778 0.429000 42 59 43
-0.040459 -0.082778 0.429000 62 85 49
-0.039347 -0.082778 0.429000 52 75 39
-0.038146 -0.082585 0.428000 48 74 32
-0.037036 -0.082585 0.428000 46 72 30
-0.035926 -0.082585 0.428000 44 72 34
-0.034816 -0.082585 0.428000 39 67 29
-0.040459 -0.081664 0.429000 52 71 41
-0.039255 -0.081474 0.428000 56 75 45
-0.038146 -0.081474 0.428000 51 77 37
-0.037036 -0.081474 0.428000 48 74 34
-0.035926 -0.081474 0.428000 47 73 33
-0.034816 -0.081474 0.428000 48 74 34
-0.040365 -0.080362 0.428000 20 35 10
-0.039255 -0.080362 0.428000 62 77 52
-0.038146 -0.080362 0.428000 55 79 40
-0.036949 -0.080175 0.427000 52 76 37
-0.035842 -0.080175 0.427000 49 75 33
-0.034735 -0.080175 0.427000 48 74 32
-0.039255 -0.079251 0.428000 34 43 25
-0.038056 -0.079066 0.427000 65 83 48
-0.036949 -0.079066 0.427000 56 74 39
-0.035842 -0.079066 0.427000 52 76 35
-0.034735 -0.079066 0.427000 50 74 33
-0.039164 -0.077957 0.427000 24 29 15
-0.038056 -0.077957 0.427000 50 65 36
-0.036949 -0.077957 0.427000 65 80 51
-0.035842 -0.077957 0.427000 53 77 38
-0.034735 -0.077957 0.427000 52 76 37
-0.033628 -0.077957 0.427000 46 75 34
-0.032520 -0.077957 0.427000 44 73 32
-0.038056 -0.076849 0.427000 26 37 16
-0.036949 -0.076849 0.427000 62 73 52
-0.035842 -0.076849 0.427000 54 77 41
-0.034735 -0.076849 0.427000 50 73 37
-0.033628 -0.076849 0.427000 45 76 34
-0.032520 -0.076849 0.427000 43 74 32
-0.050026 -0.122382 0.680000 41 72 38
-0.048262 -0.122382 0.680000 36 67 33
-0.046568 -0.122562 0.681000 19 37 14
-0.036949 -0.075740 0.427000 33 46 31
-0.035842 -0.075740 0.427000 59 81 52
-0.034735 -0.075740 0.427000 54 76 47
-0.033549 -0.075563 0.426000 45 73 35
-0.032444 -0.075563 0.426000 44 72 34
-0.031340 -0.075563 0.426000 40 72 35
-0.030235 -0.075563 0.426000 39 71 34
-0.046568 -0.120794 0.681000 34 56 29
-0.036949 -0.074631 0.427000 11 24 11
-0.035758 -0.074456 0.426000 35 53 30
-0.034653 -0.074456 0.426000 61 79 56
-0.033549 -0.074456 0.426000 49 74 39
-0.032444 -0.074456 0.426000 47 72 37
-0.031266 -0.074282 0.425000 46 74 36
-0.030235 -0.074456 0.426000 45 73 35
-0.046636 -0.119200 0.682000 50 72 43
-0.044868 -0.119200 0.682000 25 47 18
-0.035758 -0.073350 0.426000 16 32 11
-0.034653 -0.073350 0.426000 50 66 45
-0.033549 -0.073350 0.426000 59 79 46
-0.032368 -0.073178 0.425000 55 75 42
-0.031266 -0.073178 0.425000 49 74 39
-0.030164 -0.073178 0.425000 46 71 36
-0.046636 -0.117430 0.682000 47 69 38
-0.044933 -0.117602 0.683000 36 58 27
-0.043162 -0.117602 0.683000 23 38 13
-0.034653 -0.072244 0.426000 29 42 27
-0.033470 -0.072075 0.425000 65 82 52
-0.032368 -0.072075 0.425000 57 74 44
-0.031192 -0.071905 0.424000 54 74 41
-0.030093 -0.071905 0.424000 50 70 37
-0.028994 -0.071905 0.424000 48 71 37
-0.044933 -0.115828 0.683000 49 72 38
-0.043226 -0.115998 0.684000 44 61 33
-0.034572 -0.070971 0.425000 11 21 9
-0.033470 -0.070971 0.425000 44 59 32
-0.032368 -0.070971 0.425000 65 80 53
-0.031192 -0.070804 0.424000 60 78 43
-0.030093 -0.070804 0.424000 53 71 36
-0.028925 -0.070637 0.423000 50 73 37
-0.027828 -0.070637 0.423000 52 75 39
-0.043289 -0.114389 0.685000 55 75 42
-0.041573 -0.114556 0.686000 36 56 23
-0.033470 -0.069868 0.425000 15 29 7
-0.032292 -0.069703 0.424000 52 66 44
-0.031119 -0.069539 0.423000 65 83 48
-0.030022 -0.069539 0.423000 57 75 40
-0.028925 -0.069539 0.423000 50 73 37
-0.027828 -0.069539 0.423000 49 72 36
-0.026668 -0.069375 0.422000 48 73 38
-0.039852 -0.112939 0.687000 23 42 16
-0.032216 -0.068441 0.423000 30 43 26
-0.031119 -0.068441 0.423000 65 83 50
-0.030022 -0.068441 0.423000 56 74 41
-0.028925 -0.068441 0.423000 53 76 40
-0.027763 -0.068279 0.422000 52 75 39
-0.026668 -0.068279 0.422000 48 73 36
-0.041634 -0.111156 0.687000 48 73 36
-0.039852 -0.111156 0.687000 41 65 35
-0.031119 -0.067342 0.423000 43 62 36
-0.029951 -0.067183 0.422000 62 81 55
-0.028857 -0.067183 0.422000 54 79 42
-0.027763 -0.067183 0.422000 53 78 41
-0.026668 -0.067183 0.422000 46 74 36
-0.025574 -0.067183 0.422000 47 75 37
-0.024422 -0.067024 0.421000 50 77 44
-0.038126 -0.109531 0.688000 16 43 10
-0.031045 -0.066088 0.422000 10 28 7
-0.029951 -0.066088 0.422000 51 69 48
-0.028857 -0.066088 0.422000 58 83 48
-0.027763 -0.066088 0.422000 54 79 44
-0.026605 -0.065931 0.421000 49 77 39
-0.025514 -0.065931 0.421000 49 77 39
-0.024422 -0.065931 0.421000 45 73 37
-0.038182 -0.107901 0.689000 42 70 34
-0.036395 -0.107901 0.689000 26 44 21
-0.029951 -0.064992 0.422000 29 44 28
-0.028788 -0.064838 0.421000 62 84 55
-0.027697 -0.064838 0.421000 56 78 49
-0.026605 -0.064838 0.421000 50 78 42
-0.025514 -0.064838 0.421000 51 79 43
-0.024422 -0.064838 0.421000 50 78 40
-0.023330 -0.064838 0.421000 47 75 37
-0.036448 -0.106266 0.690000 39 61 34
-0.028788 -0.063745 0.421000 42 60 37
-0.027697 -0.063745 0.421000 63 81 58
-0.026605 -0.063745 0.421000 54 79 42
-0.025453 -0.063593 0.420000 51 76 39
-0.024364 -0.063593 0.420000 52 77 40
-0.023275 -0.063593 0.420000 52 77 40
-0.022186 -0.063593 0.420000 54 76 45
-0.034659 -0.104475 0.690000 22 44 13
-0.028788 -0.062652 0.421000 16 29 12
-0.027697 -0.062652 0.421000 64 77 60
-0.026605 -0.062652 0.421000 59 82 48
-0.025453 -0.062503 0.420000 50 73 39
-0.024364 -0.062503 0.420000 49 75 35
-0.023275 -0.062503 0.420000 48 74 34
-0.022186 -0.062503 0.420000 46 71 36
-0.034659 -0.102683 0.690000 46 71 36
-0.027631 -0.061412 0.420000 27 40 27
-0.026542 -0.061412 0.420000 68 86 53
-0.025453 -0.061412 0.420000 57 75 42
-0.024364 -0.061412 0.420000 51 77 37
-0.023275 -0.061412 0.420000 51 77 37
-0.022186 -0.061412 0.420000 45 73 37
-0.034709 -0.101038 0.691000 43 71 35
-0.032917 -0.101038 0.691000 24 48 20
-0.027631 -0.060322 0.420000 14 24 12
-0.026542 -0.060322 0.420000 54 73 45
-0.025453 -0.060322 0.420000 59 78 50
-0.024306 -0.060178 0.419000 56 82 42
-0.023219 -0.060178 0.419000 53 79 39
-0.036501 -0.099244 0.691000 46 76 37
-0.034709 -0.099244 0.691000 43 73 34
-0.032917 -0.099244 0.691000 44 73 41
-0.031126 -0.099244 0.691000 9 38 6
-0.026542 -0.059231 0.420000 25 41 18
-0.025453 -0.059231 0.420000 67 83 60
-0.024306 -0.059090 0.419000 58 83 46
-0.023219 -0.059090 0.419000 54 79 42
-0.022133 -0.059090 0.419000 50 79 38
-0.034709 -0.097450 0.691000 49 78 37
-0.032917 -0.097450 0.691000 50 77 44
-0.031126 -0.097450 0.691000 44 71 38
-0.025392 -0.058002 0.419000 37 50 33
-0.024306 -0.058002 0.419000 65 88 54
-0.023219 -0.058002 0.419000 55 78 44
-0.022133 -0.058002 0.419000 52 78 38
-0.021046 -0.058002 0.419000 52 78 38
-0.019960 -0.058002 0.419000 49 74 37
-0.018874 -0.058002 0.419000 53 78 41
-0.029334 -0.095656 0.691000 23 42 16
-0.025392 -0.056915 0.419000 12 25 12
-0.024306 -0.056915 0.419000 63 80 52
-0.023219 -0.056915 0.419000 64 81 53
-0.022133 -0.056915 0.419000 54 77 41
-0.021046 -0.056915 0.419000 55 78 42
-0.019960 -0.056915 0.419000 53 79 39
-0.018874 -0.056915 0.419000 51 77 37
-0.017787 -0.056915 0.419000 47 66 38
-0.024306 -0.055827 0.419000 36 47 26
-0.023219 -0.055827 0.419000 72 83 62
-0.022133 -0.055827 0.419000 59 79 44
-0.021046 -0.055827 0.419000 58 78 43
-0.019960 -0.055827 0.419000 54 80 40
-0.018874 -0.055827 0.419000 51 77 37
-0.017787 -0.055827 0.419000 52 76 44
-0.027542 -0.092067 0.691000 34 58 26
-0.024306 -0.054739 0.419000 19 27 12
-0.023219 -0.054739 0.419000 65 73 58
-0.022080 -0.054608 0.418000 65 83 50
-0.021046 -0.054739 0.419000 60 78 45
-0.019912 -0.054608 0.418000 51 80 39
-0.018829 -0.054608 0.418000 49 78 37
-0.017787 -0.054739 0.419000 48 77 43
-0.027542 -0.090273 0.691000 48 77 43
-0.038403 -0.088735 0.693000 42 47 35
-0.022080 -0.053523 0.418000 72 87 60
-0.020996 -0.053523 0.418000 65 80 53
-0.019912 -0.053523 0.418000 52 82 43
-0.018829 -0.053523 0.418000 52 82 43
-0.017745 -0.053523 0.418000 47 79 42
-0.016661 -0.053523 0.418000 48 80 43
-0.025788 -0.088607 0.692000 24 47 24
-0.038459 -0.087061 0.694000 19 20 11
-0.022080 -0.052438 0.418000 55 70 45
-0.020996 -0.052438 0.418000 70 85 60
-0.019912 -0.052438 0.418000 56 86 49
-0.018829 -0.052438 0.418000 55 85 48
-0.017745 -0.052438 0.418000 47 82 44
-0.016661 -0.052438 0.418000 47 82 44
-0.025788 -0.086810 0.692000 50 77 48
-0.023993 -0.086810 0.692000 10 37 8
-0.036659 -0.085259 0.694000 28 39 18
-0.020996 -0.051352 0.418000 76 87 66
-0.019912 -0.051352 0.418000 58 85 52
-0.018829 -0.051352 0.418000 58 85 52
-0.017745 -0.051352 0.418000 55 87 50
-0.016621 -0.051229 0.417000 53 85 48
-0.015577 -0.051352 0.418000 60 87 56
-0.024028 -0.085137 0.693000 29 56 25
-0.020996 -0.050267 0.418000 59 69 53
-0.019912 -0.050267 0.418000 65 87 56
-0.018783 -0.050147 0.417000 61 83 52
-0.017702 -0.050147 0.417000 58 88 51
-0.016621 -0.050147 0.417000 56 86 49
-0.015540 -0.050147 0.417000 56 83 50
-0.024028 -0.083337 0.693000 50 77 44
-0.022231 -0.083337 0.693000 23 40 22
-0.020996 -0.049182 0.418000 19 27 16
-0.019865 -0.049064 0.417000 73 90 60
-0.018783 -0.049064 0.417000 65 82 52
-0.017702 -0.049064 0.417000 58 86 48
-0.016621 -0.049064 0.417000 56 84 46
-0.015540 -0.049064 0.417000 50 80 43
-0.014458 -0.049064 0.417000 53 83 46
-0.022263 -0.081656 0.694000 33 54 30
-0.019865 -0.047981 0.417000 54 66 42
-0.018783 -0.047981 0.417000 77 89 65
-0.017702 -0.047981 0.417000 61 86 49
-0.016621 -0.047981 0.417000 60 85 48
-0.015540 -0.047981 0.417000 53 85 46
-0.014458 -0.047981 0.417000 50 82 43
-0.013377 -0.047981 0.417000 62 86 56
-0.020493 -0.079969 0.695000 26 50 20
-0.019865 -0.046899 0.417000 20 31 12
-0.018783 -0.046899 0.417000 72 83 64
-0.017702 -0.046899 0.417000 62 85 51
-0.016621 -0.046899 0.417000 61 84 50
-0.015502 -0.046786 0.416000 56 86 47
-0.014424 -0.046786 0.416000 55 85 46
-0.013345 -0.046786 0.416000 59 87 51
-0.012266 -0.046786 0.416000 44 72 36
-0.018783 -0.045816 0.417000 38 48 36
-0.017660 -0.045706 0.416000 72 91 61
-0.016581 -0.045706 0.416000 65 84 54
-0.015502 -0.045706 0.416000 58 88 49
-0.014424 -0.045706 0.416000 57 87 48
-0.013345 -0.045706 0.416000 56 87 45
-0.012266 -0.045706 0.416000 59 90 48
-0.011188 -0.045706 0.416000 19 37 14
-0.018738 -0.044626 0.416000 20 29 20
-0.017660 -0.044626 0.416000 68 85 57
-0.016581 -0.044626 0.416000 69 86 58
-0.015502 -0.044626 0.416000 59 90 48
-0.014424 -0.044626 0.416000 57 88 46
-0.013345 -0.044626 0.416000 54 87 45
-0.012266 -0.044626 0.416000 63 96 54
-0.011188 -0.044626 0.416000 46 70 40
-0.017660 -0.043546 0.416000 41 55 33
-0.016581 -0.043546 0.416000 76 90 68
-0.015502 -0.043546 0.416000 61 90 49
-0.014424 -0.043546 0.416000 60 89 48
-0.013345 -0.043546 0.416000 57 90 46
-0.012266 -0.043546 0.416000 56 89 45
-0.011188 -0.043546 0.416000 61 86 49
-0.017035 -0.073379 0.701000 27 52 15
-0.016581 -0.042466 0.416000 61 74 59
-0.015502 -0.042466 0.416000 73 99 59
-0.014424 -0.042466 0.416000 64 90 50
-0.013345 -0.042466 0.416000 55 91 44
-0.012266 -0.042466 0.416000 53 89 42
-0.011188 -0.042466 0.416000 62 91 48
-0.017059 -0.071661 0.702000 50 79 36
-0.016581 -0.041386 0.416000 30 45 31
-0.015502 -0.041386 0.416000 77 99 68
-0.014424 -0.041386 0.416000 67 89 58
-0.013345 -0.041386 0.416000 60 91 45
-0.012266 -0.041386 0.416000 60 91 45
-0.011188 -0.041386 0.416000 61 90 49
-0.010109 -0.041386 0.416000 60 89 48
-0.015239 -0.069838 0.702000 19 38 10
-0.027981 -0.068016 0.702000 15 28 15
-0.015502 -0.040305 0.416000 67 86 60
-0.014424 -0.040305 0.416000 73 92 66
-0.013345 -0.040305 0.416000 68 94 52
-0.012266 -0.040305 0.416000 66 92 50
-0.011188 -0.040305 0.416000 61 92 48
-0.010109 -0.040305 0.416000 64 95 51
-0.015260 -0.068112 0.703000 56 78 49
-0.015502 -0.039225 0.416000 37 55 32
-0.014424 -0.039225 0.416000 77 95 72
-0.013345 -0.039225 0.416000 67 93 53
-0.012266 -0.039225 0.416000 64 90 50
-0.011188 -0.039225 0.416000 61 92 48
-0.010109 -0.039225 0.416000 60 91 47
-0.009030 -0.039225 0.416000 65 92 61
-0.013437 -0.066287 0.703000 21 48 17
-0.015502 -0.038145 0.416000 16 32 11
-0.014424 -0.038145 0.416000 67 83 62
-0.013345 -0.038145 0.416000 71 97 57
-0.012266 -0.038145 0.416000 68 94 54
-0.011188 -0.038145 0.416000 63 94 50
-0.010109 -0.038145 0.416000 64 95 51
-0.009030 -0.038145 0.416000 65 93 55
-0.013437 -0.064462 0.703000 38 66 28
-0.014424 -0.037065 0.416000 44 57 40
-0.013345 -0.037065 0.416000 72 95 59
-0.012266 -0.037065 0.416000 69 92 56
-0.011188 -0.037065 0.416000 65 94 49
-0.010085 -0.036976 0.415000 67 96 51
-0.009030 -0.037065 0.416000 66 95 52
-0.007952 -0.037065 0.416000 62 91 48
-0.011615 -0.062637 0.703000 28 50 23
-0.014424 -0.035985 0.416000 20 33 18
-0.013345 -0.035985 0.416000 72 95 61
-0.012237 -0.035899 0.415000 78 101 67
-0.011161 -0.035899 0.415000 65 94 49
-0.010085 -0.035899 0.415000 68 97 52
-0.009009 -0.035899 0.415000 65 94 51
-0.007932 -0.035899 0.415000 64 93 50
-0.011615 -0.060811 0.703000 45 67 38
-0.013345 -0.034905 0.416000 38 60 31
-0.012266 -0.034905 0.416000 81 103 74
-0.011161 -0.034821 0.415000 69 98 55
-0.010085 -0.034821 0.415000 67 96 53
-0.009009 -0.034821 0.415000 66 97 55
-0.007932 -0.034821 0.415000 61 92 50
-0.011615 -0.058986 0.703000 60 84 52
-0.009792 -0.058986 0.703000 19 43 11
-0.022616 -0.057323 0.705000 14 35 11
-0.012237 -0.033744 0.415000 79 100 76
-0.011161 -0.033744 0.415000 67 96 55
-0.010060 -0.033662 0.414000 64 93 52
-0.008987 -0.033662 0.414000 68 99 55
-0.007913 -0.033662 0.414000 65 96 52
-0.011631 -0.057242 0.704000 67 92 57
-0.009806 -0.057242 0.704000 40 65 30
-0.012207 -0.032587 0.414000 48 65 47
-0.011134 -0.032587 0.414000 76 105 64
-0.010060 -0.032587 0.414000 67 96 55
-0.008987 -0.032587 0.414000 69 98 53
-0.007913 -0.032587 0.414000 69 98 53
-0.011648 -0.055493 0.705000 74 99 62
-0.009820 -0.055493 0.705000 66 91 54
-0.007991 -0.055493 0.705000 23 41 18
-0.012207 -0.031512 0.414000 24 37 22
-0.011134 -0.031512 0.414000 78 98 63
-0.010060 -0.031512 0.414000 77 97 62
-0.008987 -0.031512 0.414000 73 100 53
-0.007913 -0.031512 0.414000 71 98 51
-0.006840 -0.031512 0.414000 73 100 53
-0.009833 -0.053739 0.706000 71 98 51
-0.008003 -0.053739 0.706000 33 55 26
-0.011134 -0.030437 0.414000 64 82 49
-0.010060 -0.030437 0.414000 85 103 70
-0.008965 -0.030364 0.413000 73 100 53
-0.007894 -0.030364 0.413000 74 101 54
-0.006823 -0.030364 0.413000 70 97 48
-0.005752 -0.030364 0.413000 70 97 48
-0.008026 -0.052052 0.708000 63 86 50
-0.006181 -0.051979 0.707000 12 35 0
-0.011134 -0.029363 0.414000 38 55 27
-0.010036 -0.029292 0.413000 87 104 76
-0.008965 -0.029292 0.413000 76 102 58
-0.007894 -0.029292 0.413000 74 100 56
-0.006823 -0.029292 0.413000 73 100 51
-0.005752 -0.029292 0.413000 71 98 49
-0.008048 -0.050356 0.710000 74 100 60
-0.006207 -0.050356 0.710000 39 65 25
-0.010036 -0.028219 0.413000 67 83 60
-0.008965 -0.028219 0.413000 80 106 64
-0.007894 -0.028219 0.413000 76 102 60
-0.006823 -0.028219 0.413000 72 102 54
-0.005752 -0.028219 0.413000 72 102 54
-0.008082 -0.048718 0.713000 76 102 58
-0.006225 -0.048649 0.712000 58 84 40
-0.010036 -0.027147 0.413000 37 52 34
-0.008965 -0.027147 0.413000 85 111 71
-0.007894 -0.027147 0.413000 76 102 62
-0.006823 -0.027147 0.413000 72 104 55
-0.005752 -0.027147 0.413000 73 105 56
-0.008094 -0.046932 0.714000 68 97 54
-0.006242 -0.046932 0.714000 74 103 60
-0.004391 -0.046932 0.714000 22 40 17
-0.017399 -0.045205 0.716000 11 24 11
-0.008965 -0.026075 0.413000 76 101 66
-0.007894 -0.026075 0.413000 80 105 70
-0.006823 -0.026075 0.413000 73 107 58
-0.005752 -0.026075 0.413000 71 105 56
-0.004682 -0.026075 0.413000 68 102 53
-0.006260 -0.045205 0.716000 76 110 61
-0.004397 -0.045141 0.715000 42 64 37
-0.008965 -0.025002 0.413000 34 56 25
-0.007894 -0.025002 0.413000 89 111 80
-0.006823 -0.025002 0.413000 73 106 60
-0.005752 -0.025002 0.413000 75 108 62
-0.004682 -0.025002 0.413000 69 106 56
-0.003611 -0.025002 0.413000 73 110 60
-0.004409 -0.043406 0.717000 58 82 50
-0.002546 -0.043346 0.716000 5 29 0
-0.008965 -0.023930 0.413000 13 32 6
-0.007894 -0.023930 0.413000 87 106 80
-0.006823 -0.023930 0.413000 79 110 64
-0.005752 -0.023930 0.413000 77 108 62
-0.004682 -0.023930 0.413000 73 107 58
-0.003611 -0.023930 0.413000 77 111 62
-0.004409 -0.041544 0.717000 75 100 65
-0.002550 -0.041544 0.717000 25 50 15
-0.007894 -0.022858 0.413000 61 77 56
-0.006823 -0.022858 0.413000 86 115 72
-0.005752 -0.022858 0.413000 76 105 62
-0.004682 -0.022858 0.413000 77 109 60
-0.003611 -0.022858 0.413000 77 109 60
-0.004409 -0.039683 0.717000 84 109 72
-0.002550 -0.039683 0.717000 62 87 50
-0.007894 -0.021785 0.413000 31 46 28
-0.006807 -0.021733 0.412000 94 120 80
-0.005739 -0.021733 0.412000 82 108 68
-0.004670 -0.021733 0.412000 77 109 60
-0.003602 -0.021733 0.412000 75 107 58
-0.002534 -0.021733 0.412000 76 105 62
-0.002550 -0.037821 0.717000 78 107 64
-0.000691 -0.037821 0.717000 15 36 12
-0.007894 -0.020713 0.413000 12 25 10
-0.006807 -0.020663 0.412000 82 107 70
-0.005739 -0.020663 0.412000 85 110 73
-0.004670 -0.020663 0.412000 77 111 60
-0.003602 -0.020663 0.412000 73 107 56
-0.002534 -0.020663 0.412000 74 105 61
-0.002554 -0.036010 0.718000 82 113 69
-0.000692 -0.036010 0.718000 49 71 44
-0.006807 -0.019593 0.412000 46 71 36
-0.005739 -0.019593 0.412000 95 120 85
-0.004670 -0.019593 0.412000 80 114 65
-0.003602 -0.019593 0.412000 78 112 63
-0.002534 -0.019593 0.412000 75 106 62
-0.001465 -0.019593 0.412000 81 112 68
-0.000692 -0.034145 0.718000 71 95 65
0.001172 -0.034193 0.719000 6 30 0
-0.006807 -0.018524 0.412000 29 51 24
-0.005739 -0.018524 0.412000 97 119 92
-0.004670 -0.018524 0.412000 86 119 73
-0.003602 -0.018524 0.412000 78 111 65
-0.002534 -0.018524 0.412000 74 110 63
-0.001465 -0.018524 0.412000 74 110 63
-0.000397 -0.018524 0.412000 81 108 75
0.001172 -0.032326 0.719000 24 51 18
-0.006807 -0.017454 0.412000 6 24 3
-0.005739 -0.017454 0.412000 81 99 78
-0.004670 -0.017454 0.412000 91 122 76
-0.003602 -0.017454 0.412000 85 116 70
-0.002534 -0.017454 0.412000 78 112 63
-0.001465 -0.017454 0.412000 76 110 61
-0.000397 -0.017454 0.412000 84 114 75
0.001173 -0.030502 0.720000 58 88 49
-0.005739 -0.016384 0.412000 49 66 50
-0.004670 -0.016384 0.412000 99 128 85
-0.003602 -0.016384 0.412000 87 116 73
-0.002534 -0.016384 0.412000 82 116 65
-0.001465 -0.016384 0.412000 76 110 59
-0.000397 -0.016384 0.412000 78 111 67
0.000671 -0.016384 0.412000 75 108 64
0.003044 -0.028672 0.721000 8 29 7
-0.005739 -0.015314 0.412000 18 33 19
-0.004670 -0.015314 0.412000 92 116 77
-0.003602 -0.015314 0.412000 90 114 75
-0.002534 -0.015314 0.412000 82 116 65
-0.001465 -0.015314 0.412000 80 114 63
-0.000397 -0.015314 0.412000 81 112 66
0.000671 -0.015314 0.412000 86 117 71
0.003049 -0.026837 0.722000 26 48 21
-0.004670 -0.014245 0.412000 75 98 62
-0.003602 -0.014245 0.412000 98 121 85
-0.002534 -0.014245 0.412000 88 121 67
-0.001465 -0.014245 0.412000 86 119 65
-0.000397 -0.014245 0.412000 82 115 61
0.000671 -0.014245 0.412000 85 118 64
0.003053 -0.024997 0.723000 59 78 48
-0.004670 -0.013175 0.412000 36 58 27
-0.003602 -0.013175 0.412000 103 125 94
-0.002534 -0.013175 0.412000 88 121 67
-0.001465 -0.013175 0.412000 86 119 65
-0.000397 -0.013175 0.412000 81 114 60
0.000671 -0.013175 0.412000 84 117 63
0.001740 -0.013175 0.412000 84 109 74
0.004941 -0.023184 0.725000 13 38 3
-0.004670 -0.012105 0.412000 11 32 8
-0.003602 -0.012105 0.412000 92 113 89
-0.002534 -0.012105 0.412000 91 123 72
-0.001469 -0.012135 0.413000 88 120 69
-0.000397 -0.012105 0.412000 83 118 62
0.000671 -0.012105 0.412000 82 117 61
0.001744 -0.012135 0.413000 92 121 80
0.004941 -0.021302 0.725000 29 58 17
-0.003602 -0.011035 0.412000 63 84 62
-0.002534 -0.011035 0.412000 96 128 79
-0.001469 -0.011062 0.413000 89 121 72
-0.000398 -0.011062 0.413000 83 121 64
0.000671 -0.011035 0.412000 81 119 62
0.001744 -0.011062 0.413000 85 118 74
0.002815 -0.011062 0.413000 49 82 38
-0.003602 -0.009966 0.412000 37 54 36
-0.002534 -0.009966 0.412000 99 130 84
-0.001469 -0.009990 0.413000 86 117 71
-0.000397 -0.009966 0.412000 83 121 66
0.000671 -0.009966 0.412000 80 118 63
0.001740 -0.009966 0.412000 82 116 67
0.004955 -0.017585 0.727000 77 111 62
0.006849 -0.017609 0.728000 20 38 15
-0.003602 -0.008896 0.412000 23 38 22
-0.002534 -0.008896 0.412000 94 123 80
-0.001469 -0.008918 0.413000 92 121 78
-0.000398 -0.008918 0.413000 88 126 71
0.000671 -0.008896 0.412000 81 119 64
0.001740 -0.008896 0.412000 84 118 69
0.002815 -0.008918 0.413000 89 123 74
0.006859 -0.015741 0.729000 30 49 21
-0.002534 -0.007826 0.412000 75 99 60
-0.001465 -0.007826 0.412000 100 124 85
-0.000398 -0.007845 0.413000 90 125 71
0.000671 -0.007826 0.412000 86 121 67
0.001740 -0.007826 0.412000 79 113 62
0.002808 -0.007826 0.412000 86 120 69
0.006859 -0.013848 0.729000 55 78 44
-0.002540 -0.006773 0.413000 44 64 29
-0.001465 -0.006757 0.412000 108 128 93
-0.000398 -0.006773 0.413000 91 124 70
0.000673 -0.006773 0.413000 88 121 67
0.001740 -0.006757 0.412000 80 115 61
0.002808 -0.006757 0.412000 85 120 66
0.006868 -0.011972 0.730000 81 106 71
0.008773 -0.011988 0.731000 9 34 0
-0.002540 -0.005701 0.413000 24 43 15
-0.001465 -0.005687 0.412000 105 124 96
-0.000398 -0.005701 0.413000 97 127 77
0.000673 -0.005701 0.413000 87 117 67
0.001740 -0.005687 0.412000 85 118 62
0.002808 -0.005687 0.412000 86 119 63
0.003886 -0.005701 0.413000 88 113 76
0.008773 -0.010090 0.731000 23 48 11
-0.001465 -0.004617 0.412000 87 105 82
-0.000398 -0.004628 0.413000 99 129 81
0.000673 -0.004628 0.413000 90 120 72
0.001740 -0.004617 0.412000 87 120 66
0.002808 -0.004617 0.412000 82 115 61
0.003886 -0.004628 0.413000 92 118 78
0.008785 -0.008203 0.732000 42 68 28
-0.002610 -0.006320 0.734000 52 69 53
-0.000706 -0.006311 0.733000 101 127 83
0.000673 -0.003556 0.413000 96 122 78
0.001740 -0.003547 0.412000 88 120 69
0.002815 -0.003556 0.413000 82 114 63
0.003886 -0.003556 0.413000 89 118 75
0.008785 -0.006303 0.732000 62 91 48
-0.001465 -0.002478 0.412000 25 38 25
-0.000397 -0.002478 0.412000 103 127 86
0.000673 -0.002484 0.413000 99 123 82
0.001740 -0.002478 0.412000 89 122 68
0.002808 -0.002478 0.412000 84 117 63
0.003876 -0.002478 0.412000 83 112 67
0.008797 -0.004408 0.733000 89 118 73
0.010698 -0.004408 0.733000 26 42 21
-0.000397 -0.001408 0.412000 95 116 78
0.000671 -0.001408 0.412000 108 129 91
0.001740 -0.001408 0.412000 93 126 72
0.002808 -0.001408 0.412000 85 118 64
0.003886 -0.001411 0.413000 85 115 67
0.008809 -0.002508 0.734000 95 125 77
0.010712 -0.002508 0.734000 38 56 33
-0.000398 -0.000339 0.413000 61 81 46
0.000671 -0.000338 0.412000 112 132 97
0.001740 -0.000338 0.412000 92 123 70
0.002815 -0.000339 0.413000 89 120 67
0.003886 -0.000339 0.413000 87 117 69
0.004957 -0.000339 0.413000 90 120 72
0.010727 -0.000603 0.735000 62 81 53
-0.000398 0.000733 0.413000 37 56 26
0.000673 0.000733 0.413000 111 130 100
0.001744 0.000733 0.413000 92 124 73
0.002815 0.000733 0.413000 92 124 73
0.003886 0.000733 0.413000 87 120 66
0.004957 0.000733 0.413000 84 117 63
0.010756 0.001309 0.737000 76 99 65
-0.000398 0.001806 0.413000 16 35 7
0.000673 0.001806 0.413000 105 124 96
0.001744 0.001806 0.413000 99 131 80
0.002815 0.001806 0.413000 92 124 73
0.003886 0.001806 0.413000 89 123 72
0.004957 0.001806 0.413000 83 117 66
0.010785 0.003231 0.739000 88 113 76
0.012684 0.003226 0.738000 23 48 11
0.000673 0.002878 0.413000 94 111 85
0.001744 0.002878 0.413000 98 130 79
0.002815 0.002878 0.413000 91 123 72
0.003886 0.002878 0.413000 84 119 65
0.004957 0.002878 0.413000 85 120 66
0.006027 0.002878 0.413000 96 121 84
0.012701 0.005150 0.739000 39 64 27
0.000673 0.003950 0.413000 61 77 54
0.001744 0.003950 0.413000 101 128 81
0.002815 0.003950 0.413000 92 119 72
0.003886 0.003950 0.413000 84 119 63
0.004957 0.003950 0.413000 82 117 61
0.006027 0.003950 0.413000 93 121 83
0.012736 0.007087 0.741000 69 97 59
0.000673 0.005023 0.413000 35 51 30
0.001744 0.005023 0.413000 110 137 90
0.002815 0.005023 0.413000 95 122 75
0.003886 0.005023 0.413000 89 122 66
0.004957 0.005023 0.413000 87 120 64
0.006027 0.005023 0.413000 95 124 81
0.012736 0.009011 0.741000 81 110 67
0.000673 0.006095 0.413000 23 36 21
0.001744 0.006095 0.413000 105 131 87
0.002815 0.006095 0.413000 102 128 84
0.003886 0.006095 0.413000 91 124 70
0.004957 0.006095 0.413000 88 121 67
0.006027 0.006095 0.413000 87 118 72
0.012753 0.010950 0.742000 91 122 76
0.014657 0.010935 0.741000 25 47 20
0.001744 0.007167 0.413000 84 110 68
0.002815 0.007167 0.413000 105 131 89
0.003886 0.007167 0.413000 89 124 70
0.004957 0.007167 0.413000 87 122 68
0.006027 0.007167 0.413000 82 116 67
0.012770 0.012894 0.743000 89 123 74
0.014677 0.012877 0.742000 45 69 41
0.001744 0.008239 0.413000 71 100 59
0.002815 0.008239 0.413000 107 136 95
0.003886 0.008239 0.413000 92 127 73
0.004957 0.008239 0.413000 89 124 70
0.006027 0.008239 0.413000 81 118 68
0.007098 0.008239 0.413000 82 119 69
0.014697 0.014823 0.743000 58 87 55
0.001744 0.009312 0.413000 54 79 42
0.002815 0.009312 0.413000 109 134 97
0.003886 0.009312 0.413000 96 131 77
0.004969 0.009334 0.414000 89 124 70
0.006042 0.009334 0.414000 83 120 68
0.007098 0.009312 0.413000 81 118 66
0.014697 0.016752 0.743000 78 105 72
0.001744 0.010384 0.413000 21 45 13
0.002815 0.010384 0.413000 110 134 102
0.003886 0.010384 0.413000 100 132 81
0.004969 0.010409 0.414000 92 124 73
0.006027 0.010384 0.413000 85 123 68
0.007116 0.010409 0.414000 81 119 64
0.014717 0.018707 0.744000 92 120 82
0.016646 0.018707 0.744000 17 45 7
0.001744 0.011456 0.413000 10 34 6
0.002815 0.011456 0.413000 101 125 97
0.003886 0.011456 0.413000 100 130 82
0.004969 0.011484 0.414000 94 124 76
0.006027 0.011456 0.413000 86 120 69
0.007116 0.011484 0.414000 83 117 66
0.014717 0.020638 0.744000 94 122 84
0.016646 0.020638 0.744000 43 71 33
0.002815 0.012529 0.413000 81 99 78
0.003886 0.012529 0.413000 108 137 92
0.004969 0.012559 0.414000 95 124 79
0.006027 0.012529 0.413000 87 121 70
0.007116 0.012559 0.414000 83 117 66
0.014736 0.022600 0.745000 86 114 76
0.016668 0.022600 0.745000 67 95 57
0.002815 0.013601 0.413000 58 71 54
0.003886 0.013601 0.413000 112 138 94
0.004957 0.013601 0.413000 97 123 79
0.006042 0.013634 0.414000 86 120 69
0.007116 0.013634 0.414000 82 116 65
0.008189 0.013634 0.414000 82 113 71
0.016691 0.024568 0.746000 74 105 63
0.002815 0.014673 0.413000 43 56 41
0.003886 0.014673 0.413000 109 135 91
0.004957 0.014673 0.413000 103 129 85
0.006042 0.014709 0.414000 87 122 68
0.007116 0.014709 0.414000 86 121 67
0.008189 0.014709 0.414000 85 116 70
0.016691 0.026504 0.746000 82 113 67
0.018625 0.026504 0.746000 24 45 21
0.002815 0.015746 0.413000 26 34 21
0.003886 0.015746 0.413000 100 124 83
0.004957 0.015746 0.413000 107 131 90
0.006042 0.015784 0.414000 90 125 71
0.007116 0.015784 0.414000 86 121 67
0.008189 0.015784 0.414000 86 118 69
0.016691 0.028441 0.746000 88 120 71
0.018625 0.028441 0.746000 27 49 22
0.003886 0.016818 0.413000 85 106 68
0.004957 0.016818 0.413000 111 132 94
0.006042 0.016859 0.414000 94 127 73
0.007116 0.016859 0.414000 88 121 67
0.008189 0.016859 0.414000 87 119 68
0.016691 0.030378 0.746000 93 125 74
0.018625 0.030378 0.746000 35 54 28
0.003886 0.017890 0.413000 65 83 48
0.004969 0.017934 0.414000 117 135 100
0.006042 0.017934 0.414000 95 128 74
0.007116 0.017934 0.414000 89 122 68
0.008189 0.017934 0.414000 87 119 68
0.009263 0.017934 0.414000 93 125 74
0.018650 0.032359 0.747000 41 60 32
0.003886 0.018963 0.413000 52 70 37
0.004969 0.019009 0.414000 117 135 102
0.006042 0.019009 0.414000 97 128 75
0.007116 0.019009 0.414000 92 123 70
0.008189 0.019009 0.414000 86 116 66
0.009263 0.019009 0.414000 93 123 73
0.018650 0.034298 0.747000 58 77 47
0.003895 0.020083 0.414000 28 45 17
0.004969 0.020083 0.414000 115 132 104
0.006042 0.020083 0.414000 100 131 78
0.007116 0.020083 0.414000 93 124 71
0.008189 0.020083 0.414000 86 119 65
0.009263 0.020083 0.414000 86 119 65
0.018675 0.036286 0.748000 79 99 66
0.003895 0.021158 0.414000 20 38 15
0.004969 0.021158 0.414000 104 122 99
0.006042 0.021158 0.414000 104 134 84
0.007133 0.021210 0.415000 94 124 74
0.008209 0.021210 0.415000 89 122 68
0.009285 0.021210 0.415000 92 125 71
0.018675 0.038228 0.748000 93 113 80
0.020614 0.038228 0.748000 27 47 14
0.004969 0.022233 0.414000 96 112 91
0.006057 0.022287 0.415000 107 139 90
0.007133 0.022287 0.415000 92 124 75
0.008209 0.022287 0.415000 88 121 67
0.009285 0.022287 0.415000 88 121 67
0.010361 0.022287 0.415000 95 118 82
0.020614 0.040170 0.748000 33 56 20
0.004981 0.023365 0.415000 78 96 75
0.006057 0.023365 0.415000 101 135 86
0.007133 0.023365 0.415000 92 126 77
0.008209 0.023365 0.415000 87 122 68
0.009285 0.023365 0.415000 89 124 70
0.018725 0.042225 0.750000 96 121 84
0.011465 0.023421 0.416000 46 71 34
0.004981 0.024442 0.415000 66 83 65
0.006057 0.024442 0.415000 100 133 87
0.012925 0.044290 0.752000 92 125 79
0.008229 0.024501 0.416000 89 124 70
0.009307 0.024501 0.416000 83 118 64
0.010386 0.024501 0.416000 95 123 85
0.011465 0.024501 0.416000 53 81 43
0.009061 0.046427 0.755000 52 67 51
0.006071 0.025581 0.416000 105 138 94
0.007150 0.025581 0.416000 97 130 86
0.008229 0.025581 0.416000 87 125 70
0.009307 0.025581 0.416000 83 121 66
0.010386 0.025581 0.416000 91 123 84
0.011465 0.025581 0.416000 63 95 56
0.004993 0.026661 0.416000 31 46 32
0.006071 0.026661 0.416000 107 138 94
0.007150 0.026661 0.416000 99 130 86
0.008248 0.026725 0.417000 87 125 70
0.009330 0.026725 0.417000 83 121 66
0.010386 0.026661 0.416000 87 123 80
0.011492 0.026725 0.417000 66 102 59
0.005005 0.027808 0.417000 21 36 22
0.006086 0.027808 0.417000 108 137 96
0.007167 0.027808 0.417000 102 131 90
0.008248 0.027808 0.417000 87 125 70
0.009330 0.027808 0.417000 83 121 66
0.010411 0.027808 0.417000 82 118 73
0.011492 0.027808 0.417000 73 109 64
0.022765 0.050348 0.755000 18 43 22
0.005005 0.028891 0.417000 17 31 20
0.006086 0.028891 0.417000 103 127 88
0.007167 0.028891 0.417000 111 135 96
0.008248 0.028891 0.417000 89 124 70
0.009330 0.028891 0.417000 86 121 67
0.010411 0.028891 0.417000 82 119 69
0.011492 0.028891 0.417000 89 126 76
0.012574 0.028891 0.417000 16 44 19
0.006086 0.029973 0.417000 98 118 83
0.007167 0.029973 0.417000 114 134 99
0.008248 0.029973 0.417000 92 125 71
0.009330 0.029973 0.417000 86 119 65
0.010411 0.029973 0.417000 82 119 67
0.011520 0.030045 0.418000 88 125 73
0.022825 0.054412 0.757000 40 67 38
0.006086 0.031056 0.417000 83 103 70
0.007184 0.031131 0.418000 114 134 101
0.008268 0.031131 0.418000 93 125 74
0.009352 0.031131 0.418000 87 119 68
0.010436 0.031131 0.418000 86 120 71
0.011520 0.031131 0.418000 90 124 75
0.022855 0.056452 0.758000 62 86 56
0.006100 0.032216 0.418000 62 81 51
0.007184 0.032216 0.418000 115 134 104
0.008268 0.032216 0.418000 92 125 79
0.009352 0.032216 0.418000 85 118 72
0.010436 0.032216 0.418000 85 118 74
0.011520 0.032216 0.418000 91 124 80
0.012604 0.032216 0.418000 77 96 68
0.006100 0.033301 0.418000 50 69 41
0.007184 0.033301 0.418000 114 133 105
0.008268 0.033301 0.418000 92 125 81
0.009352 0.033301 0.418000 82 115 71
0.010436 0.033301 0.418000 83 116 72
0.011520 0.033301 0.418000 91 124 80
0.012604 0.033301 0.418000 80 99 71
0.006100 0.034386 0.418000 43 62 34
0.007184 0.034386 0.418000 111 130 102
0.008268 0.034386 0.418000 95 126 82
0.009352 0.034386 0.418000 91 122 78
0.010436 0.034386 0.418000 84 117 73
0.011520 0.034386 0.418000 92 125 81
0.012604 0.034386 0.418000 83 102 74
0.006100 0.035472 0.418000 34 53 27
0.007184 0.035472 0.418000 111 130 104
0.008268 0.035472 0.418000 94 125 81
0.009352 0.035472 0.418000 91 122 78
0.010436 0.035472 0.418000 83 116 70
0.011520 0.035472 0.418000 86 119 73
0.012604 0.035472 0.418000 88 110 79
0.006100 0.036557 0.418000 29 47 24
0.007184 0.036557 0.418000 107 125 102
0.008268 0.036557 0.418000 99 132 88
0.009352 0.036557 0.418000 92 125 81
0.010436 0.036557 0.418000 82 116 67
0.011520 0.036557 0.418000 82 116 67
0.012604 0.036557 0.418000 91 115 83
0.024952 0.066642 0.762000 27 51 19
0.007184 0.037642 0.418000 102 123 101
0.008268 0.037642 0.418000 103 136 92
0.009352 0.037642 0.418000 92 125 81
0.010436 0.037642 0.418000 82 116 67
0.011520 0.037642 0.418000 87 121 72
0.012604 0.037642 0.418000 93 120 87
0.024952 0.068621 0.762000 31 58 25
0.007184 0.038728 0.418000 91 111 92
0.008268 0.038728 0.418000 104 137 91
0.009352 0.038728 0.418000 91 124 78
0.010436 0.038728 0.418000 80 114 65
0.011520 0.038728 0.418000 80 114 65
0.012604 0.038728 0.418000 95 119 87
0.024985 0.070692 0.763000 35 59 27
0.007184 0.039813 0.418000 77 94 76
0.008268 0.039813 0.418000 109 140 94
0.009352 0.039813 0.418000 100 131 85
0.010436 0.039813 0.418000 85 117 68
0.011520 0.039813 0.418000 82 114 65
0.012604 0.039813 0.418000 96 119 85
0.025017 0.072768 0.764000 39 62 28
0.007184 0.040898 0.418000 66 83 65
0.008268 0.040898 0.418000 110 141 97
0.009352 0.040898 0.418000 96 127 83
0.010436 0.040898 0.418000 86 118 67
0.011520 0.040898 0.418000 85 117 66
0.012604 0.040898 0.418000 99 119 86
0.025083 0.074947 0.766000 48 68 35
0.007184 0.041984 0.418000 62 80 59
0.008268 0.041984 0.418000 108 139 95
0.009352 0.041984 0.418000 95 126 82
0.010436 0.041984 0.418000 86 118 69
0.011520 0.041984 0.418000 84 116 67
0.012604 0.041984 0.418000 97 120 84
0.025116 0.077037 0.767000 65 88 52
0.007184 0.043069 0.418000 42 60 39
0.008268 0.043069 0.418000 108 139 95
0.009352 0.043069 0.418000 95 126 82
0.010436 0.043069 0.418000 88 120 71
0.011520 0.043069 0.418000 85 117 68
0.012604 0.043069 0.418000 97 120 84
0.025181 0.079234 0.769000 57 80 44
0.007184 0.044154 0.418000 33 50 32
0.008268 0.044154 0.418000 107 138 94
0.009352 0.044154 0.418000 95 126 82
0.010436 0.044154 0.418000 86 120 71
0.011520 0.044154 0.418000 82 116 67
0.012634 0.044260 0.419000 89 113 74
0.025279 0.081548 0.772000 63 87 48
0.007184 0.045239 0.418000 30 47 33
0.008288 0.045348 0.419000 106 137 95
0.009374 0.045348 0.419000 98 129 87
0.010461 0.045348 0.419000 89 122 76
0.011520 0.045239 0.418000 80 113 67
0.012634 0.045348 0.419000 88 113 76
0.025345 0.083769 0.774000 78 103 66
0.007202 0.046436 0.419000 28 44 33
0.008288 0.046436 0.419000 101 131 92
0.009374 0.046436 0.419000 95 125 86
0.010461 0.046436 0.419000 85 118 74
0.011547 0.046436 0.419000 80 113 69
0.012634 0.046436 0.419000 89 114 79
0.025378 0.085889 0.775000 88 113 78
0.007202 0.047523 0.419000 26 42 31
0.008308 0.047637 0.420000 94 124 87
0.009397 0.047637 0.420000 105 135 98
0.010486 0.047637 0.420000 83 116 72
0.011547 0.047523 0.419000 83 116 72
0.012664 0.047637 0.420000 85 113 75
0.025410 0.088015 0.776000 88 116 78
0.007219 0.048727 0.420000 23 39 28
0.008308 0.048727 0.420000 92 119 86
0.009397 0.048727 0.420000 104 131 98
0.010486 0.048727 0.420000 82 118 73
0.011575 0.048727 0.420000 80 116 71
0.012664 0.048727 0.420000 80 110 71
0.025443 0.090146 0.777000 88 118 79
0.027458 0.090146 0.777000 26 41 23
0.007219 0.049818 0.420000 23 38 33
0.008328 0.049936 0.421000 84 113 81
0.009419 0.049936 0.421000 102 131 99
0.010511 0.049936 0.421000 82 118 73
0.011575 0.049818 0.420000 78 114 69
0.012664 0.049818 0.420000 84 114 75
0.025443 0.092163 0.777000 89 119 80
0.027458 0.092163 0.777000 28 44 23
0.008328 0.051030 0.421000 78 107 75
0.009419 0.051030 0.421000 103 132 100
0.010511 0.051030 0.421000 82 118 75
0.011602 0.051030 0.421000 76 112 69
0.012694 0.051030 0.421000 82 114 75
0.025476 0.094302 0.778000 89 121 82
0.027493 0.094302 0.778000 32 48 27
0.008328 0.052123 0.421000 79 106 73
0.009419 0.052123 0.421000 108 135 102
0.010511 0.052123 0.421000 84 120 77
0.011602 0.052123 0.421000 78 114 71
0.012694 0.052123 0.421000 79 111 74
0.025476 0.096322 0.778000 90 122 85
0.027493 0.096322 0.778000 36 54 33
0.008328 0.053216 0.421000 73 100 69
0.009442 0.053342 0.422000 113 140 109
0.010536 0.053342 0.422000 90 123 81
0.011630 0.053342 0.422000 79 112 70
0.012724 0.053342 0.422000 78 110 73
0.025509 0.098468 0.779000 91 123 86
0.027529 0.098468 0.779000 45 63 42
0.008347 0.054438 0.422000 72 99 70
0.009442 0.054438 0.422000 104 131 102
0.010536 0.054438 0.422000 87 120 78
0.011630 0.054438 0.422000 79 112 70
0.012724 0.054438 0.422000 78 110 71
0.013819 0.054438 0.422000 90 122 83
0.014913 0.054438 0.422000 45 66 44
0.008347 0.055534 0.422000 67 94 65
0.009442 0.055534 0.422000 97 124 95
0.010536 0.055534 0.422000 84 116 77
0.011630 0.055534 0.422000 78 110 71
0.012724 0.055534 0.422000 78 110 71
0.013819 0.055534 0.422000 87 119 80
0.014913 0.055534 0.422000 50 68 45
0.008367 0.056763 0.423000 60 88 61
0.009464 0.056763 0.423000 98 126 99
0.010561 0.056763 0.423000 84 116 77
0.011658 0.056763 0.423000 78 110 71
0.012724 0.056629 0.422000 80 112 73
0.013819 0.056629 0.422000 96 128 89
0.027670 0.105073 0.783000 56 74 51
0.008367 0.057862 0.423000 60 88 61
0.009464 0.057862 0.423000 102 130 103
0.010561 0.057862 0.423000 84 116 77
0.011658 0.057862 0.423000 78 110 71
0.012754 0.057862 0.423000 81 111 72
0.013851 0.057862 0.423000 99 129 90
0.008367 0.058960 0.423000 56 84 57
0.009464 0.058960 0.423000 103 131 104
0.010561 0.058960 0.423000 83 115 76
0.011658 0.058960 0.423000 77 109 70
0.012754 0.058960 0.423000 79 111 72
0.013851 0.058960 0.423000 96 128 89
0.027811 0.109696 0.787000 56 77 53
0.008387 0.060200 0.424000 49 75 49
0.009486 0.060200 0.424000 96 122 96
0.010586 0.060200 0.424000 84 116 77
0.011685 0.060200 0.424000 78 110 71
0.012754 0.060058 0.423000 78 110 71
0.013851 0.060058 0.423000 96 128 89
0.027847 0.111882 0.788000 55 76 52
0.008387 0.061301 0.424000 39 65 39
0.009486 0.061301 0.424000 93 119 93
0.010586 0.061301 0.424000 83 115 78
0.011685 0.061301 0.424000 77 109 72
0.012785 0.061301 0.424000 76 111 73
0.013884 0.061301 0.424000 94 129 91
0.027882 0.114072 0.789000 56 79 54
0.008407 0.062549 0.425000 47 70 45
0.009509 0.062549 0.425000 95 118 93
0.010611 0.062549 0.425000 82 114 77
0.011713 0.062549 0.425000 75 107 70
0.012815 0.062549 0.425000 75 110 72
0.013917 0.062549 0.425000 95 130 92
0.027882 0.116121 0.789000 54 80 56
0.008407 0.063653 0.425000 48 69 45
0.009509 0.063653 0.425000 97 118 94
0.010611 0.063653 0.425000 84 114 77
0.011713 0.063653 0.425000 75 105 68
0.012815 0.063653 0.425000 75 110 72
0.013917 0.063653 0.425000 94 129 91
0.027953 0.118469 0.791000 49 76 54
0.008407 0.064756 0.425000 41 62 38
0.009509 0.064756 0.425000 100 121 97
0.010611 0.064756 0.425000 84 114 77
0.011713 0.064756 0.425000 73 103 66
0.012845 0.064908 0.426000 71 103 66
0.013950 0.064908 0.426000 80 112 75
0.027953 0.120523 0.791000 47 72 53
0.008407 0.065860 0.425000 40 58 35
0.009509 0.065860 0.425000 101 119 96
0.010611 0.065860 0.425000 80 110 73
0.011740 0.066015 0.426000 72 102 65
0.012845 0.066015 0.426000 66 98 61
0.013950 0.066015 0.426000 69 101 64
0.015054 0.066015 0.426000 39 64 45
0.008407 0.066963 0.425000 37 53 30
0.009509 0.066963 0.425000 99 115 92
0.010636 0.067121 0.426000 80 110 73
0.011740 0.067121 0.426000 74 104 67
0.012845 0.067121 0.426000 63 94 60
0.013950 0.067121 0.426000 68 99 65
0.008407 0.068067 0.425000 28 48 29
0.009531 0.068227 0.426000 93 113 94
0.010636 0.068227 0.426000 76 107 73
0.011740 0.068227 0.426000 71 102 68
0.012845 0.068227 0.426000 63 94 60
0.013982 0.068387 0.427000 65 96 62
0.009509 0.069170 0.425000 88 110 92
0.010636 0.069333 0.426000 72 103 71
0.011740 0.069333 0.426000 66 97 65
0.012875 0.069495 0.427000 56 87 55
0.013982 0.069495 0.427000 61 92 60
0.015089 0.069495 0.427000 27 47 30
0.009531 0.070439 0.426000 68 89 76
0.010636 0.070439 0.426000 69 100 68
0.011740 0.070439 0.426000 64 95 63
0.012875 0.070604 0.427000 59 90 58
0.013982 0.070604 0.427000 59 90 58
0.009531 0.071545 0.426000 33 54 43
0.010636 0.071545 0.426000 76 107 77
0.011768 0.071713 0.427000 64 95 65
0.012875 0.071713 0.427000 61 95 64
0.013982 0.071713 0.427000 38 72 41
0.009531 0.072651 0.426000 23 43 36
0.010636 0.072651 0.426000 72 100 73
0.011768 0.072821 0.427000 64 92 65
0.012875 0.072821 0.427000 56 89 61
0.013982 0.072821 0.427000 23 56 28
0.010636 0.073757 0.426000 67 95 70
0.011768 0.073930 0.427000 63 91 66
0.012875 0.073930 0.427000 54 84 59
0.013982 0.073930 0.427000 20 50 25
0.010636 0.074863 0.426000 68 89 67
0.011768 0.075039 0.427000 65 86 64
0.012875 0.075039 0.427000 49 70 46
