ply
format ascii 1.0
element vertex 1473
property float x
property float y
property float z
property uchar red
property uchar green
property uchar blue
end_header
0.330451 0.392624 0.504801 55 74 46
0.328833 0.392663 0.504529 59 84 49
0.327214 0.392701 0.504256 66 91 56
0.295594 0.258116 0.483664 56 88 51
0.293623 0.255040 0.482980 50 82 45
0.291893 0.252999 0.482454 40 71 37
0.297367 0.260664 0.485535 76 109 65
0.295383 0.257591 0.484841 71 107 60
0.293869 0.256588 0.484467 73 109 62
0.291460 0.251445 0.483462 73 111 63
0.289966 0.250440 0.483091 74 112 64
0.288699 0.250471 0.482877 77 110 68
0.305485 0.273444 0.489711 65 98 56
0.303678 0.271410 0.489162 64 100 55
0.299624 0.265272 0.487746 69 103 54
0.297155 0.260136 0.486719 71 105 56
0.295172 0.257067 0.486019 67 104 54
0.293659 0.256064 0.485642 68 105 55
0.291251 0.250926 0.484625 68 107 56
0.289759 0.249923 0.484251 67 106 55
0.288491 0.249953 0.484038 70 107 57
0.287006 0.248950 0.483666 73 110 60
0.305025 0.271871 0.490760 62 98 53
0.303222 0.269838 0.490207 57 93 48
0.301191 0.266773 0.489492 59 95 50
0.296944 0.259609 0.487904 66 99 53
0.294961 0.256542 0.487196 69 103 54
0.291717 0.253506 0.486276 71 105 56
0.289773 0.250438 0.485574 71 105 56
0.288283 0.249436 0.485199 73 107 56
0.286798 0.248433 0.484824 75 109 58
0.285105 0.246398 0.484290 73 107 56
0.283421 0.244362 0.483757 72 106 55
0.281957 0.243359 0.483386 75 112 62
0.304566 0.270299 0.491805 56 89 45
0.303005 0.269300 0.491415 61 94 52
0.300739 0.265206 0.490525 65 98 56
0.298962 0.263175 0.489972 64 95 53
0.297427 0.262175 0.489586 64 95 53
0.289565 0.249920 0.486738 83 112 67
0.288075 0.248918 0.486360 75 107 58
0.286807 0.248949 0.486146 77 109 60
0.285112 0.246915 0.485607 76 111 57
0.283427 0.244882 0.485069 77 112 58
0.281752 0.242848 0.484533 77 112 58
0.279675 0.238750 0.483674 78 113 59
0.277822 0.235684 0.482981 77 114 62
0.304350 0.269760 0.493015 57 86 43
0.302550 0.267731 0.492453 39 63 35
0.300288 0.263642 0.491554 19 43 15
0.298748 0.262643 0.491165 15 34 6
0.296520 0.258553 0.490272 16 35 7
0.294769 0.256523 0.489718 19 36 8
0.293254 0.255523 0.489334 25 42 14
0.291745 0.254523 0.488950 21 43 12
0.289356 0.249401 0.487901 43 65 34
0.287867 0.248401 0.487521 68 93 56
0.286600 0.248431 0.487307 75 100 63
0.284905 0.246400 0.486763 82 109 62
0.283221 0.244368 0.486220 81 108 61
0.281546 0.242337 0.485679 76 107 54
0.279471 0.238243 0.484812 79 110 57
0.277822 0.236211 0.484275 77 115 60
0.276184 0.234178 0.483741 80 118 63
0.273962 0.229052 0.482719 77 115 60
0.289810 0.251971 0.489571 13 27 7
0.287660 0.247884 0.488681 9 25 2
0.286392 0.247914 0.488468 16 32 9
0.284698 0.245885 0.487919 36 52 20
0.283014 0.243855 0.487372 64 80 48
0.280925 0.239766 0.486492 81 102 60
0.279267 0.237736 0.485949 88 109 67
0.277620 0.235706 0.485408 77 109 60
0.275982 0.233675 0.484869 80 112 63
0.273762 0.228554 0.483835 80 117 65
0.272348 0.227553 0.483465 81 118 66
0.270553 0.224492 0.482767 83 122 71
0.267760 0.222489 0.482033 88 124 77
0.284279 0.244341 0.488905 10 21 2
0.282598 0.242313 0.488354 14 25 6
0.281136 0.241315 0.487973 38 50 24
0.274981 0.229057 0.485325 83 108 71
0.273562 0.228057 0.484952 78 111 65
0.271954 0.226028 0.484412 82 115 69
0.270355 0.223999 0.483874 82 119 69
0.268767 0.221969 0.483338 82 119 69
0.267563 0.221998 0.483136 82 119 67
0.265990 0.219968 0.482602 85 122 70
0.264609 0.218967 0.482236 87 120 74
0.263234 0.217966 0.481870 69 102 56
0.278656 0.235694 0.488053 11 16 4
0.274781 0.228558 0.486444 47 63 40
0.271560 0.224504 0.485355 87 115 79
0.269965 0.222477 0.484813 83 117 68
0.268570 0.221478 0.484441 80 114 65
0.267366 0.221506 0.484238 83 117 66
0.265794 0.219479 0.483700 84 118 67
0.264413 0.218479 0.483331 83 120 68
0.262859 0.216450 0.482796 81 118 66
0.261668 0.216479 0.482595 85 114 69
0.275177 0.231140 0.488080 8 20 10
0.269768 0.221985 0.485917 80 106 66
0.268372 0.220986 0.485543 91 117 77
0.266796 0.218961 0.485000 87 117 67
0.265414 0.217962 0.484628 80 110 60
0.264036 0.216963 0.484257 78 113 59
0.262664 0.215964 0.483886 77 112 58
0.261297 0.214965 0.483517 79 112 58
0.260108 0.214994 0.483317 82 115 61
0.268175 0.220495 0.486646 62 80 57
0.266785 0.219498 0.486270 89 113 70
0.265218 0.217474 0.485723 85 109 66
0.263841 0.216476 0.485350 78 109 56
0.262469 0.215478 0.484977 74 105 52
0.261102 0.214480 0.484605 74 107 51
0.259741 0.213482 0.484235 78 111 55
0.258554 0.213510 0.484035 73 103 55
0.257201 0.212512 0.483665 68 98 50
0.267790 0.218979 0.487572 8 23 7
0.266403 0.217982 0.487195 33 50 20
0.264839 0.215961 0.486644 72 89 59
0.263465 0.214964 0.486268 86 109 59
0.262274 0.214992 0.486068 77 100 50
0.260907 0.213995 0.485694 68 99 42
0.259546 0.212998 0.485321 66 97 40
0.258360 0.213026 0.485121 65 95 45
0.257007 0.212029 0.484749 60 90 40
0.255329 0.208981 0.484035 64 90 50
0.343116 0.352442 0.520709 53 68 41
0.341039 0.350434 0.520067 67 82 55
0.264643 0.215473 0.487737 10 25 7
0.263270 0.214478 0.487359 47 63 31
0.261901 0.213482 0.486982 76 92 60
0.260713 0.213510 0.486782 72 97 49
0.259352 0.212514 0.486407 64 89 41
0.258166 0.212542 0.486207 63 91 39
0.256646 0.210522 0.485658 62 90 38
0.255136 0.208501 0.485111 54 84 36
0.253960 0.208529 0.484913 58 88 40
0.344492 0.357939 0.523285 31 47 26
0.341862 0.353892 0.522247 69 85 64
0.339520 0.350866 0.521406 63 87 55
0.261707 0.212997 0.488070 25 36 17
0.260518 0.213025 0.487870 66 86 51
0.259158 0.212030 0.487493 72 92 57
0.257971 0.212058 0.487293 60 87 40
0.256452 0.210040 0.486740 58 85 38
0.254943 0.208021 0.486188 54 84 36
0.253606 0.207025 0.485814 56 86 38
0.344585 0.370639 0.526732 54 75 53
0.343260 0.371697 0.526660 19 40 18
0.258963 0.211546 0.488579 56 72 51
0.257777 0.211574 0.488379 67 93 53
0.256259 0.209558 0.487821 60 86 46
0.254750 0.207541 0.487265 53 83 35
0.253414 0.206547 0.486888 53 83 35
0.252240 0.206575 0.486691 52 82 34
0.250911 0.205580 0.486316 49 79 31
0.249740 0.205608 0.486119 55 81 41
0.258769 0.211062 0.489665 9 23 12
0.257583 0.211090 0.489465 32 54 27
0.255734 0.207033 0.488539 57 79 52
0.254395 0.206040 0.488160 58 84 42
0.253221 0.206068 0.487963 53 79 37
0.252048 0.206096 0.487765 51 81 33
0.250719 0.205102 0.487388 51 81 33
0.249548 0.205130 0.487191 49 78 35
0.248227 0.204136 0.486815 45 74 31
0.246911 0.203142 0.486439 46 69 44
0.255872 0.208594 0.489983 22 39 25
0.254365 0.206582 0.489418 53 75 44
0.253029 0.205589 0.489037 59 81 50
0.251856 0.205617 0.488839 52 78 34
0.250527 0.204624 0.488460 51 77 33
0.249204 0.203632 0.488081 47 73 31
0.247886 0.202639 0.487703 45 71 29
0.246573 0.201646 0.487326 43 70 37
0.245410 0.201674 0.487130 45 72 39
0.254010 0.205082 0.490309 14 30 9
0.252837 0.205110 0.490111 43 59 38
0.251506 0.204119 0.489729 61 81 46
0.250181 0.203127 0.489347 54 74 39
0.248861 0.202136 0.488966 46 72 32
0.247545 0.201144 0.488586 45 71 31
0.246382 0.201171 0.488391 42 70 34
0.245075 0.200179 0.488012 43 71 35
0.243914 0.200207 0.487817 46 70 42
0.252645 0.204631 0.491185 12 24 14
0.251314 0.203641 0.490801 44 61 35
0.249989 0.202651 0.490417 61 78 52
0.248670 0.201660 0.490034 46 69 33
0.247355 0.200669 0.489651 43 66 30
0.246045 0.199678 0.489270 39 67 29
0.244884 0.199706 0.489075 40 68 30
0.243724 0.199733 0.488879 37 65 29
0.250966 0.202146 0.491683 11 26 10
0.249644 0.201156 0.491297 45 60 44
0.248327 0.200167 0.490912 55 74 44
0.247015 0.199177 0.490528 49 68 38
0.245855 0.199205 0.490333 44 69 32
0.244694 0.199232 0.490137 42 67 30
0.243393 0.198242 0.489755 42 70 32
0.242235 0.198270 0.489560 39 67 29
0.241077 0.198297 0.489365 36 65 35
0.248137 0.199692 0.491977 38 53 28
0.246825 0.198703 0.491591 57 72 47
0.245665 0.198731 0.491395 49 69 34
0.244361 0.197742 0.491010 50 70 35
0.243062 0.196753 0.490626 45 69 30
0.241907 0.196780 0.490431 45 69 30
0.240616 0.195791 0.490048 38 65 32
0.247796 0.198202 0.492849 15 20 6
0.246635 0.198230 0.492653 39 44 30
0.245329 0.197242 0.492265 63 76 45
0.244028 0.196254 0.491878 56 69 38
0.242873 0.196281 0.491684 50 69 31
0.241580 0.195293 0.491298 49 68 30
0.240427 0.195321 0.491104 39 67 29
0.246445 0.197756 0.493716 14 21 13
0.245139 0.196769 0.493325 38 50 26
0.243839 0.195782 0.492936 66 78 54
0.242544 0.194795 0.492548 58 75 38
0.241254 0.193808 0.492160 54 71 34
0.240103 0.193836 0.491966 40 66 26
0.243508 0.194297 0.493797 30 43 28
0.242216 0.193311 0.493407 61 79 46
0.241065 0.193339 0.493213 53 71 38
0.239781 0.192353 0.492824 43 66 30
0.238633 0.192380 0.492631 41 64 28
0.264602 0.405298 0.533312 36 65 31
0.262918 0.405339 0.533029 37 66 32
0.261357 0.406393 0.532939 35 64 34
0.259670 0.406433 0.532655 28 57 27
0.241888 0.191830 0.494261 24 40 17
0.240604 0.190844 0.493870 63 79 56
0.239459 0.190872 0.493677 49 68 38
0.238314 0.190899 0.493484 45 64 34
0.237168 0.190926 0.493291 39 66 33
0.262642 0.404651 0.534571 40 67 34
0.260957 0.404691 0.534288 36 65 31
0.259394 0.405744 0.534200 36 65 31
0.257825 0.406797 0.534111 26 52 28
0.238126 0.190432 0.494533 49 68 40
0.236852 0.189447 0.494140 43 65 34
0.262491 0.404975 0.536312 43 65 34
0.260804 0.405016 0.536028 38 66 30
0.259117 0.405056 0.535744 40 68 32
0.257548 0.406108 0.535658 38 67 35
0.255858 0.406148 0.535374 21 50 18
0.263902 0.404247 0.538141 46 68 37
0.235397 0.187997 0.494793 46 68 37
0.260528 0.404327 0.537573 42 67 30
0.258841 0.404367 0.537289 44 69 32
0.257271 0.405418 0.537205 39 67 31
0.255697 0.406470 0.537120 39 67 31
0.254004 0.406510 0.536835 16 41 20
0.265183 0.402509 0.539765 36 51 35
0.261939 0.403598 0.539402 49 71 42
0.260251 0.403639 0.539118 42 65 29
0.258684 0.404689 0.539037 42 65 29
0.256994 0.404729 0.538752 42 71 30
0.253727 0.405819 0.538385 38 67 37
0.263349 0.402870 0.541231 24 42 19
0.261787 0.403919 0.541152 62 80 57
0.260097 0.403959 0.540868 47 72 35
0.258407 0.403999 0.540584 45 70 33
0.255142 0.405088 0.540219 42 71 30
0.253450 0.405129 0.539934 39 71 34
0.251757 0.405169 0.539649 35 67 30
0.261510 0.403229 0.542700 32 47 29
0.259820 0.403269 0.542415 52 71 41
0.256557 0.404358 0.542053 40 69 28
0.254865 0.404398 0.541768 42 71 30
0.253172 0.404438 0.541483 35 68 26
0.249894 0.405527 0.541119 32 61 31
0.248199 0.405567 0.540833 3 32 2
0.261233 0.402540 0.544247 12 22 10
0.257972 0.403627 0.543887 61 78 52
0.256280 0.403667 0.543602 47 71 32
0.254587 0.403707 0.543318 45 69 30
0.253006 0.404755 0.543241 36 67 23
0.251311 0.404795 0.542956 41 72 28
0.249616 0.404835 0.542670 41 71 34
0.247922 0.404876 0.542385 32 62 25
0.259266 0.401890 0.545509 11 27 6
0.256002 0.402976 0.545152 54 74 39
0.254310 0.403017 0.544867 49 69 34
0.252728 0.404063 0.544793 39 68 25
0.251033 0.404103 0.544508 39 68 25
0.249339 0.404144 0.544222 39 70 28
0.247747 0.405190 0.544146 41 72 30
0.245949 0.404224 0.543652 33 55 28
0.257417 0.402246 0.546986 13 26 13
0.255840 0.403291 0.546915 54 69 40
0.254145 0.403331 0.546630 64 79 50
0.252451 0.403371 0.546345 50 74 33
0.250863 0.404416 0.546272 43 67 26
0.249166 0.404457 0.545986 42 71 28
0.247469 0.404497 0.545700 42 71 28
0.245771 0.404538 0.545415 47 71 39
0.244074 0.404578 0.545129 30 54 22
0.255563 0.402599 0.548467 24 36 12
0.253868 0.402639 0.548182 45 57 33
0.252283 0.403683 0.548112 59 79 44
0.250585 0.403724 0.547826 50 70 35
0.248888 0.403764 0.547540 43 72 31
0.247190 0.403805 0.547255 40 69 28
0.245493 0.403845 0.546969 43 71 35
0.243796 0.403886 0.546683 36 64 28
0.242192 0.404930 0.546610 21 42 20
0.253590 0.401948 0.549733 29 44 28
0.252004 0.402991 0.549666 59 78 48
0.250307 0.403031 0.549380 55 74 44
0.248610 0.403072 0.549094 47 72 35
0.247014 0.404115 0.549025 41 66 29
0.245215 0.403152 0.548523 41 71 32
0.243614 0.404196 0.548453 41 71 32
0.241914 0.404236 0.548167 39 66 37
0.240214 0.404277 0.547880 25 52 23
0.251726 0.402298 0.551220 22 40 19
0.250029 0.402339 0.550934 57 75 54
0.248435 0.403381 0.550868 49 74 39
0.246735 0.403421 0.550582 46 71 36
0.245035 0.403462 0.550295 38 68 29
0.243335 0.403502 0.550009 39 69 30
0.241635 0.403543 0.549723 41 70 38
0.239935 0.403583 0.549437 39 68 36
0.238236 0.403624 0.549151 17 37 18
0.249751 0.401646 0.552488 42 57 41
0.248157 0.402687 0.552424 57 79 50
0.223301 0.172554 0.501263 52 74 45
0.222091 0.171580 0.500855 40 68 32
0.220981 0.171606 0.500668 40 68 32
0.241357 0.402849 0.551279 41 70 36
0.239747 0.403890 0.551213 41 70 36
0.238045 0.403931 0.550926 32 58 34
0.236342 0.403972 0.550639 10 36 12
0.247878 0.401993 0.553980 43 61 38
0.223018 0.171100 0.502057 64 82 59
0.221909 0.171127 0.501871 47 72 37
0.220704 0.170153 0.501461 46 71 36
0.219597 0.170180 0.501275 44 74 37
0.239468 0.403196 0.552771 41 71 34
0.237766 0.403236 0.552485 41 70 40
0.236063 0.403277 0.552198 36 65 35
0.222837 0.170648 0.503073 50 63 48
0.221630 0.169675 0.502661 53 75 44
0.220523 0.169702 0.502475 48 70 39
0.219416 0.169728 0.502288 45 73 35
0.239189 0.402501 0.554330 44 72 34
0.217115 0.168782 0.501692 41 70 36
0.216011 0.168808 0.501506 45 74 40
0.214907 0.168835 0.501320 26 52 28
0.222655 0.170195 0.504089 15 28 15
0.221448 0.169224 0.503674 50 72 45
0.220342 0.169250 0.503488 53 75 48
0.219235 0.169276 0.503302 48 73 36
0.218039 0.168305 0.502889 45 70 33
0.216934 0.168331 0.502703 43 72 31
0.215830 0.168358 0.502517 44 73 32
0.214726 0.168384 0.502331 42 66 36
0.232179 0.402967 0.554967 12 36 6
0.221267 0.168772 0.504688 25 46 24
0.220160 0.168798 0.504501 52 73 51
0.218962 0.167828 0.504086 53 78 41
0.217858 0.167854 0.503900 53 78 41
0.216753 0.167881 0.503714 49 75 31
0.215649 0.167907 0.503528 46 72 28
0.214545 0.167933 0.503342 47 73 33
0.221086 0.168320 0.505701 8 28 11
0.219885 0.167351 0.505283 26 46 29
0.218781 0.167377 0.505097 59 82 48
0.217677 0.167404 0.504911 53 76 42
0.216572 0.167430 0.504725 48 72 29
0.215385 0.166460 0.504309 46 70 27
0.214283 0.166487 0.504123 48 72 29
0.213181 0.166513 0.503938 47 71 28
0.219704 0.166900 0.506294 14 29 13
0.218600 0.166927 0.506108 50 72 41
0.217496 0.166953 0.505922 59 81 50
0.216391 0.166979 0.505736 49 73 30
0.215204 0.166011 0.505318 47 71 28
0.214103 0.166037 0.505132 47 71 28
0.212923 0.165068 0.504715 46 70 27
0.211824 0.165094 0.504530 48 71 37
0.210725 0.165121 0.504345 25 48 14
0.218419 0.166476 0.507119 12 31 5
0.217227 0.165509 0.506697 57 76 50
0.216126 0.165535 0.506512 56 80 39
0.215024 0.165561 0.506326 49 73 32
0.213842 0.164594 0.505906 47 72 26
0.212743 0.164620 0.505721 46 71 25
0.211569 0.163652 0.505302 46 72 32
0.210472 0.163678 0.505118 44 70 30
0.209376 0.163704 0.504933 21 39 16
0.218238 0.166025 0.508130 15 29 9
0.217047 0.165059 0.507706 26 40 20
0.215945 0.165085 0.507521 61 81 48
0.214761 0.164119 0.507098 56 76 43
0.213662 0.164145 0.506913 48 72 29
0.212563 0.164171 0.506728 47 71 28
0.211389 0.163204 0.506307 46 72 32
0.210293 0.163231 0.506122 44 70 30
0.209127 0.162264 0.505702 46 68 39
0.216866 0.164610 0.508715 12 22 10
0.215680 0.163644 0.508289 37 56 30
0.214581 0.163670 0.508104 62 81 55
0.213482 0.163696 0.507919 52 76 37
0.212306 0.162731 0.507495 48 72 33
0.211210 0.162757 0.507311 46 72 30
0.210113 0.162783 0.507126 45 71 29
0.208948 0.161817 0.506704 46 70 38
0.207853 0.161843 0.506520 34 58 26
0.215500 0.163196 0.509296 13 30 14
0.214320 0.162231 0.508869 42 59 43
0.213223 0.162257 0.508684 62 85 49
0.212127 0.162283 0.508499 52 75 39
0.210956 0.161319 0.508074 48 74 32
0.209862 0.161345 0.507890 46 72 30
0.208768 0.161371 0.507706 44 72 34
0.207674 0.161397 0.507521 39 67 29
0.213044 0.161810 0.509688 52 71 41
0.211871 0.160846 0.509260 56 75 45
0.210777 0.160872 0.509076 51 77 37
0.209683 0.160898 0.508891 48 74 34
0.208589 0.160924 0.508707 47 73 33
0.207495 0.160950 0.508523 48 74 34
0.212786 0.160373 0.510446 20 35 10
0.211692 0.160400 0.510262 62 77 52
0.210598 0.160426 0.510077 55 79 40
0.209434 0.159463 0.509648 52 76 37
0.208342 0.159489 0.509464 49 75 33
0.207251 0.159515 0.509281 48 74 32
0.211513 0.159953 0.511263 34 43 25
0.210346 0.158991 0.510831 65 83 48
0.209255 0.159017 0.510648 56 74 39
0.208163 0.159043 0.510464 52 76 35
0.207072 0.159069 0.510280 50 74 33
0.211259 0.158520 0.512015 24 29 15
0.210168 0.158546 0.511831 50 65 36
0.209076 0.158572 0.511647 65 80 51
0.207984 0.158598 0.511463 53 77 38
0.206893 0.158624 0.511279 52 76 37
0.205801 0.158650 0.511096 46 75 34
0.204710 0.158676 0.510912 44 73 32
0.209989 0.158101 0.512830 26 37 16
0.208897 0.158127 0.512646 62 73 52
0.207806 0.158153 0.512463 54 77 41
0.206714 0.158179 0.512279 50 73 37
0.205623 0.158205 0.512095 45 76 34
0.204531 0.158231 0.511911 43 74 32
0.217620 0.407720 0.574939 41 72 38
0.215882 0.407761 0.574646 36 67 33
0.214195 0.408789 0.574603 19 37 14
0.208718 0.157681 0.513646 33 46 31
0.207627 0.157707 0.513462 59 81 52
0.206535 0.157733 0.513278 54 76 47
0.205383 0.156774 0.512841 45 73 35
0.204294 0.156800 0.512658 44 72 34
0.203205 0.156826 0.512475 40 72 35
0.202116 0.156852 0.512291 39 71 34
0.213909 0.408078 0.576196 34 56 29
0.208539 0.157236 0.514645 11 24 11
0.207382 0.156278 0.514205 35 53 30
0.206293 0.156304 0.514022 61 79 56
0.205204 0.156330 0.513838 49 74 39
0.204115 0.156356 0.513655 47 72 37
0.202971 0.155398 0.513217 46 74 36
0.201938 0.156408 0.513288 45 73 35
0.213674 0.408352 0.578044 50 72 43
0.211931 0.408394 0.577751 25 47 18
0.207204 0.155834 0.515202 16 32 11
0.206115 0.155860 0.515019 50 66 45
0.205026 0.155886 0.514835 59 79 46
0.203880 0.154929 0.514395 55 75 42
0.202793 0.154955 0.514212 49 74 39
0.201707 0.154980 0.514029 46 71 36
0.213388 0.407641 0.579640 47 69 38
0.211692 0.408665 0.579602 36 58 27
0.209946 0.408707 0.579308 23 38 13
0.205937 0.155415 0.516016 29 42 27
0.204788 0.154459 0.515572 65 82 52
0.203702 0.154485 0.515390 57 74 44
0.202561 0.153529 0.514947 54 74 41
0.201477 0.153555 0.514765 50 70 37
0.200393 0.153581 0.514582 48 71 37
0.211406 0.407953 0.581201 49 72 38
0.209704 0.408976 0.581164 44 61 33
0.205697 0.153990 0.516750 11 21 9
0.204610 0.154016 0.516567 44 59 32
0.203524 0.154042 0.516384 65 80 53
0.202383 0.153087 0.515940 60 78 43
0.201299 0.153113 0.515757 53 71 36
0.200167 0.152158 0.515314 50 73 37
0.199085 0.152184 0.515132 52 75 39
0.209462 0.409244 0.583025 55 75 42
0.207752 0.410267 0.582990 36 56 23
0.204432 0.153573 0.517562 15 29 7
0.203290 0.152619 0.517115 52 66 44
0.202152 0.151665 0.516668 65 83 48
0.201071 0.151691 0.516486 57 75 40
0.199990 0.151717 0.516304 50 73 37
0.198908 0.151742 0.516122 49 72 36
0.197784 0.150788 0.515678 48 73 38
0.205749 0.410573 0.584561 23 42 16
0.203056 0.151198 0.517840 30 43 26
0.201975 0.151224 0.517658 65 83 50
0.200894 0.151249 0.517476 56 74 41
0.199812 0.151275 0.517294 53 76 40
0.198686 0.150322 0.516847 52 75 39
0.197607 0.150348 0.516666 48 73 36
0.207217 0.409815 0.586465 48 73 36
0.205461 0.409856 0.586169 41 65 35
0.201798 0.150782 0.518648 43 62 36
0.200666 0.149830 0.518198 62 81 55
0.199588 0.149856 0.518016 54 79 42
0.198509 0.149882 0.517835 53 78 41
0.197430 0.149908 0.517653 46 74 36
0.196351 0.149933 0.517472 47 75 37
0.195235 0.148981 0.517024 50 77 44
0.203452 0.410160 0.587747 16 43 10
0.201568 0.149365 0.519367 10 28 7
0.200490 0.149390 0.519186 51 69 48
0.199411 0.149416 0.519004 58 83 48
0.198332 0.149442 0.518823 54 79 44
0.197211 0.148491 0.518372 49 77 39
0.196135 0.148516 0.518191 49 77 39
0.195059 0.148542 0.518009 45 73 37
0.203198 0.410419 0.589625 42 70 34
0.201437 0.410461 0.589329 26 44 21
0.200313 0.148950 0.520173 29 44 28
0.199187 0.148000 0.519719 62 84 55
0.198111 0.148026 0.519538 56 78 49
0.197035 0.148051 0.519357 50 78 42
0.195959 0.148077 0.519176 51 79 43
0.194882 0.148103 0.518995 50 78 40
0.193806 0.148128 0.518814 47 75 37
0.201180 0.410719 0.591211 39 61 34
0.199011 0.147561 0.520705 42 60 37
0.197935 0.147587 0.520524 63 81 58
0.196859 0.147612 0.520342 54 79 42
0.195744 0.146663 0.519888 51 76 39
0.194670 0.146689 0.519707 52 77 40
0.193596 0.146714 0.519526 52 77 40
0.192523 0.146740 0.519346 54 76 45
0.199127 0.410041 0.592529 22 44 13
0.198835 0.147122 0.521690 16 29 12
0.197758 0.147147 0.521509 64 77 60
0.196682 0.147173 0.521328 59 82 48
0.195568 0.146225 0.520871 50 73 39
0.194494 0.146250 0.520690 49 75 35
0.193420 0.146276 0.520509 48 74 34
0.192347 0.146302 0.520329 46 71 36
0.198838 0.409321 0.594144 46 71 36
0.197539 0.145736 0.522215 27 40 27
0.196465 0.145761 0.522035 68 86 53
0.195392 0.145787 0.521854 57 75 42
0.194318 0.145812 0.521673 51 77 37
0.193245 0.145838 0.521492 51 77 37
0.192171 0.145863 0.521312 45 73 37
0.198576 0.409574 0.596035 43 71 35
0.196810 0.409616 0.595738 24 48 20
0.197363 0.145297 0.523198 14 24 12
0.196290 0.145323 0.523018 54 73 45
0.195216 0.145349 0.522837 59 78 50
0.194107 0.144402 0.522376 56 82 42
0.193036 0.144428 0.522196 53 79 39
0.200053 0.408811 0.597950 46 76 37
0.198287 0.408853 0.597652 43 73 34
0.196521 0.408895 0.597355 44 73 41
0.194754 0.408938 0.597058 9 38 6
0.196114 0.144885 0.524001 25 41 18
0.195040 0.144910 0.523820 67 83 60
0.193932 0.143965 0.523357 58 83 46
0.192861 0.143991 0.523176 54 79 42
0.191790 0.144016 0.522996 50 79 38
0.197998 0.408133 0.599270 49 78 37
0.196231 0.408175 0.598972 50 77 44
0.194465 0.408217 0.598675 44 71 38
0.194828 0.143503 0.524518 37 50 33
0.193756 0.143528 0.524337 65 88 54
0.192685 0.143554 0.524157 55 78 44
0.191614 0.143579 0.523977 52 78 38
0.190543 0.143605 0.523796 52 78 38
0.189472 0.143630 0.523616 49 74 37
0.188401 0.143656 0.523436 53 78 41
0.192409 0.407538 0.599995 23 42 16
0.194652 0.143066 0.525498 12 25 12
0.193581 0.143091 0.525318 63 80 52
0.192510 0.143117 0.525138 64 81 53
0.191439 0.143142 0.524957 54 77 41
0.190368 0.143168 0.524777 55 78 42
0.189297 0.143193 0.524597 53 79 39
0.188225 0.143219 0.524416 51 77 37
0.187154 0.143244 0.524236 47 66 38
0.193405 0.142654 0.526299 36 47 26
0.192334 0.142680 0.526118 72 83 62
0.191263 0.142705 0.525938 59 79 44
0.190192 0.142731 0.525758 58 78 43
0.189121 0.142756 0.525577 54 80 40
0.188050 0.142782 0.525397 51 77 37
0.186979 0.142807 0.525217 52 76 44
0.190064 0.406138 0.602932 34 58 26
0.193230 0.142217 0.527279 19 27 12
0.192159 0.142243 0.527099 65 73 58
0.191060 0.141301 0.526628 65 83 50
0.190017 0.142294 0.526738 60 78 45
0.188923 0.141352 0.526268 51 80 39
0.187854 0.141378 0.526088 49 78 37
0.186803 0.142370 0.526197 48 77 43
0.189774 0.405418 0.604549 48 77 43
0.200143 0.406376 0.608538 42 47 35
0.190885 0.140865 0.527606 72 87 60
0.189816 0.140891 0.527426 65 80 53
0.188748 0.140916 0.527246 52 82 43
0.187679 0.140942 0.527066 52 82 43
0.186611 0.140967 0.526887 47 79 42
0.185542 0.140993 0.526707 48 80 43
0.187730 0.405705 0.606160 24 47 24
0.199882 0.406617 0.610456 19 20 11
0.190710 0.140429 0.528584 55 70 45
0.189641 0.140455 0.528404 70 85 60
0.188573 0.140480 0.528225 56 86 49
0.187504 0.140506 0.528045 55 85 48
0.186436 0.140531 0.527865 47 82 44
0.185367 0.140557 0.527685 47 82 44
0.187440 0.404983 0.607779 50 77 48
0.185671 0.405025 0.607482 10 37 8
0.197817 0.405935 0.611782 28 39 18
0.189466 0.140019 0.529383 76 87 66
0.188398 0.140044 0.529203 58 85 52
0.187329 0.140070 0.529023 58 85 52
0.186261 0.140095 0.528843 55 87 50
0.185179 0.139157 0.528368 53 85 48
0.184124 0.140146 0.528483 60 87 56
0.185390 0.405267 0.609396 29 56 25
0.189291 0.139583 0.530361 59 69 53
0.188223 0.139608 0.530181 65 87 56
0.187136 0.138671 0.529702 61 83 52
0.186070 0.138696 0.529523 58 88 51
0.185004 0.138722 0.529343 56 86 49
0.183938 0.138747 0.529164 56 83 50
0.185100 0.404544 0.611018 50 77 44
0.183328 0.404587 0.610720 23 40 22
0.189116 0.139147 0.531339 19 27 16
0.188027 0.138210 0.530858 73 90 60
0.186961 0.138236 0.530678 65 82 52
0.185895 0.138261 0.530499 58 86 48
0.184829 0.138287 0.530319 56 84 46
0.183763 0.138312 0.530140 50 80 43
0.182697 0.138337 0.529961 53 83 46
0.183043 0.404826 0.612641 33 54 30
0.187852 0.137775 0.531834 54 66 42
0.186787 0.137801 0.531654 77 89 65
0.185721 0.137826 0.531475 61 86 49
0.184655 0.137852 0.531295 60 85 48
0.183589 0.137877 0.531116 53 85 46
0.182523 0.137902 0.530936 50 82 43
0.181457 0.137928 0.530757 62 86 56
0.180980 0.405105 0.614268 26 50 20
0.187678 0.137340 0.532810 20 31 12
0.186612 0.137366 0.532630 72 83 64
0.185546 0.137391 0.532451 62 85 51
0.184480 0.137417 0.532271 61 84 50
0.183405 0.136482 0.531787 56 86 47
0.182341 0.136508 0.531608 55 85 46
0.181278 0.136533 0.531429 59 87 51
0.180214 0.136558 0.531250 44 72 36
0.186437 0.136931 0.533606 38 48 36
0.185357 0.135998 0.533119 72 91 61
0.184294 0.136023 0.532940 65 84 54
0.183230 0.136048 0.532761 58 88 49
0.182167 0.136074 0.532582 57 87 48
0.181103 0.136099 0.532403 56 87 45
0.180040 0.136124 0.532224 59 90 48
0.178977 0.136150 0.532045 19 37 14
0.186246 0.135538 0.534272 20 29 20
0.185183 0.135564 0.534093 68 85 57
0.184119 0.135589 0.533914 69 86 58
0.183056 0.135614 0.533735 59 90 48
0.181993 0.135640 0.533556 57 88 46
0.180929 0.135665 0.533376 54 87 45
0.179866 0.135690 0.533197 63 96 54
0.178802 0.135716 0.533018 46 70 40
0.185009 0.135130 0.535066 41 55 33
0.183945 0.135155 0.534887 76 90 68
0.182882 0.135180 0.534708 61 90 49
0.181818 0.135206 0.534529 60 89 48
0.180755 0.135231 0.534350 57 90 46
0.179692 0.135256 0.534171 56 89 45
0.178628 0.135282 0.533992 61 86 49
0.176235 0.408031 0.622033 27 52 15
0.183771 0.134721 0.535861 61 74 59
0.182708 0.134747 0.535682 73 99 59
0.181644 0.134772 0.535503 64 90 50
0.180581 0.134797 0.535324 55 91 44
0.179517 0.134823 0.535145 53 89 42
0.178454 0.134848 0.534966 62 91 48
0.175936 0.408256 0.623986 50 79 36
0.183597 0.134287 0.536834 30 45 31
0.182533 0.134313 0.536655 77 99 68
0.181470 0.134338 0.536476 67 89 58
0.180406 0.134363 0.536297 60 91 45
0.179343 0.134389 0.536118 60 91 45
0.178280 0.134414 0.535939 61 90 49
0.177216 0.134439 0.535760 60 89 48
0.173847 0.407566 0.625327 19 38 10
0.186115 0.406535 0.629084 15 28 15
0.182359 0.133879 0.537629 67 86 60
0.181296 0.133904 0.537450 73 92 66
0.180232 0.133929 0.537271 68 94 52
0.179169 0.133955 0.537092 66 92 50
0.178105 0.133980 0.536913 61 92 48
0.177042 0.134005 0.536734 64 95 51
0.173545 0.407788 0.627286 56 78 49
0.182185 0.133445 0.538603 37 55 32
0.181121 0.133470 0.538424 77 95 72
0.180058 0.133495 0.538245 67 93 53
0.178995 0.133521 0.538066 64 90 50
0.177931 0.133546 0.537887 61 92 48
0.176868 0.133571 0.537708 60 91 47
0.175804 0.133597 0.537529 65 92 61
0.171453 0.407097 0.628628 21 48 17
0.182011 0.133011 0.539576 16 32 11
0.180947 0.133036 0.539397 67 83 62
0.179884 0.133061 0.539218 71 97 57
0.178820 0.133087 0.539039 68 94 54
0.177757 0.133112 0.538860 63 94 50
0.176693 0.133137 0.538681 64 95 51
0.175630 0.133163 0.538502 65 93 55
0.171159 0.406364 0.630274 38 66 28
0.180773 0.132602 0.540371 44 57 40
0.179709 0.132627 0.540192 72 95 59
0.178646 0.132653 0.540013 69 92 56
0.177583 0.132678 0.539834 65 94 49
0.176526 0.131753 0.539331 67 96 51
0.175456 0.132729 0.539476 66 95 52
0.174392 0.132754 0.539297 62 91 48
0.169067 0.405674 0.631617 28 50 23
0.180599 0.132168 0.541345 20 33 18
0.179535 0.132194 0.541165 72 95 61
0.178474 0.131269 0.540660 78 101 67
0.177413 0.131295 0.540481 65 94 49
0.176353 0.131320 0.540303 68 97 52
0.175292 0.131345 0.540124 65 94 51
0.174231 0.131370 0.539945 64 93 50
0.168773 0.404940 0.633262 45 67 38
0.179361 0.131760 0.542139 38 60 31
0.178298 0.131785 0.541960 81 103 74
0.177240 0.130862 0.541452 69 98 55
0.176179 0.130887 0.541274 67 96 53
0.175118 0.130912 0.541095 66 97 55
0.174057 0.130937 0.540917 61 92 50
0.168478 0.404207 0.634907 60 84 52
0.166681 0.404250 0.634605 19 43 11
0.178965 0.405111 0.639032 14 35 11
0.178127 0.130404 0.542602 79 100 76
0.177066 0.130429 0.542424 67 96 55
0.176013 0.129507 0.541914 64 93 52
0.174955 0.129532 0.541736 68 99 55
0.173897 0.129557 0.541558 65 96 52
0.168168 0.404421 0.636882 67 92 57
0.166368 0.404464 0.636579 40 65 30
0.177957 0.129024 0.543240 48 65 47
0.176898 0.129049 0.543062 76 105 64
0.175840 0.129075 0.542883 67 96 55
0.174782 0.129100 0.542705 69 98 53
0.173723 0.129125 0.542527 69 98 53
0.167856 0.404634 0.638861 74 99 62
0.166054 0.404676 0.638558 66 91 54
0.164252 0.404719 0.638254 23 41 18
0.177783 0.128592 0.544209 24 37 22
0.176725 0.128618 0.544031 78 98 63
0.175667 0.128643 0.543852 77 97 62
0.174608 0.128668 0.543674 73 100 53
0.173550 0.128693 0.543496 71 98 51
0.172492 0.128718 0.543318 73 100 53
0.165740 0.404887 0.640541 71 98 51
0.163935 0.404930 0.640238 33 55 26
0.176551 0.128186 0.544999 64 82 49
0.175493 0.128211 0.544821 85 103 70
0.174447 0.127292 0.544306 73 100 53
0.173391 0.127317 0.544128 74 101 54
0.172336 0.127342 0.543950 70 97 48
0.171280 0.127367 0.543773 70 97 48
0.163594 0.406083 0.642561 63 86 50
0.161809 0.405181 0.641921 12 35 0
0.176378 0.127754 0.545968 38 55 27
0.175330 0.126836 0.545450 87 104 76
0.174274 0.126861 0.545273 76 102 58
0.173218 0.126886 0.545095 74 100 56
0.172163 0.126911 0.544917 73 100 51
0.171107 0.126936 0.544739 71 98 49
0.163252 0.407232 0.644894 74 100 60
0.161437 0.407275 0.644588 39 65 25
0.175157 0.126405 0.546417 67 83 60
0.174101 0.126430 0.546239 80 106 64
0.173045 0.126455 0.546061 76 102 60
0.171990 0.126480 0.545884 72 102 54
0.170934 0.126505 0.545706 72 102 54
0.162884 0.409319 0.647576 76 102 58
0.161088 0.408419 0.646929 58 84 40
0.174984 0.125974 0.547383 37 52 34
0.173928 0.125999 0.547206 85 111 71
0.172872 0.126024 0.547028 76 102 62
0.171817 0.126049 0.546850 72 104 55
0.170761 0.126075 0.546673 73 105 56
0.162562 0.409517 0.649587 68 97 54
0.160737 0.409560 0.649280 74 103 60
0.158912 0.409604 0.648973 22 40 17
0.171366 0.410435 0.653489 11 24 11
0.173755 0.125568 0.548172 76 101 66
0.172699 0.125594 0.547995 80 105 70
0.171644 0.125619 0.547817 73 107 58
0.170588 0.125644 0.547639 71 105 56
0.169532 0.125669 0.547461 68 102 53
0.160384 0.410696 0.651640 76 110 61
0.158583 0.409799 0.650988 42 64 37
0.173582 0.125138 0.549139 34 56 25
0.172526 0.125163 0.548961 89 111 80
0.171471 0.125188 0.548784 73 106 60
0.170415 0.125213 0.548606 75 108 62
0.169359 0.125238 0.548428 69 106 56
0.168303 0.125263 0.548250 73 110 60
0.158224 0.410933 0.653354 58 82 50
0.156424 0.410037 0.652699 5 29 0
0.173409 0.124707 0.550106 13 32 6
0.172353 0.124732 0.549928 87 106 80
0.171298 0.124757 0.549750 79 110 64
0.170242 0.124782 0.549572 77 108 62
0.169186 0.124807 0.549395 73 107 58
0.168130 0.124832 0.549217 77 111 62
0.157924 0.410185 0.655032 75 100 65
0.156091 0.410228 0.654723 25 50 15
0.172180 0.124301 0.550894 61 77 56
0.171125 0.124326 0.550717 86 115 72
0.170069 0.124351 0.550539 76 105 62
0.169013 0.124377 0.550361 77 109 60
0.167957 0.124402 0.550184 77 109 60
0.157624 0.409437 0.656710 84 109 72
0.155791 0.409481 0.656401 62 87 50
0.172007 0.123870 0.551861 31 46 28
0.170972 0.122959 0.551328 94 120 80
0.169919 0.122984 0.551151 82 108 68
0.168866 0.123009 0.550974 77 109 60
0.167813 0.123034 0.550796 75 107 58
0.166760 0.123060 0.550619 76 105 62
0.155491 0.408733 0.658079 78 107 64
0.153658 0.408776 0.657771 15 36 12
0.171834 0.123439 0.552828 12 25 10
0.170800 0.122529 0.552293 82 107 70
0.169747 0.122554 0.552115 85 110 73
0.168693 0.122580 0.551938 77 111 60
0.167640 0.122605 0.551761 73 107 56
0.166587 0.122630 0.551583 74 105 61
0.155156 0.408920 0.660113 82 113 69
0.153321 0.408964 0.659804 49 71 44
0.170627 0.122100 0.553257 46 71 36
0.169574 0.122125 0.553080 95 120 85
0.168521 0.122150 0.552902 80 114 65
0.167468 0.122175 0.552725 78 112 63
0.166414 0.122200 0.552548 75 106 62
0.165361 0.122225 0.552370 81 112 68
0.153020 0.408215 0.661484 71 95 65
0.151145 0.409193 0.661532 6 30 0
0.170455 0.121670 0.554221 29 51 24
0.169401 0.121695 0.554044 97 119 92
0.168348 0.121720 0.553867 86 119 73
0.167295 0.121745 0.553689 78 111 65
0.166242 0.121770 0.553512 74 110 63
0.165189 0.121795 0.553335 74 110 63
0.164135 0.121820 0.553157 81 108 75
0.150844 0.408443 0.663215 24 51 18
0.170282 0.121240 0.555185 6 24 3
0.169229 0.121265 0.555008 81 99 78
0.168176 0.121290 0.554831 91 122 76
0.167122 0.121315 0.554653 85 116 70
0.166069 0.121340 0.554476 78 112 63
0.165016 0.121366 0.554299 76 110 61
0.163963 0.121391 0.554122 84 114 75
0.150503 0.408626 0.665259 58 88 49
0.169056 0.120835 0.555972 49 66 50
0.168003 0.120860 0.555795 99 128 85
0.166950 0.120886 0.555618 87 116 73
0.165897 0.120911 0.555440 82 116 65
0.164843 0.120936 0.555263 76 110 59
0.163790 0.120961 0.555086 78 111 67
0.162737 0.120986 0.554909 75 108 64
0.148317 0.408850 0.666998 8 29 7
0.168884 0.120406 0.556937 18 33 19
0.167831 0.120431 0.556759 92 116 77
0.166777 0.120456 0.556582 90 114 75
0.165724 0.120481 0.556405 82 116 65
0.164671 0.120506 0.556227 80 114 63
0.163618 0.120531 0.556050 81 112 66
0.162565 0.120556 0.555873 86 117 71
0.147972 0.409028 0.669051 26 48 21
0.167658 0.120001 0.557724 75 98 62
0.166605 0.120026 0.557546 98 121 85
0.165552 0.120051 0.557369 88 121 67
0.164498 0.120076 0.557192 86 119 65
0.163445 0.120101 0.557014 82 115 61
0.162392 0.120126 0.556837 85 118 64
0.147625 0.409205 0.671108 59 78 48
0.167485 0.119571 0.558688 36 58 27
0.166432 0.119596 0.558511 103 125 94
0.165379 0.119621 0.558333 88 121 67
0.164326 0.119646 0.558156 86 119 65
0.163273 0.119671 0.557979 81 114 60
0.162219 0.119697 0.557801 84 117 63
0.161166 0.119722 0.557624 84 109 74
0.145380 0.410351 0.673229 13 38 3
0.167313 0.119141 0.559652 11 32 8
0.166260 0.119166 0.559475 92 113 89
0.165206 0.119192 0.559298 91 123 72
0.164116 0.120144 0.559494 88 120 69
0.163100 0.119242 0.558943 83 118 62
0.162047 0.119267 0.558766 82 117 61
0.160949 0.120219 0.558961 92 121 80
0.145076 0.409595 0.674926 29 58 17
0.166087 0.118737 0.560439 63 84 62
0.165034 0.118762 0.560262 96 128 79
0.163943 0.119713 0.560461 89 121 72
0.162887 0.119738 0.560283 83 121 64
0.161874 0.118837 0.559730 81 119 62
0.160776 0.119788 0.559928 85 118 74
0.159720 0.119814 0.559750 49 82 38
0.165914 0.118307 0.561403 37 54 36
0.164861 0.118332 0.561226 99 130 84
0.163770 0.119282 0.561427 86 117 71
0.162755 0.118382 0.560871 83 121 66
0.161702 0.118407 0.560694 80 118 63
0.160648 0.118432 0.560517 82 116 67
0.144372 0.409933 0.679074 77 111 62
0.142463 0.410903 0.679137 20 38 15
0.165742 0.117877 0.562368 23 38 22
0.164689 0.117902 0.562190 94 123 80
0.163597 0.118851 0.562394 92 121 78
0.162541 0.118876 0.562216 88 126 71
0.161529 0.117977 0.561658 81 119 64
0.160476 0.118003 0.561481 84 118 69
0.159374 0.118952 0.561683 89 123 74
0.142107 0.411068 0.681220 30 49 21
0.164516 0.117472 0.563155 75 99 60
0.163463 0.117498 0.562977 100 124 85
0.162368 0.118446 0.563183 90 125 71
0.161357 0.117548 0.562623 86 121 67
0.160303 0.117573 0.562445 79 113 62
0.159250 0.117598 0.562268 86 120 69
0.141801 0.410307 0.682926 55 78 44
0.164307 0.117965 0.564505 44 64 29
0.163290 0.117068 0.563942 108 128 93
0.162195 0.118015 0.564149 91 124 70
0.161139 0.118040 0.563972 88 121 67
0.160131 0.117143 0.563410 80 115 61
0.159078 0.117168 0.563232 85 120 66
0.141444 0.410469 0.685016 81 106 71
0.139523 0.411436 0.685085 9 34 0
0.164134 0.117534 0.565472 24 43 15
0.163118 0.116638 0.564906 105 124 96
0.162022 0.117584 0.565116 97 127 77
0.160966 0.117609 0.564938 87 117 67
0.159958 0.116713 0.564374 85 118 62
0.158905 0.116738 0.564197 86 119 63
0.157799 0.117685 0.564405 88 113 76
0.139217 0.410673 0.686796 23 48 11
0.162945 0.116208 0.565870 87 105 82
0.161849 0.117153 0.566083 99 129 81
0.160793 0.117178 0.565905 90 120 72
0.159786 0.116283 0.565338 87 120 66
0.158732 0.116309 0.565161 82 115 61
0.157626 0.117254 0.565372 92 118 78
0.138855 0.410831 0.688894 42 68 28
0.149695 0.411638 0.693283 52 69 53
0.147861 0.410763 0.692575 101 127 83
0.160621 0.116748 0.566872 96 122 78
0.159613 0.115854 0.566302 88 120 69
0.158509 0.116798 0.566516 82 114 63
0.157453 0.116823 0.566338 89 118 75
0.138549 0.410067 0.690608 62 91 48
0.162600 0.115349 0.567799 25 38 25
0.161547 0.115374 0.567621 103 127 86
0.160448 0.116317 0.567838 99 123 82
0.159440 0.115424 0.567267 89 122 68
0.158387 0.115449 0.567089 84 117 63
0.157334 0.115474 0.566912 83 112 67
0.138186 0.410222 0.692713 89 118 73
0.136312 0.410267 0.692398 26 42 21
0.161374 0.114944 0.568586 95 116 78
0.160321 0.114969 0.568408 108 129 91
0.159268 0.114994 0.568231 93 126 72
0.158215 0.115019 0.568054 85 118 64
0.157107 0.115961 0.568272 85 115 67
0.137822 0.410374 0.694824 95 125 77
0.135945 0.410419 0.694508 38 56 33
0.161157 0.115430 0.569949 61 81 46
0.160149 0.114539 0.569373 112 132 97
0.159095 0.114564 0.569195 92 123 70
0.157990 0.115505 0.569416 89 120 67
0.156934 0.115531 0.569238 87 117 69
0.155879 0.115556 0.569060 90 120 72
0.135578 0.410570 0.696622 62 81 53
0.160984 0.114999 0.570916 37 56 26
0.159929 0.115024 0.570738 111 130 100
0.158873 0.115049 0.570560 92 124 73
0.157817 0.115075 0.570383 92 124 73
0.156761 0.115100 0.570205 87 120 66
0.155706 0.115125 0.570027 84 117 63
0.135150 0.411633 0.699141 76 99 65
0.160811 0.114568 0.571882 16 35 7
0.159756 0.114593 0.571705 105 124 96
0.158700 0.114619 0.571527 99 131 80
0.157644 0.114644 0.571349 92 124 73
0.156588 0.114669 0.571171 89 123 72
0.155533 0.114694 0.570994 83 117 66
0.134720 0.412692 0.701668 88 113 76
0.132894 0.411823 0.700949 23 48 11
0.159583 0.114163 0.572671 94 111 85
0.158527 0.114188 0.572493 98 130 79
0.157471 0.114213 0.572316 91 123 72
0.156415 0.114238 0.572138 84 119 65
0.155360 0.114263 0.571960 85 120 66
0.154304 0.114288 0.571783 96 121 84
0.132521 0.411966 0.703080 39 64 27
0.159410 0.113732 0.573638 61 77 54
0.158354 0.113757 0.573460 101 128 81
0.157298 0.113782 0.573282 92 119 72
0.156242 0.113807 0.573105 84 119 63
0.155187 0.113832 0.572927 82 117 61
0.154131 0.113858 0.572749 93 121 83
0.132084 0.413020 0.705621 69 97 59
0.159237 0.113301 0.574604 35 51 30
0.158181 0.113326 0.574427 110 137 90
0.157125 0.113351 0.574249 95 122 75
0.156069 0.113376 0.574071 89 122 66
0.155014 0.113402 0.573893 87 120 64
0.153958 0.113427 0.573716 95 124 81
0.131774 0.412247 0.707355 81 110 67
0.159064 0.112870 0.575571 23 36 21
0.158008 0.112895 0.575393 105 131 87
0.156952 0.112920 0.575216 102 128 84
0.155896 0.112946 0.575038 91 124 70
0.154841 0.112971 0.574860 88 121 67
0.153785 0.112996 0.574682 87 118 72
0.131398 0.412383 0.709500 91 122 76
0.129569 0.411519 0.708771 25 47 20
0.157835 0.112464 0.576360 84 110 68
0.156779 0.112490 0.576182 105 131 89
0.155723 0.112515 0.576004 89 124 70
0.154668 0.112540 0.575827 87 122 68
0.153612 0.112565 0.575649 82 116 67
0.131022 0.412518 0.711649 89 123 74
0.129191 0.411655 0.710917 45 69 41
0.157662 0.112034 0.577327 71 100 59
0.156606 0.112059 0.577149 107 136 95
0.155550 0.112084 0.576971 92 127 73
0.154495 0.112109 0.576793 89 124 70
0.153439 0.112134 0.576616 81 118 68
0.152383 0.112159 0.576438 82 119 69
0.128812 0.411789 0.713068 58 87 55
0.157489 0.111603 0.578293 54 79 42
0.156433 0.111628 0.578115 109 134 97
0.155377 0.111653 0.577938 96 131 77
0.154261 0.112585 0.578178 89 124 70
0.153202 0.112610 0.578000 83 120 68
0.152210 0.111729 0.577404 81 118 66
0.128501 0.411013 0.714807 78 105 72
0.157316 0.111172 0.579260 21 45 13
0.156260 0.111197 0.579082 110 134 102
0.155204 0.111222 0.578904 100 132 81
0.154087 0.112153 0.579147 92 124 73
0.153093 0.111273 0.578549 85 123 68
0.151971 0.112204 0.578791 81 119 64
0.128120 0.411144 0.716965 92 120 82
0.126218 0.411190 0.716645 17 45 7
0.157143 0.110741 0.580226 10 34 6
0.156087 0.110766 0.580049 101 125 97
0.155031 0.110792 0.579871 100 130 82
0.153914 0.111721 0.580116 94 124 76
0.152920 0.110842 0.579515 86 120 69
0.151797 0.111772 0.579760 83 117 66
0.127809 0.410368 0.718707 94 122 84
0.125907 0.410413 0.718387 43 71 33
0.155914 0.110336 0.581015 81 99 78
0.154858 0.110361 0.580837 108 137 92
0.153740 0.111289 0.581085 95 124 79
0.152747 0.110411 0.580482 87 121 70
0.151624 0.111340 0.580729 83 117 66
0.127427 0.410496 0.720872 86 114 76
0.125523 0.410541 0.720551 67 95 57
0.155741 0.109905 0.581982 58 71 54
0.154685 0.109930 0.581804 112 138 94
0.153630 0.109955 0.581626 97 123 79
0.152509 0.110883 0.581876 86 120 69
0.151450 0.110908 0.581698 82 116 65
0.150392 0.110933 0.581519 82 113 71
0.125138 0.410667 0.722721 74 105 63
0.155568 0.109474 0.582948 43 56 41
0.154512 0.109499 0.582771 109 135 91
0.153457 0.109524 0.582593 103 129 85
0.152335 0.110451 0.582845 87 122 68
0.151277 0.110476 0.582667 86 121 67
0.150219 0.110501 0.582488 85 116 70
0.124825 0.409889 0.724467 82 113 67
0.122918 0.409934 0.724146 24 45 21
0.155395 0.109043 0.583915 26 34 21
0.154339 0.109068 0.583737 100 124 83
0.153284 0.109093 0.583560 107 131 90
0.152162 0.110019 0.583814 90 125 71
0.151104 0.110044 0.583636 86 121 67
0.150045 0.110069 0.583457 86 118 69
0.124513 0.409110 0.726213 88 120 71
0.122606 0.409156 0.725892 27 49 22
0.154166 0.108637 0.584704 85 106 68
0.153111 0.108663 0.584526 111 132 94
0.151988 0.109587 0.584783 94 127 73
0.150930 0.109612 0.584604 88 121 67
0.149872 0.109638 0.584426 87 119 68
0.124200 0.408332 0.727959 93 125 74
0.122293 0.408378 0.727638 35 54 28
0.153993 0.108207 0.585671 65 83 48
0.152873 0.109130 0.585930 117 135 100
0.151815 0.109155 0.585752 95 128 74
0.150757 0.109180 0.585573 89 122 68
0.149698 0.109206 0.585395 87 119 68
0.148640 0.109231 0.585217 93 125 74
0.121904 0.408498 0.729818 41 60 32
0.153820 0.107776 0.586637 52 70 37
0.152700 0.108698 0.586899 117 135 102
0.151642 0.108723 0.586721 97 128 75
0.150583 0.108749 0.586542 92 123 70
0.149525 0.108774 0.586364 86 116 66
0.148467 0.108799 0.586186 93 123 73
0.121591 0.407719 0.731567 58 77 47
0.153585 0.108241 0.588046 28 45 17
0.152527 0.108266 0.587868 115 132 104
0.151468 0.108292 0.587689 100 131 78
0.150410 0.108317 0.587511 93 124 71
0.149352 0.108342 0.587333 86 119 65
0.148293 0.108367 0.587155 86 119 65
0.121200 0.407836 0.733755 79 99 66
0.153411 0.107809 0.589015 20 38 15
0.152353 0.107834 0.588837 104 122 99
0.151295 0.107860 0.588658 104 134 84
0.150166 0.108780 0.588923 94 124 74
0.149105 0.108805 0.588745 89 122 68
0.148044 0.108831 0.588566 92 125 71
0.120887 0.407056 0.735505 93 113 80
0.118975 0.407101 0.735183 27 47 14
0.152180 0.107403 0.589806 96 112 91
0.151053 0.108322 0.590073 107 139 90
0.149992 0.108347 0.589895 92 124 75
0.148931 0.108373 0.589716 88 121 67
0.147870 0.108398 0.589537 88 121 67
0.146809 0.108423 0.589359 95 118 82
0.118661 0.406321 0.736934 33 56 20
0.151940 0.107864 0.591223 78 96 75
0.150879 0.107889 0.591045 101 135 86
0.149818 0.107914 0.590866 92 126 77
0.148757 0.107940 0.590687 87 122 68
0.147696 0.107965 0.590509 89 124 70
0.120102 0.407282 0.739900 96 121 84
0.145493 0.108909 0.590598 46 71 34
0.151766 0.107431 0.592194 66 83 65
0.150705 0.107456 0.592016 100 133 87
0.125395 0.408147 0.743523 92 125 79
0.148509 0.108399 0.592108 89 124 70
0.147446 0.108424 0.591929 83 118 64
0.146382 0.108450 0.591750 95 123 85
0.145319 0.108475 0.591571 53 81 43
0.128723 0.409944 0.747291 52 67 51
0.150462 0.107914 0.593440 105 138 94
0.149398 0.107940 0.593261 97 130 86
0.148335 0.107965 0.593082 87 125 70
0.147271 0.107990 0.592903 83 121 66
0.146208 0.108016 0.592724 91 123 84
0.145144 0.108041 0.592545 63 95 56
0.151351 0.107455 0.594593 31 46 32
0.150287 0.107480 0.594414 107 138 94
0.149224 0.107506 0.594235 99 130 86
0.148085 0.108421 0.594510 87 125 70
0.147019 0.108447 0.594330 83 121 66
0.146034 0.107582 0.593697 87 123 80
0.144887 0.108497 0.593972 66 102 59
0.151108 0.107910 0.596024 21 36 22
0.150042 0.107935 0.595845 108 137 96
0.148976 0.107961 0.595665 102 131 90
0.147910 0.107986 0.595486 87 125 70
0.146844 0.108012 0.595306 83 121 66
0.145778 0.108037 0.595127 82 118 73
0.144712 0.108062 0.594948 73 109 64
0.114581 0.408691 0.748550 18 43 22
0.150934 0.107475 0.597000 17 31 20
0.149868 0.107500 0.596821 103 127 88
0.148802 0.107526 0.596641 111 135 96
0.147736 0.107551 0.596462 89 124 70
0.146670 0.107577 0.596282 86 121 67
0.145604 0.107602 0.596103 82 119 69
0.144538 0.107627 0.595923 89 126 76
0.143472 0.107653 0.595744 16 44 19
0.149693 0.107065 0.597797 98 118 83
0.148627 0.107091 0.597617 114 134 99
0.147561 0.107116 0.597438 92 125 71
0.146495 0.107142 0.597258 86 119 65
0.145429 0.107167 0.597079 82 119 67
0.144279 0.108080 0.597360 88 125 73
0.113774 0.408890 0.753004 40 67 38
0.149518 0.106631 0.598773 83 103 70
0.148378 0.107542 0.599057 114 134 101
0.147309 0.107567 0.598878 93 125 74
0.146241 0.107593 0.598698 87 119 68
0.145172 0.107618 0.598518 86 120 71
0.144104 0.107644 0.598338 90 124 75
0.113370 0.408987 0.755237 62 86 56
0.149271 0.107080 0.600216 62 81 51
0.148203 0.107106 0.600036 115 134 104
0.147134 0.107131 0.599856 92 125 79
0.146066 0.107157 0.599676 85 118 72
0.144997 0.107182 0.599496 85 118 74
0.143929 0.107208 0.599316 91 124 80
0.142860 0.107233 0.599136 77 96 68
0.149096 0.106644 0.601194 50 69 41
0.148028 0.106670 0.601014 114 133 105
0.146959 0.106695 0.600834 92 125 81
0.145891 0.106721 0.600654 82 115 71
0.144822 0.106746 0.600474 83 116 72
0.143754 0.106772 0.600294 91 124 80
0.142685 0.106797 0.600115 80 99 71
0.148921 0.106208 0.602172 43 62 34
0.147853 0.106234 0.601992 111 130 102
0.146784 0.106259 0.601812 95 126 82
0.145716 0.106285 0.601633 91 122 78
0.144647 0.106310 0.601453 84 117 73
0.143579 0.106336 0.601273 92 125 81
0.142510 0.106361 0.601093 83 102 74
0.148746 0.105772 0.603151 34 53 27
0.147678 0.105798 0.602971 111 130 104
0.146609 0.105823 0.602791 94 125 81
0.145541 0.105849 0.602611 91 122 78
0.144472 0.105874 0.602431 83 116 70
0.143403 0.105900 0.602251 86 119 73
0.142335 0.105925 0.602071 88 110 79
0.148571 0.105336 0.604129 29 47 24
0.147502 0.105362 0.603949 107 125 102
0.146434 0.105387 0.603769 99 132 88
0.145365 0.105413 0.603589 92 125 81
0.144297 0.105438 0.603409 82 116 67
0.143228 0.105463 0.603229 82 116 67
0.142160 0.105489 0.603050 91 115 83
0.109477 0.408604 0.765675 27 51 19
0.147327 0.104926 0.604927 102 123 101
0.146259 0.104951 0.604747 103 136 92
0.145190 0.104977 0.604568 92 125 81
0.144122 0.105002 0.604388 82 116 67
0.143053 0.105027 0.604208 87 121 72
0.141985 0.105053 0.604028 93 120 87
0.109158 0.407809 0.767458 31 58 25
0.147152 0.104490 0.605906 91 111 92
0.146084 0.104515 0.605726 104 137 91
0.145015 0.104540 0.605546 91 124 78
0.143947 0.104566 0.605366 80 114 65
0.142878 0.104591 0.605186 80 114 65
0.141810 0.104617 0.605006 95 119 87
0.108746 0.407893 0.769719 35 59 27
0.146977 0.104054 0.606884 77 94 76
0.145909 0.104079 0.606704 109 140 94
0.144840 0.104104 0.606524 100 131 85
0.143772 0.104130 0.606344 85 117 68
0.142703 0.104155 0.606164 82 114 65
0.141635 0.104181 0.605984 96 119 85
0.108333 0.407975 0.771985 39 62 28
0.146802 0.103618 0.607862 66 83 65
0.145734 0.103643 0.607682 110 141 97
0.144665 0.103668 0.607502 96 127 83
0.143597 0.103694 0.607323 86 118 67
0.142528 0.103719 0.607143 85 117 66
0.141459 0.103745 0.606963 99 119 86
0.107826 0.408932 0.774739 48 68 35
0.146627 0.103181 0.608841 62 80 59
0.145559 0.103207 0.608661 108 139 95
0.144490 0.103232 0.608481 95 126 82
0.143421 0.103258 0.608301 86 118 69
0.142353 0.103283 0.608121 84 116 67
0.141284 0.103309 0.607941 97 120 84
0.107411 0.409009 0.777017 65 88 52
0.146452 0.102745 0.609819 42 60 39
0.145383 0.102771 0.609639 108 139 95
0.144315 0.102796 0.609459 95 126 82
0.143246 0.102822 0.609279 88 120 71
0.142178 0.102847 0.609099 85 117 68
0.141109 0.102873 0.608919 97 120 84
0.106901 0.409958 0.779786 57 80 44
0.146277 0.102309 0.610797 33 50 32
0.145208 0.102335 0.610617 107 138 94
0.144140 0.102360 0.610437 95 126 82
0.143071 0.102386 0.610258 86 120 71
0.142003 0.102411 0.610078 82 116 67
0.140842 0.103310 0.610388 89 113 74
0.106295 0.411777 0.783055 63 87 48
0.146102 0.101873 0.611775 30 47 33
0.144951 0.102771 0.612090 106 137 95
0.143880 0.102797 0.611909 98 129 87
0.142809 0.102822 0.611729 89 122 76
0.141828 0.101975 0.611056 80 113 67
0.140666 0.102873 0.611368 88 113 76
0.105781 0.412717 0.785846 78 103 66
0.145846 0.102309 0.613251 28 44 33
0.144775 0.102334 0.613070 101 131 92
0.143704 0.102360 0.612890 95 125 86
0.142633 0.102385 0.612710 85 118 74
0.141562 0.102411 0.612529 80 113 69
0.140491 0.102436 0.612349 89 114 79
0.105361 0.412782 0.788152 88 113 78
0.145671 0.101872 0.614231 26 42 31
0.144516 0.102767 0.614550 94 124 87
0.143443 0.102793 0.614369 105 135 98
0.142369 0.102819 0.614188 83 116 72
0.141387 0.101974 0.613510 83 116 72
0.140222 0.102870 0.613827 85 113 75
0.104940 0.412844 0.790462 88 116 78
0.145414 0.102304 0.615714 23 39 28
0.144341 0.102329 0.615533 92 119 86
0.143267 0.102355 0.615352 104 131 98
0.142193 0.102380 0.615171 82 118 73
0.141120 0.102406 0.614991 80 116 71
0.140046 0.102432 0.614810 80 110 71
0.104519 0.412904 0.792778 88 118 79
0.102533 0.412951 0.792443 26 41 23
0.145238 0.101866 0.616697 23 38 33
0.144081 0.102759 0.617019 84 113 81
0.143004 0.102785 0.616838 102 131 99
0.141928 0.102811 0.616657 82 118 73
0.140944 0.101968 0.615974 78 114 69
0.139870 0.101993 0.615793 84 114 75
0.104193 0.412093 0.794596 89 119 80
0.102207 0.412141 0.794262 28 44 23
0.143904 0.102320 0.618005 78 107 75
0.142828 0.102346 0.617823 103 132 100
0.141752 0.102372 0.617642 82 118 75
0.140676 0.102397 0.617461 76 112 69
0.139599 0.102423 0.617280 82 114 75
0.103770 0.412150 0.796918 89 121 82
0.101782 0.412198 0.796584 32 48 27
0.143728 0.101881 0.618990 79 106 73
0.142652 0.101907 0.618809 108 135 102
0.141575 0.101932 0.618628 84 120 77
0.140499 0.101958 0.618446 78 114 71
0.139423 0.101984 0.618265 79 111 74
0.103445 0.411339 0.798739 90 122 85
0.101456 0.411386 0.798404 36 54 33
0.143551 0.101442 0.619975 73 100 69
0.142387 0.102333 0.620304 113 140 109
0.141309 0.102358 0.620123 90 123 81
0.140230 0.102384 0.619941 79 112 70
0.139151 0.102410 0.619759 78 110 73
0.103021 0.411393 0.801068 91 123 86
0.101029 0.411440 0.800733 45 63 42
0.143289 0.101867 0.621474 72 99 70
0.142211 0.101893 0.621292 104 131 102
0.141132 0.101918 0.621110 87 120 78
0.140053 0.101944 0.620929 79 112 70
0.138974 0.101970 0.620747 78 110 71
0.137896 0.101995 0.620565 90 122 83
0.136817 0.102021 0.620384 45 66 44
0.143113 0.101427 0.622461 67 94 65
0.142034 0.101452 0.622280 97 124 95
0.140955 0.101478 0.622098 84 116 77
0.139876 0.101504 0.621916 78 110 71
0.138798 0.101529 0.621735 78 110 71
0.137719 0.101555 0.621553 87 119 80
0.136640 0.101581 0.621372 50 68 45
0.142849 0.101848 0.623966 60 88 61
0.141768 0.101874 0.623784 98 126 99
0.140686 0.101900 0.623602 84 116 77
0.139605 0.101926 0.623420 78 110 71
0.138621 0.101089 0.622722 80 112 73
0.137542 0.101115 0.622541 96 128 89
0.099642 0.412452 0.808263 56 74 51
0.142672 0.101407 0.624956 60 88 61
0.141591 0.101433 0.624774 102 130 103
0.140509 0.101459 0.624592 84 116 77
0.139428 0.101484 0.624410 78 110 71
0.138347 0.101510 0.624228 81 111 72
0.137265 0.101536 0.624046 99 129 90
0.142495 0.100966 0.625946 56 84 57
0.141413 0.100992 0.625764 103 131 104
0.140332 0.101017 0.625582 83 115 76
0.139251 0.101043 0.625400 77 109 70
0.138170 0.101069 0.625218 79 111 72
0.137088 0.101095 0.625036 96 128 89
0.098575 0.414259 0.814006 56 77 53
0.142230 0.101384 0.627461 49 75 49
0.141146 0.101409 0.627279 96 122 96
0.140062 0.101435 0.627096 84 116 77
0.138978 0.101461 0.626914 78 110 71
0.137992 0.100628 0.626208 78 110 71
0.136911 0.100653 0.626026 96 128 89
0.098142 0.414298 0.816370 55 76 52
0.142052 0.100941 0.628453 39 65 39
0.140968 0.100967 0.628271 93 119 93
0.139884 0.100993 0.628088 83 115 78
0.138800 0.101019 0.627906 77 109 72
0.137717 0.101045 0.627724 76 111 73
0.136633 0.101070 0.627541 94 129 91
0.097708 0.414334 0.818739 56 79 54
0.141786 0.101356 0.629975 47 70 45
0.140699 0.101382 0.629792 95 118 93
0.139613 0.101407 0.629609 82 114 77
0.138526 0.101433 0.629426 75 107 70
0.137440 0.101459 0.629243 75 110 72
0.136354 0.101485 0.629061 95 130 92
0.097378 0.413511 0.820586 54 80 56
0.141608 0.100912 0.630970 48 69 45
0.140521 0.100938 0.630787 97 118 94
0.139435 0.100964 0.630604 84 114 77
0.138348 0.100990 0.630421 75 105 68
0.137262 0.101016 0.630238 75 110 72
0.136176 0.101042 0.630055 94 129 91
0.096838 0.414400 0.823490 49 76 54
0.141430 0.100469 0.631964 41 62 38
0.140343 0.100495 0.631782 100 121 97
0.139257 0.100521 0.631599 84 114 77
0.138170 0.100547 0.631416 73 103 66
0.136984 0.101427 0.631765 71 103 66
0.135895 0.101453 0.631582 80 112 75
0.096507 0.413575 0.825342 47 72 53
0.141252 0.100026 0.632959 40 58 35
0.140165 0.100052 0.632776 101 119 96
0.139079 0.100077 0.632593 80 110 73
0.137895 0.100957 0.632945 72 102 65
0.136806 0.100983 0.632762 66 98 61
0.135717 0.101009 0.632579 69 101 64
0.134628 0.101035 0.632395 39 64 45
0.141074 0.099582 0.633954 37 53 30
0.139987 0.099608 0.633771 99 115 92
0.138805 0.100487 0.634126 80 110 73
0.137716 0.100513 0.633942 74 104 67
0.136627 0.100539 0.633759 63 94 60
0.135538 0.100565 0.633576 68 99 65
0.140896 0.099139 0.634948 28 48 29
0.139716 0.100017 0.635306 93 113 94
0.138627 0.100042 0.635123 76 107 73
0.137538 0.100068 0.634939 71 102 68
0.136449 0.100094 0.634756 63 94 60
0.135256 0.100972 0.635112 65 96 62
0.139631 0.098722 0.635760 88 110 92
0.138448 0.099598 0.636120 72 103 71
0.137359 0.099624 0.635936 66 97 65
0.136169 0.100501 0.636295 56 87 55
0.135077 0.100527 0.636111 61 92 60
0.133986 0.100553 0.635927 27 47 30
0.139359 0.099128 0.637300 68 89 76
0.138270 0.099154 0.637117 69 100 68
0.137181 0.099180 0.636934 64 95 63
0.135990 0.100055 0.637294 59 90 58
0.134899 0.100081 0.637110 59 90 58
0.139180 0.098683 0.638297 33 54 43
0.138092 0.098709 0.638114 76 107 77
0.136903 0.099584 0.638477 64 95 65
0.135811 0.099610 0.638294 61 95 64
0.134720 0.099636 0.638110 38 72 41
0.139002 0.098239 0.639294 23 43 36
0.137913 0.098265 0.639111 72 100 73
0.136724 0.099138 0.639477 64 92 65
0.135632 0.099164 0.639293 56 89 61
0.134541 0.099190 0.639109 23 56 28
0.137735 0.097821 0.640108 67 95 70
0.136545 0.098693 0.640476 63 91 66
0.135454 0.098719 0.640292 54 84 59
0.134362 0.098745 0.640108 20 50 25
0.137556 0.097376 0.641105 68 89 67
0.136366 0.098248 0.641475 65 86 64
0.135275 0.098274 0.641292 49 70 46
