ply
format ascii 1.0
element vertex 1908
property float x
property float y
property float z
property uchar red
property uchar green
property uchar blue
end_header
-0.056831 -0.195885 0.638000 71 97 57
-0.036164 -0.168867 0.550000 95 133 76
-0.034675 -0.168560 0.549000 92 129 77
-0.033192 -0.168253 0.548000 91 128 76
-0.031714 -0.167946 0.547000 85 118 74
-0.030241 -0.167639 0.546000 75 108 64
-0.036164 -0.167440 0.550000 108 153 82
-0.034612 -0.166831 0.548000 106 150 82
-0.033192 -0.166831 0.548000 100 144 76
-0.031714 -0.166526 0.547000 98 142 78
-0.028562 -0.164700 0.541000 101 141 83
-0.027110 -0.164395 0.540000 100 140 82
-0.025663 -0.164091 0.539000 97 133 86
-0.024266 -0.164091 0.539000 87 123 76
-0.036164 -0.166012 0.550000 125 172 98
-0.034612 -0.165409 0.548000 123 171 94
-0.033192 -0.165409 0.548000 125 173 96
-0.028562 -0.163296 0.541000 112 158 82
-0.027110 -0.162994 0.540000 113 159 83
-0.025663 -0.162692 0.539000 109 153 87
-0.024266 -0.162692 0.539000 103 147 81
-0.022869 -0.162692 0.539000 98 141 82
-0.021432 -0.162390 0.538000 101 144 85
-0.036164 -0.164585 0.550000 139 184 113
-0.034612 -0.163987 0.548000 143 186 111
-0.033192 -0.163987 0.548000 138 181 106
-0.031714 -0.163687 0.547000 138 179 103
-0.030185 -0.163089 0.545000 139 180 104
-0.028562 -0.161892 0.541000 134 177 100
-0.027110 -0.161593 0.540000 125 168 91
-0.025663 -0.161293 0.539000 121 167 91
-0.024266 -0.161293 0.539000 115 161 85
-0.022869 -0.161293 0.539000 112 159 85
-0.021472 -0.161293 0.539000 113 160 86
-0.020038 -0.160994 0.538000 105 151 84
-0.018644 -0.160994 0.538000 107 153 86
-0.017249 -0.160994 0.538000 99 143 90
-0.015826 -0.160695 0.537000 93 137 84
-0.036164 -0.163158 0.550000 69 97 43
-0.034612 -0.162564 0.548000 76 105 46
-0.033192 -0.162564 0.548000 85 114 55
-0.031714 -0.162268 0.547000 103 132 69
-0.030185 -0.161675 0.545000 123 152 89
-0.028562 -0.160488 0.541000 131 168 100
-0.027110 -0.160191 0.540000 142 179 111
-0.025663 -0.159895 0.539000 141 183 111
-0.024266 -0.159895 0.539000 138 180 108
-0.022869 -0.159895 0.539000 128 178 101
-0.021472 -0.159895 0.539000 118 168 91
-0.020038 -0.159598 0.538000 117 167 90
-0.018644 -0.159598 0.538000 116 166 89
-0.017249 -0.159598 0.538000 115 161 92
-0.015855 -0.159598 0.538000 107 153 84
-0.014461 -0.159598 0.538000 106 151 91
-0.013042 -0.159301 0.537000 107 152 92
-0.033131 -0.160848 0.547000 53 67 29
-0.031656 -0.160554 0.546000 47 61 21
-0.030019 -0.159378 0.542000 48 62 22
-0.028562 -0.159084 0.541000 49 71 26
-0.027110 -0.158790 0.540000 72 94 49
-0.025663 -0.158496 0.539000 99 132 74
-0.024266 -0.158496 0.539000 122 155 97
-0.022869 -0.158496 0.539000 137 182 111
-0.021472 -0.158496 0.539000 142 187 116
-0.020075 -0.158496 0.539000 142 190 113
-0.018644 -0.158202 0.538000 134 182 105
-0.017249 -0.158202 0.538000 127 175 98
-0.015855 -0.158202 0.538000 123 171 94
-0.014434 -0.157908 0.537000 122 169 97
-0.013042 -0.157908 0.537000 119 166 94
-0.011629 -0.157614 0.536000 111 156 96
-0.010240 -0.157614 0.536000 111 156 96
-0.008834 -0.157320 0.535000 107 145 97
-0.007434 -0.157026 0.534000 83 121 73
-0.006050 -0.157026 0.534000 57 87 50
-0.027110 -0.157389 0.540000 48 58 33
-0.025663 -0.157097 0.539000 40 57 29
-0.024266 -0.157097 0.539000 44 61 33
-0.022869 -0.157097 0.539000 51 77 33
-0.021472 -0.157097 0.539000 89 115 71
-0.020075 -0.157097 0.539000 120 156 93
-0.018644 -0.156806 0.538000 142 178 115
-0.017281 -0.157097 0.539000 144 189 116
-0.015855 -0.156806 0.538000 139 184 111
-0.014461 -0.156806 0.538000 131 180 106
-0.013042 -0.156514 0.537000 128 177 103
-0.011651 -0.156514 0.537000 123 171 102
-0.010240 -0.156223 0.536000 118 166 97
-0.008834 -0.155931 0.535000 117 164 102
-0.007434 -0.155640 0.534000 114 161 99
-0.006050 -0.155640 0.534000 110 152 100
-0.004657 -0.155348 0.533000 87 129 77
-0.003276 -0.155348 0.533000 65 97 58
-0.021472 -0.155698 0.539000 46 57 36
-0.020075 -0.155698 0.539000 46 65 27
-0.018678 -0.155698 0.539000 69 88 50
-0.017281 -0.155698 0.539000 94 122 66
-0.015885 -0.155698 0.539000 136 164 108
-0.014461 -0.155410 0.538000 143 187 119
-0.013067 -0.155410 0.538000 142 186 118
-0.011651 -0.155121 0.537000 134 181 107
-0.010240 -0.154832 0.536000 129 176 102
-0.008834 -0.154543 0.535000 121 170 98
-0.007434 -0.154254 0.534000 119 168 96
-0.006039 -0.153965 0.533000 119 167 100
-0.004657 -0.153965 0.533000 112 160 93
-0.003276 -0.153965 0.533000 108 151 94
-0.001895 -0.153965 0.533000 95 138 81
-0.000513 -0.153965 0.533000 70 105 67
0.000868 -0.153965 0.533000 45 80 42
-0.067665 -0.172335 0.602000 135 155 120
-0.065886 -0.171762 0.600000 133 169 92
-0.063687 -0.170045 0.594000 128 164 87
-0.061939 -0.169472 0.592000 142 181 101
-0.017313 -0.154586 0.540000 46 62 30
-0.015885 -0.154300 0.539000 55 71 39
-0.014488 -0.154300 0.539000 76 106 56
-0.013091 -0.154300 0.539000 114 144 94
-0.011672 -0.154014 0.538000 137 176 110
-0.010259 -0.153727 0.537000 142 181 115
-0.008851 -0.153441 0.536000 132 177 104
-0.007434 -0.152868 0.534000 129 174 101
-0.006039 -0.152582 0.533000 125 172 98
-0.004657 -0.152582 0.533000 122 169 95
-0.003276 -0.152582 0.533000 114 161 89
-0.001895 -0.152582 0.533000 113 160 88
-0.000513 -0.152582 0.533000 106 151 93
0.000868 -0.152582 0.533000 90 135 77
0.002249 -0.152582 0.533000 69 101 62
-0.069915 -0.172475 0.608000 78 103 55
-0.067665 -0.170773 0.602000 148 173 125
-0.065995 -0.170489 0.601000 130 166 89
-0.064223 -0.169922 0.599000 134 170 93
-0.062253 -0.168787 0.595000 134 167 98
-0.061456 -0.175311 0.618000 43 60 30
-0.014541 -0.153468 0.541000 40 55 30
-0.013139 -0.153468 0.541000 41 56 31
-0.011716 -0.153185 0.540000 56 80 39
-0.010297 -0.152901 0.539000 96 120 79
-0.008900 -0.152901 0.539000 134 168 105
-0.007489 -0.152617 0.538000 149 183 120
-0.006073 -0.152050 0.536000 141 187 111
-0.004675 -0.151766 0.535000 137 183 107
-0.003282 -0.151483 0.534000 125 173 94
-0.001898 -0.151483 0.534000 119 167 88
-0.000512 -0.150915 0.532000 120 167 93
0.000866 -0.150915 0.532000 118 165 91
0.002245 -0.150915 0.532000 114 157 98
0.003624 -0.150915 0.532000 98 141 82
-0.070030 -0.171178 0.609000 132 163 106
-0.067778 -0.169492 0.603000 135 166 109
-0.065995 -0.168929 0.601000 129 167 92
-0.064545 -0.169210 0.602000 147 185 110
-0.008933 -0.152065 0.541000 48 68 35
-0.007517 -0.151783 0.540000 79 99 66
-0.006106 -0.151502 0.539000 115 150 94
-0.004701 -0.151221 0.538000 146 181 125
-0.003294 -0.150659 0.536000 145 191 115
-0.001902 -0.150378 0.535000 137 183 107
-0.000514 -0.150097 0.534000 128 174 96
0.000866 -0.149535 0.532000 127 173 95
0.002245 -0.149535 0.532000 123 171 94
0.003624 -0.149535 0.532000 114 162 85
0.005003 -0.149535 0.532000 111 157 92
0.006381 -0.149535 0.532000 92 138 73
-0.070145 -0.169876 0.610000 150 184 121
-0.068677 -0.170155 0.611000 141 175 112
-0.065617 -0.170433 0.612000 142 179 109
-0.004710 -0.150104 0.539000 78 101 65
-0.003307 -0.149825 0.538000 117 155 96
-0.001905 -0.149268 0.536000 148 186 127
-0.000515 -0.148990 0.535000 148 191 114
0.000866 -0.148154 0.532000 138 181 104
0.002245 -0.148154 0.532000 130 179 95
0.003624 -0.148154 0.532000 121 170 86
0.005003 -0.148154 0.532000 116 166 89
0.006381 -0.148154 0.532000 113 163 86
0.007760 -0.148154 0.532000 109 152 91
0.009139 -0.148154 0.532000 78 121 60
-0.072314 -0.169673 0.615000 103 120 90
-0.070375 -0.168845 0.612000 149 185 120
-0.068789 -0.168845 0.612000 140 176 111
-0.067423 -0.169397 0.614000 141 181 110
-0.066153 -0.170224 0.617000 108 148 77
-0.001909 -0.148153 0.537000 85 106 68
-0.000515 -0.147601 0.535000 127 161 98
0.000866 -0.146774 0.532000 152 186 123
0.002245 -0.146774 0.532000 141 187 109
0.003624 -0.146774 0.532000 132 178 100
0.005003 -0.146774 0.532000 121 171 92
0.006381 -0.146774 0.532000 117 167 88
0.007760 -0.146774 0.532000 118 167 93
0.009139 -0.146774 0.532000 118 167 93
0.010517 -0.146774 0.532000 110 150 92
-0.072432 -0.168350 0.616000 125 143 110
-0.070835 -0.168350 0.616000 139 179 108
-0.069351 -0.168623 0.617000 130 170 99
-0.067972 -0.169170 0.619000 141 181 110
-0.066582 -0.169716 0.621000 82 122 51
-0.000515 -0.146213 0.535000 52 71 31
0.000866 -0.145393 0.532000 83 102 62
0.002245 -0.145393 0.532000 128 164 99
0.003624 -0.145393 0.532000 144 180 115
0.005003 -0.145393 0.532000 134 184 105
0.006381 -0.145393 0.532000 129 179 100
0.007760 -0.145393 0.532000 123 173 92
0.009139 -0.145393 0.532000 119 169 88
0.010517 -0.145393 0.532000 122 169 95
0.011874 -0.145120 0.531000 116 163 89
-0.072784 -0.167564 0.619000 136 157 119
-0.071180 -0.167564 0.619000 141 184 109
-0.069688 -0.167834 0.620000 132 175 100
-0.068301 -0.168376 0.622000 145 185 116
-0.067118 -0.169458 0.626000 54 94 25
0.000870 -0.144554 0.534000 47 56 36
0.002245 -0.144013 0.532000 45 65 30
0.003624 -0.144013 0.532000 85 105 70
0.005003 -0.144013 0.532000 127 166 100
0.006381 -0.144013 0.532000 147 186 120
0.007760 -0.144013 0.532000 138 187 103
0.009139 -0.144013 0.532000 129 178 94
0.010517 -0.144013 0.532000 124 171 88
0.011874 -0.143742 0.531000 126 173 90
0.013250 -0.143742 0.531000 123 168 97
0.014654 -0.144013 0.532000 110 155 84
0.016032 -0.144013 0.532000 87 118 72
-0.073020 -0.166494 0.621000 145 165 120
-0.071410 -0.166494 0.621000 135 176 98
-0.069913 -0.166762 0.622000 146 187 109
-0.068741 -0.167834 0.626000 143 179 114
0.003624 -0.142632 0.532000 49 60 39
0.005003 -0.142632 0.532000 51 77 37
0.006381 -0.142632 0.532000 101 127 87
0.007760 -0.142632 0.532000 137 180 105
0.009139 -0.142632 0.532000 148 191 116
0.010517 -0.142632 0.532000 141 188 103
0.011896 -0.142632 0.532000 132 179 94
0.013250 -0.142364 0.531000 126 173 90
0.014654 -0.142632 0.532000 126 173 90
0.016032 -0.142632 0.532000 121 162 97
0.017411 -0.142632 0.532000 102 143 78
-0.073137 -0.165148 0.622000 152 171 120
-0.071640 -0.165413 0.623000 141 183 102
-0.070475 -0.166475 0.627000 144 186 105
-0.067547 -0.167272 0.630000 25 61 0
0.005003 -0.141252 0.532000 50 61 40
0.006381 -0.141252 0.532000 48 59 38
0.007760 -0.141252 0.532000 60 92 43
0.009139 -0.141252 0.532000 117 149 100
0.010517 -0.141252 0.532000 146 189 112
0.011896 -0.141252 0.532000 144 187 110
0.013275 -0.141252 0.532000 134 181 96
0.014654 -0.141252 0.532000 131 178 93
0.016032 -0.141252 0.532000 127 173 95
0.017411 -0.141252 0.532000 127 173 95
0.018790 -0.141252 0.532000 115 155 97
0.020168 -0.141252 0.532000 83 123 65
-0.073608 -0.164585 0.626000 153 173 117
-0.070588 -0.165111 0.628000 148 187 105
-0.069290 -0.165900 0.631000 124 158 93
-0.067762 -0.166163 0.632000 27 61 0
0.009139 -0.139871 0.532000 52 67 42
0.010517 -0.139871 0.532000 83 114 57
0.011874 -0.139608 0.531000 136 167 110
0.013275 -0.139871 0.532000 147 190 111
0.014654 -0.139871 0.532000 140 183 104
0.016032 -0.139871 0.532000 133 181 100
0.017411 -0.139871 0.532000 123 171 90
0.018790 -0.139871 0.532000 118 167 93
0.020168 -0.139871 0.532000 113 162 88
0.021547 -0.139871 0.532000 103 142 89
0.022926 -0.139871 0.532000 66 105 52
-0.075951 -0.164523 0.632000 69 91 30
-0.074078 -0.164002 0.630000 151 173 112
-0.072445 -0.164002 0.630000 134 174 89
-0.070925 -0.164262 0.631000 150 190 105
-0.069399 -0.164523 0.632000 107 141 76
-0.068083 -0.165303 0.635000 25 59 0
0.010517 -0.138490 0.532000 42 59 29
0.011896 -0.138490 0.532000 58 75 45
0.013250 -0.138230 0.531000 107 139 77
0.014654 -0.138490 0.532000 151 183 121
0.016032 -0.138490 0.532000 151 197 117
0.017411 -0.138490 0.532000 139 185 105
0.018790 -0.138490 0.532000 129 179 98
0.020168 -0.138490 0.532000 123 173 92
0.021547 -0.138490 0.532000 120 166 97
0.022926 -0.138490 0.532000 113 159 90
0.024305 -0.138490 0.532000 94 131 81
-0.076071 -0.163140 0.633000 74 95 32
-0.074313 -0.162883 0.632000 157 178 115
-0.072675 -0.162883 0.632000 142 182 97
-0.071150 -0.163140 0.633000 151 191 106
-0.069729 -0.163656 0.635000 101 135 74
-0.068512 -0.164687 0.639000 25 59 0
0.013275 -0.137110 0.532000 50 66 34
0.014654 -0.137110 0.532000 87 103 71
0.016032 -0.137110 0.532000 126 163 93
0.017411 -0.137110 0.532000 155 192 122
0.018790 -0.137110 0.532000 145 194 110
0.020168 -0.137110 0.532000 135 184 100
0.021547 -0.137110 0.532000 127 175 96
0.022926 -0.137110 0.532000 121 169 90
0.024305 -0.137110 0.532000 128 169 104
0.025683 -0.137110 0.532000 103 144 79
-0.076311 -0.162008 0.635000 73 96 32
-0.074431 -0.161498 0.633000 159 182 118
-0.072790 -0.161498 0.633000 141 186 99
-0.071374 -0.162008 0.635000 151 196 109
-0.070058 -0.162773 0.638000 98 132 71
-0.068834 -0.163794 0.642000 23 57 0
0.014654 -0.135729 0.532000 43 51 36
0.016032 -0.135729 0.532000 53 77 36
0.017411 -0.135729 0.532000 99 123 82
0.018790 -0.135729 0.532000 146 189 114
0.020168 -0.135729 0.532000 154 197 122
0.021547 -0.135729 0.532000 141 188 105
0.022926 -0.135729 0.532000 132 179 96
0.024305 -0.135729 0.532000 129 172 95
0.025683 -0.135729 0.532000 129 172 95
0.027062 -0.135729 0.532000 118 156 97
-0.076672 -0.161118 0.638000 69 93 34
-0.074783 -0.160613 0.636000 159 183 124
-0.073135 -0.160613 0.636000 145 189 105
-0.071712 -0.161118 0.638000 151 195 111
-0.070388 -0.161875 0.641000 104 140 79
-0.068834 -0.162128 0.642000 20 56 0
0.017444 -0.134601 0.533000 49 60 39
0.018825 -0.134601 0.533000 77 109 58
0.020206 -0.134601 0.533000 142 174 123
0.021547 -0.134349 0.532000 151 197 119
0.022926 -0.134349 0.532000 150 196 118
0.024305 -0.134349 0.532000 139 186 103
0.025683 -0.134349 0.532000 130 177 94
0.027062 -0.134349 0.532000 125 166 92
0.028441 -0.134349 0.532000 123 164 90
-0.075019 -0.159462 0.638000 159 182 128
-0.073480 -0.159712 0.639000 148 192 110
-0.071937 -0.159962 0.640000 153 197 115
-0.070498 -0.160462 0.642000 124 160 95
-0.068941 -0.160712 0.643000 19 55 0
0.018966 -0.134218 0.537000 44 63 35
0.020320 -0.133968 0.536000 64 83 55
0.021588 -0.133218 0.533000 105 143 86
0.022926 -0.132968 0.532000 152 190 133
0.024305 -0.132968 0.532000 148 194 114
0.025683 -0.132968 0.532000 141 187 107
0.027062 -0.132968 0.532000 135 182 99
0.028441 -0.132968 0.532000 123 170 87
0.029820 -0.132968 0.532000 119 160 95
0.031198 -0.132968 0.532000 97 138 73
-0.075371 -0.158548 0.641000 157 177 130
-0.073710 -0.158548 0.641000 144 187 108
-0.072161 -0.158796 0.642000 157 200 121
-0.070607 -0.159043 0.643000 131 168 98
-0.069048 -0.159290 0.644000 22 59 0
0.021750 -0.132825 0.537000 51 76 41
0.022969 -0.131835 0.533000 88 113 78
0.024305 -0.131588 0.532000 140 179 113
0.025683 -0.131588 0.532000 156 195 129
0.027062 -0.131588 0.532000 153 199 119
0.028441 -0.131588 0.532000 144 190 110
0.029820 -0.131588 0.532000 129 175 99
0.031257 -0.131835 0.533000 129 175 99
0.032638 -0.131835 0.533000 116 156 98
-0.075371 -0.156885 0.641000 147 167 120
-0.073825 -0.157130 0.642000 146 187 109
-0.072161 -0.157130 0.642000 161 202 124
-0.070607 -0.157375 0.643000 142 178 105
-0.069155 -0.157864 0.645000 28 64 0
0.023184 -0.131676 0.538000 50 63 46
0.024350 -0.130452 0.533000 67 94 45
0.025683 -0.130207 0.532000 136 163 114
0.027062 -0.130207 0.532000 154 197 122
0.028494 -0.130452 0.533000 154 197 122
0.029876 -0.130452 0.533000 146 192 114
0.031257 -0.130452 0.533000 131 177 99
0.032638 -0.130452 0.533000 131 176 103
0.034083 -0.130697 0.534000 117 162 89
-0.075489 -0.155464 0.642000 147 166 124
-0.073825 -0.155464 0.642000 152 193 115
-0.072274 -0.155706 0.643000 163 204 126
-0.070717 -0.155948 0.644000 147 185 112
-0.069155 -0.156190 0.645000 29 67 0
0.025732 -0.129069 0.533000 59 76 48
0.027113 -0.129069 0.533000 103 137 76
0.028548 -0.129311 0.534000 157 191 130
0.029876 -0.129069 0.533000 165 208 129
0.031316 -0.129311 0.534000 153 196 117
0.032699 -0.129311 0.534000 136 182 102
0.034147 -0.129553 0.535000 130 176 96
0.035534 -0.129553 0.535000 125 164 100
-0.075606 -0.154037 0.643000 138 157 119
-0.073940 -0.154037 0.643000 166 207 131
-0.072274 -0.154037 0.643000 165 206 130
-0.070717 -0.154277 0.644000 152 192 121
0.027164 -0.127925 0.534000 49 69 36
0.028548 -0.127925 0.534000 80 100 67
0.029988 -0.128165 0.535000 141 181 112
0.031374 -0.128165 0.535000 165 205 136
0.032761 -0.128165 0.535000 154 198 116
0.034147 -0.128165 0.535000 145 189 107
0.035534 -0.128165 0.535000 136 179 100
0.038378 -0.128404 0.536000 103 138 80
-0.075724 -0.152606 0.644000 123 143 110
-0.074055 -0.152606 0.644000 167 205 132
-0.072386 -0.152606 0.644000 160 198 125
-0.070827 -0.152843 0.645000 154 194 123
-0.067902 -0.153791 0.649000 26 50 18
0.028655 -0.127014 0.536000 52 63 42
0.030044 -0.127014 0.536000 67 95 41
0.031433 -0.127014 0.536000 138 166 112
0.032822 -0.127014 0.536000 159 201 120
0.034211 -0.127014 0.536000 159 201 120
0.035600 -0.127014 0.536000 146 191 104
0.037058 -0.127250 0.537000 129 174 87
0.038378 -0.127014 0.536000 125 167 95
0.039842 -0.127250 0.537000 105 147 75
-0.075842 -0.151169 0.645000 106 123 95
-0.074170 -0.151169 0.645000 158 193 123
-0.072499 -0.151169 0.645000 163 198 128
-0.069370 -0.151638 0.647000 81 123 51
-0.068007 -0.152341 0.650000 25 50 15
0.030100 -0.125857 0.537000 48 62 26
0.031491 -0.125857 0.537000 67 81 45
0.032883 -0.125857 0.537000 123 158 90
0.034275 -0.125857 0.537000 164 199 131
0.035666 -0.125857 0.537000 160 204 120
0.037058 -0.125857 0.537000 150 194 110
0.038521 -0.126091 0.538000 130 176 96
0.039842 -0.125857 0.537000 128 174 94
0.041233 -0.125857 0.537000 117 155 98
-0.076194 -0.150191 0.648000 87 102 73
-0.074285 -0.149727 0.646000 151 186 118
-0.072611 -0.149727 0.646000 162 197 129
-0.070937 -0.149727 0.646000 162 203 127
-0.069584 -0.150422 0.649000 95 136 60
-0.068112 -0.150886 0.651000 19 47 9
0.032944 -0.124695 0.538000 53 73 26
0.034339 -0.124695 0.538000 122 142 95
0.035733 -0.124695 0.538000 159 200 124
0.037127 -0.124695 0.538000 165 206 130
0.038521 -0.124695 0.538000 156 204 123
0.039916 -0.124695 0.538000 138 186 105
0.041310 -0.124695 0.538000 137 182 111
0.042704 -0.124695 0.538000 114 159 88
-0.076312 -0.148738 0.649000 62 74 46
-0.074630 -0.148738 0.649000 152 185 118
-0.072836 -0.148509 0.648000 161 194 127
-0.071266 -0.148738 0.649000 158 199 121
-0.069691 -0.148967 0.650000 120 161 83
-0.068216 -0.149426 0.652000 23 52 7
0.034339 -0.123299 0.538000 48 58 35
0.035799 -0.123528 0.539000 97 128 75
0.037127 -0.123299 0.538000 159 190 137
0.038521 -0.123299 0.538000 165 211 133
0.039916 -0.123299 0.538000 156 202 124
0.041310 -0.123299 0.538000 149 197 118
0.042704 -0.123299 0.538000 141 189 110
0.044099 -0.123299 0.538000 131 169 112
-0.076547 -0.147507 0.651000 49 59 34
-0.074745 -0.147281 0.650000 144 176 112
-0.073061 -0.147281 0.650000 164 196 132
-0.071376 -0.147281 0.650000 159 202 123
-0.069906 -0.147734 0.652000 147 190 111
-0.068321 -0.147960 0.653000 30 62 13
0.035799 -0.122130 0.539000 44 62 29
0.037196 -0.122130 0.539000 93 111 78
0.038593 -0.122130 0.539000 148 188 119
0.039990 -0.122130 0.539000 167 207 138
0.041387 -0.122130 0.539000 164 210 130
0.042784 -0.122130 0.539000 152 198 118
0.044180 -0.122130 0.539000 139 184 111
0.045577 -0.122130 0.539000 130 175 102
-0.074975 -0.146042 0.652000 117 149 87
-0.073285 -0.146042 0.652000 161 193 131
-0.071596 -0.146042 0.652000 157 203 125
-0.070013 -0.146266 0.653000 155 201 123
-0.068425 -0.146490 0.654000 39 73 22
0.037196 -0.120731 0.539000 47 56 38
0.038593 -0.120731 0.539000 74 104 54
0.039990 -0.120731 0.539000 142 172 122
0.041387 -0.120731 0.539000 168 212 130
0.042784 -0.120731 0.539000 165 209 127
0.044180 -0.120731 0.539000 147 191 107
0.045577 -0.120731 0.539000 145 189 105
0.047061 -0.120955 0.540000 134 173 107
-0.075205 -0.144793 0.654000 90 121 64
-0.073398 -0.144571 0.653000 165 196 139
-0.071705 -0.144571 0.653000 144 190 112
-0.070120 -0.144793 0.654000 157 203 125
-0.068425 -0.144793 0.654000 66 100 49
-0.066833 -0.145014 0.655000 19 53 2
0.038593 -0.119332 0.539000 41 60 30
0.039990 -0.119332 0.539000 66 85 55
0.041387 -0.119332 0.539000 138 178 109
0.042784 -0.119332 0.539000 167 207 138
0.044180 -0.119332 0.539000 164 209 122
0.045662 -0.119554 0.540000 151 196 109
0.047061 -0.119554 0.540000 144 187 108
0.048461 -0.119554 0.540000 138 181 102
-0.075205 -0.143096 0.654000 72 99 41
-0.073510 -0.143096 0.654000 164 191 133
-0.071815 -0.143096 0.654000 151 195 113
-0.070120 -0.143096 0.654000 160 204 122
-0.068530 -0.143314 0.655000 113 148 94
-0.067037 -0.143752 0.657000 19 54 0
0.039990 -0.117933 0.539000 41 50 32
0.041387 -0.117933 0.539000 57 87 37
0.042863 -0.118152 0.540000 130 160 110
0.044262 -0.118152 0.540000 162 206 124
0.045662 -0.118152 0.540000 165 209 127
0.047061 -0.118152 0.540000 151 195 113
0.048551 -0.118371 0.541000 143 187 105
0.049953 -0.118371 0.541000 141 181 110
-0.075320 -0.141615 0.655000 53 74 22
-0.073623 -0.141615 0.655000 157 178 126
-0.071925 -0.141615 0.655000 154 196 115
-0.070228 -0.141615 0.655000 159 201 120
-0.068635 -0.141831 0.656000 127 165 106
-0.067139 -0.142263 0.658000 19 57 0
0.041464 -0.116751 0.540000 42 59 29
0.042863 -0.116751 0.540000 57 74 44
0.044262 -0.116751 0.540000 118 155 87
0.045746 -0.116967 0.541000 168 205 137
0.047148 -0.116967 0.541000 156 203 120
0.048551 -0.116967 0.541000 152 199 116
0.050045 -0.117183 0.542000 143 189 111
0.051544 -0.117400 0.543000 139 185 107
0.053049 -0.117616 0.544000 94 128 77
-0.073735 -0.140128 0.656000 142 159 118
-0.072035 -0.140128 0.656000 160 198 121
-0.070442 -0.140342 0.657000 154 192 115
-0.068739 -0.140342 0.657000 142 181 117
-0.067241 -0.140769 0.659000 37 76 12
0.044344 -0.115563 0.541000 46 71 25
0.045831 -0.115777 0.542000 119 144 98
0.047236 -0.115777 0.542000 161 204 125
0.048730 -0.115990 0.543000 164 207 128
0.050230 -0.116204 0.544000 148 195 112
0.051639 -0.116204 0.544000 146 193 110
0.053147 -0.116418 0.545000 131 175 109
0.054559 -0.116418 0.545000 95 139 73
-0.073960 -0.138848 0.658000 116 132 98
-0.072254 -0.138848 0.658000 162 200 127
-0.070549 -0.138848 0.658000 157 195 122
-0.068949 -0.139059 0.659000 155 194 128
-0.067445 -0.139481 0.661000 62 101 35
-0.065931 -0.139903 0.663000 30 54 26
0.045916 -0.114581 0.543000 54 66 42
0.047323 -0.114581 0.543000 117 151 88
0.048820 -0.114792 0.544000 166 200 137
0.050322 -0.115003 0.545000 155 202 119
0.051734 -0.115003 0.545000 150 197 114
0.053147 -0.115003 0.545000 146 192 114
0.054659 -0.115214 0.546000 139 185 107
0.056074 -0.115214 0.546000 96 130 79
-0.074185 -0.137558 0.660000 67 82 53
-0.072474 -0.137558 0.660000 158 193 125
-0.070764 -0.137558 0.660000 164 199 131
-0.069158 -0.137766 0.661000 159 201 131
-0.067547 -0.137974 0.662000 96 138 68
-0.066030 -0.138391 0.664000 21 48 15
0.047497 -0.113589 0.545000 49 68 28
0.048910 -0.113589 0.545000 116 135 95
0.050414 -0.113798 0.546000 158 201 122
0.051829 -0.113798 0.546000 159 202 123
0.053244 -0.113798 0.546000 146 193 108
0.054759 -0.114006 0.547000 149 196 111
0.056177 -0.114006 0.547000 143 185 115
-0.074409 -0.136256 0.662000 52 64 40
-0.072694 -0.136256 0.662000 150 184 119
-0.070978 -0.136256 0.662000 159 193 128
-0.069262 -0.136256 0.662000 158 200 128
-0.067649 -0.136462 0.663000 129 171 99
-0.066030 -0.136668 0.664000 22 52 13
0.048999 -0.112381 0.546000 48 58 33
0.050414 -0.112381 0.546000 101 137 76
0.051924 -0.112587 0.547000 161 197 136
0.053342 -0.112587 0.547000 156 203 118
0.054759 -0.112587 0.547000 149 196 111
0.056177 -0.112587 0.547000 148 191 112
0.057700 -0.112792 0.548000 143 186 107
-0.072913 -0.134945 0.664000 137 166 105
-0.071193 -0.134945 0.664000 162 191 130
-0.069472 -0.134945 0.664000 157 199 127
-0.067751 -0.134945 0.664000 146 188 116
0.050507 -0.111167 0.547000 42 63 23
0.051924 -0.111167 0.547000 115 136 96
0.053342 -0.111167 0.547000 156 202 126
0.054759 -0.111167 0.547000 155 201 125
0.056280 -0.111370 0.548000 146 192 112
0.057700 -0.111370 0.548000 146 192 112
0.059120 -0.111370 0.548000 142 182 111
-0.073023 -0.133423 0.665000 107 133 78
-0.071300 -0.133423 0.665000 167 193 138
-0.069576 -0.133423 0.665000 161 204 129
-0.067853 -0.133423 0.665000 152 195 120
-0.066130 -0.133423 0.665000 74 112 57
-0.064406 -0.133423 0.665000 20 58 3
0.051924 -0.109748 0.547000 50 62 38
0.053342 -0.109748 0.547000 107 143 82
0.054859 -0.109948 0.548000 160 196 135
0.056280 -0.109948 0.548000 155 201 121
0.057700 -0.109948 0.548000 150 196 116
0.059336 -0.110350 0.550000 147 190 111
0.060761 -0.110350 0.550000 138 181 102
-0.073023 -0.131697 0.665000 62 85 35
-0.071300 -0.131697 0.665000 165 188 138
-0.069576 -0.131697 0.665000 162 203 129
-0.067853 -0.131697 0.665000 153 194 120
-0.066130 -0.131697 0.665000 101 141 83
-0.064503 -0.131895 0.666000 15 55 0
0.053439 -0.108526 0.548000 42 66 27
0.054859 -0.108526 0.548000 103 127 88
0.056382 -0.108724 0.549000 155 198 123
0.057910 -0.108922 0.550000 164 207 132
0.060872 -0.109120 0.551000 141 185 101
0.062413 -0.109318 0.552000 141 182 108
0.063959 -0.109516 0.553000 95 136 62
-0.073133 -0.130167 0.666000 37 59 14
-0.071407 -0.130167 0.666000 142 164 119
-0.069681 -0.130167 0.666000 168 206 133
-0.067955 -0.130167 0.666000 160 198 125
-0.066229 -0.130167 0.666000 133 173 113
-0.064503 -0.130167 0.666000 18 58 0
0.054960 -0.107300 0.549000 43 60 34
0.057910 -0.107495 0.550000 158 193 137
0.059444 -0.107690 0.551000 155 199 115
0.061093 -0.108081 0.553000 148 192 108
0.062639 -0.108277 0.554000 147 191 107
0.064075 -0.108277 0.554000 138 182 98
-0.071407 -0.128438 0.666000 100 120 85
-0.069681 -0.128438 0.666000 167 202 132
-0.067955 -0.128438 0.666000 165 200 130
-0.066229 -0.128438 0.666000 148 187 123
-0.064600 -0.128631 0.667000 37 76 12
0.056588 -0.106261 0.551000 42 67 30
0.058121 -0.106453 0.552000 105 130 93
0.059659 -0.106646 0.553000 158 201 122
0.061203 -0.106839 0.554000 160 203 124
0.062639 -0.106839 0.554000 144 189 100
0.064190 -0.107032 0.555000 144 189 100
0.065629 -0.107032 0.555000 132 169 101
-0.071514 -0.126900 0.667000 77 92 65
-0.069786 -0.126900 0.667000 162 196 131
-0.068057 -0.126900 0.667000 165 199 134
-0.066328 -0.126900 0.667000 155 195 124
-0.064600 -0.126900 0.667000 77 117 46
-0.062966 -0.127091 0.668000 20 45 8
0.058332 -0.105402 0.554000 44 59 34
0.059767 -0.105402 0.554000 110 146 85
0.061314 -0.105592 0.555000 162 198 137
0.062752 -0.105592 0.555000 151 198 113
0.064306 -0.105782 0.556000 145 192 107
0.065747 -0.105782 0.556000 146 189 110
0.067188 -0.105782 0.556000 130 173 94
-0.071621 -0.125357 0.668000 46 57 36
-0.069786 -0.125170 0.667000 153 187 126
-0.068057 -0.125170 0.667000 169 203 142
-0.066328 -0.125170 0.667000 154 194 123
-0.064697 -0.125357 0.668000 119 159 88
-0.062966 -0.125357 0.668000 23 52 9
0.059875 -0.104152 0.555000 40 66 22
0.061424 -0.104339 0.556000 117 143 99
0.062865 -0.104339 0.556000 156 202 124
0.064306 -0.104339 0.556000 152 198 120
0.065865 -0.104527 0.557000 144 191 108
0.067309 -0.104527 0.557000 139 186 103
-0.071621 -0.123624 0.668000 37 46 26
-0.069890 -0.123624 0.668000 126 152 97
-0.068159 -0.123624 0.668000 175 201 146
-0.066428 -0.123624 0.668000 161 201 132
-0.064697 -0.123624 0.668000 142 182 113
-0.063060 -0.123809 0.669000 47 77 29
0.061424 -0.102896 0.556000 47 64 36
0.062978 -0.103081 0.557000 110 149 85
0.064421 -0.103081 0.557000 162 201 137
0.065983 -0.103267 0.558000 157 204 121
0.067550 -0.103452 0.559000 146 193 110
0.069122 -0.103637 0.560000 144 190 114
-0.069995 -0.122073 0.669000 56 81 33
-0.068261 -0.122073 0.669000 162 187 139
-0.066527 -0.122073 0.669000 169 206 138
-0.064794 -0.122073 0.669000 157 194 126
-0.063154 -0.122255 0.670000 78 110 59
-0.061509 -0.122438 0.671000 14 46 0
0.063091 -0.101819 0.558000 46 72 28
0.064653 -0.102001 0.559000 130 156 112
0.066102 -0.102001 0.559000 162 208 128
0.067792 -0.102366 0.561000 156 202 122
0.069246 -0.102366 0.561000 144 190 110
0.070826 -0.102548 0.562000 142 188 108
-0.070204 -0.120696 0.671000 40 64 23
-0.068363 -0.120517 0.670000 149 173 132
-0.066627 -0.120517 0.670000 171 205 140
-0.064890 -0.120517 0.670000 164 198 133
-0.063248 -0.120696 0.671000 127 162 106
-0.061509 -0.120696 0.671000 20 55 0
0.064768 -0.100730 0.560000 60 76 53
0.066338 -0.100910 0.561000 134 173 107
0.067792 -0.100910 0.561000 166 205 139
0.069493 -0.101270 0.563000 157 204 121
0.070952 -0.101270 0.563000 146 193 110
0.072539 -0.101450 0.564000 141 182 115
-0.070309 -0.119132 0.672000 29 49 14
-0.068465 -0.118955 0.671000 122 142 107
-0.066726 -0.118955 0.671000 177 211 146
-0.064987 -0.118955 0.671000 170 204 139
-0.063343 -0.119132 0.672000 146 181 123
-0.061693 -0.119310 0.673000 37 72 14
0.065000 -0.099632 0.562000 43 53 39
0.066575 -0.099809 0.563000 59 89 41
0.068034 -0.099809 0.563000 142 172 124
0.069616 -0.099986 0.564000 160 206 128
0.071078 -0.099986 0.564000 149 195 117
0.072539 -0.099986 0.564000 145 191 115
0.075596 -0.100163 0.565000 96 128 79
-0.068669 -0.117563 0.673000 92 104 76
-0.066925 -0.117563 0.673000 175 207 145
-0.065181 -0.117563 0.673000 173 205 143
-0.063437 -0.117563 0.673000 155 191 126
-0.061784 -0.117738 0.674000 79 115 50
-0.060038 -0.117738 0.674000 21 45 13
0.066693 -0.098523 0.564000 40 60 27
0.068154 -0.098523 0.564000 84 104 71
0.069616 -0.098523 0.564000 146 185 119
0.071078 -0.098523 0.564000 166 205 139
0.074132 -0.098697 0.565000 146 192 112
0.075730 -0.098872 0.566000 137 176 114
-0.068771 -0.115989 0.674000 55 65 42
-0.067025 -0.115989 0.674000 161 189 133
-0.065278 -0.115989 0.674000 174 202 146
-0.063625 -0.116161 0.675000 160 197 129
-0.061876 -0.116161 0.675000 119 156 88
-0.060127 -0.116161 0.675000 17 43 3
0.068154 -0.097059 0.564000 42 54 30
0.071204 -0.097231 0.565000 156 187 132
0.072668 -0.097231 0.565000 161 204 127
0.074263 -0.097403 0.566000 157 200 123
0.075864 -0.097575 0.567000 154 196 126
0.077606 -0.097919 0.569000 129 171 101
-0.068975 -0.114579 0.676000 40 48 33
-0.067223 -0.114579 0.676000 115 143 91
-0.065472 -0.114579 0.676000 170 198 146
-0.063720 -0.114579 0.676000 162 199 129
-0.061968 -0.114579 0.676000 147 184 114
-0.060216 -0.114579 0.676000 36 65 20
0.069739 -0.095765 0.565000 43 64 24
0.071330 -0.095934 0.566000 112 133 93
0.072925 -0.096104 0.567000 160 200 129
0.074526 -0.096273 0.568000 166 206 135
0.076132 -0.096443 0.569000 161 204 129
0.077743 -0.096612 0.570000 154 197 122
-0.067323 -0.112992 0.677000 70 95 47
-0.065472 -0.112825 0.676000 168 193 145
-0.063720 -0.112825 0.676000 165 202 132
-0.061968 -0.112825 0.676000 156 193 123
-0.060305 -0.112992 0.677000 90 121 68
-0.058550 -0.112992 0.677000 16 47 0
0.071456 -0.094633 0.567000 47 62 35
0.073182 -0.094966 0.569000 118 150 88
0.074788 -0.095133 0.570000 165 197 135
0.076399 -0.095300 0.571000 159 202 127
0.077879 -0.095300 0.571000 159 202 127
0.079498 -0.095467 0.572000 151 186 128
-0.067323 -0.111235 0.677000 40 61 23
-0.065568 -0.111235 0.677000 154 175 137
-0.063814 -0.111235 0.677000 173 207 142
-0.062059 -0.111235 0.677000 164 198 133
-0.060305 -0.111235 0.677000 122 155 101
-0.058637 -0.111399 0.678000 17 50 0
0.073440 -0.093818 0.571000 58 80 35
0.075051 -0.093983 0.572000 140 162 117
0.076533 -0.093983 0.572000 165 203 128
0.078152 -0.094147 0.573000 160 198 123
0.079637 -0.094147 0.573000 159 199 128
-0.067422 -0.109640 0.678000 33 50 20
-0.065665 -0.109640 0.678000 127 144 114
-0.063908 -0.109640 0.678000 170 204 143
-0.062151 -0.109640 0.678000 167 201 140
-0.060394 -0.109640 0.678000 141 176 120
-0.058637 -0.109640 0.678000 40 75 19
0.075182 -0.092660 0.573000 72 89 59
0.076667 -0.092660 0.573000 150 185 117
0.078288 -0.092822 0.574000 169 204 136
0.079915 -0.092984 0.575000 158 199 121
0.081546 -0.093145 0.576000 158 199 121
-0.065665 -0.107880 0.678000 69 83 61
-0.063908 -0.107880 0.678000 164 195 140
-0.062151 -0.107880 0.678000 175 206 151
-0.060394 -0.107880 0.678000 151 186 130
-0.058637 -0.107880 0.678000 72 107 51
-0.056964 -0.108039 0.679000 12 39 6
0.075313 -0.091332 0.574000 41 55 33
0.076934 -0.091491 0.575000 100 133 75
0.078561 -0.091651 0.576000 165 198 140
0.080332 -0.091969 0.578000 159 202 123
0.081971 -0.092128 0.579000 160 203 124
-0.065762 -0.106277 0.679000 43 54 35
-0.064002 -0.106277 0.679000 139 167 115
-0.062243 -0.106277 0.679000 179 207 155
-0.060483 -0.106277 0.679000 157 193 132
-0.058723 -0.106277 0.679000 118 154 93
-0.056964 -0.106277 0.679000 22 50 12
0.077336 -0.090469 0.578000 52 78 36
0.080610 -0.090782 0.580000 162 205 128
0.082113 -0.090782 0.580000 158 201 124
0.083760 -0.090938 0.581000 158 199 123
-0.065859 -0.104669 0.680000 34 44 28
-0.064097 -0.104669 0.680000 109 133 90
-0.062243 -0.104515 0.679000 178 202 159
-0.060483 -0.104515 0.679000 169 205 140
-0.058810 -0.104669 0.680000 141 177 112
-0.057048 -0.104669 0.680000 45 74 29
0.079243 -0.089431 0.581000 63 82 54
0.080888 -0.089585 0.582000 145 186 112
0.082396 -0.089585 0.582000 155 196 122
0.084048 -0.089739 0.583000 157 201 117
0.085559 -0.089739 0.583000 151 195 111
-0.064097 -0.102905 0.680000 77 103 63
-0.062334 -0.102905 0.680000 168 194 154
-0.060572 -0.102905 0.680000 165 204 138
-0.058810 -0.102905 0.680000 144 183 117
-0.057131 -0.103056 0.681000 84 116 67
-0.055448 -0.103207 0.682000 16 48 0
0.079516 -0.088226 0.583000 38 51 34
0.081166 -0.088377 0.584000 103 137 76
0.082679 -0.088377 0.584000 160 194 133
0.084337 -0.088528 0.585000 155 198 112
0.086146 -0.088831 0.587000 154 197 111
-0.064191 -0.101289 0.681000 39 62 26
-0.062426 -0.101289 0.681000 150 173 137
-0.060661 -0.101289 0.681000 166 205 139
-0.058896 -0.101289 0.681000 153 192 126
-0.057215 -0.101438 0.682000 112 147 93
-0.055529 -0.101586 0.683000 13 48 0
0.081722 -0.087456 0.588000 56 86 38
0.083387 -0.087605 0.589000 142 172 124
0.084913 -0.087605 0.589000 161 203 120
0.086587 -0.087754 0.590000 151 193 110
0.088265 -0.087903 0.591000 154 195 121
-0.064285 -0.099668 0.682000 30 48 13
-0.062518 -0.099668 0.682000 113 131 96
-0.060750 -0.099668 0.682000 167 206 140
-0.059069 -0.099814 0.683000 160 199 133
-0.057299 -0.099814 0.683000 132 168 107
-0.055610 -0.099960 0.684000 34 70 9
0.082138 -0.086369 0.591000 31 51 18
0.083670 -0.086369 0.591000 85 105 72
0.085202 -0.086369 0.591000 159 200 124
0.086733 -0.086369 0.591000 152 193 117
0.088564 -0.086661 0.593000 155 196 122
-0.062609 -0.098042 0.683000 72 84 58
-0.060839 -0.098042 0.683000 159 198 132
-0.059156 -0.098185 0.684000 159 198 132
-0.057383 -0.098185 0.684000 144 184 115
-0.053917 -0.098329 0.685000 22 45 9
0.084095 -0.085266 0.594000 50 65 40
0.085634 -0.085266 0.594000 146 178 114
0.087174 -0.085266 0.594000 161 193 129
0.090708 -0.085697 0.597000 153 188 120
-0.062793 -0.096551 0.685000 47 56 36
-0.061017 -0.096551 0.685000 144 180 117
-0.059242 -0.096551 0.685000 161 197 134
-0.057467 -0.096551 0.685000 150 192 120
-0.055692 -0.096551 0.685000 114 156 84
-0.053995 -0.096692 0.686000 18 47 4
-0.062884 -0.094912 0.686000 38 44 25
-0.061107 -0.094912 0.686000 131 163 101
-0.059329 -0.094912 0.686000 161 193 131
-0.057551 -0.094912 0.686000 152 193 119
-0.055773 -0.094912 0.686000 135 176 102
-0.054074 -0.095050 0.687000 32 63 17
-0.061107 -0.093132 0.686000 83 106 54
-0.059329 -0.093132 0.686000 163 186 134
-0.057635 -0.093267 0.687000 148 189 115
-0.055854 -0.093267 0.687000 144 185 111
-0.054153 -0.093403 0.688000 55 87 36
-0.052370 -0.093403 0.688000 20 52 1
-0.061196 -0.091485 0.687000 45 67 22
-0.059415 -0.091485 0.687000 147 169 124
-0.057635 -0.091485 0.687000 151 191 120
-0.055936 -0.091618 0.688000 145 185 114
-0.054153 -0.091618 0.688000 89 124 70
-0.052446 -0.091751 0.689000 14 49 0
-0.061285 -0.089833 0.688000 30 51 13
-0.059502 -0.089833 0.688000 121 142 104
-0.057719 -0.089833 0.688000 148 188 119
-0.055936 -0.089833 0.688000 146 186 117
-0.054231 -0.089963 0.689000 122 160 103
-0.052446 -0.089963 0.689000 17 55 0
-0.059588 -0.088175 0.689000 101 119 84
-0.057803 -0.088175 0.689000 155 191 126
-0.056017 -0.088175 0.689000 149 185 120
-0.054231 -0.088175 0.689000 134 172 113
-0.052446 -0.088175 0.689000 38 76 17
-0.059588 -0.086387 0.689000 54 71 43
-0.057803 -0.086387 0.689000 148 184 123
-0.056017 -0.086387 0.689000 149 185 124
-0.054231 -0.086387 0.689000 141 180 114
-0.052522 -0.086513 0.690000 82 121 55
-0.059675 -0.084722 0.690000 38 54 33
-0.057886 -0.084722 0.690000 127 162 108
-0.056098 -0.084722 0.690000 150 185 131
-0.054310 -0.084722 0.690000 144 183 117
-0.052522 -0.084722 0.690000 106 145 79
-0.050734 -0.084722 0.690000 22 46 5
-0.059675 -0.082931 0.690000 38 48 32
-0.057886 -0.082931 0.690000 88 120 71
-0.056098 -0.082931 0.690000 152 184 135
-0.054310 -0.082931 0.690000 141 181 112
-0.052522 -0.082931 0.690000 130 170 101
-0.050734 -0.082931 0.690000 39 66 19
-0.057970 -0.081258 0.691000 59 85 43
-0.056098 -0.081141 0.690000 152 178 136
-0.054310 -0.081141 0.690000 134 174 103
-0.052522 -0.081141 0.690000 137 177 106
-0.050807 -0.081258 0.691000 61 94 40
-0.057970 -0.079465 0.691000 46 70 31
-0.056180 -0.079465 0.691000 133 157 118
-0.054310 -0.079350 0.690000 144 184 115
-0.052598 -0.079465 0.691000 139 179 110
-0.050807 -0.079465 0.691000 98 133 77
-0.049016 -0.079465 0.691000 16 51 0
-0.057970 -0.077672 0.691000 32 55 19
-0.056180 -0.077672 0.691000 120 143 107
-0.054389 -0.077672 0.691000 145 184 118
-0.052598 -0.077672 0.691000 134 173 107
-0.050807 -0.077672 0.691000 120 159 95
-0.049016 -0.077672 0.691000 23 62 0
-0.057970 -0.075879 0.691000 31 50 20
-0.056180 -0.075879 0.691000 88 107 77
-0.054389 -0.075879 0.691000 144 185 120
-0.052598 -0.075879 0.691000 130 171 106
-0.050807 -0.075879 0.691000 134 173 109
-0.049016 -0.075879 0.691000 44 83 19
-0.056261 -0.074193 0.692000 45 64 38
-0.054389 -0.074086 0.691000 141 180 118
-0.052598 -0.074086 0.691000 130 169 107
-0.050807 -0.074086 0.691000 136 177 112
-0.049087 -0.074193 0.692000 65 106 41
-0.056261 -0.072397 0.692000 37 54 28
-0.054468 -0.072397 0.692000 131 169 110
-0.052674 -0.072397 0.692000 135 173 114
-0.050881 -0.072397 0.692000 131 175 107
-0.049087 -0.072397 0.692000 101 145 77
-0.047362 -0.072502 0.693000 20 45 10
-0.056342 -0.070704 0.693000 43 54 33
-0.054468 -0.070602 0.692000 117 152 96
-0.052674 -0.070602 0.692000 141 176 120
-0.050881 -0.070602 0.692000 128 174 105
-0.049158 -0.070704 0.693000 120 166 97
-0.047431 -0.070806 0.694000 21 46 9
-0.056423 -0.069005 0.694000 46 52 35
-0.054546 -0.068905 0.693000 100 130 80
-0.052750 -0.068905 0.693000 149 179 129
-0.050954 -0.068905 0.693000 127 174 102
-0.049158 -0.068905 0.693000 125 172 100
-0.047431 -0.069005 0.694000 36 65 24
-0.054546 -0.067107 0.693000 67 93 49
-0.052750 -0.067107 0.693000 153 179 135
-0.050954 -0.067107 0.693000 123 169 102
-0.049158 -0.067107 0.693000 130 176 109
-0.047431 -0.067204 0.694000 62 96 47
-0.054625 -0.065403 0.694000 40 66 26
-0.052826 -0.065403 0.694000 147 173 133
-0.050954 -0.065309 0.693000 128 172 106
-0.049229 -0.065403 0.694000 134 178 112
-0.047499 -0.065497 0.695000 85 122 72
-0.045829 -0.065686 0.697000 14 51 1
-0.054782 -0.063785 0.696000 35 59 20
-0.052826 -0.063602 0.694000 137 161 122
-0.051028 -0.063602 0.694000 130 174 106
-0.049300 -0.063694 0.695000 131 175 107
-0.047567 -0.063785 0.696000 105 145 89
-0.045895 -0.063969 0.698000 18 58 2
-0.054861 -0.062068 0.697000 38 57 19
-0.052979 -0.061979 0.696000 107 126 88
-0.051175 -0.061979 0.696000 141 183 113
-0.049371 -0.061979 0.696000 130 172 102
-0.047636 -0.062068 0.697000 122 162 102
-0.045961 -0.062246 0.699000 26 66 6
-0.053055 -0.060259 0.697000 79 92 59
-0.051248 -0.060259 0.697000 144 183 117
-0.049442 -0.060259 0.697000 126 165 99
-0.047704 -0.060346 0.698000 131 170 106
-0.045961 -0.060432 0.699000 39 78 14
-0.053131 -0.058535 0.698000 61 73 47
-0.051322 -0.058535 0.698000 139 175 112
-0.049513 -0.058535 0.698000 129 165 102
-0.047772 -0.058618 0.699000 131 170 104
-0.046027 -0.058702 0.700000 69 108 42
-0.044276 -0.058786 0.701000 29 49 16
-0.053207 -0.056805 0.699000 45 57 33
-0.051395 -0.056805 0.699000 126 161 103
-0.049584 -0.056805 0.699000 132 167 109
-0.047772 -0.056805 0.699000 127 166 100
-0.046027 -0.056886 0.700000 97 136 70
-0.044339 -0.057048 0.702000 25 48 12
-0.053283 -0.055069 0.700000 36 48 24
-0.051469 -0.055069 0.700000 113 148 92
-0.049655 -0.055069 0.700000 137 172 116
-0.047841 -0.055069 0.700000 124 163 97
-0.046092 -0.055148 0.701000 113 152 86
-0.044402 -0.055305 0.703000 27 51 12
-0.053435 -0.053405 0.702000 37 47 24
-0.051543 -0.053329 0.701000 97 128 75
-0.049726 -0.053329 0.701000 144 175 122
-0.047909 -0.053329 0.701000 121 162 95
-0.046158 -0.053405 0.702000 119 160 93
-0.044402 -0.053481 0.703000 42 68 26
-0.053511 -0.051657 0.703000 50 56 37
-0.051616 -0.051583 0.702000 67 95 41
-0.049797 -0.051583 0.702000 146 174 120
-0.047977 -0.051583 0.702000 121 163 93
-0.046158 -0.051583 0.702000 119 161 91
-0.044402 -0.051657 0.703000 56 85 42
-0.051690 -0.049833 0.703000 48 74 23
-0.049797 -0.049762 0.702000 147 173 122
-0.047977 -0.049762 0.702000 126 167 100
-0.046224 -0.049833 0.703000 118 159 92
-0.044402 -0.049833 0.703000 67 96 53
-0.051690 -0.048008 0.703000 40 62 17
-0.049797 -0.047940 0.702000 140 162 117
-0.047977 -0.047940 0.702000 132 171 105
-0.046224 -0.048008 0.703000 124 163 97
-0.044402 -0.048008 0.703000 84 116 67
-0.051690 -0.046184 0.703000 31 51 16
-0.049868 -0.046184 0.703000 123 143 108
-0.047977 -0.046118 0.702000 131 172 107
-0.046224 -0.046184 0.703000 125 166 101
-0.044402 -0.046184 0.703000 98 133 79
-0.042641 -0.046250 0.704000 18 53 0
-0.051690 -0.044360 0.703000 26 48 17
-0.049868 -0.044360 0.703000 103 125 94
-0.047977 -0.044297 0.702000 132 173 108
-0.046224 -0.044360 0.703000 125 166 101
-0.044402 -0.044360 0.703000 108 148 90
-0.042641 -0.044423 0.704000 19 59 1
-0.051690 -0.042535 0.703000 26 48 17
-0.049868 -0.042535 0.703000 90 112 81
-0.048046 -0.042535 0.703000 139 180 117
-0.046224 -0.042535 0.703000 122 163 100
-0.044402 -0.042535 0.703000 118 158 100
-0.042641 -0.042596 0.704000 23 63 5
-0.051763 -0.040769 0.704000 26 45 17
-0.049868 -0.040711 0.703000 84 103 75
-0.048046 -0.040711 0.703000 139 180 115
-0.046224 -0.040711 0.703000 124 165 100
-0.044402 -0.040711 0.703000 124 165 102
-0.042641 -0.040769 0.704000 41 82 19
-0.049868 -0.038887 0.703000 72 89 61
-0.048046 -0.038887 0.703000 138 179 112
-0.046224 -0.038887 0.703000 121 162 95
-0.044402 -0.038887 0.703000 124 165 100
-0.042641 -0.038942 0.704000 58 99 34
-0.049868 -0.037063 0.703000 48 63 36
-0.048046 -0.037063 0.703000 139 179 108
-0.046224 -0.037063 0.703000 123 163 92
-0.044402 -0.037063 0.703000 123 167 101
-0.042701 -0.037168 0.705000 60 104 38
-0.049868 -0.035238 0.703000 40 52 26
-0.048046 -0.035238 0.703000 134 174 103
-0.046224 -0.035238 0.703000 122 162 91
-0.044465 -0.035288 0.704000 120 164 98
-0.042701 -0.035338 0.705000 75 119 53
-0.049868 -0.033414 0.703000 33 45 21
-0.048046 -0.033414 0.703000 130 169 103
-0.046224 -0.033414 0.703000 127 166 100
-0.044465 -0.033461 0.704000 116 160 96
-0.042701 -0.033509 0.705000 88 132 68
-0.049868 -0.031590 0.703000 31 42 21
-0.048046 -0.031590 0.703000 122 158 97
-0.046224 -0.031590 0.703000 132 168 107
-0.044465 -0.031635 0.704000 118 164 97
-0.042701 -0.031680 0.705000 99 145 78
-0.298412 -0.030400 0.718000 26 36 22
-0.296551 -0.030400 0.718000 25 35 21
-0.294690 -0.030400 0.718000 22 30 15
-0.292830 -0.030400 0.718000 25 33 18
-0.290969 -0.030400 0.718000 27 32 18
-0.289511 -0.030443 0.719000 29 34 20
-0.049939 -0.029808 0.704000 31 42 23
-0.048046 -0.029765 0.703000 103 138 82
-0.046224 -0.029765 0.703000 132 167 111
-0.044465 -0.029808 0.704000 118 164 99
-0.042701 -0.029850 0.705000 102 148 83
-0.298412 -0.028537 0.718000 27 37 25
-0.296551 -0.028537 0.718000 22 32 20
-0.294690 -0.028537 0.718000 22 32 16
-0.292830 -0.028537 0.718000 25 35 19
-0.291374 -0.028577 0.719000 25 33 18
-0.289511 -0.028577 0.719000 27 35 20
-0.287647 -0.028577 0.719000 30 38 23
-0.049868 -0.027941 0.703000 34 44 28
-0.048046 -0.027941 0.703000 86 120 69
-0.046224 -0.027941 0.703000 134 168 117
-0.044465 -0.027981 0.704000 119 164 102
-0.042701 -0.028021 0.705000 108 153 91
-0.300273 -0.026674 0.718000 29 38 29
-0.298412 -0.026674 0.718000 27 37 25
-0.296551 -0.026674 0.718000 26 36 24
-0.294690 -0.026674 0.718000 25 35 21
-0.292830 -0.026674 0.718000 27 37 23
-0.291374 -0.026711 0.719000 28 36 21
-0.289511 -0.026711 0.719000 25 33 18
-0.287647 -0.026711 0.719000 25 30 16
-0.285784 -0.026711 0.719000 31 36 22
-0.049939 -0.026154 0.704000 33 46 31
-0.048046 -0.026117 0.703000 75 108 62
-0.046224 -0.026117 0.703000 137 170 124
-0.044465 -0.026154 0.704000 115 160 100
-0.042762 -0.026228 0.706000 114 159 99
-0.300691 -0.024845 0.719000 32 40 29
-0.298827 -0.024845 0.719000 27 36 27
-0.296551 -0.024811 0.718000 26 35 26
-0.294690 -0.024811 0.718000 26 36 24
-0.293237 -0.024845 0.719000 25 35 23
-0.291374 -0.024845 0.719000 28 36 23
-0.289511 -0.024845 0.719000 28 36 23
-0.287647 -0.024845 0.719000 27 32 18
-0.285784 -0.024845 0.719000 29 34 20
-0.049939 -0.024327 0.704000 30 45 31
-0.048046 -0.024293 0.703000 64 97 53
-0.046224 -0.024293 0.703000 137 170 126
-0.044465 -0.024327 0.704000 120 163 104
-0.042762 -0.024396 0.706000 116 159 100
-0.298827 -0.022980 0.719000 27 36 29
-0.296964 -0.022980 0.719000 25 34 27
-0.295101 -0.022980 0.719000 27 36 27
-0.293237 -0.022980 0.719000 25 34 25
-0.291374 -0.022980 0.719000 28 35 27
-0.289511 -0.022980 0.719000 27 34 26
-0.287647 -0.022980 0.719000 25 30 20
-0.285784 -0.022980 0.719000 30 35 25
-0.048046 -0.022468 0.703000 54 90 45
-0.046224 -0.022468 0.703000 134 170 125
-0.044465 -0.022500 0.704000 117 160 99
-0.042762 -0.022564 0.706000 116 159 98
-0.298827 -0.021114 0.719000 26 34 31
-0.296964 -0.021114 0.719000 25 33 30
-0.295101 -0.021114 0.719000 27 35 32
-0.293237 -0.021114 0.719000 26 34 31
-0.291374 -0.021114 0.719000 27 36 29
-0.289511 -0.021114 0.719000 27 36 29
-0.287647 -0.021114 0.719000 27 34 26
-0.286181 -0.021143 0.720000 30 37 29
-0.047977 -0.020615 0.702000 48 84 41
-0.046224 -0.020644 0.703000 135 171 128
-0.044465 -0.020673 0.704000 117 160 99
-0.042701 -0.020703 0.705000 119 162 101
-0.298827 -0.019248 0.719000 34 42 39
-0.296964 -0.019248 0.719000 31 39 36
-0.295101 -0.019248 0.719000 31 39 38
-0.293237 -0.019248 0.719000 32 40 39
-0.291374 -0.019248 0.719000 27 38 36
-0.289511 -0.019248 0.719000 24 35 33
-0.288047 -0.019275 0.720000 29 38 31
-0.286181 -0.019275 0.720000 33 42 35
-0.047909 -0.018766 0.701000 44 80 37
-0.046224 -0.018820 0.703000 131 167 124
-0.044465 -0.018846 0.704000 122 165 104
-0.042762 -0.018900 0.706000 119 162 101
-0.298827 -0.017382 0.719000 43 50 44
-0.296964 -0.017382 0.719000 35 42 36
-0.295101 -0.017382 0.719000 26 34 31
-0.293237 -0.017382 0.719000 27 35 32
-0.291374 -0.017382 0.719000 27 38 34
-0.289511 -0.017382 0.719000 26 37 33
-0.288047 -0.017406 0.720000 32 40 37
-0.047841 -0.016923 0.700000 42 78 35
-0.046158 -0.016971 0.702000 130 166 123
-0.044402 -0.016995 0.703000 117 161 97
-0.042701 -0.017044 0.705000 116 160 96
-0.296138 -0.015473 0.717000 34 41 33
-0.294280 -0.015473 0.717000 29 38 31
-0.292830 -0.015495 0.718000 22 31 24
-0.291374 -0.015516 0.719000 22 30 27
-0.289511 -0.015516 0.719000 29 37 34
-0.047704 -0.015063 0.698000 44 77 35
-0.046027 -0.015106 0.700000 128 161 119
-0.044402 -0.015171 0.703000 113 157 91
-0.042701 -0.015214 0.705000 119 163 97
-0.296138 -0.013613 0.717000 37 45 34
-0.294280 -0.013613 0.717000 35 44 35
-0.292422 -0.013613 0.717000 29 38 29
-0.290969 -0.013632 0.718000 19 31 23
-0.289511 -0.013651 0.719000 27 39 31
-0.047567 -0.013214 0.696000 43 74 32
-0.045961 -0.013271 0.699000 127 158 116
-0.044402 -0.013347 0.703000 116 160 94
-0.042641 -0.013366 0.704000 119 163 97
-0.296138 -0.011752 0.717000 41 51 37
-0.294280 -0.011752 0.717000 27 44 28
-0.292422 -0.011752 0.717000 22 39 23
-0.290969 -0.011768 0.718000 17 33 22
-0.289511 -0.011785 0.719000 29 45 34
-0.047431 -0.011375 0.694000 47 76 33
-0.045764 -0.011408 0.696000 129 158 115
-0.044339 -0.011506 0.702000 117 161 95
-0.042641 -0.011539 0.704000 119 163 97
-0.295312 -0.009864 0.715000 86 102 81
-0.293869 -0.009878 0.716000 83 107 79
-0.292014 -0.009878 0.716000 69 93 65
-0.290564 -0.009891 0.717000 46 68 50
-0.289511 -0.009919 0.719000 33 55 37
-0.047294 -0.009546 0.692000 44 73 30
-0.045632 -0.009574 0.694000 127 156 113
-0.044213 -0.009657 0.700000 119 163 97
-0.042641 -0.009712 0.704000 121 165 99
-0.294486 -0.007986 0.713000 107 125 102
-0.292638 -0.007986 0.713000 84 114 77
-0.291606 -0.008008 0.715000 67 97 60
-0.290564 -0.008031 0.717000 62 88 64
-0.289108 -0.008042 0.718000 32 58 34
-0.047226 -0.007740 0.691000 38 69 25
-0.045566 -0.007762 0.693000 127 158 114
-0.044213 -0.007840 0.700000 119 163 99
-0.042580 -0.007874 0.703000 122 166 102
-0.293660 -0.006119 0.711000 107 128 104
-0.291817 -0.006119 0.711000 81 111 72
-0.290790 -0.006136 0.713000 67 97 58
-0.290158 -0.006162 0.716000 69 93 65
-0.288705 -0.006170 0.717000 38 62 34
-0.047226 -0.005946 0.691000 31 62 20
-0.045501 -0.005955 0.692000 127 158 116
-0.044213 -0.006024 0.700000 117 161 97
-0.042580 -0.006050 0.703000 121 165 101
-0.292421 -0.004255 0.708000 106 125 99
-0.290996 -0.004261 0.709000 78 109 67
-0.289975 -0.004273 0.711000 65 96 54
-0.289348 -0.004292 0.714000 66 90 60
-0.288705 -0.004310 0.717000 39 63 33
-0.047157 -0.004147 0.690000 36 67 25
-0.045566 -0.004165 0.693000 126 157 115
-0.044213 -0.004207 0.700000 120 164 100
-0.042580 -0.004225 0.703000 119 163 99
-0.291595 -0.002411 0.706000 107 124 98
-0.289765 -0.002411 0.706000 83 112 69
-0.289159 -0.002422 0.709000 71 100 57
-0.288943 -0.002435 0.713000 62 86 54
-0.288705 -0.002449 0.717000 38 62 30
-0.047157 -0.002357 0.690000 41 72 28
-0.045501 -0.002364 0.692000 124 155 111
-0.044213 -0.002391 0.700000 122 166 102
-0.042641 -0.002405 0.704000 116 160 96
-0.291182 -0.000578 0.705000 104 121 93
-0.289355 -0.000578 0.705000 87 116 71
-0.288343 -0.000580 0.707000 65 94 49
-0.287727 -0.000583 0.710000 63 88 51
-0.288303 -0.000587 0.716000 34 59 22
-0.047157 -0.000566 0.690000 43 74 30
-0.045501 -0.000568 0.692000 126 157 113
-0.044149 -0.000574 0.699000 116 160 96
-0.042580 -0.000577 0.703000 117 161 97
-0.290769 0.001249 0.704000 103 120 92
-0.288944 0.001249 0.704000 95 124 79
-0.287935 0.001253 0.706000 71 100 55
-0.287727 0.001260 0.710000 61 84 48
-0.287497 0.001267 0.714000 48 71 35
-0.287247 0.001274 0.718000 43 57 37
-0.047089 0.001223 0.689000 44 77 31
-0.045435 0.001226 0.691000 122 155 109
-0.044149 0.001240 0.699000 113 159 94
-0.042580 0.001247 0.703000 118 164 99
-0.290356 0.003072 0.703000 103 120 90
-0.288534 0.003072 0.703000 90 120 72
-0.287528 0.003080 0.705000 71 101 53
-0.286916 0.003094 0.708000 62 86 47
-0.287095 0.003115 0.713000 47 71 32
-0.286847 0.003133 0.717000 44 58 36
-0.047021 0.003006 0.688000 47 80 36
-0.045435 0.003019 0.691000 121 154 110
-0.044086 0.003050 0.698000 114 160 93
-0.042580 0.003072 0.703000 118 164 97
-0.289117 0.004875 0.700000 102 117 88
-0.287713 0.004882 0.701000 89 119 69
-0.287120 0.004903 0.704000 69 99 49
-0.286106 0.004917 0.706000 69 93 50
-0.286289 0.004952 0.711000 42 66 23
-0.286847 0.004994 0.717000 44 59 34
-0.046952 0.004785 0.687000 51 82 38
-0.045435 0.004812 0.691000 126 157 113
-0.044086 0.004861 0.698000 116 162 93
-0.042580 0.004896 0.703000 114 160 91
-0.286482 0.006673 0.698000 93 125 76
-0.286712 0.006720 0.703000 65 97 48
-0.285701 0.006739 0.705000 71 98 51
-0.286289 0.006797 0.711000 46 73 26
-0.286847 0.006854 0.717000 47 62 37
-0.046952 0.006567 0.687000 56 87 43
-0.045435 0.006606 0.691000 127 158 114
-0.044086 0.006673 0.698000 113 157 89
-0.042580 0.006720 0.703000 117 161 93
-0.286638 0.008435 0.694000 95 110 83
-0.285896 0.008520 0.701000 68 100 51
-0.285701 0.008569 0.705000 73 103 55
-0.285081 0.008605 0.708000 46 76 28
-0.286847 0.008715 0.717000 46 61 36
-0.046884 0.008338 0.686000 66 97 51
-0.045435 0.008399 0.691000 124 155 109
-0.043960 0.008460 0.696000 105 149 83
-0.042520 0.008532 0.702000 115 159 93
-0.285812 0.010207 0.692000 90 105 80
-0.285081 0.010310 0.699000 72 104 55
-0.285295 0.010384 0.704000 67 96 51
-0.286047 0.010546 0.715000 43 60 32
-0.046884 0.010118 0.686000 81 113 64
-0.045369 0.010177 0.690000 123 155 106
-0.043707 0.010207 0.692000 106 150 86
-0.042277 0.010295 0.698000 110 154 90
-0.040758 0.010369 0.703000 32 58 16
-0.284986 0.011968 0.690000 70 85 60
-0.284840 0.012037 0.694000 106 137 91
-0.283269 0.012124 0.699000 61 93 44
-0.287247 0.012453 0.718000 35 54 26
-0.048733 0.011916 0.687000 27 40 23
-0.046884 0.011898 0.686000 91 125 76
-0.045238 0.011933 0.688000 120 154 105
-0.043644 0.011985 0.691000 112 155 94
-0.042035 0.012037 0.694000 105 148 87
-0.040700 0.012176 0.702000 25 54 13
-0.284160 0.013718 0.688000 54 69 44
-0.283198 0.013758 0.690000 107 138 92
-0.283041 0.013838 0.694000 79 110 64
-0.048591 0.013659 0.685000 30 45 27
-0.046816 0.013659 0.685000 102 139 89
-0.045238 0.013718 0.688000 112 149 99
-0.043581 0.013758 0.690000 113 156 97
-0.041914 0.013798 0.692000 99 142 83
-0.040526 0.013938 0.699000 23 51 15
-0.281682 0.015369 0.682000 48 60 36
-0.279915 0.015369 0.682000 107 138 92
-0.280186 0.015481 0.687000 86 117 71
-0.280027 0.015571 0.691000 66 100 51
-0.048591 0.015436 0.685000 29 44 26
-0.046816 0.015436 0.685000 109 147 92
-0.045040 0.015436 0.685000 109 147 92
-0.043328 0.015459 0.686000 116 156 100
-0.041853 0.015571 0.691000 94 134 78
-0.280030 0.017038 0.678000 45 57 33
-0.278683 0.017063 0.679000 107 136 91
-0.276516 0.017038 0.678000 86 115 70
-0.274759 0.017038 0.678000 66 100 51
-0.048449 0.017163 0.683000 35 51 30
-0.045106 0.017239 0.686000 108 146 89
-0.043518 0.017314 0.689000 118 158 100
-0.041793 0.017339 0.690000 86 126 68
-0.048378 0.018908 0.682000 62 81 55
-0.046611 0.018908 0.682000 115 153 96
-0.044909 0.018936 0.683000 108 146 89
-0.041611 0.019047 0.687000 66 106 46
-0.048378 0.020678 0.682000 71 90 64
-0.046611 0.020678 0.682000 112 152 92
-0.044777 0.020648 0.681000 108 148 88
-0.043076 0.020678 0.682000 124 162 105
-0.050072 0.022415 0.681000 25 47 16
-0.048307 0.022415 0.681000 81 103 72
-0.046542 0.022415 0.681000 109 150 87
-0.044777 0.022415 0.681000 109 150 87
-0.043013 0.022415 0.681000 120 158 103
-0.049998 0.024146 0.680000 27 50 16
-0.048236 0.024146 0.680000 98 121 87
-0.046474 0.024146 0.680000 110 148 89
-0.044712 0.024146 0.680000 113 151 92
-0.049925 0.025873 0.679000 26 54 16
-0.048165 0.025873 0.679000 111 139 101
-0.046406 0.025873 0.679000 105 146 83
-0.044712 0.025911 0.680000 114 155 92
-0.051685 0.027635 0.679000 35 45 29
-0.049925 0.027635 0.679000 44 75 33
-0.048165 0.027635 0.679000 117 148 106
-0.046406 0.027635 0.679000 103 144 79
-0.044646 0.027635 0.679000 118 159 94
-0.269896 0.028834 0.666000 97 131 82
-0.268170 0.028834 0.666000 79 113 64
-0.051608 0.029354 0.678000 26 40 20
-0.049851 0.029354 0.678000 78 110 61
-0.048094 0.029354 0.678000 119 151 102
-0.046337 0.029354 0.678000 110 146 83
-0.271214 0.030517 0.665000 101 116 89
-0.269491 0.030517 0.665000 110 142 93
-0.267767 0.030517 0.665000 77 109 60
-0.051608 0.031113 0.678000 27 41 19
-0.049851 0.031113 0.678000 96 129 75
-0.048094 0.031113 0.678000 119 152 98
-0.046337 0.031113 0.678000 114 150 87
-0.270806 0.032194 0.664000 81 92 73
-0.269085 0.032194 0.664000 117 149 100
-0.267365 0.032194 0.664000 89 121 72
-0.265244 0.032145 0.663000 63 99 54
-0.051532 0.032824 0.677000 43 60 34
-0.049778 0.032824 0.677000 106 139 81
-0.048023 0.032824 0.677000 110 143 85
-0.046337 0.032872 0.678000 126 160 99
-0.270398 0.033866 0.663000 60 68 53
-0.268680 0.033866 0.663000 120 149 104
-0.266559 0.033815 0.662000 101 130 85
-0.264844 0.033815 0.662000 64 101 51
-0.053287 0.034581 0.677000 24 43 15
-0.051532 0.034581 0.677000 66 85 57
-0.049778 0.034581 0.677000 109 143 82
-0.048023 0.034581 0.677000 117 151 90
-0.046269 0.034581 0.677000 132 163 106
-0.267870 0.035479 0.661000 115 141 99
-0.266157 0.035479 0.661000 110 136 94
-0.264043 0.035425 0.660000 68 107 56
-0.262333 0.035425 0.660000 56 95 44
-0.053208 0.036284 0.676000 27 47 14
-0.051456 0.036284 0.676000 95 115 82
-0.049704 0.036284 0.676000 99 135 70
-0.047952 0.036284 0.676000 120 156 91
-0.046201 0.036284 0.676000 123 154 97
-0.267464 0.037138 0.660000 103 127 86
-0.265351 0.037082 0.659000 124 148 107
-0.263643 0.037082 0.659000 74 112 57
-0.261936 0.037082 0.659000 60 98 43
-0.260228 0.037082 0.659000 52 81 47
-0.054879 0.037982 0.675000 34 44 30
-0.053129 0.037982 0.675000 41 67 27
-0.051380 0.037982 0.675000 109 135 95
-0.049631 0.037982 0.675000 105 144 78
-0.047882 0.037982 0.675000 126 165 99
-0.266654 0.038733 0.658000 66 87 49
-0.264949 0.038733 0.658000 125 146 108
-0.262843 0.038674 0.657000 89 127 70
-0.261141 0.038674 0.657000 60 98 41
-0.259438 0.038674 0.657000 63 93 56
-0.054797 0.039675 0.674000 32 42 26
-0.053051 0.039675 0.674000 66 95 50
-0.051304 0.039675 0.674000 115 144 99
-0.049557 0.039675 0.674000 112 153 86
-0.047882 0.039734 0.675000 130 171 104
-0.266249 0.040379 0.657000 40 59 29
-0.264546 0.040379 0.657000 118 137 107
-0.262443 0.040317 0.656000 102 140 83
-0.261141 0.040379 0.657000 67 105 48
-0.259043 0.040317 0.656000 71 107 64
-0.054716 0.041362 0.673000 33 47 27
-0.053051 0.041424 0.674000 99 132 78
-0.051304 0.041424 0.674000 114 147 93
-0.049557 0.041424 0.674000 124 163 97
-0.047811 0.041424 0.674000 119 158 92
-0.263741 0.041956 0.655000 86 103 75
-0.262043 0.041956 0.655000 112 150 95
-0.260346 0.041956 0.655000 75 113 58
-0.258648 0.041956 0.655000 59 98 47
-0.056376 0.043045 0.672000 35 52 26
-0.054716 0.043109 0.673000 52 69 43
-0.052972 0.043109 0.673000 101 136 78
-0.051228 0.043109 0.673000 112 147 89
-0.049410 0.043045 0.672000 132 171 105
-0.047740 0.043109 0.673000 84 123 57
-0.263338 0.043589 0.654000 51 65 43
-0.261643 0.043589 0.654000 120 157 105
-0.259948 0.043589 0.654000 90 127 75
-0.258253 0.043589 0.654000 64 106 54
-0.056293 0.044722 0.671000 26 48 17
-0.054554 0.044722 0.671000 89 111 80
-0.052815 0.044722 0.671000 110 146 83
-0.051152 0.044788 0.672000 115 151 88
-0.049410 0.044788 0.672000 135 169 108
-0.047669 0.044788 0.672000 48 82 21
-0.261643 0.045286 0.654000 105 137 88
-0.259948 0.045286 0.654000 115 147 98
-0.258253 0.045286 0.654000 73 115 63
-0.057945 0.046394 0.670000 40 49 31
-0.056209 0.046394 0.670000 42 73 29
-0.054472 0.046394 0.670000 101 132 88
-0.052736 0.046394 0.670000 108 147 81
-0.051000 0.046394 0.670000 126 165 99
-0.049337 0.046463 0.671000 116 147 94
-0.261243 0.046911 0.653000 64 88 49
-0.259551 0.046911 0.653000 124 148 109
-0.257858 0.046911 0.653000 95 133 85
-0.255774 0.046839 0.652000 69 107 59
-0.057858 0.048061 0.669000 36 50 30
-0.056125 0.048061 0.669000 75 109 58
-0.054391 0.048061 0.669000 103 137 86
-0.052736 0.048132 0.670000 112 151 87
-0.051000 0.048132 0.670000 129 168 104
-0.259153 0.048531 0.652000 116 135 107
-0.257069 0.048457 0.651000 111 149 101
-0.255382 0.048457 0.651000 87 125 77
-0.253305 0.048382 0.650000 60 97 56
-0.057772 0.049722 0.668000 58 76 53
-0.056041 0.049722 0.668000 99 137 80
-0.054391 0.049797 0.669000 102 140 83
-0.052657 0.049797 0.669000 122 161 99
-0.050923 0.049797 0.669000 110 149 87
-0.258358 0.050069 0.650000 84 98 76
-0.256674 0.050069 0.650000 122 155 109
-0.254597 0.049992 0.649000 104 137 91
-0.252915 0.049992 0.649000 67 103 58
-0.059503 0.051456 0.668000 42 64 33
-0.057772 0.051456 0.668000 78 100 69
-0.056041 0.051456 0.668000 99 138 76
-0.054310 0.051456 0.668000 112 151 89
-0.052578 0.051456 0.668000 134 169 113
-0.257961 0.051676 0.649000 42 53 34
-0.255884 0.051597 0.648000 116 142 100
-0.254205 0.051597 0.648000 129 155 113
-0.252525 0.051597 0.648000 87 122 68
-0.250459 0.051517 0.647000 55 90 36
-0.061143 0.053110 0.667000 38 48 34
-0.059414 0.053110 0.667000 44 73 32
-0.057686 0.053110 0.667000 93 122 81
-0.056041 0.053189 0.668000 104 143 79
-0.054310 0.053189 0.668000 130 169 105
-0.052578 0.053189 0.668000 99 131 82
-0.255094 0.053114 0.646000 66 87 49
-0.253420 0.053114 0.646000 140 161 123
-0.251356 0.053032 0.645000 116 149 91
-0.249685 0.053032 0.645000 74 107 49
-0.061143 0.054840 0.667000 47 63 42
-0.059414 0.054840 0.667000 80 115 59
-0.057686 0.054840 0.667000 104 139 83
-0.055957 0.054840 0.667000 122 161 97
-0.054228 0.054840 0.667000 130 169 105
-0.052500 0.054840 0.667000 56 81 44
-0.253028 0.054705 0.645000 115 130 101
-0.250966 0.054621 0.644000 129 160 105
-0.249298 0.054621 0.644000 99 130 75
-0.247629 0.054621 0.644000 59 94 40
-0.062777 0.056486 0.666000 34 53 23
-0.061051 0.056486 0.666000 65 84 54
-0.059414 0.056571 0.667000 92 131 67
-0.057686 0.056571 0.667000 115 154 90
-0.055957 0.056571 0.667000 137 175 116
-0.054228 0.056571 0.667000 92 130 71
-0.252635 0.056292 0.644000 64 70 53
-0.250966 0.056292 0.644000 128 153 107
-0.248910 0.056204 0.643000 121 146 100
-0.247244 0.056204 0.643000 80 113 59
-0.245578 0.056204 0.643000 60 93 39
-0.062777 0.058215 0.666000 47 71 28
-0.061051 0.058215 0.666000 91 115 72
-0.059325 0.058215 0.666000 108 149 84
-0.057599 0.058215 0.666000 132 173 108
-0.055957 0.058302 0.667000 126 164 109
-0.250577 0.057873 0.643000 95 114 76
-0.248910 0.057873 0.643000 132 151 113
-0.247244 0.057873 0.643000 112 145 89
-0.245578 0.057873 0.643000 80 113 57
-0.064406 0.059853 0.665000 44 59 34
-0.062683 0.059853 0.665000 71 104 50
-0.061051 0.059943 0.666000 102 135 81
-0.059325 0.059943 0.666000 122 163 98
-0.057599 0.059943 0.666000 136 177 112
-0.250187 0.059449 0.642000 51 66 37
-0.248523 0.059449 0.642000 123 138 109
-0.246860 0.059449 0.642000 131 162 107
-0.245196 0.059449 0.642000 104 135 80
-0.243532 0.059449 0.642000 75 108 50
-0.066130 0.061579 0.665000 37 57 22
-0.064406 0.061579 0.665000 76 96 61
-0.062683 0.061579 0.665000 97 133 72
-0.060959 0.061579 0.665000 119 155 94
-0.059325 0.061671 0.666000 140 175 117
-0.248523 0.061115 0.642000 73 82 62
-0.246475 0.061020 0.641000 133 161 109
-0.244432 0.060924 0.640000 125 153 101
-0.242773 0.060924 0.640000 88 122 57
-0.066030 0.063209 0.664000 59 89 41
-0.064309 0.063209 0.664000 95 125 77
-0.062683 0.063304 0.665000 110 146 81
-0.060959 0.063304 0.665000 135 171 106
-0.059236 0.063304 0.665000 127 159 110
-0.246090 0.062585 0.640000 88 109 67
-0.244050 0.062487 0.639000 144 165 123
-0.242394 0.062487 0.639000 120 154 89
-0.240361 0.062390 0.638000 78 112 47
-0.067547 0.064737 0.662000 51 68 38
-0.065931 0.064834 0.663000 82 118 57
-0.064309 0.064932 0.664000 106 142 81
-0.062588 0.064932 0.664000 129 168 102
-0.060959 0.065030 0.665000 133 172 106
-0.245321 0.064045 0.638000 39 55 23
-0.243668 0.064045 0.638000 110 126 94
-0.241635 0.063945 0.637000 142 176 113
-0.239984 0.063945 0.637000 121 155 92
-0.237959 0.063845 0.636000 79 115 54
-0.067445 0.066354 0.661000 86 110 67
-0.065831 0.066455 0.662000 99 139 70
-0.064212 0.066555 0.663000 119 159 90
-0.062494 0.066555 0.663000 132 171 105
-0.243286 0.065598 0.637000 48 59 38
-0.241635 0.065598 0.637000 123 151 97
-0.239231 0.065392 0.635000 141 169 115
-0.237585 0.065392 0.635000 111 150 88
-0.070549 0.067760 0.658000 57 74 46
-0.068949 0.067863 0.659000 80 113 55
-0.065732 0.068069 0.661000 121 163 93
-0.064116 0.068172 0.662000 138 180 110
-0.240877 0.067040 0.635000 70 94 53
-0.239231 0.067040 0.635000 137 161 120
-0.237211 0.066934 0.634000 139 175 114
-0.235568 0.066934 0.634000 104 140 79
-0.233556 0.066829 0.633000 61 99 42
-0.072035 0.069257 0.656000 44 70 28
-0.070442 0.069362 0.657000 81 107 65
-0.068844 0.069468 0.658000 97 133 68
-0.067241 0.069574 0.659000 121 157 92
-0.238854 0.068579 0.634000 81 98 70
-0.236837 0.068471 0.633000 134 169 111
-0.235197 0.068471 0.633000 135 170 112
-0.233556 0.068471 0.633000 97 136 72
-0.231916 0.068471 0.633000 56 95 31
-0.075320 0.070851 0.655000 39 56 30
-0.072035 0.070959 0.656000 75 108 52
-0.070442 0.071067 0.657000 98 131 75
-0.068739 0.071067 0.657000 119 158 92
-0.236837 0.070114 0.633000 91 117 75
-0.235197 0.070114 0.633000 141 167 125
-0.233556 0.070114 0.633000 132 168 105
-0.231549 0.070003 0.632000 89 125 62
-0.229911 0.070003 0.632000 55 90 32
-0.076900 0.072440 0.654000 40 51 32
-0.075205 0.072440 0.654000 42 68 28
-0.073623 0.072551 0.655000 77 103 63
-0.071925 0.072551 0.655000 96 135 71
-0.070335 0.072661 0.656000 124 163 99
-0.235197 0.071757 0.633000 97 114 86
-0.233187 0.071643 0.632000 143 176 120
-0.231549 0.071643 0.632000 136 169 113
-0.229911 0.071643 0.632000 93 129 66
-0.227912 0.071530 0.631000 59 95 32
-0.078595 0.074137 0.654000 41 60 30
-0.076900 0.074137 0.654000 58 77 47
-0.075205 0.074137 0.654000 88 121 65
-0.073623 0.074250 0.655000 107 140 84
-0.071925 0.074250 0.655000 125 166 101
-0.233187 0.073283 0.632000 98 125 78
-0.231549 0.073283 0.632000 145 172 125
-0.229548 0.073167 0.631000 134 170 107
-0.227912 0.073167 0.631000 100 136 73
-0.226277 0.073167 0.631000 62 102 42
-0.224642 0.073167 0.631000 50 90 30
-0.080290 0.075834 0.654000 50 62 36
-0.078595 0.075834 0.654000 66 97 44
-0.076900 0.075834 0.654000 87 118 65
-0.075205 0.075834 0.654000 108 147 81
-0.073510 0.075834 0.654000 124 163 97
-0.071815 0.075834 0.654000 145 184 122
-0.231183 0.074805 0.631000 99 116 86
-0.229548 0.074805 0.631000 143 177 116
-0.227912 0.074805 0.631000 143 177 116
-0.225918 0.074686 0.630000 104 145 78
-0.224286 0.074686 0.630000 65 106 39
-0.222653 0.074686 0.630000 46 80 31
-0.083679 0.077531 0.654000 52 55 37
-0.081985 0.077531 0.654000 47 71 28
-0.080290 0.077531 0.654000 77 101 58
-0.078595 0.077531 0.654000 97 136 70
-0.076900 0.077531 0.654000 108 147 81
-0.075205 0.077531 0.654000 125 167 97
-0.073510 0.077531 0.654000 138 180 110
-0.229548 0.076442 0.631000 94 116 71
-0.227912 0.076442 0.631000 149 171 126
-0.225918 0.076321 0.630000 142 178 113
-0.224286 0.076321 0.630000 117 153 88
-0.222653 0.076321 0.630000 82 121 59
-0.220669 0.076200 0.629000 62 101 39
-0.083552 0.079107 0.653000 54 70 38
-0.081985 0.079228 0.654000 74 108 47
-0.080290 0.079228 0.654000 93 127 66
-0.078595 0.079228 0.654000 103 144 70
-0.076900 0.079228 0.654000 133 174 100
-0.227912 0.078080 0.631000 81 93 65
-0.225918 0.077956 0.630000 139 171 111
-0.224286 0.077956 0.630000 146 178 118
-0.222300 0.077832 0.629000 124 164 95
-0.220669 0.077832 0.629000 90 130 61
-0.218691 0.077708 0.628000 61 99 42
-0.086670 0.080554 0.651000 55 65 42
-0.085244 0.080802 0.653000 67 95 43
-0.083552 0.080802 0.653000 85 113 61
-0.081859 0.080802 0.653000 101 141 72
-0.080167 0.080802 0.653000 119 159 90
-0.078595 0.080926 0.654000 152 192 121
-0.225918 0.079591 0.630000 72 93 51
-0.223930 0.079464 0.629000 123 144 102
-0.221946 0.079338 0.628000 150 184 119
-0.220319 0.079338 0.628000 134 168 103
-0.218691 0.079338 0.628000 97 137 68
-0.216718 0.079212 0.627000 69 109 40
-0.215093 0.079212 0.627000 50 88 42
-0.088221 0.082117 0.650000 50 75 29
-0.086803 0.082370 0.652000 81 106 60
-0.085244 0.082496 0.653000 87 127 58
-0.083552 0.082496 0.653000 99 139 70
-0.081859 0.082496 0.653000 130 175 104
-0.223930 0.081097 0.629000 54 66 42
-0.221946 0.080968 0.628000 111 139 85
-0.220319 0.080968 0.628000 151 179 125
-0.218343 0.080839 0.627000 138 178 109
-0.216718 0.080839 0.627000 117 157 88
-0.215093 0.080839 0.627000 77 117 57
-0.212787 0.080581 0.625000 54 94 34
-0.088221 0.083804 0.650000 84 118 53
-0.086670 0.083933 0.651000 108 142 77
-0.085113 0.084062 0.652000 123 168 95
-0.221946 0.082597 0.628000 45 61 27
-0.220319 0.082597 0.628000 98 114 80
-0.218343 0.082466 0.627000 144 176 112
-0.216372 0.082334 0.626000 150 182 118
-0.214407 0.082203 0.625000 132 173 106
-0.212447 0.082071 0.624000 96 137 70
-0.210830 0.082071 0.624000 75 110 54
-0.208877 0.081940 0.623000 53 88 32
-0.207263 0.081940 0.623000 54 80 40
-0.088221 0.085491 0.650000 115 160 89
-0.086670 0.085622 0.651000 134 179 108
-0.218343 0.084093 0.627000 73 93 48
-0.216027 0.083825 0.625000 134 154 109
-0.214064 0.083691 0.624000 153 189 124
-0.212447 0.083691 0.624000 142 178 113
-0.210492 0.083556 0.623000 118 158 89
-0.208877 0.083556 0.623000 88 128 59
-0.207263 0.083556 0.623000 70 108 49
-0.205318 0.083422 0.622000 52 90 31
-0.216027 0.085447 0.625000 57 67 42
-0.214407 0.085447 0.625000 100 123 73
-0.212447 0.085310 0.624000 154 177 127
-0.210830 0.085310 0.624000 148 185 115
-0.208877 0.085173 0.623000 136 173 103
-0.206930 0.085036 0.622000 112 152 81
-0.205318 0.085036 0.622000 91 131 60
-0.203706 0.085036 0.622000 64 102 45
-0.212447 0.086929 0.624000 71 84 53
-0.210492 0.086790 0.623000 131 159 103
-0.208877 0.086790 0.623000 154 182 126
-0.207263 0.086790 0.623000 144 185 111
-0.205318 0.086650 0.622000 126 167 93
-0.203706 0.086650 0.622000 103 143 72
-0.201769 0.086511 0.621000 85 125 54
-0.200160 0.086511 0.621000 65 100 46
-0.210492 0.088406 0.623000 49 68 28
-0.208877 0.088406 0.623000 86 105 65
-0.206930 0.088265 0.622000 135 168 110
-0.205318 0.088265 0.622000 153 186 128
-0.203706 0.088265 0.622000 144 184 115
-0.201769 0.088123 0.621000 130 170 101
-0.200160 0.088123 0.621000 112 152 83
-0.198231 0.087981 0.620000 95 135 66
-0.196624 0.087981 0.620000 82 116 55
-0.194703 0.087839 0.619000 59 93 32
-0.109913 0.090677 0.639000 42 62 29
-0.108426 0.090819 0.640000 49 69 36
-0.106934 0.090961 0.641000 53 86 32
-0.105273 0.090961 0.641000 65 98 44
-0.103773 0.091103 0.642000 77 122 49
-0.206930 0.089879 0.622000 45 66 28
-0.205318 0.089879 0.622000 99 120 82
-0.203379 0.089734 0.621000 139 173 112
-0.201769 0.089734 0.621000 152 186 125
-0.200160 0.089734 0.621000 147 184 116
-0.198231 0.089590 0.620000 133 170 102
-0.196307 0.089445 0.619000 116 157 83
-0.194703 0.089445 0.619000 98 139 65
-0.192786 0.089301 0.618000 85 120 52
-0.191185 0.089301 0.618000 73 108 40
-0.113047 0.092191 0.638000 48 72 33
-0.111569 0.092335 0.639000 69 93 54
-0.110085 0.092480 0.640000 77 112 54
-0.108595 0.092624 0.641000 85 120 62
-0.106934 0.092624 0.641000 96 142 66
-0.105273 0.092624 0.641000 110 156 80
-0.103773 0.092769 0.642000 118 168 91
-0.203379 0.091346 0.621000 51 70 32
-0.201769 0.091346 0.621000 104 123 85
-0.199837 0.091199 0.620000 137 171 108
-0.198231 0.091199 0.620000 157 191 128
-0.196307 0.091051 0.619000 149 186 116
-0.194388 0.090904 0.618000 144 181 111
-0.192786 0.090904 0.618000 128 166 91
-0.191185 0.090904 0.618000 110 148 73
-0.189277 0.090757 0.617000 93 130 60
-0.187373 0.090610 0.616000 80 117 47
-0.185777 0.090610 0.616000 71 103 43
-0.115989 0.093552 0.636000 67 95 41
-0.114521 0.093699 0.637000 81 109 55
-0.113047 0.093846 0.638000 92 128 65
-0.111569 0.093993 0.639000 103 139 76
-0.110085 0.094140 0.640000 110 152 80
-0.108595 0.094288 0.641000 121 163 91
-0.106934 0.094288 0.641000 134 182 105
-0.105273 0.094288 0.641000 147 195 118
-0.103773 0.094435 0.642000 150 199 127
-0.199515 0.092658 0.619000 45 66 28
-0.197911 0.092658 0.619000 88 109 71
-0.195990 0.092508 0.618000 128 160 96
-0.194074 0.092358 0.617000 158 190 126
-0.192475 0.092358 0.617000 156 194 119
-0.190876 0.092358 0.617000 147 185 110
-0.188970 0.092209 0.616000 132 170 93
-0.187373 0.092209 0.616000 112 150 73
-0.186079 0.092358 0.617000 99 140 66
-0.184480 0.092358 0.617000 92 133 59
-0.182584 0.092209 0.616000 81 120 54
-0.180694 0.092059 0.615000 71 110 44
-0.126525 0.094454 0.631000 46 63 26
-0.124889 0.094454 0.631000 49 70 28
-0.123449 0.094604 0.632000 58 79 37
-0.121811 0.094604 0.632000 67 95 41
-0.120364 0.094753 0.633000 80 108 54
-0.119098 0.095053 0.635000 85 119 56
-0.115989 0.095202 0.636000 108 145 77
-0.114521 0.095352 0.637000 115 152 84
-0.113047 0.095502 0.638000 123 164 90
-0.111569 0.095652 0.639000 133 174 100
-0.110085 0.095801 0.640000 142 188 110
-0.108595 0.095951 0.641000 156 202 124
-0.106934 0.095951 0.641000 157 202 129
-0.105273 0.095951 0.641000 143 188 115
-0.195673 0.093960 0.617000 45 66 28
-0.194074 0.093960 0.617000 78 99 61
-0.192475 0.093960 0.617000 119 148 85
-0.190876 0.093960 0.617000 154 183 120
-0.189277 0.093960 0.617000 166 202 127
-0.187982 0.094112 0.618000 164 200 125
-0.186380 0.094112 0.618000 151 192 116
-0.184778 0.094112 0.618000 135 176 100
-0.182880 0.093960 0.617000 122 163 87
-0.180988 0.093807 0.616000 110 151 75
-0.179100 0.093655 0.615000 106 144 69
-0.176640 0.093198 0.612000 93 131 56
-0.175054 0.093198 0.612000 77 114 44
-0.128160 0.096091 0.631000 71 99 43
-0.126525 0.096091 0.631000 77 105 49
-0.124889 0.096091 0.631000 83 115 51
-0.123449 0.096244 0.632000 96 128 64
-0.121811 0.096244 0.632000 104 142 67
-0.120364 0.096396 0.633000 111 149 74
-0.118911 0.096548 0.634000 118 156 83
-0.115989 0.096853 0.636000 143 181 108
-0.114521 0.097005 0.637000 156 194 121
-0.113047 0.097157 0.638000 161 202 128
-0.111394 0.097157 0.638000 161 202 128
-0.109913 0.097310 0.639000 152 187 119
-0.108426 0.097462 0.640000 124 159 91
-0.106934 0.097614 0.641000 82 112 64
-0.192475 0.095561 0.617000 40 58 25
-0.190876 0.095561 0.617000 51 69 36
-0.189277 0.095561 0.617000 70 96 45
-0.187982 0.095716 0.618000 126 152 101
-0.186380 0.095716 0.618000 146 181 111
-0.185078 0.095870 0.619000 162 197 127
-0.183177 0.095716 0.618000 165 203 128
-0.181281 0.095561 0.617000 161 199 124
-0.179391 0.095406 0.616000 142 183 105
-0.177218 0.095096 0.614000 135 176 98
-0.175054 0.094786 0.612000 129 170 92
-0.173185 0.094631 0.611000 125 166 88
-0.171601 0.094631 0.611000 120 159 79
-0.170018 0.094631 0.611000 103 142 62
-0.128160 0.097729 0.631000 128 162 88
-0.126525 0.097729 0.631000 132 166 92
-0.124889 0.097729 0.631000 131 167 90
-0.123449 0.097884 0.632000 138 174 97
-0.121811 0.097884 0.632000 151 189 112
-0.120364 0.098039 0.633000 158 196 119
-0.118911 0.098194 0.634000 164 200 125
-0.115989 0.098503 0.636000 163 198 130
-0.114521 0.098658 0.637000 146 181 113
-0.113047 0.098813 0.638000 116 144 92
-0.111569 0.098968 0.639000 66 94 42
-0.110085 0.099123 0.640000 51 70 32
-0.188286 0.097477 0.619000 41 53 27
-0.186682 0.097477 0.619000 45 62 21
-0.185078 0.097477 0.619000 80 97 56
-0.183473 0.097477 0.619000 102 133 76
-0.181575 0.097319 0.618000 136 167 110
-0.179391 0.097004 0.616000 156 193 125
-0.177506 0.096847 0.615000 165 202 134
-0.175626 0.096689 0.614000 167 208 130
-0.173468 0.096374 0.612000 162 203 125
-0.171601 0.096217 0.611000 158 197 115
-0.170018 0.096217 0.611000 153 192 110
-0.128160 0.099366 0.631000 170 206 129
-0.126525 0.099366 0.631000 172 208 131
-0.124889 0.099366 0.631000 173 209 132
-0.123449 0.099524 0.632000 170 206 129
-0.121811 0.099524 0.632000 160 200 129
-0.120364 0.099681 0.633000 148 188 117
-0.118911 0.099839 0.634000 113 144 87
-0.115989 0.100154 0.636000 59 78 36
-0.114521 0.100311 0.637000 39 58 16
-0.113047 0.100469 0.638000 43 55 27
-0.181575 0.098923 0.618000 43 58 29
-0.179682 0.098763 0.617000 49 73 32
-0.177795 0.098603 0.616000 75 99 58
-0.175912 0.098443 0.615000 123 151 95
-0.174035 0.098283 0.614000 140 168 112
-0.171882 0.097963 0.612000 150 185 115
-0.170296 0.097963 0.612000 165 200 130
-0.128160 0.101004 0.631000 152 181 118
-0.126525 0.101004 0.631000 139 168 105
-0.124889 0.101004 0.631000 126 150 93
-0.123449 0.101164 0.632000 83 107 50
-0.121811 0.101164 0.632000 45 69 26
-0.120364 0.101324 0.633000 39 63 20
-0.171882 0.099551 0.612000 49 71 24
-0.170296 0.099551 0.612000 59 81 34
-0.128160 0.102641 0.631000 47 64 23
-0.126525 0.102641 0.631000 43 60 19
-0.124889 0.102641 0.631000 44 55 23
