ply
format ascii 1.0
element vertex 1766
property float x
property float y
property float z
property uchar red
property uchar green
property uchar blue
end_header
-0.013215 -0.049035 0.691000 137 137 139
-0.011423 -0.049035 0.691000 119 119 123
-0.009630 -0.049035 0.691000 112 112 116
-0.007837 -0.049035 0.691000 108 108 108
-0.006044 -0.049035 0.691000 109 109 109
-0.004252 -0.049035 0.691000 105 111 109
-0.002459 -0.049035 0.691000 107 113 111
-0.000666 -0.049035 0.691000 114 120 118
0.001125 -0.048964 0.690000 127 133 131
-0.020416 -0.047308 0.692000 152 156 151
-0.018593 -0.047240 0.691000 124 124 124
-0.016801 -0.047240 0.691000 104 104 104
-0.015008 -0.047240 0.691000 98 98 100
-0.013215 -0.047240 0.691000 102 102 104
-0.011423 -0.047240 0.691000 103 103 105
-0.009630 -0.047240 0.691000 103 103 105
-0.007837 -0.047240 0.691000 101 104 103
-0.006044 -0.047240 0.691000 100 103 102
-0.004252 -0.047240 0.691000 98 104 102
-0.002459 -0.047240 0.691000 99 105 103
-0.000666 -0.047240 0.691000 98 104 104
0.001127 -0.047240 0.691000 94 100 100
0.002919 -0.047240 0.691000 99 105 105
0.004712 -0.047240 0.691000 121 127 127
-0.027637 -0.045577 0.693000 172 172 174
-0.025839 -0.045577 0.693000 150 153 156
-0.024041 -0.045577 0.693000 124 127 130
-0.022211 -0.045511 0.692000 100 103 102
-0.020416 -0.045511 0.692000 96 99 98
-0.018620 -0.045511 0.692000 98 101 100
-0.016825 -0.045511 0.692000 103 106 105
-0.015030 -0.045511 0.692000 103 106 105
-0.013234 -0.045511 0.692000 105 108 107
-0.011439 -0.045511 0.692000 109 109 109
-0.009644 -0.045511 0.692000 111 111 111
-0.007848 -0.045511 0.692000 114 117 116
-0.006053 -0.045511 0.692000 113 116 115
-0.004252 -0.045445 0.691000 107 113 111
-0.002459 -0.045445 0.691000 106 112 110
-0.000666 -0.045445 0.691000 106 112 110
0.001127 -0.045445 0.691000 101 107 105
0.002919 -0.045445 0.691000 100 106 104
0.004712 -0.045445 0.691000 97 103 101
0.006505 -0.045445 0.691000 105 111 111
0.008297 -0.045445 0.691000 129 135 135
-0.031233 -0.043776 0.693000 144 143 145
-0.029435 -0.043776 0.693000 118 118 122
-0.027637 -0.043776 0.693000 105 105 109
-0.025839 -0.043776 0.693000 96 101 106
-0.024041 -0.043776 0.693000 99 104 109
-0.022243 -0.043776 0.693000 99 105 103
-0.020445 -0.043776 0.693000 103 109 107
-0.018647 -0.043776 0.693000 104 110 108
-0.016849 -0.043776 0.693000 108 114 112
-0.015051 -0.043776 0.693000 112 115 114
-0.013253 -0.043776 0.693000 116 119 118
-0.011456 -0.043776 0.693000 122 122 122
-0.009658 -0.043776 0.693000 115 115 115
-0.007860 -0.043776 0.693000 112 115 114
-0.006053 -0.043713 0.692000 112 115 114
-0.004258 -0.043713 0.692000 115 118 117
-0.002459 -0.043650 0.691000 116 119 118
-0.000666 -0.043650 0.691000 117 120 119
0.001127 -0.043650 0.691000 112 115 114
0.002919 -0.043650 0.691000 109 112 111
0.004712 -0.043650 0.691000 101 104 103
0.006505 -0.043650 0.691000 101 104 105
0.008297 -0.043650 0.691000 96 99 100
0.010090 -0.043650 0.691000 121 123 129
-0.036626 -0.041976 0.693000 152 151 153
-0.034829 -0.041976 0.693000 122 121 123
-0.033031 -0.041976 0.693000 106 105 109
-0.031278 -0.042037 0.694000 99 98 102
-0.029477 -0.042037 0.694000 101 104 107
-0.027677 -0.042037 0.694000 107 110 113
-0.025876 -0.042037 0.694000 107 110 113
-0.024076 -0.042037 0.694000 107 110 113
-0.022275 -0.042037 0.694000 110 113 114
-0.020475 -0.042037 0.694000 110 113 114
-0.018674 -0.042037 0.694000 114 117 116
-0.016849 -0.041976 0.693000 112 115 114
-0.015073 -0.042037 0.694000 113 116 115
-0.013273 -0.042037 0.694000 119 122 121
-0.011456 -0.041976 0.693000 139 139 139
-0.009658 -0.041976 0.693000 149 149 149
-0.007860 -0.041976 0.693000 153 153 153
-0.006062 -0.041976 0.693000 161 161 161
-0.004258 -0.041915 0.692000 164 165 161
-0.002462 -0.041915 0.692000 160 161 157
-0.000666 -0.041855 0.691000 158 159 155
0.001127 -0.041855 0.691000 151 152 148
0.002919 -0.041855 0.691000 133 133 133
0.004712 -0.041855 0.691000 117 117 117
0.006505 -0.041855 0.691000 110 110 112
0.008297 -0.041855 0.691000 101 101 103
0.010090 -0.041855 0.691000 97 96 103
0.011883 -0.041855 0.691000 122 121 128
-0.040222 -0.040176 0.693000 133 133 135
-0.038480 -0.040234 0.694000 111 111 113
-0.036679 -0.040234 0.694000 101 100 104
-0.034879 -0.040234 0.694000 101 100 104
-0.033078 -0.040234 0.694000 107 107 109
-0.031323 -0.040292 0.695000 108 108 110
-0.029562 -0.040350 0.696000 110 110 112
-0.027756 -0.040350 0.696000 112 112 114
-0.025951 -0.040350 0.696000 113 116 117
-0.024145 -0.040350 0.696000 107 110 111
-0.022339 -0.040350 0.696000 110 113 114
-0.020534 -0.040350 0.696000 123 126 127
-0.018728 -0.040350 0.696000 140 140 140
-0.016898 -0.040292 0.695000 155 155 155
-0.015095 -0.040292 0.695000 173 173 173
-0.013292 -0.040292 0.695000 179 179 179
-0.000667 -0.040118 0.692000 171 172 168
0.001128 -0.040118 0.692000 167 168 164
0.002924 -0.040118 0.692000 160 160 160
0.004719 -0.040118 0.692000 133 133 133
0.006505 -0.040060 0.691000 121 121 121
0.008297 -0.040060 0.691000 111 111 111
0.011900 -0.040118 0.692000 100 103 104
0.013695 -0.040118 0.692000 119 119 123
-0.045682 -0.038431 0.694000 146 146 148
-0.043881 -0.038431 0.694000 124 124 128
-0.042081 -0.038431 0.694000 104 104 108
-0.040280 -0.038431 0.694000 101 101 105
-0.038480 -0.038431 0.694000 104 104 108
-0.036732 -0.038486 0.695000 105 105 109
-0.034929 -0.038486 0.695000 108 108 112
-0.033174 -0.038541 0.696000 110 110 112
-0.031368 -0.038541 0.696000 115 115 117
-0.029605 -0.038597 0.697000 116 116 116
-0.027836 -0.038652 0.698000 114 114 114
-0.026025 -0.038652 0.698000 116 116 116
-0.024214 -0.038652 0.698000 132 132 132
-0.022404 -0.038652 0.698000 158 158 158
-0.020593 -0.038652 0.698000 178 178 178
-0.018755 -0.038597 0.697000 182 181 181
0.002924 -0.038320 0.692000 170 169 169
0.004719 -0.038320 0.692000 158 157 157
0.006514 -0.038320 0.692000 127 126 126
0.008310 -0.038320 0.692000 116 115 115
0.010105 -0.038320 0.692000 115 115 119
0.011900 -0.038320 0.692000 109 109 113
0.013695 -0.038320 0.692000 103 103 107
0.015513 -0.038375 0.693000 128 128 132
-0.049425 -0.036733 0.696000 137 136 138
-0.047619 -0.036733 0.696000 109 109 113
-0.045748 -0.036681 0.695000 101 101 105
-0.043945 -0.036681 0.695000 105 105 109
-0.042141 -0.036681 0.695000 103 103 107
-0.040338 -0.036681 0.695000 109 109 113
-0.038535 -0.036681 0.695000 110 110 114
-0.036732 -0.036681 0.695000 116 116 118
-0.034979 -0.036733 0.696000 112 112 114
-0.033221 -0.036786 0.697000 111 111 113
-0.031458 -0.036839 0.698000 115 115 117
-0.029647 -0.036839 0.698000 130 131 127
-0.027836 -0.036839 0.698000 155 156 152
-0.026063 -0.036892 0.699000 179 179 179
-0.024249 -0.036892 0.699000 181 181 181
0.004726 -0.036575 0.693000 174 174 174
0.006524 -0.036575 0.693000 163 162 162
0.008310 -0.036522 0.692000 126 125 125
0.010119 -0.036575 0.693000 115 114 116
0.011917 -0.036575 0.693000 115 114 116
0.013715 -0.036575 0.693000 108 108 112
0.015513 -0.036575 0.693000 105 105 109
0.017311 -0.036575 0.693000 141 144 147
-0.055000 -0.035026 0.698000 158 157 159
-0.053189 -0.035026 0.698000 131 130 132
-0.051378 -0.035026 0.698000 108 108 110
-0.049567 -0.035026 0.698000 104 104 106
-0.047688 -0.034976 0.697000 104 104 108
-0.045813 -0.034925 0.696000 107 107 111
-0.044008 -0.034925 0.696000 109 109 113
-0.042202 -0.034925 0.696000 111 111 115
-0.040396 -0.034925 0.696000 116 116 118
-0.038591 -0.034925 0.696000 116 116 118
-0.036785 -0.034925 0.696000 116 116 116
-0.035030 -0.034976 0.697000 131 131 131
-0.033221 -0.034976 0.697000 157 157 157
-0.031458 -0.035026 0.698000 173 173 173
-0.029690 -0.035076 0.699000 183 183 179
0.008322 -0.034775 0.693000 173 172 172
0.010119 -0.034775 0.693000 120 119 119
0.011917 -0.034775 0.693000 113 112 112
0.013735 -0.034825 0.694000 113 116 117
0.015536 -0.034825 0.694000 98 101 102
0.017336 -0.034825 0.694000 112 115 118
0.019164 -0.034875 0.695000 155 158 161
-0.058789 -0.033308 0.700000 150 153 156
-0.056973 -0.033308 0.700000 117 120 123
-0.055157 -0.033308 0.700000 104 104 108
-0.053265 -0.033260 0.699000 107 107 111
-0.051451 -0.033260 0.699000 103 103 107
-0.049567 -0.033212 0.698000 102 102 106
-0.047756 -0.033212 0.698000 110 110 114
-0.045879 -0.033165 0.697000 112 112 116
-0.044008 -0.033117 0.696000 114 114 116
-0.042202 -0.033117 0.696000 112 112 114
-0.040396 -0.033117 0.696000 121 121 121
-0.038591 -0.033117 0.696000 140 140 140
-0.036838 -0.033165 0.697000 165 165 165
-0.035030 -0.033165 0.697000 180 180 180
-0.033269 -0.033212 0.698000 183 183 183
0.010134 -0.033022 0.694000 168 167 167
0.011935 -0.033022 0.694000 117 116 116
0.013755 -0.033070 0.695000 115 115 117
0.015558 -0.033070 0.695000 104 104 106
0.017386 -0.033117 0.696000 96 99 102
0.019192 -0.033117 0.696000 130 133 136
-0.062511 -0.031534 0.701000 155 155 159
-0.060692 -0.031534 0.701000 125 125 129
-0.058873 -0.031534 0.701000 103 105 111
-0.057055 -0.031534 0.701000 103 105 111
-0.055157 -0.031489 0.700000 105 105 109
-0.053341 -0.031489 0.700000 109 109 113
-0.051451 -0.031444 0.699000 114 114 118
-0.049638 -0.031444 0.699000 117 117 121
-0.047756 -0.031399 0.698000 118 118 120
-0.045945 -0.031399 0.698000 116 116 118
-0.044071 -0.031354 0.697000 118 118 118
-0.042263 -0.031354 0.697000 142 142 142
-0.040454 -0.031354 0.697000 169 169 169
-0.038591 -0.031309 0.696000 183 183 183
0.011969 -0.031309 0.696000 161 161 157
0.013775 -0.031309 0.696000 112 112 114
0.015580 -0.031309 0.696000 114 114 116
0.017386 -0.031309 0.696000 98 101 104
0.019219 -0.031354 0.697000 107 110 113
0.020997 -0.031309 0.696000 147 150 151
-0.066242 -0.029755 0.702000 152 152 156
-0.064421 -0.029755 0.702000 123 123 127
-0.062600 -0.029755 0.702000 107 106 113
-0.060779 -0.029755 0.702000 108 107 114
-0.058873 -0.029713 0.701000 101 104 107
-0.057055 -0.029713 0.701000 105 108 111
-0.055236 -0.029713 0.701000 107 110 113
-0.053341 -0.029671 0.700000 112 115 118
-0.051451 -0.029628 0.699000 115 115 119
-0.049638 -0.029628 0.699000 117 117 121
-0.047756 -0.029586 0.698000 128 128 128
-0.045945 -0.029586 0.698000 150 150 150
-0.044071 -0.029543 0.697000 176 176 176
-0.042263 -0.029543 0.697000 182 182 182
0.011986 -0.029543 0.697000 185 186 182
0.013794 -0.029543 0.697000 150 150 150
0.015603 -0.029543 0.697000 110 110 110
0.017411 -0.029543 0.697000 108 111 114
0.019247 -0.029586 0.698000 103 106 109
0.021058 -0.029586 0.698000 119 122 125
0.022869 -0.029586 0.698000 163 166 169
-0.069984 -0.027972 0.703000 155 158 161
-0.068161 -0.027972 0.703000 122 125 128
-0.066242 -0.027932 0.702000 108 107 114
-0.064421 -0.027932 0.702000 100 99 106
-0.062600 -0.027932 0.702000 101 103 111
-0.060779 -0.027932 0.702000 102 104 112
-0.058957 -0.027932 0.702000 108 111 114
-0.057055 -0.027892 0.701000 110 113 116
-0.055236 -0.027892 0.701000 115 115 119
-0.053341 -0.027852 0.700000 122 122 126
-0.051525 -0.027852 0.700000 136 135 137
-0.049638 -0.027812 0.699000 159 158 160
-0.047824 -0.027812 0.699000 180 179 179
0.013834 -0.027812 0.699000 179 180 176
0.015625 -0.027773 0.698000 116 117 113
0.017436 -0.027773 0.698000 114 117 118
0.019247 -0.027773 0.698000 110 113 114
0.021058 -0.027773 0.698000 103 106 109
0.022901 -0.027812 0.699000 143 146 149
-0.073632 -0.026145 0.703000 164 174 177
-0.071808 -0.026145 0.703000 121 131 134
-0.069984 -0.026145 0.703000 105 110 115
-0.068161 -0.026145 0.703000 100 105 110
-0.066337 -0.026145 0.703000 103 105 111
-0.064421 -0.026108 0.702000 105 107 113
-0.062600 -0.026108 0.702000 105 107 113
-0.060779 -0.026108 0.702000 110 112 118
-0.058957 -0.026108 0.702000 117 120 123
-0.057136 -0.026108 0.702000 120 123 126
-0.055236 -0.026071 0.701000 136 136 138
-0.053417 -0.026071 0.701000 159 159 161
-0.051525 -0.026034 0.700000 176 176 178
0.015647 -0.025996 0.699000 154 154 150
0.017461 -0.025996 0.699000 107 108 104
0.019274 -0.025996 0.699000 116 117 113
0.021088 -0.025996 0.699000 107 110 109
0.022901 -0.025996 0.699000 115 118 117
0.024715 -0.025996 0.699000 162 162 164
-0.077280 -0.024319 0.703000 95 110 109
-0.075456 -0.024319 0.703000 126 141 140
-0.073632 -0.024319 0.703000 107 117 122
-0.071808 -0.024319 0.703000 94 104 109
-0.069984 -0.024319 0.703000 98 103 110
-0.068161 -0.024319 0.703000 101 106 113
-0.066337 -0.024319 0.703000 103 105 111
-0.064513 -0.024319 0.703000 115 117 123
-0.062689 -0.024319 0.703000 117 120 123
-0.060779 -0.024284 0.702000 114 117 120
-0.058957 -0.024284 0.702000 128 128 130
-0.057136 -0.024284 0.702000 159 159 161
-0.055236 -0.024250 0.701000 178 178 180
0.015647 -0.024181 0.699000 183 184 178
0.017461 -0.024181 0.699000 117 118 114
0.019274 -0.024181 0.699000 114 115 111
0.021088 -0.024181 0.699000 110 114 109
0.022901 -0.024181 0.699000 105 109 104
0.024715 -0.024181 0.699000 135 135 135
-0.079104 -0.022493 0.703000 141 147 149
-0.077280 -0.022493 0.703000 83 93 96
-0.075456 -0.022493 0.703000 89 99 102
-0.073632 -0.022493 0.703000 95 105 108
-0.071808 -0.022493 0.703000 102 112 115
-0.069984 -0.022493 0.703000 105 110 115
-0.068161 -0.022493 0.703000 112 117 122
-0.066337 -0.022493 0.703000 119 122 125
-0.064513 -0.022493 0.703000 120 123 126
-0.062689 -0.022493 0.703000 135 135 135
-0.060865 -0.022493 0.703000 162 162 162
-0.058957 -0.022461 0.702000 178 178 178
0.017486 -0.022397 0.700000 149 150 146
0.019274 -0.022365 0.699000 107 108 104
0.021088 -0.022365 0.699000 113 117 112
0.022901 -0.022365 0.699000 106 110 105
0.024750 -0.022397 0.700000 111 111 111
0.026566 -0.022397 0.700000 155 155 155
-0.082751 -0.020666 0.703000 150 153 154
-0.080928 -0.020666 0.703000 118 123 128
-0.079104 -0.020666 0.703000 93 98 103
-0.077280 -0.020666 0.703000 88 95 99
-0.075456 -0.020666 0.703000 99 106 110
-0.073632 -0.020666 0.703000 104 111 115
-0.071808 -0.020666 0.703000 109 116 120
-0.069984 -0.020666 0.703000 112 115 118
-0.068161 -0.020666 0.703000 113 116 119
-0.066337 -0.020666 0.703000 126 126 128
-0.064513 -0.020666 0.703000 155 155 157
-0.062689 -0.020666 0.703000 173 173 173
0.019302 -0.020578 0.700000 129 129 129
0.021118 -0.020578 0.700000 109 109 109
0.022934 -0.020578 0.700000 114 114 114
0.024750 -0.020578 0.700000 111 111 111
0.026566 -0.020578 0.700000 122 122 122
0.028423 -0.020608 0.701000 177 176 176
-0.086399 -0.018840 0.703000 168 167 167
-0.084575 -0.018840 0.703000 128 131 134
-0.082869 -0.018867 0.704000 99 102 105
-0.081043 -0.018867 0.704000 92 97 102
-0.079104 -0.018840 0.703000 98 103 108
-0.077280 -0.018840 0.703000 103 109 111
-0.075456 -0.018840 0.703000 106 112 114
-0.073632 -0.018840 0.703000 115 121 123
-0.071808 -0.018840 0.703000 119 125 127
-0.069984 -0.018840 0.703000 130 130 132
-0.068161 -0.018840 0.703000 158 158 160
-0.066337 -0.018840 0.703000 174 173 173
0.019302 -0.018760 0.700000 165 165 165
0.021118 -0.018760 0.700000 116 115 115
0.022934 -0.018760 0.700000 116 115 115
0.024786 -0.018787 0.701000 111 110 112
0.026604 -0.018787 0.701000 108 107 109
0.028423 -0.018787 0.701000 165 164 164
-0.088349 -0.017038 0.704000 137 136 138
-0.086522 -0.017038 0.704000 110 109 111
-0.084696 -0.017038 0.704000 100 100 104
-0.082869 -0.017038 0.704000 103 103 107
-0.081043 -0.017038 0.704000 105 108 111
-0.079216 -0.017038 0.704000 112 115 118
-0.077280 -0.017014 0.703000 113 119 119
-0.075563 -0.017038 0.704000 112 118 118
-0.073632 -0.017014 0.703000 127 130 131
-0.071808 -0.017014 0.703000 145 148 149
-0.069984 -0.017014 0.703000 175 175 175
0.021148 -0.016965 0.701000 145 144 144
0.022967 -0.016965 0.701000 112 111 111
0.024821 -0.016990 0.702000 115 114 116
0.026642 -0.016990 0.702000 106 105 107
0.028464 -0.016990 0.702000 129 129 131
0.030285 -0.016990 0.702000 172 172 174
-0.092001 -0.015209 0.704000 144 143 145
-0.090175 -0.015209 0.704000 111 110 112
-0.088349 -0.015209 0.704000 96 96 98
-0.086522 -0.015209 0.704000 100 100 102
-0.084696 -0.015209 0.704000 108 108 110
-0.082869 -0.015209 0.704000 110 110 112
-0.081043 -0.015209 0.704000 110 110 110
-0.079216 -0.015209 0.704000 118 118 118
-0.077390 -0.015209 0.704000 130 133 132
-0.075456 -0.015188 0.703000 158 161 160
-0.073632 -0.015188 0.703000 177 180 181
0.021148 -0.015144 0.701000 180 179 179
0.023000 -0.015166 0.702000 122 121 121
0.024821 -0.015166 0.702000 116 116 118
0.026642 -0.015166 0.702000 107 107 109
0.028464 -0.015166 0.702000 105 105 107
0.030328 -0.015188 0.703000 157 157 159
-0.095654 -0.013380 0.704000 161 161 163
-0.093961 -0.013399 0.705000 116 116 118
-0.092132 -0.013399 0.705000 100 100 102
-0.090303 -0.013399 0.705000 100 100 102
-0.088474 -0.013399 0.705000 107 107 107
-0.086645 -0.013399 0.705000 112 112 112
-0.084696 -0.013380 0.704000 114 114 116
-0.082869 -0.013380 0.704000 116 116 118
-0.081043 -0.013380 0.704000 129 129 129
-0.079216 -0.013380 0.704000 137 137 137
-0.077390 -0.013380 0.704000 129 133 128
0.023032 -0.013361 0.703000 139 138 138
0.024856 -0.013361 0.703000 117 117 117
0.026680 -0.013361 0.703000 114 114 114
0.028504 -0.013361 0.703000 101 101 103
0.030328 -0.013361 0.703000 133 133 135
-0.099307 -0.011551 0.704000 172 172 174
-0.097619 -0.011568 0.705000 135 135 137
-0.095790 -0.011568 0.705000 99 102 103
-0.093961 -0.011568 0.705000 95 98 99
-0.092132 -0.011568 0.705000 105 108 107
-0.090303 -0.011568 0.705000 107 110 109
-0.088474 -0.011568 0.705000 116 116 116
-0.086645 -0.011568 0.705000 119 119 119
-0.084816 -0.011568 0.705000 115 115 115
-0.082987 -0.011568 0.705000 150 150 150
-0.081043 -0.011551 0.704000 178 179 175
0.023032 -0.011535 0.703000 179 179 175
0.024856 -0.011535 0.703000 115 115 115
0.026680 -0.011535 0.703000 121 121 121
0.028504 -0.011535 0.703000 109 109 111
0.030328 -0.011535 0.703000 110 110 112
0.032152 -0.011535 0.703000 151 151 153
-0.102960 -0.009723 0.704000 180 180 180
-0.101277 -0.009736 0.705000 158 158 158
-0.099448 -0.009736 0.705000 105 108 111
-0.097619 -0.009736 0.705000 93 96 99
-0.095790 -0.009736 0.705000 98 101 100
-0.093961 -0.009736 0.705000 105 108 107
-0.092132 -0.009736 0.705000 110 113 112
-0.090303 -0.009736 0.705000 116 119 118
-0.088474 -0.009736 0.705000 118 118 118
-0.086645 -0.009736 0.705000 132 132 132
-0.084816 -0.009736 0.705000 169 169 169
0.024856 -0.009709 0.703000 129 129 129
0.026680 -0.009709 0.703000 111 111 111
0.028504 -0.009709 0.703000 109 112 115
0.030328 -0.009709 0.703000 102 105 108
0.032198 -0.009723 0.704000 127 130 131
0.034024 -0.009723 0.704000 166 169 170
-0.104936 -0.007905 0.705000 158 158 160
-0.103106 -0.007905 0.705000 115 118 121
-0.101277 -0.007905 0.705000 93 96 99
-0.099448 -0.007905 0.705000 98 101 104
-0.097619 -0.007905 0.705000 98 101 104
-0.095790 -0.007905 0.705000 107 110 109
-0.093961 -0.007905 0.705000 110 113 112
-0.092132 -0.007905 0.705000 114 114 114
-0.090303 -0.007905 0.705000 125 125 125
-0.088474 -0.007905 0.705000 172 171 171
0.024856 -0.007883 0.703000 166 169 168
0.026718 -0.007894 0.704000 110 113 112
0.028545 -0.007894 0.704000 121 124 125
0.030371 -0.007894 0.704000 108 111 112
0.032198 -0.007894 0.704000 112 118 118
0.034024 -0.007894 0.704000 149 155 155
-0.108594 -0.006073 0.705000 167 166 168
-0.106765 -0.006073 0.705000 132 131 138
-0.104936 -0.006073 0.705000 98 97 104
-0.103106 -0.006073 0.705000 94 93 100
-0.101277 -0.006073 0.705000 100 99 106
-0.099448 -0.006073 0.705000 105 105 107
-0.097619 -0.006073 0.705000 115 115 117
-0.095790 -0.006073 0.705000 116 116 116
-0.093961 -0.006073 0.705000 128 128 128
-0.092132 -0.006073 0.705000 161 160 160
-0.090303 -0.006073 0.705000 183 182 182
0.026718 -0.006065 0.704000 129 133 128
0.028545 -0.006065 0.704000 113 116 117
0.030371 -0.006065 0.704000 115 118 119
0.032198 -0.006065 0.704000 105 111 111
0.034024 -0.006065 0.704000 131 137 137
-0.112252 -0.004242 0.705000 173 172 174
-0.110423 -0.004242 0.705000 132 132 136
-0.108594 -0.004242 0.705000 100 100 104
-0.106765 -0.004242 0.705000 97 96 103
-0.104936 -0.004242 0.705000 101 100 107
-0.103106 -0.004242 0.705000 105 105 109
-0.101277 -0.004242 0.705000 115 115 119
-0.099448 -0.004242 0.705000 115 115 117
-0.097619 -0.004242 0.705000 122 122 124
-0.095790 -0.004242 0.705000 138 138 138
0.026718 -0.004236 0.704000 162 162 162
0.028545 -0.004236 0.704000 108 111 110
0.030371 -0.004236 0.704000 119 122 121
0.032198 -0.004236 0.704000 106 112 110
0.034024 -0.004236 0.704000 110 116 114
0.035850 -0.004236 0.704000 151 154 157
-0.116074 -0.002414 0.706000 178 178 180
-0.114081 -0.002411 0.705000 135 135 139
-0.112252 -0.002411 0.705000 110 110 114
-0.110423 -0.002411 0.705000 97 96 103
-0.108594 -0.002411 0.705000 102 101 108
-0.106765 -0.002411 0.705000 101 101 105
-0.104936 -0.002411 0.705000 105 105 109
-0.103106 -0.002411 0.705000 117 116 118
-0.101277 -0.002411 0.705000 118 117 119
-0.099448 -0.002411 0.705000 133 133 133
-0.097619 -0.002411 0.705000 168 168 168
0.028585 -0.002411 0.705000 126 130 125
0.030371 -0.002407 0.704000 113 117 112
0.032243 -0.002411 0.705000 114 117 116
0.034024 -0.002407 0.704000 106 109 108
0.035850 -0.002407 0.704000 131 137 139
-0.119738 -0.000580 0.706000 176 176 178
-0.117906 -0.000580 0.706000 147 147 151
-0.116239 -0.000581 0.707000 125 125 129
-0.114243 -0.000580 0.706000 103 102 109
-0.112411 -0.000580 0.706000 100 99 106
-0.110579 -0.000580 0.706000 104 103 110
-0.108594 -0.000579 0.705000 112 111 118
-0.106765 -0.000579 0.705000 119 119 123
-0.104936 -0.000579 0.705000 118 118 122
-0.103106 -0.000579 0.705000 126 125 125
-0.101277 -0.000579 0.705000 158 157 157
0.028585 -0.000579 0.705000 164 164 164
0.030414 -0.000579 0.705000 109 109 109
0.032243 -0.000579 0.705000 116 119 120
0.034072 -0.000579 0.705000 113 116 117
0.035901 -0.000579 0.705000 106 112 114
0.037730 -0.000579 0.705000 149 155 157
-0.121914 0.001258 0.708000 141 143 149
-0.119907 0.001256 0.707000 112 114 120
-0.118073 0.001256 0.707000 106 108 114
-0.116239 0.001256 0.707000 105 107 113
-0.114404 0.001256 0.707000 100 102 108
-0.112411 0.001254 0.706000 100 102 108
-0.110579 0.001254 0.706000 111 111 115
-0.108594 0.001252 0.705000 114 114 118
-0.106765 0.001252 0.705000 116 115 117
-0.104936 0.001252 0.705000 147 146 148
-0.103106 0.001252 0.705000 184 179 177
0.030414 0.001252 0.705000 135 135 135
0.032243 0.001252 0.705000 115 115 117
0.034072 0.001252 0.705000 116 116 118
0.035901 0.001252 0.705000 103 109 111
0.037730 0.001252 0.705000 131 137 139
-0.127604 0.003101 0.709000 176 175 175
-0.125765 0.003101 0.709000 152 155 158
-0.123925 0.003101 0.709000 121 124 127
-0.122086 0.003101 0.709000 108 110 116
-0.120077 0.003097 0.708000 102 104 110
-0.118240 0.003097 0.708000 101 103 109
-0.116403 0.003097 0.708000 102 104 110
-0.114404 0.003093 0.707000 105 105 109
-0.112570 0.003093 0.707000 114 114 118
-0.110579 0.003088 0.706000 118 118 122
-0.108748 0.003088 0.706000 125 125 129
-0.106916 0.003088 0.706000 152 151 151
0.030414 0.003084 0.705000 166 166 166
0.032243 0.003084 0.705000 114 114 116
0.034072 0.003084 0.705000 118 118 120
0.035901 0.003084 0.705000 105 111 113
0.037730 0.003084 0.705000 112 118 120
0.039559 0.003084 0.705000 168 174 174
-0.129626 0.004950 0.710000 158 158 162
-0.127784 0.004950 0.710000 128 128 132
-0.125942 0.004950 0.710000 105 107 113
-0.124100 0.004950 0.710000 107 109 115
-0.122258 0.004950 0.710000 102 104 110
-0.120416 0.004950 0.710000 102 104 110
-0.118407 0.004943 0.709000 105 108 111
-0.116403 0.004936 0.708000 106 109 112
-0.114566 0.004936 0.708000 118 118 120
-0.112570 0.004929 0.707000 118 118 120
-0.110579 0.004922 0.706000 150 150 150
-0.108748 0.004922 0.706000 172 172 172
0.032289 0.004922 0.706000 122 122 124
0.034121 0.004922 0.706000 118 118 120
0.035901 0.004915 0.705000 109 112 115
0.037730 0.004915 0.705000 105 108 111
0.039559 0.004915 0.705000 162 165 168
-0.133310 0.006795 0.710000 159 159 163
-0.131468 0.006795 0.710000 131 131 135
-0.129809 0.006804 0.711000 112 111 118
-0.127964 0.006804 0.711000 110 109 116
-0.126119 0.006804 0.711000 100 103 106
-0.124275 0.006804 0.711000 102 105 108
-0.122430 0.006804 0.711000 102 105 108
-0.120416 0.006795 0.710000 109 112 115
-0.118574 0.006795 0.710000 113 116 117
-0.116567 0.006785 0.709000 119 122 123
-0.114566 0.006775 0.708000 140 140 140
-0.112729 0.006775 0.708000 168 168 168
0.032335 0.006766 0.707000 161 161 163
0.034169 0.006766 0.707000 110 110 112
0.035952 0.006756 0.706000 112 112 116
0.037784 0.006756 0.706000 107 107 111
0.039559 0.006747 0.705000 132 131 138
0.041389 0.006747 0.705000 165 164 171
-0.135342 0.008651 0.711000 128 131 134
-0.133498 0.008651 0.711000 111 110 119
-0.131653 0.008651 0.711000 109 108 117
-0.129991 0.008663 0.712000 108 107 114
-0.128144 0.008663 0.712000 98 97 104
-0.126297 0.008663 0.712000 101 104 107
-0.124450 0.008663 0.712000 107 110 113
-0.122430 0.008651 0.711000 115 118 121
-0.120586 0.008651 0.711000 120 123 126
-0.118574 0.008639 0.710000 123 126 127
-0.116732 0.008639 0.710000 163 166 167
0.032380 0.008615 0.708000 180 179 181
0.034217 0.008615 0.708000 122 121 123
0.036003 0.008603 0.707000 118 117 124
0.037837 0.008603 0.707000 115 114 121
0.039672 0.008603 0.707000 111 110 117
0.041447 0.008590 0.706000 159 158 165
-0.139423 0.010528 0.713000 136 136 140
-0.137573 0.010528 0.713000 117 122 129
-0.135533 0.010513 0.712000 112 117 124
-0.133686 0.010513 0.712000 109 111 119
-0.131838 0.010513 0.712000 101 103 111
-0.130174 0.010528 0.713000 103 105 111
-0.128324 0.010528 0.713000 103 105 111
-0.126474 0.010528 0.713000 115 115 119
-0.124624 0.010528 0.713000 116 116 120
-0.122430 0.010498 0.711000 121 124 125
-0.120586 0.010498 0.711000 141 144 145
0.034314 0.010484 0.710000 133 133 135
0.036105 0.010469 0.709000 115 115 119
0.037891 0.010454 0.708000 117 117 121
0.039728 0.010454 0.708000 106 109 112
0.041506 0.010439 0.707000 145 148 151
-0.143122 0.012380 0.713000 147 146 153
-0.141273 0.012380 0.713000 117 116 123
-0.139423 0.012380 0.713000 115 114 121
-0.137573 0.012380 0.713000 111 116 125
-0.135723 0.012380 0.713000 104 109 118
-0.133873 0.012380 0.713000 100 105 112
-0.132024 0.012380 0.713000 98 103 110
-0.130174 0.012380 0.713000 106 108 116
-0.128324 0.012380 0.713000 115 117 125
-0.126474 0.012380 0.713000 115 115 119
-0.124624 0.012380 0.713000 131 131 135
-0.122602 0.012363 0.712000 174 174 174
0.034362 0.012345 0.711000 165 165 167
0.036156 0.012328 0.710000 108 111 114
0.037998 0.012328 0.710000 120 123 126
0.039840 0.012328 0.710000 108 111 114
0.041565 0.012293 0.708000 133 136 139
-0.146822 0.014232 0.713000 151 151 155
-0.144972 0.014232 0.713000 119 118 125
-0.143122 0.014232 0.713000 118 117 124
-0.139618 0.014252 0.714000 104 103 112
-0.137766 0.014252 0.714000 91 96 105
-0.135723 0.014232 0.713000 93 98 107
-0.133873 0.014232 0.713000 103 105 113
-0.132024 0.014232 0.713000 110 112 120
-0.130174 0.014232 0.713000 112 111 118
-0.128324 0.014232 0.713000 130 129 136
-0.126474 0.014232 0.713000 160 159 161
0.034411 0.014212 0.712000 179 178 178
0.036207 0.014192 0.711000 120 123 126
0.038052 0.014192 0.711000 117 120 123
0.039896 0.014192 0.711000 112 118 120
0.041682 0.014172 0.710000 106 112 114
0.043524 0.014172 0.710000 157 160 163
-0.150522 0.016085 0.713000 151 150 150
-0.148672 0.016085 0.713000 129 128 130
-0.146822 0.016085 0.713000 122 121 123
-0.144972 0.016085 0.713000 117 116 123
-0.141471 0.016107 0.714000 104 103 110
-0.139618 0.016107 0.714000 100 99 106
-0.137766 0.016107 0.714000 100 99 108
-0.135914 0.016107 0.714000 107 106 115
-0.133873 0.016085 0.713000 109 108 115
-0.132024 0.016085 0.713000 129 128 135
-0.130356 0.016107 0.714000 152 151 153
-0.128324 0.016085 0.713000 182 181 183
0.036309 0.016085 0.713000 149 152 153
0.038105 0.016062 0.712000 109 112 113
0.040008 0.016085 0.713000 114 120 122
0.041799 0.016062 0.712000 104 110 112
0.043647 0.016062 0.712000 131 134 137
-0.152371 0.017937 0.713000 131 130 130
-0.150522 0.017937 0.713000 110 109 109
-0.148672 0.017937 0.713000 113 112 114
-0.146822 0.017937 0.713000 111 110 112
-0.144972 0.017937 0.713000 104 104 108
-0.143323 0.017962 0.714000 97 97 101
-0.141471 0.017962 0.714000 98 98 102
-0.139618 0.017962 0.714000 107 107 111
-0.137959 0.017987 0.715000 117 116 123
-0.136104 0.017987 0.715000 121 120 127
-0.134061 0.017962 0.714000 150 150 154
-0.132209 0.017962 0.714000 180 180 184
0.036309 0.017937 0.713000 174 177 178
0.038159 0.017937 0.713000 113 116 117
0.040008 0.017937 0.713000 113 119 121
0.041858 0.017937 0.713000 107 113 115
0.043769 0.017962 0.714000 122 125 128
0.045558 0.017937 0.713000 162 165 168
-0.156290 0.019817 0.714000 142 142 146
-0.154438 0.019817 0.714000 110 110 114
-0.152585 0.019817 0.714000 115 114 116
-0.150733 0.019817 0.714000 115 114 116
-0.148880 0.019817 0.714000 109 108 112
-0.147028 0.019817 0.714000 103 102 106
-0.145176 0.019817 0.714000 107 107 111
-0.143323 0.019817 0.714000 110 110 114
-0.141669 0.019845 0.715000 122 122 126
-0.139814 0.019845 0.715000 114 114 118
-0.138152 0.019872 0.716000 143 143 147
-0.136294 0.019872 0.716000 171 171 175
-0.134249 0.019845 0.715000 184 183 187
0.038212 0.019817 0.714000 131 131 133
0.040064 0.019817 0.714000 112 118 118
0.041917 0.019817 0.714000 112 118 118
0.043769 0.019817 0.714000 109 112 115
0.045686 0.019845 0.715000 150 153 156
-0.160443 0.021732 0.716000 153 153 157
-0.158585 0.021732 0.716000 117 117 121
-0.156509 0.021702 0.715000 103 102 109
-0.154654 0.021702 0.715000 112 111 118
-0.152585 0.021672 0.714000 108 108 112
-0.150733 0.021672 0.714000 102 102 106
-0.148880 0.021672 0.714000 104 103 107
-0.147028 0.021672 0.714000 112 111 115
-0.145176 0.021672 0.714000 118 117 121
-0.143524 0.021702 0.715000 111 110 114
-0.141669 0.021702 0.715000 127 126 130
-0.140009 0.021732 0.716000 168 167 171
-0.138152 0.021732 0.716000 186 185 189
0.038212 0.021672 0.714000 165 165 165
0.040064 0.021672 0.714000 107 110 111
0.041976 0.021702 0.715000 116 119 120
0.043831 0.021702 0.715000 106 109 112
0.045686 0.021702 0.715000 133 136 139
-0.162527 0.023625 0.717000 132 132 136
-0.160667 0.023625 0.717000 102 104 110
-0.158585 0.023592 0.716000 103 105 111
-0.156728 0.023592 0.716000 108 110 116
-0.154870 0.023592 0.716000 105 107 113
-0.152799 0.023559 0.715000 105 108 111
-0.150944 0.023559 0.715000 106 109 112
-0.149089 0.023559 0.715000 111 111 115
-0.147234 0.023559 0.715000 118 118 122
-0.145379 0.023559 0.715000 128 124 129
-0.143524 0.023559 0.715000 160 156 161
-0.141867 0.023592 0.716000 186 182 187
0.038266 0.023559 0.715000 174 174 176
0.040121 0.023559 0.715000 107 110 111
0.043892 0.023592 0.716000 113 116 117
0.045749 0.023592 0.716000 122 125 126
-0.166248 0.025488 0.717000 146 145 149
-0.164387 0.025488 0.717000 125 123 130
-0.162527 0.025488 0.717000 106 104 111
-0.160667 0.025488 0.717000 103 102 109
-0.158807 0.025488 0.717000 105 104 111
-0.156947 0.025488 0.717000 105 104 111
-0.155086 0.025488 0.717000 104 103 110
-0.153226 0.025488 0.717000 110 110 114
-0.151155 0.025452 0.716000 110 110 114
-0.149297 0.025452 0.716000 124 123 125
-0.147440 0.025452 0.716000 151 150 152
-0.145582 0.025452 0.716000 184 180 183
0.040121 0.025417 0.715000 120 123 124
0.043892 0.025452 0.716000 115 118 119
0.045749 0.025452 0.716000 109 112 113
0.047674 0.025488 0.717000 158 161 164
-0.169968 0.027351 0.717000 167 163 164
-0.168108 0.027351 0.717000 120 119 123
-0.166248 0.027351 0.717000 116 115 119
-0.164387 0.027351 0.717000 109 107 114
-0.162527 0.027351 0.717000 102 100 107
-0.160667 0.027351 0.717000 103 101 108
-0.158807 0.027351 0.717000 106 104 111
-0.156947 0.027351 0.717000 108 107 114
-0.155086 0.027351 0.717000 104 103 110
-0.153226 0.027351 0.717000 112 112 114
-0.151366 0.027351 0.717000 137 137 139
-0.149506 0.027351 0.717000 176 175 177
0.040177 0.027312 0.716000 133 133 135
0.042034 0.027312 0.716000 116 116 118
0.043892 0.027312 0.716000 117 120 121
0.045813 0.027351 0.717000 108 111 112
0.047674 0.027351 0.717000 144 147 150
-0.172068 0.029254 0.718000 146 145 147
-0.170205 0.029254 0.718000 112 111 113
-0.168342 0.029254 0.718000 113 111 118
-0.166479 0.029254 0.718000 112 110 117
-0.164617 0.029254 0.718000 103 101 108
-0.162754 0.029254 0.718000 109 107 114
-0.160891 0.029254 0.718000 108 107 111
-0.158807 0.029213 0.717000 116 115 119
-0.156947 0.029213 0.717000 115 115 119
-0.155086 0.029213 0.717000 126 126 130
-0.153226 0.029213 0.717000 173 172 174
-0.151366 0.029213 0.717000 188 187 189
0.040177 0.029173 0.716000 163 166 165
0.042034 0.029173 0.716000 112 115 114
0.043953 0.029213 0.717000 121 124 125
0.045813 0.029213 0.717000 108 111 112
0.047674 0.029213 0.717000 134 137 138
-0.175793 0.031119 0.718000 173 173 175
-0.173930 0.031119 0.718000 122 122 124
-0.172068 0.031119 0.718000 111 110 117
-0.170205 0.031119 0.718000 111 110 117
-0.168577 0.031163 0.719000 109 107 114
-0.166711 0.031163 0.719000 104 102 109
-0.164846 0.031163 0.719000 104 104 108
-0.162980 0.031163 0.719000 115 115 119
-0.160891 0.031119 0.718000 116 116 118
-0.159028 0.031119 0.718000 122 122 124
-0.157165 0.031119 0.718000 155 154 156
-0.155303 0.031119 0.718000 181 180 182
0.042034 0.031033 0.716000 119 122 123
0.043953 0.031076 0.717000 120 123 124
0.045813 0.031076 0.717000 115 118 119
0.047674 0.031076 0.717000 122 125 126
0.049534 0.031076 0.717000 173 176 177
-0.177903 0.033030 0.719000 159 159 161
-0.176038 0.033030 0.719000 110 112 118
-0.174173 0.033030 0.719000 101 103 109
-0.172307 0.033030 0.719000 108 110 116
-0.170442 0.033030 0.719000 105 107 113
-0.168577 0.033030 0.719000 105 105 109
-0.166711 0.033030 0.719000 107 107 111
-0.164846 0.033030 0.719000 118 118 122
-0.162980 0.033030 0.719000 115 115 119
-0.161115 0.033030 0.719000 132 132 134
-0.159250 0.033030 0.719000 173 173 175
0.042093 0.032939 0.717000 136 139 138
0.043953 0.032939 0.717000 116 119 120
0.045813 0.032939 0.717000 119 122 123
0.047674 0.032939 0.717000 110 113 114
0.049534 0.032939 0.717000 162 165 166
-0.181634 0.034898 0.719000 176 175 175
-0.179769 0.034898 0.719000 138 137 144
-0.177903 0.034898 0.719000 105 104 111
-0.176038 0.034898 0.719000 100 105 112
-0.174173 0.034898 0.719000 100 105 112
-0.172547 0.034947 0.720000 99 105 107
-0.170679 0.034947 0.720000 98 104 106
-0.168811 0.034947 0.720000 109 112 115
-0.166943 0.034947 0.720000 115 118 121
-0.165075 0.034947 0.720000 118 118 120
-0.163207 0.034947 0.720000 154 154 156
-0.161339 0.034947 0.720000 183 182 184
0.042093 0.034801 0.717000 153 153 153
0.043953 0.034801 0.717000 109 112 111
0.045813 0.034801 0.717000 119 122 121
0.047674 0.034801 0.717000 112 115 116
0.049603 0.034850 0.718000 140 143 144
-0.183500 0.036766 0.719000 154 154 158
-0.181887 0.036817 0.720000 119 119 123
-0.180019 0.036817 0.720000 103 105 113
-0.178151 0.036817 0.720000 103 105 113
-0.176283 0.036817 0.720000 102 104 112
-0.174415 0.036817 0.720000 102 104 112
-0.172547 0.036817 0.720000 108 111 114
-0.170916 0.036868 0.721000 109 112 115
-0.169046 0.036868 0.721000 112 115 116
-0.167175 0.036868 0.721000 145 148 149
-0.165304 0.036868 0.721000 178 178 178
0.042093 0.036664 0.717000 179 179 179
0.043953 0.036664 0.717000 113 116 117
0.045813 0.036664 0.717000 117 120 121
0.047674 0.036664 0.717000 110 116 116
0.049603 0.036715 0.718000 125 131 131
-0.187491 0.038688 0.720000 169 169 171
-0.185623 0.038688 0.720000 135 135 137
-0.183755 0.038688 0.720000 108 107 114
-0.182139 0.038741 0.721000 105 104 111
-0.180269 0.038741 0.721000 99 101 107
-0.178398 0.038741 0.721000 98 100 106
-0.176528 0.038741 0.721000 99 101 107
-0.174657 0.038741 0.721000 108 110 116
-0.172787 0.038741 0.721000 117 117 121
-0.170916 0.038741 0.721000 125 125 129
-0.169280 0.038795 0.722000 164 164 166
0.043953 0.038526 0.717000 121 124 125
0.045877 0.038580 0.718000 114 117 118
0.047740 0.038580 0.718000 113 119 121
0.049603 0.038580 0.718000 113 119 121
0.051466 0.038580 0.718000 171 177 179
-0.189622 0.040614 0.721000 152 155 156
-0.187751 0.040614 0.721000 117 119 125
-0.185881 0.040614 0.721000 110 112 118
-0.184010 0.040614 0.721000 108 107 114
-0.182139 0.040614 0.721000 105 104 111
-0.180269 0.040614 0.721000 106 109 112
-0.178398 0.040614 0.721000 101 104 107
-0.176528 0.040614 0.721000 114 114 118
-0.174899 0.040671 0.722000 115 115 119
-0.173026 0.040671 0.722000 137 137 139
-0.171153 0.040671 0.722000 175 175 177
0.044014 0.040445 0.718000 149 152 153
0.045877 0.040445 0.718000 107 110 111
0.047740 0.040445 0.718000 115 121 123
0.049603 0.040445 0.718000 104 110 112
0.051466 0.040445 0.718000 157 163 165
-0.193899 0.042605 0.723000 170 173 174
-0.192023 0.042605 0.723000 135 137 143
-0.190148 0.042605 0.723000 106 108 114
-0.188012 0.042546 0.722000 107 109 117
-0.186396 0.042605 0.723000 102 104 112
-0.184265 0.042546 0.722000 96 98 104
-0.182392 0.042546 0.722000 103 105 111
-0.180769 0.042605 0.723000 116 116 120
-0.178893 0.042605 0.723000 112 112 116
-0.177017 0.042605 0.723000 128 128 132
-0.175142 0.042605 0.723000 169 169 173
-0.173506 0.042664 0.724000 186 186 186
0.044014 0.042311 0.718000 169 172 173
0.045877 0.042311 0.718000 107 110 111
0.047740 0.042311 0.718000 115 121 123
0.049672 0.042370 0.719000 100 106 108
0.051537 0.042370 0.719000 151 154 155
-0.196046 0.044545 0.724000 139 144 149
-0.194167 0.044545 0.724000 113 118 123
-0.192289 0.044545 0.724000 101 106 113
-0.190411 0.044545 0.724000 103 108 115
-0.188532 0.044545 0.724000 102 104 110
-0.186654 0.044545 0.724000 102 104 110
-0.184520 0.044484 0.723000 112 115 118
-0.182897 0.044545 0.724000 112 115 118
-0.181019 0.044545 0.724000 115 115 119
-0.179141 0.044545 0.724000 144 144 148
-0.177262 0.044545 0.724000 182 181 183
0.044014 0.044176 0.718000 176 176 178
0.045941 0.044237 0.719000 117 117 119
0.047807 0.044237 0.719000 123 126 127
0.049672 0.044237 0.719000 105 108 109
0.051537 0.044237 0.719000 138 141 142
-0.200078 0.046490 0.725000 160 166 168
-0.198197 0.046490 0.725000 118 124 126
-0.196317 0.046490 0.725000 105 112 116
-0.194436 0.046490 0.725000 106 113 117
-0.192555 0.046490 0.725000 100 107 113
-0.190674 0.046490 0.725000 100 107 113
-0.188793 0.046490 0.725000 104 109 114
-0.186654 0.046426 0.724000 111 116 121
-0.184776 0.046426 0.724000 107 110 113
-0.182897 0.046426 0.724000 130 133 136
-0.181269 0.046490 0.725000 169 169 171
0.044076 0.046105 0.719000 179 182 183
0.045941 0.046105 0.719000 128 131 132
0.047807 0.046105 0.719000 124 124 126
0.049741 0.046169 0.720000 117 117 119
0.051609 0.046169 0.720000 120 123 124
-0.203840 0.048373 0.725000 171 176 181
-0.201959 0.048373 0.725000 129 134 139
-0.200078 0.048373 0.725000 113 118 123
-0.198471 0.048440 0.726000 104 109 114
-0.196587 0.048440 0.726000 103 108 113
-0.194704 0.048440 0.726000 93 98 103
-0.192820 0.048440 0.726000 101 107 109
-0.190937 0.048440 0.726000 107 113 115
-0.188793 0.048373 0.725000 106 109 112
-0.186912 0.048373 0.725000 119 122 125
-0.185031 0.048373 0.725000 144 144 146
-0.183150 0.048373 0.725000 185 185 187
0.046005 0.048040 0.720000 135 138 139
0.047873 0.048040 0.720000 117 120 121
0.049741 0.048040 0.720000 116 119 120
0.051609 0.048040 0.720000 112 112 114
0.053551 0.048107 0.721000 171 171 173
-0.206005 0.050326 0.726000 164 170 172
-0.204121 0.050326 0.726000 114 121 127
-0.202238 0.050326 0.726000 97 104 110
-0.200354 0.050326 0.726000 103 110 114
-0.198744 0.050396 0.727000 97 104 108
-0.196858 0.050396 0.727000 103 109 109
-0.194972 0.050396 0.727000 105 111 111
-0.193086 0.050396 0.727000 107 113 113
-0.191200 0.050396 0.727000 110 116 116
-0.189314 0.050396 0.727000 134 137 136
-0.187170 0.050326 0.726000 169 172 171
0.046005 0.049910 0.720000 121 124 125
0.047940 0.049980 0.721000 119 122 125
0.049810 0.049980 0.721000 120 123 126
0.051681 0.049980 0.721000 111 111 115
0.053551 0.049980 0.721000 158 158 162
-0.209772 0.052212 0.726000 179 182 181
-0.206289 0.052284 0.727000 110 116 118
-0.204403 0.052284 0.727000 101 111 116
-0.202516 0.052284 0.727000 97 107 112
-0.200630 0.052284 0.727000 98 108 111
-0.198744 0.052284 0.727000 104 114 117
-0.196858 0.052284 0.727000 108 114 114
-0.194972 0.052284 0.727000 103 109 109
-0.193086 0.052284 0.727000 123 126 125
-0.191200 0.052284 0.727000 167 170 169
0.046069 0.051853 0.721000 169 172 171
0.047940 0.051853 0.721000 114 114 118
0.049810 0.051853 0.721000 122 122 126
0.051681 0.051853 0.721000 110 110 114
0.053625 0.051925 0.722000 125 125 129
-0.211947 0.054173 0.727000 170 173 174
-0.210061 0.054173 0.727000 123 126 127
-0.208175 0.054173 0.727000 100 106 108
-0.206289 0.054173 0.727000 98 104 106
-0.204403 0.054173 0.727000 96 103 107
-0.202516 0.054173 0.727000 103 110 114
-0.200630 0.054173 0.727000 104 111 115
-0.198744 0.054173 0.727000 113 120 124
-0.196858 0.054173 0.727000 108 111 112
-0.194972 0.054173 0.727000 147 150 151
-0.193351 0.054247 0.728000 179 179 179
0.046069 0.053726 0.721000 178 181 182
0.048006 0.053800 0.722000 108 111 114
0.049810 0.053726 0.721000 119 122 125
0.051752 0.053800 0.722000 109 112 113
0.053700 0.053875 0.723000 130 133 134
0.055575 0.053875 0.723000 175 176 172
-0.215719 0.056061 0.727000 180 183 184
-0.213833 0.056061 0.727000 153 156 157
-0.212239 0.056138 0.728000 108 114 116
-0.210350 0.056138 0.728000 101 107 109
-0.208461 0.056138 0.728000 100 108 109
-0.206572 0.056138 0.728000 99 107 108
-0.204684 0.056138 0.728000 99 107 108
-0.202795 0.056138 0.728000 110 118 119
-0.200906 0.056138 0.728000 111 117 119
-0.199018 0.056138 0.728000 114 120 122
-0.197129 0.056138 0.728000 158 158 160
-0.195240 0.056138 0.728000 188 188 190
0.046133 0.055676 0.722000 177 180 181
0.048006 0.055676 0.722000 123 126 127
0.049948 0.055753 0.723000 114 117 118
0.051824 0.055753 0.723000 115 118 119
0.053774 0.055830 0.724000 122 125 126
0.055652 0.055830 0.724000 180 181 177
-0.217905 0.058030 0.728000 175 175 177
-0.216016 0.058030 0.728000 133 139 141
-0.214127 0.058030 0.728000 101 107 109
-0.212530 0.058109 0.729000 104 110 112
-0.210639 0.058109 0.729000 104 110 112
-0.208748 0.058109 0.729000 101 107 109
-0.206856 0.058109 0.729000 103 109 111
-0.204684 0.058030 0.728000 106 114 113
-0.202795 0.058030 0.728000 106 114 113
-0.200906 0.058030 0.728000 145 148 149
-0.199018 0.058030 0.728000 160 163 164
0.048072 0.057631 0.723000 144 144 146
0.050017 0.057711 0.724000 111 111 113
0.051896 0.057711 0.724000 119 119 121
0.053774 0.057711 0.724000 112 112 114
0.055729 0.057791 0.725000 170 173 172
-0.219793 0.059921 0.728000 162 164 170
-0.217905 0.059921 0.728000 113 115 121
-0.216313 0.060003 0.729000 107 112 117
-0.214421 0.060003 0.729000 104 109 114
-0.212530 0.060003 0.729000 103 109 111
-0.210639 0.060003 0.729000 103 109 111
-0.208748 0.060003 0.729000 108 111 112
-0.206856 0.060003 0.729000 109 112 113
-0.204965 0.060003 0.729000 134 137 138
-0.203074 0.060003 0.729000 171 174 175
0.048139 0.059592 0.724000 153 153 155
0.050017 0.059592 0.724000 111 111 113
0.051896 0.059592 0.724000 117 120 121
0.053848 0.059674 0.725000 106 109 110
0.055729 0.059674 0.725000 156 159 160
-0.223571 0.061812 0.728000 182 182 184
-0.221682 0.061812 0.728000 149 149 151
-0.220095 0.061897 0.729000 106 108 114
-0.218204 0.061897 0.729000 106 108 114
-0.216313 0.061897 0.729000 100 105 110
-0.214421 0.061897 0.729000 105 110 115
-0.212530 0.061897 0.729000 112 115 116
-0.210928 0.061982 0.730000 110 113 114
-0.208748 0.061897 0.729000 116 116 116
-0.206856 0.061897 0.729000 152 152 152
-0.204965 0.061897 0.729000 181 184 183
0.048205 0.061557 0.725000 159 159 161
0.050086 0.061557 0.725000 110 110 112
0.051967 0.061557 0.725000 119 122 125
0.053848 0.061557 0.725000 107 110 113
0.055806 0.061642 0.726000 149 155 155
-0.225769 0.063791 0.729000 184 183 183
-0.223878 0.063791 0.729000 132 132 134
-0.221987 0.063791 0.729000 109 109 111
-0.220095 0.063791 0.729000 107 112 117
-0.218204 0.063791 0.729000 101 106 111
-0.216313 0.063791 0.729000 104 109 114
-0.214421 0.063791 0.729000 110 115 120
-0.212822 0.063878 0.730000 110 113 116
-0.210928 0.063878 0.730000 122 125 128
-0.209034 0.063878 0.730000 176 176 176
-0.206856 0.063791 0.729000 185 185 185
0.048272 0.063528 0.726000 171 174 175
0.050086 0.063441 0.725000 109 112 113
0.051967 0.063441 0.725000 117 123 125
0.053997 0.063616 0.727000 111 117 119
0.055883 0.063616 0.727000 140 146 146
-0.227661 0.065685 0.729000 165 165 169
-0.225769 0.065685 0.729000 125 125 129
-0.223878 0.065685 0.729000 101 104 107
-0.221987 0.065685 0.729000 106 109 112
-0.220095 0.065685 0.729000 106 112 114
-0.218503 0.065775 0.730000 107 113 115
-0.216610 0.065775 0.730000 110 115 120
-0.214716 0.065775 0.730000 113 118 123
-0.212822 0.065775 0.730000 134 137 138
-0.210928 0.065775 0.730000 179 182 183
0.048338 0.065504 0.727000 181 181 183
0.050225 0.065504 0.727000 111 111 113
0.052111 0.065504 0.727000 114 120 122
0.053997 0.065504 0.727000 112 118 120
0.055960 0.065595 0.728000 128 128 130
-0.229552 0.067578 0.729000 149 148 155
-0.227973 0.067671 0.730000 106 108 114
-0.226079 0.067671 0.730000 107 109 115
-0.224185 0.067671 0.730000 99 102 105
-0.222291 0.067671 0.730000 106 109 112
-0.220397 0.067671 0.730000 107 112 117
-0.218503 0.067671 0.730000 108 113 118
-0.216610 0.067671 0.730000 118 118 122
-0.214716 0.067671 0.730000 158 158 162
-0.213113 0.067764 0.731000 185 185 187
0.048405 0.067486 0.728000 186 186 188
0.050225 0.067393 0.727000 117 117 119
0.052111 0.067393 0.727000 114 117 118
0.054071 0.067486 0.728000 115 118 119
0.056037 0.067578 0.729000 122 122 122
-0.233655 0.069568 0.730000 183 186 187
-0.231761 0.069568 0.730000 134 139 144
-0.229867 0.069568 0.730000 99 104 109
-0.227973 0.069568 0.730000 104 109 114
-0.226079 0.069568 0.730000 103 108 113
-0.224185 0.069568 0.730000 110 110 114
-0.222291 0.069568 0.730000 110 110 114
-0.220397 0.069568 0.730000 108 111 114
-0.218503 0.069568 0.730000 130 133 136
-0.216906 0.069663 0.731000 176 175 177
-0.215010 0.069663 0.731000 188 187 189
0.050363 0.069472 0.729000 137 136 136
0.052254 0.069472 0.729000 114 117 118
0.054145 0.069472 0.729000 119 122 123
0.056037 0.069472 0.729000 117 120 121
0.058007 0.069568 0.730000 173 176 177
-0.235871 0.071562 0.731000 163 168 175
-0.233975 0.071562 0.731000 120 125 132
-0.232078 0.071562 0.731000 99 104 111
-0.230182 0.071562 0.731000 103 108 115
-0.228285 0.071562 0.731000 106 109 112
-0.226389 0.071562 0.731000 105 108 111
-0.224492 0.071562 0.731000 115 114 118
-0.222596 0.071562 0.731000 112 111 115
-0.220699 0.071562 0.731000 145 144 146
-0.218803 0.071562 0.731000 183 182 184
0.050363 0.071366 0.729000 166 165 165
0.052254 0.071366 0.729000 115 115 117
0.054145 0.071366 0.729000 122 122 124
0.056114 0.071464 0.730000 114 117 118
0.058087 0.071562 0.731000 167 170 171
-0.237768 0.073461 0.731000 154 160 162
-0.235871 0.073461 0.731000 107 112 119
-0.233975 0.073461 0.731000 103 108 115
-0.232078 0.073461 0.731000 105 110 117
-0.230182 0.073461 0.731000 105 110 117
-0.228285 0.073461 0.731000 108 111 112
-0.226389 0.073461 0.731000 106 109 110
-0.224492 0.073461 0.731000 132 131 133
-0.222596 0.073461 0.731000 163 162 164
-0.220699 0.073461 0.731000 187 186 188
0.050432 0.073360 0.730000 172 172 172
0.052326 0.073360 0.730000 112 112 114
0.054220 0.073360 0.730000 121 121 123
0.056190 0.073461 0.731000 107 110 111
0.058087 0.073461 0.731000 152 155 156
-0.241891 0.075463 0.732000 183 189 187
-0.239992 0.075463 0.732000 136 141 146
-0.238093 0.075463 0.732000 106 111 116
-0.236194 0.075463 0.732000 103 105 113
-0.233975 0.075360 0.731000 106 108 116
-0.232396 0.075463 0.732000 105 107 113
-0.230497 0.075463 0.732000 108 110 116
-0.228598 0.075463 0.732000 111 111 113
-0.226698 0.075463 0.732000 132 132 134
-0.224799 0.075463 0.732000 180 179 181
0.050501 0.075360 0.731000 176 176 176
0.052397 0.075360 0.731000 115 118 119
0.054294 0.075360 0.731000 119 122 123
0.056190 0.075360 0.731000 110 116 116
0.058087 0.075360 0.731000 138 144 144
-0.243790 0.077365 0.732000 178 184 186
-0.241891 0.077365 0.732000 132 138 140
-0.239992 0.077365 0.732000 100 105 110
-0.238093 0.077365 0.732000 104 109 114
-0.236194 0.077365 0.732000 106 108 114
-0.234295 0.077365 0.732000 110 112 118
-0.232396 0.077365 0.732000 116 119 122
-0.230497 0.077365 0.732000 112 115 118
-0.228598 0.077365 0.732000 147 147 149
-0.226698 0.077365 0.732000 180 180 182
0.050501 0.077259 0.731000 177 180 181
0.052397 0.077259 0.731000 118 124 126
0.054294 0.077259 0.731000 118 124 126
0.056190 0.077259 0.731000 112 117 122
0.058166 0.077365 0.732000 136 141 146
-0.245689 0.079266 0.732000 177 183 181
-0.243790 0.079266 0.732000 124 131 135
-0.241891 0.079266 0.732000 93 100 104
-0.239992 0.079266 0.732000 100 107 111
-0.238093 0.079266 0.732000 104 111 115
-0.236194 0.079266 0.732000 106 109 112
-0.234295 0.079266 0.732000 114 117 120
-0.232396 0.079266 0.732000 115 115 117
-0.230497 0.079266 0.732000 155 155 157
-0.228910 0.079375 0.733000 184 183 183
0.050570 0.079266 0.732000 179 182 183
0.052469 0.079266 0.732000 125 131 133
0.054294 0.079158 0.731000 119 125 127
0.056267 0.079266 0.732000 112 119 123
0.058166 0.079266 0.732000 127 134 138
-0.247927 0.081279 0.733000 169 177 178
-0.246025 0.081279 0.733000 112 120 121
-0.244123 0.081279 0.733000 96 103 109
-0.242222 0.081279 0.733000 100 107 113
-0.240320 0.081279 0.733000 106 111 116
-0.238418 0.081279 0.733000 111 116 121
-0.236517 0.081279 0.733000 112 115 118
-0.234295 0.081168 0.732000 123 126 129
-0.232396 0.081168 0.732000 167 167 167
-0.230812 0.081279 0.733000 179 179 179
0.052469 0.081168 0.732000 129 135 137
0.054368 0.081168 0.732000 113 119 121
0.056267 0.081168 0.732000 113 118 123
0.058166 0.081168 0.732000 118 123 128
-0.250169 0.083296 0.734000 162 165 166
-0.248265 0.083296 0.734000 109 116 120
-0.246025 0.083183 0.733000 97 104 108
-0.244123 0.083183 0.733000 103 110 114
-0.242222 0.083183 0.733000 105 112 116
-0.240320 0.083183 0.733000 108 114 116
-0.238418 0.083183 0.733000 108 114 116
-0.236517 0.083183 0.733000 138 138 140
-0.234615 0.083183 0.733000 178 178 180
0.052469 0.083069 0.732000 135 138 141
0.054368 0.083069 0.732000 114 117 120
0.056267 0.083069 0.732000 116 119 122
0.058246 0.083183 0.733000 112 115 118
-0.252074 0.085203 0.734000 147 150 153
-0.250169 0.085203 0.734000 112 115 118
-0.248265 0.085203 0.734000 97 105 106
-0.246025 0.085087 0.733000 102 110 111
-0.244123 0.085087 0.733000 107 115 116
-0.242222 0.085087 0.733000 106 114 115
-0.240320 0.085087 0.733000 117 117 117
-0.238418 0.085087 0.733000 157 157 157
-0.236517 0.085087 0.733000 179 179 181
0.052541 0.085087 0.733000 144 144 146
0.054442 0.085087 0.733000 114 114 116
0.056344 0.085087 0.733000 121 121 125
0.058325 0.085203 0.734000 111 111 115
0.060230 0.085203 0.734000 176 175 177
-0.254324 0.087229 0.735000 133 136 139
-0.252417 0.087229 0.735000 108 111 114
-0.250169 0.087110 0.734000 105 108 111
-0.248265 0.087110 0.734000 104 110 112
-0.246361 0.087110 0.734000 106 112 114
-0.244123 0.086991 0.733000 109 112 111
-0.242222 0.086991 0.733000 115 118 117
-0.240320 0.086991 0.733000 165 165 165
-0.238744 0.087110 0.734000 179 179 179
0.052612 0.087110 0.734000 157 157 157
0.054517 0.087110 0.734000 114 114 114
0.056421 0.087110 0.734000 123 123 123
0.058405 0.087229 0.735000 114 114 114
0.060312 0.087229 0.735000 170 169 171
-0.256928 0.089381 0.737000 129 131 137
-0.254670 0.089259 0.736000 101 103 109
-0.252417 0.089138 0.735000 106 109 112
-0.250510 0.089138 0.735000 108 111 114
-0.248265 0.089017 0.734000 114 114 116
-0.246361 0.089017 0.734000 111 111 113
-0.244123 0.088896 0.733000 121 121 121
-0.242222 0.088896 0.733000 168 168 168
-0.240648 0.089017 0.734000 182 181 181
0.052684 0.089138 0.735000 169 168 168
0.054591 0.089138 0.735000 115 114 114
0.056498 0.089138 0.735000 124 124 124
0.058484 0.089259 0.736000 114 114 114
0.060476 0.089381 0.737000 156 155 157
-0.261106 0.091419 0.738000 172 177 182
-0.258840 0.091295 0.737000 117 122 127
-0.256928 0.091295 0.737000 98 103 108
-0.255016 0.091295 0.737000 100 105 110
-0.252760 0.091171 0.736000 109 112 115
-0.250510 0.091047 0.735000 110 113 116
-0.248265 0.090924 0.734000 110 110 112
-0.246361 0.090924 0.734000 135 135 137
-0.244456 0.090924 0.734000 176 175 175
0.052756 0.091171 0.736000 182 181 181
0.054665 0.091171 0.736000 115 114 114
0.056575 0.091171 0.736000 118 118 120
0.058564 0.091295 0.737000 112 112 114
0.060476 0.091295 0.737000 146 146 148
-0.263377 0.093463 0.739000 165 171 173
-0.261460 0.093463 0.739000 110 117 123
-0.259542 0.093463 0.739000 96 103 109
-0.257277 0.093336 0.738000 102 110 111
-0.255016 0.093210 0.737000 103 111 112
-0.253104 0.093210 0.737000 110 113 114
-0.251192 0.093210 0.737000 106 109 110
-0.248603 0.092957 0.735000 142 142 142
-0.246696 0.092957 0.735000 180 180 180
0.052827 0.093210 0.737000 187 186 186
0.054740 0.093210 0.737000 116 115 115
0.056652 0.093210 0.737000 119 122 125
0.058643 0.093336 0.738000 109 112 115
0.060640 0.093463 0.739000 133 136 137
-0.265653 0.095512 0.740000 163 168 175
-0.263733 0.095512 0.740000 108 113 120
-0.261460 0.095383 0.739000 96 103 109
-0.259542 0.095383 0.739000 102 109 115
-0.257625 0.095383 0.739000 108 111 114
-0.255708 0.095383 0.739000 114 117 120
-0.253447 0.095253 0.738000 113 116 115
-0.251192 0.095124 0.737000 144 147 146
-0.249280 0.095124 0.737000 182 182 182
0.052899 0.095253 0.738000 188 187 187
0.056805 0.095383 0.739000 121 121 123
0.058723 0.095383 0.739000 112 112 114
0.060640 0.095383 0.739000 131 134 135
-0.267935 0.097566 0.741000 162 167 172
-0.266012 0.097566 0.741000 107 112 117
-0.264090 0.097566 0.741000 101 106 111
-0.262167 0.097566 0.741000 100 105 110
-0.260245 0.097566 0.741000 105 110 115
-0.257974 0.097434 0.740000 114 114 116
-0.256054 0.097434 0.740000 118 118 120
-0.253791 0.097302 0.739000 164 165 161
-0.251873 0.097302 0.739000 179 180 176
0.052971 0.097302 0.739000 184 183 183
0.054888 0.097302 0.739000 132 131 131
0.056805 0.097302 0.739000 121 124 125
0.058723 0.097302 0.739000 110 113 114
0.060722 0.097434 0.740000 128 131 132
-0.270221 0.099625 0.742000 150 157 161
-0.268296 0.099625 0.742000 105 112 116
-0.266371 0.099625 0.742000 101 106 111
-0.264446 0.099625 0.742000 107 112 117
-0.262167 0.099491 0.741000 110 113 116
-0.260245 0.099491 0.741000 109 112 115
-0.258322 0.099491 0.741000 125 125 125
-0.256400 0.099491 0.741000 172 172 172
-0.254478 0.099491 0.741000 181 180 180
0.054962 0.099356 0.740000 136 135 135
0.056959 0.099491 0.741000 120 123 126
0.058882 0.099491 0.741000 114 117 120
0.060804 0.099491 0.741000 123 126 127
-0.272513 0.101689 0.743000 153 161 162
-0.270586 0.101689 0.743000 104 111 115
-0.268658 0.101689 0.743000 98 105 109
-0.266730 0.101689 0.743000 107 112 117
-0.264803 0.101689 0.743000 110 115 120
-0.262875 0.101689 0.743000 107 110 111
-0.260596 0.101553 0.742000 117 120 121
-0.258671 0.101553 0.742000 176 176 176
0.055037 0.101416 0.741000 147 146 146
0.056959 0.101416 0.741000 114 117 118
0.058882 0.101416 0.741000 116 119 120
0.060886 0.101553 0.742000 120 123 124
-0.274810 0.103759 0.744000 146 153 157
-0.272880 0.103759 0.744000 103 110 114
-0.270950 0.103759 0.744000 100 107 111
-0.269019 0.103759 0.744000 103 110 114
-0.267089 0.103759 0.744000 112 115 118
-0.264803 0.103620 0.743000 110 113 116
-0.262875 0.103620 0.743000 122 122 122
-0.260947 0.103620 0.743000 175 175 175
0.055037 0.103341 0.741000 153 152 152
0.057036 0.103480 0.742000 109 109 111
0.059040 0.103620 0.743000 118 118 120
0.060968 0.103620 0.743000 116 116 118
-0.278671 0.105692 0.744000 182 190 191
-0.276740 0.105692 0.744000 159 167 168
-0.274810 0.105692 0.744000 102 110 111
-0.272880 0.105692 0.744000 100 108 109
-0.270950 0.105692 0.744000 104 110 112
-0.269019 0.105692 0.744000 112 118 120
-0.267089 0.105692 0.744000 114 114 116
-0.265159 0.105692 0.744000 125 125 127
-0.263229 0.105692 0.744000 173 173 173
0.055111 0.105408 0.742000 156 155 155
0.057113 0.105550 0.743000 110 110 112
0.059040 0.105550 0.743000 118 118 120
0.061050 0.105692 0.744000 112 112 114
0.062980 0.105692 0.744000 160 160 162
-0.278671 0.107625 0.744000 156 164 163
-0.276740 0.107625 0.744000 102 110 109
-0.274810 0.107625 0.744000 98 106 105
-0.272880 0.107625 0.744000 104 112 111
-0.270950 0.107625 0.744000 113 116 119
-0.269019 0.107625 0.744000 114 117 120
-0.267089 0.107625 0.744000 128 128 130
-0.265159 0.107625 0.744000 178 178 180
0.055185 0.107480 0.743000 161 161 157
0.057190 0.107625 0.744000 106 109 110
0.059120 0.107625 0.744000 117 120 121
0.061050 0.107625 0.744000 114 114 114
0.063065 0.107769 0.745000 153 153 153
-0.280601 0.109557 0.744000 157 165 164
-0.278671 0.109557 0.744000 102 110 109
-0.276740 0.109557 0.744000 98 106 105
-0.275180 0.109705 0.745000 106 112 112
-0.272880 0.109557 0.744000 106 112 112
-0.270950 0.109557 0.744000 110 110 110
-0.269019 0.109557 0.744000 126 126 126
-0.267448 0.109705 0.745000 181 181 181
0.055259 0.109557 0.744000 166 166 162
0.057267 0.109705 0.745000 105 108 109
0.059199 0.109705 0.745000 121 124 125
0.061132 0.109705 0.745000 112 112 112
0.063150 0.109852 0.746000 150 150 150
-0.282531 0.111490 0.744000 162 170 171
-0.280601 0.111490 0.744000 102 110 111
-0.279045 0.111640 0.745000 98 106 107
-0.277112 0.111640 0.745000 103 111 112
-0.275180 0.111640 0.745000 109 112 113
-0.273247 0.111640 0.745000 110 113 114
-0.270950 0.111490 0.744000 128 128 128
-0.269019 0.111490 0.744000 178 178 178
0.055334 0.111640 0.745000 174 174 170
0.057267 0.111640 0.745000 109 112 111
0.059199 0.111640 0.745000 114 117 116
0.061214 0.111790 0.746000 110 110 110
0.063150 0.111790 0.746000 145 145 145
-0.284461 0.113423 0.744000 169 175 175
-0.282531 0.113423 0.744000 102 110 111
-0.280978 0.113575 0.745000 97 105 106
-0.279045 0.113575 0.745000 103 111 112
-0.277112 0.113575 0.745000 104 112 113
-0.275180 0.113575 0.745000 107 110 111
-0.273247 0.113575 0.745000 122 125 126
-0.271314 0.113575 0.745000 179 178 178
0.055408 0.113728 0.746000 179 179 175
0.057343 0.113728 0.746000 114 114 114
0.059279 0.113728 0.746000 117 117 117
0.061214 0.113728 0.746000 112 112 112
0.063150 0.113728 0.746000 136 136 136
-0.286392 0.115356 0.744000 172 177 182
-0.284844 0.115511 0.745000 107 112 117
-0.282911 0.115511 0.745000 98 103 108
-0.280978 0.115511 0.745000 105 110 115
-0.279045 0.115511 0.745000 107 112 117
-0.277112 0.115511 0.745000 111 116 121
-0.275180 0.115511 0.745000 131 131 133
-0.273247 0.115511 0.745000 176 176 178
0.055408 0.115666 0.746000 182 182 182
0.057343 0.115666 0.746000 118 117 117
0.059279 0.115666 0.746000 117 116 116
0.061214 0.115666 0.746000 112 112 112
0.063150 0.115666 0.746000 128 128 128
-0.288709 0.117446 0.745000 171 174 175
-0.286776 0.117446 0.745000 113 118 123
-0.284844 0.117446 0.745000 97 102 107
-0.282911 0.117446 0.745000 104 109 114
-0.280978 0.117446 0.745000 110 115 120
-0.279045 0.117446 0.745000 110 113 116
-0.277112 0.117446 0.745000 121 124 127
-0.275180 0.117446 0.745000 172 171 173
0.055408 0.117604 0.746000 180 180 180
0.057343 0.117604 0.746000 123 122 124
0.059279 0.117604 0.746000 115 114 116
0.061214 0.117604 0.746000 110 113 114
0.063150 0.117604 0.746000 112 115 116
-0.290642 0.119382 0.745000 174 180 182
-0.288709 0.119382 0.745000 112 118 120
-0.287161 0.119542 0.746000 98 104 106
-0.285226 0.119542 0.746000 104 110 112
-0.282911 0.119382 0.745000 113 116 117
-0.280978 0.119382 0.745000 113 116 117
-0.279045 0.119382 0.745000 118 118 120
-0.277112 0.119382 0.745000 172 172 174
0.055408 0.119542 0.746000 180 180 180
0.057343 0.119542 0.746000 126 125 127
0.059279 0.119542 0.746000 115 114 116
0.061214 0.119542 0.746000 110 112 118
0.063234 0.119702 0.747000 112 114 120
-0.292968 0.121480 0.746000 183 186 187
-0.291032 0.121480 0.746000 119 125 127
-0.289097 0.121480 0.746000 94 100 102
-0.287161 0.121480 0.746000 104 110 110
-0.285226 0.121480 0.746000 110 116 116
-0.283291 0.121480 0.746000 110 113 114
-0.281355 0.121480 0.746000 115 118 119
-0.279045 0.121317 0.745000 169 169 171
0.057420 0.121643 0.747000 122 122 126
0.059358 0.121643 0.747000 115 115 119
0.061296 0.121643 0.747000 112 114 120
0.063234 0.121643 0.747000 113 115 121
-0.294903 0.123418 0.746000 181 184 187
-0.292968 0.123418 0.746000 122 125 128
-0.291032 0.123418 0.746000 93 99 101
-0.289097 0.123418 0.746000 101 107 109
-0.287161 0.123418 0.746000 111 117 117
-0.285226 0.123418 0.746000 108 114 114
-0.283291 0.123418 0.746000 126 126 128
-0.280978 0.123252 0.745000 172 172 174
0.057497 0.123749 0.748000 130 133 136
0.059358 0.123583 0.747000 112 115 118
0.061296 0.123583 0.747000 111 116 121
0.063234 0.123583 0.747000 107 112 117
-0.296839 0.125356 0.746000 180 183 184
-0.294903 0.125356 0.746000 121 126 131
-0.292968 0.125356 0.746000 94 99 104
-0.291032 0.125356 0.746000 104 110 112
-0.289097 0.125356 0.746000 106 112 114
-0.287161 0.125356 0.746000 110 113 114
-0.285226 0.125356 0.746000 120 123 124
-0.283291 0.125356 0.746000 176 176 176
0.057497 0.125692 0.748000 144 147 150
0.059438 0.125692 0.748000 112 115 118
0.061378 0.125692 0.748000 114 116 122
0.063319 0.125692 0.748000 107 109 115
-0.298774 0.127294 0.746000 178 180 186
-0.296839 0.127294 0.746000 122 124 130
-0.294903 0.127294 0.746000 98 103 108
-0.292968 0.127294 0.746000 105 110 115
-0.291032 0.127294 0.746000 108 114 116
-0.289097 0.127294 0.746000 107 113 115
-0.287161 0.127294 0.746000 122 122 122
-0.285226 0.127294 0.746000 171 171 171
0.057574 0.127806 0.749000 152 155 158
0.059517 0.127806 0.749000 106 109 112
0.061378 0.127635 0.748000 113 115 121
0.063319 0.127635 0.748000 106 108 114
-0.301112 0.129405 0.747000 176 182 182
-0.299174 0.129405 0.747000 115 120 125
-0.297236 0.129405 0.747000 96 101 106
-0.295298 0.129405 0.747000 107 109 115
-0.292968 0.129232 0.746000 112 114 120
-0.291032 0.129232 0.746000 118 118 120
-0.289097 0.129232 0.746000 121 121 123
-0.287161 0.129232 0.746000 172 172 172
0.057651 0.129925 0.750000 156 159 162
0.059597 0.129925 0.750000 103 106 109
0.061460 0.129751 0.749000 113 116 119
0.063404 0.129751 0.749000 103 106 109
-0.303456 0.131521 0.748000 168 176 177
-0.301516 0.131521 0.748000 107 115 116
-0.299174 0.131345 0.747000 98 100 106
-0.297236 0.131345 0.747000 107 109 115
-0.295298 0.131345 0.747000 110 112 118
-0.293360 0.131345 0.747000 106 108 114
-0.291422 0.131345 0.747000 128 128 130
-0.289097 0.131170 0.746000 176 176 178
0.057651 0.131873 0.750000 157 160 163
0.059597 0.131873 0.750000 103 106 109
0.061543 0.131873 0.750000 112 115 118
0.063488 0.131873 0.750000 102 105 108
-0.305397 0.133464 0.748000 166 174 173
-0.303456 0.133464 0.748000 104 111 117
-0.301516 0.133464 0.748000 89 96 102
-0.299575 0.133464 0.748000 105 110 115
-0.297236 0.133286 0.747000 110 115 120
-0.295298 0.133286 0.747000 111 110 114
-0.293360 0.133286 0.747000 126 125 129
-0.291422 0.133286 0.747000 181 180 180
0.057805 0.134178 0.752000 162 165 168
0.059676 0.134000 0.751000 102 105 108
0.061625 0.134000 0.751000 112 115 118
0.063573 0.134000 0.751000 102 105 108
-0.307748 0.135589 0.749000 156 163 167
-0.305805 0.135589 0.749000 104 111 115
-0.303862 0.135589 0.749000 97 104 110
-0.301919 0.135589 0.749000 99 106 112
-0.299575 0.135408 0.748000 114 116 122
-0.297634 0.135408 0.748000 112 114 120
-0.295298 0.135227 0.747000 126 125 127
-0.293360 0.135227 0.747000 175 174 176
0.057805 0.136132 0.752000 160 163 166
0.059756 0.136132 0.752000 106 109 112
0.061707 0.136132 0.752000 112 115 118
0.063658 0.136132 0.752000 100 103 106
-0.310105 0.137718 0.750000 154 161 165
-0.308159 0.137718 0.750000 96 106 111
-0.306213 0.137718 0.750000 95 105 110
-0.303862 0.137534 0.749000 104 114 119
-0.301919 0.137534 0.749000 103 113 118
-0.299575 0.137351 0.748000 110 113 116
-0.297634 0.137351 0.748000 120 123 126
-0.295694 0.137351 0.748000 176 175 177
0.057882 0.138269 0.753000 160 163 166
0.059835 0.138269 0.753000 107 110 113
0.061789 0.138269 0.753000 112 115 118
0.063742 0.138269 0.753000 100 103 106
0.065696 0.138269 0.753000 148 151 152
-0.312051 0.139666 0.750000 137 147 152
-0.310105 0.139666 0.750000 96 106 111
-0.308159 0.139666 0.750000 96 106 111
-0.306213 0.139666 0.750000 101 111 116
-0.304268 0.139666 0.750000 106 111 116
-0.302322 0.139666 0.750000 103 108 113
-0.299975 0.139480 0.749000 139 139 141
0.057958 0.140411 0.754000 160 163 164
0.059915 0.140411 0.754000 105 108 109
0.061871 0.140411 0.754000 110 113 114
0.063912 0.140598 0.755000 100 103 104
0.065870 0.140598 0.755000 149 152 151
-0.313997 0.141615 0.750000 134 139 144
-0.312051 0.141615 0.750000 91 101 104
-0.310518 0.141804 0.751000 98 108 111
-0.308570 0.141804 0.751000 104 111 115
-0.306622 0.141804 0.751000 106 113 117
-0.304268 0.141615 0.750000 103 106 107
-0.302322 0.141615 0.750000 142 145 146
0.058035 0.142559 0.755000 160 163 166
0.059994 0.142559 0.755000 105 108 111
0.061953 0.142559 0.755000 109 112 115
0.063912 0.142559 0.755000 101 104 107
-0.316364 0.143755 0.751000 119 124 129
-0.314415 0.143755 0.751000 99 104 109
-0.312883 0.143946 0.752000 96 104 105
-0.310932 0.143946 0.752000 105 113 114
-0.308981 0.143946 0.752000 103 109 109
-0.307030 0.143946 0.752000 104 110 110
-0.305079 0.143946 0.752000 152 152 152
0.058035 0.144520 0.755000 159 161 167
0.059994 0.144520 0.755000 105 107 113
0.062035 0.144712 0.756000 110 115 120
0.063996 0.144712 0.756000 100 105 110
-0.320687 0.145900 0.752000 178 180 186
-0.318736 0.145900 0.752000 121 123 129
-0.317206 0.146094 0.753000 98 104 106
-0.315253 0.146094 0.753000 98 104 106
-0.313299 0.146094 0.753000 105 111 111
-0.311345 0.146094 0.753000 104 110 110
-0.309803 0.146288 0.754000 107 110 109
-0.307846 0.146288 0.754000 148 151 150
0.058112 0.146676 0.756000 160 163 166
0.060073 0.146676 0.756000 103 106 109
0.062035 0.146676 0.756000 108 113 118
0.063996 0.146676 0.756000 98 103 108
0.065958 0.146676 0.756000 149 152 151
-0.321966 0.148443 0.755000 113 118 123
-0.320007 0.148443 0.755000 98 103 108
-0.318049 0.148443 0.755000 104 110 112
-0.315671 0.148246 0.754000 107 113 115
-0.313715 0.148246 0.754000 105 111 109
-0.312172 0.148443 0.755000 110 116 114
-0.310214 0.148443 0.755000 165 165 165
0.058112 0.148640 0.756000 159 161 167
0.060073 0.148640 0.756000 101 103 109
0.062035 0.148640 0.756000 113 115 121
0.063996 0.148640 0.756000 100 102 108
0.066045 0.148836 0.757000 149 152 153
-0.326315 0.150604 0.756000 165 170 179
-0.324354 0.150604 0.756000 106 111 120
-0.321966 0.150404 0.755000 98 105 109
-0.320007 0.150404 0.755000 104 111 115
-0.318049 0.150404 0.755000 108 114 116
-0.316090 0.150404 0.755000 105 111 113
-0.314131 0.150404 0.755000 115 118 117
-0.312172 0.150404 0.755000 166 169 168
0.058189 0.150803 0.757000 161 160 167
0.060073 0.150604 0.756000 104 103 110
0.062035 0.150604 0.756000 110 112 118
0.064081 0.150803 0.757000 103 105 111
0.066045 0.150803 0.757000 151 151 155
-0.329145 0.152971 0.758000 164 171 175
-0.326747 0.152769 0.757000 106 112 123
-0.324354 0.152567 0.756000 99 105 116
-0.322393 0.152567 0.756000 104 111 117
-0.320431 0.152567 0.756000 106 113 119
-0.318470 0.152567 0.756000 106 112 112
-0.316090 0.152366 0.755000 121 127 127
-0.314131 0.152366 0.755000 171 171 171
0.058189 0.152769 0.757000 160 160 164
0.060153 0.152769 0.757000 104 104 108
0.062035 0.152567 0.756000 112 111 118
0.064081 0.152769 0.757000 102 101 108
-0.331112 0.154940 0.758000 166 173 179
-0.329145 0.154940 0.758000 107 114 120
-0.327179 0.154940 0.758000 98 104 115
-0.324783 0.154736 0.757000 104 110 121
-0.322819 0.154736 0.757000 104 111 117
-0.320855 0.154736 0.757000 105 112 118
-0.318470 0.154531 0.756000 122 125 126
-0.316509 0.154531 0.756000 171 174 175
0.058266 0.154940 0.758000 160 160 164
0.060232 0.154940 0.758000 104 104 108
0.062117 0.154736 0.757000 111 110 117
0.064081 0.154736 0.757000 103 102 109
-0.331549 0.157116 0.759000 106 111 120
-0.329579 0.157116 0.759000 96 101 110
-0.327179 0.156909 0.758000 106 111 120
-0.325212 0.156909 0.758000 106 111 120
-0.323245 0.156909 0.758000 103 105 111
-0.320855 0.156702 0.757000 134 136 142
-0.318891 0.156702 0.757000 181 181 183
0.058266 0.156909 0.758000 159 159 163
0.060232 0.156909 0.758000 103 103 107
0.062199 0.156909 0.758000 110 109 116
0.064166 0.156909 0.758000 105 104 111
-0.333957 0.159298 0.760000 126 132 134
-0.331549 0.159088 0.759000 98 100 108
-0.329579 0.159088 0.759000 106 108 116
-0.327610 0.159088 0.759000 115 117 125
-0.325641 0.159088 0.759000 105 107 115
-0.323245 0.158879 0.758000 141 140 144
-0.321279 0.158879 0.758000 180 179 183
0.058343 0.159088 0.759000 151 151 153
0.060312 0.159088 0.759000 102 102 104
0.062199 0.158879 0.758000 111 110 117
0.064166 0.158879 0.758000 108 107 114
-0.335929 0.161272 0.760000 169 175 177
-0.333957 0.161272 0.760000 100 106 108
-0.331985 0.161272 0.760000 111 110 117
-0.330014 0.161272 0.760000 114 113 120
-0.328042 0.161272 0.760000 110 109 113
-0.326070 0.161272 0.760000 139 138 142
0.058420 0.161272 0.760000 147 147 151
0.060312 0.161060 0.759000 105 105 109
0.062281 0.161060 0.759000 108 110 116
0.064250 0.161060 0.759000 105 107 113
-0.336371 0.163461 0.761000 131 137 139
-0.334397 0.163461 0.761000 100 106 108
-0.332422 0.163461 0.761000 111 111 115
-0.330448 0.163461 0.761000 108 108 112
-0.328474 0.163461 0.761000 149 145 148
0.058420 0.163246 0.760000 135 135 139
0.060391 0.163246 0.760000 110 110 114
0.062363 0.163246 0.760000 107 109 115
0.064250 0.163032 0.759000 105 107 113
-0.336813 0.165656 0.762000 133 136 139
-0.334836 0.165656 0.762000 115 118 121
-0.332422 0.165438 0.761000 118 118 120
-0.330448 0.165438 0.761000 150 150 152
0.058496 0.165438 0.761000 121 121 123
0.060471 0.165438 0.761000 109 109 111
0.062363 0.165221 0.760000 108 108 112
0.064335 0.165221 0.760000 114 114 118
0.058496 0.167415 0.761000 116 116 118
0.060471 0.167415 0.761000 110 110 112
0.062445 0.167415 0.761000 108 108 110
0.064419 0.167415 0.761000 129 129 131
0.058573 0.169615 0.762000 111 111 113
0.060550 0.169615 0.762000 111 111 113
0.062445 0.169392 0.761000 109 108 108
0.064419 0.169392 0.761000 141 140 140
0.056671 0.171819 0.763000 166 166 166
0.058573 0.171594 0.762000 107 107 111
0.060550 0.171594 0.762000 109 109 113
0.062527 0.171594 0.762000 105 104 104
0.064504 0.171594 0.762000 154 153 153
0.056671 0.173802 0.763000 157 157 157
0.058650 0.173802 0.763000 103 106 109
0.060630 0.173802 0.763000 110 113 116
0.062609 0.173802 0.763000 103 103 105
0.056745 0.176014 0.764000 146 146 146
0.058727 0.176014 0.764000 100 105 110
0.060709 0.176014 0.764000 107 112 117
0.062609 0.175784 0.763000 109 112 113
0.056819 0.178232 0.765000 126 126 128
0.058804 0.178232 0.765000 104 109 114
0.060709 0.177999 0.764000 100 105 110
0.062691 0.177999 0.764000 119 122 123
0.056893 0.180455 0.766000 133 133 135
0.058881 0.180455 0.766000 102 105 108
0.060789 0.180219 0.765000 102 105 108
0.062773 0.180219 0.765000 129 132 133
0.058958 0.182683 0.767000 124 130 132
0.060948 0.182683 0.767000 129 135 137
