ply
format ascii 1.0
element vertex 325
property float x
property float y
property float z
end_header
-0.281579 0.117697 0.747000
-0.279642 0.117697 0.747000
-0.277705 0.117697 0.747000
-0.275768 0.117697 0.747000
-0.273831 0.117697 0.747000
-0.271894 0.117697 0.747000
-0.269957 0.117697 0.747000
-0.268020 0.117697 0.747000
-0.266083 0.117697 0.747000
-0.264146 0.117697 0.747000
-0.262209 0.117697 0.747000
-0.260272 0.117697 0.747000
-0.258336 0.117697 0.747000
-0.256399 0.117697 0.747000
-0.254462 0.117697 0.747000
-0.252525 0.117697 0.747000
-0.250588 0.117697 0.747000
-0.248651 0.117697 0.747000
-0.246714 0.117697 0.747000
-0.244777 0.117697 0.747000
-0.242840 0.117697 0.747000
-0.240903 0.117697 0.747000
-0.281956 0.119797 0.748000
-0.280016 0.119797 0.748000
-0.278077 0.119797 0.748000
-0.275768 0.119637 0.747000
-0.273831 0.119637 0.747000
-0.271894 0.119637 0.747000
-0.269957 0.119637 0.747000
-0.268020 0.119637 0.747000
-0.266083 0.119637 0.747000
-0.264146 0.119637 0.747000
-0.262209 0.119637 0.747000
-0.260272 0.119637 0.747000
-0.258336 0.119637 0.747000
-0.256742 0.119797 0.748000
-0.254802 0.119797 0.748000
-0.252863 0.119797 0.748000
-0.250923 0.119797 0.748000
-0.248984 0.119797 0.748000
-0.247044 0.119797 0.748000
-0.245104 0.119797 0.748000
-0.243165 0.119797 0.748000
-0.241225 0.119797 0.748000
-0.281956 0.121739 0.748000
-0.280016 0.121739 0.748000
-0.278077 0.121739 0.748000
-0.276137 0.121739 0.748000
-0.274198 0.121739 0.748000
-0.272258 0.121739 0.748000
-0.270319 0.121739 0.748000
-0.268379 0.121739 0.748000
-0.266440 0.121739 0.748000
-0.264500 0.121739 0.748000
-0.262560 0.121739 0.748000
-0.260621 0.121739 0.748000
-0.258681 0.121739 0.748000
-0.256742 0.121739 0.748000
-0.254802 0.121739 0.748000
-0.252863 0.121739 0.748000
-0.250923 0.121739 0.748000
-0.248984 0.121739 0.748000
-0.247044 0.121739 0.748000
-0.245104 0.121739 0.748000
-0.243165 0.121739 0.748000
-0.241225 0.121739 0.748000
-0.282333 0.123847 0.749000
-0.280391 0.123847 0.749000
-0.278449 0.123847 0.749000
-0.276137 0.123681 0.748000
-0.274198 0.123681 0.748000
-0.272258 0.123681 0.748000
-0.270319 0.123681 0.748000
-0.268379 0.123681 0.748000
-0.266440 0.123681 0.748000
-0.264500 0.123681 0.748000
-0.262560 0.123681 0.748000
-0.260621 0.123681 0.748000
-0.258681 0.123681 0.748000
-0.256742 0.123681 0.748000
-0.254802 0.123681 0.748000
-0.252863 0.123681 0.748000
-0.250923 0.123681 0.748000
-0.248984 0.123681 0.748000
-0.247044 0.123681 0.748000
-0.245104 0.123681 0.748000
-0.243165 0.123681 0.748000
-0.241225 0.123681 0.748000
-0.280391 0.125791 0.749000
-0.278449 0.125791 0.749000
-0.276507 0.125791 0.749000
-0.274564 0.125791 0.749000
-0.272622 0.125791 0.749000
-0.270680 0.125791 0.749000
-0.268738 0.125791 0.749000
-0.266796 0.125791 0.749000
-0.264500 0.125623 0.748000
-0.262560 0.125623 0.748000
-0.260621 0.125623 0.748000
-0.258681 0.125623 0.748000
-0.256742 0.125623 0.748000
-0.254802 0.125623 0.748000
-0.252863 0.125623 0.748000
-0.250923 0.125623 0.748000
-0.248984 0.125623 0.748000
-0.247044 0.125623 0.748000
-0.245104 0.125623 0.748000
-0.243490 0.125791 0.749000
-0.280765 0.127907 0.750000
-0.278820 0.127907 0.750000
-0.276876 0.127907 0.750000
-0.274931 0.127907 0.750000
-0.272622 0.127736 0.749000
-0.270680 0.127736 0.749000
-0.268738 0.127736 0.749000
-0.266796 0.127736 0.749000
-0.264854 0.127736 0.749000
-0.262911 0.127736 0.749000
-0.260969 0.127736 0.749000
-0.259027 0.127736 0.749000
-0.257085 0.127736 0.749000
-0.255143 0.127736 0.749000
-0.253201 0.127736 0.749000
-0.251259 0.127736 0.749000
-0.249316 0.127736 0.749000
-0.247374 0.127736 0.749000
-0.245432 0.127736 0.749000
-0.243490 0.127736 0.749000
-0.281140 0.130027 0.751000
-0.279192 0.130027 0.751000
-0.276876 0.129854 0.750000
-0.274931 0.129854 0.750000
-0.272986 0.129854 0.750000
-0.271041 0.129854 0.750000
-0.269097 0.129854 0.750000
-0.267152 0.129854 0.750000
-0.265207 0.129854 0.750000
-0.263263 0.129854 0.750000
-0.261318 0.129854 0.750000
-0.259373 0.129854 0.750000
-0.257428 0.129854 0.750000
-0.255484 0.129854 0.750000
-0.253539 0.129854 0.750000
-0.251259 0.129681 0.749000
-0.249649 0.129854 0.750000
-0.247705 0.129854 0.750000
-0.245760 0.129854 0.750000
-0.243815 0.129854 0.750000
-0.279564 0.132153 0.752000
-0.277614 0.132153 0.752000
-0.275664 0.132153 0.752000
-0.273350 0.131977 0.751000
-0.271403 0.131977 0.751000
-0.269456 0.131977 0.751000
-0.267508 0.131977 0.751000
-0.265561 0.131977 0.751000
-0.263614 0.131977 0.751000
-0.261666 0.131977 0.751000
-0.259719 0.131977 0.751000
-0.257772 0.131977 0.751000
-0.255824 0.131977 0.751000
-0.253539 0.131801 0.750000
-0.251594 0.131801 0.750000
-0.249649 0.131801 0.750000
-0.247705 0.131801 0.750000
-0.245760 0.131801 0.750000
-0.243815 0.131801 0.750000
-0.279936 0.134284 0.753000
-0.277983 0.134284 0.753000
-0.275664 0.134105 0.752000
-0.273714 0.134105 0.752000
-0.271764 0.134105 0.752000
-0.269814 0.134105 0.752000
-0.267864 0.134105 0.752000
-0.265914 0.134105 0.752000
-0.263965 0.134105 0.752000
-0.262015 0.134105 0.752000
-0.260065 0.134105 0.752000
-0.258115 0.134105 0.752000
-0.256165 0.134105 0.752000
-0.254215 0.134105 0.752000
-0.252265 0.134105 0.752000
-0.250315 0.134105 0.752000
-0.248365 0.134105 0.752000
-0.246415 0.134105 0.752000
-0.278352 0.136420 0.754000
-0.276397 0.136420 0.754000
-0.274442 0.136420 0.754000
-0.272487 0.136420 0.754000
-0.270532 0.136420 0.754000
-0.268577 0.136420 0.754000
-0.266622 0.136420 0.754000
-0.264667 0.136420 0.754000
-0.262711 0.136420 0.754000
-0.260756 0.136420 0.754000
-0.258801 0.136420 0.754000
-0.256846 0.136420 0.754000
-0.254891 0.136420 0.754000
-0.252600 0.136239 0.753000
-0.250648 0.136239 0.753000
-0.248695 0.136239 0.753000
-0.278722 0.138561 0.755000
-0.276764 0.138561 0.755000
-0.274806 0.138561 0.755000
-0.272848 0.138561 0.755000
-0.270891 0.138561 0.755000
-0.268933 0.138561 0.755000
-0.266975 0.138561 0.755000
-0.265018 0.138561 0.755000
-0.263060 0.138561 0.755000
-0.261102 0.138561 0.755000
-0.259144 0.138561 0.755000
-0.257187 0.138561 0.755000
-0.255229 0.138561 0.755000
-0.253271 0.138561 0.755000
-0.251314 0.138561 0.755000
-0.277130 0.140707 0.756000
-0.275170 0.140707 0.756000
-0.273210 0.140707 0.756000
-0.271249 0.140707 0.756000
-0.269289 0.140707 0.756000
-0.267329 0.140707 0.756000
-0.265369 0.140707 0.756000
-0.263757 0.140893 0.757000
-0.261448 0.140707 0.756000
-0.259831 0.140893 0.757000
-0.257868 0.140893 0.757000
-0.255567 0.140707 0.756000
-0.253607 0.140707 0.756000
-0.251647 0.140707 0.756000
-0.275898 0.143048 0.758000
-0.273933 0.143048 0.758000
-0.271967 0.143048 0.758000
-0.270002 0.143048 0.758000
-0.268036 0.143048 0.758000
-0.266071 0.143048 0.758000
-0.264105 0.143048 0.758000
-0.262140 0.143048 0.758000
-0.260174 0.143048 0.758000
-0.258209 0.143048 0.758000
-0.256243 0.143048 0.758000
-0.254278 0.143048 0.758000
-0.275898 0.145016 0.758000
-0.274294 0.145207 0.759000
-0.272326 0.145207 0.759000
-0.270358 0.145207 0.759000
-0.268390 0.145207 0.759000
-0.266422 0.145207 0.759000
-0.264454 0.145207 0.759000
-0.262486 0.145207 0.759000
-0.260517 0.145207 0.759000
-0.258549 0.145207 0.759000
-0.256581 0.145207 0.759000
-0.274294 0.147178 0.759000
-0.272326 0.147178 0.759000
-0.270358 0.147178 0.759000
-0.268390 0.147178 0.759000
-0.266773 0.147371 0.760000
-0.264802 0.147371 0.760000
-0.262831 0.147371 0.760000
-0.260861 0.147371 0.760000
-0.258890 0.147371 0.760000
-0.256919 0.147371 0.760000
-0.272685 0.149345 0.760000
-0.270714 0.149345 0.760000
-0.268743 0.149345 0.760000
-0.266773 0.149345 0.760000
-0.264802 0.149345 0.760000
-0.262831 0.149345 0.760000
-0.260861 0.149345 0.760000
-0.258890 0.149345 0.760000
-0.256919 0.149345 0.760000
-0.271070 0.151517 0.761000
-0.269097 0.151517 0.761000
-0.267124 0.151517 0.761000
-0.265150 0.151517 0.761000
-0.263177 0.151517 0.761000
-0.261204 0.151517 0.761000
-0.259231 0.151517 0.761000
-0.257257 0.151517 0.761000
-0.269097 0.153493 0.761000
-0.267124 0.153493 0.761000
-0.265150 0.153493 0.761000
-0.263177 0.153493 0.761000
-0.261204 0.153493 0.761000
-0.259231 0.153493 0.761000
-0.257257 0.153493 0.761000
-0.267124 0.155469 0.761000
-0.265150 0.155469 0.761000
-0.263177 0.155469 0.761000
-0.261204 0.155469 0.761000
-0.259231 0.155469 0.761000
-0.257257 0.155469 0.761000
-0.255284 0.155469 0.761000
-0.265150 0.157445 0.761000
-0.263177 0.157445 0.761000
-0.261204 0.157445 0.761000
-0.259231 0.157445 0.761000
-0.257257 0.157445 0.761000
-0.255284 0.157445 0.761000
-0.263177 0.159421 0.761000
-0.261204 0.159421 0.761000
-0.259231 0.159421 0.761000
-0.257257 0.159421 0.761000
-0.255284 0.159421 0.761000
-0.261204 0.161396 0.761000
-0.259231 0.161396 0.761000
-0.257257 0.161396 0.761000
-0.255284 0.161396 0.761000
-0.259231 0.163372 0.761000
-0.257257 0.163372 0.761000
-0.255284 0.163372 0.761000
-0.253311 0.163372 0.761000
-0.257595 0.165566 0.762000
-0.255620 0.165566 0.762000
-0.253644 0.165566 0.762000
-0.257595 0.167544 0.762000
-0.255620 0.167544 0.762000
-0.253644 0.167544 0.762000
-0.255620 0.169522 0.762000
-0.253644 0.169522 0.762000
-0.251668 0.169522 0.762000
-0.253644 0.171501 0.762000
-0.251668 0.171501 0.762000
-0.251998 0.173707 0.763000
