ply
format ascii 1.0
element vertex 325
property float x
property float y
property float z
end_header
0.415103 0.209825 0.778700
0.413176 0.209834 0.778496
0.411250 0.209844 0.778292
0.409324 0.209854 0.778088
0.407398 0.209864 0.777883
0.405472 0.209874 0.777679
0.403546 0.209884 0.777475
0.401620 0.209893 0.777271
0.399693 0.209903 0.777067
0.397767 0.209913 0.776862
0.395841 0.209923 0.776658
0.393915 0.209933 0.776454
0.391989 0.209942 0.776250
0.390063 0.209952 0.776046
0.388137 0.209962 0.775842
0.386210 0.209972 0.775637
0.384284 0.209982 0.775433
0.382358 0.209992 0.775229
0.380432 0.210001 0.775025
0.378506 0.210011 0.774821
0.376580 0.210021 0.774616
0.374654 0.210031 0.774412
0.415236 0.210119 0.781034
0.413307 0.210129 0.780829
0.411378 0.210139 0.780625
0.409127 0.209250 0.779920
0.407201 0.209260 0.779716
0.405275 0.209270 0.779512
0.403348 0.209280 0.779308
0.401422 0.209289 0.779103
0.399496 0.209299 0.778899
0.397570 0.209309 0.778695
0.395644 0.209319 0.778491
0.393718 0.209329 0.778287
0.391792 0.209339 0.778082
0.390162 0.210247 0.778376
0.388234 0.210257 0.778171
0.386305 0.210267 0.777967
0.384376 0.210277 0.777763
0.382448 0.210286 0.777558
0.380519 0.210296 0.777354
0.378590 0.210306 0.777149
0.376661 0.210316 0.776945
0.374733 0.210326 0.776740
0.415038 0.209514 0.782869
0.413109 0.209524 0.782664
0.411181 0.209534 0.782460
0.409252 0.209544 0.782255
0.407323 0.209554 0.782051
0.405395 0.209564 0.781847
0.403466 0.209573 0.781642
0.401537 0.209583 0.781438
0.399608 0.209593 0.781233
0.397680 0.209603 0.781029
0.395751 0.209613 0.780824
0.393822 0.209623 0.780620
0.391894 0.209632 0.780415
0.389965 0.209642 0.780211
0.388036 0.209652 0.780006
0.386107 0.209662 0.779802
0.384179 0.209672 0.779597
0.382250 0.209682 0.779393
0.380321 0.209691 0.779189
0.378392 0.209701 0.778984
0.376464 0.209711 0.778780
0.374535 0.209721 0.778575
0.415171 0.209807 0.785210
0.413239 0.209816 0.785005
0.411308 0.209826 0.784800
0.409054 0.208939 0.784090
0.407126 0.208949 0.783886
0.405197 0.208959 0.783682
0.403268 0.208969 0.783477
0.401340 0.208978 0.783273
0.399411 0.208988 0.783068
0.397482 0.208998 0.782864
0.395553 0.209008 0.782659
0.393625 0.209018 0.782455
0.391696 0.209028 0.782250
0.389767 0.209037 0.782046
0.387838 0.209047 0.781841
0.385910 0.209057 0.781637
0.383981 0.209067 0.781432
0.382052 0.209077 0.781228
0.380124 0.209087 0.781023
0.378195 0.209096 0.780819
0.376266 0.209106 0.780615
0.374337 0.209116 0.780410
0.413041 0.209211 0.786843
0.411110 0.209221 0.786638
0.409179 0.209230 0.786433
0.407247 0.209240 0.786228
0.405316 0.209250 0.786024
0.403385 0.209260 0.785819
0.401454 0.209270 0.785614
0.399522 0.209280 0.785409
0.397284 0.208393 0.784699
0.395356 0.208403 0.784494
0.393427 0.208413 0.784290
0.391498 0.208423 0.784085
0.389570 0.208433 0.783881
0.387641 0.208443 0.783676
0.385712 0.208452 0.783472
0.383783 0.208462 0.783267
0.381855 0.208472 0.783063
0.379926 0.208482 0.782858
0.377997 0.208492 0.782654
0.376347 0.209398 0.782953
0.413170 0.209500 0.789191
0.411236 0.209510 0.788986
0.409303 0.209520 0.788781
0.407369 0.209530 0.788576
0.405118 0.208645 0.787861
0.403187 0.208654 0.787656
0.401256 0.208664 0.787452
0.399324 0.208674 0.787247
0.397393 0.208684 0.787042
0.395462 0.208694 0.786837
0.393530 0.208704 0.786633
0.391599 0.208713 0.786428
0.389668 0.208723 0.786223
0.387737 0.208733 0.786018
0.385805 0.208743 0.785814
0.383874 0.208753 0.785609
0.381943 0.208763 0.785404
0.380011 0.208773 0.785199
0.378080 0.208782 0.784995
0.376149 0.208792 0.784790
0.413299 0.209789 0.791544
0.411362 0.209798 0.791339
0.409104 0.208914 0.790621
0.407171 0.208924 0.790416
0.405237 0.208934 0.790211
0.403303 0.208943 0.790006
0.401369 0.208953 0.789801
0.399435 0.208963 0.789596
0.397501 0.208973 0.789391
0.395567 0.208983 0.789186
0.393633 0.208993 0.788981
0.391700 0.209003 0.788776
0.389766 0.209012 0.788570
0.387832 0.209022 0.788365
0.385898 0.209032 0.788160
0.383676 0.208147 0.787446
0.382030 0.209052 0.787750
0.380096 0.209062 0.787545
0.378162 0.209072 0.787340
0.376229 0.209081 0.787135
0.411488 0.210085 0.793696
0.409549 0.210095 0.793491
0.407610 0.210105 0.793285
0.405355 0.209221 0.792565
0.403418 0.209231 0.792360
0.401482 0.209241 0.792154
0.399545 0.209250 0.791949
0.397609 0.209260 0.791744
0.395672 0.209270 0.791539
0.393736 0.209280 0.791333
0.391799 0.209290 0.791128
0.389863 0.209300 0.790923
0.387926 0.209310 0.790717
0.385700 0.208426 0.790000
0.383766 0.208436 0.789795
0.381832 0.208445 0.789590
0.379898 0.208455 0.789385
0.377964 0.208465 0.789180
0.376030 0.208475 0.788975
0.411613 0.210370 0.796059
0.409671 0.210380 0.795853
0.407411 0.209497 0.795130
0.405472 0.209506 0.794924
0.403533 0.209516 0.794719
0.401594 0.209526 0.794513
0.399655 0.209536 0.794308
0.397716 0.209546 0.794102
0.395777 0.209556 0.793897
0.393838 0.209566 0.793691
0.391899 0.209576 0.793485
0.389960 0.209586 0.793280
0.388021 0.209595 0.793074
0.386082 0.209605 0.792869
0.384143 0.209615 0.792663
0.382204 0.209625 0.792458
0.380265 0.209635 0.792252
0.378325 0.209645 0.792047
0.409793 0.210663 0.798220
0.407849 0.210673 0.798014
0.405904 0.210683 0.797808
0.403960 0.210693 0.797602
0.402016 0.210702 0.797396
0.400072 0.210712 0.797190
0.398128 0.210722 0.796984
0.396183 0.210732 0.796778
0.394239 0.210742 0.796571
0.392295 0.210752 0.796365
0.390351 0.210762 0.796159
0.388407 0.210772 0.795953
0.386462 0.210782 0.795747
0.384231 0.209899 0.795024
0.382289 0.209909 0.794819
0.380348 0.209919 0.794613
0.409914 0.210944 0.800592
0.407967 0.210954 0.800386
0.406020 0.210964 0.800180
0.404074 0.210974 0.799973
0.402127 0.210984 0.799767
0.400180 0.210994 0.799561
0.398233 0.211004 0.799354
0.396287 0.211014 0.799148
0.394340 0.211024 0.798941
0.392393 0.211034 0.798735
0.390446 0.211044 0.798529
0.388499 0.211054 0.798322
0.386553 0.211064 0.798116
0.384606 0.211073 0.797910
0.382659 0.211083 0.797703
0.408085 0.211234 0.802763
0.406136 0.211244 0.802556
0.404187 0.211254 0.802350
0.402237 0.211264 0.802143
0.400288 0.211274 0.801936
0.398338 0.211284 0.801730
0.396389 0.211294 0.801523
0.394739 0.212195 0.801839
0.392490 0.211314 0.801110
0.390835 0.212214 0.801425
0.388884 0.212224 0.801218
0.386642 0.211344 0.800490
0.384693 0.211354 0.800283
0.382744 0.211364 0.800076
0.406566 0.212412 0.805464
0.404611 0.212422 0.805257
0.402657 0.212432 0.805050
0.400702 0.212442 0.804843
0.398748 0.212452 0.804636
0.396793 0.212462 0.804428
0.394839 0.212472 0.804221
0.392884 0.212482 0.804014
0.390930 0.212492 0.803807
0.388975 0.212502 0.803600
0.387021 0.212512 0.803392
0.385066 0.212522 0.803185
0.406365 0.211800 0.807324
0.404723 0.212698 0.807646
0.402766 0.212708 0.807438
0.400809 0.212718 0.807231
0.398851 0.212728 0.807023
0.396894 0.212738 0.806816
0.394937 0.212748 0.806608
0.392980 0.212758 0.806401
0.391023 0.212768 0.806193
0.389066 0.212778 0.805986
0.387109 0.212788 0.805779
0.404522 0.212085 0.809508
0.402565 0.212095 0.809300
0.400608 0.212105 0.809093
0.398651 0.212115 0.808885
0.396995 0.213013 0.809208
0.395035 0.213023 0.809000
0.393076 0.213033 0.808793
0.391116 0.213043 0.808585
0.389156 0.213053 0.808377
0.387197 0.213063 0.808169
0.402673 0.212368 0.811696
0.400714 0.212378 0.811488
0.398754 0.212388 0.811280
0.396794 0.212398 0.811073
0.394835 0.212408 0.810865
0.392875 0.212418 0.810657
0.390915 0.212428 0.810449
0.388956 0.212438 0.810242
0.386996 0.212448 0.810034
0.400819 0.212650 0.813888
0.398857 0.212660 0.813680
0.396894 0.212670 0.813472
0.394932 0.212680 0.813264
0.392970 0.212690 0.813056
0.391008 0.212700 0.812848
0.389045 0.212710 0.812640
0.387083 0.212720 0.812432
0.398656 0.212045 0.815547
0.396693 0.212055 0.815339
0.394731 0.212065 0.815131
0.392769 0.212075 0.814923
0.390807 0.212085 0.814715
0.388844 0.212095 0.814507
0.386882 0.212105 0.814299
0.396492 0.211440 0.817206
0.394530 0.211450 0.816998
0.392568 0.211460 0.816790
0.390606 0.211470 0.816582
0.388643 0.211480 0.816374
0.386681 0.211490 0.816166
0.384719 0.211500 0.815958
0.394329 0.210834 0.818865
0.392367 0.210844 0.818657
0.390404 0.210854 0.818449
0.388442 0.210864 0.818241
0.386480 0.210874 0.818033
0.384518 0.210884 0.817825
0.392166 0.210229 0.820524
0.390203 0.210239 0.820316
0.388241 0.210249 0.820108
0.386279 0.210259 0.819899
0.384317 0.210269 0.819691
0.390002 0.209624 0.822182
0.388040 0.209634 0.821974
0.386078 0.209644 0.821766
0.384116 0.209654 0.821558
0.387839 0.209019 0.823841
0.385877 0.209029 0.823633
0.383915 0.209039 0.823425
0.381952 0.209049 0.823217
0.385962 0.209294 0.826051
0.383997 0.209304 0.825843
0.382032 0.209314 0.825635
0.385761 0.208678 0.827920
0.383796 0.208688 0.827712
0.381831 0.208698 0.827504
0.383594 0.208072 0.829581
0.381630 0.208082 0.829373
0.379665 0.208092 0.829165
0.381428 0.207466 0.831242
0.379464 0.207476 0.831034
0.379539 0.207738 0.833463
