ply
format ascii 1.0
element vertex 1600
property float x
property float y
property float z
property uchar red
property uchar green
property uchar blue
end_header
-0.088759 -0.097600 0.679000 62 71 12
-0.086996 -0.097600 0.679000 69 78 19
-0.085360 -0.097744 0.680000 80 115 61
-0.083595 -0.097744 0.680000 51 86 32
-0.081831 -0.097744 0.680000 31 62 20
-0.090521 -0.095836 0.679000 141 130 55
-0.088759 -0.095836 0.679000 71 88 29
-0.087125 -0.095977 0.680000 144 161 102
-0.085360 -0.095977 0.680000 149 196 122
-0.083595 -0.095977 0.680000 135 182 108
-0.081831 -0.095977 0.680000 94 140 71
-0.080184 -0.096118 0.681000 38 84 15
-0.078416 -0.096118 0.681000 30 61 19
-0.090654 -0.094210 0.680000 100 93 31
-0.088889 -0.094210 0.680000 106 133 71
-0.087125 -0.094210 0.680000 180 207 145
-0.085485 -0.094348 0.681000 171 222 138
-0.083718 -0.094348 0.681000 167 218 134
-0.081951 -0.094348 0.681000 137 191 104
-0.080184 -0.094348 0.681000 119 173 86
-0.078416 -0.094348 0.681000 81 127 58
-0.076649 -0.094348 0.681000 40 86 17
-0.074882 -0.094348 0.681000 27 59 20
-0.089151 -0.092715 0.682000 67 92 44
-0.087381 -0.092715 0.682000 146 171 123
-0.085611 -0.092715 0.682000 172 221 137
-0.083841 -0.092715 0.682000 180 229 145
-0.082071 -0.092715 0.682000 174 230 131
-0.080301 -0.092715 0.682000 161 217 118
-0.078416 -0.092579 0.681000 142 199 106
-0.076649 -0.092579 0.681000 117 174 81
-0.074882 -0.092579 0.681000 77 128 58
-0.071452 -0.092715 0.682000 28 63 25
-0.087765 -0.091343 0.685000 57 75 42
-0.085862 -0.091209 0.684000 81 121 63
-0.084087 -0.091209 0.684000 146 186 128
-0.082312 -0.091209 0.684000 168 223 129
-0.080419 -0.091076 0.683000 171 226 132
-0.078647 -0.091076 0.683000 167 226 121
-0.076762 -0.090942 0.682000 168 227 122
-0.074992 -0.090942 0.682000 146 203 108
-0.073222 -0.090942 0.682000 122 179 84
-0.071452 -0.090942 0.682000 84 135 69
-0.069784 -0.091076 0.683000 46 97 31
-0.068012 -0.091076 0.683000 24 63 26
-0.084333 -0.089693 0.686000 49 74 39
-0.082553 -0.089693 0.686000 86 132 67
-0.080655 -0.089563 0.685000 141 187 122
-0.078877 -0.089563 0.685000 171 226 132
-0.076987 -0.089432 0.684000 181 236 142
-0.075102 -0.089301 0.683000 176 238 134
-0.073329 -0.089301 0.683000 156 218 114
-0.071557 -0.089301 0.683000 131 191 97
-0.069784 -0.089301 0.683000 115 175 81
-0.068012 -0.089301 0.683000 86 139 70
-0.066336 -0.089432 0.684000 38 91 22
-0.064561 -0.089432 0.684000 24 64 24
-0.082673 -0.088039 0.687000 39 67 31
-0.080890 -0.088039 0.687000 46 74 38
-0.078992 -0.087911 0.686000 90 137 65
-0.077212 -0.087911 0.686000 137 184 112
-0.075322 -0.087783 0.685000 172 232 136
-0.073544 -0.087783 0.685000 179 239 143
-0.071766 -0.087783 0.685000 171 234 134
-0.069989 -0.087783 0.685000 146 209 109
-0.068211 -0.087783 0.685000 134 196 101
-0.066433 -0.087783 0.685000 112 174 79
-0.064656 -0.087783 0.685000 82 134 59
-0.062878 -0.087783 0.685000 41 93 18
-0.061190 -0.087911 0.686000 33 68 28
-0.079222 -0.086379 0.688000 43 71 35
-0.077437 -0.086379 0.688000 50 78 42
-0.075542 -0.086254 0.687000 80 126 57
-0.073759 -0.086254 0.687000 142 188 119
-0.071871 -0.086128 0.686000 164 224 130
-0.070091 -0.086128 0.686000 179 239 145
-0.068311 -0.086128 0.686000 175 238 138
-0.066530 -0.086128 0.686000 163 226 126
-0.064750 -0.086128 0.686000 143 205 110
-0.062970 -0.086128 0.686000 123 185 90
-0.061190 -0.086128 0.686000 101 153 78
-0.059496 -0.086254 0.687000 53 105 30
-0.057713 -0.086254 0.687000 35 71 26
-0.075762 -0.084714 0.689000 39 68 34
-0.073973 -0.084714 0.689000 48 77 43
-0.072081 -0.084591 0.688000 73 117 49
-0.070295 -0.084591 0.688000 128 172 104
-0.068510 -0.084591 0.688000 167 224 129
-0.066724 -0.084591 0.688000 178 235 140
-0.064939 -0.084591 0.688000 170 231 130
-0.063154 -0.084591 0.688000 162 223 122
-0.061279 -0.084468 0.687000 149 210 111
-0.059496 -0.084468 0.687000 128 189 90
-0.057797 -0.084591 0.688000 104 159 80
-0.056012 -0.084591 0.688000 64 119 40
-0.054226 -0.084591 0.688000 36 78 26
-0.072290 -0.083044 0.690000 46 73 42
-0.070500 -0.083044 0.690000 51 78 47
-0.068709 -0.083044 0.690000 70 111 48
-0.066821 -0.082924 0.689000 130 171 108
-0.065033 -0.082924 0.689000 160 216 119
-0.063245 -0.082924 0.689000 175 231 134
-0.061457 -0.082924 0.689000 170 232 126
-0.059583 -0.082804 0.688000 156 218 112
-0.057797 -0.082804 0.688000 143 206 104
-0.056093 -0.082924 0.689000 129 192 90
-0.054305 -0.082924 0.689000 109 164 81
-0.052517 -0.082924 0.689000 69 124 41
-0.050729 -0.082924 0.689000 41 83 31
-0.068809 -0.081369 0.691000 52 76 46
-0.066918 -0.081251 0.690000 47 71 41
-0.065128 -0.081251 0.690000 59 99 39
-0.063337 -0.081251 0.690000 116 156 96
-0.061546 -0.081251 0.690000 153 210 117
-0.059756 -0.081251 0.690000 172 229 136
-0.057881 -0.081134 0.689000 170 234 129
-0.056093 -0.081134 0.689000 155 219 114
-0.054305 -0.081134 0.689000 144 206 100
-0.052517 -0.081134 0.689000 130 192 86
-0.050729 -0.081134 0.689000 109 163 76
-0.049012 -0.081251 0.690000 76 130 43
-0.047222 -0.081251 0.690000 42 84 32
-0.063429 -0.079573 0.691000 51 70 42
-0.061636 -0.079573 0.691000 59 99 43
-0.059756 -0.079458 0.690000 101 141 85
-0.057965 -0.079458 0.690000 140 193 111
-0.056175 -0.079458 0.690000 168 221 139
-0.054384 -0.079458 0.690000 172 233 132
-0.052593 -0.079458 0.690000 163 224 123
-0.050803 -0.079458 0.690000 151 210 105
-0.049012 -0.079458 0.690000 143 202 97
-0.047222 -0.079458 0.690000 119 172 90
-0.045431 -0.079458 0.690000 98 151 69
-0.043640 -0.079458 0.690000 74 103 69
-0.041910 -0.079573 0.691000 60 89 55
-0.132978 -0.077553 0.689000 116 137 97
-0.131000 -0.077440 0.688000 81 102 62
-0.129402 -0.077553 0.689000 69 83 61
-0.059842 -0.077778 0.691000 54 73 45
-0.058049 -0.077778 0.691000 57 91 40
-0.056256 -0.077778 0.691000 96 130 79
-0.054463 -0.077778 0.691000 135 191 105
-0.052593 -0.077665 0.690000 166 222 136
-0.050803 -0.077665 0.690000 172 230 130
-0.049012 -0.077665 0.690000 170 228 128
-0.047222 -0.077665 0.690000 161 216 126
-0.045497 -0.077778 0.691000 141 196 106
-0.043704 -0.077778 0.691000 159 190 144
-0.041910 -0.077778 0.691000 163 194 148
-0.040117 -0.077778 0.691000 152 172 155
-0.038324 -0.077778 0.691000 88 108 91
-0.134962 -0.075872 0.690000 144 173 132
-0.133171 -0.075872 0.690000 149 188 124
-0.131381 -0.075872 0.690000 139 178 114
-0.129590 -0.075872 0.690000 99 127 89
-0.056337 -0.076092 0.692000 59 74 49
-0.054463 -0.075982 0.691000 56 87 34
-0.052670 -0.075982 0.691000 82 113 60
-0.050876 -0.075982 0.691000 136 187 101
-0.049083 -0.075982 0.691000 166 217 131
-0.047290 -0.075982 0.691000 176 226 149
-0.045497 -0.075982 0.691000 177 227 150
-0.043704 -0.075982 0.691000 199 232 186
-0.041910 -0.075982 0.691000 206 239 193
-0.040117 -0.075982 0.691000 202 222 203
-0.038324 -0.075982 0.691000 163 183 164
-0.036531 -0.075982 0.691000 141 159 153
-0.034737 -0.075982 0.691000 112 130 124
-0.136951 -0.074187 0.691000 125 171 102
-0.135158 -0.074187 0.691000 162 208 139
-0.133364 -0.074187 0.691000 167 222 130
-0.131571 -0.074187 0.691000 165 220 128
-0.129778 -0.074187 0.691000 138 169 125
-0.050950 -0.074294 0.692000 51 80 35
-0.049154 -0.074294 0.692000 82 111 66
-0.047358 -0.074294 0.692000 124 162 107
-0.045563 -0.074294 0.692000 176 214 159
-0.043767 -0.074294 0.692000 208 239 195
-0.041971 -0.074294 0.692000 205 236 192
-0.040117 -0.074187 0.691000 183 207 175
-0.038379 -0.074294 0.692000 175 199 167
-0.036584 -0.074294 0.692000 189 211 195
-0.034788 -0.074294 0.692000 195 217 201
-0.032944 -0.074187 0.691000 155 173 167
-0.031151 -0.074187 0.691000 96 114 108
-0.029358 -0.074187 0.691000 63 78 75
-0.138744 -0.072391 0.691000 115 156 111
-0.136951 -0.072391 0.691000 152 212 116
-0.135158 -0.072391 0.691000 154 214 118
-0.133557 -0.072496 0.692000 176 231 139
-0.131762 -0.072496 0.692000 145 200 108
-0.130154 -0.072601 0.693000 56 87 53
-0.047427 -0.072601 0.693000 50 76 50
-0.045628 -0.072601 0.693000 75 101 75
-0.043830 -0.072601 0.693000 152 176 144
-0.042032 -0.072601 0.693000 197 221 189
-0.040233 -0.072601 0.693000 214 237 203
-0.038435 -0.072601 0.693000 206 229 195
-0.036636 -0.072601 0.693000 206 233 202
-0.034788 -0.072496 0.692000 227 254 223
-0.032992 -0.072496 0.692000 211 236 217
-0.031196 -0.072496 0.692000 192 217 198
-0.029400 -0.072496 0.692000 159 178 168
-0.027604 -0.072496 0.692000 113 132 122
-0.025809 -0.072496 0.692000 76 91 88
-0.140741 -0.070698 0.692000 84 135 65
-0.138945 -0.070698 0.692000 153 204 134
-0.137149 -0.070698 0.692000 148 213 99
-0.135353 -0.070698 0.692000 168 233 119
-0.133750 -0.070800 0.693000 164 219 138
-0.132142 -0.070902 0.694000 72 127 46
-0.042153 -0.071004 0.695000 90 107 91
-0.040291 -0.070902 0.694000 147 168 146
-0.038490 -0.070902 0.694000 199 220 198
-0.036689 -0.070902 0.694000 230 254 226
-0.034888 -0.070902 0.694000 226 250 222
-0.033040 -0.070800 0.693000 203 230 201
-0.031241 -0.070800 0.693000 217 244 215
-0.029400 -0.070698 0.692000 217 237 218
-0.027604 -0.070698 0.692000 204 224 205
-0.025809 -0.070698 0.692000 180 197 183
-0.024013 -0.070698 0.692000 136 153 139
-0.142742 -0.068999 0.693000 70 102 63
-0.140944 -0.068999 0.693000 141 201 105
-0.139146 -0.068999 0.693000 150 210 114
-0.137347 -0.068999 0.693000 158 225 115
-0.135744 -0.069099 0.694000 165 232 122
-0.132333 -0.069198 0.695000 37 88 22
-0.038657 -0.069397 0.697000 87 100 85
-0.036848 -0.069397 0.697000 126 148 128
-0.034989 -0.069298 0.696000 179 201 181
-0.033135 -0.069198 0.695000 221 242 220
-0.031286 -0.069099 0.694000 227 248 226
-0.029485 -0.069099 0.694000 210 226 203
-0.027644 -0.068999 0.693000 203 219 196
-0.025846 -0.068999 0.693000 213 231 208
-0.024048 -0.068999 0.693000 214 232 209
-0.022217 -0.068900 0.692000 188 209 185
-0.020421 -0.068900 0.692000 143 164 140
-0.018625 -0.068900 0.692000 73 95 75
-0.142948 -0.067295 0.694000 133 179 112
-0.141147 -0.067295 0.694000 151 215 106
-0.139346 -0.067295 0.694000 151 215 106
-0.137744 -0.067392 0.695000 163 229 128
-0.136136 -0.067489 0.696000 124 190 89
-0.134329 -0.067489 0.696000 39 80 31
-0.035140 -0.067780 0.699000 79 92 77
-0.033278 -0.067683 0.698000 129 142 125
-0.031421 -0.067586 0.697000 192 205 188
-0.029570 -0.067489 0.696000 224 240 219
-0.027724 -0.067392 0.695000 230 246 225
-0.025883 -0.067295 0.694000 232 254 225
-0.024048 -0.067198 0.693000 232 254 225
-0.022249 -0.067198 0.693000 222 249 216
-0.020451 -0.067198 0.693000 199 226 193
-0.018652 -0.067198 0.693000 127 163 120
-0.016854 -0.067198 0.693000 74 110 67
-0.145167 -0.065681 0.696000 117 174 81
-0.143360 -0.065681 0.696000 153 210 117
-0.141554 -0.065681 0.696000 148 213 101
-0.139748 -0.065681 0.696000 161 226 114
-0.138140 -0.065775 0.697000 143 202 115
-0.136527 -0.065869 0.698000 40 99 12
-0.031512 -0.065964 0.699000 74 87 74
-0.029655 -0.065869 0.698000 109 119 105
-0.027844 -0.065869 0.698000 173 183 169
-0.025995 -0.065775 0.697000 210 232 205
-0.024152 -0.065681 0.696000 231 253 226
-0.022281 -0.065492 0.694000 226 255 211
-0.020480 -0.065492 0.694000 202 233 187
-0.018679 -0.065492 0.694000 144 189 118
-0.016854 -0.065398 0.693000 138 183 112
-0.015056 -0.065398 0.693000 110 162 87
-0.013257 -0.065398 0.693000 74 126 51
-0.147606 -0.064147 0.699000 112 157 99
-0.145792 -0.064147 0.699000 151 214 103
-0.143978 -0.064147 0.699000 151 214 103
-0.142164 -0.064147 0.699000 164 228 119
-0.140350 -0.064147 0.699000 155 219 110
-0.138735 -0.064239 0.700000 67 112 50
-0.027924 -0.064239 0.700000 72 81 72
-0.026070 -0.064147 0.699000 104 120 99
-0.024221 -0.064056 0.698000 159 175 154
-0.022378 -0.063964 0.697000 191 222 176
-0.020539 -0.063872 0.696000 187 218 172
-0.018706 -0.063780 0.695000 155 204 120
-0.016878 -0.063689 0.694000 148 197 113
-0.015077 -0.063689 0.694000 139 197 99
-0.013276 -0.063689 0.694000 131 189 91
-0.011459 -0.063597 0.693000 100 154 78
-0.009674 -0.063689 0.694000 65 119 43
-0.007873 -0.063689 0.694000 43 81 35
-0.149848 -0.062509 0.701000 91 144 64
-0.147817 -0.062420 0.700000 148 201 121
-0.146001 -0.062420 0.700000 147 211 91
-0.144184 -0.062420 0.700000 158 222 102
-0.142571 -0.062509 0.701000 166 223 128
-0.140752 -0.062509 0.701000 79 136 41
-0.024290 -0.062420 0.700000 63 78 62
-0.022442 -0.062331 0.699000 74 98 68
-0.020598 -0.062242 0.698000 110 134 104
-0.018760 -0.062153 0.697000 140 183 106
-0.016927 -0.062063 0.696000 164 207 130
-0.015099 -0.061974 0.695000 152 211 104
-0.013276 -0.061885 0.694000 139 198 91
-0.011475 -0.061885 0.694000 137 196 93
-0.009674 -0.061885 0.694000 125 184 81
-0.007873 -0.061885 0.694000 97 151 77
-0.006072 -0.061885 0.694000 59 113 39
-0.151883 -0.060774 0.702000 75 110 72
-0.150061 -0.060774 0.702000 145 204 99
-0.148240 -0.060774 0.702000 154 213 108
-0.146418 -0.060774 0.702000 162 226 108
-0.144596 -0.060774 0.702000 173 237 119
-0.142978 -0.060861 0.703000 108 160 87
-0.141153 -0.060861 0.703000 36 88 15
-0.020657 -0.060601 0.700000 53 69 48
-0.018814 -0.060515 0.699000 58 90 41
-0.016976 -0.060428 0.698000 94 126 77
-0.015142 -0.060341 0.697000 143 193 104
-0.013314 -0.060255 0.696000 159 209 120
-0.011492 -0.060168 0.695000 147 206 101
-0.009674 -0.060082 0.694000 137 196 91
-0.007873 -0.060082 0.694000 127 190 88
-0.006072 -0.060082 0.694000 117 180 78
-0.004271 -0.060082 0.694000 80 131 63
-0.002470 -0.060082 0.694000 47 98 30
-0.153924 -0.059034 0.703000 64 110 45
-0.152100 -0.059034 0.703000 142 188 123
-0.150275 -0.059034 0.703000 151 214 101
-0.148451 -0.059034 0.703000 162 225 112
-0.146627 -0.059034 0.703000 165 229 122
-0.144802 -0.059034 0.703000 119 183 76
-0.142978 -0.059034 0.703000 50 89 38
-0.015186 -0.058698 0.699000 53 88 34
-0.013353 -0.058614 0.698000 89 124 70
-0.011508 -0.058446 0.696000 133 187 100
-0.009702 -0.058446 0.696000 148 202 115
-0.007885 -0.058362 0.695000 143 205 101
-0.006072 -0.058278 0.694000 136 198 94
-0.004271 -0.058278 0.694000 128 191 91
-0.002467 -0.058194 0.693000 108 171 71
-0.000669 -0.058278 0.694000 82 133 67
0.001132 -0.058278 0.694000 49 100 34
-0.155748 -0.057207 0.703000 62 89 56
-0.153924 -0.057207 0.703000 131 185 100
-0.152100 -0.057207 0.703000 157 211 126
-0.150275 -0.057207 0.703000 152 220 107
-0.148662 -0.057289 0.704000 166 234 121
-0.146835 -0.057289 0.704000 129 188 99
-0.145008 -0.057289 0.704000 38 97 8
-0.013391 -0.056963 0.700000 56 75 49
-0.011541 -0.056801 0.698000 54 92 35
-0.009730 -0.056801 0.698000 105 143 86
-0.007896 -0.056638 0.696000 137 193 105
-0.006098 -0.056719 0.697000 147 203 115
-0.004284 -0.056638 0.696000 139 202 102
-0.002470 -0.056475 0.694000 127 190 90
-0.000669 -0.056475 0.694000 120 181 91
0.001130 -0.056394 0.693000 97 158 68
0.002933 -0.056475 0.694000 68 117 61
0.004734 -0.056475 0.694000 39 88 32
-0.157797 -0.055459 0.704000 47 86 33
-0.155970 -0.055459 0.704000 130 169 116
-0.154143 -0.055459 0.704000 155 216 115
-0.152316 -0.055459 0.704000 154 215 114
-0.150489 -0.055459 0.704000 165 232 124
-0.148662 -0.055459 0.704000 144 211 103
-0.147044 -0.055538 0.705000 51 97 32
-0.009786 -0.055302 0.702000 49 71 42
-0.007953 -0.055223 0.701000 59 97 38
-0.006116 -0.055066 0.699000 118 156 97
-0.004296 -0.054987 0.698000 140 200 108
-0.002477 -0.054829 0.696000 144 204 112
-0.000669 -0.054672 0.694000 136 198 105
0.001132 -0.054672 0.694000 132 194 101
0.002929 -0.054593 0.693000 108 171 89
0.004727 -0.054593 0.693000 73 136 54
0.006525 -0.054593 0.693000 51 94 46
-0.159624 -0.053630 0.704000 49 71 40
-0.157797 -0.053630 0.704000 118 168 89
-0.156191 -0.053706 0.705000 157 207 128
-0.154362 -0.053706 0.705000 151 216 104
-0.152532 -0.053706 0.705000 165 230 118
-0.150703 -0.053706 0.705000 152 212 118
-0.148873 -0.053706 0.705000 51 111 17
-0.007975 -0.053554 0.703000 54 78 48
-0.006142 -0.053478 0.702000 48 72 42
-0.004308 -0.053325 0.700000 79 123 57
-0.002484 -0.053173 0.698000 127 171 105
-0.000671 -0.053021 0.696000 140 202 107
0.001133 -0.052944 0.695000 136 198 103
0.002933 -0.052868 0.694000 130 195 99
0.004727 -0.052792 0.693000 127 192 96
0.006525 -0.052792 0.693000 99 156 81
0.008324 -0.052792 0.693000 63 120 45
0.010122 -0.052792 0.693000 48 83 45
-0.161680 -0.051874 0.705000 40 75 19
-0.159851 -0.051874 0.705000 122 157 101
-0.158021 -0.051874 0.705000 151 213 105
-0.156191 -0.051874 0.705000 152 214 106
-0.154581 -0.051948 0.706000 165 230 118
-0.152749 -0.051948 0.706000 156 221 109
-0.151130 -0.052021 0.707000 63 107 43
-0.149296 -0.052021 0.707000 34 78 14
-0.004327 -0.051727 0.703000 44 71 38
-0.002495 -0.051580 0.701000 46 73 40
-0.000674 -0.051433 0.699000 90 136 69
0.001137 -0.051286 0.697000 131 177 110
0.002937 -0.051138 0.695000 139 201 106
0.004727 -0.050991 0.693000 130 192 97
0.006525 -0.050991 0.693000 129 191 94
0.008324 -0.050991 0.693000 120 182 85
0.010108 -0.050918 0.692000 86 139 72
0.011921 -0.050991 0.693000 54 107 40
-0.161909 -0.050113 0.706000 107 157 68
-0.160077 -0.050113 0.706000 154 204 115
-0.158245 -0.050113 0.706000 148 212 92
-0.156635 -0.050184 0.707000 162 226 106
-0.154800 -0.050184 0.707000 160 217 124
-0.153181 -0.050255 0.708000 72 129 36
-0.000677 -0.049829 0.702000 40 68 30
0.001142 -0.049687 0.700000 62 90 52
0.002950 -0.049545 0.698000 105 157 84
0.004741 -0.049332 0.695000 139 191 118
0.006525 -0.049191 0.693000 140 202 105
0.008324 -0.049191 0.693000 135 197 100
0.010108 -0.049120 0.692000 124 189 93
0.011886 -0.049049 0.691000 103 168 72
0.013699 -0.049120 0.692000 67 116 60
-0.165574 -0.048279 0.706000 34 72 15
-0.163973 -0.048347 0.707000 105 143 86
-0.162139 -0.048347 0.707000 146 205 98
-0.160304 -0.048347 0.707000 151 210 103
-0.158693 -0.048415 0.708000 164 224 112
-0.157078 -0.048484 0.709000 166 226 114
-0.155238 -0.048484 0.709000 88 132 64
-0.153614 -0.048552 0.710000 32 76 8
0.001146 -0.048074 0.703000 58 71 54
0.002962 -0.047937 0.701000 46 77 31
0.004768 -0.047800 0.699000 81 112 66
0.006554 -0.047595 0.696000 123 176 96
0.008324 -0.047390 0.693000 143 196 116
0.010093 -0.047253 0.691000 133 199 98
0.011886 -0.047253 0.691000 128 194 93
0.013679 -0.047253 0.691000 118 178 93
0.015495 -0.047321 0.692000 82 142 57
0.017291 -0.047321 0.692000 58 101 55
-0.167880 -0.046576 0.708000 38 60 31
-0.166043 -0.046576 0.708000 96 147 63
-0.164205 -0.046576 0.708000 150 201 117
-0.162368 -0.046576 0.708000 150 213 100
-0.160757 -0.046641 0.709000 163 226 113
-0.159142 -0.046707 0.710000 175 228 132
-0.157521 -0.046773 0.711000 92 145 49
-0.155676 -0.046773 0.711000 41 67 23
0.004788 -0.046181 0.702000 54 72 49
0.006591 -0.046049 0.700000 56 94 39
0.008372 -0.045852 0.697000 109 147 92
0.010137 -0.045655 0.694000 140 202 109
0.011903 -0.045523 0.692000 136 198 105
0.013679 -0.045457 0.691000 132 197 101
0.015473 -0.045457 0.691000 121 186 90
0.017266 -0.045457 0.691000 91 147 77
0.019087 -0.045523 0.692000 62 118 48
-0.168117 -0.044799 0.709000 96 129 83
-0.166512 -0.044862 0.710000 142 206 101
-0.164669 -0.044862 0.710000 155 219 114
-0.162827 -0.044862 0.710000 171 231 121
-0.161211 -0.044926 0.711000 173 233 123
-0.159590 -0.044989 0.712000 102 142 71
0.008420 -0.044294 0.701000 56 78 51
0.010181 -0.044041 0.697000 74 120 55
0.011921 -0.043788 0.693000 133 179 114
0.013679 -0.043662 0.691000 137 198 108
0.015473 -0.043662 0.691000 137 198 108
0.017266 -0.043662 0.691000 127 190 104
0.019059 -0.043662 0.691000 103 166 80
0.020882 -0.043725 0.692000 75 127 65
0.022711 -0.043788 0.693000 38 90 28
-0.172039 -0.043017 0.710000 37 60 37
-0.170197 -0.043017 0.710000 76 127 57
-0.168591 -0.043078 0.711000 144 195 125
-0.166746 -0.043078 0.711000 154 219 107
-0.164901 -0.043078 0.711000 168 233 121
-0.163285 -0.043139 0.712000 176 230 129
-0.159814 -0.043199 0.713000 53 80 33
0.010239 -0.042472 0.701000 51 80 48
0.012007 -0.042290 0.698000 64 93 61
0.013699 -0.041927 0.692000 108 159 89
0.015473 -0.041866 0.691000 141 192 122
0.017266 -0.041866 0.691000 134 195 105
0.019059 -0.041866 0.691000 128 189 99
0.020852 -0.041866 0.691000 118 177 99
0.022678 -0.041927 0.692000 77 136 58
0.024509 -0.041987 0.693000 53 96 50
-0.172282 -0.041230 0.711000 83 120 79
-0.170676 -0.041288 0.712000 142 202 106
-0.168829 -0.041288 0.712000 156 216 120
-0.166981 -0.041288 0.712000 164 227 116
-0.165365 -0.041346 0.713000 171 234 123
-0.163515 -0.041346 0.713000 112 158 82
-0.161891 -0.041404 0.714000 46 92 16
0.013838 -0.040535 0.699000 53 88 50
0.015495 -0.040129 0.692000 96 131 93
0.017266 -0.040071 0.691000 138 192 116
0.019059 -0.040071 0.691000 136 190 114
0.020852 -0.040071 0.691000 132 193 105
0.022645 -0.040071 0.691000 126 187 99
0.024439 -0.040071 0.691000 96 149 82
0.026308 -0.040187 0.693000 60 113 46
-0.174617 -0.039494 0.713000 79 130 60
-0.172766 -0.039494 0.713000 143 194 124
-0.170916 -0.039494 0.713000 155 217 111
-0.169066 -0.039494 0.713000 165 227 121
-0.167450 -0.039549 0.714000 175 230 136
-0.165597 -0.039549 0.714000 111 166 72
-0.163973 -0.039604 0.715000 48 82 31
0.017391 -0.038552 0.696000 70 114 59
0.019059 -0.038275 0.691000 126 170 115
0.020852 -0.038275 0.691000 137 195 111
0.022645 -0.038275 0.691000 138 196 112
0.024439 -0.038275 0.691000 129 187 105
0.026232 -0.038275 0.691000 105 163 81
-0.176714 -0.037694 0.714000 82 120 74
-0.174861 -0.037694 0.714000 143 203 107
-0.173251 -0.037746 0.715000 156 216 120
-0.171395 -0.037746 0.715000 169 231 127
-0.169540 -0.037746 0.715000 176 238 134
-0.167684 -0.037746 0.715000 116 163 91
-0.165829 -0.037746 0.715000 41 88 16
0.019197 -0.036743 0.696000 59 86 55
0.020882 -0.036532 0.692000 104 152 83
0.022645 -0.036479 0.691000 141 189 120
0.024439 -0.036479 0.691000 137 197 112
0.026232 -0.036479 0.691000 129 189 104
0.028025 -0.036479 0.691000 115 174 96
0.029905 -0.036585 0.693000 76 135 57
-0.179067 -0.035939 0.716000 73 125 50
-0.177209 -0.035939 0.716000 140 192 117
-0.175351 -0.035939 0.716000 148 212 105
-0.173493 -0.035939 0.716000 161 225 118
-0.171635 -0.035939 0.716000 176 236 140
-0.169777 -0.035939 0.716000 119 179 83
-0.168153 -0.035989 0.717000 46 83 31
0.021064 -0.035035 0.698000 47 80 36
0.022678 -0.034734 0.692000 91 124 80
0.024439 -0.034684 0.691000 135 190 109
0.026232 -0.034684 0.691000 142 197 116
0.028025 -0.034684 0.691000 130 190 105
0.029818 -0.034684 0.691000 108 168 83
0.031657 -0.034734 0.692000 85 138 71
-0.181178 -0.034126 0.717000 83 121 73
-0.179318 -0.034126 0.717000 130 193 93
-0.177457 -0.034126 0.717000 151 214 114
-0.175596 -0.034126 0.717000 158 221 110
-0.173735 -0.034126 0.717000 175 238 127
-0.171875 -0.034126 0.717000 126 176 95
-0.170014 -0.034126 0.717000 47 97 16
0.022940 -0.033317 0.700000 53 74 52
0.024474 -0.032936 0.692000 71 114 53
0.026232 -0.032888 0.691000 132 175 114
0.027985 -0.032841 0.690000 135 194 107
0.029775 -0.032841 0.690000 124 183 96
0.031612 -0.032888 0.691000 113 171 89
0.033453 -0.032936 0.692000 81 139 57
-0.183039 -0.032263 0.717000 67 121 45
-0.181178 -0.032263 0.717000 137 191 115
-0.179318 -0.032263 0.717000 150 214 105
-0.177457 -0.032263 0.717000 158 222 113
-0.175596 -0.032263 0.717000 172 231 128
-0.173735 -0.032263 0.717000 131 190 87
-0.172115 -0.032308 0.718000 53 93 37
0.027985 -0.031048 0.690000 116 168 95
0.029732 -0.031003 0.689000 131 183 110
0.031520 -0.031003 0.689000 126 185 98
0.033356 -0.031048 0.690000 112 171 84
0.035147 -0.031048 0.690000 93 146 79
-0.185158 -0.030442 0.718000 76 113 72
-0.183294 -0.030442 0.718000 131 191 95
-0.181431 -0.030442 0.718000 154 214 118
-0.179568 -0.030442 0.718000 165 228 117
-0.177704 -0.030442 0.718000 175 238 127
-0.175841 -0.030442 0.718000 133 183 104
-0.174220 -0.030484 0.719000 45 95 16
0.029775 -0.029255 0.690000 104 142 96
0.031474 -0.029170 0.688000 136 191 110
0.033211 -0.029128 0.687000 130 185 104
0.034994 -0.029128 0.687000 106 164 82
0.036884 -0.029212 0.689000 90 148 66
-0.187281 -0.028616 0.719000 75 126 60
-0.185415 -0.028616 0.719000 138 189 123
-0.183550 -0.028616 0.719000 151 213 109
-0.181684 -0.028616 0.719000 171 233 129
-0.179818 -0.028616 0.719000 178 236 138
-0.177952 -0.028616 0.719000 138 196 98
-0.176086 -0.028616 0.719000 56 96 40
0.031520 -0.027422 0.689000 101 147 82
0.033163 -0.027303 0.686000 137 183 118
0.034791 -0.027183 0.683000 129 184 101
0.036670 -0.027263 0.685000 118 173 90
0.038616 -0.027382 0.688000 93 147 71
0.040578 -0.027502 0.691000 65 119 43
-0.189410 -0.026785 0.720000 78 114 71
-0.187542 -0.026785 0.720000 140 196 108
-0.185673 -0.026785 0.720000 159 215 127
-0.183805 -0.026785 0.720000 172 230 130
-0.181936 -0.026785 0.720000 177 235 135
-0.180068 -0.026785 0.720000 138 189 105
-0.178199 -0.026785 0.720000 55 106 22
0.034689 -0.025334 0.681000 129 181 106
0.036349 -0.025260 0.679000 126 178 103
0.038279 -0.025371 0.682000 114 172 88
0.040284 -0.025520 0.686000 99 157 73
0.042310 -0.025669 0.690000 81 124 67
-0.191544 -0.024948 0.721000 77 125 58
-0.189673 -0.024948 0.721000 140 188 121
-0.187802 -0.024948 0.721000 154 215 116
-0.185931 -0.024948 0.721000 164 225 126
-0.184060 -0.024948 0.721000 181 237 140
-0.182189 -0.024948 0.721000 131 187 90
-0.180318 -0.024948 0.721000 55 91 30
0.034332 -0.023322 0.674000 86 129 68
0.036188 -0.023391 0.676000 130 173 112
0.038055 -0.023461 0.678000 125 180 99
0.039932 -0.023530 0.680000 117 172 91
0.041819 -0.023599 0.682000 95 148 77
0.043908 -0.023772 0.687000 78 131 60
-0.195287 -0.023075 0.721000 30 71 24
-0.193415 -0.023075 0.721000 89 130 83
-0.191544 -0.023075 0.721000 141 201 109
-0.189673 -0.023075 0.721000 154 214 122
-0.187802 -0.023075 0.721000 166 225 122
-0.185931 -0.023075 0.721000 177 236 133
-0.184315 -0.023107 0.722000 126 169 90
-0.182442 -0.023107 0.722000 47 90 11
0.037886 -0.021603 0.675000 123 172 100
0.039697 -0.021635 0.676000 129 178 106
0.041574 -0.021699 0.678000 106 163 86
0.043205 -0.021635 0.676000 88 145 68
0.045026 -0.021667 0.677000 78 125 65
-0.197704 -0.021260 0.723000 37 65 38
-0.195828 -0.021260 0.723000 88 141 70
-0.193952 -0.021260 0.723000 144 197 126
-0.192076 -0.021260 0.723000 152 214 110
-0.190199 -0.021260 0.723000 158 220 116
-0.188323 -0.021260 0.723000 174 230 133
-0.186447 -0.021260 0.723000 117 173 76
-0.184826 -0.021290 0.724000 51 81 33
0.037437 -0.019613 0.667000 74 111 59
0.039168 -0.019613 0.667000 130 167 115
0.040777 -0.019555 0.665000 124 179 100
0.042438 -0.019525 0.664000 102 157 78
0.044095 -0.019496 0.663000 84 140 68
-0.199857 -0.019408 0.724000 33 71 25
-0.197978 -0.019408 0.724000 98 136 90
-0.196099 -0.019408 0.724000 142 204 109
-0.194220 -0.019408 0.724000 148 210 115
-0.192341 -0.019408 0.724000 158 220 116
-0.190462 -0.019408 0.724000 168 230 126
-0.188584 -0.019408 0.724000 119 166 94
-0.186963 -0.019435 0.725000 43 90 18
0.039051 -0.017827 0.665000 80 107 74
0.040715 -0.017800 0.664000 122 173 103
0.042438 -0.017800 0.664000 121 172 102
0.044029 -0.017746 0.662000 96 156 73
0.045677 -0.017719 0.661000 82 142 59
0.047249 -0.017666 0.659000 79 126 68
-0.201736 -0.017527 0.724000 43 69 45
-0.199857 -0.017527 0.724000 103 152 80
-0.197978 -0.017527 0.724000 148 197 125
-0.196099 -0.017527 0.724000 148 211 111
-0.194488 -0.017551 0.725000 157 220 120
-0.192607 -0.017551 0.725000 170 226 140
-0.190726 -0.017551 0.725000 104 160 74
-0.188844 -0.017551 0.725000 48 82 33
0.038933 -0.016050 0.663000 53 68 50
0.040593 -0.016026 0.662000 77 118 69
0.042247 -0.016002 0.661000 123 164 115
0.043896 -0.015978 0.660000 119 176 99
0.045539 -0.015953 0.659000 95 152 75
0.047178 -0.015929 0.658000 80 137 62
-0.203896 -0.015667 0.725000 41 78 28
-0.201736 -0.015646 0.724000 112 149 99
-0.199857 -0.015646 0.724000 147 207 113
-0.198251 -0.015667 0.725000 152 212 118
-0.196370 -0.015667 0.725000 165 227 130
-0.194488 -0.015667 0.725000 165 227 130
-0.192873 -0.015689 0.726000 105 151 84
-0.191252 -0.015710 0.727000 40 86 19
0.040531 -0.014284 0.661000 52 79 50
0.042119 -0.014241 0.659000 80 107 78
0.043763 -0.014219 0.658000 116 167 101
0.045470 -0.014219 0.658000 112 163 97
0.047106 -0.014198 0.657000 93 151 71
0.048811 -0.014198 0.657000 83 141 61
-0.205777 -0.013783 0.725000 50 79 49
-0.203896 -0.013783 0.725000 116 163 89
-0.202014 -0.013783 0.725000 155 202 128
-0.200133 -0.013783 0.725000 148 211 111
-0.198251 -0.013783 0.725000 164 227 127
-0.196641 -0.013802 0.726000 165 224 137
-0.195025 -0.013821 0.727000 94 153 66
-0.193138 -0.013821 0.727000 49 80 34
0.042055 -0.012509 0.658000 55 72 56
0.043763 -0.012509 0.658000 77 116 65
0.045401 -0.012490 0.657000 119 158 107
0.046963 -0.012452 0.655000 103 158 79
0.048662 -0.012452 0.655000 90 145 66
-0.207659 -0.011899 0.725000 51 95 40
-0.205777 -0.011899 0.725000 125 169 114
-0.203896 -0.011899 0.725000 150 210 114
-0.202293 -0.011916 0.726000 151 211 115
-0.200409 -0.011916 0.726000 162 225 123
-0.198798 -0.011932 0.727000 160 223 121
-0.196912 -0.011932 0.727000 93 139 74
-0.195025 -0.011932 0.727000 40 86 21
0.043696 -0.010783 0.657000 51 78 45
0.045263 -0.010750 0.655000 87 114 81
0.046963 -0.010750 0.655000 114 163 91
0.048588 -0.010734 0.654000 106 155 83
0.050285 -0.010734 0.654000 92 142 63
-0.209540 -0.010015 0.725000 56 92 56
-0.207945 -0.010029 0.726000 126 186 103
-0.206061 -0.010029 0.726000 144 204 121
-0.204177 -0.010029 0.726000 146 210 103
-0.202572 -0.010043 0.727000 163 227 120
-0.200685 -0.010043 0.727000 156 215 128
-0.199072 -0.010057 0.728000 73 132 45
-0.197453 -0.010071 0.729000 45 75 38
0.045194 -0.009035 0.654000 57 74 56
0.046891 -0.009035 0.654000 101 139 80
0.048588 -0.009035 0.654000 122 160 101
0.050208 -0.009021 0.653000 99 150 66
0.051903 -0.009021 0.653000 85 136 52
-0.211422 -0.008131 0.725000 71 123 61
-0.209829 -0.008143 0.726000 135 187 125
-0.208231 -0.008154 0.727000 143 206 106
-0.206345 -0.008154 0.727000 144 207 107
-0.204458 -0.008154 0.727000 167 230 128
-0.202850 -0.008165 0.728000 148 211 109
-0.201237 -0.008176 0.729000 65 110 52
-0.199345 -0.008176 0.729000 42 87 29
0.046891 -0.007335 0.654000 51 80 39
0.048514 -0.007324 0.653000 102 131 90
0.050208 -0.007324 0.653000 108 156 77
0.051824 -0.007313 0.652000 90 138 59
-0.213303 -0.006247 0.725000 97 135 91
-0.211422 -0.006247 0.725000 141 201 118
-0.210118 -0.006265 0.727000 147 207 124
-0.208231 -0.006265 0.727000 147 213 110
-0.206629 -0.006273 0.728000 161 227 124
-0.203129 -0.006282 0.729000 58 118 33
-0.201237 -0.006282 0.729000 46 78 41
0.048365 -0.005610 0.651000 71 95 65
0.049978 -0.005601 0.650000 110 155 84
0.051665 -0.005601 0.650000 105 150 79
0.053269 -0.005593 0.649000 79 129 52
0.054954 -0.005593 0.649000 77 127 50
-0.217066 -0.004364 0.725000 52 78 52
-0.215184 -0.004364 0.725000 107 158 92
-0.213303 -0.004364 0.725000 148 199 133
-0.212005 -0.004376 0.727000 147 209 114
-0.210118 -0.004376 0.727000 154 216 121
-0.208518 -0.004382 0.728000 163 225 128
-0.205021 -0.004388 0.729000 53 101 34
0.048217 -0.003906 0.649000 68 89 67
0.049824 -0.003900 0.648000 83 121 64
0.051426 -0.003894 0.647000 113 151 94
0.053023 -0.003888 0.646000 94 142 65
-0.218947 -0.002480 0.725000 54 92 44
-0.217066 -0.002480 0.725000 115 153 105
-0.215184 -0.002480 0.725000 148 206 122
-0.213597 -0.002483 0.726000 143 201 117
-0.212005 -0.002486 0.727000 156 216 122
-0.208804 -0.002493 0.729000 126 179 97
-0.206912 -0.002493 0.729000 45 98 16
0.049593 -0.002206 0.645000 65 96 54
0.051188 -0.002203 0.644000 107 138 96
0.052859 -0.002203 0.644000 99 144 73
0.054445 -0.002199 0.643000 85 130 59
-0.220829 -0.000596 0.725000 75 105 68
-0.218947 -0.000596 0.725000 127 179 104
-0.217066 -0.000596 0.725000 152 204 129
-0.215481 -0.000597 0.726000 142 204 109
-0.213891 -0.000597 0.727000 157 219 124
-0.210696 -0.000599 0.729000 104 158 71
-0.208804 -0.000599 0.729000 55 88 42
0.051108 -0.000528 0.643000 73 97 67
0.052777 -0.000528 0.643000 100 141 78
0.054361 -0.000527 0.642000 90 131 68
0.056027 -0.000527 0.642000 82 126 62
-0.222710 0.001288 0.725000 74 118 54
-0.220829 0.001288 0.725000 131 175 111
-0.218947 0.001288 0.725000 145 203 105
-0.217365 0.001290 0.726000 147 205 107
-0.215778 0.001292 0.727000 159 219 123
-0.212588 0.001295 0.729000 94 138 74
-0.210985 0.001297 0.730000 45 89 25
0.051029 0.001141 0.642000 65 81 60
0.052613 0.001139 0.641000 84 119 65
0.054276 0.001139 0.641000 98 133 79
0.055940 0.001139 0.641000 81 127 60
-0.226473 0.003172 0.725000 45 83 37
-0.224592 0.003172 0.725000 94 132 86
-0.223017 0.003177 0.726000 138 192 105
-0.221133 0.003177 0.726000 141 195 108
-0.217665 0.003181 0.727000 159 221 115
-0.214480 0.003190 0.729000 66 121 40
-0.212880 0.003194 0.730000 54 82 44
0.052366 0.002792 0.638000 67 96 51
0.053937 0.002787 0.637000 106 135 90
0.055416 0.002778 0.635000 83 129 62
0.056974 0.002774 0.634000 78 124 57
-0.228670 0.005063 0.726000 64 93 61
-0.226786 0.005063 0.726000 107 158 88
-0.224901 0.005063 0.726000 137 188 118
-0.223017 0.005063 0.726000 142 203 104
-0.221438 0.005070 0.727000 152 213 114
-0.219551 0.005070 0.727000 156 216 120
-0.218263 0.005084 0.729000 130 190 94
-0.216372 0.005084 0.729000 52 95 36
0.052038 0.004421 0.634000 62 87 52
0.053683 0.004421 0.634000 90 115 80
0.055241 0.004415 0.633000 88 132 68
0.056794 0.004408 0.632000 78 122 58
-0.230554 0.006950 0.726000 68 115 57
-0.228670 0.006950 0.726000 127 174 116
-0.226786 0.006950 0.726000 141 200 113
-0.225211 0.006959 0.727000 140 199 112
-0.223325 0.006959 0.727000 161 218 125
-0.222047 0.006978 0.729000 159 216 123
-0.220155 0.006978 0.729000 118 168 91
-0.218563 0.006988 0.730000 38 88 11
0.053514 0.006050 0.632000 77 95 72
0.055154 0.006050 0.632000 90 128 73
0.058249 0.006031 0.630000 75 119 53
-0.234322 0.008836 0.726000 53 91 47
-0.232438 0.008836 0.726000 81 119 75
-0.230236 0.008824 0.725000 125 185 102
-0.228670 0.008836 0.726000 134 194 111
-0.227098 0.008848 0.727000 135 197 102
-0.225521 0.008861 0.728000 154 216 121
-0.223939 0.008873 0.729000 153 207 122
-0.222352 0.008885 0.730000 94 148 63
-0.220759 0.008897 0.731000 51 82 38
0.053429 0.007680 0.631000 66 81 63
0.054980 0.007668 0.630000 95 127 78
0.056525 0.007656 0.629000 87 119 70
0.058065 0.007643 0.628000 81 122 57
-0.235880 0.010708 0.725000 62 89 58
-0.233999 0.010708 0.725000 93 147 73
-0.232438 0.010723 0.726000 126 180 106
-0.230554 0.010723 0.726000 132 198 97
-0.228985 0.010737 0.727000 134 200 99
-0.227410 0.010752 0.728000 154 214 120
-0.225831 0.010767 0.729000 138 198 104
-0.224553 0.010797 0.731000 76 114 55
-0.222656 0.010797 0.731000 47 85 26
0.054805 0.009275 0.628000 88 117 74
0.056345 0.009261 0.627000 88 117 74
0.057787 0.009231 0.625000 81 120 58
0.059219 0.009201 0.623000 82 121 59
-0.237434 0.012574 0.724000 66 109 52
-0.233999 0.012592 0.725000 127 187 91
-0.232438 0.012609 0.726000 126 186 90
-0.230871 0.012627 0.727000 143 207 102
-0.229299 0.012644 0.728000 150 214 109
-0.227723 0.012661 0.729000 134 183 109
-0.226450 0.012696 0.731000 55 104 30
-0.224553 0.012696 0.731000 56 81 46
0.054631 0.010872 0.626000 77 102 67
0.056075 0.010838 0.624000 91 116 81
0.057602 0.010820 0.623000 77 117 57
0.059124 0.010803 0.622000 80 120 60
-0.238652 0.014416 0.722000 85 118 76
-0.237434 0.014456 0.724000 121 174 92
-0.233999 0.014476 0.725000 122 184 80
-0.232758 0.014516 0.727000 152 214 110
-0.231189 0.014536 0.728000 153 208 118
-0.229929 0.014576 0.730000 104 159 69
-0.228347 0.014596 0.731000 53 85 34
0.054456 0.012459 0.624000 69 93 61
0.055985 0.012439 0.623000 97 121 89
0.057417 0.012399 0.621000 79 119 61
0.058839 0.012359 0.619000 80 120 62
-0.240192 0.016269 0.721000 87 133 64
-0.238982 0.016315 0.723000 130 176 107
-0.235880 0.016360 0.725000 136 192 95
-0.234644 0.016405 0.727000 161 218 123
-0.233398 0.016450 0.729000 147 204 109
-0.231824 0.016473 0.730000 103 139 76
-0.230244 0.016495 0.731000 48 84 21
0.054194 0.014013 0.621000 73 97 65
0.055806 0.014013 0.621000 95 119 87
0.057232 0.013968 0.619000 77 115 60
0.058554 0.013900 0.616000 82 120 65
-0.243596 0.018118 0.720000 77 120 63
-0.241728 0.018118 0.720000 115 158 101
-0.240192 0.018143 0.721000 126 181 87
-0.238982 0.018193 0.723000 134 189 95
-0.236206 0.018269 0.726000 159 215 116
-0.235290 0.018344 0.729000 139 185 105
-0.234038 0.018395 0.731000 73 119 39
-0.232459 0.018420 0.732000 60 78 43
0.054107 0.015601 0.620000 70 95 60
0.055536 0.015551 0.618000 94 119 84
0.056955 0.015501 0.616000 76 114 59
0.058268 0.015425 0.613000 88 126 71
-0.245124 0.019961 0.719000 91 124 82
-0.243258 0.019961 0.719000 115 171 85
-0.241728 0.019989 0.720000 121 177 91
-0.240525 0.020044 0.722000 129 187 87
-0.237762 0.020128 0.725000 151 206 112
-0.237182 0.020239 0.729000 110 165 71
-0.235935 0.020294 0.731000 62 93 40
0.053758 0.017102 0.616000 68 94 52
0.055087 0.017018 0.613000 91 117 75
0.056585 0.016990 0.612000 75 110 56
0.057983 0.016935 0.610000 98 133 79
-0.248509 0.021799 0.718000 72 99 66
-0.246989 0.021829 0.719000 89 144 65
-0.245124 0.021829 0.719000 122 177 98
-0.243596 0.021860 0.720000 118 180 76
-0.242063 0.021890 0.721000 127 189 85
-0.239643 0.022012 0.725000 139 197 97
-0.239074 0.022133 0.729000 80 124 60
-0.237833 0.022194 0.731000 43 87 23
0.053409 0.018581 0.612000 71 100 55
0.054907 0.018550 0.611000 88 117 72
0.056400 0.018520 0.610000 89 122 66
0.057698 0.018429 0.607000 110 143 87
-0.250024 0.023632 0.717000 82 122 62
-0.248509 0.023665 0.718000 116 156 96
-0.246646 0.023665 0.718000 108 170 66
-0.245124 0.023698 0.719000 113 175 71
-0.243934 0.023764 0.721000 133 195 87
-0.241192 0.023863 0.724000 118 168 89
-0.240965 0.024027 0.729000 67 117 38
0.053060 0.020039 0.608000 85 118 64
0.054278 0.019907 0.604000 86 119 65
0.055753 0.019874 0.603000 109 142 86
-0.251884 0.025495 0.717000 93 126 80
-0.250024 0.025495 0.717000 109 163 78
-0.248163 0.025495 0.717000 114 168 83
-0.246989 0.025566 0.719000 120 182 74
-0.245805 0.025637 0.721000 136 198 90
-0.243406 0.025779 0.725000 85 142 49
-0.242857 0.025922 0.729000 50 84 35
0.050974 0.021406 0.602000 73 102 61
0.052536 0.021406 0.602000 70 109 47
0.054008 0.021370 0.601000 87 126 64
0.055568 0.021370 0.601000 121 154 96
-0.255962 0.027396 0.718000 85 113 75
-0.253745 0.027358 0.717000 102 149 75
-0.251884 0.027358 0.717000 119 166 92
-0.250024 0.027358 0.717000 114 172 74
-0.248509 0.027396 0.718000 128 186 88
-0.247676 0.027511 0.721000 143 201 103
-0.245288 0.027663 0.725000 75 116 51
-0.244749 0.027816 0.729000 48 89 24
0.049165 0.022856 0.599000 76 111 55
0.050635 0.022817 0.598000 83 118 62
0.052187 0.022817 0.598000 89 131 61
0.053739 0.022817 0.598000 109 151 81
-0.258544 0.029343 0.720000 95 139 73
-0.255962 0.029262 0.718000 110 154 88
-0.253745 0.029221 0.717000 110 168 70
-0.252236 0.029262 0.718000 118 176 78
-0.250372 0.029262 0.718000 135 192 97
-0.249548 0.029384 0.721000 150 207 112
-0.247169 0.029547 0.725000 59 107 30
-0.246979 0.029751 0.730000 56 79 45
0.047054 0.024127 0.592000 78 108 60
0.048591 0.024127 0.592000 80 126 48
0.050127 0.024127 0.592000 92 138 60
0.051751 0.024168 0.593000 109 155 79
0.053290 0.024168 0.593000 131 177 101
-0.258185 0.031171 0.719000 104 156 65
-0.255962 0.031128 0.718000 107 159 68
-0.254099 0.031128 0.718000 124 182 82
-0.252587 0.031171 0.719000 136 194 94
-0.251419 0.031258 0.721000 141 192 106
0.041729 0.025232 0.582000 75 101 61
0.043536 0.025405 0.586000 82 108 68
0.046816 0.025535 0.589000 91 134 57
0.048345 0.025535 0.589000 98 148 57
0.049958 0.025578 0.590000 115 165 74
0.051576 0.025622 0.591000 137 183 107
-0.255671 0.032718 0.712000 114 163 66
-0.253110 0.032626 0.710000 127 176 79
-0.254453 0.033039 0.719000 139 192 96
-0.251767 0.033177 0.722000 66 99 45
0.038109 0.026330 0.573000 71 103 54
0.039735 0.026422 0.575000 79 111 62
0.041657 0.026698 0.581000 80 125 54
0.043388 0.026836 0.584000 86 131 60
0.045057 0.026928 0.586000 83 138 44
0.046737 0.027020 0.588000 93 148 54
0.048262 0.027020 0.588000 123 176 80
0.036494 0.027722 0.571000 77 116 54
0.039665 0.027868 0.574000 90 140 61
0.041513 0.028111 0.579000 94 149 55
0.043239 0.028256 0.582000 101 156 62
0.025436 0.028439 0.556000 63 101 44
0.036494 0.029206 0.571000 103 158 66
0.025481 0.029937 0.557000 88 144 56
0.025481 0.031385 0.557000 107 177 75
0.002244 0.031300 0.531000 88 136 57
0.003629 0.031359 0.532000 92 140 61
0.025481 0.032832 0.557000 144 214 110
-0.008681 0.032310 0.525000 100 156 68
-0.007318 0.032310 0.525000 95 151 63
-0.005967 0.032372 0.526000 94 151 56
-0.004611 0.032433 0.527000 99 156 61
-0.003250 0.032495 0.528000 101 159 59
-0.001883 0.032556 0.529000 107 165 65
0.000864 0.032618 0.530000 114 173 68
0.002244 0.032679 0.531000 114 178 71
0.003629 0.032741 0.532000 115 179 72
0.025481 0.034280 0.557000 174 232 134
-0.065472 0.048491 0.756000 43 70 37
-0.063510 0.048491 0.756000 38 69 27
-0.061548 0.048491 0.756000 39 70 28
-0.059586 0.048491 0.756000 41 75 26
-0.008681 0.033674 0.525000 113 183 68
-0.007318 0.033674 0.525000 114 184 69
-0.005967 0.033739 0.526000 117 188 70
-0.004611 0.033803 0.527000 118 189 71
-0.003250 0.033867 0.528000 123 192 72
-0.001883 0.033931 0.529000 116 185 65
0.000864 0.033995 0.530000 132 198 77
0.002244 0.034059 0.531000 135 201 84
0.003629 0.034123 0.532000 141 207 90
-0.050088 0.033570 0.503000 57 100 43
-0.048783 0.033570 0.503000 63 106 49
-0.047477 0.033570 0.503000 67 112 50
-0.046172 0.033570 0.503000 69 114 52
-0.044956 0.033637 0.504000 77 123 54
-0.043648 0.033637 0.504000 81 127 58
-0.042424 0.033704 0.505000 90 139 55
-0.041195 0.033771 0.506000 95 144 60
-0.039960 0.033837 0.507000 99 151 60
-0.038645 0.033837 0.507000 102 154 63
-0.037476 0.033971 0.509000 108 164 67
-0.008681 0.035039 0.525000 140 216 94
-0.007318 0.035039 0.525000 146 222 100
-0.005967 0.035105 0.526000 148 224 104
-0.004611 0.035172 0.527000 155 231 111
-0.003250 0.035239 0.528000 163 235 119
-0.001883 0.035306 0.529000 167 239 123
0.000864 0.035372 0.530000 179 248 128
0.002244 0.035439 0.531000 183 247 129
0.003629 0.035506 0.532000 186 250 132
-0.124164 0.052351 0.755000 50 74 31
-0.122043 0.052281 0.754000 48 74 30
-0.120246 0.052351 0.755000 48 74 30
-0.118286 0.052351 0.755000 44 75 29
-0.065098 0.034531 0.498000 71 116 43
-0.063806 0.034531 0.498000 74 119 46
-0.062514 0.034531 0.498000 83 126 49
-0.061221 0.034531 0.498000 94 137 60
-0.060049 0.034600 0.499000 105 151 71
-0.058872 0.034669 0.500000 103 149 69
-0.055089 0.034739 0.501000 111 162 76
-0.052594 0.034808 0.502000 115 170 80
-0.051291 0.034808 0.502000 119 174 84
-0.050088 0.034877 0.503000 116 175 86
-0.048783 0.034877 0.503000 112 171 82
-0.047477 0.034877 0.503000 116 176 82
-0.046172 0.034877 0.503000 121 181 87
-0.044956 0.034947 0.504000 119 181 77
-0.043648 0.034947 0.504000 122 184 80
-0.042424 0.035016 0.505000 123 187 71
-0.041195 0.035085 0.506000 124 188 72
-0.039960 0.035155 0.507000 123 187 67
-0.038645 0.035155 0.507000 126 190 70
-0.037476 0.035293 0.509000 132 199 75
-0.008681 0.036403 0.525000 179 252 133
-0.007318 0.036403 0.525000 181 254 135
-0.005967 0.036472 0.526000 181 255 147
-0.004611 0.036541 0.527000 179 253 145
-0.003250 0.036611 0.528000 181 250 151
-0.001883 0.036680 0.529000 180 249 150
0.000864 0.036750 0.530000 163 220 125
0.002244 0.036819 0.531000 153 201 109
0.003629 0.036888 0.532000 142 190 98
-0.091682 0.035609 0.495000 64 103 37
-0.090398 0.035609 0.495000 75 114 48
-0.089113 0.035609 0.495000 81 120 54
-0.087829 0.035609 0.495000 84 124 55
-0.086544 0.035609 0.495000 87 127 58
-0.085259 0.035609 0.495000 90 131 55
-0.071560 0.035825 0.498000 123 180 85
-0.070268 0.035825 0.498000 128 185 90
-0.068975 0.035825 0.498000 128 185 90
-0.067683 0.035825 0.498000 124 182 82
-0.066391 0.035825 0.498000 125 183 83
-0.065098 0.035825 0.498000 126 188 80
-0.063806 0.035825 0.498000 131 193 85
-0.062514 0.035825 0.498000 134 197 86
-0.061221 0.035825 0.498000 133 196 85
-0.060049 0.035897 0.499000 131 194 83
-0.058872 0.035969 0.500000 133 196 85
-0.057574 0.035969 0.500000 127 195 80
-0.056389 0.036041 0.501000 132 200 85
-0.055089 0.036041 0.501000 132 203 85
-0.052594 0.036112 0.502000 136 207 89
-0.051291 0.036112 0.502000 135 206 88
-0.050088 0.036184 0.503000 132 203 85
-0.048783 0.036184 0.503000 130 201 83
-0.047477 0.036184 0.503000 131 204 83
-0.046172 0.036184 0.503000 135 208 87
-0.044956 0.036256 0.504000 136 209 86
-0.043648 0.036256 0.504000 139 212 89
-0.042424 0.036328 0.505000 142 214 87
-0.041195 0.036400 0.506000 143 215 88
-0.039960 0.036472 0.507000 147 219 90
-0.038645 0.036472 0.507000 149 221 92
-0.037476 0.036616 0.509000 154 226 97
-0.008681 0.037767 0.525000 161 211 120
-0.007318 0.037767 0.525000 148 198 107
-0.005967 0.037839 0.526000 122 174 99
-0.004611 0.037911 0.527000 95 147 72
-0.003250 0.037983 0.528000 81 128 66
-0.001883 0.038055 0.529000 67 114 52
0.000864 0.038127 0.530000 56 91 33
0.002244 0.038199 0.531000 59 82 28
0.003622 0.038199 0.531000 61 84 30
-0.109445 0.036821 0.494000 83 124 59
-0.107944 0.036746 0.493000 87 132 59
-0.106664 0.036746 0.493000 88 133 60
-0.105385 0.036746 0.493000 89 139 60
-0.104106 0.036746 0.493000 90 140 61
-0.103035 0.036821 0.494000 93 143 62
-0.101753 0.036821 0.494000 100 150 69
-0.100471 0.036821 0.494000 102 152 71
-0.099189 0.036821 0.494000 106 156 75
-0.097709 0.036746 0.493000 107 158 72
-0.096429 0.036746 0.493000 113 164 78
-0.095343 0.036821 0.494000 108 163 71
-0.094061 0.036821 0.494000 116 171 79
-0.092967 0.036895 0.495000 115 174 71
-0.091497 0.036821 0.494000 116 175 72
-0.090215 0.036821 0.494000 115 174 71
-0.088933 0.036821 0.494000 125 184 81
-0.087829 0.036895 0.495000 131 189 89
-0.086544 0.036895 0.495000 131 189 89
-0.085259 0.036895 0.495000 135 194 91
-0.071560 0.037119 0.498000 142 208 91
-0.070268 0.037119 0.498000 140 206 87
-0.068975 0.037119 0.498000 137 203 84
-0.067683 0.037119 0.498000 140 204 84
-0.066391 0.037119 0.498000 138 202 82
-0.065098 0.037119 0.498000 146 213 87
-0.063806 0.037119 0.498000 141 208 82
-0.062514 0.037119 0.498000 137 207 80
-0.061221 0.037119 0.498000 139 209 82
-0.060049 0.037193 0.499000 142 213 91
-0.058872 0.037268 0.500000 143 214 92
-0.057574 0.037268 0.500000 144 217 94
-0.056389 0.037342 0.501000 144 217 94
-0.055089 0.037342 0.501000 142 219 92
-0.052594 0.037417 0.502000 155 229 101
-0.051291 0.037417 0.502000 159 233 105
-0.050088 0.037491 0.503000 162 236 108
-0.048783 0.037491 0.503000 162 236 108
-0.047477 0.037491 0.503000 165 237 108
-0.046172 0.037491 0.503000 173 245 116
-0.044956 0.037566 0.504000 174 246 117
-0.043648 0.037566 0.504000 172 244 115
-0.042424 0.037641 0.505000 172 244 115
-0.041195 0.037715 0.506000 174 246 117
-0.039960 0.037790 0.507000 176 250 120
-0.038645 0.037790 0.507000 173 247 117
-0.037476 0.037939 0.509000 173 247 119
-0.137471 0.038413 0.498000 58 93 35
-0.135905 0.038336 0.497000 61 96 38
-0.134615 0.038336 0.497000 66 105 41
-0.133325 0.038336 0.497000 69 108 44
-0.132035 0.038336 0.497000 69 110 43
-0.130483 0.038259 0.496000 73 114 47
-0.129195 0.038259 0.496000 79 121 49
-0.127908 0.038259 0.496000 82 124 52
-0.126366 0.038181 0.495000 81 126 53
-0.125081 0.038181 0.495000 86 131 58
-0.123797 0.038181 0.495000 91 138 64
-0.122265 0.038104 0.494000 100 147 73
-0.120738 0.038027 0.493000 103 155 80
-0.119458 0.038027 0.493000 101 153 78
-0.118179 0.038027 0.493000 101 156 73
-0.116900 0.038027 0.493000 107 162 79
-0.115620 0.038027 0.493000 112 171 82
-0.114109 0.037950 0.492000 116 175 86
-0.112832 0.037950 0.492000 116 176 84
-0.111782 0.038027 0.493000 115 175 83
-0.110503 0.038027 0.493000 119 179 83
-0.109223 0.038027 0.493000 120 180 84
-0.107944 0.038027 0.493000 119 181 75
-0.106664 0.038027 0.493000 124 186 80
-0.105385 0.038027 0.493000 128 193 81
-0.104106 0.038027 0.493000 136 201 89
-0.102826 0.038027 0.493000 136 199 88
-0.101547 0.038027 0.493000 134 197 86
-0.100268 0.038027 0.493000 142 204 96
-0.098988 0.038027 0.493000 147 209 101
-0.097709 0.038027 0.493000 149 212 101
-0.096625 0.038104 0.494000 149 212 101
-0.095343 0.038104 0.494000 145 209 91
-0.094061 0.038104 0.494000 144 208 90
-0.092779 0.038104 0.494000 140 205 78
-0.091497 0.038104 0.494000 144 209 82
-0.090215 0.038104 0.494000 142 208 78
-0.088933 0.038104 0.494000 141 207 77
-0.087829 0.038181 0.495000 143 210 86
-0.086544 0.038181 0.495000 149 216 92
-0.085259 0.038181 0.495000 149 215 94
-0.083975 0.038181 0.495000 143 209 88
-0.082857 0.038259 0.496000 141 211 86
-0.071560 0.038413 0.498000 162 229 101
-0.070268 0.038413 0.498000 165 231 101
-0.068975 0.038413 0.498000 165 231 101
-0.067683 0.038413 0.498000 173 236 107
-0.066391 0.038413 0.498000 177 240 111
-0.065098 0.038413 0.498000 171 237 105
-0.063806 0.038413 0.498000 172 238 106
-0.062514 0.038413 0.498000 179 246 118
-0.061221 0.038413 0.498000 184 251 123
-0.060049 0.038490 0.499000 180 250 125
-0.058872 0.038567 0.500000 176 246 121
-0.057574 0.038567 0.500000 173 246 123
-0.056389 0.038644 0.501000 172 245 122
-0.055089 0.038644 0.501000 168 246 121
-0.052594 0.038721 0.502000 177 255 128
-0.051291 0.038721 0.502000 180 255 131
-0.050088 0.038799 0.503000 184 255 131
-0.048783 0.038799 0.503000 184 255 131
-0.047477 0.038799 0.503000 186 253 125
-0.046172 0.038799 0.503000 186 253 125
-0.044956 0.038876 0.504000 193 253 128
-0.043648 0.038876 0.504000 192 252 127
-0.042424 0.038953 0.505000 197 252 130
-0.041195 0.039030 0.506000 194 249 127
-0.039960 0.039107 0.507000 186 245 129
-0.038645 0.039107 0.507000 179 238 122
-0.037476 0.039261 0.509000 165 226 127
-0.252785 0.050311 0.631000 75 73 34
-0.251148 0.050311 0.631000 75 73 34
-0.249510 0.050311 0.631000 67 75 44
-0.247873 0.050311 0.631000 67 75 44
-0.246625 0.050391 0.632000 59 74 47
-0.159736 0.040106 0.503000 56 91 33
-0.158746 0.040185 0.504000 66 101 43
-0.157438 0.040185 0.504000 82 117 59
-0.156130 0.040185 0.504000 83 118 60
-0.154822 0.040185 0.504000 74 114 54
-0.143499 0.039946 0.501000 93 146 66
-0.141915 0.039866 0.500000 97 150 70
-0.140618 0.039866 0.500000 103 157 72
-0.139042 0.039787 0.499000 105 159 74
-0.137471 0.039707 0.498000 108 165 72
-0.136178 0.039707 0.498000 113 170 77
-0.134615 0.039627 0.497000 118 176 78
-0.133325 0.039627 0.497000 120 178 80
-0.132035 0.039627 0.497000 117 176 73
-0.130483 0.039547 0.496000 118 177 74
-0.129195 0.039547 0.496000 125 184 77
-0.127908 0.039547 0.496000 130 189 82
-0.126366 0.039468 0.495000 133 192 85
-0.125081 0.039468 0.495000 139 198 91
-0.123797 0.039468 0.495000 136 198 92
-0.122265 0.039388 0.494000 134 196 90
-0.120738 0.039308 0.493000 140 204 95
-0.119458 0.039308 0.493000 139 203 94
-0.118179 0.039308 0.493000 140 205 91
-0.116900 0.039308 0.493000 140 205 91
-0.115620 0.039308 0.493000 139 204 90
-0.114109 0.039229 0.492000 135 200 86
-0.112832 0.039229 0.492000 141 206 92
-0.111782 0.039308 0.493000 139 204 90
-0.110503 0.039308 0.493000 142 208 91
-0.109223 0.039308 0.493000 143 209 92
-0.107944 0.039308 0.493000 140 207 83
-0.106664 0.039308 0.493000 144 211 87
-0.105385 0.039308 0.493000 142 212 85
-0.104106 0.039308 0.493000 145 215 88
-0.102826 0.039308 0.493000 148 218 93
-0.101547 0.039308 0.493000 149 219 94
-0.100268 0.039308 0.493000 148 218 93
-0.098988 0.039308 0.493000 152 222 97
-0.097709 0.039308 0.493000 152 222 97
-0.096625 0.039388 0.494000 146 216 91
-0.095343 0.039388 0.494000 146 214 81
-0.094061 0.039388 0.494000 153 221 88
-0.092779 0.039388 0.494000 158 226 82
-0.091497 0.039388 0.494000 158 226 82
-0.090215 0.039388 0.494000 163 231 87
-0.088933 0.039388 0.494000 164 232 88
-0.087829 0.039468 0.495000 168 234 102
-0.086544 0.039468 0.495000 173 239 107
-0.085259 0.039468 0.495000 171 238 114
-0.083975 0.039468 0.495000 176 243 119
-0.082857 0.039547 0.496000 176 245 123
-0.071560 0.039707 0.498000 192 255 133
-0.070268 0.039707 0.498000 194 255 130
-0.068975 0.039707 0.498000 193 255 129
-0.067683 0.039707 0.498000 192 253 125
-0.066391 0.039707 0.498000 194 255 127
-0.065098 0.039707 0.498000 196 254 125
-0.063806 0.039707 0.498000 199 255 128
-0.062514 0.039707 0.498000 198 255 131
-0.061221 0.039707 0.498000 197 254 130
-0.060049 0.039787 0.499000 192 250 139
-0.058872 0.039866 0.500000 187 245 134
-0.057574 0.039866 0.500000 177 243 140
-0.056277 0.039866 0.500000 174 240 137
-0.055089 0.039946 0.501000 163 235 137
-0.052594 0.040026 0.502000 156 230 133
-0.051291 0.040026 0.502000 153 227 130
-0.050088 0.040106 0.503000 153 222 127
-0.048783 0.040106 0.503000 146 215 120
-0.047477 0.040106 0.503000 140 200 106
-0.046172 0.040106 0.503000 127 187 93
-0.044956 0.040185 0.504000 118 162 67
-0.043648 0.040185 0.504000 103 147 52
-0.166593 0.041495 0.504000 105 150 63
-0.164958 0.041413 0.503000 104 154 63
-0.163652 0.041413 0.503000 105 155 64
-0.162347 0.041413 0.503000 111 163 74
-0.161042 0.041413 0.503000 112 164 75
-0.159736 0.041413 0.503000 116 166 75
-0.158746 0.041495 0.504000 121 171 80
-0.157438 0.041495 0.504000 126 178 87
-0.156130 0.041495 0.504000 126 178 87
-0.154822 0.041495 0.504000 126 182 85
-0.153514 0.041495 0.504000 126 182 85
-0.151904 0.041413 0.503000 124 186 78
-0.150599 0.041413 0.503000 128 190 82
-0.149293 0.041413 0.503000 129 192 81
-0.144799 0.041248 0.501000 138 201 90
-0.143499 0.041248 0.501000 141 206 94
-0.141915 0.041166 0.500000 142 207 95
-0.140618 0.041166 0.500000 141 206 94
-0.139042 0.041083 0.499000 140 205 93
-0.137471 0.041001 0.498000 135 203 88
-0.136178 0.041001 0.498000 137 205 90
-0.134615 0.040919 0.497000 138 207 87
-0.133325 0.040919 0.497000 140 209 89
-0.132035 0.040919 0.497000 143 210 86
-0.130483 0.040836 0.496000 147 214 90
-0.129195 0.040836 0.496000 148 215 87
-0.127908 0.040836 0.496000 148 215 87
-0.126366 0.040754 0.495000 153 220 94
-0.125081 0.040754 0.495000 153 220 94
-0.123797 0.040754 0.495000 151 218 92
-0.122265 0.040672 0.494000 155 222 96
-0.120738 0.040589 0.493000 153 220 92
-0.119458 0.040589 0.493000 151 218 90
-0.118179 0.040589 0.493000 155 223 92
-0.116900 0.040589 0.493000 156 224 93
-0.115620 0.040589 0.493000 159 229 102
-0.114109 0.040507 0.492000 161 231 104
-0.112832 0.040507 0.492000 161 231 104
-0.111782 0.040589 0.493000 162 232 105
-0.110503 0.040589 0.493000 160 230 105
-0.109223 0.040589 0.493000 162 232 107
-0.107944 0.040589 0.493000 168 238 113
-0.106664 0.040589 0.493000 168 238 113
-0.105385 0.040589 0.493000 171 243 118
-0.104106 0.040589 0.493000 171 243 118
-0.102826 0.040589 0.493000 170 243 120
-0.101547 0.040589 0.493000 169 242 119
-0.100268 0.040589 0.493000 171 242 122
-0.098988 0.040589 0.493000 171 242 122
-0.097709 0.040589 0.493000 175 246 126
-0.096625 0.040672 0.494000 178 249 129
-0.095343 0.040672 0.494000 188 255 129
-0.094061 0.040672 0.494000 186 253 127
-0.092779 0.040672 0.494000 193 255 123
-0.091497 0.040672 0.494000 194 255 124
-0.090215 0.040672 0.494000 195 255 120
-0.088933 0.040672 0.494000 194 255 119
-0.087829 0.040754 0.495000 196 254 125
-0.086544 0.040754 0.495000 197 255 126
-0.085259 0.040754 0.495000 196 255 138
-0.083975 0.040754 0.495000 193 254 135
-0.082857 0.040836 0.496000 188 252 143
-0.071560 0.041001 0.498000 153 215 120
-0.070268 0.041001 0.498000 149 202 106
-0.068975 0.041001 0.498000 139 192 96
-0.067683 0.041001 0.498000 134 183 86
-0.066391 0.041001 0.498000 130 179 82
-0.065098 0.041001 0.498000 127 169 72
-0.063806 0.041001 0.498000 119 161 64
-0.062514 0.041001 0.498000 115 151 65
-0.061221 0.041001 0.498000 106 142 56
-0.060049 0.041083 0.499000 96 130 58
-0.058872 0.041166 0.500000 87 121 49
-0.249157 0.053166 0.626000 117 162 60
-0.247928 0.053251 0.627000 110 159 64
-0.166593 0.042805 0.504000 136 196 86
-0.164958 0.042720 0.503000 133 196 85
-0.163652 0.042720 0.503000 136 199 88
-0.162347 0.042720 0.503000 137 201 92
-0.161042 0.042720 0.503000 136 200 91
-0.159736 0.042720 0.503000 141 203 95
-0.158746 0.042805 0.504000 145 207 99
-0.157438 0.042805 0.504000 152 215 104
-0.156130 0.042805 0.504000 151 214 103
-0.154822 0.042805 0.504000 148 212 94
-0.153514 0.042805 0.504000 150 214 96
-0.151904 0.042720 0.503000 154 221 97
-0.150599 0.042720 0.503000 156 223 99
-0.149293 0.042720 0.503000 152 222 95
-0.144799 0.042550 0.501000 155 225 98
-0.143499 0.042550 0.501000 154 224 99
-0.141915 0.042465 0.500000 148 218 93
-0.140618 0.042465 0.500000 151 222 100
-0.139042 0.042380 0.499000 154 225 103
-0.137471 0.042295 0.498000 152 225 102
-0.136178 0.042295 0.498000 151 224 101
-0.134615 0.042210 0.497000 153 227 101
-0.133325 0.042210 0.497000 152 226 100
-0.132035 0.042210 0.497000 157 229 102
-0.130483 0.042125 0.496000 156 228 101
-0.129195 0.042125 0.496000 158 230 103
-0.127908 0.042125 0.496000 163 235 108
-0.126366 0.042040 0.495000 167 239 114
-0.125081 0.042040 0.495000 167 239 114
-0.123797 0.042040 0.495000 165 235 110
-0.122265 0.041955 0.494000 167 237 112
-0.120738 0.041870 0.493000 172 239 113
-0.119458 0.041870 0.493000 178 245 119
-0.118179 0.041870 0.493000 178 243 118
-0.116900 0.041870 0.493000 186 251 126
-0.115620 0.041870 0.493000 187 252 127
-0.114109 0.041786 0.492000 187 252 127
-0.112832 0.041786 0.492000 187 252 129
-0.111782 0.041870 0.493000 187 252 129
-0.110503 0.041870 0.493000 190 255 135
-0.109223 0.041870 0.493000 190 255 135
-0.107944 0.041870 0.493000 187 255 140
-0.106664 0.041870 0.493000 187 255 140
-0.105385 0.041870 0.493000 185 255 145
-0.104106 0.041870 0.493000 186 255 146
-0.102826 0.041870 0.493000 182 255 150
-0.101547 0.041870 0.493000 183 255 151
-0.100268 0.041870 0.493000 179 251 153
-0.098988 0.041870 0.493000 176 248 150
-0.097709 0.041870 0.493000 178 245 147
-0.096429 0.041870 0.493000 174 241 143
-0.095150 0.041870 0.493000 177 235 137
-0.094061 0.041955 0.494000 173 231 133
-0.092779 0.041955 0.494000 170 222 121
-0.091497 0.041955 0.494000 165 217 116
-0.090398 0.042040 0.495000 165 207 108
-0.088933 0.041955 0.494000 163 205 106
-0.087829 0.042040 0.495000 160 197 104
-0.086544 0.042040 0.495000 153 190 97
-0.085259 0.042040 0.495000 146 184 97
-0.083975 0.042040 0.495000 138 176 89
-0.082690 0.042040 0.495000 112 155 78
-0.259483 0.052605 0.601000 187 174 91
-0.257216 0.052780 0.603000 163 178 81
-0.251596 0.054268 0.620000 145 187 76
-0.250391 0.054355 0.621000 139 181 70
-0.249180 0.054443 0.622000 135 182 72
-0.247565 0.054443 0.622000 140 187 77
-0.245951 0.054443 0.622000 141 194 84
-0.244730 0.054530 0.623000 142 195 85
-0.243503 0.054618 0.624000 135 195 85
-0.241884 0.054618 0.624000 136 196 86
-0.240265 0.054618 0.624000 130 193 82
-0.238263 0.054530 0.623000 129 192 81
-0.166593 0.044114 0.504000 157 228 106
-0.164958 0.044027 0.503000 151 222 104
-0.163652 0.044027 0.503000 151 222 104
-0.162347 0.044027 0.503000 151 224 105
-0.161042 0.044027 0.503000 149 222 103
-0.159736 0.044027 0.503000 152 225 104
-0.158746 0.044114 0.504000 150 223 102
-0.157438 0.044114 0.504000 153 222 100
-0.156130 0.044114 0.504000 155 224 102
-0.154822 0.044114 0.504000 156 226 101
-0.153514 0.044114 0.504000 154 224 99
-0.151904 0.044027 0.503000 155 222 96
-0.150599 0.044027 0.503000 157 224 98
-0.149293 0.044027 0.503000 155 222 94
-0.144799 0.043852 0.501000 162 229 101
-0.143499 0.043852 0.501000 163 230 104
-0.141915 0.043764 0.500000 165 232 106
-0.140618 0.043764 0.500000 167 234 110
-0.139042 0.043677 0.499000 170 237 113
-0.137471 0.043589 0.498000 170 239 117
-0.136178 0.043589 0.498000 172 241 119
-0.134615 0.043502 0.497000 171 242 122
-0.133325 0.043502 0.497000 173 244 124
-0.132035 0.043502 0.497000 174 247 126
-0.130483 0.043414 0.496000 174 247 126
-0.129195 0.043414 0.496000 178 251 130
-0.127908 0.043414 0.496000 180 253 132
-0.126366 0.043327 0.495000 183 255 137
-0.125081 0.043327 0.495000 181 254 135
-0.123797 0.043327 0.495000 183 248 136
-0.122265 0.043239 0.494000 182 247 135
-0.120738 0.043152 0.493000 188 243 135
-0.119458 0.043152 0.493000 187 242 134
-0.118179 0.043152 0.493000 187 235 129
-0.116900 0.043152 0.493000 182 230 124
-0.115620 0.043152 0.493000 184 226 125
-0.114341 0.043152 0.493000 181 223 122
-0.112832 0.043064 0.492000 177 217 116
-0.111782 0.043152 0.493000 174 214 113
-0.110503 0.043152 0.493000 163 204 110
-0.109223 0.043152 0.493000 151 192 98
-0.106664 0.043152 0.493000 109 158 72
-0.105385 0.043152 0.493000 92 147 66
-0.104106 0.043152 0.493000 83 138 57
-0.102826 0.043152 0.493000 69 127 56
-0.101547 0.043152 0.493000 68 126 55
-0.098988 0.043152 0.493000 57 117 52
-0.097709 0.043152 0.493000 61 113 51
-0.096429 0.043152 0.493000 61 113 51
-0.095150 0.043152 0.493000 66 106 46
-0.094061 0.043239 0.494000 62 102 42
-0.252388 0.055698 0.618000 169 191 92
-0.251190 0.055789 0.619000 166 196 91
-0.248378 0.055879 0.620000 162 199 90
-0.246769 0.055879 0.620000 161 198 89
-0.243944 0.055969 0.621000 157 206 93
-0.242333 0.055969 0.621000 152 208 95
-0.240721 0.055969 0.621000 153 209 96
-0.239110 0.055969 0.621000 151 212 95
-0.166593 0.045424 0.504000 151 224 101
-0.164958 0.045334 0.503000 150 226 106
-0.163652 0.045334 0.503000 151 227 107
-0.162347 0.045334 0.503000 154 231 113
-0.161042 0.045334 0.503000 156 233 115
-0.159736 0.045334 0.503000 155 233 112
-0.158746 0.045424 0.504000 156 234 113
-0.157438 0.045424 0.504000 157 233 113
-0.156130 0.045424 0.504000 160 236 116
-0.154822 0.045424 0.504000 170 243 120
-0.153514 0.045424 0.504000 166 239 116
-0.151904 0.045334 0.503000 177 244 120
-0.150599 0.045334 0.503000 177 244 120
-0.149293 0.045334 0.503000 181 241 118
-0.144799 0.045154 0.501000 186 239 118
-0.143213 0.045063 0.500000 186 235 122
-0.141915 0.045063 0.500000 185 234 121
-0.140618 0.045063 0.500000 186 232 127
-0.139042 0.044973 0.499000 184 230 125
-0.137471 0.044883 0.498000 177 227 125
-0.136178 0.044883 0.498000 170 220 118
-0.134615 0.044793 0.497000 157 210 114
-0.133325 0.044793 0.497000 143 196 100
-0.132035 0.044793 0.497000 132 189 94
-0.130483 0.044703 0.496000 126 183 88
-0.129195 0.044703 0.496000 118 176 92
-0.127650 0.044613 0.495000 108 166 82
-0.126366 0.044613 0.495000 100 158 76
-0.125081 0.044613 0.495000 98 156 74
-0.252701 0.056655 0.611000 212 187 120
-0.251526 0.056748 0.612000 207 190 120
-0.250346 0.056841 0.613000 209 192 122
-0.248756 0.056841 0.613000 201 192 115
-0.247568 0.056933 0.614000 201 192 115
-0.246375 0.057026 0.615000 193 197 111
-0.245177 0.057119 0.616000 193 197 111
-0.243579 0.057119 0.616000 182 208 112
-0.242373 0.057212 0.617000 181 207 111
-0.240772 0.057212 0.617000 172 211 108
-0.166263 0.046641 0.503000 159 216 112
-0.164958 0.046641 0.503000 148 210 117
-0.163652 0.046641 0.503000 142 204 111
-0.162347 0.046641 0.503000 138 201 115
-0.161042 0.046641 0.503000 138 201 115
-0.159736 0.046641 0.503000 137 200 116
-0.158431 0.046641 0.503000 132 195 111
-0.157438 0.046734 0.504000 125 190 106
-0.156130 0.046734 0.504000 123 188 104
-0.154822 0.046734 0.504000 123 186 100
-0.153514 0.046734 0.504000 119 182 96
-0.151904 0.046641 0.503000 115 171 85
-0.150599 0.046641 0.503000 101 157 71
-0.149293 0.046641 0.503000 91 139 49
-0.261488 0.073114 0.767000 85 112 34
-0.259497 0.073114 0.767000 78 105 29
-0.257507 0.073114 0.767000 76 103 27
-0.255850 0.073209 0.768000 65 98 29
-0.253526 0.073114 0.767000 62 95 26
-0.251536 0.073114 0.767000 51 89 34
-0.249871 0.073209 0.768000 47 85 30
-0.247877 0.073209 0.768000 46 87 38
-0.245884 0.073209 0.768000 46 87 38
-0.243891 0.073209 0.768000 43 86 38
-0.241898 0.073209 0.768000 42 85 37
-0.239905 0.073209 0.768000 36 81 31
-0.237912 0.073209 0.768000 35 80 30
-0.236226 0.073304 0.769000 38 81 33
