ply
format ascii 1.0
element vertex 1970
property float x
property float y
property float z
property uchar red
property uchar green
property uchar blue
end_header
0.262467 0.075899 0.491826 115 158 81
0.261015 0.076038 0.491742 119 162 85
0.259381 0.075179 0.491503 119 165 87
0.257753 0.074319 0.491264 114 160 82
0.256130 0.073459 0.491025 111 159 80
0.254339 0.071600 0.490634 105 153 74
0.263981 0.076265 0.493441 124 178 77
0.262341 0.075408 0.493199 121 178 76
0.260888 0.075546 0.493114 125 182 80
0.259255 0.074688 0.492873 127 184 82
0.257627 0.073829 0.492632 125 182 80
0.255828 0.071973 0.492235 121 180 75
0.254213 0.071113 0.491994 129 188 83
0.252433 0.069255 0.491598 128 190 86
0.250831 0.068394 0.491358 128 190 86
0.249234 0.067532 0.491119 126 186 90
0.247479 0.065672 0.490724 122 182 86
0.263854 0.075773 0.494816 131 188 82
0.262214 0.074917 0.494572 136 193 87
0.260761 0.075055 0.494487 133 190 84
0.259128 0.074197 0.494243 132 192 82
0.257500 0.073340 0.494000 132 192 82
0.255702 0.071485 0.493598 129 193 77
0.254088 0.070626 0.493355 131 195 79
0.252308 0.068770 0.492954 130 194 76
0.250706 0.067910 0.492711 130 194 76
0.249109 0.067049 0.492470 133 199 82
0.247355 0.065190 0.492070 130 196 79
0.245611 0.063330 0.491671 130 195 83
0.243878 0.061470 0.491273 132 197 85
0.242309 0.060606 0.491032 134 195 96
0.240898 0.060741 0.490950 133 194 95
0.239337 0.059877 0.490710 127 180 100
0.237928 0.060011 0.490628 108 161 81
0.263727 0.075281 0.496192 149 208 103
0.262087 0.074425 0.495945 150 209 106
0.260634 0.074563 0.495860 151 210 107
0.259001 0.073707 0.495614 153 210 106
0.257374 0.072850 0.495368 153 210 106
0.255577 0.070997 0.494961 149 209 99
0.253962 0.070139 0.494715 145 205 95
0.252182 0.068285 0.494309 142 206 90
0.250581 0.067425 0.494065 140 204 88
0.249149 0.067561 0.493981 135 201 84
0.247555 0.066701 0.493737 134 200 83
0.245487 0.062850 0.493012 137 203 86
0.243754 0.060992 0.492609 136 202 85
0.242186 0.060129 0.492366 133 201 86
0.240774 0.060263 0.492284 139 207 92
0.239214 0.059400 0.492042 136 204 101
0.237805 0.059534 0.491960 137 205 102
0.236396 0.059668 0.491877 136 197 107
0.234987 0.059802 0.491795 132 193 103
0.233439 0.058938 0.491554 120 174 98
0.263600 0.074789 0.497567 88 136 57
0.261960 0.073934 0.497318 84 131 57
0.260507 0.074072 0.497233 87 134 60
0.258875 0.073216 0.496984 81 127 51
0.257248 0.072360 0.496736 88 134 58
0.255451 0.070509 0.496324 97 145 64
0.253836 0.069652 0.496076 108 156 75
0.252057 0.067799 0.495665 118 170 81
0.250456 0.066941 0.495418 134 186 97
0.249024 0.067077 0.495335 144 202 102
0.247430 0.066218 0.495088 149 207 107
0.245682 0.064362 0.494679 149 211 103
0.243787 0.061509 0.494108 149 211 103
0.242217 0.060648 0.493863 142 207 95
0.240651 0.059786 0.493618 143 208 96
0.239091 0.058923 0.493373 135 202 94
0.237682 0.059057 0.493291 137 204 96
0.236273 0.059192 0.493209 139 206 96
0.234864 0.059326 0.493127 141 208 98
0.233455 0.059460 0.493044 142 208 105
0.231910 0.058596 0.492801 139 205 102
0.230504 0.058730 0.492719 135 193 109
0.229098 0.058864 0.492637 116 174 90
0.263473 0.074296 0.498942 38 69 27
0.261833 0.073442 0.498690 37 67 30
0.260381 0.073581 0.498606 36 66 29
0.258748 0.072726 0.498354 32 62 25
0.257121 0.071871 0.498103 37 67 30
0.255325 0.070021 0.497687 41 71 32
0.253710 0.069165 0.497436 39 69 30
0.251932 0.067314 0.497021 35 69 20
0.250331 0.066456 0.496771 42 76 27
0.248899 0.066593 0.496688 54 95 30
0.247305 0.065734 0.496439 66 107 42
0.245875 0.065870 0.496355 85 133 56
0.243977 0.063021 0.495777 119 167 90
0.242247 0.061165 0.495364 139 194 102
0.240679 0.060304 0.495116 152 207 115
0.239116 0.059443 0.494869 151 212 111
0.237559 0.058581 0.494622 147 208 107
0.236150 0.058715 0.494540 142 206 97
0.234741 0.058849 0.494458 142 206 97
0.233332 0.058983 0.494376 140 205 91
0.231788 0.058120 0.494130 140 205 91
0.230515 0.059251 0.494211 146 210 103
0.228975 0.058388 0.493966 147 211 104
0.227569 0.058522 0.493884 143 205 112
0.226037 0.057657 0.493638 133 195 102
0.224633 0.057791 0.493556 112 163 93
0.223109 0.056926 0.493311 66 117 47
0.247341 0.066244 0.497958 48 72 40
0.245751 0.065387 0.497706 45 75 38
0.244321 0.065523 0.497623 46 76 39
0.242584 0.063670 0.497205 48 83 29
0.240707 0.060821 0.496620 76 111 57
0.239142 0.059960 0.496370 100 145 72
0.237582 0.059100 0.496121 136 181 108
0.236170 0.059234 0.496038 151 206 112
0.234618 0.058372 0.495789 153 208 114
0.233209 0.058507 0.495707 148 212 105
0.231800 0.058641 0.495625 142 206 99
0.230392 0.058775 0.495543 140 207 97
0.228983 0.058909 0.495461 142 209 99
0.227446 0.058046 0.495213 142 209 103
0.226040 0.058180 0.495131 146 213 107
0.224511 0.057316 0.494883 150 212 117
0.222987 0.056452 0.494636 141 203 108
0.221586 0.056585 0.494554 124 178 104
0.220070 0.055720 0.494307 83 137 63
0.218559 0.054855 0.494060 57 93 48
0.286066 0.110462 0.509299 129 176 75
0.284090 0.108634 0.508862 126 179 71
0.282332 0.107793 0.508599 121 174 66
0.237604 0.059617 0.497624 52 75 39
0.236047 0.058756 0.497372 67 101 40
0.234495 0.057896 0.497121 113 147 86
0.233086 0.058030 0.497039 129 179 98
0.231677 0.058164 0.496956 155 205 124
0.230269 0.058298 0.496874 151 212 111
0.228860 0.058432 0.496792 148 209 108
0.227451 0.058566 0.496710 142 209 103
0.225917 0.057704 0.496459 142 209 103
0.224388 0.056841 0.496209 144 211 103
0.222984 0.056975 0.496128 147 214 106
0.221463 0.056111 0.495878 145 213 112
0.219833 0.054250 0.495461 144 212 111
0.218437 0.054383 0.495380 133 191 111
0.217041 0.054516 0.495298 101 159 79
0.288561 0.114723 0.511740 135 185 83
0.286567 0.112898 0.511297 138 188 86
0.282611 0.109244 0.510413 69 119 26
0.234512 0.058413 0.498624 54 71 43
0.232963 0.057553 0.498370 55 80 32
0.231554 0.057687 0.498288 79 104 56
0.230145 0.057822 0.498206 116 162 84
0.228737 0.057956 0.498123 149 195 117
0.227328 0.058090 0.498041 156 217 118
0.225794 0.057228 0.497788 152 213 114
0.224388 0.057362 0.497706 144 211 105
0.222862 0.056500 0.497454 142 209 103
0.221341 0.055637 0.497202 138 209 100
0.219711 0.053778 0.496780 138 209 100
0.218315 0.053910 0.496699 145 213 112
0.216919 0.054043 0.496617 139 207 106
0.215523 0.054176 0.496536 132 192 111
0.292441 0.117836 0.514119 112 148 85
0.290645 0.117000 0.513849 153 189 126
0.288853 0.116164 0.513579 133 187 84
0.287068 0.115328 0.513309 147 201 98
0.285496 0.115477 0.513217 106 154 77
0.230022 0.057345 0.499537 46 72 30
0.228614 0.057479 0.499455 66 92 50
0.227205 0.057613 0.499373 90 132 60
0.225671 0.056753 0.499117 132 174 102
0.224265 0.056886 0.499035 148 208 112
0.222739 0.056025 0.498781 152 212 116
0.221219 0.055163 0.498526 147 214 106
0.219817 0.055297 0.498444 140 207 99
0.218193 0.053438 0.498018 138 208 95
0.216797 0.053571 0.497937 138 208 95
0.215401 0.053704 0.497855 140 208 105
0.214005 0.053837 0.497774 137 205 102
0.212609 0.053970 0.497692 135 195 112
0.292962 0.120256 0.516155 138 179 103
0.291376 0.120407 0.516062 142 183 107
0.289360 0.118588 0.515608 132 189 85
0.287566 0.117753 0.515335 143 200 96
0.227082 0.057137 0.500704 48 73 38
0.225673 0.057271 0.500622 51 76 41
0.224142 0.056411 0.500364 57 100 39
0.222617 0.055550 0.500107 109 152 91
0.221096 0.054689 0.499850 139 194 104
0.219581 0.053828 0.499594 154 209 119
0.218071 0.052966 0.499337 146 211 99
0.216675 0.053099 0.499256 141 206 94
0.215279 0.053232 0.499174 139 207 92
0.213883 0.053365 0.499093 142 210 95
0.212386 0.052501 0.498837 140 209 103
0.210992 0.052634 0.498756 139 208 102
0.209599 0.052767 0.498675 139 200 110
0.293702 0.123655 0.518388 150 195 108
0.291888 0.122823 0.518111 143 188 101
0.290293 0.122974 0.518018 138 195 91
0.288487 0.122142 0.517742 131 188 84
0.222494 0.055075 0.501434 48 69 45
0.220974 0.054215 0.501174 51 87 40
0.219573 0.054349 0.501092 89 125 78
0.217949 0.052494 0.500656 131 185 98
0.216553 0.052627 0.500575 152 206 119
0.215157 0.052760 0.500494 148 216 103
0.213761 0.052892 0.500412 142 210 97
0.212365 0.053025 0.500331 139 209 94
0.210871 0.052163 0.500073 139 209 94
0.209477 0.052295 0.499992 143 213 100
0.208084 0.052428 0.499910 143 213 100
0.206691 0.052561 0.499829 143 203 109
0.295825 0.125911 0.520548 88 109 71
0.294001 0.125081 0.520269 147 193 99
0.292399 0.125233 0.520175 140 186 92
0.290583 0.124402 0.519896 147 203 104
0.219450 0.053875 0.502417 53 67 47
0.217938 0.053015 0.502155 47 80 36
0.216540 0.053148 0.502074 86 119 75
0.215035 0.052287 0.501813 121 177 91
0.213639 0.052420 0.501731 154 210 124
0.212243 0.052553 0.501650 151 218 108
0.210749 0.051691 0.501390 142 209 99
0.209356 0.051824 0.501308 138 209 91
0.207962 0.051957 0.501227 136 207 89
0.206478 0.051094 0.500967 140 208 93
0.205175 0.052222 0.501064 140 208 93
0.203782 0.052355 0.500983 140 197 102
0.202389 0.052487 0.500902 113 170 75
0.297679 0.134205 0.523761 103 122 80
0.294299 0.126503 0.522159 145 192 93
0.292692 0.126656 0.522066 141 188 89
0.291085 0.126809 0.521972 150 203 107
0.216417 0.052675 0.503395 50 66 45
0.215019 0.052808 0.503314 51 84 30
0.213517 0.051948 0.503051 85 118 64
0.212121 0.052081 0.502969 128 185 94
0.210725 0.052214 0.502888 156 213 122
0.209234 0.051353 0.502625 147 214 104
0.207841 0.051485 0.502544 145 212 102
0.206447 0.051618 0.502463 142 211 93
0.205054 0.051751 0.502381 144 213 95
0.203575 0.050888 0.502119 141 209 94
0.202267 0.052016 0.502219 141 209 94
0.200874 0.052148 0.502137 137 194 103
0.199480 0.052281 0.502056 106 163 72
0.297537 0.133654 0.525299 110 130 83
0.295472 0.131847 0.524823 139 186 85
0.294065 0.132983 0.524919 144 191 90
0.292440 0.133137 0.524824 148 204 107
0.290393 0.131328 0.524348 70 126 29
0.211999 0.051609 0.504288 53 86 32
0.210603 0.051741 0.504207 82 115 61
0.209207 0.051874 0.504125 127 182 92
0.207719 0.051014 0.503861 153 208 118
0.206325 0.051147 0.503779 151 216 102
0.204932 0.051279 0.503698 144 209 95
0.203539 0.051412 0.503617 139 208 90
0.202063 0.050550 0.503353 139 208 90
0.200672 0.050683 0.503271 139 206 98
0.199359 0.051810 0.503373 144 211 103
0.197965 0.051942 0.503292 130 186 100
0.297837 0.135064 0.527224 115 136 84
0.295767 0.133259 0.526743 139 187 81
0.295652 0.140278 0.527999 146 194 88
0.293204 0.144516 0.528578 61 116 22
0.292172 0.147618 0.529059 34 70 27
0.210481 0.051269 0.505526 54 70 47
0.209086 0.051402 0.505445 50 80 32
0.207690 0.051535 0.505363 82 112 64
0.206204 0.050675 0.505096 126 178 87
0.204810 0.050808 0.505015 157 209 118
0.203417 0.050940 0.504933 154 219 107
0.202024 0.051073 0.504852 146 211 99
0.200630 0.051206 0.504771 141 209 96
0.199237 0.051338 0.504690 142 210 97
0.197843 0.051471 0.504608 145 214 108
0.196450 0.051604 0.504527 142 211 105
0.195057 0.051736 0.504446 125 180 97
0.298137 0.136470 0.529159 115 134 81
0.296280 0.135647 0.528868 147 194 91
0.296155 0.142661 0.530141 151 198 95
0.293270 0.144936 0.530338 65 122 27
0.292859 0.150977 0.531412 36 69 27
0.207568 0.051063 0.506682 57 73 50
0.206172 0.051196 0.506601 53 85 36
0.204689 0.050336 0.506332 94 126 77
0.203295 0.050469 0.506250 132 184 95
0.201902 0.050602 0.506169 161 213 124
0.200509 0.050734 0.506088 155 219 110
0.199115 0.050867 0.506006 149 213 104
0.197722 0.051000 0.505925 142 212 99
0.196328 0.051132 0.505844 138 208 95
0.194935 0.051265 0.505763 142 211 103
0.193542 0.051398 0.505681 133 202 94
0.192148 0.051530 0.505600 111 166 85
0.298214 0.136894 0.530905 112 130 84
0.296792 0.138029 0.531008 155 205 105
0.294570 0.143238 0.531805 146 202 103
0.293546 0.146334 0.532301 81 137 38
0.292921 0.151390 0.533191 36 67 21
0.204654 0.050856 0.507839 52 68 45
0.203174 0.049998 0.507567 56 89 43
0.201780 0.050130 0.507486 104 137 91
0.200387 0.050263 0.507405 145 199 112
0.198993 0.050396 0.507323 162 216 129
0.197600 0.050528 0.507242 153 221 108
0.196207 0.050661 0.507161 144 212 99
0.194813 0.050794 0.507079 141 210 90
0.193420 0.050926 0.506998 142 211 91
0.192027 0.051059 0.506917 138 205 97
0.190633 0.051191 0.506835 133 200 92
0.298512 0.138294 0.532857 101 118 81
0.297302 0.140407 0.533162 159 209 118
0.294639 0.143656 0.533570 153 210 108
0.294031 0.148706 0.534473 98 155 53
0.293190 0.152780 0.535176 37 70 16
0.201659 0.049659 0.508803 54 75 51
0.200265 0.049792 0.508721 70 108 53
0.198872 0.049924 0.508640 118 156 101
0.197478 0.050057 0.508559 154 211 118
0.196085 0.050190 0.508477 161 218 125
0.194692 0.050322 0.508396 152 221 103
0.193298 0.050455 0.508315 146 215 97
0.191905 0.050587 0.508234 136 206 91
0.190511 0.050720 0.508152 138 208 93
0.189118 0.050853 0.508071 139 205 102
0.187725 0.050985 0.507990 119 185 82
0.299029 0.140668 0.535022 86 101 74
0.295937 0.141960 0.535031 151 199 118
0.295131 0.146027 0.535745 155 211 114
0.294305 0.150096 0.536458 114 170 73
0.198750 0.049453 0.509957 53 74 50
0.197357 0.049586 0.509875 75 113 54
0.195963 0.049718 0.509794 133 171 112
0.194570 0.049851 0.509713 159 220 121
0.193177 0.049983 0.509632 164 225 126
0.191783 0.050116 0.509550 157 227 112
0.190390 0.050249 0.509469 146 216 101
0.188996 0.050381 0.509388 139 210 99
0.187603 0.050514 0.509306 143 214 103
0.186210 0.050647 0.509225 139 204 108
0.299985 0.144987 0.537612 62 81 55
0.297449 0.141242 0.536693 146 195 121
0.296008 0.142376 0.536802 153 202 128
0.295411 0.147416 0.537730 153 211 113
0.294578 0.151482 0.538453 121 179 81
0.195842 0.049247 0.511111 61 83 54
0.194448 0.049379 0.511030 91 136 65
0.193055 0.049512 0.510948 151 196 125
0.191661 0.049645 0.510867 163 227 122
0.190268 0.049777 0.510786 160 224 119
0.188817 0.048919 0.510508 146 216 103
0.187426 0.049051 0.510427 142 212 99
0.186088 0.050175 0.510542 138 207 99
0.184694 0.050308 0.510461 144 213 105
0.297739 0.142632 0.538674 147 195 118
0.296721 0.145716 0.539200 163 211 134
0.295689 0.148802 0.539725 152 212 116
0.294641 0.151889 0.540249 129 189 93
0.194259 0.047919 0.512147 51 79 43
0.192868 0.048051 0.512066 68 96 60
0.191540 0.049173 0.512184 109 157 76
0.190086 0.048316 0.511904 158 206 125
0.188753 0.049439 0.512021 162 227 115
0.187360 0.049571 0.511940 158 223 111
0.185966 0.049704 0.511859 153 221 106
0.184573 0.049837 0.511777 147 215 100
0.183179 0.049969 0.511696 151 217 114
0.181831 0.051093 0.511813 141 207 104
0.298462 0.145967 0.541085 137 178 104
0.297219 0.148075 0.541407 173 214 140
0.295966 0.150184 0.541729 159 220 121
0.294494 0.151319 0.541841 142 203 104
0.191356 0.047713 0.513299 51 82 38
0.190025 0.048835 0.513419 78 109 65
0.188631 0.048967 0.513338 140 191 105
0.187238 0.049100 0.513257 168 219 133
0.185845 0.049232 0.513175 164 229 115
0.184451 0.049365 0.513094 156 221 107
0.183058 0.049498 0.513013 153 218 104
0.181709 0.050621 0.513132 147 212 98
0.180313 0.050754 0.513050 154 213 110
0.298966 0.148322 0.543302 101 139 66
0.297501 0.149455 0.543417 170 208 135
0.296031 0.150589 0.543531 163 222 117
0.294556 0.151724 0.543645 154 213 108
0.293695 0.155782 0.544395 65 106 39
0.189843 0.047375 0.514533 60 75 57
0.188510 0.048496 0.514655 61 92 46
0.187116 0.048629 0.514574 109 140 94
0.185723 0.048761 0.514492 152 207 117
0.184329 0.048894 0.514411 167 222 132
0.182936 0.049026 0.514330 163 227 111
0.181587 0.050149 0.514451 163 227 111
0.180233 0.051272 0.514572 159 220 101
0.178834 0.051405 0.514490 157 218 99
0.299253 0.149699 0.545320 75 110 42
0.297568 0.149859 0.545221 162 197 129
0.296095 0.150992 0.545338 162 219 115
0.294617 0.152126 0.545454 159 216 112
0.293959 0.157155 0.546428 103 149 71
0.186995 0.048157 0.515890 58 76 55
0.185601 0.048290 0.515809 73 113 55
0.184257 0.049411 0.515933 133 173 115
0.182861 0.049544 0.515852 167 225 125
0.181465 0.049677 0.515770 173 231 131
0.180110 0.050799 0.515894 163 227 109
0.178751 0.051921 0.516017 159 223 105
0.177386 0.053044 0.516140 165 226 111
0.299322 0.150101 0.547129 57 91 30
0.297635 0.150261 0.547031 160 194 133
0.295948 0.150422 0.546932 162 219 117
0.294678 0.152527 0.547268 165 222 120
0.293810 0.156579 0.548037 135 184 98
0.185634 0.050781 0.517750 53 75 46
0.184233 0.050914 0.517668 59 81 52
0.182878 0.052035 0.517794 107 155 78
0.181431 0.051181 0.517504 158 206 129
0.180030 0.051314 0.517423 169 232 121
0.178628 0.051447 0.517341 165 228 117
0.177263 0.052570 0.517466 165 231 112
0.175893 0.053692 0.517591 157 223 104
0.297915 0.151633 0.549064 141 173 122
0.296223 0.151794 0.548966 162 219 117
0.294947 0.153898 0.549306 168 225 123
0.292366 0.158109 0.549985 38 93 3
0.182894 0.054521 0.519750 50 79 36
0.181483 0.054655 0.519668 83 112 69
0.180030 0.053802 0.519376 126 181 87
0.178583 0.052949 0.519084 167 222 128
0.175804 0.054205 0.519129 161 227 108
0.174395 0.054339 0.519047 158 223 109
0.172986 0.054473 0.518965 157 222 108
0.298194 0.153000 0.551108 113 142 99
0.296707 0.154132 0.551231 165 221 122
0.293719 0.156398 0.551476 159 216 123
0.292420 0.158502 0.551820 72 129 36
0.291110 0.160608 0.552164 38 68 31
0.179989 0.055299 0.521132 53 88 32
0.178537 0.054447 0.520837 108 143 87
0.177089 0.053594 0.520543 158 218 108
0.175681 0.053728 0.520461 170 230 120
0.174272 0.053862 0.520379 160 226 107
0.172863 0.053996 0.520296 154 220 101
0.171454 0.054130 0.520214 158 222 115
0.170068 0.055253 0.520343 151 215 108
0.299111 0.157273 0.553836 69 93 63
0.297190 0.156466 0.553511 164 219 125
0.295275 0.155659 0.553187 168 223 129
0.293775 0.156791 0.553312 165 225 129
0.292473 0.158894 0.553661 94 154 58
0.290961 0.160028 0.553785 33 66 22
0.178565 0.057913 0.523029 54 76 49
0.177073 0.056076 0.522517 87 134 62
0.175623 0.055224 0.522221 148 195 123
0.174179 0.054372 0.521924 166 229 116
0.172740 0.053520 0.521628 159 222 109
0.171331 0.053654 0.521546 157 220 107
0.169945 0.054775 0.521677 161 224 111
0.168533 0.054910 0.521595 156 217 116
0.167139 0.056032 0.521726 135 196 95
0.299175 0.157663 0.555679 48 69 45
0.297251 0.156857 0.555352 152 206 121
0.295541 0.157020 0.555252 168 222 137
0.294036 0.158152 0.555379 165 227 130
0.292323 0.158315 0.555279 127 189 92
0.291011 0.160417 0.555632 32 69 17
0.177054 0.058553 0.524506 49 80 38
0.175598 0.057703 0.524207 77 108 66
0.174116 0.055867 0.523691 125 176 90
0.172644 0.054029 0.523176 167 218 132
0.171233 0.054164 0.523093 163 228 114
0.169822 0.054298 0.523011 156 221 107
0.168410 0.054432 0.522929 155 220 106
0.167016 0.055554 0.523062 156 221 107
0.165602 0.055688 0.522979 148 203 111
0.297312 0.157246 0.557198 120 168 91
0.295599 0.157409 0.557098 169 217 140
0.293887 0.157572 0.556998 164 224 128
0.292376 0.158704 0.557127 154 214 118
0.290861 0.159836 0.557255 44 87 26
0.172576 0.055522 0.524947 114 150 89
0.171134 0.054672 0.524646 159 217 117
0.169720 0.054806 0.524563 167 225 125
0.168306 0.054941 0.524481 156 221 107
0.166892 0.055075 0.524398 151 216 102
0.165493 0.056196 0.524534 158 221 110
0.164076 0.056331 0.524451 148 211 100
0.162669 0.057453 0.524586 112 160 81
0.297372 0.157634 0.559048 89 130 63
0.295657 0.157797 0.558948 169 210 143
0.293942 0.157960 0.558848 158 216 116
0.292429 0.159091 0.558979 161 219 119
0.290711 0.159255 0.558879 92 139 67
0.289584 0.162323 0.559472 23 70 0
0.172533 0.057996 0.526949 51 71 38
0.171060 0.056162 0.526424 84 127 50
0.169619 0.055313 0.526120 152 195 118
0.168202 0.055448 0.526038 165 229 120
0.166786 0.055582 0.525955 157 221 112
0.165369 0.055717 0.525872 151 220 102
0.163952 0.055852 0.525790 156 225 107
0.162545 0.056973 0.525927 155 217 113
0.161132 0.058094 0.526064 124 186 82
0.297432 0.158020 0.560903 50 83 25
0.295714 0.158183 0.560803 160 193 135
0.293996 0.158347 0.560703 162 219 117
0.292279 0.158510 0.560603 165 222 120
0.290760 0.159641 0.560736 129 180 94
0.289433 0.161739 0.561103 24 75 0
0.171008 0.058634 0.528435 47 73 31
0.169538 0.056801 0.527906 77 103 61
0.168116 0.056937 0.527823 133 185 92
0.166678 0.056088 0.527517 168 220 127
0.165259 0.056223 0.527434 155 221 104
0.163840 0.056358 0.527351 153 219 102
0.162421 0.056493 0.527268 155 221 102
0.161008 0.057613 0.527408 154 220 101
0.159590 0.058734 0.527547 132 186 101
0.295771 0.158567 0.562663 119 151 100
0.294051 0.158731 0.562563 164 217 119
0.292330 0.158895 0.562462 166 219 121
0.290809 0.160025 0.562598 148 203 109
0.289479 0.162122 0.562970 48 103 9
0.168011 0.057439 0.529392 64 99 41
0.166587 0.057575 0.529309 120 155 97
0.165149 0.056726 0.529000 161 218 112
0.163727 0.056862 0.528917 158 215 109
0.162314 0.057981 0.529059 150 217 93
0.160890 0.058117 0.528976 148 215 91
0.159469 0.059237 0.529118 153 218 106
0.296034 0.159915 0.564767 77 103 61
0.294105 0.159114 0.564427 162 213 117
0.292583 0.160243 0.564566 168 219 123
0.290857 0.160407 0.564465 157 214 112
0.289524 0.162503 0.564841 93 150 48
0.288375 0.165565 0.565455 29 62 18
0.166478 0.058076 0.530883 63 83 50
0.165038 0.057228 0.530572 99 145 69
0.163614 0.057364 0.530488 160 206 130
0.162198 0.058483 0.530633 161 225 105
0.160771 0.058619 0.530550 149 213 93
0.159344 0.058755 0.530466 146 213 87
0.157917 0.058890 0.530383 150 217 91
0.156488 0.060011 0.530527 142 202 106
0.296503 0.162222 0.567122 59 76 46
0.294362 0.160459 0.566538 141 189 101
0.292633 0.160624 0.566438 169 217 129
0.290905 0.160788 0.566337 159 219 109
0.289569 0.162882 0.566718 136 196 86
0.288223 0.164977 0.567098 33 73 15
0.164927 0.057729 0.532148 49 78 33
0.163500 0.057864 0.532065 85 114 69
0.162073 0.058000 0.531981 144 199 105
0.160646 0.058136 0.531898 161 216 122
0.159222 0.059255 0.532044 149 216 90
0.157793 0.059391 0.531961 146 213 87
0.156364 0.059527 0.531878 141 210 92
0.154929 0.060647 0.532023 139 208 90
0.294618 0.161801 0.568659 103 144 70
0.292885 0.161965 0.568558 173 214 140
0.291151 0.162130 0.568457 159 218 111
0.289614 0.163259 0.568599 152 211 104
0.288264 0.165353 0.568984 68 113 42
0.163386 0.058363 0.533645 52 67 42
0.161956 0.058499 0.533562 69 108 42
0.160527 0.058635 0.533479 138 177 111
0.159098 0.058771 0.533395 160 220 108
0.157668 0.058908 0.533312 156 216 104
0.156236 0.060026 0.533460 145 215 90
0.154804 0.060163 0.533377 138 208 83
0.153372 0.060299 0.533293 142 204 100
0.294873 0.163139 0.570789 59 95 34
0.293135 0.163304 0.570688 160 196 135
0.291198 0.162507 0.570341 159 218 113
0.289658 0.163635 0.570485 158 217 112
0.288112 0.164764 0.570629 104 155 71
0.286562 0.165893 0.570773 24 75 0
0.161832 0.058016 0.534913 49 73 34
0.160402 0.058152 0.534829 71 95 56
0.158973 0.058288 0.534746 131 181 88
0.157543 0.059406 0.534897 169 219 126
0.156111 0.059542 0.534813 155 219 101
0.154679 0.059678 0.534730 148 212 94
0.153239 0.060797 0.534880 147 213 94
0.151805 0.060933 0.534796 146 212 93
0.294925 0.163512 0.572681 38 65 16
0.293183 0.163678 0.572579 130 157 108
0.291442 0.163843 0.572478 162 218 119
0.289701 0.164009 0.572376 157 213 114
0.287960 0.164175 0.572275 136 191 99
0.286409 0.165303 0.572421 34 89 0
0.158850 0.058785 0.536334 65 98 40
0.157418 0.058921 0.536250 131 164 106
0.155986 0.059057 0.536167 160 218 109
0.154549 0.060175 0.536320 159 217 108
0.153114 0.060311 0.536236 146 212 91
0.151669 0.061430 0.536388 143 209 88
0.150218 0.062548 0.536540 142 206 101
0.293232 0.164049 0.574476 91 114 80
0.291290 0.163254 0.574123 166 218 127
0.289549 0.163420 0.574022 155 207 116
0.288001 0.164547 0.574170 153 211 113
0.286447 0.165675 0.574319 67 125 27
0.284701 0.165841 0.574217 32 63 17
0.157293 0.058437 0.537604 64 81 53
0.155858 0.059553 0.537759 96 139 60
0.154418 0.060670 0.537914 159 202 123
0.152980 0.060807 0.537830 156 217 98
0.151532 0.061924 0.537985 149 210 91
0.150079 0.063042 0.538139 143 206 93
0.148605 0.065142 0.538532 145 208 95
0.147139 0.066262 0.538685 130 185 104
0.145668 0.067381 0.538839 68 123 42
0.293280 0.164419 0.576377 50 69 43
0.291336 0.163625 0.576022 157 203 123
0.289592 0.163791 0.575920 159 205 125
0.287848 0.163957 0.575818 155 217 111
0.286295 0.165084 0.575969 115 177 71
0.284548 0.165250 0.575867 30 70 14
0.155729 0.060047 0.539356 52 82 34
0.154286 0.061163 0.539514 85 115 67
0.152838 0.062280 0.539671 149 202 104
0.151385 0.063397 0.539828 161 214 116
0.149926 0.064515 0.539984 148 211 98
0.148462 0.065633 0.540140 143 206 93
0.146993 0.066752 0.540296 144 207 107
0.145541 0.066890 0.540212 130 193 93
0.144088 0.067028 0.540127 73 116 55
0.293127 0.163828 0.578027 46 60 40
0.291381 0.163995 0.577925 117 159 89
0.289635 0.164161 0.577823 168 210 140
0.287888 0.164327 0.577721 158 217 112
0.286142 0.164493 0.577619 149 208 103
0.284396 0.164660 0.577518 51 97 28
0.154148 0.062633 0.541362 57 74 48
0.151247 0.063887 0.541436 147 186 120
0.149786 0.065004 0.541595 161 223 117
0.148319 0.066122 0.541754 150 212 106
0.146867 0.066260 0.541669 151 215 106
0.145414 0.066399 0.541584 151 215 106
0.143937 0.067517 0.541742 136 192 106
0.291228 0.163404 0.579575 61 96 38
0.289482 0.163570 0.579473 164 199 141
0.287736 0.163736 0.579372 159 217 117
0.285990 0.163903 0.579270 156 214 114
0.284243 0.164069 0.579168 100 150 73
0.282681 0.165195 0.579323 24 74 0
0.152559 0.064238 0.543135 47 73 33
0.151109 0.064376 0.543050 76 102 62
0.149645 0.065492 0.543211 137 191 104
0.148192 0.065631 0.543127 164 218 131
0.146740 0.065769 0.543042 151 215 108
0.145265 0.066886 0.543202 149 213 106
0.143810 0.067025 0.543117 148 211 109
0.142328 0.068143 0.543278 133 196 94
0.140811 0.070242 0.543682 77 121 53
0.291076 0.162813 0.581226 35 65 15
0.289330 0.162979 0.581124 143 173 123
0.287583 0.163146 0.581022 159 217 119
0.285837 0.163312 0.580920 157 215 117
0.284277 0.164437 0.581078 141 196 106
0.282713 0.165562 0.581236 49 104 14
0.149518 0.065001 0.544584 56 96 36
0.148065 0.065139 0.544499 134 174 114
0.146593 0.066256 0.544662 160 223 121
0.145138 0.066394 0.544578 151 214 112
0.143658 0.067511 0.544740 149 213 106
0.142173 0.068629 0.544903 153 217 110
0.140653 0.070726 0.545312 138 195 104
0.139156 0.071845 0.545473 78 135 44
0.289371 0.163346 0.583037 106 130 91
0.287431 0.162555 0.582672 167 219 128
0.285685 0.162721 0.582570 162 214 123
0.284125 0.163845 0.582731 152 210 110
0.282560 0.164969 0.582891 95 153 53
0.280989 0.166094 0.583051 27 59 10
0.147921 0.065625 0.546123 57 84 51
0.146466 0.065763 0.546038 124 180 94
0.144989 0.066879 0.546203 160 216 130
0.143506 0.067996 0.546368 154 221 113
0.141991 0.070090 0.546782 149 216 108
0.140495 0.071208 0.546946 155 217 113
0.138995 0.072326 0.547110 134 196 92
0.289218 0.162754 0.584689 58 75 47
0.287470 0.162920 0.584587 148 195 112
0.285721 0.163087 0.584485 167 214 131
0.283972 0.163253 0.584383 157 216 109
0.282407 0.164377 0.584546 135 194 87
0.280836 0.165501 0.584708 40 80 20
0.146319 0.066247 0.547666 50 94 39
0.144839 0.067363 0.547833 122 166 111
0.143328 0.069455 0.548253 161 224 124
0.141835 0.070572 0.548419 157 220 120
0.140337 0.071689 0.548586 154 216 108
0.138833 0.072806 0.548752 151 213 105
0.137325 0.073924 0.548918 138 192 105
0.287508 0.163284 0.586507 88 128 59
0.285756 0.163451 0.586405 172 212 143
0.284005 0.163618 0.586303 153 213 101
0.282254 0.163784 0.586201 150 210 98
0.280683 0.164907 0.586366 79 129 52
0.144689 0.067844 0.549468 59 88 56
0.143175 0.069935 0.549892 118 170 95
0.141679 0.071051 0.550061 162 214 139
0.140178 0.072168 0.550230 163 225 121
0.138672 0.073285 0.550399 156 218 114
0.137196 0.073425 0.550313 147 205 107
0.135682 0.074543 0.550481 137 195 97
0.287546 0.163646 0.588432 48 81 25
0.285604 0.162858 0.588060 142 175 119
0.283852 0.163025 0.587958 161 220 115
0.282284 0.164147 0.588125 153 212 107
0.280710 0.165269 0.588292 130 187 92
0.143021 0.070414 0.551537 46 82 35
0.141523 0.071529 0.551708 118 154 107
0.140019 0.072645 0.551879 159 218 129
0.138543 0.072785 0.551793 163 222 133
0.137031 0.073902 0.551964 155 218 116
0.135476 0.075995 0.552391 144 207 105
0.287774 0.164960 0.590635 35 61 19
0.285827 0.164174 0.590260 95 121 79
0.284070 0.164341 0.590157 164 222 124
0.282313 0.164508 0.590055 154 212 114
0.280557 0.164675 0.589952 150 211 110
0.277394 0.166920 0.590290 28 61 17
0.141394 0.071031 0.553101 58 82 54
0.139890 0.072146 0.553274 121 169 102
0.138381 0.073261 0.553447 162 210 143
0.136866 0.074377 0.553620 156 219 119
0.133781 0.077586 0.554224 143 205 108
0.132204 0.079679 0.554654 127 189 92
0.285861 0.164532 0.592194 56 75 45
0.284102 0.164700 0.592092 148 202 115
0.282343 0.164867 0.591989 164 218 131
0.280584 0.165035 0.591887 155 218 118
0.278825 0.165202 0.591784 117 180 80
0.277415 0.167278 0.592229 23 66 5
0.139730 0.072620 0.554931 53 91 47
0.138218 0.073735 0.555106 132 170 126
0.135139 0.076941 0.555717 150 211 121
0.133568 0.079032 0.556153 147 213 110
0.132030 0.080149 0.556327 148 214 111
0.130487 0.081267 0.556501 130 185 104
0.286082 0.165841 0.594411 36 52 29
0.284318 0.166009 0.594308 112 159 85
0.282372 0.165225 0.593928 170 217 143
0.280610 0.165392 0.593826 159 220 119
0.279025 0.166513 0.593999 145 206 105
0.277261 0.166681 0.593896 51 100 26
0.138054 0.074207 0.556770 69 92 67
0.134970 0.077411 0.557388 160 213 135
0.133395 0.079500 0.557828 160 223 121
0.131855 0.080617 0.558005 151 214 112
0.130309 0.081734 0.558181 149 209 115
0.284349 0.166364 0.596255 45 86 23
0.282582 0.166532 0.596152 165 206 143
0.280815 0.166700 0.596048 163 225 121
0.279048 0.166869 0.595945 152 214 110
0.277281 0.167037 0.595842 104 158 71
0.275687 0.168158 0.596018 12 66 0
0.136368 0.075792 0.558618 53 90 40
0.134761 0.078852 0.559330 124 161 111
0.133223 0.079967 0.559509 159 220 121
0.131635 0.082056 0.559953 154 215 116
0.130084 0.083173 0.560131 151 210 105
0.128478 0.085264 0.560575 145 204 99
0.284379 0.166717 0.598206 33 67 18
0.282610 0.166885 0.598103 132 166 117
0.281020 0.168005 0.598281 168 226 128
0.279248 0.168173 0.598178 159 217 119
0.277476 0.168342 0.598074 139 195 98
0.275875 0.169463 0.598252 38 94 0
0.134591 0.079317 0.561013 61 83 54
0.133008 0.081404 0.561462 133 183 102
0.131370 0.084465 0.562180 164 214 133
0.129810 0.085581 0.562360 156 215 110
0.128246 0.086699 0.562539 153 212 107
0.126677 0.087816 0.562719 140 195 105
0.282819 0.168187 0.600343 83 111 75
0.281044 0.168356 0.600240 166 221 131
0.279269 0.168525 0.600136 164 219 129
0.277495 0.168693 0.600033 147 206 103
0.275720 0.168862 0.599929 97 156 53
0.274115 0.169982 0.600109 23 62 11
0.132792 0.082838 0.563426 73 112 50
0.131148 0.085897 0.564150 152 191 129
0.129583 0.087013 0.564332 160 218 118
0.128014 0.088129 0.564514 152 210 110
0.126491 0.088274 0.564425 148 209 110
0.282845 0.168535 0.602307 43 65 36
0.281068 0.168705 0.602203 131 181 100
0.279291 0.168874 0.602099 170 220 139
0.277514 0.169043 0.601996 154 212 112
0.275737 0.169212 0.601892 133 191 91
0.273959 0.169381 0.601788 40 86 21
0.130925 0.087325 0.566130 89 115 73
0.129355 0.088441 0.566315 152 204 115
0.127830 0.088586 0.566226 156 208 119
0.124725 0.089848 0.566320 142 203 102
0.280913 0.168103 0.603882 65 109 43
0.279136 0.168273 0.603779 171 215 149
0.277359 0.168442 0.603675 157 215 117
0.275581 0.168611 0.603571 152 210 112
0.273973 0.169730 0.603756 93 142 68
0.272193 0.169899 0.603652 14 63 0
0.129174 0.088895 0.568031 93 138 67
0.127596 0.090010 0.568217 157 202 131
0.126013 0.091127 0.568403 154 215 116
0.280936 0.168450 0.605853 37 75 20
0.279156 0.168619 0.605749 142 180 125
0.277377 0.168789 0.605645 166 222 123
0.275597 0.168958 0.605542 154 210 111
0.273817 0.169127 0.605438 138 191 109
0.272037 0.169297 0.605334 33 86 4
0.128800 0.093224 0.570864 46 80 29
0.127209 0.094340 0.571052 118 152 101
0.125666 0.094487 0.570962 150 207 112
0.279001 0.168017 0.607431 102 128 86
0.277221 0.168187 0.607327 171 224 128
0.275441 0.168356 0.607223 166 219 123
0.273662 0.168525 0.607120 157 212 118
0.272047 0.169643 0.607309 77 132 38
0.126972 0.095755 0.573071 69 91 62
0.279021 0.168361 0.609409 50 72 41
0.277239 0.168531 0.609305 158 206 118
0.275456 0.168701 0.609201 176 224 136
0.273674 0.168870 0.609097 161 218 116
0.272057 0.169987 0.609288 123 180 78
0.270272 0.170157 0.609184 22 65 15
0.103971 0.189838 0.600625 51 57 17
0.279041 0.168704 0.611392 36 52 29
0.277256 0.168873 0.611287 99 140 62
0.275471 0.169043 0.611183 181 222 144
0.273686 0.169213 0.611079 164 221 117
0.271901 0.169383 0.610975 154 211 107
0.270279 0.170500 0.611169 40 90 29
0.103814 0.189231 0.602321 53 60 13
0.101939 0.190371 0.602500 45 55 41
0.277100 0.168270 0.612974 53 88 20
0.275315 0.168440 0.612870 167 202 134
0.273697 0.169555 0.613066 171 228 124
0.271910 0.169725 0.612962 162 219 115
0.270122 0.169895 0.612858 94 146 71
0.268654 0.171957 0.613353 16 68 0
0.103580 0.189592 0.604304 96 103 61
0.101782 0.189763 0.604199 42 50 35
0.277116 0.168610 0.614964 33 64 11
0.275329 0.168780 0.614860 134 165 112
0.273541 0.168950 0.614755 174 227 129
0.271918 0.170065 0.614954 169 222 124
0.270290 0.171180 0.615152 138 192 105
0.268498 0.171350 0.615047 37 91 4
0.103345 0.189951 0.606291 103 111 80
0.101465 0.191090 0.606474 40 49 31
0.275511 0.170061 0.617160 69 95 55
0.273719 0.170232 0.617055 166 218 129
0.271926 0.170403 0.616950 171 223 134
0.270134 0.170573 0.616846 157 212 118
0.268500 0.171688 0.617046 87 142 48
0.266861 0.172803 0.617246 21 57 14
0.103110 0.190309 0.608283 62 74 46
0.101307 0.190480 0.608178 47 55 40
0.275524 0.170397 0.619161 40 59 31
0.273729 0.170568 0.619057 130 177 103
0.271934 0.170739 0.618952 176 223 149
0.270300 0.171853 0.619155 164 222 122
0.268502 0.172024 0.619050 130 188 88
0.266861 0.173138 0.619252 36 76 18
0.102875 0.190664 0.610281 48 58 31
0.101069 0.190836 0.610175 51 59 44
0.275536 0.170731 0.621168 39 56 30
0.273738 0.170902 0.621063 72 113 48
0.271941 0.171073 0.620958 168 209 144
0.270143 0.171245 0.620854 166 224 124
0.268504 0.172358 0.621058 150 208 108
0.266704 0.172529 0.620953 83 129 60
0.104598 0.188917 0.611796 95 101 59
0.102639 0.191019 0.612283 49 55 13
0.100831 0.191191 0.612177 54 57 39
0.273748 0.171235 0.623075 34 72 13
0.271947 0.171406 0.622970 140 178 119
0.270147 0.171578 0.622865 166 225 122
0.268347 0.171749 0.622760 156 215 112
0.266702 0.172862 0.622966 112 165 87
0.264899 0.173034 0.622861 22 75 0
0.102402 0.191371 0.614289 79 72 12
0.100592 0.191543 0.614184 61 54 23
0.273590 0.170626 0.624776 30 62 13
0.271790 0.170797 0.624671 91 123 74
0.269990 0.170969 0.624566 165 223 123
0.268348 0.172081 0.624775 160 218 118
0.266545 0.172252 0.624670 142 199 106
0.264895 0.173365 0.624879 46 103 10
0.111232 0.190859 0.616830 117 119 83
0.109487 0.190069 0.616423 154 156 120
0.107676 0.190241 0.616317 174 173 106
0.105866 0.190414 0.616212 175 174 107
0.102244 0.190758 0.616000 155 144 79
0.100434 0.190931 0.615895 103 89 41
0.271796 0.171127 0.626690 59 82 48
0.269993 0.171299 0.626584 153 206 110
0.268190 0.171471 0.626479 167 220 124
0.266543 0.172582 0.626691 147 209 105
0.264737 0.172754 0.626585 93 155 51
0.263082 0.173867 0.626797 27 65 19
0.107447 0.190590 0.618332 82 79 38
0.105634 0.190763 0.618226 93 90 49
0.103820 0.190936 0.618120 114 106 51
0.102007 0.191108 0.618015 159 151 96
0.100194 0.191281 0.617909 172 158 112
0.271801 0.171456 0.628713 42 59 33
0.269996 0.171628 0.628608 115 163 75
0.268190 0.171800 0.628502 169 217 129
0.266385 0.171971 0.628397 157 216 109
0.264732 0.173083 0.628611 135 194 87
0.262924 0.173255 0.628505 31 74 15
0.271644 0.170845 0.630419 47 61 39
0.269838 0.171017 0.630314 70 111 35
0.268033 0.171189 0.630209 168 209 133
0.266227 0.171361 0.630103 165 223 114
0.264574 0.172471 0.630319 152 210 101
0.262766 0.172643 0.630214 62 109 35
0.261105 0.173754 0.630430 23 70 0
0.269840 0.171343 0.632345 40 76 11
0.268032 0.171515 0.632239 144 180 115
0.266224 0.171687 0.632134 165 222 116
0.264568 0.172797 0.632352 159 216 110
0.262758 0.172969 0.632246 110 162 73
0.260947 0.173142 0.632141 20 72 0
0.269683 0.170731 0.634053 32 60 4
0.267874 0.170904 0.633948 116 144 88
0.266221 0.172012 0.634169 165 218 110
0.264410 0.172185 0.634063 165 218 110
0.262600 0.172357 0.633957 141 194 98
0.260789 0.172529 0.633852 41 94 0
0.267873 0.171227 0.635985 59 81 36
0.266063 0.171400 0.635880 158 208 106
0.264252 0.171572 0.635774 165 215 113
0.262442 0.171744 0.635669 153 207 102
0.260631 0.171917 0.635563 88 142 37
0.258964 0.173026 0.635786 24 61 11
0.267715 0.170615 0.637697 38 61 27
0.265905 0.170787 0.637591 134 182 92
0.264094 0.170960 0.637485 164 212 122
0.262283 0.171132 0.637380 157 212 104
0.260619 0.172240 0.637605 119 174 66
0.258806 0.172412 0.637499 29 70 7
0.267557 0.170002 0.639408 37 56 30
0.265747 0.170175 0.639302 76 120 38
0.263936 0.170347 0.639196 165 209 127
0.262274 0.171454 0.639424 159 214 104
0.260461 0.171626 0.639318 146 201 91
0.258648 0.171799 0.639213 58 100 30
0.265742 0.170495 0.641349 44 83 17
0.263929 0.170668 0.641244 149 188 122
0.262116 0.170840 0.641138 152 208 95
0.260302 0.171013 0.641032 154 210 97
0.258489 0.171185 0.640926 106 153 70
0.265584 0.169882 0.643063 31 64 10
0.263770 0.170054 0.642957 115 148 94
0.261957 0.170227 0.642851 154 211 105
0.260144 0.170400 0.642745 153 210 104
0.256658 0.171678 0.642872 31 84 0
0.263612 0.169441 0.644671 64 90 48
0.261799 0.169614 0.644565 154 208 107
0.258315 0.170891 0.644694 147 206 101
0.256500 0.171064 0.644588 62 121 16
0.263604 0.169758 0.646728 42 62 29
0.261788 0.169931 0.646622 136 186 93
0.259973 0.170104 0.646516 162 212 119
0.258157 0.170277 0.646410 150 212 104
0.256341 0.170450 0.646304 101 163 55
0.254663 0.171554 0.646540 19 55 8
0.263445 0.169144 0.648443 42 59 33
0.261630 0.169317 0.648338 109 155 77
0.259814 0.169490 0.648232 163 209 131
0.257998 0.169662 0.648126 156 216 106
0.256322 0.170766 0.648365 133 193 83
0.254504 0.170939 0.648259 26 66 6
0.261618 0.169632 0.650402 68 109 42
0.259800 0.169805 0.650295 158 199 132
0.257982 0.169978 0.650189 153 210 104
0.256163 0.170151 0.650083 144 201 95
0.254482 0.171254 0.650325 57 102 29
0.261607 0.169945 0.652471 33 69 8
0.259641 0.169190 0.652014 149 185 124
0.257965 0.170292 0.652258 151 209 100
0.256144 0.170465 0.652152 147 205 96
0.254460 0.171567 0.652396 95 144 60
0.252636 0.171741 0.652289 21 70 0
0.261595 0.170256 0.654544 35 63 9
0.259627 0.169502 0.654085 120 148 94
0.257948 0.170603 0.654332 153 207 102
0.256124 0.170777 0.654225 146 200 95
0.254301 0.170951 0.654119 121 173 84
0.252611 0.172053 0.654365 21 73 0
0.259612 0.169813 0.656161 75 99 58
0.257788 0.169987 0.656055 153 206 108
0.255965 0.170160 0.655948 150 203 105
0.254278 0.171261 0.656197 141 197 100
0.252585 0.172363 0.656445 44 100 3
0.259740 0.171048 0.658600 55 74 44
0.257770 0.170296 0.658136 140 192 103
0.256083 0.171396 0.658386 147 199 110
0.254254 0.171570 0.658280 148 204 105
0.252426 0.171744 0.658173 93 149 50
0.250728 0.172845 0.658423 23 57 6
0.259724 0.171354 0.660688 44 63 35
0.257752 0.170603 0.660221 125 174 90
0.255923 0.170777 0.660115 151 200 116
0.254095 0.170951 0.660008 149 208 105
0.252399 0.172052 0.660261 126 185 82
0.250568 0.172226 0.660154 29 69 13
0.259564 0.170735 0.662419 44 59 34
0.257733 0.170909 0.662312 93 136 57
0.255902 0.171083 0.662205 158 201 122
0.254071 0.171258 0.662098 140 202 96
0.252239 0.171432 0.661991 137 199 93
0.250408 0.171606 0.661885 49 93 29
0.257714 0.171213 0.664407 54 91 23
0.255742 0.170464 0.663936 156 193 125
0.253911 0.170638 0.663829 141 203 97
0.252079 0.170813 0.663722 143 205 99
0.250379 0.171911 0.663979 77 125 48
0.248545 0.172086 0.663872 21 69 0
0.257694 0.171516 0.666508 33 68 12
0.255858 0.171690 0.666400 135 170 114
0.253886 0.170942 0.665926 138 199 98
0.252052 0.171117 0.665819 143 204 103
0.250218 0.171291 0.665712 104 155 71
0.248512 0.172390 0.665972 18 69 0
0.257674 0.171816 0.668613 30 59 14
0.255697 0.171069 0.668136 110 139 94
0.253861 0.171244 0.668029 143 199 102
0.252024 0.171419 0.667922 143 199 102
0.250058 0.170671 0.667445 133 187 100
0.248352 0.171768 0.667707 27 81 0
0.257653 0.172115 0.670723 42 66 27
0.255674 0.171369 0.670243 86 110 71
0.253700 0.170623 0.669764 147 202 108
0.251864 0.170797 0.669657 137 192 98
0.250028 0.170972 0.669550 146 201 111
0.248191 0.171147 0.669443 47 102 12
0.255651 0.171667 0.672356 52 72 39
0.253675 0.170922 0.671874 147 199 110
0.251704 0.170176 0.671392 141 193 104
0.249867 0.170351 0.671285 150 207 112
0.248031 0.170526 0.671178 88 145 50
0.255490 0.171044 0.674096 41 59 36
0.253514 0.170300 0.673612 131 184 102
0.251675 0.170475 0.673504 138 191 109
0.249707 0.169730 0.673021 143 201 103
0.247871 0.169905 0.672914 111 169 71
0.246158 0.171000 0.673183 22 61 10
0.255466 0.171340 0.676216 33 50 32
0.253488 0.170597 0.675729 89 141 66
0.251514 0.169853 0.675242 144 196 121
0.249676 0.170028 0.675135 139 198 95
0.247837 0.170203 0.675028 130 189 86
0.245998 0.170378 0.674920 25 69 5
0.255441 0.171634 0.678340 39 54 36
0.253461 0.170892 0.677851 63 111 42
0.251485 0.170149 0.677362 147 195 126
0.249515 0.169406 0.676873 130 192 86
0.247676 0.169581 0.676766 137 199 93
0.245837 0.169756 0.676658 37 84 12
0.253300 0.170268 0.679593 52 94 24
0.251324 0.169526 0.679102 152 194 124
0.249354 0.168784 0.678611 131 190 85
0.247515 0.168959 0.678503 147 206 101
0.245800 0.170052 0.678780 67 117 40
0.253272 0.170560 0.681723 34 68 3
0.251294 0.169819 0.681229 144 178 113
0.249322 0.169078 0.680735 138 197 92
0.247480 0.169254 0.680627 147 206 101
0.245639 0.169429 0.680520 103 156 76
0.243918 0.170522 0.680798 13 66 0
0.253111 0.169935 0.683468 29 60 3
0.251264 0.170111 0.683360 131 162 105
0.249289 0.169371 0.682864 140 196 97
0.247445 0.169547 0.682756 144 200 101
0.245601 0.169722 0.682648 122 176 91
0.243757 0.169898 0.682541 13 67 0
0.252949 0.169311 0.685213 30 60 12
0.251103 0.169486 0.685105 109 139 91
0.249128 0.168747 0.684606 146 202 105
0.247284 0.168923 0.684499 137 193 96
0.245440 0.169098 0.684391 132 187 97
0.243716 0.170189 0.684674 19 74 0
0.250941 0.168862 0.686850 58 84 44
0.249095 0.169037 0.686743 146 201 109
0.247248 0.169213 0.686635 136 191 99
0.245279 0.168474 0.686134 143 198 104
0.243555 0.169565 0.686419 48 103 9
0.250780 0.168237 0.688596 46 69 33
0.248933 0.168413 0.688488 146 198 107
0.247087 0.168589 0.688380 135 187 96
0.245240 0.168764 0.688272 144 200 103
0.243393 0.168940 0.688165 69 125 28
0.250749 0.168524 0.690739 38 58 25
0.248772 0.167788 0.690233 133 183 92
0.246925 0.167964 0.690125 143 193 102
0.245079 0.168140 0.690017 144 201 99
0.243232 0.168315 0.689910 84 141 39
0.241502 0.169404 0.690200 28 62 13
0.250587 0.167899 0.692487 33 50 20
0.248611 0.167163 0.691978 113 161 73
0.246764 0.167339 0.691870 146 194 106
0.244917 0.167515 0.691763 139 198 93
0.243071 0.167691 0.691655 110 169 64
0.241341 0.168779 0.691947 21 59 4
0.248450 0.166539 0.693723 94 137 58
0.246603 0.166714 0.693616 148 191 112
0.244756 0.166890 0.693508 130 188 88
0.242910 0.167066 0.693400 129 187 87
0.241179 0.168153 0.693695 22 62 6
0.248288 0.165914 0.695468 80 121 47
0.246442 0.166090 0.695361 152 193 119
0.244595 0.166265 0.695253 131 189 89
0.242748 0.166441 0.695145 136 194 94
0.241018 0.167528 0.695442 23 66 7
0.248127 0.165289 0.697214 55 96 29
0.246280 0.165465 0.697106 152 193 126
0.244434 0.165641 0.696998 133 191 93
0.242705 0.166726 0.697298 138 196 98
0.240856 0.166902 0.697190 36 80 16
0.248092 0.165572 0.699369 32 72 14
0.246119 0.164840 0.698851 146 186 128
0.244272 0.165016 0.698743 133 190 95
0.242544 0.166101 0.699046 138 195 100
0.240695 0.166277 0.698938 59 104 33
0.247930 0.164947 0.701117 24 64 8
0.245958 0.164216 0.700596 141 181 125
0.244111 0.164391 0.700488 131 188 93
0.242382 0.165475 0.700793 140 197 102
0.240533 0.165651 0.700685 78 124 48
0.247769 0.164321 0.702864 22 56 5
0.245796 0.163591 0.702341 137 171 120
0.243950 0.163767 0.702234 133 190 95
0.242221 0.164849 0.702541 139 196 101
0.240372 0.165025 0.702433 96 142 62
0.238748 0.167016 0.703154 15 61 0
0.497303 0.147266 0.722463 39 44 32
0.495433 0.147444 0.722354 33 41 30
0.494026 0.148495 0.722683 29 37 26
0.492153 0.148674 0.722574 29 36 28
0.490281 0.148852 0.722464 25 32 24
0.247607 0.163696 0.704612 21 55 4
0.245635 0.162966 0.704087 124 158 107
0.243789 0.163142 0.703979 139 195 98
0.241942 0.163318 0.703871 136 192 95
0.240210 0.164400 0.704180 113 160 75
0.238586 0.166389 0.704907 17 64 0
0.499479 0.147327 0.724780 43 48 36
0.497607 0.147506 0.724671 42 47 35
0.495734 0.147684 0.724562 35 43 32
0.493862 0.147862 0.724452 33 41 30
0.491990 0.148040 0.724343 28 36 25
0.490574 0.149091 0.724673 29 37 26
0.489154 0.150143 0.725003 28 37 30
0.247446 0.163070 0.706360 22 56 7
0.245474 0.162341 0.705832 107 141 92
0.243627 0.162517 0.705724 141 195 94
0.241781 0.162693 0.705616 138 192 91
0.240049 0.163774 0.705928 119 169 80
0.238312 0.164856 0.706240 22 72 0
0.499316 0.146694 0.726550 39 44 34
0.497443 0.146872 0.726440 36 41 31
0.495571 0.147050 0.726331 33 41 30
0.494161 0.148100 0.726664 34 42 31
0.492286 0.148279 0.726555 32 40 29
0.490868 0.149329 0.726887 34 42 31
0.488990 0.149508 0.726778 35 44 37
0.487113 0.149686 0.726668 38 47 40
0.247409 0.163348 0.708530 23 55 4
0.245313 0.161717 0.707577 93 125 74
0.243466 0.161892 0.707469 142 196 93
0.241619 0.162068 0.707361 136 190 87
0.239773 0.162244 0.707254 120 172 83
0.238150 0.164229 0.707990 21 73 0
0.499622 0.146930 0.728764 37 44 36
0.497747 0.147109 0.728655 35 42 34
0.495872 0.147287 0.728545 33 40 32
0.493997 0.147466 0.728436 36 43 35
0.492581 0.148515 0.728771 33 41 30
0.490704 0.148694 0.728662 34 42 31
0.488826 0.148873 0.728552 36 43 37
0.486949 0.149051 0.728443 36 43 37
0.245151 0.161092 0.709322 75 105 55
0.243305 0.161268 0.709214 142 196 93
0.241458 0.161444 0.709107 136 190 87
0.239611 0.161619 0.708999 129 179 88
0.237988 0.163603 0.709740 29 79 0
0.499928 0.147165 0.730984 39 48 39
0.498050 0.147344 0.730874 38 47 38
0.495708 0.146653 0.730317 34 43 36
0.494295 0.147701 0.730655 35 44 37
0.492418 0.147880 0.730546 34 43 34
0.490540 0.148059 0.730436 34 43 34
0.488662 0.148237 0.730327 34 43 34
0.486785 0.148416 0.730217 35 44 35
0.244990 0.160467 0.711067 68 95 46
0.243143 0.160643 0.710959 142 196 95
0.241297 0.160819 0.710852 138 192 91
0.239450 0.160995 0.710744 131 181 90
0.237826 0.162977 0.711490 31 81 0
0.497886 0.146709 0.732649 39 48 39
0.496009 0.146887 0.732539 34 43 36
0.494131 0.147066 0.732430 34 43 36
0.492254 0.147245 0.732320 33 42 33
0.490376 0.147424 0.732211 34 43 34
0.488952 0.148472 0.732550 35 44 35
0.487072 0.148651 0.732441 35 44 35
0.244829 0.159843 0.712812 63 90 41
0.242982 0.160018 0.712705 147 199 98
0.241135 0.160194 0.712597 137 189 88
0.239289 0.160370 0.712489 136 186 95
0.237665 0.162350 0.713240 33 83 0
0.497722 0.146073 0.734423 42 52 40
0.495845 0.146252 0.734314 36 45 36
0.493967 0.146431 0.734204 36 45 36
0.492090 0.146610 0.734095 34 43 36
0.490668 0.147657 0.734437 36 45 38
0.488788 0.147836 0.734327 34 46 38
0.486908 0.148015 0.734217 33 45 37
0.244668 0.159218 0.714558 60 85 39
0.242702 0.158493 0.714018 147 198 100
0.240974 0.159569 0.714342 130 181 83
0.239127 0.159745 0.714234 136 188 99
0.237614 0.162625 0.715422 31 83 0
0.498025 0.146305 0.736652 49 57 44
0.495681 0.145617 0.736088 44 51 43
0.494264 0.146663 0.736433 40 47 39
0.492384 0.146842 0.736323 39 48 41
0.490504 0.147021 0.736214 39 48 41
0.488624 0.147200 0.736104 33 45 37
0.486744 0.147379 0.735994 34 46 38
0.244506 0.158593 0.716303 58 80 35
0.242541 0.157869 0.715760 145 194 97
0.240813 0.158945 0.716087 131 180 83
0.238966 0.159121 0.715979 136 188 99
0.237452 0.161998 0.717174 33 85 0
0.495517 0.144982 0.737862 61 71 59
0.493639 0.145161 0.737753 46 56 44
0.491762 0.145339 0.737643 38 47 40
0.489884 0.145518 0.737534 34 43 36
0.488460 0.146564 0.737881 35 44 35
0.486579 0.146743 0.737771 41 50 41
0.244345 0.157968 0.718048 57 78 36
0.242380 0.157245 0.717503 142 193 95
0.240652 0.158320 0.717832 131 182 84
0.238805 0.158496 0.717725 134 188 101
0.237290 0.161370 0.718926 34 88 1
0.495353 0.144347 0.739637 52 62 50
0.493475 0.144525 0.739527 45 55 43
0.491598 0.144704 0.739418 36 45 36
0.489720 0.144883 0.739308 33 42 33
0.487842 0.145062 0.739199 35 45 33
0.486415 0.146107 0.739548 46 56 44
0.244184 0.157344 0.719793 55 76 34
0.242219 0.156622 0.719246 143 194 98
0.240490 0.157695 0.719578 131 182 86
0.238644 0.157871 0.719470 134 188 101
0.237128 0.160743 0.720679 36 90 3
0.494263 0.141983 0.740487 46 56 42
0.492390 0.142161 0.740378 42 52 38
0.490518 0.142339 0.740269 37 50 35
0.489101 0.143383 0.740621 33 46 31
0.487678 0.144426 0.740973 33 46 31
0.485801 0.144605 0.740863 43 56 41
0.244022 0.156719 0.721538 53 77 34
0.242058 0.155998 0.720989 145 195 102
0.240329 0.157071 0.721323 138 188 95
0.238595 0.158144 0.721657 136 190 103
0.236966 0.160116 0.722431 38 92 5
0.491766 0.140664 0.741683 39 53 33
0.489897 0.140842 0.741574 37 61 31
0.488482 0.141884 0.741929 37 61 31
0.486609 0.142062 0.741820 31 52 30
0.485187 0.143105 0.742174 36 57 35
0.243861 0.156094 0.723283 53 79 35
0.241897 0.155374 0.722731 144 194 101
0.240168 0.156446 0.723068 138 188 95
0.238434 0.157518 0.723404 136 190 105
0.236914 0.160385 0.724628 37 91 6
0.491143 0.139169 0.742984 75 90 65
0.489276 0.139347 0.742875 103 140 88
0.487408 0.139524 0.742766 97 134 82
0.485541 0.139702 0.742657 72 100 62
0.484573 0.141607 0.743480 57 85 47
0.243700 0.155470 0.725029 55 82 35
0.241736 0.154750 0.724474 143 194 98
0.240006 0.155821 0.724813 130 181 85
0.238272 0.156893 0.725152 134 188 101
0.236752 0.159757 0.726383 31 85 0
0.490060 0.136813 0.743810 127 144 118
0.487741 0.136128 0.743232 114 155 92
0.486336 0.137168 0.743593 93 134 71
0.484926 0.138208 0.743953 86 121 67
0.483061 0.138385 0.743844 59 94 40
0.243539 0.154845 0.726774 58 85 36
0.241575 0.154126 0.726217 142 193 95
0.239845 0.155196 0.726558 129 180 82
0.238111 0.156267 0.726899 134 188 101
0.236590 0.159129 0.728137 31 85 0
0.488519 0.133600 0.744155 114 131 105
0.486207 0.132915 0.743575 119 163 95
0.484356 0.133092 0.743467 100 144 76
0.482956 0.134130 0.743830 91 132 69
0.481550 0.135168 0.744193 46 87 24
0.481034 0.137932 0.745497 51 70 44
0.243258 0.153327 0.728067 61 88 39
0.241414 0.153502 0.727960 144 196 95
0.239684 0.154572 0.728303 137 189 88
0.238061 0.156536 0.729098 138 190 101
0.236428 0.158501 0.729892 31 83 0
0.487438 0.131253 0.744960 100 115 88
0.485589 0.131429 0.744852 122 167 96
0.483740 0.131605 0.744744 99 144 73
0.480939 0.133679 0.745475 43 88 17
0.479531 0.134717 0.745840 48 70 41
0.242977 0.151810 0.729356 64 94 44
0.241252 0.152878 0.729702 145 198 100
0.239523 0.153947 0.730049 136 189 91
0.237899 0.155909 0.730848 136 187 101
0.486817 0.129768 0.746231 88 103 76
0.484971 0.129943 0.746123 129 171 101
0.483124 0.130119 0.746015 98 140 70
0.481729 0.131155 0.746383 88 135 61
0.478923 0.133228 0.747119 46 69 35
0.242578 0.149404 0.730183 81 113 64
0.240975 0.151363 0.730989 138 194 97
0.239361 0.153322 0.731794 133 189 92
0.237738 0.155283 0.732598 133 181 100
0.486197 0.128285 0.747497 65 80 51
0.483897 0.127601 0.746911 130 172 102
0.482509 0.128636 0.747282 107 149 79
0.481116 0.129670 0.747653 87 135 58
0.479718 0.130706 0.748023 71 119 42
0.242418 0.148783 0.731918 94 128 79
0.240814 0.150740 0.732729 138 194 97
0.239200 0.152698 0.733539 137 193 96
0.237576 0.154656 0.734348 126 172 92
0.485119 0.125946 0.748277 56 66 41
0.482368 0.124405 0.747208 125 166 99
0.480534 0.124580 0.747101 114 155 88
0.480504 0.128187 0.748917 96 146 67
0.479108 0.129221 0.749290 79 129 50
0.478153 0.131115 0.750143 39 68 25
0.242139 0.147272 0.733192 110 144 93
0.240653 0.150117 0.734469 134 195 96
0.239039 0.152073 0.735284 133 194 95
0.237525 0.154921 0.736559 115 161 83
0.480384 0.120357 0.747006 115 154 90
0.478560 0.120531 0.746900 123 162 98
0.478991 0.124991 0.749210 102 152 71
0.478947 0.128597 0.751035 82 132 51
0.477546 0.129630 0.751410 44 76 25
0.241860 0.145762 0.734461 125 162 110
0.240492 0.149494 0.736210 127 187 91
0.238991 0.152338 0.737493 131 191 95
0.237474 0.155183 0.738775 101 149 70
0.479769 0.118884 0.748244 84 122 63
0.477495 0.118201 0.747651 127 165 106
0.477929 0.122657 0.749974 100 151 67
0.477890 0.126258 0.751809 84 135 51
0.476939 0.128148 0.752673 60 98 41
0.241582 0.144255 0.735726 134 172 117
0.240332 0.148871 0.737950 124 184 88
0.238829 0.151712 0.739240 135 195 99
0.237312 0.154555 0.740530 86 134 57
0.478699 0.116558 0.748987 68 101 45
0.476883 0.116731 0.748882 134 167 111
0.476418 0.119470 0.750240 109 160 74
0.476833 0.123924 0.752574 88 139 53
0.476778 0.127523 0.754418 76 115 53
0.241304 0.142749 0.736985 141 179 120
0.240171 0.148248 0.739690 124 184 88
0.238668 0.151087 0.740988 134 194 98
0.237150 0.153927 0.742285 62 110 41
0.478540 0.115943 0.750703 57 87 37
0.475819 0.114407 0.749616 137 167 117
0.475359 0.117144 0.750982 116 167 81
0.475778 0.121592 0.753328 84 135 49
0.476171 0.126043 0.755673 90 132 62
0.242730 0.140185 0.737875 59 103 37
0.241144 0.142131 0.738711 143 187 121
0.240125 0.148512 0.741901 127 187 95
0.238506 0.150461 0.742736 133 193 101
0.475209 0.112941 0.750834 130 156 114
0.474300 0.114821 0.751715 118 169 83
0.474276 0.118410 0.753580 88 139 53
0.475121 0.123710 0.756430 92 140 63
0.474608 0.126449 0.757800 35 83 6
0.242571 0.139569 0.739595 81 128 56
0.241103 0.142399 0.740910 142 189 117
0.240079 0.148774 0.744118 136 196 102
0.238457 0.150721 0.744957 129 189 95
0.473243 0.112502 0.752437 128 178 99
0.472776 0.115233 0.753818 102 152 73
0.473627 0.120528 0.756683 90 140 59
0.473479 0.127709 0.760428 42 67 30
0.244355 0.139664 0.741899 26 48 21
0.242292 0.138068 0.740840 100 150 71
0.241060 0.142665 0.743114 136 186 107
0.239918 0.148149 0.745863 138 195 100
0.238296 0.150095 0.746707 114 171 76
0.472633 0.107458 0.751761 64 88 58
0.472170 0.113767 0.755036 116 166 89
0.472134 0.117350 0.756920 90 144 59
0.473402 0.123494 0.760296 66 120 35
0.472439 0.125376 0.761183 39 68 25
0.243829 0.136397 0.742186 33 57 27
0.242013 0.136570 0.742080 118 169 85
0.241135 0.143813 0.745802 135 186 102
0.239757 0.147524 0.747608 140 197 102
0.238246 0.150353 0.748935 79 136 41
0.471573 0.105149 0.752457 45 64 36
0.471565 0.112302 0.756249 124 173 99
0.471087 0.115030 0.757644 94 153 64
0.471917 0.120315 0.760537 80 139 50
0.472278 0.124751 0.762928 38 70 21
0.243548 0.134900 0.743420 39 67 29
0.241855 0.135955 0.743796 131 185 98
0.240974 0.143192 0.747537 132 186 99
0.239595 0.146899 0.749353 140 194 107
0.238084 0.149725 0.750687 56 110 23
0.469622 0.108287 0.755950 127 171 103
0.470040 0.112713 0.758357 102 162 68
0.470875 0.117992 0.761265 84 144 50
0.243268 0.133405 0.744650 68 99 55
0.241696 0.135341 0.745512 137 192 102
0.240814 0.142571 0.749273 130 185 95
0.239434 0.146275 0.751098 134 188 103
0.469021 0.103258 0.755230 83 121 64
0.469439 0.111249 0.759566 104 160 72
0.468510 0.113122 0.760470 94 150 62
0.467571 0.114996 0.761373 66 110 44
0.243110 0.132793 0.746361 108 142 91
0.241775 0.136489 0.748200 138 195 102
0.240886 0.143712 0.751980 137 194 101
0.239387 0.146531 0.753329 125 176 92
0.467520 0.100108 0.755397 56 88 39
0.467970 0.104522 0.757830 141 173 124
0.466177 0.104692 0.757726 118 174 86
0.465221 0.110132 0.760559 86 135 61
0.244886 0.132887 0.748667 28 66 9
0.242952 0.132180 0.748072 127 165 108
0.241735 0.136753 0.750409 131 188 93
0.240726 0.143089 0.753720 143 200 105
0.239339 0.146786 0.755565 88 136 59
0.461584 0.099165 0.756258 91 145 60
0.244604 0.131395 0.749889 56 97 30
0.242915 0.132447 0.750275 143 184 117
0.241813 0.137895 0.753114 138 196 98
0.240797 0.144225 0.756442 143 201 103
0.457026 0.090087 0.752817 115 163 82
0.458339 0.096189 0.756298 92 143 59
0.246005 0.128855 0.750718 32 48 25
0.242756 0.131833 0.751988 142 190 109
0.241772 0.138154 0.755335 138 195 102
0.240636 0.143600 0.758187 129 186 93
0.460376 0.089161 0.754676 65 82 56
0.458624 0.089328 0.754574 138 184 108
0.456873 0.089495 0.754472 123 169 93
0.454684 0.088814 0.753855 97 151 64
0.245595 0.126491 0.751432 43 65 36
0.242598 0.131220 0.753702 140 192 103
0.241730 0.138412 0.757561 141 196 102
0.240474 0.142975 0.759932 104 159 65
0.458029 0.087890 0.755712 125 164 98
0.455840 0.087210 0.755093 138 177 111
0.454094 0.087376 0.754991 111 166 74
0.452348 0.087543 0.754889 101 156 64
0.247623 0.128338 0.754735 25 54 13
0.245564 0.126758 0.753632 75 104 63
0.242560 0.131483 0.755913 132 190 92
0.241688 0.138668 0.759792 143 198 108
0.457434 0.086453 0.756845 81 114 58
0.455248 0.085774 0.756224 145 178 122
0.453504 0.085940 0.756122 123 178 84
0.247465 0.127726 0.756444 25 59 8
0.245657 0.127898 0.756338 110 144 93
0.242642 0.132620 0.758631 138 196 98
0.241881 0.140674 0.763029 129 179 100
0.457281 0.085863 0.758495 47 76 31
0.454656 0.084340 0.757350 136 165 120
0.452915 0.084506 0.757248 127 182 90
0.451174 0.084672 0.757147 103 158 66
0.247307 0.127114 0.758152 45 89 25
0.243814 0.128333 0.758445 135 196 95
0.242963 0.135502 0.762364 142 203 102
0.241837 0.140925 0.765275 84 128 62
0.454065 0.082908 0.758471 103 126 90
0.452327 0.083073 0.758370 140 190 101
0.450588 0.083239 0.758268 122 172 83
0.249217 0.128076 0.760979 36 53 25
0.247277 0.127376 0.760367 91 139 62
0.245466 0.127548 0.760261 145 193 116
0.243900 0.129467 0.761167 136 193 98
0.243163 0.137504 0.765611 139 196 101
0.453474 0.081477 0.759588 64 83 57
0.451738 0.081643 0.759486 143 186 111
0.449569 0.080965 0.758859 139 182 107
0.447835 0.081130 0.758757 107 162 72
0.248929 0.126591 0.762184 54 77 43
0.247119 0.126763 0.762078 130 179 95
0.245557 0.128680 0.762989 142 191 107
0.244353 0.133216 0.765424 148 199 113
0.243361 0.139500 0.768873 109 160 74
0.450714 0.079372 0.760069 110 148 89
0.448984 0.079536 0.759968 147 185 126
0.446822 0.078859 0.759338 123 178 88
0.445094 0.079023 0.759238 95 150 60
0.250714 0.126677 0.764512 37 67 19
0.248252 0.122494 0.761851 95 125 77
0.245523 0.128937 0.765216 133 188 94
0.244925 0.137828 0.770216 144 192 111
0.450127 0.077945 0.761173 64 95 49
0.448399 0.078110 0.761072 148 179 133
0.446240 0.077433 0.760440 139 190 104
0.444514 0.077597 0.760340 114 165 79
0.252503 0.126760 0.766845 47 62 37
0.249895 0.121714 0.763657 64 102 43
0.247707 0.119275 0.762012 131 169 110
0.245116 0.126581 0.765908 140 195 101
0.244764 0.137204 0.771958 106 150 82
0.447815 0.076685 0.762172 119 143 111
0.445659 0.076008 0.761538 154 203 119
0.443936 0.076172 0.761437 131 180 96
0.441787 0.075495 0.760804 104 158 73
0.251404 0.120065 0.764947 42 64 33
0.249079 0.116760 0.762778 113 163 86
0.247809 0.120407 0.764737 140 190 113
0.245950 0.132926 0.771746 140 197 104
0.447231 0.075262 0.763267 61 77 54
0.445078 0.074586 0.762630 151 194 119
0.443357 0.074750 0.762530 146 189 114
0.441212 0.074073 0.761894 122 177 85
0.252224 0.114079 0.763638 30 61 19
0.250442 0.114249 0.763534 72 103 61
0.248660 0.114419 0.763430 132 188 100
0.247523 0.118930 0.765918 135 191 103
0.444928 0.074004 0.764256 114 148 83
0.442780 0.073328 0.763618 156 190 125
0.441062 0.073492 0.763517 133 188 94
0.438921 0.072816 0.762879 100 155 61
0.251932 0.112610 0.764801 44 84 24
0.250287 0.113646 0.765219 114 154 94
0.248504 0.113816 0.765115 136 196 100
0.246707 0.126304 0.772195 141 190 118
0.444348 0.072584 0.765341 60 88 36
0.442630 0.072747 0.765241 142 170 118
0.440487 0.072072 0.764600 146 198 109
0.438772 0.072236 0.764500 119 171 82
0.253557 0.111838 0.766587 42 62 29
0.251777 0.112007 0.766483 93 141 62
0.249997 0.112177 0.766379 129 177 98
0.248349 0.113213 0.766799 138 195 104
0.442052 0.071329 0.766321 83 103 68
0.440337 0.071492 0.766221 152 201 115
0.438200 0.070818 0.765578 142 191 105
0.436487 0.070981 0.765478 111 168 75
0.255181 0.111067 0.768373 34 62 10
0.253401 0.111236 0.768269 75 103 51
0.251621 0.111405 0.768165 127 179 90
0.249842 0.111575 0.768061 134 186 97
0.248062 0.111744 0.767958 146 200 115
0.439763 0.070075 0.767297 120 161 87
0.438050 0.070238 0.767197 158 199 125
0.435918 0.069564 0.766552 128 185 90
0.434208 0.069727 0.766452 96 153 58
0.254884 0.109601 0.769526 48 85 15
0.253107 0.109770 0.769422 117 154 84
0.251330 0.109939 0.769319 140 196 97
0.249553 0.110108 0.769215 144 200 101
0.439613 0.069496 0.768916 64 91 42
0.437479 0.068823 0.768268 147 174 125
0.435769 0.068985 0.768168 146 201 109
0.433642 0.068312 0.767521 119 174 82
0.431935 0.068474 0.767421 96 153 58
0.429816 0.067800 0.766775 65 122 27
0.256363 0.107968 0.770778 43 66 32
0.254588 0.108137 0.770674 99 151 58
0.252952 0.109169 0.771102 140 192 99
0.251175 0.109338 0.770998 139 198 93
0.437330 0.068244 0.769884 87 103 69
0.435201 0.067571 0.769234 150 199 115
0.433493 0.067734 0.769135 152 201 117
0.431372 0.067061 0.768486 121 180 77
0.429667 0.067223 0.768386 87 146 43
0.257837 0.106337 0.772024 33 68 14
0.256208 0.107368 0.772455 90 125 71
0.254434 0.107537 0.772351 128 187 80
0.252659 0.107705 0.772248 136 195 88
0.434633 0.066159 0.770296 102 146 80
0.432928 0.066321 0.770196 159 203 137
0.430810 0.065649 0.769545 144 202 102
0.429108 0.065811 0.769446 117 175 75
0.425297 0.065299 0.768695 47 97 8
0.259306 0.104709 0.773266 34 53 25
0.257537 0.104877 0.773162 75 125 44
0.255910 0.105907 0.773595 126 176 95
0.254138 0.106075 0.773492 136 198 90
0.432364 0.064911 0.771253 132 165 121
0.429835 0.063404 0.770045 154 211 120
0.428138 0.063566 0.769946 147 204 113
0.426440 0.063727 0.769847 117 170 72
0.260771 0.103083 0.774502 27 60 6
0.259004 0.103251 0.774399 75 108 54
0.257382 0.104279 0.774834 114 172 74
0.255613 0.104447 0.774731 133 191 93
0.253983 0.105476 0.775167 143 201 101
0.431384 0.062669 0.771748 67 91 63
0.429687 0.062830 0.771649 140 187 113
0.427990 0.062992 0.771550 163 210 136
0.425884 0.062319 0.770894 146 202 105
0.424190 0.062481 0.770795 108 164 67
0.262078 0.100601 0.775191 35 52 24
0.260466 0.101627 0.775630 65 113 34
0.258702 0.101794 0.775527 120 168 89
0.256938 0.101962 0.775424 133 192 89
0.255316 0.102989 0.775862 139 198 95
0.429126 0.061423 0.772693 75 108 52
0.427431 0.061585 0.772594 157 190 134
0.425329 0.060913 0.771937 160 213 117
0.423637 0.061074 0.771838 140 193 97
0.421945 0.061235 0.771739 101 156 62
0.261771 0.099147 0.776312 71 103 52
0.260162 0.100172 0.776753 109 167 69
0.258548 0.101198 0.777194 128 186 88
0.256784 0.101366 0.777091 146 202 103
0.427283 0.061011 0.774196 91 113 82
0.425181 0.060341 0.773536 152 201 115
0.423489 0.060502 0.773437 159 208 122
0.421395 0.059830 0.772777 131 187 88
0.419306 0.059158 0.772117 96 152 53
0.417619 0.059319 0.772019 71 121 42
0.263222 0.097529 0.777530 63 111 32
0.261618 0.098552 0.777974 115 163 84
0.259859 0.098720 0.777871 121 180 73
0.258247 0.099744 0.778315 142 201 94
0.425440 0.060600 0.775699 101 139 80
0.423341 0.059929 0.775036 160 198 139
0.421247 0.059259 0.774374 155 211 114
0.419158 0.058588 0.773712 131 187 90
0.417471 0.058748 0.773613 101 157 60
0.415390 0.058076 0.772952 69 125 28
0.264668 0.095912 0.778743 71 105 56
0.263069 0.096934 0.779190 111 169 69
0.261312 0.097102 0.779087 131 189 89
0.259705 0.098125 0.779534 140 199 92
0.422789 0.058526 0.776069 100 123 87
0.420698 0.057856 0.775404 155 201 121
0.419011 0.058017 0.775306 158 204 124
0.416927 0.057346 0.774642 136 193 91
0.415243 0.057507 0.774544 107 164 62
0.413559 0.057667 0.774445 78 129 45
0.266109 0.094298 0.779951 78 128 47
0.264358 0.094465 0.779849 125 175 94
0.262761 0.095486 0.780298 135 194 87
0.261159 0.096507 0.780747 144 203 96
0.423450 0.059614 0.778803 47 62 37
0.420952 0.058116 0.777567 93 129 68
0.418864 0.057446 0.776900 157 193 132
0.417177 0.057607 0.776802 152 208 111
0.415490 0.057767 0.776703 137 193 96
0.413411 0.057097 0.776037 114 172 72
0.411727 0.057257 0.775939 76 134 34
0.269130 0.091667 0.780701 41 84 27
0.267546 0.092686 0.781154 92 135 78
0.265797 0.092853 0.781052 126 184 84
0.264205 0.093872 0.781504 136 194 94
0.420403 0.056715 0.778593 43 67 26
0.418716 0.056876 0.778494 102 126 85
0.416633 0.056207 0.777825 151 200 114
0.414949 0.056367 0.777727 157 206 120
0.413264 0.056527 0.777629 140 198 98
0.411580 0.056688 0.777531 117 175 75
0.409510 0.056017 0.776862 82 133 47
0.270724 0.090910 0.782453 61 92 48
0.268977 0.091076 0.782351 96 151 68
0.267393 0.092095 0.782807 129 184 101
0.265644 0.092261 0.782704 130 192 86
0.416486 0.055637 0.779417 91 126 68
0.414802 0.055797 0.779319 158 193 135
0.412727 0.055128 0.778648 155 210 116
0.411045 0.055288 0.778550 147 202 108
0.409363 0.055448 0.778452 118 176 78
0.407681 0.055608 0.778354 92 150 52
0.405999 0.055769 0.778255 56 103 31
0.272148 0.089303 0.783646 74 121 49
0.270571 0.090319 0.784104 115 162 90
0.268825 0.090486 0.784002 128 188 92
0.267079 0.090652 0.783900 135 195 99
0.414655 0.055227 0.780911 88 107 77
0.412580 0.054559 0.780237 147 190 115
0.410898 0.054719 0.780139 161 204 129
0.409216 0.054879 0.780041 152 208 111
0.407151 0.054210 0.779368 134 190 93
0.405472 0.054370 0.779270 102 159 66
0.403793 0.054530 0.779172 68 125 32
0.402114 0.054690 0.779074 50 93 36
0.277050 0.087366 0.785036 49 68 42
0.275309 0.087532 0.784934 51 92 27
0.271996 0.088713 0.785293 121 179 81
0.270419 0.089729 0.785754 131 189 91
0.268672 0.089895 0.785652 143 205 101
0.412433 0.053990 0.781827 73 99 57
0.410363 0.053323 0.781151 144 170 128
0.408684 0.053483 0.781053 161 213 124
0.407005 0.053642 0.780955 153 205 116
0.405325 0.053802 0.780857 139 198 95
0.403269 0.053133 0.780182 115 174 71
0.401592 0.053293 0.780085 81 136 53
0.399915 0.053453 0.779987 52 107 24
0.278460 0.085764 0.786218 37 72 14
0.276898 0.086777 0.786681 72 107 49
0.275157 0.086943 0.786580 106 164 64
0.271844 0.088123 0.786941 131 190 83
0.270266 0.089138 0.787404 147 206 99
0.410217 0.052755 0.782738 72 87 62
0.408537 0.052914 0.782640 120 159 95
0.406858 0.053074 0.782542 163 202 138
0.404799 0.052407 0.781865 152 208 111
0.403122 0.052566 0.781767 143 199 102
0.401446 0.052726 0.781669 115 177 73
0.399769 0.052885 0.781571 81 143 39
0.397723 0.052216 0.780895 71 121 44
0.281233 0.082306 0.786359 45 75 27
0.279865 0.084164 0.787394 61 91 43
0.278308 0.085176 0.787860 91 142 46
0.276570 0.085342 0.787759 122 173 77
0.275005 0.086354 0.788225 126 190 72
0.271691 0.087533 0.788589 152 210 110
0.408006 0.051520 0.783645 55 79 38
0.406711 0.052506 0.784129 104 128 87
0.404653 0.051839 0.783449 153 200 117
0.402976 0.051999 0.783351 158 205 122
0.401299 0.052159 0.783254 149 208 105
0.399251 0.051491 0.782574 122 181 78
0.397577 0.051650 0.782477 104 163 58
0.395903 0.051809 0.782379 78 137 32
0.393864 0.051141 0.781700 54 100 24
0.284166 0.079702 0.787055 40 69 26
0.282627 0.080711 0.787525 53 82 39
0.281082 0.081721 0.787995 80 128 40
0.279533 0.082731 0.788464 117 165 77
0.277978 0.083742 0.788933 129 189 79
0.276418 0.084753 0.789402 136 196 86
0.274853 0.085765 0.789870 150 209 102
0.273112 0.085931 0.789769 153 212 105
0.406183 0.051113 0.785132 53 64 43
0.404506 0.051272 0.785034 75 101 50
0.402830 0.051432 0.784936 146 172 121
0.400779 0.050765 0.784254 161 211 120
0.399105 0.050924 0.784156 154 204 113
0.397430 0.051084 0.784059 137 197 87
0.395390 0.050416 0.783378 129 189 79
0.393718 0.050575 0.783280 102 164 58
0.391686 0.049907 0.782599 79 141 35
0.390017 0.050066 0.782502 56 98 26
0.287079 0.077103 0.787740 38 67 24
0.285550 0.078110 0.788213 56 85 42
0.284015 0.079118 0.788686 85 134 50
0.282476 0.080127 0.789158 119 168 84
0.280931 0.081135 0.789630 130 190 78
0.279381 0.082145 0.790102 139 199 87
0.277826 0.083155 0.790574 144 203 96
0.276266 0.084165 0.791045 158 217 110
0.402307 0.050039 0.785934 69 81 55
0.400633 0.050199 0.785836 113 147 82
0.398958 0.050358 0.785739 164 198 133
0.397284 0.050517 0.785641 152 209 105
0.395244 0.049851 0.784957 145 202 98
0.393572 0.050010 0.784860 133 196 83
0.391540 0.049342 0.784176 120 183 70
0.389512 0.048674 0.783494 101 163 59
0.387490 0.048006 0.782811 76 138 34
0.290370 0.076193 0.789567 42 74 25
0.288649 0.076357 0.789467 66 98 49
0.286929 0.076521 0.789366 82 132 53
0.285399 0.077527 0.789842 110 160 81
0.283865 0.078534 0.790317 126 185 78
0.282325 0.079542 0.790792 133 192 85
0.280780 0.080550 0.791266 137 196 82
0.279230 0.081559 0.791740 153 212 98
0.277675 0.082568 0.792214 159 212 116
0.398812 0.049792 0.787321 79 98 70
0.397138 0.049951 0.787223 138 181 106
0.395098 0.049285 0.786537 161 204 129
0.393063 0.048619 0.785851 151 211 99
0.391394 0.048777 0.785754 140 200 88
0.389009 0.047284 0.784480 135 199 79
0.387345 0.047443 0.784383 115 179 59
0.385328 0.046774 0.783698 93 151 51
0.383667 0.046933 0.783602 72 130 30
0.293457 0.074443 0.790815 45 76 21
0.291739 0.074606 0.790714 67 98 43
0.290219 0.075611 0.791193 90 140 59
0.288499 0.075775 0.791093 112 162 81
0.286778 0.075938 0.790992 118 178 68
0.285249 0.076944 0.791470 129 189 79
0.283714 0.077950 0.791948 138 197 83
0.282174 0.078957 0.792425 153 212 98
0.280446 0.079122 0.792324 159 213 110
0.396624 0.048561 0.788214 54 78 39
0.394952 0.048720 0.788116 97 121 82
0.392917 0.048054 0.787428 146 193 108
0.390888 0.047388 0.786740 162 209 124
0.388863 0.046721 0.786053 153 212 98
0.386844 0.046054 0.785365 146 205 91
0.384830 0.045387 0.784678 136 197 82
0.383171 0.045545 0.784581 120 181 66
0.381165 0.044876 0.783895 102 161 56
0.379509 0.045034 0.783798 76 135 30
0.298460 0.073371 0.792739 46 69 35
0.296742 0.073534 0.792639 49 85 22
0.295025 0.073698 0.792538 78 114 51
0.293307 0.073862 0.792438 106 154 62
0.291589 0.074025 0.792338 120 168 76
0.289871 0.074189 0.792238 125 183 74
0.288349 0.075193 0.792718 137 195 86
0.286628 0.075356 0.792618 145 204 90
0.285098 0.076361 0.793098 153 212 98
0.283563 0.077367 0.793578 168 220 119
0.282023 0.078373 0.794058 148 200 99
0.280295 0.078537 0.793957 103 139 76
0.392409 0.046666 0.788412 55 81 30
0.390742 0.046824 0.788315 107 133 82
0.388718 0.046159 0.787625 148 191 103
0.386699 0.045492 0.786935 172 215 127
0.384685 0.044826 0.786246 157 214 108
0.383027 0.044984 0.786149 146 203 97
0.381020 0.044316 0.785460 133 196 85
0.379364 0.044474 0.785363 114 177 66
0.377708 0.044631 0.785267 101 161 51
0.376052 0.044789 0.785170 86 146 36
0.374059 0.044120 0.784482 75 123 33
0.305846 0.074648 0.796518 49 71 40
0.303901 0.073974 0.795832 46 79 33
0.302178 0.074138 0.795732 59 92 46
0.300242 0.073464 0.795047 66 112 34
0.298521 0.073628 0.794947 87 133 55
0.296592 0.072953 0.794262 107 160 52
0.294875 0.073117 0.794162 120 173 65
0.293157 0.073280 0.794062 125 184 66
0.291439 0.073444 0.793961 137 196 78
0.289919 0.074447 0.794445 148 206 95
0.288198 0.074611 0.794344 159 217 106
0.286478 0.074774 0.794244 164 213 116
0.284948 0.075778 0.794727 142 191 94
0.283413 0.076783 0.795209 95 129 66
0.281687 0.076947 0.795108 57 91 28
0.388215 0.044772 0.788602 61 84 32
0.386199 0.044107 0.787910 113 136 84
0.384540 0.044265 0.787813 147 196 112
0.382882 0.044422 0.787716 170 219 135
0.380876 0.043756 0.787025 161 219 119
0.379220 0.043914 0.786928 152 210 110
0.377564 0.044071 0.786832 135 198 85
0.375568 0.043404 0.786141 128 191 78
0.373914 0.043561 0.786044 117 178 61
0.372261 0.043719 0.785948 96 157 40
0.370276 0.043050 0.785258 88 140 49
0.368625 0.043207 0.785161 71 123 32
0.305916 0.074900 0.798736 82 122 53
0.303969 0.074228 0.798048 92 144 55
0.301812 0.072719 0.796773 110 162 73
0.300092 0.072882 0.796673 119 181 73
0.298371 0.073046 0.796572 128 190 82
0.296442 0.072372 0.795886 143 206 93
0.294724 0.072536 0.795785 149 212 99
0.293007 0.072699 0.795685 157 215 104
0.291289 0.072863 0.795585 160 218 107
0.289769 0.073865 0.796071 161 213 120
0.288048 0.074029 0.795970 132 184 91
0.286328 0.074192 0.795870 80 114 53
0.284797 0.075196 0.796355 49 83 22
0.386054 0.043546 0.789477 55 67 41
0.384396 0.043703 0.789381 64 89 43
0.382737 0.043861 0.789284 105 130 84
0.380731 0.043196 0.788590 146 196 117
0.379075 0.043353 0.788493 167 217 138
0.377077 0.042687 0.787800 159 218 115
0.375424 0.042844 0.787704 151 210 107
0.373770 0.043002 0.787607 139 200 83
0.371782 0.042334 0.786914 129 190 73
0.370131 0.042491 0.786818 124 187 76
0.368151 0.041823 0.786125 122 185 74
0.366177 0.041155 0.785433 110 166 69
0.364531 0.041311 0.785337 91 147 50
0.305765 0.074316 0.800369 122 180 71
0.303819 0.073644 0.799679 122 186 70
0.301662 0.072137 0.798399 134 198 82
0.299941 0.072300 0.798299 144 209 97
0.298221 0.072464 0.798198 153 218 106
0.296292 0.071791 0.797509 158 222 115
0.294574 0.071955 0.797409 164 228 121
0.292857 0.072118 0.797309 157 207 118
0.291139 0.072282 0.797208 123 173 84
0.289618 0.073283 0.797696 68 101 43
0.287898 0.073447 0.797596 48 81 23
0.380587 0.042636 0.790155 53 79 37
0.378930 0.042793 0.790058 94 120 78
0.376933 0.042128 0.789363 134 177 98
0.375279 0.042285 0.789266 171 214 135
0.373626 0.042442 0.789170 172 229 123
0.371638 0.041776 0.788474 167 224 118
0.369987 0.041933 0.788378 152 212 100
0.368008 0.041266 0.787683 145 205 93
0.366033 0.040598 0.786989 134 193 79
0.364387 0.040755 0.786893 123 182 68
0.305614 0.073731 0.802002 147 206 88
0.303668 0.073061 0.801309 150 211 94
0.301727 0.072390 0.800617 161 222 105
0.299791 0.071718 0.799925 162 224 120
0.298071 0.071882 0.799824 156 218 114
0.296350 0.072046 0.799724 125 174 90
0.294424 0.071373 0.799032 94 143 59
0.375135 0.041726 0.790829 64 88 47
0.373481 0.041883 0.790732 96 136 65
0.371494 0.041217 0.790035 142 182 111
0.369843 0.041375 0.789938 166 216 116
0.367864 0.040708 0.789241 172 222 122
0.365889 0.040041 0.788544 169 224 114
0.364243 0.040198 0.788448 159 214 104
0.305463 0.073146 0.803636 165 222 116
0.303517 0.072477 0.802940 153 202 105
0.301576 0.071807 0.802245 127 176 79
0.299641 0.071136 0.801551 82 123 56
0.297920 0.071300 0.801450 48 89 22
0.371350 0.040659 0.791595 52 72 39
0.369368 0.039994 0.790895 74 107 49
0.367720 0.040151 0.790799 107 140 82
0.365746 0.039485 0.790099 144 191 106
0.364100 0.039641 0.790003 166 213 128
0.365276 0.038106 0.791049 46 73 26
0.363633 0.038262 0.790953 58 85 38
0.374046 0.154293 0.874420 170 234 143
0.372048 0.154483 0.874304 168 232 141
0.370049 0.154674 0.874187 169 233 142
0.368050 0.154864 0.874071 169 233 142
0.366052 0.155054 0.873954 167 234 140
0.363787 0.154418 0.873233 166 233 139
0.361791 0.154608 0.873116 170 232 137
0.359795 0.154798 0.873000 170 232 137
0.357799 0.154988 0.872883 171 223 132
0.355803 0.155178 0.872767 163 215 124
0.353807 0.155368 0.872651 161 204 118
0.351811 0.155558 0.872534 151 194 108
0.388159 0.153108 0.877734 57 81 38
0.386158 0.153299 0.877618 59 92 46
0.384157 0.153489 0.877501 65 98 52
0.382155 0.153680 0.877384 63 107 54
0.380154 0.153870 0.877267 67 111 58
0.378153 0.154061 0.877151 72 121 67
0.375870 0.153427 0.876426 75 124 70
0.373872 0.153617 0.876309 76 125 71
0.371873 0.153807 0.876193 75 124 70
0.369874 0.153998 0.876076 72 121 67
0.367876 0.154188 0.875959 70 119 65
0.365877 0.154378 0.875843 65 116 59
0.363613 0.153742 0.875119 59 110 53
0.361617 0.153932 0.875003 61 108 50
0.359621 0.154122 0.874886 58 105 47
0.357624 0.154312 0.874770 62 97 43
0.355628 0.154502 0.874653 50 85 31
0.353632 0.154692 0.874537 51 74 24
0.351636 0.154882 0.874420 49 72 22
