ply
format ascii 1.0
element vertex 1950
property float x
property float y
property float z
property uchar red
property uchar green
property uchar blue
end_header
-0.327739 -0.085077 0.678000 137 145 142
-0.325980 -0.085077 0.678000 138 146 143
-0.324222 -0.085077 0.678000 133 142 135
-0.322463 -0.085077 0.678000 128 137 130
-0.320705 -0.085077 0.678000 131 138 132
-0.318476 -0.084952 0.677000 132 139 133
-0.316720 -0.084952 0.677000 131 135 130
-0.314964 -0.084952 0.677000 126 130 125
-0.312745 -0.084826 0.676000 127 134 128
-0.310992 -0.084826 0.676000 127 134 128
-0.309239 -0.084826 0.676000 128 135 129
-0.307485 -0.084826 0.676000 131 138 132
-0.305280 -0.084701 0.675000 125 132 126
-0.303529 -0.084701 0.675000 131 138 132
-0.301778 -0.084701 0.675000 129 136 130
-0.300027 -0.084701 0.675000 131 138 132
-0.298277 -0.084701 0.675000 133 140 134
-0.296965 -0.084826 0.676000 131 138 132
-0.295212 -0.084826 0.676000 127 133 131
-0.293459 -0.084826 0.676000 131 137 135
-0.291705 -0.084826 0.676000 128 134 132
-0.290381 -0.084952 0.677000 129 135 133
-0.288625 -0.084952 0.677000 133 141 138
-0.286869 -0.084952 0.677000 139 147 144
-0.285113 -0.084952 0.677000 144 152 149
-0.283357 -0.084952 0.677000 144 152 149
-0.281601 -0.084952 0.677000 150 158 155
-0.279845 -0.084952 0.677000 139 147 144
-0.278500 -0.085077 0.678000 141 149 146
-0.276742 -0.085077 0.678000 139 147 144
-0.274577 -0.084952 0.677000 148 154 152
-0.272821 -0.084952 0.677000 150 156 154
-0.271066 -0.084952 0.677000 146 152 150
-0.268912 -0.084826 0.676000 149 155 153
-0.267159 -0.084826 0.676000 149 155 153
-0.265405 -0.084826 0.676000 149 155 153
-0.263652 -0.084826 0.676000 154 160 158
-0.340048 -0.083317 0.678000 134 140 140
-0.338290 -0.083317 0.678000 126 132 132
-0.336531 -0.083317 0.678000 125 131 131
-0.334773 -0.083317 0.678000 120 128 129
-0.333014 -0.083317 0.678000 114 122 123
-0.331256 -0.083317 0.678000 114 121 125
-0.329497 -0.083317 0.678000 113 120 124
-0.327739 -0.083317 0.678000 115 126 126
-0.325980 -0.083317 0.678000 117 128 128
-0.324222 -0.083317 0.678000 116 127 123
-0.322463 -0.083317 0.678000 121 132 128
-0.320705 -0.083317 0.678000 121 129 126
-0.318946 -0.083317 0.678000 117 125 122
-0.316720 -0.083194 0.677000 118 124 122
-0.314964 -0.083194 0.677000 122 128 126
-0.313208 -0.083194 0.677000 118 124 122
-0.310992 -0.083071 0.676000 113 119 117
-0.309239 -0.083071 0.676000 112 118 116
-0.307485 -0.083071 0.676000 117 123 121
-0.305280 -0.082948 0.675000 115 121 119
-0.303529 -0.082948 0.675000 110 116 114
-0.301778 -0.082948 0.675000 111 120 113
-0.300027 -0.082948 0.675000 110 119 112
-0.298277 -0.082948 0.675000 110 117 111
-0.296965 -0.083071 0.676000 108 115 109
-0.295212 -0.083071 0.676000 107 114 108
-0.293459 -0.083071 0.676000 104 111 105
-0.291705 -0.083071 0.676000 103 109 107
-0.290381 -0.083194 0.677000 104 110 108
-0.288625 -0.083194 0.677000 102 110 107
-0.286869 -0.083194 0.677000 102 110 107
-0.285113 -0.083194 0.677000 103 111 108
-0.283776 -0.083317 0.678000 103 111 108
-0.281601 -0.083194 0.677000 97 105 104
-0.280259 -0.083317 0.678000 97 105 104
-0.278500 -0.083317 0.678000 100 108 107
-0.276333 -0.083194 0.677000 98 106 105
-0.274577 -0.083194 0.677000 97 105 106
-0.272821 -0.083194 0.677000 95 103 104
-0.271066 -0.083194 0.677000 96 102 102
-0.268912 -0.083071 0.676000 98 104 104
-0.267159 -0.083071 0.676000 94 100 100
-0.265405 -0.083071 0.676000 97 103 103
-0.263652 -0.083071 0.676000 94 100 100
-0.261899 -0.083071 0.676000 93 99 99
-0.260145 -0.083071 0.676000 97 103 103
-0.258010 -0.082948 0.675000 98 104 104
-0.256259 -0.082948 0.675000 100 106 108
-0.254508 -0.082948 0.675000 98 104 106
-0.252757 -0.082948 0.675000 99 105 107
-0.251007 -0.082948 0.675000 98 104 106
-0.249256 -0.082948 0.675000 100 108 109
-0.247505 -0.082948 0.675000 109 117 118
-0.245390 -0.082825 0.674000 110 118 119
-0.243642 -0.082825 0.674000 110 118 119
-0.241894 -0.082825 0.674000 117 123 123
-0.240146 -0.082825 0.674000 118 124 124
-0.238044 -0.082702 0.673000 124 130 130
-0.236298 -0.082702 0.673000 131 137 137
-0.234553 -0.082702 0.673000 139 145 145
-0.232807 -0.082702 0.673000 142 148 148
-0.231062 -0.082702 0.673000 143 149 147
-0.229316 -0.082702 0.673000 141 147 145
-0.227909 -0.082825 0.674000 145 151 149
-0.226161 -0.082825 0.674000 146 152 150
-0.224413 -0.082825 0.674000 156 162 160
-0.348841 -0.081556 0.678000 126 132 130
-0.347594 -0.081676 0.679000 126 132 130
-0.345324 -0.081556 0.678000 124 130 130
-0.344072 -0.081676 0.679000 118 124 124
-0.341807 -0.081556 0.678000 114 120 120
-0.340048 -0.081556 0.678000 113 119 119
-0.338290 -0.081556 0.678000 112 118 120
-0.336531 -0.081556 0.678000 113 119 121
-0.334773 -0.081556 0.678000 110 118 119
-0.333014 -0.081556 0.678000 107 115 116
-0.331256 -0.081556 0.678000 102 113 113
-0.329497 -0.081556 0.678000 103 114 114
-0.327739 -0.081556 0.678000 99 112 111
-0.325980 -0.081556 0.678000 100 113 112
-0.324222 -0.081556 0.678000 99 112 111
-0.322463 -0.081556 0.678000 99 112 111
-0.320705 -0.081556 0.678000 97 105 104
-0.318946 -0.081556 0.678000 95 103 102
-0.317188 -0.081556 0.678000 96 104 103
-0.314964 -0.081435 0.677000 98 106 105
-0.313208 -0.081435 0.677000 99 107 106
-0.311452 -0.081435 0.677000 95 103 102
-0.309239 -0.081315 0.676000 92 100 99
-0.307485 -0.081315 0.676000 96 104 103
-0.305732 -0.081315 0.676000 96 104 103
-0.303529 -0.081195 0.675000 92 100 99
-0.301778 -0.081195 0.675000 91 99 96
-0.300027 -0.081195 0.675000 91 99 96
-0.298719 -0.081315 0.676000 98 107 100
-0.296965 -0.081315 0.676000 98 107 100
-0.295212 -0.081315 0.676000 99 106 100
-0.293893 -0.081435 0.677000 98 105 99
-0.292137 -0.081435 0.677000 94 100 98
-0.290381 -0.081435 0.677000 97 103 101
-0.288625 -0.081435 0.677000 97 105 102
-0.287293 -0.081556 0.678000 97 105 102
-0.285534 -0.081556 0.678000 96 104 101
-0.283776 -0.081556 0.678000 93 101 98
-0.282017 -0.081556 0.678000 96 104 101
-0.280259 -0.081556 0.678000 99 107 104
-0.278500 -0.081556 0.678000 96 104 103
-0.276742 -0.081556 0.678000 95 103 102
-0.274983 -0.081556 0.678000 96 104 103
-0.272821 -0.081435 0.677000 95 103 102
-0.271066 -0.081435 0.677000 96 102 102
-0.269310 -0.081435 0.677000 93 99 99
-0.267159 -0.081315 0.676000 93 99 99
-0.265405 -0.081315 0.676000 96 102 102
-0.263652 -0.081315 0.676000 93 99 99
-0.261899 -0.081315 0.676000 97 103 103
-0.260145 -0.081315 0.676000 97 103 103
-0.258392 -0.081315 0.676000 91 97 97
-0.256259 -0.081195 0.675000 89 95 97
-0.254508 -0.081195 0.675000 89 95 97
-0.252757 -0.081195 0.675000 85 93 94
-0.251007 -0.081195 0.675000 86 94 95
-0.249256 -0.081195 0.675000 86 93 97
-0.247505 -0.081195 0.675000 86 93 97
-0.245754 -0.081195 0.675000 89 96 100
-0.243642 -0.081075 0.674000 89 96 100
-0.241894 -0.081075 0.674000 89 97 98
-0.240146 -0.081075 0.674000 89 97 98
-0.238398 -0.081075 0.674000 89 95 97
-0.236650 -0.081075 0.674000 89 95 97
-0.234901 -0.081075 0.674000 90 96 98
-0.233153 -0.081075 0.674000 91 97 99
-0.231405 -0.081075 0.674000 92 98 100
-0.229657 -0.081075 0.674000 92 98 100
-0.227909 -0.081075 0.674000 91 97 97
-0.226161 -0.081075 0.674000 96 102 102
-0.224413 -0.081075 0.674000 98 104 104
-0.222664 -0.081075 0.674000 98 104 104
-0.221244 -0.081195 0.675000 102 109 113
-0.219493 -0.081195 0.675000 113 120 124
-0.218065 -0.081315 0.676000 120 127 131
-0.215992 -0.081195 0.675000 126 133 137
-0.214558 -0.081315 0.676000 138 146 147
-0.212805 -0.081315 0.676000 141 149 150
-0.211052 -0.081315 0.676000 147 155 152
-0.209298 -0.081315 0.676000 154 162 159
-0.207545 -0.081315 0.676000 161 167 165
-0.354639 -0.079913 0.679000 127 114 103
-0.352878 -0.079913 0.679000 118 118 114
-0.351117 -0.079913 0.679000 111 111 107
-0.349355 -0.079913 0.679000 105 111 111
-0.347594 -0.079913 0.679000 100 106 106
-0.345833 -0.079913 0.679000 96 102 102
-0.344072 -0.079913 0.679000 91 97 97
-0.342311 -0.079913 0.679000 90 98 99
-0.340550 -0.079913 0.679000 89 97 98
-0.338789 -0.079913 0.679000 89 97 98
-0.336531 -0.079795 0.678000 90 98 99
-0.334773 -0.079795 0.678000 92 100 101
-0.333014 -0.079795 0.678000 93 101 102
-0.331256 -0.079795 0.678000 92 100 101
-0.329497 -0.079795 0.678000 89 97 98
-0.327739 -0.079795 0.678000 86 99 98
-0.325980 -0.079795 0.678000 89 102 101
-0.324222 -0.079795 0.678000 85 97 99
-0.322463 -0.079795 0.678000 87 99 101
-0.320705 -0.079795 0.678000 92 104 106
-0.318946 -0.079795 0.678000 88 100 102
-0.317188 -0.079795 0.678000 89 100 100
-0.315429 -0.079795 0.678000 90 101 101
-0.313208 -0.079677 0.677000 91 102 100
-0.311452 -0.079677 0.677000 100 111 109
-0.309696 -0.079677 0.677000 96 107 105
-0.307485 -0.079559 0.676000 91 102 100
-0.305732 -0.079559 0.676000 91 102 100
-0.303979 -0.079559 0.676000 94 105 103
-0.301778 -0.079442 0.675000 91 102 100
-0.300027 -0.079442 0.675000 95 106 104
-0.298719 -0.079559 0.676000 93 101 98
-0.296965 -0.079559 0.676000 98 106 103
-0.295649 -0.079677 0.677000 104 110 108
-0.293893 -0.079677 0.677000 104 110 108
-0.292137 -0.079677 0.677000 100 106 104
-0.290810 -0.079795 0.678000 103 109 107
-0.289051 -0.079795 0.678000 100 108 105
-0.287293 -0.079795 0.678000 103 111 108
-0.285534 -0.079795 0.678000 103 111 108
-0.283776 -0.079795 0.678000 100 108 105
-0.282017 -0.079795 0.678000 102 113 109
-0.280259 -0.079795 0.678000 95 106 102
-0.278500 -0.079795 0.678000 99 107 104
-0.276742 -0.079795 0.678000 97 105 102
-0.274983 -0.079795 0.678000 97 103 103
-0.273224 -0.079795 0.678000 100 106 106
-0.271066 -0.079677 0.677000 107 110 111
-0.269310 -0.079677 0.677000 103 106 107
-0.267554 -0.079677 0.677000 108 111 112
-0.265405 -0.079559 0.676000 110 113 114
-0.263652 -0.079559 0.676000 101 107 107
-0.261899 -0.079559 0.676000 101 107 107
-0.260145 -0.079559 0.676000 99 107 106
-0.258010 -0.079442 0.675000 102 110 109
-0.256259 -0.079442 0.675000 97 105 106
-0.254508 -0.079442 0.675000 99 107 108
-0.252757 -0.079442 0.675000 99 107 108
-0.251007 -0.079442 0.675000 97 105 106
-0.249625 -0.079559 0.676000 93 100 104
-0.247872 -0.079559 0.676000 97 104 108
-0.245754 -0.079442 0.675000 95 105 108
-0.244004 -0.079442 0.675000 95 105 108
-0.242253 -0.079442 0.675000 96 106 109
-0.240502 -0.079442 0.675000 91 101 104
-0.238751 -0.079442 0.675000 91 98 102
-0.237001 -0.079442 0.675000 95 102 106
-0.235250 -0.079442 0.675000 93 100 104
-0.233153 -0.079324 0.674000 92 99 103
-0.231748 -0.079442 0.675000 92 100 101
-0.229657 -0.079324 0.674000 91 99 100
-0.228247 -0.079442 0.675000 92 100 101
-0.226496 -0.079442 0.675000 91 99 100
-0.224746 -0.079442 0.675000 91 99 100
-0.222995 -0.079442 0.675000 90 98 99
-0.221244 -0.079442 0.675000 88 98 101
-0.219818 -0.079559 0.676000 83 93 96
-0.218065 -0.079559 0.676000 87 97 100
-0.216312 -0.079559 0.676000 89 99 102
-0.214558 -0.079559 0.676000 89 100 100
-0.212805 -0.079559 0.676000 88 99 99
-0.211052 -0.079559 0.676000 91 99 98
-0.209298 -0.079559 0.676000 95 103 102
-0.207545 -0.079559 0.676000 99 107 106
-0.205792 -0.079559 0.676000 105 113 112
-0.204038 -0.079559 0.676000 110 117 123
-0.202584 -0.079677 0.677000 119 126 132
-0.200828 -0.079677 0.677000 131 138 146
-0.199072 -0.079677 0.677000 133 140 148
-0.197608 -0.079795 0.678000 139 146 150
-0.195849 -0.079795 0.678000 147 154 158
-0.194091 -0.079795 0.678000 160 163 164
-0.355161 -0.078264 0.680000 103 92 83
-0.353397 -0.078264 0.680000 96 96 92
-0.351634 -0.078264 0.680000 92 92 88
-0.349870 -0.078264 0.680000 84 90 88
-0.348106 -0.078264 0.680000 89 95 93
-0.346343 -0.078264 0.680000 93 101 100
-0.344072 -0.078149 0.679000 95 103 102
-0.342311 -0.078149 0.679000 97 105 104
-0.340550 -0.078149 0.679000 98 106 105
-0.338789 -0.078149 0.679000 95 103 102
-0.337028 -0.078149 0.679000 100 108 107
-0.335267 -0.078149 0.679000 99 105 105
-0.333505 -0.078149 0.679000 105 111 111
-0.331744 -0.078149 0.679000 106 112 112
-0.329497 -0.078034 0.678000 107 113 113
-0.328222 -0.078149 0.679000 106 114 113
-0.325980 -0.078034 0.678000 102 110 109
-0.324222 -0.078034 0.678000 104 112 113
-0.322463 -0.078034 0.678000 105 113 114
-0.320705 -0.078034 0.678000 104 112 113
-0.318946 -0.078034 0.678000 107 115 116
-0.317188 -0.078034 0.678000 107 115 116
-0.315429 -0.078034 0.678000 113 121 122
-0.313671 -0.078034 0.678000 110 118 117
-0.311912 -0.078034 0.678000 105 113 112
-0.309696 -0.077919 0.677000 111 119 118
-0.307940 -0.077919 0.677000 116 124 123
-0.306184 -0.077919 0.677000 114 125 125
-0.303979 -0.077804 0.676000 116 127 127
-0.302225 -0.077804 0.676000 115 126 124
-0.300472 -0.077804 0.676000 115 126 124
-0.299160 -0.077919 0.677000 116 127 123
-0.297404 -0.077919 0.677000 112 123 119
-0.295649 -0.077919 0.677000 113 121 118
-0.294327 -0.078034 0.678000 116 124 121
-0.292568 -0.078034 0.678000 120 128 125
-0.290810 -0.078034 0.678000 117 125 122
-0.289051 -0.078034 0.678000 112 120 117
-0.287293 -0.078034 0.678000 113 121 118
-0.285534 -0.078034 0.678000 116 124 121
-0.283776 -0.078034 0.678000 117 125 122
-0.282017 -0.078034 0.678000 113 121 118
-0.280259 -0.078034 0.678000 117 125 122
-0.278500 -0.078034 0.678000 118 126 123
-0.276742 -0.078034 0.678000 112 120 117
-0.274983 -0.078034 0.678000 115 121 119
-0.273224 -0.078034 0.678000 120 126 124
-0.271466 -0.078034 0.678000 119 122 121
-0.269707 -0.078034 0.678000 116 119 118
-0.267554 -0.077919 0.677000 114 120 118
-0.265798 -0.077919 0.677000 114 120 118
-0.263652 -0.077804 0.676000 114 120 120
-0.261899 -0.077804 0.676000 112 118 118
-0.260145 -0.077804 0.676000 114 122 121
-0.258392 -0.077804 0.676000 111 119 118
-0.256638 -0.077804 0.676000 114 122 123
-0.254885 -0.077804 0.676000 113 121 122
-0.253132 -0.077804 0.676000 113 121 122
-0.251379 -0.077804 0.676000 114 122 123
-0.249625 -0.077804 0.676000 110 121 121
-0.247872 -0.077804 0.676000 109 120 120
-0.246118 -0.077804 0.676000 107 117 120
-0.244365 -0.077804 0.676000 107 117 120
-0.242612 -0.077804 0.676000 105 115 118
-0.240858 -0.077804 0.676000 105 115 118
-0.239105 -0.077804 0.676000 110 121 121
-0.237352 -0.077804 0.676000 103 114 114
-0.235598 -0.077804 0.676000 104 112 111
-0.233499 -0.077689 0.675000 104 112 111
-0.231748 -0.077689 0.675000 104 110 110
-0.229998 -0.077689 0.675000 99 105 105
-0.228247 -0.077689 0.675000 97 105 104
-0.226496 -0.077689 0.675000 98 106 105
-0.224746 -0.077689 0.675000 102 110 109
-0.222995 -0.077689 0.675000 97 105 104
-0.221244 -0.077689 0.675000 96 104 105
-0.219818 -0.077804 0.676000 97 105 106
-0.218065 -0.077804 0.676000 98 106 107
-0.216312 -0.077804 0.676000 97 105 106
-0.214558 -0.077804 0.676000 95 103 104
-0.212805 -0.077804 0.676000 90 98 99
-0.211052 -0.077804 0.676000 90 98 97
-0.209298 -0.077804 0.676000 90 98 97
-0.207545 -0.077804 0.676000 90 98 97
-0.205792 -0.077804 0.676000 89 97 96
-0.204340 -0.077919 0.677000 89 97 98
-0.202584 -0.077919 0.677000 88 96 97
-0.200828 -0.077919 0.677000 91 98 104
-0.199072 -0.077919 0.677000 91 98 104
-0.197608 -0.078034 0.678000 95 103 104
-0.195849 -0.078034 0.678000 97 105 106
-0.194091 -0.078034 0.678000 106 109 110
-0.192332 -0.078034 0.678000 115 118 119
-0.190574 -0.078034 0.678000 122 128 128
-0.188815 -0.078034 0.678000 124 130 130
-0.187057 -0.078034 0.678000 140 145 150
-0.185298 -0.078034 0.678000 145 150 155
-0.356925 -0.076498 0.680000 113 100 89
-0.355161 -0.076498 0.680000 118 105 94
-0.353397 -0.076498 0.680000 112 107 103
-0.351634 -0.076498 0.680000 114 109 105
-0.349870 -0.076498 0.680000 110 111 107
-0.348106 -0.076498 0.680000 108 109 105
-0.346343 -0.076498 0.680000 107 116 109
-0.344579 -0.076498 0.680000 105 114 107
-0.342815 -0.076498 0.680000 103 111 108
-0.341051 -0.076498 0.680000 104 112 109
-0.339288 -0.076498 0.680000 110 116 114
-0.337028 -0.076386 0.679000 117 123 121
-0.335267 -0.076386 0.679000 112 115 114
-0.333505 -0.076386 0.679000 116 119 118
-0.331744 -0.076386 0.679000 123 126 125
-0.329983 -0.076386 0.679000 128 131 130
-0.328222 -0.076386 0.679000 127 133 133
-0.326461 -0.076386 0.679000 127 133 133
-0.324700 -0.076386 0.679000 130 138 137
-0.322939 -0.076386 0.679000 131 139 138
-0.321178 -0.076386 0.679000 131 139 140
-0.319417 -0.076386 0.679000 127 135 136
-0.317188 -0.076273 0.678000 131 139 138
-0.315894 -0.076386 0.679000 142 150 149
-0.313671 -0.076273 0.678000 137 145 144
-0.311912 -0.076273 0.678000 134 142 141
-0.310153 -0.076273 0.678000 138 146 145
-0.308395 -0.076273 0.678000 139 147 146
-0.306636 -0.076273 0.678000 137 145 146
-0.304878 -0.076273 0.678000 144 152 153
-0.302672 -0.076161 0.677000 136 147 147
-0.300916 -0.076161 0.677000 140 151 151
-0.299602 -0.076273 0.678000 146 157 155
-0.297844 -0.076273 0.678000 151 162 160
-0.296085 -0.076273 0.678000 147 158 154
-0.294327 -0.076273 0.678000 152 163 159
-0.292568 -0.076273 0.678000 151 162 160
-0.290810 -0.076273 0.678000 153 164 162
-0.289051 -0.076273 0.678000 151 162 162
-0.287293 -0.076273 0.678000 150 161 161
-0.285534 -0.076273 0.678000 156 164 163
-0.283776 -0.076273 0.678000 156 164 163
-0.282017 -0.076273 0.678000 157 165 164
-0.280259 -0.076273 0.678000 159 167 166
-0.278500 -0.076273 0.678000 162 170 169
-0.276742 -0.076273 0.678000 166 174 173
-0.274983 -0.076273 0.678000 168 174 174
-0.273224 -0.076273 0.678000 174 180 180
-0.271466 -0.076273 0.678000 169 175 173
-0.269707 -0.076273 0.678000 167 173 171
-0.267949 -0.076273 0.678000 164 170 168
-0.265798 -0.076161 0.677000 161 167 165
-0.264042 -0.076161 0.677000 162 168 168
-0.262286 -0.076161 0.677000 157 163 163
-0.260530 -0.076161 0.677000 154 162 163
-0.258774 -0.076161 0.677000 155 163 164
-0.257018 -0.076161 0.677000 155 162 166
-0.255262 -0.076161 0.677000 154 161 165
-0.253506 -0.076161 0.677000 153 160 164
-0.251750 -0.076161 0.677000 148 155 159
-0.249994 -0.076161 0.677000 145 155 158
-0.248238 -0.076161 0.677000 143 153 156
-0.246483 -0.076161 0.677000 133 143 146
-0.244727 -0.076161 0.677000 128 138 141
-0.242971 -0.076161 0.677000 125 133 134
-0.241215 -0.076161 0.677000 124 132 133
-0.239459 -0.076161 0.677000 125 131 131
-0.237703 -0.076161 0.677000 125 131 131
-0.235947 -0.076161 0.677000 122 125 124
-0.233845 -0.076048 0.676000 124 127 126
-0.232092 -0.076048 0.676000 119 122 121
-0.230338 -0.076048 0.676000 117 120 119
-0.228585 -0.076048 0.676000 113 119 117
-0.226832 -0.076048 0.676000 111 117 115
-0.224746 -0.075936 0.675000 113 121 118
-0.223325 -0.076048 0.676000 104 112 109
-0.221244 -0.075936 0.675000 111 119 118
-0.219818 -0.076048 0.676000 111 119 118
-0.218065 -0.076048 0.676000 107 115 114
-0.216312 -0.076048 0.676000 104 112 111
-0.214558 -0.076048 0.676000 103 111 110
-0.212805 -0.076048 0.676000 103 111 110
-0.211052 -0.076048 0.676000 97 105 102
-0.209298 -0.076048 0.676000 97 105 102
-0.207852 -0.076161 0.677000 99 107 104
-0.206096 -0.076161 0.677000 96 104 101
-0.204340 -0.076161 0.677000 95 103 102
-0.202584 -0.076161 0.677000 97 105 104
-0.200828 -0.076161 0.677000 96 107 107
-0.199367 -0.076273 0.678000 94 105 105
-0.197608 -0.076273 0.678000 96 104 103
-0.195849 -0.076273 0.678000 93 101 100
-0.194091 -0.076273 0.678000 91 97 97
-0.192332 -0.076273 0.678000 92 98 98
-0.190574 -0.076273 0.678000 92 98 98
-0.188815 -0.076273 0.678000 94 100 100
-0.187057 -0.076273 0.678000 96 102 104
-0.185298 -0.076273 0.678000 98 104 106
-0.183540 -0.076273 0.678000 103 108 115
-0.181781 -0.076273 0.678000 111 116 123
-0.180023 -0.076273 0.678000 125 132 138
-0.178527 -0.076386 0.679000 137 144 150
-0.176766 -0.076386 0.679000 147 154 158
-0.175005 -0.076386 0.679000 152 159 163
-0.355161 -0.074732 0.680000 121 108 97
-0.353917 -0.074842 0.681000 119 115 108
-0.352151 -0.074842 0.681000 123 119 112
-0.350385 -0.074842 0.681000 122 122 116
-0.348618 -0.074842 0.681000 124 124 118
-0.346852 -0.074842 0.681000 121 130 123
-0.345086 -0.074842 0.681000 120 129 122
-0.343319 -0.074842 0.681000 130 138 135
-0.341051 -0.074732 0.680000 140 148 145
-0.339288 -0.074732 0.680000 147 155 152
-0.337524 -0.074732 0.680000 157 165 162
-0.335760 -0.074732 0.680000 164 170 168
-0.333997 -0.074732 0.680000 163 169 167
-0.331744 -0.074622 0.679000 164 170 168
-0.329983 -0.074622 0.679000 165 171 169
-0.328222 -0.074622 0.679000 169 177 176
-0.326461 -0.074622 0.679000 171 179 178
-0.324700 -0.074622 0.679000 174 182 181
-0.245088 -0.074512 0.678000 182 190 191
-0.243330 -0.074512 0.678000 180 188 187
-0.241571 -0.074512 0.678000 178 186 185
-0.239813 -0.074512 0.678000 177 183 183
-0.238054 -0.074512 0.678000 177 183 183
-0.236296 -0.074512 0.678000 174 180 180
-0.234191 -0.074402 0.677000 175 181 181
-0.232435 -0.074402 0.677000 172 178 176
-0.230679 -0.074402 0.677000 170 176 174
-0.228923 -0.074402 0.677000 163 169 167
-0.226832 -0.074292 0.676000 150 156 154
-0.225078 -0.074292 0.676000 143 149 147
-0.223325 -0.074292 0.676000 139 145 143
-0.221572 -0.074292 0.676000 120 128 127
-0.219818 -0.074292 0.676000 118 126 125
-0.218388 -0.074402 0.677000 116 124 123
-0.216632 -0.074402 0.677000 118 126 125
-0.214876 -0.074402 0.677000 117 123 121
-0.213120 -0.074402 0.677000 119 125 123
-0.211364 -0.074402 0.677000 119 122 121
-0.209608 -0.074402 0.677000 113 116 115
-0.207852 -0.074402 0.677000 111 117 115
-0.206096 -0.074402 0.677000 108 114 112
-0.204642 -0.074512 0.678000 107 115 112
-0.202884 -0.074512 0.678000 107 115 112
-0.201125 -0.074512 0.678000 105 116 114
-0.199367 -0.074512 0.678000 103 114 112
-0.197608 -0.074512 0.678000 99 107 104
-0.195849 -0.074512 0.678000 98 106 103
-0.194091 -0.074512 0.678000 99 106 100
-0.192332 -0.074512 0.678000 94 101 95
-0.190574 -0.074512 0.678000 97 104 98
-0.188815 -0.074512 0.678000 96 103 97
-0.187057 -0.074512 0.678000 93 101 100
-0.185298 -0.074512 0.678000 93 101 100
-0.183540 -0.074512 0.678000 96 103 107
-0.181781 -0.074512 0.678000 91 98 102
-0.180023 -0.074512 0.678000 92 99 103
-0.178527 -0.074622 0.679000 99 106 110
-0.176766 -0.074622 0.679000 103 110 114
-0.175005 -0.074622 0.679000 104 111 115
-0.173499 -0.074732 0.680000 118 124 126
-0.171735 -0.074732 0.680000 128 134 136
-0.169972 -0.074732 0.680000 135 141 141
-0.168208 -0.074732 0.680000 146 152 152
-0.166444 -0.074732 0.680000 153 161 160
-0.354437 -0.073181 0.682000 159 155 148
-0.352668 -0.073181 0.682000 159 155 148
-0.350899 -0.073181 0.682000 162 162 156
-0.349130 -0.073181 0.682000 168 168 162
-0.347361 -0.073181 0.682000 173 177 172
-0.220469 -0.072751 0.678000 182 188 188
-0.218710 -0.072751 0.678000 178 181 180
-0.216952 -0.072751 0.678000 174 177 176
-0.215193 -0.072751 0.678000 173 173 173
-0.213435 -0.072751 0.678000 169 169 169
-0.211676 -0.072751 0.678000 166 166 166
-0.209918 -0.072751 0.678000 160 160 160
-0.208159 -0.072751 0.678000 148 154 152
-0.206401 -0.072751 0.678000 139 145 143
-0.204642 -0.072751 0.678000 121 129 128
-0.202884 -0.072751 0.678000 112 120 119
-0.201125 -0.072751 0.678000 110 118 117
-0.199367 -0.072751 0.678000 114 122 121
-0.197608 -0.072751 0.678000 114 122 119
-0.195849 -0.072751 0.678000 107 115 112
-0.194091 -0.072751 0.678000 111 118 112
-0.192332 -0.072751 0.678000 107 114 108
-0.190574 -0.072751 0.678000 104 113 106
-0.188815 -0.072751 0.678000 102 111 104
-0.187057 -0.072751 0.678000 97 108 108
-0.185298 -0.072751 0.678000 94 105 105
-0.183540 -0.072751 0.678000 94 105 105
-0.181781 -0.072751 0.678000 95 106 106
-0.180023 -0.072751 0.678000 94 104 107
-0.178527 -0.072859 0.679000 93 103 106
-0.176766 -0.072859 0.679000 91 101 104
-0.175005 -0.072859 0.679000 89 99 102
-0.173499 -0.072966 0.680000 91 99 100
-0.171735 -0.072966 0.680000 93 101 102
-0.169972 -0.072966 0.680000 99 107 108
-0.168208 -0.072966 0.680000 100 108 109
-0.166444 -0.072966 0.680000 111 118 122
-0.164680 -0.072966 0.680000 119 126 130
-0.162917 -0.072966 0.680000 129 135 137
-0.161153 -0.072966 0.680000 138 144 146
-0.159155 -0.072859 0.679000 147 150 153
-0.157394 -0.072859 0.679000 156 159 162
-0.206705 -0.071095 0.679000 185 188 187
-0.204944 -0.071095 0.679000 183 189 189
-0.203183 -0.071095 0.679000 178 184 184
-0.201422 -0.071095 0.679000 168 174 174
-0.199661 -0.071095 0.679000 162 168 168
-0.197899 -0.071095 0.679000 151 154 153
-0.196138 -0.071095 0.679000 142 145 144
-0.194091 -0.070991 0.678000 137 141 136
-0.192332 -0.070991 0.678000 133 137 132
-0.190574 -0.070991 0.678000 123 131 128
-0.188815 -0.070991 0.678000 113 121 118
-0.187057 -0.070991 0.678000 102 113 113
-0.185298 -0.070991 0.678000 105 116 116
-0.183540 -0.070991 0.678000 104 115 113
-0.181781 -0.070991 0.678000 101 112 110
-0.180288 -0.071095 0.679000 102 113 111
-0.178527 -0.071095 0.679000 101 112 110
-0.176766 -0.071095 0.679000 91 102 102
-0.175263 -0.071200 0.680000 93 104 104
-0.173499 -0.071200 0.680000 93 104 102
-0.171735 -0.071200 0.680000 94 105 103
-0.169972 -0.071200 0.680000 96 104 103
-0.168208 -0.071200 0.680000 91 99 98
-0.166444 -0.071200 0.680000 90 98 99
-0.164680 -0.071200 0.680000 92 100 101
-0.162917 -0.071200 0.680000 98 103 108
-0.161153 -0.071200 0.680000 105 110 115
-0.159155 -0.071095 0.679000 111 116 123
-0.157394 -0.071095 0.679000 119 124 131
-0.155633 -0.071095 0.679000 127 132 139
-0.153872 -0.071095 0.679000 134 139 146
-0.151886 -0.070991 0.678000 142 148 150
-0.150128 -0.070991 0.678000 149 155 157
-0.194663 -0.069434 0.680000 183 184 180
-0.192616 -0.069332 0.679000 181 182 178
-0.190855 -0.069332 0.679000 178 181 180
-0.189094 -0.069332 0.679000 173 176 175
-0.187333 -0.069332 0.679000 161 167 167
-0.185572 -0.069332 0.679000 140 146 146
-0.183811 -0.069332 0.679000 127 133 133
-0.182049 -0.069332 0.679000 118 124 124
-0.180288 -0.069332 0.679000 107 118 116
-0.178527 -0.069332 0.679000 112 123 121
-0.177026 -0.069434 0.680000 103 114 112
-0.175263 -0.069434 0.680000 107 118 116
-0.173499 -0.069434 0.680000 100 108 107
-0.171988 -0.069536 0.681000 98 106 105
-0.170222 -0.069536 0.681000 99 107 106
-0.168455 -0.069536 0.681000 97 105 104
-0.166689 -0.069536 0.681000 95 103 104
-0.164680 -0.069434 0.680000 96 104 105
-0.162917 -0.069434 0.680000 96 104 105
-0.161153 -0.069434 0.680000 96 104 105
-0.159389 -0.069434 0.680000 95 102 106
-0.157394 -0.069332 0.679000 92 99 103
-0.155633 -0.069332 0.679000 92 99 103
-0.153872 -0.069332 0.679000 95 102 106
-0.151886 -0.069230 0.678000 102 109 115
-0.150128 -0.069230 0.678000 105 112 118
-0.148369 -0.069230 0.678000 106 113 117
-0.146611 -0.069230 0.678000 121 128 132
-0.144852 -0.069230 0.678000 133 138 143
-0.143094 -0.069230 0.678000 143 148 153
-0.184081 -0.067668 0.680000 186 189 188
-0.182318 -0.067668 0.680000 183 186 185
-0.180554 -0.067668 0.680000 168 174 174
-0.178790 -0.067668 0.680000 155 161 161
-0.177026 -0.067668 0.680000 147 150 149
-0.175520 -0.067767 0.681000 129 132 131
-0.173754 -0.067767 0.681000 124 125 121
-0.172240 -0.067867 0.682000 123 124 120
-0.170471 -0.067867 0.682000 110 116 114
-0.168455 -0.067767 0.681000 107 113 111
-0.166689 -0.067767 0.681000 104 110 110
-0.164923 -0.067767 0.681000 107 113 113
-0.163156 -0.067767 0.681000 101 107 107
-0.161390 -0.067767 0.681000 98 104 104
-0.159389 -0.067668 0.680000 95 103 104
-0.157626 -0.067668 0.680000 93 101 102
-0.155633 -0.067568 0.679000 95 103 104
-0.153872 -0.067568 0.679000 96 104 105
-0.152110 -0.067568 0.679000 93 101 102
-0.150128 -0.067469 0.678000 97 105 106
-0.148369 -0.067469 0.678000 95 103 104
-0.146611 -0.067469 0.678000 92 100 101
-0.144852 -0.067469 0.678000 97 104 108
-0.143094 -0.067469 0.678000 103 110 114
-0.141335 -0.067469 0.678000 108 113 120
-0.139577 -0.067469 0.678000 121 126 133
-0.138021 -0.067568 0.679000 137 139 145
-0.136260 -0.067568 0.679000 149 151 157
-0.134499 -0.067568 0.679000 160 163 164
-0.175778 -0.066096 0.682000 185 188 187
-0.174009 -0.066096 0.682000 185 186 182
-0.172493 -0.066193 0.683000 176 177 173
-0.170721 -0.066193 0.683000 148 154 154
-0.168703 -0.066096 0.682000 129 135 135
-0.166934 -0.066096 0.682000 120 126 126
-0.165165 -0.066096 0.682000 118 124 124
-0.163396 -0.066096 0.682000 117 120 119
-0.161390 -0.065999 0.681000 115 118 117
-0.159624 -0.065999 0.681000 111 117 117
-0.157626 -0.065902 0.680000 111 117 117
-0.155862 -0.065902 0.680000 105 111 111
-0.153872 -0.065805 0.679000 98 104 104
-0.152110 -0.065805 0.679000 94 100 100
-0.150349 -0.065805 0.679000 96 102 102
-0.148588 -0.065805 0.679000 97 103 103
-0.146827 -0.065805 0.679000 94 100 100
-0.144852 -0.065708 0.678000 97 103 105
-0.143094 -0.065708 0.678000 98 104 106
-0.141335 -0.065708 0.678000 93 98 105
-0.139783 -0.065805 0.679000 93 98 105
-0.138021 -0.065805 0.679000 95 97 105
-0.136260 -0.065805 0.679000 105 107 115
-0.134499 -0.065805 0.679000 115 117 125
-0.132738 -0.065805 0.679000 124 126 134
-0.130977 -0.065805 0.679000 145 147 153
-0.129216 -0.065805 0.679000 162 164 170
-0.169197 -0.064513 0.684000 183 186 185
-0.167178 -0.064419 0.683000 183 186 187
-0.165407 -0.064419 0.683000 179 182 183
-0.163635 -0.064419 0.683000 176 176 178
-0.161864 -0.064419 0.683000 155 155 157
-0.159858 -0.064324 0.682000 128 134 136
-0.157857 -0.064230 0.681000 117 123 125
-0.155862 -0.064136 0.680000 113 119 119
-0.154098 -0.064136 0.680000 115 121 121
-0.152334 -0.064136 0.680000 114 120 118
-0.150571 -0.064136 0.680000 113 119 117
-0.148588 -0.064042 0.679000 110 116 114
-0.146827 -0.064042 0.679000 103 109 107
-0.145066 -0.064042 0.679000 105 111 111
-0.143305 -0.064042 0.679000 99 105 105
-0.141544 -0.064042 0.679000 94 99 104
-0.139783 -0.064042 0.679000 97 102 107
-0.138021 -0.064042 0.679000 98 103 108
-0.136260 -0.064042 0.679000 99 104 109
-0.134499 -0.064042 0.679000 98 103 108
-0.132738 -0.064042 0.679000 94 99 104
-0.130977 -0.064042 0.679000 105 107 115
-0.129216 -0.064042 0.679000 108 110 118
-0.127455 -0.064042 0.679000 121 123 131
-0.125694 -0.064042 0.679000 135 137 145
-0.123933 -0.064042 0.679000 158 160 168
-0.160092 -0.062645 0.683000 184 187 188
-0.158089 -0.062553 0.682000 180 183 184
-0.156091 -0.062462 0.681000 172 175 176
-0.154325 -0.062462 0.681000 164 167 168
-0.152334 -0.062370 0.680000 145 151 149
-0.150571 -0.062370 0.680000 133 139 137
-0.148807 -0.062370 0.680000 124 130 128
-0.147043 -0.062370 0.680000 113 119 117
-0.145280 -0.062370 0.680000 117 120 119
-0.143305 -0.062278 0.679000 115 118 117
-0.141544 -0.062278 0.679000 114 120 122
-0.139988 -0.062370 0.680000 113 119 121
-0.138225 -0.062370 0.680000 108 113 118
-0.136260 -0.062278 0.679000 103 108 113
-0.134697 -0.062370 0.680000 100 105 110
-0.132934 -0.062370 0.680000 94 99 104
-0.130977 -0.062278 0.679000 96 98 104
-0.129216 -0.062278 0.679000 99 101 107
-0.127455 -0.062278 0.679000 100 102 110
-0.125694 -0.062278 0.679000 98 100 108
-0.123933 -0.062278 0.679000 102 104 112
-0.122171 -0.062278 0.679000 113 115 123
-0.120410 -0.062278 0.679000 123 125 131
-0.118649 -0.062278 0.679000 148 150 156
-0.116888 -0.062278 0.679000 165 168 171
-0.152782 -0.060782 0.682000 181 184 185
-0.151014 -0.060782 0.682000 181 184 185
-0.149026 -0.060693 0.681000 180 183 182
-0.147260 -0.060693 0.681000 172 175 174
-0.145280 -0.060604 0.680000 158 158 158
-0.143516 -0.060604 0.680000 142 142 142
-0.141752 -0.060604 0.680000 126 129 132
-0.139988 -0.060604 0.680000 119 122 125
-0.138225 -0.060604 0.680000 119 125 127
-0.136461 -0.060604 0.680000 112 118 120
-0.134697 -0.060604 0.680000 113 116 119
-0.132934 -0.060604 0.680000 113 116 119
-0.131170 -0.060604 0.680000 107 112 117
-0.129406 -0.060604 0.680000 103 108 113
-0.127643 -0.060604 0.680000 103 108 115
-0.125879 -0.060604 0.680000 99 104 111
-0.123933 -0.060515 0.679000 99 104 111
-0.122171 -0.060515 0.679000 97 102 109
-0.120410 -0.060515 0.679000 96 101 108
-0.118649 -0.060515 0.679000 97 102 109
-0.116888 -0.060515 0.679000 107 109 115
-0.115127 -0.060515 0.679000 126 128 134
-0.113533 -0.060604 0.680000 148 153 158
-0.111769 -0.060604 0.680000 164 169 174
-0.145707 -0.059011 0.682000 185 185 185
-0.143938 -0.059011 0.682000 186 186 186
-0.141961 -0.058924 0.681000 178 178 180
-0.140194 -0.058924 0.681000 169 169 171
-0.138428 -0.058924 0.681000 163 166 167
-0.136662 -0.058924 0.681000 148 151 152
-0.134697 -0.058838 0.680000 136 135 135
-0.132934 -0.058838 0.680000 126 125 125
-0.131170 -0.058838 0.680000 116 119 120
-0.129406 -0.058838 0.680000 114 117 118
-0.127643 -0.058838 0.680000 110 115 120
-0.125879 -0.058838 0.680000 107 112 117
-0.124115 -0.058838 0.680000 105 110 115
-0.122351 -0.058838 0.680000 101 106 111
-0.120588 -0.058838 0.680000 103 108 113
-0.118824 -0.058838 0.680000 104 109 114
-0.117060 -0.058838 0.680000 101 106 111
-0.115297 -0.058838 0.680000 97 102 107
-0.113533 -0.058838 0.680000 101 106 113
-0.111769 -0.058838 0.680000 111 116 123
-0.110005 -0.058838 0.680000 129 134 141
-0.108401 -0.058924 0.681000 148 153 160
-0.106635 -0.058924 0.681000 169 171 177
-0.133325 -0.057240 0.682000 178 178 178
-0.131363 -0.057156 0.681000 161 161 161
-0.129597 -0.057156 0.681000 153 153 153
-0.127830 -0.057156 0.681000 133 133 135
-0.126064 -0.057156 0.681000 125 125 127
-0.124298 -0.057156 0.681000 117 120 123
-0.122351 -0.057072 0.680000 113 116 119
-0.120588 -0.057072 0.680000 113 116 119
-0.118824 -0.057072 0.680000 110 113 116
-0.117060 -0.057072 0.680000 106 111 116
-0.115297 -0.057072 0.680000 101 106 111
-0.113533 -0.057072 0.680000 100 105 110
-0.111769 -0.057072 0.680000 100 105 110
-0.110005 -0.057072 0.680000 98 103 108
-0.108401 -0.057156 0.681000 98 103 108
-0.106635 -0.057156 0.681000 107 109 115
-0.104868 -0.057156 0.681000 120 122 128
-0.103253 -0.057240 0.682000 137 137 141
-0.101484 -0.057240 0.682000 155 155 159
-0.128206 -0.055550 0.683000 186 186 188
-0.126249 -0.055468 0.682000 182 182 184
-0.124480 -0.055468 0.682000 160 163 164
-0.122711 -0.055468 0.682000 133 136 137
-0.120942 -0.055468 0.682000 129 129 131
-0.118999 -0.055387 0.681000 125 125 127
-0.117232 -0.055387 0.681000 120 123 126
-0.115466 -0.055387 0.681000 119 122 125
-0.113700 -0.055387 0.681000 113 116 119
-0.111933 -0.055387 0.681000 105 108 111
-0.110167 -0.055387 0.681000 105 108 111
-0.108401 -0.055387 0.681000 103 106 109
-0.106635 -0.055387 0.681000 101 104 107
-0.104868 -0.055387 0.681000 100 103 106
-0.103253 -0.055468 0.682000 103 103 107
-0.101633 -0.055550 0.683000 110 110 114
-0.100008 -0.055631 0.684000 122 122 126
-0.098378 -0.055712 0.685000 135 135 139
-0.096742 -0.055794 0.686000 154 153 160
-0.123071 -0.053855 0.684000 184 187 188
-0.121120 -0.053776 0.683000 175 175 175
-0.119348 -0.053776 0.683000 164 164 164
-0.117405 -0.053697 0.682000 143 143 145
-0.115636 -0.053697 0.682000 125 125 127
-0.113867 -0.053697 0.682000 118 118 120
-0.112098 -0.053697 0.682000 121 121 123
-0.110329 -0.053697 0.682000 121 121 125
-0.108560 -0.053697 0.682000 111 111 115
-0.106791 -0.053697 0.682000 107 107 111
-0.105022 -0.053697 0.682000 109 109 113
-0.103405 -0.053776 0.683000 105 108 111
-0.101633 -0.053776 0.683000 102 105 108
-0.100008 -0.053855 0.684000 101 104 107
-0.098378 -0.053933 0.685000 106 109 112
-0.096742 -0.054012 0.686000 109 112 115
-0.095101 -0.054091 0.687000 117 120 123
-0.093455 -0.054169 0.688000 133 133 137
-0.091671 -0.054169 0.688000 150 150 154
-0.116144 -0.052154 0.685000 182 181 183
-0.114034 -0.052002 0.683000 169 168 170
-0.112262 -0.052002 0.683000 154 153 155
-0.110491 -0.052002 0.683000 135 135 137
-0.108719 -0.052002 0.683000 123 123 125
-0.106948 -0.052002 0.683000 121 121 125
-0.105176 -0.052002 0.683000 121 121 125
-0.103556 -0.052078 0.684000 117 120 123
-0.101931 -0.052154 0.685000 112 115 118
-0.100154 -0.052154 0.685000 110 113 116
-0.098521 -0.052230 0.686000 108 111 114
-0.096742 -0.052230 0.686000 107 110 113
-0.095101 -0.052307 0.687000 105 108 111
-0.093455 -0.052383 0.688000 107 110 113
-0.091671 -0.052383 0.688000 112 115 118
-0.090017 -0.052459 0.689000 116 115 122
-0.088102 -0.052383 0.688000 135 134 141
-0.086443 -0.052459 0.689000 142 144 150
-0.084656 -0.052459 0.689000 152 154 160
-0.110814 -0.050375 0.685000 188 187 187
-0.109038 -0.050375 0.685000 181 180 180
-0.107261 -0.050375 0.685000 159 159 159
-0.105484 -0.050375 0.685000 139 139 139
-0.103708 -0.050375 0.685000 119 125 125
-0.101931 -0.050375 0.685000 113 119 119
-0.100300 -0.050449 0.686000 117 123 125
-0.098521 -0.050449 0.686000 114 120 122
-0.096883 -0.050522 0.687000 113 119 121
-0.095101 -0.050522 0.687000 112 118 120
-0.093455 -0.050596 0.688000 109 112 115
-0.091671 -0.050596 0.688000 108 111 114
-0.090017 -0.050669 0.689000 109 112 115
-0.088230 -0.050669 0.689000 109 112 115
-0.086443 -0.050669 0.689000 108 111 114
-0.084656 -0.050669 0.689000 115 118 121
-0.082869 -0.050669 0.689000 120 126 128
-0.081081 -0.050669 0.689000 129 135 137
-0.079294 -0.050669 0.689000 149 149 151
-0.077507 -0.050669 0.689000 165 165 167
-0.105792 -0.048738 0.687000 190 190 190
-0.104010 -0.048738 0.687000 180 180 180
-0.102080 -0.048667 0.686000 161 161 161
-0.100447 -0.048738 0.687000 140 143 144
-0.098665 -0.048738 0.687000 121 124 125
-0.097024 -0.048809 0.688000 119 122 123
-0.095239 -0.048809 0.688000 122 125 126
-0.093591 -0.048880 0.689000 117 120 121
-0.091804 -0.048880 0.689000 115 118 119
-0.090017 -0.048880 0.689000 110 113 116
-0.088230 -0.048880 0.689000 106 109 112
-0.086443 -0.048880 0.689000 106 112 114
-0.084656 -0.048880 0.689000 108 114 116
-0.082869 -0.048880 0.689000 107 113 115
-0.081081 -0.048880 0.689000 107 113 115
-0.079294 -0.048880 0.689000 114 117 118
-0.077507 -0.048880 0.689000 122 125 126
-0.075830 -0.048951 0.690000 134 137 138
-0.074041 -0.048951 0.690000 121 124 125
-0.072251 -0.048951 0.690000 162 162 166
-0.100593 -0.047022 0.688000 194 194 194
-0.098808 -0.047022 0.688000 183 183 183
-0.097165 -0.047091 0.689000 160 160 162
-0.095378 -0.047091 0.689000 140 140 142
-0.093591 -0.047091 0.689000 137 136 138
-0.091804 -0.047091 0.689000 130 129 131
-0.090017 -0.047091 0.689000 121 124 127
-0.088230 -0.047091 0.689000 115 118 121
-0.086443 -0.047091 0.689000 114 117 118
-0.084656 -0.047091 0.689000 113 116 117
-0.082989 -0.047159 0.690000 109 112 113
-0.081199 -0.047159 0.690000 109 112 113
-0.079409 -0.047159 0.690000 109 112 111
-0.077620 -0.047159 0.690000 108 111 110
-0.075830 -0.047159 0.690000 107 107 107
-0.074041 -0.047159 0.690000 102 102 102
-0.072251 -0.047159 0.690000 116 119 122
-0.070461 -0.047159 0.690000 138 141 144
-0.068672 -0.047159 0.690000 159 161 169
-0.066882 -0.047159 0.690000 174 176 184
-0.095378 -0.045301 0.689000 189 188 190
-0.093727 -0.045367 0.690000 190 189 191
-0.091937 -0.045367 0.690000 174 173 175
-0.090017 -0.045301 0.689000 150 150 152
-0.088230 -0.045301 0.689000 133 133 135
-0.086568 -0.045367 0.690000 123 123 125
-0.084778 -0.045367 0.690000 126 126 128
-0.082989 -0.045367 0.690000 122 125 124
-0.081199 -0.045367 0.690000 119 122 121
-0.079409 -0.045367 0.690000 114 117 116
-0.077620 -0.045367 0.690000 107 110 109
-0.075830 -0.045367 0.690000 107 107 107
-0.074041 -0.045367 0.690000 110 110 110
-0.072251 -0.045367 0.690000 108 111 112
-0.070461 -0.045367 0.690000 107 110 111
-0.068672 -0.045367 0.690000 108 110 116
-0.066882 -0.045367 0.690000 120 122 128
-0.065092 -0.045367 0.690000 142 141 148
-0.063303 -0.045367 0.690000 166 165 172
-0.090147 -0.043575 0.690000 188 188 190
-0.088358 -0.043575 0.690000 187 187 189
-0.086568 -0.043575 0.690000 175 175 177
-0.084778 -0.043575 0.690000 162 162 164
-0.082989 -0.043575 0.690000 136 139 140
-0.081199 -0.043575 0.690000 124 127 128
-0.079409 -0.043575 0.690000 127 130 129
-0.077620 -0.043575 0.690000 128 131 130
-0.075830 -0.043575 0.690000 124 124 124
-0.074148 -0.043638 0.691000 118 118 118
-0.072356 -0.043638 0.691000 116 116 116
-0.070563 -0.043638 0.691000 107 107 107
-0.068771 -0.043638 0.691000 108 111 112
-0.066882 -0.043575 0.690000 108 111 112
-0.065092 -0.043575 0.690000 105 108 111
-0.063303 -0.043575 0.690000 107 110 113
-0.061513 -0.043575 0.690000 121 121 125
-0.059723 -0.043575 0.690000 140 140 144
-0.057850 -0.043512 0.689000 160 160 162
-0.083109 -0.041843 0.691000 180 183 184
-0.081317 -0.041843 0.691000 170 173 174
-0.079525 -0.041843 0.691000 147 150 151
-0.077732 -0.041843 0.691000 134 137 138
-0.075940 -0.041843 0.691000 126 129 128
-0.074148 -0.041843 0.691000 124 127 126
-0.072356 -0.041843 0.691000 121 124 123
-0.070563 -0.041843 0.691000 116 119 118
-0.068771 -0.041843 0.691000 110 113 114
-0.066979 -0.041843 0.691000 109 112 113
-0.065187 -0.041843 0.691000 107 110 113
-0.063303 -0.041783 0.690000 102 105 108
-0.061513 -0.041783 0.690000 106 109 112
-0.059723 -0.041783 0.690000 107 110 113
-0.057850 -0.041722 0.689000 110 110 114
-0.056063 -0.041722 0.689000 126 126 130
-0.054276 -0.041722 0.689000 149 149 151
-0.052489 -0.041722 0.689000 169 169 171
-0.050628 -0.041662 0.688000 184 187 188
-0.077845 -0.040107 0.692000 181 184 185
-0.076050 -0.040107 0.692000 151 155 150
-0.074148 -0.040049 0.691000 145 149 144
-0.072356 -0.040049 0.691000 142 143 137
-0.070563 -0.040049 0.691000 132 133 127
-0.068771 -0.040049 0.691000 119 125 125
-0.066979 -0.040049 0.691000 115 121 121
-0.065187 -0.040049 0.691000 117 123 125
-0.063394 -0.040049 0.691000 112 118 120
-0.061513 -0.039991 0.690000 108 111 114
-0.059723 -0.039991 0.690000 109 112 115
-0.057934 -0.039991 0.690000 106 108 114
-0.056144 -0.039991 0.690000 106 108 114
-0.054276 -0.039933 0.689000 102 104 110
-0.052489 -0.039933 0.689000 110 112 118
-0.050702 -0.039933 0.689000 129 134 139
-0.048843 -0.039875 0.688000 150 155 160
-0.047059 -0.039875 0.688000 175 181 183
-0.072460 -0.038310 0.692000 189 190 181
-0.070665 -0.038310 0.692000 183 184 175
-0.068871 -0.038310 0.692000 167 167 167
-0.066979 -0.038254 0.691000 147 147 147
-0.065187 -0.038254 0.691000 128 128 130
-0.063394 -0.038254 0.691000 125 125 127
-0.061602 -0.038254 0.691000 120 123 126
-0.059723 -0.038199 0.690000 120 123 126
-0.057934 -0.038199 0.690000 116 119 122
-0.056144 -0.038199 0.690000 114 117 120
-0.054354 -0.038199 0.690000 108 114 116
-0.052489 -0.038143 0.689000 103 109 111
-0.050702 -0.038143 0.689000 98 103 108
-0.048914 -0.038143 0.689000 101 106 111
-0.047127 -0.038143 0.689000 113 118 123
-0.045275 -0.038088 0.688000 126 131 136
-0.043553 -0.038143 0.689000 150 155 162
-0.041766 -0.038143 0.689000 170 175 182
-0.065281 -0.036512 0.692000 193 192 192
-0.063394 -0.036460 0.691000 175 174 174
-0.061602 -0.036460 0.691000 145 145 147
-0.059810 -0.036460 0.691000 129 129 131
-0.058018 -0.036460 0.691000 124 127 130
-0.056144 -0.036407 0.690000 121 124 127
-0.054354 -0.036407 0.690000 120 126 128
-0.052565 -0.036407 0.690000 117 123 125
-0.050702 -0.036354 0.689000 107 113 115
-0.048914 -0.036354 0.689000 108 114 116
-0.047127 -0.036354 0.689000 103 108 113
-0.045340 -0.036354 0.689000 104 109 114
-0.043553 -0.036354 0.689000 103 108 113
-0.041766 -0.036354 0.689000 115 120 125
-0.039979 -0.036354 0.689000 134 139 146
-0.038248 -0.036407 0.690000 157 162 169
-0.036458 -0.036407 0.690000 178 181 184
-0.059810 -0.034665 0.691000 188 188 190
-0.058018 -0.034665 0.691000 172 175 178
-0.056225 -0.034665 0.691000 145 148 151
-0.054433 -0.034665 0.691000 126 129 132
-0.052565 -0.034615 0.690000 122 125 128
-0.050775 -0.034615 0.690000 124 130 130
-0.048985 -0.034615 0.690000 117 123 123
-0.047196 -0.034615 0.690000 112 118 118
-0.045406 -0.034615 0.690000 108 114 114
-0.043617 -0.034615 0.690000 101 107 107
-0.041827 -0.034615 0.690000 97 103 103
-0.040037 -0.034615 0.690000 100 105 110
-0.038248 -0.034615 0.690000 103 108 113
-0.036458 -0.034615 0.690000 119 121 127
-0.034719 -0.034665 0.691000 141 143 149
-0.032926 -0.034665 0.691000 176 179 180
-0.056225 -0.032870 0.691000 186 189 190
-0.054433 -0.032870 0.691000 184 187 188
-0.052641 -0.032870 0.691000 177 180 181
-0.050849 -0.032870 0.691000 147 150 149
-0.048985 -0.032823 0.690000 126 129 128
-0.047196 -0.032823 0.690000 117 123 123
-0.045406 -0.032823 0.690000 117 123 123
-0.043617 -0.032823 0.690000 118 124 126
-0.041827 -0.032823 0.690000 110 116 118
-0.040037 -0.032823 0.690000 105 111 113
-0.038248 -0.032823 0.690000 104 110 112
-0.036458 -0.032823 0.690000 105 107 113
-0.034719 -0.032870 0.691000 105 107 113
-0.032926 -0.032870 0.691000 119 119 121
-0.031134 -0.032870 0.691000 135 135 137
-0.029342 -0.032870 0.691000 157 160 161
-0.050849 -0.031076 0.691000 192 192 192
-0.049056 -0.031076 0.691000 182 182 182
-0.047264 -0.031076 0.691000 150 156 156
-0.045472 -0.031076 0.691000 131 137 137
-0.043680 -0.031076 0.691000 122 128 130
-0.041827 -0.031031 0.690000 120 126 128
-0.040037 -0.031031 0.690000 122 124 130
-0.038248 -0.031031 0.690000 114 116 122
-0.036511 -0.031076 0.691000 110 113 116
-0.034719 -0.031076 0.691000 110 113 116
-0.032926 -0.031076 0.691000 108 108 110
-0.031134 -0.031076 0.691000 108 108 110
-0.029342 -0.031076 0.691000 109 112 115
-0.027589 -0.031121 0.692000 131 134 137
-0.025795 -0.031121 0.692000 153 156 159
-0.024034 -0.031166 0.693000 173 176 179
-0.045472 -0.029281 0.691000 193 193 193
-0.043680 -0.029281 0.691000 176 176 178
-0.041888 -0.029281 0.691000 151 151 153
-0.040095 -0.029281 0.691000 133 136 139
-0.038248 -0.029239 0.690000 123 126 129
-0.036511 -0.029281 0.691000 127 130 133
-0.034719 -0.029281 0.691000 123 126 129
-0.032926 -0.029281 0.691000 120 123 124
-0.031134 -0.029281 0.691000 109 112 113
-0.029342 -0.029281 0.691000 104 110 110
-0.027589 -0.029324 0.692000 99 105 105
-0.025795 -0.029324 0.692000 99 107 108
-0.024000 -0.029324 0.692000 107 115 116
-0.022237 -0.029366 0.693000 142 145 146
-0.020440 -0.029366 0.693000 167 170 171
-0.040095 -0.027487 0.691000 183 186 189
-0.038303 -0.027487 0.691000 158 161 164
-0.036511 -0.027487 0.691000 135 138 141
-0.034719 -0.027487 0.691000 127 130 133
-0.032926 -0.027487 0.691000 123 126 127
-0.031134 -0.027487 0.691000 123 126 127
-0.029342 -0.027487 0.691000 115 121 121
-0.027589 -0.027526 0.692000 108 114 114
-0.025795 -0.027526 0.692000 108 114 114
-0.024000 -0.027526 0.692000 104 110 110
-0.022237 -0.027566 0.693000 98 104 106
-0.020440 -0.027566 0.693000 110 116 118
-0.018642 -0.027566 0.693000 135 141 143
-0.016869 -0.027606 0.694000 161 167 169
-0.036511 -0.025692 0.691000 187 190 193
-0.034719 -0.025692 0.691000 173 176 179
-0.032926 -0.025692 0.691000 148 151 150
-0.031179 -0.025729 0.692000 130 133 132
-0.029384 -0.025729 0.692000 128 131 130
-0.027589 -0.025729 0.692000 121 124 123
-0.025795 -0.025729 0.692000 112 118 120
-0.024034 -0.025766 0.693000 108 114 116
-0.022237 -0.025766 0.693000 111 117 119
-0.020440 -0.025766 0.693000 105 111 113
-0.018642 -0.025766 0.693000 103 109 111
-0.016869 -0.025803 0.694000 107 113 115
-0.015091 -0.025841 0.695000 133 139 141
-0.013288 -0.025841 0.695000 165 171 173
-0.031179 -0.023932 0.692000 187 187 187
-0.029384 -0.023932 0.692000 166 166 166
-0.027629 -0.023967 0.693000 139 139 139
-0.025832 -0.023967 0.693000 124 127 128
-0.024034 -0.023967 0.693000 122 125 126
-0.022237 -0.023967 0.693000 119 122 123
-0.020440 -0.023967 0.693000 114 117 118
-0.018642 -0.023967 0.693000 105 111 111
-0.016845 -0.023967 0.693000 108 114 114
-0.015069 -0.024001 0.694000 104 110 112
-0.013269 -0.024001 0.694000 110 116 118
-0.011486 -0.024036 0.695000 137 140 143
-0.009683 -0.024036 0.695000 169 172 175
-0.025869 -0.022199 0.694000 179 179 179
-0.024069 -0.022199 0.694000 151 151 151
-0.022269 -0.022199 0.694000 126 126 126
-0.020440 -0.022167 0.693000 129 129 129
-0.018669 -0.022199 0.694000 124 130 130
-0.016869 -0.022199 0.694000 114 120 120
-0.015069 -0.022199 0.694000 111 117 117
-0.013288 -0.022231 0.695000 105 111 111
-0.011486 -0.022231 0.695000 101 107 109
-0.009697 -0.022263 0.696000 110 116 118
-0.007892 -0.022263 0.696000 139 145 145
-0.006095 -0.022295 0.697000 167 173 173
-0.022269 -0.020396 0.694000 174 174 174
-0.020469 -0.020396 0.694000 152 152 152
-0.018669 -0.020396 0.694000 119 125 125
-0.016869 -0.020396 0.694000 121 127 127
-0.015091 -0.020426 0.695000 122 128 128
-0.013288 -0.020426 0.695000 113 119 119
-0.011502 -0.020455 0.696000 111 117 119
-0.009697 -0.020455 0.696000 105 111 113
-0.007892 -0.020455 0.696000 103 109 111
-0.006104 -0.020514 0.698000 112 118 120
-0.004300 -0.020543 0.699000 147 152 157
-0.018723 -0.018647 0.696000 176 176 176
-0.016918 -0.018647 0.696000 153 153 153
-0.015112 -0.018647 0.696000 124 127 128
-0.013307 -0.018647 0.696000 126 129 130
-0.011502 -0.018647 0.696000 121 124 127
-0.009697 -0.018647 0.696000 119 122 125
-0.007903 -0.018674 0.697000 108 114 116
-0.006104 -0.018701 0.698000 105 111 113
-0.004300 -0.018728 0.699000 100 107 111
-0.002487 -0.018728 0.699000 123 130 134
-0.000674 -0.018728 0.699000 156 161 168
-0.015112 -0.016840 0.696000 181 181 181
-0.013307 -0.016840 0.696000 150 150 150
-0.011519 -0.016864 0.697000 130 130 132
-0.009711 -0.016864 0.697000 126 126 128
-0.007914 -0.016888 0.698000 118 118 122
-0.006104 -0.016888 0.698000 114 114 118
-0.004300 -0.016912 0.699000 103 109 111
-0.002490 -0.016937 0.700000 103 109 111
-0.000675 -0.016937 0.700000 109 111 119
0.001141 -0.016937 0.700000 130 132 140
0.002961 -0.016961 0.701000 166 169 172
-0.011535 -0.015075 0.698000 185 185 187
-0.009725 -0.015075 0.698000 150 150 152
-0.007926 -0.015097 0.699000 131 130 132
-0.006113 -0.015097 0.699000 125 124 126
-0.004300 -0.015097 0.699000 124 124 126
-0.002490 -0.015119 0.700000 115 115 117
-0.000675 -0.015119 0.700000 110 113 116
0.001143 -0.015140 0.701000 107 110 113
0.002965 -0.015162 0.702000 121 121 123
0.004786 -0.015162 0.702000 144 144 146
0.006616 -0.015183 0.703000 174 174 176
-0.007937 -0.013301 0.700000 188 187 189
-0.006121 -0.013301 0.700000 151 150 152
-0.004306 -0.013301 0.700000 131 130 132
-0.002494 -0.013320 0.701000 123 122 124
-0.000676 -0.013320 0.701000 122 122 122
0.001143 -0.013320 0.701000 110 110 110
0.002965 -0.013339 0.702000 108 108 108
0.004786 -0.013339 0.702000 105 105 105
0.006616 -0.013358 0.703000 121 124 125
0.008439 -0.013358 0.703000 157 160 161
0.010263 -0.013358 0.703000 187 187 189
-0.004318 -0.011516 0.702000 166 165 165
-0.002497 -0.011516 0.702000 137 136 136
-0.000677 -0.011516 0.702000 124 124 124
0.001144 -0.011516 0.702000 130 130 130
0.002965 -0.011516 0.702000 119 122 121
0.004793 -0.011532 0.703000 106 109 108
0.006616 -0.011532 0.703000 109 112 113
0.008439 -0.011532 0.703000 114 117 118
0.010263 -0.011532 0.703000 142 145 148
0.012103 -0.011548 0.704000 177 180 183
-0.000678 -0.009706 0.703000 153 153 149
0.001146 -0.009706 0.703000 126 126 122
0.002969 -0.009706 0.703000 129 130 126
0.004793 -0.009706 0.703000 119 120 116
0.006616 -0.009706 0.703000 109 112 111
0.008439 -0.009706 0.703000 105 108 107
0.010263 -0.009706 0.703000 105 111 113
0.012103 -0.009720 0.704000 124 130 132
0.013929 -0.009720 0.704000 164 167 170
0.001146 -0.007880 0.703000 178 179 173
0.002969 -0.007880 0.703000 143 143 137
0.004793 -0.007880 0.703000 123 123 117
0.006616 -0.007880 0.703000 123 126 125
0.008439 -0.007880 0.703000 113 116 115
0.010277 -0.007892 0.704000 108 114 116
0.012103 -0.007892 0.704000 104 110 112
0.013929 -0.007892 0.704000 115 117 123
0.015755 -0.007892 0.704000 147 149 155
0.017606 -0.007903 0.705000 185 188 189
0.004799 -0.006063 0.704000 169 169 163
0.006625 -0.006063 0.704000 131 131 131
0.008451 -0.006063 0.704000 123 123 123
0.010277 -0.006063 0.704000 115 118 119
0.012103 -0.006063 0.704000 112 115 116
0.013929 -0.006063 0.704000 107 110 113
0.015778 -0.006072 0.705000 110 113 116
0.017606 -0.006072 0.705000 138 141 144
0.019435 -0.006072 0.705000 180 183 186
0.006625 -0.004235 0.704000 189 190 186
0.008451 -0.004235 0.704000 154 155 151
0.010292 -0.004241 0.705000 115 118 117
0.012120 -0.004241 0.705000 121 124 123
0.013949 -0.004241 0.705000 119 122 123
0.015778 -0.004241 0.705000 114 117 118
0.017606 -0.004241 0.705000 108 111 112
0.019462 -0.004247 0.706000 137 140 141
0.021293 -0.004247 0.706000 183 186 187
0.010292 -0.002410 0.705000 159 159 159
0.012120 -0.002410 0.705000 123 123 123
0.013949 -0.002410 0.705000 126 126 126
0.015800 -0.002413 0.706000 123 123 123
0.017631 -0.002413 0.706000 115 115 117
0.019462 -0.002413 0.706000 111 111 113
0.021323 -0.002417 0.707000 138 141 142
0.012138 -0.000580 0.706000 167 167 163
0.013969 -0.000580 0.706000 129 128 130
0.015800 -0.000580 0.706000 125 124 126
0.017656 -0.000581 0.707000 125 124 126
0.019490 -0.000581 0.707000 120 119 121
0.021354 -0.000581 0.708000 111 111 113
0.023190 -0.000581 0.708000 153 153 155
0.012138 0.001254 0.706000 188 188 184
0.013989 0.001256 0.707000 180 174 178
0.015822 0.001256 0.707000 136 130 134
0.017681 0.001257 0.708000 128 124 125
0.019517 0.001257 0.708000 129 125 126
0.021354 0.001257 0.708000 119 122 121
0.023255 0.001261 0.710000 120 123 122
0.025097 0.001261 0.710000 174 177 178
0.014008 0.003096 0.708000 186 182 183
0.015845 0.003096 0.708000 183 179 180
0.017681 0.003096 0.708000 127 124 121
0.019545 0.003100 0.709000 127 124 121
0.021384 0.003100 0.709000 124 124 124
0.023255 0.003105 0.710000 114 114 114
0.025132 0.003109 0.711000 146 146 148
0.017731 0.004949 0.710000 180 180 176
0.019572 0.004949 0.710000 126 126 122
0.021444 0.004956 0.711000 124 123 123
0.023288 0.004956 0.711000 123 122 122
0.025132 0.004956 0.711000 117 120 121
0.026976 0.004956 0.711000 174 177 178
0.019600 0.006802 0.711000 173 173 169
0.021444 0.006802 0.711000 127 126 126
0.023288 0.006802 0.711000 129 128 128
0.025168 0.006812 0.712000 106 109 110
0.027014 0.006812 0.712000 152 155 156
0.019600 0.008649 0.711000 193 193 189
0.021474 0.008661 0.712000 149 149 149
0.023321 0.008661 0.712000 130 130 130
0.025203 0.008673 0.713000 107 113 113
0.027052 0.008673 0.713000 129 135 135
0.019655 0.010525 0.713000 193 189 190
0.021504 0.010525 0.713000 156 159 158
0.023354 0.010525 0.713000 126 129 128
0.025203 0.010525 0.713000 111 119 120
0.019655 0.012377 0.713000 168 167 167
0.021535 0.012394 0.714000 152 155 154
0.023387 0.012394 0.714000 123 126 125
0.025238 0.012394 0.714000 117 125 126
0.027090 0.012394 0.714000 116 124 125
0.021535 0.014248 0.714000 151 154 153
0.023387 0.014248 0.714000 119 122 121
0.025238 0.014248 0.714000 125 131 133
0.027090 0.014248 0.714000 119 125 127
0.021535 0.016103 0.714000 152 155 154
0.023419 0.016125 0.715000 113 116 115
0.025274 0.016125 0.715000 124 130 130
0.027090 0.016103 0.714000 122 128 128
0.021565 0.017982 0.715000 142 146 141
0.023419 0.017982 0.715000 107 111 106
0.025274 0.017982 0.715000 119 125 125
0.027128 0.017982 0.715000 121 127 127
0.019738 0.019867 0.716000 195 195 191
0.021595 0.019867 0.716000 124 127 126
0.023452 0.019867 0.716000 112 115 114
0.025274 0.019839 0.715000 115 121 121
0.027128 0.019839 0.715000 131 137 137
0.019738 0.021726 0.716000 189 189 189
0.021595 0.021726 0.716000 108 111 112
0.023452 0.021726 0.716000 114 117 118
0.025309 0.021726 0.716000 114 117 118
0.027166 0.021726 0.716000 147 150 151
0.019765 0.023619 0.717000 169 169 169
0.021625 0.023619 0.717000 108 111 112
0.023485 0.023619 0.717000 116 119 120
0.025344 0.023619 0.717000 114 117 116
0.027166 0.023586 0.716000 164 167 166
0.019765 0.025481 0.717000 142 142 142
0.021625 0.025481 0.717000 107 113 113
0.023485 0.025481 0.717000 119 125 125
0.025344 0.025481 0.717000 115 118 117
0.027204 0.025481 0.717000 183 186 185
0.017906 0.027343 0.717000 185 186 182
0.019765 0.027343 0.717000 117 118 114
0.021625 0.027343 0.717000 112 118 118
0.023485 0.027343 0.717000 118 124 124
0.025344 0.027343 0.717000 131 134 133
0.017906 0.029205 0.717000 155 156 152
0.019765 0.029205 0.717000 110 111 107
0.021625 0.029205 0.717000 119 125 123
0.023485 0.029205 0.717000 113 119 117
0.025344 0.029205 0.717000 156 162 162
0.016068 0.031111 0.718000 192 190 182
0.017931 0.031111 0.718000 118 119 115
0.019793 0.031111 0.718000 111 112 108
0.021625 0.031067 0.717000 119 125 125
0.023485 0.031067 0.717000 112 118 118
0.025344 0.031067 0.717000 170 176 176
0.014226 0.033021 0.719000 198 196 186
0.016091 0.033021 0.719000 172 170 160
0.017931 0.032976 0.718000 107 108 104
0.019793 0.032976 0.718000 121 122 118
0.021655 0.032976 0.718000 114 120 120
0.023518 0.032976 0.718000 134 140 140
0.014246 0.034937 0.720000 194 190 181
0.016091 0.034889 0.719000 130 126 117
0.017956 0.034889 0.719000 103 106 105
0.019821 0.034889 0.719000 122 125 124
0.021655 0.034840 0.718000 112 118 116
0.023518 0.034840 0.718000 165 171 169
0.012395 0.036858 0.721000 164 151 138
0.014246 0.036807 0.720000 156 154 146
0.016113 0.036807 0.720000 111 109 101
0.017956 0.036756 0.719000 113 116 117
0.019821 0.036756 0.719000 112 115 116
0.021655 0.036705 0.718000 135 138 137
0.012395 0.038731 0.721000 173 166 158
0.014266 0.038731 0.721000 117 116 116
0.016113 0.038677 0.720000 108 107 107
0.017956 0.038623 0.719000 117 120 119
0.019821 0.038623 0.719000 114 117 116
0.021685 0.038623 0.719000 162 165 164
0.012395 0.040603 0.721000 159 158 158
0.014266 0.040603 0.721000 107 110 111
0.016136 0.040603 0.721000 116 119 120
0.017981 0.040547 0.720000 120 123 124
0.019821 0.040491 0.719000 128 131 132
0.021685 0.040491 0.719000 177 180 179
0.010555 0.042594 0.723000 182 182 186
0.012413 0.042535 0.722000 123 123 127
0.014266 0.042476 0.721000 108 114 116
0.016136 0.042476 0.721000 120 126 128
0.017981 0.042417 0.720000 124 127 128
0.019848 0.042417 0.720000 143 146 147
0.021685 0.042358 0.719000 160 163 162
0.010555 0.044471 0.723000 149 151 157
0.012413 0.044410 0.722000 106 108 114
0.014266 0.044348 0.721000 112 117 124
0.016136 0.044348 0.721000 120 125 132
0.018006 0.044348 0.721000 125 131 131
0.019848 0.044287 0.720000 176 182 182
0.008691 0.046413 0.724000 178 178 180
0.010569 0.046413 0.724000 116 118 124
0.012413 0.046285 0.722000 106 108 114
0.014285 0.046285 0.722000 118 125 133
0.016136 0.046221 0.721000 114 121 129
0.018006 0.046221 0.721000 153 159 161
0.019876 0.046221 0.721000 178 184 186
0.008691 0.048294 0.724000 150 153 156
0.010569 0.048294 0.724000 108 113 118
0.012430 0.048227 0.723000 115 120 125
0.014285 0.048160 0.722000 119 124 129
0.016158 0.048160 0.722000 121 126 131
0.018006 0.048093 0.721000 180 182 188
0.008691 0.050174 0.724000 124 130 132
0.010569 0.050174 0.724000 105 113 114
0.012430 0.050105 0.723000 119 127 128
0.014305 0.050105 0.723000 118 124 126
0.016180 0.050105 0.723000 145 151 153
0.018031 0.050035 0.722000 188 188 192
0.006823 0.052126 0.725000 150 156 156
0.008703 0.052126 0.725000 106 112 112
0.010569 0.052054 0.724000 103 114 112
0.012447 0.052054 0.724000 122 133 131
0.014325 0.052054 0.724000 121 127 127
0.016203 0.052054 0.724000 177 183 183
0.004956 0.054158 0.727000 187 190 189
0.006823 0.054009 0.725000 118 126 125
0.008703 0.054009 0.725000 99 107 106
0.010569 0.053935 0.724000 115 126 124
0.012447 0.053935 0.724000 117 128 126
0.014325 0.053935 0.724000 154 160 158
0.004956 0.056046 0.727000 160 160 160
0.006832 0.055969 0.726000 110 113 114
0.008703 0.055892 0.725000 109 112 113
0.010584 0.055892 0.725000 112 120 119
0.012447 0.055815 0.724000 128 136 135
0.014325 0.055815 0.724000 184 187 186
0.003075 0.058014 0.728000 194 194 196
0.004956 0.057934 0.727000 126 126 128
0.006832 0.057855 0.726000 109 112 113
0.008715 0.057855 0.726000 121 124 125
0.010584 0.057775 0.725000 115 118 119
0.012464 0.057775 0.725000 163 166 167
0.003079 0.059987 0.729000 155 155 157
0.004963 0.059905 0.728000 110 110 112
0.006842 0.059822 0.727000 110 113 116
0.008727 0.059822 0.727000 121 124 127
0.010613 0.059822 0.727000 136 139 140
0.001188 0.061880 0.729000 185 185 189
0.003079 0.061880 0.729000 122 125 128
0.004970 0.061880 0.729000 109 112 115
0.006851 0.061795 0.728000 117 120 121
0.008739 0.061795 0.728000 117 120 121
0.010613 0.061710 0.727000 167 167 169
0.001188 0.063774 0.729000 151 154 157
0.003079 0.063774 0.729000 110 116 118
0.004970 0.063774 0.729000 115 121 123
0.006861 0.063774 0.729000 121 127 127
0.008751 0.063774 0.729000 122 128 128
0.010642 0.063774 0.729000 193 193 193
-0.000705 0.065847 0.731000 170 176 178
0.001190 0.065757 0.730000 122 128 130
0.003083 0.065757 0.730000 116 124 125
0.004970 0.065667 0.729000 119 127 128
0.006861 0.065667 0.729000 119 125 125
0.008763 0.065757 0.730000 150 156 156
-0.000705 0.067745 0.731000 133 139 141
0.001191 0.067745 0.731000 106 112 114
0.003083 0.067653 0.730000 113 121 122
0.004977 0.067653 0.730000 118 126 127
0.006870 0.067653 0.730000 128 134 132
0.008763 0.067653 0.730000 184 190 188
-0.002601 0.069644 0.731000 165 168 169
-0.000705 0.069644 0.731000 120 126 128
0.001191 0.069644 0.731000 108 114 116
0.003087 0.069644 0.731000 111 117 117
0.004983 0.069644 0.731000 114 120 120
0.006879 0.069644 0.731000 170 176 174
-0.004503 0.071640 0.732000 193 193 197
-0.002601 0.071542 0.731000 135 135 139
-0.000705 0.071542 0.731000 109 112 115
0.001191 0.071542 0.731000 115 118 121
0.003087 0.071542 0.731000 120 126 124
0.004983 0.071542 0.731000 134 140 138
-0.004503 0.073541 0.732000 160 160 164
-0.002604 0.073541 0.732000 114 114 118
-0.000705 0.073441 0.731000 106 109 110
0.001191 0.073441 0.731000 115 118 119
0.003087 0.073441 0.731000 124 130 128
0.004983 0.073441 0.731000 171 177 175
-0.006401 0.075442 0.732000 168 168 170
-0.004503 0.075442 0.732000 123 123 127
-0.002604 0.075442 0.732000 114 114 118
-0.000705 0.075442 0.732000 116 119 120
0.001193 0.075442 0.732000 116 119 120
0.003092 0.075442 0.732000 167 170 169
-0.008311 0.077449 0.733000 184 187 190
-0.006410 0.077449 0.733000 136 139 142
-0.004503 0.077344 0.732000 114 117 120
-0.002604 0.077344 0.732000 106 109 112
-0.000705 0.077344 0.732000 115 118 119
0.001193 0.077344 0.732000 133 136 137
0.003092 0.077344 0.732000 190 190 190
-0.010212 0.079353 0.733000 192 195 194
-0.008311 0.079353 0.733000 143 149 151
-0.006410 0.079353 0.733000 119 125 127
-0.004509 0.079353 0.733000 107 113 115
-0.002604 0.079245 0.732000 113 119 121
-0.000705 0.079245 0.732000 115 121 121
0.001193 0.079245 0.732000 165 171 171
-0.010226 0.081367 0.734000 163 166 165
-0.008311 0.081257 0.733000 118 124 126
-0.006410 0.081257 0.733000 106 112 114
-0.004509 0.081257 0.733000 114 120 122
-0.002608 0.081257 0.733000 114 120 122
-0.000705 0.081146 0.732000 150 153 154
-0.012130 0.083274 0.734000 175 181 183
-0.010226 0.083274 0.734000 128 134 136
-0.008322 0.083274 0.734000 117 123 125
-0.006419 0.083274 0.734000 112 118 120
-0.004509 0.083160 0.733000 117 123 123
-0.002608 0.083160 0.733000 115 121 121
-0.000706 0.083160 0.733000 190 194 189
-0.014034 0.085180 0.734000 187 190 189
-0.012130 0.085180 0.734000 140 148 149
-0.010226 0.085180 0.734000 124 132 133
-0.008322 0.085180 0.734000 106 114 115
-0.006419 0.085180 0.734000 114 122 123
-0.004515 0.085180 0.734000 117 123 121
-0.002611 0.085180 0.734000 151 157 155
-0.015938 0.087086 0.734000 198 201 200
-0.014034 0.087086 0.734000 166 169 168
-0.012147 0.087205 0.735000 127 132 137
-0.010240 0.087205 0.735000 106 111 116
-0.008334 0.087205 0.735000 111 119 120
-0.006427 0.087205 0.735000 113 121 122
-0.004515 0.087086 0.734000 133 140 134
-0.015959 0.089114 0.735000 173 176 177
-0.014053 0.089114 0.735000 128 131 132
-0.012147 0.089114 0.735000 111 116 121
-0.010240 0.089114 0.735000 105 110 115
-0.008334 0.089114 0.735000 113 119 119
-0.006427 0.089114 0.735000 119 125 125
-0.004521 0.089114 0.735000 181 185 178
-0.017866 0.091023 0.735000 185 188 187
-0.015959 0.091023 0.735000 131 134 137
-0.014072 0.091147 0.736000 121 124 127
-0.012180 0.091270 0.737000 107 112 117
-0.010268 0.091270 0.737000 113 118 123
-0.008357 0.091270 0.737000 114 120 118
-0.006445 0.091270 0.737000 160 166 164
-0.019826 0.093184 0.737000 191 194 197
-0.017914 0.093184 0.737000 140 143 146
-0.016003 0.093184 0.737000 126 128 134
-0.014091 0.093184 0.737000 106 108 114
-0.012180 0.093184 0.737000 104 110 112
-0.010268 0.093184 0.737000 114 120 122
-0.008368 0.093311 0.738000 145 148 147
-0.006454 0.093311 0.738000 197 200 199
-0.021767 0.095228 0.738000 203 203 205
-0.019853 0.095228 0.738000 151 154 157
-0.017914 0.095099 0.737000 133 136 139
-0.016003 0.095099 0.737000 109 111 117
-0.014091 0.095099 0.737000 106 108 114
-0.012196 0.095228 0.738000 117 120 123
-0.010296 0.095357 0.739000 129 132 135
-0.008379 0.095357 0.739000 186 189 188
-0.021796 0.097276 0.739000 171 170 177
-0.019880 0.097276 0.739000 128 130 136
-0.017963 0.097276 0.739000 127 129 135
-0.016046 0.097276 0.739000 109 111 117
-0.014129 0.097276 0.739000 119 121 127
-0.012213 0.097276 0.739000 124 127 128
-0.010296 0.097276 0.739000 162 165 166
-0.023777 0.099464 0.741000 186 185 192
-0.021826 0.099329 0.740000 140 139 146
-0.019907 0.099329 0.740000 123 125 131
-0.017987 0.099329 0.740000 119 121 127
-0.016046 0.099195 0.739000 120 123 126
-0.014129 0.099195 0.739000 121 124 127
-0.012229 0.099329 0.740000 140 143 142
-0.010324 0.099464 0.741000 199 202 201
-0.025734 0.101525 0.742000 195 195 197
-0.023809 0.101525 0.742000 144 143 150
-0.021855 0.101388 0.741000 130 129 136
-0.019933 0.101388 0.741000 116 118 124
-0.018011 0.101388 0.741000 119 121 127
-0.016090 0.101388 0.741000 121 124 125
-0.014168 0.101388 0.741000 124 127 128
-0.012246 0.101388 0.741000 186 189 188
-0.025769 0.103591 0.743000 159 159 163
-0.023841 0.103591 0.743000 136 135 144
-0.021885 0.103452 0.742000 126 125 134
-0.019960 0.103452 0.742000 115 117 123
-0.018036 0.103452 0.742000 116 118 124
-0.016111 0.103452 0.742000 117 123 123
-0.014187 0.103452 0.742000 168 174 174
-0.027733 0.105663 0.744000 171 170 177
-0.025803 0.105663 0.744000 137 136 143
-0.023841 0.105521 0.743000 129 128 137
-0.021914 0.105521 0.743000 116 115 124
-0.019987 0.105521 0.743000 117 120 123
-0.018060 0.105521 0.743000 115 118 121
-0.016111 0.105379 0.742000 151 154 155
-0.029703 0.107740 0.745000 187 187 189
-0.027733 0.107595 0.744000 130 129 136
-0.025803 0.107595 0.744000 128 127 134
-0.023841 0.107451 0.743000 110 109 116
-0.021914 0.107451 0.743000 110 109 116
-0.019987 0.107451 0.743000 122 122 126
-0.018060 0.107451 0.743000 138 138 142
-0.016133 0.107451 0.743000 194 197 198
-0.031635 0.109675 0.745000 193 196 197
-0.029703 0.109675 0.745000 147 150 151
-0.027733 0.109528 0.744000 131 130 137
-0.025803 0.109528 0.744000 115 114 121
-0.023841 0.109380 0.743000 105 105 109
-0.021914 0.109380 0.743000 119 119 123
-0.019987 0.109380 0.743000 126 126 128
-0.018084 0.109528 0.744000 185 185 187
-0.033612 0.111759 0.746000 197 200 199
-0.031635 0.111610 0.745000 156 162 164
-0.029703 0.111610 0.745000 124 130 132
-0.027733 0.111460 0.744000 120 122 128
-0.025803 0.111460 0.744000 105 107 113
-0.023874 0.111460 0.744000 117 117 121
-0.021944 0.111460 0.744000 118 118 122
-0.020014 0.111460 0.744000 173 173 175
-0.033612 0.113697 0.746000 180 183 184
-0.031635 0.113545 0.745000 134 141 145
-0.029703 0.113545 0.745000 120 127 131
-0.027733 0.113392 0.744000 104 111 115
-0.025803 0.113392 0.744000 116 123 127
-0.023874 0.113392 0.744000 121 124 127
-0.021944 0.113392 0.744000 151 154 157
-0.020014 0.113392 0.744000 201 201 205
-0.035547 0.115634 0.746000 193 198 203
-0.033612 0.115634 0.746000 145 150 155
-0.031635 0.115479 0.745000 121 128 134
-0.029703 0.115479 0.745000 106 113 119
-0.027770 0.115479 0.745000 106 113 117
-0.025803 0.115324 0.744000 118 125 129
-0.023874 0.115324 0.744000 125 131 131
-0.021973 0.115479 0.745000 185 191 191
-0.035547 0.117572 0.746000 160 165 172
-0.033612 0.117572 0.746000 120 125 132
-0.031635 0.117414 0.745000 114 121 127
-0.029703 0.117414 0.745000 99 106 112
-0.027770 0.117414 0.745000 119 125 127
-0.025838 0.117414 0.745000 113 119 121
-0.023906 0.117414 0.745000 160 166 166
-0.037482 0.119509 0.746000 181 184 185
-0.035547 0.119509 0.746000 127 134 140
-0.033612 0.119509 0.746000 118 125 131
-0.031635 0.119349 0.745000 98 105 109
-0.029703 0.119349 0.745000 109 116 120
-0.027770 0.119349 0.745000 113 119 119
-0.025838 0.119349 0.745000 153 159 159
-0.039417 0.121447 0.746000 195 201 203
-0.037482 0.121447 0.746000 147 153 155
-0.035547 0.121447 0.746000 117 124 130
-0.033612 0.121447 0.746000 107 114 120
-0.031677 0.121447 0.746000 113 118 125
-0.029742 0.121447 0.746000 118 123 130
-0.027807 0.121447 0.746000 141 147 149
-0.025873 0.121447 0.746000 189 195 197
-0.039417 0.123384 0.746000 159 161 167
-0.037482 0.123384 0.746000 123 125 131
-0.035547 0.123384 0.746000 110 117 123
-0.033612 0.123384 0.746000 109 116 122
-0.031677 0.123384 0.746000 120 125 132
-0.029742 0.123384 0.746000 122 127 134
-0.027807 0.123384 0.746000 186 188 194
-0.041352 0.125322 0.746000 175 175 177
-0.039417 0.125322 0.746000 120 122 128
-0.037482 0.125322 0.746000 120 122 128
-0.035547 0.125322 0.746000 111 118 122
-0.033612 0.125322 0.746000 116 123 127
-0.031677 0.125322 0.746000 114 119 124
-0.029742 0.125322 0.746000 161 166 171
-0.043345 0.127430 0.747000 186 189 192
-0.041407 0.127430 0.747000 138 141 144
-0.039470 0.127430 0.747000 127 129 135
-0.037532 0.127430 0.747000 119 121 127
-0.035547 0.127259 0.746000 119 124 129
-0.033612 0.127259 0.746000 119 124 129
-0.031677 0.127259 0.746000 148 151 154
-0.045282 0.129370 0.747000 199 199 199
-0.043345 0.129370 0.747000 152 154 160
-0.041407 0.129370 0.747000 122 124 130
-0.039470 0.129370 0.747000 114 116 122
-0.037532 0.129370 0.747000 117 119 125
-0.035595 0.129370 0.747000 120 123 126
-0.033657 0.129370 0.747000 126 129 132
-0.031720 0.129370 0.747000 192 192 194
-0.047283 0.131486 0.748000 203 203 203
-0.045343 0.131486 0.748000 178 178 178
-0.043403 0.131486 0.748000 119 124 129
-0.041463 0.131486 0.748000 115 120 125
-0.039523 0.131486 0.748000 115 120 125
-0.037582 0.131486 0.748000 115 120 125
-0.035642 0.131486 0.748000 122 122 124
-0.033702 0.131486 0.748000 174 174 176
-0.047283 0.133428 0.748000 187 187 189
-0.045343 0.133428 0.748000 130 130 132
-0.043403 0.133428 0.748000 114 119 124
-0.041463 0.133428 0.748000 118 123 128
-0.039523 0.133428 0.748000 120 125 130
-0.037582 0.133428 0.748000 115 120 125
-0.035642 0.133428 0.748000 155 158 159
-0.049289 0.135552 0.749000 200 200 202
-0.047346 0.135552 0.749000 144 147 150
-0.045403 0.135552 0.749000 120 123 126
-0.043461 0.135552 0.749000 113 118 123
-0.041518 0.135552 0.749000 119 124 129
-0.039575 0.135552 0.749000 115 121 123
-0.051300 0.137681 0.750000 200 203 204
-0.049289 0.137497 0.749000 149 152 153
-0.047346 0.137497 0.749000 120 125 130
-0.045403 0.137497 0.749000 119 124 129
-0.043519 0.137681 0.750000 116 123 127
-0.041573 0.137681 0.750000 117 124 128
-0.039628 0.137681 0.750000 124 130 130
-0.037733 0.137864 0.751000 184 190 190
-0.053316 0.139815 0.751000 206 206 208
-0.051300 0.139628 0.750000 163 169 171
-0.049355 0.139628 0.750000 125 131 133
-0.047409 0.139628 0.750000 113 120 126
-0.045464 0.139628 0.750000 117 124 130
-0.043577 0.139815 0.751000 114 121 125
-0.041629 0.139815 0.751000 130 137 141
-0.039734 0.140001 0.752000 183 186 187
-0.053387 0.141954 0.752000 184 187 190
-0.051437 0.141954 0.752000 126 133 139
-0.049420 0.141765 0.751000 110 117 123
-0.047536 0.141954 0.752000 112 119 125
-0.045585 0.141954 0.752000 113 120 126
-0.043635 0.141954 0.752000 116 119 120
-0.041740 0.142143 0.753000 167 170 171
-0.055485 0.144290 0.754000 189 194 201
-0.053458 0.144098 0.753000 132 137 144
-0.051437 0.143907 0.752000 109 119 124
-0.049486 0.143907 0.752000 109 119 124
-0.047536 0.143907 0.752000 117 124 130
-0.045646 0.144098 0.753000 117 124 130
-0.043751 0.144290 0.754000 159 159 161
-0.057517 0.146442 0.755000 201 201 205
-0.055485 0.146248 0.754000 150 157 163
-0.053529 0.146248 0.754000 112 119 125
-0.051505 0.146054 0.753000 107 117 122
-0.049552 0.146054 0.753000 112 122 127
-0.047662 0.146248 0.754000 119 126 130
-0.045767 0.146442 0.755000 131 138 142
-0.043809 0.146442 0.755000 193 193 195
-0.059554 0.148599 0.756000 201 204 207
-0.057517 0.148403 0.755000 160 163 166
-0.055558 0.148403 0.755000 114 121 127
-0.053600 0.148403 0.755000 106 113 119
-0.051573 0.148206 0.754000 111 118 122
-0.049684 0.148403 0.755000 119 126 130
-0.047725 0.148403 0.755000 127 135 134
-0.045767 0.148403 0.755000 183 191 190
-0.059554 0.150563 0.756000 168 173 180
-0.057593 0.150563 0.756000 115 120 127
-0.055558 0.150363 0.755000 100 107 115
-0.053600 0.150363 0.755000 107 114 122
-0.051642 0.150363 0.755000 118 126 127
-0.049684 0.150363 0.755000 117 125 126
-0.047789 0.150563 0.756000 167 175 174
-0.061677 0.152930 0.758000 190 190 192
-0.059554 0.152526 0.756000 124 129 136
-0.057593 0.152526 0.756000 107 112 119
-0.055632 0.152526 0.756000 106 113 119
-0.053671 0.152526 0.756000 120 127 133
-0.051710 0.152526 0.756000 118 124 124
-0.049749 0.152526 0.756000 164 170 170
-0.063643 0.154898 0.758000 198 201 204
-0.061677 0.154898 0.758000 148 151 154
-0.059711 0.154898 0.758000 111 116 125
-0.057669 0.154694 0.757000 111 116 125
-0.055632 0.154489 0.756000 111 116 121
-0.053671 0.154489 0.756000 114 119 124
-0.051710 0.154489 0.756000 155 158 159
-0.049815 0.154694 0.757000 193 196 197
-0.065696 0.157074 0.759000 203 203 205
-0.063727 0.157074 0.759000 157 159 167
-0.061677 0.156867 0.758000 115 117 125
-0.059711 0.156867 0.758000 114 119 126
-0.057745 0.156867 0.758000 117 122 129
-0.055705 0.156660 0.757000 121 124 127
-0.053813 0.156867 0.758000 149 152 155
-0.051847 0.156867 0.758000 190 190 190
-0.065696 0.159045 0.759000 163 166 169
-0.063727 0.159045 0.759000 112 117 124
-0.061758 0.159045 0.759000 114 119 126
-0.059790 0.159045 0.759000 118 123 130
-0.057745 0.158835 0.758000 118 123 130
-0.055779 0.158835 0.758000 124 127 128
-0.053813 0.158835 0.758000 178 181 182
-0.067753 0.161228 0.760000 183 188 193
-0.065782 0.161228 0.760000 120 125 130
-0.063727 0.161016 0.759000 107 114 120
-0.061758 0.161016 0.759000 114 121 127
-0.059790 0.161016 0.759000 115 120 125
-0.057821 0.161016 0.759000 120 125 130
-0.055853 0.161016 0.759000 171 174 173
-0.069725 0.163202 0.760000 191 194 193
-0.067753 0.163202 0.760000 134 141 147
-0.065782 0.163202 0.760000 106 113 119
-0.063811 0.163202 0.760000 111 121 126
-0.061840 0.163202 0.760000 116 126 131
-0.059869 0.163202 0.760000 114 120 122
-0.057821 0.162987 0.759000 158 164 166
-0.055926 0.163202 0.760000 190 190 190
-0.071790 0.165393 0.761000 193 199 201
-0.069816 0.165393 0.761000 150 156 158
-0.067843 0.165393 0.761000 106 113 117
-0.065869 0.165393 0.761000 111 118 122
-0.063895 0.165393 0.761000 116 123 127
-0.061921 0.165393 0.761000 114 121 125
-0.059947 0.165393 0.761000 151 154 155
-0.057974 0.165393 0.761000 186 189 190
-0.073861 0.167590 0.762000 198 201 204
-0.071790 0.167370 0.761000 157 162 169
-0.069816 0.167370 0.761000 108 113 120
-0.067843 0.167370 0.761000 108 113 118
-0.065869 0.167370 0.761000 120 125 130
-0.063895 0.167370 0.761000 117 120 123
-0.061921 0.167370 0.761000 136 139 142
-0.059947 0.167370 0.761000 190 190 192
-0.073861 0.169569 0.762000 170 172 178
-0.071885 0.169569 0.762000 113 118 125
-0.069908 0.169569 0.762000 110 115 122
-0.067932 0.169569 0.762000 112 118 120
-0.065955 0.169569 0.762000 115 121 123
-0.063979 0.169569 0.762000 135 135 137
-0.062003 0.169569 0.762000 188 188 190
-0.075937 0.171773 0.763000 171 173 181
-0.073958 0.171773 0.763000 116 118 126
-0.071885 0.171548 0.762000 110 115 122
-0.069908 0.171548 0.762000 115 120 127
-0.067932 0.171548 0.762000 120 126 128
-0.066042 0.171773 0.763000 127 133 135
-0.064063 0.171773 0.763000 182 182 184
-0.077916 0.173754 0.763000 176 175 182
-0.075937 0.173754 0.763000 115 117 127
-0.073958 0.173754 0.763000 112 114 124
-0.071979 0.173754 0.763000 113 118 125
-0.070000 0.173754 0.763000 117 122 129
-0.068021 0.173754 0.763000 119 125 127
-0.066042 0.173754 0.763000 172 178 180
-0.080104 0.176197 0.765000 174 176 186
-0.078018 0.175966 0.764000 115 117 127
-0.076036 0.175966 0.764000 111 116 123
-0.073958 0.175736 0.763000 114 119 126
-0.071979 0.175736 0.763000 121 123 129
-0.070000 0.175736 0.763000 117 119 125
-0.068110 0.175966 0.764000 164 164 166
-0.082088 0.178183 0.765000 181 184 187
-0.080104 0.178183 0.765000 115 120 127
-0.078120 0.178183 0.765000 110 115 122
-0.076136 0.178183 0.765000 117 119 125
-0.074055 0.177950 0.764000 120 122 128
-0.072073 0.177950 0.764000 119 119 123
-0.070092 0.177950 0.764000 152 152 156
-0.084182 0.180406 0.766000 178 183 188
-0.082196 0.180406 0.766000 121 126 131
-0.080104 0.180170 0.765000 108 113 118
-0.078120 0.180170 0.765000 113 118 123
-0.076136 0.180170 0.765000 121 124 127
-0.074152 0.180170 0.765000 116 119 122
-0.072168 0.180170 0.765000 152 151 151
-0.086169 0.182395 0.766000 172 175 176
-0.084182 0.182395 0.766000 112 117 124
-0.082196 0.182395 0.766000 105 110 117
-0.080209 0.182395 0.766000 113 118 125
-0.078222 0.182395 0.766000 118 123 130
-0.076235 0.182395 0.766000 117 117 121
-0.074249 0.182395 0.766000 152 152 156
-0.088156 0.184384 0.766000 179 185 187
-0.086169 0.184384 0.766000 131 137 139
-0.084182 0.184384 0.766000 103 108 115
-0.082303 0.184625 0.767000 114 119 126
-0.080314 0.184625 0.767000 117 119 127
-0.078324 0.184625 0.767000 112 114 122
-0.076335 0.184625 0.767000 156 155 157
-0.074346 0.184625 0.767000 190 189 191
-0.088271 0.186617 0.767000 133 138 145
-0.086282 0.186617 0.767000 103 108 115
-0.084292 0.186617 0.767000 107 112 119
-0.080418 0.186860 0.768000 119 118 125
-0.078426 0.186860 0.768000 143 142 149
-0.076434 0.186860 0.768000 194 193 193
-0.094116 0.188363 0.766000 191 189 179
-0.092130 0.188363 0.766000 176 179 180
-0.090260 0.188609 0.767000 126 129 130
-0.088271 0.188609 0.767000 102 109 115
-0.086394 0.188855 0.768000 109 116 122
-0.084402 0.188855 0.768000 117 122 127
-0.082410 0.188855 0.768000 110 115 120
-0.080418 0.188855 0.768000 143 142 144
-0.096103 0.190353 0.766000 172 169 166
-0.094116 0.190353 0.766000 170 167 164
-0.092250 0.190601 0.767000 115 114 121
-0.090260 0.190601 0.767000 110 109 116
-0.088386 0.190850 0.768000 112 115 118
-0.086394 0.190850 0.768000 116 119 122
-0.084402 0.190850 0.768000 114 114 116
-0.082410 0.190850 0.768000 146 146 148
-0.096103 0.192342 0.766000 133 129 134
-0.094116 0.192342 0.766000 113 109 114
-0.092130 0.192342 0.766000 104 103 107
-0.090260 0.192593 0.767000 115 114 118
-0.088386 0.192844 0.768000 121 121 123
-0.086394 0.192844 0.768000 116 116 118
-0.084402 0.192844 0.768000 144 143 143
-0.082518 0.193095 0.769000 191 190 190
-0.096103 0.194331 0.766000 85 83 90
-0.094116 0.194331 0.766000 97 95 102
-0.092250 0.194585 0.767000 117 116 118
-0.090260 0.194585 0.767000 122 121 123
-0.088386 0.194839 0.768000 114 114 114
-0.086394 0.194839 0.768000 137 137 137
-0.084512 0.195092 0.769000 191 190 190
-0.096103 0.196321 0.766000 79 81 87
-0.094239 0.196577 0.767000 110 112 118
-0.092250 0.196577 0.767000 121 121 123
-0.090260 0.196577 0.767000 115 115 117
-0.088386 0.196833 0.768000 143 143 139
-0.086394 0.196833 0.768000 191 191 187
-0.098346 0.198828 0.768000 101 103 109
-0.096354 0.198828 0.768000 107 112 117
-0.094362 0.198828 0.768000 119 124 129
-0.092370 0.198828 0.768000 110 113 114
-0.090496 0.199087 0.769000 153 156 157
-0.096479 0.201084 0.769000 112 117 122
-0.094485 0.201084 0.769000 118 123 128
-0.092490 0.201084 0.769000 164 164 164
-0.096730 0.203609 0.771000 120 126 126
-0.094854 0.203873 0.772000 165 171 171
-0.096981 0.206145 0.773000 169 177 176
