ply
format ascii 1.0
element vertex 1148
property float x
property float y
property float z
property uchar red
property uchar green
property uchar blue
end_header
-0.046697 -0.391657 0.745686 105 97 85
-0.045382 -0.392741 0.745920 110 79 68
-0.043094 -0.392012 0.745110 119 88 77
-0.041773 -0.393096 0.745344 132 100 94
-0.039968 -0.393274 0.745056 135 103 97
-0.046878 -0.392357 0.748009 100 83 69
-0.045074 -0.392535 0.747721 119 75 59
-0.043269 -0.392713 0.747433 119 75 59
-0.041465 -0.392890 0.747145 130 81 69
-0.039661 -0.393068 0.746856 130 81 69
-0.038332 -0.394153 0.747091 129 99 94
-0.047059 -0.393057 0.750337 83 64 49
-0.045252 -0.393235 0.750049 112 68 50
-0.043445 -0.393413 0.749760 120 76 58
-0.041157 -0.392685 0.748945 133 76 55
-0.039831 -0.393769 0.749183 139 82 61
-0.038024 -0.393947 0.748894 130 85 74
-0.036217 -0.394125 0.748606 135 90 79
-0.034410 -0.394303 0.748317 133 110 107
-0.046750 -0.392851 0.752141 102 83 68
-0.044943 -0.393029 0.751852 101 62 42
-0.043136 -0.393207 0.751563 109 70 50
-0.041329 -0.393385 0.751275 127 72 51
-0.039522 -0.393563 0.750986 132 77 56
-0.037715 -0.393741 0.750698 137 80 61
-0.035908 -0.393919 0.750409 139 82 63
-0.034101 -0.394097 0.750121 131 95 87
-0.032762 -0.395182 0.750359 141 105 97
-0.045120 -0.393728 0.754188 114 85 64
-0.042828 -0.393001 0.753367 102 73 52
-0.041021 -0.393179 0.753078 118 68 45
-0.039214 -0.393357 0.752789 122 72 49
-0.037407 -0.393535 0.752501 136 73 50
-0.036072 -0.394619 0.752743 142 79 56
-0.034263 -0.394797 0.752454 136 83 68
-0.032453 -0.394976 0.752165 141 88 73
-0.030643 -0.395154 0.751876 123 92 90
-0.028834 -0.395332 0.751587 140 109 107
-0.040713 -0.392972 0.754881 112 72 48
-0.038906 -0.393150 0.754593 107 67 43
-0.037099 -0.393328 0.754304 126 68 43
-0.035763 -0.394413 0.754548 130 72 47
-0.033954 -0.394591 0.754259 141 78 55
-0.032144 -0.394769 0.753970 140 77 54
-0.030335 -0.394948 0.753681 135 88 77
-0.028525 -0.395126 0.753392 137 90 79
-0.026716 -0.395304 0.753103 135 112 109
-0.039074 -0.393850 0.756932 111 83 64
-0.037264 -0.394028 0.756643 111 61 38
-0.035455 -0.394206 0.756354 118 68 45
-0.033645 -0.394385 0.756065 132 71 45
-0.031836 -0.394563 0.755776 136 75 49
-0.030026 -0.394741 0.755487 141 79 60
-0.028217 -0.394919 0.755198 140 78 59
-0.026407 -0.395098 0.754909 130 92 85
-0.024597 -0.395276 0.754620 139 101 94
-0.036956 -0.393822 0.758449 119 83 62
-0.035146 -0.394000 0.758160 105 69 48
-0.033336 -0.394178 0.757871 118 62 38
-0.031527 -0.394356 0.757582 126 70 46
-0.030180 -0.395441 0.757830 140 74 52
-0.028368 -0.395620 0.757540 143 77 55
-0.026098 -0.394891 0.756715 139 83 69
-0.024289 -0.395069 0.756426 144 88 74
-0.022479 -0.395248 0.756137 116 88 85
-0.020670 -0.395426 0.755848 135 107 104
-0.034837 -0.393793 0.759966 114 91 72
-0.033028 -0.393972 0.759677 108 65 42
-0.031218 -0.394150 0.759388 105 62 39
-0.029871 -0.395234 0.759638 126 65 43
-0.027599 -0.394506 0.758810 137 76 54
-0.025790 -0.394685 0.758521 140 74 52
-0.023980 -0.394863 0.758232 143 77 55
-0.022171 -0.395041 0.757943 124 81 74
-0.020361 -0.395219 0.757654 117 74 67
-0.018551 -0.395398 0.757365 128 109 107
-0.030909 -0.393943 0.761193 111 81 63
-0.029562 -0.395028 0.761446 111 59 37
-0.027290 -0.394300 0.760615 113 61 39
-0.025481 -0.394478 0.760327 131 65 41
-0.023671 -0.394656 0.760038 140 74 50
-0.021862 -0.394835 0.759749 135 76 58
-0.020052 -0.395013 0.759459 130 71 53
-0.018243 -0.395191 0.759171 119 84 81
-0.016433 -0.395369 0.758882 130 95 92
-0.029253 -0.394821 0.763254 119 83 62
-0.026982 -0.394094 0.762421 97 61 40
-0.025172 -0.394272 0.762132 120 62 37
-0.023363 -0.394450 0.761843 130 72 47
-0.021553 -0.394628 0.761554 135 72 49
-0.019744 -0.394807 0.761265 136 73 50
-0.017934 -0.394985 0.760976 128 77 63
-0.016125 -0.395163 0.760687 128 77 63
-0.014315 -0.395341 0.760398 133 107 103
-0.026673 -0.393887 0.764227 119 96 77
-0.024863 -0.394065 0.763938 109 64 41
-0.023054 -0.394244 0.763649 108 63 40
-0.021244 -0.394422 0.763360 123 65 38
-0.019435 -0.394600 0.763071 131 73 46
-0.017625 -0.394778 0.762782 131 73 50
-0.015816 -0.394957 0.762493 134 76 53
-0.014006 -0.395135 0.762204 140 99 89
-0.012197 -0.395313 0.761915 145 104 94
-0.010387 -0.395491 0.761626 126 110 105
-0.022745 -0.394037 0.765455 104 75 54
-0.020936 -0.394215 0.765166 110 61 35
-0.019126 -0.394394 0.764877 118 69 43
-0.017317 -0.394572 0.764588 129 68 42
-0.015507 -0.394750 0.764299 133 72 46
-0.013698 -0.394928 0.764010 129 73 57
-0.011888 -0.395107 0.763721 135 79 63
-0.010079 -0.395285 0.763432 117 88 78
-0.008269 -0.395463 0.763143 123 94 84
-0.020627 -0.394009 0.766971 118 82 59
-0.018817 -0.394187 0.766683 103 67 44
-0.017008 -0.394365 0.766394 115 61 35
-0.015198 -0.394544 0.766105 125 71 45
-0.013389 -0.394722 0.765816 135 74 48
-0.011579 -0.394900 0.765527 136 75 49
-0.009770 -0.395078 0.765238 125 79 61
-0.007960 -0.395257 0.764949 126 80 62
-0.006151 -0.395435 0.764660 125 104 101
-0.018509 -0.393981 0.768488 115 92 73
-0.016699 -0.394159 0.768199 109 66 43
-0.014890 -0.394337 0.767910 107 64 41
-0.013080 -0.394516 0.767621 123 67 41
-0.011271 -0.394694 0.767332 127 71 45
-0.009461 -0.394872 0.767043 132 76 52
-0.007652 -0.395050 0.766754 134 78 54
-0.005842 -0.395229 0.766465 122 88 80
-0.004033 -0.395407 0.766176 127 93 85
-0.016391 -0.393953 0.770005 124 97 75
-0.014581 -0.394131 0.769716 104 77 55
-0.012771 -0.394309 0.769427 109 63 36
-0.010962 -0.394487 0.769138 113 67 40
-0.009152 -0.394666 0.768849 126 68 43
-0.007343 -0.394844 0.768560 131 73 48
-0.005533 -0.395022 0.768271 125 74 58
-0.003724 -0.395200 0.767982 126 75 59
-0.001914 -0.395379 0.767693 126 96 91
-0.000105 -0.395557 0.767404 136 106 101
-0.012463 -0.394103 0.771233 115 79 56
-0.010653 -0.394281 0.770944 99 63 40
-0.008844 -0.394459 0.770655 115 64 39
-0.007034 -0.394637 0.770366 120 69 44
-0.005225 -0.394816 0.770077 131 73 50
-0.003415 -0.394994 0.769788 130 72 49
-0.001606 -0.395172 0.769499 124 79 68
0.000204 -0.395350 0.769210 142 97 86
0.002014 -0.395529 0.768921 131 105 101
-0.010345 -0.394074 0.772750 115 92 73
-0.008535 -0.394253 0.772461 114 71 46
-0.006295 -0.393525 0.771614 108 65 40
-0.004916 -0.394609 0.771883 123 67 41
-0.003106 -0.394787 0.771594 133 77 51
-0.001297 -0.394966 0.771305 135 76 58
0.000513 -0.395144 0.771016 137 78 60
0.002322 -0.395322 0.770727 129 86 79
0.004132 -0.395500 0.770438 138 95 88
-0.005986 -0.393318 0.773417 107 78 57
-0.004180 -0.393496 0.773129 112 61 36
-0.002798 -0.394581 0.773399 116 65 40
-0.000988 -0.394759 0.773111 130 67 44
0.000821 -0.394937 0.772822 137 74 51
0.002631 -0.395116 0.772533 133 73 60
0.004440 -0.395294 0.772244 137 77 64
0.006250 -0.395472 0.771955 127 90 85
0.007650 -0.396558 0.772223 141 104 99
-0.004298 -0.394196 0.775494 119 79 55
-0.002489 -0.394374 0.775205 106 66 42
-0.000679 -0.394553 0.774916 120 62 39
0.001130 -0.394731 0.774627 127 69 46
0.002940 -0.394909 0.774338 139 73 53
0.004335 -0.395995 0.774610 140 74 54
0.006147 -0.396173 0.774320 135 81 71
0.007549 -0.397260 0.774590 143 89 79
0.009364 -0.397438 0.774300 132 104 101
-0.002180 -0.394168 0.777011 113 85 66
-0.000371 -0.394346 0.776722 112 65 41
0.001439 -0.394525 0.776433 112 65 41
0.002832 -0.395609 0.776707 128 65 42
0.004230 -0.396695 0.776981 136 73 50
0.006044 -0.396874 0.776691 143 76 59
0.007859 -0.397053 0.776401 142 75 58
0.009674 -0.397231 0.776111 130 84 76
0.011488 -0.397410 0.775821 140 94 86
0.001329 -0.395224 0.778805 117 83 63
0.002725 -0.396309 0.779081 114 63 38
0.004539 -0.396488 0.778791 119 68 43
0.006354 -0.396667 0.778502 134 71 46
0.008169 -0.396845 0.778212 138 75 50
0.009983 -0.397024 0.777922 139 80 62
0.011798 -0.397203 0.777632 141 82 64
0.013612 -0.397382 0.777342 128 90 83
0.015029 -0.398469 0.777616 142 104 97
0.003034 -0.396102 0.780892 119 78 57
0.004849 -0.396281 0.780602 105 64 43
0.006664 -0.396460 0.780312 124 66 39
0.008478 -0.396638 0.780023 130 72 45
0.009887 -0.397724 0.780300 139 73 49
0.011704 -0.397903 0.780009 144 78 54
0.013521 -0.398082 0.779719 136 80 66
0.015339 -0.398261 0.779429 142 86 72
0.017156 -0.398440 0.779139 132 100 94
0.004746 -0.396980 0.782983 120 95 77
0.006563 -0.397159 0.782693 112 65 41
0.008380 -0.397338 0.782403 112 65 41
0.010197 -0.397517 0.782113 130 68 40
0.012014 -0.397696 0.781823 136 74 46
0.013831 -0.397875 0.781533 142 76 54
0.015649 -0.398054 0.781242 143 77 55
0.017466 -0.398233 0.780952 138 86 75
0.019283 -0.398412 0.780662 143 91 80
0.021100 -0.398591 0.780372 136 114 106
0.008690 -0.397131 0.784216 111 79 59
0.010507 -0.397310 0.783926 121 67 41
0.012324 -0.397489 0.783636 123 69 43
0.014141 -0.397668 0.783346 136 71 44
0.015959 -0.397847 0.783056 140 75 48
0.017776 -0.398026 0.782766 142 78 60
0.019593 -0.398205 0.782475 143 79 61
0.021410 -0.398384 0.782185 131 90 80
0.023227 -0.398563 0.781895 131 90 80
0.010817 -0.397102 0.785740 121 82 60
0.012634 -0.397281 0.785449 111 72 50
0.014452 -0.397460 0.785159 120 64 38
0.016269 -0.397639 0.784869 124 68 42
0.018086 -0.397818 0.784579 143 77 53
0.019903 -0.397997 0.784289 144 78 54
0.021720 -0.398176 0.783998 137 80 61
0.023537 -0.398355 0.783708 132 75 56
0.025355 -0.398534 0.783418 132 100 94
0.014762 -0.397253 0.786973 115 72 47
0.016579 -0.397432 0.786682 107 64 39
0.018396 -0.397611 0.786392 125 64 40
0.020213 -0.397790 0.786102 136 75 51
0.022030 -0.397969 0.785812 143 77 55
0.023847 -0.398148 0.785522 145 79 57
0.025665 -0.398327 0.785231 138 89 77
0.027482 -0.398506 0.784941 147 98 86
0.029677 -0.397777 0.784078 142 119 116
0.016493 -0.398131 0.789074 112 83 62
0.018313 -0.398310 0.788783 110 61 35
0.020523 -0.397583 0.787915 110 61 35
0.022340 -0.397762 0.787625 130 67 42
0.024157 -0.397941 0.787335 138 75 50
0.025975 -0.398120 0.787045 143 81 62
0.027792 -0.398299 0.786755 149 87 68
0.029987 -0.397570 0.785889 138 97 91
0.031801 -0.397748 0.785599 149 108 102
0.018623 -0.398103 0.790599 123 87 66
0.020443 -0.398282 0.790309 109 73 52
0.022650 -0.397554 0.789439 115 61 35
0.024467 -0.397733 0.789148 123 69 43
0.026285 -0.397912 0.788858 137 71 49
0.028102 -0.398091 0.788568 146 80 58
0.030296 -0.397363 0.787700 139 83 69
0.032111 -0.397541 0.787410 144 88 74
0.034298 -0.396812 0.786543 142 110 106
0.022573 -0.398254 0.791834 114 73 52
0.024777 -0.397526 0.790962 107 66 45
0.026595 -0.397705 0.790671 125 64 40
0.028412 -0.397884 0.790381 139 78 54
0.030606 -0.397156 0.789511 143 80 59
0.032421 -0.397334 0.789221 144 81 60
0.034607 -0.396605 0.788352 142 95 84
0.036419 -0.396783 0.788062 150 103 92
0.038598 -0.396053 0.787194 139 118 113
0.024703 -0.398225 0.793359 103 78 58
0.026905 -0.397498 0.792485 110 63 39
0.028722 -0.397677 0.792195 115 68 44
0.030539 -0.397856 0.791904 135 72 49
0.032730 -0.397127 0.791032 144 81 58
0.034545 -0.397306 0.790742 141 82 64
0.036728 -0.396577 0.789871 147 88 70
0.038541 -0.396755 0.789581 135 101 93
0.040353 -0.396934 0.789292 142 108 100
0.027215 -0.397290 0.794298 111 77 55
0.029032 -0.397469 0.794008 108 74 52
0.031225 -0.396741 0.793132 122 66 42
0.033040 -0.396920 0.792843 126 70 46
0.034854 -0.397099 0.792553 142 73 52
0.036669 -0.397278 0.792263 148 79 58
0.038850 -0.396548 0.791389 141 89 78
0.040662 -0.396727 0.791100 145 93 82
0.042474 -0.396905 0.790811 132 113 107
0.029342 -0.397262 0.795821 113 93 73
0.031159 -0.397441 0.795531 112 65 43
0.032976 -0.397620 0.795241 113 66 44
0.034793 -0.397799 0.794951 133 67 45
0.036979 -0.397071 0.794074 143 77 55
0.038793 -0.397249 0.793784 144 82 63
0.040608 -0.397428 0.793494 149 87 68
0.042422 -0.397607 0.793205 128 94 86
0.044237 -0.397786 0.792915 139 105 97
0.031469 -0.397234 0.797345 119 90 69
0.033286 -0.397413 0.797054 103 74 53
0.035103 -0.397592 0.796764 118 62 38
0.036920 -0.397771 0.796474 125 69 45
0.038738 -0.397950 0.796184 140 77 54
0.040555 -0.398129 0.795894 143 80 57
0.042372 -0.398308 0.795603 126 78 63
0.044189 -0.398487 0.795313 133 85 70
0.046006 -0.398666 0.795023 133 107 103
0.033224 -0.398112 0.799460 120 99 82
0.035043 -0.398291 0.799170 116 71 48
0.037231 -0.397563 0.798287 110 65 42
0.039048 -0.397742 0.797997 120 59 35
0.040865 -0.397922 0.797707 132 71 47
0.042682 -0.398100 0.797417 134 75 55
0.044499 -0.398279 0.797127 142 83 63
0.046316 -0.398458 0.796836 128 90 83
0.048133 -0.398637 0.796546 143 105 98
0.037174 -0.398263 0.800695 104 75 54
0.038993 -0.398442 0.800404 107 56 31
0.040813 -0.398621 0.800114 112 61 36
0.042633 -0.398800 0.799823 136 75 51
0.044452 -0.398980 0.799533 140 79 55
0.046272 -0.399159 0.799242 128 75 60
0.048092 -0.399338 0.798952 129 76 61
0.050261 -0.398609 0.798069 133 103 98
0.052078 -0.398788 0.797779 146 116 111
0.039304 -0.398234 0.802220 118 79 57
0.041124 -0.398414 0.801930 101 62 40
0.042943 -0.398593 0.801639 117 61 37
0.044763 -0.398772 0.801349 129 73 49
0.046583 -0.398951 0.801058 133 71 52
0.048402 -0.399131 0.800767 140 78 59
0.050222 -0.399310 0.800477 129 82 71
0.052042 -0.399489 0.800186 140 93 82
0.053861 -0.399668 0.799896 135 113 105
0.041073 -0.399113 0.804344 113 88 70
0.042895 -0.399292 0.804053 108 61 39
0.045073 -0.398565 0.803164 110 63 41
0.046893 -0.398744 0.802874 129 68 46
0.048713 -0.398923 0.802583 137 76 54
0.050533 -0.399102 0.802293 139 80 62
0.052352 -0.399282 0.802002 144 85 67
0.054172 -0.399461 0.801711 134 93 85
0.055992 -0.399640 0.801421 146 105 97
0.043206 -0.399084 0.805872 120 88 66
0.045028 -0.399264 0.805581 100 68 46
0.046851 -0.399443 0.805290 115 63 41
0.049023 -0.398715 0.804399 120 68 46
0.050843 -0.398895 0.804109 137 74 53
0.052663 -0.399074 0.803818 147 84 63
0.054482 -0.399253 0.803527 144 86 70
0.056302 -0.399432 0.803237 147 89 73
0.058122 -0.399612 0.802946 132 102 95
0.047162 -0.399235 0.807108 113 72 51
0.048984 -0.399415 0.806817 102 61 40
0.050806 -0.399594 0.806526 117 59 34
0.052973 -0.398866 0.805634 128 70 45
0.054793 -0.399046 0.805343 144 78 58
0.056613 -0.399225 0.805053 149 83 63
0.058432 -0.399404 0.804762 134 85 73
0.060252 -0.399583 0.804471 144 95 83
0.062072 -0.399763 0.804181 138 112 108
0.049295 -0.399207 0.808636 103 75 58
0.051117 -0.399386 0.808345 104 58 31
0.052939 -0.399566 0.808054 105 59 32
0.054761 -0.399745 0.807763 130 67 42
0.056584 -0.399925 0.807472 142 79 54
0.058406 -0.400104 0.807181 144 83 61
0.060562 -0.399376 0.806287 144 83 61
0.062382 -0.399555 0.805997 134 93 85
0.063873 -0.400643 0.806308 147 106 98
0.051081 -0.400085 0.810770 117 83 61
0.053250 -0.399358 0.809872 103 69 47
0.055072 -0.399538 0.809581 115 64 37
0.056895 -0.399717 0.809290 120 69 42
0.058717 -0.399897 0.808999 135 73 45
0.060539 -0.400076 0.808708 140 78 50
0.062361 -0.400256 0.808417 141 83 67
0.064184 -0.400435 0.808126 144 86 70
0.066006 -0.400615 0.807835 135 103 97
0.067828 -0.400794 0.807544 147 115 109
0.053218 -0.400057 0.812299 112 91 74
0.055042 -0.400236 0.812008 111 73 48
0.056867 -0.400416 0.811717 106 68 43
0.059028 -0.399689 0.810817 123 66 36
0.060850 -0.399868 0.810526 131 74 44
0.062672 -0.400048 0.810236 144 78 54
0.064495 -0.400227 0.809945 146 80 56
0.066317 -0.400407 0.809654 133 84 74
0.068139 -0.400586 0.809362 137 88 78
0.069961 -0.400766 0.809071 136 110 106
0.057178 -0.400208 0.813538 107 82 62
0.059003 -0.400388 0.813246 108 62 33
0.060828 -0.400567 0.812955 108 62 33
0.062653 -0.400747 0.812663 128 66 38
0.064478 -0.400927 0.812372 136 74 46
0.066302 -0.401107 0.812081 139 80 60
0.068127 -0.401286 0.811789 134 75 55
0.069952 -0.401466 0.811498 125 84 76
0.071777 -0.401646 0.811206 140 99 91
0.059315 -0.400180 0.815067 114 81 54
0.061139 -0.400359 0.814776 100 67 40
0.062964 -0.400539 0.814484 119 63 35
0.064789 -0.400719 0.814193 125 69 41
0.066614 -0.400899 0.813901 136 75 49
0.068439 -0.401078 0.813610 137 76 50
0.070263 -0.401258 0.813319 130 77 62
0.072088 -0.401438 0.813027 136 83 68
0.073913 -0.401618 0.812736 137 102 99
0.061451 -0.400151 0.816597 116 98 78
0.063275 -0.400331 0.816305 114 74 48
0.065100 -0.400511 0.816014 103 63 37
0.066925 -0.400690 0.815722 120 64 36
0.068750 -0.400870 0.815431 126 70 42
0.070575 -0.401050 0.815140 137 79 54
0.072399 -0.401230 0.814848 144 86 61
0.074224 -0.401409 0.814557 139 90 78
0.076049 -0.401589 0.814265 143 94 82
0.077874 -0.401769 0.813974 136 108 105
0.065412 -0.400302 0.817835 113 86 64
0.067236 -0.400482 0.817544 109 63 36
0.069061 -0.400662 0.817252 112 66 39
0.070886 -0.400842 0.816961 132 71 47
0.072711 -0.401021 0.816669 142 81 57
0.074536 -0.401201 0.816378 146 85 63
0.076360 -0.401381 0.816086 147 86 64
0.078185 -0.401561 0.815795 134 91 84
0.080010 -0.401740 0.815504 140 97 90
0.067548 -0.400274 0.819364 122 88 66
0.069373 -0.400454 0.819073 106 72 50
0.071197 -0.400634 0.818782 116 65 40
0.073022 -0.400813 0.818490 115 64 39
0.074847 -0.400993 0.818199 142 79 54
0.076672 -0.401173 0.817907 147 84 59
0.078497 -0.401353 0.817616 139 83 69
0.080321 -0.401532 0.817325 137 81 67
0.082146 -0.401712 0.817033 133 100 99
0.069684 -0.400246 0.820894 117 97 77
0.071509 -0.400425 0.820603 111 73 48
0.073333 -0.400605 0.820311 102 64 39
0.075158 -0.400785 0.820020 119 61 36
0.076983 -0.400965 0.819728 137 79 54
0.078808 -0.401144 0.819437 149 83 61
0.080633 -0.401324 0.819146 147 81 59
0.082457 -0.401504 0.818854 133 85 77
0.084282 -0.401684 0.818563 144 96 88
0.073645 -0.400397 0.822132 111 83 64
0.075470 -0.400577 0.821841 114 64 41
0.077294 -0.400756 0.821549 110 60 37
0.078812 -0.401844 0.821879 136 70 48
0.080639 -0.402024 0.821588 147 81 59
0.082769 -0.401296 0.820675 143 81 64
0.084594 -0.401475 0.820384 143 81 64
0.086418 -0.401655 0.820092 136 99 94
0.075469 -0.401275 0.824286 124 85 63
0.077296 -0.401455 0.823995 109 70 48
0.079124 -0.401635 0.823703 119 61 36
0.080951 -0.401815 0.823411 128 70 45
0.083080 -0.401087 0.822496 148 79 56
0.084905 -0.401267 0.822205 149 80 57
0.086730 -0.401447 0.821913 141 89 78
0.088555 -0.401627 0.821622 146 94 83
0.077608 -0.401247 0.825818 120 90 74
0.079435 -0.401427 0.825526 115 65 42
0.081263 -0.401607 0.825235 109 59 36
0.083090 -0.401787 0.824943 138 72 48
0.084917 -0.401967 0.824651 147 81 57
0.086745 -0.402147 0.824359 145 82 61
0.088866 -0.401419 0.823443 152 89 68
0.090691 -0.401598 0.823151 130 98 92
0.079747 -0.401218 0.827350 126 87 67
0.081574 -0.401398 0.827058 111 72 52
0.083402 -0.401578 0.826766 121 63 38
0.085229 -0.401758 0.826474 130 72 47
0.087056 -0.401938 0.826183 143 77 53
0.088884 -0.402118 0.825891 149 83 59
0.090711 -0.402298 0.825599 134 85 73
0.092539 -0.402478 0.825307 144 95 83
0.081886 -0.401190 0.828882 118 93 75
0.083714 -0.401370 0.828590 117 72 49
0.085541 -0.401550 0.828298 110 65 42
0.087368 -0.401730 0.828006 130 67 42
0.089196 -0.401910 0.827714 142 79 54
0.091023 -0.402090 0.827422 143 81 62
0.092850 -0.402270 0.827131 144 82 63
0.094678 -0.402450 0.826839 131 95 85
0.096505 -0.402630 0.826547 143 107 97
0.085853 -0.401341 0.830122 106 74 54
0.087680 -0.401522 0.829830 118 62 38
0.089507 -0.401702 0.829538 122 66 42
0.091335 -0.401882 0.829246 151 82 61
0.093162 -0.402062 0.828954 148 79 58
0.094989 -0.402242 0.828662 132 84 69
0.096817 -0.402422 0.828371 140 92 77
0.098644 -0.402602 0.828079 131 109 101
0.087992 -0.401313 0.831653 112 69 46
0.089819 -0.401493 0.831361 100 57 34
0.091646 -0.401673 0.831070 124 61 40
0.093474 -0.401853 0.830778 143 80 59
0.095301 -0.402033 0.830486 144 82 63
0.097128 -0.402213 0.830194 147 85 66
0.098956 -0.402393 0.829902 136 98 89
0.100783 -0.402573 0.829610 145 107 98
0.090131 -0.401285 0.833185 104 75 54
0.091958 -0.401465 0.832893 105 49 25
0.093499 -0.402552 0.833238 120 64 40
0.095329 -0.402732 0.832945 146 80 60
0.097159 -0.402913 0.832653 150 84 64
0.098989 -0.403093 0.832361 142 89 74
0.101095 -0.402365 0.831434 147 94 79
0.102922 -0.402545 0.831142 135 108 102
0.091981 -0.402163 0.835356 111 71 47
0.093811 -0.402343 0.835064 97 57 33
0.095641 -0.402524 0.834771 121 60 36
0.097471 -0.402704 0.834479 134 73 49
0.099301 -0.402884 0.834187 145 82 61
0.101131 -0.403064 0.833895 155 92 71
0.102961 -0.403245 0.833602 139 97 85
0.105061 -0.402516 0.832674 142 100 88
0.094123 -0.402135 0.836890 108 81 59
0.095953 -0.402315 0.836597 106 55 28
0.097783 -0.402495 0.836305 114 63 36
0.099613 -0.402675 0.836013 147 78 55
0.101443 -0.402856 0.835721 155 86 63
0.103273 -0.403036 0.835429 151 94 75
0.105103 -0.403216 0.835136 150 93 74
0.106933 -0.403396 0.834844 136 109 103
0.095983 -0.403013 0.839067 113 73 49
0.097815 -0.403193 0.838774 97 57 33
0.099648 -0.403374 0.838482 130 67 42
0.101755 -0.402647 0.837547 138 75 50
0.103585 -0.402827 0.837255 156 87 66
0.105415 -0.403007 0.836962 158 89 68
0.107245 -0.403188 0.836670 140 94 86
0.109075 -0.403368 0.836378 149 103 95
0.098128 -0.402984 0.840603 105 76 55
0.099960 -0.403165 0.840310 113 59 35
0.101793 -0.403345 0.840018 114 60 36
0.103897 -0.402618 0.839081 146 77 54
0.105727 -0.402799 0.838788 156 87 64
0.107557 -0.402979 0.838496 152 92 77
0.109387 -0.403159 0.838204 154 94 79
0.111217 -0.403339 0.837912 139 104 99
0.100273 -0.402956 0.842139 114 73 52
0.102105 -0.403136 0.841846 102 61 40
0.103938 -0.403317 0.841554 119 56 33
0.105770 -0.403497 0.841261 143 80 57
0.107869 -0.402770 0.840322 157 87 66
0.109699 -0.402950 0.840030 157 87 66
0.111529 -0.403131 0.839738 144 95 83
0.113359 -0.403311 0.839446 150 101 89
0.102418 -0.402927 0.843675 104 79 59
0.104250 -0.403108 0.843382 112 61 36
0.106083 -0.403288 0.843090 114 63 38
0.107915 -0.403469 0.842797 144 75 52
0.109748 -0.403649 0.842504 152 83 60
0.111841 -0.402922 0.841564 146 87 69
0.113671 -0.403102 0.841272 151 92 74
0.115501 -0.403282 0.840979 135 104 95
0.104563 -0.402899 0.845211 112 76 55
0.106396 -0.403079 0.844918 99 63 42
0.108228 -0.403260 0.844626 121 58 35
0.110060 -0.403440 0.844333 137 74 51
0.111893 -0.403621 0.844040 147 81 59
0.113725 -0.403801 0.843748 151 85 63
0.115558 -0.403982 0.843455 142 97 84
0.117390 -0.404162 0.843163 147 102 89
0.106440 -0.403777 0.847401 104 79 61
0.108541 -0.403051 0.846454 107 56 31
0.110373 -0.403231 0.846162 113 62 37
0.112205 -0.403412 0.845869 137 74 51
0.114038 -0.403592 0.845576 149 86 63
0.115870 -0.403773 0.845284 146 89 70
0.117703 -0.403953 0.844991 146 89 70
0.119535 -0.404134 0.844698 131 100 91
0.108588 -0.403748 0.848939 110 76 56
0.110423 -0.403929 0.848646 95 61 41
0.112258 -0.404110 0.848353 118 60 37
0.114093 -0.404291 0.848060 137 79 56
0.115928 -0.404471 0.847767 150 87 62
0.118015 -0.403744 0.846820 148 85 60
0.119848 -0.403925 0.846527 136 90 74
0.121433 -0.405014 0.846888 140 94 78
0.110736 -0.403720 0.850477 101 80 63
0.112571 -0.403901 0.850184 104 57 33
0.114406 -0.404081 0.849891 108 61 37
0.116241 -0.404262 0.849598 142 79 54
0.118076 -0.404443 0.849305 149 86 61
0.119911 -0.404624 0.849012 145 88 67
0.121746 -0.404804 0.848719 144 87 66
0.123581 -0.404985 0.848426 132 102 95
0.112884 -0.403691 0.852015 113 79 57
0.114719 -0.403872 0.851722 98 64 42
0.116554 -0.404053 0.851429 118 62 36
0.118389 -0.404233 0.851136 133 77 51
0.120224 -0.404414 0.850843 150 89 63
0.122059 -0.404595 0.850550 144 83 57
0.123894 -0.404776 0.850257 127 85 73
0.125729 -0.404956 0.849964 142 100 88
0.114777 -0.404569 0.854216 106 86 66
0.116614 -0.404750 0.853923 108 63 38
0.118452 -0.404931 0.853629 107 62 37
0.120289 -0.405112 0.853336 133 72 46
0.122372 -0.404386 0.852381 148 87 61
0.124207 -0.404566 0.852088 135 80 61
0.125802 -0.405655 0.852456 145 90 71
0.127639 -0.405836 0.852162 135 103 97
0.118765 -0.404721 0.855463 93 61 41
0.120603 -0.404902 0.855170 112 58 32
0.122440 -0.405083 0.854876 130 76 50
0.124035 -0.406172 0.855246 155 92 67
0.125875 -0.406353 0.854952 150 87 62
0.127478 -0.407442 0.855321 139 93 77
0.129320 -0.407624 0.855026 147 101 85
0.120669 -0.405599 0.857670 107 62 39
0.122509 -0.405781 0.857376 102 57 34
0.124349 -0.405962 0.857082 143 81 53
0.125950 -0.407051 0.857454 155 93 65
0.127792 -0.407232 0.857159 147 90 69
0.129635 -0.407414 0.856865 151 94 73
0.131477 -0.407595 0.856571 141 107 99
0.122579 -0.406477 0.859881 94 60 40
0.124421 -0.406659 0.859587 113 55 30
0.126264 -0.406841 0.859292 141 83 58
0.128106 -0.407022 0.858998 156 93 70
0.129949 -0.407203 0.858704 154 91 68
0.131792 -0.407385 0.858410 143 98 85
0.133634 -0.407567 0.858115 150 105 92
0.123137 -0.405361 0.861048 107 84 65
0.124977 -0.405542 0.860755 107 57 34
0.126578 -0.406630 0.861131 109 59 36
0.128421 -0.406812 0.860837 144 78 54
0.130263 -0.406993 0.860543 160 94 70
0.132106 -0.407175 0.860248 152 95 76
0.133949 -0.407356 0.859954 154 97 78
0.135791 -0.407538 0.859660 139 112 104
0.125291 -0.405332 0.862591 108 72 51
0.126893 -0.406420 0.862970 96 60 39
0.128735 -0.406602 0.862676 119 58 34
0.130578 -0.406783 0.862381 142 81 57
0.132420 -0.406965 0.862087 157 91 69
0.134263 -0.407146 0.861793 158 92 70
0.136106 -0.407328 0.861499 145 102 93
0.137948 -0.407509 0.861204 150 107 98
0.127445 -0.405304 0.864133 99 74 56
0.129050 -0.406391 0.864514 108 57 32
0.130892 -0.406573 0.864220 118 67 42
0.132735 -0.406754 0.863926 156 87 64
0.134577 -0.406936 0.863632 158 89 66
0.136420 -0.407117 0.863337 151 98 85
0.138263 -0.407299 0.863043 153 100 87
0.129364 -0.406181 0.866353 112 68 48
0.131207 -0.406363 0.866059 94 50 30
0.133049 -0.406544 0.865765 132 66 42
0.134892 -0.406726 0.865470 156 90 66
0.136734 -0.406907 0.865176 154 92 73
0.138355 -0.407996 0.865558 157 95 76
0.140200 -0.408178 0.865263 136 110 99
0.131521 -0.406152 0.867898 96 66 48
0.133363 -0.406334 0.867603 112 54 29
0.135206 -0.406515 0.867309 138 80 55
0.136824 -0.407604 0.867694 164 98 76
0.138670 -0.407786 0.867399 159 93 71
0.140515 -0.407967 0.867104 140 102 91
0.142360 -0.408149 0.866810 147 109 98
0.133678 -0.406124 0.869442 107 57 36
0.135520 -0.406305 0.869148 110 60 39
0.137363 -0.406487 0.868854 149 83 59
0.138984 -0.407575 0.869240 163 97 73
0.140829 -0.407757 0.868946 147 96 80
0.142675 -0.407939 0.868651 152 101 85
0.144520 -0.408120 0.868356 137 117 109
0.135835 -0.406095 0.870987 94 55 35
0.137677 -0.406276 0.870692 120 59 35
0.139299 -0.407365 0.871082 147 86 62
0.141144 -0.407546 0.870787 155 94 72
0.142989 -0.407728 0.870492 156 95 73
0.144835 -0.407910 0.870198 140 106 96
0.136149 -0.405885 0.872826 99 74 54
0.137992 -0.406066 0.872531 105 50 29
0.139614 -0.407154 0.872923 124 69 48
0.141459 -0.407336 0.872628 158 89 68
0.143304 -0.407518 0.872333 160 91 70
0.145149 -0.407699 0.872039 149 103 87
0.146995 -0.407881 0.871744 150 104 88
0.138306 -0.405856 0.874370 103 62 41
0.139929 -0.406944 0.874764 100 59 38
0.141774 -0.407125 0.874469 140 74 52
0.143619 -0.407307 0.874175 157 91 69
0.145464 -0.407489 0.873880 152 95 76
0.147309 -0.407671 0.873585 152 95 76
0.149154 -0.407852 0.873291 129 107 97
0.140243 -0.406733 0.876605 97 69 50
0.142089 -0.406915 0.876311 113 52 28
0.143934 -0.407097 0.876016 137 76 52
0.145779 -0.407278 0.875721 157 91 67
0.147624 -0.407460 0.875427 157 91 67
0.149469 -0.407642 0.875132 139 102 88
0.151314 -0.407824 0.874837 143 106 92
0.142403 -0.406704 0.878152 109 59 36
0.144249 -0.406886 0.877857 112 62 39
0.146094 -0.407068 0.877563 144 78 54
0.147939 -0.407250 0.877268 156 90 66
0.149784 -0.407431 0.876973 143 90 73
0.151629 -0.407613 0.876679 151 98 81
0.153474 -0.407795 0.876384 134 112 104
0.144563 -0.406676 0.879699 95 56 36
0.146409 -0.406857 0.879404 130 67 44
0.148254 -0.407039 0.879109 149 86 63
0.150099 -0.407221 0.878815 151 88 67
0.151944 -0.407403 0.878520 152 89 68
0.153789 -0.407584 0.878225 137 101 91
0.155634 -0.407766 0.877931 141 105 95
0.144878 -0.406465 0.881540 98 70 53
0.146723 -0.406647 0.881245 107 52 31
0.148568 -0.406829 0.880951 121 66 45
0.150414 -0.407010 0.880656 154 88 66
0.152259 -0.407192 0.880361 153 87 65
0.154104 -0.407374 0.880067 145 97 82
0.156147 -0.406649 0.879077 148 100 85
0.157990 -0.406830 0.878783 132 113 107
0.147038 -0.406436 0.883087 105 61 41
0.148883 -0.406618 0.882792 98 54 34
0.150728 -0.406800 0.882497 129 66 43
0.152574 -0.406982 0.882203 154 91 68
0.154419 -0.407163 0.881908 151 93 70
0.156461 -0.406439 0.880916 151 93 70
0.158304 -0.406620 0.880621 139 108 99
0.149198 -0.406408 0.884633 90 60 42
0.151043 -0.406589 0.884339 108 52 28
0.152888 -0.406771 0.884044 132 76 52
0.154734 -0.406953 0.883749 152 89 66
0.156579 -0.407135 0.883455 149 86 63
0.158618 -0.406410 0.882460 147 100 87
0.160461 -0.406591 0.882166 153 106 93
0.151358 -0.406379 0.886180 101 54 32
0.153203 -0.406561 0.885885 104 57 35
0.155048 -0.406742 0.885591 137 74 51
0.156893 -0.406924 0.885296 148 85 62
0.158739 -0.407106 0.885001 151 93 77
0.160775 -0.406381 0.884004 157 99 83
0.162618 -0.406563 0.883710 141 110 101
0.153518 -0.406350 0.887727 97 61 42
0.155363 -0.406532 0.887432 117 59 36
0.157208 -0.406714 0.887137 142 84 61
0.159053 -0.406895 0.886842 149 86 65
0.160899 -0.407077 0.886548 155 92 71
0.162744 -0.407259 0.886253 147 100 87
0.164775 -0.406534 0.885255 149 102 89
0.153632 -0.407045 0.890277 110 84 69
0.155480 -0.407227 0.889982 102 55 33
0.157523 -0.406503 0.888978 98 51 29
0.159368 -0.406685 0.888684 130 67 44
0.161213 -0.406867 0.888389 148 85 62
0.163059 -0.407048 0.888095 147 88 70
0.164904 -0.407230 0.887800 151 92 74
0.166749 -0.407412 0.887505 144 110 100
0.155795 -0.407016 0.891825 114 78 57
0.157642 -0.407198 0.891530 95 59 38
0.159490 -0.407380 0.891235 110 54 30
0.161338 -0.407562 0.890940 133 77 53
0.163373 -0.406838 0.889936 148 85 62
0.165219 -0.407020 0.889641 148 85 62
0.167064 -0.407201 0.889346 144 97 84
0.168909 -0.407383 0.889052 147 100 87
0.170754 -0.407565 0.888757 130 110 100
0.159613 -0.408074 0.893792 98 51 27
0.161653 -0.407351 0.892784 103 56 32
0.163501 -0.407533 0.892489 136 73 48
0.165349 -0.407715 0.892194 150 87 62
0.167196 -0.407897 0.891899 146 87 67
0.169044 -0.408079 0.891604 149 90 70
0.170892 -0.408261 0.891309 134 100 90
0.172739 -0.408443 0.891014 141 107 97
0.292859 -0.418427 0.870467 119 104 103
0.294701 -0.418609 0.870173 105 90 89
0.161779 -0.408045 0.895343 93 57 36
0.163629 -0.408228 0.895047 112 54 29
0.165479 -0.408410 0.894752 127 69 44
0.167330 -0.408592 0.894456 149 83 59
0.169180 -0.408774 0.894161 152 86 62
0.171030 -0.408957 0.893865 134 86 71
0.172880 -0.409139 0.893570 143 95 80
0.174731 -0.409321 0.893274 129 108 103
0.283981 -0.416388 0.873089 122 106 103
0.285803 -0.417491 0.873483 116 95 92
0.287645 -0.417673 0.873189 111 90 87
0.289488 -0.417854 0.872894 111 88 83
0.291330 -0.418036 0.872600 106 83 78
0.293173 -0.418217 0.872306 110 77 76
0.295016 -0.418399 0.872012 100 67 66
0.296858 -0.418580 0.871717 104 69 66
0.298702 -0.417838 0.870738 111 76 73
0.300542 -0.418019 0.870445 111 90 87
0.163945 -0.408016 0.896894 107 62 37
0.165795 -0.408199 0.896598 102 57 32
0.167645 -0.408381 0.896302 124 61 36
0.169496 -0.408563 0.896007 140 77 52
0.171346 -0.408746 0.895712 138 80 57
0.173196 -0.408928 0.895416 125 67 44
0.175046 -0.409110 0.895121 119 81 72
0.176897 -0.409292 0.894825 129 91 82
0.178747 -0.409475 0.894530 120 99 96
0.273291 -0.414171 0.875996 111 92 90
0.275095 -0.415272 0.876395 109 88 85
0.276935 -0.415453 0.876101 106 85 82
0.278775 -0.415634 0.875807 113 86 80
0.280615 -0.415816 0.875513 114 87 81
0.282432 -0.416918 0.875910 112 78 70
0.284274 -0.417099 0.875616 111 77 69
0.286117 -0.417281 0.875322 112 71 61
0.287959 -0.417462 0.875027 111 70 60
0.289802 -0.417644 0.874733 112 67 56
0.291645 -0.417825 0.874439 112 67 56
0.293496 -0.417084 0.873456 116 67 55
0.295336 -0.417266 0.873162 115 66 54
0.297176 -0.417447 0.872868 113 61 50
0.299016 -0.417628 0.872575 111 59 48
0.300856 -0.417809 0.872281 92 60 54
0.165927 -0.408893 0.899163 102 70 50
0.167780 -0.409075 0.898867 112 58 32
0.169633 -0.409258 0.898572 117 63 37
0.171486 -0.409440 0.898276 126 68 41
0.173339 -0.409623 0.897980 130 72 45
0.175191 -0.409805 0.897684 120 67 50
0.177044 -0.409988 0.897388 127 74 57
0.179063 -0.409263 0.896376 124 86 79
0.180913 -0.409446 0.896080 131 93 86
0.182763 -0.409628 0.895785 124 98 94
0.253328 -0.412887 0.881757 127 97 90
0.255168 -0.413068 0.881463 124 94 87
0.257008 -0.413249 0.881170 121 89 83
0.258848 -0.413431 0.880876 118 86 80
0.260688 -0.413612 0.880582 121 85 77
0.262528 -0.413793 0.880288 121 85 77
0.264368 -0.413974 0.879994 117 79 72
0.266208 -0.414156 0.879700 116 78 71
0.268049 -0.414337 0.879406 110 72 65
0.269889 -0.414518 0.879112 102 64 57
0.271729 -0.414699 0.878819 100 62 55
0.273569 -0.414881 0.878525 104 66 59
0.275409 -0.415062 0.878231 110 69 59
0.277249 -0.415243 0.877937 110 69 59
0.279089 -0.415424 0.877643 115 68 55
0.280903 -0.416526 0.878043 115 68 55
0.282746 -0.416708 0.877749 118 67 51
0.284589 -0.416889 0.877455 117 66 50
0.286431 -0.417071 0.877160 118 62 46
0.288274 -0.417252 0.876866 118 62 46
0.290129 -0.416512 0.875880 120 63 44
0.291969 -0.416693 0.875586 120 63 44
0.293810 -0.416874 0.875292 118 61 40
0.295650 -0.417056 0.874999 117 60 39
0.297490 -0.417237 0.874705 116 59 40
0.299330 -0.417418 0.874411 115 58 39
0.301170 -0.417599 0.874117 90 56 46
0.303005 -0.416857 0.873134 128 94 84
0.167916 -0.409769 0.901438 109 70 48
0.169771 -0.409951 0.901141 103 64 42
0.171626 -0.410134 0.900845 116 62 36
0.173482 -0.410317 0.900549 121 67 41
0.175507 -0.409594 0.899533 125 67 42
0.177360 -0.409776 0.899237 128 70 45
0.179213 -0.409959 0.898941 131 76 57
0.181228 -0.409235 0.897927 135 80 61
0.183079 -0.409417 0.897631 127 85 73
0.184929 -0.409599 0.897336 128 86 74
0.186779 -0.409781 0.897040 128 94 86
0.188629 -0.409964 0.896745 130 96 88
0.190630 -0.409238 0.895733 127 100 94
0.231749 -0.408675 0.885705 122 94 91
0.233584 -0.408855 0.885412 125 97 94
0.235419 -0.409036 0.885119 127 97 92
0.237254 -0.409217 0.884826 132 102 97
0.239089 -0.409398 0.884533 129 99 92
0.240843 -0.410493 0.884945 126 96 89
0.242680 -0.410674 0.884652 131 95 87
0.244518 -0.410855 0.884358 122 86 78
0.246355 -0.411036 0.884065 122 79 70
0.248193 -0.411217 0.883771 122 79 70
0.250030 -0.411398 0.883478 122 77 66
0.251868 -0.411579 0.883184 123 78 67
0.253705 -0.411760 0.882891 123 76 63
0.255543 -0.411941 0.882598 123 76 63
0.257322 -0.413039 0.883006 122 74 59
0.259162 -0.413221 0.882712 120 72 57
0.261002 -0.413402 0.882418 122 66 50
0.262792 -0.414501 0.882825 117 61 45
0.264634 -0.414682 0.882530 122 64 48
0.266477 -0.414864 0.882236 123 65 49
0.268319 -0.415045 0.881942 120 62 46
0.270162 -0.415227 0.881648 118 60 44
0.272005 -0.415408 0.881353 117 61 45
0.273847 -0.415590 0.881059 118 62 46
0.275690 -0.415771 0.880765 118 62 46
0.277532 -0.415953 0.880471 120 64 48
0.279375 -0.416134 0.880176 117 62 41
0.281218 -0.416316 0.879882 117 62 41
0.283038 -0.417418 0.880284 119 62 41
0.284903 -0.416679 0.879293 117 60 39
0.286746 -0.416860 0.878999 118 62 38
0.288588 -0.417042 0.878705 117 61 37
0.290431 -0.417224 0.878411 116 60 36
0.292273 -0.417405 0.878116 114 58 34
0.294116 -0.417587 0.877822 112 57 36
0.295959 -0.417768 0.877528 110 55 34
0.297801 -0.417950 0.877234 104 57 35
0.299644 -0.417208 0.876247 102 55 33
0.301481 -0.416467 0.875261 83 59 47
0.303318 -0.416648 0.874968 103 79 67
0.170088 -0.409740 0.902993 108 85 66
0.171943 -0.409923 0.902696 105 62 37
0.173798 -0.410105 0.902400 106 63 38
0.175654 -0.410288 0.902104 118 62 36
0.177509 -0.410471 0.901808 124 68 42
0.179529 -0.409747 0.900790 134 73 47
0.181382 -0.409930 0.900494 135 74 48
0.183235 -0.410113 0.900198 133 75 50
0.185087 -0.410295 0.899902 131 73 48
0.187095 -0.409570 0.898887 127 76 58
0.188945 -0.409753 0.898591 133 82 64
0.190795 -0.409935 0.898296 129 84 71
0.192939 -0.408301 0.896564 130 85 72
0.194785 -0.408483 0.896269 130 89 79
0.196630 -0.408665 0.895974 133 92 82
0.198614 -0.407938 0.894962 132 96 86
0.200457 -0.408119 0.894668 136 100 90
0.202434 -0.407392 0.893658 134 100 90
0.204405 -0.406663 0.892648 130 96 86
0.206372 -0.405935 0.891639 129 95 87
0.208207 -0.406116 0.891346 130 96 88
0.210042 -0.406296 0.891053 127 96 87
0.211877 -0.406477 0.890760 126 95 86
0.213712 -0.406658 0.890467 127 96 87
0.215547 -0.406839 0.890174 127 96 87
0.217382 -0.407019 0.889881 127 93 85
0.219217 -0.407200 0.889587 125 91 83
0.221052 -0.407381 0.889294 127 91 81
0.222887 -0.407562 0.889001 125 89 79
0.224722 -0.407742 0.888708 124 88 78
0.226557 -0.407923 0.888415 123 87 77
0.228392 -0.408104 0.888122 124 83 75
0.230227 -0.408285 0.887829 121 80 72
0.232062 -0.408465 0.887536 122 76 68
0.233897 -0.408646 0.887243 120 74 66
0.235732 -0.408827 0.886950 114 67 56
0.237567 -0.409008 0.886657 117 70 59
0.239402 -0.409188 0.886364 119 70 58
0.241237 -0.409369 0.886071 118 69 57
0.243072 -0.409550 0.885778 122 69 54
0.244907 -0.409731 0.885485 122 69 54
0.246742 -0.409911 0.885192 123 66 47
0.248506 -0.411008 0.885605 123 66 47
0.250344 -0.411189 0.885312 123 66 47
0.252181 -0.411370 0.885018 124 67 48
0.253956 -0.412467 0.885430 124 65 47
0.255796 -0.412648 0.885136 123 64 46
0.257636 -0.412829 0.884842 124 65 45
0.259421 -0.413928 0.885252 124 65 45
0.261263 -0.414109 0.884958 125 64 40
0.263106 -0.414291 0.884663 121 60 36
0.264949 -0.414472 0.884369 121 60 36
0.266791 -0.414654 0.884075 120 59 35
0.268634 -0.414835 0.883780 120 59 35
0.270476 -0.415017 0.883486 117 56 32
0.272281 -0.416117 0.883893 116 58 35
0.274127 -0.416299 0.883598 118 60 37
0.275972 -0.416480 0.883304 118 61 40
0.277817 -0.416662 0.883009 117 60 39
0.279662 -0.416844 0.882714 112 60 38
0.281507 -0.417026 0.882420 113 61 39
0.283352 -0.417207 0.882125 107 57 34
0.285198 -0.417389 0.881830 103 53 30
0.287043 -0.417571 0.881536 107 57 34
0.288888 -0.417753 0.881241 105 55 32
0.290745 -0.417013 0.880249 102 55 33
0.292588 -0.417195 0.879955 105 58 36
0.294430 -0.417376 0.879661 107 66 45
0.296273 -0.417558 0.879367 110 69 48
0.298118 -0.416817 0.878377 109 79 61
0.299957 -0.416076 0.877388 114 84 66
0.174115 -0.409894 0.904252 105 77 58
0.175970 -0.410076 0.903955 106 63 40
0.177826 -0.410259 0.903659 100 57 34
0.179681 -0.410442 0.903363 117 61 35
0.181536 -0.410625 0.903066 122 66 40
0.183392 -0.410807 0.902770 126 64 36
0.185404 -0.410084 0.901751 128 66 38
0.187256 -0.410266 0.901455 129 69 40
0.189261 -0.409541 0.900438 129 69 40
0.191111 -0.409724 0.900142 126 68 41
0.193108 -0.408998 0.899126 127 69 42
0.195099 -0.408272 0.898110 126 70 46
0.196945 -0.408454 0.897816 130 74 50
0.198929 -0.407728 0.896801 125 70 49
0.200771 -0.407909 0.896507 127 72 51
0.202748 -0.407182 0.895494 132 75 54
0.204850 -0.405545 0.893763 131 74 53
0.206685 -0.405725 0.893470 127 72 53
0.208520 -0.405906 0.893177 128 73 54
0.210355 -0.406087 0.892884 128 72 56
0.212190 -0.406268 0.892591 128 72 56
0.214025 -0.406448 0.892298 127 71 55
0.215860 -0.406629 0.892005 123 67 51
0.217808 -0.405899 0.890996 125 69 53
0.219530 -0.406991 0.891419 125 69 53
0.221365 -0.407172 0.891126 124 69 50
0.223200 -0.407352 0.890833 122 67 48
0.225035 -0.407533 0.890540 121 66 47
0.226870 -0.407714 0.890246 120 65 46
0.228705 -0.407895 0.889953 122 65 46
0.230540 -0.408075 0.889660 120 63 44
0.232375 -0.408256 0.889367 118 59 39
0.234210 -0.408437 0.889074 120 61 41
0.236045 -0.408618 0.888781 121 62 42
0.237880 -0.408798 0.888488 121 62 42
0.239715 -0.408979 0.888195 123 65 42
0.241550 -0.409160 0.887902 121 63 40
0.243385 -0.409341 0.887609 120 62 39
0.245145 -0.410436 0.888026 120 62 39
0.246982 -0.410617 0.887732 120 62 39
0.248820 -0.410798 0.887439 119 61 38
0.250657 -0.410979 0.887145 119 61 38
0.252430 -0.412076 0.887560 118 60 37
0.254270 -0.412257 0.887266 115 59 35
0.256050 -0.413354 0.887679 114 58 34
0.257892 -0.413536 0.887385 117 60 39
0.259735 -0.413717 0.887091 117 60 39
0.261578 -0.413899 0.886796 117 61 37
0.263370 -0.414998 0.887208 114 58 34
0.265216 -0.415179 0.886913 110 56 32
0.267061 -0.415361 0.886618 110 56 32
0.268906 -0.415543 0.886324 108 57 32
0.270751 -0.415725 0.886029 106 55 30
0.272596 -0.415906 0.885734 108 61 37
0.274441 -0.416088 0.885440 111 64 40
0.276287 -0.416270 0.885145 107 63 43
0.278132 -0.416452 0.884850 113 69 49
0.279977 -0.416633 0.884556 110 74 51
0.281822 -0.416815 0.884261 112 76 53
0.283667 -0.416997 0.883966 118 84 62
0.285512 -0.417179 0.883672 118 84 62
0.287358 -0.417360 0.883377 120 90 72
0.289203 -0.417542 0.883082 124 94 76
0.178142 -0.410047 0.905510 106 78 59
0.179997 -0.410230 0.905214 103 63 39
0.181853 -0.410413 0.904918 96 56 32
0.183708 -0.410596 0.904622 110 56 30
0.185563 -0.410779 0.904325 115 61 35
0.187572 -0.410055 0.903304 120 63 33
0.189425 -0.410237 0.903008 120 63 33
0.191427 -0.409513 0.901989 121 64 34
0.193277 -0.409695 0.901693 124 67 37
0.195271 -0.408970 0.900675 124 67 37
0.197259 -0.408244 0.899657 124 67 37
0.199243 -0.407517 0.898640 127 65 37
0.201086 -0.407699 0.898346 127 65 37
0.203062 -0.406972 0.897330 130 65 38
0.205032 -0.406244 0.896315 129 64 37
0.206998 -0.405516 0.895301 128 63 36
0.208833 -0.405697 0.895008 128 63 36
0.210668 -0.405878 0.894715 127 64 39
0.212503 -0.406058 0.894422 127 64 39
0.214338 -0.406239 0.894129 126 63 38
0.216173 -0.406420 0.893836 124 61 36
0.218008 -0.406601 0.893543 126 63 38
0.219843 -0.406781 0.893250 126 63 38
0.221678 -0.406962 0.892957 124 61 36
0.223513 -0.407143 0.892664 124 61 36
0.225348 -0.407324 0.892371 122 61 35
0.227183 -0.407504 0.892078 121 60 34
0.229018 -0.407685 0.891785 118 60 35
0.230853 -0.407866 0.891492 118 60 35
0.232688 -0.408047 0.891199 117 59 34
0.234523 -0.408227 0.890905 117 59 34
0.236358 -0.408408 0.890612 114 58 34
0.238193 -0.408589 0.890319 114 58 34
0.240028 -0.408770 0.890026 113 59 35
0.241783 -0.409864 0.890446 114 60 36
0.243621 -0.410045 0.890153 112 58 34
0.245458 -0.410226 0.889859 113 59 35
0.247296 -0.410407 0.889566 113 61 39
0.249063 -0.411503 0.889984 112 60 38
0.250903 -0.411684 0.889690 109 59 36
0.252679 -0.412781 0.890106 107 57 34
0.254522 -0.412963 0.889812 107 60 38
0.256364 -0.413144 0.889518 112 65 43
0.258207 -0.413326 0.889224 113 69 49
0.259995 -0.414424 0.889638 115 71 51
0.261840 -0.414605 0.889344 117 76 55
0.263685 -0.414787 0.889049 117 76 55
0.265530 -0.414969 0.888754 121 85 64
0.267376 -0.415151 0.888460 121 85 64
0.269221 -0.415332 0.888165 120 88 68
0.271027 -0.416432 0.888577 126 94 74
0.184025 -0.410384 0.906473 110 76 54
0.185880 -0.410567 0.906177 102 68 46
0.187735 -0.410750 0.905880 107 64 39
0.189741 -0.410026 0.904857 104 61 36
0.191594 -0.410208 0.904561 107 61 32
0.193593 -0.409484 0.903540 111 65 36
0.195586 -0.408759 0.902519 112 61 32
0.197574 -0.408033 0.901498 112 61 32
0.199419 -0.408215 0.901204 115 62 31
0.201400 -0.407489 0.900185 115 62 31
0.203243 -0.407670 0.899890 117 62 31
0.205216 -0.406943 0.898872 117 62 31
0.207183 -0.406216 0.897855 118 63 32
0.209021 -0.406397 0.897562 118 63 32
0.210981 -0.405668 0.896546 119 63 35
0.212816 -0.405849 0.896253 117 61 33
0.214651 -0.406030 0.895960 114 58 30
0.216486 -0.406211 0.895667 114 58 30
0.218321 -0.406391 0.895374 115 59 31
0.220156 -0.406572 0.895081 115 59 31
0.221991 -0.406753 0.894788 113 59 31
0.223826 -0.406934 0.894495 113 59 31
0.225661 -0.407114 0.894202 108 54 28
0.227496 -0.407295 0.893909 107 53 27
0.229331 -0.407476 0.893616 105 54 29
0.231166 -0.407657 0.893323 104 53 28
0.233001 -0.407837 0.893030 102 55 31
0.234836 -0.408018 0.892737 103 56 32
0.236584 -0.409112 0.893160 106 60 40
0.238421 -0.409293 0.892867 109 63 43
0.240259 -0.409474 0.892573 110 69 48
0.242096 -0.409655 0.892280 115 74 53
0.243857 -0.410749 0.892701 116 80 59
0.245623 -0.411845 0.893122 119 83 62
0.247465 -0.412026 0.892828 119 87 67
0.191910 -0.409997 0.906410 113 85 66
0.193908 -0.409273 0.905386 109 81 62
0.195758 -0.409455 0.905090 106 74 54
0.197749 -0.408730 0.904067 104 72 52
0.199734 -0.408004 0.903045 107 71 48
0.201579 -0.408186 0.902750 107 71 48
0.203557 -0.407460 0.901729 108 68 44
0.205400 -0.407641 0.901435 108 68 44
0.207242 -0.407823 0.901140 107 67 43
0.209210 -0.407096 0.900121 105 65 41
0.211050 -0.407277 0.899827 107 67 43
0.212890 -0.407458 0.899533 107 67 43
0.214847 -0.406730 0.898515 108 68 44
0.216570 -0.407821 0.898945 108 68 44
0.218522 -0.407092 0.897928 111 71 47
0.220360 -0.407273 0.897635 112 72 48
0.222197 -0.407454 0.897341 112 73 51
0.224035 -0.407635 0.897048 117 78 56
0.225872 -0.407816 0.896755 117 81 60
0.227710 -0.407997 0.896461 115 79 58
0.229547 -0.408178 0.896168 118 86 66
0.231385 -0.408359 0.895874 122 90 70
