ply
format ascii 1.0
element vertex 1148
property float x
property float y
property float z
property uchar red
property uchar green
property uchar blue
end_header
-0.336183 0.232561 0.708000 105 97 85
-0.334822 0.232890 0.709000 110 79 68
-0.332516 0.232561 0.708000 119 88 77
-0.331150 0.232890 0.709000 132 100 94
-0.329314 0.232890 0.709000 135 103 97
-0.336658 0.234728 0.709000 100 83 69
-0.334822 0.234728 0.709000 119 75 59
-0.332986 0.234728 0.709000 119 75 59
-0.331150 0.234728 0.709000 130 81 69
-0.329314 0.234728 0.709000 130 81 69
-0.327940 0.235059 0.710000 129 99 94
-0.337132 0.236900 0.710000 83 64 49
-0.335294 0.236900 0.710000 112 68 50
-0.333455 0.236900 0.710000 120 76 58
-0.331150 0.236567 0.709000 133 76 55
-0.329778 0.236900 0.710000 139 82 61
-0.327940 0.236900 0.710000 130 85 74
-0.326101 0.236900 0.710000 135 90 79
-0.324263 0.236900 0.710000 133 110 107
-0.337132 0.238741 0.710000 102 83 68
-0.335294 0.238741 0.710000 101 62 42
-0.333455 0.238741 0.710000 109 70 50
-0.331617 0.238741 0.710000 127 72 51
-0.329778 0.238741 0.710000 132 77 56
-0.327940 0.238741 0.710000 137 80 61
-0.326101 0.238741 0.710000 139 82 63
-0.324263 0.238741 0.710000 131 95 87
-0.322878 0.239078 0.711000 141 105 97
-0.335766 0.240921 0.711000 114 85 64
-0.333455 0.240582 0.710000 102 73 52
-0.331617 0.240582 0.710000 118 68 45
-0.329778 0.240582 0.710000 122 72 49
-0.327940 0.240582 0.710000 136 73 50
-0.326561 0.240921 0.711000 142 79 56
-0.324719 0.240921 0.711000 136 83 68
-0.322878 0.240921 0.711000 141 88 73
-0.321037 0.240921 0.711000 123 92 90
-0.319196 0.240921 0.711000 140 109 107
-0.331617 0.242423 0.710000 112 72 48
-0.329778 0.242423 0.710000 107 67 43
-0.327940 0.242423 0.710000 126 68 43
-0.326561 0.242765 0.711000 130 72 47
-0.324719 0.242765 0.711000 141 78 55
-0.322878 0.242765 0.711000 140 77 54
-0.321037 0.242765 0.711000 135 88 77
-0.319196 0.242765 0.711000 137 90 79
-0.317355 0.242765 0.711000 135 112 109
-0.330243 0.244608 0.711000 111 83 64
-0.328402 0.244608 0.711000 111 61 38
-0.326561 0.244608 0.711000 118 68 45
-0.324719 0.244608 0.711000 132 71 45
-0.322878 0.244608 0.711000 136 75 49
-0.321037 0.244608 0.711000 141 79 60
-0.319196 0.244608 0.711000 140 78 59
-0.317355 0.244608 0.711000 130 92 85
-0.315514 0.244608 0.711000 139 101 94
-0.328402 0.246452 0.711000 119 83 62
-0.326561 0.246452 0.711000 105 69 48
-0.324719 0.246452 0.711000 118 62 38
-0.322878 0.246452 0.711000 126 70 46
-0.321489 0.246798 0.712000 140 74 52
-0.319645 0.246798 0.712000 143 77 55
-0.317355 0.246452 0.711000 139 83 69
-0.315514 0.246452 0.711000 144 88 74
-0.313673 0.246452 0.711000 116 88 85
-0.311832 0.246452 0.711000 135 107 104
-0.326561 0.248295 0.711000 114 91 72
-0.324719 0.248295 0.711000 108 65 42
-0.322878 0.248295 0.711000 105 62 39
-0.321489 0.248644 0.712000 126 65 43
-0.319196 0.248295 0.711000 137 76 54
-0.317355 0.248295 0.711000 140 74 52
-0.315514 0.248295 0.711000 143 77 55
-0.313673 0.248295 0.711000 124 81 74
-0.311832 0.248295 0.711000 117 74 67
-0.309991 0.248295 0.711000 128 109 107
-0.322878 0.250139 0.711000 111 81 63
-0.321489 0.250491 0.712000 111 59 37
-0.319196 0.250139 0.711000 113 61 39
-0.317355 0.250139 0.711000 131 65 41
-0.315514 0.250139 0.711000 140 74 50
-0.313673 0.250139 0.711000 135 76 58
-0.311832 0.250139 0.711000 130 71 53
-0.309991 0.250139 0.711000 119 84 81
-0.308149 0.250139 0.711000 130 95 92
-0.321489 0.252337 0.712000 119 83 62
-0.319196 0.251982 0.711000 97 61 40
-0.317355 0.251982 0.711000 120 62 37
-0.315514 0.251982 0.711000 130 72 47
-0.313673 0.251982 0.711000 135 72 49
-0.311832 0.251982 0.711000 136 73 50
-0.309991 0.251982 0.711000 128 77 63
-0.308149 0.251982 0.711000 128 77 63
-0.306308 0.251982 0.711000 133 107 103
-0.319196 0.253826 0.711000 119 96 77
-0.317355 0.253826 0.711000 109 64 41
-0.315514 0.253826 0.711000 108 63 40
-0.313673 0.253826 0.711000 123 65 38
-0.311832 0.253826 0.711000 131 73 46
-0.309991 0.253826 0.711000 131 73 50
-0.308149 0.253826 0.711000 134 76 53
-0.306308 0.253826 0.711000 140 99 89
-0.304467 0.253826 0.711000 145 104 94
-0.302626 0.253826 0.711000 126 110 105
-0.315514 0.255669 0.711000 104 75 54
-0.313673 0.255669 0.711000 110 61 35
-0.311832 0.255669 0.711000 118 69 43
-0.309991 0.255669 0.711000 129 68 42
-0.308149 0.255669 0.711000 133 72 46
-0.306308 0.255669 0.711000 129 73 57
-0.304467 0.255669 0.711000 135 79 63
-0.302626 0.255669 0.711000 117 88 78
-0.300785 0.255669 0.711000 123 94 84
-0.313673 0.257513 0.711000 118 82 59
-0.311832 0.257513 0.711000 103 67 44
-0.309991 0.257513 0.711000 115 61 35
-0.308149 0.257513 0.711000 125 71 45
-0.306308 0.257513 0.711000 135 74 48
-0.304467 0.257513 0.711000 136 75 49
-0.302626 0.257513 0.711000 125 79 61
-0.300785 0.257513 0.711000 126 80 62
-0.298944 0.257513 0.711000 125 104 101
-0.311832 0.259356 0.711000 115 92 73
-0.309991 0.259356 0.711000 109 66 43
-0.308149 0.259356 0.711000 107 64 41
-0.306308 0.259356 0.711000 123 67 41
-0.304467 0.259356 0.711000 127 71 45
-0.302626 0.259356 0.711000 132 76 52
-0.300785 0.259356 0.711000 134 78 54
-0.298944 0.259356 0.711000 122 88 80
-0.297103 0.259356 0.711000 127 93 85
-0.309991 0.261200 0.711000 124 97 75
-0.308149 0.261200 0.711000 104 77 55
-0.306308 0.261200 0.711000 109 63 36
-0.304467 0.261200 0.711000 113 67 40
-0.302626 0.261200 0.711000 126 68 43
-0.300785 0.261200 0.711000 131 73 48
-0.298944 0.261200 0.711000 125 74 58
-0.297103 0.261200 0.711000 126 75 59
-0.295262 0.261200 0.711000 126 96 91
-0.293421 0.261200 0.711000 136 106 101
-0.306308 0.263044 0.711000 115 79 56
-0.304467 0.263044 0.711000 99 63 40
-0.302626 0.263044 0.711000 115 64 39
-0.300785 0.263044 0.711000 120 69 44
-0.298944 0.263044 0.711000 131 73 50
-0.297103 0.263044 0.711000 130 72 49
-0.295262 0.263044 0.711000 124 79 68
-0.293421 0.263044 0.711000 142 97 86
-0.291580 0.263044 0.711000 131 105 101
-0.304467 0.264887 0.711000 115 92 73
-0.302626 0.264887 0.711000 114 71 46
-0.300362 0.264515 0.710000 108 65 40
-0.298944 0.264887 0.711000 123 67 41
-0.297103 0.264887 0.711000 133 77 51
-0.295262 0.264887 0.711000 135 76 58
-0.293421 0.264887 0.711000 137 78 60
-0.291580 0.264887 0.711000 129 86 79
-0.289738 0.264887 0.711000 138 95 88
-0.300362 0.266355 0.710000 107 78 57
-0.298523 0.266355 0.710000 112 61 36
-0.297103 0.266731 0.711000 116 65 40
-0.295262 0.266731 0.711000 130 67 44
-0.293421 0.266731 0.711000 137 74 51
-0.291580 0.266731 0.711000 133 73 60
-0.289738 0.266731 0.711000 137 77 64
-0.287897 0.266731 0.711000 127 90 85
-0.286458 0.267106 0.712000 141 104 99
-0.298944 0.268574 0.711000 119 79 55
-0.297103 0.268574 0.711000 106 66 42
-0.295262 0.268574 0.711000 120 62 39
-0.293421 0.268574 0.711000 127 69 46
-0.291580 0.268574 0.711000 139 73 53
-0.290146 0.268952 0.712000 140 74 54
-0.288302 0.268952 0.712000 135 81 71
-0.286861 0.269330 0.713000 143 89 79
-0.285015 0.269330 0.713000 132 104 101
-0.297103 0.270418 0.711000 113 85 66
-0.295262 0.270418 0.711000 112 65 41
-0.293421 0.270418 0.711000 112 65 41
-0.291990 0.270798 0.712000 128 65 42
-0.290553 0.271178 0.713000 136 73 50
-0.288707 0.271178 0.713000 143 76 59
-0.286861 0.271178 0.713000 142 75 58
-0.285015 0.271178 0.713000 130 84 76
-0.283168 0.271178 0.713000 140 94 86
-0.293833 0.272644 0.712000 117 83 63
-0.292400 0.273027 0.713000 114 63 38
-0.290553 0.273027 0.713000 119 68 43
-0.288707 0.273027 0.713000 134 71 46
-0.286861 0.273027 0.713000 138 75 50
-0.285015 0.273027 0.713000 139 80 62
-0.283168 0.273027 0.713000 141 82 64
-0.281322 0.273027 0.713000 128 90 83
-0.279868 0.273410 0.714000 142 104 97
-0.292400 0.274876 0.713000 119 78 57
-0.290553 0.274876 0.713000 105 64 43
-0.288707 0.274876 0.713000 124 66 39
-0.286861 0.274876 0.713000 130 72 45
-0.285414 0.275261 0.714000 139 73 49
-0.283565 0.275261 0.714000 144 78 54
-0.281717 0.275261 0.714000 136 80 66
-0.279868 0.275261 0.714000 142 86 72
-0.278019 0.275261 0.714000 132 100 94
-0.290961 0.277113 0.714000 120 95 77
-0.289112 0.277113 0.714000 112 65 41
-0.287263 0.277113 0.714000 112 65 41
-0.285414 0.277113 0.714000 130 68 40
-0.283565 0.277113 0.714000 136 74 46
-0.281717 0.277113 0.714000 142 76 54
-0.279868 0.277113 0.714000 143 77 55
-0.278019 0.277113 0.714000 138 86 75
-0.276170 0.277113 0.714000 143 91 80
-0.274321 0.277113 0.714000 136 114 106
-0.287263 0.278964 0.714000 111 79 59
-0.285414 0.278964 0.714000 121 67 41
-0.283565 0.278964 0.714000 123 69 43
-0.281717 0.278964 0.714000 136 71 44
-0.279868 0.278964 0.714000 140 75 48
-0.278019 0.278964 0.714000 142 78 60
-0.276170 0.278964 0.714000 143 79 61
-0.274321 0.278964 0.714000 131 90 80
-0.272472 0.278964 0.714000 131 90 80
-0.285414 0.280815 0.714000 121 82 60
-0.283565 0.280815 0.714000 111 72 50
-0.281717 0.280815 0.714000 120 64 38
-0.279868 0.280815 0.714000 124 68 42
-0.278019 0.280815 0.714000 143 77 53
-0.276170 0.280815 0.714000 144 78 54
-0.274321 0.280815 0.714000 137 80 61
-0.272472 0.280815 0.714000 132 75 56
-0.270623 0.280815 0.714000 132 100 94
-0.281717 0.282667 0.714000 115 72 47
-0.279868 0.282667 0.714000 107 64 39
-0.278019 0.282667 0.714000 125 64 40
-0.276170 0.282667 0.714000 136 75 51
-0.274321 0.282667 0.714000 143 77 55
-0.272472 0.282667 0.714000 145 79 57
-0.270623 0.282667 0.714000 138 89 77
-0.268774 0.282667 0.714000 147 98 86
-0.266552 0.282271 0.713000 142 119 116
-0.280260 0.284916 0.715000 112 83 62
-0.278408 0.284916 0.715000 110 61 35
-0.276170 0.284518 0.714000 110 61 35
-0.274321 0.284518 0.714000 130 67 42
-0.272472 0.284518 0.714000 138 75 50
-0.270623 0.284518 0.714000 143 81 62
-0.268774 0.284518 0.714000 149 87 68
-0.266552 0.284119 0.713000 138 97 91
-0.264705 0.284119 0.713000 149 108 102
-0.278408 0.286770 0.715000 123 87 66
-0.276557 0.286770 0.715000 109 73 52
-0.274321 0.286369 0.714000 115 61 35
-0.272472 0.286369 0.714000 123 69 43
-0.270623 0.286369 0.714000 137 71 49
-0.268774 0.286369 0.714000 146 80 58
-0.266552 0.285968 0.713000 139 83 69
-0.264705 0.285968 0.713000 144 88 74
-0.262490 0.285567 0.712000 142 110 106
-0.274705 0.288624 0.715000 114 73 52
-0.272472 0.288221 0.714000 107 66 45
-0.270623 0.288221 0.714000 125 64 40
-0.268774 0.288221 0.714000 139 78 54
-0.266552 0.287817 0.713000 143 80 59
-0.264705 0.287817 0.713000 144 81 60
-0.262490 0.287413 0.712000 142 95 84
-0.260647 0.287413 0.712000 150 103 92
-0.258440 0.287010 0.711000 139 118 113
-0.272854 0.290478 0.715000 103 78 58
-0.270623 0.290072 0.714000 110 63 39
-0.268774 0.290072 0.714000 115 68 44
-0.266925 0.290072 0.714000 135 72 49
-0.264705 0.289666 0.713000 144 81 58
-0.262859 0.289666 0.713000 141 82 64
-0.260647 0.289259 0.712000 147 88 70
-0.258803 0.289259 0.712000 135 101 93
-0.256959 0.289259 0.712000 142 108 100
-0.270623 0.291923 0.714000 111 77 55
-0.268774 0.291923 0.714000 108 74 52
-0.266552 0.291514 0.713000 122 66 42
-0.264705 0.291514 0.713000 126 70 46
-0.262859 0.291514 0.713000 142 73 52
-0.261013 0.291514 0.713000 148 79 58
-0.258803 0.291106 0.712000 141 89 78
-0.256959 0.291106 0.712000 145 93 82
-0.255116 0.291106 0.712000 132 113 107
-0.268774 0.293775 0.714000 113 93 73
-0.266925 0.293775 0.714000 112 65 43
-0.265077 0.293775 0.714000 113 66 44
-0.263228 0.293775 0.714000 133 67 45
-0.261013 0.293363 0.713000 143 77 55
-0.259166 0.293363 0.713000 144 82 63
-0.257320 0.293363 0.713000 149 87 68
-0.255474 0.293363 0.713000 128 94 86
-0.253628 0.293363 0.713000 139 105 97
-0.266925 0.295626 0.714000 119 90 69
-0.265077 0.295626 0.714000 103 74 53
-0.263228 0.295626 0.714000 118 62 38
-0.261379 0.295626 0.714000 125 69 45
-0.259530 0.295626 0.714000 140 77 54
-0.257681 0.295626 0.714000 143 80 57
-0.255832 0.295626 0.714000 126 78 63
-0.253983 0.295626 0.714000 133 85 70
-0.252134 0.295626 0.714000 133 107 103
-0.265448 0.297894 0.715000 120 99 82
-0.263596 0.297894 0.715000 116 71 48
-0.261379 0.297477 0.714000 110 65 42
-0.259530 0.297477 0.714000 120 59 35
-0.257681 0.297477 0.714000 132 71 47
-0.255832 0.297477 0.714000 134 75 55
-0.253983 0.297477 0.714000 142 83 63
-0.252134 0.297477 0.714000 128 90 83
-0.250286 0.297477 0.714000 143 105 98
-0.261745 0.299748 0.715000 104 75 54
-0.259893 0.299748 0.715000 107 56 31
-0.258042 0.299748 0.715000 112 61 36
-0.256191 0.299748 0.715000 136 75 51
-0.254339 0.299748 0.715000 140 79 55
-0.252488 0.299748 0.715000 128 75 60
-0.250636 0.299748 0.715000 129 76 61
-0.248437 0.299329 0.714000 133 103 98
-0.246588 0.299329 0.714000 146 116 111
-0.259893 0.301602 0.715000 118 79 57
-0.258042 0.301602 0.715000 101 62 40
-0.256191 0.301602 0.715000 117 61 37
-0.254339 0.301602 0.715000 129 73 49
-0.252488 0.301602 0.715000 133 71 52
-0.250636 0.301602 0.715000 140 78 59
-0.248785 0.301602 0.715000 129 82 71
-0.246933 0.301602 0.715000 140 93 82
-0.245082 0.301602 0.715000 135 113 105
-0.258403 0.303880 0.716000 113 88 70
-0.256549 0.303880 0.716000 108 61 39
-0.254339 0.303456 0.715000 110 63 41
-0.252488 0.303456 0.715000 129 68 46
-0.250636 0.303456 0.715000 137 76 54
-0.248785 0.303456 0.715000 139 80 62
-0.246933 0.303456 0.715000 144 85 67
-0.245082 0.303456 0.715000 134 93 85
-0.243230 0.303456 0.715000 146 105 97
-0.256549 0.305737 0.716000 120 88 66
-0.254695 0.305737 0.716000 100 68 46
-0.252841 0.305737 0.716000 115 63 41
-0.250636 0.305309 0.715000 120 68 46
-0.248785 0.305309 0.715000 137 74 53
-0.246933 0.305309 0.715000 147 84 63
-0.245082 0.305309 0.715000 144 86 70
-0.243230 0.305309 0.715000 147 89 73
-0.241379 0.305309 0.715000 132 102 95
-0.252841 0.307593 0.716000 113 72 51
-0.250987 0.307593 0.716000 102 61 40
-0.249133 0.307593 0.716000 117 59 34
-0.246933 0.307163 0.715000 128 70 45
-0.245082 0.307163 0.715000 144 78 58
-0.243230 0.307163 0.715000 149 83 63
-0.241379 0.307163 0.715000 134 85 73
-0.239527 0.307163 0.715000 144 95 83
-0.237676 0.307163 0.715000 138 112 108
-0.250987 0.309450 0.716000 103 75 58
-0.249133 0.309450 0.716000 104 58 31
-0.247279 0.309450 0.716000 105 59 32
-0.245425 0.309450 0.716000 130 67 42
-0.243570 0.309450 0.716000 142 79 54
-0.241716 0.309450 0.716000 144 83 61
-0.239527 0.309017 0.715000 144 83 61
-0.237676 0.309017 0.715000 134 93 85
-0.236154 0.309450 0.716000 147 106 98
-0.249481 0.311741 0.717000 117 83 61
-0.247279 0.311306 0.716000 103 69 47
-0.245425 0.311306 0.716000 115 64 37
-0.243570 0.311306 0.716000 120 69 42
-0.241716 0.311306 0.716000 135 73 45
-0.239862 0.311306 0.716000 140 78 50
-0.238008 0.311306 0.716000 141 83 67
-0.236154 0.311306 0.716000 144 86 70
-0.234300 0.311306 0.716000 135 103 97
-0.232446 0.311306 0.716000 147 115 109
-0.247624 0.313600 0.717000 112 91 74
-0.245767 0.313600 0.717000 111 73 48
-0.243911 0.313600 0.717000 106 68 43
-0.241716 0.313163 0.716000 123 66 36
-0.239862 0.313163 0.716000 131 74 44
-0.238008 0.313163 0.716000 144 78 54
-0.236154 0.313163 0.716000 146 80 56
-0.234300 0.313163 0.716000 133 84 74
-0.232446 0.313163 0.716000 137 88 78
-0.230592 0.313163 0.716000 136 110 106
-0.243911 0.315459 0.717000 107 82 62
-0.242054 0.315459 0.717000 108 62 33
-0.240197 0.315459 0.717000 108 62 33
-0.238341 0.315459 0.717000 128 66 38
-0.236484 0.315459 0.717000 136 74 46
-0.234627 0.315459 0.717000 139 80 60
-0.232771 0.315459 0.717000 134 75 55
-0.230914 0.315459 0.717000 125 84 76
-0.229057 0.315459 0.717000 140 99 91
-0.242054 0.317318 0.717000 114 81 54
-0.240197 0.317318 0.717000 100 67 40
-0.238341 0.317318 0.717000 119 63 35
-0.236484 0.317318 0.717000 125 69 41
-0.234627 0.317318 0.717000 136 75 49
-0.232771 0.317318 0.717000 137 76 50
-0.230914 0.317318 0.717000 130 77 62
-0.229057 0.317318 0.717000 136 83 68
-0.227201 0.317318 0.717000 137 102 99
-0.240197 0.319177 0.717000 116 98 78
-0.238341 0.319177 0.717000 114 74 48
-0.236484 0.319177 0.717000 103 63 37
-0.234627 0.319177 0.717000 120 64 36
-0.232771 0.319177 0.717000 126 70 42
-0.230914 0.319177 0.717000 137 79 54
-0.229057 0.319177 0.717000 144 86 61
-0.227201 0.319177 0.717000 139 90 78
-0.225344 0.319177 0.717000 143 94 82
-0.223488 0.319177 0.717000 136 108 105
-0.236484 0.321036 0.717000 113 86 64
-0.234627 0.321036 0.717000 109 63 36
-0.232771 0.321036 0.717000 112 66 39
-0.230914 0.321036 0.717000 132 71 47
-0.229057 0.321036 0.717000 142 81 57
-0.227201 0.321036 0.717000 146 85 63
-0.225344 0.321036 0.717000 147 86 64
-0.223488 0.321036 0.717000 134 91 84
-0.221631 0.321036 0.717000 140 97 90
-0.234627 0.322895 0.717000 122 88 66
-0.232771 0.322895 0.717000 106 72 50
-0.230914 0.322895 0.717000 116 65 40
-0.229057 0.322895 0.717000 115 64 39
-0.227201 0.322895 0.717000 142 79 54
-0.225344 0.322895 0.717000 147 84 59
-0.223488 0.322895 0.717000 139 83 69
-0.221631 0.322895 0.717000 137 81 67
-0.219774 0.322895 0.717000 133 100 99
-0.232771 0.324755 0.717000 117 97 77
-0.230914 0.324755 0.717000 111 73 48
-0.229057 0.324755 0.717000 102 64 39
-0.227201 0.324755 0.717000 119 61 36
-0.225344 0.324755 0.717000 137 79 54
-0.223488 0.324755 0.717000 149 83 61
-0.221631 0.324755 0.717000 147 81 59
-0.219774 0.324755 0.717000 133 85 77
-0.217918 0.324755 0.717000 144 96 88
-0.229057 0.326614 0.717000 111 83 64
-0.227201 0.326614 0.717000 114 64 41
-0.225344 0.326614 0.717000 110 60 37
-0.223799 0.327069 0.718000 136 70 48
-0.221940 0.327069 0.718000 147 81 59
-0.219774 0.326614 0.717000 143 81 64
-0.217918 0.326614 0.717000 143 81 64
-0.216061 0.326614 0.717000 136 99 94
-0.227518 0.328931 0.718000 124 85 63
-0.225658 0.328931 0.718000 109 70 48
-0.223799 0.328931 0.718000 119 61 36
-0.221940 0.328931 0.718000 128 70 45
-0.219774 0.328473 0.717000 148 79 56
-0.217918 0.328473 0.717000 149 80 57
-0.216061 0.328473 0.717000 141 89 78
-0.214204 0.328473 0.717000 146 94 83
-0.225658 0.330793 0.718000 120 90 74
-0.223799 0.330793 0.718000 115 65 42
-0.221940 0.330793 0.718000 109 59 36
-0.220081 0.330793 0.718000 138 72 48
-0.218222 0.330793 0.718000 147 81 57
-0.216362 0.330793 0.718000 145 82 61
-0.214204 0.330332 0.717000 152 89 68
-0.212348 0.330332 0.717000 130 98 92
-0.223799 0.332654 0.718000 126 87 67
-0.221940 0.332654 0.718000 111 72 52
-0.220081 0.332654 0.718000 121 63 38
-0.218222 0.332654 0.718000 130 72 47
-0.216362 0.332654 0.718000 143 77 53
-0.214503 0.332654 0.718000 149 83 59
-0.212644 0.332654 0.718000 134 85 73
-0.210785 0.332654 0.718000 144 95 83
-0.221940 0.334516 0.718000 118 93 75
-0.220081 0.334516 0.718000 117 72 49
-0.218222 0.334516 0.718000 110 65 42
-0.216362 0.334516 0.718000 130 67 42
-0.214503 0.334516 0.718000 142 79 54
-0.212644 0.334516 0.718000 143 81 62
-0.210785 0.334516 0.718000 144 82 63
-0.208925 0.334516 0.718000 131 95 85
-0.207066 0.334516 0.718000 143 107 97
-0.218222 0.336378 0.718000 106 74 54
-0.216362 0.336378 0.718000 118 62 38
-0.214503 0.336378 0.718000 122 66 42
-0.212644 0.336378 0.718000 151 82 61
-0.210785 0.336378 0.718000 148 79 58
-0.208925 0.336378 0.718000 132 84 69
-0.207066 0.336378 0.718000 140 92 77
-0.205207 0.336378 0.718000 131 109 101
-0.216362 0.338239 0.718000 112 69 46
-0.214503 0.338239 0.718000 100 57 34
-0.212644 0.338239 0.718000 124 61 40
-0.210785 0.338239 0.718000 143 80 59
-0.208925 0.338239 0.718000 144 82 63
-0.207066 0.338239 0.718000 147 85 66
-0.205207 0.338239 0.718000 136 98 89
-0.203348 0.338239 0.718000 145 107 98
-0.214503 0.340101 0.718000 104 75 54
-0.212644 0.340101 0.718000 105 49 25
-0.211078 0.340575 0.719000 120 64 40
-0.209216 0.340575 0.719000 146 80 60
-0.207354 0.340575 0.719000 150 84 64
-0.205493 0.340575 0.719000 142 89 74
-0.203348 0.340101 0.718000 147 94 79
-0.201488 0.340101 0.718000 135 108 102
-0.212940 0.342439 0.719000 111 71 47
-0.211078 0.342439 0.719000 97 57 33
-0.209216 0.342439 0.719000 121 60 36
-0.207354 0.342439 0.719000 134 73 49
-0.205493 0.342439 0.719000 145 82 61
-0.203631 0.342439 0.719000 155 92 71
-0.201769 0.342439 0.719000 139 97 85
-0.199629 0.341963 0.718000 142 100 88
-0.211078 0.344303 0.719000 108 81 59
-0.209216 0.344303 0.719000 106 55 28
-0.207354 0.344303 0.719000 114 63 36
-0.205493 0.344303 0.719000 147 78 55
-0.203631 0.344303 0.719000 155 86 63
-0.201769 0.344303 0.719000 151 94 75
-0.199907 0.344303 0.719000 150 93 74
-0.198045 0.344303 0.719000 136 109 103
-0.209507 0.346649 0.720000 113 73 49
-0.207643 0.346649 0.720000 97 57 33
-0.205778 0.346649 0.720000 130 67 42
-0.203631 0.346168 0.719000 138 75 50
-0.201769 0.346168 0.719000 156 87 66
-0.199907 0.346168 0.719000 158 89 68
-0.198045 0.346168 0.719000 140 94 86
-0.196184 0.346168 0.719000 149 103 95
-0.207643 0.348516 0.720000 105 76 55
-0.205778 0.348516 0.720000 113 59 35
-0.203914 0.348516 0.720000 114 60 36
-0.201769 0.348032 0.719000 146 77 54
-0.199907 0.348032 0.719000 156 87 64
-0.198045 0.348032 0.719000 152 92 77
-0.196184 0.348032 0.719000 154 94 79
-0.194322 0.348032 0.719000 139 104 99
-0.205778 0.350383 0.720000 114 73 52
-0.203914 0.350383 0.720000 102 61 40
-0.202050 0.350383 0.720000 119 56 33
-0.200185 0.350383 0.720000 143 80 57
-0.198045 0.349896 0.719000 157 87 66
-0.196184 0.349896 0.719000 157 87 66
-0.194322 0.349896 0.719000 144 95 83
-0.192460 0.349896 0.719000 150 101 89
-0.203914 0.352250 0.720000 104 79 59
-0.202050 0.352250 0.720000 112 61 36
-0.200185 0.352250 0.720000 114 63 38
-0.198321 0.352250 0.720000 144 75 52
-0.196456 0.352250 0.720000 152 83 60
-0.194322 0.351760 0.719000 146 87 69
-0.192460 0.351760 0.719000 151 92 74
-0.190598 0.351760 0.719000 135 104 95
-0.202050 0.354116 0.720000 112 76 55
-0.200185 0.354116 0.720000 99 63 42
-0.198321 0.354116 0.720000 121 58 35
-0.196456 0.354116 0.720000 137 74 51
-0.194592 0.354116 0.720000 147 81 59
-0.192728 0.354116 0.720000 151 85 63
-0.190863 0.354116 0.720000 142 97 84
-0.188999 0.354116 0.720000 147 102 89
-0.200463 0.356478 0.721000 104 79 61
-0.198321 0.355983 0.720000 107 56 31
-0.196456 0.355983 0.720000 113 62 37
-0.194592 0.355983 0.720000 137 74 51
-0.192728 0.355983 0.720000 149 86 63
-0.190863 0.355983 0.720000 146 89 70
-0.188999 0.355983 0.720000 146 89 70
-0.187134 0.355983 0.720000 131 100 91
-0.198596 0.358347 0.721000 110 76 56
-0.196729 0.358347 0.721000 95 61 41
-0.194862 0.358347 0.721000 118 60 37
-0.192995 0.358347 0.721000 137 79 56
-0.191128 0.358347 0.721000 150 87 62
-0.188999 0.357850 0.720000 148 85 60
-0.187134 0.357850 0.720000 136 90 74
-0.185527 0.358347 0.721000 140 94 78
-0.196729 0.360217 0.721000 101 80 63
-0.194862 0.360217 0.721000 104 57 33
-0.192995 0.360217 0.721000 108 61 37
-0.191128 0.360217 0.721000 142 79 54
-0.189261 0.360217 0.721000 149 86 61
-0.187394 0.360217 0.721000 145 88 67
-0.185527 0.360217 0.721000 144 87 66
-0.183660 0.360217 0.721000 132 102 95
-0.194862 0.362086 0.721000 113 79 57
-0.192995 0.362086 0.721000 98 64 42
-0.191128 0.362086 0.721000 118 62 36
-0.189261 0.362086 0.721000 133 77 51
-0.187394 0.362086 0.721000 150 89 63
-0.185527 0.362086 0.721000 144 83 57
-0.183660 0.362086 0.721000 127 85 73
-0.181793 0.362086 0.721000 142 100 88
-0.193263 0.364460 0.722000 106 86 66
-0.191393 0.364460 0.722000 108 63 38
-0.189524 0.364460 0.722000 107 62 37
-0.187654 0.364460 0.722000 133 72 46
-0.185527 0.363956 0.721000 148 87 61
-0.183660 0.363956 0.721000 135 80 61
-0.182045 0.364460 0.722000 145 90 71
-0.180176 0.364460 0.722000 135 103 97
-0.189524 0.366333 0.722000 93 61 41
-0.187654 0.366333 0.722000 112 58 32
-0.185785 0.366333 0.722000 130 76 50
-0.184170 0.366840 0.723000 155 92 67
-0.182297 0.366840 0.723000 150 87 62
-0.180675 0.367347 0.724000 139 93 77
-0.178800 0.367347 0.724000 147 101 85
-0.187914 0.368715 0.723000 107 62 39
-0.186042 0.368715 0.723000 102 57 34
-0.184170 0.368715 0.723000 143 81 53
-0.182550 0.369225 0.724000 155 93 65
-0.180675 0.369225 0.724000 147 90 69
-0.178800 0.369225 0.724000 151 94 73
-0.176925 0.369225 0.724000 141 107 99
-0.186299 0.371102 0.724000 94 60 40
-0.184424 0.371102 0.724000 113 55 30
-0.182550 0.371102 0.724000 141 83 58
-0.180675 0.371102 0.724000 156 93 70
-0.178800 0.371102 0.724000 154 91 68
-0.176925 0.371102 0.724000 143 98 85
-0.175051 0.371102 0.724000 150 105 92
-0.186042 0.372464 0.723000 107 84 65
-0.184170 0.372464 0.723000 107 57 34
-0.182550 0.372979 0.724000 109 59 36
-0.180675 0.372979 0.724000 144 78 54
-0.178800 0.372979 0.724000 160 94 70
-0.176925 0.372979 0.724000 152 95 76
-0.175051 0.372979 0.724000 154 97 78
-0.173176 0.372979 0.724000 139 112 104
-0.184170 0.374339 0.723000 108 72 51
-0.182550 0.374856 0.724000 96 60 39
-0.180675 0.374856 0.724000 119 58 34
-0.178800 0.374856 0.724000 142 81 57
-0.176925 0.374856 0.724000 157 91 69
-0.175051 0.374856 0.724000 158 92 70
-0.173176 0.374856 0.724000 145 102 93
-0.171301 0.374856 0.724000 150 107 98
-0.182297 0.376213 0.723000 99 74 56
-0.180675 0.376734 0.724000 108 57 32
-0.178800 0.376734 0.724000 118 67 42
-0.176925 0.376734 0.724000 156 87 64
-0.175051 0.376734 0.724000 158 89 66
-0.173176 0.376734 0.724000 151 98 85
-0.171301 0.376734 0.724000 153 100 87
-0.180675 0.378611 0.724000 112 68 48
-0.178800 0.378611 0.724000 94 50 30
-0.176925 0.378611 0.724000 132 66 42
-0.175051 0.378611 0.724000 156 90 66
-0.173176 0.378611 0.724000 154 92 73
-0.171538 0.379134 0.725000 157 95 76
-0.169660 0.379134 0.725000 136 110 99
-0.178800 0.380488 0.724000 96 66 48
-0.176925 0.380488 0.724000 112 54 29
-0.175051 0.380488 0.724000 138 80 55
-0.173415 0.381014 0.725000 164 98 76
-0.171538 0.381014 0.725000 159 93 71
-0.169660 0.381014 0.725000 140 102 91
-0.167783 0.381014 0.725000 147 109 98
-0.176925 0.382365 0.724000 107 57 36
-0.175051 0.382365 0.724000 110 60 39
-0.173176 0.382365 0.724000 149 83 59
-0.171538 0.382893 0.725000 163 97 73
-0.169660 0.382893 0.725000 147 96 80
-0.167783 0.382893 0.725000 152 101 85
-0.165905 0.382893 0.725000 137 117 109
-0.175051 0.384243 0.724000 94 55 35
-0.173176 0.384243 0.724000 120 59 35
-0.171538 0.384773 0.725000 147 86 62
-0.169660 0.384773 0.725000 155 94 72
-0.167783 0.384773 0.725000 156 95 73
-0.165905 0.384773 0.725000 140 106 96
-0.175051 0.386120 0.724000 99 74 54
-0.173176 0.386120 0.724000 105 50 29
-0.171538 0.386653 0.725000 124 69 48
-0.169660 0.386653 0.725000 158 89 68
-0.167783 0.386653 0.725000 160 91 70
-0.165905 0.386653 0.725000 149 103 87
-0.164028 0.386653 0.725000 150 104 88
-0.173176 0.387997 0.724000 103 62 41
-0.171538 0.388533 0.725000 100 59 38
-0.169660 0.388533 0.725000 140 74 52
-0.167783 0.388533 0.725000 157 91 69
-0.165905 0.388533 0.725000 152 95 76
-0.164028 0.388533 0.725000 152 95 76
-0.162151 0.388533 0.725000 129 107 97
-0.171538 0.390413 0.725000 97 69 50
-0.169660 0.390413 0.725000 113 52 28
-0.167783 0.390413 0.725000 137 76 52
-0.165905 0.390413 0.725000 157 91 67
-0.164028 0.390413 0.725000 157 91 67
-0.162151 0.390413 0.725000 139 102 88
-0.160273 0.390413 0.725000 143 106 92
-0.169660 0.392293 0.725000 109 59 36
-0.167783 0.392293 0.725000 112 62 39
-0.165905 0.392293 0.725000 144 78 54
-0.164028 0.392293 0.725000 156 90 66
-0.162151 0.392293 0.725000 143 90 73
-0.160273 0.392293 0.725000 151 98 81
-0.158396 0.392293 0.725000 134 112 104
-0.167783 0.394172 0.725000 95 56 36
-0.165905 0.394172 0.725000 130 67 44
-0.164028 0.394172 0.725000 149 86 63
-0.162151 0.394172 0.725000 151 88 67
-0.160273 0.394172 0.725000 152 89 68
-0.158396 0.394172 0.725000 137 101 91
-0.156519 0.394172 0.725000 141 105 95
-0.167783 0.396052 0.725000 98 70 53
-0.165905 0.396052 0.725000 107 52 31
-0.164028 0.396052 0.725000 121 66 45
-0.162151 0.396052 0.725000 154 88 66
-0.160273 0.396052 0.725000 153 87 65
-0.158396 0.396052 0.725000 145 97 82
-0.156303 0.395506 0.724000 148 100 85
-0.154428 0.395506 0.724000 132 113 107
-0.165905 0.397932 0.725000 105 61 41
-0.164028 0.397932 0.725000 98 54 34
-0.162151 0.397932 0.725000 129 66 43
-0.160273 0.397932 0.725000 154 91 68
-0.158396 0.397932 0.725000 151 93 70
-0.156303 0.397383 0.724000 151 93 70
-0.154428 0.397383 0.724000 139 108 99
-0.164028 0.399812 0.725000 90 60 42
-0.162151 0.399812 0.725000 108 52 28
-0.160273 0.399812 0.725000 132 76 52
-0.158396 0.399812 0.725000 152 89 66
-0.156519 0.399812 0.725000 149 86 63
-0.154428 0.399260 0.724000 147 100 87
-0.152553 0.399260 0.724000 153 106 93
-0.162151 0.401692 0.725000 101 54 32
-0.160273 0.401692 0.725000 104 57 35
-0.158396 0.401692 0.725000 137 74 51
-0.156519 0.401692 0.725000 148 85 62
-0.154641 0.401692 0.725000 151 93 77
-0.152553 0.401138 0.724000 157 99 83
-0.150678 0.401138 0.724000 141 110 101
-0.160273 0.403572 0.725000 97 61 42
-0.158396 0.403572 0.725000 117 59 36
-0.156519 0.403572 0.725000 142 84 61
-0.154641 0.403572 0.725000 149 86 65
-0.152764 0.403572 0.725000 155 92 71
-0.150887 0.403572 0.725000 147 100 87
-0.148804 0.403015 0.724000 149 102 89
-0.160494 0.406011 0.726000 110 84 69
-0.158615 0.406011 0.726000 102 55 33
-0.156519 0.405452 0.725000 98 51 29
-0.154641 0.405452 0.725000 130 67 44
-0.152764 0.405452 0.725000 148 85 62
-0.150887 0.405452 0.725000 147 88 70
-0.149009 0.405452 0.725000 151 92 74
-0.147132 0.405452 0.725000 144 110 100
-0.158615 0.407893 0.726000 114 78 57
-0.156735 0.407893 0.726000 95 59 38
-0.154855 0.407893 0.726000 110 54 30
-0.152975 0.407893 0.726000 133 77 53
-0.150887 0.407331 0.725000 148 85 62
-0.149009 0.407331 0.725000 148 85 62
-0.147132 0.407331 0.725000 144 97 84
-0.145255 0.407331 0.725000 147 100 87
-0.143377 0.407331 0.725000 130 110 100
-0.155068 0.410340 0.727000 98 51 27
-0.152975 0.409776 0.726000 103 56 32
-0.151095 0.409776 0.726000 136 73 48
-0.149215 0.409776 0.726000 150 87 62
-0.147335 0.409776 0.726000 146 87 67
-0.145455 0.409776 0.726000 149 90 70
-0.143575 0.409776 0.726000 134 100 90
-0.141695 0.409776 0.726000 141 107 97
-0.019444 0.408647 0.724000 119 104 103
-0.017570 0.408647 0.724000 105 90 89
-0.153185 0.412225 0.727000 93 57 36
-0.151303 0.412225 0.727000 112 54 29
-0.149420 0.412225 0.727000 127 69 44
-0.147538 0.412225 0.727000 149 83 59
-0.145655 0.412225 0.727000 152 86 62
-0.143773 0.412225 0.727000 134 86 71
-0.141890 0.412225 0.727000 143 95 80
-0.140008 0.412225 0.727000 129 108 103
-0.028778 0.409957 0.723000 122 106 103
-0.026943 0.410524 0.724000 116 95 92
-0.025069 0.410524 0.724000 111 90 87
-0.023194 0.410524 0.724000 111 88 83
-0.021319 0.410524 0.724000 106 83 78
-0.019444 0.410524 0.724000 110 77 76
-0.017570 0.410524 0.724000 100 67 66
-0.015695 0.410524 0.724000 104 69 66
-0.013801 0.409957 0.723000 111 76 73
-0.011929 0.409957 0.723000 111 90 87
-0.151303 0.414110 0.727000 107 62 37
-0.149420 0.414110 0.727000 102 57 32
-0.147538 0.414110 0.727000 124 61 36
-0.145655 0.414110 0.727000 140 77 52
-0.143773 0.414110 0.727000 138 80 57
-0.141890 0.414110 0.727000 125 67 44
-0.140008 0.414110 0.727000 119 81 72
-0.138125 0.414110 0.727000 129 91 82
-0.136242 0.414110 0.727000 120 99 96
-0.039956 0.411262 0.722000 111 92 90
-0.038139 0.411832 0.723000 109 88 85
-0.036267 0.411832 0.723000 106 85 82
-0.034395 0.411832 0.723000 113 86 80
-0.032523 0.411832 0.723000 114 87 81
-0.030693 0.412401 0.724000 112 78 70
-0.028818 0.412401 0.724000 111 77 69
-0.026943 0.412401 0.724000 112 71 61
-0.025069 0.412401 0.724000 111 70 60
-0.023194 0.412401 0.724000 112 67 56
-0.021319 0.412401 0.724000 112 67 56
-0.019418 0.411832 0.723000 116 67 55
-0.017545 0.411832 0.723000 115 66 54
-0.015673 0.411832 0.723000 113 61 50
-0.013801 0.411832 0.723000 111 59 48
-0.011929 0.411832 0.723000 92 60 54
-0.149626 0.416567 0.728000 102 70 50
-0.147741 0.416567 0.728000 112 58 32
-0.145856 0.416567 0.728000 117 63 37
-0.143970 0.416567 0.728000 126 68 41
-0.142085 0.416567 0.728000 130 72 45
-0.140200 0.416567 0.728000 120 67 50
-0.138315 0.416567 0.728000 127 74 57
-0.136242 0.415995 0.727000 124 86 79
-0.134360 0.415995 0.727000 131 93 86
-0.132477 0.415995 0.727000 124 98 94
-0.060606 0.413706 0.723000 127 97 90
-0.058733 0.413706 0.723000 124 94 87
-0.056861 0.413706 0.723000 121 89 83
-0.054989 0.413706 0.723000 118 86 80
-0.053117 0.413706 0.723000 121 85 77
-0.051245 0.413706 0.723000 121 85 77
-0.049372 0.413706 0.723000 117 79 72
-0.047500 0.413706 0.723000 116 78 71
-0.045628 0.413706 0.723000 110 72 65
-0.043756 0.413706 0.723000 102 64 57
-0.041884 0.413706 0.723000 100 62 55
-0.040012 0.413706 0.723000 104 66 59
-0.038139 0.413706 0.723000 110 69 59
-0.036267 0.413706 0.723000 110 69 59
-0.034395 0.413706 0.723000 115 68 55
-0.032568 0.414279 0.724000 115 68 55
-0.030693 0.414279 0.724000 118 67 51
-0.028818 0.414279 0.724000 117 66 50
-0.026943 0.414279 0.724000 118 62 46
-0.025069 0.414279 0.724000 118 62 46
-0.023162 0.413706 0.723000 120 63 44
-0.021290 0.413706 0.723000 120 63 44
-0.019418 0.413706 0.723000 118 61 40
-0.017545 0.413706 0.723000 117 60 39
-0.015673 0.413706 0.723000 116 59 40
-0.013801 0.413706 0.723000 115 58 39
-0.011929 0.413706 0.723000 90 56 46
-0.010043 0.413134 0.722000 128 94 84
-0.147944 0.419030 0.729000 109 70 48
-0.146056 0.419030 0.729000 103 64 42
-0.144168 0.419030 0.729000 116 62 36
-0.142280 0.419030 0.729000 121 67 41
-0.140200 0.418455 0.728000 125 67 42
-0.138315 0.418455 0.728000 128 70 45
-0.136430 0.418455 0.728000 131 76 57
-0.134360 0.417880 0.727000 135 80 61
-0.132477 0.417880 0.727000 127 85 73
-0.130595 0.417880 0.727000 128 86 74
-0.128712 0.417880 0.727000 128 94 86
-0.126830 0.417880 0.727000 130 96 88
-0.124775 0.417305 0.726000 127 100 94
-0.082842 0.414431 0.721000 122 94 91
-0.080975 0.414431 0.721000 125 97 94
-0.079108 0.414431 0.721000 127 97 92
-0.077241 0.414431 0.721000 132 102 97
-0.075374 0.414431 0.721000 129 99 92
-0.073609 0.415006 0.722000 126 96 89
-0.071739 0.415006 0.722000 131 95 87
-0.069870 0.415006 0.722000 122 86 78
-0.068000 0.415006 0.722000 122 79 70
-0.066131 0.415006 0.722000 122 79 70
-0.064261 0.415006 0.722000 122 77 66
-0.062391 0.415006 0.722000 123 78 67
-0.060522 0.415006 0.722000 123 76 63
-0.058652 0.415006 0.722000 123 76 63
-0.056861 0.415581 0.723000 122 74 59
-0.054989 0.415581 0.723000 120 72 57
-0.053117 0.415581 0.723000 122 66 50
-0.051316 0.416156 0.724000 117 61 45
-0.049441 0.416156 0.724000 122 64 48
-0.047566 0.416156 0.724000 123 65 49
-0.045691 0.416156 0.724000 120 62 46
-0.043816 0.416156 0.724000 118 60 44
-0.041942 0.416156 0.724000 117 61 45
-0.040067 0.416156 0.724000 118 62 46
-0.038192 0.416156 0.724000 118 62 46
-0.036317 0.416156 0.724000 120 64 48
-0.034443 0.416156 0.724000 117 62 41
-0.032568 0.416156 0.724000 117 62 41
-0.030735 0.416731 0.725000 119 62 41
-0.028818 0.416156 0.724000 117 60 39
-0.026943 0.416156 0.724000 118 62 38
-0.025069 0.416156 0.724000 117 61 37
-0.023194 0.416156 0.724000 116 60 36
-0.021319 0.416156 0.724000 114 58 34
-0.019444 0.416156 0.724000 112 57 36
-0.017570 0.416156 0.724000 110 55 34
-0.015695 0.416156 0.724000 104 57 35
-0.013801 0.415581 0.723000 102 55 33
-0.011912 0.415006 0.722000 83 59 47
-0.010043 0.415006 0.722000 103 79 67
-0.146056 0.420920 0.729000 108 85 66
-0.144168 0.420920 0.729000 105 62 37
-0.142280 0.420920 0.729000 106 63 38
-0.140393 0.420920 0.729000 118 62 36
-0.138505 0.420920 0.729000 124 68 42
-0.136430 0.420343 0.728000 134 73 47
-0.134545 0.420343 0.728000 135 74 48
-0.132660 0.420343 0.728000 133 75 50
-0.130775 0.420343 0.728000 131 73 48
-0.128712 0.419765 0.727000 127 76 58
-0.126830 0.419765 0.727000 133 82 64
-0.124947 0.419765 0.727000 129 84 71
-0.122726 0.418610 0.725000 130 85 72
-0.120849 0.418610 0.725000 130 89 79
-0.118971 0.418610 0.725000 133 92 82
-0.116933 0.418033 0.724000 132 96 86
-0.115058 0.418033 0.724000 136 100 90
-0.113027 0.417456 0.723000 134 100 90
-0.111001 0.416878 0.722000 130 96 86
-0.108980 0.416301 0.721000 129 95 87
-0.107113 0.416301 0.721000 130 96 88
-0.105246 0.416301 0.721000 127 96 87
-0.103379 0.416301 0.721000 126 95 86
-0.101512 0.416301 0.721000 127 96 87
-0.099645 0.416301 0.721000 127 96 87
-0.097778 0.416301 0.721000 127 93 85
-0.095911 0.416301 0.721000 125 91 83
-0.094044 0.416301 0.721000 127 91 81
-0.092177 0.416301 0.721000 125 89 79
-0.090310 0.416301 0.721000 124 88 78
-0.088443 0.416301 0.721000 123 87 77
-0.086576 0.416301 0.721000 124 83 75
-0.084709 0.416301 0.721000 121 80 72
-0.082842 0.416301 0.721000 122 76 68
-0.080975 0.416301 0.721000 120 74 66
-0.079108 0.416301 0.721000 114 67 56
-0.077241 0.416301 0.721000 117 70 59
-0.075374 0.416301 0.721000 119 70 58
-0.073507 0.416301 0.721000 118 69 57
-0.071640 0.416301 0.721000 122 69 54
-0.069773 0.416301 0.721000 122 69 54
-0.067906 0.416301 0.721000 123 66 47
-0.066131 0.416878 0.722000 123 66 47
-0.064261 0.416878 0.722000 123 66 47
-0.062391 0.416878 0.722000 124 67 48
-0.060606 0.417456 0.723000 124 65 47
-0.058733 0.417456 0.723000 123 64 46
-0.056861 0.417456 0.723000 124 65 45
-0.055065 0.418033 0.724000 124 65 45
-0.053190 0.418033 0.724000 125 64 40
-0.051316 0.418033 0.724000 121 60 36
-0.049441 0.418033 0.724000 121 60 36
-0.047566 0.418033 0.724000 120 59 35
-0.045691 0.418033 0.724000 120 59 35
-0.043816 0.418033 0.724000 117 56 32
-0.042000 0.418610 0.725000 116 58 35
-0.040122 0.418610 0.725000 118 60 37
-0.038245 0.418610 0.725000 118 61 40
-0.036367 0.418610 0.725000 117 60 39
-0.034490 0.418610 0.725000 112 60 38
-0.032613 0.418610 0.725000 113 61 39
-0.030735 0.418610 0.725000 107 57 34
-0.028858 0.418610 0.725000 103 53 30
-0.026981 0.418610 0.725000 107 57 34
-0.025103 0.418610 0.725000 105 55 32
-0.023194 0.418033 0.724000 102 55 33
-0.021319 0.418033 0.724000 105 58 36
-0.019444 0.418033 0.724000 107 66 45
-0.017570 0.418033 0.724000 110 69 48
-0.015673 0.417456 0.723000 109 79 61
-0.013782 0.416878 0.722000 114 84 66
-0.142280 0.422810 0.729000 105 77 58
-0.140393 0.422810 0.729000 106 63 40
-0.138505 0.422810 0.729000 100 57 34
-0.136617 0.422810 0.729000 117 61 35
-0.134730 0.422810 0.729000 122 66 40
-0.132842 0.422810 0.729000 126 64 36
-0.130775 0.422230 0.728000 128 66 38
-0.128889 0.422230 0.728000 129 69 40
-0.126830 0.421650 0.727000 129 69 40
-0.124947 0.421650 0.727000 126 68 41
-0.122895 0.421070 0.726000 127 69 42
-0.120849 0.420490 0.725000 126 70 46
-0.118971 0.420490 0.725000 130 74 50
-0.116933 0.419910 0.724000 125 70 49
-0.115058 0.419910 0.724000 127 72 51
-0.113027 0.419330 0.723000 132 75 54
-0.110847 0.418170 0.721000 131 74 53
-0.108980 0.418170 0.721000 127 72 53
-0.107113 0.418170 0.721000 128 73 54
-0.105246 0.418170 0.721000 128 72 56
-0.103379 0.418170 0.721000 128 72 56
-0.101512 0.418170 0.721000 127 71 55
-0.099645 0.418170 0.721000 123 67 51
-0.097642 0.417590 0.720000 125 69 53
-0.095911 0.418170 0.721000 125 69 53
-0.094044 0.418170 0.721000 124 69 50
-0.092177 0.418170 0.721000 122 67 48
-0.090310 0.418170 0.721000 121 66 47
-0.088443 0.418170 0.721000 120 65 46
-0.086576 0.418170 0.721000 122 65 46
-0.084709 0.418170 0.721000 120 63 44
-0.082842 0.418170 0.721000 118 59 39
-0.080975 0.418170 0.721000 120 61 41
-0.079108 0.418170 0.721000 121 62 42
-0.077241 0.418170 0.721000 121 62 42
-0.075374 0.418170 0.721000 123 65 42
-0.073507 0.418170 0.721000 121 63 40
-0.071640 0.418170 0.721000 120 62 39
-0.069870 0.418750 0.722000 120 62 39
-0.068000 0.418750 0.722000 120 62 39
-0.066131 0.418750 0.722000 119 61 38
-0.064261 0.418750 0.722000 119 61 38
-0.062478 0.419330 0.723000 118 60 37
-0.060606 0.419330 0.723000 115 59 35
-0.058815 0.419910 0.724000 114 58 34
-0.056940 0.419910 0.724000 117 60 39
-0.055065 0.419910 0.724000 117 60 39
-0.053190 0.419910 0.724000 117 61 37
-0.051386 0.420490 0.725000 114 58 34
-0.049509 0.420490 0.725000 110 56 32
-0.047632 0.420490 0.725000 110 56 32
-0.045754 0.420490 0.725000 108 57 32
-0.043877 0.420490 0.725000 106 55 30
-0.042000 0.420490 0.725000 108 61 37
-0.040122 0.420490 0.725000 111 64 40
-0.038245 0.420490 0.725000 107 63 43
-0.036367 0.420490 0.725000 113 69 49
-0.034490 0.420490 0.725000 110 74 51
-0.032613 0.420490 0.725000 112 76 53
-0.030735 0.420490 0.725000 118 84 62
-0.028858 0.420490 0.725000 118 84 62
-0.026981 0.420490 0.725000 120 90 72
-0.025103 0.420490 0.725000 124 94 76
-0.138505 0.424700 0.729000 106 78 59
-0.136617 0.424700 0.729000 103 63 39
-0.134730 0.424700 0.729000 96 56 32
-0.132842 0.424700 0.729000 110 56 30
-0.130954 0.424700 0.729000 115 61 35
-0.128889 0.424118 0.728000 120 63 33
-0.127004 0.424118 0.728000 120 63 33
-0.124947 0.423535 0.727000 121 64 34
-0.123065 0.423535 0.727000 124 67 37
-0.121015 0.422953 0.726000 124 67 37
-0.118971 0.422370 0.725000 124 67 37
-0.116933 0.421788 0.724000 127 65 37
-0.115058 0.421788 0.724000 127 65 37
-0.113027 0.421205 0.723000 130 65 38
-0.111001 0.420622 0.722000 129 64 37
-0.108980 0.420040 0.721000 128 63 36
-0.107113 0.420040 0.721000 128 63 36
-0.105246 0.420040 0.721000 127 64 39
-0.103379 0.420040 0.721000 127 64 39
-0.101512 0.420040 0.721000 126 63 38
-0.099645 0.420040 0.721000 124 61 36
-0.097778 0.420040 0.721000 126 63 38
-0.095911 0.420040 0.721000 126 63 38
-0.094044 0.420040 0.721000 124 61 36
-0.092177 0.420040 0.721000 124 61 36
-0.090310 0.420040 0.721000 122 61 35
-0.088443 0.420040 0.721000 121 60 34
-0.086576 0.420040 0.721000 118 60 35
-0.084709 0.420040 0.721000 118 60 35
-0.082842 0.420040 0.721000 117 59 34
-0.080975 0.420040 0.721000 117 59 34
-0.079108 0.420040 0.721000 114 58 34
-0.077241 0.420040 0.721000 114 58 34
-0.075374 0.420040 0.721000 113 59 35
-0.073609 0.420622 0.722000 114 60 36
-0.071739 0.420622 0.722000 112 58 34
-0.069870 0.420622 0.722000 113 59 35
-0.068000 0.420622 0.722000 113 61 39
-0.066222 0.421205 0.723000 112 60 38
-0.064350 0.421205 0.723000 109 59 36
-0.062564 0.421788 0.724000 107 57 34
-0.060689 0.421788 0.724000 107 60 38
-0.058815 0.421788 0.724000 112 65 43
-0.056940 0.421788 0.724000 113 69 49
-0.055141 0.422370 0.725000 115 71 51
-0.053264 0.422370 0.725000 117 76 55
-0.051386 0.422370 0.725000 117 76 55
-0.049509 0.422370 0.725000 121 85 64
-0.047632 0.422370 0.725000 121 85 64
-0.045754 0.422370 0.725000 120 88 68
-0.043937 0.422953 0.726000 126 94 74
-0.132842 0.426591 0.729000 110 76 54
-0.130954 0.426591 0.729000 102 68 46
-0.129066 0.426591 0.729000 107 64 39
-0.127004 0.426005 0.728000 104 61 36
-0.125119 0.426005 0.728000 107 61 32
-0.123065 0.425420 0.727000 111 65 36
-0.121015 0.424835 0.726000 112 61 32
-0.118971 0.424250 0.725000 112 61 32
-0.117094 0.424250 0.725000 115 62 31
-0.115058 0.423665 0.724000 115 62 31
-0.113183 0.423665 0.724000 117 62 31
-0.111154 0.423080 0.723000 117 62 31
-0.109131 0.422494 0.722000 118 63 32
-0.107262 0.422494 0.722000 118 63 32
-0.105246 0.421909 0.721000 119 63 35
-0.103379 0.421909 0.721000 117 61 33
-0.101512 0.421909 0.721000 114 58 30
-0.099645 0.421909 0.721000 114 58 30
-0.097778 0.421909 0.721000 115 59 31
-0.095911 0.421909 0.721000 115 59 31
-0.094044 0.421909 0.721000 113 59 31
-0.092177 0.421909 0.721000 113 59 31
-0.090310 0.421909 0.721000 108 54 28
-0.088443 0.421909 0.721000 107 53 27
-0.086576 0.421909 0.721000 105 54 29
-0.084709 0.421909 0.721000 104 53 28
-0.082842 0.421909 0.721000 102 55 31
-0.080975 0.421909 0.721000 103 56 32
-0.079218 0.422494 0.722000 106 60 40
-0.077348 0.422494 0.722000 109 63 43
-0.075478 0.422494 0.722000 110 69 48
-0.073609 0.422494 0.722000 115 74 53
-0.071839 0.423080 0.723000 116 80 59
-0.070063 0.423665 0.724000 119 83 62
-0.068188 0.423665 0.724000 119 87 67
-0.125119 0.427893 0.728000 113 85 66
-0.123065 0.427305 0.727000 109 81 62
-0.121182 0.427305 0.727000 106 74 54
-0.119136 0.426718 0.726000 104 72 52
-0.117094 0.426130 0.725000 107 71 48
-0.115217 0.426130 0.725000 107 71 48
-0.113183 0.425542 0.724000 108 68 44
-0.111308 0.425542 0.724000 108 68 44
-0.109433 0.425542 0.724000 107 67 43
-0.107410 0.424954 0.723000 105 65 41
-0.105538 0.424954 0.723000 107 67 43
-0.103666 0.424954 0.723000 107 67 43
-0.101653 0.424366 0.722000 108 68 44
-0.099921 0.424954 0.723000 108 68 44
-0.097914 0.424366 0.722000 111 71 47
-0.096044 0.424366 0.722000 112 72 48
-0.094174 0.424366 0.722000 112 73 51
-0.092305 0.424366 0.722000 117 78 56
-0.090435 0.424366 0.722000 117 81 60
-0.088566 0.424366 0.722000 115 79 58
-0.086696 0.424366 0.722000 118 86 66
-0.084826 0.424366 0.722000 122 90 70
