ply
format ascii 1.0
element vertex 2436
property float x
property float y
property float z
property uchar red
property uchar green
property uchar blue
end_header
-0.187259 -0.044622 0.845000 129 137 124
-0.185066 -0.044622 0.845000 116 129 114
-0.182223 -0.044463 0.842000 105 118 103
-0.180037 -0.044463 0.842000 93 110 94
-0.177852 -0.044463 0.842000 90 107 91
-0.175457 -0.044410 0.841000 88 110 92
-0.173480 -0.044463 0.842000 84 106 88
-0.171091 -0.044410 0.841000 82 102 85
-0.168707 -0.044358 0.840000 82 102 85
-0.166725 -0.044410 0.841000 82 102 85
-0.164542 -0.044410 0.841000 82 102 85
-0.162552 -0.044463 0.842000 84 104 87
-0.160557 -0.044516 0.843000 88 108 91
-0.158744 -0.044622 0.845000 92 109 93
-0.156736 -0.044674 0.846000 97 114 98
-0.154723 -0.044727 0.847000 102 119 105
-0.152704 -0.044780 0.848000 111 128 114
-0.148476 -0.044833 0.849000 123 139 128
-0.198930 -0.042576 0.848000 117 127 111
-0.196729 -0.042576 0.848000 98 108 92
-0.194298 -0.042526 0.847000 89 104 86
-0.191873 -0.042475 0.846000 87 102 84
-0.189453 -0.042425 0.845000 83 99 78
-0.187259 -0.042425 0.845000 85 101 80
-0.184628 -0.042325 0.843000 83 101 78
-0.182223 -0.042275 0.842000 84 102 79
-0.179823 -0.042224 0.841000 87 110 85
-0.177640 -0.042224 0.841000 88 111 86
-0.175666 -0.042275 0.842000 85 112 83
-0.173274 -0.042224 0.841000 83 110 81
-0.171091 -0.042224 0.841000 81 108 77
-0.168707 -0.042174 0.840000 78 105 74
-0.166527 -0.042174 0.840000 77 101 71
-0.164542 -0.042224 0.841000 78 102 72
-0.162552 -0.042275 0.842000 81 105 75
-0.160557 -0.042325 0.843000 81 105 75
-0.158744 -0.042425 0.845000 85 109 79
-0.156736 -0.042475 0.846000 85 109 79
-0.154540 -0.042475 0.846000 85 109 81
-0.152524 -0.042526 0.847000 81 105 77
-0.150503 -0.042576 0.848000 80 103 78
-0.146273 -0.042626 0.849000 80 103 80
-0.144069 -0.042626 0.849000 83 106 83
-0.141865 -0.042626 0.849000 88 109 87
-0.139661 -0.042626 0.849000 96 117 95
-0.137457 -0.042626 0.849000 107 127 110
-0.135094 -0.042576 0.848000 110 130 113
-0.132893 -0.042576 0.848000 114 131 115
-0.206019 -0.040467 0.850000 104 114 98
-0.203572 -0.040419 0.849000 89 105 84
-0.201369 -0.040419 0.849000 85 101 80
-0.199165 -0.040419 0.849000 83 101 78
-0.196729 -0.040372 0.848000 84 102 79
-0.194298 -0.040324 0.847000 85 107 78
-0.191873 -0.040276 0.846000 89 111 82
-0.189453 -0.040229 0.845000 91 115 85
-0.187259 -0.040229 0.845000 95 119 89
-0.184409 -0.040086 0.842000 93 122 90
-0.182223 -0.040086 0.842000 93 122 90
-0.179823 -0.040038 0.841000 90 121 89
-0.177640 -0.040038 0.841000 86 117 85
-0.175666 -0.040086 0.842000 89 120 86
-0.173274 -0.040038 0.841000 90 121 87
-0.171295 -0.040086 0.842000 95 124 90
-0.168908 -0.040038 0.841000 98 127 93
-0.166923 -0.040086 0.842000 96 123 90
-0.164738 -0.040086 0.842000 95 122 89
-0.162745 -0.040134 0.843000 93 120 87
-0.160557 -0.040134 0.843000 90 117 84
-0.158744 -0.040229 0.845000 92 119 86
-0.156736 -0.040276 0.846000 90 117 84
-0.154540 -0.040276 0.846000 91 120 88
-0.152344 -0.040276 0.846000 87 116 84
-0.150325 -0.040324 0.847000 83 114 82
-0.148301 -0.040372 0.848000 82 113 81
-0.146100 -0.040372 0.848000 83 110 77
-0.143899 -0.040372 0.848000 81 108 75
-0.141698 -0.040372 0.848000 80 107 74
-0.139496 -0.040372 0.848000 78 105 72
-0.137295 -0.040372 0.848000 74 101 70
-0.135094 -0.040372 0.848000 81 108 77
-0.132736 -0.040324 0.847000 84 107 82
-0.130692 -0.040372 0.848000 89 112 87
-0.128339 -0.040324 0.847000 96 118 98
-0.126140 -0.040324 0.847000 109 131 111
-0.123941 -0.040324 0.847000 119 139 122
-0.121743 -0.040324 0.847000 116 136 119
-0.212888 -0.038303 0.851000 102 116 96
-0.210679 -0.038303 0.851000 86 100 80
-0.208470 -0.038303 0.851000 79 100 76
-0.206019 -0.038258 0.850000 82 103 79
-0.203812 -0.038258 0.850000 83 110 81
-0.201369 -0.038213 0.849000 92 119 90
-0.199165 -0.038213 0.849000 89 118 86
-0.196729 -0.038168 0.848000 93 122 90
-0.194298 -0.038123 0.847000 93 120 87
-0.191873 -0.038078 0.846000 97 124 91
-0.189453 -0.038033 0.845000 97 124 91
-0.187259 -0.038033 0.845000 93 120 87
-0.184628 -0.037943 0.843000 88 117 85
-0.182223 -0.037898 0.842000 88 117 85
-0.180037 -0.037898 0.842000 101 130 100
-0.177852 -0.037898 0.842000 109 138 108
-0.175875 -0.037943 0.843000 112 141 111
-0.173686 -0.037943 0.843000 109 138 108
-0.171498 -0.037943 0.843000 116 140 110
-0.169310 -0.037943 0.843000 113 137 107
-0.167121 -0.037943 0.843000 119 141 112
-0.164933 -0.037943 0.843000 120 142 113
-0.162745 -0.037943 0.843000 113 135 106
-0.160938 -0.038033 0.845000 113 135 106
-0.158744 -0.038033 0.845000 106 133 102
-0.156551 -0.038033 0.845000 103 130 99
-0.154540 -0.038078 0.846000 100 127 96
-0.152344 -0.038078 0.846000 99 126 95
-0.150148 -0.038078 0.846000 98 127 95
-0.148127 -0.038123 0.847000 94 123 91
-0.145928 -0.038123 0.847000 93 121 85
-0.143899 -0.038168 0.848000 95 123 87
-0.141698 -0.038168 0.848000 90 118 80
-0.139332 -0.038123 0.847000 92 120 82
-0.136971 -0.038078 0.846000 88 115 82
-0.134775 -0.038078 0.846000 86 113 80
-0.132579 -0.038078 0.846000 81 110 78
-0.130383 -0.038078 0.846000 81 110 78
-0.128187 -0.038078 0.846000 78 107 75
-0.125991 -0.038078 0.846000 78 107 75
-0.123795 -0.038078 0.846000 82 108 84
-0.121599 -0.038078 0.846000 92 118 94
-0.119403 -0.038078 0.846000 106 128 108
-0.117345 -0.038123 0.847000 116 138 118
-0.115147 -0.038123 0.847000 131 146 130
-0.219515 -0.036091 0.851000 117 125 110
-0.217306 -0.036091 0.851000 85 103 82
-0.215097 -0.036091 0.851000 81 99 78
-0.212888 -0.036091 0.851000 82 109 80
-0.210679 -0.036091 0.851000 89 116 87
-0.208470 -0.036091 0.851000 93 122 90
-0.206261 -0.036091 0.851000 94 123 91
-0.203812 -0.036048 0.850000 96 123 90
-0.201369 -0.036006 0.849000 95 122 89
-0.199165 -0.036006 0.849000 97 121 91
-0.196729 -0.035963 0.848000 112 136 106
-0.194069 -0.035879 0.846000 120 139 111
-0.191646 -0.035836 0.845000 130 149 121
-0.189453 -0.035836 0.845000 143 160 130
-0.187259 -0.035836 0.845000 153 170 140
-0.184409 -0.035709 0.842000 163 182 156
-0.182223 -0.035709 0.842000 168 187 161
-0.180037 -0.035709 0.842000 173 189 168
-0.178063 -0.035751 0.843000 174 190 169
-0.175875 -0.035751 0.843000 175 190 172
-0.173686 -0.035751 0.843000 175 190 172
-0.171498 -0.035751 0.843000 178 191 174
-0.169310 -0.035751 0.843000 176 189 172
-0.167121 -0.035751 0.843000 178 188 172
-0.164933 -0.035751 0.843000 180 190 174
-0.163131 -0.035836 0.845000 178 188 172
-0.160938 -0.035836 0.845000 177 187 171
-0.158744 -0.035836 0.845000 173 187 167
-0.156551 -0.035836 0.845000 173 187 167
-0.154540 -0.035879 0.846000 165 183 160
-0.152344 -0.035879 0.846000 162 180 157
-0.150148 -0.035879 0.846000 159 176 148
-0.147952 -0.035879 0.846000 147 164 136
-0.145756 -0.035879 0.846000 142 157 128
-0.143729 -0.035921 0.847000 132 147 118
-0.141531 -0.035921 0.847000 123 140 110
-0.139168 -0.035879 0.846000 118 135 105
-0.136971 -0.035879 0.846000 105 127 96
-0.134775 -0.035879 0.846000 98 120 89
-0.132579 -0.035879 0.846000 96 123 90
-0.130383 -0.035879 0.846000 88 115 82
-0.128187 -0.035879 0.846000 85 115 78
-0.125991 -0.035879 0.846000 84 114 77
-0.123649 -0.035836 0.845000 80 114 81
-0.121455 -0.035836 0.845000 81 115 82
-0.119403 -0.035879 0.846000 79 110 80
-0.117207 -0.035879 0.846000 73 104 74
-0.115011 -0.035879 0.846000 83 106 83
-0.112815 -0.035879 0.846000 98 121 98
-0.110619 -0.035879 0.846000 129 144 128
-0.108423 -0.035879 0.846000 143 158 142
-0.226142 -0.033879 0.851000 148 159 140
-0.223933 -0.033879 0.851000 109 120 101
-0.221724 -0.033879 0.851000 89 105 82
-0.219515 -0.033879 0.851000 93 109 86
-0.217306 -0.033879 0.851000 90 114 82
-0.215097 -0.033879 0.851000 95 119 87
-0.212888 -0.033879 0.851000 95 125 88
-0.210679 -0.033879 0.851000 95 125 88
-0.208470 -0.033879 0.851000 101 125 93
-0.206019 -0.033839 0.850000 109 133 101
-0.203572 -0.033799 0.849000 125 144 114
-0.201369 -0.033799 0.849000 135 154 124
-0.198930 -0.033759 0.848000 154 169 144
-0.196497 -0.033719 0.847000 167 182 157
-0.193839 -0.033640 0.845000 176 187 166
-0.191646 -0.033640 0.845000 176 187 166
-0.189004 -0.033560 0.843000 178 187 167
-0.143560 -0.033680 0.846000 183 186 168
-0.141364 -0.033680 0.846000 178 184 165
-0.139168 -0.033680 0.846000 176 182 163
-0.136810 -0.033640 0.845000 163 175 151
-0.134775 -0.033680 0.846000 150 162 138
-0.132423 -0.033640 0.845000 132 149 121
-0.130229 -0.033640 0.845000 122 139 111
-0.128187 -0.033680 0.846000 112 136 104
-0.125842 -0.033640 0.845000 102 126 94
-0.123649 -0.033640 0.845000 89 118 84
-0.121455 -0.033640 0.845000 89 118 84
-0.119262 -0.033640 0.845000 88 117 83
-0.117068 -0.033640 0.845000 81 110 76
-0.114875 -0.033640 0.845000 78 107 75
-0.112681 -0.033640 0.845000 73 102 70
-0.110488 -0.033640 0.845000 78 99 77
-0.108295 -0.033640 0.845000 89 110 88
-0.106101 -0.033640 0.845000 111 126 108
-0.103908 -0.033640 0.845000 135 150 132
-0.101835 -0.033680 0.846000 158 171 156
-0.228351 -0.031667 0.851000 74 89 73
-0.226142 -0.031667 0.851000 79 101 74
-0.223933 -0.031667 0.851000 89 111 84
-0.221724 -0.031667 0.851000 95 119 87
-0.219515 -0.031667 0.851000 97 121 89
-0.217306 -0.031667 0.851000 97 125 89
-0.215097 -0.031667 0.851000 106 134 98
-0.212888 -0.031667 0.851000 115 139 107
-0.210679 -0.031667 0.851000 126 150 118
-0.208225 -0.031630 0.850000 145 162 132
-0.206019 -0.031630 0.850000 166 183 153
-0.203572 -0.031592 0.849000 179 194 169
-0.201369 -0.031592 0.849000 178 193 168
-0.198930 -0.031555 0.848000 178 189 168
-0.134616 -0.031443 0.845000 187 189 176
-0.132423 -0.031443 0.845000 186 192 175
-0.130229 -0.031443 0.845000 184 190 173
-0.128036 -0.031443 0.845000 171 186 161
-0.125842 -0.031443 0.845000 151 166 141
-0.123649 -0.031443 0.845000 132 149 121
-0.121455 -0.031443 0.845000 117 134 106
-0.119262 -0.031443 0.845000 106 128 97
-0.117068 -0.031443 0.845000 98 120 89
-0.114603 -0.031369 0.843000 87 114 81
-0.112415 -0.031369 0.843000 88 115 82
-0.110227 -0.031369 0.843000 84 109 74
-0.107910 -0.031332 0.842000 82 107 72
-0.105724 -0.031332 0.842000 79 101 74
-0.103662 -0.031369 0.843000 81 103 76
-0.101714 -0.031443 0.845000 103 118 100
-0.099521 -0.031443 0.845000 131 146 128
-0.097327 -0.031443 0.845000 152 165 150
-0.232222 -0.029386 0.849000 83 98 84
-0.230560 -0.029455 0.851000 71 94 69
-0.228351 -0.029455 0.851000 85 108 83
-0.226142 -0.029455 0.851000 88 118 81
-0.223933 -0.029455 0.851000 93 123 86
-0.221724 -0.029455 0.851000 96 126 89
-0.219515 -0.029455 0.851000 95 125 88
-0.217306 -0.029455 0.851000 95 122 89
-0.215097 -0.029455 0.851000 97 124 91
-0.212638 -0.029420 0.850000 133 148 123
-0.210184 -0.029386 0.849000 154 169 144
-0.207980 -0.029386 0.849000 173 184 165
-0.205776 -0.029386 0.849000 181 192 173
-0.203333 -0.029351 0.848000 180 193 176
-0.123356 -0.029178 0.843000 186 192 175
-0.121168 -0.029178 0.843000 183 189 172
-0.118980 -0.029178 0.843000 167 179 155
-0.116791 -0.029178 0.843000 142 154 130
-0.114603 -0.029178 0.843000 114 133 103
-0.112148 -0.029109 0.841000 107 126 96
-0.109965 -0.029109 0.841000 97 122 87
-0.107782 -0.029109 0.841000 92 117 82
-0.105599 -0.029109 0.841000 85 110 75
-0.103662 -0.029178 0.843000 77 102 67
-0.101473 -0.029178 0.843000 76 100 70
-0.099285 -0.029178 0.843000 81 105 75
-0.097097 -0.029178 0.843000 95 110 92
-0.094909 -0.029178 0.843000 127 142 124
-0.092940 -0.029247 0.845000 157 167 153
-0.236630 -0.027179 0.849000 94 106 96
-0.234702 -0.027211 0.850000 85 110 89
-0.232496 -0.027211 0.850000 86 111 90
-0.230289 -0.027211 0.850000 86 115 83
-0.228083 -0.027211 0.850000 95 124 92
-0.225611 -0.027179 0.849000 94 125 91
-0.223670 -0.027211 0.850000 98 129 95
-0.221464 -0.027211 0.850000 95 124 92
-0.219257 -0.027211 0.850000 81 110 78
-0.216795 -0.027179 0.849000 79 97 76
-0.214592 -0.027179 0.849000 76 94 73
-0.212388 -0.027179 0.849000 82 92 78
-0.210184 -0.027179 0.849000 86 96 82
-0.207735 -0.027147 0.848000 95 104 95
-0.114467 -0.026955 0.842000 181 190 172
-0.112148 -0.026923 0.841000 168 177 159
-0.109965 -0.026923 0.841000 131 148 120
-0.107654 -0.026891 0.840000 110 127 99
-0.105599 -0.026923 0.841000 97 122 87
-0.103416 -0.026923 0.841000 94 119 84
-0.101353 -0.026955 0.842000 86 113 80
-0.099167 -0.026955 0.842000 78 105 72
-0.097097 -0.026987 0.843000 82 109 78
-0.094909 -0.026987 0.843000 78 105 74
-0.092720 -0.026987 0.843000 95 110 92
-0.090532 -0.026987 0.843000 118 133 115
-0.239397 -0.025031 0.851000 119 136 120
-0.237188 -0.025031 0.851000 91 108 92
-0.234978 -0.025031 0.851000 92 121 91
-0.232496 -0.025001 0.850000 94 123 93
-0.230289 -0.025001 0.850000 98 129 97
-0.227815 -0.024972 0.849000 100 131 99
-0.225611 -0.024972 0.849000 91 120 90
-0.223407 -0.024972 0.849000 75 104 74
-0.221203 -0.024972 0.849000 74 92 71
-0.218999 -0.024972 0.849000 81 99 78
-0.216795 -0.024972 0.849000 85 100 82
-0.214592 -0.024972 0.849000 86 101 83
-0.212388 -0.024972 0.849000 86 100 91
-0.109965 -0.024737 0.841000 184 193 175
-0.107654 -0.024707 0.840000 177 186 168
-0.105599 -0.024737 0.841000 146 163 135
-0.103539 -0.024766 0.842000 124 141 113
-0.101473 -0.024796 0.843000 98 122 90
-0.099285 -0.024796 0.843000 92 116 84
-0.097097 -0.024796 0.843000 88 115 82
-0.094909 -0.024796 0.843000 85 112 79
-0.092720 -0.024796 0.843000 80 106 80
-0.090532 -0.024796 0.843000 80 106 80
-0.088344 -0.024796 0.843000 102 115 100
-0.086156 -0.024796 0.843000 125 138 123
-0.243815 -0.022819 0.851000 148 161 146
-0.241606 -0.022819 0.851000 96 109 94
-0.239397 -0.022819 0.851000 86 112 86
-0.237188 -0.022819 0.851000 93 119 93
-0.234978 -0.022819 0.851000 95 124 90
-0.232496 -0.022792 0.850000 99 128 94
-0.230289 -0.022792 0.850000 119 143 111
-0.227815 -0.022765 0.849000 127 151 119
-0.225611 -0.022765 0.849000 128 142 120
-0.223407 -0.022765 0.849000 124 138 116
-0.221203 -0.022765 0.849000 100 109 91
-0.218999 -0.022765 0.849000 89 98 80
-0.103539 -0.022578 0.842000 181 190 170
-0.101473 -0.022604 0.843000 151 168 140
-0.099285 -0.022604 0.843000 124 141 113
-0.097097 -0.022604 0.843000 99 123 91
-0.094909 -0.022604 0.843000 94 118 86
-0.092720 -0.022604 0.843000 82 111 79
-0.090532 -0.022604 0.843000 77 106 74
-0.088344 -0.022604 0.843000 76 102 76
-0.086156 -0.022604 0.843000 80 106 80
-0.083967 -0.022604 0.843000 103 116 101
-0.081973 -0.022658 0.845000 136 149 134
-0.246313 -0.020631 0.852000 138 146 133
-0.244101 -0.020631 0.852000 91 112 90
-0.241889 -0.020631 0.852000 92 113 91
-0.239397 -0.020607 0.851000 95 122 89
-0.237188 -0.020607 0.851000 90 117 84
-0.234978 -0.020607 0.851000 104 126 95
-0.232496 -0.020583 0.850000 134 156 125
-0.230019 -0.020559 0.849000 173 185 161
-0.227815 -0.020559 0.849000 177 189 165
-0.225611 -0.020559 0.849000 176 185 165
-0.101473 -0.020413 0.843000 184 195 176
-0.099521 -0.020462 0.845000 176 187 168
-0.097327 -0.020462 0.845000 151 168 142
-0.095134 -0.020462 0.845000 124 141 115
-0.092720 -0.020413 0.843000 99 123 93
-0.090532 -0.020413 0.843000 94 118 88
-0.088344 -0.020413 0.843000 83 110 79
-0.086156 -0.020413 0.843000 82 109 78
-0.084167 -0.020462 0.845000 83 104 82
-0.081973 -0.020462 0.845000 88 109 87
-0.079874 -0.020486 0.846000 114 127 112
-0.248524 -0.018417 0.852000 117 133 112
-0.246313 -0.018417 0.852000 93 109 88
-0.244388 -0.018438 0.853000 98 122 90
-0.241889 -0.018417 0.852000 101 125 93
-0.239678 -0.018417 0.852000 97 120 86
-0.237188 -0.018395 0.851000 116 139 105
-0.234978 -0.018395 0.851000 165 180 151
-0.232496 -0.018373 0.850000 172 187 158
-0.230019 -0.018352 0.849000 173 179 160
-0.097327 -0.018265 0.845000 184 193 175
-0.095134 -0.018265 0.845000 182 191 173
-0.092940 -0.018265 0.845000 154 169 144
-0.090747 -0.018265 0.845000 119 134 109
-0.088553 -0.018265 0.845000 105 129 99
-0.086360 -0.018265 0.845000 90 114 84
-0.084167 -0.018265 0.845000 88 112 82
-0.081973 -0.018265 0.845000 80 104 74
-0.079874 -0.018287 0.846000 78 99 77
-0.077678 -0.018287 0.846000 90 111 89
-0.075571 -0.018309 0.847000 130 143 130
-0.250736 -0.016202 0.852000 117 126 108
-0.248816 -0.016221 0.853000 88 107 79
-0.246891 -0.016240 0.854000 101 120 92
-0.244674 -0.016240 0.854000 104 128 96
-0.241889 -0.016202 0.852000 102 126 94
-0.239678 -0.016202 0.852000 143 160 130
-0.237188 -0.016183 0.851000 168 185 155
-0.234978 -0.016183 0.851000 171 183 159
-0.093050 -0.016088 0.846000 186 192 175
-0.090854 -0.016088 0.846000 181 187 170
-0.088553 -0.016069 0.845000 147 164 138
-0.086360 -0.016069 0.845000 110 127 101
-0.084167 -0.016069 0.845000 103 127 97
-0.082070 -0.016088 0.846000 91 115 85
-0.079874 -0.016088 0.846000 80 104 76
-0.077678 -0.016088 0.846000 82 106 78
-0.075571 -0.016107 0.847000 82 97 79
-0.073459 -0.016126 0.848000 108 123 105
-0.255159 -0.013988 0.852000 140 143 127
-0.252948 -0.013988 0.852000 93 112 86
-0.251030 -0.014004 0.853000 95 114 88
-0.249108 -0.014020 0.854000 99 122 88
-0.246891 -0.014020 0.854000 99 122 88
-0.244674 -0.014020 0.854000 116 135 105
-0.242173 -0.014004 0.853000 161 180 150
-0.239678 -0.013988 0.852000 171 187 164
-0.237188 -0.013971 0.851000 166 182 159
-0.088658 -0.013889 0.846000 181 190 172
-0.086462 -0.013889 0.846000 172 181 163
-0.084266 -0.013889 0.846000 129 148 122
-0.082070 -0.013889 0.846000 106 125 99
-0.079874 -0.013889 0.846000 85 112 83
-0.077678 -0.013889 0.846000 82 109 80
-0.075571 -0.013905 0.847000 77 100 75
-0.073459 -0.013922 0.848000 77 100 75
-0.071258 -0.013922 0.848000 98 111 94
-0.069138 -0.013938 0.849000 131 144 127
-0.257371 -0.011773 0.852000 140 151 130
-0.255459 -0.011787 0.853000 100 111 90
-0.253541 -0.011801 0.854000 93 120 87
-0.251325 -0.011801 0.854000 96 123 90
-0.249108 -0.011801 0.854000 99 124 89
-0.246891 -0.011801 0.854000 108 133 98
-0.244674 -0.011801 0.854000 144 161 133
-0.242173 -0.011787 0.853000 138 155 127
-0.239678 -0.011773 0.852000 150 165 147
-0.084266 -0.011690 0.846000 181 192 171
-0.082070 -0.011690 0.846000 155 166 145
-0.079874 -0.011690 0.846000 116 138 111
-0.077678 -0.011690 0.846000 96 118 91
-0.075482 -0.011690 0.846000 88 115 86
-0.073372 -0.011704 0.847000 78 105 76
-0.071258 -0.011718 0.848000 77 98 74
-0.069138 -0.011732 0.849000 81 102 78
-0.066934 -0.011732 0.849000 121 131 115
-0.260192 -0.009581 0.854000 142 147 133
-0.257975 -0.009581 0.854000 92 111 83
-0.255758 -0.009581 0.854000 99 118 90
-0.253541 -0.009581 0.854000 94 122 86
-0.251325 -0.009581 0.854000 96 124 88
-0.249108 -0.009581 0.854000 141 160 130
-0.246891 -0.009581 0.854000 172 191 161
-0.244674 -0.009581 0.854000 172 186 164
-0.082167 -0.009502 0.847000 179 188 170
-0.079874 -0.009491 0.846000 177 189 165
-0.077678 -0.009491 0.846000 142 154 130
-0.075482 -0.009491 0.846000 97 121 91
-0.073372 -0.009502 0.847000 90 114 84
-0.071258 -0.009514 0.848000 85 112 81
-0.069057 -0.009514 0.848000 74 101 70
-0.066934 -0.009525 0.849000 74 92 69
-0.064730 -0.009525 0.849000 97 115 92
-0.062527 -0.009525 0.849000 140 148 133
-0.262409 -0.007361 0.854000 137 151 131
-0.260192 -0.007361 0.854000 95 109 89
-0.257975 -0.007361 0.854000 94 118 86
-0.255758 -0.007361 0.854000 95 119 87
-0.253541 -0.007361 0.854000 100 123 89
-0.251325 -0.007361 0.854000 149 172 138
-0.249108 -0.007361 0.854000 180 192 168
-0.246891 -0.007361 0.854000 174 186 162
-0.077678 -0.007292 0.846000 185 191 172
-0.075482 -0.007292 0.846000 152 167 140
-0.073372 -0.007301 0.847000 112 127 100
-0.071258 -0.007309 0.848000 92 116 84
-0.069057 -0.007309 0.848000 84 108 76
-0.066855 -0.007309 0.848000 77 101 69
-0.064654 -0.007309 0.848000 71 95 63
-0.062527 -0.007318 0.849000 89 105 84
-0.060323 -0.007318 0.849000 118 134 113
-0.264626 -0.005141 0.854000 150 155 141
-0.262716 -0.005147 0.855000 93 112 86
-0.260497 -0.005147 0.855000 99 118 92
-0.257975 -0.005141 0.854000 96 118 87
-0.256058 -0.005147 0.855000 100 122 91
-0.253838 -0.005147 0.855000 161 176 149
-0.251619 -0.005147 0.855000 174 189 162
-0.249108 -0.005141 0.854000 172 181 163
-0.075571 -0.005099 0.847000 178 187 167
-0.073372 -0.005099 0.847000 172 181 161
-0.071258 -0.005105 0.848000 130 147 119
-0.069057 -0.005105 0.848000 106 123 95
-0.066855 -0.005105 0.848000 88 112 80
-0.064654 -0.005105 0.848000 75 99 67
-0.062453 -0.005105 0.848000 75 97 70
-0.060323 -0.005111 0.849000 82 104 77
-0.058119 -0.005111 0.849000 116 129 114
-0.267467 -0.002928 0.856000 148 159 140
-0.265245 -0.002928 0.856000 99 110 91
-0.262716 -0.002925 0.855000 97 119 88
-0.260497 -0.002925 0.855000 103 125 94
-0.258277 -0.002925 0.855000 101 120 90
-0.256058 -0.002925 0.855000 158 177 147
-0.253838 -0.002925 0.855000 177 187 162
-0.073459 -0.002901 0.848000 179 188 170
-0.071258 -0.002901 0.848000 174 188 166
-0.069057 -0.002901 0.848000 147 161 139
-0.066855 -0.002901 0.848000 97 119 90
-0.064654 -0.002901 0.848000 90 112 83
-0.062453 -0.002901 0.848000 80 104 74
-0.060252 -0.002901 0.848000 75 99 69
-0.058119 -0.002905 0.849000 77 94 76
-0.055915 -0.002905 0.849000 109 126 108
-0.269689 -0.000704 0.856000 85 90 78
-0.267467 -0.000704 0.856000 91 110 82
-0.264935 -0.000703 0.855000 100 119 91
-0.262716 -0.000703 0.855000 99 123 91
-0.260497 -0.000703 0.855000 97 121 89
-0.257975 -0.000702 0.854000 153 168 143
-0.256058 -0.000703 0.855000 174 189 164
-0.253541 -0.000702 0.854000 179 187 172
-0.069057 -0.000697 0.848000 181 191 177
-0.066855 -0.000697 0.848000 157 173 150
-0.064654 -0.000697 0.848000 114 130 107
-0.062453 -0.000697 0.848000 95 119 89
-0.060252 -0.000697 0.848000 85 109 79
-0.058050 -0.000697 0.848000 75 99 71
-0.055849 -0.000697 0.848000 74 98 70
-0.053648 -0.000697 0.848000 90 105 89
-0.051507 -0.000698 0.849000 132 147 131
-0.272229 0.001523 0.857000 86 99 82
-0.270004 0.001523 0.857000 89 102 85
-0.267467 0.001521 0.856000 98 122 90
-0.265245 0.001521 0.856000 103 127 95
-0.262716 0.001520 0.855000 97 119 90
-0.260192 0.001518 0.854000 77 99 70
-0.257975 0.001518 0.854000 83 100 84
-0.256058 0.001520 0.855000 101 118 102
-0.066855 0.001507 0.848000 173 183 169
-0.064654 0.001507 0.848000 164 174 160
-0.062453 0.001507 0.848000 124 146 117
-0.060252 0.001507 0.848000 99 121 92
-0.058050 0.001507 0.848000 82 111 79
-0.055849 0.001507 0.848000 77 106 74
-0.053648 0.001507 0.848000 70 92 72
-0.051447 0.001507 0.848000 82 104 84
-0.049245 0.001507 0.848000 129 141 131
-0.272547 0.003755 0.858000 94 113 87
-0.270319 0.003755 0.858000 101 120 94
-0.267780 0.003751 0.857000 103 127 97
-0.265245 0.003746 0.856000 103 127 97
-0.263023 0.003746 0.856000 84 101 83
-0.260497 0.003742 0.855000 81 98 80
-0.257975 0.003738 0.854000 80 95 90
-0.064654 0.003711 0.848000 130 139 130
-0.062453 0.003711 0.848000 133 150 132
-0.060252 0.003711 0.848000 121 138 120
-0.058050 0.003711 0.848000 102 129 96
-0.055849 0.003711 0.848000 89 116 83
-0.053648 0.003711 0.848000 74 103 73
-0.051447 0.003711 0.848000 66 95 65
-0.049245 0.003711 0.848000 81 98 84
-0.047044 0.003711 0.848000 122 139 125
-0.275735 0.006006 0.861000 105 117 93
-0.273500 0.006006 0.861000 92 116 84
-0.270950 0.005999 0.860000 101 125 93
-0.268405 0.005992 0.859000 97 121 91
-0.265555 0.005978 0.857000 85 109 79
-0.263023 0.005971 0.856000 83 100 86
-0.260497 0.005964 0.855000 84 101 87
-0.060323 0.005923 0.849000 89 103 94
-0.058119 0.005923 0.849000 99 122 99
-0.055849 0.005916 0.848000 108 131 108
-0.053648 0.005916 0.848000 89 118 88
-0.051447 0.005916 0.848000 73 102 72
-0.049245 0.005916 0.848000 74 96 76
-0.047044 0.005916 0.848000 82 104 84
-0.044843 0.005916 0.848000 120 129 120
-0.278292 0.008254 0.862000 144 159 132
-0.275735 0.008244 0.861000 97 112 85
-0.273500 0.008244 0.861000 102 124 93
-0.271265 0.008244 0.861000 98 120 89
-0.268405 0.008225 0.859000 116 135 109
-0.265865 0.008215 0.858000 113 132 106
-0.263331 0.008206 0.857000 108 123 107
-0.058119 0.008129 0.849000 79 96 82
-0.055915 0.008129 0.849000 93 110 96
-0.053648 0.008120 0.848000 108 134 108
-0.051447 0.008120 0.848000 93 119 93
-0.049245 0.008120 0.848000 78 105 76
-0.047044 0.008120 0.848000 79 106 77
-0.044896 0.008129 0.849000 79 94 80
-0.042692 0.008129 0.849000 101 116 102
-0.281181 0.010519 0.864000 157 163 144
-0.278938 0.010519 0.864000 99 119 86
-0.276695 0.010519 0.864000 100 120 87
-0.274135 0.010506 0.863000 100 119 89
-0.271580 0.010494 0.862000 120 139 109
-0.269030 0.010482 0.861000 172 186 164
-0.266175 0.010458 0.859000 174 188 166
-0.055915 0.010336 0.849000 75 89 78
-0.053711 0.010336 0.849000 89 110 88
-0.051447 0.010324 0.848000 110 131 109
-0.049245 0.010324 0.848000 94 118 86
-0.047100 0.010336 0.849000 80 104 72
-0.044896 0.010336 0.849000 68 91 68
-0.042692 0.010336 0.849000 64 87 64
-0.040488 0.010336 0.849000 73 85 77
-0.281506 0.012779 0.865000 114 124 99
-0.279261 0.012779 0.865000 93 116 82
-0.277016 0.012779 0.865000 98 121 87
-0.274453 0.012764 0.864000 111 128 100
-0.271895 0.012750 0.863000 158 175 147
-0.269342 0.012735 0.862000 174 179 165
-0.053711 0.012543 0.849000 73 90 74
-0.051507 0.012543 0.849000 90 107 91
-0.049303 0.012543 0.849000 104 128 98
-0.047100 0.012543 0.849000 91 115 85
-0.044896 0.012543 0.849000 78 105 74
-0.042692 0.012543 0.849000 68 95 64
-0.040488 0.012543 0.849000 71 93 75
-0.038284 0.012543 0.849000 69 91 73
-0.284080 0.015045 0.866000 136 151 122
-0.281832 0.015045 0.866000 101 116 87
-0.279584 0.015045 0.866000 98 123 88
-0.277336 0.015045 0.866000 91 116 81
-0.274770 0.015027 0.865000 151 166 141
-0.272210 0.015010 0.864000 169 184 159
-0.051507 0.014750 0.849000 93 103 89
-0.049303 0.014750 0.849000 95 117 90
-0.047100 0.014750 0.849000 97 119 92
-0.044896 0.014750 0.849000 86 115 81
-0.042692 0.014750 0.849000 75 104 70
-0.040488 0.014750 0.849000 75 101 75
-0.038284 0.014750 0.849000 74 100 74
-0.036080 0.014750 0.849000 80 94 85
-0.286328 0.017296 0.866000 159 165 146
-0.284080 0.017296 0.866000 99 119 86
-0.281832 0.017296 0.866000 105 125 92
-0.279584 0.017296 0.866000 99 118 88
-0.277336 0.017296 0.866000 129 148 118
-0.275088 0.017296 0.866000 172 181 161
-0.049303 0.016956 0.849000 159 173 151
-0.047100 0.016956 0.849000 139 153 131
-0.044896 0.016956 0.849000 97 121 89
-0.042692 0.016956 0.849000 88 112 80
-0.040488 0.016956 0.849000 76 103 72
-0.038284 0.016956 0.849000 76 103 72
-0.036080 0.016956 0.849000 79 99 82
-0.033916 0.016976 0.850000 77 97 80
-0.286658 0.019569 0.867000 126 136 113
-0.284408 0.019569 0.867000 98 121 87
-0.282157 0.019569 0.867000 96 119 85
-0.279907 0.019569 0.867000 111 128 100
-0.277336 0.019547 0.866000 161 178 150
-0.044896 0.019163 0.849000 139 158 132
-0.042692 0.019163 0.849000 92 111 85
-0.040488 0.019163 0.849000 83 107 75
-0.038329 0.019186 0.850000 80 104 72
-0.036123 0.019186 0.850000 82 105 82
-0.033956 0.019208 0.851000 85 108 85
-0.031747 0.019208 0.851000 90 106 95
-0.288909 0.021823 0.867000 150 165 138
-0.286989 0.021848 0.868000 101 116 89
-0.284736 0.021848 0.868000 102 124 93
-0.282483 0.021848 0.868000 100 122 91
-0.280229 0.021848 0.868000 154 166 142
-0.277656 0.021823 0.867000 177 189 165
-0.042792 0.021420 0.851000 135 149 129
-0.040583 0.021420 0.851000 89 113 81
-0.038374 0.021420 0.851000 83 107 75
-0.036165 0.021420 0.851000 74 101 72
-0.033956 0.021420 0.851000 79 106 77
-0.031747 0.021420 0.851000 109 129 114
-0.029538 0.021420 0.851000 127 147 132
-0.288909 0.024076 0.867000 105 124 96
-0.286989 0.024104 0.868000 100 119 91
-0.284736 0.024104 0.868000 101 120 90
-0.282483 0.024104 0.868000 126 145 115
-0.280229 0.024104 0.868000 175 184 166
-0.040583 0.023632 0.851000 120 139 111
-0.038374 0.023632 0.851000 91 110 82
-0.036165 0.023632 0.851000 79 106 77
-0.033996 0.023660 0.852000 73 100 71
-0.031785 0.023660 0.852000 78 98 83
-0.029573 0.023660 0.852000 106 126 111
-0.290824 0.026300 0.866000 139 148 130
-0.288576 0.026300 0.866000 94 118 88
-0.286658 0.026330 0.867000 101 125 95
-0.284408 0.026330 0.867000 107 124 98
-0.282483 0.026360 0.868000 158 175 149
-0.040583 0.025844 0.851000 165 179 157
-0.038420 0.025874 0.852000 110 124 102
-0.036208 0.025874 0.852000 91 115 87
-0.033996 0.025874 0.852000 71 95 67
-0.031785 0.025874 0.852000 76 96 77
-0.029608 0.025905 0.853000 79 99 80
-0.027426 0.025935 0.854000 118 132 121
-0.293072 0.028550 0.866000 171 187 164
-0.290824 0.028550 0.866000 107 123 100
-0.288576 0.028550 0.866000 98 120 93
-0.286328 0.028550 0.866000 96 118 91
-0.284080 0.028550 0.866000 134 145 124
-0.281832 0.028550 0.866000 173 184 163
-0.038420 0.028089 0.852000 158 167 149
-0.036250 0.028122 0.853000 98 117 91
-0.034036 0.028122 0.853000 95 114 88
-0.031859 0.028155 0.854000 95 116 94
-0.029642 0.028155 0.854000 92 113 91
-0.027426 0.028155 0.854000 94 108 97
-0.025209 0.028155 0.854000 132 146 135
-0.293072 0.030801 0.866000 140 161 137
-0.290824 0.030801 0.866000 97 118 94
-0.288576 0.030801 0.866000 95 119 89
-0.286328 0.030801 0.866000 99 123 93
-0.284080 0.030801 0.866000 164 178 156
-0.036293 0.030375 0.854000 146 162 139
-0.034076 0.030375 0.854000 134 150 127
-0.031859 0.030375 0.854000 119 137 116
-0.029642 0.030375 0.854000 107 125 104
-0.027458 0.030410 0.855000 86 102 91
-0.025268 0.030446 0.856000 101 117 106
-0.295320 0.033052 0.866000 96 111 97
-0.293072 0.033052 0.866000 103 127 97
-0.290824 0.033052 0.866000 99 123 93
-0.288576 0.033052 0.866000 94 118 90
-0.286328 0.033052 0.866000 115 139 111
-0.283752 0.033014 0.865000 172 185 168
-0.034116 0.032633 0.855000 151 167 146
-0.031897 0.032633 0.855000 136 153 137
-0.029677 0.032633 0.855000 116 133 117
-0.027490 0.032671 0.856000 94 110 99
-0.025268 0.032671 0.856000 90 106 95
-0.023073 0.032709 0.857000 123 134 130
-0.295320 0.035303 0.866000 83 96 79
-0.293072 0.035303 0.866000 96 121 86
-0.290824 0.035303 0.866000 99 124 89
-0.288576 0.035303 0.866000 90 113 88
-0.285997 0.035263 0.865000 78 101 76
-0.283752 0.035263 0.865000 109 119 105
-0.034156 0.034896 0.856000 138 148 134
-0.031934 0.034896 0.856000 137 154 140
-0.029712 0.034896 0.856000 128 145 131
-0.027490 0.034896 0.856000 114 128 117
-0.025297 0.034936 0.857000 88 102 91
-0.023073 0.034936 0.857000 99 112 109
-0.297568 0.037554 0.866000 100 114 92
-0.295661 0.037598 0.867000 96 110 88
-0.293072 0.037554 0.866000 97 122 85
-0.291159 0.037598 0.867000 99 124 87
-0.288576 0.037554 0.866000 86 104 81
-0.286328 0.037554 0.866000 72 90 67
-0.283752 0.037511 0.865000 78 88 76
-0.031971 0.037164 0.857000 154 167 154
-0.029747 0.037164 0.857000 145 158 145
-0.027522 0.037164 0.857000 121 135 124
-0.025297 0.037164 0.857000 87 101 90
-0.023100 0.037207 0.858000 90 103 100
-0.020897 0.037251 0.859000 102 115 112
-0.298255 0.039897 0.868000 97 114 86
-0.296002 0.039897 0.868000 103 120 92
-0.293748 0.039897 0.868000 98 123 88
-0.291495 0.039897 0.868000 92 117 82
-0.289242 0.039897 0.868000 90 106 85
-0.286328 0.039805 0.866000 93 109 88
-0.284080 0.039805 0.866000 95 104 95
-0.029781 0.039437 0.858000 160 170 158
-0.027522 0.039392 0.857000 141 157 146
-0.025327 0.039437 0.858000 101 117 106
-0.023100 0.039437 0.858000 85 100 95
-0.020897 0.039483 0.859000 90 105 100
-0.018689 0.039529 0.860000 120 129 122
-0.298598 0.042202 0.869000 145 160 133
-0.296343 0.042202 0.869000 104 119 92
-0.293748 0.042153 0.868000 97 119 88
-0.291495 0.042153 0.868000 86 108 77
-0.289242 0.042153 0.868000 87 103 80
-0.286989 0.042153 0.868000 86 102 79
-0.027554 0.041668 0.858000 152 166 155
-0.025327 0.041668 0.858000 137 151 140
-0.023100 0.041668 0.858000 92 107 102
-0.020897 0.041716 0.859000 91 106 101
-0.018689 0.041765 0.860000 107 118 114
-0.298598 0.044461 0.869000 112 131 101
-0.296343 0.044461 0.869000 97 116 86
-0.294087 0.044461 0.869000 97 116 86
-0.291831 0.044461 0.869000 126 145 115
-0.289575 0.044461 0.869000 158 172 150
-0.286989 0.044409 0.868000 161 175 153
-0.027586 0.043949 0.859000 146 161 145
-0.025327 0.043898 0.858000 144 159 143
-0.023100 0.043898 0.858000 104 120 111
-0.020897 0.043949 0.859000 85 101 92
-0.018689 0.044000 0.860000 92 105 100
-0.016475 0.044051 0.861000 127 140 135
-0.301547 0.046827 0.871000 174 180 163
-0.299286 0.046827 0.871000 98 117 89
-0.297025 0.046827 0.871000 102 121 93
-0.294764 0.046827 0.871000 94 113 85
-0.292167 0.046773 0.870000 143 162 134
-0.289575 0.046719 0.869000 172 181 161
-0.025356 0.046182 0.859000 148 161 146
-0.023127 0.046182 0.859000 133 150 136
-0.020897 0.046182 0.859000 97 114 100
-0.018689 0.046235 0.860000 88 104 95
-0.016475 0.046289 0.861000 102 118 109
-0.301547 0.049091 0.871000 160 163 145
-0.299286 0.049091 0.871000 93 112 84
-0.297025 0.049091 0.871000 97 116 88
-0.294764 0.049091 0.871000 101 118 92
-0.292503 0.049091 0.871000 157 174 148
-0.290242 0.049091 0.871000 177 183 164
-0.025356 0.048414 0.859000 164 174 158
-0.023127 0.048414 0.859000 151 168 150
-0.020897 0.048414 0.859000 130 147 129
-0.018689 0.048471 0.860000 91 111 96
-0.016456 0.048471 0.860000 90 110 95
-0.014240 0.048527 0.861000 119 132 119
-0.301547 0.051355 0.871000 126 132 113
-0.299286 0.051355 0.871000 97 114 86
-0.297025 0.051355 0.871000 95 112 84
-0.294764 0.051355 0.871000 112 127 102
-0.292503 0.051355 0.871000 167 182 157
-0.023127 0.050647 0.859000 154 170 149
-0.020872 0.050588 0.858000 137 153 132
-0.018667 0.050647 0.859000 92 112 95
-0.016456 0.050706 0.860000 81 101 84
-0.014240 0.050765 0.861000 99 114 98
-0.301547 0.053619 0.871000 110 119 99
-0.299629 0.053680 0.872000 104 121 93
-0.297366 0.053680 0.872000 94 111 83
-0.295102 0.053680 0.872000 135 146 127
-0.292839 0.053680 0.872000 176 187 168
-0.023153 0.052941 0.860000 126 143 125
-0.020897 0.052880 0.859000 114 131 113
-0.018689 0.052941 0.860000 89 115 91
-0.016456 0.052941 0.860000 76 102 78
-0.014240 0.053003 0.861000 86 106 89
-0.012005 0.053003 0.861000 126 146 129
-0.304156 0.055947 0.872000 161 173 149
-0.301893 0.055947 0.872000 104 116 92
-0.299973 0.056011 0.873000 99 121 92
-0.297707 0.056011 0.873000 93 115 86
-0.295441 0.056011 0.873000 145 156 137
-0.023180 0.055241 0.861000 73 89 78
-0.020921 0.055177 0.860000 88 104 93
-0.018689 0.055177 0.860000 100 126 102
-0.016456 0.055177 0.860000 87 113 89
-0.014240 0.055241 0.861000 83 109 85
-0.012005 0.055241 0.861000 95 121 97
-0.009770 0.055241 0.861000 125 139 128
-0.304156 0.058213 0.872000 147 162 137
-0.302239 0.058280 0.873000 98 113 88
-0.299973 0.058280 0.873000 85 107 80
-0.297707 0.058280 0.873000 95 117 90
-0.295441 0.058280 0.873000 158 166 151
-0.020945 0.057479 0.861000 86 100 89
-0.018710 0.057479 0.861000 106 131 110
-0.016475 0.057479 0.861000 94 119 98
-0.014240 0.057479 0.861000 73 101 74
-0.012005 0.057479 0.861000 64 92 65
-0.009770 0.057479 0.861000 67 83 72
-0.304156 0.060480 0.872000 136 153 127
-0.302239 0.060549 0.873000 106 123 97
-0.299973 0.060549 0.873000 89 112 87
-0.297707 0.060549 0.873000 101 124 99
-0.295441 0.060549 0.873000 167 175 160
-0.020945 0.059717 0.861000 80 93 80
-0.018710 0.059717 0.861000 87 109 89
-0.016475 0.059717 0.861000 108 130 110
-0.014240 0.059717 0.861000 85 114 84
-0.012005 0.059717 0.861000 75 104 74
-0.009782 0.059786 0.862000 74 94 75
-0.007544 0.059786 0.862000 70 90 71
-0.304156 0.062746 0.872000 122 137 110
-0.301893 0.062746 0.872000 102 117 90
-0.299973 0.062818 0.873000 93 114 90
-0.297707 0.062818 0.873000 112 133 109
-0.295441 0.062818 0.873000 169 177 164
-0.018732 0.062027 0.862000 97 115 94
-0.016495 0.062027 0.862000 97 115 94
-0.014257 0.062027 0.862000 95 122 93
-0.012005 0.061955 0.861000 86 113 84
-0.009770 0.061955 0.861000 82 105 82
-0.007544 0.062027 0.862000 81 104 81
-0.304156 0.065013 0.872000 112 127 98
-0.301893 0.065013 0.872000 98 113 84
-0.299973 0.065087 0.873000 90 111 87
-0.297707 0.065087 0.873000 113 134 110
-0.295441 0.065087 0.873000 171 176 164
-0.016495 0.064267 0.862000 154 168 148
-0.014257 0.064267 0.862000 95 122 93
-0.012033 0.064342 0.863000 90 117 88
-0.009782 0.064267 0.862000 75 101 75
-0.007544 0.064267 0.862000 76 102 76
-0.005319 0.064416 0.864000 83 100 86
-0.306068 0.067202 0.871000 186 189 171
-0.303807 0.067202 0.871000 107 122 93
-0.301893 0.067279 0.872000 98 113 84
-0.299629 0.067279 0.872000 90 108 85
-0.297707 0.067357 0.873000 119 137 114
-0.295102 0.067279 0.872000 179 184 170
-0.016552 0.066739 0.865000 190 199 181
-0.014290 0.066662 0.864000 122 146 118
-0.012047 0.066662 0.864000 85 109 81
-0.009793 0.066585 0.863000 76 102 76
-0.007562 0.066662 0.864000 81 107 81
-0.005325 0.066739 0.865000 116 133 117
-0.306068 0.069466 0.871000 129 134 122
-0.303807 0.069466 0.871000 109 128 98
-0.301893 0.069546 0.872000 98 117 87
-0.299629 0.069546 0.872000 90 106 83
-0.297366 0.069546 0.872000 128 144 121
-0.295102 0.069546 0.872000 180 185 173
-0.014307 0.068988 0.865000 161 180 154
-0.012075 0.069067 0.866000 97 116 90
-0.009816 0.068988 0.865000 89 116 87
-0.007579 0.069067 0.866000 76 103 74
-0.005331 0.069067 0.866000 99 119 102
-0.003083 0.069067 0.866000 135 155 138
-0.306068 0.071730 0.871000 84 93 84
-0.304156 0.071812 0.872000 111 133 104
-0.301893 0.071812 0.872000 98 120 91
-0.299973 0.071895 0.873000 91 110 84
-0.297707 0.071895 0.873000 93 112 86
-0.295102 0.071812 0.872000 130 140 128
-0.014323 0.071318 0.866000 188 202 180
-0.012075 0.071318 0.866000 131 145 123
-0.009827 0.071318 0.866000 95 119 91
-0.007579 0.071318 0.866000 88 112 84
-0.005337 0.071401 0.867000 81 103 83
-0.003087 0.071401 0.867000 104 126 106
-0.000837 0.071483 0.868000 148 160 150
-0.306420 0.074079 0.872000 97 112 98
-0.304505 0.074164 0.873000 110 134 106
-0.302239 0.074164 0.873000 88 112 84
-0.299973 0.074164 0.873000 85 108 83
-0.297707 0.074164 0.873000 71 94 69
-0.295102 0.074079 0.872000 73 87 78
-0.012103 0.073739 0.868000 176 184 169
-0.009850 0.073739 0.868000 105 127 100
-0.007588 0.073654 0.867000 86 108 81
-0.005344 0.073739 0.868000 82 105 82
-0.003090 0.073739 0.868000 96 119 96
-0.000837 0.073739 0.868000 128 143 129
-0.306771 0.076433 0.873000 93 108 92
-0.304505 0.076433 0.873000 102 126 98
-0.302239 0.076433 0.873000 92 116 88
-0.299973 0.076433 0.873000 88 111 88
-0.297707 0.076433 0.873000 84 107 84
-0.295441 0.076433 0.873000 84 100 91
-0.012117 0.076083 0.869000 188 196 181
-0.009850 0.075995 0.868000 135 153 130
-0.007597 0.075995 0.868000 93 111 88
-0.005344 0.075995 0.868000 88 111 86
-0.003090 0.075995 0.868000 87 110 85
-0.000837 0.075995 0.868000 109 126 110
0.001418 0.076083 0.869000 136 153 137
-0.306771 0.078702 0.873000 134 144 128
-0.304854 0.078792 0.874000 104 126 97
-0.302585 0.078792 0.874000 98 120 91
-0.300316 0.078792 0.874000 81 107 81
-0.297707 0.078702 0.873000 78 104 78
-0.295441 0.078702 0.873000 87 102 86
-0.009861 0.078342 0.869000 177 195 172
-0.007605 0.078342 0.869000 101 119 96
-0.005350 0.078342 0.869000 90 116 90
-0.003094 0.078342 0.869000 83 109 83
-0.000838 0.078342 0.869000 93 113 96
0.001418 0.078342 0.869000 117 137 120
-0.307474 0.081157 0.875000 172 181 161
-0.305203 0.081157 0.875000 101 120 92
-0.302931 0.081157 0.875000 97 116 88
-0.300660 0.081157 0.875000 82 105 80
-0.298048 0.081064 0.874000 111 134 109
-0.009861 0.080600 0.869000 188 202 180
-0.007605 0.080600 0.869000 146 160 138
-0.005350 0.080600 0.869000 93 120 91
-0.003094 0.080600 0.869000 83 110 81
-0.000838 0.080600 0.869000 82 105 82
0.001418 0.080600 0.869000 97 120 97
0.003678 0.080693 0.870000 143 158 144
-0.307474 0.083431 0.875000 176 182 163
-0.305900 0.083622 0.877000 99 118 90
-0.303624 0.083622 0.877000 91 110 82
-0.300660 0.083431 0.875000 85 106 82
-0.298389 0.083431 0.875000 130 151 127
-0.007605 0.082859 0.869000 183 194 173
-0.005350 0.082859 0.869000 97 121 93
-0.003094 0.082859 0.869000 91 115 87
-0.000838 0.082859 0.869000 78 104 80
0.001419 0.082954 0.870000 81 107 83
0.003682 0.083050 0.871000 126 143 129
-0.308177 0.085901 0.877000 180 182 166
-0.305900 0.085901 0.877000 101 118 90
-0.303624 0.085901 0.877000 95 112 84
-0.301347 0.085901 0.877000 84 105 83
-0.298389 0.085706 0.875000 107 128 106
-0.296117 0.085706 0.875000 171 179 164
-0.005356 0.085216 0.870000 150 169 143
-0.003094 0.085118 0.869000 92 111 85
-0.000839 0.085216 0.870000 93 119 93
0.003682 0.085314 0.871000 105 125 108
0.005943 0.085314 0.871000 141 161 144
-0.306598 0.088382 0.879000 103 118 91
-0.304316 0.088382 0.879000 104 119 92
-0.301691 0.088282 0.878000 84 105 83
-0.299071 0.088181 0.877000 103 124 102
-0.296794 0.088181 0.877000 169 177 162
-0.005362 0.087578 0.871000 178 195 169
-0.003101 0.087578 0.871000 106 123 97
-0.000840 0.087578 0.871000 94 123 91
0.001421 0.087578 0.871000 77 106 74
0.003682 0.087578 0.871000 89 111 91
0.005943 0.087578 0.871000 98 120 100
-0.306947 0.090770 0.880000 111 126 99
-0.304662 0.090770 0.880000 104 119 92
-0.302034 0.090667 0.879000 83 104 82
-0.299412 0.090564 0.878000 91 112 90
-0.297133 0.090564 0.878000 167 172 160
-0.005362 0.089842 0.871000 191 202 181
-0.003101 0.089842 0.871000 144 155 134
-0.000840 0.089842 0.871000 95 119 89
0.001421 0.089842 0.871000 91 115 85
0.003682 0.089842 0.871000 79 105 79
0.005950 0.089945 0.872000 79 105 79
0.008223 0.090048 0.873000 119 127 114
-0.307296 0.093163 0.881000 122 137 110
-0.305009 0.093163 0.881000 95 110 83
-0.302378 0.093057 0.880000 83 106 81
-0.299753 0.092952 0.879000 81 104 79
-0.297471 0.092952 0.879000 161 169 158
-0.003101 0.092106 0.871000 180 187 165
-0.000840 0.092106 0.871000 109 131 102
0.001421 0.092106 0.871000 98 120 91
0.003686 0.092211 0.872000 84 105 83
0.005956 0.092317 0.873000 72 93 71
0.008223 0.092317 0.873000 94 102 89
-0.307296 0.095453 0.881000 136 153 127
-0.305009 0.095453 0.881000 92 109 83
-0.302722 0.095453 0.881000 81 105 77
-0.299753 0.095236 0.879000 75 99 71
-0.297471 0.095236 0.879000 153 163 151
-0.000841 0.094478 0.872000 145 160 135
0.001422 0.094478 0.872000 111 126 101
0.003690 0.094586 0.873000 86 100 80
0.005956 0.094586 0.873000 68 82 62
0.008232 0.094695 0.874000 79 84 70
0.010501 0.094695 0.874000 103 108 94
-0.307296 0.097743 0.881000 147 162 137
-0.305009 0.097743 0.881000 96 111 86
-0.302722 0.097743 0.881000 84 105 81
-0.300094 0.097632 0.880000 77 98 74
-0.297809 0.097632 0.880000 138 151 138
-0.003105 0.096744 0.872000 161 162 149
-0.000841 0.096744 0.872000 112 115 94
0.001424 0.096855 0.873000 81 84 63
0.003690 0.096855 0.873000 74 77 52
0.005963 0.096966 0.874000 80 83 58
0.008241 0.097077 0.875000 113 115 97
0.010513 0.097077 0.875000 104 106 88
0.012784 0.097077 0.875000 130 135 123
-0.307296 0.100033 0.881000 163 173 150
-0.305009 0.100033 0.881000 106 116 93
-0.302722 0.100033 0.881000 87 106 80
-0.300094 0.099919 0.880000 86 105 79
-0.297809 0.099919 0.880000 107 120 107
-0.003108 0.099124 0.873000 78 76 64
-0.000842 0.099124 0.873000 81 74 45
0.001424 0.099124 0.873000 96 89 60
0.003694 0.099238 0.874000 127 119 79
0.005970 0.099352 0.875000 148 140 100
0.008241 0.099352 0.875000 123 118 85
0.010537 0.099579 0.877000 110 105 72
0.012813 0.099579 0.877000 104 106 93
-0.306947 0.102207 0.880000 185 192 170
-0.305009 0.102323 0.881000 112 119 97
-0.302722 0.102323 0.881000 93 112 86
-0.300094 0.102207 0.880000 81 100 74
-0.298148 0.102323 0.881000 90 105 91
-0.295525 0.102207 0.880000 154 169 155
-0.005374 0.101394 0.873000 88 83 61
-0.003108 0.101394 0.873000 116 111 89
-0.000842 0.101394 0.873000 162 149 98
0.001426 0.101510 0.874000 174 161 110
0.003699 0.101626 0.875000 189 174 123
0.005970 0.101626 0.875000 156 141 90
0.008260 0.101858 0.877000 115 102 64
0.010537 0.101858 0.877000 123 110 72
0.012813 0.101858 0.877000 112 111 94
0.015090 0.101858 0.877000 83 82 65
-0.305009 0.104613 0.881000 129 136 114
-0.302722 0.104613 0.881000 99 118 92
-0.300435 0.104613 0.881000 88 107 81
-0.298148 0.104613 0.881000 82 97 81
-0.295861 0.104613 0.881000 141 156 140
-0.005387 0.103900 0.875000 127 119 77
-0.003115 0.103900 0.875000 166 158 116
-0.000844 0.103900 0.875000 185 169 105
0.001427 0.103900 0.875000 169 153 89
0.003699 0.103900 0.875000 174 155 99
0.005984 0.104138 0.877000 159 140 84
0.008260 0.104138 0.877000 151 136 99
0.010537 0.104138 0.877000 154 139 102
0.012813 0.104138 0.877000 97 95 83
0.015090 0.104138 0.877000 78 76 64
0.017386 0.104256 0.878000 82 88 86
-0.305009 0.106903 0.881000 158 164 147
-0.302722 0.106903 0.881000 104 123 97
-0.300435 0.106903 0.881000 92 111 85
-0.298486 0.107024 0.882000 76 93 75
-0.296197 0.107024 0.882000 118 135 117
-0.293907 0.107024 0.882000 168 175 167
-0.005399 0.106417 0.877000 165 152 101
-0.003122 0.106417 0.877000 165 152 101
-0.000844 0.106175 0.875000 181 160 98
0.001427 0.106175 0.875000 176 155 93
0.003707 0.106417 0.877000 170 152 100
0.005984 0.106417 0.877000 188 170 118
0.008260 0.106417 0.877000 172 157 131
0.010537 0.106417 0.877000 114 99 73
0.012813 0.106417 0.877000 62 63 59
0.015107 0.106539 0.878000 71 72 68
0.017406 0.106660 0.879000 71 79 78
0.019688 0.106660 0.879000 85 93 92
-0.305009 0.109193 0.881000 139 148 139
-0.302722 0.109193 0.881000 112 133 109
-0.300435 0.109193 0.881000 88 109 85
-0.298486 0.109316 0.882000 82 104 84
-0.296533 0.109440 0.883000 82 104 84
-0.294241 0.109440 0.883000 154 166 156
-0.003126 0.108821 0.878000 162 147 106
-0.000846 0.108697 0.877000 172 153 99
0.001431 0.108697 0.877000 180 161 107
0.003707 0.108697 0.877000 174 157 120
0.005984 0.108697 0.877000 155 138 101
0.008260 0.108697 0.877000 86 79 71
0.010549 0.108821 0.878000 65 58 50
0.012828 0.108821 0.878000 62 70 69
0.015124 0.108945 0.879000 63 71 70
0.017426 0.109069 0.880000 60 71 71
0.019732 0.109193 0.881000 70 81 81
-0.304662 0.111356 0.880000 80 93 88
-0.302722 0.111482 0.881000 104 125 103
-0.300776 0.111609 0.882000 107 128 106
-0.298486 0.111609 0.882000 82 105 82
-0.296533 0.111736 0.883000 74 97 74
-0.294574 0.111862 0.884000 125 141 130
-0.292610 0.111989 0.885000 155 171 160
-0.000848 0.111229 0.879000 167 152 113
0.001432 0.111103 0.878000 194 179 140
0.003711 0.111103 0.878000 140 131 110
0.005990 0.111103 0.878000 80 71 50
0.008270 0.111103 0.878000 63 66 65
0.010549 0.111103 0.878000 67 70 69
0.012828 0.111103 0.878000 61 72 72
0.015124 0.111229 0.879000 61 72 72
0.017445 0.111482 0.881000 63 76 75
0.019755 0.111609 0.882000 63 76 75
0.022069 0.111736 0.883000 66 77 77
0.102409 0.111862 0.884000 101 101 103
0.104703 0.111862 0.884000 105 108 109
0.106877 0.111736 0.883000 116 119 120
-0.302722 0.113772 0.881000 102 120 99
-0.300776 0.113902 0.882000 106 124 103
-0.298825 0.114031 0.883000 87 113 89
-0.296868 0.114160 0.884000 73 99 75
-0.294907 0.114289 0.885000 71 88 74
-0.292940 0.114418 0.886000 76 93 79
0.001436 0.113643 0.880000 212 204 178
0.003716 0.113514 0.879000 164 162 150
0.005997 0.113514 0.879000 77 75 63
0.008279 0.113514 0.879000 65 71 71
0.010561 0.113514 0.879000 65 71 71
0.012842 0.113514 0.879000 61 74 73
0.015141 0.113643 0.880000 61 74 73
0.017445 0.113772 0.881000 61 76 75
0.019755 0.113902 0.882000 58 73 72
0.022069 0.114031 0.883000 58 71 68
0.097819 0.114160 0.884000 101 104 105
0.100227 0.114289 0.885000 85 88 91
0.104822 0.114289 0.885000 106 109 112
0.107119 0.114289 0.885000 105 108 111
0.109293 0.114160 0.884000 124 127 126
-0.302722 0.116062 0.881000 95 113 90
-0.300776 0.116194 0.882000 105 123 100
-0.299163 0.116458 0.884000 87 113 87
-0.297204 0.116589 0.885000 76 102 76
-0.295240 0.116721 0.886000 82 102 85
-0.292940 0.116721 0.886000 79 99 82
-0.290640 0.116721 0.886000 83 90 84
0.006004 0.115931 0.880000 108 109 98
0.008288 0.115931 0.880000 62 70 71
0.010573 0.115931 0.880000 68 76 77
0.012857 0.115931 0.880000 64 76 80
0.015141 0.115931 0.880000 63 75 79
0.017445 0.116062 0.881000 63 77 81
0.019755 0.116194 0.882000 57 71 75
0.022069 0.116326 0.883000 86 97 93
0.095417 0.116326 0.883000 79 82 85
0.097819 0.116458 0.884000 79 82 85
0.102640 0.116721 0.886000 96 99 102
0.104940 0.116721 0.886000 98 101 102
0.107240 0.116721 0.886000 121 124 125
0.109540 0.116721 0.886000 133 136 137
-0.300776 0.118487 0.882000 112 126 104
-0.299163 0.118755 0.884000 88 111 86
-0.297540 0.119024 0.886000 81 104 79
-0.295240 0.119024 0.886000 81 103 83
-0.293271 0.119158 0.887000 84 106 86
-0.291297 0.119293 0.888000 91 104 91
0.006011 0.118352 0.881000 162 164 153
0.008288 0.118218 0.880000 69 77 76
0.010573 0.118218 0.880000 67 75 74
0.012857 0.118218 0.880000 64 78 82
0.015159 0.118352 0.881000 61 75 79
0.017445 0.118352 0.881000 63 75 77
0.019755 0.118487 0.882000 59 71 73
0.022069 0.118621 0.883000 133 142 135
0.090421 0.118084 0.879000 72 80 81
0.092808 0.118218 0.880000 72 80 81
0.095308 0.118487 0.882000 79 87 88
0.097709 0.118621 0.883000 90 98 99
0.100227 0.118890 0.885000 88 91 92
0.104940 0.119024 0.886000 127 130 131
0.107240 0.119024 0.886000 140 143 144
0.109540 0.119024 0.886000 127 130 129
-0.300776 0.120779 0.882000 163 172 152
-0.299502 0.121190 0.885000 92 116 88
-0.297540 0.121327 0.886000 78 102 74
-0.295573 0.121464 0.887000 80 103 80
-0.293602 0.121601 0.888000 83 106 83
-0.291297 0.121601 0.888000 94 107 94
-0.288991 0.121601 0.888000 88 101 88
0.008298 0.120642 0.881000 113 120 114
0.010573 0.120505 0.880000 69 76 70
0.012857 0.120505 0.880000 61 74 73
0.015159 0.120642 0.881000 60 73 72
0.017445 0.120642 0.881000 62 70 69
0.019755 0.120779 0.882000 77 85 84
0.022044 0.120779 0.882000 123 127 122
0.087939 0.120094 0.877000 67 80 79
0.090421 0.120368 0.879000 66 78 80
0.092808 0.120505 0.880000 61 73 75
0.095200 0.120642 0.881000 79 89 92
0.097598 0.120779 0.882000 95 105 108
0.100114 0.121053 0.884000 101 107 107
0.102524 0.121190 0.885000 148 154 154
0.104940 0.121327 0.886000 160 163 164
0.107240 0.121327 0.886000 151 154 155
0.109540 0.121327 0.886000 140 143 144
-0.299502 0.123490 0.885000 100 122 93
-0.297540 0.123630 0.886000 78 100 71
-0.295907 0.123909 0.888000 78 101 76
-0.291625 0.124048 0.889000 115 130 116
-0.289317 0.124048 0.889000 139 154 140
0.010585 0.122932 0.881000 140 145 135
0.012872 0.122932 0.881000 80 87 81
0.015159 0.122932 0.881000 72 79 73
0.017465 0.123072 0.882000 88 91 90
0.019755 0.123072 0.882000 110 113 112
0.022044 0.123072 0.882000 110 111 107
0.085662 0.122374 0.877000 77 91 93
0.087939 0.122374 0.877000 70 84 86
0.090318 0.122513 0.878000 58 72 74
0.092703 0.122653 0.879000 56 70 72
0.095092 0.122793 0.880000 60 72 76
0.097487 0.122932 0.881000 76 88 92
0.100001 0.123211 0.883000 142 147 154
0.102524 0.123490 0.885000 156 161 168
0.107240 0.123630 0.886000 146 152 154
-0.299502 0.125791 0.885000 147 164 136
-0.297540 0.125933 0.886000 94 111 83
-0.295907 0.126217 0.888000 76 99 74
-0.291625 0.126359 0.889000 96 111 97
-0.289642 0.126501 0.890000 145 160 146
-0.287332 0.126501 0.890000 168 175 167
0.012872 0.125222 0.881000 147 151 144
0.015159 0.125222 0.881000 130 134 127
0.017445 0.125222 0.881000 112 116 111
0.019755 0.125364 0.882000 103 107 102
0.022069 0.125506 0.883000 101 102 98
0.081294 0.124938 0.879000 100 113 112
0.083481 0.124796 0.878000 74 87 86
0.085662 0.124653 0.877000 63 77 81
0.087939 0.124653 0.877000 58 72 76
0.090318 0.124796 0.878000 57 71 75
0.092703 0.124938 0.879000 58 72 76
0.095092 0.125080 0.880000 54 64 69
0.097598 0.125364 0.882000 61 71 76
0.100001 0.125506 0.883000 111 116 125
0.102524 0.125791 0.885000 131 136 145
0.107240 0.125933 0.886000 133 140 146
-0.297876 0.128380 0.887000 111 123 97
-0.295907 0.128525 0.888000 78 100 71
-0.291625 0.128670 0.889000 76 93 77
-0.289642 0.128815 0.890000 114 131 115
-0.287332 0.128815 0.890000 167 175 164
0.015159 0.127512 0.881000 136 140 133
0.017465 0.127657 0.882000 133 136 135
0.019755 0.127657 0.882000 109 112 111
0.022044 0.127657 0.882000 102 105 104
0.081386 0.127367 0.880000 117 130 129
0.083576 0.127222 0.879000 73 86 85
0.085857 0.127222 0.879000 63 75 79
0.088039 0.127078 0.878000 60 72 76
0.090421 0.127222 0.879000 57 71 75
0.092808 0.127367 0.880000 57 71 75
0.095200 0.127512 0.881000 58 68 73
0.097709 0.127801 0.883000 103 113 118
0.100114 0.127946 0.884000 135 142 150
0.104940 0.128236 0.886000 113 119 130
-0.295907 0.130833 0.888000 92 111 83
-0.293602 0.130833 0.888000 80 99 71
-0.291625 0.130981 0.889000 78 95 77
-0.289642 0.131128 0.890000 87 104 86
-0.287332 0.131128 0.890000 137 147 135
0.017465 0.129949 0.882000 118 118 118
0.019777 0.130097 0.883000 119 119 119
0.022069 0.130097 0.883000 121 121 121
0.079641 0.130539 0.886000 121 127 125
0.081571 0.129949 0.882000 77 88 88
0.083861 0.129949 0.882000 60 71 71
0.086053 0.129802 0.881000 58 70 72
0.088340 0.129802 0.881000 59 71 73
0.090627 0.129802 0.881000 57 71 73
0.093019 0.129949 0.882000 55 69 71
0.095417 0.130097 0.883000 70 80 83
0.097819 0.130244 0.884000 124 134 137
0.102640 0.130539 0.886000 78 83 92
0.105059 0.130686 0.887000 103 105 115
-0.295907 0.133141 0.888000 127 144 118
-0.293602 0.133141 0.888000 88 105 79
-0.291625 0.133291 0.889000 73 95 75
-0.289642 0.133441 0.890000 75 97 77
-0.287332 0.133441 0.890000 110 120 108
-0.285022 0.133441 0.890000 149 159 147
0.077516 0.133141 0.888000 107 113 111
0.079731 0.132991 0.887000 89 95 93
0.081941 0.132841 0.886000 57 69 71
0.084051 0.132542 0.884000 58 70 72
0.086346 0.132542 0.884000 57 71 73
0.088540 0.132392 0.883000 57 71 73
0.090832 0.132392 0.883000 56 70 72
0.095525 0.132542 0.884000 55 65 68
0.097930 0.132692 0.885000 72 82 85
0.100340 0.132841 0.886000 61 66 73
0.102640 0.132841 0.886000 65 70 77
-0.295907 0.135449 0.888000 124 140 119
-0.293932 0.135602 0.889000 97 113 92
-0.291625 0.135602 0.889000 84 106 86
-0.289642 0.135755 0.890000 82 104 84
-0.287332 0.135755 0.890000 81 98 82
-0.285022 0.135755 0.890000 113 130 114
-0.282712 0.135755 0.890000 164 166 155
0.075296 0.135602 0.889000 114 119 109
0.077516 0.135449 0.888000 89 100 96
0.079731 0.135297 0.887000 82 93 89
0.081941 0.135144 0.886000 59 71 73
0.084146 0.134992 0.885000 60 72 74
0.086443 0.134992 0.885000 59 73 75
0.088640 0.134839 0.884000 58 72 74
0.090935 0.134839 0.884000 55 69 71
0.093335 0.134992 0.885000 56 70 72
0.095633 0.134992 0.885000 57 69 73
0.098041 0.135144 0.886000 56 68 72
0.100340 0.135144 0.886000 69 74 79
-0.293602 0.137758 0.888000 124 138 118
-0.291625 0.137913 0.889000 91 114 91
-0.289642 0.138068 0.890000 82 105 82
-0.287332 0.138068 0.890000 84 104 85
-0.285022 0.138068 0.890000 89 109 90
-0.282712 0.138068 0.890000 138 146 135
0.073070 0.138068 0.890000 134 141 133
0.075296 0.137913 0.889000 98 105 97
0.077516 0.137758 0.888000 80 93 92
0.079731 0.137602 0.887000 59 72 71
0.081941 0.137447 0.886000 58 73 72
0.084146 0.137292 0.885000 59 74 73
0.086443 0.137292 0.885000 62 76 78
0.088741 0.137292 0.885000 62 76 78
0.091141 0.137447 0.886000 57 71 73
0.093441 0.137447 0.886000 56 70 72
0.095741 0.137447 0.886000 67 75 76
0.098041 0.137447 0.886000 92 100 101
-0.293602 0.140066 0.888000 178 184 167
-0.291625 0.140223 0.889000 103 124 100
-0.289317 0.140223 0.889000 88 109 85
-0.287332 0.140381 0.890000 80 103 80
-0.285022 0.140381 0.890000 84 107 84
-0.282712 0.140381 0.890000 106 116 104
-0.280401 0.140381 0.890000 133 143 131
0.070760 0.140381 0.890000 130 134 127
0.072988 0.140223 0.889000 93 104 100
0.075296 0.140223 0.889000 69 80 76
0.077516 0.140066 0.888000 60 73 72
0.079731 0.139908 0.887000 60 73 72
0.081941 0.139750 0.886000 63 76 75
0.084241 0.139750 0.886000 63 76 75
0.086541 0.139750 0.886000 59 72 71
0.088841 0.139750 0.886000 67 80 79
0.091141 0.139750 0.886000 87 90 89
0.093441 0.139750 0.886000 110 113 112
-0.289317 0.142534 0.889000 102 119 93
-0.287009 0.142534 0.889000 84 108 80
-0.282712 0.142695 0.890000 89 104 90
-0.280401 0.142695 0.890000 122 137 123
-0.278091 0.142695 0.890000 157 161 154
0.066139 0.142695 0.890000 168 170 161
0.068450 0.142695 0.890000 116 125 118
0.070680 0.142534 0.889000 97 106 99
0.072988 0.142534 0.889000 90 103 98
0.075211 0.142374 0.888000 69 82 77
0.077429 0.142214 0.887000 53 66 63
0.079641 0.142053 0.886000 63 76 73
0.081941 0.142053 0.886000 63 76 73
0.084146 0.141893 0.885000 61 74 71
0.086541 0.142053 0.886000 113 122 113
0.088841 0.142053 0.886000 162 171 162
-0.288991 0.144682 0.888000 122 132 109
-0.287009 0.144845 0.889000 87 111 79
-0.284702 0.144845 0.889000 83 107 75
-0.282712 0.145008 0.890000 84 105 83
-0.280401 0.145008 0.890000 96 117 95
-0.277779 0.144845 0.889000 133 140 132
-0.275471 0.144845 0.889000 167 174 166
0.063829 0.145008 0.890000 148 152 145
0.066139 0.145008 0.890000 113 117 110
0.068373 0.144845 0.889000 97 111 100
0.070680 0.144845 0.889000 102 116 105
0.072906 0.144682 0.888000 92 112 95
0.075126 0.144519 0.887000 83 103 86
0.077342 0.144356 0.886000 64 83 71
0.079641 0.144356 0.886000 52 71 59
0.081849 0.144193 0.885000 60 74 65
0.084146 0.144193 0.885000 123 137 128
-0.288991 0.146990 0.888000 170 177 155
-0.286686 0.146990 0.888000 108 127 97
-0.284381 0.146990 0.888000 91 110 80
-0.282394 0.147156 0.889000 83 106 81
-0.280086 0.147156 0.889000 84 107 82
-0.277779 0.147156 0.889000 95 108 95
-0.275471 0.147156 0.889000 137 150 137
0.061519 0.147321 0.890000 133 137 130
0.063829 0.147321 0.890000 101 113 103
0.066139 0.147321 0.890000 103 115 105
0.068373 0.147156 0.889000 102 122 103
0.070680 0.147156 0.889000 96 116 97
0.072906 0.146990 0.888000 90 117 88
0.075126 0.146825 0.887000 100 127 98
0.077342 0.146659 0.886000 90 112 92
0.079641 0.146659 0.886000 82 104 84
0.081941 0.146659 0.886000 128 141 128
-0.286686 0.149298 0.888000 147 166 138
-0.284381 0.149298 0.888000 102 121 93
-0.282394 0.149466 0.889000 81 108 79
-0.280086 0.149466 0.889000 78 105 76
-0.277779 0.149466 0.889000 85 105 88
-0.275471 0.149466 0.889000 98 118 101
-0.273163 0.149466 0.889000 148 155 147
0.056898 0.149634 0.890000 165 172 166
0.059209 0.149634 0.890000 118 127 120
0.061519 0.149634 0.890000 103 112 105
0.063829 0.149634 0.890000 104 119 105
0.066065 0.149466 0.889000 111 126 112
0.068296 0.149298 0.888000 94 120 94
0.070601 0.149298 0.888000 89 115 89
0.072906 0.149298 0.888000 90 117 86
0.075042 0.148962 0.886000 99 126 95
0.077342 0.148962 0.886000 162 180 159
-0.284381 0.151606 0.888000 132 148 127
-0.282394 0.151777 0.889000 100 127 98
-0.280086 0.151777 0.889000 75 102 73
-0.277779 0.151777 0.889000 84 106 86
-0.275471 0.151777 0.889000 82 104 84
-0.272856 0.151606 0.888000 110 122 112
-0.270551 0.151606 0.888000 147 159 149
0.054588 0.151948 0.890000 121 129 126
0.056898 0.151948 0.890000 125 133 130
0.059209 0.151948 0.890000 121 133 125
0.061519 0.151948 0.890000 119 131 123
0.063757 0.151777 0.889000 103 123 104
0.066065 0.151777 0.889000 98 118 99
0.068296 0.151606 0.888000 90 117 86
0.070601 0.151606 0.888000 104 131 100
0.072824 0.151436 0.887000 119 143 111
0.075042 0.151265 0.886000 166 190 158
0.077342 0.151265 0.886000 194 205 186
-0.284381 0.153914 0.888000 114 128 117
-0.282394 0.154088 0.889000 113 136 111
-0.280086 0.154088 0.889000 101 124 99
-0.277779 0.154088 0.889000 81 104 79
-0.275471 0.154088 0.889000 82 105 80
-0.273163 0.154088 0.889000 94 108 97
-0.270855 0.154088 0.889000 117 131 120
-0.268548 0.154088 0.889000 155 162 156
0.049968 0.154261 0.890000 104 112 109
0.052278 0.154261 0.890000 104 112 109
0.054588 0.154261 0.890000 106 115 108
0.056898 0.154261 0.890000 107 116 109
0.059209 0.154261 0.890000 110 125 111
0.061519 0.154261 0.890000 104 119 105
0.063829 0.154261 0.890000 96 119 94
0.066065 0.154088 0.889000 99 122 97
0.068373 0.154088 0.889000 103 130 99
0.070601 0.153914 0.888000 111 138 107
0.072824 0.153741 0.887000 162 181 155
0.075126 0.153741 0.887000 180 199 173
-0.282394 0.156399 0.889000 93 113 94
-0.280086 0.156399 0.889000 111 131 112
-0.277779 0.156399 0.889000 98 121 96
-0.275471 0.156399 0.889000 81 104 79
-0.273163 0.156399 0.889000 89 109 92
-0.270855 0.156399 0.889000 91 111 94
-0.268548 0.156399 0.889000 118 130 122
-0.265941 0.156223 0.888000 151 163 155
0.047657 0.156574 0.890000 89 97 94
0.049968 0.156574 0.890000 92 101 94
0.052278 0.156574 0.890000 95 104 97
0.054588 0.156574 0.890000 95 107 97
0.056898 0.156574 0.890000 97 109 99
0.059209 0.156574 0.890000 92 113 91
0.061519 0.156574 0.890000 99 120 98
0.063829 0.156574 0.890000 103 127 97
0.066139 0.156574 0.890000 106 130 100
0.068373 0.156399 0.889000 107 129 100
0.070680 0.156399 0.889000 99 121 92
0.072906 0.156223 0.888000 110 120 104
-0.280401 0.158888 0.890000 104 124 109
-0.278091 0.158888 0.890000 109 132 107
-0.275781 0.158888 0.890000 94 117 92
-0.273470 0.158888 0.890000 85 106 84
-0.271160 0.158888 0.890000 82 103 81
-0.268548 0.158709 0.889000 78 92 83
-0.266240 0.158709 0.889000 80 94 85
-0.263932 0.158709 0.889000 95 103 104
0.045398 0.159066 0.891000 148 160 152
0.047657 0.158888 0.890000 96 108 100
0.049968 0.158888 0.890000 98 110 100
0.052278 0.158888 0.890000 101 113 103
0.054588 0.158888 0.890000 91 111 92
0.056898 0.158888 0.890000 88 108 89
0.059209 0.158888 0.890000 97 119 92
0.061519 0.158888 0.890000 105 127 100
0.063829 0.158888 0.890000 109 131 102
0.066139 0.158888 0.890000 96 118 89
0.068450 0.158888 0.890000 100 114 92
0.070760 0.158888 0.890000 105 119 97
-0.278091 0.161201 0.890000 97 118 94
-0.275781 0.161201 0.890000 105 126 102
-0.273470 0.161201 0.890000 90 113 88
-0.271160 0.161201 0.890000 76 99 74
-0.268850 0.161201 0.890000 83 103 86
-0.266540 0.161201 0.890000 83 103 86
-0.264229 0.161201 0.890000 83 94 90
-0.261919 0.161201 0.890000 80 91 87
0.043133 0.161563 0.892000 138 147 138
0.045449 0.161563 0.892000 103 117 108
0.047764 0.161563 0.892000 103 117 108
0.050080 0.161563 0.892000 102 122 107
0.052337 0.161382 0.891000 100 120 105
0.054649 0.161382 0.891000 93 119 93
0.056898 0.161201 0.890000 93 119 93
0.059275 0.161382 0.891000 105 127 100
0.061588 0.161382 0.891000 117 139 112
0.063901 0.161382 0.891000 120 137 111
0.066139 0.161201 0.890000 111 128 102
-0.276400 0.163882 0.892000 117 128 107
-0.273778 0.163698 0.891000 104 123 97
-0.271465 0.163698 0.891000 90 109 83
-0.268850 0.163514 0.890000 76 99 76
-0.266540 0.163514 0.890000 82 105 82
-0.264229 0.163514 0.890000 85 101 90
-0.261919 0.163514 0.890000 85 101 90
-0.259609 0.163514 0.890000 89 100 96
0.040818 0.163882 0.892000 112 123 119
0.043133 0.163882 0.892000 100 111 107
0.045449 0.163882 0.892000 101 123 107
0.047764 0.163882 0.892000 105 127 111
0.050080 0.163882 0.892000 94 121 99
0.052395 0.163882 0.892000 91 118 96
0.054711 0.163882 0.892000 93 119 93
0.057026 0.163882 0.892000 95 121 95
0.059342 0.163882 0.892000 142 159 133
0.061657 0.163882 0.892000 188 205 179
-0.274085 0.166200 0.892000 144 159 132
-0.271769 0.166200 0.892000 102 117 90
-0.269454 0.166200 0.892000 87 111 83
-0.266839 0.166014 0.891000 76 100 72
-0.264229 0.165828 0.890000 80 102 84
-0.262213 0.166014 0.891000 84 106 88
-0.259900 0.166014 0.891000 89 103 92
-0.257588 0.166014 0.891000 90 104 93
0.036268 0.166573 0.894000 141 148 142
0.038546 0.166387 0.893000 108 115 109
0.040864 0.166387 0.893000 97 111 102
0.043133 0.166200 0.892000 107 121 112
0.045449 0.166200 0.892000 102 127 108
0.047764 0.166200 0.892000 94 119 100
0.050080 0.166200 0.892000 89 118 88
0.052395 0.166200 0.892000 89 118 88
0.054711 0.166200 0.892000 106 128 101
0.057026 0.166200 0.892000 150 172 145
-0.271769 0.168519 0.892000 145 152 130
-0.269454 0.168519 0.892000 104 123 95
-0.267139 0.168519 0.892000 92 111 83
-0.264823 0.168519 0.892000 75 101 75
-0.262508 0.168519 0.892000 87 113 87
-0.260192 0.168519 0.892000 99 119 104
-0.257877 0.168519 0.892000 105 125 110
-0.255561 0.168519 0.892000 104 116 108
0.033985 0.169086 0.895000 125 132 124
0.036268 0.168897 0.894000 102 111 104
0.038589 0.168897 0.894000 105 114 107
0.040909 0.168897 0.894000 103 123 108
0.043182 0.168708 0.893000 102 122 107
0.045500 0.168708 0.893000 91 119 92
0.047871 0.168897 0.894000 92 120 93
0.050192 0.168897 0.894000 95 122 91
0.052513 0.168897 0.894000 120 147 116
0.054895 0.169086 0.895000 176 190 168
-0.269756 0.171029 0.893000 147 159 133
-0.267139 0.170837 0.892000 111 123 97
-0.264823 0.170837 0.892000 87 111 81
-0.262508 0.170837 0.892000 84 108 78
-0.260484 0.171029 0.893000 82 104 84
-0.258166 0.171029 0.893000 90 112 92
-0.256134 0.171220 0.894000 119 131 121
-0.253814 0.171220 0.894000 148 160 150
0.031698 0.171604 0.896000 111 118 110
0.033985 0.171412 0.895000 103 110 102
0.036309 0.171412 0.895000 104 118 107
0.038589 0.171220 0.894000 106 120 109
0.040909 0.171220 0.894000 93 121 96
0.043182 0.171029 0.893000 88 116 91
0.045500 0.171029 0.893000 94 123 93
0.047871 0.171220 0.894000 93 122 92
0.050248 0.171412 0.895000 143 160 134
0.052630 0.171604 0.896000 186 203 177
-0.267738 0.173544 0.894000 160 164 143
-0.264823 0.173156 0.892000 99 121 90
-0.262802 0.173350 0.893000 86 108 77
-0.258455 0.173544 0.894000 81 105 75
-0.256134 0.173544 0.894000 85 100 86
-0.253814 0.173544 0.894000 110 125 111
-0.251774 0.173738 0.895000 150 159 152
0.027106 0.174321 0.898000 126 135 128
0.029372 0.173932 0.896000 102 111 104
0.031698 0.173932 0.896000 98 110 100
0.033947 0.173544 0.894000 108 120 110
0.036309 0.173738 0.895000 101 123 103
0.038589 0.173544 0.894000 89 111 91
0.040909 0.173544 0.894000 89 118 88
0.043230 0.173544 0.894000 92 121 91
0.045551 0.173544 0.894000 116 140 112
0.047925 0.173738 0.895000 152 176 148
-0.265120 0.175671 0.893000 159 174 145
-0.262802 0.175671 0.893000 109 124 95
-0.260776 0.175868 0.894000 88 112 80
-0.258455 0.175868 0.894000 83 107 75
-0.256421 0.176065 0.895000 81 104 79
-0.254098 0.176065 0.895000 78 101 76
-0.252056 0.176261 0.896000 94 106 96
-0.249730 0.176261 0.896000 132 144 134
-0.247404 0.176261 0.896000 169 176 168
0.022444 0.176655 0.898000 148 155 147
0.024775 0.176655 0.898000 110 117 109
0.027046 0.176261 0.896000 96 108 98
0.029372 0.176261 0.896000 104 116 106
0.031662 0.176065 0.895000 102 122 103
0.033947 0.175868 0.894000 100 120 101
0.036309 0.176065 0.895000 93 119 93
0.038589 0.175868 0.894000 92 118 92
0.040909 0.175868 0.894000 101 124 99
0.043278 0.176065 0.895000 126 149 124
0.045653 0.176261 0.896000 176 190 168
-0.262802 0.177992 0.893000 175 185 160
-0.260776 0.178192 0.894000 111 134 100
-0.258455 0.178192 0.894000 91 114 80
-0.256707 0.178590 0.896000 81 108 77
-0.254381 0.178590 0.896000 79 106 75
-0.252056 0.178590 0.896000 81 101 84
-0.249730 0.178590 0.896000 86 106 89
-0.247404 0.178590 0.896000 132 141 134
-0.245625 0.178989 0.898000 162 171 164
0.017782 0.178989 0.898000 167 171 164
0.020113 0.178989 0.898000 119 123 116
0.022444 0.178989 0.898000 97 106 97
0.024720 0.178590 0.896000 102 111 102
0.027046 0.178590 0.896000 103 118 102
0.029372 0.178590 0.896000 103 118 102
0.031662 0.178391 0.895000 90 116 90
0.033947 0.178192 0.894000 95 121 95
0.036309 0.178391 0.895000 93 119 93
0.038632 0.178391 0.895000 106 132 106
0.041001 0.178590 0.896000 158 172 150
0.043327 0.178590 0.896000 188 202 180
-0.260776 0.180515 0.894000 175 191 159
-0.258744 0.180717 0.895000 123 139 107
-0.256421 0.180717 0.895000 92 117 82
-0.254381 0.180919 0.896000 84 109 74
-0.252056 0.180919 0.896000 82 106 78
-0.249730 0.180919 0.896000 81 105 77
-0.247956 0.181323 0.898000 83 99 88
-0.245625 0.181323 0.898000 115 131 120
-0.243294 0.181323 0.898000 158 164 162
0.015451 0.181323 0.898000 147 148 144
0.017782 0.181323 0.898000 110 117 109
0.020113 0.181323 0.898000 101 108 100
0.022394 0.180919 0.896000 102 115 100
0.024720 0.180919 0.896000 105 118 103
0.027046 0.180919 0.896000 97 120 95
0.029339 0.180717 0.895000 91 114 89
0.031627 0.180515 0.894000 91 120 90
0.033947 0.180515 0.894000 91 120 90
0.036309 0.180717 0.895000 124 146 119
0.038632 0.180717 0.895000 167 189 162
-0.258744 0.183044 0.895000 191 198 174
-0.256707 0.183248 0.896000 131 149 116
-0.254381 0.183248 0.896000 115 133 100
-0.252618 0.183657 0.898000 88 112 80
-0.250287 0.183657 0.898000 80 104 72
-0.247956 0.183657 0.898000 74 96 78
-0.245625 0.183657 0.898000 76 98 80
-0.243294 0.183657 0.898000 105 116 112
-0.240963 0.183657 0.898000 146 157 153
-0.238632 0.183657 0.898000 173 177 172
0.010825 0.184271 0.901000 101 104 105
0.013149 0.184066 0.900000 102 105 104
0.015451 0.183657 0.898000 108 111 110
0.017743 0.183248 0.896000 113 122 113
0.020068 0.183248 0.896000 113 122 113
0.022394 0.183248 0.896000 105 123 102
0.024692 0.183044 0.895000 99 117 96
0.026986 0.182839 0.894000 95 122 91
0.029306 0.182839 0.894000 103 130 99
0.031627 0.182839 0.894000 107 134 105
0.033947 0.182839 0.894000 149 176 147
0.036268 0.182839 0.894000 186 200 178
-0.254381 0.185577 0.896000 158 168 141
-0.252618 0.185991 0.898000 109 128 98
-0.250287 0.185991 0.898000 90 109 79
-0.247956 0.185991 0.898000 82 106 78
-0.245625 0.185991 0.898000 80 104 76
-0.243294 0.185991 0.898000 79 95 84
-0.240963 0.185991 0.898000 83 99 88
-0.239163 0.186405 0.900000 126 135 128
-0.237090 0.186613 0.901000 161 170 163
0.006175 0.187441 0.905000 93 101 100
0.008486 0.186613 0.901000 94 105 103
0.010825 0.186613 0.901000 97 108 106
0.013149 0.186405 0.900000 101 112 108
0.015451 0.185991 0.898000 102 113 109
0.017743 0.185577 0.896000 97 112 98
0.020068 0.185577 0.896000 96 111 97
0.022369 0.185370 0.895000 93 114 90
0.024692 0.185370 0.895000 105 126 102
0.026986 0.185163 0.894000 106 130 100
0.029306 0.185163 0.894000 106 130 100
0.031627 0.185163 0.894000 122 140 119
-0.252618 0.188325 0.898000 172 187 158
-0.250287 0.188325 0.898000 118 133 104
-0.247956 0.188325 0.898000 95 119 89
-0.245625 0.188325 0.898000 87 111 81
-0.243294 0.188325 0.898000 83 106 81
-0.240963 0.188325 0.898000 81 104 79
-0.239163 0.188745 0.900000 80 96 85
-0.237090 0.188955 0.901000 108 124 113
-0.235012 0.189164 0.902000 154 161 153
-0.232929 0.189374 0.903000 179 186 178
0.001480 0.190213 0.907000 143 149 147
0.003825 0.189793 0.905000 88 99 97
0.006161 0.189374 0.903000 94 105 103
0.008486 0.188955 0.901000 88 103 98
0.010825 0.188955 0.901000 81 96 91
0.013120 0.188325 0.898000 80 97 83
0.015451 0.188325 0.898000 87 104 90
0.017743 0.187906 0.896000 91 112 90
0.020068 0.187906 0.896000 97 118 96
0.022394 0.187906 0.896000 110 131 107
0.024692 0.187696 0.895000 109 130 106
0.026986 0.187486 0.894000 103 124 102
0.029306 0.187486 0.894000 103 124 102
-0.247956 0.190659 0.898000 132 151 123
-0.245625 0.190659 0.898000 104 123 95
-0.243294 0.190659 0.898000 88 112 82
-0.240963 0.190659 0.898000 84 108 78
-0.239163 0.191084 0.900000 74 100 76
-0.237090 0.191296 0.901000 71 97 73
-0.235012 0.191509 0.902000 88 102 91
-0.232929 0.191721 0.903000 120 134 123
-0.230585 0.191721 0.903000 169 170 164
-0.003233 0.192783 0.908000 174 178 171
-0.000875 0.192570 0.907000 132 138 136
0.001476 0.192146 0.905000 107 113 111
0.003825 0.192146 0.905000 95 108 103
0.006154 0.191509 0.902000 100 113 108
0.008486 0.191296 0.901000 97 117 102
0.010813 0.191084 0.900000 102 122 107
0.013120 0.190659 0.898000 89 112 89
0.015451 0.190659 0.898000 88 111 88
0.017743 0.190235 0.896000 94 117 94
0.020068 0.190235 0.896000 103 126 103
0.022394 0.190235 0.896000 104 124 105
0.024692 0.190023 0.895000 86 106 87
-0.245625 0.192994 0.898000 161 171 148
-0.243294 0.192994 0.898000 111 130 100
-0.241500 0.193423 0.900000 94 113 83
-0.239163 0.193423 0.900000 83 107 79
-0.237090 0.193638 0.901000 80 104 76
-0.235012 0.193853 0.902000 78 100 80
-0.232671 0.193853 0.902000 76 98 78
-0.230585 0.194068 0.903000 106 115 106
-0.228241 0.194068 0.903000 144 153 144
-0.226397 0.194498 0.905000 178 180 171
-0.005596 0.195358 0.909000 124 133 126
-0.003229 0.194928 0.907000 100 109 102
-0.000875 0.194928 0.907000 91 103 95
0.001476 0.194498 0.905000 98 110 102
0.003813 0.193853 0.902000 99 119 104
0.006147 0.193638 0.901000 100 120 105
0.008477 0.193423 0.900000 92 118 94
0.010789 0.192994 0.898000 92 118 94
0.013120 0.192994 0.898000 96 119 94
0.015417 0.192564 0.896000 99 122 97
0.017743 0.192564 0.896000 123 141 118
0.020068 0.192564 0.896000 159 177 154
-0.243836 0.195763 0.900000 184 196 168
-0.241500 0.195763 0.900000 147 159 131
-0.239429 0.195980 0.901000 107 129 98
-0.237354 0.196198 0.902000 91 113 82
-0.235012 0.196198 0.902000 82 106 78
-0.232671 0.196198 0.902000 81 105 77
-0.230585 0.196415 0.903000 74 94 77
-0.228241 0.196415 0.903000 77 97 80
-0.225897 0.196415 0.903000 110 118 107
-0.224048 0.196850 0.905000 151 159 148
-0.010326 0.197938 0.910000 120 129 122
-0.007956 0.197720 0.909000 96 105 98
-0.005590 0.197503 0.908000 90 104 93
-0.003229 0.197285 0.907000 96 110 99
-0.000873 0.196850 0.905000 98 118 103
0.001473 0.196415 0.903000 99 119 104
0.003809 0.195980 0.901000 94 120 96
0.006141 0.195763 0.900000 89 115 91
0.008477 0.195763 0.900000 93 120 91
0.010789 0.195328 0.898000 95 122 93
0.013120 0.195328 0.898000 122 139 113
0.015417 0.194893 0.896000 152 169 143
0.017743 0.194893 0.896000 193 199 182
-0.239695 0.198542 0.902000 164 181 153
-0.237354 0.198542 0.902000 129 146 118
-0.235012 0.198542 0.902000 102 124 95
-0.232671 0.198542 0.902000 91 113 84
-0.230329 0.198542 0.902000 80 104 76
-0.227988 0.198542 0.902000 74 98 70
-0.225897 0.198762 0.903000 79 94 76
-0.223553 0.198762 0.903000 86 101 83
-0.221209 0.198762 0.903000 122 130 117
-0.218865 0.198762 0.903000 157 165 152
-0.217000 0.199203 0.905000 186 187 176
-0.017413 0.200303 0.910000 151 157 157
-0.015051 0.200303 0.910000 120 126 124
-0.012689 0.200303 0.910000 94 100 98
-0.010326 0.200303 0.910000 93 107 96
-0.007956 0.200083 0.909000 94 108 97
-0.005590 0.199863 0.908000 97 114 100
-0.003229 0.199643 0.907000 97 114 100
-0.000873 0.199203 0.905000 97 122 101
0.001473 0.198762 0.903000 93 118 97
0.003809 0.198322 0.901000 95 122 93
0.006141 0.198102 0.900000 95 122 93
0.008458 0.197662 0.898000 106 128 99
0.010789 0.197662 0.898000 134 156 127
0.013120 0.197662 0.898000 183 192 172
-0.237354 0.200887 0.902000 187 201 181
-0.234752 0.200664 0.901000 159 176 148
-0.232671 0.200887 0.902000 117 134 106
-0.230074 0.200664 0.901000 97 121 91
-0.227735 0.200664 0.901000 83 107 77
-0.225396 0.200664 0.901000 84 108 80
-0.223305 0.200887 0.902000 77 101 73
-0.221209 0.201109 0.903000 81 96 78
-0.218865 0.201109 0.903000 89 104 86
-0.216521 0.201109 0.903000 122 130 117
-0.214176 0.201109 0.903000 162 170 157
-0.211832 0.201109 0.903000 186 188 177
-0.022089 0.202223 0.908000 143 149 147
-0.019775 0.202668 0.910000 104 110 110
-0.017413 0.202668 0.910000 97 103 103
-0.015051 0.202668 0.910000 93 106 101
-0.012689 0.202668 0.910000 97 110 105
-0.010326 0.202668 0.910000 95 117 101
-0.007956 0.202446 0.909000 95 117 101
-0.005584 0.202000 0.907000 95 118 95
-0.003222 0.201555 0.905000 91 114 91
-0.000871 0.201109 0.903000 93 119 93
0.001470 0.200664 0.901000 97 123 97
0.003804 0.200441 0.900000 97 123 97
0.006127 0.199996 0.898000 136 162 136
0.008458 0.199996 0.898000 175 192 166
-0.232929 0.203457 0.903000 185 196 177
-0.230074 0.203006 0.901000 147 171 143
-0.227735 0.203006 0.901000 112 136 108
-0.225396 0.203006 0.901000 99 126 95
-0.223057 0.203006 0.901000 87 114 83
-0.220964 0.203231 0.902000 84 108 80
-0.218622 0.203231 0.902000 78 102 74
-0.216281 0.203231 0.902000 78 95 77
-0.213939 0.203231 0.902000 85 102 84
-0.211832 0.203457 0.903000 125 133 120
-0.209488 0.203457 0.903000 161 169 156
-0.207144 0.203457 0.903000 186 188 177
-0.029063 0.203907 0.905000 169 170 166
-0.026773 0.204358 0.907000 131 132 128
-0.024446 0.204583 0.908000 103 109 107
-0.022113 0.204808 0.909000 96 102 100
-0.019775 0.205034 0.910000 97 109 101
-0.017432 0.205259 0.911000 102 114 106
-0.015051 0.205034 0.910000 97 119 103
-0.012689 0.205034 0.910000 97 119 103
-0.010315 0.204808 0.909000 93 119 95
-0.007938 0.204358 0.907000 90 116 92
-0.005584 0.204358 0.907000 89 116 87
-0.003222 0.203907 0.905000 93 120 91
-0.000869 0.203006 0.901000 97 123 97
0.001468 0.202781 0.900000 117 143 117
0.003796 0.202330 0.898000 130 148 125
-0.227988 0.205576 0.902000 151 166 150
-0.225646 0.205576 0.902000 137 161 133
-0.223305 0.205576 0.902000 117 141 113
-0.220964 0.205576 0.902000 99 126 95
-0.218622 0.205576 0.902000 90 117 86
-0.216281 0.205576 0.902000 82 109 78
-0.213939 0.205576 0.902000 79 106 75
-0.211598 0.205576 0.902000 75 95 76
-0.209256 0.205576 0.902000 79 99 80
-0.207144 0.205804 0.903000 110 120 106
-0.204800 0.205804 0.903000 140 150 136
-0.202456 0.205804 0.903000 173 178 168
-0.200112 0.205804 0.903000 190 195 185
-0.033836 0.206715 0.907000 138 138 138
-0.031482 0.206715 0.907000 108 108 108
-0.029128 0.206715 0.907000 93 101 98
-0.026803 0.206943 0.908000 96 104 101
-0.024500 0.207399 0.910000 99 113 104
-0.022137 0.207399 0.910000 103 117 108
-0.019775 0.207399 0.910000 99 119 104
-0.017432 0.207627 0.911000 98 118 103
-0.015051 0.207399 0.910000 87 115 90
-0.012675 0.207171 0.909000 89 117 92
-0.010304 0.206943 0.908000 91 119 92
-0.007938 0.206715 0.907000 95 123 96
-0.005571 0.206260 0.905000 108 132 104
-0.003215 0.205804 0.903000 130 154 126
-0.000868 0.205120 0.900000 174 190 169
-0.223305 0.207920 0.902000 90 107 93
-0.221209 0.208151 0.903000 108 132 104
-0.218622 0.207920 0.902000 113 137 109
-0.216281 0.207920 0.902000 105 134 100
-0.213939 0.207920 0.902000 92 121 87
-0.211598 0.207920 0.902000 79 108 76
-0.209256 0.207920 0.902000 74 103 71
-0.206915 0.207920 0.902000 72 98 74
-0.204574 0.207920 0.902000 71 97 73
-0.202232 0.207920 0.902000 90 105 91
-0.200112 0.208151 0.903000 116 131 117
-0.197768 0.208151 0.903000 151 158 152
-0.195424 0.208151 0.903000 178 185 179
-0.043159 0.208612 0.905000 168 169 163
-0.040809 0.208612 0.905000 146 147 141
-0.038460 0.208612 0.905000 116 117 111
-0.036191 0.209073 0.907000 103 104 98
-0.033836 0.209073 0.907000 96 102 100
-0.031517 0.209303 0.908000 100 106 104
-0.029192 0.209534 0.909000 99 113 104
-0.026832 0.209534 0.909000 101 115 106
-0.024500 0.209764 0.910000 97 119 101
-0.022137 0.209764 0.910000 97 119 101
-0.019775 0.209764 0.910000 92 118 94
-0.017413 0.209764 0.910000 92 118 94
-0.015051 0.209764 0.910000 93 119 93
-0.012661 0.209303 0.908000 95 121 95
-0.010292 0.209073 0.907000 109 130 106
-0.007938 0.209073 0.907000 127 148 124
-0.005571 0.208612 0.905000 179 195 172
-0.218865 0.210498 0.903000 93 110 96
-0.216521 0.210498 0.903000 103 129 103
-0.213939 0.210265 0.902000 111 137 111
-0.211598 0.210265 0.902000 105 134 102
-0.209256 0.210265 0.902000 94 123 91
-0.206686 0.210032 0.901000 85 114 82
-0.204347 0.210032 0.901000 78 107 75
-0.202008 0.210032 0.901000 73 99 73
-0.199669 0.210032 0.901000 73 99 73
-0.197549 0.210265 0.902000 81 98 84
-0.195208 0.210265 0.902000 95 112 98
-0.192653 0.210032 0.901000 128 137 128
-0.190314 0.210032 0.901000 155 164 155
-0.187766 0.209799 0.900000 179 184 174
-0.185430 0.209799 0.900000 190 195 185
-0.055026 0.211430 0.907000 91 99 98
-0.052672 0.211430 0.907000 90 96 98
-0.050373 0.211663 0.908000 92 98 100
-0.048069 0.211897 0.909000 95 98 101
-0.045659 0.211663 0.908000 96 99 102
-0.043302 0.211663 0.908000 93 99 97
-0.040945 0.211663 0.908000 98 104 102
-0.038588 0.211663 0.908000 104 111 103
-0.036231 0.211663 0.908000 107 114 106
-0.033874 0.211663 0.908000 103 117 106
-0.031551 0.211897 0.909000 102 116 105
-0.029224 0.212130 0.910000 95 117 99
-0.026862 0.212130 0.910000 95 117 99
-0.024500 0.212130 0.910000 92 120 93
-0.022137 0.212130 0.910000 95 123 96
-0.019775 0.212130 0.910000 98 126 99
-0.017413 0.212130 0.910000 102 130 103
-0.015034 0.211897 0.909000 117 140 115
-0.012647 0.211430 0.907000 140 163 138
-0.010292 0.211430 0.907000 175 191 168
-0.214176 0.212845 0.903000 97 112 96
-0.211832 0.212845 0.903000 102 125 100
-0.209256 0.212609 0.902000 112 135 110
-0.206915 0.212609 0.902000 110 137 106
-0.204574 0.212609 0.902000 99 126 95
-0.202008 0.212374 0.901000 95 122 89
-0.199669 0.212374 0.901000 87 114 81
-0.197111 0.212138 0.900000 79 106 75
-0.194775 0.212138 0.900000 75 102 71
-0.192439 0.212138 0.900000 74 94 75
-0.189680 0.211667 0.898000 75 95 76
-0.187349 0.211667 0.898000 96 109 94
-0.185018 0.211667 0.898000 118 131 116
-0.182687 0.211667 0.898000 151 156 144
-0.179954 0.211195 0.896000 170 175 163
-0.178025 0.211667 0.898000 188 190 179
-0.175694 0.211667 0.898000 195 197 186
-0.064444 0.213788 0.907000 159 163 158
-0.062089 0.213788 0.907000 121 136 133
-0.059801 0.214024 0.908000 95 110 107
-0.057444 0.214024 0.908000 89 102 99
-0.055147 0.214259 0.909000 89 102 99
-0.052846 0.214495 0.910000 89 102 99
-0.050484 0.214495 0.910000 92 105 102
-0.048121 0.214495 0.910000 93 104 102
-0.045759 0.214495 0.910000 95 106 104
-0.043397 0.214495 0.910000 95 107 97
-0.041035 0.214495 0.910000 97 109 99
-0.038673 0.214495 0.910000 93 110 96
-0.036311 0.214495 0.910000 85 102 88
-0.033948 0.214495 0.910000 83 105 85
-0.031586 0.214495 0.910000 90 112 92
-0.029224 0.214495 0.910000 92 118 92
-0.026862 0.214495 0.910000 97 123 97
-0.024500 0.214495 0.910000 100 129 99
-0.022137 0.214495 0.910000 107 136 106
-0.019775 0.214495 0.910000 110 136 112
-0.017413 0.214495 0.910000 150 176 152
-0.015018 0.214024 0.908000 173 195 177
-0.209488 0.215192 0.903000 89 104 86
-0.207144 0.215192 0.903000 96 117 93
-0.204574 0.214954 0.902000 113 134 110
-0.202008 0.214716 0.901000 113 137 105
-0.199448 0.214477 0.900000 112 136 104
-0.197111 0.214477 0.900000 106 133 100
-0.194775 0.214477 0.900000 95 122 89
-0.192011 0.214001 0.898000 86 113 80
-0.189680 0.214001 0.898000 82 109 76
-0.186932 0.213524 0.896000 80 107 78
-0.184606 0.213524 0.896000 74 101 72
-0.182280 0.213524 0.896000 77 95 74
-0.179954 0.213524 0.896000 79 97 76
-0.177629 0.213524 0.896000 96 106 94
-0.175303 0.213524 0.896000 118 128 116
-0.172977 0.213524 0.896000 150 155 143
-0.171032 0.214001 0.898000 167 172 160
-0.168701 0.214001 0.898000 182 184 175
-0.166370 0.214001 0.898000 190 192 183
-0.073861 0.216145 0.907000 196 205 196
-0.071507 0.216145 0.907000 195 199 194
-0.069152 0.216145 0.907000 181 185 180
-0.066798 0.216145 0.907000 163 167 162
-0.064586 0.216622 0.909000 134 138 133
-0.062226 0.216622 0.909000 105 120 115
-0.059932 0.216860 0.910000 99 114 109
-0.057570 0.216860 0.910000 95 110 105
-0.055269 0.217099 0.911000 93 108 103
-0.052904 0.217099 0.911000 93 109 100
-0.050539 0.217099 0.911000 92 108 99
-0.048174 0.217099 0.911000 86 102 93
-0.045810 0.217099 0.911000 84 100 91
-0.043445 0.217099 0.911000 81 101 84
-0.041080 0.217099 0.911000 82 102 85
-0.038673 0.216860 0.910000 84 107 82
-0.036311 0.216860 0.910000 94 117 92
-0.033948 0.216860 0.910000 105 128 103
-0.031586 0.216860 0.910000 112 135 110
-0.029224 0.216860 0.910000 108 131 106
-0.026862 0.216860 0.910000 109 132 107
-0.024500 0.216860 0.910000 111 134 109
-0.022137 0.216860 0.910000 101 124 99
-0.204800 0.217539 0.903000 80 95 77
-0.202008 0.217057 0.901000 87 103 80
-0.199669 0.217057 0.901000 95 111 88
-0.197111 0.216817 0.900000 103 127 99
-0.194775 0.216817 0.900000 116 140 112
-0.192011 0.216335 0.898000 110 137 104
-0.189680 0.216335 0.898000 106 133 100
-0.186932 0.215853 0.896000 99 128 94
-0.184606 0.215853 0.896000 93 122 88
-0.182280 0.215853 0.896000 82 111 77
-0.179954 0.215853 0.896000 77 106 72
-0.177629 0.215853 0.896000 76 99 76
-0.175303 0.215853 0.896000 75 98 75
-0.172977 0.215853 0.896000 77 94 76
-0.171032 0.216335 0.898000 80 97 79
-0.168701 0.216335 0.898000 94 107 92
-0.166370 0.216335 0.898000 105 118 103
-0.164039 0.216335 0.898000 123 132 123
-0.161708 0.216335 0.898000 138 147 138
-0.159377 0.216335 0.898000 160 164 157
-0.157395 0.216817 0.900000 173 177 170
-0.155059 0.216817 0.900000 186 188 179
-0.083279 0.218503 0.907000 190 192 181
-0.081014 0.218744 0.908000 172 180 167
-0.078570 0.218503 0.907000 154 162 149
-0.076216 0.218503 0.907000 140 149 140
-0.073861 0.218503 0.907000 125 134 125
-0.071586 0.218744 0.908000 107 116 109
-0.069305 0.218985 0.909000 97 106 99
-0.067019 0.219226 0.910000 90 102 94
-0.064657 0.219226 0.910000 91 103 95
-0.062295 0.219226 0.910000 90 106 95
-0.059998 0.219467 0.911000 92 108 97
-0.057634 0.219467 0.911000 91 111 94
-0.055269 0.219467 0.911000 89 109 92
-0.052962 0.219707 0.912000 87 109 91
-0.050595 0.219707 0.912000 84 106 88
-0.048174 0.219467 0.911000 83 109 85
-0.045810 0.219467 0.911000 86 112 88
-0.043445 0.219467 0.911000 92 118 92
-0.041080 0.219467 0.911000 93 119 93
-0.038673 0.219226 0.910000 96 120 92
-0.036311 0.219226 0.910000 105 129 101
-0.033948 0.219226 0.910000 109 128 102
-0.031586 0.219226 0.910000 104 123 97
-0.029224 0.219226 0.910000 95 109 87
-0.197549 0.219643 0.902000 85 103 82
-0.194992 0.219399 0.901000 83 101 80
-0.192439 0.219156 0.900000 88 112 84
-0.189680 0.218669 0.898000 102 126 98
-0.187349 0.218669 0.898000 109 136 105
-0.184606 0.218182 0.896000 113 140 109
-0.182280 0.218182 0.896000 105 136 104
-0.179954 0.218182 0.896000 100 131 99
-0.177629 0.218182 0.896000 91 122 90
-0.175303 0.218182 0.896000 83 114 82
-0.172977 0.218182 0.896000 78 109 79
-0.171032 0.218669 0.898000 77 108 78
-0.168701 0.218669 0.898000 79 108 78
-0.166370 0.218669 0.898000 72 101 71
-0.164404 0.219156 0.900000 75 98 75
-0.161708 0.218669 0.898000 75 98 75
-0.159377 0.218669 0.898000 78 95 79
-0.157395 0.219156 0.900000 80 97 81
-0.155059 0.219156 0.900000 94 107 94
-0.152893 0.219399 0.901000 104 117 104
-0.150721 0.219643 0.902000 116 129 116
-0.148544 0.219886 0.903000 125 138 125
-0.146200 0.219886 0.903000 135 149 138
-0.143856 0.219886 0.903000 145 159 148
-0.141825 0.220373 0.905000 151 165 154
-0.139476 0.220373 0.905000 156 170 159
-0.137127 0.220373 0.905000 166 175 166
-0.116881 0.222078 0.912000 185 190 180
-0.114514 0.222078 0.912000 185 190 178
-0.112146 0.222078 0.912000 185 190 178
-0.109779 0.222078 0.912000 181 186 174
-0.107412 0.222078 0.912000 179 184 172
-0.105044 0.222078 0.912000 176 186 174
-0.102564 0.221834 0.911000 170 180 168
-0.100200 0.221834 0.911000 164 176 166
-0.097727 0.221591 0.910000 161 173 163
-0.095365 0.221591 0.910000 157 169 161
-0.092901 0.221347 0.909000 145 157 149
-0.090442 0.221104 0.908000 131 140 133
-0.088085 0.221104 0.908000 120 129 122
-0.085728 0.221104 0.908000 111 120 111
-0.083371 0.221104 0.908000 99 108 99
-0.081103 0.221347 0.909000 90 103 90
-0.078743 0.221347 0.909000 87 100 87
-0.076384 0.221347 0.909000 87 102 88
-0.074024 0.221347 0.909000 88 103 89
-0.071743 0.221591 0.910000 85 101 90
-0.069381 0.221591 0.910000 88 104 93
-0.067093 0.221834 0.911000 89 109 92
-0.064728 0.221834 0.911000 88 108 91
-0.062363 0.221834 0.911000 87 109 89
-0.059998 0.221834 0.911000 85 107 87
-0.057697 0.222078 0.912000 82 108 84
-0.055329 0.222078 0.912000 82 108 84
-0.052962 0.222078 0.912000 89 115 89
-0.050595 0.222078 0.912000 93 119 93
-0.048227 0.222078 0.912000 89 116 87
-0.045860 0.222078 0.912000 96 123 94
-0.043492 0.222078 0.912000 109 131 102
-0.041080 0.221834 0.911000 121 143 114
-0.038715 0.221834 0.911000 146 161 136
-0.036350 0.221834 0.911000 160 175 150
-0.187349 0.221003 0.898000 94 111 83
-0.185018 0.221003 0.898000 92 109 81
-0.182687 0.221003 0.898000 92 115 90
-0.180356 0.221003 0.898000 99 122 97
-0.178025 0.221003 0.898000 108 135 106
-0.175694 0.221003 0.898000 107 134 105
-0.173363 0.221003 0.898000 109 138 106
-0.171032 0.221003 0.898000 105 134 102
-0.168701 0.221003 0.898000 92 123 89
-0.166740 0.221495 0.900000 90 121 87
-0.164404 0.221495 0.900000 86 117 83
-0.161708 0.221003 0.898000 79 110 76
-0.159377 0.221003 0.898000 78 107 75
-0.157395 0.221495 0.900000 74 103 71
-0.155059 0.221495 0.900000 71 99 72
-0.152893 0.221741 0.901000 72 100 73
-0.150721 0.221987 0.902000 71 99 72
-0.148380 0.221987 0.902000 70 98 71
-0.146038 0.221987 0.902000 69 94 73
-0.143856 0.222234 0.903000 69 94 73
-0.141825 0.222726 0.905000 71 96 77
-0.139476 0.222726 0.905000 71 96 77
-0.137430 0.223218 0.907000 75 95 78
-0.135076 0.223218 0.907000 78 98 81
-0.132868 0.223464 0.908000 85 100 84
-0.130798 0.223956 0.910000 86 101 85
-0.128577 0.224202 0.911000 89 104 88
-0.126351 0.224448 0.912000 92 107 91
-0.123983 0.224448 0.912000 93 106 91
-0.121616 0.224448 0.912000 95 108 93
-0.119379 0.224695 0.913000 95 108 93
-0.117009 0.224695 0.913000 95 108 93
-0.114639 0.224695 0.913000 99 109 95
-0.112269 0.224695 0.913000 98 108 94
-0.109899 0.224695 0.913000 95 108 93
-0.107412 0.224448 0.912000 94 107 92
-0.105044 0.224448 0.912000 91 104 89
-0.102677 0.224448 0.912000 89 102 87
-0.100200 0.224202 0.911000 85 102 88
-0.097835 0.224202 0.911000 83 100 86
-0.095365 0.223956 0.910000 81 97 86
-0.093003 0.223956 0.910000 81 97 86
-0.090541 0.223710 0.909000 78 99 86
-0.088182 0.223710 0.909000 78 99 86
-0.085822 0.223710 0.909000 78 100 84
-0.083554 0.223956 0.910000 83 105 89
-0.081192 0.223956 0.910000 85 107 89
-0.078830 0.223956 0.910000 84 106 88
-0.076468 0.223956 0.910000 83 108 87
-0.074106 0.223956 0.910000 82 107 86
-0.071743 0.223956 0.910000 81 107 83
-0.069457 0.224202 0.911000 81 107 83
-0.067093 0.224202 0.911000 85 108 83
-0.064728 0.224202 0.911000 87 110 85
-0.062363 0.224202 0.911000 92 116 86
-0.060064 0.224448 0.912000 95 119 89
-0.057697 0.224448 0.912000 94 121 92
-0.055329 0.224448 0.912000 96 123 94
-0.052962 0.224448 0.912000 103 124 100
-0.050595 0.224448 0.912000 112 133 109
-0.048227 0.224448 0.912000 135 152 124
-0.045860 0.224448 0.912000 160 177 149
-0.178421 0.223834 0.900000 107 117 92
-0.176085 0.223834 0.900000 100 110 85
-0.173749 0.223834 0.900000 94 113 83
-0.171413 0.223834 0.900000 100 119 89
-0.169264 0.224083 0.901000 97 124 93
-0.166926 0.224083 0.901000 106 133 102
-0.164587 0.224083 0.901000 107 134 101
-0.162248 0.224083 0.901000 103 130 97
-0.159909 0.224083 0.901000 106 135 101
-0.157395 0.223834 0.900000 105 134 100
-0.155232 0.224083 0.901000 101 130 96
-0.153062 0.224332 0.902000 99 128 94
-0.150888 0.224581 0.903000 91 120 86
-0.148544 0.224581 0.903000 87 116 82
-0.146200 0.224581 0.903000 85 116 82
-0.143856 0.224581 0.903000 83 114 80
-0.141825 0.225078 0.905000 79 110 76
-0.139784 0.225575 0.907000 77 108 74
-0.137582 0.225824 0.908000 79 108 76
-0.135373 0.226073 0.909000 78 107 75
-0.133160 0.226322 0.910000 76 103 72
-0.130942 0.226570 0.911000 78 105 74
-0.128718 0.226819 0.912000 78 105 76
-0.126351 0.226819 0.912000 78 105 76
-0.124119 0.227068 0.913000 77 101 73
-0.121883 0.227316 0.914000 77 101 73
-0.119510 0.227316 0.914000 78 102 74
-0.117138 0.227316 0.914000 81 105 77
-0.114765 0.227316 0.914000 80 104 76
-0.112392 0.227316 0.914000 75 99 71
-0.110020 0.227316 0.914000 77 100 75
-0.107529 0.227068 0.913000 81 104 79
-0.105044 0.226819 0.912000 80 106 80
-0.102677 0.226819 0.912000 80 106 80
-0.100200 0.226570 0.911000 83 109 85
-0.097727 0.226322 0.910000 83 109 85
-0.095365 0.226322 0.910000 83 109 85
-0.093003 0.226322 0.910000 81 107 83
-0.090641 0.226322 0.910000 81 107 83
-0.088279 0.226322 0.910000 80 106 82
-0.085916 0.226322 0.910000 82 108 84
-0.083554 0.226322 0.910000 83 109 85
-0.081192 0.226322 0.910000 83 106 81
-0.078917 0.226570 0.911000 85 108 83
-0.076552 0.226570 0.911000 83 110 81
-0.074187 0.226570 0.911000 87 114 85
-0.071822 0.226570 0.911000 90 117 86
-0.069534 0.226819 0.912000 93 120 89
-0.067166 0.226819 0.912000 97 119 88
-0.064799 0.226819 0.912000 98 120 89
-0.062432 0.226819 0.912000 109 129 96
-0.060064 0.226819 0.912000 121 141 108
-0.057697 0.226819 0.912000 143 158 133
-0.055329 0.226819 0.912000 155 170 145
-0.052962 0.226819 0.912000 176 187 166
-0.169640 0.226928 0.903000 114 129 104
-0.167296 0.226928 0.903000 97 112 87
-0.164952 0.226928 0.903000 93 108 81
-0.162608 0.226928 0.903000 94 109 82
-0.160087 0.226676 0.902000 92 114 83
-0.157745 0.226676 0.902000 102 124 93
-0.155404 0.226676 0.902000 109 133 101
-0.153232 0.226928 0.903000 110 134 102
-0.150888 0.226928 0.903000 109 136 105
-0.148544 0.226928 0.903000 111 138 107
-0.146524 0.227430 0.905000 112 141 109
-0.144175 0.227430 0.905000 112 141 109
-0.142139 0.227933 0.907000 112 141 109
-0.139939 0.228184 0.908000 107 136 104
-0.137885 0.228687 0.910000 105 134 100
-0.135522 0.228687 0.910000 101 130 96
-0.133307 0.228938 0.911000 98 128 91
-0.131086 0.229189 0.912000 98 128 91
-0.128718 0.229189 0.912000 96 126 89
-0.126628 0.229692 0.914000 95 125 88
-0.124255 0.229692 0.914000 95 125 88
-0.121883 0.229692 0.914000 93 123 86
-0.119641 0.229943 0.915000 91 121 84
-0.117394 0.230195 0.916000 89 119 82
-0.114891 0.229943 0.915000 87 117 80
-0.112515 0.229943 0.915000 88 118 81
-0.110020 0.229692 0.914000 83 117 82
-0.107647 0.229692 0.914000 84 118 83
-0.105044 0.229189 0.912000 84 118 85
-0.102677 0.229189 0.912000 83 117 84
-0.100200 0.228938 0.911000 85 119 86
-0.097727 0.228687 0.910000 84 118 85
-0.095365 0.228687 0.910000 85 116 84
-0.093003 0.228687 0.910000 90 121 89
-0.090641 0.228687 0.910000 95 122 91
-0.088279 0.228687 0.910000 97 124 93
-0.086011 0.228938 0.911000 102 126 96
-0.083646 0.228938 0.911000 101 125 95
-0.081281 0.228938 0.911000 105 124 94
-0.078917 0.228938 0.911000 107 126 96
-0.076636 0.229189 0.912000 111 129 96
-0.074268 0.229189 0.912000 115 133 100
-0.071901 0.229189 0.912000 123 142 114
-0.069534 0.229189 0.912000 134 153 125
-0.067166 0.229189 0.912000 147 164 136
-0.064799 0.229189 0.912000 171 188 160
-0.160619 0.229783 0.905000 135 151 128
-0.158270 0.229783 0.905000 103 119 96
-0.155921 0.229783 0.905000 87 106 80
-0.153571 0.229783 0.905000 80 99 73
-0.151222 0.229783 0.905000 80 99 73
-0.148873 0.229783 0.905000 85 104 78
-0.146848 0.230290 0.907000 81 105 77
-0.144493 0.230290 0.907000 83 107 79
-0.142296 0.230544 0.908000 87 113 87
-0.140093 0.230798 0.909000 96 122 96
-0.137885 0.231052 0.910000 103 127 99
-0.135671 0.231306 0.911000 109 133 105
-0.133307 0.231306 0.911000 113 137 107
-0.131086 0.231560 0.912000 115 139 109
-0.128718 0.231560 0.912000 116 140 110
-0.126628 0.232068 0.914000 115 139 109
-0.124255 0.232068 0.914000 111 138 105
-0.122016 0.232322 0.915000 111 138 105
-0.119772 0.232576 0.916000 110 138 102
-0.117522 0.232829 0.917000 111 139 103
-0.115016 0.232576 0.916000 111 142 108
-0.112515 0.232322 0.915000 114 145 111
-0.110020 0.232068 0.914000 108 144 110
-0.107529 0.231814 0.913000 102 138 104
-0.105044 0.231560 0.912000 97 131 96
-0.102677 0.231560 0.912000 95 129 94
-0.100200 0.231306 0.911000 98 129 97
-0.097727 0.231052 0.910000 99 130 98
-0.095365 0.231052 0.910000 104 135 103
-0.093003 0.231052 0.910000 113 144 112
-0.090641 0.231052 0.910000 118 145 116
-0.088279 0.231052 0.910000 131 158 129
-0.086011 0.231306 0.911000 152 169 143
-0.083738 0.231560 0.912000 160 177 151
-0.081371 0.231560 0.912000 176 186 161
-0.079003 0.231560 0.912000 182 192 167
-0.142609 0.233417 0.910000 80 97 79
-0.140247 0.233417 0.910000 78 95 77
-0.138036 0.233674 0.911000 80 93 76
-0.135671 0.233674 0.911000 81 94 77
-0.133453 0.233930 0.912000 80 95 77
-0.131086 0.233930 0.912000 85 100 82
-0.128859 0.234187 0.913000 87 104 86
-0.126628 0.234443 0.914000 88 105 87
-0.124255 0.234443 0.914000 90 108 87
-0.121883 0.234443 0.914000 92 110 89
-0.119772 0.234956 0.916000 89 110 86
-0.117394 0.234956 0.916000 90 111 87
-0.115016 0.234956 0.916000 101 124 101
-0.112392 0.234443 0.914000 116 139 116
-0.110020 0.234443 0.914000 139 162 139
-0.107529 0.234187 0.913000 162 185 162
-0.105044 0.233930 0.912000 175 192 166
-0.102564 0.233674 0.911000 182 199 173
-0.100200 0.233674 0.911000 184 206 179
-0.097727 0.233417 0.910000 185 207 180
-0.095365 0.233417 0.910000 185 206 182
