ply
format ascii 1.0
element vertex 1110
property float x
property float y
property float z
property uchar red
property uchar green
property uchar blue
end_header
0.189676 -0.414212 0.531504 138 112 101
0.191577 -0.413414 0.530999 131 105 94
0.193318 -0.413586 0.530721 132 96 84
0.195058 -0.413757 0.530443 125 89 77
0.196799 -0.413929 0.530165 124 83 73
0.198540 -0.414100 0.529887 116 75 65
0.200281 -0.414272 0.529609 122 80 68
0.202022 -0.414443 0.529331 132 90 78
0.203762 -0.414614 0.529053 139 97 85
0.205366 -0.415758 0.528999 146 104 92
0.207109 -0.415929 0.528720 152 112 99
0.208853 -0.416101 0.528442 168 128 115
0.210596 -0.416273 0.528164 162 133 123
0.183000 -0.413326 0.534358 131 101 94
0.184743 -0.413498 0.534079 120 90 83
0.186486 -0.413670 0.533801 127 87 74
0.188392 -0.412873 0.533292 126 86 73
0.190133 -0.413044 0.533014 125 74 58
0.191874 -0.413216 0.532736 119 68 52
0.193614 -0.413387 0.532458 125 68 49
0.195355 -0.413558 0.532180 125 68 49
0.197096 -0.413730 0.531902 122 65 46
0.198837 -0.413901 0.531624 120 63 44
0.200578 -0.414073 0.531346 121 62 44
0.202319 -0.414244 0.531068 127 68 50
0.204059 -0.414416 0.530790 130 68 49
0.205800 -0.414587 0.530512 132 70 51
0.207407 -0.415731 0.530460 132 71 49
0.209150 -0.415902 0.530182 134 73 51
0.210893 -0.416074 0.529903 137 84 69
0.212637 -0.416246 0.529625 151 98 83
0.214380 -0.416418 0.529346 153 113 100
0.216123 -0.416589 0.529068 147 107 94
0.217748 -0.417734 0.529013 154 129 122
0.179810 -0.412784 0.536654 125 91 83
0.181554 -0.412956 0.536376 112 78 70
0.183297 -0.413127 0.536098 120 69 55
0.185040 -0.413299 0.535819 118 67 53
0.186784 -0.413471 0.535541 120 61 43
0.188689 -0.412674 0.535029 123 64 46
0.190430 -0.412845 0.534751 127 63 45
0.192171 -0.413017 0.534473 127 63 45
0.193911 -0.413188 0.534195 127 65 46
0.195652 -0.413360 0.533917 126 64 45
0.197393 -0.413531 0.533639 125 63 44
0.199134 -0.413703 0.533361 123 61 42
0.200875 -0.413874 0.533083 125 63 44
0.202616 -0.414046 0.532805 125 63 44
0.204356 -0.414217 0.532527 126 65 43
0.205961 -0.415360 0.532478 126 65 43
0.207704 -0.415532 0.532200 129 68 46
0.209447 -0.415703 0.531921 133 72 50
0.211191 -0.415875 0.531643 135 72 51
0.212934 -0.416047 0.531365 136 73 52
0.214677 -0.416219 0.531086 135 71 53
0.216421 -0.416390 0.530808 145 81 63
0.218046 -0.417535 0.530755 147 96 82
0.219791 -0.417707 0.530477 160 109 95
0.221651 -0.416906 0.529972 158 127 118
0.174696 -0.413036 0.539468 121 96 89
0.176442 -0.413208 0.539189 116 78 69
0.178364 -0.412413 0.538672 110 72 63
0.180108 -0.412585 0.538394 121 70 52
0.181851 -0.412757 0.538116 117 66 48
0.183594 -0.412929 0.537837 126 64 45
0.185338 -0.413100 0.537559 126 64 45
0.187081 -0.413272 0.537280 125 63 44
0.188824 -0.413444 0.537002 125 63 44
0.190568 -0.413615 0.536724 123 64 44
0.192468 -0.412818 0.536211 120 61 41
0.194208 -0.412990 0.535933 119 62 43
0.195949 -0.413161 0.535655 119 62 43
0.197690 -0.413333 0.535377 112 59 42
0.199431 -0.413504 0.535099 113 60 43
0.201172 -0.413676 0.534821 115 64 48
0.202913 -0.413847 0.534543 115 64 48
0.204653 -0.414019 0.534265 115 64 46
0.206258 -0.415161 0.534218 117 66 48
0.208001 -0.415333 0.533939 116 63 46
0.209745 -0.415505 0.533661 118 65 48
0.211488 -0.415676 0.533383 125 66 48
0.213232 -0.415848 0.533104 127 68 50
0.214975 -0.416020 0.532826 129 65 47
0.216597 -0.417164 0.532776 136 72 54
0.218343 -0.417336 0.532498 138 74 56
0.220205 -0.416535 0.531991 140 76 58
0.221948 -0.416707 0.531712 139 83 69
0.223692 -0.416878 0.531434 145 89 75
0.225435 -0.417050 0.531155 135 99 89
0.227178 -0.417222 0.530877 151 115 105
0.173248 -0.412665 0.541489 127 85 73
0.174994 -0.412837 0.541210 115 73 61
0.176739 -0.413009 0.540931 123 67 51
0.178662 -0.412214 0.540412 122 66 50
0.180405 -0.412386 0.540134 126 65 43
0.182148 -0.412558 0.539855 126 65 43
0.183892 -0.412730 0.539577 126 65 43
0.185635 -0.412901 0.539299 126 65 43
0.187379 -0.413073 0.539020 123 66 45
0.189122 -0.413245 0.538742 125 68 47
0.190865 -0.413417 0.538463 127 79 62
0.192609 -0.413588 0.538185 137 89 72
0.194505 -0.412791 0.537670 133 93 78
0.196246 -0.412963 0.537392 132 92 77
0.197987 -0.413134 0.537114 123 89 77
0.199582 -0.414275 0.537071 121 87 75
0.201325 -0.414447 0.536793 118 87 76
0.203069 -0.414619 0.536514 118 87 76
0.204812 -0.414790 0.536236 117 86 75
0.206556 -0.414962 0.535958 106 75 64
0.208299 -0.415134 0.535679 108 73 58
0.210042 -0.415306 0.535401 106 71 56
0.211786 -0.415477 0.535122 114 68 52
0.213529 -0.415649 0.534844 111 65 49
0.215272 -0.415821 0.534566 117 61 45
0.216895 -0.416965 0.534519 121 65 49
0.218759 -0.416164 0.534009 126 64 45
0.220502 -0.416336 0.533730 128 66 47
0.222246 -0.416508 0.533452 140 74 54
0.223989 -0.416680 0.533174 143 77 57
0.225732 -0.416851 0.532895 138 79 61
0.227476 -0.417023 0.532617 149 90 72
0.229219 -0.417195 0.532338 156 115 107
0.231063 -0.416392 0.531832 168 127 119
0.170054 -0.412122 0.543789 129 87 75
0.171800 -0.412294 0.543510 120 78 66
0.173546 -0.412466 0.543231 127 70 51
0.175291 -0.412638 0.542952 126 69 50
0.177037 -0.412810 0.542674 131 65 45
0.178783 -0.412982 0.542395 128 62 42
0.180703 -0.412187 0.541873 123 62 40
0.182446 -0.412359 0.541595 123 62 40
0.184189 -0.412531 0.541317 122 69 52
0.185933 -0.412703 0.541038 133 80 63
0.187676 -0.412874 0.540760 135 93 79
0.189419 -0.413046 0.540481 141 99 85
0.211955 -0.416250 0.537097 126 97 85
0.213701 -0.416422 0.536819 117 88 76
0.215447 -0.416594 0.536540 118 78 63
0.217193 -0.416766 0.536261 107 67 52
0.218939 -0.416938 0.535982 113 62 44
0.220800 -0.416137 0.535470 115 64 46
0.222543 -0.416309 0.535192 123 62 40
0.224287 -0.416481 0.534913 127 66 44
0.226030 -0.416652 0.534635 138 72 50
0.227773 -0.416824 0.534356 140 74 52
0.229517 -0.416996 0.534078 142 78 60
0.231260 -0.417168 0.533800 148 84 66
0.233003 -0.417339 0.533521 149 103 95
0.234747 -0.417511 0.533243 166 120 112
0.166666 -0.412543 0.546337 132 92 79
0.168415 -0.412715 0.546058 117 77 64
0.170352 -0.411923 0.545531 127 70 51
0.172097 -0.412095 0.545252 124 67 48
0.173843 -0.412267 0.544974 128 62 42
0.175589 -0.412439 0.544695 130 64 44
0.177335 -0.412611 0.544416 128 64 46
0.179081 -0.412783 0.544137 130 66 48
0.180827 -0.412955 0.543858 131 80 66
0.182573 -0.413127 0.543579 143 92 78
0.184319 -0.413299 0.543301 142 106 96
0.219237 -0.416738 0.537724 120 89 76
0.220983 -0.416910 0.537446 113 82 69
0.222841 -0.416110 0.536931 116 70 52
0.224584 -0.416282 0.536653 107 61 43
0.226327 -0.416453 0.536375 123 64 44
0.228071 -0.416625 0.536096 124 65 45
0.229814 -0.416797 0.535818 135 69 49
0.231557 -0.416969 0.535539 140 74 54
0.233301 -0.417140 0.535261 144 80 64
0.235044 -0.417312 0.534983 150 86 70
0.236787 -0.417484 0.534704 150 101 91
0.238531 -0.417656 0.534426 167 118 108
0.163468 -0.411999 0.548640 135 98 84
0.165216 -0.412171 0.548361 123 86 72
0.166965 -0.412344 0.548082 125 68 49
0.168713 -0.412516 0.547803 122 65 46
0.170462 -0.412688 0.547523 127 65 46
0.172210 -0.412860 0.547244 125 63 44
0.173959 -0.413033 0.546965 122 60 41
0.175707 -0.413205 0.546686 126 64 45
0.177455 -0.413377 0.546407 130 77 64
0.179204 -0.413549 0.546127 146 93 80
0.181125 -0.412756 0.545601 139 105 95
0.224772 -0.417055 0.538630 119 88 75
0.226518 -0.417227 0.538351 116 70 54
0.228264 -0.417399 0.538073 111 65 49
0.230010 -0.417571 0.537794 119 62 43
0.231756 -0.417743 0.537515 122 65 46
0.233502 -0.417915 0.537236 131 67 51
0.235248 -0.418087 0.536957 137 73 57
0.236994 -0.418259 0.536678 142 78 62
0.238740 -0.418431 0.536400 149 85 69
0.240486 -0.418603 0.536121 145 98 87
0.242232 -0.418775 0.535842 167 120 109
0.244058 -0.417972 0.535330 162 137 128
0.162018 -0.411627 0.550664 121 87 77
0.163766 -0.411800 0.550385 127 71 55
0.165515 -0.411972 0.550106 124 68 52
0.167263 -0.412144 0.549827 127 63 45
0.169011 -0.412316 0.549548 127 63 45
0.170760 -0.412489 0.549268 125 66 46
0.172508 -0.412661 0.548989 125 66 46
0.174257 -0.412833 0.548710 120 71 59
0.176005 -0.413005 0.548431 139 90 78
0.177754 -0.413178 0.548151 142 108 100
0.228562 -0.417200 0.539815 121 90 79
0.230308 -0.417372 0.539536 116 71 58
0.232054 -0.417544 0.539257 106 61 48
0.233800 -0.417716 0.538978 117 61 45
0.235546 -0.417888 0.538700 121 65 49
0.237292 -0.418060 0.538421 128 66 49
0.238949 -0.419206 0.538379 133 71 54
0.240698 -0.419378 0.538099 140 73 58
0.242529 -0.418576 0.537584 153 86 71
0.244275 -0.418748 0.537305 150 103 90
0.246021 -0.418920 0.537027 172 125 112
0.247842 -0.418116 0.536513 159 137 127
0.158819 -0.411084 0.552968 118 88 81
0.160567 -0.411256 0.552688 128 75 60
0.162316 -0.411428 0.552409 118 65 50
0.164064 -0.411600 0.552130 128 64 46
0.165813 -0.411773 0.551851 127 63 45
0.167561 -0.411945 0.551571 126 64 45
0.169310 -0.412117 0.551292 127 65 46
0.171058 -0.412289 0.551013 121 75 59
0.172622 -0.413426 0.550989 142 96 80
0.174373 -0.413598 0.550709 138 109 99
0.232352 -0.417345 0.540999 120 91 79
0.234098 -0.417517 0.540721 119 74 61
0.235844 -0.417689 0.540442 107 62 49
0.237499 -0.418834 0.540403 117 61 45
0.239248 -0.419006 0.540123 120 64 48
0.240996 -0.419179 0.539844 126 59 42
0.242745 -0.419351 0.539565 137 70 53
0.244573 -0.418549 0.539048 142 78 62
0.246319 -0.418721 0.538769 154 90 74
0.248065 -0.418893 0.538490 155 110 99
0.249811 -0.419065 0.538211 155 110 99
0.251627 -0.418261 0.537696 145 124 119
0.155411 -0.411501 0.555532 104 82 74
0.157369 -0.410712 0.554992 129 82 69
0.159117 -0.410884 0.554712 116 69 56
0.160866 -0.411056 0.554433 128 66 47
0.162614 -0.411229 0.554154 125 63 44
0.164363 -0.411401 0.553875 123 61 42
0.166111 -0.411573 0.553596 123 61 42
0.167668 -0.412709 0.553575 122 70 59
0.169419 -0.412881 0.553295 139 87 76
0.171170 -0.413054 0.553016 140 110 103
0.236049 -0.418462 0.542427 126 97 85
0.237798 -0.418635 0.542147 119 77 63
0.239459 -0.419780 0.542110 105 63 49
0.241210 -0.419953 0.541830 116 59 40
0.242961 -0.420125 0.541551 118 61 42
0.244791 -0.419324 0.541031 124 60 44
0.246617 -0.418521 0.540511 131 67 51
0.248363 -0.418693 0.540232 138 79 61
0.250109 -0.418865 0.539953 144 85 67
0.251855 -0.419037 0.539675 141 98 89
0.253601 -0.419209 0.539396 150 107 98
0.152208 -0.410956 0.557839 117 95 87
0.153959 -0.411129 0.557559 123 83 70
0.155710 -0.411301 0.557280 110 70 57
0.157461 -0.411474 0.557000 124 65 47
0.159416 -0.410685 0.556457 120 61 43
0.160963 -0.411819 0.556441 127 63 45
0.162714 -0.411991 0.556161 126 62 44
0.164465 -0.412164 0.555881 120 67 54
0.166216 -0.412336 0.555602 139 86 73
0.167967 -0.412509 0.555322 142 107 102
0.239758 -0.419581 0.543857 124 98 87
0.241509 -0.419753 0.543578 125 83 69
0.243260 -0.419926 0.543298 108 66 52
0.245011 -0.420098 0.543019 118 61 42
0.246838 -0.419296 0.542496 123 66 47
0.248587 -0.419469 0.542217 132 70 51
0.250335 -0.419641 0.541938 139 77 58
0.252152 -0.418838 0.541417 144 85 67
0.253898 -0.419010 0.541138 145 86 68
0.255644 -0.419182 0.540859 140 102 93
0.257390 -0.419354 0.540580 153 115 106
0.150755 -0.410584 0.559866 126 88 77
0.152507 -0.410757 0.559586 118 80 69
0.154257 -0.410929 0.559307 121 65 49
0.156008 -0.411102 0.559027 121 65 49
0.157759 -0.411274 0.558747 126 64 45
0.159510 -0.411447 0.558468 127 65 46
0.161261 -0.411619 0.558188 126 68 52
0.163012 -0.411792 0.557908 139 81 65
0.164763 -0.411964 0.557629 137 99 92
0.243558 -0.419726 0.545045 125 96 84
0.245309 -0.419898 0.544766 117 73 57
0.247060 -0.420071 0.544486 110 66 50
0.248885 -0.419269 0.543962 117 62 43
0.250633 -0.419441 0.543682 117 62 43
0.252382 -0.419614 0.543403 132 70 51
0.254196 -0.418811 0.542880 140 78 59
0.255942 -0.418983 0.542602 138 82 66
0.257627 -0.420130 0.542566 148 92 76
0.259376 -0.420302 0.542286 139 101 92
0.261124 -0.420475 0.542007 156 118 109
0.147552 -0.410039 0.562172 131 95 83
0.149085 -0.411171 0.562163 121 85 73
0.151054 -0.410384 0.561613 127 69 53
0.152805 -0.410557 0.561334 123 65 49
0.154556 -0.410729 0.561054 127 63 45
0.156307 -0.410902 0.560774 123 59 41
0.158058 -0.411074 0.560495 123 65 51
0.159809 -0.411247 0.560215 138 80 66
0.161360 -0.412381 0.560203 142 99 90
0.247359 -0.419871 0.546234 119 90 76
0.249110 -0.420043 0.545954 111 70 53
0.250861 -0.420216 0.545674 104 63 46
0.252680 -0.419414 0.545148 115 60 41
0.254429 -0.419586 0.544869 121 66 47
0.256177 -0.419758 0.544590 130 71 51
0.257925 -0.419931 0.544310 142 83 63
0.261367 -0.421251 0.543997 147 94 77
0.263118 -0.421423 0.543717 151 117 109
0.264869 -0.421596 0.543437 165 131 123
0.144123 -0.410453 0.564753 130 96 84
0.145877 -0.410626 0.564473 118 84 72
0.147631 -0.410799 0.564193 130 72 56
0.149384 -0.410971 0.563913 126 68 52
0.151138 -0.411144 0.563633 132 62 46
0.152891 -0.411317 0.563353 131 61 45
0.154645 -0.411490 0.563073 123 61 44
0.156398 -0.411662 0.562793 128 66 49
0.158152 -0.411835 0.562513 138 93 82
0.159905 -0.412008 0.562233 150 105 94
0.251160 -0.420016 0.547422 117 88 76
0.252978 -0.419215 0.546893 118 77 60
0.254727 -0.419387 0.546614 106 65 48
0.256475 -0.419559 0.546334 116 64 44
0.258224 -0.419731 0.546055 115 63 43
0.261666 -0.421051 0.545744 142 83 63
0.263417 -0.421224 0.545464 146 93 76
0.265168 -0.421396 0.545185 153 100 83
0.266919 -0.421569 0.544905 147 116 107
0.140916 -0.409908 0.567063 125 99 88
0.142669 -0.410080 0.566783 123 97 86
0.144423 -0.410253 0.566503 120 69 53
0.146176 -0.410426 0.566223 118 67 51
0.147930 -0.410599 0.565943 133 63 47
0.149683 -0.410771 0.565663 132 62 46
0.151437 -0.410944 0.565383 127 63 47
0.153190 -0.411117 0.565103 130 66 50
0.154944 -0.411290 0.564823 136 87 75
0.156697 -0.411462 0.564543 152 103 91
0.255025 -0.419187 0.548358 113 84 72
0.256774 -0.419360 0.548079 116 72 54
0.258522 -0.419532 0.547800 108 64 46
0.261964 -0.420851 0.547491 123 68 47
0.263715 -0.421024 0.547212 142 80 61
0.265466 -0.421196 0.546932 146 84 65
0.267217 -0.421369 0.546652 146 93 78
0.268924 -0.422517 0.546621 149 96 81
0.270678 -0.422690 0.546341 145 115 108
0.137708 -0.409362 0.569373 125 99 88
0.139461 -0.409535 0.569093 124 98 87
0.141215 -0.409708 0.568813 128 82 66
0.142968 -0.409880 0.568533 121 75 59
0.144722 -0.410053 0.568253 127 65 46
0.146475 -0.410226 0.567973 126 64 45
0.148229 -0.410399 0.567693 128 61 44
0.149982 -0.410571 0.567413 129 62 45
0.151736 -0.410744 0.567133 135 79 67
0.153490 -0.410917 0.566853 155 99 87
0.260512 -0.420479 0.549518 111 65 47
0.262263 -0.420652 0.549239 111 65 47
0.264014 -0.420824 0.548959 125 68 47
0.265765 -0.420997 0.548679 127 70 49
0.267470 -0.422144 0.548651 145 81 63
0.269223 -0.422317 0.548371 155 91 73
0.270977 -0.422490 0.548091 145 94 80
0.272730 -0.422663 0.547811 155 104 90
0.274484 -0.422835 0.547530 148 118 113
0.134500 -0.408817 0.571683 127 98 88
0.136253 -0.408989 0.571403 129 100 90
0.138007 -0.409162 0.571123 130 81 69
0.139760 -0.409335 0.570843 118 69 57
0.141514 -0.409508 0.570563 129 65 47
0.143267 -0.409680 0.570283 130 66 48
0.145021 -0.409853 0.570003 128 65 44
0.146774 -0.410026 0.569723 127 64 43
0.148528 -0.410198 0.569443 133 75 61
0.150282 -0.410371 0.569163 148 90 76
0.151821 -0.411502 0.569163 149 111 104
0.262562 -0.420452 0.550986 115 81 69
0.264313 -0.420624 0.550706 112 61 43
0.266064 -0.420797 0.550427 109 58 40
0.267769 -0.421944 0.550400 123 61 42
0.269522 -0.422117 0.550120 135 73 54
0.271276 -0.422290 0.549840 147 83 65
0.273029 -0.422463 0.549560 151 87 69
0.274783 -0.422635 0.549280 150 98 87
0.276536 -0.422808 0.549000 162 110 99
0.278290 -0.422981 0.548720 150 123 117
0.131292 -0.408271 0.573993 133 102 91
0.133045 -0.408444 0.573713 128 97 86
0.134799 -0.408616 0.573433 133 80 67
0.136552 -0.408789 0.573153 120 67 54
0.138306 -0.408962 0.572873 130 67 46
0.140059 -0.409135 0.572593 130 67 46
0.141813 -0.409307 0.572313 129 63 43
0.143567 -0.409480 0.572033 126 60 40
0.145320 -0.409653 0.571753 129 71 55
0.147074 -0.409826 0.571473 141 83 67
0.148609 -0.410956 0.571476 148 107 99
0.266363 -0.420597 0.552174 111 75 63
0.268068 -0.421744 0.552150 115 64 48
0.269821 -0.421917 0.551870 114 63 47
0.271575 -0.422090 0.551590 125 63 46
0.273329 -0.422263 0.551310 137 75 58
0.275047 -0.423411 0.551285 145 81 65
0.276803 -0.423584 0.551004 151 87 71
0.278589 -0.422781 0.550470 154 102 91
0.280343 -0.422953 0.550190 163 111 100
0.282096 -0.423126 0.549910 161 136 129
0.127835 -0.408680 0.576594 134 100 90
0.129837 -0.407898 0.576023 128 94 84
0.131591 -0.408071 0.575743 131 80 64
0.133344 -0.408244 0.575463 122 71 55
0.135098 -0.408416 0.575183 124 60 42
0.136852 -0.408589 0.574903 129 65 47
0.138605 -0.408762 0.574623 129 63 43
0.140359 -0.408935 0.574343 128 62 42
0.142112 -0.409107 0.574063 122 65 46
0.143640 -0.410237 0.574070 136 79 60
0.145396 -0.410410 0.573790 140 102 91
0.270121 -0.421717 0.553620 113 78 63
0.271874 -0.421890 0.553340 113 62 46
0.273590 -0.423038 0.553318 111 60 44
0.275346 -0.423211 0.553037 124 65 47
0.277102 -0.423384 0.552757 135 76 58
0.278858 -0.423557 0.552476 149 85 67
0.280642 -0.422753 0.551940 152 88 70
0.282395 -0.422926 0.551660 149 102 91
0.284171 -0.422122 0.551125 166 119 108
0.124623 -0.408134 0.578907 138 102 90
0.126379 -0.408307 0.578627 130 94 82
0.128135 -0.408480 0.578347 133 82 64
0.130137 -0.407698 0.577773 125 74 56
0.131890 -0.407871 0.577493 130 69 47
0.133644 -0.408044 0.577213 128 67 45
0.135397 -0.408216 0.576933 126 63 42
0.137151 -0.408389 0.576653 123 60 39
0.138904 -0.408562 0.576373 120 62 46
0.140427 -0.409691 0.576383 136 78 62
0.142183 -0.409864 0.576103 137 97 84
0.143939 -0.410037 0.575823 148 108 95
0.272173 -0.421690 0.555090 122 85 69
0.273890 -0.422837 0.555070 109 72 56
0.275646 -0.423010 0.554789 114 63 47
0.277402 -0.423184 0.554509 111 60 44
0.279158 -0.423356 0.554229 127 65 48
0.280941 -0.422553 0.553690 140 78 61
0.282695 -0.422726 0.553410 149 87 70
0.284448 -0.422899 0.553130 160 98 81
0.286221 -0.422095 0.552593 147 106 96
0.287972 -0.422267 0.552313 151 110 100
0.121152 -0.408540 0.581519 134 100 88
0.123166 -0.407760 0.580940 129 95 83
0.124922 -0.407933 0.580660 132 79 62
0.126678 -0.408106 0.580379 122 69 52
0.128434 -0.408279 0.580099 127 66 44
0.130190 -0.408452 0.579819 128 67 45
0.132189 -0.407671 0.579243 126 65 43
0.133943 -0.407844 0.578963 121 60 38
0.135459 -0.408971 0.578977 121 66 47
0.137215 -0.409144 0.578697 128 73 54
0.138971 -0.409317 0.578416 134 92 80
0.140727 -0.409490 0.578136 143 101 89
0.275945 -0.422810 0.556542 123 86 70
0.277702 -0.422983 0.556261 110 73 57
0.279458 -0.423156 0.555981 111 58 41
0.281214 -0.423329 0.555701 114 61 44
0.282970 -0.423502 0.555420 130 66 50
0.284747 -0.422699 0.554880 147 83 67
0.286501 -0.422872 0.554600 148 88 75
0.288254 -0.423044 0.554320 154 94 81
0.290022 -0.422240 0.553781 144 103 95
0.291773 -0.422412 0.553501 170 129 121
0.117935 -0.407993 0.583835 133 99 87
0.119693 -0.408166 0.583554 129 95 83
0.121452 -0.408340 0.583274 134 79 60
0.123466 -0.407560 0.582693 125 70 51
0.125222 -0.407733 0.582412 128 62 38
0.126978 -0.407906 0.582132 128 62 38
0.128734 -0.408079 0.581851 126 63 40
0.130490 -0.408252 0.581571 124 61 38
0.132246 -0.408425 0.581290 120 68 48
0.134002 -0.408598 0.581010 130 78 58
0.135758 -0.408771 0.580730 132 95 81
0.137514 -0.408944 0.580449 139 102 88
0.279757 -0.422956 0.557733 121 81 66
0.281513 -0.423129 0.557453 105 65 50
0.283269 -0.423302 0.557173 110 54 40
0.285026 -0.423475 0.556892 114 58 44
0.286800 -0.422671 0.556350 128 63 50
0.288554 -0.422844 0.556069 144 79 66
0.290307 -0.423017 0.555789 147 87 72
0.292061 -0.423190 0.555509 149 89 74
0.293814 -0.423362 0.555229 155 112 105
0.295568 -0.423535 0.554949 170 127 120
0.114717 -0.407446 0.586152 139 103 91
0.116476 -0.407619 0.585871 127 91 79
0.118235 -0.407793 0.585590 123 67 51
0.119993 -0.407966 0.585309 121 65 49
0.121752 -0.408139 0.585028 132 66 44
0.123511 -0.408312 0.584748 129 63 41
0.125269 -0.408486 0.584467 128 62 38
0.127277 -0.407706 0.583884 124 58 34
0.129033 -0.407879 0.583604 116 61 42
0.130790 -0.408052 0.583323 125 70 51
0.132546 -0.408225 0.583043 130 92 81
0.134302 -0.408398 0.582762 143 105 94
0.283569 -0.423101 0.558925 124 84 69
0.285325 -0.423274 0.558645 107 67 52
0.287081 -0.423447 0.558364 120 62 46
0.288837 -0.423620 0.558084 123 65 49
0.290606 -0.422817 0.557539 135 71 55
0.292360 -0.422990 0.557259 144 80 64
0.294113 -0.423162 0.556979 154 94 79
0.295867 -0.423335 0.556699 155 95 80
0.297618 -0.424485 0.556681 153 117 109
0.299374 -0.424658 0.556401 167 131 123
0.111500 -0.406899 0.588469 137 101 89
0.113259 -0.407072 0.588188 122 86 74
0.115017 -0.407245 0.587907 129 73 57
0.116776 -0.407419 0.587626 125 69 53
0.118535 -0.407592 0.587345 127 64 43
0.120293 -0.407765 0.587064 126 63 42
0.122052 -0.407938 0.586783 126 63 42
0.123811 -0.408112 0.586503 124 61 40
0.125569 -0.408285 0.586222 122 67 48
0.127328 -0.408458 0.585941 135 80 61
0.129086 -0.408631 0.585660 132 94 83
0.130845 -0.408805 0.585379 139 101 90
0.287381 -0.423247 0.560117 113 71 57
0.289137 -0.423420 0.559836 105 63 49
0.290893 -0.423593 0.559556 115 59 43
0.292649 -0.423766 0.559275 123 67 51
0.294405 -0.423939 0.558995 141 77 61
0.296161 -0.424112 0.558714 147 83 67
0.297917 -0.424285 0.558434 148 92 78
0.301432 -0.425608 0.558137 158 126 120
0.108006 -0.407302 0.591096 142 104 93
0.110042 -0.406525 0.590504 126 88 77
0.111800 -0.406698 0.590223 128 72 58
0.113559 -0.406872 0.589943 124 68 54
0.115317 -0.407045 0.589662 129 65 47
0.117076 -0.407218 0.589381 127 63 45
0.118835 -0.407391 0.589100 126 63 42
0.120593 -0.407565 0.588819 124 61 40
0.122352 -0.407738 0.588538 122 66 50
0.124111 -0.407911 0.588258 131 75 59
0.125869 -0.408084 0.587977 128 90 79
0.291193 -0.423393 0.561308 114 70 54
0.292939 -0.424542 0.561296 104 60 44
0.294698 -0.424715 0.561015 112 54 38
0.296456 -0.424888 0.560734 119 61 45
0.298215 -0.425061 0.560454 142 78 62
0.299974 -0.425235 0.560173 152 88 72
0.301732 -0.425408 0.559892 152 100 89
0.303491 -0.425581 0.559611 163 111 100
0.305250 -0.425754 0.559330 165 138 132
0.103023 -0.406580 0.593698 125 107 96
0.104784 -0.406754 0.593416 138 98 85
0.106546 -0.406927 0.593135 126 86 73
0.108583 -0.406151 0.592540 128 68 53
0.110342 -0.406324 0.592259 123 63 48
0.112100 -0.406498 0.591978 128 64 48
0.113859 -0.406671 0.591698 127 63 47
0.115617 -0.406844 0.591417 123 59 41
0.117376 -0.407017 0.591136 121 57 39
0.119135 -0.407191 0.590855 120 67 52
0.120893 -0.407364 0.590574 136 83 68
0.122652 -0.407537 0.590293 139 103 93
0.293239 -0.424341 0.563051 115 86 74
0.294998 -0.424514 0.562770 109 62 49
0.296756 -0.424688 0.562489 108 61 48
0.298515 -0.424861 0.562209 117 57 42
0.300274 -0.425034 0.561928 127 67 52
0.302032 -0.425207 0.561647 147 83 65
0.303791 -0.425380 0.561366 156 92 74
0.305550 -0.425554 0.561085 154 105 95
0.307320 -0.426705 0.561072 162 113 103
0.309081 -0.426878 0.560791 157 134 129
0.099801 -0.406032 0.596018 127 107 97
0.101562 -0.406206 0.595736 138 98 83
0.103324 -0.406379 0.595455 124 84 69
0.105085 -0.406553 0.595174 131 72 54
0.107124 -0.405777 0.594576 126 67 49
0.108883 -0.405951 0.594295 121 57 39
0.110642 -0.406124 0.594014 123 59 41
0.112400 -0.406297 0.593733 120 57 43
0.114159 -0.406470 0.593453 123 60 46
0.115918 -0.406644 0.593172 116 63 50
0.117676 -0.406817 0.592891 137 84 71
0.119435 -0.406990 0.592610 143 107 97
0.297056 -0.424487 0.564244 113 77 67
0.298815 -0.424660 0.563964 114 63 47
0.300574 -0.424833 0.563683 109 58 42
0.302332 -0.425007 0.563402 125 63 44
0.304091 -0.425180 0.563121 136 74 55
0.305859 -0.426330 0.563111 154 92 75
0.307620 -0.426504 0.562830 163 101 84
0.309381 -0.426677 0.562548 154 111 102
0.311159 -0.427829 0.562537 167 124 115
0.094522 -0.406258 0.598941 129 108 95
0.096286 -0.406432 0.598659 129 108 95
0.098341 -0.405658 0.598056 133 93 78
0.100102 -0.405831 0.597775 124 84 69
0.101863 -0.406005 0.597494 129 72 51
0.103624 -0.406178 0.597213 123 66 45
0.105666 -0.405403 0.596612 128 65 44
0.107424 -0.405577 0.596331 124 61 40
0.109183 -0.405750 0.596050 117 55 36
0.110942 -0.405923 0.595769 119 57 38
0.112700 -0.406096 0.595488 121 69 58
0.114459 -0.406270 0.595207 135 83 72
0.116218 -0.406443 0.594927 136 102 94
0.300874 -0.424633 0.565438 115 78 64
0.302632 -0.424806 0.565157 112 59 42
0.304391 -0.424979 0.564876 112 59 42
0.306159 -0.426129 0.564868 126 64 45
0.307920 -0.426303 0.564587 139 77 58
0.309682 -0.426476 0.564306 153 93 78
0.311460 -0.427628 0.564297 162 102 87
0.313224 -0.427801 0.564015 162 126 118
0.315010 -0.428953 0.564005 167 131 123
0.091596 -0.404763 0.600939 134 113 98
0.093358 -0.404937 0.600658 129 108 93
0.095119 -0.405110 0.600376 135 91 75
0.096880 -0.405284 0.600095 122 78 62
0.098641 -0.405457 0.599814 129 73 49
0.100402 -0.405630 0.599533 126 70 46
0.102449 -0.404856 0.598928 127 64 41
0.104207 -0.405030 0.598648 127 64 41
0.105966 -0.405203 0.598367 124 65 45
0.107724 -0.405376 0.598086 123 64 44
0.109483 -0.405549 0.597805 116 67 55
0.111242 -0.405722 0.597524 129 80 68
0.113000 -0.405896 0.597243 137 105 99
0.302932 -0.424605 0.566912 123 83 68
0.304699 -0.425755 0.566907 110 70 55
0.306460 -0.425928 0.566626 112 57 38
0.308221 -0.426102 0.566345 116 61 42
0.309982 -0.426275 0.566063 133 69 51
0.311761 -0.427426 0.566057 151 87 69
0.313525 -0.427600 0.565775 156 100 86
0.315311 -0.428752 0.565767 165 109 95
0.317103 -0.429904 0.565759 156 131 124
0.086306 -0.404987 0.603869 127 113 105
0.088069 -0.405161 0.603588 134 108 95
0.090136 -0.404389 0.602978 128 102 89
0.091897 -0.404562 0.602696 133 85 68
0.093658 -0.404736 0.602415 125 77 60
0.095419 -0.404909 0.602134 130 69 47
0.097180 -0.405083 0.601853 126 65 43
0.098942 -0.405256 0.601571 129 66 43
0.100703 -0.405430 0.601290 124 61 38
0.102749 -0.404656 0.600683 119 60 40
0.104507 -0.404829 0.600402 125 66 46
0.108024 -0.405175 0.599841 134 89 76
0.109783 -0.405349 0.599560 132 105 97
0.306760 -0.425728 0.568383 123 79 63
0.308521 -0.425901 0.568102 108 64 48
0.310298 -0.427051 0.568098 116 56 41
0.312062 -0.427225 0.567817 123 63 48
0.313826 -0.427399 0.567535 147 82 69
0.315613 -0.428550 0.567530 155 90 77
0.317379 -0.428724 0.567248 145 102 93
0.319174 -0.429876 0.567241 164 121 112
0.083079 -0.404438 0.606193 129 109 101
0.084843 -0.404612 0.605911 134 103 90
0.086607 -0.404786 0.605629 125 94 81
0.088675 -0.404014 0.605016 129 81 62
0.090436 -0.404188 0.604735 123 75 56
0.092197 -0.404361 0.604454 131 65 45
0.093958 -0.404535 0.604173 129 63 43
0.095720 -0.404708 0.603891 130 64 44
0.097481 -0.404882 0.603610 128 62 42
0.099242 -0.405055 0.603329 118 61 40
0.101003 -0.405229 0.603048 124 67 46
0.102764 -0.405402 0.602766 123 78 65
0.104525 -0.405576 0.602485 136 91 78
0.106287 -0.405749 0.602204 136 109 101
0.308835 -0.426677 0.570140 120 86 74
0.310599 -0.426850 0.569859 111 63 48
0.312363 -0.427024 0.569577 107 59 44
0.314127 -0.427198 0.569295 125 65 52
0.315914 -0.428349 0.569292 138 78 65
0.317680 -0.428523 0.569010 145 92 86
0.319475 -0.429675 0.569006 150 97 91
0.077769 -0.404659 0.609134 124 102 94
0.079853 -0.403889 0.608516 126 104 96
0.081616 -0.404063 0.608234 135 98 84
0.083380 -0.404237 0.607953 124 87 73
0.085144 -0.404411 0.607671 124 74 53
0.087214 -0.403640 0.607055 120 70 49
0.088975 -0.403813 0.606774 129 68 44
0.090737 -0.403987 0.606493 127 66 42
0.092498 -0.404160 0.606211 127 64 41
0.094259 -0.404334 0.605930 127 64 41
0.096020 -0.404507 0.605649 122 65 44
0.097781 -0.404681 0.605368 123 66 45
0.099542 -0.404854 0.605086 126 84 70
0.101304 -0.405028 0.604805 140 98 84
0.103065 -0.405201 0.604524 136 110 99
0.312664 -0.426823 0.571337 113 77 65
0.314427 -0.426996 0.571055 110 61 49
0.316215 -0.428147 0.571055 112 63 51
0.317982 -0.428321 0.570773 115 72 67
0.319748 -0.428495 0.570491 140 97 92
0.074538 -0.404109 0.611461 125 96 86
0.076304 -0.404283 0.611179 123 94 84
0.078390 -0.403514 0.610558 128 83 70
0.080153 -0.403688 0.610276 122 77 64
0.081917 -0.403862 0.609994 124 69 50
0.083681 -0.404036 0.609713 120 65 46
0.085753 -0.403265 0.609094 129 68 46
0.087515 -0.403439 0.608813 128 67 45
0.089276 -0.403612 0.608531 127 66 42
0.091037 -0.403786 0.608250 122 61 37
0.092798 -0.403959 0.607969 124 67 46
0.094559 -0.404133 0.607688 127 70 49
0.096321 -0.404306 0.607406 131 89 75
0.098082 -0.404480 0.607125 141 99 85
0.314750 -0.427772 0.573100 120 86 76
0.316517 -0.427946 0.572818 98 64 54
0.318283 -0.428120 0.572536 96 66 61
0.320049 -0.428294 0.572253 136 106 101
0.068878 -0.405269 0.614756 119 97 89
0.070978 -0.404502 0.614131 128 91 77
0.073073 -0.403734 0.613505 125 88 74
0.074840 -0.403908 0.613223 131 80 64
0.076927 -0.403139 0.612599 127 76 60
0.078691 -0.403313 0.612318 128 69 49
0.080454 -0.403487 0.612036 127 68 48
0.082532 -0.402717 0.611414 127 66 44
0.084293 -0.402891 0.611133 126 65 43
0.086054 -0.403064 0.610851 120 61 41
0.087815 -0.403238 0.610570 119 60 40
0.089576 -0.403411 0.610289 118 68 47
0.091337 -0.403585 0.610008 127 77 56
0.093099 -0.403758 0.609726 131 95 83
0.094860 -0.403932 0.609445 145 109 97
0.065638 -0.404718 0.617090 122 97 88
0.067409 -0.404892 0.616807 130 85 72
0.069511 -0.404126 0.616178 123 78 65
0.071608 -0.403358 0.615550 126 69 50
0.073375 -0.403532 0.615268 130 73 54
0.075464 -0.402764 0.614641 131 68 47
0.077228 -0.402938 0.614360 128 65 44
0.078992 -0.403112 0.614078 123 62 40
0.080755 -0.403286 0.613796 123 62 40
0.082832 -0.402517 0.613171 118 61 42
0.084593 -0.402690 0.612890 118 61 42
0.086354 -0.402864 0.612609 121 75 59
0.088116 -0.403037 0.612328 135 89 73
0.089877 -0.403211 0.612046 134 103 92
0.091638 -0.403384 0.611765 137 106 95
0.060626 -0.403992 0.619706 126 95 86
0.062397 -0.404167 0.619423 120 89 80
0.064168 -0.404341 0.619140 126 78 63
0.065940 -0.404516 0.618858 124 76 61
0.067711 -0.404690 0.618575 128 70 47
0.069813 -0.403924 0.617943 128 70 47
0.071910 -0.403157 0.617313 131 65 43
0.073676 -0.403331 0.617031 130 64 42
0.075765 -0.402563 0.616401 128 62 42
0.077529 -0.402737 0.616120 126 60 40
0.079292 -0.402911 0.615838 121 66 47
0.081056 -0.403084 0.615556 125 70 51
0.082820 -0.403258 0.615275 125 83 71
0.084584 -0.403432 0.614993 135 93 81
0.086347 -0.403606 0.614711 131 105 94
0.055614 -0.403266 0.622322 122 104 95
0.057385 -0.403441 0.622040 122 86 76
0.059157 -0.403615 0.621757 121 85 75
0.060928 -0.403790 0.621474 129 76 63
0.062699 -0.403964 0.621191 127 74 61
0.064471 -0.404139 0.620908 127 64 43
0.066242 -0.404313 0.620625 128 65 44
0.068346 -0.403548 0.619991 127 64 43
0.070115 -0.403722 0.619708 126 63 42
0.072211 -0.402955 0.619075 123 62 40
0.073977 -0.403129 0.618793 120 59 37
0.076066 -0.402362 0.618161 121 68 51
0.077830 -0.402536 0.617880 132 79 62
0.079593 -0.402710 0.617598 131 96 81
0.081357 -0.402883 0.617316 136 101 86
0.052728 -0.401778 0.624298 119 99 89
0.054497 -0.401952 0.624016 124 87 73
0.055916 -0.403064 0.624090 118 81 67
0.057687 -0.403239 0.623807 124 68 52
0.059459 -0.403413 0.623524 130 74 58
0.061230 -0.403588 0.623241 128 67 45
0.063001 -0.403762 0.622959 125 64 42
0.064773 -0.403937 0.622676 121 60 38
0.066544 -0.404111 0.622393 122 61 39
0.068316 -0.404286 0.622110 119 60 40
0.070416 -0.403520 0.621473 121 62 42
0.072185 -0.403694 0.621191 130 82 67
0.074279 -0.402928 0.620556 140 92 77
0.076045 -0.403102 0.620274 134 103 92
0.049852 -0.400291 0.626267 122 100 90
0.051618 -0.400465 0.625985 121 81 68
0.053385 -0.400639 0.625703 125 85 72
0.054799 -0.401750 0.625781 130 74 58
0.056568 -0.401924 0.625498 128 72 56
0.058337 -0.402099 0.625216 127 65 46
0.060105 -0.402273 0.624933 126 64 45
0.061532 -0.403386 0.625009 122 60 41
0.063304 -0.403560 0.624726 121 59 40
0.065075 -0.403735 0.624443 118 63 44
0.066846 -0.403909 0.624160 124 69 50
0.068618 -0.404084 0.623878 131 89 75
0.070389 -0.404258 0.623595 136 94 80
0.072487 -0.403493 0.622956 134 105 95
0.046621 -0.399741 0.628594 121 99 89
0.048387 -0.399915 0.628312 127 85 71
0.050154 -0.400089 0.628030 122 80 66
0.051920 -0.400263 0.627748 132 73 53
0.053686 -0.400437 0.627466 130 71 51
0.055452 -0.400611 0.627184 130 64 44
0.057219 -0.400785 0.626902 128 62 42
0.058638 -0.401897 0.626981 122 61 39
0.060407 -0.402071 0.626698 120 59 37
0.061834 -0.403184 0.626777 115 64 46
0.063606 -0.403358 0.626494 129 78 60
0.065377 -0.403533 0.626211 137 99 88
0.067149 -0.403707 0.625928 138 100 89
0.040880 -0.400888 0.631939 129 104 97
0.042652 -0.401062 0.631656 120 95 88
0.044790 -0.400301 0.631006 124 79 66
0.046922 -0.399540 0.630357 119 74 61
0.048689 -0.399714 0.630075 130 71 53
0.050455 -0.399888 0.629792 127 68 50
0.052221 -0.400061 0.629510 131 65 45
0.053987 -0.400236 0.629228 125 59 39
0.055754 -0.400410 0.628946 119 57 38
0.057520 -0.400584 0.628664 122 60 41
0.058940 -0.401695 0.628746 120 72 55
0.060365 -0.402807 0.628827 133 85 68
0.062137 -0.402982 0.628544 134 100 90
0.063908 -0.403156 0.628262 139 105 95
0.037264 -0.401271 0.634644 127 97 90
0.039038 -0.401446 0.634361 118 88 81
0.041183 -0.400686 0.633707 123 77 61
0.042954 -0.400860 0.633424 119 73 57
0.045091 -0.400099 0.632771 130 68 49
0.047224 -0.399338 0.632119 128 66 47
0.048990 -0.399512 0.631837 126 62 44
0.050756 -0.399686 0.631555 123 59 41
0.052522 -0.399860 0.631273 121 59 42
0.054289 -0.400034 0.630991 125 63 46
0.056055 -0.400208 0.630709 125 77 62
0.057821 -0.400382 0.630427 137 89 74
0.059242 -0.401493 0.630511 139 108 99
0.031478 -0.402411 0.638014 126 112 104
0.033638 -0.401653 0.637355 132 101 90
0.035414 -0.401828 0.637072 119 88 77
0.037566 -0.401069 0.636414 121 70 54
0.039713 -0.400309 0.635757 122 71 55
0.041485 -0.400484 0.635474 130 69 45
0.043624 -0.399723 0.634819 130 69 45
0.045393 -0.399898 0.634536 127 64 43
0.047525 -0.399136 0.633882 124 61 40
0.049291 -0.399310 0.633600 123 64 46
0.051057 -0.399484 0.633318 125 66 48
0.052824 -0.399658 0.633035 129 82 71
0.054590 -0.399832 0.632753 144 97 86
0.028223 -0.401857 0.640358 126 106 96
0.030002 -0.402033 0.640074 120 86 74
0.032164 -0.401275 0.639412 112 78 66
0.033941 -0.401450 0.639128 122 71 55
0.035717 -0.401625 0.638844 124 73 57
0.037869 -0.400866 0.638184 130 67 46
0.040016 -0.400107 0.637525 127 64 43
0.041787 -0.400281 0.637242 126 63 40
0.043558 -0.400456 0.636959 124 61 38
0.045695 -0.399696 0.636301 120 63 42
0.047826 -0.398935 0.635644 125 68 47
0.049593 -0.399109 0.635362 127 82 71
0.051359 -0.399283 0.635080 140 95 84
0.023190 -0.401129 0.642985 134 110 98
0.024969 -0.401304 0.642701 124 100 88
0.026748 -0.401479 0.642417 123 84 66
0.028527 -0.401655 0.642133 117 78 60
0.030306 -0.401830 0.641849 122 72 51
0.032467 -0.401072 0.641185 124 74 53
0.034244 -0.401247 0.640901 130 69 47
0.036020 -0.401422 0.640617 127 66 44
0.038172 -0.400664 0.639954 126 65 43
0.040318 -0.399905 0.639292 125 64 42
0.042089 -0.400079 0.639010 118 63 42
0.043861 -0.400254 0.638727 130 75 54
0.045632 -0.400428 0.638444 134 94 81
0.047765 -0.399668 0.637784 144 104 91
0.019935 -0.400575 0.645329 133 104 90
0.021714 -0.400751 0.645045 116 87 73
0.023493 -0.400926 0.644761 119 73 53
0.025272 -0.401101 0.644477 117 71 51
0.027441 -0.400345 0.643808 126 70 46
0.029218 -0.400520 0.643525 126 70 46
0.030994 -0.400695 0.643241 126 68 43
0.032770 -0.400870 0.642957 121 63 38
0.034547 -0.401045 0.642674 122 66 42
0.036700 -0.400287 0.642008 123 67 43
0.038849 -0.399528 0.641343 112 61 45
0.040620 -0.399703 0.641060 132 81 65
0.042391 -0.399877 0.640777 137 103 93
0.044163 -0.400052 0.640494 139 105 95
0.015309 -0.398917 0.647567 129 107 99
0.017085 -0.399092 0.647283 131 94 80
0.018862 -0.399267 0.647000 119 82 68
0.020638 -0.399442 0.646716 121 71 50
0.022415 -0.399617 0.646432 121 71 50
0.024191 -0.399792 0.646149 127 69 46
0.025968 -0.399967 0.645865 126 68 45
0.027744 -0.400142 0.645581 125 67 44
0.029521 -0.400317 0.645297 124 66 43
0.031297 -0.400492 0.645014 117 62 41
0.033073 -0.400667 0.644730 120 65 44
0.034850 -0.400842 0.644446 121 75 59
0.036626 -0.401017 0.644163 132 86 70
0.038777 -0.400259 0.643495 130 100 93
0.012059 -0.398364 0.649907 118 98 90
0.013836 -0.398539 0.649623 129 87 75
0.015612 -0.398714 0.649340 115 73 61
0.017389 -0.398889 0.649056 118 66 46
0.019165 -0.399064 0.648772 122 70 50
0.020941 -0.399239 0.648489 125 67 42
0.022718 -0.399414 0.648205 125 67 42
0.024494 -0.399589 0.647921 122 66 40
0.026271 -0.399764 0.647638 118 62 36
0.028047 -0.399939 0.647354 114 62 42
0.029824 -0.400114 0.647070 125 73 53
0.031600 -0.400289 0.646787 128 86 72
0.033377 -0.400464 0.646503 136 94 80
0.035153 -0.400639 0.646219 130 103 95
0.007452 -0.396709 0.652134 124 99 92
0.009226 -0.396884 0.651851 117 92 85
0.010586 -0.397987 0.651964 118 76 64
0.012774 -0.397233 0.651285 112 70 58
0.014547 -0.397408 0.651001 124 69 50
0.016321 -0.397583 0.650718 123 68 49
0.018095 -0.397757 0.650435 125 67 44
0.019869 -0.397932 0.650151 123 65 42
0.021244 -0.399037 0.650261 122 66 42
0.023021 -0.399212 0.649978 119 63 39
0.024797 -0.399387 0.649694 117 69 52
0.026574 -0.399562 0.649410 129 81 64
0.028350 -0.399737 0.649127 136 98 87
0.030127 -0.399912 0.648843 138 100 89
0.004630 -0.395230 0.654071 133 102 93
0.006402 -0.395405 0.653788 120 89 80
0.008173 -0.395579 0.653505 121 74 61
0.009944 -0.395754 0.653223 119 72 59
0.011716 -0.395928 0.652940 125 68 49
0.013487 -0.396103 0.652657 124 67 48
0.014850 -0.397206 0.652771 122 65 44
0.016624 -0.397380 0.652488 122 65 44
0.018398 -0.397555 0.652205 117 62 41
0.020172 -0.397730 0.651922 117 62 41
0.021946 -0.397905 0.651638 113 69 53
0.023324 -0.399009 0.651750 128 84 68
0.025100 -0.399184 0.651467 131 102 92
0.026877 -0.399359 0.651183 137 108 98
-0.000382 -0.394505 0.656687 126 105 100
0.001390 -0.394679 0.656405 124 88 80
0.003587 -0.393927 0.655719 114 78 70
0.004933 -0.395028 0.655839 121 70 56
0.006704 -0.395203 0.655556 121 70 56
0.008475 -0.395377 0.655273 123 64 44
0.010247 -0.395552 0.654990 123 64 44
0.012018 -0.395726 0.654707 121 62 42
0.013789 -0.395901 0.654424 120 61 41
0.015561 -0.396075 0.654142 119 67 47
0.017332 -0.396250 0.653859 122 70 50
0.019103 -0.396424 0.653576 116 79 63
0.020875 -0.396599 0.653293 130 93 77
0.022248 -0.397702 0.653408 134 109 102
-0.003622 -0.393954 0.659021 124 102 94
-0.001851 -0.394128 0.658738 120 80 67
-0.000079 -0.394302 0.658455 116 76 63
0.001692 -0.394477 0.658172 122 69 54
0.003889 -0.393725 0.657484 120 67 52
0.005235 -0.394826 0.657606 125 66 46
0.007006 -0.395000 0.657324 121 62 42
0.008777 -0.395175 0.657041 120 61 41
0.010549 -0.395350 0.656758 119 60 40
0.012320 -0.395524 0.656475 117 66 50
0.014092 -0.395698 0.656192 120 69 53
0.015863 -0.395873 0.655909 121 85 73
0.017634 -0.396047 0.655626 136 100 88
0.019406 -0.396222 0.655343 130 112 103
-0.006863 -0.393402 0.661354 123 97 86
-0.005091 -0.393577 0.661071 126 81 68
-0.003320 -0.393751 0.660789 120 75 62
-0.001548 -0.393926 0.660506 120 64 48
0.000223 -0.394100 0.660223 123 67 51
0.001994 -0.394275 0.659940 126 67 47
0.003766 -0.394449 0.659657 123 64 44
0.005537 -0.394624 0.659374 120 61 41
0.007308 -0.394798 0.659091 123 64 44
0.009080 -0.394973 0.658808 117 69 54
0.010851 -0.395147 0.658525 125 77 62
0.012622 -0.395322 0.658243 124 93 84
0.014803 -0.394569 0.657554 140 109 100
-0.011874 -0.392677 0.663971 128 97 84
-0.010103 -0.392851 0.663688 127 96 83
-0.008332 -0.393026 0.663405 124 76 59
-0.006560 -0.393200 0.663122 119 71 54
-0.004789 -0.393375 0.662839 128 66 49
-0.003018 -0.393549 0.662556 125 63 46
-0.001246 -0.393724 0.662273 120 61 43
0.000525 -0.393898 0.661990 117 58 40
0.002296 -0.394073 0.661708 120 64 48
0.004068 -0.394247 0.661425 118 62 46
0.005839 -0.394422 0.661142 119 72 59
0.007610 -0.394596 0.660859 126 79 66
0.009382 -0.394771 0.660576 129 99 92
-0.014663 -0.391203 0.665887 133 96 82
-0.012894 -0.391378 0.665604 118 81 67
-0.011125 -0.391552 0.665322 119 66 49
-0.009357 -0.391726 0.665039 121 68 51
-0.008030 -0.392824 0.665172 130 71 53
-0.006258 -0.392998 0.664890 126 67 49
-0.004487 -0.393173 0.664607 123 61 44
-0.002715 -0.393347 0.664324 117 55 38
-0.000944 -0.393522 0.664041 110 54 40
0.000398 -0.394621 0.664172 118 62 48
0.002172 -0.394796 0.663889 126 84 72
0.004370 -0.394045 0.663192 131 89 77
0.006141 -0.394220 0.662910 134 104 97
-0.019208 -0.389557 0.668078 126 101 92
-0.017442 -0.389731 0.667796 126 86 71
-0.015676 -0.389905 0.667514 120 80 65
-0.013910 -0.390079 0.667232 127 70 51
-0.012592 -0.391176 0.667369 124 67 48
-0.010824 -0.391350 0.667087 128 66 47
-0.009499 -0.392447 0.667223 128 66 47
-0.007727 -0.392622 0.666940 126 64 45
-0.005956 -0.392796 0.666657 122 60 41
-0.004185 -0.392971 0.666374 118 65 50
-0.002847 -0.394069 0.666509 122 69 54
-0.001073 -0.394244 0.666225 130 94 84
0.000701 -0.394419 0.665942 139 103 93
-0.024206 -0.388834 0.670687 131 105 94
-0.022440 -0.389008 0.670405 125 99 88
-0.020673 -0.389182 0.670122 125 84 67
-0.018907 -0.389356 0.669840 122 81 64
-0.017141 -0.389530 0.669558 127 70 49
-0.015375 -0.389704 0.669276 125 68 47
-0.013608 -0.389878 0.668994 128 65 42
-0.012291 -0.390974 0.669134 127 64 41
-0.010968 -0.392071 0.669274 121 62 42
-0.009196 -0.392245 0.668991 121 62 42
-0.007425 -0.392420 0.668708 118 67 51
-0.006092 -0.393517 0.668846 132 81 65
-0.004754 -0.394615 0.668982 136 100 90
-0.003411 -0.395714 0.669118 136 100 90
-0.029321 -0.391963 0.674727 133 102 91
-0.026608 -0.390298 0.673587 121 90 79
-0.024371 -0.389552 0.672877 123 75 58
-0.022138 -0.388806 0.672167 122 74 57
-0.020372 -0.388980 0.671885 129 73 49
-0.018606 -0.389154 0.671603 126 70 46
-0.016840 -0.389328 0.671321 123 65 40
-0.015073 -0.389502 0.671039 123 65 40
-0.013758 -0.390598 0.671182 120 63 42
-0.012437 -0.391694 0.671324 118 61 40
-0.011111 -0.392791 0.671466 120 76 60
-0.009780 -0.393888 0.671606 135 91 75
-0.008004 -0.394063 0.671322 132 103 93
-0.031741 -0.393424 0.677646 100 83 69
-0.029018 -0.391760 0.676499 111 65 47
-0.026306 -0.390096 0.675355 115 69 51
-0.024534 -0.390271 0.675072 123 64 44
-0.022300 -0.389525 0.674359 125 66 46
-0.020531 -0.389699 0.674077 125 67 44
-0.019220 -0.390794 0.674223 125 67 44
-0.017449 -0.390969 0.673940 120 68 48
-0.015678 -0.391143 0.673658 121 69 49
-0.013906 -0.391317 0.673375 130 90 77
-0.012583 -0.392414 0.673519 140 100 87
-0.011254 -0.393510 0.673663 134 108 97
-0.031437 -0.393220 0.679424 90 69 54
-0.029185 -0.392477 0.678706 115 62 45
-0.026939 -0.391733 0.677989 115 62 45
-0.024697 -0.390988 0.677272 120 63 42
-0.022461 -0.390243 0.676557 122 65 44
-0.020689 -0.390417 0.676274 113 66 44
-0.018918 -0.390592 0.675991 119 72 50
-0.017147 -0.390766 0.675708 129 92 78
-0.015828 -0.391862 0.675856 139 102 88
-0.031605 -0.393936 0.681638 88 69 54
-0.028882 -0.392274 0.680481 103 62 45
-0.027103 -0.392449 0.680197 105 64 47
-0.024859 -0.391705 0.679478 117 73 57
-0.022621 -0.390960 0.678759 129 85 69
-0.020847 -0.391135 0.678476 132 101 88
-0.019073 -0.391310 0.678193 137 106 93
-0.029048 -0.392989 0.682695 124 100 86
-0.026799 -0.392246 0.681972 141 117 103
