ply
format ascii 1.0
element vertex 1110
property float x
property float y
property float z
property uchar red
property uchar green
property uchar blue
end_header
-0.068063 0.059827 0.685000 138 112 101
-0.066192 0.059739 0.684000 131 105 94
-0.064421 0.059739 0.684000 132 96 84
-0.062650 0.059739 0.684000 125 89 77
-0.060879 0.059739 0.684000 124 83 73
-0.059108 0.059739 0.684000 116 75 65
-0.057336 0.059739 0.684000 122 80 68
-0.055565 0.059739 0.684000 132 90 78
-0.053794 0.059739 0.684000 139 97 85
-0.052099 0.059827 0.685000 146 104 92
-0.050325 0.059827 0.685000 152 112 99
-0.048551 0.059827 0.685000 168 128 115
-0.046777 0.059827 0.685000 162 133 123
-0.075158 0.061603 0.685000 131 101 94
-0.073384 0.061603 0.685000 120 90 83
-0.071610 0.061603 0.685000 127 87 74
-0.069735 0.061513 0.684000 126 86 73
-0.067964 0.061513 0.684000 125 74 58
-0.066192 0.061513 0.684000 119 68 52
-0.064421 0.061513 0.684000 125 68 49
-0.062650 0.061513 0.684000 125 68 49
-0.060879 0.061513 0.684000 122 65 46
-0.059108 0.061513 0.684000 120 63 44
-0.057336 0.061513 0.684000 121 62 44
-0.055565 0.061513 0.684000 127 68 50
-0.053794 0.061513 0.684000 130 68 49
-0.052023 0.061513 0.684000 132 70 51
-0.050325 0.061603 0.685000 132 71 49
-0.048551 0.061603 0.685000 134 73 51
-0.046777 0.061603 0.685000 137 84 69
-0.045004 0.061603 0.685000 151 98 83
-0.043230 0.061603 0.685000 153 113 100
-0.041456 0.061603 0.685000 147 107 94
-0.039740 0.061693 0.686000 154 129 122
-0.078706 0.063379 0.685000 125 91 83
-0.076932 0.063379 0.685000 112 78 70
-0.075158 0.063379 0.685000 120 69 55
-0.073384 0.063379 0.685000 118 67 53
-0.071610 0.063379 0.685000 120 61 43
-0.069735 0.063286 0.684000 123 64 46
-0.067964 0.063286 0.684000 127 63 45
-0.066192 0.063286 0.684000 127 63 45
-0.064421 0.063286 0.684000 127 65 46
-0.062650 0.063286 0.684000 126 64 45
-0.060879 0.063286 0.684000 125 63 44
-0.059108 0.063286 0.684000 123 61 42
-0.057336 0.063286 0.684000 125 63 44
-0.055565 0.063286 0.684000 125 63 44
-0.053794 0.063286 0.684000 126 65 43
-0.052099 0.063379 0.685000 126 65 43
-0.050325 0.063379 0.685000 129 68 46
-0.048551 0.063379 0.685000 133 72 50
-0.046777 0.063379 0.685000 135 72 51
-0.045004 0.063379 0.685000 136 73 52
-0.043230 0.063379 0.685000 135 71 53
-0.041456 0.063379 0.685000 145 81 63
-0.039740 0.063471 0.686000 147 96 82
-0.037964 0.063471 0.686000 160 109 95
-0.036135 0.063379 0.685000 158 127 118
-0.084150 0.065250 0.686000 121 96 89
-0.082373 0.065250 0.686000 116 78 69
-0.080479 0.065155 0.685000 110 72 63
-0.078706 0.065155 0.685000 121 70 52
-0.076932 0.065155 0.685000 117 66 48
-0.075158 0.065155 0.685000 126 64 45
-0.073384 0.065155 0.685000 126 64 45
-0.071610 0.065155 0.685000 125 63 44
-0.069837 0.065155 0.685000 125 63 44
-0.068063 0.065155 0.685000 123 64 44
-0.066192 0.065060 0.684000 120 61 41
-0.064421 0.065060 0.684000 119 62 43
-0.062650 0.065060 0.684000 119 62 43
-0.060879 0.065060 0.684000 112 59 42
-0.059108 0.065060 0.684000 113 60 43
-0.057336 0.065060 0.684000 115 64 48
-0.055565 0.065060 0.684000 115 64 48
-0.053794 0.065060 0.684000 115 64 46
-0.052099 0.065155 0.685000 117 66 48
-0.050325 0.065155 0.685000 116 63 46
-0.048551 0.065155 0.685000 118 65 48
-0.046777 0.065155 0.685000 125 66 48
-0.045004 0.065155 0.685000 127 68 50
-0.043230 0.065155 0.685000 129 65 47
-0.041517 0.065250 0.686000 136 72 54
-0.039740 0.065250 0.686000 138 74 56
-0.037909 0.065155 0.685000 140 76 58
-0.036135 0.065155 0.685000 139 83 69
-0.034361 0.065155 0.685000 145 89 75
-0.032587 0.065155 0.685000 135 99 89
-0.030813 0.065155 0.685000 151 115 105
-0.085926 0.067029 0.686000 127 85 73
-0.084150 0.067029 0.686000 115 73 61
-0.082373 0.067029 0.686000 123 67 51
-0.080479 0.066931 0.685000 122 66 50
-0.078706 0.066931 0.685000 126 65 43
-0.076932 0.066931 0.685000 126 65 43
-0.075158 0.066931 0.685000 126 65 43
-0.073384 0.066931 0.685000 126 65 43
-0.071610 0.066931 0.685000 123 66 45
-0.069837 0.066931 0.685000 125 68 47
-0.068063 0.066931 0.685000 127 79 62
-0.066289 0.066931 0.685000 137 89 72
-0.064421 0.066834 0.684000 133 93 78
-0.062650 0.066834 0.684000 132 92 77
-0.060879 0.066834 0.684000 123 89 77
-0.059194 0.066931 0.685000 121 87 75
-0.057420 0.066931 0.685000 118 87 76
-0.055646 0.066931 0.685000 118 87 76
-0.053873 0.066931 0.685000 117 86 75
-0.052099 0.066931 0.685000 106 75 64
-0.050325 0.066931 0.685000 108 73 58
-0.048551 0.066931 0.685000 106 71 56
-0.046777 0.066931 0.685000 114 68 52
-0.045004 0.066931 0.685000 111 65 49
-0.043230 0.066931 0.685000 117 61 45
-0.041517 0.067029 0.686000 121 65 49
-0.039682 0.066931 0.685000 126 64 45
-0.037909 0.066931 0.685000 128 66 47
-0.036135 0.066931 0.685000 140 74 54
-0.034361 0.066931 0.685000 143 77 57
-0.032587 0.066931 0.685000 138 79 61
-0.030813 0.066931 0.685000 149 90 72
-0.029040 0.066931 0.685000 156 115 107
-0.027226 0.066834 0.684000 168 127 119
-0.089479 0.068808 0.686000 129 87 75
-0.087702 0.068808 0.686000 120 78 66
-0.085926 0.068808 0.686000 127 70 51
-0.084150 0.068808 0.686000 126 69 50
-0.082373 0.068808 0.686000 131 65 45
-0.080597 0.068808 0.686000 128 62 42
-0.078706 0.068707 0.685000 123 62 40
-0.076932 0.068707 0.685000 123 62 40
-0.075158 0.068707 0.685000 122 69 52
-0.073384 0.068707 0.685000 133 80 63
-0.071610 0.068707 0.685000 135 93 79
-0.069837 0.068707 0.685000 141 99 85
-0.046846 0.068808 0.686000 126 97 85
-0.045069 0.068808 0.686000 117 88 76
-0.043293 0.068808 0.686000 118 78 63
-0.041517 0.068808 0.686000 107 67 52
-0.039740 0.068808 0.686000 113 62 44
-0.037909 0.068707 0.685000 115 64 46
-0.036135 0.068707 0.685000 123 62 40
-0.034361 0.068707 0.685000 127 66 44
-0.032587 0.068707 0.685000 138 72 50
-0.030813 0.068707 0.685000 140 74 52
-0.029040 0.068707 0.685000 142 78 60
-0.027266 0.068707 0.685000 148 84 66
-0.025492 0.068707 0.685000 149 103 95
-0.023718 0.068707 0.685000 166 120 112
-0.093167 0.070689 0.687000 132 92 79
-0.091388 0.070689 0.687000 117 77 64
-0.089479 0.070586 0.686000 127 70 51
-0.087702 0.070586 0.686000 124 67 48
-0.085926 0.070586 0.686000 128 62 42
-0.084150 0.070586 0.686000 130 64 44
-0.082373 0.070586 0.686000 128 64 46
-0.080597 0.070586 0.686000 130 66 48
-0.078820 0.070586 0.686000 131 80 66
-0.077044 0.070586 0.686000 143 92 78
-0.075268 0.070586 0.686000 142 106 96
-0.039740 0.070586 0.686000 120 89 76
-0.037964 0.070586 0.686000 113 82 69
-0.036135 0.070483 0.685000 116 70 52
-0.034361 0.070483 0.685000 107 61 43
-0.032587 0.070483 0.685000 123 64 44
-0.030813 0.070483 0.685000 124 65 45
-0.029040 0.070483 0.685000 135 69 49
-0.027266 0.070483 0.685000 140 74 54
-0.025492 0.070483 0.685000 144 80 64
-0.023718 0.070483 0.685000 150 86 70
-0.021945 0.070483 0.685000 150 101 91
-0.020171 0.070483 0.685000 167 118 108
-0.096725 0.072471 0.687000 135 98 84
-0.094946 0.072471 0.687000 123 86 72
-0.093167 0.072471 0.687000 125 68 49
-0.091388 0.072471 0.687000 122 65 46
-0.089609 0.072471 0.687000 127 65 46
-0.087830 0.072471 0.687000 125 63 44
-0.086051 0.072471 0.687000 122 60 41
-0.084272 0.072471 0.687000 126 64 45
-0.082493 0.072471 0.687000 130 77 64
-0.080714 0.072471 0.687000 146 93 80
-0.078820 0.072365 0.686000 139 105 95
-0.034411 0.072365 0.686000 119 88 75
-0.032635 0.072365 0.686000 116 70 54
-0.030858 0.072365 0.686000 111 65 49
-0.029082 0.072365 0.686000 119 62 43
-0.027306 0.072365 0.686000 122 65 46
-0.025529 0.072365 0.686000 131 67 51
-0.023753 0.072365 0.686000 137 73 57
-0.021977 0.072365 0.686000 142 78 62
-0.020200 0.072365 0.686000 149 85 69
-0.018424 0.072365 0.686000 145 98 87
-0.016647 0.072365 0.686000 167 120 109
-0.014849 0.072260 0.685000 162 137 128
-0.098504 0.074252 0.687000 121 87 77
-0.096725 0.074252 0.687000 127 71 55
-0.094946 0.074252 0.687000 124 68 52
-0.093167 0.074252 0.687000 127 63 45
-0.091388 0.074252 0.687000 127 63 45
-0.089609 0.074252 0.687000 125 66 46
-0.087830 0.074252 0.687000 125 66 46
-0.086051 0.074252 0.687000 120 71 59
-0.084272 0.074252 0.687000 139 90 78
-0.082493 0.074252 0.687000 142 108 100
-0.030858 0.074144 0.686000 121 90 79
-0.029082 0.074144 0.686000 116 71 58
-0.027306 0.074144 0.686000 106 61 48
-0.025529 0.074144 0.686000 117 61 45
-0.023753 0.074144 0.686000 121 65 49
-0.021977 0.074144 0.686000 128 66 49
-0.020230 0.074252 0.687000 133 71 54
-0.018451 0.074252 0.687000 140 73 58
-0.016647 0.074144 0.686000 153 86 71
-0.014871 0.074144 0.686000 150 103 90
-0.013095 0.074144 0.686000 172 125 112
-0.011302 0.074036 0.685000 159 137 127
-0.102062 0.076033 0.687000 118 88 81
-0.100283 0.076033 0.687000 128 75 60
-0.098504 0.076033 0.687000 118 65 50
-0.096725 0.076033 0.687000 128 64 46
-0.094946 0.076033 0.687000 127 63 45
-0.093167 0.076033 0.687000 126 64 45
-0.091388 0.076033 0.687000 127 65 46
-0.089609 0.076033 0.687000 121 75 59
-0.087958 0.076144 0.688000 142 96 80
-0.086177 0.076144 0.688000 138 109 99
-0.027306 0.075923 0.686000 120 91 79
-0.025529 0.075923 0.686000 119 74 61
-0.023753 0.075923 0.686000 107 62 49
-0.022009 0.076033 0.687000 117 61 45
-0.020230 0.076033 0.687000 120 64 48
-0.018451 0.076033 0.687000 126 59 42
-0.016672 0.076033 0.687000 137 70 53
-0.014871 0.075923 0.686000 142 78 62
-0.013095 0.075923 0.686000 154 90 74
-0.011318 0.075923 0.686000 155 110 99
-0.009542 0.075923 0.686000 155 110 99
-0.007754 0.075812 0.685000 145 124 119
-0.105774 0.077928 0.688000 104 82 74
-0.103841 0.077815 0.687000 129 82 69
-0.102062 0.077815 0.687000 116 69 56
-0.100283 0.077815 0.687000 128 66 47
-0.098504 0.077815 0.687000 125 63 44
-0.096725 0.077815 0.687000 123 61 42
-0.094946 0.077815 0.687000 123 61 42
-0.093303 0.077928 0.688000 122 70 59
-0.091521 0.077928 0.688000 139 87 76
-0.089740 0.077928 0.688000 140 110 103
-0.023788 0.077815 0.687000 126 97 85
-0.022009 0.077815 0.687000 119 77 63
-0.020259 0.077928 0.688000 105 63 49
-0.018478 0.077928 0.688000 116 59 40
-0.016696 0.077928 0.688000 118 61 42
-0.014893 0.077815 0.687000 124 60 44
-0.013095 0.077701 0.686000 131 67 51
-0.011318 0.077701 0.686000 138 79 61
-0.009542 0.077701 0.686000 144 85 67
-0.007766 0.077701 0.686000 141 98 89
-0.005989 0.077701 0.686000 150 107 98
-0.109337 0.079712 0.688000 117 95 87
-0.107555 0.079712 0.688000 123 83 70
-0.105774 0.079712 0.688000 110 70 57
-0.103992 0.079712 0.688000 124 65 47
-0.102062 0.079596 0.687000 120 61 43
-0.100429 0.079712 0.688000 127 63 45
-0.098647 0.079712 0.688000 126 62 44
-0.096866 0.079712 0.688000 120 67 54
-0.095084 0.079712 0.688000 139 86 73
-0.093303 0.079712 0.688000 142 107 102
-0.020259 0.079712 0.688000 124 98 87
-0.018478 0.079712 0.688000 125 83 69
-0.016696 0.079712 0.688000 108 66 52
-0.014914 0.079712 0.688000 118 61 42
-0.013114 0.079596 0.687000 123 66 47
-0.011335 0.079596 0.687000 132 70 51
-0.009556 0.079596 0.687000 139 77 58
-0.007766 0.079480 0.686000 144 85 67
-0.005989 0.079480 0.686000 145 86 68
-0.004213 0.079480 0.686000 140 102 93
-0.002436 0.079480 0.686000 153 115 106
-0.111118 0.081496 0.688000 126 88 77
-0.109337 0.081496 0.688000 118 80 69
-0.107555 0.081496 0.688000 121 65 49
-0.105774 0.081496 0.688000 121 65 49
-0.103992 0.081496 0.688000 126 64 45
-0.102210 0.081496 0.688000 127 65 46
-0.100429 0.081496 0.688000 126 68 52
-0.098647 0.081496 0.688000 139 81 65
-0.096866 0.081496 0.688000 137 99 92
-0.016696 0.081496 0.688000 125 96 84
-0.014914 0.081496 0.688000 117 73 57
-0.013133 0.081496 0.688000 110 66 50
-0.011335 0.081377 0.687000 117 62 43
-0.009556 0.081377 0.687000 117 62 43
-0.007777 0.081377 0.687000 132 70 51
-0.005989 0.081259 0.686000 140 78 59
-0.004213 0.081259 0.686000 138 82 66
-0.002440 0.081377 0.687000 148 92 76
-0.000661 0.081377 0.687000 139 101 92
0.001118 0.081377 0.687000 156 118 109
-0.114681 0.083279 0.688000 131 95 83
-0.113064 0.083401 0.689000 121 85 73
-0.111118 0.083279 0.688000 127 69 53
-0.109337 0.083279 0.688000 123 65 49
-0.107555 0.083279 0.688000 127 63 45
-0.105774 0.083279 0.688000 123 59 41
-0.103992 0.083279 0.688000 123 65 51
-0.102210 0.083279 0.688000 138 80 66
-0.100575 0.083401 0.689000 142 99 90
-0.013133 0.083279 0.688000 119 90 76
-0.011351 0.083279 0.688000 111 70 53
-0.009570 0.083279 0.688000 104 63 46
-0.007777 0.083158 0.687000 115 60 41
-0.005998 0.083158 0.687000 121 66 47
-0.004219 0.083158 0.687000 130 71 51
-0.002440 0.083158 0.687000 142 83 63
0.001120 0.083279 0.688000 147 94 77
0.002901 0.083279 0.688000 151 117 109
0.004683 0.083279 0.688000 165 131 123
-0.118416 0.085187 0.689000 130 96 84
-0.116632 0.085187 0.689000 118 84 72
-0.114848 0.085187 0.689000 130 72 56
-0.113064 0.085187 0.689000 126 68 52
-0.111280 0.085187 0.689000 132 62 46
-0.109496 0.085187 0.689000 131 61 45
-0.107711 0.085187 0.689000 123 61 44
-0.105927 0.085187 0.689000 128 66 49
-0.104143 0.085187 0.689000 138 93 82
-0.102359 0.085187 0.689000 150 105 94
-0.009570 0.085063 0.688000 117 88 76
-0.007777 0.084940 0.687000 118 77 60
-0.005998 0.084940 0.687000 106 65 48
-0.004219 0.084940 0.687000 116 64 44
-0.002440 0.084940 0.687000 115 63 43
0.001120 0.085063 0.688000 142 83 63
0.002901 0.085063 0.688000 146 93 76
0.004683 0.085063 0.688000 153 100 83
0.006464 0.085063 0.688000 147 116 107
-0.121985 0.086974 0.689000 125 99 88
-0.120200 0.086974 0.689000 123 97 86
-0.118416 0.086974 0.689000 120 69 53
-0.116632 0.086974 0.689000 118 67 51
-0.114848 0.086974 0.689000 133 63 47
-0.113064 0.086974 0.689000 132 62 46
-0.111280 0.086974 0.689000 127 63 47
-0.109496 0.086974 0.689000 130 66 50
-0.107711 0.086974 0.689000 136 87 75
-0.105927 0.086974 0.689000 152 103 91
-0.005998 0.086721 0.687000 113 84 72
-0.004219 0.086721 0.687000 116 72 54
-0.002440 0.086721 0.687000 108 64 46
0.001120 0.086847 0.688000 123 68 47
0.002901 0.086847 0.688000 142 80 61
0.004683 0.086847 0.688000 146 84 65
0.006464 0.086847 0.688000 146 93 78
0.008258 0.086974 0.689000 149 96 81
0.010042 0.086974 0.689000 145 115 108
-0.125553 0.088760 0.689000 125 99 88
-0.123769 0.088760 0.689000 124 98 87
-0.121985 0.088760 0.689000 128 82 66
-0.120200 0.088760 0.689000 121 75 59
-0.118416 0.088760 0.689000 127 65 46
-0.116632 0.088760 0.689000 126 64 45
-0.114848 0.088760 0.689000 128 61 44
-0.113064 0.088760 0.689000 129 62 45
-0.111280 0.088760 0.689000 135 79 67
-0.109496 0.088760 0.689000 155 99 87
-0.000662 0.088631 0.688000 111 65 47
0.001120 0.088631 0.688000 111 65 47
0.002901 0.088631 0.688000 125 68 47
0.004683 0.088631 0.688000 127 70 49
0.006474 0.088760 0.689000 145 81 63
0.008258 0.088760 0.689000 155 91 73
0.010042 0.088760 0.689000 145 94 80
0.011826 0.088760 0.689000 155 104 90
0.013610 0.088760 0.689000 148 118 113
-0.129121 0.090547 0.689000 127 98 88
-0.127337 0.090547 0.689000 129 100 90
-0.125553 0.090547 0.689000 130 81 69
-0.123769 0.090547 0.689000 118 69 57
-0.121985 0.090547 0.689000 129 65 47
-0.120200 0.090547 0.689000 130 66 48
-0.118416 0.090547 0.689000 128 65 44
-0.116632 0.090547 0.689000 127 64 43
-0.114848 0.090547 0.689000 133 75 61
-0.113064 0.090547 0.689000 148 90 76
-0.111441 0.090678 0.690000 149 111 104
0.001120 0.090415 0.688000 115 81 69
0.002901 0.090415 0.688000 112 61 43
0.004683 0.090415 0.688000 109 58 40
0.006474 0.090547 0.689000 123 61 42
0.008258 0.090547 0.689000 135 73 54
0.010042 0.090547 0.689000 147 83 65
0.011826 0.090547 0.689000 151 87 69
0.013610 0.090547 0.689000 150 98 87
0.015394 0.090547 0.689000 162 110 99
0.017178 0.090547 0.689000 150 123 117
-0.132689 0.092333 0.689000 133 102 91
-0.130905 0.092333 0.689000 128 97 86
-0.129121 0.092333 0.689000 133 80 67
-0.127337 0.092333 0.689000 120 67 54
-0.125553 0.092333 0.689000 130 67 46
-0.123769 0.092333 0.689000 130 67 46
-0.121985 0.092333 0.689000 129 63 43
-0.120200 0.092333 0.689000 126 60 40
-0.118416 0.092333 0.689000 129 71 55
-0.116632 0.092333 0.689000 141 83 67
-0.115015 0.092467 0.690000 148 107 99
0.004683 0.092199 0.688000 111 75 63
0.006474 0.092333 0.689000 115 64 48
0.008258 0.092333 0.689000 114 63 47
0.010042 0.092333 0.689000 125 63 46
0.011826 0.092333 0.689000 137 75 58
0.013630 0.092467 0.690000 145 81 65
0.015417 0.092467 0.690000 151 87 71
0.017178 0.092333 0.689000 154 102 91
0.018963 0.092333 0.689000 163 111 100
0.020747 0.092333 0.689000 161 136 129
-0.136455 0.094256 0.690000 134 100 90
-0.134474 0.094120 0.689000 128 94 84
-0.132689 0.094120 0.689000 131 80 64
-0.130905 0.094120 0.689000 122 71 55
-0.129121 0.094120 0.689000 124 60 42
-0.127337 0.094120 0.689000 129 65 47
-0.125553 0.094120 0.689000 129 63 43
-0.123769 0.094120 0.689000 128 62 42
-0.121985 0.094120 0.689000 122 65 46
-0.120375 0.094256 0.690000 136 79 60
-0.118588 0.094256 0.690000 140 102 91
0.008258 0.094120 0.689000 113 78 63
0.010042 0.094120 0.689000 113 62 46
0.011843 0.094256 0.690000 111 60 44
0.013630 0.094256 0.690000 124 65 47
0.015417 0.094256 0.690000 135 76 58
0.017203 0.094256 0.690000 149 85 67
0.018963 0.094120 0.689000 152 88 70
0.020747 0.094120 0.689000 149 102 91
0.022498 0.093983 0.688000 166 119 108
-0.140029 0.096045 0.690000 138 102 90
-0.138242 0.096045 0.690000 130 94 82
-0.136455 0.096045 0.690000 133 82 64
-0.134474 0.095906 0.689000 125 74 56
-0.132689 0.095906 0.689000 130 69 47
-0.130905 0.095906 0.689000 128 67 45
-0.129121 0.095906 0.689000 126 63 42
-0.127337 0.095906 0.689000 123 60 39
-0.125553 0.095906 0.689000 120 62 46
-0.123948 0.096045 0.690000 136 78 62
-0.122162 0.096045 0.690000 137 97 84
-0.120375 0.096045 0.690000 148 108 95
0.010042 0.095906 0.689000 122 85 69
0.011843 0.096045 0.690000 109 72 56
0.013630 0.096045 0.690000 114 63 47
0.015417 0.096045 0.690000 111 60 44
0.017203 0.096045 0.690000 127 65 48
0.018963 0.095906 0.689000 140 78 61
0.020747 0.095906 0.689000 149 87 70
0.022531 0.095906 0.689000 160 98 81
0.024280 0.095767 0.688000 147 106 96
0.026061 0.095767 0.688000 151 110 100
-0.143811 0.097976 0.691000 134 100 88
-0.141816 0.097834 0.690000 129 95 83
-0.140029 0.097834 0.690000 132 79 62
-0.138242 0.097834 0.690000 122 69 52
-0.136455 0.097834 0.690000 127 66 44
-0.134669 0.097834 0.690000 128 67 45
-0.132689 0.097693 0.689000 126 65 43
-0.130905 0.097693 0.689000 121 60 38
-0.129309 0.097834 0.690000 121 66 47
-0.127522 0.097834 0.690000 128 73 54
-0.125735 0.097834 0.690000 134 92 80
-0.123948 0.097834 0.690000 143 101 89
0.013630 0.097834 0.690000 123 86 70
0.015417 0.097834 0.690000 110 73 57
0.017203 0.097834 0.690000 111 58 41
0.018990 0.097834 0.690000 114 61 44
0.020777 0.097834 0.690000 130 66 50
0.022531 0.097693 0.689000 147 83 67
0.024315 0.097693 0.689000 148 88 75
0.026099 0.097693 0.689000 154 94 81
0.027843 0.097551 0.688000 144 103 95
0.029624 0.097551 0.688000 170 129 121
-0.147389 0.099768 0.691000 133 99 87
-0.145600 0.099768 0.691000 129 95 83
-0.143811 0.099768 0.691000 134 79 60
-0.141816 0.099623 0.690000 125 70 51
-0.140029 0.099623 0.690000 128 62 38
-0.138242 0.099623 0.690000 128 62 38
-0.136455 0.099623 0.690000 126 63 40
-0.134669 0.099623 0.690000 124 61 38
-0.132882 0.099623 0.690000 120 68 48
-0.131095 0.099623 0.690000 130 78 58
-0.129309 0.099623 0.690000 132 95 81
-0.127522 0.099623 0.690000 139 102 88
0.017203 0.099623 0.690000 121 81 66
0.018990 0.099623 0.690000 105 65 50
0.020777 0.099623 0.690000 110 54 40
0.022564 0.099623 0.690000 114 58 44
0.024315 0.099479 0.689000 128 63 50
0.026099 0.099479 0.689000 144 79 66
0.027883 0.099479 0.689000 147 87 72
0.029667 0.099479 0.689000 149 89 74
0.031452 0.099479 0.689000 155 112 105
0.033236 0.099479 0.689000 170 127 120
-0.150968 0.101559 0.691000 139 103 91
-0.149178 0.101559 0.691000 127 91 79
-0.147389 0.101559 0.691000 123 67 51
-0.145600 0.101559 0.691000 121 65 49
-0.143811 0.101559 0.691000 132 66 44
-0.142021 0.101559 0.691000 129 63 41
-0.140232 0.101559 0.691000 128 62 38
-0.138242 0.101412 0.690000 124 58 34
-0.136455 0.101412 0.690000 116 61 42
-0.134669 0.101412 0.690000 125 70 51
-0.132882 0.101412 0.690000 130 92 81
-0.131095 0.101412 0.690000 143 105 94
0.020777 0.101412 0.690000 124 84 69
0.022564 0.101412 0.690000 107 67 52
0.024350 0.101412 0.690000 120 62 46
0.026137 0.101412 0.690000 123 65 49
0.027883 0.101266 0.689000 135 71 55
0.029667 0.101266 0.689000 144 80 64
0.031452 0.101266 0.689000 154 94 79
0.033236 0.101266 0.689000 155 95 80
0.035071 0.101412 0.690000 153 117 109
0.036857 0.101412 0.690000 167 131 123
-0.154546 0.103351 0.691000 137 101 89
-0.152757 0.103351 0.691000 122 86 74
-0.150968 0.103351 0.691000 129 73 57
-0.149178 0.103351 0.691000 125 69 53
-0.147389 0.103351 0.691000 127 64 43
-0.145600 0.103351 0.691000 126 63 42
-0.143811 0.103351 0.691000 126 63 42
-0.142021 0.103351 0.691000 124 61 40
-0.140232 0.103351 0.691000 122 67 48
-0.138443 0.103351 0.691000 135 80 61
-0.136653 0.103351 0.691000 132 94 83
-0.134864 0.103351 0.691000 139 101 90
0.024350 0.103202 0.690000 113 71 57
0.026137 0.103202 0.690000 105 63 49
0.027924 0.103202 0.690000 115 59 43
0.029711 0.103202 0.690000 123 67 51
0.031497 0.103202 0.690000 141 77 61
0.033284 0.103202 0.690000 147 83 67
0.035071 0.103202 0.690000 148 92 78
0.038700 0.103351 0.691000 158 126 120
-0.158354 0.105295 0.692000 142 104 93
-0.156336 0.105143 0.691000 126 88 77
-0.154546 0.105143 0.691000 128 72 58
-0.152757 0.105143 0.691000 124 68 54
-0.150968 0.105143 0.691000 129 65 47
-0.149178 0.105143 0.691000 127 63 45
-0.147389 0.105143 0.691000 126 63 42
-0.145600 0.105143 0.691000 124 61 40
-0.143811 0.105143 0.691000 122 66 50
-0.142021 0.105143 0.691000 131 75 59
-0.140232 0.105143 0.691000 128 90 79
0.027924 0.104991 0.690000 114 70 54
0.029754 0.105143 0.691000 104 60 44
0.031543 0.105143 0.691000 112 54 38
0.033332 0.105143 0.691000 119 61 45
0.035122 0.105143 0.691000 142 78 62
0.036911 0.105143 0.691000 152 88 72
0.038700 0.105143 0.691000 152 100 89
0.040489 0.105143 0.691000 163 111 100
0.042279 0.105143 0.691000 165 138 132
-0.163730 0.107089 0.692000 125 107 96
-0.161938 0.107089 0.692000 138 98 85
-0.160146 0.107089 0.692000 126 86 73
-0.158125 0.106935 0.691000 128 68 53
-0.156336 0.106935 0.691000 123 63 48
-0.154546 0.106935 0.691000 128 64 48
-0.152757 0.106935 0.691000 127 63 47
-0.150968 0.106935 0.691000 123 59 41
-0.149178 0.106935 0.691000 121 57 39
-0.147389 0.106935 0.691000 120 67 52
-0.145600 0.106935 0.691000 136 83 68
-0.143811 0.106935 0.691000 139 103 93
0.029754 0.106935 0.691000 115 86 74
0.031543 0.106935 0.691000 109 62 49
0.033332 0.106935 0.691000 108 61 48
0.035122 0.106935 0.691000 117 57 42
0.036911 0.106935 0.691000 127 67 52
0.038700 0.106935 0.691000 147 83 65
0.040489 0.106935 0.691000 156 92 74
0.042279 0.106935 0.691000 154 105 95
0.044132 0.107089 0.692000 162 113 103
0.045924 0.107089 0.692000 157 134 129
-0.167313 0.108884 0.692000 127 107 97
-0.165522 0.108884 0.692000 138 98 83
-0.163730 0.108884 0.692000 124 84 69
-0.161938 0.108884 0.692000 131 72 54
-0.159914 0.108726 0.691000 126 67 49
-0.158125 0.108726 0.691000 121 57 39
-0.156336 0.108726 0.691000 123 59 41
-0.154546 0.108726 0.691000 120 57 43
-0.152757 0.108726 0.691000 123 60 46
-0.150968 0.108726 0.691000 116 63 50
-0.149178 0.108726 0.691000 137 84 71
-0.147389 0.108726 0.691000 143 107 97
0.033332 0.108726 0.691000 113 77 67
0.035122 0.108726 0.691000 114 63 47
0.036911 0.108726 0.691000 109 58 42
0.038700 0.108726 0.691000 125 63 44
0.040489 0.108726 0.691000 136 74 55
0.042340 0.108884 0.692000 154 92 75
0.044132 0.108884 0.692000 163 101 84
0.045924 0.108884 0.692000 154 111 102
0.047785 0.109041 0.693000 167 124 115
-0.172939 0.110838 0.693000 129 108 95
-0.171144 0.110838 0.693000 129 108 95
-0.169105 0.110678 0.692000 133 93 78
-0.167313 0.110678 0.692000 124 84 69
-0.165522 0.110678 0.692000 129 72 51
-0.163730 0.110678 0.692000 123 66 45
-0.161704 0.110518 0.691000 128 65 44
-0.159914 0.110518 0.691000 124 61 40
-0.158125 0.110518 0.691000 117 55 36
-0.156336 0.110518 0.691000 119 57 38
-0.154546 0.110518 0.691000 121 69 58
-0.152757 0.110518 0.691000 135 83 72
-0.150968 0.110518 0.691000 136 102 94
0.036911 0.110518 0.691000 115 78 64
0.038700 0.110518 0.691000 112 59 42
0.040489 0.110518 0.691000 112 59 42
0.042340 0.110678 0.692000 126 64 45
0.044132 0.110678 0.692000 139 77 58
0.045924 0.110678 0.692000 153 93 78
0.047785 0.110838 0.693000 162 102 87
0.049579 0.110838 0.693000 162 126 118
0.051448 0.110998 0.694000 167 131 123
-0.176273 0.112472 0.692000 134 113 98
-0.174481 0.112472 0.692000 129 108 93
-0.172689 0.112472 0.692000 135 91 75
-0.170897 0.112472 0.692000 122 78 62
-0.169105 0.112472 0.692000 129 73 49
-0.167313 0.112472 0.692000 126 70 46
-0.165282 0.112310 0.691000 127 64 41
-0.163493 0.112310 0.691000 127 64 41
-0.161704 0.112310 0.691000 124 65 45
-0.159914 0.112310 0.691000 123 64 44
-0.158125 0.112310 0.691000 116 67 55
-0.156336 0.112310 0.691000 129 80 68
-0.154546 0.112310 0.691000 137 105 99
0.038700 0.112310 0.691000 123 83 68
0.040548 0.112472 0.692000 110 70 55
0.042340 0.112472 0.692000 112 57 38
0.044132 0.112472 0.692000 116 61 42
0.045924 0.112472 0.692000 133 69 51
0.047785 0.112635 0.693000 151 87 69
0.049579 0.112635 0.693000 156 100 86
0.051448 0.112797 0.694000 165 109 95
0.053322 0.112960 0.695000 156 131 124
-0.181911 0.114432 0.693000 127 113 105
-0.180117 0.114432 0.693000 134 108 95
-0.178065 0.114266 0.692000 128 102 89
-0.176273 0.114266 0.692000 133 85 68
-0.174481 0.114266 0.692000 125 77 60
-0.172689 0.114266 0.692000 130 69 47
-0.170897 0.114266 0.692000 126 65 43
-0.169105 0.114266 0.692000 129 66 43
-0.167313 0.114266 0.692000 124 61 38
-0.165282 0.114101 0.691000 119 60 40
-0.163493 0.114101 0.691000 125 66 46
-0.159914 0.114101 0.691000 134 89 76
-0.158125 0.114101 0.691000 132 105 97
0.042340 0.114266 0.692000 123 79 63
0.044132 0.114266 0.692000 108 64 48
0.045990 0.114432 0.693000 116 56 41
0.047785 0.114432 0.693000 123 63 48
0.049579 0.114432 0.693000 147 82 69
0.051448 0.114597 0.694000 155 90 77
0.053245 0.114597 0.694000 145 102 93
0.055121 0.114762 0.695000 164 121 112
-0.185500 0.116228 0.693000 129 109 101
-0.183706 0.116228 0.693000 134 103 90
-0.181911 0.116228 0.693000 125 94 81
-0.179857 0.116061 0.692000 129 81 62
-0.178065 0.116061 0.692000 123 75 56
-0.176273 0.116061 0.692000 131 65 45
-0.174481 0.116061 0.692000 129 63 43
-0.172689 0.116061 0.692000 130 64 44
-0.170897 0.116061 0.692000 128 62 42
-0.169105 0.116061 0.692000 118 61 40
-0.167313 0.116061 0.692000 124 67 46
-0.165522 0.116061 0.692000 123 78 65
-0.163730 0.116061 0.692000 136 91 78
-0.161938 0.116061 0.692000 136 109 101
0.044196 0.116228 0.693000 120 86 74
0.045990 0.116228 0.693000 111 63 48
0.047785 0.116228 0.693000 107 59 44
0.049579 0.116228 0.693000 125 65 52
0.051448 0.116396 0.694000 138 78 65
0.053245 0.116396 0.694000 145 92 86
0.055121 0.116564 0.695000 150 97 91
-0.191159 0.118196 0.694000 124 102 94
-0.189089 0.118025 0.693000 126 104 96
-0.187295 0.118025 0.693000 135 98 84
-0.185500 0.118025 0.693000 124 87 73
-0.183706 0.118025 0.693000 124 74 53
-0.181649 0.117855 0.692000 120 70 49
-0.179857 0.117855 0.692000 129 68 44
-0.178065 0.117855 0.692000 127 66 42
-0.176273 0.117855 0.692000 127 64 41
-0.174481 0.117855 0.692000 127 64 41
-0.172689 0.117855 0.692000 122 65 44
-0.170897 0.117855 0.692000 123 66 45
-0.169105 0.117855 0.692000 126 84 70
-0.167313 0.117855 0.692000 140 98 84
-0.165522 0.117855 0.692000 136 110 99
0.047785 0.118025 0.693000 113 77 65
0.049579 0.118025 0.693000 110 61 49
0.051448 0.118196 0.694000 112 63 51
0.053245 0.118196 0.694000 115 72 67
0.055042 0.118196 0.694000 140 97 92
-0.194753 0.119995 0.694000 125 96 86
-0.192956 0.119995 0.694000 123 94 84
-0.190884 0.119822 0.693000 128 83 70
-0.189089 0.119822 0.693000 122 77 64
-0.187295 0.119822 0.693000 124 69 50
-0.185500 0.119822 0.693000 120 65 46
-0.183441 0.119649 0.692000 129 68 46
-0.181649 0.119649 0.692000 128 67 45
-0.179857 0.119649 0.692000 127 66 42
-0.178065 0.119649 0.692000 122 61 37
-0.176273 0.119649 0.692000 124 67 46
-0.174481 0.119649 0.692000 127 70 49
-0.172689 0.119649 0.692000 131 89 75
-0.170897 0.119649 0.692000 141 99 85
0.049651 0.119995 0.694000 120 86 76
0.051448 0.119995 0.694000 98 64 54
0.053245 0.119995 0.694000 96 66 61
0.055042 0.119995 0.694000 136 106 101
-0.200721 0.122145 0.696000 119 97 89
-0.198633 0.121970 0.695000 128 91 77
-0.196550 0.121794 0.694000 125 88 74
-0.194753 0.121794 0.694000 131 80 64
-0.192678 0.121619 0.693000 127 76 60
-0.190884 0.121619 0.693000 128 69 49
-0.189089 0.121619 0.693000 127 68 48
-0.187024 0.121443 0.692000 127 66 44
-0.185233 0.121443 0.692000 126 65 43
-0.183441 0.121443 0.692000 120 61 41
-0.181649 0.121443 0.692000 119 60 40
-0.179857 0.121443 0.692000 118 68 47
-0.178065 0.121443 0.692000 127 77 56
-0.176273 0.121443 0.692000 131 95 83
-0.174481 0.121443 0.692000 145 109 97
-0.204326 0.123950 0.696000 122 97 88
-0.202524 0.123950 0.696000 130 85 72
-0.200433 0.123772 0.695000 123 78 65
-0.198348 0.123594 0.694000 126 69 50
-0.196550 0.123594 0.694000 130 73 54
-0.194473 0.123416 0.693000 131 68 47
-0.192678 0.123416 0.693000 128 65 44
-0.190884 0.123416 0.693000 123 62 40
-0.189089 0.123416 0.693000 123 62 40
-0.187024 0.123238 0.692000 118 61 42
-0.185233 0.123238 0.692000 118 61 42
-0.183441 0.123238 0.692000 121 75 59
-0.181649 0.123238 0.692000 135 89 73
-0.179857 0.123238 0.692000 134 103 92
-0.178065 0.123238 0.692000 137 106 95
-0.209733 0.125755 0.696000 126 95 86
-0.207931 0.125755 0.696000 120 89 80
-0.206128 0.125755 0.696000 126 78 63
-0.204326 0.125755 0.696000 124 76 61
-0.202524 0.125755 0.696000 128 70 47
-0.200433 0.125574 0.695000 128 70 47
-0.198348 0.125393 0.694000 131 65 43
-0.196550 0.125393 0.694000 130 64 42
-0.194473 0.125213 0.693000 128 62 42
-0.192678 0.125213 0.693000 126 60 40
-0.190884 0.125213 0.693000 121 66 47
-0.189089 0.125213 0.693000 125 70 51
-0.187295 0.125213 0.693000 125 83 71
-0.185500 0.125213 0.693000 135 93 81
-0.183706 0.125213 0.693000 131 105 94
-0.215140 0.127559 0.696000 122 104 95
-0.213337 0.127559 0.696000 122 86 76
-0.211535 0.127559 0.696000 121 85 75
-0.209733 0.127559 0.696000 129 76 63
-0.207931 0.127559 0.696000 127 74 61
-0.206128 0.127559 0.696000 127 64 43
-0.204326 0.127559 0.696000 128 65 44
-0.202233 0.127376 0.695000 127 64 43
-0.200433 0.127376 0.695000 126 63 42
-0.198348 0.127193 0.694000 123 62 40
-0.196550 0.127193 0.694000 120 59 37
-0.194473 0.127010 0.693000 121 68 51
-0.192678 0.127010 0.693000 132 79 62
-0.190884 0.127010 0.693000 131 96 81
-0.189089 0.127010 0.693000 136 101 86
-0.218430 0.129178 0.695000 119 99 89
-0.216630 0.129178 0.695000 124 87 73
-0.215140 0.129364 0.696000 118 81 67
-0.213337 0.129364 0.696000 124 68 52
-0.211535 0.129364 0.696000 130 74 58
-0.209733 0.129364 0.696000 128 67 45
-0.207931 0.129364 0.696000 125 64 42
-0.206128 0.129364 0.696000 121 60 38
-0.204326 0.129364 0.696000 122 61 39
-0.202524 0.129364 0.696000 119 60 40
-0.200433 0.129178 0.695000 121 62 42
-0.198633 0.129178 0.695000 130 82 67
-0.196550 0.128992 0.694000 140 92 77
-0.194753 0.128992 0.694000 134 103 92
-0.221710 0.130792 0.694000 122 100 90
-0.219913 0.130792 0.694000 121 81 68
-0.218116 0.130792 0.694000 125 85 72
-0.216630 0.130980 0.695000 130 74 58
-0.214830 0.130980 0.695000 128 72 56
-0.213031 0.130980 0.695000 127 65 46
-0.211231 0.130980 0.695000 126 64 45
-0.209733 0.131169 0.696000 122 60 41
-0.207931 0.131169 0.696000 121 59 40
-0.206128 0.131169 0.696000 118 63 44
-0.204326 0.131169 0.696000 124 69 50
-0.202524 0.131169 0.696000 131 89 75
-0.200721 0.131169 0.696000 136 94 80
-0.198633 0.130980 0.695000 134 105 95
-0.225304 0.132591 0.694000 121 99 89
-0.223507 0.132591 0.694000 127 85 71
-0.221710 0.132591 0.694000 122 80 66
-0.219913 0.132591 0.694000 132 73 53
-0.218116 0.132591 0.694000 130 71 51
-0.216318 0.132591 0.694000 130 64 44
-0.214521 0.132591 0.694000 128 62 42
-0.213031 0.132782 0.695000 122 61 39
-0.211231 0.132782 0.695000 120 59 37
-0.209733 0.132973 0.696000 115 64 46
-0.207931 0.132973 0.696000 129 78 60
-0.206128 0.132973 0.696000 137 99 88
-0.204326 0.132973 0.696000 138 100 89
-0.231360 0.134778 0.696000 129 104 97
-0.229558 0.134778 0.696000 120 95 88
-0.227428 0.134584 0.695000 124 79 66
-0.225304 0.134391 0.694000 119 74 61
-0.223507 0.134391 0.694000 130 71 53
-0.221710 0.134391 0.694000 127 68 50
-0.219913 0.134391 0.694000 131 65 45
-0.218116 0.134391 0.694000 125 59 39
-0.216318 0.134391 0.694000 119 57 38
-0.214521 0.134391 0.694000 122 60 41
-0.213031 0.134584 0.695000 120 72 55
-0.211535 0.134778 0.696000 133 85 68
-0.209733 0.134778 0.696000 134 100 90
-0.207931 0.134778 0.696000 139 105 95
-0.235302 0.136779 0.697000 127 97 90
-0.233497 0.136779 0.697000 118 88 81
-0.231360 0.136583 0.696000 123 77 61
-0.229558 0.136583 0.696000 119 73 57
-0.227428 0.136386 0.695000 130 68 49
-0.225304 0.136190 0.694000 128 66 47
-0.223507 0.136190 0.694000 126 62 44
-0.221710 0.136190 0.694000 123 59 41
-0.219913 0.136190 0.694000 121 59 42
-0.218116 0.136190 0.694000 125 63 46
-0.216318 0.136190 0.694000 125 77 62
-0.214521 0.136190 0.694000 137 89 74
-0.213031 0.136386 0.695000 139 108 99
-0.241407 0.138984 0.699000 126 112 104
-0.239255 0.138785 0.698000 132 101 90
-0.237447 0.138785 0.698000 119 88 77
-0.235302 0.138586 0.697000 121 70 54
-0.233162 0.138387 0.696000 122 71 55
-0.231360 0.138387 0.696000 130 69 45
-0.229228 0.138188 0.695000 130 69 45
-0.227428 0.138188 0.695000 127 64 43
-0.225304 0.137990 0.694000 124 61 40
-0.223507 0.137990 0.694000 123 64 46
-0.221710 0.137990 0.694000 125 66 48
-0.219913 0.137990 0.694000 129 82 71
-0.218116 0.137990 0.694000 144 97 86
-0.245027 0.140796 0.699000 126 106 96
-0.243217 0.140796 0.699000 120 86 74
-0.241062 0.140595 0.698000 112 78 66
-0.239255 0.140595 0.698000 122 71 55
-0.237447 0.140595 0.698000 124 73 57
-0.235302 0.140393 0.697000 130 67 46
-0.233162 0.140192 0.696000 127 64 43
-0.231360 0.140192 0.696000 126 63 40
-0.229558 0.140192 0.696000 124 61 38
-0.227428 0.139991 0.695000 120 63 42
-0.225304 0.139789 0.694000 125 68 47
-0.223507 0.139789 0.694000 127 82 71
-0.221710 0.139789 0.694000 140 95 84
-0.250458 0.142609 0.699000 134 110 98
-0.248648 0.142609 0.699000 124 100 88
-0.246838 0.142609 0.699000 123 84 66
-0.245027 0.142609 0.699000 117 78 60
-0.243217 0.142609 0.699000 122 72 51
-0.241062 0.142405 0.698000 124 74 53
-0.239255 0.142405 0.698000 130 69 47
-0.237447 0.142405 0.698000 127 66 44
-0.235302 0.142201 0.697000 126 65 43
-0.233162 0.141997 0.696000 125 64 42
-0.231360 0.141997 0.696000 118 63 42
-0.229558 0.141997 0.696000 130 75 54
-0.227755 0.141997 0.696000 134 94 81
-0.225629 0.141793 0.695000 144 104 91
-0.254078 0.144421 0.699000 133 104 90
-0.252268 0.144421 0.699000 116 87 73
-0.250458 0.144421 0.699000 119 73 53
-0.248648 0.144421 0.699000 117 71 51
-0.246484 0.144214 0.698000 126 70 46
-0.244677 0.144214 0.698000 126 70 46
-0.242870 0.144214 0.698000 126 68 43
-0.241062 0.144214 0.698000 121 63 38
-0.239255 0.144214 0.698000 122 66 42
-0.237107 0.144008 0.697000 123 67 43
-0.234965 0.143801 0.696000 112 61 45
-0.233162 0.143801 0.696000 132 81 65
-0.231360 0.143801 0.696000 137 103 93
-0.229558 0.143801 0.696000 139 105 95
-0.259137 0.146024 0.698000 129 107 99
-0.257329 0.146024 0.698000 131 94 80
-0.255522 0.146024 0.698000 119 82 68
-0.253714 0.146024 0.698000 121 71 50
-0.251907 0.146024 0.698000 121 71 50
-0.250099 0.146024 0.698000 127 69 46
-0.248292 0.146024 0.698000 126 68 45
-0.246484 0.146024 0.698000 125 67 44
-0.244677 0.146024 0.698000 124 66 43
-0.242870 0.146024 0.698000 117 62 41
-0.241062 0.146024 0.698000 120 65 44
-0.239255 0.146024 0.698000 121 75 59
-0.237447 0.146024 0.698000 132 86 70
-0.235302 0.145815 0.697000 130 100 93
-0.262751 0.147834 0.698000 118 98 90
-0.260944 0.147834 0.698000 129 87 75
-0.259137 0.147834 0.698000 115 73 61
-0.257329 0.147834 0.698000 118 66 46
-0.255522 0.147834 0.698000 122 70 50
-0.253714 0.147834 0.698000 125 67 42
-0.251907 0.147834 0.698000 125 67 42
-0.250099 0.147834 0.698000 122 66 40
-0.248292 0.147834 0.698000 118 62 36
-0.246484 0.147834 0.698000 114 62 42
-0.244677 0.147834 0.698000 125 73 53
-0.242870 0.147834 0.698000 128 86 72
-0.241062 0.147834 0.698000 136 94 80
-0.239255 0.147834 0.698000 130 103 95
-0.267790 0.149430 0.697000 124 99 92
-0.265985 0.149430 0.697000 117 92 85
-0.264559 0.149644 0.698000 118 76 64
-0.262375 0.149430 0.697000 112 70 58
-0.260570 0.149430 0.697000 124 69 50
-0.258765 0.149430 0.697000 123 68 49
-0.256960 0.149430 0.697000 125 67 44
-0.255156 0.149430 0.697000 123 65 42
-0.253714 0.149644 0.698000 122 66 42
-0.251907 0.149644 0.698000 119 63 39
-0.250099 0.149644 0.698000 117 69 52
-0.248292 0.149644 0.698000 129 81 64
-0.246484 0.149644 0.698000 136 98 87
-0.244677 0.149644 0.698000 138 100 89
-0.271010 0.151020 0.696000 133 102 93
-0.269208 0.151020 0.696000 120 89 80
-0.267405 0.151020 0.696000 121 74 61
-0.265603 0.151020 0.696000 119 72 59
-0.263801 0.151020 0.696000 125 68 49
-0.261999 0.151020 0.696000 124 67 48
-0.260570 0.151237 0.697000 122 65 44
-0.258765 0.151237 0.697000 122 65 44
-0.256960 0.151237 0.697000 117 62 41
-0.255156 0.151237 0.697000 117 62 41
-0.253351 0.151237 0.697000 113 69 53
-0.251907 0.151454 0.698000 128 84 68
-0.250099 0.151454 0.698000 131 102 92
-0.248292 0.151454 0.698000 137 108 98
-0.276417 0.152824 0.696000 126 105 100
-0.274614 0.152824 0.696000 124 88 80
-0.272420 0.152605 0.695000 114 78 70
-0.271010 0.152824 0.696000 121 70 56
-0.269208 0.152824 0.696000 121 70 56
-0.267405 0.152824 0.696000 123 64 44
-0.265603 0.152824 0.696000 123 64 44
-0.263801 0.152824 0.696000 121 62 42
-0.261999 0.152824 0.696000 120 61 41
-0.260196 0.152824 0.696000 119 67 47
-0.258394 0.152824 0.696000 122 70 50
-0.256592 0.152824 0.696000 116 79 63
-0.254789 0.152824 0.696000 130 93 77
-0.253351 0.153044 0.697000 134 109 102
-0.280021 0.154629 0.696000 124 102 94
-0.278219 0.154629 0.696000 120 80 67
-0.276417 0.154629 0.696000 116 76 63
-0.274614 0.154629 0.696000 122 69 54
-0.272420 0.154407 0.695000 120 67 52
-0.271010 0.154629 0.696000 125 66 46
-0.269208 0.154629 0.696000 121 62 42
-0.267405 0.154629 0.696000 120 61 41
-0.265603 0.154629 0.696000 119 60 40
-0.263801 0.154629 0.696000 117 66 50
-0.261999 0.154629 0.696000 120 69 53
-0.260196 0.154629 0.696000 121 85 73
-0.258394 0.154629 0.696000 136 100 88
-0.256592 0.154629 0.696000 130 112 103
-0.283626 0.156434 0.696000 123 97 86
-0.281823 0.156434 0.696000 126 81 68
-0.280021 0.156434 0.696000 120 75 62
-0.278219 0.156434 0.696000 120 64 48
-0.276417 0.156434 0.696000 123 67 51
-0.274614 0.156434 0.696000 126 67 47
-0.272812 0.156434 0.696000 123 64 44
-0.271010 0.156434 0.696000 120 61 41
-0.269208 0.156434 0.696000 123 64 44
-0.267405 0.156434 0.696000 117 69 54
-0.265603 0.156434 0.696000 125 77 62
-0.263801 0.156434 0.696000 124 93 84
-0.261622 0.156209 0.695000 140 109 100
-0.289033 0.158238 0.696000 128 97 84
-0.287230 0.158238 0.696000 127 96 83
-0.285428 0.158238 0.696000 124 76 59
-0.283626 0.158238 0.696000 119 71 54
-0.281823 0.158238 0.696000 128 66 49
-0.280021 0.158238 0.696000 125 63 46
-0.278219 0.158238 0.696000 120 61 43
-0.276417 0.158238 0.696000 117 58 40
-0.274614 0.158238 0.696000 120 64 48
-0.272812 0.158238 0.696000 118 62 46
-0.271010 0.158238 0.696000 119 72 59
-0.269208 0.158238 0.696000 126 79 66
-0.267405 0.158238 0.696000 129 99 92
-0.292217 0.159813 0.695000 133 96 82
-0.290417 0.159813 0.695000 118 81 67
-0.288617 0.159813 0.695000 119 66 49
-0.286818 0.159813 0.695000 121 68 51
-0.285428 0.160043 0.696000 130 71 53
-0.283626 0.160043 0.696000 126 67 49
-0.281823 0.160043 0.696000 123 61 44
-0.280021 0.160043 0.696000 117 55 38
-0.278219 0.160043 0.696000 110 54 40
-0.276814 0.160273 0.697000 118 62 48
-0.275009 0.160273 0.697000 126 84 72
-0.272812 0.160043 0.696000 131 89 77
-0.271010 0.160043 0.696000 134 104 97
-0.297187 0.161383 0.694000 126 101 92
-0.295390 0.161383 0.694000 126 86 71
-0.293593 0.161383 0.694000 120 80 65
-0.291796 0.161383 0.694000 127 70 51
-0.290417 0.161615 0.695000 124 67 48
-0.288617 0.161615 0.695000 128 66 47
-0.287230 0.161848 0.696000 128 66 47
-0.285428 0.161848 0.696000 126 64 45
-0.283626 0.161848 0.696000 122 60 41
-0.281823 0.161848 0.696000 118 65 50
-0.280424 0.162080 0.697000 122 69 54
-0.278619 0.162080 0.697000 130 94 84
-0.276814 0.162080 0.697000 139 103 93
-0.302579 0.163182 0.694000 131 105 94
-0.300782 0.163182 0.694000 125 99 88
-0.298985 0.163182 0.694000 125 84 67
-0.297187 0.163182 0.694000 122 81 64
-0.295390 0.163182 0.694000 127 70 49
-0.293593 0.163182 0.694000 125 68 47
-0.291796 0.163182 0.694000 128 65 42
-0.290417 0.163417 0.695000 127 64 41
-0.289033 0.163652 0.696000 121 62 42
-0.287230 0.163652 0.696000 121 62 42
-0.285428 0.163652 0.696000 118 67 51
-0.284033 0.163888 0.697000 132 81 65
-0.282633 0.164123 0.698000 136 100 90
-0.281228 0.164358 0.699000 136 100 90
-0.307938 0.165932 0.698000 133 102 91
-0.305253 0.165457 0.696000 121 90 79
-0.303015 0.165219 0.695000 123 75 58
-0.300782 0.164982 0.694000 122 74 57
-0.298985 0.164982 0.694000 129 73 49
-0.297187 0.164982 0.694000 126 70 46
-0.295390 0.164982 0.694000 123 65 40
-0.293593 0.164982 0.694000 123 65 40
-0.292217 0.165219 0.695000 120 63 42
-0.290835 0.165457 0.696000 118 61 40
-0.289448 0.165695 0.697000 120 76 60
-0.288056 0.165932 0.698000 135 91 75
-0.286248 0.165932 0.698000 132 103 93
-0.310633 0.168223 0.700000 100 83 69
-0.307938 0.167742 0.698000 111 65 47
-0.305253 0.167262 0.696000 115 69 51
-0.303451 0.167262 0.696000 123 64 44
-0.301215 0.167021 0.695000 125 66 46
-0.299415 0.167021 0.695000 125 67 44
-0.298044 0.167262 0.696000 125 67 44
-0.296242 0.167262 0.696000 120 68 48
-0.294439 0.167262 0.696000 121 69 49
-0.292637 0.167262 0.696000 130 90 77
-0.291253 0.167502 0.697000 140 100 87
-0.289863 0.167742 0.698000 134 108 97
-0.310633 0.170038 0.700000 90 69 54
-0.308379 0.169795 0.699000 115 62 45
-0.306130 0.169552 0.698000 115 62 45
-0.303887 0.169309 0.697000 120 63 42
-0.301648 0.169066 0.696000 122 65 44
-0.299846 0.169066 0.696000 113 66 44
-0.298044 0.169066 0.696000 119 72 50
-0.296242 0.169066 0.696000 129 92 78
-0.294862 0.169309 0.697000 139 102 88
-0.311076 0.172099 0.701000 88 69 54
-0.308379 0.171607 0.699000 103 62 45
-0.306569 0.171607 0.699000 105 64 47
-0.304323 0.171362 0.698000 117 73 57
-0.302082 0.171117 0.697000 129 85 69
-0.300277 0.171117 0.697000 132 101 88
-0.298472 0.171117 0.697000 137 106 93
-0.308820 0.173668 0.700000 124 100 86
-0.306569 0.173420 0.699000 141 117 103
