ply
format ascii 1.0
element vertex 774
property float x
property float y
property float z
property uchar red
property uchar green
property uchar blue
end_header
0.187671 -0.594047 0.776933 124 112 112
0.189946 -0.594271 0.776570 136 114 116
0.185783 -0.593563 0.779567 107 92 91
0.188059 -0.593787 0.779204 108 93 92
0.190456 -0.593067 0.778390 100 67 66
0.192848 -0.592347 0.777576 105 72 71
0.195119 -0.592571 0.777214 152 119 118
0.186298 -0.592360 0.781384 102 83 79
0.188695 -0.591641 0.780567 91 72 68
0.190965 -0.591865 0.780204 92 51 45
0.193236 -0.592088 0.779842 92 51 45
0.195506 -0.592312 0.779479 136 101 96
0.184413 -0.591877 0.784014 97 85 85
0.186812 -0.591158 0.783195 97 69 66
0.189083 -0.591382 0.782832 88 60 57
0.191353 -0.591606 0.782470 96 49 38
0.193623 -0.591829 0.782107 112 65 54
0.195893 -0.592053 0.781745 177 145 139
0.182528 -0.591394 0.786645 106 94 92
0.184929 -0.590676 0.785823 84 72 70
0.187200 -0.590899 0.785460 100 64 56
0.189470 -0.591123 0.785098 92 56 48
0.191740 -0.591347 0.784735 106 59 46
0.194010 -0.591570 0.784373 152 105 92
0.196280 -0.591794 0.784010 188 161 153
0.183047 -0.590193 0.788451 95 79 74
0.185317 -0.590417 0.788088 83 67 62
0.187587 -0.590640 0.787726 102 57 46
0.189857 -0.590864 0.787363 102 57 46
0.192127 -0.591088 0.787001 118 76 64
0.194398 -0.591311 0.786638 186 144 132
0.180898 -0.591593 0.792010 106 101 97
0.183304 -0.590876 0.791181 95 68 62
0.185704 -0.590158 0.790354 91 64 58
0.187974 -0.590381 0.789991 105 57 42
0.190244 -0.590605 0.789629 112 64 49
0.192515 -0.590828 0.789266 163 125 114
0.194785 -0.591052 0.788903 194 156 145
0.179011 -0.591109 0.794644 119 110 105
0.181287 -0.591333 0.794280 88 79 74
0.183692 -0.590616 0.793449 96 58 47
0.186091 -0.589899 0.792619 95 57 46
0.188362 -0.590122 0.792256 112 65 52
0.190632 -0.590346 0.791894 149 102 89
0.192782 -0.591512 0.791998 184 153 144
0.179400 -0.590850 0.796914 102 86 79
0.181675 -0.591074 0.796551 85 69 62
0.184079 -0.590357 0.795717 106 61 48
0.186479 -0.589640 0.794884 107 62 49
0.188749 -0.589863 0.794522 135 93 79
0.190897 -0.591029 0.794628 186 144 130
0.177240 -0.592246 0.800496 103 96 90
0.179788 -0.590590 0.799185 98 69 59
0.182063 -0.590814 0.798821 97 68 58
0.184467 -0.590098 0.797985 108 60 43
0.186740 -0.590322 0.797622 116 68 51
0.189012 -0.590545 0.797259 170 135 120
0.175487 -0.590822 0.802659 119 103 98
0.177765 -0.591046 0.802295 89 73 68
0.180176 -0.590331 0.801455 102 60 48
0.182451 -0.590555 0.801092 100 58 46
0.184855 -0.589838 0.800253 109 65 49
0.187127 -0.590062 0.799890 159 115 99
0.189400 -0.590286 0.799527 186 162 150
0.173457 -0.591276 0.805776 122 112 110
0.175875 -0.590562 0.804932 98 68 63
0.178289 -0.589847 0.804089 90 60 55
0.180564 -0.590071 0.803726 108 60 45
0.182839 -0.590295 0.803362 112 64 49
0.185242 -0.589579 0.802521 152 115 101
0.187515 -0.589803 0.802158 195 158 144
-0.159087 -0.566792 0.865361 106 107 98
-0.156784 -0.567019 0.864993 128 110 99
-0.155484 -0.569051 0.865706 138 120 109
-0.153175 -0.569279 0.865337 149 122 114
-0.150867 -0.569506 0.864968 155 128 120
0.171566 -0.590792 0.808416 127 111 108
0.173986 -0.590078 0.807569 92 76 73
0.176402 -0.589363 0.806723 99 56 47
0.178677 -0.589587 0.806360 105 62 53
0.180952 -0.589811 0.805996 111 63 48
0.183227 -0.590036 0.805633 147 99 84
0.185630 -0.589320 0.804789 184 155 145
-0.160997 -0.566302 0.868027 88 84 75
-0.158694 -0.566529 0.867659 85 81 72
-0.157398 -0.568561 0.868378 107 73 63
-0.155090 -0.568788 0.868009 107 73 63
-0.152782 -0.569016 0.867641 124 77 64
-0.150473 -0.569243 0.867272 137 90 77
-0.148165 -0.569470 0.866903 145 103 91
-0.145857 -0.569698 0.866535 155 113 101
-0.143548 -0.569925 0.866166 158 122 110
-0.141240 -0.570152 0.865797 160 124 112
-0.137965 -0.568571 0.864349 155 129 118
0.169674 -0.590307 0.811055 121 113 110
0.172097 -0.589593 0.810206 103 78 71
0.174515 -0.588879 0.809357 92 67 60
0.176790 -0.589104 0.808994 107 56 42
0.179065 -0.589328 0.808630 113 62 48
0.181472 -0.588613 0.807783 133 91 77
0.183875 -0.587897 0.806937 184 142 128
-0.159313 -0.568070 0.871050 78 71 61
-0.157005 -0.568297 0.870681 98 69 57
-0.154696 -0.568525 0.870313 101 72 60
-0.152388 -0.568752 0.869944 115 69 53
-0.150079 -0.568980 0.869576 119 73 57
-0.147771 -0.569207 0.869207 121 68 51
-0.145463 -0.569434 0.868838 122 69 52
-0.143154 -0.569662 0.868470 130 74 60
-0.140846 -0.569889 0.868101 138 82 68
-0.138538 -0.570116 0.867732 143 96 83
-0.136229 -0.570344 0.867364 159 112 99
-0.132965 -0.568762 0.865912 161 123 114
-0.130662 -0.568989 0.865544 163 125 116
-0.128359 -0.569216 0.865176 162 131 122
0.170208 -0.589109 0.812843 98 87 82
0.172627 -0.588396 0.811991 103 65 56
0.174903 -0.588620 0.811628 100 62 53
0.177315 -0.587906 0.810777 107 59 44
0.179587 -0.588130 0.810414 133 85 70
0.181992 -0.587415 0.809565 172 138 126
-0.156611 -0.568034 0.872985 89 71 60
-0.154302 -0.568261 0.872616 80 62 51
-0.151994 -0.568489 0.872248 95 60 45
-0.149686 -0.568716 0.871879 102 67 52
-0.147377 -0.568944 0.871510 110 64 46
-0.145069 -0.569171 0.871142 114 68 50
-0.142761 -0.569398 0.870773 123 70 53
-0.140452 -0.569626 0.870404 126 73 56
-0.138144 -0.569853 0.870036 128 72 56
-0.135835 -0.570080 0.869667 130 74 58
-0.133527 -0.570308 0.869299 137 81 69
-0.131219 -0.570535 0.868930 138 82 70
-0.128910 -0.570763 0.868561 140 89 75
-0.125662 -0.569180 0.867107 153 102 88
-0.123359 -0.569407 0.866739 163 116 105
-0.121056 -0.569633 0.866371 172 125 114
-0.117828 -0.568049 0.864920 168 130 119
-0.115530 -0.568275 0.864553 171 133 122
0.168465 -0.587688 0.814988 104 81 76
0.170740 -0.587912 0.814625 86 63 58
0.173157 -0.587199 0.813771 111 62 50
0.175569 -0.586485 0.812918 107 58 46
0.177839 -0.586708 0.812555 126 79 66
0.180109 -0.586932 0.812193 182 135 122
-0.149292 -0.568453 0.874183 92 77 65
-0.146983 -0.568680 0.873814 99 70 56
-0.144675 -0.568907 0.873445 95 66 52
-0.142367 -0.569135 0.873077 95 59 40
-0.140058 -0.569362 0.872708 95 59 40
-0.137750 -0.569590 0.872339 107 61 43
-0.135442 -0.569817 0.871971 108 62 44
-0.133133 -0.570044 0.871602 117 66 50
-0.130825 -0.570272 0.871233 121 70 54
-0.128517 -0.570499 0.870865 127 71 57
-0.126208 -0.570727 0.870496 128 72 58
-0.123900 -0.570954 0.870128 129 71 57
-0.120663 -0.569371 0.868670 138 80 66
-0.118360 -0.569598 0.868302 141 85 71
-0.116056 -0.569824 0.867934 146 90 76
-0.113753 -0.570051 0.867566 152 103 91
-0.111450 -0.570278 0.867198 165 116 104
-0.109147 -0.570505 0.866830 165 129 119
-0.106843 -0.570732 0.866463 169 133 123
-0.104540 -0.570959 0.866095 161 132 122
0.166578 -0.587204 0.817622 102 91 84
0.168853 -0.587428 0.817259 99 63 53
0.171272 -0.586715 0.816402 98 62 52
0.173686 -0.586002 0.815546 112 60 49
0.175956 -0.586226 0.815183 126 74 63
0.178226 -0.586449 0.814821 171 133 122
-0.139665 -0.569099 0.875012 102 87 75
-0.137356 -0.569326 0.874643 100 74 59
-0.135048 -0.569554 0.874274 89 63 48
-0.132739 -0.569781 0.873906 96 61 44
-0.130431 -0.570009 0.873537 101 66 49
-0.128123 -0.570236 0.873168 108 64 48
-0.125814 -0.570463 0.872800 106 62 46
-0.123506 -0.570691 0.872431 117 66 48
-0.121198 -0.570918 0.872062 121 70 52
-0.118889 -0.571145 0.871694 128 72 56
-0.116581 -0.571373 0.871325 129 73 57
-0.113360 -0.569789 0.869864 134 75 57
-0.111057 -0.570015 0.869497 137 78 60
-0.108754 -0.570242 0.869129 136 80 64
-0.107347 -0.572282 0.869851 143 87 71
-0.105039 -0.572510 0.869482 143 96 83
-0.102731 -0.572737 0.869113 154 107 94
-0.100422 -0.572965 0.868745 159 116 107
-0.098114 -0.573192 0.868376 167 124 115
-0.095806 -0.573419 0.868007 165 131 123
-0.093497 -0.573647 0.867639 164 130 122
0.164691 -0.586720 0.820256 112 91 86
0.166966 -0.586945 0.819893 90 69 64
0.169387 -0.586232 0.819033 104 55 43
0.171803 -0.585520 0.818174 108 59 47
0.174073 -0.585743 0.817811 119 74 63
0.176343 -0.585967 0.817449 165 120 109
0.178613 -0.586190 0.817086 183 158 149
-0.128200 -0.570877 0.876023 106 82 68
-0.125421 -0.570200 0.875103 98 74 60
-0.123112 -0.570427 0.874735 99 66 51
-0.120804 -0.570655 0.874366 97 64 49
-0.118495 -0.570882 0.873997 100 59 42
-0.116187 -0.571110 0.873629 103 62 45
-0.113879 -0.571337 0.873260 108 60 41
-0.111570 -0.571564 0.872891 110 62 43
-0.109262 -0.571792 0.872523 113 60 43
-0.106954 -0.572019 0.872154 119 66 49
-0.104645 -0.572246 0.871786 123 67 51
-0.102337 -0.572474 0.871417 128 72 56
-0.100029 -0.572701 0.871048 128 72 58
-0.097720 -0.572929 0.870680 132 76 62
-0.095847 -0.574063 0.870856 140 87 74
-0.093536 -0.574291 0.870487 147 94 81
-0.091656 -0.575427 0.870663 145 98 85
-0.089342 -0.575655 0.870293 153 106 93
-0.087029 -0.575882 0.869924 155 114 104
-0.084715 -0.576110 0.869554 162 121 111
-0.082402 -0.576338 0.869185 162 128 118
-0.079671 -0.575657 0.868273 164 130 120
0.162804 -0.586237 0.822890 104 93 88
0.165079 -0.586461 0.822526 106 70 60
0.167354 -0.586685 0.822163 98 62 52
0.169775 -0.585973 0.821301 107 58 46
0.172190 -0.585261 0.820439 127 78 66
0.174460 -0.585484 0.820077 151 115 103
0.176731 -0.585708 0.819714 189 153 141
-0.118562 -0.571523 0.876853 112 94 83
-0.115793 -0.570846 0.875932 103 85 74
-0.113485 -0.571074 0.875564 103 74 60
-0.111177 -0.571301 0.875195 98 69 55
-0.108868 -0.571528 0.874826 101 64 48
-0.106560 -0.571756 0.874458 101 64 48
-0.104252 -0.571983 0.874089 107 61 45
-0.102386 -0.573117 0.874269 112 66 50
-0.100075 -0.573345 0.873900 119 68 52
-0.097764 -0.573572 0.873531 118 67 51
-0.095888 -0.574707 0.873710 122 69 52
-0.093574 -0.574935 0.873341 127 74 57
-0.091691 -0.576071 0.873518 129 73 57
-0.089375 -0.576299 0.873148 127 71 55
-0.087059 -0.576527 0.872779 128 72 56
-0.084743 -0.576755 0.872409 134 78 62
-0.082007 -0.576074 0.871493 138 82 68
-0.079694 -0.576302 0.871124 141 85 71
-0.076966 -0.575621 0.870210 144 96 81
-0.074243 -0.574939 0.869297 150 102 87
-0.071934 -0.575167 0.868928 152 111 101
-0.069626 -0.575394 0.868559 160 119 109
-0.066509 -0.573801 0.867105 159 128 119
0.160917 -0.585753 0.825524 112 89 84
0.163192 -0.585977 0.825160 91 68 63
0.165467 -0.586201 0.824797 108 59 47
0.167890 -0.585490 0.823932 110 61 49
0.170162 -0.585714 0.823569 114 67 54
0.172577 -0.585002 0.822705 161 114 101
0.174848 -0.585225 0.822342 180 155 146
-0.106613 -0.572398 0.877314 113 98 86
-0.104302 -0.572626 0.876945 113 89 75
-0.101991 -0.572853 0.876576 100 76 62
-0.099681 -0.573081 0.876207 100 67 52
-0.097807 -0.574215 0.876388 98 65 50
-0.095493 -0.574443 0.876019 102 63 45
-0.093612 -0.575578 0.876199 110 71 53
-0.091296 -0.575806 0.875829 107 63 45
-0.088980 -0.576034 0.875460 112 68 50
-0.086664 -0.576263 0.875090 122 71 53
-0.084348 -0.576491 0.874720 125 74 56
-0.081613 -0.575810 0.873802 127 71 55
-0.079299 -0.576038 0.873433 125 69 53
-0.076571 -0.575357 0.872516 130 73 54
-0.073849 -0.574676 0.871600 131 74 55
-0.071541 -0.574903 0.871232 130 74 58
-0.069232 -0.575131 0.870863 134 78 62
-0.066924 -0.575358 0.870494 137 84 71
-0.063813 -0.573765 0.869036 148 95 82
-0.061509 -0.573992 0.868668 151 102 92
-0.059206 -0.574219 0.868300 159 110 100
-0.056903 -0.574445 0.867932 159 118 108
-0.054600 -0.574672 0.867564 168 127 117
-0.052296 -0.574899 0.867196 162 131 122
0.159029 -0.585269 0.828157 107 91 88
0.161305 -0.585493 0.827794 102 66 56
0.163580 -0.585718 0.827431 98 62 52
0.165855 -0.585942 0.827067 107 56 42
0.168277 -0.585230 0.826200 114 63 49
0.170550 -0.585454 0.825837 153 116 102
0.172965 -0.584743 0.824970 187 150 136
-0.095099 -0.574179 0.878327 117 99 88
-0.093217 -0.575314 0.878510 107 89 78
-0.090901 -0.575542 0.878141 109 85 71
-0.088585 -0.575770 0.877771 103 79 65
-0.085845 -0.575091 0.876850 105 72 57
-0.083531 -0.575319 0.876480 105 72 57
-0.081218 -0.575547 0.876111 105 66 48
-0.078488 -0.574866 0.875191 104 65 47
-0.076177 -0.575094 0.874822 109 63 45
-0.073455 -0.574412 0.873904 112 66 48
-0.071147 -0.574640 0.873535 122 69 52
-0.068838 -0.574867 0.873167 125 72 55
-0.066530 -0.575095 0.872798 131 73 57
-0.063420 -0.573502 0.871334 134 76 60
-0.061116 -0.573729 0.870966 140 78 61
-0.058813 -0.573956 0.870598 143 81 64
-0.056510 -0.574183 0.870231 139 79 64
-0.054207 -0.574410 0.869863 139 79 64
-0.051903 -0.574637 0.869495 144 91 78
-0.049600 -0.574863 0.869127 154 101 88
-0.048063 -0.576914 0.869849 155 110 99
-0.045755 -0.577141 0.869480 159 114 103
-0.043446 -0.577368 0.869112 162 126 114
-0.041138 -0.577596 0.868743 165 129 117
-0.038830 -0.577823 0.868374 161 132 122
0.156983 -0.585719 0.831300 112 89 84
0.159261 -0.585944 0.830937 92 69 64
0.161539 -0.586168 0.830573 107 60 47
0.163968 -0.585458 0.829701 102 55 42
0.166243 -0.585682 0.829338 112 66 50
0.168519 -0.585906 0.828975 156 110 94
0.170938 -0.585195 0.828105 179 153 142
-0.080405 -0.574375 0.877866 124 105 92
-0.078094 -0.574602 0.877497 117 98 85
-0.075370 -0.573922 0.876576 115 89 74
-0.073061 -0.574149 0.876207 104 78 63
-0.070753 -0.574376 0.875839 107 72 55
-0.068445 -0.574604 0.875470 106 71 54
-0.065330 -0.573012 0.874000 109 65 49
-0.063027 -0.573239 0.873632 110 66 50
-0.060724 -0.573466 0.873265 123 70 53
-0.058420 -0.573693 0.872897 125 72 55
-0.056117 -0.573920 0.872529 132 75 56
-0.053814 -0.574147 0.872161 136 79 60
-0.051510 -0.574374 0.871793 135 75 60
-0.049978 -0.576423 0.872521 137 77 62
-0.047669 -0.576650 0.872152 134 77 58
-0.045361 -0.576878 0.871784 139 82 63
-0.043053 -0.577105 0.871415 144 88 72
-0.041119 -0.578245 0.871593 148 92 76
-0.038808 -0.578472 0.871224 145 97 82
-0.036868 -0.579612 0.871400 148 100 85
-0.034554 -0.579840 0.871030 158 113 102
-0.032241 -0.580068 0.870661 162 117 106
-0.029927 -0.580296 0.870291 161 123 112
-0.027614 -0.580524 0.869922 164 126 115
-0.025300 -0.580752 0.869552 160 129 118
0.154933 -0.586168 0.834449 104 90 86
0.157213 -0.586393 0.834085 106 70 60
0.159493 -0.586618 0.833721 100 64 54
0.161774 -0.586842 0.833357 109 58 42
0.164205 -0.586133 0.832482 117 66 50
0.166483 -0.586357 0.832118 145 105 90
0.168907 -0.585647 0.831245 188 148 133
-0.064937 -0.572750 0.876299 115 96 81
-0.062634 -0.572977 0.875931 110 91 76
-0.060331 -0.573203 0.875563 110 82 65
-0.058027 -0.573430 0.875195 101 73 56
-0.056509 -0.575477 0.875930 109 70 52
-0.054201 -0.575705 0.875562 111 72 54
-0.051892 -0.575932 0.875193 117 69 50
-0.049584 -0.576160 0.874825 112 64 45
-0.047276 -0.576387 0.874456 121 69 49
-0.045347 -0.577526 0.874637 122 70 50
-0.043036 -0.577753 0.874268 123 68 47
-0.041100 -0.578893 0.874447 129 74 53
-0.038786 -0.579121 0.874078 137 80 61
-0.036843 -0.580261 0.874256 137 80 61
-0.034527 -0.580489 0.873886 136 79 60
-0.032211 -0.580717 0.873516 134 77 58
-0.029895 -0.580945 0.873147 134 76 60
-0.027579 -0.581173 0.872777 133 75 59
-0.025263 -0.581402 0.872407 135 84 68
-0.022592 -0.580716 0.871492 143 92 76
-0.020279 -0.580944 0.871122 149 105 89
-0.017965 -0.581172 0.870753 156 112 96
-0.015652 -0.581400 0.870383 155 120 105
-0.012994 -0.580713 0.869470 159 124 109
-0.010683 -0.580940 0.869101 161 130 119
-0.008033 -0.580253 0.868189 163 132 121
0.152714 -0.587549 0.838119 113 88 81
0.155000 -0.587774 0.837754 99 74 67
0.157602 -0.586133 0.836361 112 64 49
0.159882 -0.586357 0.835996 105 57 42
0.162163 -0.586582 0.835632 112 66 50
0.164443 -0.586807 0.835268 153 107 91
0.166723 -0.587031 0.834904 180 156 142
-0.053807 -0.575441 0.877865 121 104 90
-0.051498 -0.575669 0.877497 119 90 76
-0.049575 -0.576807 0.877681 112 83 69
-0.047264 -0.577034 0.877312 111 76 59
-0.044953 -0.577262 0.876943 107 72 55
-0.043019 -0.578401 0.877125 104 63 46
-0.041079 -0.579540 0.877307 102 61 44
-0.038763 -0.579769 0.876937 110 64 46
-0.036447 -0.579997 0.876567 117 71 53
-0.034131 -0.580225 0.876198 120 69 51
-0.031815 -0.580453 0.875828 118 67 49
-0.029499 -0.580681 0.875458 125 72 55
-0.027183 -0.580909 0.875088 127 74 57
-0.024867 -0.581137 0.874718 129 73 57
-0.022551 -0.581365 0.874348 125 69 53
-0.020235 -0.581594 0.873978 131 75 59
-0.017919 -0.581822 0.873609 134 78 62
-0.015603 -0.582050 0.873239 135 79 63
-0.012944 -0.581363 0.872322 137 81 65
-0.010630 -0.581591 0.871953 140 87 70
-0.007978 -0.580904 0.871038 143 90 73
-0.005331 -0.580217 0.870124 151 104 91
-0.003023 -0.580444 0.869755 156 109 96
-0.000715 -0.580671 0.869387 160 120 107
0.001594 -0.580899 0.869018 161 121 108
0.004554 -0.579293 0.867562 158 124 114
0.006857 -0.579520 0.867195 164 130 120
0.148197 -0.588701 0.842166 121 107 103
0.150819 -0.587063 0.840764 102 88 84
0.153104 -0.587288 0.840399 111 70 60
0.155390 -0.587513 0.840034 109 68 58
0.157675 -0.587738 0.839669 111 58 43
0.159961 -0.587963 0.839304 116 63 48
0.162246 -0.588188 0.838940 153 116 100
0.164532 -0.588414 0.838575 188 151 135
-0.040684 -0.579276 0.879618 117 98 85
-0.038368 -0.579504 0.879248 114 90 76
-0.036052 -0.579732 0.878878 107 83 69
-0.033736 -0.579961 0.878509 105 75 59
-0.031420 -0.580189 0.878139 102 72 56
-0.029104 -0.580417 0.877769 109 72 56
-0.026788 -0.580645 0.877399 107 70 54
-0.024472 -0.580873 0.877029 112 68 52
-0.022156 -0.581101 0.876659 112 68 52
-0.019840 -0.581329 0.876289 115 67 50
-0.017524 -0.581558 0.875920 118 70 53
-0.015208 -0.581786 0.875550 123 70 53
-0.012892 -0.582014 0.875180 128 75 58
-0.010576 -0.582242 0.874810 131 76 57
-0.007922 -0.581555 0.873892 132 77 58
-0.005609 -0.581783 0.873523 136 79 60
-0.003295 -0.582011 0.873153 133 76 57
-0.000651 -0.581324 0.872237 137 80 61
0.001660 -0.581551 0.871868 141 84 65
0.003971 -0.581779 0.871499 146 90 74
0.006281 -0.582006 0.871130 151 95 79
0.008272 -0.583151 0.871306 152 101 85
0.010585 -0.583378 0.870937 160 109 93
0.012584 -0.584523 0.871112 159 112 99
0.014900 -0.584751 0.870742 166 119 106
0.017216 -0.584980 0.870372 162 122 109
0.019532 -0.585208 0.870002 167 127 114
0.021848 -0.585436 0.869632 165 129 119
0.024164 -0.585664 0.869262 166 130 120
0.146127 -0.589146 0.845339 116 104 102
0.148420 -0.589372 0.844972 114 89 82
0.150713 -0.589597 0.844606 99 74 67
0.153007 -0.589823 0.844240 115 64 48
0.155300 -0.590049 0.843874 115 64 48
0.157593 -0.590275 0.843508 113 65 48
0.159886 -0.590501 0.843141 152 104 87
0.162331 -0.589794 0.842257 181 152 140
-0.026393 -0.580381 0.879710 116 101 89
-0.024077 -0.580609 0.879340 117 96 83
-0.021761 -0.580837 0.878971 113 92 79
-0.019796 -0.581978 0.879153 114 83 70
-0.017477 -0.582207 0.878783 104 73 60
-0.014813 -0.581521 0.877861 105 68 52
-0.012497 -0.581750 0.877491 108 71 55
-0.010181 -0.581978 0.877121 117 76 59
-0.007865 -0.582206 0.876751 114 73 56
-0.005549 -0.582434 0.876382 119 68 50
-0.003233 -0.582662 0.876012 126 75 57
-0.000917 -0.582890 0.875642 133 76 57
0.001399 -0.583118 0.875272 133 76 57
0.003715 -0.583347 0.874902 134 77 58
0.006031 -0.583575 0.874532 139 82 63
0.008347 -0.583803 0.874162 141 84 63
0.010663 -0.584031 0.873793 141 84 63
0.012664 -0.585176 0.873970 144 85 65
0.014982 -0.585404 0.873599 141 82 62
0.017301 -0.585633 0.873229 142 83 63
0.019620 -0.585861 0.872859 146 87 67
0.021938 -0.586089 0.872489 149 89 74
0.024257 -0.586318 0.872118 155 95 80
0.026575 -0.586546 0.871748 155 102 89
0.028894 -0.586775 0.871378 163 110 97
0.031507 -0.586084 0.870464 165 118 107
0.033823 -0.586312 0.870094 171 124 113
0.036139 -0.586541 0.869724 170 129 119
0.038742 -0.585849 0.868812 173 132 122
0.041339 -0.585157 0.867900 174 140 132
0.144225 -0.588658 0.847993 117 98 94
0.146518 -0.588884 0.847627 108 89 85
0.148812 -0.589110 0.847261 111 68 59
0.151105 -0.589336 0.846895 108 65 56
0.153236 -0.590493 0.847051 112 61 45
0.155372 -0.591652 0.847206 115 64 48
0.157670 -0.591878 0.846839 151 114 98
0.159968 -0.592104 0.846472 187 150 134
-0.009786 -0.581713 0.879432 121 100 87
-0.007470 -0.581942 0.879063 113 92 79
-0.005154 -0.582170 0.878693 116 87 73
-0.003170 -0.583313 0.878875 111 82 68
-0.000522 -0.582626 0.877953 109 72 56
0.001467 -0.583769 0.878135 105 68 52
0.003785 -0.583998 0.877764 113 69 51
0.006104 -0.584226 0.877394 115 71 53
0.008422 -0.584454 0.877024 117 72 49
0.010741 -0.584683 0.876654 117 72 49
0.012745 -0.585828 0.876833 128 76 56
0.015066 -0.586056 0.876462 130 78 58
0.017387 -0.586285 0.876091 138 79 59
0.019708 -0.586514 0.875721 139 80 60
0.022029 -0.586742 0.875350 142 79 58
0.024351 -0.586971 0.874979 142 79 58
0.026672 -0.587200 0.874609 140 76 58
0.029289 -0.586510 0.873691 143 79 61
0.031608 -0.586738 0.873321 147 83 67
0.033926 -0.586967 0.872951 147 83 67
0.036534 -0.586276 0.872035 147 85 68
0.038850 -0.586504 0.871665 147 85 68
0.041450 -0.585813 0.870751 152 94 80
0.043763 -0.586041 0.870381 167 109 95
0.046355 -0.585349 0.869468 171 122 110
0.048943 -0.584656 0.868556 180 131 119
0.051251 -0.584884 0.868187 182 141 133
0.053559 -0.585111 0.867819 183 142 134
0.142149 -0.589101 0.851175 115 99 96
0.144445 -0.589327 0.850808 111 77 69
0.146571 -0.590484 0.850968 105 71 63
0.148869 -0.590710 0.850601 113 65 50
0.151167 -0.590937 0.850234 109 61 46
0.153466 -0.591163 0.849867 120 79 62
0.155445 -0.593253 0.850549 166 125 108
0.004181 -0.583733 0.880078 126 105 90
0.006178 -0.584877 0.880261 121 100 85
0.008499 -0.585106 0.879890 117 92 74
0.010820 -0.585334 0.879520 110 85 67
0.013141 -0.585563 0.879149 112 79 62
0.015462 -0.585792 0.878778 111 78 61
0.017783 -0.586020 0.878408 118 77 58
0.020104 -0.586249 0.878037 112 71 52
0.022425 -0.586477 0.877666 115 65 44
0.024747 -0.586706 0.877296 121 71 50
0.027068 -0.586935 0.876925 129 74 55
0.029685 -0.586245 0.876005 130 75 56
0.032003 -0.586474 0.875635 131 74 55
0.034322 -0.586702 0.875265 133 76 57
0.036640 -0.586931 0.874894 138 79 61
0.039245 -0.586240 0.873977 140 81 63
0.041561 -0.586468 0.873607 144 80 62
0.043877 -0.586697 0.873237 144 80 62
0.046471 -0.586005 0.872321 148 84 66
0.048785 -0.586233 0.871951 156 92 74
0.051371 -0.585541 0.871036 163 103 90
0.053682 -0.585768 0.870667 175 115 102
0.055993 -0.585996 0.870298 179 130 120
0.058570 -0.585303 0.869385 186 137 127
0.060878 -0.585530 0.869016 175 141 133
0.137949 -0.588387 0.854199 125 111 107
0.140245 -0.588613 0.853832 122 92 85
0.142541 -0.588839 0.853466 110 80 73
0.144665 -0.589995 0.853628 108 62 46
0.146963 -0.590222 0.853261 112 66 50
0.149261 -0.590448 0.852894 109 61 44
0.151232 -0.592536 0.853583 126 78 61
0.153535 -0.592763 0.853215 160 129 116
0.020500 -0.585984 0.880353 125 106 93
0.022821 -0.586213 0.879982 121 97 83
0.025142 -0.586441 0.879612 117 93 79
0.027464 -0.586670 0.879241 114 84 68
0.029785 -0.586899 0.878870 109 79 63
0.032399 -0.586209 0.877949 110 73 59
0.034717 -0.586438 0.877578 109 72 58
0.037036 -0.586666 0.877208 117 73 57
0.039355 -0.586895 0.876838 120 76 60
0.041956 -0.586204 0.875918 120 69 51
0.044272 -0.586432 0.875548 120 69 51
0.046588 -0.586660 0.875178 131 72 52
0.049179 -0.585969 0.874260 137 78 58
0.051493 -0.586197 0.873890 144 82 63
0.053806 -0.586425 0.873521 143 81 62
0.056387 -0.585732 0.872604 154 87 72
0.058698 -0.585960 0.872235 164 97 82
0.061009 -0.586187 0.871866 178 120 108
0.063320 -0.586415 0.871497 189 131 119
0.065631 -0.586643 0.871128 178 140 129
0.067942 -0.586870 0.870759 181 143 132
0.070000 -0.588020 0.870935 171 147 135
0.136227 -0.586970 0.856323 125 103 95
0.138341 -0.588125 0.856490 112 90 82
0.140461 -0.589280 0.856656 117 75 61
0.142759 -0.589507 0.856289 107 65 51
0.145057 -0.589733 0.855922 105 57 38
0.147018 -0.591820 0.856617 119 71 52
0.149322 -0.592047 0.856250 132 93 75
0.151298 -0.594135 0.856943 174 135 117
0.039750 -0.586630 0.879151 118 96 86
0.042069 -0.586858 0.878781 116 87 75
0.044387 -0.587087 0.878411 109 80 68
0.046983 -0.586396 0.877489 110 73 57
0.049299 -0.586624 0.877119 104 67 51
0.051615 -0.586852 0.876750 120 69 53
0.053931 -0.587081 0.876380 121 70 54
0.056247 -0.587309 0.876010 135 71 55
0.058828 -0.586617 0.875091 141 77 61
0.061141 -0.586844 0.874721 155 85 71
0.063455 -0.587072 0.874352 160 90 76
0.065768 -0.587300 0.873982 161 101 88
0.067827 -0.588449 0.874161 169 109 96
0.070143 -0.588678 0.873791 175 126 116
0.072459 -0.588906 0.873421 185 136 126
0.074775 -0.589134 0.873051 180 144 134
0.077091 -0.589362 0.872681 181 145 135
0.134325 -0.586482 0.858977 117 101 94
0.136618 -0.586708 0.858611 116 80 68
0.138733 -0.587863 0.858781 107 71 59
0.140853 -0.589018 0.858949 113 62 46
0.143151 -0.589244 0.858582 115 64 48
0.145108 -0.591330 0.859284 110 66 48
0.147075 -0.593417 0.859984 147 103 85
0.149383 -0.593644 0.859615 166 142 126
0.049420 -0.587279 0.879984 117 102 92
0.051738 -0.587507 0.879614 110 84 73
0.054326 -0.586816 0.878691 100 74 63
0.056642 -0.587045 0.878321 110 63 50
0.058958 -0.587273 0.877951 109 62 49
0.061274 -0.587501 0.877581 127 67 52
0.063590 -0.587729 0.877211 138 78 63
0.065906 -0.587957 0.876842 148 84 68
0.068222 -0.588185 0.876472 148 84 68
0.070538 -0.588413 0.876102 152 85 70
0.072854 -0.588642 0.875732 160 93 78
0.075170 -0.588870 0.875362 163 103 90
0.077486 -0.589098 0.874992 176 116 103
0.079802 -0.589326 0.874622 178 133 122
0.082118 -0.589554 0.874253 188 143 132
0.084434 -0.589782 0.873883 179 145 137
0.086750 -0.590010 0.873513 178 144 136
0.130318 -0.584841 0.861458 122 106 101
0.132423 -0.585995 0.861632 118 89 79
0.134716 -0.586221 0.861266 106 77 67
0.137009 -0.586447 0.860899 108 62 46
0.138947 -0.588530 0.861609 110 64 48
0.141245 -0.588756 0.861242 110 64 48
0.143198 -0.590840 0.861950 123 77 61
0.145501 -0.591067 0.861582 151 121 105
0.056771 -0.587700 0.881187 126 101 92
0.059090 -0.587928 0.880817 113 88 79
0.061669 -0.587237 0.879892 108 71 57
0.063985 -0.587465 0.879523 105 68 54
0.066301 -0.587693 0.879153 121 70 54
0.068617 -0.587921 0.878783 120 69 53
0.070933 -0.588149 0.878413 135 76 58
0.073249 -0.588377 0.878043 138 79 61
0.075319 -0.589527 0.878225 146 79 64
0.077638 -0.589755 0.877855 150 83 68
0.080197 -0.589062 0.876934 152 85 70
0.082275 -0.590212 0.877114 164 97 82
0.084829 -0.589518 0.876194 169 111 99
0.087145 -0.589746 0.875824 180 122 110
0.089461 -0.589974 0.875454 182 135 124
0.091777 -0.590202 0.875084 187 140 129
0.094319 -0.589507 0.874166 181 145 135
0.096856 -0.588811 0.873249 178 142 132
0.123837 -0.583903 0.864841 144 123 118
0.126127 -0.584129 0.864476 129 108 103
0.128798 -0.582500 0.863025 118 87 78
0.130708 -0.584580 0.863744 106 75 66
0.132999 -0.584806 0.863378 109 62 49
0.135107 -0.585959 0.863554 110 63 50
0.137220 -0.587113 0.863729 110 64 48
0.139339 -0.588267 0.863903 110 64 48
0.141287 -0.590351 0.864616 131 96 79
0.143591 -0.590578 0.864248 166 131 114
0.064381 -0.587200 0.881834 123 105 96
0.066441 -0.588349 0.882020 119 90 76
0.068759 -0.588577 0.881649 108 79 65
0.071078 -0.588806 0.881279 108 67 50
0.073396 -0.589034 0.880909 107 66 49
0.075715 -0.589262 0.880539 122 66 50
0.078033 -0.589491 0.880168 123 67 51
0.080352 -0.589719 0.879798 137 73 57
0.082671 -0.589948 0.879428 140 76 60
0.084989 -0.590176 0.879058 146 79 62
0.087540 -0.589482 0.878135 151 84 67
0.089856 -0.589710 0.877765 158 93 80
0.092400 -0.589015 0.876844 162 97 84
0.094714 -0.589243 0.876475 165 105 92
0.097250 -0.588548 0.875555 177 117 104
0.099781 -0.587851 0.874636 174 125 115
0.102089 -0.588079 0.874267 182 133 123
0.104828 -0.586458 0.872800 179 138 130
0.107131 -0.586685 0.872432 176 135 127
0.109854 -0.585062 0.870967 171 136 131
0.112153 -0.585289 0.870600 170 135 130
0.114656 -0.584590 0.869686 165 133 127
0.117154 -0.583890 0.868772 161 129 123
0.119647 -0.583191 0.867859 154 123 114
0.122332 -0.581564 0.866400 137 106 97
0.124617 -0.581789 0.866035 124 86 77
0.126902 -0.582014 0.865670 110 72 63
0.129188 -0.582240 0.865305 112 65 54
0.131473 -0.582465 0.864940 111 64 53
0.133390 -0.584544 0.865664 111 63 46
0.135498 -0.585697 0.865842 109 61 44
0.137612 -0.586851 0.866020 117 77 62
0.139731 -0.588005 0.866196 154 114 99
0.073792 -0.588769 0.883223 121 100 87
0.076110 -0.588998 0.882852 115 80 65
0.078429 -0.589226 0.882482 109 74 59
0.080747 -0.589455 0.882112 116 68 51
0.083066 -0.589683 0.881742 112 64 47
0.085620 -0.588989 0.880816 120 63 44
0.087936 -0.589218 0.880446 129 72 53
0.090252 -0.589446 0.880076 140 78 59
0.092795 -0.588751 0.879153 139 77 58
0.095558 -0.587133 0.877676 142 75 58
0.097866 -0.587361 0.877308 142 75 58
0.100614 -0.585741 0.875834 148 84 66
0.102918 -0.585968 0.875466 150 86 68
0.105221 -0.586195 0.875098 151 93 79
0.107948 -0.584574 0.873628 152 94 80
0.110246 -0.584800 0.873261 148 95 82
0.112959 -0.583177 0.871793 148 95 82
0.115456 -0.582478 0.870876 141 92 80
0.117747 -0.582704 0.870510 134 85 73
0.120436 -0.581078 0.869046 127 79 64
0.122721 -0.581303 0.868681 115 67 52
0.125007 -0.581529 0.868316 111 60 46
0.127676 -0.579901 0.866855 113 62 48
0.129956 -0.580126 0.866490 109 61 46
0.131863 -0.582204 0.867221 111 63 48
0.134149 -0.582429 0.866856 111 69 55
0.136071 -0.584509 0.867584 148 106 92
0.083462 -0.589418 0.884055 122 98 86
0.085780 -0.589647 0.883685 118 84 72
0.088331 -0.588953 0.882757 106 72 60
0.090647 -0.589182 0.882388 112 68 52
0.093190 -0.588487 0.881461 113 69 53
0.095952 -0.586870 0.879980 123 70 53
0.098260 -0.587097 0.879611 123 70 53
0.101007 -0.585478 0.878132 129 72 51
0.103310 -0.585705 0.877765 132 75 54
0.106042 -0.584085 0.876288 132 73 53
0.108340 -0.584311 0.875921 132 73 53
0.111057 -0.582690 0.874447 131 72 54
0.113556 -0.581991 0.873528 130 71 53
0.116255 -0.580367 0.872056 125 70 51
0.118540 -0.580592 0.871692 122 67 48
0.121224 -0.578967 0.870223 119 66 49
0.123504 -0.579192 0.869859 114 61 44
0.125785 -0.579417 0.869494 107 61 45
0.128065 -0.579641 0.869130 109 63 47
0.130345 -0.579866 0.868766 115 78 64
0.132253 -0.581943 0.869502 145 108 94
0.093584 -0.588223 0.883770 119 99 89
0.096346 -0.586607 0.882284 118 89 77
0.098654 -0.586834 0.881915 113 84 72
0.101400 -0.585216 0.880431 111 76 59
0.104136 -0.583596 0.878948 109 74 57
0.106434 -0.583823 0.878582 112 71 54
0.108944 -0.583126 0.877658 110 69 52
0.111448 -0.582428 0.876735 115 69 51
0.114359 -0.579881 0.874702 115 69 51
0.116645 -0.580107 0.874337 114 68 50
0.119332 -0.578483 0.872863 111 65 47
0.121613 -0.578707 0.872498 108 67 50
0.123893 -0.578932 0.872134 115 74 57
0.126174 -0.579156 0.871770 123 92 81
0.128454 -0.579381 0.871406 145 114 103
0.106826 -0.583561 0.880875 133 114 101
0.109335 -0.582864 0.879949 132 113 100
0.111839 -0.582166 0.879024 132 111 96
0.114749 -0.579621 0.876983 131 110 95
0.117035 -0.579846 0.876618 135 111 97
0.119722 -0.578222 0.875138 140 116 102
