ply
format ascii 1.0
element vertex 774
property float x
property float y
property float z
property uchar red
property uchar green
property uchar blue
end_header
-0.091145 0.279750 0.894000 124 112 112
-0.088830 0.279750 0.894000 136 114 116
-0.093459 0.282068 0.894000 107 92 91
-0.091145 0.282068 0.894000 108 93 92
-0.088730 0.281752 0.893000 100 67 66
-0.086321 0.281437 0.892000 105 72 71
-0.084011 0.281437 0.892000 152 119 118
-0.093355 0.284068 0.893000 102 83 79
-0.090941 0.283750 0.892000 91 72 68
-0.088631 0.283750 0.892000 92 51 45
-0.086321 0.283750 0.892000 92 51 45
-0.084011 0.283750 0.892000 136 101 96
-0.095667 0.286383 0.893000 97 85 85
-0.093250 0.286063 0.892000 97 69 66
-0.090941 0.286063 0.892000 88 60 57
-0.088631 0.286063 0.892000 96 49 38
-0.086321 0.286063 0.892000 112 65 54
-0.084011 0.286063 0.892000 177 145 139
-0.097980 0.288699 0.893000 106 94 92
-0.095560 0.288375 0.892000 84 72 70
-0.093250 0.288375 0.892000 100 64 56
-0.090941 0.288375 0.892000 92 56 48
-0.088631 0.288375 0.892000 106 59 46
-0.086321 0.288375 0.892000 152 105 92
-0.084011 0.288375 0.892000 188 161 153
-0.097870 0.290688 0.892000 95 79 74
-0.095560 0.290688 0.892000 83 67 62
-0.093250 0.290688 0.892000 102 57 46
-0.090941 0.290688 0.892000 102 57 46
-0.088631 0.290688 0.892000 118 76 64
-0.086321 0.290688 0.892000 186 144 132
-0.100404 0.293658 0.894000 106 101 97
-0.097980 0.293330 0.893000 95 68 62
-0.095560 0.293001 0.892000 91 64 58
-0.093250 0.293001 0.892000 105 57 42
-0.090941 0.293001 0.892000 112 64 49
-0.088631 0.293001 0.892000 163 125 114
-0.086321 0.293001 0.892000 194 156 145
-0.102719 0.295976 0.894000 119 110 105
-0.100404 0.295976 0.894000 88 79 74
-0.097980 0.295645 0.893000 96 58 47
-0.095560 0.295314 0.892000 95 57 46
-0.093250 0.295314 0.892000 112 65 52
-0.090941 0.295314 0.892000 149 102 89
-0.088730 0.295645 0.893000 184 153 144
-0.102719 0.298294 0.894000 102 86 79
-0.100404 0.298294 0.894000 85 69 62
-0.097980 0.297961 0.893000 106 61 48
-0.095560 0.297627 0.892000 107 62 49
-0.093250 0.297627 0.892000 135 93 79
-0.091043 0.297961 0.893000 186 144 130
-0.105269 0.301285 0.896000 103 96 90
-0.102719 0.300612 0.894000 98 69 59
-0.100404 0.300612 0.894000 97 68 58
-0.097980 0.300276 0.893000 108 60 43
-0.095667 0.300276 0.893000 116 68 51
-0.093355 0.300276 0.893000 170 135 120
-0.107469 0.303269 0.895000 119 103 98
-0.105152 0.303269 0.895000 89 73 68
-0.102719 0.302930 0.894000 102 60 48
-0.100404 0.302930 0.894000 100 58 46
-0.097980 0.302591 0.893000 109 65 49
-0.095667 0.302591 0.893000 159 115 99
-0.093355 0.302591 0.893000 186 162 150
-0.109910 0.305931 0.896000 122 112 110
-0.107469 0.305590 0.895000 98 68 63
-0.105034 0.305248 0.894000 90 60 55
-0.102719 0.305248 0.894000 108 60 45
-0.100404 0.305248 0.894000 112 64 49
-0.097980 0.304907 0.893000 152 115 101
-0.095667 0.304907 0.893000 195 158 144
-0.448473 0.311351 0.905000 106 107 98
-0.446129 0.311351 0.905000 128 110 99
-0.444767 0.312039 0.907000 138 120 109
-0.442418 0.312039 0.907000 149 122 114
-0.440069 0.312039 0.907000 155 128 120
-0.112230 0.308254 0.896000 127 111 108
-0.109787 0.307910 0.895000 92 76 73
-0.107349 0.307566 0.894000 99 56 47
-0.105034 0.307566 0.894000 105 62 53
-0.102719 0.307566 0.894000 111 63 48
-0.100404 0.307566 0.894000 147 99 84
-0.097980 0.307222 0.893000 184 155 145
-0.450816 0.313697 0.905000 88 84 75
-0.448473 0.313697 0.905000 85 81 72
-0.447115 0.314391 0.907000 107 73 63
-0.444767 0.314391 0.907000 107 73 63
-0.442418 0.314391 0.907000 124 77 64
-0.440069 0.314391 0.907000 137 90 77
-0.437721 0.314391 0.907000 145 103 91
-0.435372 0.314391 0.907000 155 113 101
-0.433023 0.314391 0.907000 158 122 110
-0.430675 0.314391 0.907000 160 124 112
-0.427382 0.313697 0.905000 155 129 118
-0.114550 0.310578 0.896000 121 113 110
-0.112105 0.310231 0.895000 103 78 71
-0.109664 0.309884 0.894000 92 67 60
-0.107349 0.309884 0.894000 107 56 42
-0.105034 0.309884 0.894000 113 62 48
-0.102605 0.309538 0.893000 133 91 77
-0.100180 0.309191 0.892000 184 142 128
-0.449464 0.316742 0.907000 78 71 61
-0.447115 0.316742 0.907000 98 69 57
-0.444767 0.316742 0.907000 101 72 60
-0.442418 0.316742 0.907000 115 69 53
-0.440069 0.316742 0.907000 119 73 57
-0.437721 0.316742 0.907000 121 68 51
-0.435372 0.316742 0.907000 122 69 52
-0.433023 0.316742 0.907000 130 74 60
-0.430675 0.316742 0.907000 138 82 68
-0.428326 0.316742 0.907000 143 96 83
-0.425977 0.316742 0.907000 159 112 99
-0.422695 0.316044 0.905000 161 123 114
-0.420351 0.316044 0.905000 163 125 116
-0.418008 0.316044 0.905000 162 131 122
-0.114422 0.312552 0.895000 98 87 82
-0.111979 0.312202 0.894000 103 65 56
-0.109664 0.312202 0.894000 100 62 53
-0.107229 0.311853 0.893000 107 59 44
-0.104917 0.311853 0.893000 133 85 70
-0.102490 0.311504 0.892000 172 138 126
-0.447115 0.319094 0.907000 89 71 60
-0.444767 0.319094 0.907000 80 62 51
-0.442418 0.319094 0.907000 95 60 45
-0.440069 0.319094 0.907000 102 67 52
-0.437721 0.319094 0.907000 110 64 46
-0.435372 0.319094 0.907000 114 68 50
-0.433023 0.319094 0.907000 123 70 53
-0.430675 0.319094 0.907000 126 73 56
-0.428326 0.319094 0.907000 128 72 56
-0.425977 0.319094 0.907000 130 74 58
-0.423629 0.319094 0.907000 137 81 69
-0.421280 0.319094 0.907000 138 82 70
-0.418932 0.319094 0.907000 140 89 75
-0.415664 0.318390 0.905000 153 102 88
-0.413321 0.318390 0.905000 163 116 105
-0.410977 0.318390 0.905000 172 125 114
-0.407731 0.317687 0.903000 168 130 119
-0.405393 0.317687 0.903000 171 133 122
-0.116609 0.314520 0.894000 104 81 76
-0.114294 0.314520 0.894000 86 63 58
-0.111854 0.314169 0.893000 111 62 50
-0.109419 0.313817 0.892000 107 58 46
-0.107109 0.313817 0.892000 126 79 66
-0.104799 0.313817 0.892000 182 135 122
-0.440069 0.321446 0.907000 92 77 65
-0.437721 0.321446 0.907000 99 70 56
-0.435372 0.321446 0.907000 95 66 52
-0.433023 0.321446 0.907000 95 59 40
-0.430675 0.321446 0.907000 95 59 40
-0.428326 0.321446 0.907000 107 61 43
-0.425977 0.321446 0.907000 108 62 44
-0.423629 0.321446 0.907000 117 66 50
-0.421280 0.321446 0.907000 121 70 54
-0.418932 0.321446 0.907000 127 71 57
-0.416583 0.321446 0.907000 128 72 58
-0.414234 0.321446 0.907000 129 71 57
-0.410977 0.320737 0.905000 138 80 66
-0.408634 0.320737 0.905000 141 85 71
-0.406290 0.320737 0.905000 146 90 76
-0.403947 0.320737 0.905000 152 103 91
-0.401604 0.320737 0.905000 165 116 104
-0.399260 0.320737 0.905000 165 129 119
-0.396917 0.320737 0.905000 169 133 123
-0.394573 0.320737 0.905000 161 132 122
-0.118924 0.316839 0.894000 102 91 84
-0.116609 0.316839 0.894000 99 63 53
-0.114166 0.316484 0.893000 98 62 52
-0.111729 0.316130 0.892000 112 60 49
-0.109419 0.316130 0.892000 126 74 63
-0.107109 0.316130 0.892000 171 133 122
-0.430675 0.323798 0.907000 102 87 75
-0.428326 0.323798 0.907000 100 74 59
-0.425977 0.323798 0.907000 89 63 48
-0.423629 0.323798 0.907000 96 61 44
-0.421280 0.323798 0.907000 101 66 49
-0.418932 0.323798 0.907000 108 64 48
-0.416583 0.323798 0.907000 106 62 46
-0.414234 0.323798 0.907000 117 66 48
-0.411886 0.323798 0.907000 121 70 52
-0.409537 0.323798 0.907000 128 72 56
-0.407188 0.323798 0.907000 129 73 57
-0.403947 0.323084 0.905000 134 75 57
-0.401604 0.323084 0.905000 137 78 60
-0.399260 0.323084 0.905000 136 80 64
-0.397794 0.323798 0.907000 143 87 71
-0.395445 0.323798 0.907000 143 96 83
-0.393096 0.323798 0.907000 154 107 94
-0.390748 0.323798 0.907000 159 116 107
-0.388399 0.323798 0.907000 167 124 115
-0.386051 0.323798 0.907000 165 131 123
-0.383702 0.323798 0.907000 164 130 122
-0.121239 0.319157 0.894000 112 91 86
-0.118924 0.319157 0.894000 90 69 64
-0.116479 0.318800 0.893000 104 55 43
-0.114039 0.318443 0.892000 108 59 47
-0.111729 0.318443 0.892000 119 74 63
-0.109419 0.318443 0.892000 165 120 109
-0.107109 0.318443 0.892000 183 158 149
-0.419393 0.326509 0.908000 106 82 68
-0.416583 0.326149 0.907000 98 74 60
-0.414234 0.326149 0.907000 99 66 51
-0.411886 0.326149 0.907000 97 64 49
-0.409537 0.326149 0.907000 100 59 42
-0.407188 0.326149 0.907000 103 62 45
-0.404840 0.326149 0.907000 108 60 41
-0.402491 0.326149 0.907000 110 62 43
-0.400142 0.326149 0.907000 113 60 43
-0.397794 0.326149 0.907000 119 66 49
-0.395445 0.326149 0.907000 123 67 51
-0.393096 0.326149 0.907000 128 72 56
-0.390748 0.326149 0.907000 128 72 58
-0.388399 0.326149 0.907000 132 76 62
-0.386476 0.326509 0.908000 140 87 74
-0.384125 0.326509 0.908000 147 94 81
-0.382194 0.326868 0.909000 145 98 85
-0.379840 0.326868 0.909000 153 106 93
-0.377486 0.326868 0.909000 155 114 104
-0.375133 0.326868 0.909000 162 121 111
-0.372779 0.326868 0.909000 162 128 118
-0.370018 0.326509 0.908000 164 130 120
-0.123554 0.321475 0.894000 104 93 88
-0.121239 0.321475 0.894000 106 70 60
-0.118924 0.321475 0.894000 98 62 52
-0.116479 0.321115 0.893000 107 58 46
-0.114039 0.320755 0.892000 127 78 66
-0.111729 0.320755 0.892000 151 115 103
-0.109419 0.320755 0.892000 189 153 141
-0.409988 0.328863 0.908000 112 94 83
-0.407188 0.328501 0.907000 103 85 74
-0.404840 0.328501 0.907000 103 74 60
-0.402491 0.328501 0.907000 98 69 55
-0.400142 0.328501 0.907000 101 64 48
-0.397794 0.328501 0.907000 101 64 48
-0.395445 0.328501 0.907000 107 61 45
-0.393530 0.328863 0.908000 112 66 50
-0.391179 0.328863 0.908000 119 68 52
-0.388827 0.328863 0.908000 118 67 51
-0.386902 0.329225 0.909000 122 69 52
-0.384548 0.329225 0.909000 127 74 57
-0.382615 0.329588 0.910000 129 73 57
-0.380258 0.329588 0.910000 127 71 55
-0.377902 0.329588 0.910000 128 72 56
-0.375545 0.329588 0.910000 134 78 62
-0.372779 0.329225 0.909000 138 82 68
-0.370425 0.329225 0.909000 141 85 71
-0.367666 0.328863 0.908000 144 96 81
-0.364913 0.328501 0.907000 150 102 87
-0.362564 0.328501 0.907000 152 111 101
-0.360215 0.328501 0.907000 160 119 109
-0.357078 0.327777 0.905000 159 128 119
-0.125869 0.323793 0.894000 112 89 84
-0.123554 0.323793 0.894000 91 68 63
-0.121239 0.323793 0.894000 108 59 47
-0.118791 0.323430 0.893000 110 61 49
-0.116479 0.323430 0.893000 114 67 54
-0.114039 0.323068 0.892000 161 114 101
-0.111729 0.323068 0.892000 180 155 146
-0.398232 0.331218 0.908000 113 98 86
-0.395881 0.331218 0.908000 113 89 75
-0.393530 0.331218 0.908000 100 76 62
-0.391179 0.331218 0.908000 100 67 52
-0.389256 0.331582 0.909000 98 65 50
-0.386902 0.331582 0.909000 102 63 45
-0.384971 0.331947 0.910000 110 71 53
-0.382615 0.331947 0.910000 107 63 45
-0.380258 0.331947 0.910000 112 68 50
-0.377902 0.331947 0.910000 122 71 53
-0.375545 0.331947 0.910000 125 74 56
-0.372779 0.331582 0.909000 127 71 55
-0.370425 0.331582 0.909000 125 69 53
-0.367666 0.331218 0.908000 130 73 54
-0.364913 0.330853 0.907000 131 74 55
-0.362564 0.330853 0.907000 130 74 58
-0.360215 0.330853 0.907000 134 78 62
-0.357867 0.330853 0.907000 137 84 71
-0.354734 0.330123 0.905000 148 95 82
-0.352391 0.330123 0.905000 151 102 92
-0.350047 0.330123 0.905000 159 110 100
-0.347704 0.330123 0.905000 159 118 108
-0.345360 0.330123 0.905000 168 127 117
-0.343017 0.330123 0.905000 162 131 122
-0.128184 0.326111 0.894000 107 91 88
-0.125869 0.326111 0.894000 102 66 56
-0.123554 0.326111 0.894000 98 62 52
-0.121239 0.326111 0.894000 107 56 42
-0.118791 0.325746 0.893000 114 63 49
-0.116479 0.325746 0.893000 153 116 102
-0.114039 0.325381 0.892000 187 150 136
-0.386902 0.333939 0.909000 117 99 88
-0.384971 0.334307 0.910000 107 89 78
-0.382615 0.334307 0.910000 109 85 71
-0.380258 0.334307 0.910000 103 79 65
-0.377486 0.333939 0.909000 105 72 57
-0.375133 0.333939 0.909000 105 72 57
-0.372779 0.333939 0.909000 105 66 48
-0.370018 0.333572 0.908000 104 65 47
-0.367666 0.333572 0.908000 109 63 45
-0.364913 0.333205 0.907000 112 66 48
-0.362564 0.333205 0.907000 122 69 52
-0.360215 0.333205 0.907000 125 72 55
-0.357867 0.333205 0.907000 131 73 57
-0.354734 0.332470 0.905000 134 76 60
-0.352391 0.332470 0.905000 140 78 61
-0.350047 0.332470 0.905000 143 81 64
-0.347704 0.332470 0.905000 139 79 64
-0.345360 0.332470 0.905000 139 79 64
-0.343017 0.332470 0.905000 144 91 78
-0.340673 0.332470 0.905000 154 101 88
-0.339078 0.333205 0.907000 155 110 99
-0.336729 0.333205 0.907000 159 114 103
-0.334380 0.333205 0.907000 162 126 114
-0.332032 0.333205 0.907000 165 129 117
-0.329683 0.333205 0.907000 161 132 122
-0.130645 0.328796 0.895000 112 89 84
-0.128328 0.328796 0.895000 92 69 64
-0.126010 0.328796 0.895000 107 60 47
-0.123554 0.328429 0.894000 102 55 42
-0.121239 0.328429 0.894000 112 66 50
-0.118924 0.328429 0.894000 156 110 94
-0.116479 0.328061 0.893000 179 153 142
-0.372369 0.335926 0.908000 124 105 92
-0.370018 0.335926 0.908000 117 98 85
-0.367261 0.335556 0.907000 115 89 74
-0.364913 0.335556 0.907000 104 78 63
-0.362564 0.335556 0.907000 107 72 55
-0.360215 0.335556 0.907000 106 71 54
-0.357078 0.334816 0.905000 109 65 49
-0.354734 0.334816 0.905000 110 66 50
-0.352391 0.334816 0.905000 123 70 53
-0.350047 0.334816 0.905000 125 72 55
-0.347704 0.334816 0.905000 132 75 56
-0.345360 0.334816 0.905000 136 79 60
-0.343017 0.334816 0.905000 135 75 60
-0.341426 0.335556 0.907000 137 77 62
-0.339078 0.335556 0.907000 134 77 58
-0.336729 0.335556 0.907000 139 82 63
-0.334380 0.335556 0.907000 144 88 72
-0.332398 0.335926 0.908000 148 92 76
-0.330047 0.335926 0.908000 145 97 82
-0.328056 0.336296 0.909000 148 100 85
-0.325702 0.336296 0.909000 158 113 102
-0.323349 0.336296 0.909000 162 117 106
-0.320995 0.336296 0.909000 161 123 112
-0.318641 0.336296 0.909000 164 126 115
-0.316287 0.336296 0.909000 160 129 118
-0.133111 0.331487 0.896000 104 90 86
-0.130791 0.331487 0.896000 106 70 60
-0.128471 0.331487 0.896000 100 64 54
-0.126151 0.331487 0.896000 109 58 42
-0.123692 0.331117 0.895000 117 66 50
-0.121375 0.331117 0.895000 145 105 90
-0.118924 0.330747 0.894000 188 148 133
-0.357078 0.337163 0.905000 115 96 81
-0.354734 0.337163 0.905000 110 91 76
-0.352391 0.337163 0.905000 110 82 65
-0.350047 0.337163 0.905000 101 73 56
-0.348472 0.337908 0.907000 109 70 52
-0.346124 0.337908 0.907000 111 72 54
-0.343775 0.337908 0.907000 117 69 50
-0.341426 0.337908 0.907000 112 64 45
-0.339078 0.337908 0.907000 121 69 49
-0.337100 0.338281 0.908000 122 70 50
-0.334749 0.338281 0.908000 123 68 47
-0.332764 0.338653 0.909000 129 74 53
-0.330410 0.338653 0.909000 137 80 61
-0.328417 0.339026 0.910000 137 80 61
-0.326061 0.339026 0.910000 136 79 60
-0.323704 0.339026 0.910000 134 77 58
-0.321348 0.339026 0.910000 134 76 60
-0.318991 0.339026 0.910000 133 75 59
-0.316635 0.339026 0.910000 135 84 68
-0.313933 0.338653 0.909000 143 92 76
-0.311579 0.338653 0.909000 149 105 89
-0.309226 0.338653 0.909000 156 112 96
-0.306872 0.338653 0.909000 155 120 105
-0.304183 0.338281 0.908000 159 124 109
-0.301832 0.338281 0.908000 161 130 119
-0.299151 0.337908 0.907000 163 132 121
-0.135734 0.334555 0.898000 113 88 81
-0.133408 0.334555 0.898000 99 74 67
-0.130791 0.333810 0.896000 112 64 49
-0.128471 0.333810 0.896000 105 57 42
-0.126151 0.333810 0.896000 112 66 50
-0.123831 0.333810 0.896000 153 107 91
-0.121511 0.333810 0.896000 180 156 142
-0.346124 0.340260 0.907000 121 104 90
-0.343775 0.340260 0.907000 119 90 76
-0.341803 0.340635 0.908000 112 83 69
-0.339451 0.340635 0.908000 111 76 59
-0.337100 0.340635 0.908000 107 72 55
-0.335118 0.341010 0.909000 104 63 46
-0.333130 0.341385 0.910000 102 61 44
-0.330774 0.341385 0.910000 110 64 46
-0.328417 0.341385 0.910000 117 71 53
-0.326061 0.341385 0.910000 120 69 51
-0.323704 0.341385 0.910000 118 67 49
-0.321348 0.341385 0.910000 125 72 55
-0.318991 0.341385 0.910000 127 74 57
-0.316635 0.341385 0.910000 129 73 57
-0.314279 0.341385 0.910000 125 69 53
-0.311922 0.341385 0.910000 131 75 59
-0.309566 0.341385 0.910000 134 78 62
-0.307209 0.341385 0.910000 135 79 63
-0.304518 0.341010 0.909000 137 81 65
-0.302164 0.341010 0.909000 140 87 70
-0.299480 0.340635 0.908000 143 90 73
-0.296802 0.340260 0.907000 151 104 91
-0.294453 0.340260 0.907000 156 109 96
-0.292105 0.340260 0.907000 160 120 107
-0.289756 0.340260 0.907000 161 121 108
-0.286774 0.339509 0.905000 158 124 114
-0.284430 0.339509 0.905000 164 130 120
-0.140697 0.337634 0.900000 121 107 103
-0.138059 0.336883 0.898000 102 88 84
-0.135734 0.336883 0.898000 111 70 60
-0.133408 0.336883 0.898000 109 68 58
-0.131083 0.336883 0.898000 111 58 43
-0.128758 0.336883 0.898000 116 63 48
-0.126432 0.336883 0.898000 153 116 100
-0.124107 0.336883 0.898000 188 151 135
-0.333130 0.343745 0.910000 117 98 85
-0.330774 0.343745 0.910000 114 90 76
-0.328417 0.343745 0.910000 107 83 69
-0.326061 0.343745 0.910000 105 75 59
-0.323704 0.343745 0.910000 102 72 56
-0.321348 0.343745 0.910000 109 72 56
-0.318991 0.343745 0.910000 107 70 54
-0.316635 0.343745 0.910000 112 68 52
-0.314279 0.343745 0.910000 112 68 52
-0.311922 0.343745 0.910000 115 67 50
-0.309566 0.343745 0.910000 118 70 53
-0.307209 0.343745 0.910000 123 70 53
-0.304853 0.343745 0.910000 128 75 58
-0.302497 0.343745 0.910000 131 76 57
-0.299810 0.343367 0.909000 132 77 58
-0.297456 0.343367 0.909000 136 79 60
-0.295103 0.343367 0.909000 133 76 57
-0.292427 0.342989 0.908000 137 80 61
-0.290076 0.342989 0.908000 141 84 65
-0.287724 0.342989 0.908000 146 90 74
-0.285373 0.342989 0.908000 151 95 79
-0.283334 0.343367 0.909000 152 101 85
-0.280980 0.343367 0.909000 160 109 93
-0.278932 0.343745 0.910000 159 112 99
-0.276576 0.343745 0.910000 166 119 106
-0.274220 0.343745 0.910000 162 122 109
-0.271863 0.343745 0.910000 167 127 114
-0.269507 0.343745 0.910000 165 129 119
-0.267150 0.343745 0.910000 166 130 120
-0.143187 0.340345 0.901000 116 104 102
-0.140853 0.340345 0.901000 114 89 82
-0.138520 0.340345 0.901000 99 74 67
-0.136187 0.340345 0.901000 115 64 48
-0.133854 0.340345 0.901000 115 64 48
-0.131521 0.340345 0.901000 113 65 48
-0.129188 0.340345 0.901000 152 104 87
-0.126714 0.339967 0.900000 181 152 140
-0.318991 0.346104 0.910000 116 101 89
-0.316635 0.346104 0.910000 117 96 83
-0.314279 0.346104 0.910000 113 92 79
-0.312265 0.346485 0.911000 114 83 70
-0.309906 0.346485 0.911000 104 73 60
-0.307209 0.346104 0.910000 105 68 52
-0.304853 0.346104 0.910000 108 71 55
-0.302497 0.346104 0.910000 117 76 59
-0.300140 0.346104 0.910000 114 73 56
-0.297784 0.346104 0.910000 119 68 50
-0.295427 0.346104 0.910000 126 75 57
-0.293071 0.346104 0.910000 133 76 57
-0.290714 0.346104 0.910000 133 76 57
-0.288358 0.346104 0.910000 134 77 58
-0.286002 0.346104 0.910000 139 82 63
-0.283645 0.346104 0.910000 141 84 63
-0.281289 0.346104 0.910000 141 84 63
-0.279239 0.346485 0.911000 144 85 65
-0.276880 0.346485 0.911000 141 82 62
-0.274521 0.346485 0.911000 142 83 63
-0.272162 0.346485 0.911000 146 87 67
-0.269803 0.346485 0.911000 149 89 74
-0.267444 0.346485 0.911000 155 95 80
-0.265085 0.346485 0.911000 155 102 89
-0.262726 0.346485 0.911000 163 110 97
-0.260081 0.346104 0.910000 165 118 107
-0.257725 0.346104 0.910000 171 124 113
-0.255368 0.346104 0.910000 170 129 119
-0.252734 0.345724 0.909000 173 132 122
-0.250105 0.345344 0.908000 174 140 132
-0.145520 0.342681 0.901000 117 98 94
-0.143187 0.342681 0.901000 108 89 85
-0.140853 0.342681 0.901000 111 68 59
-0.138520 0.342681 0.901000 108 65 56
-0.136338 0.343062 0.902000 112 61 45
-0.134151 0.343442 0.903000 115 64 48
-0.131813 0.343442 0.903000 151 114 98
-0.129475 0.343442 0.903000 187 150 134
-0.302497 0.348464 0.910000 121 100 87
-0.300140 0.348464 0.910000 113 92 79
-0.297784 0.348464 0.910000 116 87 73
-0.295752 0.348847 0.911000 111 82 68
-0.293071 0.348464 0.910000 109 72 56
-0.291034 0.348847 0.911000 105 68 52
-0.288675 0.348847 0.911000 113 69 51
-0.286316 0.348847 0.911000 115 71 53
-0.283957 0.348847 0.911000 117 72 49
-0.281598 0.348847 0.911000 117 72 49
-0.279545 0.349230 0.912000 128 76 56
-0.277184 0.349230 0.912000 130 78 58
-0.274822 0.349230 0.912000 138 79 59
-0.272461 0.349230 0.912000 139 80 60
-0.270099 0.349230 0.912000 142 79 58
-0.267737 0.349230 0.912000 142 79 58
-0.265376 0.349230 0.912000 140 76 58
-0.262726 0.348847 0.911000 143 79 61
-0.260367 0.348847 0.911000 147 83 67
-0.258008 0.348847 0.911000 147 83 67
-0.255368 0.348464 0.910000 147 85 68
-0.253012 0.348464 0.910000 147 85 68
-0.250380 0.348081 0.909000 152 94 80
-0.248026 0.348081 0.909000 167 109 95
-0.245402 0.347698 0.908000 171 122 110
-0.242783 0.347315 0.907000 180 131 119
-0.240435 0.347315 0.907000 182 141 133
-0.238086 0.347315 0.907000 183 142 134
-0.148017 0.345400 0.902000 115 99 96
-0.145681 0.345400 0.902000 111 77 69
-0.143504 0.345783 0.903000 105 71 63
-0.141166 0.345783 0.903000 113 65 50
-0.138828 0.345783 0.903000 109 61 46
-0.136490 0.345783 0.903000 120 79 62
-0.134448 0.346549 0.905000 166 125 108
-0.288675 0.351209 0.911000 126 105 90
-0.286630 0.351594 0.912000 121 100 85
-0.284269 0.351594 0.912000 117 92 74
-0.281907 0.351594 0.912000 110 85 67
-0.279545 0.351594 0.912000 112 79 62
-0.277184 0.351594 0.912000 111 78 61
-0.274822 0.351594 0.912000 118 77 58
-0.272461 0.351594 0.912000 112 71 52
-0.270099 0.351594 0.912000 115 65 44
-0.267737 0.351594 0.912000 121 71 50
-0.265376 0.351594 0.912000 129 74 55
-0.262726 0.351209 0.911000 130 75 56
-0.260367 0.351209 0.911000 131 74 55
-0.258008 0.351209 0.911000 133 76 57
-0.255649 0.351209 0.911000 138 79 61
-0.253012 0.350823 0.910000 140 81 63
-0.250655 0.350823 0.910000 144 80 62
-0.248299 0.350823 0.910000 144 80 62
-0.245672 0.350438 0.909000 148 84 66
-0.243319 0.350438 0.909000 156 92 74
-0.240700 0.350052 0.908000 163 103 90
-0.238348 0.350052 0.908000 175 115 102
-0.235997 0.350052 0.908000 179 130 120
-0.233389 0.349667 0.907000 186 137 127
-0.231040 0.349667 0.907000 175 141 133
-0.152688 0.347739 0.902000 125 111 107
-0.150353 0.347739 0.902000 122 92 85
-0.148017 0.347739 0.902000 110 80 73
-0.145843 0.348125 0.903000 108 62 46
-0.143504 0.348125 0.903000 112 66 50
-0.141166 0.348125 0.903000 109 61 44
-0.139135 0.348896 0.905000 126 78 61
-0.136792 0.348896 0.905000 160 129 116
-0.272461 0.353959 0.912000 125 106 93
-0.270099 0.353959 0.912000 121 97 83
-0.267737 0.353959 0.912000 117 93 79
-0.265376 0.353959 0.912000 114 84 68
-0.263014 0.353959 0.912000 109 79 63
-0.260367 0.353571 0.911000 110 73 59
-0.258008 0.353571 0.911000 109 72 58
-0.255649 0.353571 0.911000 117 73 57
-0.253290 0.353571 0.911000 120 76 60
-0.250655 0.353183 0.910000 120 69 51
-0.248299 0.353183 0.910000 120 69 51
-0.245943 0.353183 0.910000 131 72 52
-0.243319 0.352795 0.909000 137 78 58
-0.240965 0.352795 0.909000 144 82 63
-0.238611 0.352795 0.909000 143 81 62
-0.235997 0.352407 0.908000 154 87 72
-0.233646 0.352407 0.908000 164 97 82
-0.231295 0.352407 0.908000 178 120 108
-0.228943 0.352407 0.908000 189 131 119
-0.226592 0.352407 0.908000 178 140 129
-0.224241 0.352407 0.908000 181 143 132
-0.222134 0.352795 0.909000 171 147 135
-0.154852 0.349690 0.901000 125 103 95
-0.152688 0.350078 0.902000 112 90 82
-0.150519 0.350466 0.903000 117 75 61
-0.148181 0.350466 0.903000 107 65 51
-0.145843 0.350466 0.903000 105 57 38
-0.143822 0.351242 0.905000 119 71 52
-0.141479 0.351242 0.905000 132 93 75
-0.139443 0.352019 0.907000 174 135 117
-0.253290 0.355933 0.911000 118 96 86
-0.250931 0.355933 0.911000 116 87 75
-0.248572 0.355933 0.911000 109 80 68
-0.245943 0.355542 0.910000 110 73 57
-0.243586 0.355542 0.910000 104 67 51
-0.241230 0.355542 0.910000 120 69 53
-0.238873 0.355542 0.910000 121 70 54
-0.236517 0.355542 0.910000 135 71 55
-0.233903 0.355152 0.909000 141 77 61
-0.231549 0.355152 0.909000 155 85 71
-0.229196 0.355152 0.909000 160 90 76
-0.226842 0.355152 0.909000 161 101 88
-0.224735 0.355542 0.910000 169 109 96
-0.222378 0.355542 0.910000 175 126 116
-0.220022 0.355542 0.910000 185 136 126
-0.217666 0.355542 0.910000 180 144 134
-0.215309 0.355542 0.910000 181 145 135
-0.157185 0.352026 0.901000 117 101 94
-0.154852 0.352026 0.901000 116 80 68
-0.152688 0.352417 0.902000 107 71 59
-0.150519 0.352807 0.903000 113 62 46
-0.148181 0.352807 0.903000 115 64 48
-0.146166 0.353589 0.905000 110 66 48
-0.144140 0.354370 0.907000 147 103 85
-0.141791 0.354370 0.907000 166 142 126
-0.243854 0.358295 0.911000 117 102 92
-0.241495 0.358295 0.911000 110 84 73
-0.238873 0.357902 0.910000 100 74 63
-0.236517 0.357902 0.910000 110 63 50
-0.234161 0.357902 0.910000 109 62 49
-0.231804 0.357902 0.910000 127 67 52
-0.229448 0.357902 0.910000 138 78 63
-0.227091 0.357902 0.910000 148 84 68
-0.224735 0.357902 0.910000 148 84 68
-0.222378 0.357902 0.910000 152 85 70
-0.220022 0.357902 0.910000 160 93 78
-0.217666 0.357902 0.910000 163 103 90
-0.215309 0.357902 0.910000 176 116 103
-0.212953 0.357902 0.910000 178 133 122
-0.210596 0.357902 0.910000 188 143 132
-0.208240 0.357902 0.910000 179 145 137
-0.205884 0.357902 0.910000 178 144 136
-0.161672 0.353969 0.900000 122 106 101
-0.159518 0.354362 0.901000 118 89 79
-0.157185 0.354362 0.901000 106 77 67
-0.154852 0.354362 0.901000 108 62 46
-0.152858 0.355149 0.903000 110 64 48
-0.150519 0.355149 0.903000 110 64 48
-0.148509 0.355935 0.905000 123 77 61
-0.146166 0.355935 0.905000 151 121 105
-0.236777 0.360657 0.911000 126 101 92
-0.234418 0.360657 0.911000 113 88 79
-0.231804 0.360261 0.910000 108 71 57
-0.229448 0.360261 0.910000 105 68 54
-0.227091 0.360261 0.910000 121 70 54
-0.224735 0.360261 0.910000 120 69 53
-0.222378 0.360261 0.910000 135 76 58
-0.220022 0.360261 0.910000 138 79 61
-0.217905 0.360657 0.911000 146 79 64
-0.215546 0.360657 0.911000 150 83 68
-0.212953 0.360261 0.910000 152 85 70
-0.210828 0.360657 0.911000 164 97 82
-0.208240 0.360261 0.910000 169 111 99
-0.205884 0.360261 0.910000 180 122 110
-0.203527 0.360261 0.910000 182 135 124
-0.201171 0.360261 0.910000 187 140 129
-0.198596 0.359866 0.909000 181 145 135
-0.196026 0.359470 0.908000 178 142 132
-0.168663 0.356302 0.900000 144 123 118
-0.166333 0.356302 0.900000 129 108 103
-0.163638 0.355511 0.898000 118 87 78
-0.161672 0.356302 0.900000 106 75 66
-0.159341 0.356302 0.900000 109 62 49
-0.157185 0.356698 0.901000 110 63 50
-0.155024 0.357094 0.902000 110 64 48
-0.152858 0.357490 0.903000 110 64 48
-0.150853 0.358282 0.905000 131 96 79
-0.148509 0.358282 0.905000 166 131 114
-0.229448 0.362621 0.910000 123 105 96
-0.227341 0.363019 0.911000 119 90 76
-0.224982 0.363019 0.911000 108 79 65
-0.222623 0.363019 0.911000 108 67 50
-0.220264 0.363019 0.911000 107 66 49
-0.217905 0.363019 0.911000 122 66 50
-0.215546 0.363019 0.911000 123 67 51
-0.213187 0.363019 0.911000 137 73 57
-0.210828 0.363019 0.911000 140 76 60
-0.208469 0.363019 0.911000 146 79 62
-0.205884 0.362621 0.910000 151 84 67
-0.203527 0.362621 0.910000 158 93 80
-0.200950 0.362222 0.909000 162 97 84
-0.198596 0.362222 0.909000 165 105 92
-0.196026 0.361824 0.908000 177 117 104
-0.193462 0.361425 0.907000 174 125 115
-0.191113 0.361425 0.907000 182 133 123
-0.188348 0.360629 0.905000 179 138 130
-0.186005 0.360629 0.905000 176 135 127
-0.183255 0.359832 0.903000 171 136 131
-0.180917 0.359832 0.903000 170 135 130
-0.178381 0.359433 0.902000 165 133 127
-0.175850 0.359035 0.901000 161 129 123
-0.173324 0.358636 0.900000 154 123 114
-0.170614 0.357839 0.898000 137 106 97
-0.168289 0.357839 0.898000 124 86 77
-0.165963 0.357839 0.898000 110 72 63
-0.163638 0.357839 0.898000 112 65 54
-0.161313 0.357839 0.898000 111 64 53
-0.159341 0.358636 0.900000 111 63 46
-0.157185 0.359035 0.901000 109 61 44
-0.155024 0.359433 0.902000 117 77 62
-0.152858 0.359832 0.903000 154 114 99
-0.220264 0.365382 0.911000 121 100 87
-0.217905 0.365382 0.911000 115 80 65
-0.215546 0.365382 0.911000 109 74 59
-0.213187 0.365382 0.911000 116 68 51
-0.210828 0.365382 0.911000 112 64 47
-0.208240 0.364980 0.910000 120 63 44
-0.205884 0.364980 0.910000 129 72 53
-0.203527 0.364980 0.910000 140 78 59
-0.200950 0.364579 0.909000 139 77 58
-0.198159 0.363777 0.907000 142 75 58
-0.195810 0.363777 0.907000 142 75 58
-0.193035 0.362975 0.905000 148 84 66
-0.190692 0.362975 0.905000 150 86 68
-0.188348 0.362975 0.905000 151 93 79
-0.185594 0.362173 0.903000 152 94 80
-0.183255 0.362173 0.903000 148 95 82
-0.180516 0.361371 0.901000 148 95 82
-0.177985 0.360970 0.900000 141 92 80
-0.175655 0.360970 0.900000 134 85 73
-0.172939 0.360168 0.898000 127 79 64
-0.170614 0.360168 0.898000 115 67 52
-0.168289 0.360168 0.898000 111 60 46
-0.165594 0.359365 0.896000 113 62 48
-0.163273 0.359365 0.896000 109 61 46
-0.161313 0.360168 0.898000 111 63 48
-0.158987 0.360168 0.898000 111 69 55
-0.157011 0.360970 0.900000 148 106 92
-0.210828 0.367744 0.911000 122 98 86
-0.208469 0.367744 0.911000 118 84 72
-0.205884 0.367340 0.910000 106 72 60
-0.203527 0.367340 0.910000 112 68 52
-0.200950 0.366936 0.909000 113 69 53
-0.198159 0.366129 0.907000 123 70 53
-0.195810 0.366129 0.907000 123 70 53
-0.193035 0.365322 0.905000 129 72 51
-0.190692 0.365322 0.905000 132 75 54
-0.187932 0.364514 0.903000 132 73 53
-0.185594 0.364514 0.903000 132 73 53
-0.182849 0.363707 0.901000 131 72 54
-0.180316 0.363303 0.900000 130 71 53
-0.177590 0.362496 0.898000 125 70 51
-0.175265 0.362496 0.898000 122 67 48
-0.172554 0.361689 0.896000 119 66 49
-0.170234 0.361689 0.896000 114 61 44
-0.167914 0.361689 0.896000 107 61 45
-0.165594 0.361689 0.896000 109 63 47
-0.163273 0.361689 0.896000 115 78 64
-0.161313 0.362496 0.898000 145 108 94
-0.200950 0.369293 0.909000 119 99 89
-0.198159 0.368481 0.907000 118 89 77
-0.195810 0.368481 0.907000 113 84 72
-0.193035 0.367668 0.905000 111 76 59
-0.190270 0.366856 0.903000 109 74 57
-0.187932 0.366856 0.903000 112 71 54
-0.185388 0.366449 0.902000 110 69 52
-0.182849 0.366043 0.901000 115 69 51
-0.179915 0.364824 0.898000 115 69 51
-0.177590 0.364824 0.898000 114 68 50
-0.174874 0.364012 0.896000 111 65 47
-0.172554 0.364012 0.896000 108 67 50
-0.170234 0.364012 0.896000 115 74 57
-0.167914 0.364012 0.896000 123 92 81
-0.165594 0.364012 0.896000 145 114 103
-0.187932 0.369197 0.903000 133 114 101
-0.185388 0.368788 0.902000 132 113 100
-0.182849 0.368379 0.901000 132 111 96
-0.179915 0.367153 0.898000 131 110 95
-0.177590 0.367153 0.898000 135 111 97
-0.174874 0.366335 0.896000 140 116 102
