ply
format ascii 1.0
element vertex 783
property float x
property float y
property float z
property uchar red
property uchar green
property uchar blue
end_header
-0.221259 0.085743 0.878000 131 121 119
-0.218737 0.085645 0.877000 172 140 136
-0.216468 0.085645 0.877000 205 173 169
-0.223531 0.088018 0.878000 99 83 76
-0.221007 0.087918 0.877000 109 93 86
-0.218737 0.087918 0.877000 178 126 115
-0.216468 0.087918 0.877000 209 157 146
-0.214198 0.087918 0.877000 199 163 155
-0.223531 0.090293 0.878000 88 68 60
-0.221007 0.090190 0.877000 90 70 62
-0.218737 0.090190 0.877000 187 127 112
-0.216468 0.090190 0.877000 217 157 142
-0.214198 0.090190 0.877000 219 168 154
-0.211928 0.090190 0.877000 220 169 155
-0.223531 0.092569 0.878000 87 69 60
-0.221007 0.092463 0.877000 83 65 56
-0.218737 0.092463 0.877000 141 83 69
-0.216468 0.092463 0.877000 186 128 114
-0.214198 0.092463 0.877000 234 167 152
-0.211928 0.092463 0.877000 238 171 156
-0.221007 0.094736 0.877000 90 76 68
-0.218737 0.094736 0.877000 113 62 48
-0.216468 0.094736 0.877000 159 108 94
-0.214198 0.094736 0.877000 203 133 114
-0.211928 0.094736 0.877000 238 168 149
-0.209658 0.094736 0.877000 212 170 158
-0.218737 0.097009 0.877000 103 63 50
-0.216468 0.097009 0.877000 116 76 63
-0.214198 0.097009 0.877000 163 94 75
-0.211928 0.097009 0.877000 213 144 125
-0.209898 0.097119 0.878000 219 163 149
-0.207625 0.097119 0.878000 222 166 152
-0.218737 0.099281 0.877000 96 70 59
-0.216468 0.099281 0.877000 89 63 52
-0.214198 0.099281 0.877000 135 71 55
-0.212170 0.099395 0.878000 193 129 113
-0.210137 0.099508 0.879000 230 160 141
-0.207862 0.099508 0.879000 230 160 141
-0.216468 0.101554 0.877000 89 73 66
-0.214442 0.101670 0.878000 117 59 45
-0.212411 0.101786 0.879000 161 103 89
-0.210137 0.101786 0.879000 216 138 118
-0.207862 0.101786 0.879000 228 150 130
-0.205821 0.101901 0.880000 211 164 153
-0.214442 0.103945 0.878000 107 62 51
-0.212411 0.104064 0.879000 116 71 60
-0.210137 0.104064 0.879000 191 116 97
-0.208098 0.104182 0.880000 219 144 125
-0.206055 0.104300 0.881000 213 150 136
-0.203774 0.104300 0.881000 224 161 147
-0.212411 0.106341 0.879000 91 62 52
-0.210376 0.106462 0.880000 152 82 66
-0.208098 0.106462 0.880000 201 131 115
-0.206055 0.106583 0.881000 214 141 121
-0.204006 0.106704 0.882000 229 156 136
-0.201723 0.106704 0.882000 205 171 159
-0.212411 0.108619 0.879000 84 69 59
-0.210376 0.108743 0.880000 108 52 38
-0.208098 0.108743 0.880000 148 92 78
-0.206055 0.108867 0.881000 211 134 111
-0.204006 0.108990 0.882000 219 142 119
-0.201723 0.108990 0.882000 210 159 143
-0.210376 0.111023 0.880000 99 58 48
-0.208335 0.111150 0.881000 104 63 53
-0.206288 0.111276 0.882000 183 110 90
-0.204006 0.111276 0.882000 214 141 121
-0.201952 0.111402 0.883000 220 150 134
-0.199667 0.111402 0.883000 224 154 138
-0.208098 0.113304 0.880000 86 61 52
-0.206288 0.113561 0.882000 133 66 49
-0.204006 0.113561 0.882000 180 113 96
-0.201723 0.113561 0.882000 219 141 121
-0.199667 0.113690 0.883000 218 140 120
-0.197381 0.113690 0.883000 213 167 159
-0.206055 0.115716 0.881000 112 59 44
-0.204006 0.115847 0.882000 135 82 67
-0.201723 0.115847 0.882000 208 127 108
-0.199667 0.115979 0.883000 212 131 112
-0.197381 0.115979 0.883000 213 150 138
-0.195096 0.115979 0.883000 225 162 150
-0.203774 0.117999 0.881000 91 57 47
-0.201494 0.117999 0.881000 156 86 67
-0.199440 0.118133 0.882000 203 133 114
-0.197158 0.118133 0.882000 216 138 120
-0.194875 0.118133 0.882000 226 148 130
-0.192811 0.118267 0.883000 210 169 163
-0.203543 0.120145 0.880000 86 68 57
-0.201494 0.120282 0.881000 116 58 42
-0.199214 0.120282 0.881000 153 95 79
-0.196934 0.120282 0.881000 211 130 111
-0.194654 0.120282 0.881000 217 136 117
-0.192811 0.120555 0.883000 216 158 146
-0.190526 0.120555 0.883000 229 171 159
-0.201037 0.122287 0.879000 104 64 51
-0.198988 0.122426 0.880000 102 62 49
-0.196711 0.122426 0.880000 179 106 86
-0.194654 0.122565 0.881000 213 140 120
-0.192374 0.122565 0.881000 216 143 125
-0.190526 0.122843 0.883000 234 161 143
-0.188240 0.122843 0.883000 209 178 169
-0.198762 0.124565 0.879000 89 67 57
-0.196487 0.124565 0.879000 124 60 44
-0.194433 0.124706 0.880000 176 112 96
-0.192374 0.124848 0.881000 221 140 121
-0.190310 0.124990 0.882000 225 144 125
-0.188240 0.125132 0.883000 220 173 160
-0.186166 0.125273 0.884000 220 173 160
-0.196487 0.126843 0.879000 99 54 41
-0.194433 0.126987 0.880000 112 67 54
-0.192374 0.127131 0.881000 186 111 92
-0.190310 0.127276 0.882000 215 140 121
-0.188240 0.127420 0.883000 216 149 132
-0.186166 0.127564 0.884000 234 167 150
-0.183878 0.127564 0.884000 205 176 166
-0.194212 0.129121 0.879000 90 65 56
-0.192374 0.129414 0.881000 128 64 48
-0.190310 0.129561 0.882000 183 119 103
-0.188027 0.129561 0.882000 219 144 125
-0.185955 0.129708 0.883000 228 153 134
-0.183878 0.129855 0.884000 219 174 163
-0.181590 0.129855 0.884000 216 171 160
-0.192156 0.131548 0.880000 102 55 42
-0.190094 0.131697 0.881000 112 65 52
-0.188027 0.131847 0.882000 193 115 97
-0.185955 0.131996 0.883000 219 141 123
-0.183878 0.132146 0.884000 216 149 134
-0.181590 0.132146 0.884000 235 168 153
-0.190094 0.133981 0.881000 87 61 50
-0.188027 0.134133 0.882000 142 72 56
-0.185744 0.134133 0.882000 196 126 110
-0.183670 0.134285 0.883000 216 135 116
-0.181590 0.134437 0.884000 231 150 131
-0.179302 0.134437 0.884000 223 176 163
0.120542 0.134589 0.885000 145 123 125
0.122694 0.134437 0.884000 145 112 111
0.124981 0.134437 0.884000 172 139 138
-0.188027 0.136418 0.882000 107 59 44
-0.185744 0.136418 0.882000 127 79 64
-0.183462 0.136418 0.882000 202 124 106
-0.181384 0.136573 0.883000 215 137 119
-0.179302 0.136728 0.884000 201 137 121
-0.177014 0.136728 0.884000 216 152 136
0.115699 0.136573 0.883000 128 108 109
0.118118 0.136728 0.884000 130 88 87
0.120406 0.136728 0.884000 130 88 87
0.122555 0.136573 0.883000 131 81 78
0.124840 0.136573 0.883000 145 95 92
0.127269 0.136728 0.884000 216 190 188
-0.185534 0.138547 0.881000 89 58 47
-0.183254 0.138547 0.881000 147 78 59
-0.181179 0.138704 0.882000 195 126 107
-0.179099 0.138861 0.883000 212 137 118
-0.177014 0.139019 0.884000 222 147 128
-0.174726 0.139019 0.884000 218 175 166
0.111128 0.138861 0.883000 149 132 132
0.113414 0.138861 0.883000 137 100 95
0.115699 0.138861 0.883000 128 91 86
0.117984 0.138861 0.883000 143 86 79
0.120269 0.138861 0.883000 142 85 78
0.122555 0.138861 0.883000 129 79 72
0.124840 0.138861 0.883000 143 93 86
-0.183254 0.140830 0.881000 110 57 40
-0.180974 0.140830 0.881000 135 82 65
-0.179099 0.141150 0.883000 208 130 110
-0.176814 0.141150 0.883000 215 137 117
-0.174529 0.141150 0.883000 218 158 145
-0.172243 0.141150 0.883000 230 170 157
0.108597 0.140830 0.881000 140 107 106
0.110877 0.140830 0.881000 131 98 97
0.113157 0.140830 0.881000 141 85 73
0.115437 0.140830 0.881000 141 85 73
0.117851 0.140990 0.882000 143 85 73
0.120133 0.140990 0.882000 144 86 74
0.122416 0.140990 0.882000 159 121 112
0.124840 0.141150 0.883000 206 168 159
-0.180974 0.143113 0.881000 96 62 50
-0.178896 0.143275 0.882000 169 99 78
-0.176814 0.143438 0.883000 206 136 115
-0.174529 0.143438 0.883000 207 132 113
-0.172243 0.143438 0.883000 207 132 113
-0.170151 0.143600 0.884000 210 174 166
0.106437 0.143275 0.882000 131 105 103
0.108597 0.143113 0.881000 143 91 82
0.110877 0.143113 0.881000 142 90 81
0.113157 0.143113 0.881000 149 84 71
0.115437 0.143113 0.881000 148 83 70
0.117717 0.143113 0.881000 150 98 87
0.119997 0.143113 0.881000 191 139 128
-0.178896 0.145561 0.882000 115 59 43
-0.176614 0.145561 0.882000 156 100 84
-0.174529 0.145726 0.883000 210 132 112
-0.172243 0.145726 0.883000 210 132 112
-0.170151 0.145891 0.884000 219 163 151
-0.168053 0.146056 0.885000 228 172 160
0.101987 0.145726 0.883000 141 119 121
0.104273 0.145726 0.883000 139 91 85
0.106437 0.145561 0.882000 137 89 83
0.108720 0.145561 0.882000 149 84 71
0.110877 0.145396 0.881000 147 82 69
0.113157 0.145396 0.881000 146 90 76
0.115437 0.145396 0.881000 174 118 104
0.117717 0.145396 0.881000 207 173 163
-0.176614 0.147847 0.882000 105 68 54
-0.174529 0.148014 0.883000 171 101 82
-0.172439 0.148182 0.884000 207 137 118
-0.170151 0.148182 0.884000 211 138 120
-0.168053 0.148350 0.885000 228 155 137
-0.165950 0.148517 0.886000 213 175 166
0.099928 0.148350 0.885000 136 99 96
0.102103 0.148182 0.884000 135 98 95
0.104273 0.148014 0.883000 149 86 74
0.106558 0.148014 0.883000 146 83 71
0.108720 0.147847 0.882000 146 83 71
0.111003 0.147847 0.882000 165 102 90
0.113157 0.147679 0.881000 191 149 137
0.115437 0.147679 0.881000 226 184 172
-0.174529 0.150303 0.883000 120 62 46
-0.172243 0.150303 0.883000 161 103 87
-0.170151 0.150473 0.884000 210 132 112
-0.168053 0.150643 0.885000 211 133 113
-0.165950 0.150813 0.886000 216 158 146
-0.163657 0.150813 0.886000 229 171 159
0.095455 0.150813 0.886000 147 114 113
0.097748 0.150813 0.886000 137 104 103
0.100041 0.150813 0.886000 143 84 77
0.102218 0.150643 0.885000 147 88 81
0.104509 0.150643 0.885000 145 80 69
0.106558 0.150303 0.883000 151 86 75
0.108843 0.150303 0.883000 168 120 105
0.111128 0.150303 0.883000 219 171 156
-0.172243 0.152591 0.883000 110 70 57
-0.170151 0.152764 0.884000 177 104 84
-0.168053 0.152937 0.885000 207 134 114
-0.165762 0.152937 0.885000 213 140 122
-0.163657 0.153109 0.886000 221 148 130
-0.161364 0.153109 0.886000 213 172 166
0.093162 0.153109 0.886000 131 103 102
0.095455 0.153109 0.886000 145 92 86
0.097748 0.153109 0.886000 136 83 77
0.100041 0.153109 0.886000 149 84 73
0.102334 0.153109 0.886000 145 80 69
0.104627 0.153109 0.886000 160 104 92
0.106799 0.152937 0.885000 205 149 137
0.109090 0.152937 0.885000 218 187 178
-0.170343 0.155230 0.885000 125 63 46
-0.168053 0.155230 0.885000 168 106 89
-0.165762 0.155230 0.885000 212 131 112
-0.163657 0.155405 0.886000 209 128 109
-0.161364 0.155405 0.886000 215 152 140
-0.159071 0.155405 0.886000 232 169 157
0.088676 0.155581 0.887000 145 122 119
0.091074 0.155756 0.888000 144 96 88
0.093372 0.155756 0.888000 133 85 77
0.095670 0.155756 0.888000 147 84 72
0.097969 0.155756 0.888000 144 81 69
0.100154 0.155581 0.887000 148 90 78
0.102449 0.155581 0.887000 185 127 115
0.104627 0.155405 0.886000 212 178 170
-0.170343 0.157523 0.885000 110 65 52
-0.168053 0.157523 0.885000 109 64 51
-0.165950 0.157701 0.886000 174 99 80
-0.163657 0.157701 0.886000 207 132 113
-0.161364 0.157701 0.886000 211 133 115
-0.159071 0.157701 0.886000 226 148 130
-0.156778 0.157701 0.886000 217 176 166
0.083990 0.157701 0.886000 149 129 130
0.086380 0.157879 0.887000 145 102 95
0.088676 0.157879 0.887000 134 91 84
0.091074 0.158057 0.888000 142 82 71
0.093372 0.158057 0.888000 145 85 74
0.095670 0.158057 0.888000 138 80 68
0.097969 0.158057 0.888000 162 104 92
0.100267 0.158057 0.888000 199 158 150
0.102565 0.158057 0.888000 231 190 182
-0.168053 0.159817 0.885000 98 74 62
-0.165950 0.159997 0.886000 120 55 42
-0.163657 0.159997 0.886000 162 97 84
-0.161364 0.159997 0.886000 214 132 115
-0.159071 0.159997 0.886000 211 129 112
-0.156778 0.159997 0.886000 214 151 137
-0.154484 0.159997 0.886000 234 171 157
0.081697 0.159997 0.886000 146 109 104
0.084085 0.160178 0.887000 135 98 93
0.086380 0.160178 0.887000 138 81 72
0.088776 0.160359 0.888000 143 86 77
0.091074 0.160359 0.888000 139 82 73
0.093372 0.160359 0.888000 143 86 77
0.095670 0.160359 0.888000 177 134 127
0.097969 0.160359 0.888000 217 174 167
-0.165762 0.162110 0.885000 107 65 53
-0.163472 0.162110 0.885000 100 58 46
-0.161364 0.162294 0.886000 167 91 77
-0.159071 0.162294 0.886000 200 124 110
-0.156778 0.162294 0.886000 212 131 114
-0.154484 0.162294 0.886000 227 146 129
-0.152191 0.162294 0.886000 213 173 160
0.077111 0.162294 0.886000 147 112 109
0.079404 0.162294 0.886000 129 94 91
0.081697 0.162294 0.886000 141 84 77
0.084085 0.162477 0.887000 144 87 80
0.086478 0.162660 0.888000 137 80 71
0.088776 0.162660 0.888000 139 82 73
0.091176 0.162843 0.889000 149 106 99
0.093477 0.162843 0.889000 197 154 147
0.095778 0.162843 0.889000 217 194 189
-0.163472 0.164404 0.885000 98 76 68
-0.161181 0.164404 0.885000 112 54 40
-0.158891 0.164404 0.885000 144 86 72
-0.156601 0.164404 0.885000 199 117 102
-0.154310 0.164404 0.885000 210 128 113
-0.152020 0.164404 0.885000 217 150 135
-0.149729 0.164404 0.885000 228 161 146
0.072525 0.164590 0.886000 158 121 118
0.074818 0.164590 0.886000 138 101 98
0.077198 0.164775 0.887000 145 86 77
0.079493 0.164775 0.887000 146 87 78
0.081789 0.164775 0.887000 144 85 76
0.084179 0.164961 0.888000 140 81 72
0.086478 0.164961 0.888000 142 96 88
0.088776 0.164961 0.888000 193 147 139
0.091176 0.165147 0.889000 211 186 179
-0.161181 0.166697 0.885000 106 70 60
-0.158891 0.166697 0.885000 100 64 54
-0.156601 0.166697 0.885000 148 77 61
-0.154310 0.166697 0.885000 184 113 97
-0.151848 0.166509 0.884000 219 138 119
-0.149729 0.166697 0.885000 219 138 119
-0.147439 0.166697 0.885000 212 160 149
0.068092 0.167262 0.888000 156 121 116
0.070311 0.167074 0.887000 143 108 103
0.072606 0.167074 0.887000 148 89 80
0.074902 0.167074 0.887000 146 87 78
0.077198 0.167074 0.887000 147 84 70
0.079493 0.167074 0.887000 146 83 69
0.081789 0.167074 0.887000 147 98 86
0.084179 0.167262 0.888000 167 118 106
0.086478 0.167262 0.888000 201 174 166
-0.156601 0.168991 0.885000 120 67 54
-0.154310 0.168991 0.885000 125 72 59
-0.151848 0.168800 0.884000 192 111 92
-0.149729 0.168991 0.885000 217 136 117
-0.147439 0.168991 0.885000 208 135 115
-0.145148 0.168991 0.885000 226 153 133
-0.142858 0.168991 0.885000 217 179 172
0.063496 0.169564 0.888000 153 121 115
0.065794 0.169564 0.888000 144 112 106
0.068092 0.169564 0.888000 148 90 76
0.070390 0.169564 0.888000 148 90 76
0.072688 0.169564 0.888000 156 89 74
0.074987 0.169564 0.888000 152 85 70
0.077285 0.169564 0.888000 148 92 78
0.079583 0.169564 0.888000 173 117 103
0.081881 0.169564 0.888000 206 172 162
-0.154310 0.171284 0.885000 97 68 58
-0.152020 0.171284 0.885000 129 62 45
-0.149729 0.171284 0.885000 165 98 81
-0.147439 0.171284 0.885000 208 128 106
-0.145148 0.171284 0.885000 217 137 115
-0.143019 0.171478 0.886000 213 153 138
-0.140726 0.171478 0.886000 231 171 156
0.056665 0.172058 0.889000 166 149 149
0.058965 0.172058 0.889000 162 127 122
0.061197 0.171865 0.888000 148 113 108
0.063496 0.171865 0.888000 149 96 83
0.065794 0.171865 0.888000 143 90 77
0.068092 0.171865 0.888000 154 90 74
0.070390 0.171865 0.888000 150 86 70
0.072688 0.171865 0.888000 145 87 73
0.074987 0.171865 0.888000 167 109 95
0.077285 0.171865 0.888000 194 156 147
0.079583 0.171865 0.888000 224 186 177
-0.152020 0.173578 0.885000 113 68 57
-0.149729 0.173578 0.885000 109 64 53
-0.147439 0.173578 0.885000 159 86 66
-0.145312 0.173774 0.886000 197 124 104
-0.143019 0.173774 0.886000 209 131 113
-0.140726 0.173774 0.886000 222 144 126
-0.138433 0.173774 0.886000 213 161 150
-0.136140 0.173774 0.886000 224 172 161
0.052063 0.174362 0.889000 166 149 149
0.054364 0.174362 0.889000 164 127 122
0.056665 0.174362 0.889000 143 106 101
0.058899 0.174166 0.888000 150 92 78
0.061197 0.174166 0.888000 147 89 75
0.063496 0.174166 0.888000 153 90 76
0.065794 0.174166 0.888000 150 87 73
0.068092 0.174166 0.888000 146 88 74
0.070390 0.174166 0.888000 167 109 95
0.072688 0.174166 0.888000 189 148 138
0.074987 0.174166 0.888000 222 181 171
-0.149729 0.175871 0.885000 99 79 71
-0.147439 0.175871 0.885000 118 62 48
-0.145312 0.176070 0.886000 136 80 66
-0.143019 0.176070 0.886000 183 108 91
-0.140726 0.176070 0.886000 204 129 112
-0.138433 0.176070 0.886000 205 131 116
-0.136140 0.176070 0.886000 214 140 125
-0.133847 0.176070 0.886000 215 174 166
0.047462 0.176666 0.889000 164 145 143
0.049762 0.176666 0.889000 162 125 120
0.052063 0.176666 0.889000 145 108 103
0.054303 0.176467 0.888000 148 88 77
0.056601 0.176467 0.888000 149 89 78
0.058899 0.176467 0.888000 154 90 74
0.061197 0.176467 0.888000 154 90 74
0.063496 0.176467 0.888000 145 87 73
0.065794 0.176467 0.888000 159 101 87
0.068092 0.176467 0.888000 187 149 138
0.070390 0.176467 0.888000 218 180 169
-0.145148 0.178165 0.885000 100 69 60
-0.142858 0.178165 0.885000 130 66 50
-0.140568 0.178165 0.885000 151 87 71
-0.138277 0.178165 0.885000 188 110 94
-0.135987 0.178165 0.885000 195 117 101
-0.133696 0.178165 0.885000 200 132 120
-0.131406 0.178165 0.885000 215 147 135
-0.129115 0.178165 0.885000 206 170 162
0.042860 0.178970 0.889000 166 149 149
0.045161 0.178970 0.889000 166 127 123
0.047462 0.178970 0.889000 146 107 103
0.049762 0.178970 0.889000 149 89 78
0.052005 0.178769 0.888000 146 86 75
0.054303 0.178769 0.888000 149 82 67
0.056601 0.178769 0.888000 152 85 70
0.058899 0.178769 0.888000 149 89 74
0.061197 0.178769 0.888000 161 101 86
0.063496 0.178769 0.888000 183 143 130
0.065794 0.178769 0.888000 212 172 159
-0.142858 0.180458 0.885000 118 78 65
-0.140568 0.180458 0.885000 114 74 61
-0.138277 0.180458 0.885000 149 79 65
-0.135987 0.180458 0.885000 163 93 79
-0.133696 0.180458 0.885000 182 104 88
-0.131406 0.180458 0.885000 187 109 93
-0.129115 0.180458 0.885000 187 122 113
-0.126682 0.180254 0.884000 214 149 140
-0.124394 0.180254 0.884000 211 170 164
0.038215 0.181070 0.888000 153 133 134
0.040514 0.181070 0.888000 158 116 113
0.042860 0.181274 0.889000 145 103 100
0.045161 0.181274 0.889000 153 90 78
0.047408 0.181070 0.888000 149 86 74
0.049706 0.181070 0.888000 149 85 69
0.052005 0.181070 0.888000 147 83 67
0.054303 0.181070 0.888000 149 89 74
0.056601 0.181070 0.888000 165 105 90
0.058899 0.181070 0.888000 192 150 138
0.061197 0.181070 0.888000 218 176 164
-0.138433 0.182958 0.886000 117 72 61
-0.135987 0.182751 0.885000 109 64 53
-0.133696 0.182751 0.885000 147 76 60
-0.131406 0.182751 0.885000 168 97 81
-0.129115 0.182751 0.885000 188 110 94
-0.126682 0.182545 0.884000 193 115 99
-0.124394 0.182545 0.884000 194 123 109
-0.122106 0.182545 0.884000 205 134 120
-0.117663 0.182751 0.885000 219 170 160
0.029023 0.183371 0.888000 171 151 154
0.031321 0.183371 0.888000 173 142 142
0.033619 0.183371 0.888000 153 122 122
0.035917 0.183371 0.888000 143 95 89
0.038215 0.183371 0.888000 135 87 81
0.040514 0.183371 0.888000 152 84 72
0.042812 0.183371 0.888000 153 85 73
0.045110 0.183371 0.888000 153 86 69
0.047408 0.183371 0.888000 149 82 65
0.049706 0.183371 0.888000 147 89 75
0.052005 0.183371 0.888000 172 114 100
0.054303 0.183371 0.888000 197 156 146
0.056601 0.183371 0.888000 220 179 169
-0.133847 0.185254 0.886000 121 74 63
-0.131406 0.185045 0.885000 123 76 65
-0.129115 0.185045 0.885000 147 77 63
-0.126682 0.184836 0.884000 161 91 77
-0.124394 0.184836 0.884000 179 101 85
-0.122106 0.184836 0.884000 185 107 91
-0.117663 0.185045 0.885000 187 112 95
-0.115373 0.185045 0.885000 182 124 108
-0.113082 0.185045 0.885000 204 146 130
-0.110792 0.185045 0.885000 211 168 159
-0.108501 0.185045 0.885000 220 177 168
0.019830 0.185672 0.888000 194 172 174
0.022128 0.185672 0.888000 185 152 153
0.024426 0.185672 0.888000 167 134 135
0.026724 0.185672 0.888000 168 124 122
0.029023 0.185672 0.888000 142 98 96
0.031321 0.185672 0.888000 156 99 90
0.033619 0.185672 0.888000 149 92 83
0.035917 0.185672 0.888000 146 76 62
0.038215 0.185672 0.888000 145 75 61
0.040514 0.185672 0.888000 156 86 70
0.042812 0.185672 0.888000 153 83 67
0.045110 0.185672 0.888000 145 87 71
0.047408 0.185672 0.888000 173 115 99
0.049706 0.185672 0.888000 193 155 146
0.052005 0.185672 0.888000 217 179 170
-0.129115 0.187338 0.885000 123 78 67
-0.126825 0.187338 0.885000 117 72 61
-0.124394 0.187127 0.884000 140 72 60
-0.122106 0.187127 0.884000 150 82 70
-0.119954 0.187338 0.885000 163 90 72
-0.117663 0.187338 0.885000 171 98 80
-0.115373 0.187338 0.885000 176 101 82
-0.113082 0.187338 0.885000 174 99 80
-0.110792 0.187338 0.885000 168 97 81
-0.108501 0.187338 0.885000 184 113 97
-0.106211 0.187338 0.885000 194 136 124
-0.103921 0.187338 0.885000 203 145 133
-0.101630 0.187338 0.885000 205 160 149
-0.099452 0.187550 0.886000 214 169 158
-0.097159 0.187550 0.886000 212 176 168
0.008339 0.187973 0.888000 204 178 178
0.010637 0.187973 0.888000 188 162 162
0.012935 0.187973 0.888000 178 145 144
0.015233 0.187973 0.888000 169 136 135
0.017532 0.187973 0.888000 164 118 114
0.019830 0.187973 0.888000 148 102 98
0.022103 0.187762 0.887000 157 98 91
0.024399 0.187762 0.887000 147 88 81
0.026724 0.187973 0.888000 150 85 74
0.029023 0.187973 0.888000 151 86 75
0.031321 0.187973 0.888000 159 89 75
0.033619 0.187973 0.888000 158 88 74
0.035917 0.187973 0.888000 153 86 71
0.038215 0.187973 0.888000 151 84 69
0.040514 0.187973 0.888000 157 101 87
0.042812 0.187973 0.888000 186 130 116
0.045110 0.187973 0.888000 196 160 150
-0.124534 0.189632 0.885000 126 85 77
-0.122244 0.189632 0.885000 118 77 69
-0.119954 0.189632 0.885000 129 73 59
-0.117663 0.189632 0.885000 132 76 62
-0.115373 0.189632 0.885000 151 82 63
-0.113082 0.189632 0.885000 160 91 72
-0.110792 0.189632 0.885000 170 97 79
-0.108501 0.189632 0.885000 170 97 79
-0.106331 0.189846 0.886000 170 96 81
-0.104038 0.189846 0.886000 175 101 86
-0.101745 0.189846 0.886000 175 105 89
-0.099452 0.189846 0.886000 172 102 86
-0.097159 0.189846 0.886000 171 106 93
-0.094866 0.189846 0.886000 189 124 111
-0.092573 0.189846 0.886000 196 139 130
-0.090280 0.189846 0.886000 196 139 130
-0.087987 0.189846 0.886000 195 145 138
-0.085791 0.190060 0.887000 208 158 151
-0.083495 0.190060 0.887000 207 161 155
-0.081291 0.190275 0.888000 208 162 156
-0.078993 0.190275 0.888000 206 163 156
-0.076694 0.190275 0.888000 210 167 160
-0.074396 0.190275 0.888000 209 168 160
-0.072098 0.190275 0.888000 210 169 161
-0.069800 0.190275 0.888000 206 165 157
-0.067578 0.190489 0.889000 210 169 161
-0.065277 0.190489 0.889000 211 173 164
-0.005438 0.189846 0.886000 199 173 169
-0.003145 0.189846 0.886000 193 167 163
-0.000853 0.190060 0.887000 188 156 152
0.001443 0.190060 0.887000 180 148 144
0.003742 0.190275 0.888000 177 135 132
0.006041 0.190275 0.888000 161 119 116
0.008339 0.190275 0.888000 157 104 100
0.010637 0.190275 0.888000 152 99 95
0.012935 0.190275 0.888000 155 94 86
0.015233 0.190275 0.888000 156 95 87
0.017532 0.190275 0.888000 166 95 84
0.019830 0.190275 0.888000 160 89 78
0.022103 0.190060 0.887000 161 90 76
0.024399 0.190060 0.887000 157 86 72
0.026694 0.190060 0.887000 152 85 70
0.029023 0.190275 0.888000 149 82 67
0.031321 0.190275 0.888000 148 83 70
0.033619 0.190275 0.888000 149 84 71
0.035917 0.190275 0.888000 157 105 94
0.038215 0.190275 0.888000 191 139 128
0.040514 0.190275 0.888000 205 174 163
-0.117796 0.192142 0.886000 131 104 96
-0.115503 0.192142 0.886000 131 89 77
-0.113210 0.192142 0.886000 122 80 68
-0.110917 0.192142 0.886000 132 74 58
-0.108624 0.192142 0.886000 137 79 63
-0.106331 0.192142 0.886000 143 79 63
-0.104038 0.192142 0.886000 148 84 68
-0.101745 0.192142 0.886000 160 93 76
-0.099452 0.192142 0.886000 161 94 77
-0.097159 0.192142 0.886000 161 91 72
-0.094866 0.192142 0.886000 161 91 72
-0.092573 0.192142 0.886000 157 86 70
-0.090382 0.192359 0.887000 155 84 68
-0.088086 0.192359 0.887000 162 92 78
-0.085887 0.192576 0.888000 159 89 75
-0.083589 0.192576 0.888000 158 91 76
-0.081291 0.192576 0.888000 159 92 77
-0.078993 0.192576 0.888000 161 94 79
-0.076694 0.192576 0.888000 164 97 82
-0.074396 0.192576 0.888000 166 99 82
-0.072179 0.192793 0.889000 171 104 87
-0.069878 0.192793 0.889000 170 103 86
-0.067578 0.192793 0.889000 170 103 86
-0.065277 0.192793 0.889000 172 108 90
-0.062976 0.192793 0.889000 177 113 95
-0.060744 0.193010 0.890000 177 113 97
-0.058440 0.193010 0.890000 179 115 99
-0.056137 0.193010 0.890000 183 123 110
-0.053833 0.193010 0.890000 193 133 120
-0.051530 0.193010 0.890000 196 144 135
-0.049227 0.193010 0.890000 200 148 139
-0.046923 0.193010 0.890000 204 157 146
-0.044620 0.193010 0.890000 215 168 157
-0.042317 0.193010 0.890000 214 166 158
-0.040013 0.193010 0.890000 211 163 155
-0.037667 0.192793 0.889000 214 166 158
-0.035367 0.192793 0.889000 215 167 159
-0.033066 0.192793 0.889000 213 165 159
-0.030731 0.192576 0.888000 207 159 153
-0.028432 0.192576 0.888000 207 159 155
-0.026105 0.192359 0.887000 203 155 151
-0.023809 0.192359 0.887000 201 153 149
-0.021489 0.192142 0.886000 196 148 144
-0.019196 0.192142 0.886000 193 143 138
-0.016903 0.192142 0.886000 186 136 131
-0.014610 0.192142 0.886000 178 124 116
-0.012317 0.192142 0.886000 169 115 107
-0.010024 0.192142 0.886000 160 103 96
-0.007731 0.192142 0.886000 155 98 91
-0.005438 0.192142 0.886000 152 93 84
-0.003145 0.192142 0.886000 146 87 78
-0.000853 0.192359 0.887000 144 84 73
0.001444 0.192576 0.888000 142 82 71
0.003742 0.192576 0.888000 150 82 74
0.006041 0.192576 0.888000 154 86 78
0.008339 0.192576 0.888000 160 88 77
0.010637 0.192576 0.888000 162 90 79
0.012935 0.192576 0.888000 166 92 77
0.015233 0.192576 0.888000 164 90 75
0.017532 0.192576 0.888000 162 91 77
0.019807 0.192359 0.887000 157 86 72
0.022103 0.192359 0.887000 149 84 71
0.024399 0.192359 0.887000 147 82 69
0.026724 0.192576 0.888000 149 96 83
0.029023 0.192576 0.888000 165 112 99
0.031321 0.192576 0.888000 177 139 128
0.033619 0.192576 0.888000 202 164 153
-0.108747 0.194658 0.887000 137 108 98
-0.106451 0.194658 0.887000 131 94 80
-0.104155 0.194658 0.887000 124 87 73
-0.101860 0.194658 0.887000 131 85 69
-0.099564 0.194658 0.887000 130 84 68
-0.095080 0.194877 0.888000 131 76 57
-0.092782 0.194877 0.888000 142 80 63
-0.090484 0.194877 0.888000 144 82 65
-0.088185 0.194877 0.888000 148 86 67
-0.085887 0.194877 0.888000 151 89 70
-0.083589 0.194877 0.888000 153 91 72
-0.081291 0.194877 0.888000 153 91 72
-0.079082 0.195097 0.889000 155 91 73
-0.076781 0.195097 0.889000 156 92 74
-0.074480 0.195097 0.889000 152 85 68
-0.072179 0.195097 0.889000 153 86 69
-0.069878 0.195097 0.889000 158 91 74
-0.067578 0.195097 0.889000 159 92 75
-0.065277 0.195097 0.889000 163 97 77
-0.062976 0.195097 0.889000 161 95 75
-0.060744 0.195316 0.890000 166 96 73
-0.058440 0.195316 0.890000 163 93 70
-0.056137 0.195316 0.890000 165 90 69
-0.053833 0.195316 0.890000 165 90 69
-0.051530 0.195316 0.890000 165 92 72
-0.049227 0.195316 0.890000 166 93 73
-0.046923 0.195316 0.890000 160 89 73
-0.044620 0.195316 0.890000 163 92 76
-0.042317 0.195316 0.890000 166 96 80
-0.039968 0.195097 0.889000 167 97 81
-0.037667 0.195097 0.889000 171 100 84
-0.035367 0.195097 0.889000 168 97 81
-0.033029 0.194877 0.888000 166 95 79
-0.030731 0.194877 0.888000 164 93 77
-0.028400 0.194658 0.887000 160 89 75
-0.026105 0.194658 0.887000 159 88 74
-0.023782 0.194438 0.886000 159 88 74
-0.021489 0.194438 0.886000 160 89 75
-0.019196 0.194438 0.886000 164 90 75
-0.016903 0.194438 0.886000 161 87 72
-0.014610 0.194438 0.886000 162 86 72
-0.012317 0.194438 0.886000 166 90 76
-0.010024 0.194438 0.886000 163 89 74
-0.007731 0.194438 0.886000 163 89 74
-0.005438 0.194438 0.886000 162 92 78
-0.003145 0.194438 0.886000 162 92 78
-0.000852 0.194438 0.886000 158 90 78
0.001443 0.194658 0.887000 153 85 73
0.003738 0.194658 0.887000 154 89 76
0.006034 0.194658 0.887000 152 87 74
0.008329 0.194658 0.887000 147 82 69
0.010637 0.194877 0.888000 145 80 67
0.012921 0.194658 0.887000 147 84 70
0.015216 0.194658 0.887000 150 87 73
0.017512 0.194658 0.887000 155 99 87
0.019807 0.194658 0.887000 160 104 92
0.022103 0.194658 0.887000 166 123 116
0.024399 0.194658 0.887000 193 150 143
0.026724 0.194877 0.888000 214 184 179
-0.097378 0.197178 0.888000 155 129 116
-0.095080 0.197178 0.888000 146 120 107
-0.092782 0.197178 0.888000 146 110 98
-0.088285 0.197400 0.889000 126 88 77
-0.085984 0.197400 0.889000 122 84 73
-0.083683 0.197400 0.889000 124 82 70
-0.081382 0.197400 0.889000 126 84 72
-0.079082 0.197400 0.889000 131 86 73
-0.076781 0.197400 0.889000 127 82 69
-0.074480 0.197400 0.889000 129 81 66
-0.072179 0.197400 0.889000 127 79 64
-0.069878 0.197400 0.889000 130 77 64
-0.067578 0.197400 0.889000 133 80 67
-0.065277 0.197400 0.889000 136 80 64
-0.062976 0.197400 0.889000 137 81 65
-0.060744 0.197622 0.890000 141 84 63
-0.058375 0.197400 0.889000 144 87 66
-0.056074 0.197400 0.889000 148 85 64
-0.053773 0.197400 0.889000 148 85 64
-0.051472 0.197400 0.889000 153 87 67
-0.049171 0.197400 0.889000 150 84 64
-0.046871 0.197400 0.889000 143 77 57
-0.044570 0.197400 0.889000 149 83 63
-0.042269 0.197400 0.889000 156 90 70
-0.039968 0.197400 0.889000 154 88 68
-0.037667 0.197400 0.889000 162 93 74
-0.035327 0.197178 0.888000 163 94 75
-0.033029 0.197178 0.888000 166 96 77
-0.030696 0.196956 0.887000 162 92 73
-0.028400 0.196956 0.887000 156 86 67
-0.026105 0.196956 0.887000 155 85 66
-0.023782 0.196734 0.886000 159 90 71
-0.021489 0.196734 0.886000 158 89 70
-0.019196 0.196734 0.886000 155 86 67
-0.016903 0.196734 0.886000 154 85 66
-0.014610 0.196734 0.886000 153 84 65
-0.012317 0.196734 0.886000 153 84 65
-0.010024 0.196734 0.886000 152 85 68
-0.007731 0.196734 0.886000 149 82 65
-0.005438 0.196734 0.886000 144 84 69
-0.003145 0.196734 0.886000 146 86 71
-0.000852 0.196734 0.886000 140 87 74
0.001443 0.196956 0.887000 142 89 76
0.003738 0.196956 0.887000 143 94 84
0.006034 0.196956 0.887000 150 101 91
0.008329 0.196956 0.887000 161 118 109
0.010625 0.196956 0.887000 177 134 125
0.012935 0.197178 0.888000 188 152 144
0.015233 0.197178 0.888000 194 158 150
-0.072260 0.199929 0.890000 160 140 130
-0.069878 0.199704 0.889000 159 134 125
-0.067578 0.199704 0.889000 158 133 124
-0.065277 0.199704 0.889000 158 129 119
-0.062976 0.199704 0.889000 154 125 115
-0.060675 0.199704 0.889000 152 121 108
-0.058375 0.199704 0.889000 151 120 107
-0.056074 0.199704 0.889000 153 116 102
-0.053773 0.199704 0.889000 146 109 95
-0.051472 0.199704 0.889000 145 103 89
-0.049171 0.199704 0.889000 140 98 84
-0.046871 0.199704 0.889000 134 89 76
-0.044570 0.199704 0.889000 133 88 75
-0.042269 0.199704 0.889000 134 89 76
-0.039968 0.199704 0.889000 135 90 77
-0.037625 0.199480 0.888000 139 91 76
-0.035327 0.199480 0.888000 139 91 76
-0.033029 0.199480 0.888000 142 91 77
-0.030696 0.199255 0.887000 141 90 76
-0.028400 0.199255 0.887000 142 91 77
-0.026075 0.199030 0.886000 148 97 83
-0.023782 0.199030 0.886000 145 97 82
-0.021489 0.199030 0.886000 151 103 88
-0.019196 0.199030 0.886000 154 106 91
-0.016903 0.199030 0.886000 159 111 96
-0.014610 0.199030 0.886000 166 119 106
-0.012331 0.199255 0.887000 170 123 110
-0.010035 0.199255 0.887000 173 133 120
-0.007740 0.199255 0.887000 175 135 122
-0.005444 0.199255 0.887000 176 142 132
-0.003149 0.199255 0.887000 179 145 135
-0.000853 0.199255 0.887000 182 155 147
