ply
format ascii 1.0
element vertex 783
property float x
property float y
property float z
property uchar red
property uchar green
property uchar blue
end_header
0.066625 -0.534562 0.555425 131 121 119
0.069129 -0.533611 0.554985 172 140 136
0.071389 -0.533642 0.554769 205 173 169
0.064582 -0.534297 0.557894 99 83 76
0.067088 -0.533346 0.557450 109 93 86
0.069348 -0.533377 0.557235 178 126 115
0.071607 -0.533407 0.557019 209 157 146
0.073866 -0.533438 0.556803 199 163 155
0.064800 -0.534062 0.560146 88 68 60
0.067306 -0.533112 0.559700 90 70 62
0.069566 -0.533143 0.559485 187 127 112
0.071825 -0.533173 0.559269 217 157 142
0.074084 -0.533204 0.559053 219 168 154
0.076343 -0.533234 0.558837 220 169 155
0.065018 -0.533828 0.562399 87 69 60
0.067525 -0.532878 0.561951 83 65 56
0.069784 -0.532909 0.561735 141 83 69
0.072043 -0.532939 0.561519 186 128 114
0.074302 -0.532970 0.561303 234 167 152
0.076561 -0.533000 0.561087 238 171 156
0.067743 -0.532644 0.564201 90 76 68
0.070002 -0.532674 0.563985 113 62 48
0.072261 -0.532705 0.563769 159 108 94
0.074520 -0.532736 0.563553 203 133 114
0.076780 -0.532766 0.563337 238 168 149
0.079039 -0.532797 0.563122 212 170 158
0.070220 -0.532440 0.566235 103 63 50
0.072479 -0.532471 0.566019 116 76 63
0.074738 -0.532501 0.565803 163 94 75
0.076998 -0.532532 0.565587 213 144 125
0.079026 -0.533543 0.565608 219 163 149
0.081288 -0.533573 0.565392 222 166 152
0.070438 -0.532206 0.568485 96 70 59
0.072697 -0.532237 0.568269 89 63 52
0.074957 -0.532267 0.568053 135 71 55
0.076983 -0.533278 0.568076 193 129 113
0.079014 -0.534288 0.568099 230 160 141
0.081278 -0.534318 0.567883 230 160 141
0.072915 -0.532003 0.570519 89 73 66
0.074939 -0.533012 0.570545 117 59 45
0.076968 -0.534022 0.570571 161 103 89
0.079232 -0.534053 0.570354 216 138 118
0.081497 -0.534084 0.570138 228 150 130
0.083536 -0.535094 0.570162 211 164 153
0.075158 -0.532778 0.572798 107 62 51
0.077187 -0.533788 0.572826 116 71 60
0.079451 -0.533818 0.572609 191 116 97
0.081488 -0.534828 0.572637 219 144 125
0.083530 -0.535838 0.572663 213 150 136
0.085799 -0.535869 0.572447 224 161 147
0.077405 -0.533553 0.575081 91 62 52
0.079440 -0.534563 0.575111 152 82 66
0.081707 -0.534593 0.574894 201 131 115
0.083749 -0.535603 0.574924 214 141 121
0.085796 -0.536613 0.574953 229 156 136
0.088068 -0.536644 0.574736 205 171 159
0.077624 -0.533318 0.577336 84 69 59
0.079659 -0.534328 0.577369 108 52 38
0.081926 -0.534358 0.577152 148 92 78
0.083968 -0.535368 0.577184 211 134 111
0.086016 -0.536377 0.577215 219 142 119
0.088288 -0.536408 0.576998 210 159 143
0.079877 -0.534093 0.579627 99 58 48
0.081918 -0.535102 0.579661 104 63 53
0.083963 -0.536111 0.579695 183 110 90
0.086235 -0.536142 0.579478 214 141 121
0.088288 -0.537151 0.579512 220 150 134
0.090563 -0.537182 0.579295 224 154 138
0.082363 -0.533888 0.581668 86 61 52
0.084182 -0.535875 0.581958 133 66 49
0.086454 -0.535906 0.581741 180 113 96
0.088727 -0.535937 0.581524 219 141 121
0.090782 -0.536946 0.581560 218 140 120
0.093057 -0.536977 0.581343 213 167 159
0.084625 -0.534662 0.583965 112 59 44
0.086674 -0.535671 0.584004 135 82 67
0.088946 -0.535702 0.583787 208 127 108
0.091002 -0.536710 0.583826 212 131 112
0.093277 -0.536741 0.583608 213 150 138
0.095551 -0.536772 0.583391 225 162 150
0.087114 -0.534457 0.586009 91 57 47
0.089384 -0.534488 0.585792 156 86 67
0.091437 -0.535497 0.585833 203 133 114
0.093710 -0.535528 0.585616 216 138 120
0.095982 -0.535558 0.585399 226 148 130
0.098046 -0.536567 0.585439 210 169 163
0.087554 -0.533245 0.588008 86 68 57
0.089603 -0.534253 0.588052 116 58 42
0.091872 -0.534284 0.587835 153 95 79
0.094142 -0.534314 0.587619 211 130 111
0.096411 -0.534345 0.587402 217 136 117
0.098265 -0.536331 0.587705 216 158 146
0.100540 -0.536362 0.587487 229 171 159
0.090258 -0.532063 0.589786 104 64 51
0.092307 -0.533071 0.589833 102 62 49
0.094574 -0.533102 0.589616 179 106 86
0.096631 -0.534110 0.589662 213 140 120
0.098900 -0.534141 0.589445 216 143 125
0.100760 -0.536126 0.589753 234 161 143
0.103034 -0.536157 0.589535 209 178 169
0.092741 -0.531859 0.591825 89 67 57
0.095005 -0.531890 0.591609 124 60 44
0.097059 -0.532898 0.591657 176 112 96
0.099119 -0.533905 0.591706 221 140 121
0.101184 -0.534913 0.591754 225 144 125
0.103254 -0.535921 0.591801 220 173 160
0.105329 -0.536929 0.591848 220 173 160
0.095224 -0.531655 0.593864 99 54 41
0.097278 -0.532663 0.593915 112 67 54
0.099338 -0.533670 0.593966 186 111 92
0.101403 -0.534678 0.594016 215 140 121
0.103474 -0.535685 0.594066 216 149 132
0.105549 -0.536693 0.594116 234 167 150
0.107826 -0.536724 0.593898 205 176 166
0.097707 -0.531451 0.595903 90 65 56
0.099557 -0.533435 0.596226 128 64 48
0.101623 -0.534442 0.596279 183 119 103
0.103895 -0.534473 0.596062 219 144 125
0.105968 -0.535480 0.596115 228 153 134
0.108046 -0.536488 0.596166 219 174 163
0.110323 -0.536519 0.595949 216 171 160
0.099983 -0.532223 0.598214 102 55 42
0.102046 -0.533230 0.598270 112 65 52
0.104114 -0.534238 0.598325 193 115 97
0.106187 -0.535245 0.598380 219 141 123
0.108266 -0.536252 0.598434 216 149 134
0.110543 -0.536283 0.598217 235 168 153
0.102265 -0.532995 0.600530 87 61 50
0.104334 -0.534002 0.600588 142 72 56
0.106606 -0.534033 0.600371 196 126 110
0.108682 -0.535040 0.600428 216 135 116
0.110763 -0.536047 0.600485 231 150 131
0.113040 -0.536077 0.600267 223 176 163
0.411509 -0.541096 0.572010 145 123 125
0.413640 -0.540146 0.571551 145 112 111
0.415917 -0.540177 0.571333 172 139 138
0.104553 -0.533767 0.602851 107 59 44
0.106825 -0.533797 0.602634 127 79 64
0.109097 -0.533828 0.602417 202 124 106
0.111176 -0.534835 0.602476 215 137 119
0.113260 -0.535841 0.602535 201 137 121
0.115537 -0.535872 0.602318 216 152 136
0.406886 -0.538837 0.574227 128 108 109
0.409305 -0.539849 0.574254 130 88 87
0.411583 -0.539879 0.574036 130 88 87
0.413710 -0.538930 0.573575 131 81 78
0.415985 -0.538960 0.573358 145 95 92
0.418414 -0.539972 0.573384 216 190 188
0.107242 -0.532586 0.604617 89 58 47
0.109512 -0.532617 0.604401 147 78 59
0.111589 -0.533623 0.604463 195 126 107
0.113670 -0.534630 0.604525 212 137 118
0.115757 -0.535636 0.604586 222 147 128
0.118035 -0.535667 0.604368 218 175 166
0.402557 -0.538540 0.576927 149 132 132
0.404831 -0.538571 0.576710 137 100 95
0.407106 -0.538602 0.576492 128 91 86
0.409381 -0.538632 0.576275 143 86 79
0.411655 -0.538663 0.576058 142 85 78
0.413930 -0.538694 0.575840 129 79 72
0.416205 -0.538725 0.575623 143 93 86
0.109731 -0.532382 0.606661 110 57 40
0.112001 -0.532412 0.606444 135 82 65
0.113890 -0.534394 0.606790 208 130 110
0.116165 -0.534425 0.606573 215 137 117
0.118439 -0.534455 0.606355 218 158 145
0.120714 -0.534486 0.606138 230 170 157
0.400232 -0.536314 0.578909 140 107 106
0.402502 -0.536345 0.578692 131 98 97
0.404772 -0.536375 0.578475 141 85 73
0.407041 -0.536406 0.578259 141 85 73
0.409455 -0.537417 0.578291 143 85 73
0.411728 -0.537447 0.578074 144 86 74
0.414000 -0.537478 0.577857 159 121 112
0.416424 -0.538489 0.577889 206 168 159
0.112220 -0.532177 0.608704 96 62 50
0.114299 -0.533183 0.608772 169 99 78
0.116384 -0.534189 0.608838 206 136 115
0.118659 -0.534220 0.608621 207 132 113
0.120934 -0.534250 0.608404 207 132 113
0.123029 -0.535257 0.608469 210 174 166
0.398314 -0.537027 0.581639 131 105 103
0.400452 -0.536079 0.581169 143 91 82
0.402721 -0.536109 0.580952 142 90 81
0.404991 -0.536140 0.580736 149 84 71
0.407260 -0.536171 0.580519 148 83 70
0.409530 -0.536201 0.580302 150 98 87
0.411799 -0.536232 0.580085 191 139 128
0.114519 -0.532948 0.611034 115 59 43
0.116791 -0.532978 0.610817 156 100 84
0.118879 -0.533984 0.610886 210 132 112
0.121153 -0.534015 0.610669 210 132 112
0.123249 -0.535021 0.610737 219 163 151
0.125349 -0.536026 0.610805 228 172 160
0.394117 -0.537710 0.584593 141 119 121
0.396391 -0.537740 0.584375 139 91 85
0.398534 -0.536792 0.583902 137 89 83
0.400806 -0.536823 0.583685 149 84 71
0.402940 -0.535874 0.583213 147 82 69
0.405210 -0.535905 0.582996 146 90 76
0.407479 -0.535936 0.582779 174 118 104
0.409749 -0.535966 0.582562 207 173 163
0.117010 -0.532743 0.613080 105 68 54
0.119098 -0.533748 0.613152 171 101 82
0.121191 -0.534754 0.613223 207 137 118
0.123469 -0.534784 0.613005 211 138 120
0.125569 -0.535790 0.613076 228 155 137
0.127675 -0.536796 0.613145 213 175 166
0.392311 -0.539401 0.587593 136 99 96
0.394464 -0.538453 0.587117 135 98 95
0.396611 -0.537505 0.586641 149 86 74
0.398886 -0.537535 0.586423 146 83 71
0.401025 -0.536587 0.585948 146 83 71
0.403297 -0.536618 0.585731 165 102 90
0.405429 -0.535670 0.585256 191 149 137
0.407698 -0.535700 0.585039 226 184 172
0.119318 -0.533512 0.615417 120 62 46
0.121593 -0.533543 0.615200 161 103 87
0.123688 -0.534548 0.615273 210 132 112
0.125790 -0.535554 0.615346 211 133 113
0.127896 -0.536559 0.615419 216 158 146
0.130178 -0.536590 0.615201 229 171 159
0.388092 -0.540081 0.590562 147 114 113
0.390374 -0.540112 0.590344 137 104 103
0.392657 -0.540143 0.590126 143 84 77
0.394811 -0.539195 0.589646 147 88 81
0.397091 -0.539226 0.589429 145 80 69
0.399105 -0.537300 0.588689 151 86 75
0.401380 -0.537330 0.588472 168 120 105
0.403655 -0.537361 0.588254 219 171 156
0.121812 -0.533307 0.617465 110 70 57
0.123908 -0.534312 0.617541 177 104 84
0.126010 -0.535317 0.617617 207 134 114
0.128290 -0.535348 0.617399 213 140 122
0.130399 -0.536353 0.617474 221 148 130
0.132681 -0.536384 0.617256 213 172 166
0.386030 -0.539814 0.593053 131 103 102
0.388312 -0.539845 0.592835 145 92 86
0.390595 -0.539875 0.592617 136 83 77
0.392877 -0.539906 0.592399 149 84 73
0.395159 -0.539937 0.592181 145 80 69
0.397442 -0.539968 0.591963 160 104 92
0.399591 -0.539021 0.591481 205 149 137
0.401871 -0.539051 0.591264 218 187 178
0.123950 -0.535050 0.620105 125 63 46
0.126230 -0.535081 0.619887 168 106 89
0.128510 -0.535112 0.619670 212 131 112
0.130619 -0.536117 0.619747 209 128 109
0.132901 -0.536148 0.619529 215 152 140
0.135184 -0.536179 0.619311 232 169 157
0.381798 -0.540493 0.596030 145 122 119
0.384198 -0.541502 0.596080 144 96 88
0.386486 -0.541533 0.595861 133 85 77
0.388774 -0.541564 0.595643 147 84 72
0.391061 -0.541595 0.595424 144 81 69
0.393223 -0.540648 0.594939 148 90 78
0.395508 -0.540679 0.594721 185 127 115
0.397662 -0.539732 0.594236 212 178 170
0.124170 -0.534814 0.622376 110 65 52
0.126450 -0.534845 0.622158 109 64 51
0.128557 -0.535849 0.622238 174 99 80
0.130839 -0.535880 0.622020 207 132 113
0.133122 -0.535911 0.621802 211 133 115
0.135404 -0.535942 0.621584 226 148 130
0.137687 -0.535973 0.621366 217 176 166
0.377341 -0.539217 0.598472 149 129 130
0.379734 -0.540225 0.598524 145 102 95
0.382019 -0.540256 0.598306 134 91 84
0.384419 -0.541265 0.598358 142 82 71
0.386707 -0.541296 0.598140 145 85 74
0.388995 -0.541327 0.597921 138 80 68
0.391282 -0.541358 0.597703 162 104 92
0.393570 -0.541389 0.597484 199 158 150
0.395857 -0.541420 0.597265 231 190 182
0.126670 -0.534609 0.624429 98 74 62
0.128777 -0.535613 0.624511 120 55 42
0.131060 -0.535644 0.624293 162 97 84
0.133342 -0.535675 0.624075 214 132 115
0.135624 -0.535706 0.623857 211 129 112
0.137907 -0.535736 0.623639 214 151 137
0.140189 -0.535767 0.623421 234 171 157
0.375279 -0.538949 0.600963 146 109 104
0.377669 -0.539958 0.601018 135 98 93
0.379954 -0.539989 0.600800 138 81 72
0.382353 -0.540997 0.600855 143 86 77
0.384640 -0.541028 0.600636 139 82 73
0.386928 -0.541059 0.600418 143 86 77
0.389215 -0.541090 0.600199 177 134 127
0.391503 -0.541121 0.599981 217 174 167
0.129170 -0.534403 0.626482 107 65 53
0.131450 -0.534434 0.626264 100 58 46
0.133562 -0.535438 0.626348 167 91 77
0.135845 -0.535469 0.626130 200 124 110
0.138127 -0.535500 0.625912 212 131 114
0.140410 -0.535531 0.625694 227 146 129
0.142692 -0.535562 0.625476 213 173 160
0.370934 -0.538651 0.603672 147 112 109
0.373217 -0.538682 0.603454 129 94 91
0.375499 -0.538713 0.603236 141 84 77
0.377890 -0.539721 0.603294 144 87 80
0.380286 -0.540729 0.603352 137 80 71
0.382573 -0.540760 0.603133 139 82 73
0.384977 -0.541768 0.603190 149 106 99
0.387267 -0.541799 0.602971 197 154 147
0.389557 -0.541830 0.602753 217 194 189
0.131670 -0.534198 0.628534 98 76 68
0.133950 -0.534229 0.628317 112 54 40
0.136230 -0.534259 0.628099 144 86 72
0.138509 -0.534290 0.627881 199 117 102
0.140789 -0.534321 0.627663 210 128 113
0.143069 -0.534352 0.627445 217 150 135
0.145349 -0.534383 0.627228 228 161 146
0.366590 -0.538353 0.606381 158 121 118
0.368872 -0.538384 0.606163 138 101 98
0.371256 -0.539391 0.606225 145 86 77
0.373541 -0.539422 0.606006 146 87 78
0.375826 -0.539453 0.605788 144 85 76
0.378219 -0.540461 0.605849 140 81 72
0.380507 -0.540492 0.605630 142 96 88
0.382794 -0.540523 0.605412 193 147 139
0.385198 -0.541530 0.605471 211 186 179
0.134170 -0.533992 0.630587 106 70 60
0.136450 -0.534023 0.630369 100 64 54
0.138730 -0.534054 0.630152 148 77 61
0.141009 -0.534085 0.629934 184 113 97
0.143446 -0.533143 0.629409 219 138 119
0.145569 -0.534147 0.629498 219 138 119
0.147849 -0.534177 0.629280 212 160 149
0.362427 -0.540007 0.609657 156 121 116
0.364621 -0.539062 0.609155 143 108 103
0.366906 -0.539093 0.608937 148 89 80
0.369191 -0.539123 0.608719 146 87 78
0.371476 -0.539154 0.608500 147 84 70
0.373761 -0.539185 0.608282 146 83 69
0.376046 -0.539216 0.608064 147 98 86
0.378440 -0.540224 0.608127 167 118 106
0.380728 -0.540255 0.607908 201 174 166
0.138950 -0.533818 0.632422 120 67 54
0.141230 -0.533848 0.632204 125 72 59
0.143666 -0.532907 0.631677 192 111 92
0.145789 -0.533910 0.631769 217 136 117
0.148069 -0.533941 0.631551 208 135 115
0.150349 -0.533972 0.631333 226 153 133
0.152629 -0.534003 0.631115 217 179 172
0.358073 -0.539708 0.612372 153 121 115
0.360360 -0.539739 0.612153 144 112 106
0.362648 -0.539770 0.611935 148 90 76
0.364935 -0.539801 0.611716 148 90 76
0.367223 -0.539832 0.611498 156 89 74
0.369511 -0.539863 0.611279 152 85 70
0.371798 -0.539894 0.611061 148 92 78
0.374086 -0.539925 0.610842 173 117 103
0.376373 -0.539956 0.610624 206 172 162
0.141450 -0.533612 0.634475 97 68 58
0.143729 -0.533643 0.634257 129 62 45
0.146009 -0.533674 0.634039 165 98 81
0.148289 -0.533705 0.633822 208 128 106
0.150569 -0.533736 0.633604 217 137 115
0.152703 -0.534739 0.633697 213 153 138
0.154986 -0.534770 0.633479 231 171 156
0.351509 -0.540353 0.615595 166 149 149
0.353800 -0.540384 0.615377 162 127 122
0.356006 -0.539440 0.614869 148 113 108
0.358294 -0.539471 0.614650 149 96 83
0.360581 -0.539502 0.614432 143 90 77
0.362869 -0.539533 0.614213 154 90 74
0.365156 -0.539564 0.613995 150 86 70
0.367444 -0.539595 0.613776 145 87 73
0.369731 -0.539626 0.613558 167 109 95
0.372019 -0.539657 0.613339 194 156 147
0.374307 -0.539687 0.613121 224 186 177
0.143950 -0.533407 0.636528 113 68 57
0.146229 -0.533438 0.636310 109 64 53
0.148509 -0.533468 0.636092 159 86 66
0.150641 -0.534471 0.636188 197 124 104
0.152924 -0.534502 0.635970 209 131 113
0.155206 -0.534533 0.635752 222 144 126
0.157488 -0.534564 0.635534 213 161 150
0.159771 -0.534595 0.635316 224 172 161
0.347150 -0.540054 0.618314 166 149 149
0.349440 -0.540085 0.618095 164 127 122
0.351730 -0.540116 0.617876 143 106 101
0.353939 -0.539172 0.617366 150 92 78
0.356227 -0.539203 0.617147 147 89 75
0.358514 -0.539234 0.616929 153 90 76
0.360802 -0.539265 0.616710 150 87 73
0.363090 -0.539296 0.616492 146 88 74
0.365377 -0.539326 0.616273 167 109 95
0.367665 -0.539357 0.616055 189 148 138
0.369952 -0.539388 0.615836 222 181 171
0.146450 -0.533201 0.638581 99 79 71
0.148729 -0.533232 0.638363 118 62 48
0.150862 -0.534235 0.638461 136 80 66
0.153144 -0.534266 0.638243 183 108 91
0.155426 -0.534297 0.638025 204 129 112
0.157709 -0.534328 0.637807 205 131 116
0.159991 -0.534358 0.637589 214 140 125
0.162274 -0.534389 0.637371 215 174 166
0.342791 -0.539755 0.621032 164 145 143
0.345081 -0.539786 0.620813 162 125 120
0.347371 -0.539817 0.620595 145 108 103
0.349585 -0.538873 0.620081 148 88 77
0.351873 -0.538904 0.619863 149 89 78
0.354160 -0.538935 0.619644 154 90 74
0.356448 -0.538966 0.619425 154 90 74
0.358735 -0.538997 0.619207 145 87 73
0.361023 -0.539027 0.618988 159 101 87
0.363310 -0.539058 0.618770 187 149 138
0.365598 -0.539089 0.618551 218 180 169
0.151229 -0.533027 0.640416 100 69 60
0.153509 -0.533058 0.640198 130 66 50
0.155789 -0.533089 0.639980 151 87 71
0.158069 -0.533119 0.639762 188 110 94
0.160349 -0.533150 0.639544 195 117 101
0.162629 -0.533181 0.639327 200 132 120
0.164908 -0.533212 0.639109 215 147 135
0.167188 -0.533243 0.638891 206 170 162
0.338432 -0.539455 0.623751 166 149 149
0.340722 -0.539486 0.623532 166 127 123
0.343012 -0.539517 0.623313 146 107 103
0.345302 -0.539548 0.623094 149 89 78
0.347518 -0.538605 0.622578 146 86 75
0.349806 -0.538636 0.622359 149 82 67
0.352093 -0.538667 0.622141 152 85 70
0.354381 -0.538698 0.621922 149 89 74
0.356669 -0.538728 0.621704 161 101 86
0.358956 -0.538759 0.621485 183 143 130
0.361244 -0.538790 0.621267 212 172 159
0.153729 -0.532821 0.642468 118 78 65
0.156009 -0.532852 0.642251 114 74 61
0.158289 -0.532883 0.642033 149 79 65
0.160569 -0.532914 0.641815 163 93 79
0.162849 -0.532945 0.641597 182 104 88
0.165129 -0.532976 0.641379 187 109 93
0.167408 -0.533006 0.641162 187 122 113
0.169815 -0.532066 0.640625 214 149 140
0.172092 -0.532097 0.640407 211 170 164
0.334014 -0.538182 0.626167 153 133 134
0.336301 -0.538213 0.625949 158 116 113
0.338653 -0.539218 0.626032 145 103 100
0.340943 -0.539249 0.625813 153 90 78
0.343164 -0.538306 0.625293 149 86 74
0.345452 -0.538337 0.625075 149 85 69
0.347739 -0.538368 0.624856 147 83 67
0.350027 -0.538399 0.624638 149 89 74
0.352314 -0.538429 0.624419 165 105 90
0.354602 -0.538460 0.624201 192 150 138
0.356889 -0.538491 0.623982 218 176 164
0.158370 -0.533618 0.644627 117 72 61
0.160789 -0.532678 0.644086 109 64 53
0.163069 -0.532708 0.643868 147 76 60
0.165349 -0.532739 0.643650 168 97 81
0.167628 -0.532770 0.643432 188 110 94
0.170035 -0.531830 0.642893 193 115 99
0.172312 -0.531861 0.642675 194 123 109
0.174589 -0.531891 0.642457 205 134 120
0.179028 -0.532924 0.642343 219 170 160
0.325084 -0.537821 0.629320 171 151 154
0.327372 -0.537852 0.629101 173 142 142
0.329659 -0.537883 0.628883 153 122 122
0.331947 -0.537914 0.628664 143 95 89
0.334235 -0.537945 0.628446 135 87 81
0.336522 -0.537976 0.628227 152 84 72
0.338810 -0.538007 0.628009 153 85 73
0.341097 -0.538038 0.627790 153 86 69
0.343385 -0.538068 0.627572 149 82 65
0.345672 -0.538099 0.627353 147 89 75
0.347960 -0.538130 0.627135 172 114 100
0.350248 -0.538161 0.626916 197 156 146
0.352535 -0.538192 0.626697 220 179 169
0.163155 -0.533443 0.646464 121 74 63
0.165569 -0.532503 0.645921 123 76 65
0.167849 -0.532534 0.645703 147 77 63
0.170255 -0.531594 0.645161 161 91 77
0.172532 -0.531624 0.644943 179 101 85
0.174809 -0.531655 0.644726 185 107 91
0.179248 -0.532688 0.644614 187 112 95
0.181528 -0.532719 0.644396 182 124 108
0.183808 -0.532750 0.644178 204 146 130
0.186087 -0.532781 0.643960 211 168 159
0.188367 -0.532812 0.643743 220 177 168
0.316155 -0.537460 0.632472 194 172 174
0.318442 -0.537491 0.632254 185 152 153
0.320730 -0.537522 0.632035 167 134 135
0.323018 -0.537553 0.631817 168 124 122
0.325305 -0.537584 0.631598 142 98 96
0.327593 -0.537615 0.631380 156 99 90
0.329880 -0.537646 0.631161 149 92 83
0.332168 -0.537677 0.630943 146 76 62
0.334455 -0.537708 0.630724 145 75 61
0.336743 -0.537739 0.630506 156 86 70
0.339031 -0.537769 0.630287 153 83 67
0.341318 -0.537800 0.630068 145 87 71
0.343606 -0.537831 0.629850 173 115 99
0.345893 -0.537862 0.629631 193 155 146
0.348181 -0.537893 0.629413 217 179 170
0.168069 -0.532298 0.647973 123 78 67
0.170349 -0.532328 0.647756 117 72 61
0.172752 -0.531388 0.647211 140 72 60
0.175029 -0.531419 0.646994 150 82 70
0.177188 -0.532421 0.647102 163 90 72
0.179468 -0.532452 0.646885 171 98 80
0.181748 -0.532483 0.646667 176 101 82
0.184028 -0.532514 0.646449 174 99 80
0.186307 -0.532544 0.646231 168 97 81
0.188587 -0.532575 0.646013 184 113 97
0.190867 -0.532606 0.645796 194 136 124
0.193147 -0.532637 0.645578 203 145 133
0.195427 -0.532668 0.645360 205 160 149
0.197612 -0.533670 0.645466 214 169 158
0.199894 -0.533701 0.645248 212 176 168
0.304938 -0.537068 0.635843 204 178 178
0.307225 -0.537099 0.635625 188 162 162
0.309513 -0.537130 0.635406 178 145 144
0.311801 -0.537161 0.635188 169 136 135
0.314088 -0.537192 0.634969 164 118 114
0.316376 -0.537223 0.634751 148 102 98
0.318622 -0.536281 0.634221 157 98 91
0.320907 -0.536312 0.634003 147 88 81
0.323238 -0.537316 0.634095 150 85 74
0.325526 -0.537347 0.633876 151 86 75
0.327814 -0.537378 0.633658 159 89 75
0.330101 -0.537408 0.633439 158 88 74
0.332389 -0.537439 0.633221 153 86 71
0.334676 -0.537470 0.633002 151 84 69
0.336964 -0.537501 0.632784 157 101 87
0.339251 -0.537532 0.632565 186 130 116
0.341539 -0.537563 0.632347 196 160 150
0.172849 -0.532123 0.649808 126 85 77
0.175128 -0.532154 0.649591 118 77 69
0.177408 -0.532185 0.649373 129 73 59
0.179688 -0.532216 0.649155 132 76 62
0.181968 -0.532246 0.648937 151 82 63
0.184248 -0.532277 0.648719 160 91 72
0.186528 -0.532308 0.648502 170 97 79
0.188807 -0.532339 0.648284 170 97 79
0.190985 -0.533341 0.648394 170 96 81
0.193267 -0.533372 0.648175 175 101 86
0.195550 -0.533403 0.647957 175 105 89
0.197832 -0.533433 0.647739 172 102 86
0.200115 -0.533464 0.647521 171 106 93
0.202397 -0.533495 0.647303 189 124 111
0.204679 -0.533526 0.647085 196 139 130
0.206962 -0.533557 0.646867 196 139 130
0.209244 -0.533588 0.646649 195 145 138
0.211447 -0.534590 0.646756 208 158 151
0.213732 -0.534621 0.646538 207 161 155
0.215943 -0.535623 0.646644 208 162 156
0.218231 -0.535654 0.646426 206 163 156
0.220518 -0.535685 0.646207 210 167 160
0.222806 -0.535716 0.645989 209 168 160
0.225094 -0.535747 0.645770 210 169 161
0.227381 -0.535778 0.645552 206 165 157
0.229610 -0.536780 0.645656 210 169 161
0.231900 -0.536811 0.645438 211 173 164
0.291411 -0.534700 0.638800 199 173 169
0.293694 -0.534731 0.638582 193 167 163
0.295992 -0.535734 0.638680 188 156 152
0.298277 -0.535765 0.638461 180 148 144
0.300584 -0.536769 0.638559 177 135 132
0.302871 -0.536800 0.638340 161 119 116
0.305159 -0.536831 0.638122 157 104 100
0.307446 -0.536862 0.637903 152 99 95
0.309734 -0.536893 0.637685 155 94 86
0.312021 -0.536924 0.637466 156 95 87
0.314309 -0.536955 0.637247 166 95 84
0.316597 -0.536986 0.637029 160 89 78
0.318842 -0.536044 0.636497 161 90 76
0.321127 -0.536075 0.636279 157 86 72
0.323412 -0.536106 0.636060 152 85 70
0.325747 -0.537109 0.636155 149 82 67
0.328034 -0.537140 0.635936 148 83 70
0.330322 -0.537171 0.635718 149 84 71
0.332610 -0.537202 0.635499 157 105 94
0.334897 -0.537233 0.635281 191 139 128
0.337185 -0.537264 0.635062 205 174 163
0.179793 -0.532950 0.651757 131 104 96
0.182076 -0.532981 0.651539 131 89 77
0.184358 -0.533011 0.651321 122 80 68
0.186640 -0.533042 0.651103 132 74 58
0.188923 -0.533073 0.650885 137 79 63
0.191205 -0.533104 0.650667 143 79 63
0.193488 -0.533135 0.650449 148 84 68
0.195770 -0.533166 0.650231 160 93 76
0.198052 -0.533197 0.650013 161 94 77
0.200335 -0.533228 0.649795 161 91 72
0.202617 -0.533259 0.649576 161 91 72
0.204900 -0.533289 0.649358 157 86 70
0.207098 -0.534291 0.649469 155 84 68
0.209383 -0.534322 0.649250 162 92 78
0.211589 -0.535324 0.649360 159 89 75
0.213877 -0.535355 0.649141 158 91 76
0.216164 -0.535386 0.648923 159 92 77
0.218452 -0.535417 0.648704 161 94 79
0.220739 -0.535448 0.648486 164 97 82
0.223027 -0.535479 0.648267 166 99 82
0.225251 -0.536481 0.648375 171 104 87
0.227541 -0.536512 0.648156 170 103 86
0.229831 -0.536543 0.647937 170 103 86
0.232121 -0.536574 0.647719 172 108 90
0.234412 -0.536605 0.647500 177 113 95
0.236651 -0.537607 0.647606 177 113 97
0.238944 -0.537638 0.647387 179 115 99
0.241236 -0.537669 0.647168 183 123 110
0.243529 -0.537700 0.646949 193 133 120
0.245822 -0.537731 0.646730 196 144 135
0.248115 -0.537763 0.646511 200 148 139
0.250407 -0.537794 0.646292 204 157 146
0.252700 -0.537825 0.646073 215 168 157
0.254993 -0.537856 0.645854 214 166 158
0.257286 -0.537887 0.645635 211 163 155
0.259603 -0.536946 0.645093 214 166 158
0.261893 -0.536977 0.644874 215 167 159
0.264183 -0.537008 0.644656 213 165 159
0.266491 -0.536067 0.644115 207 159 153
0.268778 -0.536098 0.643896 207 159 155
0.271078 -0.535157 0.643357 203 155 151
0.273363 -0.535188 0.643138 201 153 149
0.275655 -0.534247 0.642599 196 148 144
0.277937 -0.534278 0.642381 193 143 138
0.280220 -0.534309 0.642163 186 136 131
0.282502 -0.534340 0.641945 178 124 116
0.284785 -0.534371 0.641727 169 115 107
0.287067 -0.534402 0.641509 160 103 96
0.289349 -0.534433 0.641291 155 98 91
0.291632 -0.534464 0.641073 152 93 84
0.293914 -0.534494 0.640855 146 87 78
0.296213 -0.535498 0.640955 144 84 73
0.298517 -0.536501 0.641055 142 82 71
0.300804 -0.536532 0.640837 150 82 74
0.303092 -0.536563 0.640618 154 86 78
0.305380 -0.536594 0.640400 160 88 77
0.307667 -0.536625 0.640181 162 90 79
0.309955 -0.536656 0.639963 166 92 77
0.312242 -0.536687 0.639744 164 90 75
0.314530 -0.536718 0.639526 162 91 77
0.316778 -0.535776 0.638991 157 86 72
0.319063 -0.535807 0.638772 149 84 71
0.321348 -0.535838 0.638554 147 82 69
0.323680 -0.536841 0.638652 149 96 83
0.325968 -0.536872 0.638433 165 112 99
0.328255 -0.536903 0.638215 177 139 128
0.330543 -0.536934 0.637996 202 164 153
0.189039 -0.533807 0.653491 137 108 98
0.191324 -0.533838 0.653272 131 94 80
0.193609 -0.533869 0.653054 124 87 73
0.195894 -0.533900 0.652836 131 85 69
0.198179 -0.533931 0.652618 130 84 68
0.202660 -0.534963 0.652512 131 76 57
0.204947 -0.534994 0.652294 142 80 63
0.207235 -0.535025 0.652075 144 82 65
0.209522 -0.535056 0.651857 148 86 67
0.211810 -0.535087 0.651638 151 89 70
0.214097 -0.535118 0.651420 153 91 72
0.216385 -0.535149 0.651201 153 91 72
0.218602 -0.536151 0.651312 155 91 73
0.220892 -0.536182 0.651093 156 92 74
0.223182 -0.536213 0.650874 152 85 68
0.225472 -0.536244 0.650656 153 86 69
0.227762 -0.536275 0.650437 158 91 74
0.230052 -0.536306 0.650218 159 92 75
0.232342 -0.536337 0.649999 163 97 77
0.234633 -0.536368 0.649781 161 95 75
0.236872 -0.537370 0.649889 166 96 73
0.239165 -0.537401 0.649670 163 93 70
0.241458 -0.537432 0.649451 165 90 69
0.243751 -0.537463 0.649232 165 90 69
0.246043 -0.537494 0.649013 165 92 72
0.248336 -0.537525 0.648794 166 93 73
0.250629 -0.537556 0.648575 160 89 73
0.252921 -0.537587 0.648356 163 92 76
0.255214 -0.537618 0.648137 166 96 80
0.257534 -0.536678 0.647593 167 97 81
0.259824 -0.536709 0.647374 171 100 84
0.262114 -0.536740 0.647155 168 97 81
0.264424 -0.535799 0.646612 166 95 79
0.266712 -0.535830 0.646393 164 93 77
0.269014 -0.534890 0.645851 160 89 75
0.271299 -0.534921 0.645632 159 88 74
0.273593 -0.533980 0.645090 159 88 74
0.275875 -0.534011 0.644872 160 89 75
0.278158 -0.534042 0.644654 164 90 75
0.280440 -0.534072 0.644436 161 87 72
0.282722 -0.534103 0.644218 162 86 72
0.285005 -0.534134 0.644000 166 90 76
0.287287 -0.534165 0.643782 163 89 74
0.289570 -0.534196 0.643564 163 89 74
0.291852 -0.534227 0.643346 162 92 78
0.294135 -0.534258 0.643128 162 92 78
0.296417 -0.534289 0.642910 158 90 78
0.298719 -0.535292 0.643013 153 85 73
0.301004 -0.535323 0.642795 154 89 76
0.303289 -0.535354 0.642576 152 87 74
0.305574 -0.535385 0.642358 147 82 69
0.307888 -0.536388 0.642460 145 80 67
0.310144 -0.535446 0.641921 147 84 70
0.312429 -0.535477 0.641703 150 87 73
0.314714 -0.535508 0.641485 155 99 87
0.316999 -0.535539 0.641267 160 104 92
0.319284 -0.535570 0.641048 166 123 116
0.321569 -0.535601 0.640830 193 150 143
0.323901 -0.536604 0.640930 214 184 179
0.200593 -0.534695 0.655009 155 129 116
0.202880 -0.534726 0.654791 146 120 107
0.205168 -0.534757 0.654572 146 110 98
0.209662 -0.535789 0.654468 126 88 77
0.211952 -0.535820 0.654249 122 84 73
0.214242 -0.535851 0.654031 124 82 70
0.216533 -0.535882 0.653812 126 84 72
0.218823 -0.535913 0.653593 131 86 73
0.221113 -0.535944 0.653374 127 82 69
0.223403 -0.535975 0.653155 129 81 66
0.225693 -0.536006 0.652937 127 79 64
0.227983 -0.536037 0.652718 130 77 64
0.230273 -0.536068 0.652499 133 80 67
0.232564 -0.536099 0.652280 136 80 64
0.234854 -0.536130 0.652061 137 81 65
0.237094 -0.537132 0.652173 141 84 63
0.239434 -0.536192 0.651624 144 87 66
0.241724 -0.536223 0.651405 148 85 64
0.244014 -0.536254 0.651186 148 85 64
0.246304 -0.536285 0.650968 153 87 67
0.248595 -0.536316 0.650749 150 84 64
0.250885 -0.536347 0.650530 143 77 57
0.253175 -0.536378 0.650311 149 83 63
0.255465 -0.536409 0.650092 156 90 70
0.257755 -0.536440 0.649874 154 88 68
0.260045 -0.536471 0.649655 162 93 74
0.262357 -0.535531 0.649109 163 94 75
0.264645 -0.535562 0.648890 166 96 77
0.266949 -0.534622 0.648345 162 92 73
0.269234 -0.534653 0.648126 156 86 67
0.271519 -0.534684 0.647908 155 85 66
0.273813 -0.533743 0.647363 159 90 71
0.276096 -0.533774 0.647145 158 89 70
0.278378 -0.533805 0.646927 155 86 67
0.280660 -0.533836 0.646709 154 85 66
0.282943 -0.533867 0.646491 153 84 65
0.285225 -0.533898 0.646273 153 84 65
0.287508 -0.533929 0.646055 152 85 68
0.289790 -0.533959 0.645837 149 82 65
0.292073 -0.533990 0.645619 144 84 69
0.294355 -0.534021 0.645401 146 86 71
0.296637 -0.534052 0.645183 140 87 74
0.298939 -0.535055 0.645289 142 89 76
0.301224 -0.535086 0.645070 143 94 84
0.303509 -0.535117 0.644852 150 101 91
0.305794 -0.535148 0.644634 161 118 109
0.308079 -0.535179 0.644415 177 134 125
0.310396 -0.536181 0.644519 188 152 144
0.312684 -0.536212 0.644301 194 158 150
0.225851 -0.536739 0.655551 160 140 130
0.228204 -0.535800 0.654999 159 134 125
0.230495 -0.535831 0.654780 158 133 124
0.232785 -0.535862 0.654561 158 129 119
0.235075 -0.535893 0.654342 154 125 115
0.237365 -0.535924 0.654124 152 121 108
0.239655 -0.535955 0.653905 151 120 107
0.241945 -0.535986 0.653686 153 116 102
0.244235 -0.536017 0.653467 146 109 95
0.246526 -0.536048 0.653248 145 103 89
0.248816 -0.536079 0.653030 140 98 84
0.251106 -0.536110 0.652811 134 89 76
0.253396 -0.536141 0.652592 133 88 75
0.255686 -0.536172 0.652373 134 89 76
0.257976 -0.536203 0.652155 135 90 77
0.260291 -0.535263 0.651605 139 91 76
0.262578 -0.535294 0.651387 139 91 76
0.264866 -0.535325 0.651168 142 91 77
0.267170 -0.534385 0.650620 141 90 76
0.269455 -0.534416 0.650402 142 91 77
0.271751 -0.533476 0.649855 148 97 83
0.274033 -0.533507 0.649637 145 97 82
0.276316 -0.533538 0.649419 151 103 88
0.278598 -0.533568 0.649201 154 106 91
0.280881 -0.533599 0.648983 159 111 96
0.283163 -0.533630 0.648764 166 119 106
0.285450 -0.534633 0.648874 170 123 110
0.287735 -0.534663 0.648656 173 133 120
0.290020 -0.534694 0.648438 175 135 122
0.292305 -0.534725 0.648219 176 142 132
0.294590 -0.534756 0.648001 179 145 135
0.296875 -0.534787 0.647783 182 155 147
