ply
format ascii 1.0
element vertex 896
property float x
property float y
property float z
property uchar red
property uchar green
property uchar blue
end_header
0.147541 0.019548 0.867000 169 148 147
0.149961 0.019571 0.868000 166 145 144
0.152212 0.019571 0.868000 185 158 150
0.145125 0.021774 0.866000 152 140 140
0.147541 0.021799 0.867000 133 98 95
0.149961 0.021824 0.868000 115 80 77
0.152212 0.021824 0.868000 154 113 105
0.154463 0.021824 0.868000 236 195 187
0.142879 0.024022 0.866000 130 113 115
0.145125 0.024022 0.866000 122 105 107
0.147541 0.024050 0.867000 126 83 76
0.149961 0.024078 0.868000 122 79 72
0.152212 0.024078 0.868000 168 127 117
0.154463 0.024078 0.868000 255 214 204
0.142879 0.026271 0.866000 113 91 93
0.145125 0.026271 0.866000 119 97 99
0.147541 0.026301 0.867000 133 83 76
0.149961 0.026332 0.868000 138 88 81
0.152212 0.026332 0.868000 202 161 151
0.154463 0.026332 0.868000 255 222 212
0.140796 0.028552 0.867000 134 125 128
0.143044 0.028552 0.867000 113 87 85
0.145125 0.028519 0.866000 119 93 91
0.147541 0.028552 0.867000 135 78 69
0.149961 0.028585 0.868000 156 99 90
0.152212 0.028585 0.868000 236 195 185
0.140959 0.030839 0.868000 118 107 111
0.143044 0.030803 0.867000 118 83 80
0.145292 0.030803 0.867000 122 87 84
0.147711 0.030839 0.868000 137 84 71
0.149961 0.030839 0.868000 178 125 112
0.152212 0.030839 0.868000 255 219 208
0.140959 0.033093 0.868000 110 98 98
0.143209 0.033093 0.868000 118 77 71
0.145460 0.033093 0.868000 126 85 79
0.147711 0.033093 0.868000 151 95 83
0.149961 0.033093 0.868000 216 160 148
0.152212 0.033093 0.868000 255 226 218
0.138708 0.035346 0.868000 150 130 131
0.140959 0.035346 0.868000 108 88 89
0.143209 0.035346 0.868000 131 81 74
0.145460 0.035346 0.868000 137 87 80
0.147711 0.035346 0.868000 174 121 108
0.150134 0.035387 0.869000 254 201 188
0.138708 0.037600 0.868000 130 104 104
0.140959 0.037600 0.868000 110 84 84
0.143209 0.037600 0.868000 135 78 69
0.145460 0.037600 0.868000 146 89 80
0.147881 0.037643 0.869000 209 160 150
0.150134 0.037643 0.869000 255 218 208
0.136614 0.039900 0.869000 171 158 164
0.138868 0.039900 0.869000 122 86 86
0.141121 0.039900 0.869000 120 84 84
0.143374 0.039900 0.869000 146 83 73
0.145628 0.039900 0.869000 172 109 99
0.147881 0.039900 0.869000 243 198 187
0.150134 0.039900 0.869000 255 218 207
0.136614 0.042156 0.869000 146 130 135
0.138868 0.042156 0.869000 126 82 80
0.141121 0.042156 0.869000 127 83 81
0.143374 0.042156 0.869000 153 95 83
0.145628 0.042156 0.869000 204 146 134
0.147881 0.042156 0.869000 255 223 213
0.134361 0.044412 0.869000 180 163 165
0.136614 0.044412 0.869000 116 99 101
0.138868 0.044412 0.869000 135 80 75
0.141121 0.044412 0.869000 142 87 82
0.143374 0.044412 0.869000 164 111 98
0.145628 0.044412 0.869000 242 189 176
0.147881 0.044412 0.869000 249 222 216
0.134361 0.046668 0.869000 154 127 130
0.136614 0.046668 0.869000 115 88 91
0.138868 0.046668 0.869000 145 86 77
0.141121 0.046668 0.869000 160 101 92
0.143374 0.046668 0.869000 198 149 137
0.145628 0.046668 0.869000 255 216 204
0.132108 0.048925 0.869000 174 162 162
0.134361 0.048925 0.869000 132 96 96
0.136614 0.048925 0.869000 122 86 86
0.138868 0.048925 0.869000 154 91 81
0.141121 0.048925 0.869000 182 119 109
0.143374 0.048925 0.869000 237 195 183
0.145628 0.048925 0.869000 255 219 207
0.132108 0.051181 0.869000 140 125 126
0.134361 0.051181 0.869000 131 83 79
0.136614 0.051181 0.869000 136 88 84
0.138868 0.051181 0.869000 161 103 91
0.141121 0.051181 0.869000 214 156 144
0.143374 0.051181 0.869000 254 220 212
0.129854 0.053437 0.869000 169 148 147
0.132108 0.053437 0.869000 117 96 95
0.134361 0.053437 0.869000 143 84 75
0.136614 0.053437 0.869000 154 95 86
0.138868 0.053437 0.869000 184 130 120
0.141121 0.053437 0.869000 255 202 192
0.129854 0.055694 0.869000 147 114 113
0.132108 0.055694 0.869000 125 92 91
0.134361 0.055694 0.869000 155 92 82
0.136614 0.055694 0.869000 170 107 97
0.138868 0.055694 0.869000 216 169 158
0.141121 0.055694 0.869000 255 221 210
0.127748 0.058017 0.870000 153 141 141
0.129854 0.057950 0.869000 134 90 88
0.132108 0.057950 0.869000 134 90 88
0.134361 0.057950 0.869000 162 99 87
0.136614 0.057950 0.869000 197 134 122
0.138868 0.057950 0.869000 248 212 202
0.125636 0.060345 0.871000 183 163 164
0.127748 0.060275 0.870000 128 108 109
0.129854 0.060206 0.869000 137 82 77
0.132108 0.060206 0.869000 144 89 84
0.134361 0.060206 0.869000 173 113 98
0.136614 0.060206 0.869000 239 179 164
0.138868 0.060206 0.869000 244 219 212
0.125636 0.062606 0.871000 160 129 129
0.127748 0.062534 0.870000 120 89 89
0.129854 0.062462 0.869000 148 85 75
0.132108 0.062462 0.869000 161 98 88
0.134361 0.062462 0.869000 204 153 139
0.136614 0.062462 0.869000 255 209 195
0.123378 0.064868 0.871000 162 150 150
0.125636 0.064868 0.871000 139 97 96
0.127748 0.064793 0.870000 128 86 85
0.129854 0.064719 0.869000 150 87 75
0.132108 0.064719 0.869000 178 115 103
0.134516 0.064793 0.870000 242 197 186
0.136614 0.064719 0.869000 255 213 202
0.123378 0.067129 0.871000 138 118 119
0.125636 0.067129 0.871000 136 86 81
0.127748 0.067052 0.870000 133 83 78
0.130004 0.067052 0.870000 161 103 91
0.132260 0.067052 0.870000 226 168 156
0.134516 0.067052 0.870000 255 220 212
0.121119 0.069391 0.871000 163 137 137
0.123378 0.069391 0.871000 122 96 96
0.125636 0.069391 0.871000 143 84 77
0.127895 0.069391 0.871000 148 89 82
0.130004 0.069311 0.870000 190 132 120
0.132260 0.069311 0.870000 255 206 194
0.121119 0.071652 0.871000 134 99 96
0.123378 0.071652 0.871000 125 90 87
0.125492 0.071570 0.870000 147 84 74
0.127748 0.071570 0.870000 165 102 92
0.130004 0.071570 0.870000 230 181 169
0.132260 0.071570 0.870000 255 215 203
0.118861 0.073914 0.871000 150 135 134
0.121119 0.073914 0.871000 134 88 82
0.123236 0.073829 0.870000 137 91 85
0.125492 0.073829 0.870000 154 89 76
0.127748 0.073829 0.870000 200 135 122
0.130004 0.073829 0.870000 254 211 204
0.116602 0.076175 0.871000 173 152 151
0.118861 0.076175 0.871000 132 111 110
0.121119 0.076175 0.871000 146 92 82
0.123236 0.076088 0.870000 141 87 77
0.125492 0.076088 0.870000 168 108 95
0.127748 0.076088 0.870000 240 180 167
0.129854 0.076000 0.869000 252 220 214
0.116602 0.078437 0.871000 154 123 121
0.118861 0.078437 0.871000 126 95 93
0.121119 0.078437 0.871000 150 87 75
0.123236 0.078346 0.870000 156 93 81
0.125492 0.078346 0.870000 199 145 135
0.127748 0.078346 0.870000 255 210 200
0.114344 0.080698 0.871000 155 140 141
0.116602 0.080698 0.871000 136 98 91
0.118861 0.080698 0.871000 132 94 87
0.120980 0.080605 0.870000 153 93 80
0.123236 0.080605 0.870000 184 124 111
0.125492 0.080605 0.870000 240 197 188
0.114344 0.082959 0.871000 140 118 120
0.116602 0.082959 0.871000 147 95 86
0.118724 0.082864 0.870000 145 93 84
0.120980 0.082864 0.870000 167 109 95
0.123094 0.082769 0.869000 224 166 152
0.125348 0.082769 0.869000 249 218 209
0.112085 0.085221 0.871000 154 123 123
0.114344 0.085221 0.871000 129 98 98
0.116602 0.085221 0.871000 149 86 76
0.118588 0.085025 0.869000 161 98 88
0.120841 0.085025 0.869000 195 144 130
0.123094 0.085025 0.869000 255 209 195
0.109953 0.087583 0.872000 161 146 147
0.112085 0.087482 0.871000 148 105 100
0.114344 0.087482 0.871000 134 91 86
0.116602 0.087482 0.871000 157 92 79
0.118588 0.087282 0.869000 178 113 100
0.120841 0.087282 0.869000 238 195 186
0.123094 0.087282 0.869000 253 210 201
0.107692 0.089847 0.872000 176 153 152
0.109827 0.089744 0.871000 146 123 122
0.112085 0.089744 0.871000 148 90 78
0.114344 0.089744 0.871000 150 92 80
0.116468 0.089641 0.870000 173 113 100
0.118588 0.089538 0.869000 224 164 151
0.120841 0.089538 0.869000 247 217 210
0.107692 0.092111 0.872000 162 127 124
0.109827 0.092005 0.871000 137 102 99
0.112085 0.092005 0.871000 155 92 78
0.114344 0.092005 0.871000 160 97 83
0.116468 0.091900 0.870000 198 147 133
0.118588 0.091794 0.869000 255 207 193
0.105431 0.094375 0.872000 159 139 140
0.107568 0.094267 0.871000 145 97 89
0.109827 0.094267 0.871000 140 92 84
0.112085 0.094267 0.871000 155 92 78
0.114344 0.094267 0.871000 186 123 109
0.116468 0.094159 0.870000 241 200 190
0.118588 0.094050 0.869000 255 214 204
0.103288 0.096750 0.873000 175 147 144
0.105431 0.096639 0.872000 143 115 112
0.107568 0.096528 0.871000 150 87 77
0.109827 0.096528 0.871000 153 90 80
0.112085 0.096528 0.871000 167 111 99
0.114344 0.096528 0.871000 234 178 166
0.116602 0.096528 0.871000 248 218 211
0.101024 0.099017 0.873000 179 164 163
0.103288 0.099017 0.873000 152 106 100
0.105431 0.098903 0.872000 138 92 86
0.107568 0.098790 0.871000 155 90 77
0.109827 0.098790 0.871000 164 99 86
0.112085 0.098790 0.871000 213 168 157
0.114344 0.098790 0.871000 255 214 203
0.098761 0.101283 0.873000 186 160 156
0.101024 0.101283 0.873000 147 121 117
0.103288 0.101283 0.873000 151 91 78
0.105552 0.101283 0.873000 149 89 76
0.107692 0.101167 0.872000 159 99 84
0.109953 0.101167 0.872000 201 141 126
0.112085 0.101051 0.871000 247 216 207
0.098874 0.103669 0.874000 162 121 113
0.101024 0.103550 0.873000 135 94 86
0.103288 0.103550 0.873000 153 90 76
0.105552 0.103550 0.873000 158 95 81
0.107815 0.103550 0.873000 186 137 125
0.110079 0.103550 0.873000 252 203 191
0.096718 0.106059 0.875000 158 132 128
0.098874 0.105938 0.874000 148 89 80
0.101140 0.105938 0.874000 150 91 82
0.103288 0.105817 0.873000 154 96 82
0.105552 0.105817 0.873000 188 130 116
0.107815 0.105817 0.873000 235 201 191
0.110079 0.105817 0.873000 254 220 210
0.094449 0.108331 0.875000 166 123 116
0.096718 0.108331 0.875000 136 93 86
0.098874 0.108207 0.874000 156 93 81
0.101140 0.108207 0.874000 155 92 80
0.103406 0.108207 0.874000 181 132 120
0.105673 0.108207 0.874000 245 196 184
0.107939 0.108207 0.874000 246 225 220
0.089911 0.110603 0.875000 197 166 164
0.092180 0.110603 0.875000 159 128 126
0.094449 0.110603 0.875000 148 88 77
0.096718 0.110603 0.875000 152 92 81
0.098987 0.110603 0.875000 154 94 81
0.101256 0.110603 0.875000 179 119 106
0.103525 0.110603 0.875000 231 195 185
0.105793 0.110603 0.875000 249 213 203
0.087643 0.112875 0.875000 178 155 152
0.089911 0.112875 0.875000 165 115 110
0.092180 0.112875 0.875000 143 93 88
0.094449 0.112875 0.875000 154 91 79
0.096718 0.112875 0.875000 156 93 81
0.098987 0.112875 0.875000 175 126 114
0.101256 0.112875 0.875000 231 182 170
0.103525 0.112875 0.875000 234 211 208
0.083105 0.115146 0.875000 197 176 173
0.085374 0.115146 0.875000 187 141 135
0.087643 0.115146 0.875000 154 108 102
0.089911 0.115146 0.875000 152 87 76
0.092180 0.115146 0.875000 157 92 81
0.094449 0.115146 0.875000 154 96 84
0.096718 0.115146 0.875000 190 132 120
0.098987 0.115146 0.875000 220 186 178
0.076298 0.117418 0.875000 222 192 187
0.078567 0.117418 0.875000 218 188 183
0.080836 0.117418 0.875000 207 159 151
0.083105 0.117418 0.875000 173 125 117
0.085374 0.117418 0.875000 163 98 85
0.087643 0.117418 0.875000 156 91 78
0.089911 0.117418 0.875000 155 92 80
0.092180 0.117418 0.875000 163 100 88
0.094449 0.117418 0.875000 195 152 143
0.096718 0.117418 0.875000 237 194 185
0.008261 0.120101 0.878000 236 198 187
0.010537 0.120101 0.878000 238 200 189
0.012814 0.120101 0.878000 241 201 188
0.015091 0.120101 0.878000 241 201 188
0.017387 0.120237 0.879000 240 198 186
0.019689 0.120374 0.880000 238 196 184
0.021970 0.120374 0.880000 240 198 186
0.024280 0.120511 0.881000 239 197 185
0.026564 0.120511 0.881000 239 196 187
0.028849 0.120511 0.881000 239 196 187
0.031168 0.120648 0.882000 238 197 189
0.067146 0.119553 0.874000 235 197 190
0.069412 0.119553 0.874000 235 197 190
0.071679 0.119553 0.874000 238 190 182
0.073945 0.119553 0.874000 228 180 172
0.076211 0.119553 0.874000 215 156 147
0.078477 0.119553 0.874000 185 126 117
0.080744 0.119553 0.874000 168 100 88
0.083105 0.119690 0.875000 164 96 84
0.085374 0.119690 0.875000 159 94 81
0.087643 0.119690 0.875000 161 96 83
0.089911 0.119690 0.875000 166 117 107
0.092180 0.119690 0.875000 207 158 148
0.094665 0.119964 0.877000 225 200 193
-0.009953 0.122380 0.878000 225 184 174
-0.007676 0.122380 0.878000 225 184 174
-0.005399 0.122380 0.878000 225 176 164
-0.003119 0.122241 0.877000 221 172 160
-0.000845 0.122241 0.877000 216 160 146
0.001429 0.122241 0.877000 208 152 138
0.003703 0.122241 0.877000 209 145 129
0.005977 0.122241 0.877000 201 137 121
0.008251 0.122241 0.877000 205 135 119
0.010537 0.122380 0.878000 203 133 117
0.012814 0.122380 0.878000 205 132 112
0.015108 0.122520 0.879000 208 135 115
0.017407 0.122659 0.880000 215 142 122
0.019689 0.122659 0.880000 226 153 133
0.021995 0.122798 0.881000 223 150 130
0.024280 0.122798 0.881000 230 157 137
0.026594 0.122938 0.882000 234 160 145
0.028881 0.122938 0.882000 240 166 151
0.031168 0.122938 0.882000 245 174 160
0.033417 0.122798 0.881000 241 170 156
0.035702 0.122798 0.881000 245 175 161
0.037986 0.122798 0.881000 250 180 166
0.040225 0.122659 0.880000 250 182 170
0.042459 0.122520 0.879000 250 182 170
0.044738 0.122520 0.879000 250 185 174
0.046964 0.122380 0.878000 251 186 175
0.049184 0.122241 0.877000 250 190 177
0.051458 0.122241 0.877000 248 188 175
0.053610 0.121962 0.875000 246 186 175
0.055879 0.121962 0.875000 247 187 176
0.058147 0.121962 0.875000 245 185 174
0.060416 0.121962 0.875000 240 180 169
0.062613 0.121823 0.874000 236 173 163
0.064880 0.121823 0.874000 227 164 154
0.067146 0.121823 0.874000 220 148 137
0.069333 0.121683 0.873000 205 133 122
0.071679 0.121823 0.874000 191 115 103
0.073945 0.121823 0.874000 184 108 96
0.076211 0.121823 0.874000 172 96 84
0.078477 0.121823 0.874000 173 97 85
0.080744 0.121823 0.874000 170 102 90
0.083010 0.121823 0.874000 165 97 85
0.085374 0.121962 0.875000 155 103 92
0.087643 0.121962 0.875000 180 128 117
0.089911 0.121962 0.875000 209 179 172
0.092180 0.121962 0.875000 226 196 189
-0.032756 0.124802 0.879000 220 189 180
-0.030477 0.124802 0.879000 222 191 182
-0.028198 0.124802 0.879000 224 186 177
-0.025919 0.124802 0.879000 222 184 175
-0.023639 0.124802 0.879000 223 176 165
-0.021360 0.124802 0.879000 216 169 158
-0.019081 0.124802 0.879000 214 158 144
-0.016782 0.124660 0.878000 205 149 135
-0.014489 0.124518 0.877000 208 144 126
-0.012215 0.124518 0.877000 201 137 119
-0.009941 0.124518 0.877000 197 127 106
-0.007667 0.124518 0.877000 189 119 98
-0.005393 0.124518 0.877000 194 116 98
-0.003119 0.124518 0.877000 187 109 91
-0.000845 0.124518 0.877000 188 107 88
0.001429 0.124518 0.877000 189 108 89
0.003707 0.124660 0.878000 195 114 95
0.005984 0.124660 0.878000 192 111 92
0.008261 0.124660 0.878000 192 111 92
0.010549 0.124802 0.879000 196 115 96
0.012828 0.124802 0.879000 190 109 90
0.015125 0.124944 0.880000 195 114 95
0.017427 0.125086 0.881000 196 116 94
0.019711 0.125086 0.881000 194 114 92
0.021995 0.125086 0.881000 191 111 89
0.024307 0.125228 0.882000 195 115 93
0.026594 0.125228 0.882000 202 121 99
0.028881 0.125228 0.882000 204 123 101
0.031204 0.125370 0.883000 202 117 99
0.033455 0.125228 0.882000 200 115 97
0.035702 0.125086 0.881000 206 121 103
0.037986 0.125086 0.881000 207 122 104
0.040225 0.124944 0.880000 205 120 102
0.042459 0.124802 0.879000 204 119 101
0.044738 0.124802 0.879000 204 122 103
0.046964 0.124660 0.878000 206 124 105
0.049240 0.124660 0.878000 204 122 103
0.051458 0.124518 0.877000 200 118 99
0.053610 0.124234 0.875000 197 116 99
0.055879 0.124234 0.875000 198 117 100
0.058147 0.124234 0.875000 196 115 100
0.060416 0.124234 0.875000 190 109 94
0.062685 0.124234 0.875000 190 108 93
0.064880 0.124092 0.874000 193 111 96
0.067146 0.124092 0.874000 184 102 87
0.069333 0.123950 0.873000 182 100 85
0.071679 0.124092 0.874000 176 98 82
0.073945 0.124092 0.874000 174 96 80
0.076211 0.124092 0.874000 166 96 82
0.078477 0.124092 0.874000 162 92 78
0.080744 0.124092 0.874000 153 99 89
0.083010 0.124092 0.874000 170 116 106
0.085374 0.124234 0.875000 196 166 159
0.087643 0.124234 0.875000 218 188 181
-0.066640 0.126506 0.875000 216 186 179
-0.064371 0.126506 0.875000 220 188 182
-0.062102 0.126506 0.875000 223 191 185
-0.059834 0.126506 0.875000 222 187 182
-0.057565 0.126506 0.875000 221 186 181
-0.055296 0.126506 0.875000 220 179 169
-0.053027 0.126506 0.875000 213 172 162
-0.050874 0.126795 0.877000 222 177 164
-0.048600 0.126795 0.877000 216 171 158
-0.046326 0.126795 0.877000 215 168 155
-0.044052 0.126795 0.877000 211 164 151
-0.041778 0.126795 0.877000 211 158 145
-0.039549 0.126940 0.878000 206 153 140
-0.037272 0.126940 0.878000 210 152 138
-0.035035 0.127084 0.879000 200 142 128
-0.032756 0.127084 0.879000 195 133 116
-0.030477 0.127084 0.879000 188 126 109
-0.028198 0.127084 0.879000 187 117 101
-0.025919 0.127084 0.879000 187 117 101
-0.023639 0.127084 0.879000 185 112 94
-0.021360 0.127084 0.879000 185 112 94
-0.019059 0.126940 0.878000 194 113 94
-0.016782 0.126940 0.878000 194 113 94
-0.014506 0.126940 0.878000 194 113 94
-0.012215 0.126795 0.877000 194 113 94
-0.009941 0.126795 0.877000 189 111 91
-0.007667 0.126795 0.877000 185 107 87
-0.005393 0.126795 0.877000 179 104 83
-0.003123 0.126940 0.878000 177 102 81
-0.000846 0.126940 0.878000 178 105 85
0.001431 0.126940 0.878000 170 97 77
0.003712 0.127084 0.879000 167 97 76
0.005991 0.127084 0.879000 162 92 71
0.008279 0.127229 0.880000 159 90 71
0.010561 0.127229 0.880000 158 89 70
0.012858 0.127373 0.881000 154 87 70
0.015142 0.127373 0.881000 153 86 69
0.017446 0.127518 0.882000 151 84 67
0.019733 0.127518 0.882000 153 86 69
0.022045 0.127662 0.883000 157 91 71
0.024335 0.127662 0.883000 156 90 70
0.026625 0.127662 0.883000 158 89 70
0.028914 0.127662 0.883000 163 94 75
0.031204 0.127662 0.883000 169 96 78
0.033493 0.127662 0.883000 171 98 80
0.035742 0.127518 0.882000 171 98 80
0.037986 0.127373 0.881000 171 98 80
0.040271 0.127373 0.881000 171 96 77
0.042507 0.127229 0.880000 169 94 75
0.044738 0.127084 0.879000 172 97 78
0.047017 0.127084 0.879000 171 96 77
0.049240 0.126940 0.878000 176 101 82
0.051458 0.126795 0.877000 179 104 85
0.053732 0.126795 0.877000 179 106 86
0.056006 0.126795 0.877000 176 103 83
0.058147 0.126506 0.875000 172 99 81
0.060416 0.126506 0.875000 171 98 80
0.062685 0.126506 0.875000 171 98 80
0.064954 0.126506 0.875000 171 98 80
0.067223 0.126506 0.875000 166 95 79
0.069412 0.126361 0.874000 163 92 76
0.071679 0.126361 0.874000 158 95 81
0.073945 0.126361 0.874000 161 98 84
0.076211 0.126361 0.874000 163 116 105
0.078477 0.126361 0.874000 178 131 120
0.080836 0.126506 0.875000 196 166 161
-0.126061 0.129219 0.878000 209 178 176
-0.123785 0.129219 0.878000 209 176 175
-0.121370 0.129072 0.877000 211 178 177
-0.119096 0.129072 0.877000 211 179 175
-0.116821 0.129072 0.877000 213 181 177
-0.114547 0.129072 0.877000 213 178 173
-0.112273 0.129072 0.877000 212 177 172
-0.109748 0.128778 0.875000 216 180 172
-0.107480 0.128778 0.875000 215 179 171
-0.105211 0.128778 0.875000 215 179 171
-0.102942 0.128778 0.875000 214 178 170
-0.100673 0.128778 0.875000 216 178 169
-0.098292 0.128630 0.874000 215 177 168
-0.096025 0.128630 0.874000 217 176 168
-0.093759 0.128630 0.874000 216 175 167
-0.091598 0.128778 0.875000 217 174 165
-0.089227 0.128630 0.874000 217 174 165
-0.087060 0.128778 0.875000 220 175 164
-0.084694 0.128630 0.874000 220 175 164
-0.082428 0.128630 0.874000 219 174 161
-0.080162 0.128630 0.874000 215 170 157
-0.077895 0.128630 0.874000 217 169 154
-0.075629 0.128630 0.874000 216 168 153
-0.073447 0.128778 0.875000 216 165 151
-0.071178 0.128778 0.875000 213 162 148
-0.068909 0.128778 0.875000 207 154 141
-0.066640 0.128778 0.875000 199 146 133
-0.064371 0.128778 0.875000 197 139 125
-0.062102 0.128778 0.875000 188 130 116
-0.059834 0.128778 0.875000 181 118 104
-0.057565 0.128778 0.875000 177 114 100
-0.055296 0.128778 0.875000 175 108 91
-0.053027 0.128778 0.875000 173 106 89
-0.050758 0.128778 0.875000 171 101 82
-0.048600 0.129072 0.877000 171 101 82
-0.046326 0.129072 0.877000 175 102 84
-0.044052 0.129072 0.877000 175 102 84
-0.041778 0.129072 0.877000 177 102 85
-0.039549 0.129219 0.878000 179 104 87
-0.037272 0.129219 0.878000 173 100 82
-0.035035 0.129366 0.879000 176 103 85
-0.032756 0.129366 0.879000 177 104 86
-0.030477 0.129366 0.879000 176 103 85
-0.028198 0.129366 0.879000 173 103 82
-0.025919 0.129366 0.879000 170 100 79
-0.023639 0.129366 0.879000 170 100 79
-0.021360 0.129366 0.879000 168 98 77
-0.019081 0.129366 0.879000 166 96 75
-0.016782 0.129219 0.878000 164 94 73
-0.014489 0.129072 0.877000 164 94 75
-0.012215 0.129072 0.877000 166 96 77
-0.009941 0.129072 0.877000 161 95 75
-0.007667 0.129072 0.877000 160 94 74
-0.005393 0.129072 0.877000 153 96 77
-0.003119 0.129072 0.877000 157 100 81
-0.000845 0.129072 0.877000 157 109 90
0.001429 0.129072 0.877000 162 114 95
0.003707 0.129219 0.878000 163 119 103
0.005984 0.129219 0.878000 163 119 103
0.008270 0.129366 0.879000 161 119 107
0.010549 0.129366 0.879000 161 119 107
0.012843 0.129514 0.880000 156 118 107
0.015142 0.129661 0.881000 154 116 105
0.017446 0.129808 0.882000 152 114 103
0.019733 0.129808 0.882000 150 112 101
0.022045 0.129955 0.883000 151 113 102
0.024335 0.129955 0.883000 152 114 103
0.026655 0.130102 0.884000 148 107 97
0.028947 0.130102 0.884000 141 100 90
0.031239 0.130102 0.884000 140 98 86
0.033493 0.129955 0.883000 142 100 88
0.035783 0.129955 0.883000 142 97 86
0.038029 0.129808 0.882000 140 95 84
0.040316 0.129808 0.882000 143 96 85
0.042555 0.129661 0.881000 143 96 85
0.044789 0.129514 0.880000 142 95 82
0.047017 0.129366 0.879000 140 93 80
0.049240 0.129219 0.878000 144 95 83
0.051458 0.129072 0.877000 144 95 83
0.053732 0.129072 0.877000 145 96 84
0.056006 0.129072 0.877000 144 95 83
0.058280 0.129072 0.877000 147 98 86
0.060554 0.129072 0.877000 150 101 89
0.062685 0.128778 0.875000 152 105 94
0.064954 0.128778 0.875000 156 109 98
0.067223 0.128778 0.875000 162 119 110
0.069492 0.128778 0.875000 174 131 122
0.071761 0.128778 0.875000 175 140 135
0.074029 0.128778 0.875000 192 157 152
0.076298 0.128778 0.875000 200 179 176
-0.194803 0.131798 0.880000 163 152 147
-0.192521 0.131798 0.880000 182 144 135
-0.190023 0.131649 0.879000 180 142 133
-0.187531 0.131499 0.878000 186 139 128
-0.185254 0.131499 0.878000 187 140 129
-0.182977 0.131499 0.878000 191 142 130
-0.180701 0.131499 0.878000 193 144 132
-0.178424 0.131499 0.878000 195 144 130
-0.176147 0.131499 0.878000 195 144 130
-0.173871 0.131499 0.878000 196 145 131
-0.171594 0.131499 0.878000 196 145 131
-0.169317 0.131499 0.878000 196 145 131
-0.167041 0.131499 0.878000 195 144 130
-0.164764 0.131499 0.878000 197 144 131
-0.162302 0.131349 0.877000 197 144 131
-0.160211 0.131499 0.878000 197 144 131
-0.157934 0.131499 0.878000 196 143 130
-0.155658 0.131499 0.878000 194 137 128
-0.153556 0.131649 0.879000 198 141 132
-0.151276 0.131649 0.879000 199 142 133
-0.148997 0.131649 0.879000 201 144 135
-0.146718 0.131649 0.879000 205 149 137
-0.144439 0.131649 0.879000 207 151 139
-0.141998 0.131499 0.878000 203 150 137
-0.139721 0.131499 0.878000 204 151 138
-0.137444 0.131499 0.878000 203 150 137
-0.135014 0.131349 0.877000 200 147 134
-0.132740 0.131349 0.877000 200 146 136
-0.130466 0.131349 0.877000 196 142 132
-0.128192 0.131349 0.877000 197 143 133
-0.126061 0.131499 0.878000 193 139 129
-0.123785 0.131499 0.878000 190 136 126
-0.121370 0.131349 0.877000 185 131 121
-0.119096 0.131349 0.877000 184 127 118
-0.116821 0.131349 0.877000 180 123 114
-0.114547 0.131349 0.877000 180 121 112
-0.112273 0.131349 0.877000 178 119 110
-0.109999 0.131349 0.877000 180 122 110
-0.107725 0.131349 0.877000 176 118 106
-0.105211 0.131050 0.875000 179 116 104
-0.102942 0.131050 0.875000 177 114 102
-0.100673 0.131050 0.875000 180 115 104
-0.098292 0.130900 0.874000 178 113 102
-0.096025 0.130900 0.874000 182 114 102
-0.093759 0.130900 0.874000 182 114 102
-0.091493 0.130900 0.874000 184 113 99
-0.089227 0.130900 0.874000 183 112 98
-0.086861 0.130750 0.873000 180 109 93
-0.084597 0.130750 0.873000 176 105 89
-0.082334 0.130750 0.873000 177 106 90
-0.080070 0.130750 0.873000 177 106 90
-0.077806 0.130750 0.873000 173 100 82
-0.075629 0.130900 0.874000 172 99 81
-0.073363 0.130900 0.874000 166 92 77
-0.071096 0.130900 0.874000 169 95 80
-0.068909 0.131050 0.875000 168 97 81
-0.066640 0.131050 0.875000 162 91 75
-0.064371 0.131050 0.875000 160 89 73
-0.062102 0.131050 0.875000 162 91 75
-0.059834 0.131050 0.875000 157 86 70
-0.057565 0.131050 0.875000 157 86 70
-0.055296 0.131050 0.875000 160 90 71
-0.053027 0.131050 0.875000 160 90 71
-0.050874 0.131349 0.877000 159 89 70
-0.048600 0.131349 0.877000 160 90 71
-0.046326 0.131349 0.877000 157 87 68
-0.044052 0.131349 0.877000 156 86 67
-0.041778 0.131349 0.877000 158 89 70
-0.039549 0.131499 0.878000 158 89 70
-0.037315 0.131649 0.879000 156 89 72
-0.035035 0.131649 0.879000 152 85 68
-0.032756 0.131649 0.879000 148 86 69
-0.030477 0.131649 0.879000 150 88 71
-0.028198 0.131649 0.879000 150 92 76
-0.025919 0.131649 0.879000 151 93 77
-0.023639 0.131649 0.879000 153 100 85
-0.021360 0.131649 0.879000 160 107 92
-0.019059 0.131499 0.878000 162 114 99
-0.016782 0.131499 0.878000 166 118 103
-0.014489 0.131349 0.877000 168 121 108
-0.012215 0.131349 0.877000 173 126 113
-0.009941 0.131349 0.877000 168 131 117
-0.007667 0.131349 0.877000 173 136 122
-0.005393 0.131349 0.877000 171 142 130
-0.003112 0.131050 0.875000 171 142 130
-0.000843 0.131050 0.875000 168 146 136
0.001429 0.131349 0.877000 166 144 134
0.033531 0.132397 0.884000 161 142 136
0.035783 0.132248 0.883000 158 139 133
0.038073 0.132248 0.883000 161 142 136
0.040316 0.132098 0.882000 159 140 134
0.042555 0.131948 0.881000 159 140 134
0.044789 0.131798 0.880000 163 144 138
0.047017 0.131649 0.879000 163 144 138
0.049296 0.131649 0.879000 162 141 136
0.051458 0.131349 0.877000 162 141 136
0.053732 0.131349 0.877000 164 141 136
0.056006 0.131349 0.877000 168 145 140
0.058280 0.131349 0.877000 166 145 140
0.060554 0.131349 0.877000 167 146 141
0.062828 0.131349 0.877000 175 154 149
0.065102 0.131349 0.877000 182 161 156
-0.197309 0.134236 0.881000 127 111 106
-0.194803 0.134083 0.880000 113 97 92
-0.192521 0.134083 0.880000 138 89 79
-0.190023 0.133931 0.879000 138 89 79
-0.187744 0.133931 0.879000 148 88 73
-0.185254 0.133778 0.878000 147 87 72
-0.182977 0.133778 0.878000 149 86 72
-0.180701 0.133778 0.878000 150 87 73
-0.178424 0.133778 0.878000 151 87 69
-0.176147 0.133778 0.878000 152 88 70
-0.173871 0.133778 0.878000 150 86 68
-0.171594 0.133778 0.878000 150 86 68
-0.169317 0.133778 0.878000 154 87 70
-0.167041 0.133778 0.878000 157 90 73
-0.164577 0.133626 0.877000 159 92 75
-0.162302 0.133626 0.877000 156 89 72
-0.160028 0.133626 0.877000 153 86 69
-0.157754 0.133626 0.877000 156 89 72
-0.155658 0.133778 0.878000 160 90 74
-0.153381 0.133778 0.878000 161 91 75
-0.151104 0.133778 0.878000 156 86 72
-0.148658 0.133626 0.877000 161 91 77
-0.146384 0.133626 0.877000 158 88 74
-0.144110 0.133626 0.877000 155 85 71
-0.141836 0.133626 0.877000 160 90 74
-0.139562 0.133626 0.877000 162 92 76
-0.137288 0.133626 0.877000 156 89 72
-0.135014 0.133626 0.877000 153 86 69
-0.132740 0.133626 0.877000 154 87 72
-0.130466 0.133626 0.877000 153 86 71
-0.128192 0.133626 0.877000 152 85 70
-0.126061 0.133778 0.878000 153 86 71
-0.123785 0.133778 0.878000 154 90 74
-0.121508 0.133778 0.878000 152 88 72
-0.119231 0.133778 0.878000 155 91 75
-0.116955 0.133778 0.878000 152 88 72
-0.114547 0.133626 0.877000 150 83 68
-0.112273 0.133626 0.877000 151 84 69
-0.109999 0.133626 0.877000 150 83 68
-0.107725 0.133626 0.877000 150 83 68
-0.105451 0.133626 0.877000 152 85 70
-0.102942 0.133321 0.875000 156 89 74
-0.100673 0.133321 0.875000 162 92 78
-0.098404 0.133321 0.875000 160 90 76
-0.096025 0.133169 0.874000 162 88 75
-0.093759 0.133169 0.874000 165 91 78
-0.091493 0.133169 0.874000 166 92 77
-0.089125 0.133017 0.873000 166 92 77
-0.086861 0.133017 0.873000 165 91 76
-0.084597 0.133017 0.873000 164 90 75
-0.082334 0.133017 0.873000 162 88 73
-0.080070 0.133017 0.873000 158 84 69
-0.077806 0.133017 0.873000 154 83 67
-0.075629 0.133169 0.874000 156 85 69
-0.073363 0.133169 0.874000 156 86 70
-0.071096 0.133169 0.874000 152 82 66
-0.068909 0.133321 0.875000 147 80 65
-0.066640 0.133321 0.875000 145 78 63
-0.064371 0.133321 0.875000 142 79 65
-0.062102 0.133321 0.875000 144 81 67
-0.059834 0.133321 0.875000 143 85 69
-0.057565 0.133321 0.875000 143 85 69
-0.055422 0.133626 0.877000 142 86 72
-0.053148 0.133626 0.877000 145 89 75
-0.050874 0.133626 0.877000 151 95 81
-0.048600 0.133626 0.877000 153 97 83
-0.046326 0.133626 0.877000 153 102 86
-0.044052 0.133626 0.877000 155 104 88
-0.041826 0.133778 0.878000 165 117 102
-0.039549 0.133778 0.878000 166 118 103
-0.037315 0.133931 0.879000 168 126 112
-0.035035 0.133931 0.879000 174 132 118
-0.032793 0.134083 0.880000 178 143 128
-0.030477 0.133931 0.879000 184 149 134
-0.028230 0.134083 0.880000 181 152 140
-0.025948 0.134083 0.880000 179 150 138
-0.023666 0.134083 0.880000 175 149 138
-0.021384 0.134083 0.880000 172 146 135
-0.019103 0.134083 0.880000 169 144 135
-0.197085 0.136368 0.880000 101 92 87
-0.194803 0.136368 0.880000 94 85 80
-0.192303 0.136213 0.879000 112 74 67
-0.190023 0.136213 0.879000 116 78 71
-0.187744 0.136213 0.879000 126 74 63
-0.185465 0.136213 0.879000 126 74 63
-0.183186 0.136213 0.879000 128 75 62
-0.180906 0.136213 0.879000 130 77 64
-0.178424 0.136058 0.878000 129 73 59
-0.176348 0.136213 0.879000 131 75 61
-0.173871 0.136058 0.878000 133 75 59
-0.171594 0.136058 0.878000 133 75 59
-0.169317 0.136058 0.878000 132 74 58
-0.167041 0.136058 0.878000 130 72 56
-0.164764 0.136058 0.878000 132 72 57
-0.162302 0.135903 0.877000 134 74 59
-0.160028 0.135903 0.877000 134 74 59
-0.157754 0.135903 0.877000 134 74 59
-0.155480 0.135903 0.877000 133 73 58
-0.153206 0.135903 0.877000 130 70 55
-0.150932 0.135903 0.877000 131 71 56
-0.148658 0.135903 0.877000 134 74 59
-0.146384 0.135903 0.877000 134 74 61
-0.144110 0.135903 0.877000 132 72 59
-0.141836 0.135903 0.877000 132 72 59
-0.139562 0.135903 0.877000 132 72 59
-0.137288 0.135903 0.877000 134 74 61
-0.135014 0.135903 0.877000 134 74 61
-0.132740 0.135903 0.877000 134 74 61
-0.130466 0.135903 0.877000 135 75 62
-0.128192 0.135903 0.877000 134 76 62
-0.125918 0.135903 0.877000 137 79 65
-0.123785 0.136058 0.878000 136 78 64
-0.121508 0.136058 0.878000 133 75 61
-0.119231 0.136058 0.878000 129 76 61
-0.116955 0.136058 0.878000 130 77 62
-0.114678 0.136058 0.878000 128 75 60
-0.112401 0.136058 0.878000 128 75 60
-0.110125 0.136058 0.878000 129 76 61
-0.107725 0.135903 0.877000 130 77 62
-0.105451 0.135903 0.877000 132 79 64
-0.103177 0.135903 0.877000 134 81 66
-0.100673 0.135593 0.875000 137 84 69
-0.098404 0.135593 0.875000 136 83 68
-0.096025 0.135438 0.874000 138 82 68
-0.093759 0.135438 0.874000 138 82 68
-0.091388 0.135283 0.873000 138 82 68
-0.089125 0.135283 0.873000 139 83 69
-0.086861 0.135283 0.873000 141 85 71
-0.084597 0.135283 0.873000 141 85 71
-0.082334 0.135283 0.873000 142 86 72
-0.080070 0.135283 0.873000 145 89 75
-0.077806 0.135283 0.873000 141 90 76
-0.075629 0.135438 0.874000 143 92 78
-0.073363 0.135438 0.874000 145 99 83
-0.071178 0.135593 0.875000 157 111 95
-0.068909 0.135593 0.875000 159 117 105
-0.066640 0.135593 0.875000 166 124 112
-0.064518 0.135903 0.877000 169 133 121
-0.062102 0.135593 0.875000 172 136 124
-0.059970 0.135903 0.877000 169 140 130
-0.057696 0.135903 0.877000 173 144 134
-0.055422 0.135903 0.877000 174 148 137
-0.053148 0.135903 0.877000 179 153 142
-0.050874 0.135903 0.877000 181 154 146
-0.048600 0.135903 0.877000 180 153 145
-0.046326 0.135903 0.877000 180 155 146
-0.044052 0.135903 0.877000 177 152 143
-0.041826 0.136058 0.878000 172 150 142
-0.039594 0.136213 0.879000 175 153 145
-0.037357 0.136368 0.880000 172 152 144
-0.197085 0.138653 0.880000 131 123 120
-0.194803 0.138653 0.880000 117 109 106
-0.192521 0.138653 0.880000 118 99 93
-0.190240 0.138653 0.880000 115 96 90
-0.187958 0.138653 0.880000 122 92 85
-0.185676 0.138653 0.880000 123 93 86
-0.183186 0.138495 0.879000 125 94 85
-0.180906 0.138495 0.879000 125 94 85
-0.178627 0.138495 0.879000 128 94 86
-0.176348 0.138495 0.879000 128 94 86
-0.174069 0.138495 0.879000 128 92 82
-0.171790 0.138495 0.879000 127 91 81
-0.169510 0.138495 0.879000 130 92 81
-0.167041 0.138338 0.878000 129 91 80
-0.164577 0.138180 0.877000 133 95 84
-0.162302 0.138180 0.877000 129 91 80
-0.160028 0.138180 0.877000 130 92 81
-0.157754 0.138180 0.877000 129 91 80
-0.155480 0.138180 0.877000 130 94 82
-0.153206 0.138180 0.877000 130 94 82
-0.150932 0.138180 0.877000 129 93 83
-0.148658 0.138180 0.877000 129 93 83
-0.146384 0.138180 0.877000 129 93 83
-0.144110 0.138180 0.877000 132 96 86
-0.141513 0.137865 0.875000 134 98 88
-0.139562 0.138180 0.877000 132 96 86
-0.137288 0.138180 0.877000 137 99 90
-0.135014 0.138180 0.877000 132 94 85
-0.132740 0.138180 0.877000 138 97 89
-0.130466 0.138180 0.877000 142 101 93
-0.128192 0.138180 0.877000 144 106 97
-0.126061 0.138338 0.878000 144 106 97
-0.123926 0.138495 0.879000 142 108 98
-0.121785 0.138653 0.880000 151 117 107
-0.119503 0.138653 0.880000 154 123 114
-0.117221 0.138653 0.880000 155 124 115
-0.114939 0.138653 0.880000 159 130 120
-0.112657 0.138653 0.880000 165 136 126
-0.110250 0.138495 0.879000 166 137 127
-0.107971 0.138495 0.879000 172 143 133
-0.105572 0.138338 0.878000 166 140 129
-0.103177 0.138180 0.877000 166 140 129
-0.100903 0.138180 0.877000 165 138 130
-0.098404 0.137865 0.875000 170 143 135
-0.096135 0.137865 0.875000 173 146 138
-0.093866 0.137865 0.875000 173 146 138
-0.091493 0.137708 0.874000 173 146 138
-0.089329 0.137865 0.875000 174 147 139
-0.086861 0.137550 0.873000 174 148 137
-0.084597 0.137550 0.873000 173 147 136
-0.082334 0.137550 0.873000 169 143 132
-0.080070 0.137550 0.873000 169 143 132
-0.077895 0.137708 0.874000 170 146 134
-0.075716 0.137865 0.875000 169 145 133
-0.073447 0.137865 0.875000 170 146 134
-0.071178 0.137865 0.875000 169 145 133
-0.183603 0.141098 0.881000 139 128 123
-0.181318 0.141098 0.881000 139 128 123
-0.179034 0.141098 0.881000 139 125 119
-0.176549 0.140938 0.880000 140 126 120
-0.174267 0.140938 0.880000 143 124 120
-0.171985 0.140938 0.880000 145 126 122
-0.169510 0.140778 0.879000 146 127 121
-0.167231 0.140778 0.879000 146 127 121
-0.164764 0.140617 0.878000 147 128 122
-0.162302 0.140457 0.877000 144 125 119
-0.160028 0.140457 0.877000 140 121 115
-0.157754 0.140457 0.877000 140 121 115
-0.155480 0.140457 0.877000 144 125 119
-0.153206 0.140457 0.877000 140 121 115
-0.150932 0.140457 0.877000 140 124 117
-0.148658 0.140457 0.877000 141 125 118
-0.146050 0.140137 0.875000 141 125 118
-0.143781 0.140137 0.875000 144 128 121
-0.141513 0.140137 0.875000 142 126 119
-0.139244 0.140137 0.875000 147 131 124
-0.137288 0.140457 0.877000 151 132 126
-0.135014 0.140457 0.877000 151 132 126
-0.132740 0.140457 0.877000 151 132 126
-0.130466 0.140457 0.877000 150 131 125
