ply
format ascii 1.0
element vertex 896
property float x
property float y
property float z
property uchar red
property uchar green
property uchar blue
end_header
0.380776 -0.619592 0.481193 169 148 147
0.383082 -0.620812 0.480961 166 145 144
0.385294 -0.621030 0.480608 185 158 150
0.378851 -0.618119 0.483626 152 140 140
0.381153 -0.619339 0.483398 133 98 95
0.383459 -0.620560 0.483169 115 80 77
0.385671 -0.620778 0.482816 154 113 105
0.387883 -0.620996 0.482462 236 195 187
0.377021 -0.617650 0.486181 130 113 115
0.379228 -0.617868 0.485829 122 105 107
0.381530 -0.619087 0.485603 126 83 76
0.383836 -0.620308 0.485376 122 79 72
0.386048 -0.620526 0.485023 168 127 117
0.388261 -0.620743 0.484670 255 214 204
0.377397 -0.617398 0.488383 113 91 93
0.379605 -0.617616 0.488031 119 97 99
0.381907 -0.618835 0.487808 133 83 76
0.384214 -0.620055 0.487584 138 88 81
0.386426 -0.620273 0.487231 202 161 151
0.388638 -0.620491 0.486877 255 222 212
0.375655 -0.617930 0.491071 134 125 128
0.377864 -0.618148 0.490718 113 87 85
0.379981 -0.617364 0.490233 119 93 91
0.382284 -0.618583 0.490013 135 78 69
0.384591 -0.619803 0.489791 156 99 90
0.386803 -0.620021 0.489438 236 195 185
0.376120 -0.618679 0.493412 118 107 111
0.378241 -0.617896 0.492923 118 83 80
0.380451 -0.618113 0.492571 122 87 84
0.382756 -0.619333 0.492352 137 84 71
0.384969 -0.619551 0.491999 178 125 112
0.387181 -0.619768 0.491645 255 219 208
0.376498 -0.618427 0.495619 110 98 98
0.378710 -0.618644 0.495266 118 77 71
0.380922 -0.618862 0.494913 126 85 79
0.383134 -0.619080 0.494560 151 95 83
0.385346 -0.619298 0.494206 216 160 148
0.387558 -0.619516 0.493853 255 226 218
0.374663 -0.617956 0.498180 150 130 131
0.376875 -0.618174 0.497827 108 88 89
0.379087 -0.618392 0.497474 131 81 74
0.381299 -0.618610 0.497120 137 87 80
0.383511 -0.618828 0.496767 174 121 108
0.385823 -0.620047 0.496553 254 201 188
0.375040 -0.617704 0.500388 130 104 104
0.377252 -0.617922 0.500034 110 84 84
0.379464 -0.618140 0.499681 135 78 69
0.381677 -0.618358 0.499328 146 89 80
0.383986 -0.619576 0.499116 209 160 150
0.386201 -0.619794 0.498763 255 218 208
0.373290 -0.618233 0.503095 171 158 164
0.375505 -0.618451 0.502741 122 86 86
0.377720 -0.618669 0.502388 120 84 84
0.379934 -0.618887 0.502034 146 83 73
0.382149 -0.619105 0.501680 172 109 99
0.384364 -0.619323 0.501327 243 198 187
0.386578 -0.619542 0.500973 255 218 207
0.373668 -0.617980 0.505305 146 130 135
0.375883 -0.618198 0.504951 126 82 80
0.378098 -0.618416 0.504598 127 83 81
0.380312 -0.618634 0.504244 153 95 83
0.382527 -0.618853 0.503890 204 146 134
0.384742 -0.619071 0.503537 255 223 213
0.371831 -0.617509 0.507869 180 163 165
0.374046 -0.617727 0.507515 116 99 101
0.376261 -0.617945 0.507161 135 80 75
0.378475 -0.618164 0.506808 142 87 82
0.380690 -0.618382 0.506454 164 111 98
0.382905 -0.618600 0.506100 242 189 176
0.385119 -0.618818 0.505747 249 222 216
0.372209 -0.617257 0.510079 154 127 130
0.374424 -0.617475 0.509725 115 88 91
0.376639 -0.617693 0.509371 145 86 77
0.378853 -0.617911 0.509018 160 101 92
0.381068 -0.618129 0.508664 198 149 137
0.383283 -0.618347 0.508310 255 216 204
0.370372 -0.616786 0.512642 174 162 162
0.372587 -0.617004 0.512289 132 96 96
0.374802 -0.617222 0.511935 122 86 86
0.377016 -0.617440 0.511581 154 91 81
0.379231 -0.617658 0.511228 182 119 109
0.381446 -0.617876 0.510874 237 195 183
0.383660 -0.618095 0.510520 255 219 207
0.370750 -0.616533 0.514852 140 125 126
0.372965 -0.616751 0.514499 131 83 79
0.375180 -0.616969 0.514145 136 88 84
0.377394 -0.617188 0.513791 161 103 91
0.379609 -0.617406 0.513438 214 156 144
0.381824 -0.617624 0.513084 254 220 212
0.368913 -0.616062 0.517416 169 148 147
0.371128 -0.616280 0.517062 117 96 95
0.373343 -0.616499 0.516709 143 84 75
0.375557 -0.616717 0.516355 154 95 86
0.377772 -0.616935 0.516001 184 130 120
0.379987 -0.617153 0.515648 255 202 192
0.369291 -0.615810 0.519626 147 114 113
0.371506 -0.616028 0.519272 125 92 91
0.373721 -0.616246 0.518919 155 92 82
0.375935 -0.616464 0.518565 170 107 97
0.378150 -0.616682 0.518211 216 169 158
0.380364 -0.616900 0.517858 255 221 210
0.367533 -0.616334 0.522358 153 141 141
0.369669 -0.615557 0.521836 134 90 88
0.371884 -0.615775 0.521482 134 90 88
0.374098 -0.615993 0.521129 162 99 87
0.376313 -0.616211 0.520775 197 134 122
0.378528 -0.616430 0.520421 248 212 202
0.365770 -0.616858 0.525096 183 163 164
0.367911 -0.616081 0.524571 128 108 109
0.370047 -0.615304 0.524046 137 82 77
0.372262 -0.615522 0.523692 144 89 84
0.374476 -0.615741 0.523339 173 113 98
0.376691 -0.615959 0.522985 239 179 164
0.378905 -0.616177 0.522631 244 219 212
0.366148 -0.616605 0.527312 160 129 129
0.368289 -0.615829 0.526783 120 89 89
0.370425 -0.615052 0.526256 148 85 75
0.372639 -0.615270 0.525903 161 98 88
0.374854 -0.615488 0.525549 204 153 139
0.377069 -0.615706 0.525195 255 209 195
0.364307 -0.616133 0.529881 162 150 150
0.366527 -0.616352 0.529527 139 97 96
0.368667 -0.615576 0.528996 128 86 85
0.370802 -0.614799 0.528466 150 87 75
0.373017 -0.615017 0.528113 178 115 103
0.375319 -0.616231 0.527934 242 197 186
0.377446 -0.615453 0.527405 255 213 202
0.364686 -0.615880 0.532096 138 118 119
0.366906 -0.616098 0.531742 136 86 81
0.369046 -0.615323 0.531209 133 83 78
0.371263 -0.615541 0.530855 161 103 91
0.373480 -0.615759 0.530500 226 168 156
0.375697 -0.615978 0.530146 255 220 212
0.362845 -0.615408 0.534666 163 137 137
0.365065 -0.615627 0.534311 122 96 96
0.367285 -0.615845 0.533957 143 84 77
0.369504 -0.616064 0.533602 148 89 82
0.371641 -0.615288 0.533067 190 132 120
0.373858 -0.615506 0.532713 255 206 194
0.363224 -0.615155 0.536881 134 99 96
0.365443 -0.615373 0.536527 125 90 87
0.367585 -0.614598 0.535988 147 84 74
0.369802 -0.614817 0.535634 165 102 92
0.372019 -0.615035 0.535280 230 181 169
0.374237 -0.615254 0.534926 255 215 203
0.361383 -0.614683 0.539451 150 135 134
0.363602 -0.614901 0.539096 134 88 82
0.365746 -0.614127 0.538554 137 91 85
0.367963 -0.614345 0.538200 154 89 76
0.370180 -0.614564 0.537846 200 135 122
0.372398 -0.614782 0.537492 254 211 204
0.359542 -0.614211 0.542020 173 152 151
0.361761 -0.614429 0.541666 132 111 110
0.363981 -0.614648 0.541311 146 92 82
0.366124 -0.613874 0.540767 141 87 77
0.368341 -0.614092 0.540413 168 108 95
0.370559 -0.614311 0.540059 240 180 167
0.372692 -0.613536 0.539516 252 220 214
0.359920 -0.613958 0.544235 154 123 121
0.362140 -0.614176 0.543881 126 95 93
0.364360 -0.614395 0.543526 150 87 75
0.366503 -0.613621 0.542980 156 93 81
0.368720 -0.613839 0.542626 199 145 135
0.370937 -0.614058 0.542271 255 210 200
0.358079 -0.613486 0.546805 155 140 141
0.360299 -0.613704 0.546450 136 98 91
0.362519 -0.613923 0.546096 132 94 87
0.364664 -0.613150 0.545546 153 93 80
0.366881 -0.613368 0.545192 184 124 111
0.369098 -0.613586 0.544838 240 197 188
0.358458 -0.613232 0.549020 140 118 120
0.360678 -0.613451 0.548666 147 95 86
0.362825 -0.612678 0.548113 145 93 84
0.365042 -0.612897 0.547759 167 109 95
0.367181 -0.612123 0.547207 224 166 152
0.369396 -0.612341 0.546854 249 218 209
0.356617 -0.612761 0.551590 154 123 123
0.358837 -0.612979 0.551235 129 98 98
0.361056 -0.613198 0.550881 149 86 76
0.363130 -0.611434 0.550125 161 98 88
0.365344 -0.611652 0.549771 195 144 130
0.367559 -0.611870 0.549417 255 209 195
0.354839 -0.613279 0.554364 161 146 147
0.356996 -0.612507 0.553805 148 105 100
0.359215 -0.612726 0.553450 134 91 86
0.361435 -0.612945 0.553096 157 92 79
0.363507 -0.611181 0.552335 178 113 100
0.365722 -0.611400 0.551981 238 195 186
0.367937 -0.611618 0.551627 253 210 201
0.352996 -0.612806 0.556937 176 153 152
0.355155 -0.612035 0.556374 146 123 122
0.357374 -0.612254 0.556020 148 90 78
0.359594 -0.612473 0.555665 150 92 80
0.361742 -0.611701 0.555105 173 113 100
0.363885 -0.610929 0.554545 224 164 151
0.366100 -0.611147 0.554191 247 217 210
0.353375 -0.612553 0.559154 162 127 124
0.355533 -0.611782 0.558589 137 102 99
0.357753 -0.612001 0.558235 155 92 78
0.359973 -0.612219 0.557880 160 97 83
0.362120 -0.611448 0.557317 198 147 133
0.364263 -0.610676 0.556755 255 207 193
0.351532 -0.612080 0.561727 159 139 140
0.353692 -0.611310 0.561159 145 97 89
0.355912 -0.611529 0.560805 140 92 84
0.358132 -0.611748 0.560450 155 92 78
0.360351 -0.611966 0.560096 186 123 109
0.362499 -0.611195 0.559530 241 200 190
0.364641 -0.610423 0.558965 255 214 204
0.349746 -0.612596 0.564516 175 147 144
0.351911 -0.611827 0.563944 143 115 112
0.354071 -0.611057 0.563374 150 87 77
0.356291 -0.611276 0.563020 153 90 80
0.358510 -0.611494 0.562665 167 111 99
0.360730 -0.611713 0.562311 234 178 166
0.362950 -0.611932 0.561956 248 218 211
0.347901 -0.612123 0.567091 179 164 163
0.350126 -0.612342 0.566736 152 106 100
0.352290 -0.611573 0.566162 138 92 86
0.354450 -0.610804 0.565589 155 90 77
0.356669 -0.611022 0.565235 164 99 86
0.358889 -0.611241 0.564880 213 168 157
0.361109 -0.611460 0.564526 255 214 203
0.346056 -0.611650 0.569667 186 160 156
0.348281 -0.611869 0.569311 147 121 117
0.350506 -0.612088 0.568956 151 91 78
0.352730 -0.612307 0.568601 149 89 76
0.354892 -0.611538 0.568025 159 99 84
0.357114 -0.611757 0.567670 201 141 126
0.359268 -0.610988 0.567095 247 216 207
0.346489 -0.612383 0.572112 162 121 113
0.348660 -0.611615 0.571532 135 94 86
0.350885 -0.611834 0.571176 153 90 76
0.353110 -0.612053 0.570821 158 95 81
0.355335 -0.612273 0.570466 186 137 125
0.357560 -0.612492 0.570110 252 203 191
0.344694 -0.612895 0.574918 158 132 128
0.346869 -0.612128 0.574334 148 89 80
0.349097 -0.612348 0.573979 150 91 82
0.351265 -0.611580 0.573396 154 96 82
0.353490 -0.611800 0.573041 188 130 116
0.355714 -0.612019 0.572686 235 201 191
0.357939 -0.612238 0.572331 254 220 210
0.342844 -0.612421 0.577499 166 123 116
0.345074 -0.612641 0.577143 136 93 86
0.347249 -0.611874 0.576557 156 93 81
0.349477 -0.612094 0.576201 155 92 80
0.351704 -0.612313 0.575846 181 132 120
0.353931 -0.612533 0.575490 245 196 184
0.356159 -0.612752 0.575134 246 225 220
0.338765 -0.611727 0.580437 197 166 164
0.340995 -0.611947 0.580080 159 128 126
0.343224 -0.612167 0.579724 148 88 77
0.345454 -0.612386 0.579368 152 92 81
0.347684 -0.612606 0.579012 154 94 81
0.349914 -0.612826 0.578656 179 119 106
0.352144 -0.613045 0.578300 231 195 185
0.354374 -0.613265 0.577944 249 213 203
0.336915 -0.611253 0.583018 178 155 152
0.339145 -0.611473 0.582662 165 115 110
0.341375 -0.611693 0.582306 143 93 88
0.343605 -0.611912 0.581950 154 91 79
0.345835 -0.612132 0.581594 156 93 81
0.348065 -0.612352 0.581237 175 126 114
0.350295 -0.612571 0.580881 231 182 170
0.352525 -0.612791 0.580525 234 211 208
0.332836 -0.610560 0.585956 197 176 173
0.335066 -0.610779 0.585599 187 141 135
0.337296 -0.610999 0.585243 154 108 102
0.339525 -0.611219 0.584887 152 87 76
0.341755 -0.611438 0.584531 157 92 81
0.343985 -0.611658 0.584175 154 96 84
0.346215 -0.611878 0.583819 190 132 120
0.348445 -0.612097 0.583463 220 186 178
0.326526 -0.609646 0.589249 222 192 187
0.328756 -0.609866 0.588893 218 188 183
0.330986 -0.610085 0.588537 207 159 151
0.333216 -0.610305 0.588181 173 125 117
0.335446 -0.610525 0.587825 163 98 85
0.337676 -0.610744 0.587469 156 91 78
0.339906 -0.610964 0.587112 155 92 80
0.342136 -0.611184 0.586756 163 100 88
0.344366 -0.611403 0.586400 195 152 143
0.346596 -0.611623 0.586044 237 194 185
0.259873 -0.605726 0.602934 236 198 187
0.262110 -0.605946 0.602577 238 200 189
0.264348 -0.606166 0.602220 241 201 188
0.266586 -0.606387 0.601862 241 201 188
0.268788 -0.607583 0.601762 240 198 186
0.270996 -0.608779 0.601661 238 196 184
0.273239 -0.609000 0.601303 240 198 186
0.275454 -0.610197 0.601201 239 197 185
0.277699 -0.610419 0.600842 239 196 187
0.279945 -0.610640 0.600484 239 196 187
0.282170 -0.611838 0.600380 238 197 189
0.317966 -0.607532 0.592651 235 197 190
0.320193 -0.607751 0.592295 235 197 190
0.322420 -0.607971 0.591939 238 190 182
0.324648 -0.608190 0.591584 228 180 172
0.326875 -0.608410 0.591228 215 156 147
0.329103 -0.608629 0.590872 185 126 117
0.331330 -0.608848 0.590516 168 100 88
0.333596 -0.610051 0.590406 164 96 84
0.335826 -0.610270 0.590050 159 94 81
0.338056 -0.610490 0.589694 161 96 83
0.340286 -0.610710 0.589338 166 117 107
0.342516 -0.610929 0.588982 207 158 148
0.344850 -0.613117 0.589112 225 200 193
0.242354 -0.603707 0.608026 225 184 174
0.244591 -0.603927 0.607669 225 184 174
0.246829 -0.604148 0.607311 225 176 164
0.249124 -0.603395 0.606690 221 172 160
0.251359 -0.603615 0.606333 216 160 146
0.253594 -0.603835 0.605977 208 152 138
0.255829 -0.604056 0.605620 209 145 129
0.258064 -0.604276 0.605263 201 137 121
0.260299 -0.604496 0.604906 205 135 119
0.262492 -0.605691 0.604810 203 133 117
0.264730 -0.605911 0.604452 205 132 112
0.266930 -0.607107 0.604355 208 135 115
0.269136 -0.608302 0.604257 215 142 122
0.271379 -0.608523 0.603899 226 153 133
0.273592 -0.609720 0.603800 223 150 130
0.275837 -0.609941 0.603441 230 157 137
0.278058 -0.611139 0.603341 234 160 145
0.280306 -0.611360 0.602982 240 166 151
0.282554 -0.611582 0.602623 245 174 160
0.284818 -0.610826 0.602007 241 170 156
0.287063 -0.611047 0.601648 245 175 161
0.289309 -0.611268 0.601290 250 180 166
0.291563 -0.610512 0.600676 250 182 170
0.293812 -0.609755 0.600062 250 182 170
0.296052 -0.609975 0.599705 250 185 174
0.298294 -0.609217 0.599092 251 186 175
0.300530 -0.608459 0.598481 250 190 177
0.302765 -0.608679 0.598124 248 188 175
0.304988 -0.606941 0.597261 246 186 175
0.307218 -0.607160 0.596905 247 187 176
0.309447 -0.607380 0.596549 245 185 174
0.311677 -0.607600 0.596192 240 180 169
0.313891 -0.606839 0.595585 236 173 163
0.316118 -0.607058 0.595229 227 164 154
0.318346 -0.607278 0.594873 220 148 137
0.320549 -0.606516 0.594267 205 133 122
0.322800 -0.607717 0.594162 191 115 103
0.325028 -0.607936 0.593806 184 108 96
0.327255 -0.608155 0.593451 172 96 84
0.329483 -0.608375 0.593095 173 97 85
0.331710 -0.608594 0.592739 170 102 90
0.333937 -0.608814 0.592383 165 97 85
0.336207 -0.610016 0.592275 155 103 92
0.338437 -0.610236 0.591919 180 128 117
0.340667 -0.610455 0.591563 209 179 172
0.342897 -0.610675 0.591207 226 196 189
0.220270 -0.602217 0.614103 220 189 180
0.222510 -0.602438 0.613746 222 191 182
0.224750 -0.602658 0.613388 224 186 177
0.226990 -0.602879 0.613030 222 184 175
0.229230 -0.603100 0.612672 223 176 165
0.231470 -0.603320 0.612315 216 169 158
0.233710 -0.603541 0.611957 214 158 144
0.236023 -0.602790 0.611331 205 149 135
0.238330 -0.602039 0.610705 208 144 126
0.240565 -0.602259 0.610349 201 137 119
0.242800 -0.602480 0.609992 197 127 106
0.245035 -0.602700 0.609635 189 119 98
0.247270 -0.602920 0.609278 194 116 98
0.249505 -0.603140 0.608921 187 109 91
0.251740 -0.603360 0.608564 188 107 88
0.253975 -0.603580 0.608207 189 108 89
0.256161 -0.604774 0.608115 195 114 95
0.258399 -0.604995 0.607757 192 111 92
0.260636 -0.605215 0.607400 192 111 92
0.262832 -0.606410 0.607306 196 115 96
0.265072 -0.606630 0.606948 190 109 90
0.267276 -0.607826 0.606853 195 114 95
0.269485 -0.609022 0.606757 196 116 94
0.271730 -0.609243 0.606399 194 114 92
0.273975 -0.609464 0.606040 191 111 89
0.276194 -0.610661 0.605943 195 115 93
0.278442 -0.610882 0.605584 202 121 99
0.280690 -0.611104 0.605225 204 123 101
0.282919 -0.612302 0.605126 202 117 99
0.285185 -0.611547 0.604507 200 115 97
0.287446 -0.610791 0.603889 206 121 103
0.289692 -0.611012 0.603530 207 122 104
0.291946 -0.610256 0.602914 205 120 102
0.294194 -0.609499 0.602298 204 119 101
0.296434 -0.609720 0.601940 204 122 103
0.298675 -0.608962 0.601325 206 124 105
0.300913 -0.609182 0.600968 204 122 103
0.303146 -0.608424 0.600355 200 118 99
0.305368 -0.606686 0.599486 197 116 99
0.307598 -0.606906 0.599130 198 117 100
0.309828 -0.607126 0.598774 196 115 100
0.312058 -0.607345 0.598418 190 109 94
0.314288 -0.607565 0.598062 190 108 93
0.316498 -0.606804 0.597452 193 111 96
0.318726 -0.607024 0.597096 184 102 87
0.320928 -0.606262 0.596488 182 100 85
0.323180 -0.607463 0.596385 176 98 82
0.325408 -0.607682 0.596029 174 96 80
0.327635 -0.607901 0.595673 166 96 82
0.329863 -0.608121 0.595318 162 92 78
0.332090 -0.608340 0.594962 153 99 89
0.334317 -0.608560 0.594606 170 116 106
0.336587 -0.609762 0.594501 196 166 159
0.338817 -0.609981 0.594144 218 188 181
0.187561 -0.594790 0.620586 216 186 179
0.189791 -0.595009 0.620229 220 188 182
0.192021 -0.595229 0.619873 223 191 185
0.194251 -0.595449 0.619517 222 187 182
0.196481 -0.595668 0.619161 221 186 181
0.198711 -0.595888 0.618805 220 179 169
0.200941 -0.596108 0.618449 213 172 162
0.202951 -0.598262 0.618647 222 177 164
0.205186 -0.598482 0.618290 216 171 158
0.207421 -0.598702 0.617933 215 168 155
0.209656 -0.598922 0.617576 211 164 151
0.211891 -0.599142 0.617219 211 158 145
0.214029 -0.600331 0.617137 206 153 140
0.216266 -0.600551 0.616780 210 152 138
0.218412 -0.601741 0.616697 200 142 128
0.220652 -0.601961 0.616339 195 133 116
0.222892 -0.602182 0.615981 188 126 109
0.225132 -0.602403 0.615623 187 117 101
0.227372 -0.602623 0.615266 187 117 101
0.229612 -0.602844 0.614908 185 112 94
0.231852 -0.603065 0.614550 185 112 94
0.234167 -0.602315 0.613921 194 113 94
0.236405 -0.602535 0.613564 194 113 94
0.238642 -0.602755 0.613206 194 113 94
0.240946 -0.602004 0.612579 194 113 94
0.243181 -0.602225 0.612222 189 111 91
0.245417 -0.602445 0.611865 185 107 87
0.247652 -0.602665 0.611508 179 104 83
0.249830 -0.603858 0.611420 177 102 81
0.252068 -0.604078 0.611062 178 105 85
0.254305 -0.604298 0.610705 170 97 77
0.256494 -0.605492 0.610615 167 97 76
0.258734 -0.605713 0.610257 162 92 71
0.260930 -0.606907 0.610166 159 90 71
0.263173 -0.607128 0.609808 158 89 70
0.265377 -0.608323 0.609715 154 87 70
0.267622 -0.608544 0.609357 153 86 69
0.269834 -0.609740 0.609263 151 84 67
0.272082 -0.609962 0.608904 153 86 69
0.274301 -0.611158 0.608809 157 91 71
0.276551 -0.611380 0.608449 156 90 70
0.278802 -0.611602 0.608090 158 89 70
0.281052 -0.611823 0.607731 163 94 75
0.283302 -0.612045 0.607371 169 96 78
0.285553 -0.612267 0.607012 171 98 80
0.287816 -0.611512 0.606391 171 98 80
0.290075 -0.610756 0.605771 171 98 80
0.292320 -0.610977 0.605412 171 96 77
0.294571 -0.610221 0.604794 169 94 75
0.296817 -0.609464 0.604175 172 97 78
0.299057 -0.609685 0.603818 171 96 77
0.301295 -0.608927 0.603201 176 101 82
0.303528 -0.608169 0.602585 179 104 85
0.305763 -0.608389 0.602228 179 106 86
0.307998 -0.608609 0.601871 176 103 83
0.310208 -0.606871 0.600999 172 99 81
0.312438 -0.607091 0.600643 171 98 80
0.314668 -0.607310 0.600287 171 98 80
0.316898 -0.607530 0.599931 171 98 80
0.319128 -0.607750 0.599575 166 95 79
0.321333 -0.606989 0.598963 163 92 76
0.323560 -0.607208 0.598607 158 95 81
0.325788 -0.607428 0.598252 161 98 84
0.328015 -0.607647 0.597896 163 116 105
0.330243 -0.607867 0.597540 178 131 120
0.332508 -0.609068 0.597438 196 166 161
0.129382 -0.591700 0.632949 209 178 176
0.131619 -0.591920 0.632591 209 176 175
0.134046 -0.591181 0.631942 211 178 177
0.136281 -0.591402 0.631585 211 179 175
0.138516 -0.591622 0.631228 213 181 177
0.140751 -0.591842 0.630871 213 178 173
0.142986 -0.592062 0.630514 212 177 172
0.145573 -0.590362 0.629577 216 180 172
0.147803 -0.590581 0.629221 215 179 171
0.150032 -0.590801 0.628865 215 179 171
0.152262 -0.591021 0.628509 214 178 170
0.154492 -0.591240 0.628153 216 178 169
0.156885 -0.590498 0.627508 215 177 168
0.159113 -0.590718 0.627153 217 176 168
0.161340 -0.590937 0.626797 216 175 167
0.163412 -0.592119 0.626728 217 174 165
0.165795 -0.591376 0.626086 217 174 165
0.167872 -0.592558 0.626016 220 175 164
0.170250 -0.591815 0.625374 220 175 164
0.172477 -0.592034 0.625018 219 174 161
0.174705 -0.592254 0.624663 215 170 157
0.176932 -0.592473 0.624307 217 169 154
0.179159 -0.592692 0.623951 216 168 153
0.181252 -0.593876 0.623879 216 165 151
0.183482 -0.594096 0.623523 213 162 148
0.185712 -0.594316 0.623167 207 154 141
0.187942 -0.594535 0.622811 199 146 133
0.190172 -0.594755 0.622455 197 139 125
0.192401 -0.594975 0.622099 188 130 116
0.194631 -0.595194 0.621742 181 118 104
0.196861 -0.595414 0.621386 177 114 100
0.199091 -0.595634 0.621030 175 108 91
0.201321 -0.595853 0.620674 173 106 89
0.203551 -0.596073 0.620318 171 101 82
0.205567 -0.598227 0.620520 171 101 82
0.207802 -0.598447 0.620163 175 102 84
0.210037 -0.598667 0.619806 175 102 84
0.212272 -0.598887 0.619449 177 102 85
0.214410 -0.600076 0.619370 179 104 87
0.216648 -0.600296 0.619013 173 100 82
0.218794 -0.601485 0.618932 176 103 85
0.221034 -0.601706 0.618574 177 104 86
0.223274 -0.601926 0.618217 176 103 85
0.225514 -0.602147 0.617859 173 103 82
0.227754 -0.602368 0.617501 170 100 79
0.229994 -0.602588 0.617143 170 100 79
0.232235 -0.602809 0.616786 168 98 77
0.234475 -0.603030 0.616428 166 96 75
0.236786 -0.602280 0.615797 164 94 73
0.239093 -0.601529 0.615166 164 94 75
0.241328 -0.601749 0.614809 166 96 77
0.243563 -0.601970 0.614452 161 95 75
0.245798 -0.602190 0.614095 160 94 74
0.248033 -0.602410 0.613739 153 96 77
0.250268 -0.602630 0.613382 157 100 81
0.252503 -0.602850 0.613025 157 109 90
0.254738 -0.603070 0.612668 162 114 95
0.256925 -0.604264 0.612581 163 119 103
0.259162 -0.604484 0.612223 163 119 103
0.261356 -0.605678 0.612135 161 119 107
0.263597 -0.605898 0.611777 161 119 107
0.265798 -0.607093 0.611688 156 118 107
0.268005 -0.608288 0.611597 154 116 105
0.270218 -0.609484 0.611506 152 114 103
0.272465 -0.609705 0.611147 150 112 101
0.274685 -0.610902 0.611054 151 113 102
0.276935 -0.611123 0.610695 152 114 103
0.279163 -0.612320 0.610601 148 107 97
0.281416 -0.612542 0.610242 141 100 90
0.283668 -0.612764 0.609882 140 98 86
0.285937 -0.612010 0.609258 142 100 88
0.288187 -0.612232 0.608898 142 97 86
0.290448 -0.611477 0.608275 140 95 84
0.292695 -0.611698 0.607916 143 96 85
0.294948 -0.610942 0.607294 143 96 85
0.297196 -0.610186 0.606673 142 95 82
0.299439 -0.609429 0.606053 140 93 80
0.301677 -0.608672 0.605434 144 95 83
0.303909 -0.607914 0.604815 144 95 83
0.306144 -0.608134 0.604458 145 96 84
0.308379 -0.608354 0.604101 144 95 83
0.310614 -0.608575 0.603745 147 98 86
0.312849 -0.608795 0.603388 150 101 89
0.315049 -0.607056 0.602512 152 105 94
0.317279 -0.607276 0.602156 156 109 98
0.319509 -0.607495 0.601800 162 119 110
0.321739 -0.607715 0.601444 174 131 122
0.323968 -0.607935 0.601088 175 140 135
0.326198 -0.608154 0.600732 192 157 152
0.328428 -0.608374 0.600376 200 179 176
0.062096 -0.586733 0.646517 163 152 147
0.064339 -0.586954 0.646159 182 144 135
0.066846 -0.586224 0.645494 180 142 133
0.069348 -0.585493 0.644830 186 139 128
0.071586 -0.585714 0.644472 187 140 129
0.073824 -0.585934 0.644115 191 142 130
0.076061 -0.586154 0.643758 193 144 132
0.078299 -0.586375 0.643400 195 144 130
0.080536 -0.586595 0.643043 195 144 130
0.082774 -0.586816 0.642686 196 145 131
0.085012 -0.587036 0.642328 196 145 131
0.087249 -0.587257 0.641971 196 145 131
0.089487 -0.587477 0.641614 195 144 130
0.091724 -0.587697 0.641256 197 144 131
0.094196 -0.586964 0.640597 197 144 131
0.096200 -0.588138 0.640542 197 144 131
0.098437 -0.588359 0.640184 196 143 130
0.100675 -0.588579 0.639827 194 137 128
0.102689 -0.589755 0.639770 198 141 132
0.104929 -0.589975 0.639412 199 142 133
0.107169 -0.590196 0.639055 201 144 135
0.109409 -0.590417 0.638697 205 149 137
0.111649 -0.590637 0.638339 207 151 139
0.114100 -0.589902 0.637683 203 150 137
0.116338 -0.590122 0.637326 204 151 138
0.118576 -0.590342 0.636968 203 150 137
0.121017 -0.589606 0.636314 200 147 134
0.123252 -0.589826 0.635957 200 146 136
0.125487 -0.590046 0.635600 196 142 132
0.127722 -0.590266 0.635243 197 143 133
0.129764 -0.591444 0.635182 193 139 129
0.132001 -0.591665 0.634824 190 136 126
0.134427 -0.590926 0.634172 185 131 121
0.136662 -0.591147 0.633815 184 127 118
0.138897 -0.591367 0.633458 180 123 114
0.141132 -0.591587 0.633102 180 121 112
0.143367 -0.591807 0.632745 178 119 110
0.145602 -0.592027 0.632388 180 122 110
0.147837 -0.592247 0.632031 176 118 106
0.150413 -0.590547 0.631090 179 116 104
0.152643 -0.590766 0.630734 177 114 102
0.154873 -0.590986 0.630378 180 115 104
0.157265 -0.590244 0.629731 178 113 102
0.159493 -0.590464 0.629375 182 114 102
0.161720 -0.590683 0.629020 182 114 102
0.163948 -0.590902 0.628664 184 113 99
0.166175 -0.591122 0.628308 183 112 98
0.168552 -0.590379 0.627664 180 109 93
0.170777 -0.590598 0.627309 176 105 89
0.173002 -0.590817 0.626953 177 106 90
0.175227 -0.591036 0.626598 177 106 90
0.177452 -0.591255 0.626243 173 100 82
0.179539 -0.592438 0.626174 172 99 81
0.181767 -0.592658 0.625818 166 92 77
0.183994 -0.592877 0.625463 169 95 80
0.186092 -0.594061 0.625392 168 97 81
0.188322 -0.594281 0.625036 162 91 75
0.190552 -0.594500 0.624680 160 89 73
0.192782 -0.594720 0.624324 162 91 75
0.195012 -0.594940 0.623968 157 86 70
0.197242 -0.595159 0.623612 157 86 70
0.199472 -0.595379 0.623256 160 90 71
0.201702 -0.595599 0.622899 160 90 71
0.203713 -0.597752 0.623107 159 89 70
0.205948 -0.597972 0.622751 160 90 71
0.208183 -0.598192 0.622394 157 87 68
0.210418 -0.598412 0.622037 156 86 67
0.212653 -0.598632 0.621680 158 89 70
0.214792 -0.599820 0.621603 158 89 70
0.216936 -0.601009 0.621525 156 89 72
0.219176 -0.601229 0.621167 152 85 68
0.221416 -0.601450 0.620810 148 86 69
0.223656 -0.601671 0.620452 150 88 71
0.225896 -0.601892 0.620094 150 92 76
0.228136 -0.602112 0.619736 151 93 77
0.230377 -0.602333 0.619379 153 100 85
0.232617 -0.602554 0.619021 160 107 92
0.234930 -0.601804 0.618387 162 114 99
0.237168 -0.602024 0.618030 166 118 103
0.239474 -0.601274 0.617397 168 121 108
0.241709 -0.601494 0.617040 173 126 113
0.243944 -0.601715 0.616683 168 131 117
0.246179 -0.601935 0.616326 173 136 122
0.248414 -0.602155 0.615969 171 142 130
0.250761 -0.600431 0.615065 171 142 130
0.252991 -0.600651 0.614709 168 146 136
0.255119 -0.602815 0.614898 166 144 134
0.286306 -0.612729 0.611770 161 142 136
0.288571 -0.611975 0.611144 158 139 133
0.290821 -0.612196 0.610784 161 142 136
0.293079 -0.611442 0.610159 159 140 134
0.295331 -0.610686 0.609535 159 140 134
0.297579 -0.609930 0.608911 163 144 138
0.299821 -0.609174 0.608289 163 144 138
0.302061 -0.609394 0.607931 162 141 136
0.304290 -0.607659 0.607046 162 141 136
0.306525 -0.607879 0.606689 164 141 136
0.308760 -0.608099 0.606332 168 145 140
0.310995 -0.608320 0.605975 166 145 140
0.313231 -0.608540 0.605618 167 146 141
0.315466 -0.608760 0.605261 175 154 149
0.317701 -0.608980 0.604904 182 161 156
0.059964 -0.587207 0.649424 127 111 106
0.062479 -0.586478 0.648755 113 97 92
0.064722 -0.586699 0.648397 138 89 79
0.067228 -0.585968 0.647730 138 89 79
0.069469 -0.586189 0.647372 148 88 73
0.071968 -0.585458 0.646705 147 87 72
0.074205 -0.585679 0.646348 149 86 72
0.076443 -0.585899 0.645991 150 87 73
0.078681 -0.586120 0.645633 151 87 69
0.080918 -0.586340 0.645276 152 88 70
0.083156 -0.586560 0.644919 150 86 68
0.085393 -0.586781 0.644561 150 86 68
0.087631 -0.587001 0.644204 154 87 70
0.089869 -0.587222 0.643847 157 90 73
0.092342 -0.586488 0.643184 159 92 75
0.094577 -0.586709 0.642827 156 89 72
0.096812 -0.586929 0.642470 153 86 69
0.099047 -0.587149 0.642114 156 89 72
0.101057 -0.588324 0.642060 160 90 74
0.103294 -0.588544 0.641703 161 91 75
0.105532 -0.588765 0.641345 156 86 72
0.107988 -0.588030 0.640686 161 91 77
0.110223 -0.588250 0.640329 158 88 74
0.112458 -0.588470 0.639972 155 85 71
0.114693 -0.588690 0.639615 160 90 74
0.116928 -0.588910 0.639258 162 92 76
0.119163 -0.589130 0.638901 156 89 72
0.121398 -0.589350 0.638544 153 86 69
0.123633 -0.589571 0.638187 154 87 72
0.125868 -0.589791 0.637830 153 86 71
0.128103 -0.590011 0.637473 152 85 70
0.130145 -0.591189 0.637415 153 86 71
0.132383 -0.591410 0.637057 154 90 74
0.134620 -0.591630 0.636700 152 88 72
0.136858 -0.591850 0.636343 155 91 75
0.139096 -0.592071 0.635985 152 88 72
0.141513 -0.591332 0.635332 150 83 68
0.143748 -0.591552 0.634975 151 84 69
0.145983 -0.591772 0.634618 150 83 68
0.148218 -0.591992 0.634261 150 83 68
0.150454 -0.592213 0.633904 152 85 70
0.153023 -0.590512 0.632959 156 89 74
0.155253 -0.590731 0.632603 162 92 78
0.157483 -0.590951 0.632247 160 90 76
0.159873 -0.590209 0.631598 162 88 75
0.162100 -0.590429 0.631242 165 91 78
0.164328 -0.590648 0.630887 166 92 77
0.166707 -0.589906 0.630239 166 92 77
0.168932 -0.590125 0.629884 165 91 76
0.171157 -0.590344 0.629529 164 90 75
0.173382 -0.590563 0.629174 162 88 73
0.175607 -0.590782 0.628818 158 84 69
0.177831 -0.591002 0.628463 154 83 67
0.179919 -0.592184 0.628397 156 85 69
0.182147 -0.592404 0.628041 156 86 70
0.184374 -0.592623 0.627685 152 82 66
0.186473 -0.593807 0.627618 147 80 65
0.188702 -0.594026 0.627261 145 78 63
0.190932 -0.594246 0.626905 142 79 65
0.193162 -0.594466 0.626549 144 81 67
0.195392 -0.594685 0.626193 143 85 69
0.197622 -0.594905 0.625837 143 85 69
0.199625 -0.597056 0.626052 142 86 72
0.201860 -0.597276 0.625695 145 89 75
0.204095 -0.597497 0.625338 151 95 81
0.206330 -0.597717 0.624981 153 97 83
0.208565 -0.597937 0.624624 153 102 86
0.210800 -0.598157 0.624267 155 104 88
0.212936 -0.599345 0.624193 165 117 102
0.215174 -0.599565 0.623836 166 118 103
0.217318 -0.600753 0.623761 168 126 112
0.219558 -0.600974 0.623403 174 132 118
0.221710 -0.602163 0.623327 178 143 128
0.224038 -0.601415 0.622687 184 149 134
0.226195 -0.602605 0.622610 181 152 140
0.228438 -0.602826 0.622252 179 150 138
0.230681 -0.603047 0.621894 175 149 138
0.232923 -0.603267 0.621536 172 146 135
0.235166 -0.603488 0.621178 169 144 135
0.060619 -0.586001 0.651351 101 92 87
0.062861 -0.586222 0.650993 94 85 80
0.065370 -0.585492 0.650323 112 74 67
0.067611 -0.585713 0.649965 116 78 71
0.069851 -0.585934 0.649607 126 74 63
0.072091 -0.586154 0.649249 126 74 63
0.074331 -0.586375 0.648892 128 75 62
0.076571 -0.586596 0.648534 130 77 64
0.079062 -0.585864 0.647866 129 73 59
0.081051 -0.587037 0.647818 131 75 61
0.083538 -0.586305 0.647152 133 75 59
0.085775 -0.586526 0.646794 133 75 59
0.088013 -0.586746 0.646437 132 74 58
0.090250 -0.586966 0.646080 130 72 56
0.092488 -0.587187 0.645722 132 72 57
0.094959 -0.586453 0.645058 134 74 59
0.097194 -0.586674 0.644701 134 74 59
0.099429 -0.586894 0.644344 134 74 59
0.101664 -0.587114 0.643987 133 73 58
0.103899 -0.587334 0.643630 130 70 55
0.106134 -0.587554 0.643273 131 71 56
0.108369 -0.587774 0.642916 134 74 59
0.110604 -0.587995 0.642559 134 74 61
0.112839 -0.588215 0.642202 132 72 59
0.115074 -0.588435 0.641845 132 72 59
0.117309 -0.588655 0.641488 132 72 59
0.119544 -0.588875 0.641132 134 74 61
0.121779 -0.589095 0.640775 134 74 61
0.124014 -0.589316 0.640418 134 74 61
0.126249 -0.589536 0.640061 135 75 62
0.128484 -0.589756 0.639704 134 76 62
0.130719 -0.589976 0.639347 137 79 65
0.132765 -0.591154 0.639290 136 78 64
0.135002 -0.591375 0.638933 133 75 61
0.137240 -0.591595 0.638575 129 76 61
0.139477 -0.591816 0.638218 130 77 62
0.141715 -0.592036 0.637861 128 75 60
0.143953 -0.592256 0.637504 128 75 60
0.146190 -0.592477 0.637146 129 76 61
0.148600 -0.591737 0.636491 130 77 62
0.150835 -0.591958 0.636135 132 79 64
0.153070 -0.592178 0.635778 134 81 66
0.155634 -0.590477 0.634828 137 84 69
0.157864 -0.590697 0.634472 136 83 68
0.160253 -0.589955 0.633821 138 82 68
0.162480 -0.590175 0.633465 138 82 68
0.164862 -0.589433 0.632815 138 82 68
0.167087 -0.589652 0.632460 139 83 69
0.169312 -0.589871 0.632104 141 85 71
0.171536 -0.590090 0.631749 141 85 71
0.173761 -0.590309 0.631394 142 86 72
0.175986 -0.590528 0.631038 145 89 75
0.178211 -0.590748 0.630683 141 90 76
0.180299 -0.591930 0.630620 143 92 78
0.182527 -0.592149 0.630264 145 99 83
0.184623 -0.593333 0.630199 157 111 95
0.186853 -0.593552 0.629843 159 117 105
0.189083 -0.593772 0.629487 166 124 112
0.191066 -0.595921 0.629710 169 133 121
0.193543 -0.594211 0.628774 172 136 124
0.195536 -0.596361 0.628996 169 140 130
0.197771 -0.596581 0.628639 173 144 134
0.200006 -0.596801 0.628282 174 148 137
0.202241 -0.597021 0.627925 179 153 142
0.204476 -0.597242 0.627568 181 154 146
0.206711 -0.597462 0.627211 180 153 145
0.208946 -0.597682 0.626854 180 155 146
0.211181 -0.597902 0.626497 177 152 143
0.213318 -0.599089 0.626426 172 150 142
0.215460 -0.600277 0.626354 175 153 145
0.217607 -0.601465 0.626281 172 152 144
0.061001 -0.585745 0.653589 131 123 120
0.063244 -0.585966 0.653231 117 109 106
0.065487 -0.586187 0.652873 118 99 93
0.067729 -0.586408 0.652515 115 96 90
0.069972 -0.586629 0.652157 122 92 85
0.072215 -0.586850 0.651799 123 93 86
0.074713 -0.586119 0.651127 125 94 85
0.076953 -0.586340 0.650769 125 94 85
0.079193 -0.586561 0.650412 128 94 86
0.081434 -0.586781 0.650054 128 94 86
0.083674 -0.587002 0.649696 128 92 82
0.085914 -0.587223 0.649338 127 91 81
0.088154 -0.587443 0.648981 130 92 81
0.090632 -0.586711 0.648312 129 91 80
0.093105 -0.585978 0.647645 133 95 84
0.095340 -0.586199 0.647288 129 91 80
0.097575 -0.586419 0.646931 130 92 81
0.099810 -0.586639 0.646574 129 91 80
0.102045 -0.586859 0.646217 130 94 82
0.104280 -0.587079 0.645860 130 94 82
0.106515 -0.587299 0.645504 129 93 83
0.108750 -0.587519 0.645147 129 93 83
0.110985 -0.587740 0.644790 129 93 83
0.113220 -0.587960 0.644433 132 96 86
0.115875 -0.586269 0.643464 134 98 88
0.117690 -0.588400 0.643719 132 96 86
0.119925 -0.588620 0.643362 137 99 90
0.122161 -0.588840 0.643005 132 94 85
0.124396 -0.589061 0.642648 138 97 89
0.126631 -0.589281 0.642291 142 101 93
0.128866 -0.589501 0.641934 144 106 97
0.130909 -0.590679 0.641880 144 106 97
0.132957 -0.591857 0.641826 142 108 98
0.135010 -0.593035 0.641770 151 117 107
0.137253 -0.593256 0.641412 154 123 114
0.139496 -0.593477 0.641054 155 124 115
0.141738 -0.593698 0.640696 159 130 120
0.143981 -0.593919 0.640338 165 136 126
0.146398 -0.593181 0.639679 166 137 127
0.148638 -0.593401 0.639322 172 143 133
0.151047 -0.592662 0.638664 166 140 129
0.153451 -0.591923 0.638008 166 140 129
0.155686 -0.592143 0.637651 165 138 130
0.158244 -0.590442 0.636698 170 143 135
0.160474 -0.590662 0.636341 173 146 138
0.162704 -0.590882 0.635985 173 146 138
0.165088 -0.590140 0.635332 173 146 138
0.167164 -0.591321 0.635273 174 147 139
0.169691 -0.589617 0.634325 174 148 137
0.171916 -0.589836 0.633969 173 147 136
0.174141 -0.590055 0.633614 169 143 132
0.176366 -0.590275 0.633259 169 143 132
0.178452 -0.591456 0.633198 170 146 134
0.180544 -0.592639 0.633136 169 145 133
0.182773 -0.592859 0.632780 170 146 134
0.185003 -0.593078 0.632424 169 145 133
0.074585 -0.587766 0.653994 139 128 123
0.076830 -0.587987 0.653636 139 128 123
0.079075 -0.588208 0.653277 139 125 119
0.081568 -0.587477 0.652604 140 126 120
0.083811 -0.587698 0.652246 143 124 120
0.086054 -0.587919 0.651888 145 126 122
0.088536 -0.587188 0.651216 146 127 121
0.090776 -0.587408 0.650858 146 127 121
0.093251 -0.586676 0.650188 147 128 122
0.095721 -0.585944 0.649518 144 125 119
0.097956 -0.586164 0.649162 140 121 115
0.100191 -0.586384 0.648805 140 121 115
0.102426 -0.586604 0.648448 144 125 119
0.104661 -0.586824 0.648091 140 121 115
0.106897 -0.587044 0.647734 140 124 117
0.109132 -0.587264 0.647377 141 125 118
0.111796 -0.585575 0.646401 141 125 118
0.114026 -0.585795 0.646045 144 128 121
0.116255 -0.586014 0.645689 142 126 119
0.118485 -0.586234 0.645333 147 131 124
0.120307 -0.588365 0.645592 151 132 126
0.122542 -0.588585 0.645235 151 132 126
0.124777 -0.588806 0.644878 151 132 126
0.127012 -0.589026 0.644521 150 131 125
