ply
format ascii 1.0
element vertex 1908
property float x
property float y
property float z
property uchar red
property uchar green
property uchar blue
end_header
0.080084 -0.141564 0.662000 129 135 137
0.081678 -0.141350 0.661000 119 126 130
0.083393 -0.141350 0.661000 123 130 134
0.085108 -0.141350 0.661000 123 133 136
0.086823 -0.141350 0.661000 131 141 144
0.088537 -0.141350 0.661000 145 153 154
0.073435 -0.140267 0.664000 128 134 136
0.075158 -0.140267 0.664000 101 106 111
0.076880 -0.140267 0.664000 96 101 106
0.078485 -0.140056 0.663000 91 98 102
0.080084 -0.139844 0.662000 95 102 106
0.081678 -0.139633 0.661000 91 101 106
0.083393 -0.139633 0.661000 89 99 104
0.085108 -0.139633 0.661000 88 98 103
0.086691 -0.139422 0.660000 89 99 104
0.088537 -0.139633 0.661000 91 98 104
0.090252 -0.139633 0.661000 99 106 112
0.092106 -0.139844 0.662000 114 124 129
0.093966 -0.140056 0.663000 133 143 148
0.068370 -0.138750 0.665000 123 130 134
0.070095 -0.138750 0.665000 103 110 114
0.071820 -0.138750 0.665000 93 100 104
0.073546 -0.138750 0.665000 92 99 103
0.075271 -0.138750 0.665000 97 104 108
0.076880 -0.138542 0.664000 98 105 109
0.078485 -0.138333 0.663000 98 105 109
0.080084 -0.138125 0.662000 100 107 111
0.081801 -0.138125 0.662000 100 112 116
0.083393 -0.137916 0.661000 102 114 118
0.085108 -0.137916 0.661000 101 113 117
0.086823 -0.137916 0.661000 94 106 110
0.088537 -0.137916 0.661000 89 101 105
0.090252 -0.137916 0.661000 93 105 109
0.092106 -0.138125 0.662000 89 99 104
0.093966 -0.138333 0.663000 90 100 105
0.095686 -0.138333 0.663000 96 106 111
0.097553 -0.138542 0.664000 129 139 144
0.063289 -0.137229 0.666000 144 151 155
0.065017 -0.137229 0.666000 108 118 121
0.066745 -0.137229 0.666000 96 106 109
0.068473 -0.137229 0.666000 92 99 103
0.070095 -0.137023 0.665000 93 100 104
0.071820 -0.137023 0.665000 97 104 108
0.073546 -0.137023 0.665000 95 102 106
0.075271 -0.137023 0.665000 98 105 109
0.076880 -0.136817 0.664000 103 110 114
0.078603 -0.136817 0.664000 111 116 121
0.080205 -0.136611 0.663000 108 113 118
0.081801 -0.136405 0.662000 101 111 114
0.083519 -0.136405 0.662000 104 114 117
0.085236 -0.136405 0.662000 110 120 123
0.086954 -0.136405 0.662000 117 127 130
0.088671 -0.136405 0.662000 112 122 125
0.090389 -0.136405 0.662000 107 117 120
0.092106 -0.136405 0.662000 101 111 114
0.093966 -0.136611 0.663000 94 104 107
0.095686 -0.136611 0.663000 93 103 108
0.097553 -0.136817 0.664000 91 101 106
0.099275 -0.136817 0.664000 114 124 129
0.101150 -0.137023 0.665000 151 161 166
0.058105 -0.135499 0.666000 162 168 170
0.059833 -0.135499 0.666000 127 133 135
0.061561 -0.135499 0.666000 99 104 109
0.063289 -0.135499 0.666000 97 102 107
0.065017 -0.135499 0.666000 96 104 105
0.066745 -0.135499 0.666000 98 106 107
0.068473 -0.135499 0.666000 98 106 107
0.070201 -0.135499 0.666000 99 107 108
0.071820 -0.135295 0.665000 103 111 112
0.073546 -0.135295 0.665000 104 112 113
0.075271 -0.135295 0.665000 113 116 119
0.076996 -0.135295 0.665000 116 119 122
0.078603 -0.135092 0.664000 119 122 125
0.080326 -0.135092 0.664000 128 131 134
0.081925 -0.134888 0.663000 129 135 137
0.083645 -0.134888 0.663000 129 135 137
0.085236 -0.134685 0.662000 126 134 135
0.086954 -0.134685 0.662000 124 132 133
0.088671 -0.134685 0.662000 119 127 128
0.090389 -0.134685 0.662000 119 127 128
0.092106 -0.134685 0.662000 119 124 129
0.093966 -0.134888 0.663000 113 118 123
0.095686 -0.134888 0.663000 105 112 116
0.097553 -0.135092 0.664000 95 102 106
0.099275 -0.135092 0.664000 91 101 104
0.101150 -0.135295 0.665000 105 115 118
0.102875 -0.135295 0.665000 137 147 150
0.054732 -0.133970 0.667000 161 167 167
0.056462 -0.133970 0.667000 134 140 140
0.058193 -0.133970 0.667000 106 109 112
0.059923 -0.133970 0.667000 98 101 104
0.061654 -0.133970 0.667000 99 105 107
0.063384 -0.133970 0.667000 100 106 108
0.065115 -0.133970 0.667000 100 108 109
0.066745 -0.133769 0.666000 104 112 113
0.068473 -0.133769 0.666000 111 119 120
0.070201 -0.133769 0.666000 113 121 122
0.071928 -0.133769 0.666000 118 124 126
0.073546 -0.133568 0.665000 115 121 123
0.075271 -0.133568 0.665000 142 145 148
0.076996 -0.133568 0.665000 164 167 170
0.078722 -0.133568 0.665000 173 176 177
0.080326 -0.133367 0.664000 176 179 180
0.082049 -0.133367 0.664000 174 180 180
0.083771 -0.133367 0.664000 175 181 181
0.085365 -0.133166 0.663000 175 181 181
0.087085 -0.133166 0.663000 175 181 181
0.088805 -0.133166 0.663000 174 180 180
0.090525 -0.133166 0.663000 172 178 178
0.092245 -0.133166 0.663000 148 153 158
0.094107 -0.133367 0.664000 119 124 129
0.095830 -0.133367 0.664000 109 116 120
0.097553 -0.133367 0.664000 114 121 125
0.099275 -0.133367 0.664000 100 108 109
0.100998 -0.133367 0.664000 93 101 102
0.102875 -0.133568 0.665000 97 107 110
0.104601 -0.133568 0.665000 133 143 146
0.051271 -0.132237 0.667000 147 157 162
0.053001 -0.132237 0.667000 115 125 130
0.054732 -0.132237 0.667000 99 104 109
0.056462 -0.132237 0.667000 96 101 106
0.058193 -0.132237 0.667000 98 104 106
0.059923 -0.132237 0.667000 99 105 107
0.061654 -0.132237 0.667000 107 110 113
0.063384 -0.132237 0.667000 110 113 116
0.065115 -0.132237 0.667000 113 119 121
0.066845 -0.132237 0.667000 115 121 123
0.068576 -0.132237 0.667000 110 117 121
0.070201 -0.132039 0.666000 112 119 123
0.071928 -0.132039 0.666000 150 157 161
0.073656 -0.132039 0.666000 171 178 182
0.075271 -0.131840 0.665000 182 188 190
0.076996 -0.131840 0.665000 177 183 185
0.090662 -0.131642 0.664000 174 180 180
0.092385 -0.131642 0.664000 171 176 181
0.094107 -0.131642 0.664000 169 174 179
0.095830 -0.131642 0.664000 129 135 137
0.097553 -0.131642 0.664000 110 116 118
0.099275 -0.131642 0.664000 119 127 128
0.100998 -0.131642 0.664000 110 118 119
0.102721 -0.131642 0.664000 88 99 99
0.104601 -0.131840 0.665000 95 106 106
0.106326 -0.131840 0.665000 133 143 146
0.047810 -0.130504 0.667000 155 162 168
0.049615 -0.130700 0.668000 121 128 134
0.051271 -0.130504 0.667000 96 106 113
0.053081 -0.130700 0.668000 93 103 110
0.054814 -0.130700 0.668000 99 106 110
0.056547 -0.130700 0.668000 102 109 113
0.058280 -0.130700 0.668000 104 110 112
0.060013 -0.130700 0.668000 110 116 118
0.061746 -0.130700 0.668000 119 122 125
0.063384 -0.130504 0.667000 114 117 120
0.065115 -0.130504 0.667000 110 116 118
0.066845 -0.130504 0.667000 122 128 130
0.068576 -0.130504 0.667000 150 157 161
0.070201 -0.130308 0.666000 173 180 184
0.095974 -0.130113 0.665000 178 181 182
0.097700 -0.130113 0.665000 143 146 147
0.099275 -0.129917 0.664000 113 121 120
0.100998 -0.129917 0.664000 116 124 123
0.102721 -0.129917 0.664000 108 119 119
0.104601 -0.130113 0.665000 96 107 107
0.106326 -0.130113 0.665000 102 112 115
0.108051 -0.130113 0.665000 129 139 142
0.044416 -0.128964 0.668000 153 159 161
0.046149 -0.128964 0.668000 108 114 116
0.047882 -0.128964 0.668000 99 104 109
0.049615 -0.128964 0.668000 94 99 104
0.051348 -0.128964 0.668000 90 100 105
0.053081 -0.128964 0.668000 94 104 109
0.054814 -0.128964 0.668000 100 110 113
0.056547 -0.128964 0.668000 103 113 116
0.058280 -0.128964 0.668000 110 116 116
0.060013 -0.128964 0.668000 107 113 113
0.061746 -0.128964 0.668000 113 119 121
0.063479 -0.128964 0.668000 131 137 139
0.065115 -0.128771 0.667000 164 167 170
0.066845 -0.128771 0.667000 181 184 187
0.097700 -0.128385 0.665000 177 180 181
0.099425 -0.128385 0.665000 144 147 146
0.101150 -0.128385 0.665000 108 111 110
0.102875 -0.128385 0.665000 109 120 120
0.104601 -0.128385 0.665000 109 120 120
0.106326 -0.128385 0.665000 95 107 109
0.108051 -0.128385 0.665000 95 107 109
0.109776 -0.128385 0.665000 132 145 144
0.041011 -0.127419 0.669000 148 154 156
0.042746 -0.127419 0.669000 113 119 121
0.044549 -0.127610 0.670000 101 103 109
0.046287 -0.127610 0.670000 105 107 113
0.047953 -0.127419 0.669000 104 109 114
0.049689 -0.127419 0.669000 104 109 114
0.051425 -0.127419 0.669000 103 110 114
0.053160 -0.127419 0.669000 107 114 118
0.054896 -0.127419 0.669000 112 120 121
0.056632 -0.127419 0.669000 110 118 119
0.058367 -0.127419 0.669000 122 128 126
0.060013 -0.127229 0.668000 141 147 145
0.061746 -0.127229 0.668000 168 174 174
0.063479 -0.127229 0.668000 181 187 187
0.099425 -0.126658 0.665000 181 184 185
0.101150 -0.126658 0.665000 148 151 152
0.102875 -0.126658 0.665000 105 113 112
0.104601 -0.126658 0.665000 109 117 116
0.106326 -0.126658 0.665000 107 118 118
0.108051 -0.126658 0.665000 94 105 105
0.109776 -0.126658 0.665000 97 108 108
0.111502 -0.126658 0.665000 139 150 150
0.037539 -0.125682 0.669000 146 154 155
0.039334 -0.125869 0.670000 111 119 120
0.041072 -0.125869 0.670000 100 103 106
0.042810 -0.125869 0.670000 101 104 107
0.044549 -0.125869 0.670000 105 107 113
0.046287 -0.125869 0.670000 106 108 114
0.048025 -0.125869 0.670000 109 111 117
0.049763 -0.125869 0.670000 110 112 118
0.051425 -0.125682 0.669000 114 119 124
0.053160 -0.125682 0.669000 119 124 129
0.054896 -0.125682 0.669000 125 131 131
0.056632 -0.125682 0.669000 151 157 157
0.058367 -0.125682 0.669000 176 182 182
0.060103 -0.125682 0.669000 178 184 184
0.101150 -0.124930 0.665000 184 187 188
0.102875 -0.124930 0.665000 156 164 165
0.104601 -0.124930 0.665000 107 115 116
0.106326 -0.124930 0.665000 107 118 118
0.108051 -0.124930 0.665000 102 113 113
0.109776 -0.124930 0.665000 95 106 106
0.111669 -0.125118 0.666000 104 115 115
0.113397 -0.125118 0.666000 143 154 154
0.034068 -0.123944 0.669000 162 168 170
0.035857 -0.124129 0.670000 132 138 140
0.037596 -0.124129 0.670000 100 106 106
0.039392 -0.124314 0.671000 98 104 104
0.041133 -0.124314 0.671000 105 108 109
0.042874 -0.124314 0.671000 105 108 109
0.044615 -0.124314 0.671000 108 111 114
0.046356 -0.124314 0.671000 114 117 120
0.048025 -0.124129 0.670000 117 119 125
0.049763 -0.124129 0.670000 115 117 123
0.051501 -0.124129 0.670000 131 134 137
0.053160 -0.123944 0.669000 169 172 175
0.054896 -0.123944 0.669000 179 185 185
0.103030 -0.123388 0.666000 178 185 189
0.104758 -0.123388 0.666000 155 162 166
0.106326 -0.123203 0.665000 103 113 116
0.108051 -0.123203 0.665000 104 114 117
0.109942 -0.123388 0.666000 105 115 118
0.111669 -0.123388 0.666000 94 104 107
0.113397 -0.123388 0.666000 103 113 116
0.115125 -0.123388 0.666000 143 153 156
0.030551 -0.122023 0.668000 174 180 182
0.032332 -0.122206 0.669000 134 140 142
0.034068 -0.122206 0.669000 106 112 114
0.035857 -0.122388 0.670000 97 103 105
0.037652 -0.122571 0.671000 101 107 109
0.039392 -0.122571 0.671000 107 113 115
0.041133 -0.122571 0.671000 106 112 114
0.042874 -0.122571 0.671000 117 123 125
0.044615 -0.122571 0.671000 113 116 119
0.046356 -0.122571 0.671000 108 111 114
0.048025 -0.122388 0.670000 124 127 130
0.049763 -0.122388 0.670000 160 163 166
0.051501 -0.122388 0.670000 177 180 181
0.104758 -0.121658 0.666000 181 187 189
0.106486 -0.121658 0.666000 144 151 155
0.108214 -0.121658 0.666000 106 113 117
0.109942 -0.121658 0.666000 112 122 125
0.111669 -0.121658 0.666000 105 115 118
0.113397 -0.121658 0.666000 92 104 106
0.115125 -0.121658 0.666000 120 132 134
0.027085 -0.120288 0.668000 175 181 183
0.028818 -0.120288 0.668000 140 146 148
0.030597 -0.120468 0.669000 111 116 121
0.032332 -0.120468 0.669000 98 103 108
0.034119 -0.120648 0.670000 100 106 108
0.035857 -0.120648 0.670000 103 109 111
0.037652 -0.120828 0.671000 102 110 111
0.039392 -0.120828 0.671000 118 126 127
0.041195 -0.121008 0.672000 112 120 121
0.042874 -0.120828 0.671000 111 119 120
0.044615 -0.120828 0.671000 126 132 134
0.046356 -0.120828 0.671000 161 167 169
0.048025 -0.120648 0.670000 185 191 191
0.106646 -0.120108 0.667000 180 188 189
0.108214 -0.119927 0.666000 138 146 147
0.109942 -0.119927 0.666000 113 120 124
0.111669 -0.119927 0.666000 117 124 128
0.113397 -0.119927 0.666000 101 113 117
0.115125 -0.119927 0.666000 97 109 113
0.117028 -0.120108 0.667000 127 139 143
0.025390 -0.118730 0.669000 146 152 154
0.027125 -0.118730 0.669000 109 111 117
0.028861 -0.118730 0.669000 99 101 107
0.030597 -0.118730 0.669000 101 103 109
0.032381 -0.118907 0.670000 108 110 116
0.034119 -0.118907 0.670000 106 111 116
0.035911 -0.119085 0.671000 113 118 123
0.037652 -0.119085 0.671000 112 120 121
0.039451 -0.119262 0.672000 114 122 123
0.041195 -0.119262 0.672000 139 147 148
0.042874 -0.119085 0.671000 162 170 171
0.044615 -0.119085 0.671000 179 185 187
0.108376 -0.118375 0.667000 178 184 186
0.110107 -0.118375 0.667000 135 142 146
0.111669 -0.118197 0.666000 114 121 125
0.113397 -0.118197 0.666000 111 123 127
0.117028 -0.118375 0.667000 97 109 113
0.118759 -0.118375 0.667000 132 144 148
0.021951 -0.117167 0.670000 164 170 170
0.023690 -0.117167 0.670000 118 124 126
0.025428 -0.117167 0.670000 101 107 109
0.027166 -0.117167 0.670000 103 108 113
0.028904 -0.117167 0.670000 108 113 118
0.030643 -0.117167 0.670000 114 116 122
0.032381 -0.117167 0.670000 115 117 123
0.034170 -0.117342 0.671000 117 120 123
0.035911 -0.117342 0.671000 123 126 129
0.037652 -0.117342 0.671000 143 149 151
0.039451 -0.117516 0.672000 161 167 169
0.041133 -0.117342 0.671000 178 184 186
0.110107 -0.116642 0.667000 169 176 180
0.111837 -0.116642 0.667000 121 128 132
0.113568 -0.116642 0.667000 109 119 122
0.115298 -0.116642 0.667000 111 121 124
0.117028 -0.116642 0.667000 101 113 115
0.118759 -0.116642 0.667000 109 121 123
0.120670 -0.116817 0.668000 147 157 162
0.018530 -0.115771 0.672000 176 182 182
0.020243 -0.115598 0.671000 148 154 156
0.021984 -0.115598 0.671000 103 109 111
0.023725 -0.115598 0.671000 107 112 117
0.025466 -0.115598 0.671000 105 110 115
0.027166 -0.115426 0.670000 109 112 115
0.028904 -0.115426 0.670000 117 120 123
0.030643 -0.115426 0.670000 119 122 125
0.032381 -0.115426 0.670000 109 112 115
0.034170 -0.115598 0.671000 120 123 126
0.035911 -0.115598 0.671000 153 156 159
0.037652 -0.115598 0.671000 173 176 179
0.112005 -0.115082 0.668000 162 167 172
0.113568 -0.114909 0.667000 113 120 124
0.115298 -0.114909 0.667000 112 119 123
0.117028 -0.114909 0.667000 109 119 122
0.118759 -0.114909 0.667000 97 107 110
0.120670 -0.115082 0.668000 122 132 135
0.016836 -0.114364 0.674000 159 166 170
0.018558 -0.114195 0.673000 113 120 124
0.020273 -0.114025 0.672000 103 108 113
0.022017 -0.114025 0.672000 105 110 115
0.023725 -0.113855 0.671000 108 113 120
0.025466 -0.113855 0.671000 111 116 123
0.027207 -0.113855 0.671000 121 123 129
0.028904 -0.113686 0.670000 114 116 122
0.030643 -0.113686 0.670000 115 118 119
0.032429 -0.113855 0.671000 153 156 157
0.034170 -0.113855 0.671000 172 175 178
0.113568 -0.113177 0.667000 143 145 151
0.115298 -0.113177 0.667000 113 115 121
0.117028 -0.113177 0.667000 114 121 125
0.118937 -0.113346 0.668000 104 111 115
0.120670 -0.113346 0.668000 98 109 109
0.122403 -0.113346 0.668000 135 146 146
0.013339 -0.112613 0.674000 169 176 180
0.015088 -0.112613 0.674000 139 146 150
0.016836 -0.112613 0.674000 102 109 115
0.018558 -0.112446 0.673000 99 106 112
0.020304 -0.112446 0.673000 107 114 120
0.022017 -0.112279 0.672000 109 116 122
0.023760 -0.112279 0.672000 110 117 123
0.025466 -0.112112 0.671000 112 119 125
0.027247 -0.112279 0.672000 125 130 135
0.028947 -0.112112 0.671000 143 148 153
0.030688 -0.112112 0.671000 176 179 182
0.113738 -0.111611 0.668000 177 183 185
0.115471 -0.111611 0.668000 133 139 141
0.117204 -0.111611 0.668000 104 109 114
0.118937 -0.111611 0.668000 114 119 124
0.120670 -0.111611 0.668000 105 116 116
0.122586 -0.111778 0.669000 104 115 115
0.124322 -0.111778 0.669000 142 153 153
0.009842 -0.110862 0.674000 185 190 195
0.011591 -0.110862 0.674000 149 154 159
0.013359 -0.111027 0.675000 107 117 124
0.015110 -0.111027 0.675000 96 106 113
0.016861 -0.111027 0.675000 102 112 117
0.018585 -0.110862 0.674000 102 112 117
0.020304 -0.110698 0.673000 109 116 124
0.022050 -0.110698 0.673000 119 126 134
0.023796 -0.110698 0.673000 127 134 140
0.025504 -0.110533 0.672000 139 146 152
0.027288 -0.110698 0.673000 171 178 182
0.028991 -0.110533 0.672000 177 184 188
0.115471 -0.109876 0.668000 175 181 183
0.117204 -0.109876 0.668000 118 123 128
0.118937 -0.109876 0.668000 112 117 122
0.120670 -0.109876 0.668000 111 121 124
0.122586 -0.110040 0.669000 100 110 113
0.124322 -0.110040 0.669000 110 122 124
0.126246 -0.110204 0.670000 152 164 166
0.008093 -0.109112 0.674000 169 174 179
0.009857 -0.109273 0.675000 128 138 143
0.011608 -0.109273 0.675000 102 112 117
0.013359 -0.109273 0.675000 102 112 117
0.015110 -0.109273 0.675000 98 108 113
0.016861 -0.109273 0.675000 105 115 120
0.018585 -0.109112 0.674000 115 125 130
0.020334 -0.109112 0.674000 112 119 125
0.022082 -0.109112 0.674000 132 139 145
0.023831 -0.109112 0.674000 161 166 171
0.025542 -0.108950 0.673000 178 183 188
0.117379 -0.108302 0.669000 163 168 173
0.119115 -0.108302 0.669000 114 119 124
0.120851 -0.108302 0.669000 110 120 123
0.122586 -0.108302 0.669000 108 118 121
0.124508 -0.108464 0.670000 100 112 114
0.126246 -0.108464 0.670000 121 133 135
0.006354 -0.107520 0.675000 146 153 159
0.008105 -0.107520 0.675000 118 125 131
0.009857 -0.107520 0.675000 98 108 113
0.011608 -0.107520 0.675000 105 115 120
0.013359 -0.107520 0.675000 107 117 122
0.015110 -0.107520 0.675000 116 126 131
0.016861 -0.107520 0.675000 117 124 130
0.018613 -0.107520 0.675000 114 121 127
0.020334 -0.107361 0.674000 143 148 153
0.022082 -0.107361 0.674000 169 174 179
0.119115 -0.106564 0.669000 148 155 159
0.120851 -0.106564 0.669000 108 118 121
0.122770 -0.106723 0.670000 112 122 125
0.124508 -0.106723 0.670000 104 114 117
0.126246 -0.106723 0.670000 101 111 114
0.128175 -0.106883 0.671000 144 154 157
0.002852 -0.105766 0.675000 170 175 180
0.004610 -0.105923 0.676000 124 129 134
0.006364 -0.105923 0.676000 101 111 116
0.008117 -0.105923 0.676000 100 110 115
0.009871 -0.105923 0.676000 103 113 118
0.011608 -0.105766 0.675000 111 121 126
0.013359 -0.105766 0.675000 118 125 131
0.015110 -0.105766 0.675000 112 119 125
0.016861 -0.105766 0.675000 121 126 131
0.018585 -0.105610 0.674000 162 167 172
0.020334 -0.105610 0.674000 181 187 189
0.119293 -0.104983 0.670000 174 182 183
0.121031 -0.104983 0.670000 128 135 139
0.122770 -0.104983 0.670000 110 117 121
0.124508 -0.104983 0.670000 116 123 129
0.126246 -0.104983 0.670000 100 107 113
0.128175 -0.105140 0.671000 115 125 130
0.130110 -0.105296 0.672000 148 158 163
0.001102 -0.104167 0.676000 154 160 162
0.002856 -0.104167 0.676000 114 121 127
0.004610 -0.104167 0.676000 102 109 115
0.006364 -0.104167 0.676000 105 115 120
0.008117 -0.104167 0.676000 109 119 124
0.009871 -0.104167 0.676000 114 124 127
0.011625 -0.104167 0.676000 115 125 128
0.013379 -0.104167 0.676000 113 118 123
0.015110 -0.104013 0.675000 141 146 151
0.016861 -0.104013 0.675000 172 178 180
0.121212 -0.103396 0.671000 164 171 175
0.122953 -0.103396 0.671000 111 118 122
0.124694 -0.103396 0.671000 113 120 126
0.126435 -0.103396 0.671000 111 118 124
0.128175 -0.103396 0.671000 100 110 115
0.130110 -0.103551 0.672000 122 132 137
-0.002405 -0.102411 0.676000 177 183 183
-0.000653 -0.102562 0.677000 132 139 143
0.001104 -0.102562 0.677000 110 117 121
0.002860 -0.102562 0.677000 103 110 116
0.004617 -0.102562 0.677000 109 116 122
0.006364 -0.102411 0.676000 108 118 123
0.008117 -0.102411 0.676000 114 124 129
0.009871 -0.102411 0.676000 111 121 124
0.011625 -0.102411 0.676000 109 119 122
0.013379 -0.102411 0.676000 153 161 162
0.015110 -0.102259 0.675000 175 183 184
0.123136 -0.101805 0.672000 142 149 153
0.124694 -0.101653 0.671000 105 112 118
0.126435 -0.101653 0.671000 119 126 132
0.128366 -0.101805 0.672000 104 114 119
0.130303 -0.101956 0.673000 102 112 117
0.132049 -0.101956 0.673000 141 153 157
-0.004165 -0.100804 0.677000 166 174 175
-0.002409 -0.100804 0.677000 120 128 129
-0.000653 -0.100804 0.677000 102 109 113
0.001104 -0.100804 0.677000 107 114 118
0.002860 -0.100804 0.677000 108 118 121
0.004617 -0.100804 0.677000 109 119 122
0.006373 -0.100804 0.677000 109 119 122
0.008129 -0.100804 0.677000 108 118 121
0.009871 -0.100655 0.676000 137 148 148
0.011625 -0.100655 0.676000 162 173 173
0.123319 -0.100208 0.673000 177 185 186
0.124880 -0.100059 0.672000 134 141 147
0.126623 -0.100059 0.672000 117 124 130
0.128366 -0.100059 0.672000 115 125 132
0.130303 -0.100208 0.673000 104 114 121
0.132246 -0.100357 0.674000 109 121 125
0.133994 -0.100357 0.674000 147 159 163
-0.007678 -0.099045 0.677000 175 182 186
-0.005922 -0.099045 0.677000 138 145 149
-0.004165 -0.099045 0.677000 104 112 113
-0.002413 -0.099191 0.678000 105 113 114
-0.000653 -0.099045 0.677000 107 115 116
0.001104 -0.099045 0.677000 114 122 123
0.002860 -0.099045 0.677000 114 121 125
0.004617 -0.099045 0.677000 111 118 122
0.006373 -0.099045 0.677000 126 137 137
0.008129 -0.099045 0.677000 168 179 179
0.125065 -0.098460 0.673000 163 168 175
0.126811 -0.098460 0.673000 118 123 130
0.128557 -0.098460 0.673000 118 125 131
0.130497 -0.098606 0.674000 112 119 125
0.132246 -0.098606 0.674000 97 107 114
0.133994 -0.098606 0.674000 123 133 140
-0.009435 -0.097286 0.677000 162 167 172
-0.007690 -0.097430 0.678000 117 122 127
-0.005931 -0.097430 0.678000 103 108 113
-0.004172 -0.097430 0.678000 106 112 112
-0.002413 -0.097430 0.678000 112 118 118
-0.000654 -0.097430 0.678000 114 120 120
0.001105 -0.097430 0.678000 119 125 125
0.002864 -0.097430 0.678000 125 131 133
0.004617 -0.097286 0.677000 153 159 161
0.006373 -0.097286 0.677000 184 192 193
0.127000 -0.096855 0.674000 154 161 167
0.128748 -0.096855 0.674000 112 119 125
0.130497 -0.096855 0.674000 119 126 132
0.132442 -0.096999 0.675000 101 111 116
0.134193 -0.096999 0.675000 95 105 110
0.136146 -0.097142 0.676000 135 145 150
-0.011208 -0.095668 0.678000 138 143 148
-0.009449 -0.095668 0.678000 108 113 118
-0.007690 -0.095668 0.678000 106 112 114
-0.005931 -0.095668 0.678000 111 117 119
-0.004172 -0.095668 0.678000 110 116 116
-0.002413 -0.095668 0.678000 119 125 125
-0.000654 -0.095668 0.678000 124 127 126
0.001105 -0.095668 0.678000 128 131 130
0.002864 -0.095668 0.678000 176 182 182
0.127000 -0.095104 0.674000 171 178 182
0.128748 -0.095104 0.674000 135 142 148
0.130691 -0.095245 0.675000 116 123 129
0.132442 -0.095245 0.675000 117 124 130
0.134193 -0.095245 0.675000 96 103 109
0.136146 -0.095386 0.676000 116 126 133
0.137900 -0.095386 0.676000 162 172 179
-0.014726 -0.093907 0.678000 162 167 172
-0.012967 -0.093907 0.678000 119 124 129
-0.011208 -0.093907 0.678000 107 112 117
-0.009449 -0.093907 0.678000 108 113 118
-0.007690 -0.093907 0.678000 113 119 121
-0.005931 -0.093907 0.678000 118 124 126
-0.004172 -0.093907 0.678000 115 121 121
-0.002413 -0.093907 0.678000 127 133 133
-0.000654 -0.093907 0.678000 147 153 151
0.001105 -0.093907 0.678000 177 183 181
0.128939 -0.093492 0.675000 165 170 175
0.130691 -0.093492 0.675000 120 125 130
0.132442 -0.093492 0.675000 120 125 132
0.134392 -0.093630 0.676000 113 118 125
0.136146 -0.093630 0.676000 96 106 113
0.137900 -0.093630 0.676000 138 148 155
-0.016460 -0.092010 0.677000 149 156 160
-0.014726 -0.092146 0.678000 112 117 122
-0.012967 -0.092146 0.678000 110 115 120
-0.011208 -0.092146 0.678000 107 113 115
-0.009449 -0.092146 0.678000 111 117 119
-0.007690 -0.092146 0.678000 117 123 123
-0.005931 -0.092146 0.678000 114 120 120
-0.004178 -0.092282 0.679000 126 132 130
-0.002413 -0.092146 0.678000 162 168 166
0.130884 -0.091874 0.676000 151 156 161
0.132638 -0.091874 0.676000 119 124 131
0.134392 -0.091874 0.676000 124 129 136
0.136146 -0.091874 0.676000 102 112 119
0.137900 -0.091874 0.676000 104 114 121
0.139860 -0.092010 0.677000 150 160 167
-0.020003 -0.090384 0.678000 169 175 177
-0.018244 -0.090384 0.678000 124 134 141
-0.016485 -0.090384 0.678000 104 114 121
-0.014726 -0.090384 0.678000 98 108 113
-0.012967 -0.090384 0.678000 104 114 119
-0.011208 -0.090384 0.678000 111 118 122
-0.009449 -0.090384 0.678000 116 123 127
-0.007701 -0.090518 0.679000 117 123 123
-0.005939 -0.090518 0.679000 128 134 134
-0.004178 -0.090518 0.679000 183 189 187
0.130884 -0.090118 0.676000 182 189 193
0.132638 -0.090118 0.676000 134 139 146
0.134392 -0.090118 0.676000 119 124 131
0.136146 -0.090118 0.676000 115 125 130
0.137900 -0.090118 0.676000 105 115 120
0.139860 -0.090251 0.677000 121 131 138
-0.021762 -0.088623 0.678000 163 170 174
-0.020003 -0.088623 0.678000 123 130 134
-0.018244 -0.088623 0.678000 100 110 117
-0.016485 -0.088623 0.678000 104 114 121
-0.014726 -0.088623 0.678000 107 117 122
-0.012967 -0.088623 0.678000 111 121 126
-0.011208 -0.088623 0.678000 115 121 123
-0.009463 -0.088754 0.679000 121 127 129
-0.007701 -0.088754 0.679000 149 155 153
-0.005939 -0.088754 0.679000 182 188 186
0.132834 -0.088492 0.677000 165 170 177
0.134591 -0.088492 0.677000 122 127 134
0.136146 -0.088362 0.676000 125 132 138
0.138104 -0.088492 0.677000 104 111 117
0.139860 -0.088492 0.677000 97 107 114
0.141616 -0.088492 0.677000 151 161 168
-0.023521 -0.086862 0.678000 151 157 159
-0.021762 -0.086862 0.678000 118 125 129
-0.020003 -0.086862 0.678000 111 118 122
-0.018244 -0.086862 0.678000 105 115 120
-0.016485 -0.086862 0.678000 107 117 122
-0.014726 -0.086862 0.678000 117 124 128
-0.012967 -0.086862 0.678000 114 121 125
-0.011208 -0.086862 0.678000 133 139 139
-0.009463 -0.086990 0.679000 163 169 169
-0.007701 -0.086990 0.679000 186 192 190
0.134591 -0.086734 0.677000 138 143 148
0.136347 -0.086734 0.677000 117 122 129
0.138104 -0.086734 0.677000 117 122 129
0.139860 -0.086734 0.677000 100 110 115
0.141616 -0.086734 0.677000 115 125 130
-0.025280 -0.085100 0.678000 141 146 151
-0.023521 -0.085100 0.678000 111 116 121
-0.021762 -0.085100 0.678000 112 118 120
-0.020003 -0.085100 0.678000 110 116 118
-0.018244 -0.085100 0.678000 112 120 121
-0.016485 -0.085100 0.678000 114 122 123
-0.014726 -0.085100 0.678000 124 130 132
-0.012986 -0.085226 0.679000 136 142 144
-0.011224 -0.085226 0.679000 177 183 183
0.134790 -0.085100 0.678000 183 185 191
0.136347 -0.084975 0.677000 118 123 130
0.138104 -0.084975 0.677000 119 124 131
0.139860 -0.084975 0.677000 113 120 128
0.141616 -0.084975 0.677000 99 106 114
0.143585 -0.085100 0.678000 153 163 168
-0.027039 -0.083339 0.678000 140 147 151
-0.025280 -0.083339 0.678000 105 110 115
-0.023521 -0.083339 0.678000 110 115 120
-0.021762 -0.083339 0.678000 113 119 119
-0.020003 -0.083339 0.678000 117 123 123
-0.018244 -0.083339 0.678000 112 118 120
-0.016509 -0.083462 0.679000 112 118 120
-0.014747 -0.083462 0.679000 153 159 161
-0.012986 -0.083462 0.679000 167 173 175
0.136549 -0.083339 0.678000 143 148 155
0.138308 -0.083339 0.678000 115 120 127
0.140067 -0.083339 0.678000 119 126 132
0.141826 -0.083339 0.678000 105 112 118
0.143585 -0.083339 0.678000 115 125 130
0.145344 -0.083339 0.678000 169 179 184
-0.030557 -0.081578 0.678000 184 190 190
-0.028798 -0.081578 0.678000 134 141 145
-0.027039 -0.081578 0.678000 103 110 114
-0.025280 -0.081578 0.678000 111 119 120
-0.023521 -0.081578 0.678000 111 119 120
-0.021762 -0.081578 0.678000 119 127 126
-0.020003 -0.081578 0.678000 111 119 118
-0.018271 -0.081698 0.679000 124 130 132
-0.016509 -0.081698 0.679000 156 162 164
-0.014747 -0.081698 0.679000 178 183 188
0.136549 -0.081578 0.678000 178 185 189
0.138308 -0.081578 0.678000 121 128 132
0.140067 -0.081578 0.678000 119 126 132
0.141826 -0.081578 0.678000 118 125 131
0.143585 -0.081578 0.678000 102 112 117
0.145344 -0.081578 0.678000 144 154 159
-0.032363 -0.079934 0.679000 177 185 186
-0.030602 -0.079934 0.679000 125 133 134
-0.028798 -0.079817 0.678000 98 105 109
-0.027079 -0.079934 0.679000 110 117 121
-0.025280 -0.079817 0.678000 114 122 123
-0.023521 -0.079817 0.678000 123 131 132
-0.021794 -0.079934 0.679000 115 126 124
-0.020032 -0.079934 0.679000 123 134 132
-0.018271 -0.079934 0.679000 171 178 182
0.138308 -0.079817 0.678000 162 169 173
0.140067 -0.079817 0.678000 118 125 131
0.141826 -0.079817 0.678000 119 126 132
0.143585 -0.079817 0.678000 108 118 123
0.145344 -0.079817 0.678000 115 125 130
0.147103 -0.079817 0.678000 162 173 173
-0.034125 -0.078170 0.679000 175 181 181
-0.032363 -0.078170 0.679000 114 124 127
-0.030602 -0.078170 0.679000 97 107 110
-0.028840 -0.078170 0.679000 107 117 120
-0.027079 -0.078170 0.679000 112 122 125
-0.025317 -0.078170 0.679000 118 129 127
-0.023555 -0.078170 0.679000 115 126 124
-0.021794 -0.078170 0.679000 146 157 155
-0.020032 -0.078170 0.679000 178 189 187
0.138512 -0.078170 0.679000 187 194 198
0.140273 -0.078170 0.679000 128 135 141
0.142035 -0.078170 0.679000 113 120 126
0.143796 -0.078170 0.679000 114 124 129
0.145558 -0.078170 0.679000 100 110 115
0.147319 -0.078170 0.679000 130 143 142
-0.035939 -0.076519 0.680000 166 174 175
-0.034175 -0.076519 0.680000 116 124 125
-0.032411 -0.076519 0.680000 97 108 108
-0.030647 -0.076519 0.680000 107 118 118
-0.028883 -0.076519 0.680000 110 121 121
-0.027079 -0.076406 0.679000 115 126 126
-0.025317 -0.076406 0.679000 121 132 132
-0.023555 -0.076406 0.679000 152 163 163
-0.021826 -0.076519 0.680000 180 191 191
0.140480 -0.076519 0.680000 167 174 180
0.142244 -0.076519 0.680000 110 117 123
0.144008 -0.076519 0.680000 117 124 130
0.145558 -0.076406 0.679000 102 109 115
0.147319 -0.076406 0.679000 105 116 116
0.149301 -0.076519 0.680000 166 177 177
-0.039584 -0.074972 0.682000 192 198 200
-0.037814 -0.074972 0.682000 147 153 155
-0.036045 -0.074972 0.682000 112 118 120
-0.034225 -0.074862 0.681000 105 111 113
-0.032459 -0.074862 0.681000 110 121 119
-0.030692 -0.074862 0.681000 110 121 119
-0.028883 -0.074752 0.680000 114 125 123
-0.027118 -0.074752 0.680000 121 132 130
-0.025354 -0.074752 0.680000 167 178 178
0.140480 -0.074752 0.680000 188 195 201
0.142244 -0.074752 0.680000 133 140 146
0.144008 -0.074752 0.680000 109 119 124
0.145772 -0.074752 0.680000 108 118 123
0.147536 -0.074752 0.680000 96 107 107
0.149301 -0.074752 0.680000 130 141 141
-0.041353 -0.073201 0.682000 189 197 198
-0.039642 -0.073308 0.683000 133 138 143
-0.037870 -0.073308 0.683000 106 111 116
-0.036098 -0.073308 0.683000 106 114 115
-0.034276 -0.073201 0.682000 111 119 120
-0.032506 -0.073201 0.682000 118 129 129
-0.030737 -0.073201 0.682000 117 128 128
-0.028925 -0.073093 0.681000 139 150 148
-0.027158 -0.073093 0.681000 172 183 181
0.142453 -0.073093 0.681000 167 174 180
0.144220 -0.073093 0.681000 109 119 122
0.145772 -0.072986 0.680000 116 126 129
0.147536 -0.072986 0.680000 105 116 116
0.149301 -0.072986 0.680000 105 116 116
0.151287 -0.073093 0.681000 166 174 175
-0.043186 -0.071534 0.683000 174 184 189
-0.041414 -0.071534 0.683000 126 136 141
-0.039700 -0.071638 0.684000 104 111 115
-0.037925 -0.071638 0.684000 111 118 122
-0.036151 -0.071638 0.684000 112 119 123
-0.034326 -0.071534 0.683000 117 124 128
-0.032554 -0.071534 0.683000 116 127 127
-0.030782 -0.071534 0.683000 144 155 155
-0.028968 -0.071429 0.682000 182 190 191
0.142662 -0.071429 0.682000 190 198 199
0.144432 -0.071429 0.682000 117 127 132
0.145987 -0.071324 0.681000 116 126 131
0.147753 -0.071324 0.681000 111 121 124
0.149520 -0.071324 0.681000 98 108 111
0.151287 -0.071324 0.681000 132 140 141
-0.044958 -0.069759 0.683000 175 183 184
-0.043249 -0.069861 0.684000 110 122 128
-0.041535 -0.069964 0.685000 100 112 118
-0.039758 -0.069964 0.685000 111 121 126
-0.037981 -0.069964 0.685000 114 124 129
-0.036204 -0.069964 0.685000 116 124 125
-0.034376 -0.069861 0.684000 119 127 128
-0.032602 -0.069861 0.684000 159 167 166
-0.030782 -0.069759 0.683000 182 190 189
0.144643 -0.069759 0.683000 156 163 167
0.146201 -0.069657 0.682000 107 114 118
0.147970 -0.069657 0.682000 118 128 133
0.149740 -0.069657 0.682000 103 113 118
0.151509 -0.069657 0.682000 104 114 117
0.153503 -0.069759 0.683000 162 172 175
-0.046730 -0.067985 0.683000 162 172 175
-0.045024 -0.068084 0.684000 109 119 122
-0.043312 -0.068184 0.685000 97 107 112
-0.041535 -0.068184 0.685000 110 120 125
-0.038036 -0.068284 0.686000 116 126 129
-0.036204 -0.068184 0.685000 119 125 125
-0.034426 -0.068184 0.685000 160 166 166
-0.032649 -0.068184 0.685000 184 190 190
0.144855 -0.068084 0.684000 190 197 201
0.146415 -0.067985 0.683000 123 130 134
0.148187 -0.067985 0.683000 116 126 131
0.149959 -0.067985 0.683000 116 126 131
0.151731 -0.067985 0.683000 96 108 112
0.153728 -0.068084 0.684000 137 149 153
-0.048573 -0.066308 0.684000 157 164 168
-0.045089 -0.066405 0.685000 99 106 110
-0.041596 -0.066501 0.686000 115 125 128
-0.039816 -0.066501 0.686000 119 126 130
-0.038036 -0.066501 0.686000 124 131 135
-0.036256 -0.066501 0.686000 164 170 170
-0.034426 -0.066405 0.685000 185 191 191
0.146844 -0.066405 0.685000 163 170 174
0.148404 -0.066308 0.684000 107 119 123
0.150179 -0.066308 0.684000 116 128 132
0.151953 -0.066308 0.684000 96 108 114
0.153953 -0.066405 0.685000 108 120 126
0.155730 -0.066405 0.685000 156 169 168
-0.048644 -0.064625 0.685000 103 110 116
-0.046867 -0.064625 0.685000 109 116 120
-0.045155 -0.064719 0.686000 112 119 123
-0.043375 -0.064719 0.686000 120 125 130
-0.041596 -0.064719 0.686000 120 125 130
-0.039816 -0.064719 0.686000 131 137 139
-0.038036 -0.064719 0.686000 181 187 189
-0.036256 -0.064719 0.686000 186 192 192
0.147058 -0.064719 0.686000 188 195 199
0.148621 -0.064625 0.685000 128 140 144
0.150398 -0.064625 0.685000 114 126 130
0.152176 -0.064625 0.685000 106 119 128
0.153953 -0.064625 0.685000 93 106 115
0.155957 -0.064719 0.686000 129 141 145
-0.052198 -0.062845 0.685000 134 142 141
-0.050421 -0.062845 0.685000 105 112 116
-0.048644 -0.062845 0.685000 109 116 120
-0.046935 -0.062937 0.686000 112 119 123
-0.045155 -0.062937 0.686000 117 124 128
-0.043375 -0.062937 0.686000 115 121 123
-0.041596 -0.062937 0.686000 143 149 151
-0.039816 -0.062937 0.686000 177 183 185
0.148838 -0.062937 0.686000 169 179 186
0.150618 -0.062937 0.686000 112 122 129
0.152398 -0.062937 0.686000 111 124 133
0.154178 -0.062937 0.686000 99 112 121
0.156185 -0.063029 0.687000 100 113 122
0.157967 -0.063029 0.687000 156 169 178
-0.055752 -0.061066 0.685000 186 192 190
-0.053975 -0.061066 0.685000 121 129 130
-0.052198 -0.061066 0.685000 105 113 114
-0.050495 -0.061155 0.686000 105 116 114
-0.048715 -0.061155 0.686000 111 122 120
-0.046935 -0.061155 0.686000 113 121 122
-0.045221 -0.061244 0.687000 117 125 126
-0.043439 -0.061244 0.687000 150 156 156
-0.041656 -0.061244 0.687000 186 192 192
0.150838 -0.061244 0.687000 128 135 143
0.152620 -0.061244 0.687000 107 118 127
0.154402 -0.061244 0.687000 104 115 124
0.156185 -0.061244 0.687000 91 107 117
0.157967 -0.061244 0.687000 123 139 149
-0.057614 -0.059373 0.686000 173 180 184
-0.055834 -0.059373 0.686000 119 126 130
-0.054054 -0.059373 0.686000 102 114 116
-0.052274 -0.059373 0.686000 109 121 123
-0.050495 -0.059373 0.686000 110 121 119
-0.048786 -0.059460 0.687000 116 127 125
-0.047003 -0.059460 0.687000 121 127 125
-0.045221 -0.059460 0.687000 169 175 173
-0.043439 -0.059460 0.687000 185 191 191
0.150838 -0.059460 0.687000 176 181 188
0.152842 -0.059546 0.688000 112 121 131
0.154402 -0.059460 0.687000 112 121 131
0.156412 -0.059546 0.688000 101 114 125
0.158197 -0.059546 0.688000 99 112 123
0.159982 -0.059546 0.688000 156 170 176
-0.059480 -0.057675 0.687000 154 162 163
-0.057698 -0.057675 0.687000 111 118 122
-0.055915 -0.057675 0.687000 104 111 115
-0.054133 -0.057675 0.687000 110 120 125
-0.052350 -0.057675 0.687000 117 127 132
-0.050568 -0.057675 0.687000 118 126 127
-0.048786 -0.057675 0.687000 128 136 137
-0.047072 -0.057759 0.688000 176 182 180
0.152842 -0.057759 0.688000 134 141 149
0.154627 -0.057759 0.688000 118 125 133
0.156639 -0.057843 0.689000 112 125 136
0.158197 -0.057759 0.688000 94 107 118
0.159982 -0.057759 0.688000 127 141 147
-0.061262 -0.055890 0.687000 149 157 158
-0.059480 -0.055890 0.687000 105 113 114
-0.057698 -0.055890 0.687000 107 114 118
-0.055915 -0.055890 0.687000 113 120 124
-0.054133 -0.055890 0.687000 120 127 131
-0.052350 -0.055890 0.687000 118 125 129
-0.050568 -0.055890 0.687000 127 135 134
-0.048786 -0.055890 0.687000 176 184 183
0.153064 -0.056053 0.689000 171 178 186
0.154852 -0.056053 0.689000 113 120 128
0.156639 -0.056053 0.689000 116 127 136
0.158427 -0.056053 0.689000 101 112 121
0.160214 -0.056053 0.689000 109 119 126
0.162002 -0.056053 0.689000 158 168 175
-0.064921 -0.054184 0.688000 190 196 196
-0.063136 -0.054184 0.688000 146 152 152
-0.061351 -0.054184 0.688000 104 111 115
-0.059566 -0.054184 0.688000 107 114 118
-0.057698 -0.054105 0.687000 113 120 124
-0.055915 -0.054105 0.687000 121 128 132
-0.054133 -0.054105 0.687000 118 126 127
-0.052350 -0.054105 0.687000 134 142 143
-0.050568 -0.054105 0.687000 182 188 188
0.154852 -0.054263 0.689000 140 147 153
0.156639 -0.054263 0.689000 110 120 125
0.158427 -0.054263 0.689000 112 122 127
0.160214 -0.054263 0.689000 96 106 111
0.162002 -0.054263 0.689000 130 140 145
-0.066803 -0.052473 0.689000 188 194 194
-0.065016 -0.052473 0.689000 131 138 142
-0.063136 -0.052397 0.688000 103 110 114
-0.061351 -0.052397 0.688000 105 115 118
-0.059566 -0.052397 0.688000 108 118 121
-0.057782 -0.052397 0.688000 120 127 131
-0.055915 -0.052321 0.687000 119 126 130
-0.054133 -0.052321 0.687000 142 148 148
-0.052350 -0.052321 0.687000 184 190 190
0.155077 -0.052549 0.690000 167 174 178
0.156867 -0.052549 0.690000 113 120 126
0.158657 -0.052549 0.690000 121 128 134
0.160447 -0.052549 0.690000 102 112 117
0.162002 -0.052473 0.689000 105 115 120
0.164027 -0.052549 0.690000 164 174 177
-0.068591 -0.050683 0.689000 178 185 189
-0.066803 -0.050683 0.689000 120 127 131
-0.065016 -0.050683 0.689000 100 111 111
-0.063136 -0.050610 0.688000 108 119 119
-0.061351 -0.050610 0.688000 112 122 125
-0.059566 -0.050610 0.688000 118 128 131
-0.057782 -0.050610 0.688000 119 127 128
-0.055915 -0.050536 0.687000 149 157 158
-0.054133 -0.050536 0.687000 188 194 194
0.156867 -0.050757 0.690000 139 146 150
0.158657 -0.050757 0.690000 118 125 129
0.160447 -0.050757 0.690000 112 122 127
0.162237 -0.050757 0.690000 98 108 113
0.164027 -0.050757 0.690000 131 141 144
-0.070480 -0.048964 0.690000 176 183 175
-0.068690 -0.048964 0.690000 116 124 125
-0.066803 -0.048893 0.689000 100 108 109
-0.065016 -0.048893 0.689000 108 119 119
-0.063228 -0.048893 0.689000 111 122 122
-0.061441 -0.048893 0.689000 111 122 122
-0.059566 -0.048822 0.688000 126 137 137
-0.057782 -0.048822 0.688000 160 168 167
-0.055997 -0.048822 0.688000 188 196 195
0.157094 -0.049035 0.691000 174 181 185
0.158887 -0.049035 0.691000 113 120 124
0.160679 -0.049035 0.691000 117 127 134
0.162237 -0.048964 0.690000 100 110 117
0.164027 -0.048964 0.690000 104 114 119
0.165817 -0.048964 0.690000 167 177 182
-0.072271 -0.047172 0.690000 165 171 169
-0.070480 -0.047172 0.690000 118 124 122
-0.068690 -0.047172 0.690000 100 108 109
-0.066900 -0.047172 0.690000 105 113 114
-0.065016 -0.047103 0.689000 114 122 123
-0.063228 -0.047103 0.689000 118 126 127
-0.061441 -0.047103 0.689000 124 132 131
-0.059653 -0.047103 0.689000 166 174 173
-0.057865 -0.047103 0.689000 189 195 195
0.157321 -0.047308 0.692000 190 197 201
0.158887 -0.047240 0.691000 134 141 145
0.160679 -0.047240 0.691000 114 124 131
0.162472 -0.047240 0.691000 108 118 125
0.164265 -0.047240 0.691000 98 108 115
0.166058 -0.047240 0.691000 137 147 154
-0.074168 -0.045445 0.691000 122 126 121
-0.072375 -0.045445 0.691000 107 113 111
-0.070480 -0.045379 0.690000 108 114 112
-0.068690 -0.045379 0.690000 113 121 120
-0.066900 -0.045379 0.690000 118 126 125
-0.065110 -0.045379 0.690000 119 127 128
-0.063320 -0.045379 0.690000 125 133 134
-0.061530 -0.045379 0.690000 171 179 176
0.159117 -0.045511 0.692000 169 176 180
0.160912 -0.045511 0.692000 110 120 127
0.162472 -0.045445 0.691000 108 118 125
0.164265 -0.045445 0.691000 103 113 120
0.166058 -0.045445 0.691000 111 121 128
0.167850 -0.045445 0.691000 162 172 175
-0.075961 -0.043650 0.691000 131 134 133
-0.074168 -0.043650 0.691000 96 99 98
-0.072375 -0.043650 0.691000 109 113 108
-0.070583 -0.043650 0.691000 115 119 114
-0.068790 -0.043650 0.691000 120 128 127
-0.066900 -0.043587 0.690000 119 127 126
-0.065110 -0.043587 0.690000 132 140 141
-0.063320 -0.043587 0.690000 178 186 187
0.159347 -0.043776 0.693000 190 197 201
0.160912 -0.043713 0.692000 130 137 143
0.162707 -0.043713 0.692000 111 118 124
0.164503 -0.043713 0.692000 111 122 131
0.166058 -0.043650 0.691000 99 110 119
0.168093 -0.043713 0.692000 149 161 163
-0.077979 -0.041976 0.693000 124 130 132
-0.076071 -0.041915 0.692000 101 107 107
-0.074275 -0.041915 0.692000 105 111 111
-0.072375 -0.041855 0.691000 114 120 118
-0.070583 -0.041855 0.691000 126 132 130
-0.068790 -0.041855 0.691000 118 126 123
-0.066997 -0.041855 0.691000 137 145 142
-0.065110 -0.041794 0.690000 180 188 189
0.161145 -0.041976 0.693000 160 167 173
0.162942 -0.041976 0.693000 111 118 124
0.164503 -0.041915 0.692000 114 124 131
0.166298 -0.041915 0.692000 96 106 113
0.168093 -0.041915 0.692000 122 132 137
-0.081692 -0.040234 0.694000 175 181 181
-0.079892 -0.040234 0.694000 113 121 122
-0.077979 -0.040176 0.693000 100 108 109
-0.076181 -0.040176 0.693000 106 114 113
-0.074275 -0.040118 0.692000 116 124 123
-0.072480 -0.040118 0.692000 127 133 131
-0.070583 -0.040060 0.691000 120 126 124
-0.068790 -0.040060 0.691000 139 145 145
-0.066997 -0.040060 0.691000 184 190 190
0.161377 -0.040234 0.694000 178 185 191
0.162942 -0.040176 0.693000 117 124 130
0.164740 -0.040176 0.693000 118 125 133
0.166538 -0.040176 0.693000 111 118 126
0.168336 -0.040176 0.693000 104 114 119
0.170134 -0.040176 0.693000 153 163 168
-0.083733 -0.038541 0.696000 164 174 177
-0.081928 -0.038541 0.696000 107 117 120
-0.080122 -0.038541 0.696000 103 110 114
-0.078204 -0.038486 0.695000 109 116 120
-0.076291 -0.038431 0.694000 114 122 123
-0.074383 -0.038375 0.693000 120 128 129
-0.072585 -0.038375 0.693000 125 131 131
-0.070685 -0.038320 0.692000 140 146 146
-0.068889 -0.038320 0.692000 186 192 192
0.163178 -0.038431 0.694000 142 149 155
0.164978 -0.038431 0.694000 111 118 124
0.166779 -0.038431 0.694000 116 123 129
0.168579 -0.038431 0.694000 98 108 113
0.170380 -0.038431 0.694000 142 152 157
-0.087345 -0.036733 0.696000 187 197 200
-0.085539 -0.036733 0.696000 151 161 164
-0.083854 -0.036786 0.697000 101 111 114
-0.082045 -0.036786 0.697000 102 112 115
-0.080122 -0.036733 0.696000 107 117 120
-0.078316 -0.036733 0.696000 115 125 128
-0.076400 -0.036681 0.695000 117 128 128
-0.074490 -0.036628 0.694000 131 142 142
-0.072585 -0.036575 0.693000 161 167 169
-0.070787 -0.036575 0.693000 188 194 196
0.163648 -0.036733 0.696000 177 184 190
0.165216 -0.036681 0.695000 113 120 126
0.167019 -0.036681 0.695000 124 131 137
0.168822 -0.036681 0.695000 105 112 118
0.170625 -0.036681 0.695000 118 125 131
0.172428 -0.036681 0.695000 164 171 177
-0.089150 -0.034925 0.696000 182 190 191
-0.087345 -0.034925 0.696000 135 145 150
-0.085785 -0.035026 0.698000 101 111 116
-0.083974 -0.035026 0.698000 103 113 118
-0.082163 -0.035026 0.698000 105 115 120
-0.080237 -0.034976 0.697000 113 125 127
-0.078429 -0.034976 0.697000 118 130 132
-0.076510 -0.034925 0.696000 112 123 123
-0.074705 -0.034925 0.696000 160 171 171
-0.072794 -0.034875 0.695000 188 196 197
0.165453 -0.034925 0.696000 130 137 143
0.167259 -0.034925 0.696000 116 123 129
0.169065 -0.034925 0.696000 119 126 132
0.170871 -0.034925 0.696000 103 110 116
0.172676 -0.034925 0.696000 147 154 160
-0.090956 -0.033117 0.696000 177 184 188
-0.089278 -0.033165 0.697000 124 131 135
-0.087470 -0.033165 0.697000 98 108 113
-0.085785 -0.033212 0.698000 105 115 120
-0.083974 -0.033212 0.698000 109 119 124
-0.082163 -0.033212 0.698000 116 126 131
-0.080352 -0.033212 0.698000 114 124 127
-0.078541 -0.033212 0.698000 143 153 156
-0.076730 -0.033212 0.698000 112 127 126
0.165929 -0.033212 0.698000 156 161 170
0.167740 -0.033212 0.698000 114 119 128
0.169308 -0.033165 0.697000 121 128 136
0.170871 -0.033117 0.696000 100 107 115
0.172676 -0.033117 0.696000 124 131 135
-0.092762 -0.031309 0.696000 170 176 176
-0.090956 -0.031309 0.696000 117 127 132
-0.089150 -0.031309 0.696000 98 108 113
-0.087596 -0.031399 0.698000 104 114 119
-0.085785 -0.031399 0.698000 110 120 125
-0.084094 -0.031444 0.699000 121 128 134
-0.082281 -0.031444 0.699000 114 121 127
-0.080467 -0.031444 0.699000 143 153 156
-0.078541 -0.031399 0.698000 172 182 185
0.165929 -0.031399 0.698000 182 189 197
0.167740 -0.031399 0.698000 123 130 138
0.169551 -0.031399 0.698000 119 126 132
0.171362 -0.031399 0.698000 106 113 119
0.172924 -0.031354 0.697000 109 116 120
0.174983 -0.031399 0.698000 168 175 179
-0.096373 -0.029501 0.696000 186 192 190
-0.094567 -0.029501 0.696000 153 160 164
-0.092762 -0.029501 0.696000 103 110 114
-0.090956 -0.029501 0.696000 104 114 119
-0.089278 -0.029543 0.697000 110 120 125
-0.087596 -0.029586 0.698000 113 120 126
-0.085908 -0.029628 0.699000 123 130 136
-0.084094 -0.029628 0.699000 118 125 129
-0.082281 -0.029628 0.699000 154 161 165
-0.080467 -0.029628 0.699000 182 193 193
0.167980 -0.029628 0.699000 148 158 165
0.169794 -0.029628 0.699000 110 120 125
0.171362 -0.029586 0.698000 114 124 129
0.173173 -0.029586 0.698000 100 110 113
0.174983 -0.029586 0.698000 144 154 157
-0.098179 -0.027693 0.696000 187 195 196
-0.096373 -0.027693 0.696000 139 147 148
-0.094567 -0.027693 0.696000 98 105 109
-0.092762 -0.027693 0.696000 105 112 116
-0.091087 -0.027733 0.697000 112 119 125
-0.089278 -0.027733 0.697000 124 131 137
-0.087596 -0.027773 0.698000 124 131 135
-0.085785 -0.027773 0.698000 125 132 136
-0.084094 -0.027812 0.699000 163 166 169
-0.082281 -0.027812 0.699000 188 191 194
0.168220 -0.027852 0.700000 173 180 184
0.169794 -0.027812 0.699000 111 121 124
0.171607 -0.027812 0.699000 111 121 124
0.173421 -0.027812 0.699000 98 108 111
0.175234 -0.027812 0.699000 111 121 124
-0.099985 -0.025885 0.696000 183 191 190
-0.098179 -0.025885 0.696000 131 141 144
-0.096373 -0.025885 0.696000 95 105 108
-0.094567 -0.025885 0.696000 110 117 121
-0.092895 -0.025922 0.697000 109 116 120
-0.091087 -0.025922 0.697000 118 125 129
-0.089278 -0.025922 0.697000 120 127 131
-0.087596 -0.025959 0.698000 125 133 134
-0.085785 -0.025959 0.698000 161 169 170
0.170037 -0.026034 0.700000 121 131 134
0.171607 -0.025996 0.699000 115 125 128
0.173421 -0.025996 0.699000 105 115 120
0.175234 -0.025996 0.699000 101 111 116
0.177301 -0.026034 0.700000 155 162 166
-0.101790 -0.024077 0.696000 178 185 189
-0.099985 -0.024077 0.696000 124 131 135
-0.098179 -0.024077 0.696000 96 103 107
-0.096373 -0.024077 0.696000 107 114 118
-0.094703 -0.024111 0.697000 104 111 115
-0.092762 -0.024077 0.696000 121 128 132
-0.090956 -0.024077 0.696000 120 128 129
-0.089278 -0.024111 0.697000 149 157 158
-0.087470 -0.024111 0.697000 172 178 180
0.170037 -0.024215 0.700000 152 159 163
0.171853 -0.024215 0.700000 113 120 124
0.173669 -0.024215 0.700000 114 124 127
0.175485 -0.024215 0.700000 100 110 113
0.177301 -0.024215 0.700000 144 151 155
-0.103745 -0.022301 0.697000 159 167 168
-0.101936 -0.022301 0.697000 113 120 124
-0.099985 -0.022269 0.696000 93 100 104
-0.098179 -0.022269 0.696000 105 112 116
-0.096512 -0.022301 0.697000 113 120 124
-0.094703 -0.022301 0.697000 123 130 134
-0.092762 -0.022269 0.696000 121 128 132
-0.090956 -0.022269 0.696000 162 168 168
0.170279 -0.022429 0.701000 179 184 191
0.172098 -0.022429 0.701000 117 122 129
0.173917 -0.022429 0.701000 119 126 132
0.175735 -0.022429 0.701000 104 111 117
0.177554 -0.022429 0.701000 121 128 132
-0.107823 -0.020578 0.700000 190 196 194
-0.105856 -0.020549 0.699000 148 156 157
-0.104042 -0.020549 0.699000 107 115 116
-0.101936 -0.020490 0.697000 95 102 106
-0.100128 -0.020490 0.697000 105 112 116
-0.098320 -0.020490 0.697000 117 125 126
-0.096512 -0.020490 0.697000 121 129 130
-0.094567 -0.020461 0.696000 131 137 139
-0.092762 -0.020461 0.696000 167 173 175
0.170522 -0.020637 0.702000 189 194 201
0.172098 -0.020608 0.701000 132 137 144
0.174165 -0.020637 0.702000 112 119 125
0.175986 -0.020637 0.702000 111 118 124
0.177807 -0.020637 0.702000 100 111 111
-0.109796 -0.018787 0.701000 189 195 195
-0.107977 -0.018787 0.701000 136 142 142
-0.106007 -0.018760 0.700000 96 104 105
-0.104042 -0.018733 0.699000 104 112 113
-0.102083 -0.018706 0.698000 103 114 114
-0.100128 -0.018679 0.697000 118 129 129
-0.098320 -0.018679 0.697000 118 126 127
-0.096373 -0.018653 0.696000 138 146 147
-0.094567 -0.018653 0.696000 181 187 189
0.172344 -0.018813 0.702000 145 152 160
0.174165 -0.018813 0.702000 110 120 127
0.176237 -0.018840 0.703000 111 121 128
0.178061 -0.018840 0.703000 101 111 114
0.179885 -0.018840 0.703000 152 162 165
-0.111774 -0.016990 0.702000 179 185 185
-0.109953 -0.016990 0.702000 127 134 138
-0.108132 -0.016990 0.702000 100 107 111
-0.106159 -0.016965 0.701000 104 112 113
-0.104191 -0.016941 0.700000 114 122 123
-0.102229 -0.016917 0.699000 121 132 132
-0.100415 -0.016917 0.699000 116 127 127
-0.098461 -0.016893 0.698000 139 147 146
-0.096650 -0.016893 0.698000 185 193 192
0.172589 -0.017014 0.703000 166 173 181
0.174413 -0.017014 0.703000 109 119 126
0.176237 -0.017014 0.703000 117 127 134
0.178061 -0.017014 0.703000 104 114 119
0.179885 -0.017014 0.703000 130 140 145
-0.113757 -0.015188 0.703000 168 176 177
-0.111933 -0.015188 0.703000 111 119 120
-0.110109 -0.015188 0.703000 103 111 112
-0.108286 -0.015188 0.703000 107 115 116
-0.106310 -0.015166 0.702000 118 126 127
-0.104340 -0.015144 0.701000 121 129 130
-0.102375 -0.015123 0.700000 119 127 126
-0.100415 -0.015101 0.699000 153 161 160
-0.098602 -0.015101 0.699000 188 196 195
0.172589 -0.015188 0.703000 171 178 186
0.174413 -0.015188 0.703000 117 126 136
0.176237 -0.015188 0.703000 118 127 137
0.178061 -0.015188 0.703000 109 119 124
0.179885 -0.015188 0.703000 115 125 130
-0.115581 -0.013361 0.703000 174 180 182
-0.113757 -0.013361 0.703000 100 111 111
-0.111933 -0.013361 0.703000 95 106 106
-0.110109 -0.013361 0.703000 105 115 118
-0.108286 -0.013361 0.703000 115 125 128
-0.106462 -0.013361 0.703000 132 140 141
-0.104489 -0.013342 0.702000 124 132 133
-0.102668 -0.013342 0.702000 167 173 173
0.172589 -0.013361 0.703000 178 185 191
0.174661 -0.013380 0.704000 135 145 152
0.176488 -0.013380 0.704000 112 122 129
0.178314 -0.013380 0.704000 114 124 131
0.180140 -0.013380 0.704000 105 115 122
0.181967 -0.013380 0.704000 161 169 170
-0.117405 -0.011535 0.703000 155 166 166
-0.115581 -0.011535 0.703000 100 111 111
-0.113757 -0.011535 0.703000 97 107 110
-0.112092 -0.011551 0.704000 108 118 121
-0.110266 -0.011551 0.704000 121 128 132
-0.108440 -0.011551 0.704000 120 127 131
-0.106462 -0.011535 0.703000 135 141 143
-0.104638 -0.011535 0.703000 176 182 184
0.174661 -0.011551 0.704000 147 157 164
0.176488 -0.011551 0.704000 109 119 126
0.178314 -0.011551 0.704000 115 125 132
0.180140 -0.011551 0.704000 101 111 118
0.181967 -0.011551 0.704000 145 153 154
-0.121053 -0.009709 0.703000 192 198 200
-0.119398 -0.009723 0.704000 153 159 161
-0.117572 -0.009723 0.704000 95 105 108
-0.115745 -0.009723 0.704000 96 106 109
-0.113919 -0.009723 0.704000 111 121 124
-0.112092 -0.009723 0.704000 115 125 128
-0.110266 -0.009723 0.704000 117 125 126
-0.108440 -0.009723 0.704000 142 150 151
-0.106613 -0.009723 0.704000 194 194 198
0.174661 -0.009723 0.704000 162 172 179
0.176488 -0.009723 0.704000 110 120 127
0.178314 -0.009723 0.704000 115 127 133
0.180140 -0.009723 0.704000 106 118 124
0.181967 -0.009723 0.704000 131 139 138
-0.123051 -0.007894 0.704000 189 195 195
-0.121225 -0.007894 0.704000 133 140 144
-0.119398 -0.007894 0.704000 96 103 107
-0.117572 -0.007894 0.704000 96 106 109
-0.115745 -0.007894 0.704000 110 120 123
-0.113919 -0.007894 0.704000 115 121 123
-0.112252 -0.007905 0.705000 122 128 130
-0.110423 -0.007905 0.705000 164 170 170
-0.108594 -0.007905 0.705000 196 202 202
0.174909 -0.007905 0.705000 176 186 193
0.176738 -0.007905 0.705000 117 127 134
0.178567 -0.007905 0.705000 114 126 130
0.180396 -0.007905 0.705000 107 119 123
0.181967 -0.007894 0.704000 117 125 126
-0.124878 -0.006065 0.704000 181 188 192
-0.123051 -0.006065 0.704000 123 130 134
-0.121225 -0.006065 0.704000 100 108 109
-0.119398 -0.006065 0.704000 102 110 111
-0.117739 -0.006073 0.705000 114 122 123
-0.115910 -0.006073 0.705000 117 125 126
-0.114081 -0.006073 0.705000 125 131 129
-0.112252 -0.006073 0.705000 175 181 179
-0.110423 -0.006073 0.705000 198 201 202
0.174909 -0.006073 0.705000 185 192 200
0.176738 -0.006073 0.705000 124 131 139
0.178567 -0.006073 0.705000 113 125 129
0.180396 -0.006073 0.705000 109 121 125
0.182225 -0.006073 0.705000 108 119 119
-0.126884 -0.004242 0.705000 176 184 185
-0.125055 -0.004242 0.705000 116 126 129
-0.123226 -0.004242 0.705000 95 105 108
-0.121225 -0.004236 0.704000 99 107 108
-0.119568 -0.004242 0.705000 116 124 125
-0.117739 -0.004242 0.705000 124 132 131
-0.115910 -0.004242 0.705000 126 134 133
-0.114081 -0.004242 0.705000 183 186 185
0.176738 -0.004242 0.705000 130 137 145
0.178567 -0.004242 0.705000 115 125 130
0.180396 -0.004242 0.705000 111 121 126
0.182225 -0.004242 0.705000 107 115 116
-0.128713 -0.002411 0.705000 170 177 181
-0.126884 -0.002411 0.705000 111 118 122
-0.125055 -0.002411 0.705000 96 106 109
-0.123226 -0.002411 0.705000 108 118 121
-0.121397 -0.002411 0.705000 114 122 123
-0.119568 -0.002411 0.705000 119 127 128
-0.117739 -0.002411 0.705000 125 131 131
-0.115910 -0.002411 0.705000 181 187 187
0.176989 -0.002414 0.706000 153 160 166
0.178567 -0.002411 0.705000 116 123 129
0.180396 -0.002411 0.705000 116 123 129
0.182225 -0.002411 0.705000 110 116 118
-0.130542 -0.000579 0.705000 165 171 171
-0.128713 -0.000579 0.705000 111 121 128
-0.126884 -0.000579 0.705000 98 108 115
-0.125055 -0.000579 0.705000 111 118 124
-0.123226 -0.000579 0.705000 117 124 130
-0.121397 -0.000579 0.705000 119 125 127
-0.119568 -0.000579 0.705000 134 140 142
-0.117739 -0.000579 0.705000 184 190 190
0.178821 -0.000580 0.706000 126 133 137
0.180652 -0.000580 0.706000 123 130 134
-0.134391 0.001254 0.706000 183 183 183
-0.132371 0.001252 0.705000 131 138 142
-0.130727 0.001254 0.706000 107 114 118
-0.128713 0.001252 0.705000 102 112 119
-0.126884 0.001252 0.705000 103 113 120
-0.125055 0.001252 0.705000 121 126 133
-0.123226 0.001252 0.705000 121 126 133
-0.121397 0.001252 0.705000 135 138 139
-0.119568 0.001252 0.705000 186 189 190
-0.136222 0.003088 0.706000 184 190 192
-0.134391 0.003088 0.706000 128 134 136
-0.132559 0.003088 0.706000 100 107 113
-0.130727 0.003088 0.706000 105 112 118
-0.128896 0.003088 0.706000 109 119 124
-0.127064 0.003088 0.706000 115 125 130
-0.125232 0.003088 0.706000 123 126 129
-0.123401 0.003088 0.706000 138 141 144
-0.121397 0.003084 0.705000 183 183 185
-0.138054 0.004922 0.706000 185 193 192
-0.136222 0.004922 0.706000 119 126 130
-0.134581 0.004929 0.707000 105 112 116
-0.132747 0.004929 0.707000 105 112 118
-0.130913 0.004929 0.707000 106 113 119
-0.129078 0.004929 0.707000 119 124 129
-0.127064 0.004922 0.706000 119 124 129
-0.125232 0.004922 0.706000 151 151 153
-0.123401 0.004922 0.706000 192 192 194
-0.140084 0.006766 0.707000 174 184 187
-0.138250 0.006766 0.707000 117 127 130
-0.136415 0.006766 0.707000 111 118 124
-0.134581 0.006766 0.707000 107 114 120
-0.132747 0.006766 0.707000 105 112 116
-0.130913 0.006766 0.707000 117 124 128
-0.129078 0.006766 0.707000 121 124 127
-0.127244 0.006766 0.707000 152 155 158
-0.125410 0.006766 0.707000 194 197 198
-0.142319 0.008627 0.709000 178 186 185
-0.140282 0.008615 0.708000 116 126 129
-0.138445 0.008615 0.708000 108 118 121
-0.136608 0.008615 0.708000 110 120 123
-0.134771 0.008615 0.708000 108 118 121
-0.132935 0.008615 0.708000 124 130 132
-0.131098 0.008615 0.708000 119 125 127
-0.129078 0.008603 0.707000 159 159 161
-0.127244 0.008603 0.707000 194 194 196
-0.144566 0.010498 0.711000 177 183 185
-0.142520 0.010484 0.710000 117 123 125
-0.140678 0.010484 0.710000 108 118 121
-0.138836 0.010484 0.710000 107 117 120
-0.136801 0.010469 0.709000 109 120 120
-0.134771 0.010454 0.708000 119 130 130
-0.132935 0.010454 0.708000 123 126 127
-0.131098 0.010454 0.708000 150 153 154
-0.129261 0.010454 0.708000 197 197 197
-0.146410 0.012345 0.711000 183 186 187
-0.144566 0.012345 0.711000 114 122 123
-0.142721 0.012345 0.711000 103 111 112
-0.140876 0.012345 0.711000 105 116 116
-0.138836 0.012328 0.710000 105 116 116
-0.136994 0.012328 0.710000 120 128 129
-0.134962 0.012311 0.709000 119 127 128
-0.133122 0.012311 0.709000 153 153 155
-0.131283 0.012311 0.709000 195 195 197
-0.148672 0.014232 0.713000 181 184 187
-0.146822 0.014232 0.713000 119 122 125
-0.144972 0.014232 0.713000 112 120 121
-0.143122 0.014232 0.713000 109 117 118
-0.141074 0.014212 0.712000 108 119 117
-0.139032 0.014192 0.711000 116 127 125
-0.137187 0.014192 0.711000 121 124 123
-0.135152 0.014172 0.710000 156 159 158
-0.133310 0.014172 0.710000 196 195 197
-0.150522 0.016085 0.713000 178 186 185
-0.148672 0.016085 0.713000 120 126 128
-0.146822 0.016085 0.713000 101 107 109
-0.144972 0.016085 0.713000 106 114 113
-0.141273 0.016085 0.713000 118 126 125
-0.139423 0.016085 0.713000 121 129 128
-0.137380 0.016062 0.712000 169 169 169
-0.152371 0.017937 0.713000 173 183 186
-0.150522 0.017937 0.713000 115 125 128
-0.148880 0.017962 0.714000 105 112 116
-0.147028 0.017962 0.714000 109 116 120
-0.145176 0.017962 0.714000 112 120 121
-0.143323 0.017962 0.714000 114 122 123
-0.141471 0.017962 0.714000 120 126 124
-0.139618 0.017962 0.714000 168 174 172
-0.154438 0.019817 0.714000 169 180 180
-0.152585 0.019817 0.714000 109 119 124
-0.150733 0.019817 0.714000 101 111 116
-0.148880 0.019817 0.714000 107 117 120
-0.147234 0.019845 0.715000 110 120 123
-0.145379 0.019845 0.715000 117 128 128
-0.143524 0.019845 0.715000 126 137 137
-0.141669 0.019845 0.715000 172 178 176
-0.156509 0.021702 0.715000 158 168 171
-0.154654 0.021702 0.715000 105 115 118
-0.152799 0.021702 0.715000 103 113 118
-0.150944 0.021702 0.715000 108 118 123
-0.149089 0.021702 0.715000 112 122 125
-0.147234 0.021702 0.715000 103 113 116
-0.145379 0.021702 0.715000 131 142 140
-0.143524 0.021702 0.715000 171 182 180
-0.158585 0.023592 0.716000 152 160 161
-0.156728 0.023592 0.716000 103 113 116
-0.154870 0.023592 0.716000 103 113 116
-0.153013 0.023592 0.716000 105 115 118
-0.151155 0.023592 0.716000 115 125 128
-0.149297 0.023592 0.716000 110 121 121
-0.147440 0.023592 0.716000 125 136 136
-0.145582 0.023592 0.716000 185 193 190
-0.160667 0.025488 0.717000 147 154 158
-0.158807 0.025488 0.717000 104 111 115
-0.156947 0.025488 0.717000 107 118 118
-0.155086 0.025488 0.717000 111 122 122
-0.153013 0.025452 0.716000 115 126 126
-0.151155 0.025452 0.716000 111 122 122
-0.149297 0.025452 0.716000 132 140 137
-0.147440 0.025452 0.716000 184 192 189
-0.162527 0.027351 0.717000 159 167 168
-0.160667 0.027351 0.717000 105 115 118
-0.158807 0.027351 0.717000 107 117 120
-0.156947 0.027351 0.717000 110 118 119
-0.155086 0.027351 0.717000 119 127 128
-0.153226 0.027351 0.717000 116 124 123
-0.151366 0.027351 0.717000 132 140 139
-0.149506 0.027351 0.717000 189 197 194
-0.164387 0.029213 0.717000 153 164 164
-0.162527 0.029213 0.717000 98 109 109
-0.160667 0.029213 0.717000 107 118 118
-0.158807 0.029213 0.717000 109 120 120
-0.156947 0.029213 0.717000 120 128 127
-0.155086 0.029213 0.717000 118 126 125
-0.153226 0.029213 0.717000 139 147 146
-0.151366 0.029213 0.717000 191 199 198
-0.166248 0.031076 0.717000 160 168 167
-0.164387 0.031076 0.717000 107 118 118
-0.162527 0.031076 0.717000 102 113 113
-0.160667 0.031076 0.717000 111 122 120
-0.158807 0.031076 0.717000 117 128 126
-0.156947 0.031076 0.717000 118 126 127
-0.155086 0.031076 0.717000 140 148 149
-0.153226 0.031076 0.717000 191 199 198
-0.168342 0.032985 0.718000 157 165 166
-0.166248 0.032939 0.717000 102 110 111
-0.164387 0.032939 0.717000 103 114 114
-0.162527 0.032939 0.717000 105 116 116
-0.160667 0.032939 0.717000 111 122 122
-0.158807 0.032939 0.717000 117 128 128
-0.156947 0.032939 0.717000 147 155 156
-0.155086 0.032939 0.717000 190 198 199
-0.170205 0.034850 0.718000 158 164 166
-0.168342 0.034850 0.718000 101 106 111
-0.166479 0.034850 0.718000 103 108 113
-0.164617 0.034850 0.718000 111 118 122
-0.162754 0.034850 0.718000 113 120 124
-0.160667 0.034801 0.717000 111 119 120
-0.158807 0.034801 0.717000 152 160 161
-0.156947 0.034801 0.717000 191 197 199
-0.172068 0.036715 0.718000 168 173 180
-0.170205 0.036715 0.718000 104 109 116
-0.168342 0.036715 0.718000 107 112 117
-0.166479 0.036715 0.718000 113 118 123
-0.164617 0.036715 0.718000 125 130 135
-0.162754 0.036715 0.718000 121 126 131
-0.160891 0.036715 0.718000 158 164 164
-0.159028 0.036715 0.718000 193 199 199
-0.174173 0.038634 0.719000 172 177 182
-0.172307 0.038634 0.719000 107 112 121
-0.170442 0.038634 0.719000 101 106 115
-0.168577 0.038634 0.719000 117 122 129
-0.166711 0.038634 0.719000 124 129 136
-0.164846 0.038634 0.719000 121 124 127
-0.162980 0.038634 0.719000 151 154 157
-0.161115 0.038634 0.719000 195 198 197
-0.176283 0.040558 0.720000 175 180 187
-0.174415 0.040558 0.720000 112 117 124
-0.172307 0.040502 0.719000 107 114 122
-0.170442 0.040502 0.719000 111 118 126
-0.168577 0.040502 0.719000 121 126 133
-0.166711 0.040502 0.719000 115 120 127
-0.164846 0.040502 0.719000 148 151 154
-0.162980 0.040502 0.719000 197 200 203
-0.178398 0.042487 0.721000 186 191 196
-0.176528 0.042487 0.721000 117 124 132
-0.174657 0.042487 0.721000 103 110 118
-0.172547 0.042429 0.720000 113 118 127
-0.170679 0.042429 0.720000 126 131 140
-0.168811 0.042429 0.720000 122 124 130
-0.167175 0.042487 0.721000 151 153 159
-0.165075 0.042429 0.720000 194 197 198
-0.180519 0.044422 0.722000 189 196 202
-0.178646 0.044422 0.722000 126 133 139
-0.176773 0.044422 0.722000 100 107 115
-0.174657 0.044361 0.721000 114 121 129
-0.172787 0.044361 0.721000 120 125 134
-0.170916 0.044361 0.721000 118 123 132
-0.169046 0.044361 0.721000 152 155 158
-0.167175 0.044361 0.721000 195 198 201
-0.182897 0.046426 0.724000 195 201 203
-0.181019 0.046426 0.724000 137 147 152
-0.179141 0.046426 0.724000 96 106 111
-0.177017 0.046362 0.723000 107 117 124
-0.175142 0.046362 0.723000 118 128 135
-0.173266 0.046362 0.723000 114 121 127
-0.171153 0.046298 0.722000 140 147 153
-0.169280 0.046298 0.722000 198 201 204
-0.182897 0.048307 0.724000 149 157 158
-0.181019 0.048307 0.724000 97 107 110
-0.179141 0.048307 0.724000 102 112 115
-0.177262 0.048307 0.724000 115 125 132
-0.175384 0.048307 0.724000 116 126 133
-0.173506 0.048307 0.724000 139 147 148
-0.171627 0.048307 0.724000 194 202 203
-0.185031 0.050257 0.725000 158 169 169
-0.183150 0.050257 0.725000 103 114 114
-0.181269 0.050257 0.725000 106 113 117
-0.179388 0.050257 0.725000 117 124 128
-0.177507 0.050257 0.725000 116 123 127
-0.175626 0.050257 0.725000 137 144 148
-0.173745 0.050257 0.725000 191 199 200
-0.187427 0.052284 0.727000 170 178 177
-0.185541 0.052284 0.727000 103 111 112
-0.183403 0.052212 0.726000 104 112 113
-0.181519 0.052212 0.726000 116 124 125
-0.179635 0.052212 0.726000 114 122 123
-0.177752 0.052212 0.726000 134 142 143
-0.175868 0.052212 0.726000 190 198 199
-0.189574 0.054247 0.728000 173 181 182
-0.187685 0.054247 0.728000 110 118 119
-0.185541 0.054173 0.727000 104 112 113
-0.183655 0.054173 0.727000 120 128 129
-0.181769 0.054173 0.727000 124 132 133
-0.179883 0.054173 0.727000 130 138 139
-0.177997 0.054173 0.727000 184 190 190
-0.191463 0.056138 0.728000 180 188 189
-0.189834 0.056216 0.729000 116 123 127
-0.187943 0.056216 0.729000 104 111 115
-0.186052 0.056216 0.729000 116 127 127
-0.183908 0.056138 0.728000 118 129 129
-0.182019 0.056138 0.728000 121 127 127
-0.180130 0.056138 0.728000 172 178 178
-0.177997 0.056061 0.727000 195 201 201
-0.193617 0.058109 0.729000 186 192 194
-0.191726 0.058109 0.729000 121 127 129
-0.189834 0.058109 0.729000 103 111 112
-0.187943 0.058109 0.729000 117 125 126
-0.186052 0.058109 0.729000 121 127 129
-0.184160 0.058109 0.729000 119 125 127
-0.182269 0.058109 0.729000 168 174 172
-0.180378 0.058109 0.729000 197 203 201
-0.195508 0.060003 0.729000 191 197 197
-0.193617 0.060003 0.729000 135 141 143
-0.191726 0.060003 0.729000 106 112 114
-0.190095 0.060086 0.730000 112 118 120
-0.188201 0.060086 0.730000 126 132 134
-0.186052 0.060003 0.729000 123 126 127
-0.184160 0.060003 0.729000 170 173 174
-0.182269 0.060003 0.729000 197 203 203
-0.197400 0.061897 0.729000 190 197 201
-0.195508 0.061897 0.729000 152 159 163
-0.193617 0.061897 0.729000 105 111 113
-0.190095 0.061982 0.730000 116 119 120
-0.188201 0.061982 0.730000 124 127 128
-0.186307 0.061982 0.730000 164 167 166
-0.184160 0.061897 0.729000 199 202 201
-0.197400 0.063791 0.729000 168 178 181
-0.195508 0.063791 0.729000 110 120 123
-0.193883 0.063878 0.730000 106 114 113
-0.191989 0.063878 0.730000 119 127 126
-0.190095 0.063878 0.730000 117 120 119
-0.188201 0.063878 0.730000 147 150 149
-0.186307 0.063878 0.730000 193 199 197
-0.199291 0.065685 0.729000 178 188 191
-0.197670 0.065775 0.730000 110 120 123
-0.195777 0.065775 0.730000 107 117 120
-0.193883 0.065775 0.730000 119 127 128
-0.191989 0.065775 0.730000 121 129 130
-0.190355 0.065865 0.731000 139 145 143
-0.188459 0.065865 0.731000 192 198 196
-0.201458 0.067671 0.730000 175 185 190
-0.199564 0.067671 0.730000 112 122 127
-0.197670 0.067671 0.730000 102 114 118
-0.196045 0.067764 0.731000 113 125 129
-0.194148 0.067764 0.731000 117 125 124
-0.192252 0.067764 0.731000 130 138 137
-0.190355 0.067764 0.731000 191 197 195
-0.203631 0.069663 0.731000 191 199 198
-0.201734 0.069663 0.731000 123 130 136
-0.199838 0.069663 0.731000 98 105 111
-0.197941 0.069663 0.731000 116 126 131
-0.196045 0.069663 0.731000 118 128 133
-0.194148 0.069663 0.731000 121 129 128
-0.192252 0.069663 0.731000 170 178 177
-0.203631 0.071562 0.731000 147 153 155
-0.201734 0.071562 0.731000 104 111 117
-0.199838 0.071562 0.731000 112 119 125
-0.197941 0.071562 0.731000 119 129 134
-0.196045 0.071562 0.731000 116 126 131
-0.194148 0.071562 0.731000 170 176 176
-0.192252 0.071562 0.731000 190 196 196
-0.205808 0.073561 0.732000 168 174 176
-0.203909 0.073561 0.732000 114 120 122
-0.202010 0.073561 0.732000 115 120 125
-0.200111 0.073561 0.732000 120 125 130
-0.198212 0.073561 0.732000 122 128 130
-0.196313 0.073561 0.732000 155 161 163
-0.194414 0.073561 0.732000 197 200 201
-0.207707 0.075463 0.732000 181 187 187
-0.205808 0.075463 0.732000 117 123 125
-0.204188 0.075566 0.733000 110 116 118
-0.202286 0.075566 0.733000 121 127 129
-0.200111 0.075463 0.732000 122 128 130
-0.198212 0.075463 0.732000 148 154 156
-0.196313 0.075463 0.732000 192 198 200
-0.207991 0.077470 0.733000 140 143 144
-0.206090 0.077470 0.733000 107 113 115
-0.204466 0.077576 0.734000 117 123 125
-0.202286 0.077470 0.733000 121 127 129
-0.200384 0.077470 0.733000 133 139 141
-0.198483 0.077470 0.733000 189 195 195
-0.210179 0.079483 0.734000 158 161 164
-0.208275 0.079483 0.734000 112 115 118
-0.206371 0.079483 0.734000 113 118 123
-0.204466 0.079483 0.734000 120 125 130
-0.202562 0.079483 0.734000 122 128 130
-0.200658 0.079483 0.734000 181 187 189
-0.212372 0.081500 0.735000 177 180 179
-0.210466 0.081500 0.735000 113 116 119
-0.208559 0.081500 0.735000 109 112 115
-0.206371 0.081390 0.734000 120 126 128
-0.204745 0.081500 0.735000 118 124 126
-0.202838 0.081500 0.735000 174 180 180
-0.214862 0.083637 0.737000 186 192 192
-0.212661 0.083523 0.736000 129 135 135
-0.210466 0.083410 0.735000 108 114 116
-0.208559 0.083410 0.735000 121 127 129
-0.206652 0.083410 0.735000 120 123 124
-0.204745 0.083410 0.735000 157 160 161
-0.202838 0.083410 0.735000 193 196 197
-0.214862 0.085551 0.737000 145 153 154
-0.212950 0.085551 0.737000 107 115 116
-0.211038 0.085551 0.737000 115 121 123
-0.208842 0.085435 0.736000 127 133 135
-0.206933 0.085435 0.736000 130 133 134
-0.204745 0.085319 0.735000 185 188 189
-0.217363 0.087703 0.739000 163 171 170
-0.215154 0.087585 0.738000 110 118 119
-0.212950 0.087466 0.737000 116 124 125
-0.211038 0.087466 0.737000 121 129 130
-0.208842 0.087347 0.736000 123 131 132
-0.206933 0.087347 0.736000 169 172 171
-0.219280 0.089623 0.739000 177 185 186
-0.217363 0.089623 0.739000 121 129 130
-0.215446 0.089623 0.739000 110 118 119
-0.213239 0.089502 0.738000 120 128 129
-0.211038 0.089381 0.737000 119 127 126
-0.209126 0.089381 0.737000 152 160 159
-0.207214 0.089381 0.737000 192 196 191
-0.221197 0.091543 0.739000 195 203 202
-0.219280 0.091543 0.739000 139 146 150
-0.217363 0.091543 0.739000 107 114 118
-0.215446 0.091543 0.739000 117 125 126
-0.213528 0.091543 0.739000 121 129 130
-0.211325 0.091419 0.738000 141 147 145
-0.209410 0.091419 0.738000 186 192 190
-0.221497 0.093589 0.740000 172 178 178
-0.219577 0.093589 0.740000 112 119 123
-0.217657 0.093589 0.740000 113 120 124
-0.215446 0.093463 0.739000 125 133 134
-0.213528 0.093463 0.739000 125 133 134
-0.211325 0.093336 0.738000 179 182 181
-0.223416 0.095512 0.740000 182 190 191
-0.221796 0.095641 0.741000 116 124 125
-0.219577 0.095512 0.740000 112 119 123
-0.217657 0.095512 0.740000 119 126 130
-0.215446 0.095383 0.739000 120 128 129
-0.213528 0.095383 0.739000 157 165 166
-0.211611 0.095383 0.739000 194 197 198
-0.225641 0.097566 0.741000 196 204 205
-0.223718 0.097566 0.741000 138 148 151
-0.221796 0.097566 0.741000 98 108 111
-0.219873 0.097566 0.741000 116 123 127
-0.217657 0.097434 0.740000 117 124 128
-0.215737 0.097434 0.740000 140 148 149
-0.213528 0.097302 0.739000 189 197 198
-0.227563 0.099491 0.741000 191 198 202
-0.225641 0.099491 0.741000 155 162 166
-0.223718 0.099491 0.741000 104 116 118
-0.222095 0.099625 0.742000 109 121 123
-0.219873 0.099491 0.741000 117 128 128
-0.217951 0.099491 0.741000 124 135 135
-0.215737 0.099356 0.740000 179 185 185
-0.227563 0.101416 0.741000 171 178 184
-0.225641 0.101416 0.741000 111 118 124
-0.223718 0.101416 0.741000 103 115 117
-0.221796 0.101416 0.741000 116 128 130
-0.220170 0.101553 0.742000 118 129 129
-0.217951 0.101416 0.741000 153 164 164
-0.229795 0.103480 0.742000 184 190 192
-0.227870 0.103480 0.742000 118 125 131
-0.225945 0.103480 0.742000 111 118 124
-0.224322 0.103620 0.743000 118 130 132
-0.222395 0.103620 0.743000 114 126 128
-0.220170 0.103480 0.742000 139 150 150
-0.217951 0.103341 0.741000 182 193 193
-0.232033 0.105550 0.743000 196 201 206
-0.230105 0.105550 0.743000 135 140 145
-0.228177 0.105550 0.743000 105 112 118
-0.226250 0.105550 0.743000 114 121 127
-0.224322 0.105550 0.743000 125 133 134
-0.222395 0.105550 0.743000 128 136 137
-0.220467 0.105550 0.743000 181 189 190
-0.232033 0.107480 0.743000 156 163 167
-0.230105 0.107480 0.743000 111 118 122
-0.228177 0.107480 0.743000 117 122 129
-0.226250 0.107480 0.743000 127 132 139
-0.224322 0.107480 0.743000 122 125 128
-0.222395 0.107480 0.743000 171 174 177
-0.234275 0.109557 0.744000 176 184 185
-0.232345 0.109557 0.744000 118 125 131
-0.230415 0.109557 0.744000 112 119 125
-0.228485 0.109557 0.744000 126 128 136
-0.226554 0.109557 0.744000 128 130 138
-0.224322 0.109410 0.743000 160 160 164
-0.236206 0.111490 0.744000 185 192 196
-0.234275 0.111490 0.744000 119 126 130
-0.232345 0.111490 0.744000 107 117 122
-0.230415 0.111490 0.744000 116 126 131
-0.228485 0.111490 0.744000 119 126 130
-0.226554 0.111490 0.744000 134 141 145
-0.224624 0.111490 0.744000 195 198 199
-0.238136 0.113423 0.744000 198 204 206
-0.236206 0.113423 0.744000 137 147 152
-0.234275 0.113423 0.744000 105 115 120
-0.232345 0.113423 0.744000 111 123 127
-0.230415 0.113423 0.744000 118 130 134
-0.228792 0.113575 0.745000 125 133 134
-0.226554 0.113423 0.744000 182 190 191
-0.240389 0.115511 0.745000 198 203 208
-0.238456 0.115511 0.745000 155 160 165
-0.236523 0.115511 0.745000 109 121 125
-0.234590 0.115511 0.745000 111 123 127
-0.232657 0.115511 0.745000 122 132 137
-0.230725 0.115511 0.745000 118 128 133
-0.228792 0.115511 0.745000 182 188 190
-0.240389 0.117446 0.745000 169 176 182
-0.238456 0.117446 0.745000 114 121 127
-0.236523 0.117446 0.745000 114 124 129
-0.234590 0.117446 0.745000 119 129 134
-0.232657 0.117446 0.745000 123 130 134
-0.230725 0.117446 0.745000 149 156 160
-0.228792 0.117446 0.745000 191 197 197
-0.242647 0.119542 0.746000 177 185 186
-0.240711 0.119542 0.746000 119 129 134
-0.238776 0.119542 0.746000 108 118 123
-0.236840 0.119542 0.746000 119 129 132
-0.234590 0.119382 0.745000 121 131 134
-0.232657 0.119382 0.745000 136 142 144
-0.230725 0.119382 0.745000 190 196 198
-0.244582 0.121480 0.746000 190 200 203
-0.242647 0.121480 0.746000 131 141 144
-0.240711 0.121480 0.746000 108 118 121
-0.238776 0.121480 0.746000 114 124 127
-0.236840 0.121480 0.746000 125 132 136
-0.234905 0.121480 0.746000 121 128 132
-0.232970 0.121480 0.746000 176 182 182
-0.246518 0.123418 0.746000 196 203 207
-0.244582 0.123418 0.746000 139 149 154
-0.242647 0.123418 0.746000 110 120 125
-0.240711 0.123418 0.746000 116 126 131
-0.238776 0.123418 0.746000 123 133 138
-0.236840 0.123418 0.746000 121 128 132
-0.234905 0.123418 0.746000 166 173 177
-0.246848 0.125524 0.747000 159 169 172
-0.244582 0.125356 0.746000 116 126 133
-0.242647 0.125356 0.746000 111 121 128
-0.240711 0.125356 0.746000 121 131 138
-0.238776 0.125356 0.746000 118 128 135
-0.236840 0.125356 0.746000 145 153 154
-0.234905 0.125356 0.746000 191 199 200
-0.248786 0.127464 0.747000 179 189 192
-0.246848 0.127464 0.747000 121 131 134
-0.244910 0.127464 0.747000 107 119 125
-0.242647 0.127294 0.746000 116 128 134
-0.240711 0.127294 0.746000 123 130 138
-0.238776 0.127294 0.746000 133 140 148
-0.236840 0.127294 0.746000 194 197 200
-0.251060 0.129578 0.748000 189 196 200
-0.249119 0.129578 0.748000 146 156 163
-0.246848 0.129405 0.747000 109 119 126
-0.244910 0.129405 0.747000 112 121 131
-0.242972 0.129405 0.747000 121 130 140
-0.241034 0.129405 0.747000 120 127 131
-0.238776 0.129232 0.746000 181 188 192
-0.251060 0.131521 0.748000 149 156 162
-0.249119 0.131521 0.748000 115 125 132
-0.247179 0.131521 0.748000 108 118 125
-0.244910 0.131345 0.747000 118 128 135
-0.242972 0.131345 0.747000 115 125 132
-0.241034 0.131345 0.747000 171 179 180
-0.239096 0.131345 0.747000 191 199 200
-0.253339 0.133643 0.749000 167 177 182
-0.251060 0.133464 0.748000 116 126 131
-0.249119 0.133464 0.748000 109 119 126
-0.247179 0.133464 0.748000 114 124 131
-0.245238 0.133464 0.748000 111 121 126
-0.243297 0.133464 0.748000 153 163 168
-0.241034 0.133286 0.747000 193 199 199
-0.255623 0.135770 0.750000 189 196 200
-0.253339 0.135589 0.749000 128 138 143
-0.251395 0.135589 0.749000 108 118 123
-0.249119 0.135408 0.748000 115 125 130
-0.247179 0.135408 0.748000 116 126 131
-0.245238 0.135408 0.748000 138 145 149
-0.243297 0.135408 0.748000 185 192 196
-0.255623 0.137718 0.750000 164 174 177
-0.253677 0.137718 0.750000 113 125 129
-0.251395 0.137534 0.749000 113 125 129
-0.249452 0.137534 0.749000 115 125 128
-0.247509 0.137534 0.749000 121 131 134
-0.245238 0.137351 0.748000 169 172 175
-0.258255 0.140039 0.752000 182 194 198
-0.256304 0.140039 0.752000 121 133 137
-0.254015 0.139853 0.751000 114 126 128
-0.251731 0.139666 0.750000 117 129 131
-0.249785 0.139666 0.750000 119 129 132
-0.247509 0.139480 0.749000 146 156 159
-0.245566 0.139480 0.749000 192 198 200
-0.258599 0.142181 0.753000 149 161 167
-0.256304 0.141992 0.752000 110 122 128
-0.254353 0.141992 0.752000 120 132 136
-0.252067 0.141804 0.751000 117 129 133
-0.250118 0.141804 0.751000 132 139 143
-0.247839 0.141615 0.750000 184 191 195
-0.260898 0.144329 0.754000 182 192 197
-0.258942 0.144329 0.754000 117 129 135
-0.256645 0.144137 0.753000 115 127 133
-0.254353 0.143946 0.752000 116 128 132
-0.252402 0.143946 0.752000 113 125 129
-0.250451 0.143946 0.752000 164 171 175
-0.261244 0.146482 0.755000 144 154 159
-0.259286 0.146482 0.755000 106 118 124
-0.256986 0.146288 0.754000 116 128 134
-0.254692 0.146094 0.753000 110 122 126
-0.252402 0.145900 0.752000 141 153 157
-0.250784 0.146094 0.753000 195 202 206
-0.263203 0.148443 0.755000 182 192 197
-0.261244 0.148443 0.755000 115 125 130
-0.259286 0.148443 0.755000 110 122 128
-0.257327 0.148443 0.755000 116 128 134
-0.255030 0.148246 0.754000 124 134 137
-0.253074 0.148246 0.754000 182 192 195
-0.263552 0.150604 0.756000 147 159 163
-0.261590 0.150604 0.756000 109 121 125
-0.259286 0.150404 0.755000 116 128 134
-0.257327 0.150404 0.755000 111 123 129
-0.255368 0.150404 0.755000 163 171 172
-0.265513 0.152567 0.756000 186 196 199
-0.263552 0.152567 0.756000 116 128 134
-0.261590 0.152567 0.756000 111 123 129
-0.259286 0.152366 0.755000 118 128 135
-0.257668 0.152567 0.756000 123 133 140
-0.255706 0.152567 0.756000 184 190 190
-0.265513 0.154531 0.756000 151 161 164
-0.263552 0.154531 0.756000 106 118 124
-0.261590 0.154531 0.756000 116 128 134
-0.259629 0.154531 0.756000 114 121 127
-0.257668 0.154531 0.756000 160 167 173
-0.265864 0.156702 0.757000 120 127 131
-0.263552 0.156495 0.756000 114 121 127
-0.261590 0.156495 0.756000 124 131 137
-0.259972 0.156702 0.757000 133 138 143
-0.258349 0.156909 0.758000 183 188 193
-0.265864 0.158669 0.757000 110 118 119
-0.263900 0.158669 0.757000 125 130 135
-0.261936 0.158669 0.757000 117 122 127
-0.260316 0.158879 0.758000 170 173 176
-0.268182 0.160848 0.758000 154 162 163
-0.266215 0.160848 0.758000 113 121 122
-0.264249 0.160848 0.758000 121 124 127
-0.262282 0.160848 0.758000 140 143 146
-0.266567 0.163032 0.759000 128 134 136
-0.264249 0.162817 0.758000 136 136 138
-0.262628 0.163032 0.759000 189 189 191
