ply
format ascii 1.0
element vertex 1908
property float x
property float y
property float z
property uchar red
property uchar green
property uchar blue
end_header
0.180473 0.219163 0.422968 129 135 137
0.178780 0.218399 0.422598 119 126 130
0.177121 0.218664 0.422253 123 130 134
0.175463 0.218929 0.421909 123 133 136
0.173804 0.219194 0.421564 131 141 144
0.172145 0.219459 0.421219 145 153 154
0.186806 0.219771 0.426036 128 134 136
0.185140 0.220037 0.425690 101 106 111
0.183473 0.220303 0.425344 96 101 106
0.181771 0.219541 0.424969 91 98 102
0.180074 0.218779 0.424596 95 102 106
0.178381 0.218015 0.424223 91 101 106
0.176722 0.218280 0.423879 89 99 104
0.175064 0.218545 0.423534 88 98 103
0.173381 0.217780 0.423164 89 99 104
0.171746 0.219075 0.422845 91 98 104
0.170087 0.219340 0.422500 99 106 112
0.168444 0.220636 0.422180 114 124 129
0.166796 0.221932 0.421859 133 143 148
0.191455 0.219612 0.428742 123 130 134
0.189786 0.219878 0.428395 103 110 114
0.188117 0.220145 0.428048 93 100 104
0.186448 0.220411 0.427702 92 99 103
0.184779 0.220678 0.427355 97 104 108
0.183072 0.219917 0.426977 98 105 109
0.181371 0.219156 0.426600 98 105 109
0.179674 0.218394 0.426224 100 107 111
0.178013 0.218659 0.425879 100 112 116
0.176323 0.217896 0.425504 102 114 118
0.174665 0.218161 0.425160 101 113 117
0.173006 0.218426 0.424815 94 106 110
0.171347 0.218691 0.424470 89 101 105
0.169688 0.218956 0.424126 93 105 109
0.168044 0.220251 0.423808 89 99 104
0.166395 0.221547 0.423489 90 100 105
0.164731 0.221813 0.423143 96 106 111
0.163075 0.223110 0.422823 129 139 144
0.196117 0.219449 0.431455 144 151 155
0.194446 0.219716 0.431108 108 118 121
0.192775 0.219983 0.430761 96 106 109
0.191103 0.220250 0.430414 92 99 103
0.189384 0.219492 0.430030 93 100 104
0.187716 0.219759 0.429684 97 104 108
0.186047 0.220025 0.429337 95 102 106
0.184378 0.220292 0.428990 98 105 109
0.182672 0.219532 0.428610 103 110 114
0.181005 0.219798 0.428264 111 116 121
0.179307 0.219037 0.427885 108 113 118
0.177613 0.218275 0.427507 101 111 114
0.175952 0.218540 0.427161 104 114 117
0.174290 0.218805 0.426816 110 120 123
0.172629 0.219071 0.426471 117 127 130
0.170967 0.219336 0.426126 112 122 125
0.169306 0.219601 0.425781 107 117 120
0.167645 0.219866 0.425436 101 111 114
0.165995 0.221162 0.425119 94 104 107
0.164331 0.221428 0.424774 93 103 108
0.162674 0.222724 0.424456 91 101 106
0.161008 0.222991 0.424109 114 124 129
0.159343 0.224289 0.423790 151 161 166
0.200730 0.218262 0.434135 162 168 170
0.199058 0.218529 0.433787 127 133 135
0.197387 0.218796 0.433440 99 104 109
0.195715 0.219063 0.433093 97 102 107
0.194044 0.219329 0.432746 96 104 105
0.192373 0.219596 0.432399 98 106 107
0.190701 0.219863 0.432051 98 106 107
0.189030 0.220130 0.431704 99 107 108
0.187314 0.219372 0.431319 103 111 112
0.185645 0.219639 0.430972 104 112 113
0.183976 0.219905 0.430626 113 116 119
0.182307 0.220172 0.430279 116 119 122
0.180604 0.219412 0.429896 119 122 125
0.178938 0.219678 0.429550 128 131 134
0.177242 0.218917 0.429169 129 135 137
0.175579 0.219183 0.428824 129 135 137
0.173891 0.218421 0.428444 126 134 135
0.172229 0.218686 0.428099 124 132 133
0.170568 0.218951 0.427754 119 127 128
0.168906 0.219217 0.427409 119 127 128
0.167245 0.219482 0.427064 119 124 129
0.165595 0.220777 0.426750 113 118 123
0.163931 0.221043 0.426404 105 112 116
0.162274 0.222339 0.426088 95 102 106
0.160607 0.222605 0.425742 91 101 104
0.158942 0.223902 0.425425 105 115 118
0.157273 0.224169 0.425078 137 147 150
0.203739 0.218361 0.436512 161 167 167
0.202065 0.218629 0.436165 134 140 140
0.200391 0.218896 0.435817 106 109 112
0.198717 0.219163 0.435469 98 101 104
0.197043 0.219430 0.435121 99 105 107
0.195369 0.219698 0.434774 100 106 108
0.193695 0.219965 0.434426 100 108 109
0.191971 0.219209 0.434036 104 112 113
0.190299 0.219476 0.433689 111 119 120
0.188628 0.219743 0.433342 113 121 122
0.186956 0.220010 0.432995 118 124 126
0.185244 0.219253 0.432608 115 121 123
0.183575 0.219519 0.432261 142 145 148
0.181906 0.219785 0.431914 164 167 170
0.180237 0.220052 0.431567 173 176 177
0.178537 0.219292 0.431183 176 179 180
0.176871 0.219558 0.430837 174 180 180
0.175204 0.219824 0.430491 175 181 181
0.173514 0.219063 0.430108 175 181 181
0.171851 0.219329 0.429763 175 181 181
0.170187 0.219595 0.429417 174 180 180
0.168523 0.219860 0.429071 172 178 178
0.166859 0.220126 0.428726 148 153 158
0.165206 0.221421 0.428414 119 124 129
0.163539 0.221687 0.428067 109 116 120
0.161873 0.221953 0.427721 114 121 125
0.160206 0.222219 0.427375 100 108 109
0.158540 0.222485 0.427029 93 101 102
0.156872 0.223782 0.426714 97 107 110
0.155203 0.224049 0.426367 133 143 146
0.206685 0.217439 0.438848 147 157 162
0.205011 0.217707 0.438500 115 125 130
0.203337 0.217974 0.438153 99 104 109
0.201663 0.218241 0.437805 96 101 106
0.199989 0.218508 0.437457 98 104 106
0.198315 0.218776 0.437109 99 105 107
0.196641 0.219043 0.436762 107 110 113
0.194967 0.219310 0.436414 110 113 116
0.193293 0.219577 0.436066 113 119 121
0.191619 0.219845 0.435718 115 121 123
0.189945 0.220112 0.435371 110 117 121
0.188226 0.219356 0.434980 112 119 123
0.186554 0.219623 0.434632 150 157 161
0.184883 0.219890 0.434285 171 178 182
0.183173 0.219133 0.433896 182 188 190
0.181505 0.219399 0.433549 177 183 185
0.168138 0.220503 0.430739 174 180 180
0.166471 0.220769 0.430393 171 176 181
0.164805 0.221035 0.430046 169 174 179
0.163138 0.221301 0.429700 129 135 137
0.161472 0.221567 0.429354 110 116 118
0.159806 0.221833 0.429008 119 127 128
0.158139 0.222099 0.428662 110 118 119
0.156473 0.222365 0.428315 88 99 99
0.154801 0.223663 0.428002 95 106 106
0.153132 0.223929 0.427655 133 143 146
0.209630 0.216517 0.441184 155 162 168
0.208031 0.217802 0.440888 121 128 134
0.206282 0.217052 0.440488 96 106 113
0.204678 0.218338 0.440192 93 103 110
0.203001 0.218605 0.439843 99 106 110
0.201325 0.218873 0.439495 102 109 113
0.199648 0.219141 0.439147 104 110 112
0.197972 0.219408 0.438798 110 116 118
0.196296 0.219676 0.438450 119 122 125
0.194564 0.218923 0.438054 114 117 120
0.192890 0.219190 0.437706 110 116 118
0.191216 0.219457 0.437359 122 128 130
0.189542 0.219725 0.437011 150 157 161
0.187824 0.218969 0.436617 173 180 184
0.162745 0.221944 0.431371 178 181 182
0.161076 0.222210 0.431024 143 146 147
0.159405 0.221448 0.430641 113 121 120
0.157738 0.221714 0.430294 116 124 123
0.156072 0.221980 0.429948 108 119 119
0.154400 0.223276 0.429637 96 107 107
0.152731 0.223543 0.429291 102 112 115
0.151062 0.223809 0.428944 129 139 142
0.212657 0.216611 0.443576 153 159 161
0.210981 0.216879 0.443227 108 114 116
0.209304 0.217147 0.442879 99 104 109
0.207628 0.217414 0.442531 94 99 104
0.205951 0.217682 0.442182 90 100 105
0.204275 0.217950 0.441834 94 104 109
0.202598 0.218217 0.441486 100 110 113
0.200922 0.218485 0.441138 103 113 116
0.199245 0.218753 0.440789 110 116 116
0.197569 0.219020 0.440441 107 113 113
0.195892 0.219288 0.440093 113 119 121
0.194216 0.219555 0.439745 131 137 139
0.192488 0.218803 0.439346 164 167 170
0.190814 0.219070 0.438999 181 184 187
0.160674 0.221824 0.432660 177 180 181
0.159006 0.222091 0.432313 144 147 146
0.157337 0.222357 0.431966 108 111 110
0.155668 0.222624 0.431619 109 120 120
0.153999 0.222890 0.431273 109 120 120
0.152330 0.223156 0.430926 95 107 109
0.150661 0.223423 0.430579 95 107 109
0.148992 0.223689 0.430233 132 145 144
0.215693 0.216702 0.445974 148 154 156
0.214014 0.216970 0.445625 113 119 121
0.212416 0.218254 0.445335 101 103 109
0.210735 0.218522 0.444986 105 107 113
0.208977 0.217775 0.444579 104 109 114
0.207298 0.218043 0.444230 104 109 114
0.205619 0.218311 0.443882 103 110 114
0.203940 0.218579 0.443533 107 114 118
0.202261 0.218847 0.443184 112 120 121
0.200582 0.219115 0.442835 110 118 119
0.198903 0.219383 0.442486 122 128 126
0.197166 0.218632 0.442084 141 147 145
0.195489 0.218900 0.441736 168 174 174
0.193813 0.219167 0.441387 181 187 187
0.158604 0.221704 0.433948 181 184 185
0.156935 0.221971 0.433601 148 151 152
0.155266 0.222237 0.433255 105 113 112
0.153597 0.222504 0.432908 109 117 116
0.151928 0.222770 0.432561 107 118 118
0.150259 0.223037 0.432215 94 105 105
0.148590 0.223303 0.431868 97 108 108
0.146922 0.223570 0.431521 139 150 150
0.218647 0.215778 0.448317 146 154 155
0.217056 0.217059 0.448031 111 119 120
0.215375 0.217327 0.447681 100 103 106
0.213693 0.217596 0.447332 101 104 107
0.212012 0.217864 0.446983 105 107 113
0.210330 0.218133 0.446634 106 108 114
0.208649 0.218401 0.446284 109 111 117
0.206967 0.218670 0.445935 110 112 118
0.205215 0.217922 0.445527 114 119 124
0.203536 0.218190 0.445178 119 124 129
0.201857 0.218458 0.444829 125 131 131
0.200178 0.218726 0.444480 151 157 157
0.198499 0.218994 0.444131 176 182 182
0.196820 0.219262 0.443783 178 184 184
0.156534 0.221584 0.435237 184 187 188
0.154865 0.221851 0.434890 156 164 165
0.153196 0.222117 0.434543 107 115 116
0.151527 0.222384 0.434197 107 118 118
0.149858 0.222650 0.433850 102 113 113
0.148189 0.222917 0.433503 95 106 106
0.146503 0.224213 0.433197 104 115 115
0.144831 0.224480 0.432850 143 154 154
0.221601 0.214853 0.450660 162 168 170
0.220015 0.216133 0.450377 132 138 140
0.218333 0.216401 0.450028 100 106 106
0.216739 0.217683 0.449743 98 104 104
0.215055 0.217952 0.449394 105 108 109
0.213371 0.218220 0.449044 105 108 109
0.211687 0.218489 0.448694 108 111 114
0.210003 0.218758 0.448344 114 117 120
0.208244 0.218012 0.447932 117 119 125
0.206563 0.218281 0.447582 115 117 123
0.204881 0.218549 0.447233 131 134 137
0.203133 0.217802 0.446823 169 172 175
0.201454 0.218070 0.446474 179 185 185
0.154458 0.222492 0.436571 178 185 189
0.152787 0.222759 0.436224 155 162 166
0.151126 0.221998 0.435832 103 113 116
0.149457 0.222264 0.435485 104 114 117
0.147772 0.223560 0.435182 105 115 118
0.146101 0.223827 0.434835 94 104 107
0.144429 0.224093 0.434488 103 113 116
0.142758 0.224360 0.434140 143 153 156
0.224456 0.212918 0.452932 174 180 182
0.222877 0.214196 0.452654 134 140 142
0.221198 0.214464 0.452305 106 112 114
0.219610 0.215744 0.452024 97 103 105
0.218018 0.217024 0.451743 101 107 109
0.216334 0.217293 0.451393 107 113 115
0.214650 0.217562 0.451044 106 112 114
0.212966 0.217831 0.450694 117 123 125
0.211282 0.218099 0.450344 113 116 119
0.209598 0.218368 0.449994 108 111 114
0.207840 0.217623 0.449579 124 127 130
0.206159 0.217891 0.449230 160 163 166
0.204477 0.218160 0.448881 177 180 181
0.152385 0.222372 0.437861 181 187 189
0.150713 0.222639 0.437514 144 151 155
0.149042 0.222906 0.437167 106 113 117
0.147370 0.223173 0.436820 112 122 125
0.145699 0.223440 0.436473 105 115 118
0.144027 0.223707 0.436125 92 104 106
0.142356 0.223973 0.435778 120 132 134
0.227406 0.211994 0.455271 175 181 183
0.225729 0.212262 0.454923 140 146 148
0.224152 0.213539 0.454647 111 116 121
0.222473 0.213807 0.454299 98 103 108
0.220888 0.215086 0.454021 100 106 108
0.219206 0.215355 0.453672 103 109 111
0.217613 0.216634 0.453393 102 110 111
0.215929 0.216903 0.453043 118 126 127
0.214329 0.218184 0.452763 112 120 121
0.212561 0.217441 0.452344 111 119 120
0.210877 0.217710 0.451994 126 132 134
0.209193 0.217979 0.451644 161 167 169
0.207436 0.217234 0.451227 185 191 191
0.150300 0.223280 0.439202 180 188 189
0.148640 0.222519 0.438805 138 146 147
0.146968 0.222786 0.438458 113 120 124
0.145297 0.223053 0.438110 117 124 128
0.143625 0.223320 0.437763 101 113 117
0.141954 0.223587 0.437416 97 109 113
0.140256 0.224883 0.437115 127 139 143
0.228785 0.212347 0.457339 146 152 154
0.227106 0.212615 0.456990 109 111 117
0.225427 0.212883 0.456641 99 101 107
0.223748 0.213151 0.456293 101 103 109
0.222165 0.214428 0.456018 108 110 116
0.220483 0.214697 0.455669 106 111 116
0.218892 0.215976 0.455393 113 118 123
0.217208 0.216244 0.455043 112 120 121
0.215610 0.217524 0.454766 114 122 123
0.213924 0.217794 0.454415 139 147 148
0.212156 0.217051 0.453994 162 170 171
0.210472 0.217320 0.453644 179 185 187
0.148223 0.223159 0.440494 178 184 186
0.146549 0.223427 0.440146 135 142 146
0.144895 0.222666 0.439748 114 121 125
0.143223 0.222933 0.439401 111 123 127
0.139853 0.224496 0.438755 97 109 113
0.138179 0.224763 0.438408 132 144 148
0.231849 0.212428 0.459762 164 170 170
0.230168 0.212697 0.459412 118 124 126
0.228486 0.212965 0.459063 101 107 109
0.226805 0.213234 0.458714 103 108 113
0.225123 0.213502 0.458364 108 113 118
0.223442 0.213771 0.458015 114 116 122
0.221760 0.214039 0.457666 115 117 123
0.220171 0.215317 0.457393 117 120 123
0.218487 0.215586 0.457043 123 126 129
0.216803 0.215855 0.456693 143 149 151
0.215205 0.217134 0.456418 161 167 169
0.213435 0.216392 0.455994 178 184 186
0.146147 0.223039 0.441786 169 176 180
0.144473 0.223306 0.441439 121 128 132
0.142799 0.223574 0.441091 109 119 122
0.141125 0.223841 0.440743 111 121 124
0.139451 0.224108 0.440395 101 113 115
0.137777 0.224376 0.440048 109 121 123
0.136070 0.225672 0.439750 147 157 162
0.235037 0.213513 0.462275 176 182 182
0.233238 0.212776 0.461842 148 154 156
0.231554 0.213045 0.461492 103 109 111
0.229870 0.213314 0.461142 107 112 117
0.228186 0.213583 0.460792 105 110 115
0.226400 0.212845 0.460361 109 112 115
0.224719 0.213113 0.460012 117 120 123
0.223037 0.213382 0.459663 119 122 125
0.221356 0.213650 0.459313 109 112 115
0.219766 0.214927 0.459043 120 123 126
0.218082 0.215196 0.458693 153 156 159
0.216398 0.215465 0.458343 173 176 179
0.144049 0.223946 0.443134 162 167 172
0.142396 0.223186 0.442731 113 120 124
0.140722 0.223454 0.442383 112 119 123
0.139048 0.223721 0.442036 109 119 122
0.137374 0.223988 0.441688 97 107 110
0.135667 0.225284 0.441393 122 132 135
0.236551 0.214861 0.464451 159 166 170
0.234745 0.214127 0.464013 113 120 124
0.232945 0.213391 0.463577 103 108 113
0.231258 0.213661 0.463227 105 110 115
0.229465 0.212924 0.462792 108 113 120
0.227781 0.213193 0.462442 111 116 123
0.226097 0.213462 0.462092 121 123 129
0.224314 0.212724 0.461660 114 116 122
0.222633 0.212992 0.461310 115 118 119
0.221045 0.214269 0.461043 153 156 157
0.219361 0.214537 0.460693 172 175 178
0.141993 0.222799 0.444371 143 145 151
0.140320 0.223066 0.444024 113 115 121
0.138646 0.223333 0.443676 114 121 125
0.136940 0.224628 0.443384 104 111 115
0.135264 0.224896 0.443036 98 109 109
0.133587 0.225164 0.442687 135 146 146
0.239527 0.213930 0.466811 169 176 180
0.237836 0.214200 0.466460 139 146 150
0.236144 0.214470 0.466108 102 109 115
0.234339 0.213736 0.465668 99 106 112
0.232650 0.214005 0.465318 107 114 120
0.230853 0.213270 0.464879 109 116 122
0.229166 0.213540 0.464529 110 117 123
0.227376 0.212803 0.464092 112 119 125
0.225793 0.214078 0.463828 125 130 135
0.224008 0.213341 0.463392 143 148 153
0.222324 0.213610 0.463043 176 179 182
0.141566 0.223437 0.446071 177 183 185
0.139890 0.223705 0.445723 133 139 141
0.138213 0.223973 0.445375 104 109 114
0.136537 0.224240 0.445027 114 119 124
0.134860 0.224508 0.444678 105 116 116
0.133147 0.225804 0.444387 104 115 115
0.131468 0.226072 0.444038 142 153 153
0.242503 0.212998 0.469171 185 190 195
0.240812 0.213268 0.468820 149 154 159
0.239241 0.214540 0.468561 107 117 124
0.237547 0.214811 0.468209 96 106 113
0.235853 0.215081 0.467857 102 112 117
0.234046 0.214348 0.467414 102 112 117
0.232244 0.213614 0.466973 109 116 124
0.230555 0.213884 0.466622 119 126 134
0.228866 0.214154 0.466271 127 134 140
0.227074 0.213418 0.465831 139 146 152
0.225488 0.214693 0.465569 171 178 182
0.223701 0.213957 0.465130 177 184 188
0.139487 0.223317 0.447366 175 181 183
0.137810 0.223585 0.447017 118 123 128
0.136134 0.223852 0.446669 112 117 122
0.134457 0.224120 0.446321 111 121 124
0.132743 0.225415 0.446032 100 110 113
0.131064 0.225683 0.445684 110 122 124
0.129342 0.226980 0.445393 152 164 166
0.243788 0.212336 0.471180 169 174 179
0.242221 0.213607 0.470925 128 138 143
0.240527 0.213878 0.470573 102 112 117
0.238833 0.214148 0.470221 102 112 117
0.237139 0.214419 0.469869 98 108 113
0.235445 0.214689 0.469517 105 115 120
0.233639 0.213957 0.469072 115 125 130
0.231947 0.214227 0.468720 112 119 125
0.230256 0.214497 0.468369 132 139 145
0.228564 0.214767 0.468018 161 166 171
0.226771 0.214033 0.467575 178 183 188
0.137376 0.224222 0.448724 163 168 173
0.135697 0.224490 0.448375 114 119 124
0.134018 0.224759 0.448026 110 120 123
0.132339 0.225027 0.447677 108 118 121
0.130619 0.226322 0.447390 100 112 114
0.128938 0.226590 0.447041 121 133 135
0.245202 0.212674 0.473288 146 153 159
0.243508 0.212945 0.472937 118 125 131
0.241814 0.213215 0.472585 98 108 113
0.240120 0.213486 0.472233 105 115 120
0.238426 0.213756 0.471881 107 117 122
0.236732 0.214027 0.471529 116 126 131
0.235038 0.214297 0.471177 117 124 130
0.233344 0.214567 0.470825 114 121 127
0.231541 0.213835 0.470378 143 148 153
0.229849 0.214105 0.470026 169 174 179
0.135293 0.224102 0.450020 148 155 159
0.133614 0.224370 0.449671 108 118 121
0.131896 0.225664 0.449387 112 122 125
0.130215 0.225933 0.449038 104 114 117
0.128533 0.226201 0.448689 101 111 114
0.126805 0.227497 0.448402 144 154 157
0.248183 0.211741 0.475652 170 175 180
0.246620 0.213010 0.475403 124 129 134
0.244923 0.213281 0.475050 101 111 116
0.243227 0.213552 0.474698 100 110 115
0.241530 0.213823 0.474345 103 113 118
0.239713 0.213093 0.473893 111 121 126
0.238018 0.213364 0.473541 118 125 131
0.236324 0.213634 0.473189 112 119 125
0.234630 0.213905 0.472837 121 126 131
0.232825 0.213174 0.472387 162 167 172
0.231134 0.213444 0.472035 181 187 189
0.134855 0.224738 0.451733 174 182 183
0.133173 0.225007 0.451384 128 135 139
0.131492 0.225275 0.451035 110 117 121
0.129810 0.225543 0.450685 116 123 129
0.128129 0.225812 0.450336 100 107 113
0.126400 0.227107 0.450052 115 125 130
0.124667 0.228403 0.449767 148 158 163
0.249605 0.212076 0.477770 154 160 162
0.247908 0.212346 0.477417 114 121 127
0.246212 0.212617 0.477065 102 109 115
0.244515 0.212888 0.476713 105 115 120
0.242819 0.213159 0.476360 109 119 124
0.241122 0.213430 0.476008 114 124 127
0.239426 0.213701 0.475655 115 125 128
0.237729 0.213972 0.475303 113 118 123
0.235917 0.213242 0.474849 141 146 151
0.234223 0.213513 0.474497 172 178 180
0.132731 0.225642 0.453102 164 171 175
0.131047 0.225911 0.452752 111 118 122
0.129363 0.226180 0.452402 113 120 126
0.127679 0.226449 0.452052 111 118 124
0.125995 0.226718 0.451702 100 110 115
0.124261 0.228013 0.451420 122 132 137
0.252590 0.211141 0.480137 177 183 183
0.251031 0.212408 0.479894 132 139 143
0.249332 0.212679 0.479541 110 117 121
0.247633 0.212951 0.479188 103 110 116
0.245934 0.213222 0.478835 109 116 122
0.244107 0.212496 0.478375 108 118 123
0.242411 0.212766 0.478022 114 124 129
0.240714 0.213037 0.477670 111 121 124
0.239018 0.213308 0.477318 109 119 122
0.237321 0.213579 0.476965 153 161 162
0.235510 0.212850 0.476508 175 183 184
0.130602 0.226546 0.454474 142 149 153
0.128958 0.225790 0.454052 105 112 118
0.127274 0.226059 0.453702 119 126 132
0.125542 0.227353 0.453423 104 114 119
0.123805 0.228649 0.453142 102 112 117
0.122116 0.228919 0.452791 141 153 157
0.254020 0.211472 0.482264 166 174 175
0.252321 0.211744 0.481911 120 128 129
0.250622 0.212015 0.481558 102 109 113
0.248923 0.212286 0.481205 107 114 118
0.247224 0.212557 0.480852 108 118 121
0.245525 0.212829 0.480500 109 119 122
0.243826 0.213100 0.480147 109 119 122
0.242127 0.213371 0.479794 108 118 121
0.240306 0.212645 0.479332 137 148 148
0.238609 0.212915 0.478980 162 173 173
0.130155 0.227179 0.456201 177 185 186
0.128509 0.226425 0.455776 134 141 147
0.126823 0.226694 0.455426 117 124 130
0.125136 0.226963 0.455075 115 125 132
0.123398 0.228258 0.454797 104 114 121
0.121656 0.229554 0.454518 109 121 125
0.119964 0.229824 0.454167 147 159 163
0.257010 0.210537 0.484635 175 182 186
0.255311 0.210808 0.484282 138 145 149
0.253612 0.211079 0.483929 104 112 113
0.252051 0.212345 0.483691 105 113 114
0.250214 0.211622 0.483223 107 115 116
0.248514 0.211893 0.482870 114 122 123
0.246815 0.212164 0.482517 114 121 125
0.245116 0.212435 0.482164 111 118 122
0.243417 0.212707 0.481811 126 137 137
0.241718 0.212978 0.481458 168 179 179
0.128059 0.227058 0.457505 163 168 175
0.126370 0.227328 0.457154 118 123 130
0.124681 0.227597 0.456803 118 125 131
0.122940 0.228892 0.456527 112 119 125
0.121249 0.229162 0.456176 97 107 114
0.119557 0.229432 0.455824 123 133 140
0.258300 0.209872 0.486653 162 167 172
0.256747 0.211136 0.486418 117 122 127
0.255045 0.211408 0.486065 103 108 113
0.253344 0.211679 0.485711 106 112 112
0.251642 0.211951 0.485358 112 118 118
0.249940 0.212223 0.485004 114 120 120
0.248239 0.212494 0.484651 119 125 125
0.246537 0.212766 0.484297 125 131 133
0.244708 0.212042 0.483829 153 159 161
0.243009 0.212313 0.483476 184 192 193
0.125916 0.227960 0.458887 154 161 167
0.124225 0.228230 0.458536 112 119 125
0.122533 0.228500 0.458184 119 126 132
0.120787 0.229795 0.457910 101 111 116
0.119093 0.230066 0.457558 95 105 110
0.117338 0.231362 0.457282 135 145 150
0.259741 0.210199 0.488792 138 143 148
0.258039 0.210470 0.488439 108 113 118
0.256337 0.210742 0.488085 106 112 114
0.254636 0.211014 0.487732 111 117 119
0.252934 0.211286 0.487379 110 116 116
0.251233 0.211557 0.487025 119 125 125
0.249531 0.211829 0.486672 124 127 126
0.247830 0.212101 0.486318 128 131 130
0.246128 0.212372 0.485965 176 182 182
0.125510 0.227569 0.460545 171 178 182
0.123818 0.227839 0.460193 135 142 148
0.122073 0.229133 0.459921 116 123 129
0.120379 0.229403 0.459570 117 124 130
0.118685 0.229674 0.459218 96 103 109
0.116930 0.230969 0.458944 116 126 133
0.115234 0.231240 0.458591 162 172 179
0.262735 0.209262 0.491167 162 167 172
0.261033 0.209533 0.490813 119 124 129
0.259331 0.209805 0.490460 107 112 117
0.257630 0.210077 0.490106 108 113 118
0.255928 0.210348 0.489753 113 119 121
0.254227 0.210620 0.489399 118 124 126
0.252525 0.210892 0.489046 115 121 121
0.250824 0.211163 0.488692 127 133 133
0.249122 0.211435 0.488339 147 153 151
0.247420 0.211707 0.487985 177 183 181
0.123360 0.228470 0.461933 165 170 175
0.121666 0.228741 0.461581 120 125 130
0.119972 0.229011 0.461229 120 125 132
0.118219 0.230306 0.460959 113 118 125
0.116522 0.230577 0.460606 96 106 113
0.114826 0.230847 0.460254 138 148 155
0.263871 0.207607 0.493059 149 156 160
0.262325 0.208868 0.492834 112 117 122
0.260624 0.209139 0.492480 110 115 120
0.258922 0.209411 0.492127 107 113 115
0.257221 0.209683 0.491773 111 117 119
0.255519 0.209955 0.491420 117 123 123
0.253817 0.210226 0.491066 114 120 120
0.252255 0.211490 0.490838 126 132 130
0.250414 0.210769 0.490360 162 168 166
0.121204 0.229371 0.463326 151 156 161
0.119508 0.229642 0.462973 119 124 131
0.117811 0.229913 0.462621 124 129 136
0.116114 0.230184 0.462269 102 112 119
0.114418 0.230455 0.461916 104 114 121
0.112654 0.231750 0.461646 150 160 167
0.267021 0.207659 0.495562 169 175 177
0.265319 0.207931 0.495208 124 134 141
0.263618 0.208202 0.494855 104 114 121
0.261916 0.208474 0.494501 98 108 113
0.260215 0.208746 0.494148 104 114 119
0.258513 0.209017 0.493794 111 118 122
0.256811 0.209289 0.493441 116 123 127
0.255253 0.210551 0.493215 117 123 123
0.253549 0.210823 0.492861 128 134 134
0.251845 0.211095 0.492507 183 189 187
0.120796 0.228979 0.464988 182 189 193
0.119100 0.229249 0.464636 134 139 146
0.117403 0.229520 0.464283 119 124 131
0.115706 0.229791 0.463931 115 125 130
0.114010 0.230062 0.463578 105 115 120
0.112246 0.231357 0.463310 121 131 138
0.268313 0.206993 0.497582 163 170 174
0.266612 0.207265 0.497229 123 130 134
0.264910 0.207537 0.496875 100 110 117
0.263208 0.207808 0.496522 104 114 121
0.261507 0.208080 0.496168 107 117 122
0.259805 0.208352 0.495815 111 121 126
0.258104 0.208623 0.495461 115 121 123
0.256547 0.209885 0.495239 121 127 129
0.254843 0.210157 0.494885 149 155 153
0.253139 0.210429 0.494531 182 188 186
0.118633 0.229879 0.466387 165 170 177
0.116934 0.230150 0.466034 122 127 134
0.115298 0.229398 0.465593 125 132 138
0.113536 0.230692 0.465328 104 111 117
0.111837 0.230964 0.464975 97 107 114
0.110138 0.231235 0.464622 151 161 168
0.269605 0.206328 0.499603 151 157 159
0.267904 0.206600 0.499250 118 125 129
0.266202 0.206871 0.498896 111 118 122
0.264501 0.207143 0.498543 105 115 120
0.262799 0.207415 0.498189 107 117 122
0.261098 0.207686 0.497836 117 124 128
0.259396 0.207958 0.497482 114 121 125
0.257694 0.208230 0.497129 133 139 139
0.256137 0.209490 0.496909 163 169 169
0.254433 0.209762 0.496555 186 192 190
0.116526 0.229757 0.467699 138 143 148
0.114827 0.230028 0.467346 117 122 129
0.113128 0.230299 0.466993 117 122 129
0.111428 0.230570 0.466640 100 110 115
0.109729 0.230842 0.466287 115 125 130
0.270898 0.205662 0.501624 141 146 151
0.269196 0.205934 0.501270 111 116 121
0.267495 0.206206 0.500917 112 118 120
0.265793 0.206477 0.500563 110 116 118
0.264092 0.206749 0.500210 112 120 121
0.262390 0.207021 0.499856 114 122 123
0.260688 0.207292 0.499503 124 130 132
0.259136 0.208552 0.499287 136 142 144
0.257432 0.208824 0.498933 177 183 183
0.116055 0.230384 0.469457 183 185 191
0.114418 0.229635 0.469011 118 123 130
0.112719 0.229906 0.468658 119 124 131
0.111020 0.230177 0.468305 113 120 128
0.109321 0.230448 0.467952 99 106 114
0.107547 0.231743 0.467690 153 163 168
0.272190 0.204997 0.503644 140 147 151
0.270489 0.205269 0.503291 105 110 115
0.268787 0.205540 0.502937 110 115 120
0.267085 0.205812 0.502584 113 119 119
0.265384 0.206084 0.502231 117 123 123
0.263682 0.206355 0.501877 112 118 120
0.262134 0.207613 0.501664 112 118 120
0.260430 0.207885 0.501310 153 159 161
0.258726 0.208157 0.500956 167 173 175
0.113944 0.230262 0.470771 143 148 155
0.112243 0.230534 0.470417 115 120 127
0.110541 0.230806 0.470064 119 126 132
0.108840 0.231077 0.469710 105 112 118
0.107138 0.231349 0.469357 115 125 130
0.105436 0.231621 0.469003 169 179 184
0.275184 0.204060 0.506019 184 190 190
0.273482 0.204331 0.505665 134 141 145
0.271781 0.204603 0.505312 103 110 114
0.270079 0.204875 0.504958 111 119 120
0.268378 0.205146 0.504605 111 119 120
0.266676 0.205418 0.504251 119 127 126
0.264975 0.205690 0.503898 111 119 118
0.263428 0.206947 0.503688 124 130 132
0.261724 0.207219 0.503334 156 162 164
0.260020 0.207491 0.502980 178 183 188
0.113535 0.229868 0.472438 178 185 189
0.111834 0.230140 0.472085 121 128 132
0.110132 0.230412 0.471731 119 126 132
0.108430 0.230683 0.471378 118 125 131
0.106729 0.230955 0.471024 102 112 117
0.105027 0.231227 0.470671 144 154 159
0.276651 0.204376 0.508190 177 185 186
0.274947 0.204648 0.507836 125 133 134
0.273073 0.203937 0.507332 98 105 109
0.271539 0.205192 0.507128 110 117 121
0.269670 0.204481 0.506625 114 122 123
0.267969 0.204753 0.506272 123 131 132
0.266427 0.206008 0.506066 115 126 124
0.264723 0.206280 0.505712 123 134 132
0.263018 0.206552 0.505358 171 178 182
0.111424 0.229746 0.473752 162 169 173
0.109723 0.230018 0.473398 118 125 131
0.108021 0.230290 0.473045 119 126 132
0.106320 0.230561 0.472691 108 118 123
0.104618 0.230833 0.472338 115 125 130
0.102916 0.231105 0.471984 162 173 173
0.277945 0.203709 0.510213 175 181 181
0.276241 0.203981 0.509859 114 124 127
0.274537 0.204253 0.509505 97 107 110
0.272833 0.204525 0.509151 107 117 120
0.271129 0.204797 0.508797 112 122 125
0.269425 0.205069 0.508443 118 129 127
0.267721 0.205341 0.508089 115 126 124
0.266017 0.205614 0.507735 146 157 155
0.264313 0.205886 0.507381 178 189 187
0.110946 0.230372 0.475521 187 194 198
0.109242 0.230644 0.475167 128 135 141
0.107538 0.230916 0.474813 113 120 126
0.105834 0.231188 0.474459 114 124 129
0.104129 0.231460 0.474105 100 110 115
0.102425 0.231732 0.473751 130 143 142
0.279418 0.204022 0.512393 166 174 175
0.277712 0.204294 0.512039 116 124 125
0.276005 0.204567 0.511684 97 108 108
0.274298 0.204839 0.511330 107 118 118
0.272592 0.205112 0.510975 110 121 121
0.270719 0.204403 0.510467 115 126 126
0.269015 0.204675 0.510113 121 132 132
0.267311 0.204947 0.509759 152 163 163
0.265765 0.206202 0.509557 180 191 191
0.108759 0.231269 0.476941 167 174 180
0.107053 0.231542 0.476587 110 117 123
0.105346 0.231814 0.476232 117 124 130
0.103720 0.231066 0.475775 102 109 115
0.102016 0.231338 0.475421 105 116 116
0.100226 0.232632 0.475169 166 177 177
0.282787 0.205038 0.515094 192 198 200
0.281075 0.205311 0.514739 147 153 155
0.279364 0.205584 0.514383 112 118 120
0.277477 0.204879 0.513869 105 111 113
0.275767 0.205151 0.513514 110 121 119
0.274058 0.205424 0.513159 110 121 119
0.272181 0.204717 0.512647 114 125 123
0.270475 0.204989 0.512293 121 132 130
0.268768 0.205262 0.511938 167 178 178
0.108349 0.230874 0.478613 188 195 201
0.106642 0.231147 0.478259 133 140 146
0.104936 0.231419 0.477904 109 119 124
0.103229 0.231692 0.477550 108 118 123
0.101523 0.231964 0.477195 96 107 107
0.099816 0.232237 0.476841 130 141 141
0.284087 0.204368 0.517127 189 197 198
0.282557 0.205619 0.516934 133 138 143
0.280843 0.205893 0.516577 106 111 116
0.279129 0.206167 0.516221 106 114 115
0.277240 0.205462 0.515705 111 119 120
0.275529 0.205735 0.515349 118 129 129
0.273817 0.206008 0.514993 117 128 128
0.271938 0.205302 0.514479 139 150 148
0.270229 0.205574 0.514124 172 183 181
0.106156 0.231770 0.480039 167 174 180
0.104447 0.232043 0.479684 109 119 122
0.102819 0.231297 0.479222 116 126 129
0.101112 0.231569 0.478867 105 116 116
0.099406 0.231842 0.478513 105 116 116
0.097610 0.233135 0.478264 166 174 175
0.285573 0.204675 0.519325 174 184 189
0.283859 0.204949 0.518969 126 136 141
0.282327 0.206199 0.518778 104 111 115
0.280610 0.206473 0.518421 111 118 122
0.278894 0.206747 0.518064 112 119 123
0.277003 0.206043 0.517545 117 124 128
0.275289 0.206317 0.517189 116 127 127
0.273575 0.206591 0.516833 144 155 155
0.271694 0.205885 0.516315 182 190 191
0.105668 0.232393 0.481825 190 198 199
0.103956 0.232666 0.481470 117 127 132
0.102327 0.231920 0.481004 116 126 131
0.100617 0.232193 0.480649 111 121 124
0.098908 0.232466 0.480294 98 108 111
0.097199 0.232739 0.479939 132 140 141
0.286875 0.204005 0.521361 175 183 184
0.285347 0.205254 0.521173 110 122 128
0.283814 0.206504 0.520984 100 112 118
0.282095 0.206778 0.520627 111 121 126
0.280376 0.207053 0.520270 114 124 129
0.278657 0.207327 0.519913 116 124 125
0.276764 0.206624 0.519390 119 127 128
0.275048 0.206898 0.519033 159 167 166
0.273162 0.206194 0.518512 182 190 189
0.103465 0.233288 0.483260 156 163 167
0.101833 0.232543 0.482791 107 114 118
0.100122 0.232816 0.482435 118 128 133
0.098410 0.233090 0.482080 103 113 118
0.096698 0.233363 0.481724 104 114 117
0.094894 0.234656 0.481479 162 172 175
0.288177 0.203334 0.523396 162 172 175
0.286651 0.204582 0.523212 109 119 122
0.285120 0.205831 0.523026 97 107 112
0.283401 0.206106 0.522668 110 120 125
0.280141 0.207631 0.522123 116 126 129
0.278244 0.206929 0.521597 119 125 125
0.276524 0.207204 0.521240 160 166 166
0.274805 0.207478 0.520883 184 190 190
0.102972 0.233908 0.485055 190 197 201
0.101338 0.233165 0.484583 123 130 134
0.099624 0.233438 0.484227 116 126 131
0.097910 0.233712 0.483871 116 126 131
0.096196 0.233986 0.483515 96 108 112
0.094389 0.235279 0.483271 137 149 153
0.289672 0.203637 0.525607 157 164 168
0.286426 0.205159 0.525067 99 106 110
0.283170 0.206682 0.524526 115 125 128
0.281448 0.206957 0.524168 119 126 130
0.279727 0.207232 0.523810 124 131 135
0.278005 0.207507 0.523453 164 170 170
0.276111 0.206806 0.522924 185 191 191
0.100759 0.234802 0.486497 163 170 174
0.099126 0.234059 0.486023 107 119 123
0.097409 0.234333 0.485667 116 128 132
0.095693 0.234607 0.485310 96 108 114
0.093883 0.235900 0.485069 108 120 126
0.092163 0.236175 0.484712 156 169 168
0.289451 0.204212 0.527466 103 110 116
0.287731 0.204486 0.527109 109 116 120
0.286199 0.205734 0.526928 112 119 123
0.284478 0.206009 0.526570 120 125 130
0.282756 0.206284 0.526212 120 125 130
0.281034 0.206559 0.525855 131 137 139
0.279313 0.206834 0.525497 181 187 189
0.277591 0.207109 0.525140 186 192 192
0.100261 0.235421 0.488302 188 195 199
0.098626 0.234679 0.487825 128 140 144
0.096907 0.234953 0.487467 114 126 130
0.095188 0.235228 0.487110 106 119 128
0.093469 0.235502 0.486753 93 106 115
0.091653 0.236795 0.486513 129 141 145
0.292475 0.203265 0.529865 134 142 141
0.290756 0.203540 0.529507 105 112 116
0.289037 0.203814 0.529150 109 116 120
0.287507 0.205061 0.528972 112 119 123
0.285785 0.205336 0.528615 117 124 128
0.284063 0.205611 0.528257 115 121 123
0.282342 0.205885 0.527899 143 149 151
0.280620 0.206160 0.527542 177 183 185
0.098126 0.235297 0.489631 169 179 186
0.096404 0.235572 0.489273 112 122 129
0.094682 0.235847 0.488915 111 124 133
0.092961 0.236122 0.488558 99 112 121
0.091142 0.237415 0.488320 100 113 122
0.089418 0.237690 0.487962 156 169 178
0.295500 0.202318 0.532263 186 192 190
0.293781 0.202593 0.531906 121 129 130
0.292062 0.202867 0.531549 105 113 114
0.290536 0.204113 0.531375 105 116 114
0.288814 0.204387 0.531017 111 122 120
0.287093 0.204662 0.530659 113 121 122
0.285557 0.205909 0.530483 117 125 126
0.283833 0.206185 0.530124 150 156 156
0.282108 0.206460 0.529766 186 192 192
0.095900 0.236190 0.491084 128 135 143
0.094175 0.236465 0.490726 107 118 127
0.092451 0.236740 0.490367 104 115 124
0.090727 0.237016 0.490009 91 107 117
0.089003 0.237291 0.489651 123 139 149
0.297008 0.202615 0.534492 173 180 184
0.295287 0.202890 0.534134 119 126 130
0.293565 0.203164 0.533777 102 114 116
0.291844 0.203439 0.533419 109 121 123
0.290122 0.203714 0.533061 110 121 119
0.288590 0.204960 0.532888 116 127 125
0.286866 0.205235 0.532530 121 127 125
0.285142 0.205510 0.532172 169 175 173
0.283418 0.205786 0.531814 185 191 191
0.095485 0.235791 0.492773 176 181 188
0.093667 0.237082 0.492541 112 121 131
0.092037 0.236341 0.492057 112 121 131
0.090214 0.237634 0.491823 101 114 125
0.088487 0.237909 0.491464 99 112 123
0.086761 0.238185 0.491106 156 170 176
0.298521 0.202909 0.536727 154 162 163
0.296796 0.203184 0.536369 111 118 122
0.295072 0.203460 0.536010 104 111 115
0.293348 0.203735 0.535652 110 120 125
0.291624 0.204010 0.535294 117 127 132
0.289900 0.204285 0.534936 118 126 127
0.288176 0.204561 0.534578 128 136 137
0.286638 0.205807 0.534406 176 182 180
0.093252 0.236683 0.494232 134 141 149
0.091525 0.236958 0.493874 118 125 133
0.089700 0.238250 0.493642 112 125 136
0.088072 0.237510 0.493156 94 107 118
0.086345 0.237785 0.492798 127 141 147
0.299830 0.202235 0.538774 149 157 158
0.298106 0.202510 0.538416 105 113 114
0.296382 0.202785 0.538058 107 114 118
0.294658 0.203060 0.537700 113 120 124
0.292933 0.203336 0.537342 120 127 131
0.291209 0.203611 0.536983 118 125 129
0.289485 0.203886 0.536625 127 135 134
0.287761 0.204162 0.536267 176 184 183
0.092742 0.237298 0.496055 171 178 186
0.091013 0.237574 0.495696 113 120 128
0.089284 0.237850 0.495336 116 127 136
0.087554 0.238126 0.494977 101 112 121
0.085825 0.238402 0.494618 109 119 126
0.084096 0.238678 0.494259 158 168 175
0.303075 0.202250 0.541377 190 196 196
0.301348 0.202526 0.541018 146 152 152
0.299621 0.202802 0.540659 104 111 115
0.297895 0.203077 0.540300 107 114 118
0.295967 0.202386 0.539747 113 120 124
0.294243 0.202661 0.539389 121 128 132
0.292519 0.202937 0.539031 118 126 127
0.290795 0.203212 0.538673 134 142 143
0.289070 0.203487 0.538315 182 188 188
0.090597 0.237174 0.497390 140 147 153
0.088868 0.237450 0.497031 110 120 125
0.087139 0.237726 0.496671 112 122 127
0.085409 0.238002 0.496312 96 106 111
0.083680 0.238278 0.495953 130 140 145
0.304599 0.202540 0.543627 188 194 194
0.302870 0.202816 0.543267 131 138 142
0.300933 0.202127 0.542710 103 110 114
0.299206 0.202402 0.542351 105 115 118
0.297479 0.202678 0.541992 108 118 121
0.295753 0.202954 0.541634 120 127 131
0.293828 0.202262 0.541078 119 126 130
0.292104 0.202538 0.540720 142 148 148
0.290380 0.202813 0.540362 184 190 190
0.090083 0.237787 0.499219 167 174 178
0.088351 0.238064 0.498859 113 120 126
0.086619 0.238340 0.498500 121 128 134
0.084888 0.238617 0.498140 102 112 117
0.083264 0.237878 0.497647 105 115 120
0.081424 0.239170 0.497420 164 174 177
0.305912 0.201863 0.545680 178 185 189
0.304183 0.202139 0.545321 120 127 131
0.302454 0.202415 0.544962 100 111 111
0.300517 0.201727 0.544402 108 119 119
0.298791 0.202003 0.544043 112 122 125
0.297064 0.202278 0.543684 118 128 131
0.295337 0.202554 0.543325 119 127 128
0.293414 0.201863 0.542768 149 157 158
0.291689 0.202139 0.542410 188 194 194
0.087934 0.237663 0.500556 139 146 150
0.086203 0.237940 0.500196 118 125 129
0.084471 0.238216 0.499837 112 122 127
0.082739 0.238493 0.499477 98 108 113
0.081008 0.238769 0.499117 131 141 144
0.307442 0.202149 0.547939 176 183 175
0.305710 0.202426 0.547579 116 124 125
0.303767 0.201739 0.547015 100 108 109
0.302038 0.202015 0.546656 108 119 119
0.300309 0.202291 0.546297 111 122 122
0.298579 0.202567 0.545938 111 122 122
0.296649 0.201879 0.545376 126 137 137
0.294922 0.202154 0.545017 160 168 167
0.293195 0.202430 0.544659 188 196 195
0.087416 0.238276 0.502392 174 181 185
0.085682 0.238553 0.502032 113 120 124
0.083947 0.238829 0.501672 117 127 134
0.082323 0.238092 0.501174 100 110 117
0.080591 0.238368 0.500814 104 114 119
0.078860 0.238645 0.500454 167 177 182
0.308757 0.201472 0.549996 165 171 169
0.307025 0.201749 0.549636 118 124 122
0.305294 0.202025 0.549276 100 108 109
0.303562 0.202302 0.548917 105 113 114
0.301622 0.201615 0.548350 114 122 123
0.299893 0.201891 0.547991 118 126 127
0.298164 0.202167 0.547632 124 132 131
0.296434 0.202443 0.547273 166 174 173
0.294705 0.202719 0.546914 189 195 195
0.086896 0.238887 0.504233 190 197 201
0.085265 0.238151 0.503731 134 141 145
0.083530 0.238428 0.503371 114 124 131
0.081796 0.238705 0.503011 108 118 125
0.080062 0.238982 0.502650 98 108 115
0.078328 0.239259 0.502290 137 147 154
0.310293 0.201755 0.552264 122 126 121
0.308559 0.202032 0.551903 107 113 111
0.306609 0.201348 0.551333 108 114 112
0.304877 0.201624 0.550973 113 121 120
0.303146 0.201901 0.550613 118 126 125
0.301414 0.202177 0.550254 119 127 128
0.299682 0.202454 0.549894 125 133 134
0.297951 0.202730 0.549534 171 179 176
0.084742 0.238762 0.505574 169 176 180
0.083005 0.239040 0.505213 110 120 127
0.081379 0.238303 0.504710 108 118 125
0.079645 0.238580 0.504349 103 113 120
0.077911 0.238857 0.503989 111 121 128
0.076177 0.239134 0.503629 162 172 175
0.311610 0.201077 0.554323 131 134 133
0.309876 0.201354 0.553963 96 99 98
0.308141 0.201631 0.553603 109 113 108
0.306407 0.201908 0.553242 115 119 114
0.304673 0.202184 0.552882 120 128 127
0.302729 0.201500 0.552310 119 127 126
0.300997 0.201776 0.551950 132 140 141
0.299266 0.202053 0.551591 178 186 187
0.084217 0.239372 0.507422 190 197 201
0.082587 0.238638 0.506915 130 137 143
0.080851 0.238915 0.506554 111 118 124
0.079114 0.239192 0.506193 111 122 131
0.077494 0.238456 0.505688 99 110 119
0.075640 0.239747 0.505472 149 161 163
0.313375 0.202316 0.556818 124 130 132
0.311414 0.201634 0.556239 101 107 107
0.309678 0.201912 0.555879 105 111 111
0.307724 0.201229 0.555302 114 120 118
0.305990 0.201506 0.554942 126 132 130
0.304256 0.201783 0.554581 118 126 123
0.302522 0.202060 0.554221 137 145 142
0.300581 0.201376 0.553647 180 188 189
0.082060 0.239247 0.508765 160 167 173
0.080321 0.239525 0.508403 111 118 124
0.078696 0.238790 0.507895 114 124 131
0.076959 0.239067 0.507534 96 106 113
0.075223 0.239345 0.507173 122 132 137
0.316664 0.202315 0.559465 175 181 181
0.314922 0.202593 0.559103 113 121 122
0.312957 0.201913 0.558522 100 108 109
0.311218 0.202191 0.558160 106 114 113
0.309260 0.201510 0.557580 116 124 123
0.307523 0.201787 0.557219 127 133 131
0.305573 0.201105 0.556641 120 126 124
0.303839 0.201382 0.556281 139 145 145
0.302105 0.201659 0.555920 184 190 190
0.081531 0.239856 0.510619 178 185 191
0.079902 0.239123 0.510108 117 124 130
0.078163 0.239400 0.509746 118 125 133
0.076424 0.239678 0.509385 111 118 126
0.074685 0.239956 0.509024 104 114 119
0.072946 0.240233 0.508662 153 163 168
0.318448 0.203546 0.561982 164 174 177
0.316701 0.203825 0.561619 107 117 120
0.314954 0.204104 0.561256 103 110 114
0.312985 0.203425 0.560671 109 116 120
0.311020 0.202746 0.560086 114 122 123
0.309060 0.202066 0.559503 120 128 129
0.307321 0.202344 0.559142 125 131 131
0.305369 0.201662 0.558560 140 146 146
0.303632 0.201940 0.558200 186 192 192
0.079371 0.239731 0.511964 142 149 155
0.077629 0.240009 0.511602 111 118 124
0.075887 0.240287 0.511240 116 123 129
0.074146 0.240565 0.510879 98 108 113
0.072404 0.240843 0.510517 142 152 157
0.321521 0.202584 0.564419 187 197 200
0.319775 0.202863 0.564056 151 161 164
0.318258 0.204097 0.563919 101 111 114
0.316508 0.204377 0.563556 102 112 115
0.314534 0.203700 0.562967 107 117 120
0.312788 0.203978 0.562604 115 125 128
0.310821 0.203300 0.562017 117 128 128
0.308859 0.202621 0.561431 131 142 142
0.306903 0.201941 0.560846 161 167 169
0.305164 0.202219 0.560485 188 194 196
0.078724 0.241349 0.513981 177 184 190
0.077094 0.240617 0.513463 113 120 126
0.075350 0.240895 0.513101 124 131 137
0.073605 0.241174 0.512739 105 112 118
0.071861 0.241452 0.512376 118 125 131
0.070117 0.241731 0.512014 164 171 177
0.322848 0.201901 0.566493 182 190 191
0.321101 0.202180 0.566130 135 145 150
0.319818 0.204368 0.566226 101 111 116
0.318066 0.204648 0.565862 103 113 118
0.316315 0.204927 0.565498 105 115 120
0.314339 0.204251 0.564907 113 125 127
0.312589 0.204530 0.564543 118 130 132
0.310621 0.203853 0.563953 112 123 123
0.308874 0.204132 0.563590 160 171 171
0.306913 0.203453 0.563002 188 196 197
0.076557 0.241223 0.515329 130 137 143
0.074811 0.241502 0.514966 116 123 129
0.073064 0.241781 0.514604 119 126 132
0.071317 0.242060 0.514241 103 110 116
0.069570 0.242339 0.513878 147 154 160
0.324175 0.201218 0.568568 177 184 188
0.322664 0.202450 0.568438 124 131 135
0.320915 0.202729 0.568074 98 108 113
0.319397 0.203962 0.567943 105 115 120
0.317645 0.204242 0.567579 109 119 124
0.315893 0.204522 0.567215 116 126 131
0.314141 0.204801 0.566851 114 124 127
0.312390 0.205081 0.566487 143 153 156
0.310638 0.205361 0.566123 112 127 126
0.075902 0.242839 0.517360 156 161 170
0.074150 0.243118 0.516996 114 119 128
0.072521 0.242387 0.516473 121 128 136
0.070897 0.241656 0.515952 100 107 115
0.069150 0.241935 0.515589 124 131 135
0.325501 0.200534 0.570642 170 176 176
0.323754 0.200813 0.570279 117 127 132
0.322008 0.201092 0.569916 98 108 113
0.320727 0.203277 0.570023 104 114 119
0.318975 0.203557 0.569659 110 120 125
0.317452 0.204790 0.569529 121 128 134
0.315698 0.205070 0.569165 114 121 127
0.313943 0.205351 0.568800 143 153 156
0.311968 0.204676 0.568203 172 182 185
0.075481 0.242433 0.519076 182 189 197
0.073729 0.242713 0.518712 123 130 138
0.071977 0.242993 0.518348 119 126 132
0.070225 0.243272 0.517984 106 113 119
0.068602 0.242541 0.517461 109 116 120
0.066722 0.243832 0.517256 168 175 179
0.328575 0.199572 0.573079 186 192 190
0.326828 0.199851 0.572716 153 160 164
0.325081 0.200130 0.572353 103 110 114
0.323334 0.200409 0.571990 104 114 119
0.321823 0.201640 0.571865 110 120 125
0.320306 0.202872 0.571739 113 120 126
0.318784 0.204104 0.571612 123 130 136
0.317030 0.204384 0.571248 118 125 129
0.315276 0.204664 0.570883 154 161 165
0.313521 0.204945 0.570519 182 193 193
0.073186 0.243316 0.520592 148 158 165
0.071432 0.243596 0.520228 110 120 125
0.069804 0.242867 0.519701 114 124 129
0.068052 0.243146 0.519337 100 110 113
0.066300 0.243426 0.518973 144 154 157
0.329901 0.198889 0.575153 187 195 196
0.328155 0.199168 0.574791 139 147 148
0.326408 0.199447 0.574428 98 105 109
0.324661 0.199726 0.574065 105 112 116
0.323151 0.200956 0.573943 112 119 125
0.321402 0.201235 0.573579 124 131 137
0.319885 0.202466 0.573456 124 131 135
0.318133 0.202746 0.573092 125 132 136
0.316608 0.203978 0.572967 163 166 169
0.314854 0.204258 0.572602 188 191 194
0.072642 0.243919 0.522477 173 180 184
0.071010 0.243190 0.521947 111 121 124
0.069256 0.243470 0.521582 111 121 124
0.067501 0.243751 0.521218 98 108 111
0.065747 0.244031 0.520853 111 121 124
0.331228 0.198206 0.577228 183 191 190
0.329481 0.198485 0.576865 131 141 144
0.327734 0.198764 0.576502 95 105 108
0.325988 0.199043 0.576139 110 117 121
0.324480 0.200272 0.576020 109 116 120
0.322731 0.200551 0.575657 118 125 129
0.320981 0.200830 0.575293 120 127 131
0.319463 0.202061 0.575172 125 133 134
0.317712 0.202341 0.574808 161 169 170
0.070463 0.243793 0.523834 121 131 134
0.068834 0.243064 0.523301 115 125 128
0.067080 0.243344 0.522937 105 115 120
0.065325 0.243625 0.522572 101 111 116
0.063436 0.244914 0.522374 155 162 166
0.332555 0.197523 0.579302 178 185 189
0.330808 0.197802 0.578939 124 131 135
0.329061 0.198081 0.578576 96 103 107
0.327314 0.198359 0.578214 107 114 118
0.325808 0.199588 0.578097 104 111 115
0.323821 0.198917 0.577488 121 128 132
0.322074 0.199196 0.577125 120 128 129
0.320561 0.200425 0.577007 149 157 158
0.318811 0.200705 0.576644 172 178 180
0.070040 0.243386 0.525555 152 159 163
0.068284 0.243666 0.525190 113 120 124
0.066527 0.243947 0.524825 114 124 127
0.064770 0.244227 0.524460 100 110 113
0.063013 0.244508 0.524095 144 151 155
0.334134 0.197786 0.581628 159 167 168
0.332385 0.198066 0.581265 113 120 124
0.330388 0.197397 0.580651 93 100 104
0.328641 0.197676 0.580288 105 112 116
0.327137 0.198903 0.580175 113 120 124
0.325388 0.199183 0.579811 123 130 134
0.323401 0.198513 0.579199 121 128 132
0.321654 0.198792 0.578837 162 168 168
0.069492 0.243986 0.527450 179 184 191
0.067732 0.244267 0.527084 117 122 129
0.065973 0.244548 0.526719 119 126 132
0.064214 0.244829 0.526353 104 111 117
0.062455 0.245110 0.525988 121 128 132
0.337983 0.199658 0.584835 190 196 194
0.335972 0.198993 0.584215 148 156 157
0.334217 0.199273 0.583851 107 115 116
0.331964 0.197661 0.582979 95 102 106
0.330215 0.197940 0.582616 105 112 116
0.328465 0.198219 0.582252 117 125 126
0.326716 0.198498 0.581889 121 129 130
0.324727 0.197830 0.581274 131 137 139
0.322981 0.198109 0.580911 167 173 175
0.068942 0.244586 0.529349 189 194 201
0.067309 0.243860 0.528808 132 137 144
0.065418 0.245148 0.528617 112 119 125
0.063656 0.245429 0.528251 111 118 124
0.061895 0.245711 0.527885 100 111 111
0.339576 0.199915 0.587180 189 195 195
0.337817 0.200196 0.586814 136 142 142
0.335804 0.199532 0.586191 96 104 105
0.333795 0.198867 0.585570 104 112 113
0.331792 0.198201 0.584949 103 114 114
0.329794 0.197535 0.584330 118 129 129
0.328045 0.197814 0.583966 118 126 127
0.326054 0.197147 0.583348 138 146 147
0.324307 0.197425 0.582985 181 187 189
0.066756 0.244459 0.530709 145 152 160
0.064994 0.244740 0.530343 110 120 127
0.063098 0.246029 0.530154 111 121 128
0.061333 0.246310 0.529787 101 111 114
0.059569 0.246592 0.529421 152 162 165
0.341173 0.200170 0.589530 179 185 185
0.339412 0.200452 0.589164 127 134 138
0.337650 0.200733 0.588798 100 107 111
0.335635 0.200070 0.588172 104 112 113
0.333624 0.199406 0.587548 114 122 123
0.331619 0.198741 0.586924 121 132 132
0.329865 0.199021 0.586560 116 127 127
0.327867 0.198355 0.585938 139 147 146
0.326116 0.198635 0.585574 185 193 192
0.066202 0.245057 0.532615 166 173 181
0.064438 0.245339 0.532249 109 119 126
0.062673 0.245620 0.531882 117 127 134
0.060909 0.245902 0.531516 104 114 119
0.059145 0.246184 0.531149 130 140 145
0.342774 0.200423 0.591887 168 176 177
0.341010 0.200705 0.591520 111 119 120
0.339246 0.200987 0.591154 103 111 112
0.337481 0.201269 0.590787 107 115 116
0.335464 0.200606 0.590158 118 126 127
0.333452 0.199943 0.589531 121 129 130
0.331445 0.199280 0.588904 119 127 126
0.329443 0.198615 0.588279 153 161 160
0.327689 0.198895 0.587914 188 196 195
0.065778 0.244649 0.534344 171 178 186
0.064013 0.244930 0.533978 117 126 136
0.062249 0.245212 0.533611 118 127 137
0.060485 0.245494 0.533245 109 119 124
0.058720 0.245775 0.532878 115 125 130
0.344114 0.199733 0.593982 174 180 182
0.342350 0.200015 0.593615 100 111 111
0.340586 0.200297 0.593249 95 106 106
0.338821 0.200578 0.592882 105 115 118
0.337057 0.200860 0.592516 115 125 128
0.335293 0.201142 0.592149 132 140 141
0.333279 0.200480 0.591519 124 132 133
0.331517 0.200761 0.591153 167 173 173
0.065353 0.244240 0.536073 178 185 191
0.063455 0.245527 0.535891 135 145 152
0.061688 0.245809 0.535524 112 122 129
0.059921 0.246091 0.535157 114 124 131
0.058154 0.246373 0.534790 105 115 122
0.056387 0.246655 0.534423 161 169 170
0.345454 0.199043 0.596077 155 166 166
0.343690 0.199325 0.595711 100 111 111
0.341926 0.199607 0.595344 97 107 110
0.340420 0.200830 0.595246 108 118 121
0.338654 0.201112 0.594879 121 128 132
0.336887 0.201394 0.594512 120 127 131
0.334868 0.200733 0.593878 135 141 143
0.333104 0.201015 0.593512 176 182 184
0.063030 0.245118 0.537622 147 157 164
0.061263 0.245400 0.537255 109 119 126
0.059496 0.245682 0.536888 115 125 132
0.057729 0.245964 0.536521 101 111 118
0.055962 0.246246 0.536154 145 153 154
0.348559 0.198072 0.598539 192 198 200
0.347063 0.199293 0.598446 153 159 161
0.345296 0.199575 0.598079 95 105 108
0.343529 0.199857 0.597712 96 106 109
0.341762 0.200139 0.597344 111 121 124
0.339995 0.200421 0.596977 115 125 128
0.338229 0.200703 0.596610 117 125 126
0.336462 0.200985 0.596243 142 150 151
0.334695 0.201267 0.595876 194 194 198
0.062605 0.244709 0.539353 162 172 179
0.060838 0.244991 0.538986 110 120 127
0.059071 0.245273 0.538619 115 127 133
0.057304 0.245555 0.538252 106 118 124
0.055537 0.245837 0.537885 131 139 138
0.350171 0.198319 0.600911 189 195 195
0.348405 0.198601 0.600544 133 140 144
0.346638 0.198884 0.600177 96 103 107
0.344871 0.199166 0.599810 96 106 109
0.343104 0.199448 0.599443 110 120 123
0.341337 0.199730 0.599076 115 121 123
0.339828 0.200952 0.598982 122 128 130
0.338059 0.201235 0.598615 164 170 170
0.336290 0.201517 0.598247 196 202 202
0.062044 0.245303 0.541276 176 186 193
0.060274 0.245586 0.540908 117 127 134
0.058505 0.245868 0.540541 114 126 130
0.056736 0.246151 0.540173 107 119 123
0.055113 0.245428 0.539616 117 125 126
0.351513 0.197628 0.603009 181 188 192
0.349747 0.197910 0.602642 123 130 134
0.347980 0.198193 0.602275 100 108 109
0.346213 0.198475 0.601908 102 110 111
0.344711 0.199695 0.601818 114 122 123
0.342942 0.199978 0.601451 117 125 126
0.341172 0.200260 0.601083 125 131 129
0.339403 0.200543 0.600716 175 181 179
0.337634 0.200825 0.600348 198 201 202
0.061618 0.244894 0.543010 185 192 200
0.059849 0.245176 0.542642 124 131 139
0.058080 0.245459 0.542274 113 125 129
0.056310 0.245741 0.541907 109 121 125
0.054541 0.246024 0.541539 108 119 119
0.353132 0.197873 0.605390 176 184 185
0.351363 0.198156 0.605022 116 126 129
0.349593 0.198438 0.604655 95 105 108
0.347555 0.197784 0.604006 99 107 108
0.346055 0.199003 0.603920 116 124 125
0.344285 0.199286 0.603552 124 132 131
0.342516 0.199568 0.603185 126 134 133
0.340747 0.199851 0.602817 183 186 185
0.059423 0.244767 0.544376 130 137 145
0.057654 0.245049 0.544008 115 125 130
0.055885 0.245332 0.543640 111 121 126
0.054115 0.245614 0.543273 107 115 116
0.354476 0.197181 0.607491 170 177 181
0.352706 0.197464 0.607123 111 118 122
0.350937 0.197746 0.606756 96 106 109
0.349168 0.198029 0.606388 108 118 121
0.347399 0.198311 0.606021 114 122 123
0.345629 0.198594 0.605653 119 127 128
0.343860 0.198876 0.605286 125 131 131
0.342091 0.199159 0.604918 181 187 187
0.058857 0.245359 0.546308 153 160 166
0.057228 0.244640 0.545742 116 123 129
0.055459 0.244922 0.545374 116 123 129
0.053690 0.245205 0.545007 110 116 118
0.355820 0.196489 0.609592 165 171 171
0.354050 0.196772 0.609225 111 121 128
0.352281 0.197054 0.608857 98 108 115
0.350512 0.197337 0.608490 111 118 124
0.348742 0.197619 0.608122 117 124 130
0.346973 0.197902 0.607754 119 125 127
0.345204 0.198184 0.607387 134 140 142
0.343434 0.198467 0.607019 184 190 190
0.056659 0.245232 0.547676 126 133 137
0.054888 0.245515 0.547308 123 130 134
0.359218 0.196447 0.612353 183 183 183
0.357163 0.195797 0.611693 131 138 142
0.355674 0.197013 0.611617 107 114 118
0.353625 0.196362 0.610958 102 112 119
0.351855 0.196645 0.610591 103 113 120
0.350086 0.196927 0.610223 121 126 133
0.348317 0.197210 0.609856 121 126 133
0.346547 0.197492 0.609488 135 138 139
0.344778 0.197775 0.609121 186 189 190
0.360563 0.195754 0.614457 184 190 192
0.358792 0.196037 0.614089 128 134 136
0.357020 0.196320 0.613721 100 107 113
0.355248 0.196603 0.613353 105 112 118
0.353476 0.196886 0.612985 109 119 124
0.351704 0.197169 0.612617 115 125 130
0.349932 0.197452 0.612249 123 126 129
0.348161 0.197734 0.611881 138 141 144
0.346122 0.197083 0.611222 183 183 185
0.361909 0.195061 0.616561 185 193 192
0.360137 0.195344 0.616193 119 126 130
0.358649 0.196558 0.616122 105 112 116
0.356875 0.196842 0.615754 105 112 118
0.355101 0.197125 0.615385 106 113 119
0.353326 0.197408 0.615017 119 124 129
0.351278 0.196759 0.614353 119 124 129
0.349506 0.197042 0.613985 151 151 153
0.347734 0.197324 0.613617 192 192 194
0.363546 0.195298 0.618967 174 184 187
0.361771 0.195581 0.618598 117 127 130
0.359997 0.195864 0.618230 111 118 124
0.358223 0.196148 0.617861 107 114 120
0.356448 0.196431 0.617492 105 112 116
0.354674 0.196714 0.617124 117 124 128
0.352900 0.196998 0.616755 121 124 127
0.351125 0.197281 0.616387 152 155 158
0.349351 0.197564 0.616018 194 197 198
0.365478 0.196461 0.621682 178 186 185
0.363409 0.195816 0.621009 116 126 129
0.361632 0.196100 0.620640 108 118 121
0.359855 0.196384 0.620271 110 120 123
0.358078 0.196667 0.619901 108 118 121
0.356302 0.196951 0.619532 124 130 132
0.354525 0.197235 0.619163 119 125 127
0.352473 0.196587 0.618494 159 159 161
0.350698 0.196870 0.618125 194 194 196
0.367419 0.197621 0.624409 177 183 185
0.365342 0.196977 0.623732 117 123 125
0.363561 0.197262 0.623362 108 118 121
0.361779 0.197546 0.622992 107 117 120
0.359712 0.196902 0.622316 109 120 120
0.357651 0.196256 0.621642 119 130 130
0.355874 0.196540 0.621273 123 126 127
0.354097 0.196823 0.620904 150 153 154
0.352320 0.197107 0.620535 197 197 197
0.368774 0.196923 0.626528 183 186 187
0.366990 0.197208 0.626158 114 122 123
0.365205 0.197492 0.625787 103 111 112
0.363421 0.197777 0.625416 105 116 116
0.361350 0.197134 0.624738 105 116 116
0.359568 0.197418 0.624367 120 128 129
0.357505 0.196774 0.623690 119 127 128
0.355726 0.197058 0.623321 153 153 155
0.353946 0.197342 0.622951 195 195 197
0.370726 0.198076 0.629273 181 184 187
0.368937 0.198362 0.628901 119 122 125
0.367147 0.198648 0.628530 112 120 121
0.365358 0.198933 0.628158 109 117 118
0.363280 0.198292 0.627475 108 119 117
0.361207 0.197649 0.626794 116 127 125
0.359423 0.197934 0.626423 121 124 123
0.357358 0.197290 0.625743 156 159 158
0.355576 0.197575 0.625373 196 195 197
0.372085 0.197376 0.631398 178 186 185
0.370296 0.197662 0.631027 120 126 128
0.368506 0.197948 0.630655 101 107 109
0.366717 0.198233 0.630283 106 114 113
0.363138 0.198805 0.629540 118 126 125
0.361349 0.199090 0.629168 121 129 128
0.359277 0.198449 0.628484 169 169 169
0.373444 0.196676 0.633523 173 183 186
0.371655 0.196962 0.633152 115 125 128
0.370162 0.198172 0.633098 105 112 116
0.368371 0.198458 0.632725 109 116 120
0.366579 0.198745 0.632353 112 120 121
0.364787 0.199031 0.631981 114 122 123
0.362995 0.199317 0.631609 120 126 124
0.361203 0.199603 0.631236 168 174 172
0.375107 0.196899 0.635970 169 180 180
0.373315 0.197185 0.635598 109 119 124
0.371523 0.197471 0.635226 101 111 116
0.369731 0.197758 0.634853 107 117 120
0.368234 0.198968 0.634801 110 120 123
0.366439 0.199255 0.634428 117 128 128
0.364645 0.199541 0.634056 126 137 137
0.362850 0.199827 0.633683 172 178 176
0.376774 0.197120 0.638423 158 168 171
0.374980 0.197407 0.638050 105 115 118
0.373185 0.197693 0.637678 103 113 118
0.371391 0.197980 0.637305 108 118 123
0.369596 0.198266 0.636932 112 122 125
0.367802 0.198553 0.636559 103 113 116
0.366008 0.198839 0.636187 131 142 140
0.364213 0.199126 0.635814 171 182 180
0.378445 0.197339 0.640882 152 160 161
0.376648 0.197626 0.640509 103 113 116
0.374851 0.197913 0.640135 103 113 116
0.373054 0.198200 0.639762 105 115 118
0.371257 0.198487 0.639389 115 125 128
0.369460 0.198774 0.639016 110 121 121
0.367663 0.199061 0.638642 125 136 136
0.365866 0.199347 0.638269 185 193 190
0.380119 0.197556 0.643347 147 154 158
0.378320 0.197843 0.642973 104 111 115
0.376521 0.198131 0.642599 107 118 118
0.374721 0.198418 0.642226 111 122 122
0.372622 0.197784 0.641523 115 126 126
0.370825 0.198071 0.641150 111 122 122
0.369028 0.198358 0.640776 132 140 137
0.367231 0.198645 0.640403 184 192 189
0.381486 0.196852 0.645484 159 167 168
0.379687 0.197140 0.645110 105 115 118
0.377887 0.197427 0.644736 107 117 120
0.376088 0.197714 0.644362 110 118 119
0.374288 0.198002 0.643989 119 127 128
0.372489 0.198289 0.643615 116 124 123
0.370689 0.198576 0.643241 132 140 139
0.368890 0.198863 0.642867 189 197 194
0.382853 0.196149 0.647621 153 164 164
0.381053 0.196436 0.647247 98 109 109
0.379254 0.196723 0.646873 107 118 118
0.377454 0.197010 0.646499 109 120 120
0.375655 0.197298 0.646126 120 128 127
0.373856 0.197585 0.645752 118 126 125
0.372056 0.197872 0.645378 139 147 146
0.370257 0.198160 0.645004 191 199 198
0.384219 0.195445 0.649758 160 168 167
0.382420 0.195732 0.649384 107 118 118
0.380621 0.196019 0.649010 102 113 113
0.378821 0.196307 0.648636 111 122 120
0.377022 0.196594 0.648263 117 128 126
0.375222 0.196881 0.647889 118 126 127
0.373423 0.197169 0.647515 140 148 149
0.371623 0.197456 0.647141 191 199 198
0.385904 0.195657 0.652238 157 165 166
0.383787 0.195028 0.651521 102 110 111
0.381987 0.195316 0.651147 103 114 114
0.380188 0.195603 0.650773 105 116 116
0.378388 0.195890 0.650399 111 122 122
0.376589 0.196177 0.650026 117 128 128
0.374789 0.196465 0.649652 147 155 156
0.372990 0.196752 0.649278 190 198 199
0.387272 0.194952 0.654377 158 164 166
0.385470 0.195240 0.654003 101 106 111
0.383668 0.195527 0.653629 103 108 113
0.381866 0.195815 0.653254 111 118 122
0.380064 0.196103 0.652880 113 120 124
0.377956 0.195474 0.652163 111 119 120
0.376156 0.195761 0.651789 152 160 161
0.374357 0.196048 0.651415 191 197 199
0.388641 0.194247 0.656517 168 173 180
0.386839 0.194535 0.656143 104 109 116
0.385037 0.194823 0.655769 107 112 117
0.383235 0.195110 0.655394 113 118 123
0.381433 0.195398 0.655020 125 130 135
0.379631 0.195686 0.654646 121 126 131
0.377829 0.195973 0.654271 158 164 164
0.376027 0.196261 0.653897 193 199 199
0.390332 0.194455 0.659009 172 177 182
0.388528 0.194744 0.658634 107 112 121
0.386723 0.195032 0.658259 101 106 115
0.384919 0.195320 0.657884 117 122 129
0.383115 0.195608 0.657510 124 129 136
0.381310 0.195896 0.657135 121 124 127
0.379506 0.196184 0.656760 151 154 157
0.377701 0.196472 0.656385 195 198 197
0.392028 0.194662 0.661507 175 180 187
0.390221 0.194950 0.661131 112 117 124
0.388094 0.194326 0.660402 107 114 122
0.386290 0.194614 0.660027 111 118 126
0.384485 0.194902 0.659653 121 126 133
0.382681 0.195190 0.659278 115 120 127
0.380876 0.195478 0.658903 148 151 154
0.379072 0.195766 0.658528 197 200 203
0.393727 0.194866 0.664010 186 191 196
0.391918 0.195155 0.663634 117 124 132
0.390108 0.195444 0.663258 103 110 118
0.387979 0.194820 0.662526 113 118 127
0.386172 0.195109 0.662151 126 131 140
0.384365 0.195397 0.661776 122 124 130
0.382870 0.196599 0.661755 151 153 159
0.380751 0.195974 0.661025 194 197 198
0.395430 0.195068 0.666520 189 196 202
0.393618 0.195357 0.666143 126 133 139
0.391806 0.195647 0.665767 100 107 115
0.389673 0.195025 0.665031 114 121 129
0.387864 0.195314 0.664656 120 125 134
0.386054 0.195603 0.664280 118 123 132
0.384245 0.195892 0.663904 152 155 158
0.382435 0.196180 0.663528 195 198 201
0.397468 0.196177 0.669399 195 201 203
0.395651 0.196468 0.669021 137 147 152
0.393834 0.196758 0.668644 96 106 111
0.391694 0.196138 0.667904 107 117 124
0.389879 0.196427 0.667528 118 128 135
0.388065 0.196717 0.667151 114 121 127
0.385935 0.196095 0.666413 140 147 153
0.384123 0.196385 0.666037 198 201 204
0.397031 0.195757 0.671179 149 157 158
0.395214 0.196047 0.670802 97 107 110
0.393397 0.196337 0.670424 102 112 115
0.391580 0.196627 0.670047 115 125 132
0.389763 0.196917 0.669670 116 126 133
0.387946 0.197207 0.669292 139 147 148
0.386129 0.197497 0.668915 194 202 203
0.398743 0.195954 0.673706 158 169 169
0.396924 0.196244 0.673328 103 114 114
0.395104 0.196535 0.672950 106 113 117
0.393285 0.196825 0.672572 117 124 128
0.391465 0.197116 0.672194 116 123 127
0.389645 0.197406 0.671816 137 144 148
0.387826 0.197697 0.671438 191 199 200
0.400793 0.197055 0.676611 170 178 177
0.398968 0.197346 0.676232 103 111 112
0.396815 0.196730 0.675482 104 112 113
0.394993 0.197021 0.675104 116 124 125
0.393171 0.197312 0.674725 114 122 123
0.391349 0.197603 0.674347 134 142 143
0.389527 0.197894 0.673968 190 198 199
0.402515 0.197247 0.679153 173 181 182
0.400687 0.197538 0.678773 110 118 119
0.398530 0.196924 0.678020 104 112 113
0.396705 0.197215 0.677641 120 128 129
0.394880 0.197507 0.677262 124 132 133
0.393056 0.197798 0.676883 130 138 139
0.391231 0.198089 0.676504 184 190 190
0.403902 0.196532 0.681323 180 188 189
0.402410 0.197729 0.681321 116 123 127
0.400581 0.198021 0.680941 104 111 115
0.398751 0.198313 0.680561 116 127 127
0.396594 0.197699 0.679805 118 129 129
0.394767 0.197991 0.679425 121 127 127
0.392940 0.198282 0.679045 172 178 178
0.390793 0.197667 0.678291 195 201 201
0.405629 0.196721 0.683873 186 192 194
0.403800 0.197013 0.683493 121 127 129
0.401970 0.197305 0.683113 103 111 112
0.400141 0.197597 0.682733 117 125 126
0.398311 0.197890 0.682353 121 127 129
0.396482 0.198182 0.681973 119 125 127
0.394652 0.198474 0.681593 168 174 172
0.392823 0.198766 0.681213 197 203 201
0.407019 0.196006 0.686046 191 197 197
0.405189 0.196298 0.685666 135 141 143
0.403360 0.196590 0.685286 106 112 114
0.401864 0.197786 0.685288 112 118 120
0.400032 0.198078 0.684908 126 132 134
0.397871 0.197466 0.684146 123 126 127
0.396042 0.197758 0.683766 170 173 174
0.394212 0.198050 0.683386 197 203 203
0.408409 0.195290 0.688219 190 197 201
0.406579 0.195582 0.687839 152 159 163
0.404749 0.195874 0.687459 105 111 113
0.401424 0.197362 0.687084 116 119 120
0.399592 0.197654 0.686703 124 127 128
0.397760 0.197947 0.686322 164 167 166
0.395602 0.197335 0.685558 199 202 201
0.407969 0.194866 0.690012 168 178 181
0.406139 0.195159 0.689631 110 120 123
0.404647 0.196352 0.689640 106 114 113
0.402815 0.196645 0.689259 119 127 126
0.400983 0.196938 0.688879 117 120 119
0.399151 0.197230 0.688498 147 150 149
0.397319 0.197523 0.688118 193 199 197
0.409358 0.194151 0.692184 178 188 191
0.407871 0.195343 0.692196 110 120 123
0.406039 0.195636 0.691815 107 117 120
0.404207 0.195928 0.691435 119 127 128
0.402375 0.196221 0.691054 121 129 130
0.400875 0.197415 0.691064 139 145 143
0.399040 0.197708 0.690682 192 198 196
0.411094 0.194334 0.694752 175 185 190
0.409262 0.194627 0.694372 112 122 127
0.407430 0.194919 0.693991 102 114 118
0.405937 0.196112 0.694004 113 125 129
0.404103 0.196405 0.693623 117 125 124
0.402268 0.196698 0.693242 130 138 137
0.400434 0.196991 0.692861 191 197 195
0.412834 0.194516 0.697326 191 199 198
0.411000 0.194809 0.696945 123 130 136
0.409165 0.195102 0.696564 98 105 111
0.407331 0.195395 0.696183 116 126 131
0.405496 0.195687 0.695802 118 128 133
0.403661 0.195980 0.695421 121 129 128
0.401827 0.196273 0.695040 170 178 177
0.412393 0.194091 0.699124 147 153 155
0.410559 0.194384 0.698743 104 111 117
0.408724 0.194677 0.698362 112 119 125
0.406889 0.194970 0.697981 119 129 134
0.405055 0.195263 0.697600 116 126 131
0.403220 0.195556 0.697219 170 176 176
0.401386 0.195849 0.696837 190 196 196
0.414136 0.194270 0.701707 168 174 176
0.412299 0.194563 0.701325 114 120 122
0.410462 0.194857 0.700943 115 120 125
0.408625 0.195150 0.700562 120 125 130
0.406788 0.195443 0.700180 122 128 130
0.404951 0.195737 0.699798 155 161 163
0.403114 0.196030 0.699417 197 200 201
0.415532 0.193552 0.703888 181 187 187
0.413695 0.193845 0.703507 117 123 125
0.412204 0.195035 0.703531 110 116 118
0.410365 0.195328 0.703148 121 127 129
0.408183 0.194725 0.702362 122 128 130
0.406346 0.195018 0.701980 148 154 156
0.404509 0.195311 0.701598 192 198 200
0.415441 0.194021 0.706097 140 143 144
0.413601 0.194315 0.705715 107 113 115
0.412108 0.195504 0.705741 117 123 125
0.409922 0.194902 0.704951 121 127 129
0.408083 0.195196 0.704569 133 139 141
0.406243 0.195490 0.704187 189 195 195
0.417191 0.194196 0.708694 158 161 164
0.415349 0.194490 0.708312 112 115 118
0.413507 0.194784 0.707929 113 118 123
0.411665 0.195078 0.707546 120 125 130
0.409823 0.195372 0.707164 122 128 130
0.407981 0.195666 0.706781 181 187 189
0.418945 0.194368 0.711297 177 180 179
0.417101 0.194663 0.710914 113 116 119
0.415256 0.194957 0.710531 109 112 115
0.413064 0.194358 0.709734 120 126 128
0.411567 0.195546 0.709764 118 124 126
0.409722 0.195841 0.709381 174 180 180
0.421060 0.195431 0.714324 186 192 192
0.418856 0.194834 0.713522 129 135 135
0.416657 0.194236 0.712721 108 114 116
0.414813 0.194530 0.712338 121 127 129
0.412968 0.194825 0.711955 120 123 124
0.411123 0.195119 0.711572 157 160 161
0.409279 0.195414 0.711189 193 196 197
0.420615 0.195002 0.716137 145 153 154
0.418766 0.195298 0.715752 107 115 116
0.416916 0.195593 0.715368 115 121 123
0.414718 0.194996 0.714565 127 133 135
0.412871 0.195291 0.714181 130 133 134
0.410680 0.194692 0.713379 185 188 189
0.422737 0.196060 0.719180 163 171 170
0.420526 0.195465 0.718372 110 118 119
0.418321 0.194870 0.717565 116 124 125
0.416471 0.195165 0.717180 121 129 130
0.414273 0.194568 0.716375 123 131 132
0.412426 0.194863 0.715991 169 172 171
0.424145 0.195334 0.721383 177 185 186
0.422291 0.195631 0.720998 121 129 130
0.420436 0.195927 0.720612 110 118 119
0.418229 0.195332 0.719802 120 128 129
0.416026 0.194737 0.718993 119 127 126
0.414177 0.195032 0.718608 152 160 159
0.412327 0.195328 0.718224 192 196 191
0.425554 0.194609 0.723585 195 203 202
0.423699 0.194905 0.723200 139 146 150
0.421845 0.195201 0.722815 107 114 118
0.419990 0.195497 0.722430 117 125 126
0.418135 0.195794 0.722044 121 129 130
0.415931 0.195199 0.721232 141 147 145
0.414079 0.195495 0.720847 186 192 190
0.425469 0.195068 0.725835 172 178 178
0.423612 0.195364 0.725449 112 119 123
0.421755 0.195661 0.725063 113 120 124
0.419544 0.195068 0.724247 125 133 134
0.417689 0.195364 0.723862 125 133 134
0.415486 0.194771 0.723047 179 182 181
0.426880 0.194341 0.728040 182 190 191
0.425383 0.195525 0.728089 116 124 125
0.423165 0.194934 0.727269 112 119 123
0.421308 0.195231 0.726883 119 126 130
0.419098 0.194639 0.726064 120 128 129
0.417243 0.194935 0.725679 157 165 166
0.415388 0.195231 0.725294 194 197 198
0.428655 0.194501 0.730684 196 204 205
0.426796 0.194798 0.730297 138 148 151
0.424936 0.195095 0.729911 98 108 111
0.423076 0.195392 0.729525 116 123 127
0.420862 0.194801 0.728702 117 124 128
0.419004 0.195098 0.728317 140 148 149
0.416797 0.194506 0.727496 189 197 198
0.430068 0.193773 0.732892 191 198 202
0.428208 0.194070 0.732506 155 162 166
0.426349 0.194367 0.732120 104 116 118
0.424848 0.195550 0.732173 109 121 123
0.422629 0.194961 0.731347 117 128 128
0.420770 0.195258 0.730961 124 135 135
0.418558 0.194668 0.730136 179 185 185
0.429621 0.193343 0.734714 171 178 184
0.427761 0.193640 0.734328 111 118 124
0.425901 0.193937 0.733942 103 115 117
0.424042 0.194234 0.733555 116 128 130
0.422538 0.195417 0.733610 118 129 129
0.420322 0.194828 0.732783 153 164 164
0.431401 0.193499 0.737369 184 190 192
0.429539 0.193796 0.736982 118 125 131
0.427677 0.194094 0.736596 111 118 124
0.426176 0.195275 0.736654 118 130 132
0.424311 0.195573 0.736266 114 126 128
0.422091 0.194986 0.735435 139 150 150
0.419875 0.194397 0.734605 182 193 193
0.433186 0.193653 0.740030 196 201 206
0.431321 0.193951 0.739643 135 140 145
0.429457 0.194248 0.739255 105 112 118
0.427592 0.194546 0.738868 114 121 127
0.425727 0.194844 0.738481 125 133 134
0.423863 0.195142 0.738093 128 136 137
0.421998 0.195439 0.737706 181 189 190
0.432738 0.193221 0.741857 156 163 167
0.430873 0.193519 0.741470 111 118 122
0.429008 0.193817 0.741082 117 122 129
0.427144 0.194115 0.740695 127 132 139
0.425279 0.194412 0.740308 122 125 128
0.423414 0.194710 0.739920 171 174 177
0.434526 0.193373 0.744527 176 184 185
0.432658 0.193671 0.744139 118 125 131
0.430791 0.193969 0.743751 112 119 125
0.428924 0.194267 0.743363 126 128 136
0.427057 0.194565 0.742975 128 130 138
0.424830 0.193981 0.742135 160 160 164
0.435944 0.192643 0.746744 185 192 196
0.434077 0.192941 0.746356 119 126 130
0.432209 0.193239 0.745968 107 117 122
0.430342 0.193537 0.745580 116 126 131
0.428475 0.193835 0.745192 119 126 130
0.426608 0.194133 0.744805 134 141 145
0.424741 0.194431 0.744417 195 198 199
0.437362 0.191912 0.748961 198 204 206
0.435495 0.192210 0.748574 137 147 152
0.433627 0.192509 0.748186 105 115 120
0.431760 0.192807 0.747798 111 123 127
0.429893 0.193105 0.747410 118 130 134
0.428389 0.194284 0.747480 125 133 134
0.426159 0.193701 0.746634 182 190 191
0.439157 0.192060 0.751643 198 203 208
0.437288 0.192358 0.751254 155 160 165
0.435418 0.192657 0.750866 109 121 125
0.433548 0.192955 0.750477 111 123 127
0.431679 0.193254 0.750089 122 132 137
0.429809 0.193552 0.749701 118 128 133
0.427939 0.193851 0.749312 182 188 190
0.438708 0.191627 0.753475 169 176 182
0.436838 0.191926 0.753086 114 121 127
0.434968 0.192224 0.752698 114 124 129
0.433099 0.192523 0.752309 119 129 134
0.431229 0.192821 0.751921 123 130 134
0.429359 0.193120 0.751533 149 156 160
0.427489 0.193418 0.751144 191 197 197
0.440506 0.191772 0.756164 177 185 186
0.438634 0.192071 0.755775 119 129 134
0.436762 0.192370 0.755386 108 118 123
0.434890 0.192669 0.754997 119 129 132
0.432649 0.192090 0.754141 121 131 134
0.430779 0.192388 0.753753 136 142 144
0.428909 0.192687 0.753365 190 196 198
0.441928 0.191040 0.758388 190 200 203
0.440056 0.191339 0.757999 131 141 144
0.438184 0.191638 0.757610 108 118 121
0.436312 0.191937 0.757221 114 124 127
0.434440 0.192236 0.756832 125 132 136
0.432567 0.192534 0.756443 121 128 132
0.430695 0.192833 0.756054 176 182 182
0.443350 0.190308 0.760611 196 203 207
0.441478 0.190607 0.760222 139 149 154
0.439606 0.190905 0.759833 110 120 125
0.437734 0.191204 0.759444 116 126 131
0.435861 0.191503 0.759055 123 133 138
0.433989 0.191802 0.758666 121 128 132
0.432117 0.192101 0.758277 166 173 177
0.443282 0.190748 0.762923 159 169 172
0.441028 0.190173 0.762057 116 126 133
0.439156 0.190472 0.761668 111 121 128
0.437283 0.190771 0.761279 121 131 138
0.435411 0.191070 0.760890 118 128 135
0.433539 0.191369 0.760501 145 153 154
0.431667 0.191668 0.760112 191 199 200
0.444706 0.190015 0.765149 179 189 192
0.442831 0.190314 0.764760 121 131 134
0.440956 0.190613 0.764371 107 119 125
0.438705 0.190039 0.763502 116 128 134
0.436833 0.190338 0.763113 123 130 138
0.434961 0.190637 0.762724 133 140 148
0.433089 0.190935 0.762335 194 197 200
0.446515 0.190153 0.767859 189 196 200
0.444638 0.190453 0.767470 146 156 163
0.442380 0.189880 0.766597 109 119 126
0.440506 0.190179 0.766207 112 121 131
0.438631 0.190479 0.765818 121 130 140
0.436756 0.190778 0.765429 120 127 131
0.434511 0.190203 0.764559 181 188 192
0.446064 0.189719 0.769699 149 156 162
0.444187 0.190019 0.769309 115 125 132
0.442309 0.190318 0.768919 108 118 125
0.440055 0.189746 0.768044 118 128 135
0.438180 0.190045 0.767655 115 125 132
0.436305 0.190344 0.767265 171 179 180
0.434430 0.190643 0.766876 191 199 200
0.447877 0.189855 0.772417 167 177 182
0.445612 0.189284 0.771538 116 126 131
0.443735 0.189584 0.771148 109 119 126
0.441858 0.189884 0.770758 114 124 131
0.439981 0.190183 0.770368 111 121 126
0.438103 0.190483 0.769978 153 163 168
0.435854 0.189910 0.769102 193 199 199
0.449693 0.189989 0.775142 189 196 200
0.447425 0.189420 0.774259 128 138 143
0.445545 0.189720 0.773869 108 118 123
0.443284 0.189150 0.772988 115 125 130
0.441406 0.189449 0.772598 116 126 131
0.439529 0.189749 0.772208 138 145 149
0.437652 0.190049 0.771818 185 192 196
0.449241 0.189553 0.776986 164 174 177
0.447358 0.189854 0.776595 113 125 129
0.445093 0.189285 0.775710 113 125 129
0.443213 0.189585 0.775320 115 125 128
0.441333 0.189885 0.774929 121 131 134
0.439078 0.189314 0.774047 169 172 175
0.451451 0.190552 0.780216 182 194 198
0.449563 0.190854 0.779824 121 133 137
0.447291 0.190287 0.778936 114 126 128
0.445023 0.189719 0.778048 117 129 131
0.443141 0.190019 0.777657 119 129 132
0.440881 0.189450 0.776771 146 156 159
0.439001 0.189750 0.776381 192 198 200
0.451386 0.190983 0.782565 149 161 167
0.449109 0.190417 0.781673 110 122 128
0.447222 0.190718 0.781281 120 132 136
0.444953 0.190151 0.780391 117 129 133
0.443068 0.190452 0.779999 132 139 143
0.440806 0.189884 0.779110 184 191 195
0.453213 0.191110 0.785312 182 192 197
0.451321 0.191412 0.784919 117 129 135
0.449042 0.190847 0.784024 115 127 133
0.446768 0.190281 0.783130 116 128 132
0.444881 0.190583 0.782738 113 125 129
0.442994 0.190884 0.782346 164 171 175
0.453149 0.191537 0.787672 144 154 159
0.451254 0.191840 0.787278 106 118 124
0.448973 0.191276 0.786380 116 128 134
0.446698 0.190711 0.785483 110 122 126
0.444427 0.190146 0.784588 141 153 157
0.442918 0.191315 0.784698 195 202 206
0.454588 0.190796 0.789922 182 192 197
0.452693 0.191099 0.789529 115 125 130
0.450798 0.191401 0.789135 110 122 128
0.448904 0.191704 0.788741 116 128 134
0.446626 0.191140 0.787841 124 134 137
0.444734 0.191442 0.787448 182 192 195
0.454524 0.191221 0.792290 147 159 163
0.452627 0.191524 0.791895 109 121 125
0.450343 0.190963 0.790992 116 128 134
0.448448 0.191265 0.790598 111 123 129
0.446553 0.191568 0.790204 163 171 172
0.455966 0.190479 0.794543 186 196 199
0.454068 0.190782 0.794149 116 128 134
0.452171 0.191085 0.793754 111 123 129
0.449887 0.190524 0.792848 118 128 135
0.448376 0.191691 0.792966 123 133 140
0.446479 0.191994 0.792572 184 190 190
0.455509 0.190040 0.796402 151 161 164
0.453612 0.190343 0.796008 106 118 124
0.451715 0.190646 0.795614 116 128 134
0.449817 0.190949 0.795219 114 121 127
0.447920 0.191252 0.794825 160 167 173
0.455446 0.190463 0.798780 120 127 131
0.453156 0.189904 0.797867 114 121 127
0.451258 0.190207 0.797473 124 131 137
0.449746 0.191373 0.797596 133 138 143
0.448229 0.192540 0.797718 183 188 193
0.454989 0.190023 0.800641 110 118 119
0.453089 0.190327 0.800246 125 130 135
0.451189 0.190630 0.799852 117 122 127
0.449674 0.191796 0.799977 170 173 176
0.456826 0.190140 0.803421 154 162 163
0.454924 0.190444 0.803026 113 121 122
0.453021 0.190748 0.802631 121 124 127
0.451119 0.191052 0.802236 140 143 146
0.454857 0.190864 0.805416 128 134 136
0.452564 0.190308 0.804495 136 136 138
0.451048 0.191472 0.804625 189 189 191
