ply
format ascii 1.0
element vertex 1429
property float x
property float y
property float z
property uchar red
property uchar green
property uchar blue
end_header
0.101253 -0.037028 0.701000 41 49 48
0.103073 -0.037028 0.701000 34 42 41
0.104893 -0.037028 0.701000 40 48 47
0.099574 -0.035255 0.702000 39 47 46
0.101397 -0.035255 0.702000 75 83 84
0.103073 -0.035205 0.701000 67 75 76
0.104893 -0.035205 0.701000 36 44 45
0.099574 -0.033430 0.702000 58 69 69
0.101397 -0.033430 0.702000 96 104 105
0.103073 -0.033382 0.701000 96 104 105
0.104893 -0.033382 0.701000 39 47 48
0.099574 -0.031605 0.702000 74 85 83
0.101253 -0.031560 0.701000 95 106 106
0.103073 -0.031560 0.701000 104 115 115
0.104893 -0.031560 0.701000 47 58 58
0.097612 -0.029737 0.701000 39 50 46
0.099432 -0.029737 0.701000 89 100 96
0.101253 -0.029737 0.701000 98 106 105
0.103073 -0.029737 0.701000 111 119 118
0.104893 -0.029737 0.701000 55 66 66
0.097612 -0.027915 0.701000 40 51 47
0.099432 -0.027915 0.701000 101 112 108
0.101253 -0.027915 0.701000 102 110 109
0.103073 -0.027915 0.701000 112 120 119
0.104893 -0.027915 0.701000 55 66 64
0.097612 -0.026092 0.701000 53 64 60
0.099432 -0.026092 0.701000 105 116 112
0.101108 -0.026055 0.700000 104 112 109
0.102926 -0.026055 0.700000 111 119 116
0.104893 -0.026092 0.701000 55 66 66
0.097473 -0.024235 0.700000 62 73 69
0.099291 -0.024235 0.700000 107 118 114
0.101108 -0.024235 0.700000 104 115 111
0.102926 -0.024235 0.700000 112 123 119
0.104893 -0.024270 0.701000 49 57 56
0.097473 -0.022415 0.700000 67 78 74
0.099291 -0.022415 0.700000 110 121 117
0.101108 -0.022415 0.700000 107 118 114
0.102926 -0.022415 0.700000 110 121 117
0.104893 -0.022447 0.701000 45 53 54
0.097473 -0.020595 0.700000 86 97 95
0.099149 -0.020566 0.699000 111 122 120
0.101108 -0.020595 0.700000 107 120 119
0.102926 -0.020595 0.700000 108 121 120
0.104893 -0.020624 0.701000 42 50 51
0.097334 -0.018748 0.699000 97 107 110
0.099149 -0.018748 0.699000 112 122 125
0.100964 -0.018748 0.699000 109 121 123
0.102926 -0.018775 0.700000 104 116 118
0.104893 -0.018802 0.701000 40 51 51
0.095519 -0.016931 0.699000 41 49 46
0.097334 -0.016931 0.699000 106 118 122
0.099149 -0.016931 0.699000 113 125 129
0.100964 -0.016931 0.699000 121 133 137
0.102926 -0.016955 0.700000 78 90 94
0.095382 -0.015092 0.698000 50 61 57
0.097194 -0.015092 0.698000 114 126 128
0.099007 -0.015092 0.698000 114 126 128
0.100964 -0.015114 0.699000 121 133 135
0.102926 -0.015135 0.700000 66 78 80
0.095382 -0.013277 0.698000 66 77 75
0.097055 -0.013258 0.697000 115 130 129
0.099007 -0.013277 0.698000 119 134 133
0.100819 -0.013277 0.698000 121 131 134
0.102926 -0.013315 0.700000 58 68 71
0.095109 -0.011430 0.696000 80 91 91
0.096916 -0.011430 0.696000 118 131 130
0.098865 -0.011446 0.697000 123 136 135
0.100819 -0.011462 0.698000 118 129 129
0.102926 -0.011495 0.700000 51 62 62
0.095109 -0.009620 0.696000 97 105 106
0.096916 -0.009620 0.696000 126 137 137
0.098723 -0.009620 0.696000 123 134 134
0.100819 -0.009648 0.698000 109 120 120
0.103073 -0.009689 0.701000 43 54 54
0.093168 -0.007799 0.695000 46 57 55
0.094835 -0.007788 0.694000 112 123 121
0.096777 -0.007799 0.695000 127 140 139
0.098723 -0.007810 0.696000 122 135 134
0.100819 -0.007833 0.698000 104 115 115
0.103073 -0.007867 0.701000 38 49 49
0.093034 -0.005984 0.694000 60 71 67
0.094835 -0.005984 0.694000 122 133 129
0.096777 -0.005992 0.695000 122 135 132
0.098723 -0.006001 0.696000 128 141 138
0.100964 -0.006027 0.699000 61 74 73
0.092899 -0.004173 0.693000 72 85 80
0.094699 -0.004173 0.693000 127 140 135
0.096637 -0.004179 0.694000 122 137 134
0.098723 -0.004191 0.696000 123 138 135
0.101108 -0.004215 0.700000 45 58 57
0.091100 -0.002371 0.693000 35 48 43
0.092899 -0.002371 0.693000 96 109 108
0.094699 -0.002371 0.693000 129 142 141
0.096637 -0.002375 0.694000 128 141 140
0.098865 -0.002385 0.697000 113 126 125
0.101108 -0.002395 0.700000 40 53 52
0.091100 -0.000570 0.693000 44 57 54
0.092899 -0.000570 0.693000 118 131 130
0.094699 -0.000570 0.693000 130 143 142
0.096637 -0.000571 0.694000 132 143 143
0.099007 -0.000574 0.698000 95 106 106
0.101253 -0.000576 0.701000 39 50 50
0.090969 0.001230 0.692000 69 82 81
0.092765 0.001230 0.692000 129 142 141
0.094699 0.001232 0.693000 125 138 137
0.096637 0.001234 0.694000 132 143 143
0.099007 0.001241 0.698000 75 86 86
0.090837 0.003025 0.691000 99 112 111
0.092765 0.003029 0.692000 128 141 138
0.094699 0.003034 0.693000 124 137 134
0.096777 0.003043 0.695000 125 138 135
0.099149 0.003060 0.699000 43 56 53
0.089172 0.004829 0.692000 46 59 56
0.090837 0.004822 0.691000 114 127 124
0.092631 0.004822 0.691000 128 141 136
0.094699 0.004836 0.693000 128 141 136
0.096916 0.004857 0.696000 108 121 116
0.099291 0.004884 0.700000 36 49 44
0.089043 0.006618 0.691000 59 70 66
0.090837 0.006618 0.691000 125 136 132
0.092631 0.006618 0.691000 125 138 133
0.094699 0.006637 0.693000 137 150 145
0.097055 0.006676 0.697000 69 81 73
0.099432 0.006714 0.701000 41 53 45
0.088914 0.008403 0.690000 86 94 91
0.090837 0.008415 0.691000 132 140 137
0.092765 0.008427 0.692000 127 141 132
0.094835 0.008451 0.694000 132 146 137
0.097194 0.008500 0.698000 49 63 54
0.087249 0.010211 0.691000 41 48 40
0.088914 0.010197 0.690000 114 123 116
0.090837 0.010211 0.691000 133 142 135
0.092765 0.010226 0.692000 130 144 133
0.095109 0.010285 0.696000 120 134 123
0.097473 0.010344 0.700000 36 50 39
0.087249 0.012008 0.691000 55 64 55
0.088914 0.011991 0.690000 130 139 130
0.090837 0.012008 0.691000 132 141 132
0.092899 0.012043 0.693000 138 150 140
0.095245 0.012112 0.697000 93 105 95
0.097751 0.012199 0.702000 38 52 41
0.087122 0.013784 0.690000 71 81 69
0.088914 0.013784 0.690000 136 148 138
0.090837 0.013804 0.691000 130 142 132
0.092899 0.013844 0.693000 135 147 137
0.095382 0.013944 0.698000 58 70 60
0.085331 0.015578 0.690000 43 53 41
0.087122 0.015578 0.690000 91 101 89
0.088914 0.015578 0.690000 137 150 137
0.090837 0.015601 0.691000 132 145 132
0.085331 0.017372 0.690000 45 57 47
0.086996 0.017347 0.689000 126 138 128
0.089043 0.017398 0.691000 136 150 139
0.090969 0.017423 0.692000 138 152 141
0.085207 0.019139 0.689000 72 84 76
0.086996 0.019139 0.689000 140 152 144
0.089043 0.019194 0.691000 135 149 140
0.091232 0.019277 0.694000 139 153 144
0.084960 0.020869 0.687000 112 124 116
0.086996 0.020930 0.689000 140 152 144
0.089043 0.020991 0.691000 139 151 143
0.091363 0.021112 0.695000 125 137 129
0.083176 0.022655 0.687000 65 72 66
0.084836 0.022622 0.686000 138 147 140
0.087122 0.022754 0.690000 139 148 141
0.089172 0.022820 0.692000 145 156 152
0.082934 0.024370 0.685000 97 104 98
0.084836 0.024406 0.686000 145 154 147
0.087122 0.024548 0.690000 138 147 140
0.089301 0.024655 0.693000 140 151 149
0.081392 0.026228 0.687000 54 63 54
0.082934 0.026151 0.685000 125 134 125
0.085084 0.026266 0.688000 142 154 146
0.087249 0.026380 0.691000 143 155 147
0.081155 0.027932 0.685000 70 82 72
0.083055 0.027973 0.686000 142 154 144
0.085207 0.028095 0.689000 137 151 140
0.087375 0.028218 0.692000 146 160 149
0.079261 0.029670 0.684000 42 51 42
0.081037 0.029670 0.684000 107 119 109
0.083176 0.029800 0.687000 146 158 148
0.085331 0.029930 0.690000 144 158 149
0.087628 0.030104 0.694000 135 149 140
0.079029 0.031356 0.682000 52 64 56
0.081037 0.031448 0.684000 133 145 135
0.083297 0.031632 0.688000 142 154 144
0.085455 0.031770 0.691000 150 159 152
0.087880 0.032000 0.696000 112 121 114
0.079029 0.033129 0.682000 86 97 93
0.081274 0.033324 0.686000 144 156 148
0.083539 0.033518 0.690000 139 151 143
0.085702 0.033664 0.693000 150 156 154
0.077372 0.034954 0.683000 53 66 61
0.079145 0.034954 0.683000 123 136 131
0.081511 0.035210 0.688000 145 157 149
0.083660 0.035363 0.691000 146 158 150
0.077258 0.036676 0.682000 84 95 91
0.079261 0.036783 0.684000 146 157 153
0.081748 0.037106 0.690000 144 155 151
0.083903 0.037267 0.693000 148 159 155
0.075598 0.038505 0.683000 50 59 52
0.077372 0.038505 0.683000 124 135 131
0.079608 0.038731 0.687000 147 158 154
0.081866 0.038956 0.691000 147 158 154
0.075598 0.040281 0.683000 82 93 89
0.077598 0.040399 0.685000 146 160 151
0.079956 0.040694 0.690000 138 152 143
0.082222 0.040930 0.694000 151 162 158
0.073717 0.041995 0.682000 47 59 51
0.075487 0.041995 0.682000 126 138 130
0.077825 0.042303 0.687000 146 160 151
0.080072 0.042549 0.691000 146 160 151
0.082696 0.042980 0.698000 127 140 135
0.073717 0.043768 0.682000 85 99 90
0.075819 0.043961 0.685000 147 161 152
0.078165 0.044282 0.690000 136 152 143
0.080420 0.044539 0.694000 149 165 156
0.084871 0.044988 0.701000 39 52 49
0.071946 0.045542 0.682000 50 62 52
0.073717 0.045542 0.682000 130 144 135
0.075930 0.045809 0.686000 144 158 149
0.078278 0.046143 0.691000 145 159 150
0.071840 0.047245 0.681000 82 93 89
0.073825 0.047384 0.683000 140 156 147
0.076262 0.047800 0.689000 140 156 147
0.078504 0.048078 0.693000 150 164 155
0.070072 0.049016 0.681000 51 64 59
0.071840 0.049016 0.681000 129 142 137
0.074149 0.049376 0.686000 142 157 152
0.076373 0.049664 0.690000 145 160 155
-0.294500 0.054441 0.730000 68 75 67
0.069866 0.050637 0.679000 85 98 93
0.071735 0.050712 0.680000 149 162 157
0.074149 0.051159 0.686000 142 155 150
0.076484 0.051532 0.691000 153 166 161
-0.298291 0.056339 0.730000 85 94 85
-0.296396 0.056339 0.730000 113 120 114
-0.294500 0.056339 0.730000 91 98 92
-0.292605 0.056339 0.730000 18 24 22
-0.290709 0.056339 0.730000 14 20 18
0.068003 0.052326 0.678000 50 62 54
0.069763 0.052326 0.678000 129 142 137
0.071629 0.052403 0.679000 147 160 155
0.074149 0.052943 0.686000 148 160 152
0.076373 0.053252 0.690000 133 145 137
-0.298700 0.058316 0.731000 120 128 125
-0.296802 0.058316 0.731000 128 134 132
-0.294904 0.058316 0.731000 106 112 110
-0.293006 0.058316 0.731000 27 33 31
-0.291107 0.058316 0.731000 12 18 16
-0.288814 0.058237 0.730000 13 19 17
0.068003 0.054088 0.678000 92 101 94
0.069763 0.054088 0.678000 146 160 151
0.071735 0.054248 0.680000 144 158 149
0.074257 0.054806 0.687000 150 164 155
0.076484 0.055125 0.691000 89 103 94
-0.298700 0.060217 0.731000 125 133 134
-0.296802 0.060217 0.731000 135 141 139
-0.294904 0.060217 0.731000 125 131 129
-0.293006 0.060217 0.731000 49 57 56
-0.291107 0.060217 0.731000 8 16 15
-0.289209 0.060217 0.731000 21 27 27
0.066243 0.055851 0.678000 60 72 64
0.068003 0.055851 0.678000 136 148 140
0.069660 0.055769 0.677000 146 160 151
0.071735 0.056016 0.680000 149 163 154
-0.298700 0.062118 0.731000 107 115 116
-0.296802 0.062118 0.731000 145 151 151
-0.294904 0.062118 0.731000 134 140 140
-0.293006 0.062118 0.731000 75 86 84
-0.291107 0.062118 0.731000 10 21 19
-0.289209 0.062118 0.731000 20 28 29
0.066340 0.057699 0.679000 109 121 111
0.067903 0.057529 0.677000 147 159 149
0.069660 0.057529 0.677000 145 159 150
0.071840 0.057869 0.681000 151 165 156
-0.299108 0.064106 0.732000 88 95 99
-0.296802 0.064018 0.731000 145 151 149
-0.294904 0.064018 0.731000 138 144 142
-0.293006 0.064018 0.731000 102 113 111
-0.291107 0.064018 0.731000 17 28 26
-0.289209 0.064018 0.731000 16 27 27
0.064482 0.059377 0.678000 79 90 86
0.066047 0.059201 0.676000 138 150 140
0.069763 0.059377 0.678000 150 162 154
-0.299108 0.066009 0.732000 72 79 83
-0.297208 0.066009 0.732000 146 152 152
-0.294904 0.065919 0.731000 141 147 147
-0.293006 0.065919 0.731000 119 130 126
-0.291107 0.065919 0.731000 37 48 44
-0.289209 0.065919 0.731000 21 34 33
0.064482 0.061139 0.678000 117 129 121
0.066243 0.061139 0.678000 145 157 147
0.067903 0.061049 0.677000 144 156 146
0.069763 0.061139 0.678000 154 161 155
-0.299108 0.067912 0.732000 53 61 62
-0.297208 0.067912 0.732000 137 145 146
-0.295307 0.067912 0.732000 144 152 153
-0.293406 0.067912 0.732000 130 141 137
-0.291107 0.067819 0.731000 69 80 76
-0.289209 0.067819 0.731000 23 34 32
0.062814 0.062995 0.679000 89 103 94
0.064482 0.062902 0.678000 147 161 152
0.066145 0.062809 0.677000 145 159 148
0.067903 0.062809 0.677000 147 161 150
-0.299108 0.069815 0.732000 39 47 48
-0.297208 0.069815 0.732000 118 129 129
-0.295307 0.069815 0.732000 145 156 156
-0.293406 0.069815 0.732000 135 144 137
-0.291506 0.069815 0.732000 84 93 86
-0.289605 0.069815 0.732000 25 36 32
0.062722 0.064665 0.678000 129 144 139
0.064387 0.064569 0.677000 143 158 153
0.066145 0.064569 0.677000 147 161 152
-0.297208 0.071718 0.732000 90 98 99
-0.295307 0.071718 0.732000 147 155 156
-0.293406 0.071718 0.732000 136 143 137
-0.291506 0.071718 0.732000 113 120 114
-0.289605 0.071718 0.732000 35 44 37
0.061141 0.066624 0.680000 101 112 108
0.062722 0.066428 0.678000 143 156 151
0.064387 0.066330 0.677000 144 157 152
-0.297208 0.073621 0.732000 57 65 66
-0.295307 0.073621 0.732000 145 153 154
-0.293406 0.073621 0.732000 142 149 143
-0.291506 0.073621 0.732000 128 135 129
-0.289605 0.073621 0.732000 61 68 62
0.060961 0.068190 0.678000 137 148 144
0.062629 0.068090 0.677000 145 158 153
-0.297208 0.075525 0.732000 43 49 49
-0.295307 0.075525 0.732000 127 133 133
-0.293406 0.075525 0.732000 147 154 148
-0.291506 0.075525 0.732000 139 146 140
-0.289605 0.075525 0.732000 89 98 89
-0.287704 0.075525 0.732000 32 41 32
0.059375 0.070160 0.680000 116 127 123
0.060961 0.069953 0.678000 148 159 155
0.062629 0.069850 0.677000 144 157 154
-0.295307 0.077428 0.732000 94 97 98
-0.293406 0.077428 0.732000 149 157 154
-0.291506 0.077428 0.732000 142 150 147
-0.289605 0.077428 0.732000 115 127 117
-0.287704 0.077428 0.732000 48 60 50
0.057694 0.072033 0.681000 84 93 86
0.059288 0.071822 0.679000 143 154 150
0.060961 0.071716 0.678000 154 165 161
-0.295307 0.079331 0.732000 64 67 68
-0.293406 0.079331 0.732000 149 155 153
-0.291107 0.079223 0.731000 140 146 144
-0.289209 0.079223 0.731000 131 140 131
-0.287704 0.079331 0.732000 82 91 82
0.057525 0.073587 0.679000 131 140 133
0.059201 0.073479 0.678000 144 156 148
-0.295307 0.081234 0.732000 41 47 45
-0.293406 0.081234 0.732000 119 125 123
-0.291107 0.081123 0.731000 146 152 150
-0.289209 0.081123 0.731000 135 142 134
-0.287311 0.081123 0.731000 119 126 118
-0.285804 0.081234 0.732000 36 48 40
0.053999 0.075352 0.679000 53 61 58
0.055680 0.075241 0.678000 112 121 112
0.057440 0.075241 0.678000 145 154 145
-0.293406 0.083137 0.732000 74 77 76
-0.291107 0.083024 0.731000 150 153 152
-0.289209 0.083024 0.731000 147 151 144
-0.287311 0.083024 0.731000 137 141 134
-0.285804 0.083137 0.732000 68 75 67
0.054078 0.077231 0.680000 88 97 90
0.055762 0.077118 0.679000 149 158 149
-0.293406 0.085040 0.732000 46 49 48
-0.291107 0.084924 0.731000 131 134 133
-0.289209 0.084924 0.731000 149 153 146
-0.287311 0.084924 0.731000 143 147 140
-0.285804 0.085040 0.732000 114 122 111
-0.283903 0.085040 0.732000 36 44 33
0.052390 0.079116 0.681000 60 74 65
0.053999 0.078883 0.679000 128 142 133
0.055762 0.078883 0.679000 147 159 149
-0.291506 0.086944 0.732000 88 91 90
-0.289209 0.086825 0.731000 151 155 150
-0.287311 0.086825 0.731000 143 147 142
-0.285804 0.086944 0.732000 132 140 129
-0.283903 0.086944 0.732000 58 66 55
0.050622 0.080886 0.681000 50 60 48
0.052313 0.080767 0.680000 113 127 116
0.054078 0.080767 0.680000 150 164 153
-0.291506 0.088847 0.732000 48 52 47
-0.289605 0.088847 0.732000 137 140 139
-0.287704 0.088847 0.732000 150 153 152
-0.285804 0.088847 0.732000 140 147 139
-0.283903 0.088847 0.732000 100 107 99
-0.282388 0.088968 0.733000 32 41 32
0.050696 0.082778 0.682000 86 95 86
0.052313 0.082535 0.680000 145 160 146
0.054158 0.082657 0.681000 150 165 151
-0.289605 0.090750 0.732000 101 104 105
-0.287704 0.090750 0.732000 152 155 156
-0.285804 0.090750 0.732000 140 147 141
-0.283903 0.090750 0.732000 133 140 134
-0.282388 0.090874 0.733000 61 73 63
0.048997 0.084675 0.683000 76 86 74
0.050622 0.084427 0.681000 134 144 132
0.052313 0.084303 0.680000 150 163 148
-0.289605 0.092653 0.732000 50 53 52
-0.287704 0.092653 0.732000 142 145 144
-0.285804 0.092653 0.732000 146 153 147
-0.283903 0.092653 0.732000 141 148 142
-0.282388 0.092780 0.733000 105 117 107
-0.280484 0.092780 0.733000 32 44 34
0.047293 0.086577 0.684000 55 64 57
0.048925 0.086324 0.682000 121 131 119
0.050622 0.086198 0.681000 148 158 146
0.053159 0.087464 0.691000 150 160 146
-0.287704 0.094556 0.732000 94 97 96
-0.285804 0.094556 0.732000 151 158 152
-0.283903 0.094556 0.732000 148 155 149
-0.282388 0.094685 0.733000 130 139 130
-0.280484 0.094685 0.733000 66 75 66
0.045317 0.087968 0.681000 45 54 45
0.047154 0.088097 0.682000 103 112 103
0.048997 0.088227 0.683000 146 159 144
0.051068 0.088743 0.687000 151 164 149
-0.287704 0.096459 0.732000 53 56 55
-0.285804 0.096459 0.732000 142 145 144
-0.283903 0.096459 0.732000 153 156 155
-0.282388 0.096591 0.733000 140 149 140
-0.280484 0.096591 0.733000 105 114 105
-0.278961 0.096723 0.734000 39 48 41
0.043868 0.090398 0.686000 46 52 50
0.045450 0.090002 0.683000 83 95 85
0.047085 0.089739 0.681000 140 152 142
0.048997 0.090002 0.683000 152 165 152
-0.286194 0.098497 0.733000 86 89 90
-0.284291 0.098497 0.733000 151 154 155
-0.282388 0.098497 0.733000 147 154 146
-0.280484 0.098497 0.733000 131 138 130
-0.278961 0.098631 0.734000 73 80 74
0.043932 0.092316 0.687000 77 85 82
-0.286194 0.100403 0.733000 49 55 53
-0.284291 0.100403 0.733000 126 132 130
-0.282388 0.100403 0.733000 151 158 152
-0.280484 0.100403 0.733000 143 150 144
-0.278961 0.100540 0.734000 110 119 112
-0.277433 0.100677 0.735000 53 62 55
0.042210 0.094239 0.688000 62 74 66
0.043740 0.093691 0.684000 126 138 130
-0.284291 0.102308 0.733000 75 81 81
-0.282388 0.102308 0.733000 150 158 155
-0.280484 0.102308 0.733000 148 156 153
-0.278961 0.102448 0.734000 139 148 139
-0.277055 0.102448 0.734000 92 101 92
-0.275524 0.102588 0.735000 41 49 46
0.040482 0.096167 0.689000 62 73 69
0.042026 0.095609 0.685000 119 132 119
0.043677 0.095330 0.683000 146 159 146
-0.282388 0.104214 0.733000 99 107 106
-0.280484 0.104214 0.733000 149 157 156
-0.278581 0.104214 0.733000 144 153 144
-0.277055 0.104356 0.734000 131 140 131
-0.275150 0.104356 0.734000 63 72 65
-0.273988 0.104641 0.736000 35 44 37
0.038749 0.098101 0.690000 52 64 54
0.040365 0.097674 0.687000 116 128 118
0.042026 0.097390 0.685000 149 159 145
0.043932 0.097674 0.687000 156 166 152
-0.282773 0.106265 0.734000 54 62 61
-0.280484 0.106120 0.733000 133 141 140
-0.278581 0.106120 0.733000 149 158 151
-0.277055 0.106265 0.734000 145 154 147
-0.275150 0.106265 0.734000 114 123 116
-0.273616 0.106410 0.735000 57 66 59
0.037011 0.100039 0.691000 48 59 55
0.038693 0.099750 0.689000 111 124 111
0.040365 0.099460 0.687000 146 159 146
0.042087 0.099316 0.686000 161 171 157
-0.280867 0.108173 0.734000 85 91 89
-0.278581 0.108026 0.733000 156 163 157
-0.277055 0.108173 0.734000 151 158 152
-0.275150 0.108173 0.734000 145 154 145
-0.273244 0.108173 0.734000 92 101 92
-0.272077 0.108468 0.736000 41 50 43
0.035472 0.102573 0.696000 48 56 53
0.036958 0.101689 0.690000 100 108 105
0.038693 0.101541 0.689000 144 157 144
0.040423 0.101394 0.688000 151 164 151
-0.280867 0.110082 0.734000 46 50 45
-0.278961 0.110082 0.734000 123 126 125
-0.277055 0.110082 0.734000 155 158 157
-0.274775 0.109932 0.733000 150 159 150
-0.273244 0.110082 0.734000 127 136 127
-0.271708 0.110231 0.735000 68 77 68
-0.270533 0.110531 0.737000 39 48 39
0.033762 0.104682 0.698000 47 55 52
0.035166 0.103483 0.690000 93 105 97
0.036958 0.103483 0.690000 143 155 147
0.038637 0.103183 0.688000 158 171 158
-0.278961 0.111990 0.734000 73 77 72
-0.277055 0.111990 0.734000 145 149 144
-0.275150 0.111990 0.734000 153 161 150
-0.273244 0.111990 0.734000 146 154 143
-0.271708 0.112142 0.735000 109 119 107
-0.270166 0.112295 0.736000 48 58 46
0.031995 0.106650 0.699000 43 54 50
0.033423 0.105429 0.691000 89 100 96
0.035166 0.105277 0.690000 140 153 140
0.036958 0.105277 0.690000 154 167 154
-0.277055 0.113898 0.734000 93 100 94
-0.275150 0.113898 0.734000 146 155 146
-0.273244 0.113898 0.734000 153 162 153
-0.271338 0.113898 0.734000 130 140 126
-0.269799 0.114053 0.735000 93 103 89
-0.268620 0.114364 0.737000 52 61 52
0.030223 0.108622 0.700000 47 53 51
0.031949 0.108312 0.698000 90 102 94
0.033762 0.108312 0.698000 143 155 147
0.035319 0.107536 0.693000 152 165 152
0.037654 0.109088 0.703000 158 171 158
-0.277810 0.116122 0.736000 45 54 45
-0.275150 0.115807 0.734000 107 116 109
-0.273244 0.115807 0.734000 153 162 155
-0.271708 0.115964 0.735000 147 157 145
-0.269799 0.115964 0.735000 130 140 128
-0.268620 0.116280 0.737000 86 95 86
-0.267430 0.116595 0.739000 46 55 46
0.028446 0.110600 0.701000 42 50 47
0.030050 0.109811 0.696000 90 98 95
0.031812 0.109653 0.695000 142 154 146
0.033665 0.109811 0.696000 158 170 162
0.035676 0.110442 0.700000 159 173 164
-0.275899 0.118036 0.736000 48 55 49
-0.273616 0.117875 0.735000 128 135 129
-0.271708 0.117875 0.735000 152 161 154
-0.270166 0.118036 0.736000 142 151 144
-0.268620 0.118196 0.737000 126 136 124
-0.267430 0.118517 0.739000 68 78 66
0.026664 0.112583 0.702000 46 52 50
0.028284 0.111781 0.697000 89 97 94
0.029921 0.111140 0.693000 146 154 151
0.031720 0.111140 0.693000 154 168 159
0.033665 0.111621 0.696000 160 174 165
-0.274361 0.120112 0.737000 72 76 71
-0.272077 0.119949 0.736000 147 154 148
-0.270166 0.119949 0.736000 151 158 152
-0.268620 0.120112 0.737000 146 156 144
-0.267430 0.120438 0.739000 88 98 86
0.024877 0.114571 0.703000 50 56 54
0.026550 0.113919 0.699000 96 102 100
0.028162 0.113104 0.694000 143 155 147
0.029878 0.112778 0.692000 155 167 159
0.031812 0.113267 0.695000 159 173 164
-0.272447 0.122028 0.737000 84 90 88
-0.270533 0.122028 0.737000 148 154 152
-0.268984 0.122194 0.738000 146 156 144
-0.267430 0.122360 0.739000 132 142 130
-0.264306 0.122691 0.741000 41 51 39
0.023051 0.116399 0.703000 47 53 53
0.024770 0.115902 0.700000 105 111 109
0.026398 0.115074 0.695000 149 155 153
0.028122 0.114743 0.693000 154 166 156
0.029964 0.114909 0.694000 160 172 162
-0.273186 0.124281 0.739000 50 56 54
-0.271267 0.124281 0.739000 111 117 115
-0.269349 0.124281 0.739000 152 161 154
-0.267430 0.124281 0.739000 148 157 150
-0.265870 0.124449 0.740000 112 125 112
-0.262736 0.124785 0.742000 40 52 44
0.021256 0.118395 0.704000 45 53 52
0.023019 0.118058 0.702000 93 101 100
0.024735 0.117554 0.699000 147 155 152
0.026436 0.117049 0.696000 154 162 159
0.028568 0.118395 0.704000 157 169 159
-0.272002 0.126544 0.741000 55 61 59
-0.269349 0.126202 0.739000 128 136 135
-0.267430 0.126202 0.739000 153 161 160
-0.265870 0.126373 0.740000 138 150 140
-0.262381 0.126544 0.741000 54 66 58
0.019483 0.120567 0.706000 47 53 53
0.021256 0.120225 0.704000 91 99 98
0.023019 0.119884 0.702000 144 152 151
0.024912 0.120225 0.704000 154 165 161
0.026930 0.121079 0.709000 157 168 164
-0.270078 0.128470 0.741000 71 77 79
-0.268154 0.128470 0.741000 148 154 156
-0.265870 0.128297 0.740000 156 165 158
-0.264306 0.128470 0.741000 130 139 132
-0.262381 0.128470 0.741000 96 105 96
-0.260809 0.128644 0.742000 53 62 53
0.017725 0.122922 0.709000 51 57 57
0.019511 0.122576 0.707000 93 99 99
0.021317 0.122402 0.706000 142 153 151
0.023281 0.123096 0.710000 154 165 163
0.027082 0.123616 0.713000 142 153 151
-0.268515 0.130573 0.742000 84 87 88
-0.266230 0.130397 0.741000 154 162 161
-0.264306 0.130397 0.741000 156 164 163
-0.262381 0.130397 0.741000 140 149 140
-0.260809 0.130573 0.742000 88 97 88
-0.259231 0.130749 0.743000 42 50 39
0.015996 0.125646 0.714000 48 56 55
0.017825 0.125470 0.713000 103 111 110
0.019621 0.125118 0.711000 148 156 155
0.021467 0.125118 0.711000 156 169 166
0.023379 0.125470 0.713000 156 169 166
0.025372 0.126174 0.717000 136 147 145
-0.269601 0.133038 0.745000 45 48 47
-0.267307 0.132859 0.744000 103 111 112
-0.265019 0.132681 0.743000 156 164 165
-0.262736 0.132502 0.742000 150 162 152
-0.260809 0.132502 0.742000 119 131 121
-0.259231 0.132681 0.743000 92 102 90
-0.257648 0.132859 0.744000 46 56 44
0.014202 0.128038 0.717000 69 77 74
0.015996 0.127502 0.714000 106 114 111
0.017850 0.127502 0.714000 148 159 155
0.019732 0.127681 0.715000 157 168 164
0.021649 0.128038 0.717000 159 172 169
0.023543 0.128216 0.718000 139 152 149
-0.267667 0.134975 0.745000 57 65 66
-0.265376 0.134794 0.744000 121 129 130
-0.263090 0.134612 0.743000 157 169 161
-0.261160 0.134612 0.743000 153 165 157
-0.259231 0.134612 0.743000 126 139 126
-0.257302 0.134612 0.743000 76 89 76
-0.255717 0.134794 0.744000 41 50 41
0.012340 0.129902 0.717000 66 74 71
0.014182 0.129721 0.716000 119 128 121
0.016019 0.129540 0.715000 150 159 152
0.017925 0.129902 0.717000 157 169 161
0.019787 0.129902 0.717000 159 171 163
0.021709 0.130264 0.719000 137 148 146
0.025832 0.132257 0.730000 42 50 47
-0.266089 0.137095 0.746000 52 60 57
-0.263444 0.136728 0.744000 129 142 139
-0.261512 0.136728 0.744000 154 167 164
-0.259231 0.136544 0.743000 146 161 147
-0.257302 0.136544 0.743000 116 131 117
-0.255717 0.136728 0.744000 69 81 71
0.010493 0.131950 0.718000 74 83 76
0.012340 0.131766 0.717000 128 137 130
0.014202 0.131766 0.717000 153 162 153
0.016064 0.131766 0.717000 160 169 160
0.017975 0.132134 0.719000 160 169 162
0.019925 0.132685 0.722000 128 137 130
0.023969 0.134339 0.731000 37 48 46
-0.264152 0.139035 0.746000 57 68 66
-0.261863 0.138849 0.745000 133 144 142
-0.259580 0.138662 0.744000 160 174 165
-0.257302 0.138476 0.743000 150 164 155
-0.255717 0.138662 0.744000 124 137 124
-0.253785 0.138662 0.744000 70 83 70
-0.252191 0.138849 0.745000 32 44 34
0.008629 0.133817 0.718000 82 91 84
0.010478 0.133630 0.717000 133 145 135
0.012357 0.133817 0.718000 153 165 155
0.014222 0.133817 0.718000 157 166 157
0.016153 0.134376 0.721000 159 168 159
0.018150 0.135308 0.726000 107 115 112
0.020146 0.136053 0.730000 49 57 54
-0.262215 0.140975 0.746000 72 80 79
-0.259929 0.140786 0.745000 148 158 161
-0.257648 0.140597 0.744000 161 171 174
-0.255717 0.140597 0.744000 155 167 157
-0.253785 0.140597 0.744000 118 130 120
-0.251853 0.140597 0.744000 66 75 66
-0.250257 0.140786 0.745000 41 50 41
0.004921 0.136250 0.721000 54 63 56
0.006774 0.135872 0.719000 98 107 98
0.008629 0.135683 0.718000 138 147 138
0.010508 0.135872 0.719000 151 163 153
0.012409 0.136250 0.721000 159 171 161
0.014360 0.137006 0.725000 152 160 159
0.018300 0.138329 0.732000 56 64 61
-0.260278 0.142914 0.746000 85 92 96
-0.257995 0.142723 0.745000 157 164 168
-0.256060 0.142723 0.745000 160 171 167
-0.253785 0.142531 0.744000 151 162 158
-0.251853 0.142531 0.744000 112 121 112
-0.250257 0.142723 0.745000 59 68 59
-0.248323 0.142723 0.745000 39 46 38
0.003049 0.138125 0.721000 62 71 62
0.004914 0.137933 0.720000 107 116 107
0.006774 0.137742 0.719000 147 156 147
0.008665 0.138125 0.721000 155 164 155
0.010581 0.138700 0.724000 156 165 156
-0.258341 0.144854 0.746000 92 98 100
-0.256404 0.144854 0.746000 162 168 170
-0.254126 0.144660 0.745000 168 174 176
-0.252191 0.144660 0.745000 152 161 152
-0.249921 0.144465 0.744000 106 115 106
-0.248323 0.144660 0.745000 68 75 67
-0.246719 0.144854 0.746000 40 47 39
-0.000701 0.141164 0.727000 45 59 50
0.001181 0.140582 0.724000 78 92 83
0.003057 0.140388 0.723000 125 137 127
0.004934 0.140388 0.723000 147 159 149
0.006821 0.140582 0.724000 156 166 154
0.008749 0.141359 0.728000 161 171 159
-0.256404 0.146793 0.746000 91 96 101
-0.254467 0.146793 0.746000 161 166 171
-0.252530 0.146793 0.746000 166 175 166
-0.250257 0.146597 0.745000 147 156 147
-0.248323 0.146597 0.745000 111 120 111
-0.246388 0.146597 0.745000 68 77 68
-0.244782 0.146793 0.746000 46 53 47
-0.002603 0.143842 0.731000 72 83 81
-0.000702 0.143251 0.728000 115 129 120
0.001186 0.143055 0.727000 141 155 146
0.003074 0.143055 0.727000 151 165 154
0.004975 0.143448 0.729000 154 168 157
0.008785 0.143842 0.731000 116 125 116
-0.256748 0.148932 0.747000 41 47 49
-0.254467 0.148733 0.746000 86 92 94
-0.252530 0.148733 0.746000 160 168 167
-0.250593 0.148733 0.746000 167 175 174
-0.248323 0.148533 0.745000 148 157 148
-0.246388 0.148533 0.745000 120 129 120
-0.244782 0.148733 0.746000 71 78 72
-0.242845 0.148733 0.746000 43 50 44
-0.004501 0.145742 0.731000 93 106 101
-0.002603 0.145742 0.731000 131 144 139
-0.000703 0.145343 0.729000 152 166 155
0.001191 0.145543 0.730000 152 166 155
0.004989 0.145742 0.731000 149 158 149
0.006906 0.146141 0.733000 99 102 101
-0.254808 0.150874 0.747000 42 48 50
-0.252530 0.150672 0.746000 86 93 97
-0.250593 0.150672 0.746000 155 162 166
-0.248656 0.150672 0.746000 170 177 171
-0.246719 0.150672 0.746000 156 163 157
-0.244782 0.150672 0.746000 113 121 110
-0.242845 0.150672 0.746000 80 88 77
-0.240908 0.150672 0.746000 42 49 41
-0.008309 0.147845 0.732000 66 78 70
-0.006408 0.147845 0.732000 110 122 114
-0.004501 0.147643 0.731000 136 152 143
-0.002603 0.147643 0.731000 145 161 152
-0.000705 0.147643 0.731000 154 168 157
0.001194 0.147845 0.732000 153 167 156
0.003099 0.148047 0.733000 125 132 126
-0.252868 0.152817 0.747000 39 45 45
-0.250929 0.152817 0.747000 85 91 91
-0.248656 0.152612 0.746000 151 157 155
-0.246719 0.152612 0.746000 174 180 178
-0.244782 0.152612 0.746000 155 163 152
-0.242845 0.152612 0.746000 128 136 125
-0.240908 0.152612 0.746000 81 86 76
-0.239291 0.152817 0.747000 48 53 43
-0.012143 0.150157 0.734000 55 63 60
-0.010209 0.149748 0.732000 89 97 94
-0.008309 0.149748 0.732000 125 139 130
-0.006408 0.149748 0.732000 146 160 151
-0.004508 0.149748 0.732000 153 167 156
-0.002607 0.149748 0.732000 154 168 157
-0.000707 0.149952 0.733000 142 151 144
-0.251265 0.154966 0.748000 34 41 35
-0.248989 0.154759 0.747000 68 75 69
-0.246719 0.154552 0.746000 143 150 144
-0.244782 0.154552 0.746000 169 179 167
-0.242845 0.154552 0.746000 160 170 158
-0.240908 0.154552 0.746000 120 128 115
-0.238971 0.154552 0.746000 84 92 79
-0.237352 0.154759 0.747000 50 55 45
-0.015977 0.152273 0.735000 48 56 53
-0.014049 0.152065 0.734000 74 82 79
-0.012127 0.151858 0.733000 110 121 117
-0.010209 0.151651 0.732000 143 154 150
-0.008309 0.151651 0.732000 153 166 161
-0.006417 0.151858 0.733000 157 170 165
-0.004520 0.152065 0.734000 148 160 152
-0.002621 0.152480 0.736000 108 120 112
-0.000713 0.153101 0.739000 57 61 54
0.001212 0.153930 0.743000 46 50 43
-0.247050 0.156701 0.747000 64 71 65
-0.245110 0.156701 0.747000 142 151 144
-0.243170 0.156701 0.747000 169 178 171
-0.240908 0.156491 0.746000 154 164 150
-0.239291 0.156701 0.747000 116 126 112
-0.237352 0.156701 0.747000 87 95 84
-0.235727 0.156911 0.748000 55 63 52
-0.017885 0.154184 0.735000 75 81 79
-0.015955 0.153974 0.734000 109 120 116
-0.014030 0.153764 0.733000 137 148 144
-0.012127 0.153764 0.733000 150 164 155
-0.010223 0.153764 0.733000 153 167 158
-0.008332 0.153974 0.734000 155 166 162
-0.006443 0.154393 0.736000 130 141 137
-0.004551 0.155023 0.739000 82 89 83
-0.000720 0.156491 0.746000 51 55 48
-0.245438 0.158855 0.748000 63 66 65
-0.243496 0.158855 0.748000 134 137 136
-0.241231 0.158643 0.747000 164 171 163
-0.239291 0.158643 0.747000 161 168 160
-0.237352 0.158643 0.747000 131 139 128
-0.235412 0.158643 0.747000 91 99 88
-0.233785 0.158855 0.748000 73 80 74
-0.021820 0.156944 0.739000 60 66 64
-0.019847 0.156519 0.737000 98 106 103
-0.017885 0.156095 0.735000 130 138 135
-0.015955 0.155882 0.734000 151 163 155
-0.014049 0.155882 0.734000 159 171 163
-0.012160 0.156095 0.735000 161 173 165
-0.010265 0.156307 0.736000 151 163 155
-0.008388 0.156944 0.739000 107 113 111
-0.006504 0.157794 0.743000 54 60 58
-0.004594 0.158431 0.746000 43 47 42
-0.243822 0.161015 0.749000 56 62 60
-0.241554 0.160800 0.748000 112 118 118
-0.239612 0.160800 0.748000 165 171 171
-0.237669 0.160800 0.748000 160 168 157
-0.235727 0.160800 0.748000 131 139 128
-0.233785 0.160800 0.748000 105 109 102
-0.231843 0.160800 0.748000 87 91 84
-0.230208 0.161015 0.749000 44 50 48
-0.025831 0.159940 0.744000 55 61 63
-0.023835 0.159510 0.742000 89 97 94
-0.021820 0.158865 0.739000 120 128 125
-0.019901 0.158865 0.739000 146 158 148
-0.017958 0.158650 0.738000 155 167 157
-0.016042 0.158650 0.738000 158 170 160
-0.014145 0.158865 0.739000 155 167 157
-0.012259 0.159295 0.741000 126 134 133
-0.010363 0.159725 0.743000 79 87 86
-0.008456 0.160155 0.745000 46 53 47
-0.006540 0.160585 0.747000 43 50 44
-0.242200 0.163180 0.750000 48 54 54
-0.239932 0.162962 0.749000 84 90 90
-0.237669 0.162745 0.748000 151 157 157
-0.235727 0.162745 0.748000 171 177 177
-0.233785 0.162745 0.748000 145 149 142
-0.231843 0.162745 0.748000 109 113 106
-0.229901 0.162745 0.748000 94 101 95
-0.228263 0.162962 0.749000 61 68 62
-0.029775 0.162310 0.746000 48 56 57
-0.027838 0.162310 0.746000 75 83 84
-0.025866 0.162092 0.745000 112 120 121
-0.023867 0.161657 0.743000 137 149 141
-0.021909 0.161439 0.742000 154 166 158
-0.019982 0.161439 0.742000 160 169 160
-0.018055 0.161439 0.742000 157 166 157
-0.016151 0.161657 0.743000 129 140 136
-0.014260 0.162092 0.745000 79 90 86
-0.012342 0.162310 0.746000 47 53 51
-0.010419 0.162527 0.747000 41 47 45
-0.240573 0.165350 0.751000 47 53 53
-0.238305 0.165130 0.750000 70 73 76
-0.236357 0.165130 0.750000 138 141 144
-0.234098 0.164910 0.749000 161 167 165
-0.232153 0.164910 0.749000 154 160 158
-0.230208 0.164910 0.749000 118 125 117
-0.228263 0.164910 0.749000 107 114 106
-0.226318 0.164910 0.749000 63 70 62
-0.224673 0.165130 0.750000 43 50 42
-0.033694 0.164469 0.747000 51 57 55
-0.031712 0.164249 0.746000 64 72 71
-0.029775 0.164249 0.746000 106 114 113
-0.027838 0.164249 0.746000 134 142 139
-0.025901 0.164249 0.746000 152 160 157
-0.023932 0.164029 0.745000 155 167 159
-0.021997 0.164029 0.745000 157 169 161
-0.020090 0.164249 0.746000 142 151 144
-0.018153 0.164249 0.746000 95 104 97
-0.016216 0.164249 0.746000 60 64 59
-0.014298 0.164469 0.747000 48 52 47
-0.012391 0.164910 0.749000 50 54 49
-0.236988 0.167526 0.752000 57 63 61
-0.234723 0.167303 0.751000 120 123 124
-0.232463 0.167080 0.750000 159 162 163
-0.230208 0.166857 0.749000 159 163 156
-0.228263 0.166857 0.749000 149 153 146
-0.226318 0.166857 0.749000 120 127 119
-0.224673 0.167080 0.750000 80 87 79
-0.222726 0.167080 0.750000 50 58 47
-0.035681 0.166634 0.748000 66 74 73
-0.033694 0.166412 0.747000 102 110 109
-0.031712 0.166189 0.746000 137 145 142
-0.029775 0.166189 0.746000 152 160 157
-0.027838 0.166189 0.746000 152 164 156
-0.025901 0.166189 0.746000 154 166 158
-0.023964 0.166189 0.746000 154 163 154
-0.022027 0.166189 0.746000 117 126 117
-0.020117 0.166412 0.747000 67 68 64
-0.018201 0.166634 0.748000 48 49 45
-0.016303 0.167080 0.750000 52 53 49
-0.235348 0.169706 0.753000 48 54 54
-0.233083 0.169481 0.752000 94 100 100
-0.230823 0.169255 0.751000 152 155 154
-0.228568 0.169030 0.750000 165 168 167
-0.226621 0.169030 0.750000 161 169 158
-0.224673 0.169030 0.750000 141 149 138
-0.222726 0.169030 0.750000 106 114 103
-0.221073 0.169255 0.751000 65 73 62
-0.219415 0.169481 0.752000 40 47 39
-0.041619 0.169030 0.750000 40 47 39
-0.039618 0.168805 0.749000 61 69 68
-0.037623 0.168579 0.748000 92 100 99
-0.035681 0.168579 0.748000 129 140 136
-0.033694 0.168354 0.747000 147 158 154
-0.031754 0.168354 0.747000 156 165 156
-0.029815 0.168354 0.747000 161 170 161
-0.027912 0.168579 0.748000 157 164 158
-0.025970 0.168579 0.748000 127 134 128
-0.024028 0.168579 0.748000 75 79 74
-0.022115 0.168805 0.749000 48 52 47
-0.234012 0.172120 0.755000 44 50 48
-0.231745 0.171892 0.754000 67 70 71
-0.229482 0.171664 0.753000 134 137 138
-0.227225 0.171436 0.752000 164 168 161
-0.225272 0.171436 0.752000 163 167 160
-0.223320 0.171436 0.752000 148 156 141
-0.221367 0.171436 0.752000 115 123 108
-0.219415 0.171436 0.752000 76 86 74
-0.217751 0.171664 0.753000 57 67 55
-0.045696 0.171664 0.753000 43 53 41
-0.043624 0.171208 0.751000 64 72 69
-0.041619 0.170980 0.750000 93 101 98
-0.039618 0.170752 0.749000 126 134 131
-0.037623 0.170524 0.748000 144 152 149
-0.035681 0.170524 0.748000 156 164 161
-0.033739 0.170524 0.748000 164 172 169
-0.029895 0.170752 0.749000 128 137 130
-0.027987 0.170980 0.750000 81 84 83
-0.026040 0.170980 0.750000 48 51 50
-0.024157 0.171436 0.752000 44 48 43
-0.230396 0.174313 0.756000 48 54 52
-0.228131 0.174083 0.755000 108 114 112
-0.226171 0.174083 0.755000 149 155 153
-0.223914 0.173852 0.754000 160 170 156
-0.221662 0.173622 0.753000 148 158 144
-0.219706 0.173622 0.753000 112 122 108
-0.218040 0.173852 0.754000 95 105 91
-0.216083 0.173852 0.754000 71 81 69
-0.214409 0.174083 0.755000 49 59 47
-0.049804 0.174313 0.756000 41 52 48
-0.047777 0.174083 0.755000 53 64 60
-0.045696 0.173622 0.753000 81 92 88
-0.043682 0.173391 0.752000 127 136 129
-0.041619 0.172930 0.750000 141 150 143
-0.039671 0.172930 0.750000 153 162 155
-0.037724 0.172930 0.750000 160 169 162
-0.035777 0.172930 0.750000 156 164 161
-0.033829 0.172930 0.750000 131 139 136
-0.031924 0.173160 0.751000 85 93 92
-0.030054 0.173622 0.753000 48 56 55
-0.028174 0.174083 0.755000 43 49 47
-0.229038 0.176745 0.758000 44 51 45
-0.226770 0.176512 0.757000 72 79 73
-0.224508 0.176279 0.756000 125 134 127
-0.222250 0.176046 0.755000 154 163 156
-0.220290 0.176046 0.755000 155 165 151
-0.218330 0.176046 0.755000 132 142 128
-0.216369 0.176046 0.755000 115 123 110
-0.214409 0.176046 0.755000 97 105 92
-0.212730 0.176279 0.756000 65 73 60
-0.210767 0.176279 0.756000 41 49 36
-0.053943 0.176978 0.759000 46 54 51
-0.051903 0.176745 0.758000 60 73 70
-0.049804 0.176279 0.756000 90 103 100
-0.047777 0.176046 0.755000 124 137 134
-0.045756 0.175812 0.754000 144 157 154
-0.043682 0.175346 0.752000 155 163 160
-0.041730 0.175346 0.752000 160 168 165
-0.039777 0.175346 0.752000 157 163 161
-0.037825 0.175346 0.752000 136 142 140
-0.035920 0.175579 0.753000 90 98 97
-0.034010 0.175812 0.754000 47 55 54
-0.032094 0.176046 0.755000 39 45 45
-0.225102 0.178716 0.758000 49 57 54
-0.222839 0.178480 0.757000 92 100 97
-0.220582 0.178244 0.756000 139 146 140
-0.218619 0.178244 0.756000 160 167 161
-0.216369 0.178009 0.755000 154 162 149
-0.214693 0.178244 0.756000 136 144 131
-0.212730 0.178244 0.756000 112 120 107
-0.210767 0.178244 0.756000 86 94 81
-0.209080 0.178480 0.757000 53 62 53
-0.207388 0.178716 0.758000 39 48 39
-0.058037 0.179423 0.761000 47 55 52
-0.055987 0.179187 0.760000 68 79 77
-0.053943 0.178952 0.759000 104 115 113
-0.051903 0.178716 0.758000 129 144 143
-0.049869 0.178480 0.757000 143 158 157
-0.047841 0.178244 0.756000 149 164 163
-0.045817 0.178009 0.755000 154 169 168
-0.043857 0.178009 0.755000 160 168 167
-0.041896 0.178009 0.755000 144 152 151
-0.039989 0.178244 0.756000 97 103 103
-0.038026 0.178244 0.756000 54 60 60
-0.036111 0.178480 0.757000 41 47 47
-0.223428 0.180925 0.759000 43 52 45
-0.221165 0.180687 0.758000 60 66 66
-0.218908 0.180448 0.757000 97 103 103
-0.216942 0.180448 0.757000 154 155 151
-0.214693 0.180210 0.756000 165 166 162
-0.212730 0.180210 0.756000 155 163 152
-0.211046 0.180448 0.757000 146 154 143
-0.209080 0.180448 0.757000 113 122 113
-0.207388 0.180687 0.758000 84 93 84
-0.205420 0.180687 0.758000 63 72 65
-0.203720 0.180925 0.759000 43 52 45
-0.202015 0.181163 0.760000 40 47 39
-0.064049 0.181640 0.762000 42 50 47
-0.062070 0.181640 0.762000 53 61 58
-0.060013 0.181402 0.761000 75 86 84
-0.058037 0.181402 0.761000 107 118 116
-0.055987 0.181163 0.760000 129 142 141
-0.054014 0.181163 0.760000 146 159 158
-0.051972 0.180925 0.759000 150 165 164
-0.049935 0.180687 0.758000 154 169 168
-0.047967 0.180687 0.758000 158 168 171
-0.045999 0.180687 0.758000 140 150 153
-0.044031 0.180687 0.758000 86 92 94
-0.042063 0.180687 0.758000 56 62 64
-0.040147 0.180925 0.759000 42 50 47
-0.219486 0.182898 0.759000 46 52 50
-0.217515 0.182898 0.759000 74 77 78
-0.215261 0.182657 0.758000 119 122 123
-0.213293 0.182657 0.758000 157 161 156
-0.211324 0.182657 0.758000 164 168 163
-0.209356 0.182657 0.758000 152 161 152
-0.207388 0.182657 0.758000 135 144 135
-0.205691 0.182898 0.759000 105 117 107
-0.203720 0.182898 0.759000 100 112 102
-0.201749 0.182898 0.759000 72 84 76
-0.200042 0.183139 0.760000 50 62 54
-0.198069 0.183139 0.760000 36 45 38
-0.068095 0.183862 0.763000 43 51 50
-0.066027 0.183621 0.762000 59 67 66
-0.064049 0.183621 0.762000 80 93 90
-0.062070 0.183621 0.762000 110 123 120
-0.060013 0.183380 0.761000 134 147 144
-0.058037 0.183380 0.761000 147 160 157
-0.056061 0.183380 0.761000 154 165 165
-0.054014 0.183139 0.760000 157 168 168
-0.052040 0.183139 0.760000 152 163 163
-0.050067 0.183139 0.760000 128 139 139
-0.048094 0.183139 0.760000 89 94 99
-0.046120 0.183139 0.760000 57 62 67
-0.044205 0.183380 0.761000 47 53 53
-0.215829 0.185115 0.760000 53 56 59
-0.213574 0.184872 0.759000 77 80 83
-0.211603 0.184872 0.759000 129 132 135
-0.209632 0.184872 0.759000 154 161 155
-0.207662 0.184872 0.759000 158 165 159
-0.205691 0.184872 0.759000 148 158 146
-0.203989 0.185115 0.760000 133 143 131
-0.202015 0.185115 0.760000 106 115 106
-0.200042 0.185115 0.760000 111 120 111
-0.198069 0.185115 0.760000 89 101 93
-0.196095 0.185115 0.760000 60 72 64
-0.194122 0.185115 0.760000 38 46 43
-0.074135 0.186090 0.764000 41 49 48
-0.072057 0.185846 0.763000 55 66 64
-0.070076 0.185846 0.763000 81 92 90
-0.068095 0.185846 0.763000 105 113 110
-0.066114 0.185846 0.763000 127 135 132
-0.064049 0.185603 0.762000 142 155 150
-0.062070 0.185603 0.762000 153 166 161
-0.060013 0.185359 0.761000 158 169 167
-0.058037 0.185359 0.761000 157 168 166
-0.056061 0.185359 0.761000 147 155 156
-0.054085 0.185359 0.761000 116 124 125
-0.052109 0.185359 0.761000 71 76 81
-0.050133 0.185359 0.761000 48 53 58
-0.048157 0.185359 0.761000 42 48 50
-0.212161 0.187337 0.761000 43 46 47
-0.210185 0.187337 0.761000 65 71 69
-0.208209 0.187337 0.761000 117 123 121
-0.205962 0.187091 0.760000 147 154 148
-0.204257 0.187337 0.761000 156 163 157
-0.202281 0.187337 0.761000 149 159 147
-0.200305 0.187337 0.761000 133 143 131
-0.198329 0.187337 0.761000 116 130 119
-0.196353 0.187337 0.761000 113 127 116
-0.194377 0.187337 0.761000 83 94 90
-0.192401 0.187337 0.761000 65 76 72
-0.190425 0.187337 0.761000 42 49 43
-0.188449 0.187337 0.761000 35 42 36
-0.080191 0.188322 0.765000 39 42 41
-0.078205 0.188322 0.765000 46 49 48
-0.076119 0.188076 0.764000 67 75 72
-0.074135 0.188076 0.764000 102 110 107
-0.072152 0.188076 0.764000 128 137 130
-0.070168 0.188076 0.764000 144 153 146
-0.068095 0.187830 0.763000 150 159 152
-0.066114 0.187830 0.763000 160 169 162
-0.064133 0.187830 0.763000 160 171 167
-0.062070 0.187584 0.762000 157 168 164
-0.060092 0.187584 0.762000 142 153 153
-0.058113 0.187584 0.762000 100 111 111
-0.056134 0.187584 0.762000 61 72 72
-0.054156 0.187584 0.762000 41 52 52
-0.052177 0.187584 0.762000 46 49 50
-0.208209 0.189316 0.761000 41 45 40
-0.206233 0.189316 0.761000 53 57 52
-0.204257 0.189316 0.761000 95 99 94
-0.202281 0.189316 0.761000 133 140 132
-0.200305 0.189316 0.761000 155 162 154
-0.198329 0.189316 0.761000 154 166 156
-0.196353 0.189316 0.761000 146 158 148
-0.194377 0.189316 0.761000 134 143 136
-0.192401 0.189316 0.761000 127 136 129
-0.190425 0.189316 0.761000 110 117 109
-0.188449 0.189316 0.761000 92 99 91
-0.186718 0.189565 0.762000 78 85 77
-0.184740 0.189565 0.762000 56 63 55
-0.182761 0.189565 0.762000 39 46 40
-0.180783 0.189565 0.762000 34 41 35
-0.088598 0.191306 0.769000 34 43 34
-0.086488 0.191057 0.768000 34 43 34
-0.084274 0.190560 0.766000 48 55 47
-0.082285 0.190560 0.766000 65 72 64
-0.080296 0.190560 0.766000 86 93 85
-0.078307 0.190560 0.766000 114 121 113
-0.076219 0.190311 0.765000 137 146 139
-0.074232 0.190311 0.765000 142 151 144
-0.072246 0.190311 0.765000 150 159 152
-0.070168 0.190062 0.764000 155 164 157
-0.068184 0.190062 0.764000 159 170 166
-0.066200 0.190062 0.764000 151 162 158
-0.064217 0.190062 0.764000 116 127 127
-0.062152 0.189814 0.763000 81 92 92
-0.060170 0.189814 0.763000 47 58 58
-0.058189 0.189814 0.763000 38 49 49
-0.204525 0.191546 0.762000 45 46 42
-0.202547 0.191546 0.762000 54 55 51
-0.200568 0.191546 0.762000 88 89 85
-0.198590 0.191546 0.762000 124 133 126
-0.196611 0.191546 0.762000 150 159 152
-0.194633 0.191546 0.762000 159 167 164
-0.192654 0.191546 0.762000 160 168 165
-0.190425 0.191295 0.761000 152 161 154
-0.188697 0.191546 0.762000 141 150 143
-0.186718 0.191546 0.762000 117 124 116
-0.184740 0.191546 0.762000 107 114 106
-0.182761 0.191546 0.762000 109 118 109
-0.180783 0.191546 0.762000 93 102 93
-0.178804 0.191546 0.762000 65 72 66
-0.177058 0.191797 0.763000 43 50 44
-0.175077 0.191797 0.763000 36 45 38
-0.173096 0.191797 0.763000 34 43 36
-0.094834 0.193808 0.771000 31 40 31
-0.092832 0.193808 0.771000 40 49 40
-0.090712 0.193557 0.770000 50 59 50
-0.088598 0.193306 0.769000 67 75 64
-0.086601 0.193306 0.769000 96 104 93
-0.084494 0.193054 0.768000 121 129 118
-0.082393 0.192803 0.767000 136 144 133
-0.080401 0.192803 0.767000 146 158 148
-0.078410 0.192803 0.767000 151 163 153
-0.076318 0.192551 0.766000 156 165 156
-0.074330 0.192551 0.766000 154 163 154
-0.072341 0.192551 0.766000 150 158 155
-0.070352 0.192551 0.766000 132 140 137
-0.068363 0.192551 0.766000 104 112 109
-0.066374 0.192551 0.766000 60 68 65
-0.064385 0.192551 0.766000 46 54 53
-0.062314 0.192300 0.765000 42 50 49
-0.198590 0.193527 0.762000 53 54 50
-0.196611 0.193527 0.762000 72 73 69
-0.194633 0.193527 0.762000 99 102 103
-0.192654 0.193527 0.762000 143 146 147
-0.190676 0.193527 0.762000 154 160 160
-0.188697 0.193527 0.762000 158 164 164
-0.186718 0.193527 0.762000 144 153 146
-0.184740 0.193527 0.762000 132 141 134
-0.182761 0.193527 0.762000 118 128 116
-0.181020 0.193781 0.763000 119 129 117
-0.179039 0.193781 0.763000 116 125 116
-0.177058 0.193781 0.763000 100 109 100
-0.175077 0.193781 0.763000 86 97 93
-0.173096 0.193781 0.763000 73 84 80
-0.171339 0.194035 0.764000 49 62 57
-0.169355 0.194035 0.764000 37 50 45
-0.167371 0.194035 0.764000 32 44 36
-0.165387 0.194035 0.764000 27 39 31
-0.103242 0.196575 0.774000 27 34 28
-0.101232 0.196575 0.774000 27 36 27
-0.099094 0.196321 0.773000 45 54 45
-0.096961 0.196067 0.772000 60 72 62
-0.094957 0.196067 0.772000 79 91 81
-0.092952 0.196067 0.772000 101 113 105
-0.090830 0.195813 0.771000 114 126 118
-0.088713 0.195559 0.770000 120 128 117
-0.086601 0.195305 0.769000 145 153 142
-0.084604 0.195305 0.769000 153 161 150
-0.082608 0.195305 0.769000 156 164 153
-0.080611 0.195305 0.769000 160 169 160
-0.078512 0.195051 0.768000 156 165 156
-0.076617 0.195305 0.769000 139 147 144
-0.074524 0.195051 0.768000 98 106 103
-0.072529 0.195051 0.768000 64 72 69
-0.070535 0.195051 0.768000 46 54 51
-0.192907 0.195765 0.763000 49 55 55
-0.190926 0.195765 0.763000 66 69 72
-0.188945 0.195765 0.763000 96 99 102
-0.186964 0.195765 0.763000 122 126 121
-0.184982 0.195765 0.763000 148 152 147
-0.183001 0.195765 0.763000 155 163 152
-0.181020 0.195765 0.763000 156 164 153
-0.179039 0.195765 0.763000 148 157 148
-0.177058 0.195765 0.763000 137 146 137
-0.175077 0.195765 0.763000 130 142 132
-0.173322 0.196021 0.764000 123 135 125
-0.171339 0.196021 0.764000 89 100 96
-0.169355 0.196021 0.764000 88 99 95
-0.167371 0.196021 0.764000 81 95 86
-0.165387 0.196021 0.764000 75 89 80
-0.163618 0.196278 0.765000 59 73 62
-0.161631 0.196278 0.765000 46 60 49
-0.159645 0.196278 0.765000 39 51 41
-0.157865 0.196535 0.766000 27 39 29
-0.155876 0.196535 0.766000 25 35 23
-0.153887 0.196535 0.766000 28 38 26
-0.113437 0.198844 0.775000 27 35 34
-0.111424 0.198844 0.775000 32 40 39
-0.109412 0.198844 0.775000 37 43 45
-0.107400 0.198844 0.775000 50 56 58
-0.105387 0.198844 0.775000 64 72 71
-0.103375 0.198844 0.775000 81 89 88
-0.101232 0.198587 0.774000 100 112 104
-0.099222 0.198587 0.774000 118 130 122
-0.097087 0.198331 0.773000 131 143 135
-0.094957 0.198074 0.772000 139 151 143
-0.092952 0.198074 0.772000 147 161 152
-0.090948 0.198074 0.772000 145 159 150
-0.088828 0.197817 0.771000 145 157 149
-0.086714 0.197561 0.770000 155 167 159
-0.084604 0.197304 0.769000 158 162 155
-0.082608 0.197304 0.769000 144 148 141
-0.080611 0.197304 0.769000 110 117 111
-0.078716 0.197561 0.770000 82 89 83
-0.076717 0.197561 0.770000 50 58 57
-0.074718 0.197561 0.770000 46 54 53
-0.187209 0.198008 0.764000 43 47 42
-0.185225 0.198008 0.764000 50 54 49
-0.183241 0.198008 0.764000 70 79 72
-0.181257 0.198008 0.764000 109 118 111
-0.179274 0.198008 0.764000 131 140 133
-0.177290 0.198008 0.764000 149 158 151
-0.175306 0.198008 0.764000 154 161 153
-0.173549 0.198267 0.765000 155 162 154
-0.171563 0.198267 0.765000 148 157 150
-0.169577 0.198267 0.765000 135 144 137
-0.167590 0.198267 0.765000 124 138 129
-0.165604 0.198267 0.765000 135 149 140
-0.163831 0.198526 0.766000 122 137 123
-0.161843 0.198526 0.766000 116 131 117
-0.159854 0.198526 0.766000 105 118 105
-0.158071 0.198785 0.767000 95 108 95
-0.156079 0.198785 0.767000 79 89 77
-0.154489 0.199304 0.769000 60 70 58
-0.152493 0.199304 0.769000 53 62 55
-0.150496 0.199304 0.769000 46 55 48
-0.148499 0.199304 0.769000 37 48 44
-0.146693 0.199563 0.770000 36 47 43
-0.144506 0.199304 0.769000 33 44 42
-0.142509 0.199304 0.769000 30 41 39
-0.129034 0.200081 0.772000 21 36 31
-0.127029 0.200081 0.772000 26 41 36
-0.125186 0.200340 0.773000 25 38 33
-0.123339 0.200600 0.774000 31 44 39
-0.121486 0.200859 0.775000 31 42 40
-0.119473 0.200859 0.775000 38 49 47
-0.117613 0.201118 0.776000 46 57 57
-0.115598 0.201118 0.776000 62 73 73
-0.113583 0.201118 0.776000 80 91 89
-0.111568 0.201118 0.776000 97 108 106
-0.109553 0.201118 0.776000 125 131 131
-0.107538 0.201118 0.776000 134 140 140
-0.105387 0.200859 0.775000 142 150 147
-0.103375 0.200859 0.775000 144 152 149
-0.101232 0.200600 0.774000 143 157 146
-0.099222 0.200600 0.774000 146 160 149
-0.097213 0.200600 0.774000 152 166 155
-0.095080 0.200340 0.773000 154 168 157
-0.092952 0.200081 0.772000 155 163 160
-0.090948 0.200081 0.772000 142 150 147
-0.088943 0.200081 0.772000 124 132 133
-0.086826 0.199822 0.771000 95 103 104
-0.084824 0.199822 0.771000 64 67 66
-0.082822 0.199822 0.771000 51 54 53
-0.080820 0.199822 0.771000 45 48 47
-0.181732 0.200518 0.766000 43 50 44
-0.179743 0.200518 0.766000 46 54 51
-0.177522 0.200256 0.765000 63 71 68
-0.175765 0.200518 0.766000 76 82 80
-0.173776 0.200518 0.766000 106 112 110
-0.171787 0.200518 0.766000 137 145 144
-0.169798 0.200518 0.766000 146 154 153
-0.167809 0.200518 0.766000 155 163 160
-0.166037 0.200779 0.767000 152 160 157
-0.164045 0.200779 0.767000 152 164 156
-0.162265 0.201041 0.768000 147 159 151
-0.160480 0.201303 0.769000 132 145 132
-0.158483 0.201303 0.769000 123 136 123
-0.156486 0.201303 0.769000 112 122 110
-0.154690 0.201565 0.770000 111 121 109
-0.152691 0.201565 0.770000 117 126 117
-0.150692 0.201565 0.770000 121 130 121
-0.148886 0.201827 0.771000 108 120 112
-0.147074 0.202088 0.772000 110 122 114
-0.145070 0.202088 0.772000 106 114 113
-0.143065 0.202088 0.772000 99 107 106
-0.141061 0.202088 0.772000 89 100 98
-0.139056 0.202088 0.772000 88 99 97
-0.137052 0.202088 0.772000 79 93 84
-0.135047 0.202088 0.772000 72 86 77
-0.133043 0.202088 0.772000 69 85 74
-0.131038 0.202088 0.772000 73 89 78
-0.129368 0.202612 0.774000 84 100 89
-0.127358 0.202612 0.774000 94 110 99
-0.125348 0.202612 0.774000 100 112 104
-0.123498 0.202874 0.775000 100 112 104
-0.121643 0.203135 0.776000 109 120 116
-0.119628 0.203135 0.776000 104 115 111
-0.117613 0.203135 0.776000 117 128 126
-0.115747 0.203397 0.777000 125 136 134
-0.113583 0.203135 0.776000 131 144 139
-0.111568 0.203135 0.776000 145 158 153
-0.109553 0.203135 0.776000 153 161 158
-0.107538 0.203135 0.776000 156 164 161
-0.105523 0.203135 0.776000 156 163 157
-0.103375 0.202874 0.775000 156 163 157
-0.101363 0.202874 0.775000 154 166 158
-0.099222 0.202612 0.774000 148 160 152
-0.097213 0.202612 0.774000 131 142 140
-0.095203 0.202612 0.774000 96 107 105
-0.093193 0.202612 0.774000 74 82 81
-0.091183 0.202612 0.774000 55 63 62
-0.089174 0.202612 0.774000 41 47 49
-0.087164 0.202612 0.774000 42 48 50
-0.085044 0.202350 0.773000 46 49 50
-0.174230 0.203038 0.768000 45 49 44
-0.172236 0.203038 0.768000 47 53 53
-0.170242 0.203038 0.768000 51 57 57
-0.168247 0.203038 0.768000 76 82 80
-0.166470 0.203302 0.769000 103 109 107
-0.164473 0.203302 0.769000 121 132 130
-0.162476 0.203302 0.769000 142 153 151
-0.160688 0.203567 0.770000 145 156 152
-0.158895 0.203831 0.771000 148 159 155
-0.157097 0.204096 0.772000 153 165 155
-0.155092 0.204096 0.772000 151 163 153
-0.153088 0.204096 0.772000 147 156 147
-0.151083 0.204096 0.772000 147 156 147
-0.149272 0.204360 0.773000 139 146 140
-0.147455 0.204624 0.774000 140 147 141
-0.145445 0.204624 0.774000 121 129 126
-0.143436 0.204624 0.774000 114 122 119
-0.141426 0.204624 0.774000 118 129 125
-0.139416 0.204624 0.774000 132 143 139
-0.137407 0.204624 0.774000 137 151 142
-0.135397 0.204624 0.774000 134 148 139
-0.133387 0.204624 0.774000 128 142 131
-0.131378 0.204624 0.774000 121 135 124
-0.129368 0.204624 0.774000 121 136 122
-0.127523 0.204889 0.775000 124 139 125
-0.125510 0.204889 0.775000 131 143 133
-0.123657 0.205153 0.776000 137 149 139
-0.121643 0.205153 0.776000 142 151 144
-0.119782 0.205417 0.777000 147 156 149
-0.117764 0.205417 0.777000 146 154 151
-0.115747 0.205417 0.777000 153 161 158
-0.113729 0.205417 0.777000 153 166 163
-0.111712 0.205417 0.777000 152 165 162
-0.109694 0.205417 0.777000 150 163 160
-0.107538 0.205153 0.776000 143 156 153
-0.105523 0.205153 0.776000 126 132 132
-0.103508 0.205153 0.776000 107 113 113
-0.101363 0.204889 0.775000 87 90 89
-0.099350 0.204889 0.775000 56 59 58
-0.097338 0.204889 0.775000 47 53 53
-0.095326 0.204889 0.775000 42 48 48
-0.093314 0.204889 0.775000 44 47 48
-0.164901 0.205836 0.771000 43 49 47
-0.163110 0.206103 0.772000 48 54 52
-0.161106 0.206103 0.772000 54 62 63
-0.159101 0.206103 0.772000 71 79 80
-0.157300 0.206370 0.773000 103 109 107
-0.155494 0.206637 0.774000 124 130 128
-0.153484 0.206637 0.774000 134 138 133
-0.151475 0.206637 0.774000 142 146 141
-0.149658 0.206904 0.775000 146 152 150
-0.147646 0.206904 0.775000 153 159 157
-0.145633 0.206904 0.775000 150 161 159
-0.143621 0.206904 0.775000 150 161 159
-0.141609 0.206904 0.775000 148 163 162
-0.139596 0.206904 0.775000 151 166 165
-0.137584 0.206904 0.775000 150 168 166
-0.135572 0.206904 0.775000 154 172 170
-0.133560 0.206904 0.775000 159 177 173
-0.131547 0.206904 0.775000 159 177 173
-0.129702 0.207171 0.776000 152 170 166
-0.127687 0.207171 0.776000 145 163 159
-0.125672 0.207171 0.776000 147 162 159
-0.123817 0.207438 0.777000 150 165 162
-0.121799 0.207438 0.777000 158 169 167
-0.119782 0.207438 0.777000 151 162 160
-0.117764 0.207438 0.777000 142 145 144
-0.115747 0.207438 0.777000 126 129 128
-0.113729 0.207438 0.777000 103 106 105
-0.111712 0.207438 0.777000 72 75 74
-0.109694 0.207438 0.777000 57 60 61
-0.107677 0.207438 0.777000 49 52 53
-0.105659 0.207438 0.777000 45 45 47
-0.103508 0.207171 0.776000 45 45 47
-0.155896 0.209188 0.776000 44 47 48
-0.153881 0.209188 0.776000 41 44 43
-0.151866 0.209188 0.776000 44 47 46
-0.149851 0.209188 0.776000 46 52 52
-0.148027 0.209458 0.777000 56 62 62
-0.146009 0.209458 0.777000 61 72 72
-0.143992 0.209458 0.777000 66 77 77
-0.141974 0.209458 0.777000 66 80 82
-0.139957 0.209458 0.777000 71 85 87
-0.137939 0.209458 0.777000 74 91 94
-0.135922 0.209458 0.777000 72 89 92
-0.133904 0.209458 0.777000 70 87 88
-0.131887 0.209458 0.777000 69 86 87
-0.129869 0.209458 0.777000 64 81 82
-0.127852 0.209458 0.777000 64 81 82
-0.125834 0.209458 0.777000 66 80 82
-0.123817 0.209458 0.777000 62 76 78
-0.121799 0.209458 0.777000 62 69 73
-0.119936 0.209727 0.778000 50 57 61
-0.117916 0.209727 0.778000 46 48 54
-0.115896 0.209727 0.778000 46 48 54
-0.113876 0.209727 0.778000 44 44 46
