ply
format ascii 1.0
element vertex 1429
property float x
property float y
property float z
property uchar red
property uchar green
property uchar blue
end_header
0.051442 0.216234 0.577888 41 49 48
0.049632 0.216243 0.577696 34 42 41
0.047822 0.216253 0.577504 40 48 47
0.052902 0.216624 0.580050 39 47 46
0.051090 0.216633 0.579858 75 83 84
0.049446 0.215676 0.579418 67 75 76
0.047636 0.215685 0.579226 36 44 45
0.052717 0.216056 0.581774 58 69 69
0.050904 0.216065 0.581582 96 104 105
0.049261 0.215108 0.581140 96 104 105
0.047451 0.215117 0.580948 39 47 48
0.052531 0.215487 0.583499 74 85 83
0.050885 0.214531 0.583054 95 106 106
0.049075 0.214541 0.582862 104 115 115
0.047265 0.214550 0.582670 47 58 58
0.054320 0.213945 0.585160 39 50 46
0.052510 0.213955 0.584968 89 100 96
0.050700 0.213964 0.584776 98 106 105
0.048890 0.213973 0.584584 111 119 118
0.047080 0.213982 0.584392 55 66 66
0.054135 0.213378 0.586882 40 51 47
0.052325 0.213387 0.586690 101 112 108
0.050515 0.213396 0.586498 102 110 109
0.048705 0.213406 0.586306 112 120 119
0.046895 0.213415 0.586114 55 66 64
0.053949 0.212810 0.588604 53 64 60
0.052139 0.212820 0.588412 105 116 112
0.050497 0.211866 0.587960 104 112 109
0.048690 0.211875 0.587769 111 119 116
0.046709 0.212847 0.587836 55 66 66
0.053927 0.211281 0.590063 62 73 69
0.052119 0.211290 0.589871 107 118 114
0.050312 0.211299 0.589680 104 115 111
0.048504 0.211309 0.589488 112 123 119
0.046524 0.212280 0.589558 49 57 56
0.053741 0.210714 0.591782 67 78 74
0.051934 0.210724 0.591591 110 121 117
0.050127 0.210733 0.591399 107 118 114
0.048319 0.210742 0.591208 110 121 117
0.046338 0.211712 0.591280 45 53 54
0.053556 0.210148 0.593502 86 97 95
0.051915 0.209197 0.593043 111 122 120
0.049941 0.210166 0.593119 107 120 119
0.048134 0.210175 0.592927 108 121 120
0.046153 0.211145 0.593002 42 50 51
0.053535 0.208622 0.594951 97 107 110
0.051730 0.208631 0.594760 112 122 125
0.049925 0.208640 0.594569 109 121 123
0.047949 0.209608 0.594647 104 116 118
0.045967 0.210577 0.594724 40 51 51
0.055155 0.208046 0.596860 41 49 46
0.053350 0.208056 0.596668 106 118 122
0.051545 0.208065 0.596477 113 125 129
0.049740 0.208074 0.596286 121 133 137
0.047764 0.209042 0.596366 78 90 94
0.055132 0.206523 0.598302 50 61 57
0.053329 0.206532 0.598110 114 126 128
0.051527 0.206541 0.597919 114 126 128
0.049555 0.207508 0.598003 121 133 135
0.047579 0.208475 0.598086 66 78 80
0.054947 0.205958 0.600016 66 77 75
0.053309 0.205010 0.599548 115 130 129
0.051342 0.205976 0.599634 119 134 133
0.049540 0.205985 0.599443 121 131 134
0.047393 0.207908 0.599805 58 68 71
0.055087 0.203480 0.601170 80 91 91
0.053290 0.203490 0.600980 118 131 130
0.051325 0.204455 0.601069 123 136 135
0.049356 0.205420 0.601158 118 129 129
0.047208 0.207342 0.601525 51 62 62
0.054903 0.202917 0.602880 97 105 106
0.053106 0.202926 0.602689 126 137 137
0.051309 0.202935 0.602499 123 134 134
0.049171 0.204855 0.602872 109 120 120
0.046850 0.207730 0.603526 43 54 54
0.056676 0.201390 0.604495 46 57 55
0.055044 0.200445 0.604019 112 123 121
0.053087 0.201408 0.604114 127 140 139
0.051124 0.202372 0.604209 122 135 134
0.048986 0.204290 0.604587 104 115 115
0.046665 0.207163 0.605248 38 49 49
0.056652 0.199874 0.605914 60 71 67
0.054861 0.199883 0.605724 122 133 129
0.052903 0.200845 0.605821 122 135 132
0.050940 0.201808 0.605918 128 141 138
0.048631 0.204678 0.606588 61 74 73
0.056630 0.198359 0.607328 72 85 80
0.054840 0.198368 0.607139 127 140 135
0.052885 0.199330 0.607239 122 137 134
0.050756 0.201245 0.607628 123 138 135
0.048275 0.205065 0.608595 45 58 57
0.058236 0.197789 0.609221 35 48 43
0.056446 0.197798 0.609031 96 109 108
0.054657 0.197807 0.608841 129 142 141
0.052701 0.198768 0.608944 128 141 140
0.050403 0.201633 0.609630 113 126 125
0.048090 0.204499 0.610314 40 53 52
0.058052 0.197228 0.610923 44 57 54
0.056263 0.197237 0.610733 118 131 130
0.054474 0.197246 0.610543 130 143 142
0.052518 0.198206 0.610649 132 143 143
0.050050 0.202020 0.611636 95 106 106
0.047733 0.204883 0.612328 39 50 50
0.058028 0.195716 0.612327 69 82 81
0.056241 0.195725 0.612138 129 142 141
0.054290 0.196685 0.612246 125 138 137
0.052334 0.197644 0.612353 132 143 143
0.049865 0.201455 0.613351 75 86 86
0.058004 0.194206 0.613727 99 112 111
0.056058 0.195165 0.613838 128 141 138
0.054107 0.196124 0.613948 124 137 134
0.051984 0.198032 0.614358 125 138 135
0.049511 0.201840 0.615365 43 56 53
0.059449 0.194587 0.615916 46 59 56
0.057821 0.193647 0.615424 114 127 124
0.056037 0.193656 0.615235 128 141 136
0.053924 0.195563 0.615650 128 141 136
0.051633 0.198418 0.616367 108 121 116
0.049156 0.202223 0.617384 36 49 44
0.059423 0.193078 0.617311 59 70 66
0.057638 0.193087 0.617121 125 136 132
0.055854 0.193097 0.616932 125 138 133
0.053740 0.195002 0.617353 137 150 145
0.051281 0.198803 0.618381 69 81 73
0.048801 0.202604 0.619408 41 53 45
0.059397 0.191572 0.618700 86 94 91
0.057456 0.192528 0.618819 132 140 137
0.055509 0.193484 0.618937 127 141 132
0.053392 0.195388 0.619362 132 146 137
0.050929 0.199185 0.620400 49 63 54
0.060841 0.191950 0.620895 41 48 40
0.059215 0.191013 0.620395 114 123 116
0.057273 0.191969 0.620516 133 142 135
0.055326 0.192924 0.620637 130 144 133
0.052877 0.196718 0.621687 120 134 123
0.050408 0.200513 0.622734 36 50 39
0.060658 0.191391 0.622592 55 64 55
0.059032 0.190454 0.622090 130 139 130
0.057090 0.191409 0.622214 132 141 132
0.054980 0.193309 0.622649 138 150 140
0.052528 0.197101 0.623709 93 105 95
0.049887 0.201838 0.625077 38 52 41
0.060631 0.189887 0.623974 71 81 69
0.058850 0.189896 0.623785 136 148 138
0.056907 0.190850 0.623911 130 142 132
0.054796 0.192748 0.624352 135 147 137
0.052177 0.197481 0.625735 58 70 60
0.062230 0.189319 0.625857 43 53 41
0.060449 0.189328 0.625669 91 101 89
0.058667 0.189337 0.625480 137 150 137
0.056725 0.190290 0.625609 132 145 132
0.062048 0.188760 0.627553 45 57 47
0.060422 0.187826 0.627043 126 138 128
0.058326 0.189722 0.627495 136 150 139
0.056380 0.190674 0.627626 138 152 141
0.062019 0.187259 0.628924 72 84 76
0.060240 0.187269 0.628735 140 152 144
0.058143 0.189162 0.629193 135 149 140
0.055874 0.191998 0.629971 139 153 144
0.062145 0.184819 0.629965 112 124 116
0.060058 0.186711 0.630428 140 152 144
0.057960 0.188603 0.630890 139 151 143
0.055529 0.192378 0.632001 125 137 129
0.063737 0.184254 0.631841 65 72 66
0.062118 0.183322 0.631324 138 147 140
0.059719 0.187094 0.632448 139 148 141
0.057618 0.188984 0.632915 145 156 152
0.063860 0.181818 0.632866 97 104 98
0.061936 0.182767 0.633009 145 154 147
0.059536 0.186535 0.634143 138 147 140
0.057275 0.189364 0.634945 140 151 149
0.065148 0.183132 0.635404 54 63 54
0.063678 0.181263 0.634549 125 134 125
0.061445 0.184089 0.635361 142 154 146
0.059196 0.186915 0.636171 143 155 147
0.065266 0.180700 0.636419 70 82 72
0.063345 0.181647 0.636567 142 154 144
0.061108 0.184470 0.637387 137 151 140
0.058856 0.187294 0.638204 146 160 149
0.067001 0.179199 0.637950 42 51 42
0.065235 0.179208 0.637763 107 119 109
0.063010 0.182029 0.638591 146 158 148
0.060770 0.184850 0.639417 144 158 149
0.058356 0.188609 0.640580 135 149 140
0.067116 0.176772 0.638948 52 64 56
0.065054 0.178654 0.639443 133 145 135
0.062675 0.182409 0.640619 142 154 144
0.060432 0.185228 0.641453 150 159 152
0.057856 0.189920 0.642965 112 121 114
0.066935 0.176220 0.640623 86 97 93
0.064571 0.179972 0.641811 144 156 148
0.062187 0.183724 0.642996 139 151 143
0.059937 0.186540 0.643836 150 156 154
0.068370 0.176593 0.642832 53 66 61
0.066607 0.176602 0.642645 123 136 131
0.064088 0.181286 0.644188 145 157 149
0.061850 0.184100 0.645037 146 158 150
0.068336 0.175106 0.644160 84 95 91
0.066277 0.176983 0.644671 146 157 153
0.063603 0.182597 0.646575 144 155 151
0.061360 0.185409 0.647431 148 159 155
0.069772 0.175478 0.646374 50 59 52
0.068009 0.175487 0.646187 124 135 131
0.065649 0.179230 0.647405 147 158 154
0.063269 0.182972 0.648621 147 158 154
0.069592 0.174926 0.648052 82 93 89
0.067535 0.176799 0.648573 146 160 151
0.065020 0.181471 0.650154 138 152 143
0.062631 0.185210 0.651378 151 162 158
0.071316 0.173432 0.649559 47 59 51
0.069555 0.173441 0.649373 126 138 130
0.067060 0.178108 0.650968 146 160 151
0.064688 0.181844 0.652205 146 160 151
0.061839 0.188375 0.654507 127 140 135
0.071136 0.172880 0.651235 85 99 90
0.068941 0.175681 0.652126 147 161 152
0.066436 0.180345 0.653732 136 152 143
0.064055 0.184077 0.654978 149 165 156
0.059387 0.190612 0.657104 39 52 49
0.072716 0.172319 0.653097 50 62 52
0.070955 0.172328 0.652910 130 144 135
0.068615 0.176057 0.654170 144 158 149
0.066106 0.180716 0.655789 145 159 150
0.072676 0.170837 0.654408 82 93 89
0.070632 0.172705 0.654950 140 156 147
0.067998 0.178289 0.656947 140 156 147
0.065628 0.182015 0.658214 150 164 155
0.074254 0.170277 0.656267 51 64 59
0.072496 0.170286 0.656080 129 142 137
0.070023 0.174937 0.657728 142 157 152
0.067670 0.178659 0.659006 145 160 155
0.434864 0.213303 0.715023 68 75 67
0.074350 0.167870 0.657200 85 98 93
0.072456 0.168807 0.657384 149 162 157
0.069842 0.174381 0.659413 142 155 150
0.067342 0.179028 0.661070 153 166 161
0.438441 0.212692 0.717216 85 94 85
0.436556 0.212702 0.717016 113 120 114
0.434671 0.212712 0.716817 91 98 92
0.432786 0.212721 0.716617 18 24 22
0.430902 0.212731 0.716417 14 20 18
0.076059 0.166385 0.658681 50 62 54
0.074308 0.166394 0.658496 129 142 137
0.072417 0.167330 0.658682 147 160 155
0.069660 0.173826 0.661098 148 160 152
0.067305 0.177542 0.662396 133 145 137
0.438618 0.213025 0.719438 120 128 125
0.436731 0.213034 0.719238 128 134 132
0.434843 0.213044 0.719038 106 112 110
0.432956 0.213054 0.718838 27 33 31
0.431068 0.213063 0.718638 12 18 16
0.428824 0.212150 0.718010 13 19 17
0.075880 0.165836 0.660347 92 101 94
0.074129 0.165845 0.660161 146 160 151
0.072096 0.167706 0.660725 144 158 149
0.069335 0.174197 0.663157 150 164 155
0.066976 0.177910 0.664465 89 103 94
0.438425 0.212433 0.721234 125 133 134
0.436537 0.212443 0.721034 135 141 139
0.434650 0.212452 0.720834 125 131 129
0.432762 0.212462 0.720634 49 57 56
0.430875 0.212471 0.720433 8 16 15
0.428987 0.212481 0.720233 21 27 27
0.077451 0.165278 0.662198 60 72 64
0.075700 0.165287 0.662012 136 148 140
0.074088 0.164371 0.661450 146 160 151
0.071916 0.167155 0.662395 149 163 154
0.438231 0.211841 0.723029 107 115 116
0.436344 0.211851 0.722829 145 151 151
0.434456 0.211860 0.722629 134 140 140
0.432569 0.211870 0.722429 75 86 84
0.430681 0.211880 0.722229 10 21 19
0.428794 0.211889 0.722029 20 28 29
0.077138 0.165654 0.664244 109 121 111
0.075657 0.163814 0.663298 147 159 149
0.073909 0.163823 0.663113 145 159 150
0.071595 0.167529 0.664445 151 165 156
0.438407 0.212170 0.725261 88 95 99
0.436150 0.211259 0.724625 145 151 149
0.434263 0.211269 0.724425 138 144 142
0.432376 0.211278 0.724225 102 113 111
0.430488 0.211288 0.724025 17 28 26
0.428601 0.211297 0.723825 16 27 27
0.078843 0.164171 0.665714 79 90 86
0.077360 0.162333 0.664764 138 150 140
0.073591 0.164198 0.665158 150 162 154
0.438214 0.211578 0.727059 72 79 83
0.436324 0.211587 0.726859 146 152 152
0.434070 0.210677 0.726221 141 147 147
0.432182 0.210686 0.726021 119 130 126
0.430295 0.210696 0.725820 37 48 44
0.428407 0.210706 0.725620 21 34 33
0.078663 0.163622 0.667380 117 129 121
0.076913 0.163631 0.667194 145 157 147
0.075299 0.162718 0.666624 144 156 146
0.073412 0.163649 0.666823 154 161 155
0.438020 0.210985 0.728857 53 61 62
0.436130 0.210995 0.728657 137 145 146
0.434240 0.211004 0.728457 144 152 153
0.432350 0.211014 0.728256 130 141 137
0.430101 0.210104 0.727616 69 80 76
0.428214 0.210114 0.727416 23 34 32
0.080105 0.163987 0.669619 89 103 94
0.078484 0.163074 0.669045 147 161 152
0.076868 0.162161 0.668472 145 159 148
0.075120 0.162170 0.668287 147 161 150
0.437826 0.210392 0.730656 39 47 48
0.435936 0.210402 0.730455 118 129 129
0.434046 0.210412 0.730255 145 156 156
0.432156 0.210421 0.730054 135 144 137
0.430266 0.210431 0.729854 84 93 86
0.428376 0.210441 0.729654 25 36 32
0.080055 0.162516 0.670897 129 144 139
0.078437 0.161604 0.670321 143 158 153
0.076689 0.161613 0.670135 147 161 152
0.435743 0.209809 0.732253 90 98 99
0.433853 0.209819 0.732053 147 155 156
0.431963 0.209829 0.731853 136 143 137
0.430073 0.209838 0.731652 113 120 114
0.428183 0.209848 0.731452 35 44 37
0.081372 0.163798 0.673534 101 112 108
0.079876 0.161967 0.672562 143 156 151
0.078258 0.161056 0.671984 144 157 152
0.435549 0.209217 0.734051 57 65 66
0.433659 0.209226 0.733851 145 153 154
0.431769 0.209236 0.733651 142 149 143
0.429879 0.209246 0.733450 128 135 129
0.427989 0.209255 0.733250 61 68 62
0.081447 0.161409 0.674413 137 148 144
0.079827 0.160498 0.673832 145 158 153
0.435355 0.208624 0.735850 43 49 49
0.433465 0.208634 0.735649 127 133 133
0.431575 0.208643 0.735449 147 154 148
0.429685 0.208653 0.735249 139 146 140
0.427795 0.208663 0.735048 89 98 89
0.425905 0.208672 0.734848 32 41 32
0.082768 0.162688 0.677061 116 127 123
0.081268 0.160860 0.676079 148 159 155
0.079648 0.159950 0.675495 144 157 154
0.433272 0.208041 0.737447 94 97 98
0.431382 0.208051 0.737247 149 157 154
0.429492 0.208060 0.737047 142 150 147
0.427602 0.208070 0.736846 115 127 117
0.425712 0.208080 0.736646 48 60 50
0.084221 0.163047 0.679319 84 93 86
0.082714 0.161220 0.678331 143 154 150
0.081089 0.160311 0.677744 154 165 161
0.433078 0.207448 0.739246 64 67 68
0.431188 0.207458 0.739045 149 155 153
0.428941 0.206553 0.738390 140 146 144
0.427054 0.206563 0.738190 131 140 131
0.425518 0.207487 0.738444 82 91 82
0.084287 0.160661 0.680184 131 140 133
0.082660 0.159753 0.679595 144 156 148
0.432884 0.206856 0.741044 41 47 45
0.430994 0.206865 0.740843 119 125 123
0.428748 0.205961 0.740186 146 152 150
0.426860 0.205971 0.739986 135 142 134
0.424973 0.205981 0.739786 119 126 118
0.423434 0.206904 0.740042 36 48 40
0.087614 0.160094 0.682224 53 61 58
0.085982 0.159187 0.681632 112 121 112
0.084231 0.159195 0.681446 145 154 145
0.430801 0.206273 0.742641 74 77 76
0.428554 0.205369 0.741982 150 153 152
0.426667 0.205379 0.741782 147 151 144
0.424779 0.205389 0.741581 137 141 134
0.423241 0.206311 0.741840 68 75 67
0.087316 0.160459 0.684301 88 97 90
0.085681 0.159553 0.683706 149 158 149
0.430607 0.205680 0.744440 46 49 48
0.428361 0.204778 0.743777 131 134 133
0.426474 0.204787 0.743577 149 153 146
0.424586 0.204797 0.743377 143 147 140
0.423047 0.205719 0.743638 114 122 111
0.421157 0.205728 0.743438 36 44 33
0.088775 0.160814 0.686569 60 74 65
0.087255 0.158994 0.685560 128 142 133
0.085501 0.159003 0.685374 147 159 149
0.428524 0.205097 0.746037 88 91 90
0.426280 0.204195 0.745373 151 155 150
0.424393 0.204205 0.745173 143 147 142
0.422853 0.205126 0.745436 132 140 129
0.420963 0.205136 0.745236 58 66 55
0.090353 0.160254 0.688429 50 60 48
0.088712 0.159349 0.687828 113 127 116
0.086956 0.159358 0.687642 150 164 153
0.428330 0.204504 0.747836 48 52 47
0.426440 0.204514 0.747635 137 140 139
0.424550 0.204524 0.747435 150 153 152
0.422660 0.204533 0.747234 140 147 139
0.420770 0.204543 0.747034 100 107 99
0.419222 0.205463 0.747299 32 41 32
0.090059 0.160615 0.690518 86 95 86
0.088532 0.158799 0.689498 145 160 146
0.086656 0.159721 0.689729 150 165 151
0.426246 0.203921 0.749433 101 104 105
0.424356 0.203931 0.749233 152 155 156
0.422466 0.203941 0.749032 140 147 141
0.420576 0.203950 0.748832 133 140 134
0.419028 0.204870 0.749100 61 73 63
0.091527 0.160966 0.692800 76 86 74
0.089993 0.159151 0.691774 134 144 132
0.088352 0.158248 0.691169 150 163 148
0.426053 0.203329 0.751231 50 53 52
0.424163 0.203338 0.751031 142 145 144
0.422272 0.203348 0.750831 146 153 147
0.420382 0.203358 0.750630 141 148 142
0.418835 0.204276 0.750900 105 117 107
0.416942 0.204286 0.750700 32 44 34
0.093001 0.161316 0.695087 55 64 57
0.091459 0.159502 0.694056 121 131 119
0.089813 0.158600 0.693447 148 158 146
0.086880 0.167721 0.697477 150 160 146
0.423969 0.202746 0.752829 94 97 96
0.422079 0.202755 0.752629 151 158 152
0.420189 0.202765 0.752428 148 155 149
0.418641 0.203683 0.752701 130 139 130
0.416748 0.203692 0.752500 66 75 66
0.094908 0.158022 0.695679 45 54 45
0.093039 0.158941 0.695918 103 112 103
0.091166 0.159860 0.696156 146 159 144
0.088942 0.163511 0.697666 151 164 149
0.423775 0.202153 0.754627 53 56 55
0.421885 0.202163 0.754427 142 145 144
0.419995 0.202172 0.754227 153 156 155
0.418447 0.203089 0.754502 140 149 140
0.416554 0.203099 0.754301 105 114 105
0.414998 0.204016 0.754575 39 48 41
0.095961 0.162009 0.699678 46 52 50
0.094512 0.159289 0.698207 83 95 85
0.092969 0.157479 0.697166 140 152 142
0.090985 0.159307 0.697834 152 165 152
0.422038 0.202477 0.756703 86 89 90
0.420145 0.202486 0.756503 151 154 155
0.418253 0.202496 0.756302 147 154 146
0.416360 0.202505 0.756101 131 138 130
0.414804 0.203422 0.756378 73 80 74
0.095674 0.162362 0.701794 77 85 82
0.421844 0.201883 0.758504 49 55 53
0.419952 0.201893 0.758303 126 132 130
0.418059 0.201902 0.758103 151 158 152
0.416166 0.201912 0.757902 143 150 144
0.414610 0.202827 0.758181 110 119 112
0.413048 0.203743 0.758460 53 62 55
0.097163 0.162705 0.704103 62 74 66
0.095809 0.159082 0.702183 126 138 130
0.419758 0.201299 0.760104 75 81 81
0.417865 0.201309 0.759903 150 158 155
0.415972 0.201319 0.759703 148 156 153
0.414416 0.202233 0.759984 139 148 139
0.412520 0.202243 0.759783 92 101 92
0.410956 0.203157 0.760064 41 49 46
0.098657 0.163046 0.706417 62 73 69
0.097291 0.159427 0.704486 119 132 119
0.095734 0.157622 0.703428 146 159 146
0.417671 0.200715 0.761704 99 107 106
0.415779 0.200725 0.761503 149 157 156
0.413886 0.200735 0.761303 144 153 144
0.412326 0.201649 0.761586 131 140 131
0.410431 0.201658 0.761385 63 72 65
0.409191 0.203476 0.762152 35 44 37
0.100155 0.163386 0.708736 52 64 54
0.098676 0.160676 0.707233 116 128 118
0.097110 0.158872 0.706169 149 159 145
0.095129 0.160694 0.706857 156 166 152
0.417818 0.201025 0.763992 54 62 61
0.415585 0.200132 0.763304 133 141 140
0.413692 0.200141 0.763103 149 158 151
0.412132 0.201054 0.763389 145 154 147
0.410237 0.201064 0.763188 114 123 116
0.408669 0.201977 0.763474 57 66 59
0.101658 0.163723 0.711062 48 59 55
0.100071 0.161921 0.709990 111 124 111
0.098495 0.160120 0.708920 146 159 146
0.096825 0.159223 0.708292 161 171 157
0.415728 0.200441 0.765594 85 91 89
0.413498 0.199548 0.764904 156 163 157
0.411938 0.200460 0.765192 151 158 152
0.410043 0.200470 0.764992 145 154 145
0.408147 0.200479 0.764791 92 101 92
0.406901 0.202294 0.765566 41 50 43
0.102791 0.167678 0.715168 48 56 53
0.101572 0.162259 0.712315 100 108 105
0.099889 0.161364 0.711683 144 157 144
0.098212 0.160468 0.711051 151 164 151
0.415534 0.199846 0.767397 46 50 45
0.413639 0.199856 0.767196 123 126 125
0.411744 0.199866 0.766995 155 158 157
0.409519 0.198974 0.766303 150 159 150
0.407953 0.199885 0.766594 127 136 127
0.406382 0.200796 0.766884 68 77 68
0.405128 0.202609 0.767663 39 48 39
0.104221 0.168913 0.717962 47 55 52
0.103171 0.161691 0.714199 93 105 97
0.101389 0.161701 0.714010 143 155 147
0.099806 0.159902 0.712929 158 171 158
0.413445 0.199262 0.768999 73 77 72
0.411549 0.199272 0.768798 145 149 144
0.409654 0.199281 0.768598 153 161 150
0.407759 0.199291 0.768397 146 154 143
0.406188 0.200201 0.768689 109 119 107
0.404612 0.201112 0.768981 48 58 46
0.105750 0.169242 0.720317 43 54 50
0.104678 0.162027 0.716532 89 100 96
0.102988 0.161133 0.715894 140 153 140
0.101207 0.161142 0.715705 154 167 154
0.411355 0.198677 0.770602 93 100 94
0.409460 0.198687 0.770401 146 155 146
0.407565 0.198697 0.770200 153 162 153
0.405670 0.198706 0.769999 130 140 126
0.404096 0.199616 0.770293 93 103 89
0.402835 0.201426 0.771083 52 61 52
0.107283 0.169569 0.722678 47 53 51
0.105654 0.167773 0.721582 90 102 94
0.103852 0.167783 0.721391 143 155 147
0.102522 0.163281 0.718943 152 165 152
0.099762 0.172312 0.723265 158 171 158
0.411824 0.199881 0.773403 45 54 45
0.409266 0.198093 0.772204 107 116 109
0.407371 0.198102 0.772003 153 162 155
0.405799 0.199011 0.772300 147 157 145
0.403901 0.199021 0.772099 130 140 128
0.402640 0.200829 0.772893 86 95 86
0.401369 0.202637 0.773686 46 55 46
0.108821 0.169894 0.725044 42 50 47
0.107446 0.165396 0.722579 90 98 95
0.105738 0.164504 0.721934 142 154 146
0.103852 0.165415 0.722198 158 170 162
0.101676 0.169029 0.723823 159 173 164
0.409729 0.199295 0.775009 48 55 49
0.407502 0.198406 0.774307 128 135 129
0.405605 0.198416 0.774106 152 161 154
0.404028 0.199324 0.774405 142 151 144
0.402445 0.200232 0.774703 126 136 124
0.401173 0.202039 0.775501 68 78 66
0.110363 0.170218 0.727416 46 52 50
0.108974 0.165724 0.724936 89 97 94
0.107524 0.162131 0.722917 146 154 151
0.105734 0.162140 0.722727 154 168 159
0.103668 0.164851 0.723907 160 174 165
0.407959 0.199607 0.777119 72 76 71
0.405733 0.198719 0.776414 147 154 148
0.403833 0.198728 0.776213 151 158 152
0.402250 0.199636 0.776514 146 156 144
0.400978 0.201441 0.777317 88 98 86
0.111910 0.170540 0.729793 50 56 54
0.110425 0.166950 0.727760 96 102 100
0.109045 0.162461 0.725269 143 155 147
0.107428 0.160671 0.724160 155 167 159
0.105371 0.163379 0.725348 159 173 164
0.405861 0.199020 0.778728 84 90 88
0.403958 0.199029 0.778526 148 154 152
0.402373 0.199936 0.778829 146 156 144
0.400782 0.200842 0.779132 132 142 130
0.397586 0.202656 0.779736 41 51 39
0.113539 0.169961 0.731712 47 53 53
0.111964 0.167274 0.730131 105 111 109
0.110570 0.162789 0.727626 149 155 153
0.108946 0.161000 0.726511 154 166 156
0.107069 0.161908 0.726784 160 172 162
0.406311 0.200215 0.781554 50 56 54
0.404403 0.200225 0.781352 111 117 115
0.402495 0.200234 0.781150 152 161 154
0.400587 0.200244 0.780947 148 157 150
0.398991 0.201150 0.781252 112 125 112
0.395783 0.202962 0.781860 40 52 44
0.115093 0.170281 0.734097 45 53 52
0.113431 0.168494 0.732973 93 101 100
0.111860 0.165809 0.731385 147 155 152
0.110304 0.163124 0.729799 154 162 159
0.107822 0.170318 0.733326 157 169 159
0.404847 0.201417 0.784188 55 61 59
0.402299 0.199636 0.782965 128 136 135
0.400391 0.199646 0.782763 153 161 160
0.398795 0.200551 0.783070 138 150 140
0.395280 0.201466 0.783174 54 66 58
0.116579 0.171496 0.736956 47 53 53
0.114907 0.169711 0.735827 91 99 98
0.113245 0.167926 0.734698 144 152 151
0.111272 0.169730 0.735441 154 165 161
0.109038 0.174225 0.737586 157 168 164
0.402737 0.200827 0.785805 71 77 79
0.400824 0.200836 0.785602 148 154 156
0.398599 0.199952 0.784888 156 165 158
0.396998 0.200856 0.785197 130 139 132
0.395084 0.200866 0.784994 96 105 96
0.393475 0.201770 0.785302 53 62 53
0.118004 0.173605 0.740298 51 57 57
0.116319 0.171821 0.739162 93 99 99
0.114570 0.170934 0.738497 142 153 151
0.112433 0.174529 0.740186 154 165 163
0.108517 0.177237 0.741208 142 153 151
0.400942 0.201130 0.787937 84 87 88
0.398715 0.200246 0.787220 154 162 161
0.396802 0.200256 0.787017 156 164 163
0.394888 0.200266 0.786814 140 149 140
0.393279 0.201169 0.787125 88 97 88
0.391664 0.202073 0.787435 42 50 39
0.119306 0.177499 0.744604 48 56 55
0.117533 0.176613 0.743935 103 111 110
0.115839 0.174831 0.742793 148 156 155
0.114003 0.174841 0.742598 156 169 166
0.112010 0.176641 0.743349 156 169 166
0.109844 0.180233 0.745045 136 147 145
0.401687 0.203208 0.791311 45 48 47
0.399452 0.202325 0.790590 103 111 112
0.397223 0.201442 0.789870 156 164 165
0.394998 0.200559 0.789151 150 162 152
0.393082 0.200568 0.788947 119 131 121
0.391467 0.201471 0.789260 92 102 90
0.389847 0.202374 0.789572 46 56 44
0.120763 0.179596 0.747984 69 77 74
0.119117 0.176921 0.746358 106 114 111
0.117273 0.176930 0.746163 148 159 155
0.115356 0.177835 0.746443 157 168 164
0.113357 0.179634 0.747199 159 172 169
0.111427 0.180538 0.747478 139 152 149
0.399566 0.202615 0.792937 57 65 66
0.397334 0.201732 0.792214 121 129 130
0.395108 0.200850 0.791492 157 169 161
0.393189 0.200860 0.791289 153 165 157
0.391271 0.200870 0.791085 126 139 126
0.389352 0.200879 0.790882 76 89 76
0.387729 0.201781 0.791196 41 50 41
0.122424 0.179006 0.749941 66 74 71
0.120639 0.178122 0.749266 119 128 121
0.118859 0.177237 0.748591 150 159 152
0.116870 0.179034 0.749353 157 169 161
0.115019 0.179044 0.749156 159 171 163
0.113015 0.180841 0.749917 137 148 146
0.108404 0.190694 0.754777 42 50 47
0.397753 0.202912 0.795085 52 60 57
0.395216 0.201140 0.793838 129 142 139
0.393295 0.201150 0.793635 154 167 164
0.391074 0.200268 0.792910 146 161 147
0.389156 0.200278 0.792707 116 131 117
0.387532 0.201179 0.793024 69 81 71
0.124025 0.179309 0.752381 74 83 76
0.122235 0.178426 0.751703 128 137 130
0.120383 0.178435 0.751507 153 162 153
0.118532 0.178444 0.751310 160 169 160
0.116537 0.180240 0.752076 160 169 162
0.114458 0.182929 0.753322 128 137 130
0.110016 0.190987 0.757250 37 48 46
0.395630 0.202318 0.796713 57 68 66
0.393401 0.201438 0.795986 133 144 142
0.391178 0.200557 0.795259 160 174 165
0.388959 0.199676 0.794532 150 164 155
0.387335 0.200577 0.794851 124 137 124
0.385414 0.200586 0.794648 70 83 70
0.383783 0.201487 0.794966 32 44 34
0.125689 0.178718 0.754342 82 91 84
0.123896 0.177836 0.753660 133 145 135
0.121981 0.178737 0.753948 153 165 155
0.120127 0.178747 0.753752 157 166 157
0.118065 0.181433 0.755007 159 168 159
0.115844 0.185905 0.757228 107 115 112
0.113672 0.189484 0.758963 49 57 54
0.393506 0.201724 0.798341 72 80 79
0.391280 0.200844 0.797612 148 158 161
0.389060 0.199964 0.796883 161 171 174
0.387139 0.199974 0.796679 155 167 157
0.385218 0.199984 0.796475 118 130 120
0.383297 0.199994 0.796272 66 75 66
0.381662 0.200893 0.796592 41 50 41
0.129044 0.180793 0.757962 54 63 56
0.127296 0.179019 0.756790 98 107 98
0.125499 0.178137 0.756105 138 147 138
0.123583 0.179038 0.756396 151 163 153
0.121598 0.180831 0.757173 159 171 161
0.119468 0.184406 0.758922 152 160 159
0.115219 0.190666 0.761928 56 64 61
0.391383 0.201130 0.799970 85 92 96
0.389160 0.200251 0.799238 157 164 168
0.387236 0.200261 0.799034 160 171 167
0.385021 0.199382 0.798303 151 162 158
0.383100 0.199391 0.798099 112 121 112
0.381465 0.200290 0.798422 59 68 59
0.379542 0.200300 0.798218 39 46 38
0.130715 0.180199 0.759931 62 71 62
0.128908 0.179318 0.759243 107 116 107
0.127106 0.178437 0.758556 147 156 147
0.125130 0.180228 0.759339 155 164 155
0.123082 0.182909 0.760610 156 165 156
0.389259 0.200536 0.801598 92 98 100
0.387333 0.200546 0.801394 162 168 170
0.385115 0.199667 0.800660 168 174 176
0.383192 0.199677 0.800456 152 161 152
0.380982 0.198799 0.799723 106 115 106
0.379345 0.199697 0.800048 68 75 67
0.377702 0.200595 0.800373 40 47 39
0.133967 0.184935 0.765059 45 59 50
0.132238 0.182276 0.763380 78 92 83
0.130420 0.181395 0.762688 125 137 127
0.128554 0.181405 0.762490 147 159 149
0.126630 0.182304 0.762785 156 166 154
0.124521 0.185873 0.764556 161 171 159
0.387136 0.199942 0.803226 91 96 101
0.385210 0.199951 0.803022 161 166 171
0.383283 0.199961 0.802818 166 175 166
0.381071 0.199084 0.802082 147 156 147
0.379148 0.199094 0.801878 111 120 111
0.377224 0.199103 0.801674 68 77 68
0.375579 0.200000 0.802001 46 53 47
0.135473 0.187893 0.769030 72 83 81
0.133727 0.185236 0.767341 115 129 120
0.131897 0.184356 0.766646 141 155 146
0.130020 0.184366 0.766447 151 165 154
0.128033 0.186154 0.767239 154 168 157
0.124149 0.187951 0.767829 116 125 116
0.387232 0.200224 0.805594 41 47 49
0.385012 0.199347 0.804855 86 92 94
0.383086 0.199357 0.804651 160 168 167
0.381160 0.199367 0.804446 167 175 174
0.378950 0.198490 0.803708 148 157 148
0.377027 0.198500 0.803505 120 129 120
0.375381 0.199396 0.803834 71 78 72
0.373455 0.199406 0.803630 43 50 44
0.137167 0.187292 0.771026 93 106 101
0.135280 0.187301 0.770826 131 144 139
0.133487 0.185535 0.769628 152 166 155
0.131555 0.186432 0.769927 152 166 155
0.127730 0.187340 0.770025 149 158 149
0.125727 0.189126 0.770820 99 102 101
0.385105 0.199629 0.807224 42 48 50
0.382889 0.198753 0.806483 86 93 97
0.380962 0.198763 0.806279 155 162 166
0.379036 0.198773 0.806075 170 177 171
0.377110 0.198783 0.805870 156 163 157
0.375184 0.198793 0.805666 113 121 110
0.373258 0.198802 0.805462 80 88 77
0.371332 0.198812 0.805258 42 49 41
0.140712 0.187568 0.773724 66 78 70
0.138822 0.187578 0.773523 110 122 114
0.136974 0.186700 0.772821 136 152 143
0.135087 0.186710 0.772621 145 161 152
0.133199 0.186719 0.772421 154 168 157
0.131262 0.187616 0.772722 153 167 156
0.129319 0.188513 0.773022 125 132 126
0.382979 0.199034 0.808855 39 45 45
0.381050 0.199044 0.808650 85 91 91
0.378839 0.198169 0.807907 151 157 155
0.376913 0.198179 0.807703 174 180 178
0.374987 0.198189 0.807499 155 163 152
0.373060 0.198198 0.807295 128 136 125
0.371134 0.198208 0.807090 81 86 76
0.369478 0.199103 0.807423 48 53 43
0.144233 0.188729 0.776933 55 63 60
0.142408 0.186966 0.775722 89 97 94
0.140518 0.186975 0.775522 125 139 130
0.138628 0.186985 0.775321 146 160 151
0.136738 0.186995 0.775121 153 167 156
0.134848 0.187004 0.774921 154 168 157
0.132910 0.187900 0.775224 142 151 144
0.381138 0.199323 0.811027 34 41 35
0.378924 0.198449 0.810281 68 75 69
0.376715 0.197575 0.809536 143 150 144
0.374789 0.197585 0.809331 169 179 167
0.372863 0.197594 0.809127 160 170 158
0.370937 0.197604 0.808923 120 128 115
0.369011 0.197614 0.808719 84 92 79
0.367351 0.198508 0.809054 50 55 45
0.147802 0.189001 0.779646 48 56 53
0.145934 0.188125 0.778937 74 82 79
0.144072 0.187249 0.778228 110 121 117
0.142214 0.186373 0.777520 143 154 150
0.140324 0.186383 0.777320 153 166 161
0.138394 0.187278 0.777626 157 170 165
0.136458 0.188173 0.777932 148 160 152
0.134472 0.189955 0.778744 108 120 112
0.132427 0.192621 0.780061 57 61 54
0.130316 0.196174 0.781881 46 50 43
0.376797 0.197854 0.811911 64 71 65
0.374869 0.197864 0.811707 142 151 144
0.372940 0.197874 0.811502 169 178 171
0.370739 0.197000 0.810755 154 164 150
0.369082 0.197893 0.811093 116 126 112
0.367154 0.197903 0.810889 87 95 84
0.365489 0.198796 0.811226 55 63 52
0.149505 0.188396 0.781653 75 81 79
0.147635 0.187521 0.780941 109 120 116
0.145771 0.186646 0.780230 137 148 144
0.143878 0.186656 0.780029 150 164 155
0.141985 0.186665 0.779828 153 167 158
0.140055 0.187560 0.780137 155 166 162
0.138078 0.189339 0.780955 130 141 137
0.136048 0.192004 0.782280 82 89 83
0.131893 0.198218 0.785435 51 55 48
0.374948 0.198142 0.814087 63 66 65
0.373016 0.198151 0.813882 134 137 136
0.370814 0.197279 0.813133 164 171 163
0.368885 0.197289 0.812928 161 168 160
0.366956 0.197298 0.812724 131 139 128
0.365027 0.197308 0.812519 91 99 88
0.363360 0.198201 0.812859 73 80 74
0.153025 0.191318 0.785916 60 66 64
0.151163 0.189560 0.784687 98 106 103
0.149311 0.187801 0.783458 130 138 135
0.147441 0.186927 0.782744 151 163 155
0.145546 0.186937 0.782543 159 171 163
0.143618 0.187830 0.782855 161 173 165
0.141684 0.188724 0.783166 151 163 155
0.139669 0.191386 0.784500 107 113 111
0.137597 0.194932 0.786345 54 60 58
0.135548 0.197594 0.787676 43 47 42
0.373092 0.198427 0.816267 56 62 60
0.370887 0.197556 0.815515 112 118 118
0.368956 0.197566 0.815310 165 171 171
0.367025 0.197575 0.815106 160 168 157
0.365093 0.197585 0.814901 131 139 128
0.363162 0.197595 0.814696 105 109 102
0.361230 0.197605 0.814492 87 91 84
0.359555 0.198497 0.814832 44 50 48
0.156569 0.195116 0.790721 55 61 63
0.154684 0.193359 0.789484 89 97 94
0.152830 0.190720 0.787732 120 128 125
0.150922 0.190729 0.787529 146 158 148
0.149039 0.189856 0.786811 155 167 157
0.147134 0.189865 0.786609 158 170 160
0.145197 0.190758 0.786923 155 167 157
0.143222 0.192535 0.787750 126 134 133
0.141237 0.194311 0.788577 79 87 86
0.139241 0.196087 0.789403 46 53 47
0.137235 0.197864 0.790227 43 50 44
0.371231 0.198712 0.818452 48 54 54
0.369026 0.197841 0.817697 84 90 90
0.366827 0.196970 0.816943 151 157 157
0.364895 0.196980 0.816738 171 177 177
0.362964 0.196989 0.816534 145 149 142
0.361033 0.196999 0.816329 109 113 106
0.359101 0.197009 0.816124 94 101 95
0.357423 0.197900 0.816467 61 68 62
0.160193 0.196258 0.793996 48 56 57
0.158267 0.196268 0.793792 75 83 84
0.156357 0.195396 0.793068 112 120 121
0.154470 0.193641 0.791826 137 149 141
0.152572 0.192768 0.791104 154 166 158
0.150656 0.192778 0.790900 160 169 160
0.148740 0.192788 0.790697 157 166 157
0.146796 0.193680 0.791012 129 140 136
0.144815 0.195455 0.791844 79 90 86
0.142858 0.196347 0.792158 47 53 51
0.140895 0.197239 0.792471 41 47 45
0.369364 0.198995 0.820641 47 53 53
0.367160 0.198124 0.819884 70 73 76
0.365223 0.198134 0.819679 138 141 144
0.363026 0.197264 0.818922 161 167 165
0.361093 0.197274 0.818717 154 160 158
0.359159 0.197284 0.818512 118 125 117
0.357225 0.197294 0.818307 107 114 106
0.355291 0.197303 0.818102 63 70 62
0.353604 0.198193 0.818447 43 50 42
0.163843 0.196516 0.796760 51 57 55
0.161922 0.195645 0.796032 64 72 71
0.159996 0.195655 0.795828 106 114 113
0.158070 0.195664 0.795624 134 142 139
0.156144 0.195674 0.795420 152 160 157
0.154236 0.194802 0.794694 155 167 159
0.152312 0.194812 0.794490 157 169 161
0.150365 0.195704 0.794807 142 151 144
0.148439 0.195713 0.794603 95 104 97
0.146513 0.195723 0.794399 60 64 59
0.144555 0.196615 0.794715 48 52 47
0.142559 0.198388 0.795550 50 54 49
0.365550 0.199286 0.822629 57 63 61
0.363348 0.198416 0.821869 120 123 124
0.361152 0.197547 0.821110 159 162 163
0.358960 0.196677 0.820352 159 163 156
0.357027 0.196687 0.820147 149 153 146
0.355093 0.196697 0.819942 120 127 119
0.353406 0.197586 0.820289 80 87 79
0.351469 0.197596 0.820084 50 58 47
0.165571 0.196782 0.799325 66 74 73
0.163645 0.195912 0.798595 102 110 109
0.161725 0.195041 0.797865 137 145 142
0.159799 0.195051 0.797661 152 160 157
0.157873 0.195060 0.797457 152 164 156
0.155946 0.195070 0.797252 154 166 158
0.154020 0.195080 0.797048 154 163 154
0.152094 0.195090 0.796844 117 126 117
0.150144 0.195980 0.797163 67 68 64
0.148189 0.196871 0.797482 48 49 45
0.146199 0.198642 0.798323 52 53 49
0.363670 0.199565 0.824826 48 54 54
0.361468 0.198697 0.824064 94 100 100
0.359272 0.197828 0.823303 152 155 154
0.357080 0.196959 0.822542 165 168 167
0.355144 0.196969 0.822337 161 169 158
0.353207 0.196979 0.822132 141 149 138
0.351271 0.196989 0.821926 106 114 103
0.349576 0.197877 0.822275 65 73 62
0.347876 0.198766 0.822623 40 47 39
0.171175 0.197907 0.802834 40 47 39
0.169237 0.197037 0.802100 61 69 68
0.167304 0.196167 0.801367 92 100 99
0.165373 0.196177 0.801162 129 140 136
0.163448 0.195307 0.800430 147 158 154
0.161519 0.195317 0.800225 156 165 156
0.159590 0.195326 0.800021 161 170 161
0.157648 0.196216 0.800343 157 164 158
0.155716 0.196226 0.800138 127 134 128
0.153785 0.196236 0.799934 75 79 74
0.151832 0.197126 0.800255 48 52 47
0.362040 0.200721 0.827586 44 50 48
0.359836 0.199853 0.826822 67 70 71
0.357638 0.198985 0.826058 134 137 138
0.355444 0.198117 0.825294 164 168 161
0.353502 0.198127 0.825088 163 167 160
0.351561 0.198137 0.824882 148 156 141
0.349619 0.198147 0.824677 115 123 108
0.347677 0.198157 0.824471 76 86 74
0.345972 0.199045 0.824821 57 67 55
0.174877 0.199917 0.806683 43 53 41
0.172920 0.198169 0.805414 64 72 69
0.170977 0.197300 0.804677 93 101 98
0.169039 0.196431 0.803940 126 134 131
0.167106 0.195561 0.803204 144 152 149
0.165175 0.195571 0.803000 156 164 161
0.163244 0.195581 0.802795 164 172 169
0.159369 0.196480 0.802915 128 137 130
0.157421 0.197369 0.803240 81 84 83
0.155485 0.197379 0.803034 48 51 50
0.153510 0.199147 0.803887 44 48 43
0.358193 0.201006 0.829588 48 54 52
0.355992 0.200139 0.828821 108 114 112
0.354043 0.200149 0.828614 149 155 153
0.351849 0.199282 0.827848 160 170 156
0.349661 0.198415 0.827083 148 158 144
0.347717 0.198425 0.826877 112 122 108
0.346009 0.199312 0.827229 95 105 91
0.344062 0.199322 0.827023 71 81 69
0.342346 0.200209 0.827374 49 59 47
0.178609 0.201922 0.810550 41 52 48
0.176645 0.201054 0.809808 53 64 60
0.174678 0.199307 0.808533 81 92 88
0.172728 0.198439 0.807793 127 136 129
0.170779 0.196692 0.806519 141 150 143
0.168842 0.196702 0.806314 153 162 155
0.166906 0.196712 0.806108 160 169 162
0.164969 0.196722 0.805903 156 164 161
0.163033 0.196732 0.805698 131 139 136
0.161087 0.197620 0.806025 85 93 92
0.159124 0.199386 0.806884 48 56 55
0.157151 0.201153 0.807742 43 49 47
0.356538 0.202156 0.832363 44 51 45
0.354335 0.201290 0.831593 72 79 73
0.352137 0.200424 0.830824 125 134 127
0.349944 0.199558 0.830056 154 163 156
0.347995 0.199568 0.829849 155 165 151
0.346045 0.199578 0.829642 132 142 128
0.344096 0.199588 0.829436 115 123 110
0.342146 0.199598 0.829229 97 105 92
0.340425 0.200484 0.829583 65 73 60
0.338473 0.200494 0.829376 41 49 36
0.182369 0.203922 0.814435 46 54 51
0.180393 0.203054 0.813689 60 73 70
0.178409 0.201310 0.812407 90 103 100
0.176446 0.200442 0.811663 124 137 134
0.174488 0.199575 0.810920 144 157 154
0.172529 0.197830 0.809640 155 163 160
0.170587 0.197840 0.809434 160 168 165
0.168645 0.197850 0.809228 157 163 161
0.166704 0.197860 0.809022 136 142 140
0.164758 0.198747 0.809352 90 98 97
0.162806 0.199634 0.809681 47 55 54
0.160850 0.200522 0.810010 39 45 45
0.352424 0.201563 0.833810 49 57 54
0.350226 0.200697 0.833038 92 100 97
0.348033 0.199832 0.832267 139 146 140
0.346081 0.199842 0.832060 160 167 161
0.343896 0.198976 0.831290 154 162 149
0.342177 0.199862 0.831647 136 144 131
0.340225 0.199872 0.831440 112 120 107
0.338273 0.199882 0.831233 86 94 81
0.336544 0.200767 0.831588 53 62 53
0.334809 0.201653 0.831942 39 48 39
0.186136 0.205040 0.817797 47 55 52
0.184150 0.204174 0.817048 68 79 77
0.182169 0.203307 0.816299 104 115 113
0.180193 0.202441 0.815551 129 144 143
0.178222 0.201574 0.814804 143 158 157
0.176257 0.200708 0.814057 149 164 163
0.174296 0.199841 0.813311 154 169 168
0.172347 0.199851 0.813104 160 168 167
0.170398 0.199861 0.812898 144 152 151
0.168449 0.200747 0.813230 97 103 103
0.166497 0.200757 0.813023 54 60 60
0.164540 0.201644 0.813354 41 47 47
0.350506 0.201834 0.836031 43 52 45
0.348309 0.200969 0.835257 60 66 66
0.346116 0.200104 0.834483 97 103 103
0.344162 0.200114 0.834276 154 155 151
0.341977 0.199250 0.833504 165 166 162
0.340025 0.199260 0.833297 155 163 152
0.338298 0.200144 0.833655 146 154 143
0.336343 0.200154 0.833447 113 122 113
0.334609 0.201039 0.833804 84 93 84
0.332651 0.201049 0.833597 63 72 65
0.330909 0.201934 0.833953 43 52 45
0.329161 0.202818 0.834309 40 47 39
0.191860 0.205270 0.820835 42 50 47
0.189893 0.205280 0.820627 53 61 58
0.187899 0.204414 0.819875 75 86 84
0.185934 0.204424 0.819666 107 118 116
0.183949 0.203558 0.818915 129 142 141
0.181986 0.203568 0.818707 146 159 158
0.180008 0.202703 0.817956 150 165 164
0.178035 0.201837 0.817206 154 169 168
0.176078 0.201847 0.816998 158 168 171
0.174121 0.201857 0.816791 140 150 153
0.172164 0.201867 0.816584 86 92 94
0.170206 0.201877 0.816376 56 62 64
0.168250 0.202763 0.816710 42 50 47
0.346386 0.201239 0.837480 46 52 50
0.344426 0.201249 0.837272 74 77 78
0.342237 0.200385 0.836496 119 122 123
0.340280 0.200395 0.836289 157 161 156
0.338322 0.200405 0.836081 164 168 163
0.336365 0.200415 0.835874 152 161 152
0.334408 0.200425 0.835666 135 144 135
0.332668 0.201309 0.836025 105 117 107
0.330708 0.201319 0.835818 100 112 102
0.328748 0.201329 0.835610 72 84 76
0.326998 0.202213 0.835968 50 62 54
0.325035 0.202223 0.835760 36 45 38
0.195630 0.205507 0.823672 43 51 50
0.193626 0.204643 0.822916 59 67 66
0.191659 0.204653 0.822707 80 93 90
0.189691 0.204663 0.822499 110 123 120
0.187698 0.203798 0.821744 134 147 144
0.185733 0.203808 0.821536 147 160 157
0.183768 0.203818 0.821327 154 165 165
0.181785 0.202953 0.820574 157 168 168
0.179823 0.202963 0.820366 152 163 163
0.177861 0.202973 0.820158 128 139 139
0.175898 0.202983 0.819950 89 94 99
0.173936 0.202993 0.819742 57 62 67
0.171979 0.203878 0.820077 47 53 53
0.342495 0.201518 0.839499 53 56 59
0.340306 0.200655 0.838721 77 80 83
0.338346 0.200665 0.838513 129 132 135
0.336387 0.200675 0.838305 154 161 155
0.334427 0.200684 0.838098 158 165 159
0.332467 0.200695 0.837890 148 158 146
0.330721 0.201578 0.838251 133 143 131
0.328759 0.201587 0.838043 106 115 106
0.326797 0.201598 0.837835 111 120 111
0.324834 0.201608 0.837627 89 101 93
0.322872 0.201618 0.837419 60 72 64
0.320910 0.201628 0.837211 38 46 43
0.201382 0.205733 0.826723 41 49 48
0.199368 0.204870 0.825964 55 66 64
0.197398 0.204880 0.825755 81 92 90
0.195428 0.204890 0.825546 105 113 110
0.193458 0.204900 0.825337 127 135 132
0.191457 0.204036 0.824579 142 155 150
0.189490 0.204046 0.824371 153 166 161
0.187497 0.203182 0.823613 158 169 167
0.185532 0.203192 0.823405 157 168 166
0.183567 0.203202 0.823197 147 155 156
0.181602 0.203212 0.822988 116 124 125
0.179637 0.203222 0.822780 71 76 81
0.177672 0.203232 0.822572 48 53 58
0.175707 0.203242 0.822363 42 48 50
0.338594 0.201794 0.841522 43 46 47
0.336629 0.201804 0.841313 65 71 69
0.334664 0.201814 0.841105 117 123 121
0.332483 0.200952 0.840326 147 154 148
0.330734 0.201834 0.840689 156 163 157
0.328769 0.201844 0.840480 149 159 147
0.326804 0.201854 0.840272 133 143 131
0.324839 0.201864 0.840064 116 130 119
0.322874 0.201874 0.839855 113 127 116
0.320910 0.201885 0.839647 83 94 90
0.318945 0.201895 0.839439 65 76 72
0.316980 0.201905 0.839231 42 49 43
0.315015 0.201915 0.839022 35 42 36
0.207149 0.205958 0.829781 39 42 41
0.205174 0.205968 0.829571 46 49 48
0.203153 0.205105 0.828809 67 75 72
0.201180 0.205115 0.828600 102 110 107
0.199207 0.205125 0.828391 128 137 130
0.197235 0.205135 0.828182 144 153 146
0.195226 0.204272 0.827420 150 159 152
0.193256 0.204282 0.827211 160 169 162
0.191286 0.204292 0.827003 160 171 167
0.189288 0.203429 0.826242 157 168 164
0.187321 0.203439 0.826034 142 153 153
0.185353 0.203449 0.825825 100 111 111
0.183386 0.203459 0.825617 61 72 72
0.181418 0.203469 0.825408 41 52 52
0.179451 0.203479 0.825199 46 49 50
0.334463 0.201198 0.842975 41 45 40
0.332498 0.201208 0.842766 53 57 52
0.330533 0.201218 0.842558 95 99 94
0.328568 0.201228 0.842350 133 140 132
0.326603 0.201238 0.842141 155 162 154
0.324638 0.201248 0.841933 154 166 156
0.322673 0.201258 0.841725 146 158 148
0.320708 0.201268 0.841516 134 143 136
0.318743 0.201278 0.841308 127 136 129
0.316778 0.201288 0.841100 110 117 109
0.314813 0.201298 0.840892 92 99 91
0.313039 0.202180 0.841254 78 85 77
0.311071 0.202190 0.841046 56 63 55
0.309104 0.202200 0.840837 39 46 40
0.307136 0.202210 0.840629 34 41 35
0.215093 0.208787 0.834727 34 43 34
0.213048 0.207925 0.833960 34 43 34
0.210953 0.206190 0.832636 48 55 47
0.208976 0.206201 0.832426 65 72 64
0.206998 0.206211 0.832216 86 93 85
0.205020 0.206221 0.832007 114 121 113
0.202996 0.205359 0.831241 137 146 139
0.201021 0.205369 0.831032 142 151 144
0.199046 0.205379 0.830823 150 159 152
0.197033 0.204516 0.830058 155 164 157
0.195060 0.204526 0.829849 159 170 166
0.193087 0.204536 0.829640 151 162 158
0.191115 0.204547 0.829431 116 127 127
0.189114 0.203684 0.828668 81 92 92
0.187144 0.203694 0.828459 47 58 58
0.185174 0.203704 0.828250 38 49 49
0.330545 0.201473 0.845003 45 46 42
0.328577 0.201483 0.844795 54 55 51
0.326610 0.201493 0.844586 88 89 85
0.324642 0.201503 0.844378 124 133 126
0.322675 0.201513 0.844169 150 159 152
0.320707 0.201523 0.843960 159 167 164
0.318740 0.201533 0.843752 160 168 165
0.316577 0.200672 0.842969 152 161 154
0.314805 0.201553 0.843335 141 150 143
0.312837 0.201563 0.843126 117 124 116
0.310870 0.201573 0.842918 107 114 106
0.308902 0.201583 0.842709 109 118 109
0.306935 0.201593 0.842500 93 102 93
0.304967 0.201603 0.842292 65 72 66
0.303177 0.202484 0.842655 43 50 44
0.301207 0.202494 0.842447 36 45 38
0.299237 0.202504 0.842238 34 43 36
0.220983 0.209877 0.838369 31 40 31
0.218993 0.209887 0.838158 40 49 40
0.216938 0.209026 0.837387 50 59 50
0.214889 0.208164 0.836616 67 75 64
0.212904 0.208174 0.836406 96 104 93
0.210862 0.207313 0.835636 121 129 118
0.208826 0.206452 0.834867 136 144 133
0.206846 0.206462 0.834657 146 158 148
0.204865 0.206472 0.834447 151 163 153
0.202839 0.205611 0.833679 156 165 156
0.200862 0.205621 0.833469 154 163 154
0.198884 0.205631 0.833259 150 158 155
0.196906 0.205641 0.833050 132 140 137
0.194928 0.205651 0.832840 104 112 109
0.192950 0.205661 0.832630 60 68 65
0.190972 0.205671 0.832421 46 54 53
0.188967 0.204810 0.831655 42 50 49
0.324441 0.200886 0.846249 53 54 50
0.322473 0.200896 0.846041 72 73 69
0.320506 0.200906 0.845832 99 102 103
0.318538 0.200916 0.845624 143 146 147
0.316571 0.200926 0.845415 154 160 160
0.314603 0.200936 0.845207 158 164 164
0.312636 0.200946 0.844998 144 153 146
0.310668 0.200956 0.844789 132 141 134
0.308701 0.200966 0.844581 118 128 116
0.306915 0.201846 0.844947 119 129 117
0.304945 0.201856 0.844739 116 125 116
0.302975 0.201866 0.844530 100 109 100
0.301005 0.201876 0.844321 86 97 93
0.299035 0.201886 0.844112 73 84 80
0.297234 0.202766 0.844477 49 62 57
0.295261 0.202777 0.844268 37 50 45
0.293289 0.202787 0.844059 32 44 36
0.291316 0.202797 0.843850 27 39 31
0.228979 0.211823 0.842800 27 34 28
0.226980 0.211834 0.842588 27 36 27
0.224908 0.210973 0.841812 45 54 45
0.222841 0.210113 0.841037 60 72 62
0.220848 0.210123 0.840826 79 91 81
0.218854 0.210133 0.840615 101 113 105
0.216798 0.209273 0.839841 114 126 118
0.214746 0.208412 0.839067 120 128 117
0.212700 0.207552 0.838295 145 153 142
0.210715 0.207562 0.838084 153 161 150
0.208729 0.207572 0.837874 156 164 153
0.206744 0.207582 0.837663 160 169 160
0.204710 0.206722 0.836892 156 165 156
0.202772 0.207603 0.837242 139 147 144
0.200744 0.206742 0.836471 98 106 103
0.198761 0.206752 0.836261 64 72 69
0.196778 0.206762 0.836051 46 54 51
0.318534 0.201168 0.848075 49 55 55
0.316564 0.201178 0.847866 66 69 72
0.314594 0.201188 0.847657 96 99 102
0.312624 0.201198 0.847448 122 126 121
0.310654 0.201208 0.847239 148 152 147
0.308684 0.201218 0.847031 155 163 152
0.306713 0.201228 0.846822 156 164 153
0.304743 0.201239 0.846613 148 157 148
0.302773 0.201249 0.846404 137 146 137
0.300803 0.201259 0.846195 130 142 132
0.299005 0.202138 0.846563 123 135 125
0.297032 0.202148 0.846354 89 100 96
0.295059 0.202158 0.846145 88 99 95
0.293087 0.202168 0.845935 81 95 86
0.291114 0.202178 0.845726 75 89 80
0.289300 0.203057 0.846092 59 73 62
0.287325 0.203067 0.845883 46 60 49
0.285349 0.203078 0.845674 39 51 41
0.283525 0.203957 0.846038 27 39 29
0.281547 0.203967 0.845829 25 35 23
0.279569 0.203977 0.845619 28 38 26
0.238858 0.212015 0.846328 27 35 34
0.236857 0.212026 0.846116 32 40 39
0.234856 0.212036 0.845904 37 43 45
0.232854 0.212046 0.845692 50 56 58
0.230853 0.212056 0.845480 64 72 71
0.228852 0.212066 0.845268 81 89 88
0.226775 0.211207 0.844489 100 112 104
0.224777 0.211217 0.844277 118 130 122
0.222708 0.210358 0.843500 131 143 135
0.220644 0.209498 0.842722 139 151 143
0.218650 0.209508 0.842511 147 161 152
0.216657 0.209518 0.842300 145 159 150
0.214603 0.208659 0.841524 145 157 149
0.212555 0.207799 0.840748 155 167 159
0.210511 0.206939 0.839973 158 162 155
0.208526 0.206950 0.839763 144 148 141
0.206540 0.206960 0.839552 110 117 111
0.204602 0.207840 0.839905 82 89 83
0.202614 0.207850 0.839694 50 58 57
0.200626 0.207860 0.839484 46 54 53
0.312611 0.201449 0.849903 43 47 42
0.310638 0.201459 0.849694 50 54 49
0.308666 0.201469 0.849485 70 79 72
0.306693 0.201479 0.849276 109 118 111
0.304720 0.201489 0.849067 131 140 133
0.302748 0.201499 0.848858 149 158 151
0.300775 0.201509 0.848649 154 161 153
0.298974 0.202388 0.849019 155 162 154
0.296998 0.202398 0.848809 148 157 150
0.295023 0.202408 0.848600 135 144 137
0.293048 0.202418 0.848390 124 138 129
0.291073 0.202428 0.848181 135 149 140
0.289256 0.203307 0.848549 122 137 123
0.287278 0.203317 0.848339 116 131 117
0.285300 0.203327 0.848130 105 118 105
0.283473 0.204205 0.848497 95 108 95
0.281492 0.204215 0.848287 79 89 77
0.279803 0.205963 0.849229 60 70 58
0.277817 0.205973 0.849019 53 62 55
0.275832 0.205983 0.848808 46 55 48
0.273846 0.205993 0.848598 37 48 44
0.271995 0.206872 0.848963 36 47 43
0.269875 0.206013 0.848177 33 44 42
0.267889 0.206023 0.847966 30 41 39
0.254326 0.208700 0.848211 21 36 31
0.252332 0.208710 0.848000 26 41 36
0.250446 0.209589 0.848361 25 38 33
0.248554 0.210468 0.848721 31 44 39
0.246657 0.211347 0.849081 31 42 40
0.244656 0.211357 0.848868 38 49 47
0.242751 0.212236 0.849227 46 57 57
0.240747 0.212247 0.849015 62 73 73
0.238744 0.212257 0.848803 80 91 89
0.236740 0.212267 0.848590 97 108 106
0.234736 0.212277 0.848378 125 131 131
0.232733 0.212287 0.848165 134 140 140
0.230648 0.211429 0.847383 142 150 147
0.228647 0.211439 0.847171 144 152 149
0.226571 0.210580 0.846390 143 157 146
0.224572 0.210590 0.846179 146 160 149
0.222574 0.210601 0.845967 152 166 155
0.220507 0.209742 0.845187 154 168 157
0.218446 0.208883 0.844407 155 163 160
0.216453 0.208893 0.844196 142 150 147
0.214459 0.208903 0.843985 124 132 133
0.212409 0.208045 0.843207 95 103 104
0.210418 0.208055 0.842996 64 67 66
0.208427 0.208065 0.842785 51 54 53
0.206436 0.208075 0.842574 45 48 47
0.306854 0.202596 0.852318 43 50 44
0.304876 0.202606 0.852108 46 54 51
0.302722 0.201748 0.851317 63 71 68
0.300920 0.202626 0.851689 76 82 80
0.298942 0.202636 0.851479 106 112 110
0.296964 0.202646 0.851269 137 145 144
0.294987 0.202656 0.851060 146 154 153
0.293009 0.202666 0.850850 155 163 160
0.291192 0.203544 0.851221 152 160 157
0.289211 0.203554 0.851011 152 164 156
0.287386 0.204432 0.851381 147 159 151
0.285556 0.205310 0.851750 132 145 132
0.283570 0.205320 0.851539 123 136 123
0.281585 0.205330 0.851329 112 122 110
0.279744 0.206208 0.851697 111 121 109
0.277756 0.206218 0.851486 117 126 117
0.275768 0.206228 0.851276 121 130 121
0.273917 0.207106 0.851643 108 120 112
0.272061 0.207984 0.852009 110 122 114
0.270068 0.207994 0.851798 106 114 113
0.268075 0.208004 0.851587 99 107 106
0.266081 0.208014 0.851375 89 100 98
0.264088 0.208025 0.851164 88 99 97
0.262095 0.208035 0.850953 79 93 84
0.260101 0.208045 0.850741 72 86 77
0.258108 0.208055 0.850530 69 85 74
0.256115 0.208065 0.850319 73 89 78
0.254345 0.209811 0.851258 84 100 89
0.252346 0.209821 0.851046 94 110 99
0.250348 0.209831 0.850834 100 112 104
0.248453 0.210710 0.851196 100 112 104
0.246553 0.211588 0.851558 109 120 116
0.244549 0.211598 0.851346 104 115 111
0.242546 0.211608 0.851134 117 128 126
0.240636 0.212486 0.851494 125 136 134
0.238538 0.211629 0.850709 131 144 139
0.236535 0.211639 0.850496 145 158 153
0.234531 0.211649 0.850284 153 161 158
0.232528 0.211659 0.850071 156 164 161
0.230524 0.211669 0.849859 156 163 157
0.228442 0.210812 0.849075 156 163 157
0.226441 0.210822 0.848863 154 166 158
0.224367 0.209964 0.848080 148 160 152
0.222369 0.209974 0.847868 131 142 140
0.220370 0.209984 0.847656 96 107 105
0.218372 0.209994 0.847444 74 82 81
0.216373 0.210005 0.847232 55 63 62
0.214375 0.210015 0.847021 41 47 49
0.212376 0.210025 0.846809 42 48 50
0.210323 0.209167 0.846028 46 49 50
0.299081 0.203749 0.854529 45 49 44
0.297098 0.203759 0.854318 47 53 53
0.295115 0.203770 0.854108 51 57 57
0.293132 0.203780 0.853898 76 82 80
0.291309 0.204657 0.854270 103 109 107
0.289324 0.204667 0.854060 121 132 130
0.287338 0.204677 0.853849 142 153 151
0.285505 0.205554 0.854221 145 156 152
0.283667 0.206431 0.854592 148 159 155
0.281824 0.207308 0.854962 153 165 155
0.279830 0.207318 0.854751 151 163 153
0.277837 0.207328 0.854540 147 156 147
0.275844 0.207339 0.854328 147 156 147
0.273988 0.208216 0.854697 139 146 140
0.272126 0.209093 0.855066 140 147 141
0.270128 0.209103 0.854854 121 129 126
0.268129 0.209113 0.854642 114 122 119
0.266131 0.209123 0.854430 118 129 125
0.264132 0.209134 0.854218 132 143 139
0.262134 0.209144 0.854006 137 151 142
0.260135 0.209154 0.853795 134 148 139
0.258137 0.209164 0.853583 128 142 131
0.256138 0.209174 0.853371 121 135 124
0.254140 0.209184 0.853159 121 136 122
0.252250 0.210062 0.853524 124 139 125
0.250249 0.210072 0.853312 131 143 133
0.248351 0.210949 0.853677 137 149 139
0.246348 0.210959 0.853465 142 151 144
0.244442 0.211837 0.853828 147 156 149
0.242436 0.211847 0.853616 146 154 151
0.240430 0.211857 0.853403 153 161 158
0.238424 0.211868 0.853190 153 166 163
0.236418 0.211878 0.852978 152 165 162
0.234411 0.211888 0.852765 150 163 160
0.232322 0.211031 0.851978 143 156 153
0.230319 0.211041 0.851765 126 132 132
0.228315 0.211051 0.851553 107 113 113
0.226236 0.210194 0.850767 87 90 89
0.224235 0.210204 0.850555 56 59 58
0.222234 0.210215 0.850342 47 53 53
0.220233 0.210225 0.850130 42 48 48
0.218232 0.210235 0.849918 44 47 48
0.289435 0.205776 0.857119 43 49 47
0.287599 0.206653 0.857493 48 54 52
0.285606 0.206663 0.857281 54 62 63
0.283613 0.206673 0.857070 71 79 80
0.281767 0.207549 0.857442 103 109 107
0.279915 0.208425 0.857814 124 130 128
0.277917 0.208436 0.857603 134 138 133
0.275918 0.208446 0.857391 142 146 141
0.274057 0.209322 0.857762 146 152 150
0.272056 0.209332 0.857550 153 159 157
0.270055 0.209342 0.857337 150 161 159
0.268054 0.209353 0.857125 150 161 159
0.266052 0.209363 0.856913 148 163 162
0.264051 0.209373 0.856701 151 166 165
0.262050 0.209383 0.856489 150 168 166
0.260049 0.209393 0.856277 154 172 170
0.258048 0.209404 0.856065 159 177 173
0.256047 0.209414 0.855852 159 177 173
0.254157 0.210290 0.856220 152 170 166
0.252153 0.210301 0.856008 145 163 159
0.250150 0.210311 0.855796 147 162 159
0.248249 0.211187 0.856162 150 165 162
0.246243 0.211198 0.855950 158 169 167
0.244237 0.211208 0.855737 151 162 160
0.242231 0.211218 0.855524 142 145 144
0.240224 0.211228 0.855312 126 129 128
0.238218 0.211238 0.855099 103 106 105
0.236212 0.211249 0.854886 72 75 74
0.234206 0.211259 0.854674 57 60 61
0.232200 0.211269 0.854461 49 52 53
0.230193 0.211279 0.854248 45 45 47
0.228110 0.210423 0.853459 45 45 47
0.279999 0.209529 0.860888 44 47 48
0.277996 0.209540 0.860676 41 44 43
0.275992 0.209550 0.860463 44 47 46
0.273988 0.209560 0.860251 46 52 52
0.272119 0.210436 0.860623 56 62 62
0.270112 0.210446 0.860411 61 72 72
0.268106 0.210456 0.860198 66 77 77
0.266100 0.210466 0.859985 66 80 82
0.264094 0.210476 0.859773 71 85 87
0.262087 0.210487 0.859560 74 91 94
0.260081 0.210497 0.859347 72 89 92
0.258075 0.210507 0.859134 70 87 88
0.256069 0.210517 0.858922 69 86 87
0.254063 0.210528 0.858709 64 81 82
0.252056 0.210538 0.858496 64 81 82
0.250050 0.210548 0.858284 66 80 82
0.248044 0.210558 0.858071 62 76 78
0.246038 0.210568 0.857858 62 69 73
0.244129 0.211444 0.858227 50 57 61
0.242120 0.211454 0.858014 46 48 54
0.240112 0.211465 0.857801 46 48 54
0.238103 0.211475 0.857588 44 44 46
