ply
format ascii 1.0
element vertex 113
property float x
property float y
property float z
end_header
-0.262948 0.097144 0.739000
-0.261387 0.097275 0.740000
-0.259470 0.097275 0.740000
-0.257901 0.097407 0.741000
-0.255982 0.097407 0.741000
-0.263304 0.099194 0.740000
-0.261387 0.099194 0.740000
-0.259821 0.099329 0.741000
-0.257901 0.099329 0.741000
-0.255982 0.099329 0.741000
-0.263659 0.101250 0.741000
-0.261740 0.101250 0.741000
-0.259821 0.101250 0.741000
-0.258249 0.101387 0.742000
-0.256328 0.101387 0.742000
-0.254749 0.101524 0.743000
-0.264015 0.103311 0.742000
-0.262093 0.103311 0.742000
-0.260522 0.103451 0.743000
-0.258597 0.103451 0.743000
-0.256673 0.103451 0.743000
-0.254749 0.103451 0.743000
-0.262446 0.105378 0.743000
-0.260522 0.105378 0.743000
-0.258597 0.105378 0.743000
-0.257018 0.105520 0.744000
-0.255091 0.105520 0.744000
-0.262800 0.107449 0.744000
-0.260873 0.107449 0.744000
-0.258946 0.107449 0.744000
-0.257018 0.107449 0.744000
-0.255434 0.107594 0.745000
-0.263153 0.109526 0.745000
-0.261223 0.109526 0.745000
-0.259294 0.109526 0.745000
-0.257364 0.109526 0.745000
-0.255777 0.109673 0.746000
-0.253845 0.109673 0.746000
-0.261574 0.111608 0.746000
-0.259642 0.111608 0.746000
-0.257709 0.111608 0.746000
-0.255777 0.111608 0.746000
-0.253845 0.111608 0.746000
-0.261574 0.113542 0.746000
-0.259642 0.113542 0.746000
-0.257709 0.113542 0.746000
-0.255777 0.113542 0.746000
-0.253845 0.113542 0.746000
-0.251913 0.113542 0.746000
-0.261574 0.115477 0.746000
-0.259642 0.115477 0.746000
-0.257709 0.115477 0.746000
-0.256120 0.115632 0.747000
-0.254185 0.115632 0.747000
-0.252250 0.115632 0.747000
-0.259990 0.117570 0.747000
-0.258055 0.117570 0.747000
-0.256120 0.117570 0.747000
-0.254185 0.117570 0.747000
-0.252250 0.117570 0.747000
-0.250315 0.117570 0.747000
-0.259990 0.119507 0.747000
-0.258055 0.119507 0.747000
-0.256463 0.119667 0.748000
-0.254525 0.119667 0.748000
-0.252588 0.119667 0.748000
-0.250651 0.119667 0.748000
-0.258400 0.121607 0.748000
-0.256463 0.121607 0.748000
-0.254525 0.121607 0.748000
-0.252588 0.121607 0.748000
-0.250651 0.121607 0.748000
-0.248713 0.121607 0.748000
-0.258400 0.123547 0.748000
-0.256463 0.123547 0.748000
-0.254525 0.123547 0.748000
-0.252588 0.123547 0.748000
-0.250651 0.123547 0.748000
-0.248713 0.123547 0.748000
-0.256463 0.125487 0.748000
-0.254525 0.125487 0.748000
-0.252588 0.125487 0.748000
-0.250651 0.125487 0.748000
-0.248713 0.125487 0.748000
-0.246776 0.125487 0.748000
-0.256806 0.127597 0.749000
-0.254866 0.127597 0.749000
-0.252926 0.127597 0.749000
-0.250986 0.127597 0.749000
-0.249046 0.127597 0.749000
-0.247106 0.127597 0.749000
-0.245165 0.127597 0.749000
-0.255206 0.129713 0.750000
-0.253263 0.129713 0.750000
-0.250986 0.129540 0.749000
-0.249378 0.129713 0.750000
-0.247435 0.129713 0.750000
-0.245493 0.129713 0.750000
-0.243550 0.129713 0.750000
-0.253263 0.131658 0.750000
-0.251321 0.131658 0.750000
-0.249378 0.131658 0.750000
-0.247435 0.131658 0.750000
-0.245493 0.131658 0.750000
-0.243550 0.131658 0.750000
-0.251991 0.133960 0.752000
-0.250043 0.133960 0.752000
-0.248095 0.133960 0.752000
-0.246147 0.133960 0.752000
-0.252326 0.136091 0.753000
-0.250376 0.136091 0.753000
-0.248425 0.136091 0.753000
-0.251041 0.138410 0.755000
