ply
format ascii 1.0
element vertex 113
property float x
property float y
property float z
end_header
0.398891 0.208717 0.754835
0.397297 0.209635 0.755105
0.395391 0.209644 0.754903
0.393790 0.210562 0.755172
0.391881 0.210571 0.754970
0.399008 0.209027 0.757121
0.397102 0.209037 0.756919
0.395503 0.209953 0.757190
0.393594 0.209963 0.756988
0.391686 0.209973 0.756786
0.399125 0.209336 0.759411
0.397216 0.209345 0.759208
0.395307 0.209355 0.759006
0.393703 0.210271 0.759280
0.391792 0.210280 0.759077
0.390180 0.211196 0.759350
0.399241 0.209642 0.761706
0.397330 0.209652 0.761503
0.395725 0.210567 0.761779
0.393811 0.210577 0.761576
0.391897 0.210586 0.761373
0.389984 0.210596 0.761171
0.397443 0.209957 0.763803
0.395529 0.209967 0.763600
0.393615 0.209976 0.763397
0.392002 0.210891 0.763675
0.390086 0.210900 0.763472
0.397555 0.210260 0.766107
0.395639 0.210270 0.765904
0.393722 0.210280 0.765701
0.391806 0.210290 0.765498
0.390188 0.211203 0.765777
0.397667 0.210562 0.768417
0.395748 0.210572 0.768213
0.393829 0.210582 0.768010
0.391910 0.210591 0.767807
0.390289 0.211504 0.768088
0.388368 0.211514 0.767885
0.395857 0.210872 0.770527
0.393935 0.210882 0.770324
0.392014 0.210892 0.770120
0.390092 0.210901 0.769916
0.388171 0.210911 0.769713
0.395660 0.210270 0.772355
0.393738 0.210279 0.772152
0.391817 0.210289 0.771948
0.389896 0.210299 0.771744
0.387974 0.210309 0.771541
0.386053 0.210319 0.771337
0.395463 0.209667 0.774184
0.393542 0.209677 0.773980
0.391620 0.209687 0.773776
0.389996 0.210597 0.774065
0.388072 0.210607 0.773861
0.386148 0.210616 0.773657
0.393647 0.209974 0.776303
0.391723 0.209984 0.776100
0.389799 0.209994 0.775896
0.387875 0.210003 0.775692
0.385951 0.210013 0.775488
0.384027 0.210023 0.775284
0.393450 0.209371 0.778134
0.391526 0.209380 0.777930
0.389898 0.210289 0.778224
0.387972 0.210299 0.778019
0.386045 0.210309 0.777815
0.384118 0.210318 0.777611
0.391627 0.209675 0.780261
0.389701 0.209685 0.780056
0.387774 0.209695 0.779852
0.385848 0.209705 0.779648
0.383921 0.209714 0.779444
0.381994 0.209724 0.779239
0.391430 0.209071 0.782094
0.389503 0.209081 0.781889
0.387577 0.209091 0.781685
0.385650 0.209100 0.781481
0.383724 0.209110 0.781277
0.381797 0.209120 0.781072
0.389306 0.208477 0.783722
0.387379 0.208486 0.783518
0.385453 0.208496 0.783314
0.383526 0.208506 0.783110
0.381600 0.208516 0.782905
0.379673 0.208526 0.782701
0.389404 0.208768 0.786063
0.387475 0.208778 0.785858
0.385546 0.208788 0.785654
0.383617 0.208797 0.785449
0.381687 0.208807 0.785245
0.379758 0.208817 0.785040
0.377829 0.208827 0.784836
0.387570 0.209068 0.788203
0.385638 0.209077 0.787998
0.383419 0.208193 0.787284
0.381775 0.209097 0.787589
0.379843 0.209107 0.787384
0.377911 0.209117 0.787179
0.375979 0.209127 0.786974
0.385440 0.208472 0.789836
0.383509 0.208482 0.789631
0.381577 0.208491 0.789426
0.379645 0.208501 0.789222
0.377713 0.208511 0.789017
0.375782 0.208521 0.788812
0.383885 0.209662 0.792497
0.381948 0.209672 0.792291
0.380011 0.209682 0.792086
0.378074 0.209692 0.791881
0.383973 0.209947 0.794856
0.382034 0.209957 0.794650
0.380094 0.209967 0.794444
0.382403 0.211132 0.797532
