ply
format ascii 1.0
element vertex 991
property float x
property float y
property float z
property uchar red
property uchar green
property uchar blue
end_header
0.254767 -0.504162 0.452868 152 131 126
0.256642 -0.505346 0.452661 150 123 115
0.258577 -0.505536 0.452352 141 114 106
0.260512 -0.505727 0.452043 137 103 95
0.262447 -0.505918 0.451734 137 103 95
0.264382 -0.506108 0.451425 145 107 98
0.266316 -0.506299 0.451116 150 112 103
0.268251 -0.506489 0.450807 156 118 109
0.270186 -0.506680 0.450498 163 125 116
0.272121 -0.506871 0.450189 167 135 129
0.274055 -0.507061 0.449880 174 142 136
0.249300 -0.503370 0.455722 146 111 106
0.251232 -0.503561 0.455413 136 101 96
0.255038 -0.504934 0.454900 133 82 68
0.256973 -0.505125 0.454591 133 75 59
0.258907 -0.505316 0.454282 132 74 58
0.260842 -0.505506 0.453973 134 74 59
0.262777 -0.505697 0.453664 142 82 67
0.264712 -0.505887 0.453356 143 80 66
0.266646 -0.506078 0.453047 141 78 64
0.268581 -0.506269 0.452738 144 79 66
0.270516 -0.506459 0.452429 147 82 69
0.272451 -0.506650 0.452120 142 82 67
0.274385 -0.506840 0.451811 153 93 78
0.276320 -0.507031 0.451502 152 100 91
0.278255 -0.507222 0.451193 168 116 107
0.280190 -0.507412 0.450884 169 137 131
0.282124 -0.507603 0.450575 177 145 139
0.245765 -0.502769 0.458267 142 101 95
0.247697 -0.502959 0.457959 128 87 81
0.249629 -0.503150 0.457650 137 77 62
0.251561 -0.503340 0.457342 137 77 62
0.255368 -0.504714 0.456831 144 80 62
0.257303 -0.504904 0.456522 143 79 61
0.259237 -0.505095 0.456213 143 79 61
0.261172 -0.505286 0.455904 142 80 63
0.263107 -0.505476 0.455595 143 81 64
0.264996 -0.506661 0.455391 143 81 64
0.266934 -0.506852 0.455082 142 80 63
0.268871 -0.507043 0.454772 143 78 65
0.270808 -0.507234 0.454463 144 79 66
0.272746 -0.507424 0.454153 143 79 63
0.274683 -0.507615 0.453844 144 80 64
0.276620 -0.507806 0.453535 145 81 65
0.278585 -0.507001 0.453123 143 79 63
0.280520 -0.507191 0.452814 147 87 74
0.282455 -0.507382 0.452505 156 96 83
0.284389 -0.507573 0.452196 156 113 104
0.286324 -0.507763 0.451887 168 125 116
0.288259 -0.507954 0.451579 168 147 142
0.240376 -0.500987 0.461009 140 120 121
0.242230 -0.502168 0.460813 141 98 93
0.244162 -0.502358 0.460504 122 79 74
0.246094 -0.502549 0.460195 135 72 58
0.248027 -0.502739 0.459887 137 74 60
0.249894 -0.503921 0.459689 146 79 64
0.251828 -0.504112 0.459380 146 79 64
0.253763 -0.504303 0.459071 147 85 68
0.255698 -0.504493 0.458762 146 84 67
0.257578 -0.505677 0.458562 142 86 70
0.259515 -0.505867 0.458252 138 82 66
0.261452 -0.506058 0.457943 141 90 74
0.263390 -0.506249 0.457634 143 92 76
0.265327 -0.506440 0.457324 141 93 78
0.267264 -0.506631 0.457015 139 91 76
0.269202 -0.506822 0.456705 139 88 74
0.271139 -0.507012 0.456396 139 88 74
0.273076 -0.507203 0.456087 138 82 68
0.275013 -0.507394 0.455777 137 81 67
0.276951 -0.507585 0.455468 140 80 65
0.278888 -0.507776 0.455159 139 79 64
0.280825 -0.507967 0.454849 141 76 63
0.282763 -0.508157 0.454540 143 78 65
0.284700 -0.508348 0.454230 144 81 69
0.286637 -0.508539 0.453921 148 85 73
0.288575 -0.508730 0.453612 150 98 87
0.290512 -0.508921 0.453302 167 115 104
0.292449 -0.509112 0.452993 169 139 132
0.238775 -0.500577 0.463242 141 98 91
0.240627 -0.501757 0.463049 127 84 77
0.242560 -0.501948 0.462741 137 74 60
0.244492 -0.502138 0.462432 141 78 64
0.246354 -0.503319 0.462237 145 78 63
0.248289 -0.503510 0.461928 149 82 67
0.250224 -0.503701 0.461619 144 84 69
0.252158 -0.503891 0.461311 153 93 78
0.254034 -0.505074 0.461114 157 112 99
0.255971 -0.505265 0.460804 165 120 107
0.257908 -0.505455 0.460495 159 128 117
0.259845 -0.505646 0.460186 160 129 118
0.261783 -0.505837 0.459876 159 133 122
0.263720 -0.506028 0.459567 153 127 116
0.265657 -0.506219 0.459257 149 122 114
0.267595 -0.506410 0.458948 149 122 114
0.269532 -0.506601 0.458639 147 117 110
0.271469 -0.506791 0.458329 145 115 108
0.273407 -0.506982 0.458020 144 108 98
0.275344 -0.507173 0.457711 139 103 93
0.277281 -0.507364 0.457401 140 95 82
0.279219 -0.507555 0.457092 134 89 76
0.281156 -0.507746 0.456782 136 80 66
0.283093 -0.507936 0.456473 138 82 68
0.285031 -0.508127 0.456164 142 79 65
0.286968 -0.508318 0.455854 143 80 66
0.288905 -0.508509 0.455545 144 80 62
0.290842 -0.508700 0.455235 150 86 68
0.292780 -0.508891 0.454926 143 87 71
0.294717 -0.509081 0.454617 156 100 84
0.296654 -0.509272 0.454307 163 127 119
0.298592 -0.509463 0.453998 177 141 133
0.235245 -0.499976 0.465784 145 104 98
0.237093 -0.501156 0.465595 128 87 81
0.239025 -0.501346 0.465286 134 69 56
0.240957 -0.501537 0.464978 137 72 59
0.242815 -0.502717 0.464786 142 75 60
0.244749 -0.502908 0.464477 145 78 63
0.246684 -0.503099 0.464168 149 89 74
0.248552 -0.504280 0.463975 166 106 91
0.250489 -0.504471 0.463666 163 122 112
0.252427 -0.504662 0.463356 173 132 122
0.277612 -0.507143 0.459334 148 119 109
0.279549 -0.507334 0.459025 146 117 107
0.281486 -0.507525 0.458716 144 103 93
0.283424 -0.507715 0.458406 135 94 84
0.285361 -0.507906 0.458097 139 88 74
0.287298 -0.508097 0.457787 132 81 67
0.289236 -0.508288 0.457478 137 78 60
0.291173 -0.508479 0.457169 139 80 62
0.293110 -0.508670 0.456859 142 81 59
0.295048 -0.508860 0.456550 143 82 60
0.296985 -0.509051 0.456241 146 86 71
0.298922 -0.509242 0.455931 152 92 77
0.300860 -0.509433 0.455622 152 109 102
0.302797 -0.509624 0.455312 173 130 123
0.231715 -0.499376 0.468326 148 118 113
0.233558 -0.500555 0.468140 127 97 92
0.235490 -0.500745 0.467831 133 73 58
0.237422 -0.500936 0.467523 134 74 59
0.239354 -0.501126 0.467214 144 74 58
0.241210 -0.502306 0.467026 147 77 61
0.243145 -0.502497 0.466717 148 85 73
0.245008 -0.503678 0.466527 168 105 93
0.246945 -0.503868 0.466218 169 128 118
0.248883 -0.504059 0.465908 182 141 131
0.283734 -0.508490 0.460451 148 123 116
0.285673 -0.508681 0.460141 150 116 104
0.287613 -0.508872 0.459831 142 108 96
0.289553 -0.509063 0.459521 137 91 73
0.291493 -0.509254 0.459212 129 83 65
0.293441 -0.508449 0.458793 138 81 62
0.295378 -0.508639 0.458483 139 82 63
0.297315 -0.508830 0.458174 142 80 63
0.299253 -0.509021 0.457864 142 80 63
0.301190 -0.509212 0.457555 143 80 68
0.303127 -0.509403 0.457246 149 86 74
0.305065 -0.509594 0.456936 150 104 96
0.307002 -0.509784 0.456627 169 123 115
0.308939 -0.509975 0.456318 169 148 147
0.230023 -0.499954 0.470685 133 108 101
0.231955 -0.500144 0.470377 133 82 68
0.233887 -0.500335 0.470068 128 77 63
0.235736 -0.501514 0.469883 137 73 55
0.237671 -0.501704 0.469574 141 77 59
0.239605 -0.501895 0.469265 149 86 72
0.241464 -0.503075 0.469079 163 100 86
0.243401 -0.503266 0.468770 177 134 127
0.245338 -0.503457 0.468460 184 141 134
0.289884 -0.508842 0.461457 152 123 111
0.291824 -0.509033 0.461147 145 116 104
0.293764 -0.509224 0.460838 144 99 86
0.295704 -0.509415 0.460528 135 90 77
0.297643 -0.509606 0.460218 134 78 62
0.299583 -0.509797 0.459908 135 79 63
0.301523 -0.509988 0.459598 140 78 61
0.303463 -0.510179 0.459289 139 77 60
0.305403 -0.510370 0.458979 146 84 67
0.307343 -0.510561 0.458669 153 91 74
0.309283 -0.510753 0.458359 151 104 93
0.311222 -0.510944 0.458049 170 123 112
0.313144 -0.510136 0.457632 166 145 144
0.226488 -0.499353 0.473231 136 117 111
0.228420 -0.499543 0.472922 140 93 82
0.230353 -0.499733 0.472613 130 83 72
0.232196 -0.500912 0.472432 140 77 63
0.234131 -0.501102 0.472123 144 81 67
0.236066 -0.501293 0.471814 135 75 60
0.238001 -0.501484 0.471505 153 93 78
0.239857 -0.502663 0.471322 174 131 124
0.241794 -0.502854 0.471012 185 142 135
0.296035 -0.509194 0.462464 146 120 109
0.297974 -0.509385 0.462154 149 107 95
0.299914 -0.509576 0.461844 138 96 84
0.301854 -0.509767 0.461534 135 82 67
0.303794 -0.509958 0.461224 132 79 64
0.305734 -0.510149 0.460915 137 80 61
0.307674 -0.510340 0.460605 137 80 61
0.309614 -0.510531 0.460295 142 83 65
0.311553 -0.510722 0.459985 145 86 68
0.313493 -0.510913 0.459675 146 97 87
0.315412 -0.510106 0.459256 162 113 103
0.317349 -0.510297 0.458947 162 139 136
0.224787 -0.499929 0.475599 147 106 98
0.226722 -0.500119 0.475290 125 84 76
0.228657 -0.500310 0.474981 136 73 59
0.230592 -0.500500 0.474672 140 77 63
0.232526 -0.500691 0.474363 137 77 64
0.234461 -0.500882 0.474054 144 84 71
0.236313 -0.502060 0.473874 148 102 94
0.238250 -0.502251 0.473564 186 140 132
0.302189 -0.510542 0.463585 151 111 98
0.304125 -0.509737 0.463160 140 100 87
0.306065 -0.509928 0.462850 132 84 67
0.308005 -0.510119 0.462541 129 81 64
0.309945 -0.510310 0.462231 137 79 63
0.311884 -0.510501 0.461921 136 78 62
0.313824 -0.510692 0.461611 139 79 64
0.315764 -0.510883 0.461301 147 87 72
0.317704 -0.511074 0.460992 145 96 86
0.319617 -0.510266 0.460570 164 115 105
0.321555 -0.510457 0.460261 159 136 133
0.223183 -0.499517 0.477838 131 101 94
0.225117 -0.499708 0.477529 139 79 66
0.227052 -0.499898 0.477220 138 78 65
0.228987 -0.500089 0.476911 140 77 63
0.230922 -0.500280 0.476603 142 79 65
0.232857 -0.500470 0.476294 144 95 83
0.234706 -0.501648 0.476116 175 126 114
0.236643 -0.501839 0.475807 176 150 146
0.306405 -0.510703 0.464903 146 108 97
0.308347 -0.510895 0.464593 139 101 90
0.310290 -0.511086 0.464283 138 92 76
0.312232 -0.511277 0.463973 125 79 63
0.314155 -0.510471 0.463547 133 75 59
0.316095 -0.510662 0.463237 133 75 59
0.318035 -0.510853 0.462927 140 80 67
0.319975 -0.511044 0.462618 152 92 79
0.321885 -0.510236 0.462194 144 95 85
0.323822 -0.510427 0.461885 161 112 102
0.325760 -0.510618 0.461576 165 139 135
0.219538 -0.499901 0.480525 133 114 110
0.221476 -0.500092 0.480215 140 89 75
0.223413 -0.500282 0.479906 127 76 62
0.225448 -0.499487 0.479460 140 73 58
0.227382 -0.499678 0.479151 143 76 61
0.229317 -0.499868 0.478842 137 81 69
0.231162 -0.501046 0.478669 156 100 88
0.233099 -0.501237 0.478359 170 138 132
0.310621 -0.510864 0.466221 148 114 102
0.312563 -0.511056 0.465911 141 107 95
0.314506 -0.511247 0.465601 140 92 77
0.316448 -0.511438 0.465290 125 77 62
0.318366 -0.510632 0.464863 136 78 62
0.320306 -0.510823 0.464554 138 80 64
0.322246 -0.511014 0.464244 147 85 68
0.324185 -0.511205 0.463934 151 89 72
0.326125 -0.511396 0.463624 156 104 93
0.328028 -0.510588 0.463199 169 117 106
0.329965 -0.510778 0.462890 171 146 139
0.217931 -0.499489 0.482767 144 103 93
0.219869 -0.499680 0.482458 121 80 70
0.221806 -0.499871 0.482149 142 75 58
0.223743 -0.500061 0.481839 138 71 54
0.225681 -0.500252 0.481530 136 74 57
0.227618 -0.500443 0.481221 155 93 76
0.229555 -0.500634 0.480911 173 135 126
0.231493 -0.500825 0.480602 186 148 139
0.314837 -0.511025 0.467539 150 116 104
0.316780 -0.511217 0.467229 144 110 98
0.318697 -0.510410 0.466799 142 96 80
0.320637 -0.510601 0.466489 126 80 64
0.322576 -0.510793 0.466180 136 79 60
0.324516 -0.510984 0.465870 139 82 63
0.326456 -0.511175 0.465560 146 84 67
0.328396 -0.511366 0.465250 150 88 71
0.330295 -0.510557 0.464823 150 99 85
0.332233 -0.510748 0.464514 163 112 98
0.334170 -0.510939 0.464204 169 142 136
0.336107 -0.511130 0.463895 179 152 146
0.214387 -0.498886 0.485319 145 113 107
0.216325 -0.499077 0.485010 123 91 85
0.218262 -0.499268 0.484701 132 69 55
0.220199 -0.499459 0.484391 132 69 55
0.222137 -0.499650 0.484082 149 82 67
0.224074 -0.499840 0.483773 146 79 64
0.226011 -0.500031 0.483463 161 112 102
0.227948 -0.500222 0.483154 188 139 129
0.319053 -0.511187 0.468857 149 115 103
0.320968 -0.510380 0.468425 147 113 101
0.322907 -0.510571 0.468115 143 97 79
0.324847 -0.510762 0.467806 131 85 67
0.326787 -0.510953 0.467496 131 75 59
0.328727 -0.511144 0.467186 132 76 60
0.330667 -0.511336 0.466876 144 81 67
0.332607 -0.511527 0.466566 154 91 77
0.334547 -0.511718 0.466257 157 101 89
0.336486 -0.511909 0.465947 163 107 95
0.338426 -0.512100 0.465637 165 133 129
0.340366 -0.512291 0.465327 177 145 141
0.212780 -0.498474 0.487562 134 113 108
0.214718 -0.498665 0.487253 139 86 73
0.216655 -0.498856 0.486943 128 75 62
0.218592 -0.499047 0.486634 144 74 58
0.220530 -0.499238 0.486325 145 75 59
0.222467 -0.499429 0.486015 147 89 77
0.224404 -0.499619 0.485706 175 117 105
0.226342 -0.499810 0.485396 183 151 145
0.323238 -0.510350 0.470051 148 114 102
0.325212 -0.511539 0.469865 144 110 98
0.327154 -0.511730 0.469555 142 96 80
0.329058 -0.510923 0.469122 130 84 68
0.330998 -0.511114 0.468812 131 75 61
0.332938 -0.511305 0.468502 135 79 65
0.334877 -0.511496 0.468192 144 79 66
0.336817 -0.511688 0.467883 151 86 73
0.338757 -0.511879 0.467573 153 97 85
0.340697 -0.512070 0.467263 165 109 97
0.342637 -0.512261 0.466953 170 133 128
0.211174 -0.498062 0.489805 142 101 93
0.213111 -0.498253 0.489495 124 83 75
0.215048 -0.498444 0.489186 143 75 63
0.216986 -0.498635 0.488877 143 75 63
0.218817 -0.499810 0.488716 151 88 74
0.220757 -0.500001 0.488406 161 98 84
0.222697 -0.500192 0.488096 170 129 121
0.329428 -0.511700 0.471183 140 109 96
0.331371 -0.511891 0.470872 143 96 83
0.333269 -0.511084 0.470438 129 82 69
0.335255 -0.512274 0.470252 131 73 59
0.337198 -0.512465 0.469942 133 75 61
0.339140 -0.512657 0.469632 147 82 71
0.341028 -0.511848 0.469199 149 84 73
0.343025 -0.513039 0.469011 152 92 81
0.344908 -0.512231 0.468579 165 105 94
0.346848 -0.512422 0.468269 165 130 125
0.207509 -0.498442 0.492510 147 116 107
0.209449 -0.498633 0.492200 131 100 91
0.211389 -0.498824 0.491890 139 76 62
0.213328 -0.499015 0.491581 137 74 60
0.215268 -0.499206 0.491271 144 77 62
0.217208 -0.499397 0.490961 144 77 62
0.219148 -0.499589 0.490651 161 112 100
0.221088 -0.499780 0.490342 183 134 122
0.333644 -0.511861 0.472501 148 114 102
0.335587 -0.512052 0.472190 149 103 87
0.337529 -0.512244 0.471880 136 90 74
0.339472 -0.512435 0.471570 133 75 61
0.341414 -0.512626 0.471260 136 78 64
0.343356 -0.512818 0.470950 139 76 64
0.345299 -0.513009 0.470639 147 84 72
0.347241 -0.513200 0.470329 155 95 84
0.349184 -0.513392 0.470019 167 107 96
0.351126 -0.513583 0.469709 164 125 121
0.353068 -0.513775 0.469399 174 135 131
0.205900 -0.498030 0.494756 132 113 107
0.207840 -0.498221 0.494446 139 87 76
0.209780 -0.498412 0.494136 129 77 66
0.211720 -0.498603 0.493826 145 75 61
0.213659 -0.498794 0.493517 144 74 60
0.215599 -0.498985 0.493207 151 93 79
0.217539 -0.499176 0.492897 179 121 107
0.219479 -0.499367 0.492587 176 144 140
0.337860 -0.512022 0.473819 142 111 98
0.339856 -0.513212 0.473637 147 102 89
0.341801 -0.513404 0.473326 135 90 77
0.343688 -0.512596 0.472888 134 78 64
0.345630 -0.512788 0.472578 132 76 62
0.347573 -0.512979 0.472268 140 78 61
0.349515 -0.513170 0.471957 146 84 67
0.351457 -0.513362 0.471647 146 88 74
0.353400 -0.513553 0.471337 158 100 86
0.355342 -0.513744 0.471027 162 121 115
0.357285 -0.513936 0.470717 180 139 133
0.202351 -0.497426 0.497311 128 119 112
0.204291 -0.497617 0.497001 140 102 91
0.206231 -0.497808 0.496691 124 86 75
0.208171 -0.497999 0.496382 142 75 58
0.210111 -0.498190 0.496072 145 78 61
0.212050 -0.498381 0.495762 145 80 67
0.213990 -0.498573 0.495452 156 91 78
0.215930 -0.498764 0.495143 174 131 124
0.342133 -0.513182 0.475267 145 116 106
0.344077 -0.513374 0.474956 146 104 92
0.346022 -0.513565 0.474646 132 90 78
0.347967 -0.513757 0.474335 129 76 59
0.349912 -0.513948 0.474024 134 81 64
0.351789 -0.513140 0.473586 143 81 62
0.353731 -0.513331 0.473275 148 86 67
0.355673 -0.513523 0.472965 157 94 80
0.357616 -0.513714 0.472655 167 104 90
0.359558 -0.513905 0.472345 168 122 116
0.361501 -0.514097 0.472035 182 136 130
0.200742 -0.497014 0.499557 142 115 107
0.202682 -0.497205 0.499247 127 100 92
0.204622 -0.497396 0.498937 136 78 62
0.206562 -0.497587 0.498627 138 80 64
0.208502 -0.497778 0.498317 143 76 59
0.210442 -0.497969 0.498008 146 79 62
0.212381 -0.498160 0.497698 156 105 91
0.214321 -0.498351 0.497388 187 136 122
0.346416 -0.514342 0.476718 145 116 106
0.348363 -0.514534 0.476407 149 109 94
0.350311 -0.514726 0.476096 128 88 73
0.352189 -0.513918 0.475655 130 77 60
0.354134 -0.514110 0.475344 130 77 60
0.356079 -0.514301 0.475033 139 77 60
0.357947 -0.513492 0.474593 149 87 70
0.359890 -0.513684 0.474283 157 92 79
0.361832 -0.513875 0.473973 161 96 83
0.363774 -0.514066 0.473663 169 126 119
0.365717 -0.514258 0.473352 182 139 132
0.197194 -0.496410 0.502112 148 121 115
0.199133 -0.496601 0.501802 137 110 104
0.201073 -0.496792 0.501492 139 86 73
0.203013 -0.496983 0.501183 129 76 63
0.204953 -0.497175 0.500873 143 76 59
0.206893 -0.497366 0.500563 142 75 58
0.208833 -0.497557 0.500253 145 85 70
0.210656 -0.498729 0.500106 175 115 100
0.212598 -0.498920 0.499796 174 143 132
0.350643 -0.514504 0.478040 148 122 109
0.352590 -0.514696 0.477729 148 108 93
0.354538 -0.514888 0.477418 132 92 77
0.356411 -0.514079 0.476974 134 81 64
0.358356 -0.514271 0.476664 130 77 60
0.360301 -0.514463 0.476353 136 73 59
0.362163 -0.513653 0.475911 143 80 66
0.364106 -0.513845 0.475601 155 92 78
0.366048 -0.514036 0.475291 160 97 83
0.367991 -0.514227 0.474981 169 126 119
0.369933 -0.514419 0.474670 186 143 136
0.195585 -0.495998 0.504358 141 115 111
0.197524 -0.496189 0.504048 144 95 85
0.199464 -0.496380 0.503738 129 80 70
0.201404 -0.496571 0.503428 141 77 61
0.203344 -0.496762 0.503118 138 74 58
0.205284 -0.496953 0.502809 137 74 60
0.207224 -0.497144 0.502499 141 78 64
0.209045 -0.498316 0.502355 173 131 119
0.354870 -0.514665 0.479361 146 120 107
0.356818 -0.514857 0.479050 148 108 93
0.358765 -0.515049 0.478739 133 93 78
0.360632 -0.514241 0.478294 129 76 59
0.362577 -0.514432 0.477983 129 76 59
0.364437 -0.513623 0.477539 140 78 61
0.366380 -0.513815 0.477229 144 82 65
0.368322 -0.514006 0.476919 156 93 81
0.370264 -0.514197 0.476609 164 101 89
0.372207 -0.514389 0.476299 167 125 122
0.374149 -0.514580 0.475988 189 147 144
0.193976 -0.495585 0.506603 155 109 103
0.195916 -0.495776 0.506293 134 88 82
0.197855 -0.495968 0.505984 142 78 62
0.199795 -0.496159 0.505674 142 78 62
0.201735 -0.496350 0.505364 141 77 61
0.203675 -0.496541 0.505054 145 81 65
0.205615 -0.496732 0.504744 153 102 88
0.207434 -0.497903 0.504604 182 131 117
0.359097 -0.514827 0.480683 148 119 107
0.361045 -0.515019 0.480372 152 112 97
0.362909 -0.514210 0.479924 141 101 86
0.364854 -0.514402 0.479614 133 80 63
0.366799 -0.514594 0.479303 133 80 63
0.368653 -0.513784 0.478857 144 81 67
0.370596 -0.513976 0.478547 146 83 69
0.372538 -0.514167 0.478237 149 89 78
0.374481 -0.514358 0.477927 168 108 97
0.376423 -0.514550 0.477617 171 134 131
0.378365 -0.514741 0.477306 189 152 149
0.190427 -0.494982 0.509159 151 116 111
0.192367 -0.495173 0.508849 135 100 95
0.194307 -0.495364 0.508539 141 78 64
0.196246 -0.495555 0.508229 135 72 58
0.198186 -0.495746 0.507919 145 75 59
0.200126 -0.495937 0.507610 142 72 56
0.202066 -0.496128 0.507300 143 85 69
0.204006 -0.496319 0.506990 166 108 92
0.205946 -0.496511 0.506680 174 140 132
0.363241 -0.513988 0.481865 144 118 105
0.365186 -0.514180 0.481555 150 108 94
0.367131 -0.514372 0.481244 138 96 82
0.368985 -0.513563 0.480796 135 79 65
0.370927 -0.513754 0.480485 136 80 66
0.372870 -0.513945 0.480175 142 77 64
0.374812 -0.514137 0.479865 155 90 77
0.376754 -0.514328 0.479555 160 101 92
0.378697 -0.514519 0.479245 172 113 104
0.380639 -0.514711 0.478934 173 147 145
0.186878 -0.494378 0.511714 151 121 114
0.188818 -0.494569 0.511404 140 110 103
0.190758 -0.494761 0.511094 138 82 70
0.192698 -0.494952 0.510785 131 75 63
0.194638 -0.495143 0.510475 144 74 58
0.196577 -0.495334 0.510165 141 71 55
0.198517 -0.495525 0.509855 137 77 62
0.200457 -0.495716 0.509545 159 99 84
0.202397 -0.495907 0.509236 177 139 130
0.367463 -0.514150 0.483185 144 115 105
0.369316 -0.513341 0.482734 150 105 92
0.371259 -0.513532 0.482424 138 93 80
0.373201 -0.513724 0.482114 138 82 68
0.375143 -0.513915 0.481803 136 80 66
0.377086 -0.514106 0.481493 148 85 71
0.379028 -0.514298 0.481183 153 90 76
0.381077 -0.515491 0.481011 150 107 100
0.383022 -0.515683 0.480700 177 134 127
0.185119 -0.494942 0.514141 140 118 110
0.187209 -0.494157 0.513650 145 98 85
0.189149 -0.494348 0.513340 130 83 70
0.191089 -0.494539 0.513030 144 74 58
0.193029 -0.494730 0.512720 140 70 54
0.194968 -0.494921 0.512411 136 72 56
0.196908 -0.495113 0.512101 151 87 71
0.198848 -0.495304 0.511791 164 119 108
0.200788 -0.495495 0.511481 185 140 129
0.371590 -0.513311 0.484362 142 111 102
0.373532 -0.513502 0.484052 147 102 89
0.375475 -0.513693 0.483742 131 86 73
0.377519 -0.514886 0.483573 134 78 64
0.379464 -0.515077 0.483262 142 86 72
0.381409 -0.515269 0.482952 136 93 86
0.383354 -0.515461 0.482641 143 100 93
0.183508 -0.494529 0.516389 149 107 95
0.185451 -0.494721 0.516079 134 92 80
0.187393 -0.494912 0.515769 137 73 57
0.189480 -0.494127 0.515276 140 76 60
0.191278 -0.495295 0.515149 142 75 60
0.193360 -0.494509 0.514656 143 76 61
0.195299 -0.494700 0.514346 152 100 89
0.197239 -0.494891 0.514037 185 133 122
0.375906 -0.514472 0.485824 141 115 104
0.377851 -0.514664 0.485514 132 91 81
0.379796 -0.514856 0.485203 127 86 76
0.381741 -0.515047 0.484892 117 87 82
0.383796 -0.516240 0.484724 134 104 99
0.179642 -0.495875 0.519324 151 117 107
0.181743 -0.495091 0.518825 141 107 97
0.183688 -0.495283 0.518515 136 78 62
0.185782 -0.494499 0.518018 136 78 62
0.187725 -0.494690 0.517707 140 73 58
0.189667 -0.494882 0.517397 142 75 60
0.191609 -0.495073 0.517087 147 89 75
0.193552 -0.495264 0.516777 173 115 101
0.195494 -0.495456 0.516467 179 143 135
0.380128 -0.514634 0.487144 143 122 117
0.382073 -0.514825 0.486833 133 116 116
0.178026 -0.495461 0.521578 136 106 99
0.179974 -0.495653 0.521267 142 86 72
0.181921 -0.495845 0.520956 136 80 66
0.184020 -0.495061 0.520456 137 75 56
0.185965 -0.495253 0.520145 141 79 60
0.188056 -0.494469 0.519646 138 78 63
0.189855 -0.495636 0.519524 162 102 87
0.191941 -0.494851 0.519025 169 128 118
0.174300 -0.495829 0.524338 145 122 117
0.176250 -0.496021 0.524026 145 96 86
0.178200 -0.496213 0.523715 132 83 73
0.180306 -0.495431 0.523210 142 78 62
0.182254 -0.495622 0.522899 142 78 62
0.184201 -0.495814 0.522588 138 79 61
0.186149 -0.496006 0.522277 144 85 67
0.188242 -0.495222 0.521775 158 113 102
0.190187 -0.495414 0.521465 180 135 124
0.172683 -0.495414 0.526595 152 109 100
0.174633 -0.495606 0.526283 138 95 86
0.176583 -0.495798 0.525972 138 71 54
0.178533 -0.495990 0.525661 139 72 55
0.180483 -0.496182 0.525349 136 72 56
0.182433 -0.496374 0.525038 140 76 60
0.184383 -0.496567 0.524726 147 100 87
0.186481 -0.495784 0.524221 168 121 108
0.169115 -0.494807 0.529164 151 115 105
0.171065 -0.494999 0.528852 139 103 93
0.173016 -0.495192 0.528541 142 80 63
0.174966 -0.495384 0.528229 136 74 57
0.176916 -0.495576 0.527918 141 71 55
0.178866 -0.495768 0.527607 138 68 52
0.180816 -0.495960 0.527295 139 86 73
0.182766 -0.496152 0.526984 165 112 99
0.184716 -0.496344 0.526672 169 139 132
0.167498 -0.494393 0.531421 142 110 104
0.169448 -0.494585 0.531110 143 85 71
0.171398 -0.494777 0.530798 138 80 66
0.173348 -0.494969 0.530487 146 76 57
0.175298 -0.495161 0.530175 145 75 56
0.177089 -0.496326 0.530065 142 79 65
0.179041 -0.496519 0.529753 155 92 78
0.181148 -0.495737 0.529241 164 130 122
0.183098 -0.495930 0.528930 172 138 130
0.163931 -0.493786 0.533990 145 120 113
0.165881 -0.493978 0.533678 150 98 87
0.167831 -0.494170 0.533367 135 83 72
0.169781 -0.494362 0.533056 146 76 62
0.171731 -0.494555 0.532744 146 76 62
0.173681 -0.494747 0.532433 140 76 60
0.175469 -0.495911 0.532326 144 80 64
0.177422 -0.496103 0.532014 162 117 104
0.179374 -0.496296 0.531702 173 128 115
0.162492 -0.492401 0.536038 157 110 99
0.164440 -0.492593 0.535727 136 89 78
0.166213 -0.493756 0.535624 145 75 59
0.168163 -0.493948 0.535313 147 77 61
0.170113 -0.494140 0.535002 143 76 59
0.171897 -0.495304 0.534898 147 80 63
0.173850 -0.495496 0.534586 156 105 91
0.175802 -0.495688 0.534274 181 130 116
0.177596 -0.496853 0.534168 164 139 130
0.158746 -0.492765 0.538816 155 114 104
0.160877 -0.491987 0.538292 138 97 87
0.162825 -0.492179 0.537981 148 78 62
0.164772 -0.492371 0.537670 146 76 60
0.166546 -0.493533 0.537570 147 78 59
0.168496 -0.493725 0.537259 141 72 53
0.170446 -0.493917 0.536947 142 86 70
0.172230 -0.495081 0.536846 167 111 95
0.174183 -0.495273 0.536534 166 135 126
0.155179 -0.492158 0.541385 157 119 108
0.157314 -0.491381 0.540858 146 108 97
0.159262 -0.491573 0.540547 147 80 63
0.161209 -0.491765 0.540236 142 75 58
0.163157 -0.491957 0.539925 150 77 57
0.164929 -0.493119 0.539828 145 72 52
0.166879 -0.493311 0.539516 152 93 75
0.168829 -0.493503 0.539205 162 103 85
0.170779 -0.493695 0.538893 171 135 125
0.172563 -0.494858 0.538795 172 136 126
0.151611 -0.491552 0.543954 159 123 113
0.153561 -0.491744 0.543642 145 109 99
0.155699 -0.490967 0.543112 146 84 67
0.157647 -0.491159 0.542801 141 79 62
0.159594 -0.491351 0.542490 150 75 56
0.161542 -0.491543 0.542179 151 76 57
0.163311 -0.492704 0.542085 146 79 62
0.165261 -0.492896 0.541774 160 93 76
0.167211 -0.493088 0.541462 170 127 118
0.169161 -0.493280 0.541151 177 134 125
0.149994 -0.491137 0.546211 141 110 101
0.151944 -0.491329 0.545900 152 94 78
0.154084 -0.490553 0.545366 137 79 63
0.156031 -0.490745 0.545055 148 75 57
0.157979 -0.490937 0.544744 148 75 57
0.159926 -0.491129 0.544433 144 74 58
0.161694 -0.492290 0.544342 152 82 66
0.163644 -0.492482 0.544031 155 106 94
0.165594 -0.492674 0.543720 179 130 118
0.167544 -0.492866 0.543408 161 135 131
0.146426 -0.490530 0.548780 143 117 106
0.148376 -0.490722 0.548468 149 98 82
0.150326 -0.490915 0.548157 135 84 68
0.152277 -0.491107 0.547845 144 74 58
0.154227 -0.491299 0.547534 142 72 56
0.156177 -0.491491 0.547223 142 72 56
0.158127 -0.491683 0.546911 141 71 55
0.160077 -0.491875 0.546600 153 102 88
0.162027 -0.492067 0.546288 175 124 110
0.163977 -0.492259 0.545977 167 137 130
0.142450 -0.491856 0.551807 150 120 113
0.144607 -0.491082 0.551266 145 94 78
0.146759 -0.490308 0.550726 138 87 71
0.148709 -0.490500 0.550414 145 75 56
0.150659 -0.490692 0.550103 147 77 58
0.152609 -0.490884 0.549791 142 72 56
0.154559 -0.491076 0.549480 144 74 58
0.156509 -0.491268 0.549169 142 89 76
0.158459 -0.491460 0.548857 167 114 101
0.160409 -0.491653 0.548546 164 137 131
0.138873 -0.491247 0.554383 149 124 117
0.140828 -0.491440 0.554070 158 110 95
0.142784 -0.491632 0.553758 140 92 77
0.144940 -0.490859 0.553215 145 76 55
0.147092 -0.490085 0.552672 148 79 58
0.149042 -0.490277 0.552360 148 78 57
0.150798 -0.491436 0.552279 147 77 56
0.152942 -0.490662 0.551737 146 88 74
0.154703 -0.491821 0.551655 169 111 97
0.156656 -0.492013 0.551344 161 129 123
0.158608 -0.492206 0.551032 167 135 129
0.135297 -0.490639 0.556958 144 123 118
0.137252 -0.490832 0.556646 157 112 101
0.139207 -0.491024 0.556334 138 93 82
0.141162 -0.491217 0.556021 152 83 62
0.143117 -0.491409 0.555709 146 77 56
0.145273 -0.490636 0.555163 147 77 54
0.147226 -0.490829 0.554851 145 75 52
0.149179 -0.491021 0.554539 145 81 65
0.150938 -0.492180 0.554460 168 104 88
0.152893 -0.492372 0.554148 170 132 123
0.154848 -0.492565 0.553836 174 136 127
0.133675 -0.490223 0.559221 158 122 110
0.135630 -0.490416 0.558909 143 107 95
0.137585 -0.490609 0.558597 145 81 63
0.139540 -0.490801 0.558285 143 79 61
0.141496 -0.490994 0.557972 151 78 56
0.143451 -0.491186 0.557660 149 76 54
0.145406 -0.491379 0.557348 149 82 65
0.147361 -0.491571 0.557036 157 90 73
0.151078 -0.492923 0.556647 175 129 121
0.132053 -0.489808 0.561485 144 113 102
0.134009 -0.490000 0.561172 147 89 73
0.135964 -0.490193 0.560860 137 79 63
0.137919 -0.490386 0.560548 147 77 58
0.139874 -0.490578 0.560236 145 75 56
0.141829 -0.490771 0.559924 139 72 55
0.143784 -0.490963 0.559611 157 90 73
0.145539 -0.492121 0.559538 167 120 107
0.147497 -0.492314 0.559225 175 128 115
0.128254 -0.490162 0.564305 145 120 111
0.130212 -0.490355 0.563993 154 101 86
0.132169 -0.490548 0.563680 137 84 69
0.134127 -0.490740 0.563367 145 76 57
0.136085 -0.490933 0.563055 145 76 57
0.138042 -0.491126 0.562742 142 75 58
0.140000 -0.491319 0.562430 144 77 60
0.141958 -0.491512 0.562117 148 100 85
0.143916 -0.491705 0.561804 179 131 116
0.145873 -0.491897 0.561492 164 134 129
0.126630 -0.489746 0.566572 152 107 96
0.128588 -0.489939 0.566259 138 93 82
0.130546 -0.490131 0.565946 147 77 61
0.132503 -0.490324 0.565634 146 76 60
0.134461 -0.490517 0.565321 146 77 56
0.136419 -0.490710 0.565008 144 75 54
0.138376 -0.490903 0.564696 150 99 83
0.140334 -0.491096 0.564383 169 118 102
0.142292 -0.491288 0.564071 165 135 128
0.123049 -0.489137 0.569150 157 119 108
0.125007 -0.489329 0.568838 146 108 97
0.126964 -0.489522 0.568525 147 80 65
0.128922 -0.489715 0.568213 145 78 63
0.130880 -0.489908 0.567900 147 77 58
0.132621 -0.491063 0.567837 148 78 59
0.134581 -0.491256 0.567524 148 89 71
0.136541 -0.491449 0.567211 166 107 89
0.138501 -0.491642 0.566898 169 135 127
0.140462 -0.491836 0.566585 165 131 123
0.121425 -0.488720 0.571417 144 110 102
0.123383 -0.488913 0.571104 154 92 75
0.125341 -0.489106 0.570791 142 80 63
0.127074 -0.490260 0.570732 151 78 58
0.129035 -0.490453 0.570419 150 77 57
0.130995 -0.490646 0.570106 140 76 60
0.132739 -0.491802 0.570045 158 94 78
0.134488 -0.492957 0.569983 166 125 115
0.136453 -0.493151 0.569669 174 133 123
0.117372 -0.490031 0.574511 150 123 117
0.119568 -0.489264 0.573940 152 96 84
0.121528 -0.489457 0.573627 137 81 69
0.123488 -0.489650 0.573314 149 76 58
0.125223 -0.490804 0.573257 150 77 59
0.126962 -0.491959 0.573200 147 77 61
0.128927 -0.492152 0.572886 151 81 65
0.130893 -0.492346 0.572572 160 111 101
0.132858 -0.492540 0.572258 180 131 121
0.134610 -0.493695 0.572199 162 136 132
0.113540 -0.490379 0.577358 149 124 117
0.115505 -0.490573 0.577044 157 108 98
0.117471 -0.490767 0.576730 141 92 82
0.119669 -0.490000 0.576156 150 76 61
0.121632 -0.490194 0.575843 151 77 62
0.123367 -0.491347 0.575789 147 76 60
0.125332 -0.491541 0.575475 149 78 62
0.127297 -0.491735 0.575161 156 100 88
0.129042 -0.492889 0.575105 177 121 109
0.130792 -0.494044 0.575048 167 135 129
0.111910 -0.489962 0.579633 158 112 104
0.113875 -0.490155 0.579319 147 101 93
0.115841 -0.490349 0.579005 152 82 66
0.117806 -0.490542 0.578691 148 78 62
0.119771 -0.490736 0.578378 152 77 60
0.121737 -0.490930 0.578064 151 76 59
0.123702 -0.491123 0.577750 148 88 73
0.125442 -0.492277 0.577697 173 113 98
0.127187 -0.493431 0.577644 166 130 122
0.129158 -0.493625 0.577329 171 135 127
0.108315 -0.489350 0.582222 154 116 105
0.110280 -0.489544 0.581908 140 102 91
0.112245 -0.489737 0.581594 149 85 67
0.114451 -0.488973 0.581014 143 79 61
0.116413 -0.489166 0.580701 150 77 57
0.118141 -0.490318 0.580653 148 75 55
0.120107 -0.490512 0.580339 146 79 64
0.122072 -0.490705 0.580025 167 100 85
0.123810 -0.491859 0.579975 169 128 122
0.125553 -0.493012 0.579925 173 132 126
0.104719 -0.488739 0.584811 152 121 112
0.106685 -0.488932 0.584497 139 108 99
0.108650 -0.489126 0.584183 144 82 65
0.110615 -0.489320 0.583869 143 81 64
0.112581 -0.489513 0.583555 149 76 54
0.114785 -0.488749 0.582973 145 72 50
0.116511 -0.489900 0.582928 146 79 62
0.118477 -0.490094 0.582614 158 91 74
0.120442 -0.490287 0.582300 164 119 108
0.122178 -0.491440 0.582253 175 130 119
0.101124 -0.488127 0.587400 152 123 113
0.103089 -0.488321 0.587086 143 114 104
0.105055 -0.488514 0.586772 144 88 72
0.107020 -0.488708 0.586458 137 81 65
0.108985 -0.488902 0.586144 151 78 58
0.110951 -0.489095 0.585830 151 78 58
0.112916 -0.489289 0.585517 145 76 57
0.114881 -0.489482 0.585203 154 85 66
0.116847 -0.489676 0.584889 157 110 97
0.118812 -0.489870 0.584575 178 131 118
0.120777 -0.490063 0.584261 163 137 133
0.099494 -0.487710 0.589675 142 115 107
0.101459 -0.487903 0.589361 150 97 82
0.103425 -0.488097 0.589047 133 80 65
0.105390 -0.488290 0.588733 147 77 58
0.107355 -0.488484 0.588419 149 79 60
0.109321 -0.488678 0.588105 146 77 58
0.111286 -0.488871 0.587792 151 82 63
0.113251 -0.489065 0.587478 152 101 87
0.115216 -0.489258 0.587164 176 125 111
0.117182 -0.489452 0.586850 165 135 128
0.095899 -0.487098 0.592264 145 118 110
0.097864 -0.487292 0.591950 152 101 87
0.099829 -0.487485 0.591636 133 82 68
0.101795 -0.487679 0.591322 145 75 56
0.103760 -0.487872 0.591008 147 77 58
0.105725 -0.488066 0.590694 146 76 57
0.107691 -0.488260 0.590381 146 76 57
0.109656 -0.488453 0.590067 149 96 81
0.111621 -0.488647 0.589753 169 116 101
0.113586 -0.488840 0.589439 167 135 129
0.115552 -0.489034 0.589125 166 134 128
0.092303 -0.486487 0.594853 145 125 117
0.094269 -0.486680 0.594539 153 106 93
0.096234 -0.486874 0.594225 138 91 78
0.098199 -0.487067 0.593911 143 76 59
0.100165 -0.487261 0.593597 146 79 62
0.102130 -0.487455 0.593283 147 77 58
0.103842 -0.488604 0.593251 145 75 56
0.105810 -0.488798 0.592937 146 86 71
0.107778 -0.488991 0.592622 172 112 97
0.109746 -0.489185 0.592308 165 131 123
0.111714 -0.489379 0.591994 165 131 123
0.090403 -0.487022 0.597414 151 113 102
0.092371 -0.487216 0.597100 136 98 87
0.094339 -0.487410 0.596786 147 80 63
0.096306 -0.487604 0.596472 145 78 61
0.098274 -0.487798 0.596157 147 77 58
0.100242 -0.487991 0.595843 148 78 59
0.102210 -0.488185 0.595529 144 82 65
0.103925 -0.489334 0.595499 167 105 88
0.106146 -0.488573 0.594900 165 127 118
0.108114 -0.488767 0.594586 171 133 124
0.086253 -0.488315 0.600587 148 117 106
0.088498 -0.487557 0.599982 130 99 88
0.090739 -0.486798 0.599378 140 83 64
0.092439 -0.487945 0.599353 132 75 56
0.094674 -0.487185 0.598750 147 74 54
0.096380 -0.488333 0.598724 148 75 55
0.098350 -0.488527 0.598409 147 83 67
0.100321 -0.488721 0.598094 161 97 81
0.102291 -0.488915 0.597780 164 121 112
0.104261 -0.489110 0.597465 176 133 124
0.082643 -0.487701 0.603186 148 117 106
0.084616 -0.487896 0.602871 142 111 100
0.086589 -0.488090 0.602556 141 85 69
0.088834 -0.487332 0.601948 134 78 62
0.090805 -0.487526 0.601634 147 78 57
0.092775 -0.487720 0.601319 144 75 54
0.094745 -0.487914 0.601004 140 73 56
0.096716 -0.488108 0.600690 150 83 66
0.098686 -0.488302 0.600375 159 114 103
0.100657 -0.488496 0.600060 173 128 117
0.102627 -0.488691 0.599746 156 133 128
0.081007 -0.487282 0.605470 143 117 106
0.082980 -0.487476 0.605155 147 96 82
0.084953 -0.487671 0.604840 138 87 73
0.086926 -0.487865 0.604525 142 73 54
0.089170 -0.487107 0.603915 144 75 56
0.091141 -0.487301 0.603600 144 75 56
0.093111 -0.487495 0.603285 151 82 63
0.094818 -0.488642 0.603264 156 105 91
0.096791 -0.488837 0.602949 176 125 111
0.098763 -0.489031 0.602634 162 135 129
0.077111 -0.487619 0.608369 147 125 117
0.079371 -0.486863 0.607754 154 107 94
0.081343 -0.487057 0.607439 130 83 70
0.083316 -0.487251 0.607124 147 81 61
0.085289 -0.487446 0.606809 144 78 58
0.087262 -0.487640 0.606493 140 71 52
0.089235 -0.487834 0.606178 142 73 54
0.091208 -0.488029 0.605863 146 88 72
0.093181 -0.488223 0.605548 176 118 102
0.095154 -0.488417 0.605233 167 133 125
0.075473 -0.487199 0.610656 152 110 98
0.077734 -0.486443 0.610038 136 94 82
0.079707 -0.486637 0.609723 147 83 65
0.081680 -0.486832 0.609408 141 77 59
0.083653 -0.487026 0.609092 145 76 57
0.085626 -0.487220 0.608777 140 71 52
0.087599 -0.487415 0.608462 145 86 68
0.089572 -0.487609 0.608147 167 108 90
0.091545 -0.487804 0.607832 170 132 121
0.093252 -0.488950 0.607816 170 132 121
0.071859 -0.486584 0.613258 156 118 107
0.073834 -0.486779 0.612942 145 107 96
0.076098 -0.486024 0.612322 144 82 63
0.078071 -0.486218 0.612007 141 79 60
0.080044 -0.486412 0.611691 145 76 55
0.082017 -0.486607 0.611376 145 76 55
0.083990 -0.486801 0.611061 141 79 60
0.085963 -0.486995 0.610746 160 98 79
0.087936 -0.487190 0.610431 172 131 121
0.089908 -0.487384 0.610116 172 131 121
0.068245 -0.485970 0.615860 157 123 113
0.070220 -0.486164 0.615545 146 112 102
0.072196 -0.486359 0.615229 151 92 74
0.074461 -0.485604 0.614605 140 81 63
0.076434 -0.485799 0.614290 148 78 55
0.078407 -0.485993 0.613975 147 77 54
0.080380 -0.486187 0.613660 138 74 56
0.082353 -0.486382 0.613345 155 91 73
0.084326 -0.486576 0.613030 157 115 101
0.086024 -0.487721 0.613021 174 132 118
0.066606 -0.485550 0.618147 147 118 108
0.068582 -0.485744 0.617832 151 95 81
0.070852 -0.484990 0.617204 135 79 65
0.072825 -0.485185 0.616889 148 75 55
0.074798 -0.485379 0.616574 149 76 56
0.076771 -0.485573 0.616259 144 75 54
0.078744 -0.485768 0.615944 151 82 61
0.080717 -0.485962 0.615629 154 108 92
0.082690 -0.486157 0.615314 177 131 115
0.062992 -0.484935 0.620749 148 123 116
0.065270 -0.484182 0.620118 152 100 89
0.067243 -0.484377 0.619803 141 89 78
0.069216 -0.484571 0.619488 145 75 56
0.071189 -0.484765 0.619173 146 76 57
0.073162 -0.484960 0.618858 147 77 58
0.075135 -0.485154 0.618543 143 73 54
0.077108 -0.485348 0.618228 152 96 82
0.078796 -0.486492 0.618226 173 117 103
0.080772 -0.486686 0.617910 165 134 125
0.061661 -0.483568 0.622717 156 109 98
0.063633 -0.483763 0.622402 143 96 85
0.065606 -0.483957 0.622087 149 78 62
0.067579 -0.484152 0.621772 152 81 65
0.069552 -0.484346 0.621457 148 77 61
0.071525 -0.484540 0.621142 148 77 61
0.073498 -0.484735 0.620827 141 83 69
0.075471 -0.484929 0.620512 172 114 100
0.077158 -0.486072 0.620512 171 135 125
0.057740 -0.483900 0.625638 159 117 105
0.060024 -0.483149 0.625001 141 99 87
0.061997 -0.483343 0.624686 153 83 67
0.063970 -0.483538 0.624371 147 77 61
0.065943 -0.483732 0.624056 149 76 58
0.067916 -0.483926 0.623741 145 72 54
0.069593 -0.485068 0.623746 139 79 64
0.071568 -0.485263 0.623430 167 107 92
0.073544 -0.485457 0.623115 164 128 116
0.075519 -0.485652 0.622799 169 133 121
0.053810 -0.484231 0.628566 160 124 112
0.056101 -0.483481 0.627925 150 114 102
0.058077 -0.483675 0.627610 148 86 69
0.060052 -0.483870 0.627294 140 78 61
0.062028 -0.484064 0.626979 150 77 57
0.064003 -0.484259 0.626663 148 75 55
0.065979 -0.484453 0.626348 142 78 60
0.067954 -0.484648 0.626032 154 90 72
0.069930 -0.484843 0.625717 164 126 115
0.071905 -0.485037 0.625401 173 135 124
0.052169 -0.483810 0.630856 146 120 109
0.054147 -0.484005 0.630540 138 82 68
0.056125 -0.484200 0.630224 141 85 71
0.058414 -0.483450 0.629581 147 77 58
0.060389 -0.483644 0.629266 147 77 58
0.062365 -0.483839 0.628950 142 75 58
0.064340 -0.484033 0.628635 154 87 70
0.066316 -0.484228 0.628319 165 120 109
0.067993 -0.485369 0.628329 175 130 119
0.052189 -0.484529 0.633161 111 80 67
0.054484 -0.483779 0.632514 140 73 58
0.056463 -0.483974 0.632198 142 75 60
0.058441 -0.484169 0.631882 139 72 57
0.060419 -0.484364 0.631566 149 82 67
0.062397 -0.484559 0.631251 157 108 96
0.064375 -0.484754 0.630935 178 129 117
0.066353 -0.484949 0.630619 159 136 131
0.052526 -0.484303 0.635137 110 81 69
0.054507 -0.484498 0.634821 127 74 61
0.056488 -0.484693 0.634505 134 81 68
0.058468 -0.484888 0.634188 151 102 90
0.060449 -0.485083 0.633872 179 130 118
0.062429 -0.485278 0.633556 166 139 131
0.052864 -0.484077 0.637114 115 97 86
0.054845 -0.484272 0.636797 136 100 90
0.056826 -0.484467 0.636481 165 129 119
