ply
format ascii 1.0
element vertex 991
property float x
property float y
property float z
property uchar red
property uchar green
property uchar blue
end_header
0.016963 -0.016371 0.759000 152 131 126
0.018954 -0.016392 0.760000 150 123 115
0.020922 -0.016392 0.760000 141 114 106
0.022891 -0.016392 0.760000 137 103 95
0.024859 -0.016392 0.760000 137 103 95
0.026828 -0.016392 0.760000 145 107 98
0.028796 -0.016392 0.760000 150 112 103
0.030765 -0.016392 0.760000 156 118 109
0.032734 -0.016392 0.760000 163 125 116
0.034702 -0.016392 0.760000 167 135 129
0.036671 -0.016392 0.760000 174 142 136
0.011065 -0.014402 0.759000 146 111 106
0.013031 -0.014402 0.759000 136 101 96
0.016985 -0.014421 0.760000 133 82 68
0.018954 -0.014421 0.760000 133 75 59
0.020922 -0.014421 0.760000 132 74 58
0.022891 -0.014421 0.760000 134 74 59
0.024859 -0.014421 0.760000 142 82 67
0.026828 -0.014421 0.760000 143 80 66
0.028796 -0.014421 0.760000 141 78 64
0.030765 -0.014421 0.760000 144 79 66
0.032734 -0.014421 0.760000 147 82 69
0.034702 -0.014421 0.760000 142 82 67
0.036671 -0.014421 0.760000 153 93 78
0.038639 -0.014421 0.760000 152 100 91
0.040608 -0.014421 0.760000 168 116 107
0.042576 -0.014421 0.760000 169 137 131
0.044545 -0.014421 0.760000 177 145 139
0.007133 -0.012434 0.759000 142 101 95
0.009099 -0.012434 0.759000 128 87 81
0.011065 -0.012434 0.759000 137 77 62
0.013031 -0.012434 0.759000 137 77 62
0.016985 -0.012450 0.760000 144 80 62
0.018954 -0.012450 0.760000 143 79 61
0.020922 -0.012450 0.760000 143 79 61
0.022891 -0.012450 0.760000 142 80 63
0.024859 -0.012450 0.760000 143 81 64
0.026863 -0.012466 0.761000 143 81 64
0.028834 -0.012466 0.761000 142 80 63
0.030805 -0.012466 0.761000 143 78 65
0.032777 -0.012466 0.761000 144 79 66
0.034748 -0.012466 0.761000 143 79 63
0.036719 -0.012466 0.761000 144 80 64
0.038690 -0.012466 0.761000 145 81 65
0.040608 -0.012450 0.760000 143 79 63
0.042576 -0.012450 0.760000 147 87 74
0.044545 -0.012450 0.760000 156 96 83
0.046513 -0.012450 0.760000 156 113 104
0.048482 -0.012450 0.760000 168 125 116
0.050450 -0.012450 0.760000 168 147 142
0.001234 -0.010451 0.758000 140 120 121
0.003201 -0.010465 0.759000 141 98 93
0.005167 -0.010465 0.759000 122 79 74
0.007133 -0.010465 0.759000 135 72 58
0.009099 -0.010465 0.759000 137 74 60
0.011080 -0.010479 0.760000 146 79 64
0.013048 -0.010479 0.760000 146 79 64
0.015017 -0.010479 0.760000 147 85 68
0.016985 -0.010479 0.760000 146 84 67
0.018979 -0.010493 0.761000 142 86 70
0.020950 -0.010493 0.761000 138 82 66
0.022921 -0.010493 0.761000 141 90 74
0.024892 -0.010493 0.761000 143 92 76
0.026863 -0.010493 0.761000 141 93 78
0.028834 -0.010493 0.761000 139 91 76
0.030805 -0.010493 0.761000 139 88 74
0.032777 -0.010493 0.761000 139 88 74
0.034748 -0.010493 0.761000 138 82 68
0.036719 -0.010493 0.761000 137 81 67
0.038690 -0.010493 0.761000 140 80 65
0.040661 -0.010493 0.761000 139 79 64
0.042632 -0.010493 0.761000 141 76 63
0.044603 -0.010493 0.761000 143 78 65
0.046574 -0.010493 0.761000 144 81 69
0.048546 -0.010493 0.761000 148 85 73
0.050517 -0.010493 0.761000 150 98 87
0.052488 -0.010493 0.761000 167 115 104
0.054459 -0.010493 0.761000 169 139 132
-0.000730 -0.008485 0.758000 141 98 91
0.001235 -0.008497 0.759000 127 84 77
0.003201 -0.008497 0.759000 137 74 60
0.005167 -0.008497 0.759000 141 78 64
0.007143 -0.008508 0.760000 145 78 63
0.009111 -0.008508 0.760000 149 82 67
0.011080 -0.008508 0.760000 144 84 69
0.013048 -0.008508 0.760000 153 93 78
0.015037 -0.008519 0.761000 157 112 99
0.017008 -0.008519 0.761000 165 120 107
0.018979 -0.008519 0.761000 159 128 117
0.020950 -0.008519 0.761000 160 129 118
0.022921 -0.008519 0.761000 159 133 122
0.024892 -0.008519 0.761000 153 127 116
0.026863 -0.008519 0.761000 149 122 114
0.028834 -0.008519 0.761000 149 122 114
0.030805 -0.008519 0.761000 147 117 110
0.032777 -0.008519 0.761000 145 115 108
0.034748 -0.008519 0.761000 144 108 98
0.036719 -0.008519 0.761000 139 103 93
0.038690 -0.008519 0.761000 140 95 82
0.040661 -0.008519 0.761000 134 89 76
0.042632 -0.008519 0.761000 136 80 66
0.044603 -0.008519 0.761000 138 82 68
0.046574 -0.008519 0.761000 142 79 65
0.048546 -0.008519 0.761000 143 80 66
0.050517 -0.008519 0.761000 144 80 62
0.052488 -0.008519 0.761000 150 86 68
0.054459 -0.008519 0.761000 143 87 71
0.056430 -0.008519 0.761000 156 100 84
0.058401 -0.008519 0.761000 163 127 119
0.060372 -0.008519 0.761000 177 141 133
-0.004656 -0.006519 0.758000 145 104 98
-0.002696 -0.006528 0.759000 128 87 81
-0.000731 -0.006528 0.759000 134 69 56
0.001235 -0.006528 0.759000 137 72 59
0.003206 -0.006537 0.760000 142 75 60
0.005174 -0.006537 0.760000 145 78 63
0.007143 -0.006537 0.760000 149 89 74
0.009123 -0.006545 0.761000 166 106 91
0.011094 -0.006545 0.761000 163 122 112
0.013065 -0.006545 0.761000 173 132 122
0.038690 -0.006545 0.761000 148 119 109
0.040661 -0.006545 0.761000 146 117 107
0.042632 -0.006545 0.761000 144 103 93
0.044603 -0.006545 0.761000 135 94 84
0.046574 -0.006545 0.761000 139 88 74
0.048546 -0.006545 0.761000 132 81 67
0.050517 -0.006545 0.761000 137 78 60
0.052488 -0.006545 0.761000 139 80 62
0.054459 -0.006545 0.761000 142 81 59
0.056430 -0.006545 0.761000 143 82 60
0.058401 -0.006545 0.761000 146 86 71
0.060372 -0.006545 0.761000 152 92 77
0.062343 -0.006545 0.761000 152 109 102
0.064314 -0.006545 0.761000 173 130 123
-0.008583 -0.004553 0.758000 148 118 113
-0.006628 -0.004560 0.759000 127 97 92
-0.004662 -0.004560 0.759000 133 73 58
-0.002696 -0.004560 0.759000 134 74 59
-0.000731 -0.004560 0.759000 144 74 58
0.001237 -0.004566 0.760000 147 77 61
0.003206 -0.004566 0.760000 148 85 73
0.005181 -0.004572 0.761000 168 105 93
0.007152 -0.004572 0.761000 169 128 118
0.009123 -0.004572 0.761000 182 141 131
0.044662 -0.004578 0.762000 148 123 116
0.046636 -0.004578 0.762000 150 116 104
0.048609 -0.004578 0.762000 142 108 96
0.050583 -0.004578 0.762000 137 91 73
0.052557 -0.004578 0.762000 129 83 65
0.054459 -0.004572 0.761000 138 81 62
0.056430 -0.004572 0.761000 139 82 63
0.058401 -0.004572 0.761000 142 80 63
0.060372 -0.004572 0.761000 142 80 63
0.062343 -0.004572 0.761000 143 80 68
0.064314 -0.004572 0.761000 149 86 74
0.066286 -0.004572 0.761000 150 104 96
0.068257 -0.004572 0.761000 169 123 115
0.070228 -0.004572 0.761000 169 148 147
-0.010560 -0.002591 0.759000 133 108 101
-0.008594 -0.002591 0.759000 133 82 68
-0.006628 -0.002591 0.759000 128 77 63
-0.004669 -0.002594 0.760000 137 73 55
-0.002700 -0.002594 0.760000 141 77 59
-0.000731 -0.002594 0.760000 149 86 72
0.001239 -0.002598 0.761000 163 100 86
0.003210 -0.002598 0.761000 177 134 127
0.005181 -0.002598 0.761000 184 141 134
0.050583 -0.002601 0.762000 152 123 111
0.052557 -0.002601 0.762000 145 116 104
0.054530 -0.002601 0.762000 144 99 86
0.056504 -0.002601 0.762000 135 90 77
0.058478 -0.002601 0.762000 134 78 62
0.060452 -0.002601 0.762000 135 79 63
0.062425 -0.002601 0.762000 140 78 61
0.064399 -0.002601 0.762000 139 77 60
0.066373 -0.002601 0.762000 146 84 67
0.068346 -0.002601 0.762000 153 91 74
0.070320 -0.002601 0.762000 151 104 93
0.072294 -0.002601 0.762000 170 123 112
0.074170 -0.002598 0.761000 166 145 144
-0.014492 -0.000622 0.759000 136 117 111
-0.012526 -0.000622 0.759000 140 93 82
-0.010560 -0.000622 0.759000 130 83 72
-0.008606 -0.000623 0.760000 140 77 63
-0.006637 -0.000623 0.760000 144 81 67
-0.004669 -0.000623 0.760000 135 75 60
-0.002700 -0.000623 0.760000 153 93 78
-0.000732 -0.000624 0.761000 174 131 124
0.001239 -0.000624 0.761000 185 142 135
0.056504 -0.000625 0.762000 146 120 109
0.058478 -0.000625 0.762000 149 107 95
0.060452 -0.000625 0.762000 138 96 84
0.062425 -0.000625 0.762000 135 82 67
0.064399 -0.000625 0.762000 132 79 64
0.066373 -0.000625 0.762000 137 80 61
0.068346 -0.000625 0.762000 137 80 61
0.070320 -0.000625 0.762000 142 83 65
0.072294 -0.000625 0.762000 145 86 68
0.074268 -0.000625 0.762000 146 97 87
0.076141 -0.000624 0.761000 162 113 103
0.078112 -0.000624 0.761000 162 139 136
-0.016480 0.001348 0.760000 147 106 98
-0.014511 0.001348 0.760000 125 84 76
-0.012543 0.001348 0.760000 136 73 59
-0.010574 0.001348 0.760000 140 77 63
-0.008606 0.001348 0.760000 137 77 64
-0.006637 0.001348 0.760000 144 84 71
-0.004675 0.001350 0.761000 148 102 94
-0.002704 0.001350 0.761000 186 140 132
0.062507 0.001353 0.763000 151 111 98
0.064399 0.001351 0.762000 140 100 87
0.066373 0.001351 0.762000 132 84 67
0.068346 0.001351 0.762000 129 81 64
0.070320 0.001351 0.762000 137 79 63
0.072294 0.001351 0.762000 136 78 62
0.074268 0.001351 0.762000 139 79 64
0.076241 0.001351 0.762000 147 87 72
0.078215 0.001351 0.762000 145 96 86
0.080083 0.001350 0.761000 164 115 105
0.082055 0.001350 0.761000 159 136 133
-0.018448 0.003319 0.760000 131 101 94
-0.016480 0.003319 0.760000 139 79 66
-0.014511 0.003319 0.760000 138 78 65
-0.012543 0.003319 0.760000 140 77 63
-0.010574 0.003319 0.760000 142 79 65
-0.008606 0.003319 0.760000 144 95 83
-0.006646 0.003323 0.761000 175 126 114
-0.004675 0.003323 0.761000 176 150 146
0.066460 0.003332 0.763000 146 108 97
0.068436 0.003332 0.763000 139 101 90
0.070412 0.003332 0.763000 138 92 76
0.072389 0.003332 0.763000 125 79 63
0.074268 0.003328 0.762000 133 75 59
0.076241 0.003328 0.762000 133 75 59
0.078215 0.003328 0.762000 140 80 67
0.080189 0.003328 0.762000 152 92 79
0.082055 0.003323 0.761000 144 95 85
0.084026 0.003323 0.761000 161 112 102
0.085997 0.003323 0.761000 165 139 135
-0.022415 0.005297 0.761000 133 114 110
-0.020444 0.005297 0.761000 140 89 75
-0.018472 0.005297 0.761000 127 76 62
-0.016480 0.005290 0.760000 140 73 58
-0.014511 0.005290 0.760000 143 76 61
-0.012543 0.005290 0.760000 137 81 69
-0.010588 0.005297 0.761000 156 100 88
-0.008617 0.005297 0.761000 170 138 132
0.070412 0.005311 0.763000 148 114 102
0.072389 0.005311 0.763000 141 107 95
0.074365 0.005311 0.763000 140 92 77
0.076341 0.005311 0.763000 125 77 62
0.078215 0.005304 0.762000 136 78 62
0.080189 0.005304 0.762000 138 80 64
0.082162 0.005304 0.762000 147 85 68
0.084136 0.005304 0.762000 151 89 72
0.086110 0.005304 0.762000 156 104 93
0.087968 0.005297 0.761000 169 117 106
0.089939 0.005297 0.761000 171 146 139
-0.024386 0.007271 0.761000 144 103 93
-0.022415 0.007271 0.761000 121 80 70
-0.020444 0.007271 0.761000 142 75 58
-0.018472 0.007271 0.761000 138 71 54
-0.016501 0.007271 0.761000 136 74 57
-0.014530 0.007271 0.761000 155 93 76
-0.012559 0.007271 0.761000 173 135 126
-0.010588 0.007271 0.761000 186 148 139
0.074365 0.007290 0.763000 150 116 104
0.076341 0.007290 0.763000 144 110 98
0.078215 0.007280 0.762000 142 96 80
0.080189 0.007280 0.762000 126 80 64
0.082162 0.007280 0.762000 136 79 60
0.084136 0.007280 0.762000 139 82 63
0.086110 0.007280 0.762000 146 84 67
0.088084 0.007280 0.762000 150 88 71
0.089939 0.007271 0.761000 150 99 85
0.091910 0.007271 0.761000 163 112 98
0.093881 0.007271 0.761000 169 142 136
0.095852 0.007271 0.761000 179 152 146
-0.028328 0.009245 0.761000 145 113 107
-0.026357 0.009245 0.761000 123 91 85
-0.024386 0.009245 0.761000 132 69 55
-0.022415 0.009245 0.761000 132 69 55
-0.020444 0.009245 0.761000 149 82 67
-0.018472 0.009245 0.761000 146 79 64
-0.016501 0.009245 0.761000 161 112 102
-0.014530 0.009245 0.761000 188 139 129
0.078318 0.009269 0.763000 149 115 103
0.080189 0.009257 0.762000 147 113 101
0.082162 0.009257 0.762000 143 97 79
0.084136 0.009257 0.762000 131 85 67
0.086110 0.009257 0.762000 131 75 59
0.088084 0.009257 0.762000 132 76 60
0.090057 0.009257 0.762000 144 81 67
0.092031 0.009257 0.762000 154 91 77
0.094005 0.009257 0.762000 157 101 89
0.095978 0.009257 0.762000 163 107 95
0.097952 0.009257 0.762000 165 133 129
0.099926 0.009257 0.762000 177 145 141
-0.030299 0.011218 0.761000 134 113 108
-0.028328 0.011218 0.761000 139 86 73
-0.026357 0.011218 0.761000 128 75 62
-0.024386 0.011218 0.761000 144 74 58
-0.022415 0.011218 0.761000 145 75 59
-0.020444 0.011218 0.761000 147 89 77
-0.018472 0.011218 0.761000 175 117 105
-0.016501 0.011218 0.761000 183 151 145
0.082162 0.011233 0.762000 148 114 102
0.084247 0.011248 0.763000 144 110 98
0.086223 0.011248 0.763000 142 96 80
0.088084 0.011233 0.762000 130 84 68
0.090057 0.011233 0.762000 131 75 61
0.092031 0.011233 0.762000 135 79 65
0.094005 0.011233 0.762000 144 79 66
0.095978 0.011233 0.762000 151 86 73
0.097952 0.011233 0.762000 153 97 85
0.099926 0.011233 0.762000 165 109 97
0.101899 0.011233 0.762000 170 133 128
-0.032270 0.013192 0.761000 142 101 93
-0.030299 0.013192 0.761000 124 83 75
-0.028328 0.013192 0.761000 143 75 63
-0.026357 0.013192 0.761000 143 75 63
-0.024418 0.013209 0.762000 151 88 74
-0.022444 0.013209 0.762000 161 98 84
-0.020470 0.013209 0.762000 170 129 121
0.088199 0.013227 0.763000 140 109 96
0.090175 0.013227 0.763000 143 96 83
0.092031 0.013209 0.762000 129 82 69
0.094128 0.013227 0.763000 131 73 59
0.096104 0.013227 0.763000 133 75 61
0.098081 0.013227 0.763000 147 82 71
0.099926 0.013209 0.762000 149 84 73
0.102033 0.013227 0.763000 152 92 81
0.103873 0.013209 0.762000 165 105 94
0.105847 0.013209 0.762000 165 130 125
-0.036260 0.015186 0.762000 147 116 107
-0.034286 0.015186 0.762000 131 100 91
-0.032313 0.015186 0.762000 139 76 62
-0.030339 0.015186 0.762000 137 74 60
-0.028365 0.015186 0.762000 144 77 62
-0.026392 0.015186 0.762000 144 77 62
-0.024418 0.015186 0.762000 161 112 100
-0.022444 0.015186 0.762000 183 134 122
0.092152 0.015206 0.763000 148 114 102
0.094128 0.015206 0.763000 149 103 87
0.096104 0.015206 0.763000 136 90 74
0.098081 0.015206 0.763000 133 75 61
0.100057 0.015206 0.763000 136 78 64
0.102033 0.015206 0.763000 139 76 64
0.104009 0.015206 0.763000 147 84 72
0.105986 0.015206 0.763000 155 95 84
0.107962 0.015206 0.763000 167 107 96
0.109938 0.015206 0.763000 164 125 121
0.111915 0.015206 0.763000 174 135 131
-0.038234 0.017162 0.762000 132 113 107
-0.036260 0.017162 0.762000 139 87 76
-0.034286 0.017162 0.762000 129 77 66
-0.032313 0.017162 0.762000 145 75 61
-0.030339 0.017162 0.762000 144 74 60
-0.028365 0.017162 0.762000 151 93 79
-0.026392 0.017162 0.762000 179 121 107
-0.024418 0.017162 0.762000 176 144 140
0.096104 0.017184 0.763000 142 111 98
0.098209 0.017207 0.764000 147 102 89
0.100188 0.017207 0.764000 135 90 77
0.102033 0.017184 0.763000 134 78 64
0.104009 0.017184 0.763000 132 76 62
0.105986 0.017184 0.763000 140 78 61
0.107962 0.017184 0.763000 146 84 67
0.109938 0.017184 0.763000 146 88 74
0.111915 0.017184 0.763000 158 100 86
0.113891 0.017184 0.763000 162 121 115
0.115867 0.017184 0.763000 180 139 133
-0.042181 0.019138 0.762000 128 119 112
-0.040208 0.019138 0.762000 140 102 91
-0.038234 0.019138 0.762000 124 86 75
-0.036260 0.019138 0.762000 142 75 58
-0.034286 0.019138 0.762000 145 78 61
-0.032313 0.019138 0.762000 145 80 67
-0.030339 0.019138 0.762000 156 91 78
-0.028365 0.019138 0.762000 174 131 124
0.100188 0.019188 0.764000 145 116 106
0.102167 0.019188 0.764000 146 104 92
0.104146 0.019188 0.764000 132 90 78
0.106125 0.019188 0.764000 129 76 59
0.108104 0.019188 0.764000 134 81 64
0.109938 0.019163 0.763000 143 81 62
0.111915 0.019163 0.763000 148 86 67
0.113891 0.019163 0.763000 157 94 80
0.115867 0.019163 0.763000 167 104 90
0.117844 0.019163 0.763000 168 122 116
0.119820 0.019163 0.763000 182 136 130
-0.044155 0.021115 0.762000 142 115 107
-0.042181 0.021115 0.762000 127 100 92
-0.040208 0.021115 0.762000 136 78 62
-0.038234 0.021115 0.762000 138 80 64
-0.036260 0.021115 0.762000 143 76 59
-0.034286 0.021115 0.762000 146 79 62
-0.032313 0.021115 0.762000 156 105 91
-0.030339 0.021115 0.762000 187 136 122
0.104282 0.021198 0.765000 145 116 106
0.106264 0.021198 0.765000 149 109 94
0.108245 0.021198 0.765000 128 88 73
0.110082 0.021170 0.764000 130 77 60
0.112061 0.021170 0.764000 130 77 60
0.114040 0.021170 0.764000 139 77 60
0.115867 0.021142 0.763000 149 87 70
0.117844 0.021142 0.763000 157 92 79
0.119820 0.021142 0.763000 161 96 83
0.121796 0.021142 0.763000 169 126 119
0.123772 0.021142 0.763000 182 139 132
-0.048102 0.023091 0.762000 148 121 115
-0.046129 0.023091 0.762000 137 110 104
-0.044155 0.023091 0.762000 139 86 73
-0.042181 0.023091 0.762000 129 76 63
-0.040208 0.023091 0.762000 143 76 59
-0.038234 0.023091 0.762000 142 75 58
-0.036260 0.023091 0.762000 145 85 70
-0.034331 0.023121 0.763000 175 115 100
-0.032355 0.023121 0.763000 174 143 132
0.108245 0.023182 0.765000 148 122 109
0.110227 0.023182 0.765000 148 108 93
0.112208 0.023182 0.765000 132 92 77
0.114040 0.023151 0.764000 134 81 64
0.116019 0.023151 0.764000 130 77 60
0.117998 0.023151 0.764000 136 73 59
0.119820 0.023121 0.763000 143 80 66
0.121796 0.023121 0.763000 155 92 78
0.123772 0.023121 0.763000 160 97 83
0.125749 0.023121 0.763000 169 126 119
0.127725 0.023121 0.763000 186 143 136
-0.050076 0.025067 0.762000 141 115 111
-0.048102 0.025067 0.762000 144 95 85
-0.046129 0.025067 0.762000 129 80 70
-0.044155 0.025067 0.762000 141 77 61
-0.042181 0.025067 0.762000 138 74 58
-0.040208 0.025067 0.762000 137 74 60
-0.038234 0.025067 0.762000 141 78 64
-0.036308 0.025100 0.763000 173 131 119
0.112208 0.025166 0.765000 146 120 107
0.114190 0.025166 0.765000 148 108 93
0.116171 0.025166 0.765000 133 93 78
0.117998 0.025133 0.764000 129 76 59
0.119977 0.025133 0.764000 129 76 59
0.121796 0.025100 0.763000 140 78 61
0.123772 0.025100 0.763000 144 82 65
0.125749 0.025100 0.763000 156 93 81
0.127725 0.025100 0.763000 164 101 89
0.129701 0.025100 0.763000 167 125 122
0.131678 0.025100 0.763000 189 147 144
-0.052050 0.027044 0.762000 155 109 103
-0.050076 0.027044 0.762000 134 88 82
-0.048102 0.027044 0.762000 142 78 62
-0.046129 0.027044 0.762000 142 78 62
-0.044155 0.027044 0.762000 141 77 61
-0.042181 0.027044 0.762000 145 81 65
-0.040208 0.027044 0.762000 153 102 88
-0.038284 0.027079 0.763000 182 131 117
0.116171 0.027150 0.765000 148 119 107
0.118152 0.027150 0.765000 152 112 97
0.119977 0.027115 0.764000 141 101 86
0.121956 0.027115 0.764000 133 80 63
0.123935 0.027115 0.764000 133 80 63
0.125749 0.027079 0.763000 144 81 67
0.127725 0.027079 0.763000 146 83 69
0.129701 0.027079 0.763000 149 89 78
0.131678 0.027079 0.763000 168 108 97
0.133654 0.027079 0.763000 171 134 131
0.135630 0.027079 0.763000 189 152 149
-0.055997 0.029020 0.762000 151 116 111
-0.054024 0.029020 0.762000 135 100 95
-0.052050 0.029020 0.762000 141 78 64
-0.050076 0.029020 0.762000 135 72 58
-0.048102 0.029020 0.762000 145 75 59
-0.046129 0.029020 0.762000 142 72 56
-0.044155 0.029020 0.762000 143 85 69
-0.042181 0.029020 0.762000 166 108 92
-0.040208 0.029020 0.762000 174 140 132
0.119977 0.029096 0.764000 144 118 105
0.121956 0.029096 0.764000 150 108 94
0.123935 0.029096 0.764000 138 96 82
0.125749 0.029058 0.763000 135 79 65
0.127725 0.029058 0.763000 136 80 66
0.129701 0.029058 0.763000 142 77 64
0.131678 0.029058 0.763000 155 90 77
0.133654 0.029058 0.763000 160 101 92
0.135630 0.029058 0.763000 172 113 104
0.137607 0.029058 0.763000 173 147 145
-0.059945 0.030996 0.762000 151 121 114
-0.057971 0.030996 0.762000 140 110 103
-0.055997 0.030996 0.762000 138 82 70
-0.054024 0.030996 0.762000 131 75 63
-0.052050 0.030996 0.762000 144 74 58
-0.050076 0.030996 0.762000 141 71 55
-0.048102 0.030996 0.762000 137 77 62
-0.046129 0.030996 0.762000 159 99 84
-0.044155 0.030996 0.762000 177 139 130
0.123935 0.031078 0.764000 144 115 105
0.125749 0.031037 0.763000 150 105 92
0.127725 0.031037 0.763000 138 93 80
0.129701 0.031037 0.763000 138 82 68
0.131678 0.031037 0.763000 136 80 66
0.133654 0.031037 0.763000 148 85 71
0.135630 0.031037 0.763000 153 90 76
0.137787 0.031078 0.764000 150 107 100
0.139766 0.031078 0.764000 177 134 127
-0.062000 0.033016 0.763000 140 118 110
-0.059945 0.032972 0.762000 145 98 85
-0.057971 0.032972 0.762000 130 83 70
-0.055997 0.032972 0.762000 144 74 58
-0.054024 0.032972 0.762000 140 70 54
-0.052050 0.032972 0.762000 136 72 56
-0.050076 0.032972 0.762000 151 87 71
-0.048102 0.032972 0.762000 164 119 108
-0.046129 0.032972 0.762000 185 140 129
0.127725 0.033016 0.763000 142 111 102
0.129701 0.033016 0.763000 147 102 89
0.131678 0.033016 0.763000 131 86 73
0.133829 0.033059 0.764000 134 78 64
0.135808 0.033059 0.764000 142 86 72
0.137787 0.033059 0.764000 136 93 86
0.139766 0.033059 0.764000 143 100 93
-0.063976 0.034995 0.763000 149 107 95
-0.062000 0.034995 0.763000 134 92 80
-0.060023 0.034995 0.763000 137 73 57
-0.057971 0.034949 0.762000 140 76 60
-0.056071 0.034995 0.763000 142 75 60
-0.054024 0.034949 0.762000 143 76 61
-0.052050 0.034949 0.762000 152 100 89
-0.050076 0.034949 0.762000 185 133 122
0.131850 0.035041 0.764000 141 115 104
0.133829 0.035041 0.764000 132 91 81
0.135808 0.035041 0.764000 127 86 76
0.137787 0.035041 0.764000 117 87 82
0.139949 0.035086 0.765000 134 104 99
-0.068107 0.037070 0.765000 151 117 107
-0.066039 0.037022 0.764000 141 107 97
-0.064060 0.037022 0.764000 136 78 62
-0.062000 0.036974 0.763000 136 78 62
-0.060023 0.036974 0.763000 140 73 58
-0.058047 0.036974 0.763000 142 75 60
-0.056071 0.036974 0.763000 147 89 75
-0.054094 0.036974 0.763000 173 115 101
-0.052118 0.036974 0.763000 179 143 135
0.135808 0.037022 0.764000 143 122 117
0.137787 0.037022 0.764000 133 116 116
-0.070088 0.039055 0.765000 136 106 99
-0.068107 0.039055 0.765000 142 86 72
-0.066125 0.039055 0.765000 136 80 66
-0.064060 0.039004 0.764000 137 75 56
-0.062081 0.039004 0.764000 141 79 60
-0.060023 0.038952 0.763000 138 78 63
-0.058123 0.039004 0.764000 162 102 87
-0.056071 0.038952 0.763000 169 128 118
-0.074148 0.041092 0.766000 145 122 117
-0.072164 0.041092 0.766000 145 96 86
-0.070180 0.041092 0.766000 132 83 73
-0.068107 0.041039 0.765000 142 78 62
-0.066125 0.041039 0.765000 142 78 62
-0.064144 0.041039 0.765000 138 79 61
-0.062162 0.041039 0.765000 144 85 67
-0.060102 0.040985 0.764000 158 113 102
-0.058123 0.040985 0.764000 180 135 124
-0.076132 0.043079 0.766000 152 109 100
-0.074148 0.043079 0.766000 138 95 86
-0.072164 0.043079 0.766000 138 71 54
-0.070180 0.043079 0.766000 139 72 55
-0.068196 0.043079 0.766000 136 72 56
-0.066212 0.043079 0.766000 140 76 60
-0.064227 0.043079 0.766000 147 100 87
-0.062162 0.043023 0.765000 168 121 108
-0.080100 0.045066 0.766000 151 115 105
-0.078116 0.045066 0.766000 139 103 93
-0.076132 0.045066 0.766000 142 80 63
-0.074148 0.045066 0.766000 136 74 57
-0.072164 0.045066 0.766000 141 71 55
-0.070180 0.045066 0.766000 138 68 52
-0.068196 0.045066 0.766000 139 86 73
-0.066212 0.045066 0.766000 165 112 99
-0.064227 0.045066 0.766000 169 139 132
-0.082084 0.047052 0.766000 142 110 104
-0.080100 0.047052 0.766000 143 85 71
-0.078116 0.047052 0.766000 138 80 66
-0.076132 0.047052 0.766000 146 76 57
-0.074148 0.047052 0.766000 145 75 56
-0.072258 0.047114 0.767000 142 79 65
-0.070271 0.047114 0.767000 155 92 78
-0.068196 0.047052 0.766000 164 130 122
-0.066212 0.047052 0.766000 172 138 130
-0.086052 0.049039 0.766000 145 120 113
-0.084068 0.049039 0.766000 150 98 87
-0.082084 0.049039 0.766000 135 83 72
-0.080100 0.049039 0.766000 146 76 62
-0.078116 0.049039 0.766000 146 76 62
-0.076132 0.049039 0.766000 140 76 60
-0.074245 0.049103 0.767000 144 80 64
-0.072258 0.049103 0.767000 162 117 104
-0.070271 0.049103 0.767000 173 128 115
-0.087921 0.050959 0.765000 157 110 99
-0.085940 0.050959 0.765000 136 89 78
-0.084068 0.051026 0.766000 145 75 59
-0.082084 0.051026 0.766000 147 77 61
-0.080100 0.051026 0.766000 143 76 59
-0.078218 0.051092 0.767000 147 80 63
-0.076231 0.051092 0.767000 156 105 91
-0.074245 0.051092 0.767000 181 130 116
-0.072352 0.051159 0.768000 164 139 130
-0.092004 0.053012 0.766000 155 114 104
-0.089903 0.052943 0.765000 138 97 87
-0.087921 0.052943 0.765000 148 78 62
-0.085940 0.052943 0.765000 146 76 60
-0.084068 0.053012 0.766000 147 78 59
-0.082084 0.053012 0.766000 141 72 53
-0.080100 0.053012 0.766000 142 86 70
-0.078218 0.053082 0.767000 167 111 95
-0.076231 0.053082 0.767000 166 135 126
-0.095973 0.054999 0.766000 157 119 108
-0.093866 0.054927 0.765000 146 108 97
-0.091884 0.054927 0.765000 147 80 63
-0.089903 0.054927 0.765000 142 75 58
-0.087921 0.054927 0.765000 150 77 57
-0.086052 0.054999 0.766000 145 72 52
-0.084068 0.054999 0.766000 152 93 75
-0.082084 0.054999 0.766000 162 103 85
-0.080100 0.054999 0.766000 171 135 125
-0.078218 0.055071 0.767000 172 136 126
-0.099941 0.056986 0.766000 159 123 113
-0.097957 0.056986 0.766000 145 109 99
-0.095847 0.056911 0.765000 146 84 67
-0.093866 0.056911 0.765000 141 79 62
-0.091884 0.056911 0.765000 150 75 56
-0.089903 0.056911 0.765000 151 76 57
-0.088036 0.056986 0.766000 146 79 62
-0.086052 0.056986 0.766000 160 93 76
-0.084068 0.056986 0.766000 170 127 118
-0.082084 0.056986 0.766000 177 134 125
-0.101925 0.058973 0.766000 141 110 101
-0.099941 0.058973 0.766000 152 94 78
-0.097829 0.058896 0.765000 137 79 63
-0.095847 0.058896 0.765000 148 75 57
-0.093866 0.058896 0.765000 148 75 57
-0.091884 0.058896 0.765000 144 74 58
-0.090020 0.058973 0.766000 152 82 66
-0.088036 0.058973 0.766000 155 106 94
-0.086052 0.058973 0.766000 179 130 118
-0.084068 0.058973 0.766000 161 135 131
-0.105893 0.060959 0.766000 143 117 106
-0.103909 0.060959 0.766000 149 98 82
-0.101925 0.060959 0.766000 135 84 68
-0.099941 0.060959 0.766000 144 74 58
-0.097957 0.060959 0.766000 142 72 56
-0.095973 0.060959 0.766000 142 72 56
-0.093989 0.060959 0.766000 141 71 55
-0.092004 0.060959 0.766000 153 102 88
-0.090020 0.060959 0.766000 175 124 110
-0.088036 0.060959 0.766000 167 137 130
-0.110148 0.063110 0.768000 150 120 113
-0.108018 0.063028 0.767000 145 94 78
-0.105893 0.062946 0.766000 138 87 71
-0.103909 0.062946 0.766000 145 75 56
-0.101925 0.062946 0.766000 147 77 58
-0.099941 0.062946 0.766000 142 72 56
-0.097957 0.062946 0.766000 144 74 58
-0.095973 0.062946 0.766000 142 89 76
-0.093989 0.062946 0.766000 167 114 101
-0.092004 0.062946 0.766000 164 137 131
-0.114126 0.065102 0.768000 149 124 117
-0.112137 0.065102 0.768000 158 110 95
-0.110148 0.065102 0.768000 140 92 77
-0.108018 0.065017 0.767000 145 76 55
-0.105893 0.064933 0.766000 148 79 58
-0.103909 0.064933 0.766000 148 78 57
-0.102058 0.065017 0.767000 147 77 56
-0.099941 0.064933 0.766000 146 88 74
-0.098085 0.065017 0.767000 169 111 97
-0.096098 0.065017 0.767000 161 129 123
-0.094111 0.065017 0.767000 167 135 129
-0.118105 0.067094 0.768000 144 123 118
-0.116116 0.067094 0.768000 157 112 101
-0.114126 0.067094 0.768000 138 93 82
-0.112137 0.067094 0.768000 152 83 62
-0.110148 0.067094 0.768000 146 77 56
-0.108018 0.067007 0.767000 147 77 54
-0.106031 0.067007 0.767000 145 75 52
-0.104045 0.067007 0.767000 145 81 65
-0.102191 0.067094 0.768000 168 104 88
-0.100202 0.067094 0.768000 170 132 123
-0.098212 0.067094 0.768000 174 136 127
-0.120094 0.069086 0.768000 158 122 110
-0.118105 0.069086 0.768000 143 107 95
-0.116116 0.069086 0.768000 145 81 63
-0.114126 0.069086 0.768000 143 79 61
-0.112137 0.069086 0.768000 151 78 56
-0.110148 0.069086 0.768000 149 76 54
-0.108159 0.069086 0.768000 149 82 65
-0.106169 0.069086 0.768000 157 90 73
-0.102324 0.069176 0.769000 175 129 121
-0.122083 0.071078 0.768000 144 113 102
-0.120094 0.071078 0.768000 147 89 73
-0.118105 0.071078 0.768000 137 79 63
-0.116116 0.071078 0.768000 147 77 58
-0.114126 0.071078 0.768000 145 75 56
-0.112137 0.071078 0.768000 139 72 55
-0.110148 0.071078 0.768000 157 90 73
-0.108299 0.071170 0.769000 167 120 107
-0.106308 0.071170 0.769000 175 128 115
-0.126226 0.073165 0.769000 145 120 111
-0.124234 0.073165 0.769000 154 101 86
-0.122242 0.073165 0.769000 137 84 69
-0.120251 0.073165 0.769000 145 76 57
-0.118259 0.073165 0.769000 145 76 57
-0.116267 0.073165 0.769000 142 75 58
-0.114275 0.073165 0.769000 144 77 60
-0.112283 0.073165 0.769000 148 100 85
-0.110291 0.073165 0.769000 179 131 116
-0.108299 0.073165 0.769000 164 134 129
-0.128218 0.075159 0.769000 152 107 96
-0.126226 0.075159 0.769000 138 93 82
-0.124234 0.075159 0.769000 147 77 61
-0.122242 0.075159 0.769000 146 76 60
-0.120251 0.075159 0.769000 146 77 56
-0.118259 0.075159 0.769000 144 75 54
-0.116267 0.075159 0.769000 150 99 83
-0.114275 0.075159 0.769000 169 118 102
-0.112283 0.075159 0.769000 165 135 128
-0.132202 0.077154 0.769000 157 119 108
-0.130210 0.077154 0.769000 146 108 97
-0.128218 0.077154 0.769000 147 80 65
-0.126226 0.077154 0.769000 145 78 63
-0.124234 0.077154 0.769000 147 77 58
-0.122401 0.077254 0.770000 148 78 59
-0.120407 0.077254 0.770000 148 89 71
-0.118412 0.077254 0.770000 166 107 89
-0.116418 0.077254 0.770000 169 135 127
-0.114424 0.077254 0.770000 165 131 123
-0.134193 0.079148 0.769000 144 110 102
-0.132202 0.079148 0.769000 154 92 75
-0.130210 0.079148 0.769000 142 80 63
-0.128385 0.079251 0.770000 151 78 58
-0.126390 0.079251 0.770000 150 77 57
-0.124396 0.079251 0.770000 140 76 60
-0.122560 0.079354 0.771000 158 94 78
-0.120720 0.079457 0.772000 166 125 115
-0.118720 0.079457 0.772000 174 133 123
-0.138536 0.081354 0.771000 150 123 117
-0.136362 0.081248 0.770000 152 96 84
-0.134368 0.081248 0.770000 137 81 69
-0.132373 0.081248 0.770000 149 76 58
-0.130548 0.081354 0.771000 150 77 59
-0.128718 0.081459 0.772000 147 77 61
-0.126718 0.081459 0.772000 151 81 65
-0.124719 0.081459 0.772000 160 111 101
-0.122719 0.081459 0.772000 180 131 121
-0.120876 0.081565 0.773000 162 136 132
-0.142715 0.083461 0.772000 149 124 117
-0.140716 0.083461 0.772000 157 108 98
-0.138716 0.083461 0.772000 141 92 82
-0.136539 0.083353 0.771000 150 76 61
-0.134542 0.083353 0.771000 151 77 62
-0.132717 0.083461 0.772000 147 76 60
-0.130718 0.083461 0.772000 149 78 62
-0.128718 0.083461 0.772000 156 100 88
-0.126883 0.083570 0.773000 177 121 109
-0.125042 0.083678 0.774000 167 135 129
-0.144715 0.085464 0.772000 158 112 104
-0.142715 0.085464 0.772000 147 101 93
-0.140716 0.085464 0.772000 152 82 66
-0.138716 0.085464 0.772000 148 78 62
-0.136717 0.085464 0.772000 152 77 60
-0.134717 0.085464 0.772000 151 76 59
-0.132717 0.085464 0.772000 148 88 73
-0.130887 0.085574 0.773000 173 113 98
-0.129052 0.085685 0.774000 166 130 122
-0.127047 0.085685 0.774000 171 135 127
-0.148714 0.087466 0.772000 154 116 105
-0.146715 0.087466 0.772000 140 102 91
-0.144715 0.087466 0.772000 149 85 67
-0.142531 0.087353 0.771000 143 79 61
-0.140533 0.087353 0.771000 150 77 57
-0.138716 0.087466 0.772000 148 75 55
-0.136717 0.087466 0.772000 146 79 64
-0.134717 0.087466 0.772000 167 100 85
-0.132889 0.087579 0.773000 169 128 122
-0.131056 0.087693 0.774000 173 132 126
-0.152713 0.089468 0.772000 152 121 112
-0.150714 0.089468 0.772000 139 108 99
-0.148714 0.089468 0.772000 144 82 65
-0.146715 0.089468 0.772000 143 81 64
-0.144715 0.089468 0.772000 149 76 54
-0.142531 0.089352 0.771000 145 72 50
-0.140716 0.089468 0.772000 146 79 62
-0.138716 0.089468 0.772000 158 91 74
-0.136717 0.089468 0.772000 164 119 108
-0.134891 0.089584 0.773000 175 130 119
-0.156713 0.091470 0.772000 152 123 113
-0.154713 0.091470 0.772000 143 114 104
-0.152713 0.091470 0.772000 144 88 72
-0.150714 0.091470 0.772000 137 81 65
-0.148714 0.091470 0.772000 151 78 58
-0.146715 0.091470 0.772000 151 78 58
-0.144715 0.091470 0.772000 145 76 57
-0.142715 0.091470 0.772000 154 85 66
-0.140716 0.091470 0.772000 157 110 97
-0.138716 0.091470 0.772000 178 131 118
-0.136717 0.091470 0.772000 163 137 133
-0.158712 0.093473 0.772000 142 115 107
-0.156713 0.093473 0.772000 150 97 82
-0.154713 0.093473 0.772000 133 80 65
-0.152713 0.093473 0.772000 147 77 58
-0.150714 0.093473 0.772000 149 79 60
-0.148714 0.093473 0.772000 146 77 58
-0.146715 0.093473 0.772000 151 82 63
-0.144715 0.093473 0.772000 152 101 87
-0.142715 0.093473 0.772000 176 125 111
-0.140716 0.093473 0.772000 165 135 128
-0.162711 0.095475 0.772000 145 118 110
-0.160712 0.095475 0.772000 152 101 87
-0.158712 0.095475 0.772000 133 82 68
-0.156713 0.095475 0.772000 145 75 56
-0.154713 0.095475 0.772000 147 77 58
-0.152713 0.095475 0.772000 146 76 57
-0.150714 0.095475 0.772000 146 76 57
-0.148714 0.095475 0.772000 149 96 81
-0.146715 0.095475 0.772000 169 116 101
-0.144715 0.095475 0.772000 167 135 129
-0.142715 0.095475 0.772000 166 134 128
-0.166711 0.097477 0.772000 145 125 117
-0.164711 0.097477 0.772000 153 106 93
-0.162711 0.097477 0.772000 138 91 78
-0.160712 0.097477 0.772000 143 76 59
-0.158712 0.097477 0.772000 146 79 62
-0.156713 0.097477 0.772000 147 77 58
-0.154913 0.097603 0.773000 145 75 56
-0.152911 0.097603 0.773000 146 86 71
-0.150909 0.097603 0.773000 172 112 97
-0.148907 0.097603 0.773000 165 131 123
-0.146905 0.097603 0.773000 165 131 123
-0.168929 0.099608 0.773000 151 113 102
-0.166927 0.099608 0.773000 136 98 87
-0.164924 0.099608 0.773000 147 80 63
-0.162922 0.099608 0.773000 145 78 61
-0.160920 0.099608 0.773000 147 77 58
-0.158918 0.099608 0.773000 148 78 59
-0.156916 0.099608 0.773000 144 82 65
-0.155114 0.099737 0.774000 167 105 88
-0.152911 0.099608 0.773000 165 127 118
-0.150909 0.099608 0.773000 171 133 124
-0.173381 0.101876 0.775000 148 117 106
-0.171152 0.101745 0.774000 130 99 88
-0.168929 0.101613 0.773000 140 83 64
-0.167143 0.101745 0.774000 132 75 56
-0.164924 0.101613 0.773000 147 74 54
-0.163133 0.101745 0.774000 148 75 55
-0.161128 0.101745 0.774000 147 83 67
-0.159123 0.101745 0.774000 161 97 81
-0.157119 0.101745 0.774000 164 121 112
-0.155114 0.101745 0.774000 176 133 124
-0.177395 0.103886 0.775000 148 117 106
-0.175388 0.103886 0.775000 142 111 100
-0.173381 0.103886 0.775000 141 85 69
-0.171152 0.103752 0.774000 134 78 62
-0.169147 0.103752 0.774000 147 78 57
-0.167143 0.103752 0.774000 144 75 54
-0.165138 0.103752 0.774000 140 73 56
-0.163133 0.103752 0.774000 150 83 66
-0.161128 0.103752 0.774000 159 114 103
-0.159123 0.103752 0.774000 173 128 117
-0.157119 0.103752 0.774000 156 133 128
-0.179403 0.105896 0.775000 143 117 106
-0.177395 0.105896 0.775000 147 96 82
-0.175388 0.105896 0.775000 138 87 73
-0.173381 0.105896 0.775000 142 73 54
-0.171152 0.105760 0.774000 144 75 56
-0.169147 0.105760 0.774000 144 75 56
-0.167143 0.105760 0.774000 151 82 63
-0.165351 0.105896 0.775000 156 105 91
-0.163344 0.105896 0.775000 176 125 111
-0.161336 0.105896 0.775000 162 135 129
-0.183654 0.108045 0.776000 147 125 117
-0.181410 0.107906 0.775000 154 107 94
-0.179403 0.107906 0.775000 130 83 70
-0.177395 0.107906 0.775000 147 81 61
-0.175388 0.107906 0.775000 144 78 58
-0.173381 0.107906 0.775000 140 71 52
-0.171373 0.107906 0.775000 142 73 54
-0.169366 0.107906 0.775000 146 88 72
-0.167359 0.107906 0.775000 176 118 102
-0.165351 0.107906 0.775000 167 133 125
-0.185664 0.110058 0.776000 152 110 98
-0.183418 0.109916 0.775000 136 94 82
-0.181410 0.109916 0.775000 147 83 65
-0.179403 0.109916 0.775000 141 77 59
-0.177395 0.109916 0.775000 145 76 57
-0.175388 0.109916 0.775000 140 71 52
-0.173381 0.109916 0.775000 145 86 68
-0.171373 0.109916 0.775000 167 108 90
-0.169366 0.109916 0.775000 170 132 121
-0.167574 0.110058 0.776000 170 132 121
-0.189684 0.112071 0.776000 156 118 107
-0.187674 0.112071 0.776000 145 107 96
-0.185425 0.111926 0.775000 144 82 63
-0.183418 0.111926 0.775000 141 79 60
-0.181410 0.111926 0.775000 145 76 55
-0.179403 0.111926 0.775000 145 76 55
-0.177395 0.111926 0.775000 141 79 60
-0.175388 0.111926 0.775000 160 98 79
-0.173381 0.111926 0.775000 172 131 121
-0.171373 0.111926 0.775000 172 131 121
-0.193704 0.114083 0.776000 157 123 113
-0.191694 0.114083 0.776000 146 112 102
-0.189684 0.114083 0.776000 151 92 74
-0.187432 0.113936 0.775000 140 81 63
-0.185425 0.113936 0.775000 148 78 55
-0.183418 0.113936 0.775000 147 77 54
-0.181410 0.113936 0.775000 138 74 56
-0.179403 0.113936 0.775000 155 91 73
-0.177395 0.113936 0.775000 157 115 101
-0.175614 0.114083 0.776000 174 132 118
-0.195714 0.116096 0.776000 147 118 108
-0.193704 0.116096 0.776000 151 95 81
-0.191447 0.115946 0.775000 135 79 65
-0.189440 0.115946 0.775000 148 75 55
-0.187432 0.115946 0.775000 149 76 56
-0.185425 0.115946 0.775000 144 75 54
-0.183418 0.115946 0.775000 151 82 61
-0.181410 0.115946 0.775000 154 108 92
-0.179403 0.115946 0.775000 177 131 115
-0.199734 0.118109 0.776000 148 123 116
-0.197469 0.117956 0.775000 152 100 89
-0.195462 0.117956 0.775000 141 89 78
-0.193454 0.117956 0.775000 145 75 56
-0.191447 0.117956 0.775000 146 76 57
-0.189440 0.117956 0.775000 147 77 58
-0.187432 0.117956 0.775000 143 73 54
-0.185425 0.117956 0.775000 152 96 82
-0.183654 0.118109 0.776000 173 117 103
-0.181644 0.118109 0.776000 165 134 125
-0.201484 0.119966 0.775000 156 109 98
-0.199477 0.119966 0.775000 143 96 85
-0.197469 0.119966 0.775000 149 78 62
-0.195462 0.119966 0.775000 152 81 65
-0.193454 0.119966 0.775000 148 77 61
-0.191447 0.119966 0.775000 148 77 61
-0.189440 0.119966 0.775000 141 83 69
-0.187432 0.119966 0.775000 172 114 100
-0.185664 0.120121 0.776000 171 135 125
-0.205764 0.122134 0.776000 159 117 105
-0.203491 0.121976 0.775000 141 99 87
-0.201484 0.121976 0.775000 153 83 67
-0.199477 0.121976 0.775000 147 77 61
-0.197469 0.121976 0.775000 149 76 58
-0.195462 0.121976 0.775000 145 72 54
-0.193704 0.122134 0.776000 139 79 64
-0.191694 0.122134 0.776000 167 107 92
-0.189684 0.122134 0.776000 164 128 116
-0.187674 0.122134 0.776000 169 133 121
-0.210054 0.124306 0.777000 160 124 112
-0.207774 0.124146 0.776000 150 114 102
-0.205764 0.124146 0.776000 148 86 69
-0.203754 0.124146 0.776000 140 78 61
-0.201744 0.124146 0.776000 150 77 57
-0.199734 0.124146 0.776000 148 75 55
-0.197724 0.124146 0.776000 142 78 60
-0.195714 0.124146 0.776000 154 90 72
-0.193704 0.124146 0.776000 164 126 115
-0.191694 0.124146 0.776000 173 135 124
-0.212067 0.126322 0.777000 146 120 109
-0.210054 0.126322 0.777000 138 82 68
-0.208042 0.126322 0.777000 141 85 71
-0.205764 0.126159 0.776000 147 77 58
-0.203754 0.126159 0.776000 147 77 58
-0.201744 0.126159 0.776000 142 75 58
-0.199734 0.126159 0.776000 154 87 70
-0.197724 0.126159 0.776000 165 120 109
-0.195966 0.126322 0.777000 175 130 119
-0.212340 0.128502 0.778000 111 80 67
-0.210054 0.128337 0.777000 140 73 58
-0.208042 0.128337 0.777000 142 75 60
-0.206029 0.128337 0.777000 139 72 57
-0.204017 0.128337 0.777000 149 82 67
-0.202004 0.128337 0.777000 157 108 96
-0.199991 0.128337 0.777000 178 129 117
-0.197979 0.128337 0.777000 159 136 131
-0.212340 0.130520 0.778000 110 81 69
-0.210325 0.130520 0.778000 127 74 61
-0.208309 0.130520 0.778000 134 81 68
-0.206294 0.130520 0.778000 151 102 90
-0.204279 0.130520 0.778000 179 130 118
-0.202264 0.130520 0.778000 166 139 131
-0.212340 0.132538 0.778000 115 97 86
-0.210325 0.132538 0.778000 136 100 90
-0.208309 0.132538 0.778000 165 129 119
