ply
format ascii 1.0
element vertex 1237
property float x
property float y
property float z
property uchar red
property uchar green
property uchar blue
end_header
0.235303 0.192092 0.701000 102 87 88
0.237119 0.192092 0.701000 107 92 93
0.239275 0.192366 0.702000 108 86 88
0.241093 0.192366 0.702000 141 119 121
0.233488 0.193910 0.701000 97 82 83
0.235303 0.193910 0.701000 87 61 59
0.237457 0.194186 0.702000 85 59 57
0.239275 0.194186 0.702000 90 55 52
0.241093 0.194186 0.702000 122 87 84
0.231673 0.195727 0.701000 102 83 81
0.233488 0.195727 0.701000 93 74 72
0.235303 0.195727 0.701000 95 58 53
0.237457 0.196007 0.702000 92 55 50
0.239275 0.196007 0.702000 92 51 41
0.241093 0.196007 0.702000 132 91 81
0.242910 0.196007 0.702000 149 135 131
0.231673 0.197545 0.701000 100 77 74
0.233488 0.197545 0.701000 93 70 67
0.235303 0.197545 0.701000 96 58 49
0.237457 0.197827 0.702000 94 56 47
0.239275 0.197827 0.702000 98 56 44
0.241093 0.197827 0.702000 149 107 95
0.242910 0.197827 0.702000 152 136 131
0.231673 0.199363 0.701000 100 72 69
0.233488 0.199363 0.701000 95 67 64
0.235303 0.199363 0.701000 100 57 48
0.237457 0.199647 0.702000 97 54 45
0.239275 0.199647 0.702000 101 61 48
0.241093 0.199647 0.702000 151 111 98
0.242910 0.199647 0.702000 152 136 131
0.231673 0.201180 0.701000 102 72 65
0.233488 0.201180 0.701000 95 65 58
0.235639 0.201467 0.702000 99 57 45
0.237457 0.201467 0.702000 95 53 41
0.239275 0.201467 0.702000 113 73 60
0.241093 0.201467 0.702000 160 120 107
0.232004 0.203288 0.702000 99 70 58
0.233821 0.203288 0.702000 93 64 52
0.235639 0.203288 0.702000 101 56 43
0.237457 0.203288 0.702000 93 48 35
0.239616 0.203577 0.703000 131 94 80
0.241436 0.203577 0.703000 168 131 117
0.230186 0.205108 0.702000 98 79 73
0.232004 0.205108 0.702000 98 69 57
0.233821 0.205108 0.702000 93 64 52
0.235639 0.205108 0.702000 102 58 42
0.237457 0.205108 0.702000 95 51 35
0.239616 0.205400 0.703000 140 103 89
0.241436 0.205400 0.703000 166 129 115
0.230186 0.206928 0.702000 94 75 69
0.232004 0.206928 0.702000 99 68 55
0.233821 0.206928 0.702000 95 64 51
0.235975 0.207223 0.703000 102 56 40
0.237795 0.207223 0.703000 108 62 46
0.239616 0.207223 0.703000 158 123 108
0.241436 0.207223 0.703000 165 130 115
0.230514 0.209045 0.703000 91 73 64
0.232004 0.208748 0.702000 100 66 54
0.234154 0.209045 0.703000 94 60 48
0.235975 0.209045 0.703000 97 51 35
0.237795 0.209045 0.703000 117 71 55
0.239616 0.209045 0.703000 160 126 114
0.241436 0.209045 0.703000 163 129 117
0.230514 0.210868 0.703000 97 75 67
0.232334 0.210868 0.703000 99 63 51
0.234154 0.210868 0.703000 95 59 47
0.235975 0.210868 0.703000 94 50 34
0.237795 0.210868 0.703000 135 91 75
0.239616 0.210868 0.703000 155 126 116
0.230514 0.212691 0.703000 100 75 66
0.232334 0.212691 0.703000 103 63 50
0.234154 0.212691 0.703000 98 58 45
0.235975 0.212691 0.703000 95 51 35
0.237795 0.212691 0.703000 144 100 84
0.239616 0.212691 0.703000 155 130 121
0.230514 0.214514 0.703000 98 73 64
0.232334 0.214514 0.703000 103 61 47
0.234154 0.214514 0.703000 100 58 44
0.235975 0.214514 0.703000 99 55 39
0.237795 0.214514 0.703000 152 108 92
0.239616 0.214514 0.703000 153 130 125
0.230514 0.216337 0.703000 97 71 60
0.232334 0.216337 0.703000 101 56 43
0.234154 0.216337 0.703000 99 54 41
0.235975 0.216337 0.703000 112 68 52
0.237795 0.216337 0.703000 161 117 101
0.239616 0.216337 0.703000 147 128 124
0.228693 0.218159 0.703000 103 74 64
0.230514 0.218159 0.703000 94 65 55
0.232334 0.218159 0.703000 101 56 43
0.234154 0.218159 0.703000 97 52 39
0.235975 0.218159 0.703000 124 84 69
0.237795 0.218159 0.703000 167 127 112
0.239616 0.218159 0.703000 144 129 128
0.228693 0.219982 0.703000 99 68 59
0.230514 0.219982 0.703000 91 60 51
0.232334 0.219982 0.703000 100 55 42
0.234154 0.219982 0.703000 94 49 36
0.235975 0.219982 0.703000 140 103 89
0.237795 0.219982 0.703000 166 129 115
0.239616 0.219982 0.703000 139 129 129
0.229019 0.222121 0.704000 95 64 53
0.230514 0.221805 0.703000 90 59 48
0.232334 0.221805 0.703000 99 53 37
0.234154 0.221805 0.703000 100 54 38
0.235975 0.221805 0.703000 148 114 102
0.237795 0.221805 0.703000 163 129 117
0.229019 0.223946 0.704000 99 61 50
0.230842 0.223946 0.704000 93 55 44
0.232665 0.223946 0.704000 98 50 33
0.234154 0.223628 0.703000 110 62 45
0.236310 0.223946 0.704000 154 125 113
0.238133 0.223946 0.704000 160 131 119
0.227196 0.225771 0.704000 95 74 69
0.229019 0.225771 0.704000 102 62 49
0.230842 0.225771 0.704000 96 56 43
0.232665 0.225771 0.704000 90 44 26
0.234488 0.225771 0.704000 128 82 64
0.236310 0.225771 0.704000 159 133 122
0.238133 0.225771 0.704000 152 126 115
0.227196 0.227597 0.704000 96 73 68
0.229019 0.227597 0.704000 102 60 48
0.230842 0.227597 0.704000 98 56 44
0.232665 0.227597 0.704000 93 49 33
0.234488 0.227597 0.704000 149 105 89
0.236310 0.227597 0.704000 157 133 121
0.227196 0.229422 0.704000 97 70 64
0.229019 0.229422 0.704000 106 60 44
0.230842 0.229422 0.704000 96 50 34
0.232665 0.229422 0.704000 104 60 44
0.234488 0.229422 0.704000 162 118 102
0.236310 0.229422 0.704000 150 132 123
0.225693 0.231576 0.705000 102 70 64
0.227518 0.231576 0.705000 96 64 58
0.229344 0.231576 0.705000 104 56 39
0.230842 0.231248 0.704000 97 49 32
0.232995 0.231576 0.705000 117 76 59
0.234821 0.231576 0.705000 163 122 105
0.236646 0.231576 0.705000 145 129 124
0.225693 0.233404 0.705000 104 70 62
0.227518 0.233404 0.705000 98 64 56
0.229344 0.233404 0.705000 106 55 39
0.231169 0.233404 0.705000 99 48 32
0.232995 0.233404 0.705000 135 96 78
0.234821 0.233404 0.705000 169 130 112
0.223867 0.235232 0.705000 98 79 73
0.225693 0.235232 0.705000 104 68 58
0.227518 0.235232 0.705000 100 64 54
0.229344 0.235232 0.705000 102 54 37
0.231169 0.235232 0.705000 101 53 36
0.232995 0.235232 0.705000 143 108 93
0.234821 0.235232 0.705000 165 130 115
0.223867 0.237060 0.705000 100 77 72
0.225693 0.237060 0.705000 107 66 58
0.227518 0.237060 0.705000 99 58 50
0.229344 0.237060 0.705000 96 48 33
0.231169 0.237060 0.705000 118 70 55
0.232995 0.237060 0.705000 155 122 107
0.223867 0.238888 0.705000 99 74 67
0.225693 0.238888 0.705000 106 63 54
0.227518 0.238888 0.705000 99 56 47
0.229669 0.239227 0.706000 96 45 31
0.231497 0.239227 0.706000 131 80 66
0.233325 0.239227 0.706000 159 130 118
0.223867 0.240716 0.705000 99 72 64
0.226013 0.241057 0.706000 105 60 49
0.227841 0.241057 0.706000 102 57 46
0.229669 0.241057 0.706000 101 53 38
0.231497 0.241057 0.706000 147 99 84
0.233325 0.241057 0.706000 155 130 121
0.222357 0.242888 0.706000 103 76 68
0.223867 0.242544 0.705000 99 72 64
0.226013 0.242888 0.706000 105 60 47
0.227841 0.242888 0.706000 99 54 41
0.229669 0.242888 0.706000 104 60 44
0.231825 0.243232 0.707000 157 113 97
0.233656 0.243232 0.707000 153 131 123
0.222357 0.244719 0.706000 100 74 61
0.223867 0.244372 0.705000 95 69 56
0.226013 0.244719 0.706000 102 58 40
0.227841 0.244719 0.706000 99 55 37
0.229669 0.244719 0.706000 110 68 54
0.231825 0.245065 0.707000 166 124 110
0.233656 0.245065 0.707000 146 127 123
0.222357 0.246549 0.706000 102 73 59
0.224185 0.246549 0.706000 95 66 52
0.226013 0.246549 0.706000 105 57 40
0.227841 0.246549 0.706000 101 53 36
0.229994 0.246898 0.707000 125 85 70
0.231825 0.246898 0.707000 166 126 111
0.220528 0.248380 0.706000 97 83 75
0.222357 0.248380 0.706000 102 66 54
0.224185 0.248380 0.706000 99 63 51
0.226013 0.248380 0.706000 106 55 39
0.227841 0.248380 0.706000 102 51 35
0.229994 0.248732 0.707000 147 109 98
0.231825 0.248732 0.707000 163 125 114
0.220528 0.250210 0.706000 96 78 69
0.222357 0.250210 0.706000 104 64 51
0.224185 0.250210 0.706000 101 61 48
0.226013 0.250210 0.706000 107 56 38
0.228164 0.250565 0.707000 111 60 42
0.229994 0.250565 0.707000 152 121 110
0.232153 0.250919 0.708000 155 124 113
0.220528 0.252041 0.706000 96 76 68
0.222357 0.252041 0.706000 106 64 50
0.224185 0.252041 0.706000 100 58 44
0.226333 0.252398 0.707000 97 49 30
0.228164 0.252398 0.707000 115 67 48
0.229994 0.252398 0.707000 149 123 112
0.232153 0.252755 0.708000 149 123 112
0.220528 0.253871 0.706000 94 72 64
0.222357 0.253871 0.706000 107 62 49
0.224502 0.254231 0.707000 100 55 42
0.226333 0.254231 0.707000 99 48 30
0.228164 0.254231 0.707000 136 85 67
0.230320 0.254591 0.708000 155 130 123
0.232153 0.254591 0.708000 150 125 118
0.219010 0.256064 0.707000 102 77 68
0.220528 0.255702 0.706000 94 69 60
0.222671 0.256064 0.707000 106 60 44
0.224502 0.256064 0.707000 100 54 38
0.226333 0.256064 0.707000 98 50 33
0.228164 0.256064 0.707000 147 99 82
0.230320 0.256426 0.708000 151 131 123
0.219010 0.257897 0.707000 96 69 61
0.220841 0.257897 0.707000 93 66 58
0.222671 0.257897 0.707000 103 57 41
0.224502 0.257897 0.707000 99 53 37
0.226333 0.257897 0.707000 111 65 47
0.228486 0.258262 0.708000 161 115 97
0.230320 0.258262 0.708000 146 127 121
0.219010 0.259731 0.707000 99 70 60
0.220841 0.259731 0.707000 95 66 56
0.222671 0.259731 0.707000 102 56 38
0.224502 0.259731 0.707000 93 47 29
0.226653 0.260098 0.708000 122 80 66
0.228486 0.260098 0.708000 164 122 108
0.230645 0.260465 0.709000 144 130 126
0.217486 0.261934 0.708000 96 80 75
0.219010 0.261564 0.707000 104 70 60
0.220841 0.261564 0.707000 97 63 53
0.222671 0.261564 0.707000 103 55 38
0.224820 0.261934 0.708000 98 50 33
0.226653 0.261934 0.708000 130 93 79
0.228809 0.262304 0.709000 165 128 114
0.217486 0.263769 0.708000 98 79 73
0.219320 0.263769 0.708000 107 69 58
0.221153 0.263769 0.708000 99 61 50
0.222986 0.263769 0.708000 98 50 31
0.224820 0.263769 0.708000 102 54 35
0.226973 0.264142 0.709000 137 104 89
0.229132 0.264515 0.710000 164 131 116
0.217794 0.265980 0.709000 98 76 68
0.219320 0.265605 0.708000 107 67 54
0.221153 0.265605 0.708000 99 59 46
0.223301 0.265980 0.709000 100 49 31
0.225455 0.266355 0.710000 115 64 46
0.227293 0.266355 0.710000 152 121 110
0.229132 0.266355 0.710000 161 130 119
0.217794 0.267819 0.709000 99 74 65
0.219630 0.267819 0.709000 105 63 49
0.221465 0.267819 0.709000 100 58 44
0.223616 0.268196 0.710000 96 48 31
0.225455 0.268196 0.710000 134 86 69
0.227293 0.268196 0.710000 158 132 121
0.229455 0.268574 0.711000 151 125 114
0.216262 0.270037 0.710000 102 75 67
0.218101 0.270037 0.710000 99 72 64
0.219630 0.269657 0.709000 105 61 45
0.221778 0.270037 0.710000 101 57 41
0.223616 0.270037 0.710000 93 47 29
0.225772 0.270418 0.711000 145 99 81
0.227614 0.270418 0.711000 161 136 127
0.216262 0.271878 0.710000 104 74 67
0.218101 0.271878 0.710000 98 68 61
0.219939 0.271878 0.710000 106 60 42
0.221778 0.271878 0.710000 100 54 36
0.223931 0.272261 0.711000 109 63 45
0.225772 0.272261 0.711000 164 118 100
0.227934 0.272644 0.712000 153 135 126
0.216262 0.273719 0.710000 102 71 60
0.218101 0.273719 0.710000 97 66 55
0.219939 0.273719 0.710000 110 59 41
0.222090 0.274105 0.711000 100 49 31
0.223931 0.274105 0.711000 124 80 62
0.226090 0.274490 0.712000 168 124 106
0.228254 0.274876 0.713000 147 133 127
0.214726 0.275948 0.711000 105 84 81
0.216567 0.275948 0.711000 103 67 55
0.218408 0.275948 0.711000 100 64 52
0.220249 0.275948 0.711000 110 58 38
0.222090 0.275948 0.711000 104 52 32
0.223931 0.275948 0.711000 139 100 82
0.226407 0.276725 0.713000 170 131 113
0.214726 0.277792 0.711000 103 81 73
0.216567 0.277792 0.711000 105 68 54
0.218408 0.277792 0.711000 100 63 49
0.220249 0.277792 0.711000 105 53 33
0.222090 0.277792 0.711000 106 54 34
0.224561 0.278573 0.713000 151 116 99
0.226407 0.278573 0.713000 162 127 110
0.212885 0.279635 0.711000 107 82 73
0.214726 0.279635 0.711000 101 76 67
0.216567 0.279635 0.711000 107 66 49
0.218408 0.279635 0.711000 102 61 44
0.220559 0.280029 0.712000 97 47 26
0.222403 0.280029 0.712000 118 68 47
0.224561 0.280422 0.713000 157 128 114
0.212885 0.281479 0.711000 107 83 71
0.214726 0.281479 0.711000 100 76 64
0.216567 0.281479 0.711000 110 64 46
0.218408 0.281479 0.711000 104 58 40
0.220559 0.281875 0.712000 97 50 28
0.222715 0.282271 0.713000 138 91 69
0.224561 0.282271 0.713000 156 132 120
0.212885 0.283323 0.711000 106 77 65
0.214726 0.283323 0.711000 99 70 58
0.216567 0.283323 0.711000 109 61 42
0.218715 0.283721 0.712000 101 53 34
0.220869 0.284119 0.713000 104 60 40
0.222715 0.284119 0.713000 154 110 90
0.224561 0.284119 0.713000 152 134 125
0.211044 0.285166 0.711000 98 82 77
0.212885 0.285166 0.711000 102 71 60
0.214726 0.285166 0.711000 99 68 57
0.216871 0.285567 0.712000 109 58 40
0.219022 0.285968 0.713000 100 49 31
0.220869 0.285968 0.713000 121 80 61
0.222715 0.285968 0.713000 162 121 102
0.211044 0.287010 0.711000 101 82 76
0.212885 0.287010 0.711000 104 68 56
0.214726 0.287010 0.711000 101 65 53
0.217176 0.287817 0.713000 107 56 38
0.219022 0.287817 0.713000 100 49 31
0.220869 0.287817 0.713000 137 100 84
0.223027 0.288221 0.714000 165 128 112
0.211044 0.288853 0.711000 96 75 70
0.212885 0.288853 0.711000 104 67 53
0.215028 0.289259 0.712000 100 63 49
0.217176 0.289666 0.713000 104 56 37
0.219022 0.289666 0.713000 103 55 36
0.221178 0.290072 0.714000 144 110 98
0.223027 0.290072 0.714000 158 124 112
0.209497 0.291106 0.712000 102 77 70
0.211340 0.291106 0.712000 99 74 67
0.213483 0.291514 0.713000 105 63 49
0.215330 0.291514 0.713000 100 58 44
0.217176 0.291514 0.713000 101 53 36
0.219330 0.291923 0.714000 125 77 60
0.221178 0.291923 0.714000 154 125 115
0.209791 0.293363 0.713000 102 72 65
0.211637 0.293363 0.713000 98 68 61
0.213483 0.293363 0.713000 108 60 45
0.215330 0.293363 0.713000 103 55 40
0.217481 0.293775 0.714000 103 55 38
0.219330 0.293775 0.714000 147 99 82
0.221178 0.293775 0.714000 157 135 125
0.209791 0.295212 0.713000 105 71 63
0.211637 0.295212 0.713000 98 64 56
0.213483 0.295212 0.713000 110 57 42
0.215632 0.295626 0.714000 105 52 37
0.217481 0.295626 0.714000 115 71 55
0.219330 0.295626 0.714000 162 118 102
0.221488 0.296040 0.715000 149 133 126
0.208236 0.297477 0.714000 98 79 75
0.209791 0.297061 0.713000 103 65 54
0.211637 0.297061 0.713000 100 62 51
0.213783 0.297477 0.714000 106 55 37
0.215632 0.297477 0.714000 105 54 36
0.217481 0.297477 0.714000 132 95 79
0.219637 0.297894 0.715000 163 126 110
0.208236 0.299329 0.714000 100 78 70
0.210085 0.299329 0.714000 104 62 48
0.211934 0.299329 0.714000 103 61 47
0.213783 0.299329 0.714000 101 54 32
0.215632 0.299329 0.714000 115 68 46
0.217785 0.299748 0.715000 147 116 103
0.219637 0.299748 0.715000 159 128 115
0.206387 0.301180 0.714000 106 79 71
0.208236 0.301180 0.714000 97 70 62
0.210085 0.301180 0.714000 106 60 42
0.211934 0.301180 0.714000 106 60 42
0.213783 0.301180 0.714000 101 53 34
0.215934 0.301602 0.715000 129 81 62
0.217785 0.301602 0.715000 152 133 120
0.204538 0.303031 0.714000 103 87 84
0.206387 0.303031 0.714000 101 67 57
0.208236 0.303031 0.714000 99 65 55
0.210085 0.303031 0.714000 104 56 37
0.211934 0.303031 0.714000 103 55 36
0.214082 0.303456 0.715000 102 58 40
0.215934 0.303456 0.715000 156 112 94
0.217785 0.303456 0.715000 140 129 120
0.204538 0.304882 0.714000 97 76 71
0.206387 0.304882 0.714000 105 63 51
0.208236 0.304882 0.714000 103 61 49
0.210085 0.304882 0.714000 105 55 34
0.212231 0.305309 0.715000 102 52 31
0.214082 0.305309 0.715000 124 87 71
0.215934 0.305309 0.715000 163 126 110
0.202690 0.306734 0.714000 108 78 71
0.204538 0.306734 0.714000 94 64 57
0.206387 0.306734 0.714000 108 60 41
0.208236 0.306734 0.714000 107 59 40
0.210379 0.307163 0.715000 104 54 33
0.212231 0.307163 0.715000 121 71 50
0.214082 0.307163 0.715000 145 116 102
0.200841 0.308585 0.714000 97 78 74
0.202690 0.308585 0.714000 103 66 52
0.204538 0.308585 0.714000 102 65 51
0.206387 0.308585 0.714000 110 58 38
0.208528 0.309017 0.715000 106 54 34
0.210379 0.309017 0.715000 107 61 43
0.212231 0.309017 0.715000 145 99 81
0.214082 0.309017 0.715000 144 129 117
0.197419 0.310871 0.715000 112 95 95
0.198992 0.310436 0.714000 110 80 73
0.200841 0.310436 0.714000 98 68 61
0.202690 0.310436 0.714000 111 63 46
0.204538 0.310436 0.714000 109 61 44
0.206387 0.310436 0.714000 110 58 36
0.208528 0.310871 0.715000 106 54 32
0.210379 0.310871 0.715000 121 86 69
0.212231 0.310871 0.715000 158 123 106
0.195568 0.312725 0.715000 113 90 87
0.197419 0.312725 0.715000 107 84 81
0.198992 0.312288 0.714000 112 69 60
0.200841 0.312288 0.714000 106 63 54
0.202690 0.312288 0.714000 113 61 41
0.204825 0.312725 0.715000 110 58 38
0.206676 0.312725 0.715000 101 53 34
0.208528 0.312725 0.715000 122 74 55
0.210379 0.312725 0.715000 145 124 111
0.193716 0.314579 0.715000 111 92 90
0.195568 0.314579 0.715000 109 72 67
0.197419 0.314579 0.715000 101 64 59
0.199271 0.314579 0.715000 112 61 43
0.201122 0.314579 0.715000 110 59 41
0.202973 0.314579 0.715000 110 58 38
0.204825 0.314579 0.715000 101 49 29
0.206676 0.314579 0.715000 111 74 58
0.208528 0.314579 0.715000 140 103 87
0.190013 0.316433 0.715000 112 95 95
0.191865 0.316433 0.715000 113 81 77
0.193716 0.316433 0.715000 104 72 68
0.195568 0.316433 0.715000 112 63 51
0.197419 0.316433 0.715000 110 61 49
0.199271 0.316433 0.715000 113 58 39
0.201122 0.316433 0.715000 112 57 38
0.202973 0.316433 0.715000 99 53 33
0.204825 0.316433 0.715000 124 78 58
0.206676 0.316433 0.715000 136 115 102
0.186571 0.318732 0.716000 111 96 97
0.188425 0.318732 0.716000 113 81 77
0.190279 0.318732 0.716000 104 72 68
0.191865 0.318287 0.715000 116 67 57
0.193716 0.318287 0.715000 115 66 56
0.195568 0.318287 0.715000 115 59 43
0.197419 0.318287 0.715000 112 56 40
0.199271 0.318287 0.715000 106 54 34
0.201403 0.318732 0.716000 105 53 33
0.203257 0.318732 0.716000 116 83 68
0.205111 0.318732 0.716000 151 118 103
0.182863 0.320589 0.716000 113 96 98
0.184717 0.320589 0.716000 118 83 80
0.186571 0.320589 0.716000 108 73 70
0.188425 0.320589 0.716000 118 69 57
0.190279 0.320589 0.716000 112 63 51
0.192133 0.320589 0.716000 119 62 43
0.193987 0.320589 0.716000 117 60 41
0.195841 0.320589 0.716000 113 58 39
0.197695 0.320589 0.716000 106 51 32
0.199549 0.320589 0.716000 110 69 52
0.201403 0.320589 0.716000 134 93 76
0.203257 0.320589 0.716000 147 129 120
0.177548 0.322895 0.717000 121 101 102
0.179405 0.322895 0.717000 112 92 93
0.181261 0.322895 0.717000 119 84 81
0.183118 0.322895 0.717000 111 76 73
0.184975 0.322895 0.717000 118 69 57
0.186831 0.322895 0.717000 115 66 54
0.188688 0.322895 0.717000 119 62 41
0.190279 0.322445 0.716000 117 60 39
0.192133 0.322445 0.716000 117 60 39
0.193987 0.322445 0.716000 114 57 36
0.195841 0.322445 0.716000 107 63 47
0.197695 0.322445 0.716000 124 80 64
0.199549 0.322445 0.716000 139 118 105
0.201403 0.322445 0.716000 150 129 116
0.171978 0.324755 0.717000 116 105 109
0.173835 0.324755 0.717000 119 96 95
0.175692 0.324755 0.717000 112 89 88
0.177548 0.324755 0.717000 111 72 68
0.179405 0.324755 0.717000 101 62 58
0.181261 0.324755 0.717000 115 63 52
0.183118 0.324755 0.717000 117 65 54
0.184975 0.324755 0.717000 121 61 46
0.186831 0.324755 0.717000 119 59 44
0.188688 0.324755 0.717000 116 59 40
0.190545 0.324755 0.717000 116 59 40
0.192401 0.324755 0.717000 107 61 43
0.194258 0.324755 0.717000 121 75 57
0.196115 0.324755 0.717000 129 103 90
0.197971 0.324755 0.717000 149 123 110
0.166408 0.326614 0.717000 125 101 103
0.168265 0.326614 0.717000 120 96 98
0.170122 0.326614 0.717000 110 77 78
0.171978 0.326614 0.717000 104 71 72
0.173835 0.326614 0.717000 110 69 61
0.175692 0.326614 0.717000 111 70 62
0.177548 0.326614 0.717000 118 67 51
0.179405 0.326614 0.717000 114 63 47
0.181261 0.326614 0.717000 118 63 44
0.183118 0.326614 0.717000 117 62 43
0.184975 0.326614 0.717000 115 60 41
0.186831 0.326614 0.717000 109 54 35
0.188688 0.326614 0.717000 106 62 46
0.190545 0.326614 0.717000 126 82 66
0.192401 0.326614 0.717000 133 109 95
0.194258 0.326614 0.717000 144 120 106
0.160838 0.328473 0.717000 121 104 106
0.162695 0.328473 0.717000 125 92 93
0.164552 0.328473 0.717000 117 84 85
0.166408 0.328473 0.717000 117 73 71
0.168265 0.328473 0.717000 113 69 67
0.170122 0.328473 0.717000 113 64 54
0.171978 0.328473 0.717000 116 67 57
0.173835 0.328473 0.717000 121 68 53
0.175692 0.328473 0.717000 118 65 50
0.177548 0.328473 0.717000 118 68 47
0.179405 0.328473 0.717000 114 64 43
0.181261 0.328473 0.717000 112 61 43
0.183118 0.328473 0.717000 113 62 44
0.184975 0.328473 0.717000 111 70 53
0.186831 0.328473 0.717000 121 80 63
0.188688 0.328473 0.717000 130 111 98
0.155268 0.330332 0.717000 124 101 100
0.157125 0.330332 0.717000 119 96 95
0.158982 0.330332 0.717000 121 82 80
0.160838 0.330332 0.717000 116 77 75
0.162695 0.330332 0.717000 124 74 67
0.164552 0.330332 0.717000 120 70 63
0.166408 0.330332 0.717000 125 67 53
0.168265 0.330332 0.717000 124 66 52
0.170122 0.330332 0.717000 122 64 48
0.171978 0.330332 0.717000 120 62 46
0.173835 0.330332 0.717000 116 63 46
0.175692 0.330332 0.717000 113 60 43
0.177548 0.330332 0.717000 109 63 45
0.179405 0.330332 0.717000 114 68 50
0.181261 0.330332 0.717000 116 81 66
0.183118 0.330332 0.717000 134 99 84
0.184975 0.330332 0.717000 133 115 104
0.147842 0.332191 0.717000 125 101 103
0.149698 0.332191 0.717000 119 95 97
0.151555 0.332191 0.717000 126 91 86
0.153412 0.332191 0.717000 109 74 69
0.155268 0.332191 0.717000 118 75 68
0.157125 0.332191 0.717000 120 77 70
0.158982 0.332191 0.717000 122 69 56
0.160838 0.332191 0.717000 121 68 55
0.162695 0.332191 0.717000 125 65 50
0.164552 0.332191 0.717000 124 64 49
0.166408 0.332191 0.717000 125 63 46
0.168265 0.332191 0.717000 123 61 44
0.170122 0.332191 0.717000 119 62 43
0.171978 0.332191 0.717000 114 57 38
0.173835 0.332191 0.717000 107 63 47
0.175692 0.332191 0.717000 117 73 57
0.177548 0.332191 0.717000 122 93 81
0.179405 0.332191 0.717000 137 108 96
0.144330 0.334516 0.718000 119 86 85
0.146189 0.334516 0.718000 114 81 80
0.148048 0.334516 0.718000 122 76 70
0.149907 0.334516 0.718000 120 74 68
0.151555 0.334050 0.717000 120 69 53
0.153412 0.334050 0.717000 122 71 55
0.155268 0.334050 0.717000 127 71 55
0.157125 0.334050 0.717000 124 68 52
0.158982 0.334050 0.717000 125 68 49
0.160838 0.334050 0.717000 123 66 47
0.162695 0.334050 0.717000 120 62 46
0.164552 0.334050 0.717000 117 59 43
0.166408 0.334050 0.717000 112 59 44
0.168265 0.334050 0.717000 116 63 48
0.170122 0.334050 0.717000 121 81 68
0.171978 0.334050 0.717000 133 93 80
0.173835 0.334050 0.717000 136 111 102
0.175692 0.334050 0.717000 142 117 108
0.138945 0.336846 0.719000 113 89 91
0.140807 0.336846 0.719000 116 81 78
0.142470 0.336378 0.718000 112 77 74
0.144330 0.336378 0.718000 119 70 60
0.146189 0.336378 0.718000 118 69 59
0.148048 0.336378 0.718000 124 66 50
0.149907 0.336378 0.718000 123 65 49
0.151767 0.336378 0.718000 122 65 44
0.153626 0.336378 0.718000 122 65 44
0.155485 0.336378 0.718000 117 62 43
0.157125 0.335909 0.717000 114 59 40
0.158982 0.335909 0.717000 112 61 43
0.160838 0.335909 0.717000 112 61 43
0.164781 0.336378 0.718000 122 77 64
0.166640 0.336378 0.718000 126 92 84
0.168500 0.336378 0.718000 139 105 97
0.170359 0.336378 0.718000 138 119 113
0.133360 0.338710 0.719000 114 88 88
0.135221 0.338710 0.719000 99 73 73
0.137083 0.338710 0.719000 105 67 60
0.138945 0.338710 0.719000 108 70 63
0.140807 0.338710 0.719000 118 66 55
0.142669 0.338710 0.719000 119 67 56
0.144330 0.338239 0.718000 125 68 49
0.146189 0.338239 0.718000 122 65 46
0.148048 0.338239 0.718000 120 63 42
0.149907 0.338239 0.718000 119 62 41
0.151767 0.338239 0.718000 117 62 43
0.153626 0.338239 0.718000 114 59 40
0.155485 0.338239 0.718000 109 63 45
0.157344 0.338239 0.718000 118 72 54
0.159203 0.338239 0.718000 120 84 72
0.161063 0.338239 0.718000 131 95 83
0.162922 0.338239 0.718000 133 111 103
0.164781 0.338239 0.718000 138 116 108
0.127774 0.340575 0.719000 107 95 95
0.129636 0.340575 0.719000 106 78 77
0.131498 0.340575 0.719000 106 78 77
0.133360 0.340575 0.719000 114 68 60
0.135221 0.340575 0.719000 107 61 53
0.137083 0.340575 0.719000 114 61 46
0.138945 0.340575 0.719000 118 65 50
0.140807 0.340575 0.719000 118 62 46
0.142669 0.340575 0.719000 118 62 46
0.144531 0.340575 0.719000 117 62 43
0.146392 0.340575 0.719000 114 59 40
0.148048 0.340101 0.718000 110 59 41
0.149907 0.340101 0.718000 112 61 43
0.151978 0.340575 0.719000 109 72 56
0.153626 0.340101 0.718000 119 82 66
0.155485 0.340101 0.718000 130 101 89
0.157563 0.340575 0.719000 136 107 95
0.122189 0.342439 0.719000 119 98 97
0.124050 0.342439 0.719000 111 90 89
0.125912 0.342439 0.719000 118 83 80
0.127774 0.342439 0.719000 107 72 69
0.129636 0.342439 0.719000 111 64 51
0.131498 0.342439 0.719000 116 69 56
0.133360 0.342439 0.719000 122 65 46
0.135221 0.342439 0.719000 119 62 43
0.137083 0.342439 0.719000 115 60 39
0.138945 0.342439 0.719000 114 59 38
0.140807 0.342439 0.719000 114 61 44
0.142669 0.342439 0.719000 116 63 46
0.144531 0.342439 0.719000 114 73 56
0.146392 0.342439 0.719000 125 84 67
0.148254 0.342439 0.719000 119 90 78
0.150116 0.342439 0.719000 127 98 86
0.151978 0.342439 0.719000 129 113 106
0.153840 0.342439 0.719000 134 118 111
0.118465 0.344303 0.719000 122 94 95
0.120327 0.344303 0.719000 109 81 82
0.122189 0.344303 0.719000 115 72 67
0.124050 0.344303 0.719000 112 69 64
0.125912 0.344303 0.719000 120 69 55
0.127774 0.344303 0.719000 118 67 53
0.129636 0.344303 0.719000 120 63 42
0.131498 0.344303 0.719000 119 62 41
0.133360 0.344303 0.719000 118 61 40
0.135410 0.344782 0.720000 117 60 39
0.137274 0.344782 0.720000 112 64 45
0.139138 0.344782 0.720000 117 69 50
0.140807 0.344303 0.719000 120 85 70
0.142669 0.344303 0.719000 137 102 87
0.144732 0.344782 0.720000 132 111 98
0.146392 0.344303 0.719000 135 114 101
0.113037 0.346649 0.720000 114 102 102
0.114741 0.346168 0.719000 120 87 88
0.116603 0.346168 0.719000 112 79 80
0.118465 0.346168 0.719000 115 69 65
0.120327 0.346168 0.719000 115 69 65
0.122189 0.346168 0.719000 121 65 51
0.124223 0.346649 0.720000 117 61 47
0.126087 0.346649 0.720000 122 65 46
0.127952 0.346649 0.720000 120 63 44
0.129816 0.346649 0.720000 117 62 43
0.131681 0.346649 0.720000 112 57 38
0.133545 0.346649 0.720000 115 69 51
0.135410 0.346649 0.720000 123 77 59
0.137274 0.346649 0.720000 126 95 82
0.139138 0.346649 0.720000 135 104 91
0.141003 0.346649 0.720000 134 118 111
0.109308 0.348516 0.720000 111 96 97
0.111172 0.348516 0.720000 117 84 85
0.112880 0.348032 0.719000 112 79 80
0.114741 0.348032 0.719000 122 69 63
0.116603 0.348032 0.719000 120 67 61
0.118465 0.348032 0.719000 121 65 51
0.120327 0.348032 0.719000 120 64 50
0.122189 0.348032 0.719000 122 64 48
0.124050 0.348032 0.719000 118 60 44
0.126087 0.348516 0.720000 115 59 43
0.127952 0.348516 0.720000 113 57 41
0.129816 0.348516 0.720000 112 71 54
0.131681 0.348516 0.720000 126 85 68
0.133731 0.349000 0.721000 132 106 93
0.135598 0.349000 0.721000 145 119 106
0.103714 0.350383 0.720000 111 91 92
0.105579 0.350383 0.720000 105 85 86
0.107443 0.350383 0.720000 114 79 76
0.109308 0.350383 0.720000 111 76 73
0.111018 0.349896 0.719000 120 68 59
0.112880 0.349896 0.719000 119 67 58
0.114741 0.349896 0.719000 124 64 49
0.116603 0.349896 0.719000 121 61 46
0.118465 0.349896 0.719000 121 62 44
0.120327 0.349896 0.719000 120 61 43
0.122359 0.350383 0.720000 113 60 45
0.124223 0.350383 0.720000 115 62 47
0.126087 0.350383 0.720000 118 78 63
0.127952 0.350383 0.720000 135 95 80
0.129997 0.350869 0.721000 136 111 102
0.131864 0.350869 0.721000 143 118 109
0.099986 0.352250 0.720000 114 88 88
0.101850 0.352250 0.720000 107 81 81
0.103714 0.352250 0.720000 108 71 66
0.105579 0.352250 0.720000 106 69 64
0.107443 0.352250 0.720000 114 62 51
0.109308 0.352250 0.720000 115 63 52
0.111172 0.352250 0.720000 119 59 44
0.112880 0.351760 0.719000 120 60 45
0.114741 0.351760 0.719000 119 62 43
0.116603 0.351760 0.719000 115 58 39
0.118465 0.351760 0.719000 110 59 43
0.120494 0.352250 0.720000 118 67 51
0.122359 0.352250 0.720000 122 87 72
0.124223 0.352250 0.720000 137 102 87
0.126087 0.352250 0.720000 135 117 108
0.096257 0.354116 0.720000 111 83 82
0.098121 0.354116 0.720000 107 79 78
0.099986 0.354116 0.720000 109 68 60
0.101850 0.354116 0.720000 106 65 57
0.103714 0.354116 0.720000 115 64 50
0.105579 0.354116 0.720000 115 64 50
0.107443 0.354116 0.720000 117 61 45
0.109308 0.354116 0.720000 116 60 44
0.111172 0.354116 0.720000 118 61 42
0.113037 0.354116 0.720000 114 57 38
0.114901 0.354116 0.720000 113 65 48
0.116765 0.354116 0.720000 127 79 62
0.118630 0.354116 0.720000 127 96 83
0.120494 0.354116 0.720000 138 107 94
0.122359 0.354116 0.720000 139 125 117
0.090664 0.355983 0.720000 109 87 89
0.092528 0.355983 0.720000 114 78 78
0.094392 0.355983 0.720000 108 72 72
0.096257 0.355983 0.720000 110 64 56
0.098121 0.355983 0.720000 108 62 54
0.099986 0.355983 0.720000 114 61 44
0.101850 0.355983 0.720000 114 61 44
0.103714 0.355983 0.720000 116 61 42
0.105579 0.355983 0.720000 115 60 41
0.107443 0.355983 0.720000 111 60 42
0.109308 0.355983 0.720000 112 61 43
0.111172 0.355983 0.720000 119 75 59
0.113037 0.355983 0.720000 135 91 75
0.114901 0.355983 0.720000 137 108 98
0.116765 0.355983 0.720000 140 111 101
0.086935 0.357850 0.720000 112 86 86
0.088799 0.357850 0.720000 110 72 65
0.090664 0.357850 0.720000 109 71 64
0.092528 0.357850 0.720000 119 67 56
0.094392 0.357850 0.720000 118 66 55
0.096257 0.357850 0.720000 118 63 44
0.098121 0.357850 0.720000 116 61 42
0.099986 0.357850 0.720000 113 61 41
0.101992 0.358347 0.721000 111 59 39
0.103859 0.358347 0.721000 107 61 43
0.105579 0.357850 0.720000 116 70 52
0.107593 0.358347 0.721000 127 94 79
0.109460 0.358347 0.721000 139 106 91
0.111327 0.358347 0.721000 135 113 105
0.083206 0.359717 0.720000 106 83 82
0.085070 0.359717 0.720000 114 71 66
0.086935 0.359717 0.720000 111 68 63
0.088799 0.359717 0.720000 118 65 52
0.090664 0.359717 0.720000 118 65 52
0.092528 0.359717 0.720000 122 65 46
0.094392 0.359717 0.720000 119 62 43
0.096257 0.359717 0.720000 113 61 41
0.098121 0.359717 0.720000 111 59 39
0.100125 0.360217 0.721000 107 66 47
0.101992 0.360217 0.721000 119 78 59
0.103859 0.360217 0.721000 126 97 83
0.105726 0.360217 0.721000 143 114 100
0.077613 0.361584 0.720000 107 84 81
0.079367 0.361082 0.719000 98 75 72
0.081229 0.361082 0.719000 110 69 61
0.083206 0.361584 0.720000 110 69 61
0.085070 0.361584 0.720000 121 65 49
0.086935 0.361584 0.720000 118 62 46
0.088799 0.361584 0.720000 118 61 42
0.090664 0.361584 0.720000 118 61 42
0.092528 0.361584 0.720000 111 59 39
0.094392 0.361584 0.720000 110 58 38
0.096257 0.361584 0.720000 111 72 52
0.098121 0.361584 0.720000 130 91 71
0.100125 0.362086 0.721000 133 109 95
0.101992 0.362086 0.721000 140 116 102
0.073781 0.362946 0.719000 104 83 82
0.075643 0.362946 0.719000 99 78 77
0.077505 0.362946 0.719000 110 69 61
0.079367 0.362946 0.719000 107 66 58
0.081229 0.362946 0.719000 118 62 46
0.083090 0.362946 0.719000 117 61 45
0.084952 0.362946 0.719000 118 61 42
0.086935 0.363451 0.720000 115 58 39
0.088799 0.363451 0.720000 108 56 36
0.090664 0.363451 0.720000 116 64 44
0.092528 0.363451 0.720000 123 86 70
0.094392 0.363451 0.720000 136 99 83
0.096257 0.363451 0.720000 134 113 100
0.069960 0.364303 0.718000 106 80 76
0.071819 0.364303 0.718000 101 75 71
0.073781 0.364810 0.719000 106 65 57
0.075643 0.364810 0.719000 105 64 56
0.077505 0.364810 0.719000 115 64 48
0.079367 0.364810 0.719000 113 62 46
0.081229 0.364810 0.719000 116 59 40
0.083090 0.364810 0.719000 115 58 39
0.084952 0.364810 0.719000 110 59 41
0.086935 0.365318 0.720000 120 69 51
0.088799 0.365318 0.720000 126 92 80
0.090664 0.365318 0.720000 140 106 94
0.092528 0.365318 0.720000 136 121 111
0.066242 0.366165 0.718000 108 85 80
0.068101 0.366165 0.718000 104 81 76
0.069960 0.366165 0.718000 107 64 55
0.071819 0.366165 0.718000 108 65 56
0.073679 0.366165 0.718000 112 61 45
0.075643 0.366675 0.719000 111 60 44
0.077505 0.366675 0.719000 113 61 41
0.079367 0.366675 0.719000 110 58 38
0.081229 0.366675 0.719000 110 62 43
0.083090 0.366675 0.719000 119 71 52
0.085070 0.367185 0.720000 125 94 81
0.086935 0.367185 0.720000 144 113 100
0.088799 0.367185 0.720000 130 116 110
0.060664 0.368026 0.718000 105 90 91
0.062523 0.368026 0.718000 108 82 80
0.064293 0.367514 0.717000 103 77 75
0.066149 0.367514 0.717000 112 69 60
0.068101 0.368026 0.718000 110 67 58
0.069960 0.368026 0.718000 113 60 45
0.071819 0.368026 0.718000 112 59 44
0.073679 0.368026 0.718000 111 58 41
0.075643 0.368539 0.719000 108 55 38
0.077505 0.368539 0.719000 108 62 44
0.079367 0.368539 0.719000 124 78 60
0.081229 0.368539 0.719000 132 102 86
0.083206 0.369052 0.720000 145 115 99
0.085070 0.369052 0.720000 136 122 116
0.055086 0.369888 0.718000 103 86 88
0.056945 0.369888 0.718000 103 86 88
0.058805 0.369888 0.718000 108 77 75
0.060664 0.369888 0.718000 104 73 71
0.062436 0.369373 0.717000 115 69 61
0.064293 0.369373 0.717000 112 66 58
0.066149 0.369373 0.717000 116 60 44
0.068101 0.369888 0.718000 115 59 43
0.069960 0.369888 0.718000 111 59 39
0.071819 0.369888 0.718000 110 58 38
0.073679 0.369888 0.718000 110 64 48
0.075643 0.370403 0.719000 123 77 61
0.077505 0.370403 0.719000 132 101 88
0.079477 0.370918 0.720000 145 114 101
0.051368 0.371750 0.718000 103 83 86
0.053227 0.371750 0.718000 103 83 86
0.055086 0.371750 0.718000 110 78 74
0.056945 0.371750 0.718000 107 75 71
0.058805 0.371750 0.718000 116 69 56
0.060664 0.371750 0.718000 112 65 52
0.062523 0.371750 0.718000 120 62 46
0.064382 0.371750 0.718000 118 60 44
0.066242 0.371750 0.718000 115 60 41
0.068101 0.371750 0.718000 112 57 38
0.069960 0.371750 0.718000 110 66 50
0.071919 0.372267 0.719000 123 79 63
0.073781 0.372267 0.719000 133 104 92
0.075643 0.372267 0.719000 146 117 105
0.047716 0.374132 0.719000 110 86 88
0.049577 0.374132 0.719000 104 80 82
0.051368 0.373611 0.718000 109 72 67
0.053227 0.373611 0.718000 108 71 66
0.055086 0.373611 0.718000 115 66 54
0.056945 0.373611 0.718000 113 64 52
0.058805 0.373611 0.718000 117 61 45
0.060664 0.373611 0.718000 116 60 44
0.062523 0.373611 0.718000 113 58 39
0.064382 0.373611 0.718000 110 55 36
0.066242 0.373611 0.718000 110 64 44
0.068196 0.374132 0.719000 124 78 58
0.070058 0.374132 0.719000 129 103 90
0.071919 0.374132 0.719000 143 117 104
0.042189 0.376519 0.720000 95 80 81
0.043992 0.375996 0.719000 99 73 71
0.045854 0.375996 0.719000 105 79 77
0.047716 0.375996 0.719000 113 72 66
0.049509 0.375473 0.718000 110 69 63
0.051368 0.375473 0.718000 115 64 50
0.053227 0.375473 0.718000 112 61 47
0.055086 0.375473 0.718000 116 61 42
0.056945 0.375473 0.718000 114 59 40
0.058805 0.375473 0.718000 112 60 40
0.060664 0.375473 0.718000 110 58 38
0.062523 0.375473 0.718000 112 68 52
0.064472 0.375996 0.719000 128 84 68
0.066334 0.375996 0.719000 133 104 90
0.036596 0.378386 0.720000 114 94 95
0.038460 0.378386 0.720000 108 88 89
0.040324 0.378386 0.720000 109 78 76
0.042130 0.377860 0.719000 106 75 73
0.043992 0.377860 0.719000 111 69 57
0.045854 0.377860 0.719000 111 69 57
0.047716 0.377860 0.719000 118 65 48
0.049509 0.377335 0.718000 116 63 46
0.051368 0.377335 0.718000 118 61 40
0.053227 0.377335 0.718000 118 61 40
0.055086 0.377335 0.718000 109 59 38
0.056945 0.377335 0.718000 111 61 40
0.058887 0.377860 0.719000 111 69 55
0.060748 0.377860 0.719000 122 80 66
0.062610 0.377860 0.719000 136 112 100
0.032867 0.380253 0.720000 114 91 90
0.034731 0.380253 0.720000 112 89 88
0.036596 0.380253 0.720000 116 79 74
0.038460 0.380253 0.720000 113 76 71
0.040324 0.380253 0.720000 117 69 54
0.042130 0.379725 0.719000 116 68 53
0.043992 0.379725 0.719000 120 65 46
0.045854 0.379725 0.719000 120 65 46
0.047716 0.379725 0.719000 119 62 41
0.049577 0.379725 0.719000 116 59 38
0.051439 0.379725 0.719000 113 63 42
0.053301 0.379725 0.719000 115 65 44
0.055163 0.379725 0.719000 117 80 66
0.057025 0.379725 0.719000 131 94 80
0.058887 0.379725 0.719000 129 109 99
0.029178 0.382650 0.721000 115 89 87
0.031045 0.382650 0.721000 110 84 82
0.032912 0.382650 0.721000 113 72 66
0.034779 0.382650 0.721000 111 70 64
0.036646 0.382650 0.721000 118 67 53
0.038513 0.382650 0.721000 117 66 52
0.040324 0.382120 0.720000 120 63 42
0.042189 0.382120 0.720000 120 63 42
0.044053 0.382120 0.720000 116 61 40
0.045854 0.381589 0.719000 114 59 38
0.047716 0.381589 0.719000 105 58 36
0.049577 0.381589 0.719000 109 62 40
0.051439 0.381589 0.719000 117 82 65
0.053301 0.381589 0.719000 136 101 84
0.055240 0.382120 0.720000 134 114 106
0.023577 0.384520 0.721000 112 100 98
0.025444 0.384520 0.721000 117 86 84
0.027311 0.384520 0.721000 111 80 78
0.029178 0.384520 0.721000 116 70 62
0.031045 0.384520 0.721000 113 67 59
0.032912 0.384520 0.721000 118 65 50
0.034779 0.384520 0.721000 118 65 50
0.036646 0.384520 0.721000 118 61 42
0.038513 0.384520 0.721000 118 61 42
0.040380 0.384520 0.721000 113 58 37
0.042247 0.384520 0.721000 114 59 38
0.044114 0.384520 0.721000 110 65 42
0.045918 0.383987 0.720000 118 73 50
0.047782 0.383987 0.720000 128 95 80
0.049646 0.383987 0.720000 141 108 93
0.019843 0.386389 0.721000 108 93 92
0.021710 0.386389 0.721000 113 83 78
0.023577 0.386389 0.721000 109 79 74
0.025444 0.386389 0.721000 116 69 58
0.027311 0.386389 0.721000 114 67 56
0.029178 0.386389 0.721000 118 62 46
0.031045 0.386389 0.721000 117 61 45
0.032958 0.386925 0.722000 116 61 42
0.034828 0.386925 0.722000 114 59 40
0.036697 0.386925 0.722000 108 56 36
0.038567 0.386925 0.722000 110 58 38
0.040380 0.386389 0.721000 114 70 52
0.042247 0.386389 0.721000 124 80 62
0.044114 0.386389 0.721000 134 105 91
0.045981 0.386389 0.721000 146 117 103
0.016132 0.388797 0.722000 108 92 89
0.018001 0.388797 0.722000 112 77 72
0.019843 0.388259 0.721000 109 74 69
0.021710 0.388259 0.721000 113 64 52
0.023577 0.388259 0.721000 113 64 52
0.025480 0.388797 0.722000 120 63 44
0.027349 0.388797 0.722000 118 61 42
0.029219 0.388797 0.722000 116 61 40
0.031131 0.389336 0.723000 116 61 40
0.033004 0.389336 0.723000 111 64 42
0.034876 0.389336 0.723000 115 68 46
0.036799 0.389874 0.724000 121 84 68
0.038674 0.389874 0.724000 139 102 86
0.040436 0.388797 0.722000 140 119 106
0.012392 0.390669 0.722000 109 88 87
0.014262 0.390669 0.722000 116 79 74
0.016109 0.390128 0.721000 113 76 71
0.017976 0.390128 0.721000 118 67 53
0.019843 0.390128 0.721000 115 64 50
0.021710 0.390128 0.721000 119 62 43
0.023610 0.390669 0.722000 119 62 43
0.025480 0.390669 0.722000 117 60 41
0.027387 0.391210 0.723000 114 57 38
0.029300 0.391751 0.724000 112 64 45
0.031175 0.391751 0.724000 122 74 55
0.033049 0.391751 0.724000 125 95 79
0.034924 0.391751 0.724000 138 108 92
0.036850 0.392293 0.725000 138 120 111
0.006774 0.391998 0.721000 113 92 91
0.008641 0.391998 0.721000 104 83 82
0.010508 0.391998 0.721000 114 77 72
0.012375 0.391998 0.721000 110 73 68
0.014242 0.391998 0.721000 117 65 54
0.016109 0.391998 0.721000 115 63 52
0.017976 0.391998 0.721000 121 62 42
0.019843 0.391998 0.721000 119 60 40
0.021740 0.392541 0.722000 116 57 37
0.023643 0.393085 0.723000 116 57 37
0.025550 0.393629 0.724000 109 63 45
0.027425 0.393629 0.724000 123 77 59
0.029300 0.393629 0.724000 128 97 86
0.031218 0.394172 0.725000 139 108 97
0.003040 0.393867 0.721000 109 88 87
0.004907 0.393867 0.721000 106 85 84
0.006774 0.393867 0.721000 113 76 71
0.008641 0.393867 0.721000 107 70 65
0.010508 0.393867 0.721000 113 65 50
0.012375 0.393867 0.721000 112 64 49
0.014242 0.393867 0.721000 122 65 46
0.016109 0.393867 0.721000 118 61 42
0.018001 0.394413 0.722000 118 59 41
0.019898 0.394960 0.723000 116 57 39
0.021771 0.394960 0.723000 112 64 47
0.023675 0.395506 0.724000 127 79 62
0.025585 0.396052 0.725000 131 102 90
0.027463 0.396052 0.725000 141 112 100
-0.000694 0.395737 0.721000 114 88 86
0.001173 0.395737 0.721000 109 83 81
0.003040 0.395737 0.721000 109 71 64
0.004907 0.395737 0.721000 104 66 59
0.006774 0.395737 0.721000 115 64 50
0.008641 0.395737 0.721000 114 63 49
0.010508 0.395737 0.721000 116 61 42
0.012375 0.395737 0.721000 113 58 39
0.014242 0.395737 0.721000 116 59 40
0.016132 0.396286 0.722000 114 57 38
0.018026 0.396834 0.723000 114 68 52
0.019898 0.396834 0.723000 131 85 69
0.021801 0.397383 0.724000 137 108 98
0.023708 0.397932 0.725000 147 118 108
-0.006303 0.398158 0.722000 111 96 95
-0.004428 0.397606 0.721000 117 89 88
-0.002561 0.397606 0.721000 107 79 78
-0.000694 0.397606 0.721000 108 70 63
0.001173 0.397606 0.721000 103 65 58
0.003040 0.397606 0.721000 114 63 47
0.004907 0.397606 0.721000 113 62 46
0.006774 0.397606 0.721000 116 61 40
0.008641 0.397606 0.721000 116 61 40
0.010508 0.397606 0.721000 112 60 38
0.012375 0.397606 0.721000 110 58 36
0.014242 0.397606 0.721000 117 73 57
0.016154 0.398709 0.723000 133 89 73
0.018026 0.398709 0.723000 137 108 98
-0.010043 0.400030 0.722000 108 88 89
-0.008173 0.400030 0.722000 115 84 82
-0.006303 0.400030 0.722000 104 73 71
-0.004428 0.399476 0.721000 100 54 48
-0.002561 0.399476 0.721000 101 55 49
-0.000694 0.399476 0.721000 111 60 46
0.001173 0.399476 0.721000 111 60 46
0.003040 0.399476 0.721000 113 60 43
0.004907 0.399476 0.721000 112 59 42
0.006774 0.399476 0.721000 107 56 38
0.008641 0.399476 0.721000 110 59 41
0.010508 0.399476 0.721000 112 75 59
0.012375 0.399476 0.721000 132 95 79
0.014262 0.400030 0.722000 132 110 100
-0.015651 0.401902 0.722000 115 94 93
-0.013782 0.401902 0.722000 106 85 84
-0.011896 0.401345 0.721000 116 79 76
-0.010029 0.401345 0.721000 106 69 66
-0.008162 0.401345 0.721000 112 64 56
-0.006303 0.401902 0.722000 109 61 53
-0.004428 0.401345 0.721000 110 57 42
-0.002561 0.401345 0.721000 113 60 45
-0.000694 0.401345 0.721000 112 59 42
0.001173 0.401345 0.721000 106 53 36
0.003040 0.401345 0.721000 101 55 37
0.004907 0.401345 0.721000 110 64 46
0.006774 0.401345 0.721000 115 80 65
0.008641 0.401345 0.721000 135 100 85
0.010523 0.401902 0.722000 136 118 109
-0.019391 0.403774 0.722000 114 91 88
-0.017497 0.403215 0.721000 110 87 84
-0.015630 0.403215 0.721000 114 73 67
-0.013763 0.403215 0.721000 109 68 62
-0.011896 0.403215 0.721000 113 61 50
-0.010029 0.403215 0.721000 112 60 49
-0.008162 0.403215 0.721000 116 60 44
-0.006303 0.403774 0.722000 116 60 44
-0.004434 0.403774 0.722000 108 55 38
-0.002564 0.403774 0.722000 110 57 40
-0.000695 0.403774 0.722000 104 60 44
0.001175 0.403774 0.722000 117 73 57
0.003044 0.403774 0.722000 123 97 84
0.004914 0.403774 0.722000 136 110 97
-0.024965 0.405084 0.721000 108 93 92
-0.023098 0.405084 0.721000 115 89 85
-0.021231 0.405084 0.721000 108 82 78
-0.019364 0.405084 0.721000 112 69 62
-0.017497 0.405084 0.721000 106 63 56
-0.015630 0.405084 0.721000 114 61 48
-0.013763 0.405084 0.721000 113 60 47
-0.011896 0.405084 0.721000 115 59 43
-0.010029 0.405084 0.721000 114 58 42
-0.008162 0.405084 0.721000 110 55 36
-0.006303 0.405646 0.722000 106 51 32
-0.004434 0.405646 0.722000 103 62 45
-0.002568 0.406208 0.723000 119 78 61
-0.000696 0.406208 0.723000 124 98 85
0.001177 0.406208 0.723000 137 111 98
-0.028699 0.406953 0.721000 107 92 91
-0.026832 0.406953 0.721000 111 84 78
-0.024965 0.406953 0.721000 109 82 76
-0.023098 0.406953 0.721000 115 73 61
-0.021231 0.406953 0.721000 110 68 56
-0.019337 0.406389 0.720000 116 60 46
-0.017473 0.406389 0.720000 115 59 45
-0.015630 0.406953 0.721000 116 58 42
-0.013763 0.406953 0.721000 116 58 42
-0.011896 0.406953 0.721000 108 55 38
-0.010029 0.406953 0.721000 110 57 40
-0.008162 0.406953 0.721000 110 69 52
-0.006303 0.407518 0.722000 129 88 71
-0.004440 0.408082 0.723000 131 107 93
-0.032433 0.408823 0.721000 105 88 88
-0.030566 0.408823 0.721000 116 86 81
-0.028699 0.408823 0.721000 112 82 77
-0.026832 0.408823 0.721000 114 72 58
-0.024965 0.408823 0.721000 111 69 55
-0.023098 0.408823 0.721000 118 63 44
-0.021201 0.408256 0.720000 115 60 41
-0.019337 0.408256 0.720000 117 60 39
-0.017473 0.408256 0.720000 116 59 38
-0.015608 0.408256 0.720000 109 58 40
-0.013763 0.408823 0.721000 107 56 38
-0.011896 0.408823 0.721000 114 77 61
-0.010029 0.408823 0.721000 131 94 78
-0.008173 0.409390 0.722000 132 111 98
-0.038087 0.411262 0.722000 109 90 88
-0.036167 0.410692 0.721000 109 90 88
-0.034300 0.410692 0.721000 117 85 79
-0.032433 0.410692 0.721000 107 75 69
-0.030566 0.410692 0.721000 110 64 48
-0.028699 0.410692 0.721000 112 66 50
-0.026832 0.410692 0.721000 116 61 40
-0.024965 0.410692 0.721000 116 61 40
-0.023098 0.410692 0.721000 117 61 37
-0.021201 0.410123 0.720000 115 59 35
-0.019337 0.410123 0.720000 103 55 36
-0.017473 0.410123 0.720000 113 65 46
-0.015630 0.410692 0.721000 119 85 73
-0.013763 0.410692 0.721000 139 105 93
-0.041942 0.414279 0.724000 111 90 89
-0.039956 0.413134 0.722000 109 88 87
-0.038087 0.413134 0.722000 112 77 72
-0.036167 0.412562 0.721000 108 73 68
-0.034300 0.412562 0.721000 115 68 55
-0.032433 0.412562 0.721000 114 67 54
-0.030566 0.412562 0.721000 116 61 42
-0.028699 0.412562 0.721000 115 60 41
-0.026832 0.412562 0.721000 112 57 38
-0.024965 0.412562 0.721000 109 54 35
-0.023066 0.411990 0.720000 107 59 40
-0.021201 0.411990 0.720000 122 74 55
-0.019337 0.411990 0.720000 127 96 85
-0.017497 0.412562 0.721000 134 103 92
-0.043816 0.416156 0.724000 105 89 86
-0.041884 0.415581 0.723000 110 73 68
-0.039956 0.415006 0.722000 103 66 61
-0.038087 0.415006 0.722000 115 66 54
-0.036167 0.414431 0.721000 113 64 52
-0.034300 0.414431 0.721000 114 59 40
-0.032433 0.414431 0.721000 112 57 38
-0.030566 0.414431 0.721000 108 56 36
-0.028699 0.414431 0.721000 107 55 35
-0.026832 0.414431 0.721000 108 64 46
-0.024965 0.414431 0.721000 121 77 59
-0.023066 0.413857 0.720000 129 100 88
-0.021231 0.414431 0.721000 141 112 100
-0.045691 0.418033 0.724000 100 73 67
-0.043756 0.417456 0.723000 97 70 64
-0.041826 0.416878 0.722000 115 64 50
-0.039901 0.416301 0.721000 114 63 49
-0.038034 0.416301 0.721000 114 58 42
-0.036167 0.416301 0.721000 114 58 42
-0.034300 0.416301 0.721000 107 55 35
-0.032433 0.416301 0.721000 107 55 35
-0.030566 0.416301 0.721000 110 69 50
-0.028699 0.416301 0.721000 126 85 66
-0.026832 0.416301 0.721000 133 104 92
-0.024965 0.416301 0.721000 143 114 102
-0.047566 0.419910 0.724000 92 81 74
-0.045691 0.419910 0.724000 90 59 48
-0.043756 0.419330 0.723000 97 66 55
-0.041884 0.419330 0.723000 112 59 42
-0.039956 0.418750 0.722000 108 55 38
-0.038087 0.418750 0.722000 105 53 33
-0.036217 0.418750 0.722000 114 62 42
-0.034347 0.418750 0.722000 117 78 60
-0.032433 0.418170 0.721000 138 99 81
-0.030566 0.418170 0.721000 136 112 100
-0.045691 0.421788 0.724000 99 73 60
-0.043756 0.421205 0.723000 86 60 47
-0.041942 0.421788 0.724000 101 57 41
-0.039956 0.420622 0.722000 107 63 47
-0.038139 0.421205 0.723000 121 81 66
-0.036267 0.421205 0.723000 139 99 84
-0.034395 0.421205 0.723000 132 112 102
-0.043816 0.423665 0.724000 88 70 59
-0.041942 0.423665 0.724000 122 96 83
-0.040067 0.423665 0.724000 139 113 100
-0.038192 0.423665 0.724000 143 123 113
