ply
format ascii 1.0
element vertex 1237
property float x
property float y
property float z
property uchar red
property uchar green
property uchar blue
end_header
0.508751 -0.444595 0.615463 102 87 88
0.510535 -0.444771 0.615178 107 92 93
0.512623 -0.445938 0.615234 108 86 88
0.514409 -0.446114 0.614949 141 119 121
0.507271 -0.444216 0.617528 97 82 83
0.509055 -0.444392 0.617243 87 61 59
0.511141 -0.445558 0.617303 85 59 57
0.512928 -0.445734 0.617017 90 55 52
0.514714 -0.445910 0.616732 122 87 84
0.505792 -0.443837 0.619594 102 83 81
0.507576 -0.444012 0.619309 93 74 72
0.509360 -0.444188 0.619024 95 58 53
0.511446 -0.445354 0.619086 92 55 50
0.513232 -0.445530 0.618800 92 51 41
0.515019 -0.445706 0.618515 132 91 81
0.516806 -0.445882 0.618230 149 135 131
0.506096 -0.443633 0.621374 100 77 74
0.507880 -0.443809 0.621089 93 70 67
0.509664 -0.443985 0.620804 96 58 49
0.511751 -0.445151 0.620868 94 56 47
0.513537 -0.445327 0.620583 98 56 44
0.515324 -0.445503 0.620298 149 107 95
0.517110 -0.445679 0.620013 152 136 131
0.506400 -0.443430 0.623154 100 72 69
0.508184 -0.443605 0.622869 95 67 64
0.509969 -0.443781 0.622584 100 57 48
0.512055 -0.444947 0.622651 97 54 45
0.513842 -0.445123 0.622366 101 61 48
0.515629 -0.445299 0.622081 151 111 98
0.517415 -0.445475 0.621795 152 136 131
0.506705 -0.443226 0.624935 102 72 65
0.508489 -0.443402 0.624650 95 65 58
0.510574 -0.444567 0.624720 99 57 45
0.512360 -0.444743 0.624434 95 53 41
0.514147 -0.444919 0.624149 113 73 60
0.515934 -0.445095 0.623864 160 120 107
0.507305 -0.444011 0.627073 99 70 58
0.509092 -0.444187 0.626788 93 64 52
0.510878 -0.444363 0.626502 101 56 43
0.512665 -0.444539 0.626217 93 48 35
0.514758 -0.445705 0.626288 131 94 80
0.516547 -0.445881 0.626003 168 131 117
0.505823 -0.443631 0.629141 98 79 73
0.507610 -0.443807 0.628856 98 69 57
0.509397 -0.443983 0.628571 93 64 52
0.511183 -0.444159 0.628285 102 58 42
0.512970 -0.444335 0.628000 95 51 35
0.515063 -0.445500 0.628074 140 103 89
0.516852 -0.445677 0.627788 166 129 115
0.506128 -0.443427 0.630924 94 75 69
0.507915 -0.443603 0.630639 99 68 55
0.509701 -0.443779 0.630354 95 64 51
0.511790 -0.444944 0.630431 102 56 40
0.513579 -0.445120 0.630145 108 62 46
0.515368 -0.445296 0.629859 158 123 108
0.517158 -0.445473 0.629573 165 130 115
0.506728 -0.444211 0.633073 91 73 64
0.508220 -0.443400 0.632422 100 66 54
0.510306 -0.444564 0.632502 94 60 48
0.512095 -0.444740 0.632216 97 51 35
0.513884 -0.444916 0.631930 117 71 55
0.515674 -0.445092 0.631644 160 126 114
0.517463 -0.445268 0.631359 163 129 117
0.507033 -0.444007 0.634859 97 75 67
0.508822 -0.444183 0.634573 99 63 51
0.510611 -0.444359 0.634287 95 59 47
0.512401 -0.444536 0.634001 94 50 34
0.514190 -0.444712 0.633716 135 91 75
0.515979 -0.444888 0.633430 155 126 116
0.507338 -0.443803 0.636644 100 75 66
0.509127 -0.443979 0.636358 103 63 50
0.510917 -0.444155 0.636073 98 58 45
0.512706 -0.444332 0.635787 95 51 35
0.514495 -0.444508 0.635501 144 100 84
0.516284 -0.444684 0.635215 155 130 121
0.507643 -0.443599 0.638429 98 73 64
0.509433 -0.443775 0.638144 103 61 47
0.511222 -0.443951 0.637858 100 58 44
0.513011 -0.444127 0.637572 99 55 39
0.514800 -0.444304 0.637287 152 108 92
0.516589 -0.444480 0.637001 153 130 125
0.507949 -0.443395 0.640215 97 71 60
0.509738 -0.443571 0.639929 101 56 43
0.511527 -0.443747 0.639643 99 54 41
0.513316 -0.443923 0.639358 112 68 52
0.515105 -0.444099 0.639072 161 117 101
0.516895 -0.444276 0.638786 147 128 124
0.506465 -0.443014 0.642286 103 74 64
0.508254 -0.443190 0.642000 94 65 55
0.510043 -0.443367 0.641715 101 56 43
0.511832 -0.443543 0.641429 97 52 39
0.513621 -0.443719 0.641143 124 84 69
0.515411 -0.443895 0.640857 167 127 112
0.517200 -0.444072 0.640572 144 129 128
0.506770 -0.442810 0.644071 99 68 59
0.508559 -0.442986 0.643786 91 60 51
0.510348 -0.443163 0.643500 100 55 42
0.512138 -0.443339 0.643214 94 49 36
0.513927 -0.443515 0.642929 140 103 89
0.515716 -0.443691 0.642643 166 129 115
0.517505 -0.443868 0.642357 139 129 129
0.507370 -0.443591 0.646241 95 64 53
0.508864 -0.442782 0.645571 90 59 48
0.510654 -0.442958 0.645285 99 53 37
0.512443 -0.443135 0.645000 100 54 38
0.514232 -0.443311 0.644714 148 114 102
0.516021 -0.443487 0.644428 163 129 117
0.507676 -0.443387 0.648029 99 61 50
0.509468 -0.443563 0.647743 93 55 44
0.511260 -0.443740 0.647457 98 50 33
0.512748 -0.442931 0.646785 110 62 45
0.514843 -0.444093 0.646885 154 125 113
0.516635 -0.444269 0.646598 160 131 119
0.506190 -0.443006 0.650103 95 74 69
0.507982 -0.443182 0.649817 102 62 49
0.509774 -0.443359 0.649531 96 56 43
0.511565 -0.443535 0.649245 90 44 26
0.513357 -0.443712 0.648959 128 82 64
0.515149 -0.443888 0.648673 159 133 122
0.516940 -0.444065 0.648386 152 126 115
0.506496 -0.442801 0.651891 96 73 68
0.508287 -0.442978 0.651605 102 60 48
0.510079 -0.443154 0.651319 98 56 44
0.511871 -0.443331 0.651033 93 49 33
0.513663 -0.443507 0.650747 149 105 89
0.515454 -0.443684 0.650460 157 133 121
0.506801 -0.442597 0.653679 97 70 64
0.508593 -0.442773 0.653393 106 60 44
0.510385 -0.442950 0.653107 96 50 34
0.512177 -0.443126 0.652821 104 60 44
0.513968 -0.443303 0.652535 162 118 102
0.515760 -0.443479 0.652249 150 132 123
0.505608 -0.443199 0.656151 102 70 64
0.507402 -0.443376 0.655864 96 64 58
0.509196 -0.443553 0.655578 104 56 39
0.510691 -0.442745 0.654895 97 49 32
0.512785 -0.443906 0.655005 117 76 59
0.514579 -0.444083 0.654718 163 122 105
0.516373 -0.444260 0.654432 145 129 124
0.505914 -0.442994 0.657942 104 70 62
0.507708 -0.443171 0.657655 98 64 56
0.509502 -0.443348 0.657368 106 55 39
0.511297 -0.443525 0.657082 99 48 32
0.513091 -0.443701 0.656795 135 96 78
0.514885 -0.443878 0.656509 169 130 112
0.504426 -0.442613 0.660019 98 79 73
0.506220 -0.442790 0.659732 104 68 58
0.508014 -0.442966 0.659446 100 64 54
0.509809 -0.443143 0.659159 102 54 37
0.511603 -0.443320 0.658872 101 53 36
0.513397 -0.443497 0.658586 143 108 93
0.515191 -0.443673 0.658299 165 130 115
0.504732 -0.442408 0.661809 100 77 72
0.506526 -0.442585 0.661523 107 66 58
0.508320 -0.442762 0.661236 99 58 50
0.510115 -0.442939 0.660949 96 48 33
0.511909 -0.443115 0.660663 118 70 55
0.513703 -0.443292 0.660376 155 122 107
0.505038 -0.442204 0.663600 99 74 67
0.506832 -0.442380 0.663313 106 63 54
0.508626 -0.442557 0.663027 99 56 47
0.510720 -0.443716 0.663147 96 45 31
0.512517 -0.443893 0.662860 131 80 66
0.514314 -0.444070 0.662573 159 130 118
0.505344 -0.441999 0.665390 99 72 64
0.507433 -0.443157 0.665514 105 60 49
0.509230 -0.443334 0.665227 102 57 46
0.511027 -0.443511 0.664940 101 53 38
0.512823 -0.443688 0.664653 147 99 84
0.514620 -0.443865 0.664366 155 130 121
0.504146 -0.442598 0.667881 103 76 68
0.505650 -0.441794 0.667181 99 72 64
0.507739 -0.442952 0.667307 105 60 47
0.509536 -0.443129 0.667020 99 54 41
0.511333 -0.443306 0.666733 104 60 44
0.513433 -0.444466 0.666858 157 113 97
0.515232 -0.444643 0.666571 153 131 123
0.504452 -0.442393 0.669674 100 74 61
0.505956 -0.441589 0.668971 95 69 56
0.508046 -0.442747 0.669100 102 58 40
0.509843 -0.442924 0.668813 99 55 37
0.511640 -0.443101 0.668526 110 68 54
0.513739 -0.444260 0.668654 166 124 110
0.515539 -0.444438 0.668366 146 127 123
0.504759 -0.442188 0.671467 102 73 59
0.506556 -0.442365 0.671180 95 66 52
0.508353 -0.442542 0.670893 105 57 40
0.510149 -0.442719 0.670606 101 53 36
0.512247 -0.443878 0.670737 125 85 70
0.514046 -0.444055 0.670449 166 126 111
0.503269 -0.441806 0.673547 97 83 75
0.505065 -0.441983 0.673260 102 66 54
0.506862 -0.442160 0.672973 99 63 51
0.508659 -0.442337 0.672686 106 55 39
0.510456 -0.442514 0.672399 102 51 35
0.512554 -0.443673 0.672532 147 109 98
0.514353 -0.443850 0.672245 163 125 114
0.503575 -0.441601 0.675340 96 78 69
0.505372 -0.441778 0.675053 104 64 51
0.507169 -0.441955 0.674766 101 61 48
0.508966 -0.442132 0.674479 107 56 38
0.511062 -0.443290 0.674615 111 60 42
0.512861 -0.443467 0.674328 152 121 110
0.514965 -0.444625 0.674462 155 124 113
0.503882 -0.441396 0.677133 96 76 68
0.505679 -0.441573 0.676846 106 64 50
0.507475 -0.441750 0.676559 100 58 44
0.509569 -0.442907 0.676698 97 49 30
0.511369 -0.443085 0.676411 115 67 48
0.513168 -0.443262 0.676123 149 123 112
0.515272 -0.444420 0.676260 149 123 112
0.504188 -0.441191 0.678926 94 72 64
0.505985 -0.441368 0.678639 107 62 49
0.508077 -0.442525 0.678781 100 55 42
0.509876 -0.442702 0.678494 99 48 30
0.511676 -0.442879 0.678206 136 85 67
0.513778 -0.444037 0.678346 155 130 123
0.515580 -0.444214 0.678059 150 125 118
0.502986 -0.441788 0.681439 102 77 68
0.504495 -0.440986 0.680719 94 69 60
0.506585 -0.442142 0.680864 106 60 44
0.508384 -0.442320 0.680577 100 54 38
0.510183 -0.442497 0.680289 98 50 33
0.511983 -0.442674 0.680002 147 99 82
0.514085 -0.443831 0.680144 151 131 123
0.503293 -0.441583 0.683234 96 69 61
0.505092 -0.441760 0.682947 93 66 58
0.506891 -0.441937 0.682660 103 57 41
0.508691 -0.442114 0.682372 99 53 37
0.510490 -0.442292 0.682085 111 65 47
0.512591 -0.443448 0.682230 161 115 97
0.514392 -0.443626 0.681943 146 127 121
0.503600 -0.441377 0.685030 99 70 60
0.505399 -0.441555 0.684742 95 66 56
0.507199 -0.441732 0.684455 102 56 38
0.508998 -0.441909 0.684168 93 47 29
0.511096 -0.443065 0.684316 122 80 66
0.512898 -0.443243 0.684029 164 122 108
0.515004 -0.444399 0.684176 144 130 126
0.502394 -0.441972 0.687553 96 80 75
0.503907 -0.441172 0.686825 104 70 60
0.505706 -0.441349 0.686538 97 63 53
0.507505 -0.441527 0.686251 103 55 38
0.509602 -0.442682 0.686402 98 50 33
0.511403 -0.442860 0.686114 130 93 79
0.513507 -0.444016 0.686265 165 128 114
0.502701 -0.441767 0.689351 98 79 73
0.504503 -0.441944 0.689064 107 69 58
0.506305 -0.442121 0.688776 99 61 50
0.508107 -0.442299 0.688488 98 50 31
0.509909 -0.442476 0.688200 102 54 35
0.512011 -0.443632 0.688353 137 104 89
0.514117 -0.444788 0.688506 164 131 116
0.503296 -0.442538 0.691595 98 76 68
0.504811 -0.441738 0.690862 107 67 54
0.506613 -0.441916 0.690574 99 59 46
0.508710 -0.443071 0.690730 100 49 31
0.510812 -0.444226 0.690886 115 64 46
0.512619 -0.444404 0.690598 152 121 110
0.514426 -0.444582 0.690309 161 130 119
0.503604 -0.442332 0.693396 99 74 65
0.505409 -0.442510 0.693107 105 63 49
0.507213 -0.442687 0.692819 100 58 44
0.509313 -0.443842 0.692978 96 48 31
0.511120 -0.444020 0.692689 134 86 69
0.512927 -0.444198 0.692401 158 132 121
0.515037 -0.445354 0.692558 151 125 114
0.502393 -0.442924 0.695935 102 75 67
0.504200 -0.443102 0.695647 99 72 64
0.505716 -0.442304 0.694908 105 61 45
0.507814 -0.443458 0.695070 101 57 41
0.509621 -0.443636 0.694781 93 47 29
0.511727 -0.444791 0.694942 145 99 81
0.513536 -0.444969 0.694653 161 136 127
0.502702 -0.442718 0.697739 104 74 67
0.504509 -0.442896 0.697450 98 68 61
0.506316 -0.443074 0.697162 106 60 42
0.508123 -0.443252 0.696873 100 54 36
0.510226 -0.444406 0.697036 109 63 45
0.512035 -0.444585 0.696747 164 118 100
0.514147 -0.445740 0.696909 153 135 126
0.503010 -0.442512 0.699542 102 71 60
0.504817 -0.442690 0.699253 97 66 55
0.506624 -0.442868 0.698965 110 59 41
0.508725 -0.444022 0.699131 100 49 31
0.510535 -0.444200 0.698842 124 80 62
0.512644 -0.445355 0.699007 168 124 106
0.514758 -0.446510 0.699171 147 133 127
0.501796 -0.443102 0.702093 105 84 81
0.503605 -0.443281 0.701804 103 67 55
0.505415 -0.443459 0.701515 100 64 52
0.507224 -0.443637 0.701226 110 58 38
0.509034 -0.443815 0.700937 104 52 32
0.510843 -0.443994 0.700648 139 100 82
0.513253 -0.446124 0.701272 170 131 113
0.502104 -0.442896 0.703898 103 81 73
0.503914 -0.443074 0.703609 105 68 54
0.505723 -0.443252 0.703321 100 63 49
0.507533 -0.443431 0.703031 105 53 33
0.509343 -0.443609 0.702743 106 54 34
0.511748 -0.445739 0.703373 151 116 99
0.513562 -0.445917 0.703083 162 127 110
0.500604 -0.442511 0.705993 107 82 73
0.502413 -0.442689 0.705704 101 76 67
0.504223 -0.442868 0.705415 107 66 49
0.506032 -0.443046 0.705126 102 61 44
0.508135 -0.444199 0.705300 97 47 26
0.509947 -0.444378 0.705011 118 68 47
0.512057 -0.445532 0.705183 157 128 114
0.500912 -0.442305 0.707799 107 83 71
0.502722 -0.442483 0.707510 100 76 64
0.504531 -0.442661 0.707221 110 64 46
0.506341 -0.442839 0.706932 104 58 40
0.508444 -0.443992 0.707108 97 50 28
0.510552 -0.445146 0.707284 138 91 69
0.512367 -0.445325 0.706994 156 132 120
0.501221 -0.442098 0.709605 106 77 65
0.503031 -0.442276 0.709316 99 70 58
0.504840 -0.442455 0.709027 109 61 42
0.506941 -0.443607 0.709206 101 53 34
0.509047 -0.444760 0.709385 104 60 40
0.510862 -0.444939 0.709095 154 110 90
0.512676 -0.445117 0.708805 152 134 125
0.499720 -0.441714 0.711699 98 82 77
0.501530 -0.441892 0.711410 102 71 60
0.503339 -0.442070 0.711121 99 68 57
0.505438 -0.443222 0.711304 109 58 40
0.507542 -0.444374 0.711485 100 49 31
0.509357 -0.444553 0.711195 121 80 61
0.511171 -0.444732 0.710906 162 121 102
0.500029 -0.441507 0.713505 101 82 76
0.501838 -0.441685 0.713216 104 68 56
0.503648 -0.441864 0.712927 101 65 53
0.506037 -0.443988 0.713586 107 56 38
0.507852 -0.444167 0.713296 100 49 31
0.509666 -0.444346 0.713006 137 100 84
0.511778 -0.445499 0.713189 165 128 112
0.500338 -0.441301 0.715311 96 75 70
0.502147 -0.441479 0.715022 104 67 53
0.504244 -0.442630 0.715210 100 63 49
0.506347 -0.443781 0.715397 104 56 37
0.508161 -0.443960 0.715107 103 55 36
0.510271 -0.445112 0.715293 144 110 98
0.512088 -0.445291 0.715003 158 124 112
0.499117 -0.441888 0.717886 102 77 70
0.500929 -0.442066 0.717597 99 74 67
0.503027 -0.443217 0.717787 105 63 49
0.504842 -0.443396 0.717497 100 58 44
0.506656 -0.443574 0.717208 101 53 36
0.508764 -0.444726 0.717396 125 77 60
0.510581 -0.444905 0.717106 154 125 115
0.499707 -0.442652 0.720178 102 72 65
0.501522 -0.442831 0.719888 98 68 61
0.503336 -0.443010 0.719598 108 60 45
0.505151 -0.443189 0.719308 103 55 40
0.507257 -0.444340 0.719500 103 55 38
0.509074 -0.444519 0.719210 147 99 82
0.510891 -0.444698 0.718920 157 135 125
0.500017 -0.442445 0.721988 105 71 63
0.501831 -0.442624 0.721699 98 64 56
0.503646 -0.442803 0.721409 110 57 42
0.505750 -0.443953 0.721603 105 52 37
0.507567 -0.444132 0.721313 115 71 55
0.509384 -0.444311 0.721023 162 118 102
0.511498 -0.445463 0.721216 149 133 126
0.498791 -0.443030 0.724578 98 79 75
0.500326 -0.442238 0.723799 103 65 54
0.502141 -0.442417 0.723509 100 62 51
0.504242 -0.443567 0.723707 106 55 37
0.506060 -0.443746 0.723417 105 54 36
0.507877 -0.443925 0.723127 132 95 79
0.509988 -0.445076 0.723323 163 126 110
0.499101 -0.442823 0.726391 100 78 70
0.500918 -0.443002 0.726101 104 62 48
0.502735 -0.443181 0.725811 103 61 47
0.504552 -0.443360 0.725520 101 54 32
0.506370 -0.443539 0.725230 115 68 46
0.508479 -0.444689 0.725429 147 116 103
0.510299 -0.444869 0.725138 159 128 115
0.497594 -0.442436 0.728495 106 79 71
0.499411 -0.442615 0.728204 97 70 62
0.501228 -0.442795 0.727914 106 60 42
0.503045 -0.442973 0.727624 106 60 42
0.504862 -0.443152 0.727334 101 53 34
0.506970 -0.444302 0.727536 129 81 62
0.508789 -0.444482 0.727245 152 133 120
0.496087 -0.442050 0.730598 103 87 84
0.497904 -0.442229 0.730308 101 67 57
0.499721 -0.442408 0.730018 99 65 55
0.501538 -0.442587 0.729728 104 56 37
0.503355 -0.442766 0.729437 103 55 36
0.505461 -0.443916 0.729642 102 58 40
0.507280 -0.444095 0.729351 156 112 94
0.509100 -0.444274 0.729061 140 129 120
0.496397 -0.441843 0.732411 97 76 71
0.498214 -0.442022 0.732121 105 63 51
0.500031 -0.442201 0.731831 103 61 49
0.501848 -0.442380 0.731541 105 55 34
0.503951 -0.443529 0.731749 102 52 31
0.505771 -0.443708 0.731458 124 87 71
0.507591 -0.443887 0.731167 163 126 110
0.494889 -0.441456 0.734515 108 78 71
0.496707 -0.441635 0.734225 94 64 57
0.498524 -0.441814 0.733935 108 60 41
0.500341 -0.441993 0.733644 107 59 40
0.502442 -0.443142 0.733855 104 54 33
0.504262 -0.443321 0.733564 121 71 50
0.506081 -0.443500 0.733274 145 116 102
0.493382 -0.441070 0.736619 97 78 74
0.495199 -0.441249 0.736328 103 66 52
0.497017 -0.441428 0.736038 102 65 51
0.498834 -0.441607 0.735748 110 58 38
0.500933 -0.442755 0.735962 106 54 34
0.502752 -0.442934 0.735671 107 61 43
0.504572 -0.443114 0.735380 145 99 81
0.506392 -0.443293 0.735090 144 129 117
0.490325 -0.441472 0.739521 112 95 95
0.491875 -0.440684 0.738722 110 80 73
0.493692 -0.440863 0.738432 98 68 61
0.495509 -0.441042 0.738142 111 63 46
0.497327 -0.441221 0.737852 109 61 44
0.499144 -0.441400 0.737561 110 58 36
0.501243 -0.442547 0.737777 106 54 32
0.503063 -0.442727 0.737487 121 86 69
0.504883 -0.442906 0.737196 158 123 106
0.488816 -0.441085 0.741628 113 90 87
0.490635 -0.441264 0.741337 107 84 81
0.492185 -0.440477 0.740535 112 69 60
0.494002 -0.440656 0.740245 106 63 54
0.495819 -0.440835 0.739955 113 61 41
0.497914 -0.441981 0.740175 110 58 38
0.499734 -0.442161 0.739884 101 53 34
0.501554 -0.442340 0.739593 122 74 55
0.503373 -0.442519 0.739303 145 124 111
0.487306 -0.440698 0.743734 111 92 90
0.489126 -0.440877 0.743444 109 72 67
0.490946 -0.441057 0.743153 101 64 59
0.492765 -0.441236 0.742862 112 61 43
0.494585 -0.441415 0.742572 110 59 41
0.496405 -0.441594 0.742281 110 58 38
0.498225 -0.441774 0.741991 101 49 29
0.500044 -0.441953 0.741700 111 74 58
0.501864 -0.442132 0.741409 140 103 87
0.483977 -0.440132 0.746131 112 95 95
0.485797 -0.440311 0.745841 113 81 77
0.487617 -0.440490 0.745550 104 72 68
0.489437 -0.440670 0.745259 112 63 51
0.491256 -0.440849 0.744969 110 61 49
0.493076 -0.441028 0.744678 113 58 39
0.494896 -0.441208 0.744388 112 57 38
0.496715 -0.441387 0.744097 99 53 33
0.498535 -0.441566 0.743806 124 78 58
0.500355 -0.441745 0.743516 136 115 102
0.480902 -0.440530 0.749050 111 96 97
0.482724 -0.440710 0.748759 113 81 77
0.484546 -0.440889 0.748468 104 72 68
0.486108 -0.440104 0.747657 116 67 57
0.487927 -0.440283 0.747366 115 66 56
0.489747 -0.440462 0.747075 115 59 43
0.491567 -0.440641 0.746785 112 56 40
0.493386 -0.440821 0.746494 106 54 34
0.495480 -0.441966 0.746722 105 53 33
0.497302 -0.442146 0.746431 116 83 68
0.499124 -0.442325 0.746140 151 118 103
0.477568 -0.439963 0.751450 113 96 98
0.479390 -0.440143 0.751159 118 83 80
0.481213 -0.440322 0.750868 108 73 70
0.483035 -0.440502 0.750577 118 69 57
0.484857 -0.440681 0.750286 112 63 51
0.486679 -0.440861 0.749995 119 62 43
0.488502 -0.441040 0.749704 117 60 41
0.490324 -0.441220 0.749413 113 58 39
0.492146 -0.441399 0.749122 106 51 32
0.493968 -0.441579 0.748831 110 69 52
0.495791 -0.441758 0.748540 134 93 76
0.497613 -0.441938 0.748249 147 129 120
0.472654 -0.440179 0.754670 121 101 102
0.474479 -0.440359 0.754379 112 92 93
0.476303 -0.440539 0.754087 119 84 81
0.478128 -0.440719 0.753796 111 76 73
0.479953 -0.440898 0.753505 118 69 57
0.481778 -0.441078 0.753213 115 66 54
0.483603 -0.441258 0.752922 119 62 41
0.485168 -0.440473 0.752105 117 60 39
0.486990 -0.440653 0.751814 117 60 39
0.488813 -0.440832 0.751523 114 57 36
0.490635 -0.441012 0.751232 107 63 47
0.492457 -0.441191 0.750941 124 80 64
0.494279 -0.441371 0.750650 139 118 105
0.496102 -0.441551 0.750359 150 129 116
0.467491 -0.439432 0.757365 116 105 109
0.469315 -0.439612 0.757074 119 96 95
0.471140 -0.439792 0.756783 112 89 88
0.472965 -0.439971 0.756491 111 72 68
0.474790 -0.440151 0.756200 101 62 58
0.476615 -0.440331 0.755908 115 63 52
0.478440 -0.440511 0.755617 117 65 54
0.480264 -0.440690 0.755326 121 61 46
0.482089 -0.440870 0.755034 119 59 44
0.483914 -0.441050 0.754743 116 59 40
0.485739 -0.441230 0.754451 116 59 40
0.487564 -0.441409 0.754160 107 61 43
0.489388 -0.441589 0.753868 121 75 57
0.491213 -0.441769 0.753577 129 103 90
0.493038 -0.441949 0.753286 149 123 110
0.462328 -0.438685 0.760061 125 101 103
0.464152 -0.438864 0.759769 120 96 98
0.465977 -0.439044 0.759478 110 77 78
0.467802 -0.439224 0.759187 104 71 72
0.469627 -0.439404 0.758895 110 69 61
0.471452 -0.439583 0.758604 111 70 62
0.473276 -0.439763 0.758312 118 67 51
0.475101 -0.439943 0.758021 114 63 47
0.476926 -0.440123 0.757729 118 63 44
0.478751 -0.440302 0.757438 117 62 43
0.480576 -0.440482 0.757147 115 60 41
0.482400 -0.440662 0.756855 109 54 35
0.484225 -0.440842 0.756564 106 62 46
0.486050 -0.441021 0.756272 126 82 66
0.487875 -0.441201 0.755981 133 109 95
0.489700 -0.441381 0.755690 144 120 106
0.457164 -0.437937 0.762756 121 104 106
0.458989 -0.438117 0.762465 125 92 93
0.460814 -0.438297 0.762173 117 84 85
0.462639 -0.438476 0.761882 117 73 71
0.464464 -0.438656 0.761590 113 69 67
0.466289 -0.438836 0.761299 113 64 54
0.468113 -0.439016 0.761007 116 67 57
0.469938 -0.439195 0.760716 121 68 53
0.471763 -0.439375 0.760425 118 65 50
0.473588 -0.439555 0.760133 118 68 47
0.475413 -0.439735 0.759842 114 64 43
0.477237 -0.439914 0.759550 112 61 43
0.479062 -0.440094 0.759259 113 62 44
0.480887 -0.440274 0.758968 111 70 53
0.482712 -0.440454 0.758676 121 80 63
0.484537 -0.440633 0.758385 130 111 98
0.452001 -0.437190 0.765451 124 101 100
0.453826 -0.437369 0.765160 119 96 95
0.455651 -0.437549 0.764868 121 82 80
0.457476 -0.437729 0.764577 116 77 75
0.459301 -0.437909 0.764286 124 74 67
0.461125 -0.438088 0.763994 120 70 63
0.462950 -0.438268 0.763703 125 67 53
0.464775 -0.438448 0.763411 124 66 52
0.466600 -0.438628 0.763120 122 64 48
0.468425 -0.438807 0.762828 120 62 46
0.470249 -0.438987 0.762537 116 63 46
0.472074 -0.439167 0.762246 113 60 43
0.473899 -0.439347 0.761954 109 63 45
0.475724 -0.439526 0.761663 114 68 50
0.477549 -0.439706 0.761371 116 81 66
0.479373 -0.439886 0.761080 134 99 84
0.481198 -0.440066 0.760789 133 115 104
0.445014 -0.436262 0.768438 125 101 103
0.446838 -0.436442 0.768146 119 95 97
0.448663 -0.436622 0.767855 126 91 86
0.450488 -0.436802 0.767564 109 74 69
0.452313 -0.436981 0.767272 118 75 68
0.454138 -0.437161 0.766981 120 77 70
0.455962 -0.437341 0.766689 122 69 56
0.457787 -0.437521 0.766398 121 68 55
0.459612 -0.437701 0.766106 125 65 50
0.461437 -0.437880 0.765815 124 64 49
0.463262 -0.438060 0.765524 125 63 46
0.465086 -0.438240 0.765232 123 61 44
0.466911 -0.438420 0.764941 119 62 43
0.468736 -0.438599 0.764649 114 57 38
0.470561 -0.438779 0.764358 107 63 47
0.472386 -0.438959 0.764067 117 73 57
0.474210 -0.439139 0.763775 122 93 81
0.476035 -0.439318 0.763484 137 108 96
0.441874 -0.436651 0.771393 119 86 85
0.443701 -0.436831 0.771101 114 81 80
0.445528 -0.437011 0.770809 122 76 70
0.447356 -0.437191 0.770517 120 74 68
0.448974 -0.436414 0.769676 120 69 53
0.450799 -0.436594 0.769385 122 71 55
0.452624 -0.436773 0.769093 127 71 55
0.454449 -0.436953 0.768802 124 68 52
0.456274 -0.437133 0.768510 125 68 49
0.458098 -0.437313 0.768219 123 66 47
0.459923 -0.437492 0.767928 120 62 46
0.461748 -0.437672 0.767636 117 59 43
0.463573 -0.437852 0.767345 112 59 44
0.465398 -0.438032 0.767053 116 63 48
0.467222 -0.438211 0.766762 121 81 68
0.469047 -0.438391 0.766470 133 93 80
0.470872 -0.438571 0.766179 136 111 102
0.472697 -0.438751 0.765888 142 117 108
0.436894 -0.436858 0.774647 113 89 91
0.438724 -0.437038 0.774354 116 81 78
0.440358 -0.436263 0.773508 112 77 74
0.442185 -0.436443 0.773216 119 70 60
0.444013 -0.436623 0.772924 118 69 59
0.445840 -0.436803 0.772633 124 66 50
0.447667 -0.436983 0.772341 123 65 49
0.449495 -0.437163 0.772049 122 65 44
0.451322 -0.437343 0.771757 122 65 44
0.453149 -0.437523 0.771465 117 62 43
0.454760 -0.436745 0.770623 114 59 40
0.456585 -0.436925 0.770331 112 61 43
0.458410 -0.437104 0.770040 112 61 43
0.462286 -0.438423 0.770006 122 77 64
0.464113 -0.438603 0.769714 126 92 84
0.465941 -0.438783 0.769423 139 105 97
0.467768 -0.438963 0.769131 138 119 113
0.431717 -0.436108 0.777349 114 88 88
0.433547 -0.436288 0.777057 99 73 73
0.435377 -0.436469 0.776765 105 67 60
0.437207 -0.436649 0.776473 108 70 63
0.439036 -0.436829 0.776180 118 66 55
0.440866 -0.437009 0.775888 119 67 56
0.442497 -0.436234 0.775040 125 68 49
0.444324 -0.436414 0.774748 122 65 46
0.446152 -0.436594 0.774456 120 63 42
0.447979 -0.436774 0.774164 119 62 41
0.449806 -0.436954 0.773872 117 62 43
0.451634 -0.437134 0.773581 114 59 40
0.453461 -0.437314 0.773289 109 63 45
0.455288 -0.437494 0.772997 118 72 54
0.457116 -0.437674 0.772705 120 84 72
0.458943 -0.437854 0.772413 131 95 83
0.460771 -0.438034 0.772122 133 111 103
0.462598 -0.438214 0.771830 138 116 108
0.426539 -0.435359 0.780052 107 95 95
0.428369 -0.435539 0.779760 106 78 77
0.430199 -0.435719 0.779468 106 78 77
0.432029 -0.435899 0.779175 114 68 60
0.433859 -0.436080 0.778883 107 61 53
0.435689 -0.436260 0.778591 114 61 46
0.437519 -0.436440 0.778299 118 65 50
0.439349 -0.436620 0.778006 118 62 46
0.441179 -0.436801 0.777714 118 62 46
0.443008 -0.436981 0.777422 117 62 43
0.444838 -0.437161 0.777130 114 59 40
0.446464 -0.436386 0.776280 110 59 41
0.448291 -0.436566 0.775988 112 61 43
0.450328 -0.437702 0.776253 109 72 56
0.451946 -0.436926 0.775404 119 82 66
0.453773 -0.437106 0.775112 130 101 89
0.455818 -0.438243 0.775376 136 107 95
0.421362 -0.434609 0.782755 119 98 97
0.423192 -0.434789 0.782463 111 90 89
0.425022 -0.434970 0.782170 118 83 80
0.426852 -0.435150 0.781878 107 72 69
0.428681 -0.435330 0.781586 111 64 51
0.430511 -0.435510 0.781294 116 69 56
0.432341 -0.435691 0.781001 122 65 46
0.434171 -0.435871 0.780709 119 62 43
0.436001 -0.436051 0.780417 115 60 39
0.437831 -0.436231 0.780125 114 59 38
0.439661 -0.436412 0.779832 114 61 44
0.441491 -0.436592 0.779540 116 63 46
0.443321 -0.436772 0.779248 114 73 56
0.445151 -0.436952 0.778956 125 84 67
0.446980 -0.437133 0.778664 119 90 78
0.448810 -0.437313 0.778371 127 98 86
0.450640 -0.437493 0.778079 129 113 106
0.452470 -0.437673 0.777787 134 118 111
0.418014 -0.434040 0.785165 122 94 95
0.419844 -0.434220 0.784873 109 81 82
0.421674 -0.434400 0.784581 115 72 67
0.423504 -0.434581 0.784289 112 69 64
0.425334 -0.434761 0.783996 120 69 55
0.427164 -0.434941 0.783704 118 67 53
0.428994 -0.435121 0.783412 120 63 42
0.430824 -0.435302 0.783120 119 62 41
0.432653 -0.435482 0.782827 118 61 40
0.434671 -0.436616 0.783101 117 60 39
0.436504 -0.436796 0.782808 112 64 45
0.438336 -0.436977 0.782516 117 69 50
0.439973 -0.436203 0.781659 120 85 70
0.441803 -0.436383 0.781366 137 102 87
0.443833 -0.437518 0.781638 132 111 98
0.445463 -0.436744 0.780782 135 114 101
0.412995 -0.434241 0.788441 114 102 102
0.414667 -0.433471 0.787576 120 87 88
0.416497 -0.433651 0.787284 112 79 80
0.418326 -0.433831 0.786991 115 69 65
0.420156 -0.434011 0.786699 115 69 65
0.421986 -0.434192 0.786407 121 65 51
0.423989 -0.435324 0.786685 117 61 47
0.425822 -0.435504 0.786393 122 65 46
0.427654 -0.435685 0.786100 120 63 44
0.429486 -0.435865 0.785808 117 62 43
0.431319 -0.436046 0.785515 112 57 38
0.433151 -0.436226 0.785222 115 69 51
0.434984 -0.436407 0.784930 123 77 59
0.436816 -0.436587 0.784637 126 95 82
0.438649 -0.436768 0.784344 135 104 91
0.440481 -0.436948 0.784052 134 118 111
0.409642 -0.433671 0.790855 111 96 97
0.411475 -0.433851 0.790563 117 84 85
0.413149 -0.433082 0.789694 112 79 80
0.414979 -0.433262 0.789402 122 69 63
0.416809 -0.433442 0.789110 120 67 61
0.418639 -0.433622 0.788817 121 65 51
0.420469 -0.433803 0.788525 120 64 50
0.422298 -0.433983 0.788233 122 64 48
0.424128 -0.434163 0.787941 118 60 44
0.426134 -0.435295 0.788221 115 59 43
0.427967 -0.435476 0.787929 113 57 41
0.429799 -0.435656 0.787636 112 71 54
0.431631 -0.435837 0.787344 126 85 68
0.433650 -0.436970 0.787622 132 106 93
0.435485 -0.437151 0.787329 145 119 106
0.404458 -0.432920 0.793562 111 91 92
0.406290 -0.433100 0.793269 105 85 86
0.408122 -0.433281 0.792976 114 79 76
0.409955 -0.433461 0.792684 111 76 73
0.411631 -0.432693 0.791812 120 68 59
0.413461 -0.432873 0.791520 119 67 58
0.415291 -0.433053 0.791228 124 64 49
0.417121 -0.433233 0.790936 121 61 46
0.418951 -0.433414 0.790643 121 62 44
0.420781 -0.433594 0.790351 120 61 43
0.422782 -0.434725 0.790635 113 60 45
0.424614 -0.434906 0.790343 115 62 47
0.426447 -0.435086 0.790050 118 78 63
0.428279 -0.435267 0.789757 135 95 80
0.430293 -0.436399 0.790039 136 111 102
0.432128 -0.436580 0.789746 143 118 109
0.401105 -0.432350 0.795976 114 88 88
0.402938 -0.432530 0.795683 107 81 81
0.404770 -0.432711 0.795390 108 71 66
0.406603 -0.432891 0.795098 106 69 64
0.408435 -0.433072 0.794805 114 62 51
0.410267 -0.433252 0.794512 115 63 52
0.412100 -0.433433 0.794220 119 59 44
0.413773 -0.432664 0.793346 120 60 45
0.415603 -0.432844 0.793054 119 62 43
0.417433 -0.433024 0.792762 115 58 39
0.419263 -0.433205 0.792470 110 59 43
0.421262 -0.434336 0.792757 118 67 51
0.423095 -0.434516 0.792464 122 87 72
0.424927 -0.434696 0.792171 137 102 87
0.426759 -0.434877 0.791879 135 117 108
0.397753 -0.431780 0.798389 111 83 82
0.399585 -0.431960 0.798097 107 79 78
0.401418 -0.432141 0.797804 109 68 60
0.403250 -0.432321 0.797511 106 65 57
0.405083 -0.432502 0.797219 115 64 50
0.406915 -0.432682 0.796926 115 64 50
0.408748 -0.432863 0.796634 117 61 45
0.410580 -0.433043 0.796341 116 60 44
0.412413 -0.433224 0.796048 118 61 42
0.414245 -0.433404 0.795756 114 57 38
0.416077 -0.433585 0.795463 113 65 48
0.417910 -0.433765 0.795170 127 79 62
0.419742 -0.433946 0.794878 127 96 83
0.421575 -0.434126 0.794585 138 107 94
0.423407 -0.434307 0.794293 139 125 117
0.392568 -0.431029 0.801096 109 87 89
0.394401 -0.431210 0.800803 114 78 78
0.396233 -0.431390 0.800511 108 72 72
0.398066 -0.431571 0.800218 110 64 56
0.399898 -0.431751 0.799925 108 62 54
0.401731 -0.431932 0.799633 114 61 44
0.403563 -0.432112 0.799340 114 61 44
0.405395 -0.432293 0.799047 116 61 42
0.407228 -0.432473 0.798755 115 60 41
0.409060 -0.432654 0.798462 111 60 42
0.410893 -0.432834 0.798170 112 61 43
0.412725 -0.433015 0.797877 119 75 59
0.414558 -0.433195 0.797584 135 91 75
0.416390 -0.433376 0.797292 137 108 98
0.418222 -0.433556 0.796999 140 111 101
0.389216 -0.430459 0.803510 112 86 86
0.391049 -0.430640 0.803217 110 72 65
0.392881 -0.430820 0.802925 109 71 64
0.394713 -0.431001 0.802632 119 67 56
0.396546 -0.431181 0.802339 118 66 55
0.398378 -0.431362 0.802047 118 63 44
0.400211 -0.431542 0.801754 116 61 42
0.402043 -0.431723 0.801461 113 61 41
0.404021 -0.432850 0.801760 111 59 39
0.405856 -0.433031 0.801467 107 61 43
0.407540 -0.432264 0.800583 116 70 52
0.409526 -0.433393 0.800880 127 94 79
0.411361 -0.433573 0.800587 139 106 91
0.413195 -0.433754 0.800294 135 113 105
0.385864 -0.429889 0.805924 106 83 82
0.387696 -0.430070 0.805631 114 71 66
0.389529 -0.430250 0.805338 111 68 63
0.391361 -0.430431 0.805046 118 65 52
0.393194 -0.430611 0.804753 118 65 52
0.395026 -0.430792 0.804461 122 65 46
0.396858 -0.430972 0.804168 119 62 43
0.398691 -0.431153 0.803875 113 61 41
0.400523 -0.431333 0.803583 111 59 39
0.402499 -0.432460 0.803884 107 66 47
0.404334 -0.432641 0.803591 119 78 59
0.406169 -0.432822 0.803298 126 97 83
0.408004 -0.433002 0.803005 143 114 100
0.380679 -0.429139 0.808630 107 84 81
0.382396 -0.428376 0.807737 98 75 72
0.384226 -0.428556 0.807444 110 69 61
0.386176 -0.429680 0.807752 110 69 61
0.388009 -0.429861 0.807460 121 65 49
0.389841 -0.430041 0.807167 118 62 46
0.391674 -0.430222 0.806874 118 61 42
0.393506 -0.430402 0.806582 118 61 42
0.395339 -0.430583 0.806289 111 59 39
0.397171 -0.430763 0.805996 110 58 38
0.399004 -0.430944 0.805704 111 72 52
0.400836 -0.431124 0.805411 130 91 71
0.402812 -0.432251 0.805715 133 109 95
0.404647 -0.432432 0.805422 140 116 102
0.377219 -0.427626 0.810439 104 83 82
0.379049 -0.427806 0.810147 99 78 77
0.380879 -0.427987 0.809855 110 69 61
0.382708 -0.428167 0.809563 107 66 58
0.384538 -0.428347 0.809271 118 62 46
0.386368 -0.428527 0.808978 117 61 45
0.388198 -0.428708 0.808686 118 61 42
0.390154 -0.429832 0.808996 115 58 39
0.391986 -0.430013 0.808703 108 56 36
0.393819 -0.430193 0.808410 116 64 44
0.395651 -0.430374 0.808118 123 86 70
0.397484 -0.430554 0.807825 136 99 83
0.399316 -0.430735 0.807532 134 113 100
0.373768 -0.426115 0.812242 106 80 76
0.375595 -0.426295 0.811950 101 75 71
0.377531 -0.427417 0.812266 106 65 57
0.379361 -0.427597 0.811973 105 64 56
0.381191 -0.427778 0.811681 115 64 48
0.383021 -0.427958 0.811389 113 62 46
0.384850 -0.428138 0.811097 116 59 40
0.386680 -0.428319 0.810804 115 58 39
0.388510 -0.428499 0.810512 110 59 41
0.390467 -0.429623 0.810824 120 69 51
0.392299 -0.429803 0.810532 126 92 80
0.394131 -0.429984 0.810239 140 106 94
0.395964 -0.430165 0.809946 136 121 111
0.370425 -0.425547 0.814649 108 85 80
0.372252 -0.425727 0.814357 104 81 76
0.374079 -0.425907 0.814065 107 64 55
0.375907 -0.426087 0.813774 108 65 56
0.377734 -0.426267 0.813482 112 61 45
0.379673 -0.427389 0.813799 111 60 44
0.381503 -0.427569 0.813507 113 61 41
0.383333 -0.427749 0.813215 110 58 38
0.385163 -0.427930 0.812923 110 62 43
0.386993 -0.428110 0.812630 119 71 52
0.388947 -0.429233 0.812945 125 94 81
0.390779 -0.429414 0.812653 144 113 100
0.392612 -0.429594 0.812360 130 116 110
0.365254 -0.424798 0.817348 105 90 91
0.367082 -0.424978 0.817056 108 82 80
0.368812 -0.424218 0.816150 103 77 75
0.370637 -0.424398 0.815859 112 69 60
0.372564 -0.425518 0.816181 110 67 58
0.374391 -0.425698 0.815889 113 60 45
0.376218 -0.425878 0.815597 112 59 44
0.378046 -0.426058 0.815305 111 58 41
0.379985 -0.427180 0.815625 108 55 38
0.381815 -0.427360 0.815333 108 62 44
0.383645 -0.427540 0.815041 124 78 60
0.385475 -0.427721 0.814749 132 102 86
0.387427 -0.428844 0.815067 145 115 99
0.389259 -0.429024 0.814774 136 122 116
0.360084 -0.424050 0.820047 103 86 88
0.361911 -0.424230 0.819755 103 86 88
0.363739 -0.424410 0.819463 108 77 75
0.365566 -0.424590 0.819172 104 73 71
0.367299 -0.423830 0.818263 115 69 61
0.369124 -0.424010 0.817971 112 66 58
0.370948 -0.424189 0.817680 116 60 44
0.372876 -0.425310 0.818004 115 59 43
0.374703 -0.425490 0.817713 111 59 39
0.376530 -0.425670 0.817421 110 58 38
0.378358 -0.425850 0.817129 110 64 48
0.380297 -0.426971 0.817451 123 77 61
0.382127 -0.427151 0.817159 132 101 88
0.384075 -0.428274 0.817481 145 114 101
0.356741 -0.423481 0.822454 103 83 86
0.358569 -0.423661 0.822163 103 83 86
0.360396 -0.423841 0.821871 110 78 74
0.362223 -0.424021 0.821579 107 75 71
0.364051 -0.424201 0.821287 116 69 56
0.365878 -0.424381 0.820995 112 65 52
0.367705 -0.424561 0.820703 120 62 46
0.369533 -0.424741 0.820412 118 60 44
0.371360 -0.424921 0.820120 115 60 41
0.373187 -0.425101 0.819828 112 57 38
0.375015 -0.425281 0.819536 110 66 50
0.376950 -0.426402 0.819862 123 79 63
0.378780 -0.426582 0.819570 133 104 92
0.380610 -0.426762 0.819278 146 117 105
0.353473 -0.423850 0.825487 110 86 88
0.355303 -0.424030 0.825195 104 80 82
0.357053 -0.423273 0.824278 109 72 67
0.358880 -0.423453 0.823986 108 71 66
0.360708 -0.423633 0.823694 115 66 54
0.362535 -0.423813 0.823402 113 64 52
0.364362 -0.423993 0.823111 117 61 45
0.366190 -0.424173 0.822819 116 60 44
0.368017 -0.424353 0.822527 113 58 39
0.369844 -0.424533 0.822235 110 55 36
0.371672 -0.424713 0.821943 110 64 44
0.373602 -0.425833 0.822273 124 78 58
0.375432 -0.426013 0.821980 129 103 90
0.377262 -0.426193 0.821688 143 117 104
0.348364 -0.424036 0.828819 95 80 81
0.350126 -0.423281 0.827898 99 73 71
0.351956 -0.423461 0.827605 105 79 77
0.353786 -0.423641 0.827313 113 72 66
0.355537 -0.422884 0.826393 110 69 63
0.357365 -0.423064 0.826101 115 64 50
0.359192 -0.423244 0.825810 112 61 47
0.361019 -0.423424 0.825518 116 61 42
0.362847 -0.423604 0.825226 114 59 40
0.364674 -0.423784 0.824934 112 60 40
0.366501 -0.423964 0.824642 110 58 38
0.368329 -0.424144 0.824350 112 68 52
0.370255 -0.425263 0.824683 128 84 68
0.372084 -0.425444 0.824391 133 104 90
0.343179 -0.423286 0.831526 114 94 95
0.345011 -0.423466 0.831233 108 88 89
0.346844 -0.423647 0.830940 109 78 76
0.348608 -0.422891 0.830016 106 75 73
0.350438 -0.423072 0.829724 111 69 57
0.352268 -0.423252 0.829431 111 69 57
0.354098 -0.423432 0.829139 118 65 48
0.355849 -0.422676 0.828217 116 63 46
0.357676 -0.422856 0.827925 118 61 40
0.359504 -0.423036 0.827633 118 61 40
0.361331 -0.423216 0.827341 109 59 38
0.363158 -0.423396 0.827049 111 61 40
0.365077 -0.424514 0.827386 111 69 55
0.366907 -0.424694 0.827094 122 80 66
0.368737 -0.424874 0.826801 136 112 100
0.339827 -0.422716 0.833939 114 91 90
0.341659 -0.422896 0.833647 112 89 88
0.343492 -0.423077 0.833354 116 79 74
0.345324 -0.423257 0.833062 113 76 71
0.347157 -0.423438 0.832769 117 69 54
0.348920 -0.422683 0.831842 116 68 53
0.350750 -0.422863 0.831550 120 65 46
0.352580 -0.423043 0.831257 120 65 46
0.354410 -0.423223 0.830965 119 62 41
0.356240 -0.423404 0.830673 116 59 38
0.358070 -0.423584 0.830381 113 63 42
0.359900 -0.423764 0.830088 115 65 44
0.361729 -0.423945 0.829796 117 80 66
0.363559 -0.424125 0.829504 131 94 80
0.365389 -0.424305 0.829212 129 109 99
0.336526 -0.423079 0.836993 115 89 87
0.338361 -0.423260 0.836700 110 84 82
0.340196 -0.423441 0.836407 113 72 66
0.342031 -0.423621 0.836114 111 70 64
0.343866 -0.423802 0.835821 118 67 53
0.345701 -0.423983 0.835528 117 66 52
0.347469 -0.423229 0.834598 120 63 42
0.349302 -0.423409 0.834305 120 63 42
0.351134 -0.423590 0.834012 116 61 40
0.352892 -0.422834 0.833084 114 59 38
0.354722 -0.423015 0.832791 105 58 36
0.356552 -0.423195 0.832499 109 62 40
0.358382 -0.423375 0.832207 117 82 65
0.360212 -0.423555 0.831915 136 101 84
0.362129 -0.424673 0.832256 134 114 106
0.331334 -0.422328 0.839703 112 100 98
0.333169 -0.422508 0.839410 117 86 84
0.335004 -0.422689 0.839117 111 80 78
0.336839 -0.422870 0.838824 116 70 62
0.338674 -0.423051 0.838531 113 67 59
0.340509 -0.423231 0.838238 118 65 50
0.342344 -0.423412 0.837945 118 65 50
0.344179 -0.423593 0.837652 118 61 42
0.346014 -0.423774 0.837359 118 61 42
0.347849 -0.423954 0.837066 113 58 37
0.349684 -0.424135 0.836773 114 59 38
0.351519 -0.424316 0.836480 110 65 42
0.353279 -0.423561 0.835548 118 73 50
0.355112 -0.423742 0.835256 128 95 80
0.356944 -0.423922 0.834963 141 108 93
0.327977 -0.421757 0.842121 108 93 92
0.329812 -0.421937 0.841828 113 83 78
0.331647 -0.422118 0.841534 109 79 74
0.333482 -0.422299 0.841241 116 69 58
0.335317 -0.422480 0.840948 114 67 56
0.337152 -0.422660 0.840655 118 62 46
0.338987 -0.422841 0.840362 117 61 45
0.340879 -0.423955 0.840713 116 61 42
0.342717 -0.424136 0.840420 114 59 40
0.344554 -0.424317 0.840126 108 56 36
0.346392 -0.424498 0.839833 110 58 38
0.348162 -0.423745 0.838897 114 70 52
0.349997 -0.423926 0.838604 124 80 62
0.351832 -0.424107 0.838311 134 105 91
0.353667 -0.424287 0.838018 146 117 103
0.324655 -0.422117 0.845188 108 92 89
0.326493 -0.422298 0.844895 112 77 72
0.328290 -0.421547 0.843952 109 74 69
0.330125 -0.421728 0.843659 113 64 52
0.331960 -0.421909 0.843366 113 64 52
0.333843 -0.423022 0.843721 120 63 44
0.335680 -0.423203 0.843427 118 61 42
0.337518 -0.423384 0.843134 116 61 40
0.339411 -0.424497 0.843487 116 61 40
0.341251 -0.424679 0.843194 111 64 42
0.343091 -0.424860 0.842900 115 68 46
0.344994 -0.425975 0.843252 121 84 68
0.346836 -0.426156 0.842957 139 102 86
0.348543 -0.424470 0.841373 140 119 106
0.321294 -0.421545 0.847609 109 88 87
0.323131 -0.421726 0.847315 116 79 74
0.324933 -0.420976 0.846369 113 76 71
0.326768 -0.421157 0.846076 118 67 53
0.328603 -0.421338 0.845783 115 64 50
0.330438 -0.421519 0.845490 119 62 43
0.332319 -0.422631 0.845848 119 62 43
0.334156 -0.422812 0.845554 117 60 41
0.336044 -0.423925 0.845911 114 57 38
0.337938 -0.425039 0.846267 112 64 45
0.339780 -0.425220 0.845973 122 74 55
0.341623 -0.425402 0.845679 125 95 79
0.343465 -0.425583 0.845385 138 108 92
0.345371 -0.426698 0.845739 138 120 111
0.316071 -0.419863 0.849665 113 92 91
0.317906 -0.420044 0.849372 104 83 82
0.319741 -0.420225 0.849079 114 77 72
0.321576 -0.420406 0.848786 110 73 68
0.323411 -0.420586 0.848493 117 65 54
0.325246 -0.420767 0.848200 115 63 52
0.327081 -0.420948 0.847907 121 62 42
0.328916 -0.421129 0.847614 119 60 40
0.330795 -0.422240 0.847975 116 57 37
0.332678 -0.423353 0.848335 116 57 37
0.334567 -0.424465 0.848695 109 63 45
0.336409 -0.424647 0.848400 123 77 59
0.338252 -0.424828 0.848106 128 97 86
0.340151 -0.425942 0.848464 139 108 97
0.312714 -0.419292 0.852083 109 88 87
0.314549 -0.419473 0.851789 106 85 84
0.316384 -0.419654 0.851496 113 76 71
0.318219 -0.419835 0.851203 107 70 65
0.320054 -0.420016 0.850910 113 65 50
0.321889 -0.420196 0.850617 112 64 49
0.323724 -0.420377 0.850324 122 65 46
0.325559 -0.420558 0.850031 118 61 42
0.327433 -0.421669 0.850396 118 59 41
0.329312 -0.422780 0.850759 116 57 39
0.331152 -0.422961 0.850465 112 64 47
0.333038 -0.424074 0.850828 127 79 62
0.334930 -0.425186 0.851189 131 102 90
0.336775 -0.425368 0.850895 141 112 100
0.309358 -0.418722 0.854500 114 88 86
0.311193 -0.418902 0.854207 109 83 81
0.313028 -0.419083 0.853914 109 71 64
0.314862 -0.419264 0.853621 104 66 59
0.316697 -0.419445 0.853328 115 64 50
0.318532 -0.419625 0.853035 114 63 49
0.320367 -0.419806 0.852742 116 61 42
0.322202 -0.419987 0.852448 113 58 39
0.324037 -0.420168 0.852155 116 59 40
0.325909 -0.421278 0.852523 114 57 38
0.327786 -0.422389 0.852889 114 68 52
0.329626 -0.422570 0.852595 131 85 69
0.331510 -0.423682 0.852961 137 108 98
0.333400 -0.424794 0.853325 147 118 108
0.304172 -0.418896 0.857878 111 96 95
0.306001 -0.418151 0.856917 117 89 88
0.307836 -0.418332 0.856624 107 79 78
0.309671 -0.418512 0.856331 108 70 63
0.311506 -0.418693 0.856038 103 65 58
0.313341 -0.418874 0.855745 114 63 47
0.315176 -0.419055 0.855452 113 62 46
0.317011 -0.419235 0.855159 116 61 40
0.318846 -0.419416 0.854866 116 61 40
0.320680 -0.419597 0.854573 112 60 38
0.322515 -0.419778 0.854280 110 58 36
0.324350 -0.419958 0.853987 117 73 57
0.326260 -0.421998 0.855019 133 89 73
0.328100 -0.422179 0.854726 137 108 98
0.300811 -0.418325 0.860298 108 88 89
0.302648 -0.418506 0.860005 115 84 82
0.304486 -0.418687 0.859712 104 73 71
0.306314 -0.417941 0.858748 100 54 48
0.308149 -0.418122 0.858455 101 55 49
0.309984 -0.418303 0.858162 111 60 46
0.311819 -0.418484 0.857869 111 60 46
0.313654 -0.418664 0.857576 113 60 43
0.315489 -0.418845 0.857283 112 59 42
0.317324 -0.419026 0.856990 107 56 38
0.319159 -0.419207 0.856697 110 59 41
0.320994 -0.419387 0.856404 112 75 59
0.322829 -0.419568 0.856111 132 95 79
0.324698 -0.420678 0.856484 132 110 100
0.295612 -0.417572 0.863012 115 94 93
0.297449 -0.417753 0.862719 106 85 84
0.299287 -0.417009 0.861751 116 79 76
0.301122 -0.417190 0.861458 106 69 66
0.302957 -0.417371 0.861165 112 64 56
0.304799 -0.418477 0.861545 109 61 53
0.306627 -0.417732 0.860579 110 57 42
0.308462 -0.417913 0.860286 113 60 45
0.310297 -0.418094 0.859993 112 59 42
0.312132 -0.418274 0.859700 106 53 36
0.313967 -0.418455 0.859407 101 55 37
0.315802 -0.418636 0.859114 110 64 46
0.317637 -0.418817 0.858821 115 80 65
0.319472 -0.418997 0.858528 135 100 85
0.321337 -0.420106 0.858904 136 118 109
0.292250 -0.417000 0.865433 114 91 88
0.294095 -0.416257 0.864462 110 87 84
0.295930 -0.416438 0.864169 114 73 67
0.297765 -0.416619 0.863876 109 68 62
0.299600 -0.416800 0.863583 113 61 50
0.301435 -0.416980 0.863290 112 60 49
0.303270 -0.417161 0.862997 116 60 44
0.305113 -0.418267 0.863379 116 60 44
0.306950 -0.418448 0.863085 108 55 38
0.308788 -0.418629 0.862792 110 57 40
0.310625 -0.418810 0.862499 104 60 44
0.312463 -0.418991 0.862205 117 73 57
0.314300 -0.419172 0.861912 123 97 84
0.316138 -0.419353 0.861618 136 110 97
0.287068 -0.415325 0.867465 108 93 92
0.288903 -0.415506 0.867172 115 89 85
0.290738 -0.415686 0.866879 108 82 78
0.292573 -0.415867 0.866586 112 69 62
0.294408 -0.416048 0.866293 106 63 56
0.296243 -0.416229 0.866000 114 61 48
0.298078 -0.416410 0.865707 113 60 47
0.299913 -0.416590 0.865414 115 59 43
0.301748 -0.416771 0.865121 114 58 42
0.303583 -0.416952 0.864828 110 55 36
0.305426 -0.418058 0.865213 106 51 32
0.307264 -0.418239 0.864919 103 62 45
0.309115 -0.419345 0.865303 119 78 61
0.310955 -0.419527 0.865009 124 98 85
0.312795 -0.419708 0.864715 137 111 98
0.283711 -0.414754 0.869882 107 92 91
0.285546 -0.414935 0.869589 111 84 78
0.287381 -0.415116 0.869296 109 82 76
0.289216 -0.415296 0.869003 115 73 61
0.291051 -0.415477 0.868710 110 68 56
0.292895 -0.414735 0.867734 116 60 46
0.294728 -0.414915 0.867441 115 59 45
0.296556 -0.416019 0.867831 116 58 42
0.298391 -0.416200 0.867538 116 58 42
0.300226 -0.416381 0.867245 108 55 38
0.302061 -0.416562 0.866952 110 57 40
0.303896 -0.416743 0.866659 110 69 52
0.305740 -0.417848 0.867046 129 88 71
0.307588 -0.418954 0.867433 131 107 93
0.280354 -0.414183 0.872299 105 88 88
0.282189 -0.414364 0.872006 116 86 81
0.284024 -0.414545 0.871713 112 82 77
0.285859 -0.414726 0.871420 114 72 58
0.287694 -0.414906 0.871127 111 69 55
0.289529 -0.415087 0.870834 118 63 44
0.291375 -0.414345 0.869855 115 60 41
0.293208 -0.414526 0.869562 117 60 39
0.295040 -0.414706 0.869270 116 59 38
0.296873 -0.414887 0.868977 109 58 40
0.298704 -0.415991 0.869369 107 56 38
0.300539 -0.416172 0.869076 114 77 61
0.302374 -0.416352 0.868783 131 94 78
0.304216 -0.417457 0.869173 132 111 98
0.275129 -0.414352 0.875702 109 90 88
0.276997 -0.413612 0.874717 109 90 88
0.278832 -0.413793 0.874424 117 85 79
0.280667 -0.413974 0.874131 107 75 69
0.282502 -0.414155 0.873838 110 64 48
0.284337 -0.414335 0.873545 112 66 50
0.286172 -0.414516 0.873252 116 61 40
0.288007 -0.414697 0.872958 116 61 40
0.289842 -0.414878 0.872665 117 61 37
0.291688 -0.414136 0.871684 115 59 35
0.293520 -0.414317 0.871391 103 55 36
0.295353 -0.414497 0.871098 113 65 46
0.297182 -0.415601 0.871493 119 85 73
0.299017 -0.415781 0.871200 139 105 93
0.271690 -0.415619 0.879514 111 90 89
0.273605 -0.413961 0.877829 109 88 87
0.275442 -0.414142 0.877536 112 77 72
0.277310 -0.413403 0.876548 108 73 68
0.279145 -0.413584 0.876255 115 68 55
0.280980 -0.413765 0.875962 114 67 54
0.282815 -0.413945 0.875669 116 61 42
0.284650 -0.414126 0.875376 115 60 41
0.286485 -0.414307 0.875083 112 57 38
0.288320 -0.414488 0.874790 109 54 35
0.290168 -0.413747 0.873805 107 59 40
0.292001 -0.413927 0.873512 122 74 55
0.293833 -0.414108 0.873219 127 96 85
0.295660 -0.415211 0.873617 134 103 92
0.270162 -0.415227 0.881648 105 89 86
0.272043 -0.414489 0.880655 110 73 68
0.273918 -0.413751 0.879663 103 66 61
0.275756 -0.413932 0.879370 115 66 54
0.277623 -0.413194 0.878379 113 64 52
0.279458 -0.413374 0.878086 114 59 40
0.281293 -0.413555 0.877793 112 57 38
0.283128 -0.413736 0.877500 108 56 36
0.284963 -0.413917 0.877207 107 55 35
0.286798 -0.414097 0.876914 108 64 46
0.288633 -0.414278 0.876621 121 77 59
0.290481 -0.413538 0.875633 129 100 88
0.292303 -0.414640 0.876035 141 112 100
0.268634 -0.414835 0.883780 100 73 67
0.270516 -0.414098 0.882785 97 70 64
0.272394 -0.413361 0.881790 115 64 50
0.274266 -0.412623 0.880796 114 63 49
0.276101 -0.412804 0.880503 114 58 42
0.277936 -0.412984 0.880210 114 58 42
0.279771 -0.413165 0.879917 107 55 35
0.281606 -0.413346 0.879624 107 55 35
0.283441 -0.413527 0.879331 110 69 50
0.285276 -0.413707 0.879038 126 85 66
0.287111 -0.413888 0.878745 133 104 92
0.288946 -0.414069 0.878452 143 114 102
0.267105 -0.414443 0.885914 92 81 74
0.268948 -0.414625 0.885619 90 59 48
0.270830 -0.413888 0.884621 97 66 55
0.272670 -0.414070 0.884327 112 59 42
0.274545 -0.413332 0.883330 108 55 38
0.276383 -0.413513 0.883037 105 53 33
0.278220 -0.413694 0.882743 114 62 42
0.280058 -0.413875 0.882450 117 78 60
0.281919 -0.413137 0.881455 138 99 81
0.283754 -0.413317 0.881162 136 112 100
0.269262 -0.414415 0.887458 99 73 60
0.271144 -0.413678 0.886457 86 60 47
0.272948 -0.414778 0.886870 101 57 41
0.274858 -0.413123 0.885164 107 63 47
0.276664 -0.414222 0.885576 121 81 66
0.278505 -0.414403 0.885282 139 99 84
0.280345 -0.414585 0.884988 132 112 102
0.271419 -0.414386 0.889003 88 70 59
0.273262 -0.414568 0.888708 122 96 83
0.275105 -0.414749 0.888414 139 113 100
0.276947 -0.414931 0.888120 143 123 113
