ply
format ascii 1.0
element vertex 1970
property float x
property float y
property float z
property uchar red
property uchar green
property uchar blue
end_header
-0.056086 -0.116086 0.564000 115 158 81
-0.054624 -0.116086 0.564000 119 162 85
-0.053068 -0.115880 0.563000 119 165 87
-0.051518 -0.115674 0.562000 114 160 82
-0.049972 -0.115468 0.561000 111 159 80
-0.048345 -0.115056 0.559000 105 153 74
-0.057649 -0.114825 0.565000 124 178 77
-0.056086 -0.114622 0.564000 121 178 76
-0.054624 -0.114622 0.564000 125 182 80
-0.053068 -0.114419 0.563000 127 184 82
-0.051518 -0.114216 0.562000 125 182 80
-0.049883 -0.113809 0.560000 121 180 75
-0.048345 -0.113606 0.559000 129 188 83
-0.046729 -0.113199 0.557000 128 190 86
-0.045204 -0.112996 0.556000 128 190 86
-0.043684 -0.112793 0.555000 126 186 90
-0.042094 -0.112386 0.553000 122 182 86
-0.057649 -0.113359 0.565000 131 188 82
-0.056086 -0.113158 0.564000 136 193 87
-0.054624 -0.113158 0.564000 133 190 84
-0.053068 -0.112958 0.563000 132 192 82
-0.051518 -0.112757 0.562000 132 192 82
-0.049883 -0.112356 0.560000 129 193 77
-0.048345 -0.112155 0.559000 131 195 79
-0.046729 -0.111754 0.557000 130 194 76
-0.045204 -0.111553 0.556000 130 194 76
-0.043684 -0.111353 0.555000 133 199 82
-0.042094 -0.110951 0.553000 130 196 79
-0.040513 -0.110550 0.551000 130 195 83
-0.038944 -0.110149 0.549000 132 197 85
-0.037453 -0.109948 0.548000 134 195 96
-0.036032 -0.109948 0.548000 133 194 95
-0.034549 -0.109748 0.547000 127 180 100
-0.033131 -0.109748 0.547000 108 161 81
-0.057649 -0.111893 0.565000 149 208 103
-0.056086 -0.111695 0.564000 150 209 106
-0.054624 -0.111695 0.564000 151 210 107
-0.053068 -0.111497 0.563000 153 210 106
-0.051518 -0.111299 0.562000 153 210 106
-0.049883 -0.110903 0.560000 149 209 99
-0.048345 -0.110705 0.559000 145 205 95
-0.046729 -0.110309 0.557000 142 206 90
-0.045204 -0.110111 0.556000 140 204 88
-0.043763 -0.110111 0.556000 135 201 84
-0.042246 -0.109912 0.555000 134 200 83
-0.040513 -0.109120 0.551000 137 203 86
-0.038944 -0.108724 0.549000 136 202 85
-0.037453 -0.108526 0.548000 133 201 86
-0.036032 -0.108526 0.548000 139 207 92
-0.034549 -0.108328 0.547000 136 204 101
-0.033131 -0.108328 0.547000 137 205 102
-0.031714 -0.108328 0.547000 136 197 107
-0.030296 -0.108328 0.547000 132 193 103
-0.028826 -0.108130 0.546000 120 174 98
-0.057649 -0.110427 0.565000 88 136 57
-0.056086 -0.110231 0.564000 84 131 57
-0.054624 -0.110231 0.564000 87 134 60
-0.053068 -0.110036 0.563000 81 127 51
-0.051518 -0.109840 0.562000 88 134 58
-0.049883 -0.109449 0.560000 97 145 64
-0.048345 -0.109254 0.559000 108 156 75
-0.046729 -0.108863 0.557000 118 170 81
-0.045204 -0.108668 0.556000 134 186 97
-0.043763 -0.108668 0.556000 144 202 102
-0.042246 -0.108472 0.555000 149 207 107
-0.040661 -0.108081 0.553000 149 211 103
-0.039015 -0.107495 0.550000 149 211 103
-0.037521 -0.107300 0.549000 142 207 95
-0.036032 -0.107104 0.548000 143 208 96
-0.034549 -0.106909 0.547000 135 202 94
-0.033131 -0.106909 0.547000 137 204 96
-0.031714 -0.106909 0.547000 139 206 96
-0.030296 -0.106909 0.547000 141 208 98
-0.028879 -0.106909 0.547000 142 208 105
-0.027411 -0.106713 0.546000 139 205 102
-0.025996 -0.106713 0.546000 135 193 109
-0.024581 -0.106713 0.546000 116 174 90
-0.057649 -0.108961 0.565000 38 69 27
-0.056086 -0.108768 0.564000 37 67 30
-0.054624 -0.108768 0.564000 36 66 29
-0.053068 -0.108575 0.563000 32 62 25
-0.051518 -0.108382 0.562000 37 67 30
-0.049883 -0.107996 0.560000 41 71 32
-0.048345 -0.107803 0.559000 39 69 30
-0.046729 -0.107418 0.557000 35 69 20
-0.045204 -0.107225 0.556000 42 76 27
-0.043763 -0.107225 0.556000 54 95 30
-0.042246 -0.107032 0.555000 66 107 42
-0.040808 -0.107032 0.555000 85 133 56
-0.039156 -0.106453 0.552000 119 167 90
-0.037589 -0.106068 0.550000 139 194 102
-0.036098 -0.105875 0.549000 152 207 115
-0.034612 -0.105682 0.548000 151 212 111
-0.033131 -0.105489 0.547000 147 208 107
-0.031714 -0.105489 0.547000 142 206 97
-0.030296 -0.105489 0.547000 142 206 97
-0.028879 -0.105489 0.547000 140 205 91
-0.027411 -0.105296 0.546000 140 205 91
-0.026043 -0.105489 0.547000 146 210 103
-0.024581 -0.105296 0.546000 147 211 104
-0.023166 -0.105296 0.546000 143 205 112
-0.021711 -0.105104 0.545000 133 195 102
-0.020299 -0.105104 0.545000 112 163 93
-0.018851 -0.104911 0.544000 66 117 47
-0.042322 -0.105782 0.556000 48 72 40
-0.040808 -0.105592 0.555000 45 75 38
-0.039369 -0.105592 0.555000 46 76 39
-0.037794 -0.105211 0.553000 48 83 29
-0.036164 -0.104641 0.550000 76 111 57
-0.034675 -0.104450 0.549000 100 145 72
-0.033192 -0.104260 0.548000 136 181 108
-0.031772 -0.104260 0.548000 151 206 112
-0.030296 -0.104070 0.547000 153 208 114
-0.028879 -0.104070 0.547000 148 212 105
-0.027461 -0.104070 0.547000 142 206 99
-0.026043 -0.104070 0.547000 140 207 97
-0.024626 -0.104070 0.547000 142 209 99
-0.023166 -0.103880 0.546000 142 209 103
-0.021751 -0.103880 0.546000 146 213 107
-0.020299 -0.103689 0.545000 150 212 117
-0.018851 -0.103499 0.544000 141 203 108
-0.017442 -0.103499 0.544000 124 178 104
-0.016002 -0.103309 0.543000 83 137 63
-0.014568 -0.103118 0.542000 57 93 48
-0.077282 -0.113347 0.604000 129 176 75
-0.075466 -0.112972 0.602000 126 179 71
-0.073783 -0.112784 0.601000 121 174 66
-0.033253 -0.103026 0.549000 52 75 39
-0.031772 -0.102838 0.548000 67 101 40
-0.030296 -0.102650 0.547000 113 147 86
-0.028879 -0.102650 0.547000 129 179 98
-0.027461 -0.102650 0.547000 155 205 124
-0.026043 -0.102650 0.547000 151 212 111
-0.024626 -0.102650 0.547000 148 209 108
-0.023208 -0.102650 0.547000 142 209 103
-0.021751 -0.102463 0.546000 142 209 103
-0.020299 -0.102275 0.545000 144 211 103
-0.018886 -0.102275 0.545000 147 214 106
-0.017442 -0.102087 0.544000 145 213 112
-0.015973 -0.101712 0.542000 144 212 111
-0.014568 -0.101712 0.542000 133 191 111
-0.013164 -0.101712 0.542000 101 159 79
-0.079500 -0.112705 0.609000 135 185 83
-0.077666 -0.112335 0.607000 138 188 86
-0.074029 -0.111594 0.603000 69 119 26
-0.030352 -0.101416 0.548000 54 71 43
-0.028879 -0.101231 0.547000 55 80 32
-0.027461 -0.101231 0.547000 79 104 56
-0.026043 -0.101231 0.547000 116 162 84
-0.024626 -0.101231 0.547000 149 195 117
-0.023208 -0.101231 0.547000 156 217 118
-0.021751 -0.101046 0.546000 152 213 114
-0.020336 -0.101046 0.546000 144 211 105
-0.018886 -0.100861 0.545000 142 209 103
-0.017442 -0.100676 0.544000 138 209 100
-0.015973 -0.100305 0.542000 138 209 100
-0.014568 -0.100305 0.542000 145 213 112
-0.013164 -0.100305 0.542000 139 207 106
-0.011759 -0.100305 0.542000 132 192 111
-0.083199 -0.111854 0.613000 112 148 85
-0.081478 -0.111672 0.612000 153 189 126
-0.079761 -0.111489 0.611000 133 187 84
-0.078050 -0.111307 0.610000 147 201 98
-0.076469 -0.111307 0.610000 106 154 77
-0.026043 -0.099811 0.547000 46 72 30
-0.024626 -0.099811 0.547000 66 92 50
-0.023208 -0.099811 0.547000 90 132 60
-0.021751 -0.099629 0.546000 132 174 102
-0.020336 -0.099629 0.546000 148 208 112
-0.018886 -0.099446 0.545000 152 212 116
-0.017442 -0.099264 0.544000 147 214 106
-0.016032 -0.099264 0.544000 140 207 99
-0.014568 -0.098899 0.542000 138 208 95
-0.013164 -0.098899 0.542000 138 208 95
-0.011759 -0.098899 0.542000 140 208 105
-0.010354 -0.098899 0.542000 137 205 102
-0.008950 -0.098899 0.542000 135 195 112
-0.083607 -0.110803 0.616000 138 179 103
-0.082010 -0.110803 0.616000 142 183 107
-0.080153 -0.110444 0.614000 132 189 85
-0.078434 -0.110264 0.613000 143 200 96
-0.023208 -0.098392 0.547000 48 73 38
-0.021791 -0.098392 0.547000 51 76 41
-0.020336 -0.098212 0.546000 57 100 39
-0.018886 -0.098032 0.545000 109 152 91
-0.017442 -0.097852 0.544000 139 194 104
-0.016002 -0.097672 0.543000 154 209 119
-0.014568 -0.097493 0.542000 146 211 99
-0.013164 -0.097493 0.542000 141 206 94
-0.011759 -0.097493 0.542000 139 207 92
-0.010354 -0.097493 0.542000 142 210 95
-0.008933 -0.097313 0.541000 140 209 103
-0.007531 -0.097313 0.541000 139 208 102
-0.006129 -0.097313 0.541000 139 200 110
-0.084149 -0.109914 0.620000 150 195 108
-0.082410 -0.109737 0.619000 143 188 101
-0.080805 -0.109737 0.619000 138 195 91
-0.079073 -0.109559 0.618000 131 188 84
-0.018886 -0.096618 0.545000 48 69 45
-0.017442 -0.096441 0.544000 51 87 40
-0.016032 -0.096441 0.544000 89 125 78
-0.014568 -0.096086 0.542000 131 185 98
-0.013164 -0.096086 0.542000 152 206 119
-0.011759 -0.096086 0.542000 148 216 103
-0.010354 -0.096086 0.542000 142 210 97
-0.008950 -0.096086 0.542000 139 209 94
-0.007531 -0.095909 0.541000 139 209 94
-0.006129 -0.095909 0.541000 143 213 100
-0.004727 -0.095909 0.541000 143 213 100
-0.003325 -0.095909 0.541000 143 203 109
-0.086171 -0.108829 0.623000 88 109 71
-0.084421 -0.108654 0.622000 147 193 99
-0.082809 -0.108654 0.622000 140 186 92
-0.081066 -0.108480 0.621000 147 203 104
-0.016032 -0.095029 0.544000 53 67 47
-0.014595 -0.094854 0.543000 47 80 36
-0.013188 -0.094854 0.543000 86 119 75
-0.011759 -0.094680 0.542000 121 177 91
-0.010354 -0.094680 0.542000 154 210 124
-0.008950 -0.094680 0.542000 151 218 108
-0.007531 -0.094505 0.541000 142 209 99
-0.006129 -0.094505 0.541000 138 209 91
-0.004727 -0.094505 0.541000 136 207 89
-0.003319 -0.094330 0.540000 140 208 93
-0.001923 -0.094505 0.541000 140 208 93
-0.000521 -0.094505 0.541000 140 197 102
0.000881 -0.094505 0.541000 113 170 75
-0.087416 -0.108761 0.632000 103 122 80
-0.084692 -0.107384 0.624000 145 192 93
-0.083075 -0.107384 0.624000 141 188 89
-0.081458 -0.107384 0.624000 150 203 107
-0.013188 -0.093445 0.543000 50 66 45
-0.011781 -0.093445 0.543000 51 84 30
-0.010354 -0.093273 0.542000 85 118 64
-0.008950 -0.093273 0.542000 128 185 94
-0.007545 -0.093273 0.542000 156 213 122
-0.006129 -0.093101 0.541000 147 214 104
-0.004727 -0.093101 0.541000 145 212 102
-0.003325 -0.093101 0.541000 142 211 93
-0.001923 -0.093101 0.541000 144 213 95
-0.000520 -0.092929 0.540000 141 209 94
0.000881 -0.093101 0.541000 141 209 94
0.002283 -0.093101 0.541000 137 194 103
0.003685 -0.093101 0.541000 106 163 72
-0.087416 -0.107121 0.632000 110 130 83
-0.085507 -0.106782 0.630000 139 186 85
-0.084007 -0.106952 0.631000 144 191 90
-0.082372 -0.106952 0.631000 148 204 107
-0.080481 -0.106613 0.629000 70 126 29
-0.008950 -0.091867 0.542000 53 86 32
-0.007545 -0.091867 0.542000 82 115 61
-0.006140 -0.091867 0.542000 127 182 92
-0.004727 -0.091697 0.541000 153 208 118
-0.003325 -0.091697 0.541000 151 216 102
-0.001923 -0.091697 0.541000 144 209 95
-0.000521 -0.091697 0.541000 139 208 90
0.000879 -0.091528 0.540000 139 208 90
0.002279 -0.091528 0.540000 139 206 98
0.003685 -0.091697 0.541000 144 211 103
0.005087 -0.091697 0.541000 130 186 100
-0.087693 -0.105815 0.634000 115 136 84
-0.085778 -0.105481 0.632000 139 187 81
-0.085072 -0.106649 0.639000 146 194 88
-0.082272 -0.107317 0.643000 61 116 22
-0.080982 -0.107818 0.646000 34 70 27
-0.007545 -0.090460 0.542000 54 70 47
-0.006140 -0.090460 0.542000 50 80 32
-0.004736 -0.090460 0.542000 82 112 64
-0.003325 -0.090293 0.541000 126 178 87
-0.001923 -0.090293 0.541000 157 209 118
-0.000521 -0.090293 0.541000 154 219 107
0.000881 -0.090293 0.541000 146 211 99
0.002283 -0.090293 0.541000 141 209 96
0.003685 -0.090293 0.541000 142 210 97
0.005087 -0.090293 0.541000 145 214 108
0.006489 -0.090293 0.541000 142 211 105
0.007891 -0.090293 0.541000 125 180 97
-0.087969 -0.104498 0.636000 115 134 81
-0.086185 -0.104334 0.635000 147 194 91
-0.085472 -0.105484 0.642000 151 198 95
-0.082400 -0.105813 0.644000 65 122 27
-0.081483 -0.106799 0.650000 36 69 27
-0.004736 -0.089054 0.542000 57 73 50
-0.003331 -0.089054 0.542000 53 85 36
-0.001923 -0.088889 0.541000 94 126 77
-0.000521 -0.088889 0.541000 132 184 95
0.000881 -0.088889 0.541000 161 213 124
0.002283 -0.088889 0.541000 155 219 110
0.003685 -0.088889 0.541000 149 213 104
0.005087 -0.088889 0.541000 142 212 99
0.006489 -0.088889 0.541000 138 208 95
0.007891 -0.088889 0.541000 142 211 103
0.009293 -0.088889 0.541000 133 202 94
0.010695 -0.088889 0.541000 111 166 85
-0.088108 -0.103010 0.637000 112 130 84
-0.086593 -0.103171 0.638000 155 205 105
-0.083938 -0.103980 0.643000 146 202 103
-0.082656 -0.104465 0.646000 81 137 38
-0.081609 -0.105274 0.651000 36 67 21
-0.001927 -0.087647 0.542000 52 68 45
-0.000521 -0.087485 0.541000 56 89 43
0.000881 -0.087485 0.541000 104 137 91
0.002283 -0.087485 0.541000 145 199 112
0.003685 -0.087485 0.541000 162 216 129
0.005087 -0.087485 0.541000 153 221 108
0.006489 -0.087485 0.541000 144 212 99
0.007891 -0.087485 0.541000 141 210 90
0.009293 -0.087485 0.541000 142 211 91
0.010695 -0.087485 0.541000 138 205 97
0.012097 -0.087485 0.541000 133 200 92
-0.088384 -0.101675 0.639000 101 118 81
-0.087000 -0.101993 0.641000 159 209 118
-0.084069 -0.102470 0.644000 153 210 108
-0.083040 -0.103266 0.649000 98 155 53
-0.081859 -0.103902 0.653000 37 70 16
0.000881 -0.086081 0.541000 54 75 51
0.002283 -0.086081 0.541000 70 108 53
0.003685 -0.086081 0.541000 118 156 101
0.005087 -0.086081 0.541000 154 211 118
0.006489 -0.086081 0.541000 161 218 125
0.007891 -0.086081 0.541000 152 221 103
0.009293 -0.086081 0.541000 146 215 97
0.010695 -0.086081 0.541000 136 206 91
0.012097 -0.086081 0.541000 138 208 93
0.013499 -0.086081 0.541000 139 205 102
0.014902 -0.086081 0.541000 119 185 82
-0.088799 -0.100486 0.642000 86 101 74
-0.085605 -0.100643 0.643000 151 199 118
-0.084461 -0.101269 0.647000 155 211 114
-0.083296 -0.101895 0.651000 114 170 73
0.003685 -0.084678 0.541000 53 74 50
0.005087 -0.084678 0.541000 75 113 54
0.006489 -0.084678 0.541000 133 171 112
0.007891 -0.084678 0.541000 159 220 121
0.009293 -0.084678 0.541000 164 225 126
0.010695 -0.084678 0.541000 157 227 112
0.012097 -0.084678 0.541000 146 216 101
0.013499 -0.084678 0.541000 139 210 99
0.014902 -0.084678 0.541000 143 214 103
0.016304 -0.084678 0.541000 139 204 108
-0.089491 -0.099590 0.647000 62 81 55
-0.087271 -0.098974 0.643000 146 195 121
-0.085738 -0.099128 0.644000 153 202 128
-0.084722 -0.099898 0.649000 153 211 113
-0.083552 -0.100513 0.653000 121 179 81
0.006489 -0.083274 0.541000 61 83 54
0.007891 -0.083274 0.541000 91 136 65
0.009293 -0.083274 0.541000 151 196 125
0.010695 -0.083274 0.541000 163 227 122
0.012097 -0.083274 0.541000 160 224 119
0.013475 -0.083120 0.540000 146 216 103
0.014874 -0.083120 0.540000 142 212 99
0.016304 -0.083274 0.541000 138 207 99
0.017706 -0.083274 0.541000 144 213 105
-0.087543 -0.097608 0.645000 147 195 118
-0.086270 -0.098062 0.648000 163 211 134
-0.084983 -0.098516 0.651000 152 212 116
-0.083679 -0.098970 0.654000 129 189 93
0.007877 -0.081718 0.540000 51 79 43
0.009276 -0.081718 0.540000 68 96 60
0.010695 -0.081870 0.541000 109 157 76
0.012075 -0.081718 0.540000 158 206 125
0.013499 -0.081870 0.541000 162 227 115
0.014902 -0.081870 0.541000 158 223 111
0.016304 -0.081870 0.541000 153 221 106
0.017706 -0.081870 0.541000 147 215 100
0.019108 -0.081870 0.541000 151 217 114
0.020548 -0.082021 0.542000 141 207 104
-0.088086 -0.096529 0.649000 137 178 104
-0.086670 -0.096827 0.651000 173 214 140
-0.085244 -0.097124 0.653000 159 220 121
-0.083679 -0.097273 0.654000 142 203 104
0.010676 -0.080317 0.540000 51 82 38
0.012097 -0.080466 0.541000 78 109 65
0.013499 -0.080466 0.541000 140 191 105
0.014902 -0.080466 0.541000 168 219 133
0.016304 -0.080466 0.541000 164 229 115
0.017706 -0.080466 0.541000 156 221 107
0.019108 -0.080466 0.541000 153 218 104
0.020548 -0.080615 0.542000 147 212 98
0.021952 -0.080615 0.542000 154 213 110
-0.088493 -0.095284 0.652000 101 139 66
-0.086936 -0.095430 0.653000 170 208 135
-0.085374 -0.095576 0.654000 163 222 117
-0.083807 -0.095722 0.655000 154 213 108
-0.082611 -0.096307 0.659000 65 106 39
0.012075 -0.078916 0.540000 60 75 57
0.013499 -0.079062 0.541000 61 92 46
0.014902 -0.079062 0.541000 109 140 94
0.016304 -0.079062 0.541000 152 207 117
0.017706 -0.079062 0.541000 167 222 132
0.019108 -0.079062 0.541000 163 227 111
0.020548 -0.079208 0.542000 163 227 111
0.021993 -0.079354 0.543000 159 220 101
0.023400 -0.079354 0.543000 157 218 99
-0.088764 -0.093879 0.654000 75 110 42
-0.087069 -0.093879 0.654000 162 197 129
-0.085505 -0.094022 0.655000 162 219 115
-0.083935 -0.094166 0.656000 159 216 112
-0.082862 -0.094884 0.661000 103 149 71
0.014902 -0.077658 0.541000 58 76 55
0.016304 -0.077658 0.541000 73 113 55
0.017738 -0.077802 0.542000 133 173 115
0.019143 -0.077802 0.542000 167 225 125
0.020548 -0.077802 0.542000 173 231 131
0.021993 -0.077945 0.543000 163 227 109
0.023443 -0.078089 0.544000 159 223 105
0.024899 -0.078232 0.545000 165 226 111
-0.088900 -0.092323 0.655000 57 91 30
-0.087202 -0.092323 0.655000 160 194 133
-0.085505 -0.092323 0.655000 162 219 117
-0.084063 -0.092604 0.657000 165 222 120
-0.082862 -0.093168 0.661000 135 184 98
0.016394 -0.076677 0.544000 53 75 46
0.017804 -0.076677 0.544000 59 81 52
0.019249 -0.076818 0.545000 107 155 78
0.020623 -0.076677 0.544000 158 206 129
0.022033 -0.076677 0.544000 169 232 121
0.023443 -0.076677 0.544000 165 228 117
0.024899 -0.076818 0.545000 165 231 112
0.026359 -0.076959 0.546000 157 223 104
-0.087469 -0.090900 0.657000 141 173 122
-0.085766 -0.090900 0.657000 162 219 117
-0.084319 -0.091176 0.659000 168 225 123
-0.081395 -0.091730 0.663000 38 93 3
0.019355 -0.075819 0.548000 50 79 36
0.020775 -0.075819 0.548000 83 112 69
0.022155 -0.075680 0.547000 126 181 87
0.023529 -0.075542 0.546000 167 222 128
0.026408 -0.075680 0.547000 161 227 108
0.027825 -0.075680 0.547000 158 223 109
0.029243 -0.075680 0.547000 157 222 108
-0.087735 -0.089466 0.659000 113 142 99
-0.086158 -0.089602 0.660000 165 221 122
-0.082987 -0.089873 0.662000 159 216 123
-0.081517 -0.090145 0.664000 72 129 36
-0.080037 -0.090416 0.666000 38 68 31
0.022236 -0.074533 0.549000 53 88 32
0.023615 -0.074397 0.548000 108 143 87
0.024990 -0.074261 0.547000 158 218 108
0.026408 -0.074261 0.547000 170 230 120
0.027825 -0.074261 0.547000 160 226 107
0.029243 -0.074261 0.547000 154 220 101
0.030660 -0.074261 0.547000 158 222 115
0.032137 -0.074397 0.548000 151 215 108
-0.088401 -0.088422 0.664000 69 93 63
-0.086549 -0.088289 0.663000 164 219 125
-0.084703 -0.088156 0.662000 168 223 129
-0.083113 -0.088289 0.663000 165 225 129
-0.081640 -0.088555 0.665000 94 154 58
-0.080037 -0.088688 0.666000 33 66 22
0.023788 -0.073507 0.552000 54 76 49
0.025127 -0.073241 0.550000 87 134 62
0.026504 -0.073108 0.549000 148 195 123
0.027876 -0.072975 0.548000 166 229 116
0.029243 -0.072842 0.547000 159 222 109
0.030660 -0.072842 0.547000 157 220 107
0.032137 -0.072975 0.548000 161 224 111
0.033557 -0.072975 0.548000 156 217 116
0.035041 -0.073108 0.549000 135 196 95
-0.088534 -0.086829 0.665000 48 69 45
-0.086680 -0.086699 0.664000 152 206 121
-0.084959 -0.086699 0.664000 168 222 137
-0.083364 -0.086829 0.665000 165 227 130
-0.081640 -0.086829 0.665000 127 189 92
-0.080157 -0.087091 0.667000 32 69 17
0.025264 -0.072205 0.553000 49 80 38
0.026649 -0.072075 0.552000 77 108 66
0.027978 -0.071814 0.550000 125 176 90
0.029296 -0.071553 0.548000 167 218 132
0.030716 -0.071553 0.548000 163 228 114
0.032137 -0.071553 0.548000 156 221 107
0.033557 -0.071553 0.548000 155 220 106
0.035041 -0.071683 0.549000 156 221 107
0.036463 -0.071683 0.549000 148 203 111
-0.086810 -0.085104 0.665000 120 168 91
-0.085087 -0.085104 0.665000 169 217 140
-0.083364 -0.085104 0.665000 164 224 128
-0.081763 -0.085232 0.666000 154 214 118
-0.080157 -0.085360 0.667000 44 87 26
0.029403 -0.070387 0.550000 114 150 89
0.030772 -0.070259 0.549000 159 217 117
0.032195 -0.070259 0.549000 167 225 125
0.033618 -0.070259 0.549000 156 221 107
0.035041 -0.070259 0.549000 151 216 102
0.036530 -0.070387 0.550000 158 221 110
0.037955 -0.070387 0.550000 148 211 100
0.039452 -0.070515 0.551000 112 160 81
-0.086941 -0.083503 0.666000 89 130 63
-0.085215 -0.083503 0.666000 169 210 143
-0.083489 -0.083503 0.666000 158 216 116
-0.081886 -0.083629 0.667000 161 219 119
-0.080157 -0.083629 0.667000 92 139 67
-0.078781 -0.084005 0.670000 23 70 0
0.029563 -0.069335 0.553000 51 71 38
0.030884 -0.069085 0.551000 84 127 50
0.032254 -0.068959 0.550000 152 195 118
0.033679 -0.068959 0.550000 165 229 120
0.035105 -0.068959 0.550000 157 221 112
0.036530 -0.068959 0.550000 151 220 102
0.037955 -0.068959 0.550000 156 225 107
0.039452 -0.069085 0.551000 155 217 113
0.040954 -0.069210 0.552000 124 186 82
-0.087071 -0.081898 0.667000 50 83 25
-0.085343 -0.081898 0.667000 160 193 135
-0.083614 -0.081898 0.667000 162 219 117
-0.081886 -0.081898 0.667000 165 222 120
-0.080277 -0.082021 0.668000 129 180 94
-0.078781 -0.082266 0.670000 24 75 0
0.031053 -0.068023 0.554000 47 73 31
0.032371 -0.067778 0.552000 77 103 61
0.033802 -0.067778 0.552000 133 185 92
0.035168 -0.067655 0.551000 168 220 127
0.036596 -0.067655 0.551000 155 221 104
0.038024 -0.067655 0.551000 153 219 102
0.039452 -0.067655 0.551000 155 221 102
0.040954 -0.067778 0.552000 154 220 101
0.042462 -0.067900 0.553000 132 186 101
-0.085471 -0.080287 0.668000 119 151 100
-0.083740 -0.080287 0.668000 164 217 119
-0.082008 -0.080287 0.668000 166 219 121
-0.080397 -0.080407 0.669000 148 203 109
-0.078899 -0.080648 0.671000 48 103 9
0.033863 -0.066465 0.553000 64 99 41
0.035296 -0.066465 0.553000 120 155 97
0.036663 -0.066345 0.552000 161 218 112
0.038093 -0.066345 0.552000 158 215 109
0.039595 -0.066465 0.553000 150 217 93
0.041029 -0.066465 0.553000 148 215 91
0.042539 -0.066586 0.554000 153 218 106
-0.085727 -0.078789 0.670000 77 103 61
-0.083865 -0.078671 0.669000 162 213 117
-0.082254 -0.078789 0.670000 168 219 123
-0.080518 -0.078789 0.670000 157 214 112
-0.079016 -0.079024 0.672000 93 150 48
-0.077620 -0.079377 0.675000 29 62 18
0.035360 -0.065148 0.554000 63 83 50
0.036729 -0.065030 0.553000 99 145 69
0.038162 -0.065030 0.553000 160 206 130
0.039667 -0.065148 0.554000 161 225 105
0.041103 -0.065148 0.554000 149 213 93
0.042539 -0.065148 0.554000 146 213 87
0.043974 -0.065148 0.554000 150 217 91
0.045492 -0.065266 0.555000 142 202 106
-0.086111 -0.077395 0.673000 59 76 46
-0.084116 -0.077165 0.671000 141 189 101
-0.082377 -0.077165 0.671000 169 217 129
-0.080638 -0.077165 0.671000 159 219 109
-0.079134 -0.077395 0.673000 136 196 86
-0.077620 -0.077625 0.675000 33 73 15
0.036796 -0.063710 0.554000 49 78 33
0.038231 -0.063710 0.554000 85 114 69
0.039667 -0.063710 0.554000 144 199 105
0.041103 -0.063710 0.554000 161 216 122
0.042615 -0.063825 0.555000 149 216 90
0.044054 -0.063825 0.555000 146 213 87
0.045492 -0.063825 0.555000 141 210 92
0.047015 -0.063940 0.556000 139 208 90
-0.084366 -0.075649 0.673000 103 144 70
-0.082622 -0.075649 0.673000 173 214 140
-0.080878 -0.075649 0.673000 159 218 111
-0.079252 -0.075761 0.674000 152 211 104
-0.077735 -0.075986 0.676000 68 113 42
0.038300 -0.062385 0.555000 52 67 42
0.039739 -0.062385 0.555000 69 108 42
0.041177 -0.062385 0.555000 138 177 111
0.042615 -0.062385 0.555000 160 220 108
0.044054 -0.062385 0.555000 156 216 104
0.045574 -0.062497 0.556000 145 215 90
0.047015 -0.062497 0.556000 138 208 83
0.048456 -0.062497 0.556000 142 204 100
-0.084617 -0.074122 0.675000 59 95 34
-0.082868 -0.074122 0.675000 160 196 135
-0.080998 -0.074012 0.674000 159 218 113
-0.079369 -0.074122 0.675000 158 217 112
-0.077735 -0.074232 0.676000 104 155 71
-0.076095 -0.074342 0.677000 24 75 0
0.039739 -0.060945 0.555000 49 73 34
0.041177 -0.060945 0.555000 71 95 56
0.042615 -0.060945 0.555000 131 181 88
0.044133 -0.061055 0.556000 169 219 126
0.045574 -0.061055 0.556000 155 219 101
0.047015 -0.061055 0.556000 148 212 94
0.048543 -0.061164 0.557000 147 213 94
0.049986 -0.061164 0.557000 146 212 93
-0.084742 -0.072478 0.676000 38 65 16
-0.082991 -0.072478 0.676000 130 157 108
-0.081239 -0.072478 0.676000 162 218 119
-0.079487 -0.072478 0.676000 157 213 114
-0.077735 -0.072478 0.676000 136 191 99
-0.076095 -0.072585 0.677000 34 89 0
0.042692 -0.059612 0.556000 65 98 40
0.044133 -0.059612 0.556000 131 164 106
0.045574 -0.059612 0.556000 160 218 109
0.047099 -0.059719 0.557000 159 217 108
0.048543 -0.059719 0.557000 146 212 91
0.050076 -0.059826 0.558000 143 209 88
0.051615 -0.059933 0.559000 142 206 101
-0.083113 -0.070828 0.677000 91 114 80
-0.081239 -0.070723 0.676000 166 218 127
-0.079487 -0.070723 0.676000 155 207 116
-0.077850 -0.070828 0.677000 153 211 113
-0.076208 -0.070933 0.678000 67 125 27
-0.074451 -0.070933 0.678000 32 63 17
0.044133 -0.058169 0.556000 64 81 53
0.045656 -0.058274 0.557000 96 139 60
0.047184 -0.058378 0.558000 159 202 123
0.048630 -0.058378 0.558000 156 217 98
0.050166 -0.058483 0.559000 149 210 91
0.051707 -0.058587 0.560000 143 206 93
0.053348 -0.058797 0.562000 145 208 95
0.054902 -0.058901 0.563000 130 185 104
0.056461 -0.059006 0.564000 68 123 42
-0.083236 -0.069173 0.678000 50 69 43
-0.081359 -0.069071 0.677000 157 203 123
-0.079604 -0.069071 0.677000 159 205 125
-0.077850 -0.069071 0.677000 155 217 111
-0.076208 -0.069173 0.678000 115 177 71
-0.074451 -0.069173 0.678000 30 70 14
0.045738 -0.056930 0.558000 52 82 34
0.047269 -0.057032 0.559000 85 115 67
0.048804 -0.057134 0.560000 149 202 104
0.050345 -0.057236 0.561000 161 214 116
0.051892 -0.057338 0.562000 148 211 98
0.053443 -0.057440 0.563000 143 206 93
0.055000 -0.057542 0.564000 144 207 107
0.056461 -0.057542 0.564000 130 193 93
0.057923 -0.057542 0.564000 73 116 55
-0.083236 -0.067414 0.678000 46 60 40
-0.081479 -0.067414 0.678000 117 159 89
-0.079722 -0.067414 0.678000 168 210 140
-0.077965 -0.067414 0.678000 158 217 112
-0.076208 -0.067414 0.678000 149 208 103
-0.074451 -0.067414 0.678000 51 97 28
0.047438 -0.055781 0.561000 57 74 48
0.050435 -0.055880 0.562000 147 186 120
0.051984 -0.055979 0.563000 161 223 117
0.053538 -0.056079 0.564000 150 212 106
0.055000 -0.056079 0.564000 151 215 106
0.056461 -0.056079 0.564000 151 215 106
0.058026 -0.056178 0.565000 136 192 106
-0.081479 -0.065654 0.678000 61 96 38
-0.079722 -0.065654 0.678000 164 199 141
-0.077965 -0.065654 0.678000 159 217 117
-0.076208 -0.065654 0.678000 156 214 114
-0.074451 -0.065654 0.678000 100 150 73
-0.072801 -0.065751 0.679000 24 74 0
0.049066 -0.054518 0.563000 47 73 33
0.050525 -0.054518 0.563000 76 102 62
0.052076 -0.054615 0.564000 137 191 104
0.053538 -0.054615 0.564000 164 218 131
0.055000 -0.054615 0.564000 151 215 108
0.056561 -0.054712 0.565000 149 213 106
0.058026 -0.054712 0.565000 148 211 109
0.059595 -0.054809 0.566000 133 196 94
0.061278 -0.055003 0.568000 77 121 53
-0.081479 -0.063895 0.678000 35 65 15
-0.079722 -0.063895 0.678000 143 173 123
-0.077965 -0.063895 0.678000 159 217 119
-0.076208 -0.063895 0.678000 157 215 117
-0.074560 -0.063989 0.679000 141 196 106
-0.072908 -0.064084 0.680000 49 104 14
0.052076 -0.053152 0.564000 56 96 36
0.053538 -0.053152 0.564000 134 174 114
0.055097 -0.053246 0.565000 160 223 121
0.056561 -0.053246 0.565000 151 214 112
0.058128 -0.053340 0.566000 149 213 106
0.059700 -0.053434 0.567000 153 217 110
0.061386 -0.053623 0.569000 138 195 104
0.062971 -0.053717 0.570000 78 135 44
-0.079840 -0.062227 0.679000 106 130 91
-0.077965 -0.062136 0.678000 167 219 128
-0.076208 -0.062136 0.678000 162 214 123
-0.074560 -0.062227 0.679000 152 210 110
-0.072908 -0.062319 0.680000 95 153 53
-0.071250 -0.062411 0.681000 27 59 10
0.053633 -0.051780 0.565000 57 84 51
0.055097 -0.051780 0.565000 124 180 94
0.056661 -0.051871 0.566000 160 216 130
0.058231 -0.051963 0.567000 154 221 113
0.059911 -0.052146 0.569000 149 216 108
0.061493 -0.052238 0.570000 155 217 113
0.063081 -0.052330 0.571000 134 196 92
-0.079840 -0.060465 0.679000 58 75 47
-0.078080 -0.060465 0.679000 148 195 112
-0.076320 -0.060465 0.679000 167 214 131
-0.074560 -0.060465 0.679000 157 216 109
-0.072908 -0.060554 0.680000 135 194 87
-0.071250 -0.060643 0.681000 40 80 20
0.055195 -0.050403 0.566000 50 94 39
0.056762 -0.050492 0.567000 122 166 111
0.058436 -0.050670 0.569000 161 224 124
0.060016 -0.050759 0.570000 157 220 120
0.061601 -0.050848 0.571000 154 216 108
0.063192 -0.050937 0.572000 151 213 105
0.064787 -0.051026 0.573000 138 192 105
-0.078195 -0.058790 0.680000 88 128 59
-0.076433 -0.058790 0.680000 172 212 143
-0.074670 -0.058790 0.680000 153 213 101
-0.072908 -0.058790 0.680000 150 210 98
-0.071250 -0.058876 0.681000 79 129 52
0.056862 -0.049107 0.568000 59 88 56
0.058539 -0.049280 0.570000 118 170 95
0.060122 -0.049366 0.571000 162 214 139
0.061709 -0.049453 0.572000 163 225 121
0.063302 -0.049539 0.573000 156 218 114
0.064787 -0.049539 0.573000 147 205 107
0.066388 -0.049625 0.574000 137 195 97
-0.078310 -0.057109 0.681000 48 81 25
-0.076433 -0.057025 0.680000 142 175 119
-0.074670 -0.057025 0.680000 161 220 115
-0.073015 -0.057109 0.681000 153 212 107
-0.071355 -0.057193 0.682000 130 187 92
0.058642 -0.047884 0.571000 46 82 35
0.060227 -0.047968 0.572000 118 154 107
0.061817 -0.048052 0.573000 159 218 129
0.063302 -0.048052 0.573000 163 222 133
0.064900 -0.048136 0.574000 155 218 116
0.066619 -0.048304 0.576000 144 207 105
-0.078540 -0.055504 0.683000 35 61 19
-0.076657 -0.055423 0.682000 95 121 79
-0.074890 -0.055423 0.682000 164 222 124
-0.073122 -0.055423 0.682000 154 212 114
-0.071355 -0.055423 0.682000 150 211 110
-0.068019 -0.055586 0.684000 28 61 17
0.060227 -0.046484 0.572000 58 82 54
0.061817 -0.046565 0.573000 121 169 102
0.063413 -0.046646 0.574000 162 210 143
0.065013 -0.046728 0.575000 156 219 119
0.068348 -0.046971 0.578000 143 205 108
0.070088 -0.047134 0.580000 127 189 92
-0.076770 -0.053732 0.683000 56 75 45
-0.075000 -0.053732 0.683000 148 202 115
-0.073230 -0.053732 0.683000 164 218 131
-0.071460 -0.053732 0.683000 155 218 118
-0.069690 -0.053732 0.683000 117 180 80
-0.068118 -0.053889 0.685000 23 66 5
0.061925 -0.045157 0.574000 53 91 47
0.063523 -0.045236 0.575000 132 170 126
0.066850 -0.045472 0.578000 150 211 121
0.068585 -0.045629 0.580000 147 213 110
0.070209 -0.045708 0.581000 148 214 111
0.071838 -0.045786 0.582000 130 185 104
-0.076995 -0.052112 0.685000 36 52 29
-0.075219 -0.052112 0.685000 112 159 85
-0.073337 -0.052036 0.684000 170 217 143
-0.071564 -0.052036 0.684000 159 220 119
-0.069894 -0.052112 0.685000 145 206 105
-0.068118 -0.052112 0.685000 51 100 26
0.063633 -0.043819 0.576000 69 92 67
0.066966 -0.044048 0.579000 160 213 135
0.068703 -0.044200 0.581000 160 223 121
0.070330 -0.044276 0.582000 151 214 112
0.071961 -0.044352 0.583000 149 209 115
-0.075329 -0.050408 0.686000 45 86 23
-0.073551 -0.050408 0.686000 165 206 143
-0.071773 -0.050408 0.686000 163 225 121
-0.069996 -0.050408 0.686000 152 214 110
-0.068218 -0.050408 0.686000 104 158 71
-0.066537 -0.050481 0.687000 12 66 0
0.065352 -0.042472 0.578000 53 90 40
0.067197 -0.042692 0.581000 124 161 111
0.068821 -0.042766 0.582000 159 220 121
0.070571 -0.042913 0.584000 154 215 116
0.072208 -0.042986 0.585000 151 210 105
0.073976 -0.043133 0.587000 145 204 99
-0.075439 -0.048698 0.687000 33 67 18
-0.073659 -0.048698 0.687000 132 166 117
-0.071983 -0.048769 0.688000 168 226 128
-0.070200 -0.048769 0.688000 159 217 119
-0.068417 -0.048769 0.688000 139 195 98
-0.066731 -0.048840 0.689000 38 94 0
0.067313 -0.041255 0.582000 61 83 54
0.069058 -0.041397 0.584000 133 183 102
0.070934 -0.041610 0.587000 164 214 133
0.072578 -0.041681 0.588000 156 215 110
0.074228 -0.041752 0.589000 153 212 107
0.075883 -0.041822 0.590000 140 195 105
-0.073873 -0.047052 0.689000 83 111 75
-0.072087 -0.047052 0.689000 166 221 131
-0.070302 -0.047052 0.689000 164 219 129
-0.068516 -0.047052 0.689000 147 206 103
-0.066731 -0.047052 0.689000 97 156 53
-0.065039 -0.047120 0.690000 23 62 11
0.069294 -0.040018 0.586000 73 112 50
0.071175 -0.040223 0.589000 152 191 129
0.072825 -0.040291 0.590000 160 218 118
0.074480 -0.040360 0.591000 152 210 110
0.076012 -0.040360 0.591000 148 209 110
-0.073980 -0.045330 0.690000 43 65 36
-0.072192 -0.045330 0.690000 131 181 100
-0.070404 -0.045330 0.690000 170 220 139
-0.068616 -0.045330 0.690000 154 212 112
-0.066827 -0.045330 0.690000 133 191 91
-0.065039 -0.045330 0.690000 40 86 21
0.071417 -0.038826 0.591000 89 115 73
0.073072 -0.038892 0.592000 152 204 115
0.074606 -0.038892 0.592000 156 208 119
0.077806 -0.038957 0.593000 142 203 102
-0.072192 -0.043539 0.690000 65 109 43
-0.070404 -0.043539 0.690000 171 215 149
-0.068616 -0.043539 0.690000 157 215 117
-0.066827 -0.043539 0.690000 152 210 112
-0.065133 -0.043602 0.691000 93 142 68
-0.063343 -0.043602 0.691000 14 63 0
0.073196 -0.037419 0.593000 93 138 67
0.074858 -0.037482 0.594000 157 202 131
0.076526 -0.037545 0.595000 154 215 116
-0.072297 -0.041809 0.691000 37 75 20
-0.070506 -0.041809 0.691000 142 180 125
-0.068715 -0.041809 0.691000 166 222 123
-0.066924 -0.041809 0.691000 154 210 111
-0.065133 -0.041809 0.691000 138 191 109
-0.063343 -0.041809 0.691000 33 86 4
0.073813 -0.036182 0.598000 46 80 29
0.075489 -0.036243 0.599000 118 152 101
0.077041 -0.036243 0.599000 150 207 112
-0.070506 -0.040016 0.691000 102 128 86
-0.068715 -0.040016 0.691000 171 224 128
-0.066924 -0.040016 0.691000 166 219 123
-0.065133 -0.040016 0.691000 157 212 118
-0.063434 -0.040074 0.692000 77 132 38
0.075741 -0.034804 0.601000 69 91 62
-0.070608 -0.038278 0.692000 50 72 41
-0.068814 -0.038278 0.692000 158 206 118
-0.067021 -0.038278 0.692000 176 224 136
-0.065228 -0.038278 0.692000 161 218 116
-0.063526 -0.038334 0.693000 123 180 78
-0.061730 -0.038334 0.693000 22 65 15
0.105902 -0.038555 0.697000 51 57 17
-0.070710 -0.036535 0.693000 36 52 29
-0.068914 -0.036535 0.693000 99 140 62
-0.067118 -0.036535 0.693000 181 222 144
-0.065322 -0.036535 0.693000 164 221 117
-0.063526 -0.036535 0.693000 154 211 107
-0.061819 -0.036588 0.694000 40 90 29
0.105902 -0.036746 0.697000 53 60 13
0.107863 -0.036799 0.698000 45 55 41
-0.068914 -0.034737 0.693000 53 88 20
-0.067118 -0.034737 0.693000 167 202 134
-0.065416 -0.034787 0.694000 171 228 124
-0.063618 -0.034787 0.694000 162 219 115
-0.061819 -0.034787 0.694000 94 146 71
-0.060194 -0.034887 0.696000 16 68 0
0.106054 -0.034988 0.698000 96 103 61
0.107863 -0.034988 0.698000 42 50 35
-0.069013 -0.032986 0.694000 33 64 11
-0.067215 -0.032986 0.694000 134 165 112
-0.065416 -0.032986 0.694000 174 227 129
-0.063709 -0.033034 0.695000 169 222 124
-0.061997 -0.033081 0.696000 138 192 105
-0.060194 -0.033081 0.696000 37 91 4
0.106206 -0.033224 0.699000 103 111 80
0.108172 -0.033271 0.700000 40 49 31
-0.067409 -0.031275 0.696000 69 95 55
-0.065605 -0.031275 0.696000 166 218 129
-0.063801 -0.031275 0.696000 171 223 134
-0.061997 -0.031275 0.696000 157 212 118
-0.060280 -0.031320 0.697000 87 142 48
-0.058558 -0.031365 0.698000 21 57 14
0.106358 -0.031455 0.700000 62 74 46
0.108172 -0.031455 0.700000 47 55 40
-0.067505 -0.029511 0.697000 40 59 31
-0.065699 -0.029511 0.697000 130 177 103
-0.063893 -0.029511 0.697000 176 223 149
-0.062175 -0.029554 0.698000 164 222 122
-0.060367 -0.029554 0.698000 130 188 88
-0.058642 -0.029596 0.699000 36 76 18
0.106510 -0.029681 0.701000 48 58 31
0.108327 -0.029681 0.701000 51 59 44
-0.067602 -0.027742 0.698000 39 56 30
-0.065793 -0.027742 0.698000 72 113 48
-0.063984 -0.027742 0.698000 168 209 144
-0.062175 -0.027742 0.698000 166 224 124
-0.060453 -0.027782 0.699000 150 208 108
-0.058642 -0.027782 0.699000 83 129 60
0.104544 -0.027822 0.700000 95 101 59
0.106662 -0.027901 0.702000 49 55 13
0.108481 -0.027901 0.702000 54 57 39
-0.065888 -0.025968 0.699000 34 72 13
-0.064076 -0.025968 0.699000 140 178 119
-0.062265 -0.025968 0.699000 166 225 122
-0.060453 -0.025968 0.699000 156 215 112
-0.058725 -0.026005 0.700000 112 165 87
-0.056911 -0.026005 0.700000 22 75 0
0.106814 -0.026117 0.703000 79 72 12
0.108636 -0.026117 0.703000 61 54 23
-0.065888 -0.024154 0.699000 30 62 13
-0.064076 -0.024154 0.699000 91 123 74
-0.062265 -0.024154 0.699000 165 223 123
-0.060540 -0.024189 0.700000 160 218 118
-0.058725 -0.024189 0.700000 142 199 106
-0.056993 -0.024223 0.701000 46 103 10
0.097843 -0.024327 0.704000 117 119 83
0.099526 -0.024293 0.703000 154 156 120
0.101348 -0.024293 0.703000 174 173 106
0.103170 -0.024293 0.703000 175 174 107
0.106814 -0.024293 0.703000 155 144 79
0.108636 -0.024293 0.703000 103 89 41
-0.064168 -0.022372 0.700000 59 82 48
-0.062354 -0.022372 0.700000 153 206 110
-0.060540 -0.022372 0.700000 167 220 124
-0.058809 -0.022404 0.701000 147 209 105
-0.056993 -0.022404 0.701000 93 155 51
-0.055255 -0.022436 0.702000 27 65 19
0.101492 -0.022500 0.704000 82 79 38
0.103317 -0.022500 0.704000 93 90 49
0.105141 -0.022500 0.704000 114 106 51
0.106966 -0.022500 0.704000 159 151 96
0.108790 -0.022500 0.704000 172 158 112
-0.064259 -0.020585 0.701000 42 59 33
-0.062443 -0.020585 0.701000 115 163 75
-0.060626 -0.020585 0.701000 169 217 129
-0.058809 -0.020585 0.701000 157 216 109
-0.057074 -0.020615 0.702000 135 194 87
-0.055255 -0.020615 0.702000 31 74 15
-0.064259 -0.018766 0.701000 47 61 39
-0.062443 -0.018766 0.701000 70 111 35
-0.060626 -0.018766 0.701000 168 209 133
-0.058809 -0.018766 0.701000 165 223 114
-0.057074 -0.018793 0.702000 152 210 101
-0.055255 -0.018793 0.702000 62 109 35
-0.053511 -0.018820 0.703000 23 70 0
-0.062532 -0.016971 0.702000 40 76 11
-0.060712 -0.016971 0.702000 144 180 115
-0.058893 -0.016971 0.702000 165 222 116
-0.057155 -0.016995 0.703000 159 216 110
-0.055333 -0.016995 0.703000 110 162 73
-0.053511 -0.016995 0.703000 20 72 0
-0.062532 -0.015150 0.702000 32 60 4
-0.060712 -0.015150 0.702000 116 144 88
-0.058977 -0.015171 0.703000 165 218 110
-0.057155 -0.015171 0.703000 165 218 110
-0.055333 -0.015171 0.703000 141 194 98
-0.053511 -0.015171 0.703000 41 94 0
-0.060799 -0.013347 0.703000 59 81 36
-0.058977 -0.013347 0.703000 158 208 106
-0.057155 -0.013347 0.703000 165 215 113
-0.055333 -0.013347 0.703000 153 207 102
-0.053511 -0.013347 0.703000 88 142 37
-0.051763 -0.013366 0.704000 24 61 11
-0.060799 -0.011523 0.703000 38 61 27
-0.058977 -0.011523 0.703000 134 182 92
-0.057155 -0.011523 0.703000 164 212 122
-0.055333 -0.011523 0.703000 157 212 104
-0.053588 -0.011539 0.704000 119 174 66
-0.051763 -0.011539 0.704000 29 70 7
-0.060799 -0.009698 0.703000 37 56 30
-0.058977 -0.009698 0.703000 76 120 38
-0.057155 -0.009698 0.703000 165 209 127
-0.055412 -0.009712 0.704000 159 214 104
-0.053588 -0.009712 0.704000 146 201 91
-0.051763 -0.009712 0.704000 58 100 30
-0.059061 -0.007885 0.704000 44 83 17
-0.057237 -0.007885 0.704000 149 188 122
-0.055412 -0.007885 0.704000 152 208 95
-0.053588 -0.007885 0.704000 154 210 97
-0.051763 -0.007885 0.704000 106 153 70
-0.059061 -0.006058 0.704000 31 64 10
-0.057237 -0.006058 0.704000 115 148 94
-0.055412 -0.006058 0.704000 154 211 105
-0.053588 -0.006058 0.704000 153 210 104
-0.050010 -0.006067 0.705000 31 84 0
-0.057237 -0.004231 0.704000 64 90 48
-0.055412 -0.004231 0.704000 154 208 107
-0.051837 -0.004237 0.705000 147 206 101
-0.050010 -0.004237 0.705000 62 121 16
-0.057318 -0.002408 0.705000 42 62 29
-0.055491 -0.002408 0.705000 136 186 93
-0.053664 -0.002408 0.705000 162 212 119
-0.051837 -0.002408 0.705000 150 212 104
-0.050010 -0.002408 0.705000 101 163 55
-0.048251 -0.002411 0.706000 19 55 8
-0.057318 -0.000578 0.705000 42 59 33
-0.055491 -0.000578 0.705000 109 155 77
-0.053664 -0.000578 0.705000 163 209 131
-0.051837 -0.000578 0.705000 156 216 106
-0.050081 -0.000579 0.706000 133 193 83
-0.048251 -0.000579 0.706000 26 66 6
-0.055569 0.001253 0.706000 68 109 42
-0.053740 0.001253 0.706000 158 199 132
-0.051910 0.001253 0.706000 153 210 104
-0.050081 0.001253 0.706000 144 201 95
-0.048319 0.001255 0.707000 57 102 29
-0.055648 0.003089 0.707000 33 69 8
-0.053740 0.003085 0.706000 149 185 124
-0.051984 0.003089 0.707000 151 209 100
-0.050151 0.003089 0.707000 147 205 96
-0.048388 0.003094 0.708000 95 144 60
-0.046553 0.003094 0.708000 21 70 0
-0.055727 0.004931 0.708000 35 63 9
-0.053816 0.004924 0.707000 120 148 94
-0.052057 0.004931 0.708000 153 207 102
-0.050222 0.004931 0.708000 146 200 95
-0.048388 0.004931 0.708000 121 173 84
-0.046618 0.004938 0.709000 21 73 0
-0.053892 0.006768 0.708000 75 99 58
-0.052057 0.006768 0.708000 153 206 108
-0.050222 0.006768 0.708000 150 203 105
-0.048456 0.006778 0.709000 141 197 100
-0.046684 0.006787 0.710000 44 100 3
-0.054044 0.008630 0.710000 55 74 44
-0.052131 0.008618 0.709000 140 192 103
-0.050364 0.008630 0.710000 147 199 110
-0.048524 0.008630 0.710000 148 204 105
-0.046684 0.008630 0.710000 93 149 50
-0.044907 0.008642 0.711000 23 57 6
-0.054120 0.010487 0.711000 44 63 35
-0.052204 0.010472 0.710000 125 174 90
-0.050364 0.010472 0.710000 151 200 116
-0.048524 0.010472 0.710000 149 208 105
-0.046750 0.010487 0.711000 126 185 82
-0.044907 0.010487 0.711000 29 69 13
-0.054120 0.012332 0.711000 44 59 34
-0.052278 0.012332 0.711000 93 136 57
-0.050435 0.012332 0.711000 158 201 122
-0.048593 0.012332 0.711000 140 202 96
-0.046750 0.012332 0.711000 137 199 93
-0.044907 0.012332 0.711000 49 93 29
-0.052351 0.014197 0.712000 54 91 23
-0.050435 0.014177 0.711000 156 193 125
-0.048593 0.014177 0.711000 141 203 97
-0.046750 0.014177 0.711000 143 205 99
-0.044971 0.014197 0.712000 77 125 48
-0.043125 0.014197 0.712000 21 69 0
-0.052425 0.016067 0.713000 33 68 12
-0.050577 0.016067 0.713000 135 170 114
-0.048661 0.016045 0.712000 138 199 98
-0.046816 0.016045 0.712000 143 204 103
-0.044971 0.016045 0.712000 104 155 71
-0.043186 0.016067 0.713000 18 69 0
-0.052498 0.017942 0.714000 30 59 14
-0.050577 0.017917 0.713000 110 139 94
-0.048729 0.017917 0.713000 143 199 102
-0.046881 0.017917 0.713000 143 199 102
-0.044971 0.017892 0.712000 133 187 100
-0.043186 0.017917 0.713000 27 81 0
-0.052572 0.019823 0.715000 42 66 27
-0.050648 0.019795 0.714000 86 110 71
-0.048729 0.019768 0.713000 147 202 108
-0.046881 0.019768 0.713000 137 192 98
-0.045034 0.019768 0.713000 146 201 111
-0.043186 0.019768 0.713000 47 102 12
-0.050719 0.021678 0.715000 52 72 39
-0.048798 0.021648 0.714000 147 199 110
-0.046881 0.021618 0.713000 141 193 104
-0.045034 0.021618 0.713000 150 207 112
-0.043186 0.021618 0.713000 88 145 50
-0.050719 0.023534 0.715000 41 59 36
-0.048798 0.023501 0.714000 131 184 102
-0.046947 0.023501 0.714000 138 191 109
-0.045034 0.023468 0.713000 143 201 103
-0.043186 0.023468 0.713000 111 169 71
-0.041396 0.023501 0.714000 22 61 10
-0.050790 0.025425 0.716000 33 50 32
-0.048866 0.025389 0.715000 89 141 66
-0.046947 0.025354 0.714000 144 196 121
-0.045097 0.025354 0.714000 139 198 95
-0.043246 0.025354 0.714000 130 189 86
-0.041396 0.025354 0.714000 25 69 5
-0.050861 0.027321 0.717000 39 54 36
-0.048934 0.027283 0.716000 63 111 42
-0.047013 0.027245 0.715000 147 195 126
-0.045097 0.027207 0.714000 130 192 86
-0.043246 0.027207 0.714000 137 199 93
-0.041396 0.027207 0.714000 37 84 12
-0.048934 0.029141 0.716000 52 94 24
-0.047013 0.029100 0.715000 152 194 124
-0.045097 0.029059 0.714000 131 190 85
-0.043246 0.029059 0.714000 147 206 101
-0.041454 0.029100 0.715000 67 117 40
-0.049003 0.031042 0.717000 34 68 3
-0.047079 0.030999 0.716000 144 178 113
-0.045160 0.030956 0.715000 138 197 92
-0.043307 0.030956 0.715000 147 206 101
-0.041454 0.030956 0.715000 103 156 76
-0.039656 0.030999 0.716000 13 66 0
-0.049003 0.032903 0.717000 29 60 3
-0.047144 0.032903 0.717000 131 162 105
-0.045223 0.032857 0.716000 140 196 97
-0.043368 0.032857 0.716000 144 200 101
-0.041512 0.032857 0.716000 122 176 91
-0.039656 0.032857 0.716000 13 67 0
-0.049003 0.034763 0.717000 30 60 12
-0.047144 0.034763 0.717000 109 139 91
-0.045223 0.034715 0.716000 146 202 105
-0.043368 0.034715 0.716000 137 193 96
-0.041512 0.034715 0.716000 132 187 97
-0.039712 0.034763 0.717000 19 74 0
-0.047144 0.036624 0.717000 58 84 44
-0.045286 0.036624 0.717000 146 201 109
-0.043428 0.036624 0.717000 136 191 99
-0.041512 0.036573 0.716000 143 198 104
-0.039712 0.036624 0.717000 48 103 9
-0.047144 0.038485 0.717000 46 69 33
-0.045286 0.038485 0.717000 146 198 107
-0.043428 0.038485 0.717000 135 187 96
-0.041570 0.038485 0.717000 144 200 103
-0.039712 0.038485 0.717000 69 125 28
-0.047210 0.040401 0.718000 38 58 25
-0.045286 0.040345 0.717000 133 183 92
-0.043428 0.040345 0.717000 143 193 102
-0.041570 0.040345 0.717000 144 201 99
-0.039712 0.040345 0.717000 84 141 39
-0.037906 0.040401 0.718000 28 62 13
-0.047210 0.042265 0.718000 33 50 20
-0.045286 0.042206 0.717000 113 161 73
-0.043428 0.042206 0.717000 146 194 106
-0.041570 0.042206 0.717000 139 198 93
-0.039712 0.042206 0.717000 110 169 64
-0.037906 0.042265 0.718000 21 59 4
-0.045286 0.044066 0.717000 94 137 58
-0.043428 0.044066 0.717000 148 191 112
-0.041570 0.044066 0.717000 130 188 88
-0.039712 0.044066 0.717000 129 187 87
-0.037906 0.044128 0.718000 22 62 6
-0.045286 0.045927 0.717000 80 121 47
-0.043428 0.045927 0.717000 152 193 119
-0.041570 0.045927 0.717000 131 189 89
-0.039712 0.045927 0.717000 136 194 94
-0.037906 0.045991 0.718000 23 66 7
-0.045286 0.047788 0.717000 55 96 29
-0.043428 0.047788 0.717000 152 193 126
-0.041570 0.047788 0.717000 133 191 93
-0.039767 0.047854 0.718000 138 196 98
-0.037906 0.047854 0.718000 36 80 16
-0.045349 0.049718 0.718000 32 72 14
-0.043428 0.049648 0.717000 146 186 128
-0.041570 0.049648 0.717000 133 190 95
-0.039767 0.049718 0.718000 138 195 100
-0.037906 0.049718 0.718000 59 104 33
-0.045349 0.051581 0.718000 24 64 8
-0.043428 0.051509 0.717000 141 181 125
-0.041570 0.051509 0.717000 131 188 93
-0.039767 0.051581 0.718000 140 197 102
-0.037906 0.051581 0.718000 78 124 48
-0.045349 0.053444 0.718000 22 56 5
-0.043428 0.053370 0.717000 137 171 120
-0.041570 0.053370 0.717000 133 190 95
-0.039767 0.053444 0.718000 139 196 101
-0.037906 0.053444 0.718000 96 142 62
-0.036146 0.053593 0.720000 15 61 0
-0.296092 0.055923 0.726000 39 44 32
-0.294211 0.055923 0.726000 33 41 30
-0.292732 0.056000 0.727000 29 37 26
-0.290848 0.056000 0.727000 29 36 28
-0.288964 0.056000 0.727000 25 32 24
-0.045349 0.055307 0.718000 21 55 4
-0.043428 0.055230 0.717000 124 158 107
-0.041570 0.055230 0.717000 139 195 98
-0.039712 0.055230 0.717000 136 192 95
-0.037906 0.055307 0.718000 113 160 75
-0.036146 0.055461 0.720000 17 64 0
-0.298384 0.057887 0.727000 43 48 36
-0.296500 0.057887 0.727000 42 47 35
-0.294616 0.057887 0.727000 35 43 32
-0.292732 0.057887 0.727000 33 41 30
-0.290848 0.057887 0.727000 28 36 25
-0.289361 0.057967 0.728000 29 37 26
-0.287869 0.058046 0.729000 28 37 30
-0.045349 0.057170 0.718000 22 56 7
-0.043428 0.057091 0.717000 107 141 92
-0.041570 0.057091 0.717000 141 195 94
-0.039712 0.057091 0.717000 138 192 91
-0.037906 0.057170 0.718000 119 169 80
-0.036096 0.057250 0.719000 22 72 0
-0.298384 0.059774 0.727000 39 44 34
-0.296500 0.059774 0.727000 36 41 31
-0.294616 0.059774 0.727000 33 41 30
-0.293135 0.059856 0.728000 34 42 31
-0.291248 0.059856 0.728000 32 40 29
-0.289759 0.059938 0.729000 34 42 31
-0.287869 0.059938 0.729000 35 44 37
-0.285980 0.059938 0.729000 38 47 40
-0.045413 0.059116 0.719000 23 55 4
-0.043428 0.058951 0.717000 93 125 74
-0.041570 0.058951 0.717000 142 196 93
-0.039712 0.058951 0.717000 136 190 87
-0.037854 0.058951 0.717000 120 172 83
-0.036096 0.059116 0.719000 21 73 0
-0.298795 0.061745 0.728000 37 44 36
-0.296908 0.061745 0.728000 35 42 34
-0.295021 0.061745 0.728000 33 40 32
-0.293135 0.061745 0.728000 36 43 35
-0.291648 0.061830 0.729000 33 41 30
-0.289759 0.061830 0.729000 34 42 31
-0.287869 0.061830 0.729000 36 43 37
-0.285980 0.061830 0.729000 36 43 37
-0.043428 0.060812 0.717000 75 105 55
-0.041570 0.060812 0.717000 142 196 93
-0.039712 0.060812 0.717000 136 190 87
-0.037854 0.060812 0.717000 129 179 88
-0.036096 0.060982 0.719000 29 79 0
-0.299205 0.063722 0.729000 39 48 39
-0.297316 0.063722 0.729000 38 47 38
-0.295021 0.063634 0.728000 34 43 36
-0.293537 0.063722 0.729000 35 44 37
-0.291648 0.063722 0.729000 34 43 34
-0.289759 0.063722 0.729000 34 43 34
-0.287869 0.063722 0.729000 34 43 34
-0.285980 0.063722 0.729000 35 44 35
-0.043428 0.062673 0.717000 68 95 46
-0.041570 0.062673 0.717000 142 196 95
-0.039712 0.062673 0.717000 138 192 91
-0.037854 0.062673 0.717000 131 181 90
-0.036096 0.062847 0.719000 31 81 0
-0.297316 0.065613 0.729000 39 48 39
-0.295426 0.065613 0.729000 34 43 36
-0.293537 0.065613 0.729000 34 43 36
-0.291648 0.065613 0.729000 33 42 33
-0.289759 0.065613 0.729000 34 43 34
-0.288264 0.065703 0.730000 35 44 35
-0.286373 0.065703 0.730000 35 44 35
-0.043428 0.064533 0.717000 63 90 41
-0.041570 0.064533 0.717000 147 199 98
-0.039712 0.064533 0.717000 137 189 88
-0.037854 0.064533 0.717000 136 186 95
-0.036096 0.064713 0.719000 33 83 0
-0.297316 0.067505 0.729000 42 52 40
-0.295426 0.067505 0.729000 36 45 36
-0.293537 0.067505 0.729000 36 45 36
-0.291648 0.067505 0.729000 34 43 36
-0.290156 0.067598 0.730000 36 45 38
-0.288264 0.067598 0.730000 34 46 38
-0.286373 0.067598 0.730000 33 45 37
-0.043428 0.066394 0.717000 60 85 39
-0.041512 0.066301 0.716000 147 198 100
-0.039712 0.066394 0.717000 130 181 83
-0.037854 0.066394 0.717000 136 188 99
-0.036146 0.066672 0.720000 31 83 0
-0.297724 0.069492 0.730000 49 57 44
-0.295426 0.069397 0.729000 44 51 43
-0.293940 0.069492 0.730000 40 47 39
-0.292048 0.069492 0.730000 39 48 41
-0.290156 0.069492 0.730000 39 48 41
-0.288264 0.069492 0.730000 33 45 37
-0.286373 0.069492 0.730000 34 46 38
-0.043428 0.068254 0.717000 58 80 35
-0.041512 0.068159 0.716000 145 194 97
-0.039712 0.068254 0.717000 131 180 83
-0.037854 0.068254 0.717000 136 188 99
-0.036146 0.068540 0.720000 33 85 0
-0.295426 0.071289 0.729000 61 71 59
-0.293537 0.071289 0.729000 46 56 44
-0.291648 0.071289 0.729000 38 47 40
-0.289759 0.071289 0.729000 34 43 36
-0.288264 0.071386 0.730000 35 44 35
-0.286373 0.071386 0.730000 41 50 41
-0.043428 0.070115 0.717000 57 78 36
-0.041512 0.070017 0.716000 142 193 95
-0.039712 0.070115 0.717000 131 182 84
-0.037854 0.070115 0.717000 134 188 101
-0.036146 0.070408 0.720000 34 88 1
-0.295426 0.073180 0.729000 52 62 50
-0.293537 0.073180 0.729000 45 55 43
-0.291648 0.073180 0.729000 36 45 36
-0.289759 0.073180 0.729000 33 42 33
-0.287869 0.073180 0.729000 35 45 33
-0.286373 0.073281 0.730000 46 56 44
-0.043428 0.071976 0.717000 55 76 34
-0.041512 0.071875 0.716000 143 194 98
-0.039712 0.071976 0.717000 131 182 86
-0.037854 0.071976 0.717000 134 188 101
-0.036146 0.072277 0.720000 36 90 3
-0.294616 0.074866 0.727000 46 56 42
-0.292732 0.074866 0.727000 42 52 38
-0.290848 0.074866 0.727000 37 50 35
-0.289361 0.074969 0.728000 33 46 31
-0.287869 0.075072 0.729000 33 46 31
-0.285980 0.075072 0.729000 43 56 41
-0.043428 0.073836 0.717000 53 77 34
-0.041512 0.073733 0.716000 145 195 102
-0.039712 0.073836 0.717000 138 188 95
-0.037906 0.073939 0.718000 136 190 103
-0.036146 0.074145 0.720000 38 92 5
-0.292329 0.076647 0.726000 39 53 33
-0.290448 0.076647 0.726000 37 61 31
-0.288964 0.076753 0.727000 37 61 31
-0.287080 0.076753 0.727000 31 52 30
-0.285588 0.076858 0.728000 36 57 35
-0.043428 0.075697 0.717000 53 79 35
-0.041512 0.075591 0.716000 144 194 101
-0.039712 0.075697 0.717000 138 188 95
-0.037906 0.075802 0.718000 136 190 105
-0.036196 0.076119 0.721000 37 91 6
-0.291927 0.078423 0.725000 75 90 65
-0.290048 0.078423 0.725000 103 140 88
-0.288169 0.078423 0.725000 97 134 82
-0.286290 0.078423 0.725000 72 100 62
-0.285196 0.078639 0.727000 57 85 47
-0.043428 0.077558 0.717000 55 82 35
-0.041512 0.077449 0.716000 143 194 98
-0.039712 0.077558 0.717000 130 181 85
-0.037906 0.077666 0.718000 134 188 101
-0.036196 0.077990 0.721000 31 85 0
-0.291121 0.080083 0.723000 127 144 118
-0.288848 0.079972 0.722000 114 155 92
-0.287374 0.080083 0.723000 93 134 71
-0.285895 0.080193 0.724000 86 121 67
-0.284019 0.080193 0.724000 59 94 40
-0.043428 0.079418 0.717000 58 85 36
-0.041512 0.079307 0.716000 142 193 95
-0.039712 0.079418 0.717000 129 180 82
-0.037906 0.079529 0.718000 134 188 101
-0.036196 0.079861 0.721000 31 85 0
-0.289913 0.081619 0.720000 114 131 105
-0.287647 0.081505 0.719000 119 163 95
-0.285784 0.081505 0.719000 100 144 76
-0.284316 0.081619 0.720000 91 132 69
-0.282842 0.081732 0.721000 46 87 24
-0.282142 0.082072 0.724000 51 70 44
-0.043368 0.081165 0.716000 61 88 39
-0.041512 0.081165 0.716000 144 196 95
-0.039712 0.081279 0.717000 137 189 88
-0.037959 0.081505 0.719000 138 190 101
-0.036196 0.081732 0.721000 31 83 0
-0.289108 0.083255 0.718000 100 115 88
-0.287247 0.083255 0.718000 122 167 96
-0.285387 0.083255 0.718000 99 144 73
-0.282450 0.083487 0.720000 43 88 17
-0.280973 0.083603 0.721000 48 70 41
-0.043307 0.082907 0.715000 64 94 44
-0.041512 0.083023 0.716000 145 198 100
-0.039712 0.083139 0.717000 136 189 91
-0.037959 0.083371 0.719000 136 187 101
-0.288705 0.085000 0.717000 88 103 76
-0.286847 0.085000 0.717000 129 171 101
-0.284989 0.085000 0.717000 98 140 70
-0.283526 0.085119 0.718000 88 135 61
-0.280584 0.085356 0.720000 46 69 35
-0.043186 0.084526 0.713000 81 113 64
-0.041454 0.084763 0.715000 138 194 97
-0.039712 0.085000 0.717000 133 189 92
-0.037959 0.085237 0.719000 133 181 100
-0.288303 0.086739 0.716000 65 80 51
-0.286047 0.086618 0.715000 130 172 102
-0.284592 0.086739 0.716000 107 149 79
-0.283131 0.086861 0.717000 87 135 58
-0.281665 0.086982 0.718000 71 119 42
-0.043186 0.086376 0.713000 94 128 79
-0.041454 0.086618 0.715000 138 194 97
-0.039712 0.086861 0.717000 137 193 96
-0.037959 0.087103 0.719000 126 172 92
-0.287497 0.088350 0.714000 56 66 41
-0.284847 0.088102 0.712000 125 166 99
-0.283002 0.088102 0.712000 114 155 88
-0.282736 0.088597 0.716000 96 146 67
-0.281273 0.088721 0.717000 79 129 50
-0.280194 0.088969 0.719000 39 68 25
-0.043125 0.088102 0.712000 110 144 93
-0.041454 0.088474 0.715000 134 195 96
-0.039712 0.088721 0.717000 133 194 95
-0.038012 0.089092 0.720000 115 161 83
-0.283247 0.089445 0.708000 115 154 90
-0.281412 0.089445 0.708000 123 162 98
-0.281551 0.090076 0.713000 102 152 71
-0.281273 0.090582 0.717000 82 132 51
-0.279804 0.090708 0.718000 44 76 25
-0.043065 0.089824 0.711000 125 162 110
-0.041454 0.090329 0.715000 127 187 91
-0.039767 0.090708 0.718000 131 191 95
-0.038065 0.091087 0.721000 101 149 70
-0.282847 0.091153 0.707000 84 122 63
-0.280617 0.091024 0.706000 127 165 106
-0.280762 0.091669 0.711000 100 151 67
-0.280488 0.092185 0.715000 84 135 51
-0.279415 0.092442 0.717000 60 98 41
-0.043004 0.091540 0.710000 134 172 117
-0.041454 0.092185 0.715000 124 184 88
-0.039767 0.092571 0.718000 135 195 99
-0.038065 0.092958 0.721000 86 134 57
-0.282046 0.092725 0.705000 68 101 45
-0.280219 0.092725 0.705000 134 167 111
-0.279577 0.093119 0.708000 109 160 74
-0.279704 0.093777 0.713000 88 139 53
-0.279415 0.094303 0.717000 76 115 53
-0.042944 0.093251 0.709000 141 179 120
-0.041454 0.094040 0.715000 124 184 88
-0.039767 0.094435 0.718000 134 194 98
-0.038065 0.094829 0.721000 62 110 41
-0.282046 0.094554 0.705000 57 87 37
-0.279424 0.094286 0.703000 137 167 117
-0.278787 0.094688 0.706000 116 167 81
-0.278919 0.095359 0.711000 84 135 49
-0.279025 0.096030 0.716000 90 132 62
-0.044655 0.094822 0.707000 59 103 37
-0.042944 0.095091 0.709000 143 187 121
-0.041512 0.096030 0.716000 127 187 95
-0.039767 0.096298 0.718000 133 193 101
-0.279027 0.095974 0.702000 130 156 114
-0.277997 0.096247 0.704000 118 169 83
-0.277742 0.096794 0.708000 88 139 53
-0.278245 0.097614 0.714000 92 140 63
-0.277556 0.098024 0.717000 35 83 6
-0.044655 0.096657 0.707000 81 128 56
-0.043004 0.097067 0.710000 142 189 117
-0.041570 0.098024 0.717000 136 196 102
-0.039823 0.098298 0.719000 129 189 95
-0.277208 0.097795 0.702000 128 178 99
-0.276565 0.098213 0.705000 102 152 73
-0.277076 0.099049 0.711000 90 140 59
-0.276467 0.100163 0.719000 42 67 30
-0.046553 0.098631 0.708000 26 48 21
-0.044592 0.098352 0.706000 100 150 71
-0.043065 0.099049 0.711000 136 186 107
-0.041570 0.099885 0.717000 138 195 100
-0.039823 0.100163 0.719000 114 171 76
-0.277040 0.098907 0.697000 64 88 58
-0.276173 0.099901 0.704000 116 166 89
-0.275907 0.100468 0.708000 90 144 59
-0.276782 0.101462 0.715000 66 120 35
-0.275698 0.101746 0.717000 39 68 25
-0.046355 0.100043 0.705000 33 57 27
-0.044528 0.100043 0.705000 118 169 85
-0.043186 0.101178 0.713000 135 186 102
-0.041570 0.101746 0.717000 140 197 102
-0.039878 0.102171 0.720000 79 136 41
-0.276245 0.100427 0.695000 45 64 36
-0.275781 0.101583 0.703000 124 173 99
-0.275128 0.102017 0.706000 94 153 64
-0.275621 0.102884 0.712000 80 139 50
-0.275698 0.103606 0.717000 38 70 21
-0.046290 0.101728 0.704000 39 67 29
-0.044528 0.101872 0.705000 131 185 98
-0.043186 0.103028 0.713000 132 186 99
-0.041570 0.103606 0.717000 140 194 107
-0.039878 0.104040 0.720000 56 110 23
-0.274211 0.102819 0.699000 127 171 103
-0.274348 0.103555 0.704000 102 162 68
-0.274847 0.104437 0.710000 84 144 50
-0.046224 0.103407 0.703000 68 99 55
-0.044528 0.103702 0.705000 137 192 102
-0.043186 0.104878 0.713000 130 185 95
-0.041570 0.105467 0.717000 134 188 103
-0.274049 0.103884 0.694000 83 121 64
-0.273959 0.105232 0.703000 104 160 72
-0.272911 0.105531 0.705000 94 150 62
-0.271853 0.105830 0.707000 66 110 44
-0.046224 0.105232 0.703000 108 142 91
-0.044655 0.105830 0.707000 138 195 102
-0.043307 0.107028 0.715000 137 194 101
-0.041628 0.107477 0.718000 125 176 92
-0.272864 0.105229 0.691000 56 88 39
-0.273035 0.105990 0.696000 141 173 124
-0.271231 0.105990 0.696000 118 174 86
-0.269931 0.106904 0.702000 86 135 61
-0.048114 0.107208 0.704000 28 66 9
-0.046224 0.107056 0.703000 127 165 108
-0.044718 0.107817 0.708000 131 188 93
-0.043307 0.108883 0.715000 143 200 105
-0.041686 0.109493 0.719000 88 136 59
-0.267104 0.106867 0.690000 91 145 60
-0.048046 0.108880 0.703000 56 97 30
-0.046290 0.109035 0.704000 143 184 117
-0.044844 0.109964 0.710000 138 196 98
-0.043428 0.111049 0.717000 143 201 103
-0.263233 0.107083 0.680000 115 163 82
-0.264163 0.108185 0.687000 92 143 59
-0.049726 0.110390 0.701000 32 48 25
-0.046290 0.110862 0.704000 142 190 109
-0.044907 0.111964 0.711000 138 195 102
-0.043428 0.112909 0.717000 129 186 93
-0.266758 0.108847 0.680000 65 82 56
-0.264996 0.108847 0.680000 138 184 108
-0.263233 0.108847 0.680000 123 169 93
-0.261087 0.108687 0.679000 97 151 64
-0.049584 0.111889 0.699000 43 65 36
-0.046290 0.112689 0.704000 140 192 103
-0.044971 0.113969 0.712000 141 196 102
-0.043428 0.114770 0.717000 104 159 65
-0.264606 0.110449 0.679000 125 164 98
-0.262459 0.110286 0.678000 138 177 111
-0.260702 0.110286 0.678000 111 166 74
-0.258945 0.110286 0.678000 101 156 64
-0.051616 0.114190 0.702000 25 54 13
-0.049655 0.113865 0.700000 75 104 63
-0.046355 0.114678 0.705000 132 190 92
-0.045034 0.115980 0.713000 143 198 108
-0.264216 0.112046 0.678000 81 114 58
-0.262072 0.111881 0.677000 145 178 122
-0.260318 0.111881 0.677000 123 178 84
-0.051616 0.116012 0.702000 25 59 8
-0.049797 0.116012 0.702000 110 144 93
-0.046487 0.116838 0.707000 138 196 98
-0.045223 0.118326 0.716000 129 179 100
-0.264216 0.113805 0.678000 47 76 31
-0.261685 0.113470 0.676000 136 165 120
-0.259933 0.113470 0.676000 127 182 90
-0.258181 0.113470 0.676000 103 158 66
-0.051616 0.117834 0.702000 45 89 25
-0.048046 0.118002 0.703000 135 196 95
-0.046750 0.119345 0.711000 142 203 102
-0.045286 0.120352 0.717000 84 128 62
-0.261298 0.115053 0.675000 103 126 90
-0.259549 0.115053 0.675000 140 190 101
-0.257799 0.115053 0.675000 122 172 83
-0.053588 0.119996 0.704000 36 53 25
-0.051690 0.119826 0.703000 91 139 62
-0.049868 0.119826 0.703000 145 193 116
-0.048183 0.120167 0.705000 136 193 98
-0.046947 0.121701 0.714000 139 196 101
-0.260911 0.116632 0.674000 64 83 57
-0.259164 0.116632 0.674000 143 186 111
-0.257035 0.116459 0.673000 139 182 107
-0.255291 0.116459 0.673000 107 162 72
-0.053511 0.121650 0.703000 54 77 43
-0.051690 0.121650 0.703000 130 179 95
-0.050010 0.121996 0.705000 142 191 107
-0.048524 0.122862 0.710000 148 199 113
-0.047144 0.124073 0.717000 109 160 74
-0.258395 0.118030 0.672000 110 148 89
-0.256653 0.118030 0.672000 147 185 126
-0.254533 0.117854 0.671000 123 178 88
-0.252794 0.117854 0.671000 95 150 60
-0.055412 0.123650 0.704000 37 67 19
-0.053207 0.122772 0.699000 95 125 77
-0.050081 0.124001 0.706000 133 188 94
-0.048934 0.125758 0.716000 144 192 111
-0.258010 0.119595 0.671000 64 95 49
-0.256272 0.119595 0.671000 148 179 133
-0.254153 0.119417 0.670000 139 190 104
-0.252417 0.119417 0.670000 114 165 79
-0.057318 0.125655 0.705000 47 62 37
-0.055018 0.124586 0.699000 64 102 43
-0.052979 0.124051 0.696000 131 169 110
-0.049939 0.125477 0.704000 140 195 101
-0.048934 0.127616 0.716000 106 150 82
-0.255890 0.121156 0.670000 119 143 111
-0.253774 0.120975 0.669000 154 203 119
-0.252040 0.120975 0.669000 131 180 96
-0.249932 0.120794 0.668000 104 158 73
-0.056749 0.126219 0.698000 42 64 33
-0.054625 0.125496 0.694000 113 163 86
-0.053131 0.126219 0.698000 140 190 113
-0.050506 0.128751 0.712000 140 197 104
-0.255508 0.122711 0.669000 61 77 54
-0.253395 0.122528 0.668000 151 194 119
-0.251663 0.122528 0.668000 146 189 114
-0.249558 0.122344 0.667000 122 177 85
-0.058054 0.126930 0.692000 30 61 19
-0.056261 0.126930 0.692000 72 103 61
-0.054468 0.126930 0.692000 132 188 100
-0.053055 0.127847 0.697000 135 191 103
-0.253395 0.124261 0.668000 114 148 83
-0.251287 0.124075 0.667000 156 190 125
-0.249558 0.124075 0.667000 133 188 94
-0.247458 0.123889 0.666000 100 155 61
-0.057970 0.128539 0.691000 44 84 24
-0.056261 0.128725 0.692000 114 154 94
-0.054468 0.128725 0.692000 136 196 100
-0.051910 0.131330 0.706000 141 190 118
-0.253015 0.125806 0.667000 60 88 36
-0.251287 0.125806 0.667000 142 170 118
-0.249184 0.125617 0.666000 146 198 109
-0.247458 0.125617 0.666000 119 171 82
-0.059761 0.130333 0.691000 42 62 29
-0.057970 0.130333 0.691000 93 141 62
-0.056180 0.130333 0.691000 129 177 98
-0.054468 0.130521 0.692000 138 195 104
-0.250910 0.127346 0.666000 83 103 68
-0.249184 0.127346 0.666000 152 201 115
-0.247086 0.127154 0.665000 142 191 105
-0.245363 0.127154 0.665000 111 168 75
-0.061552 0.132126 0.691000 34 62 10
-0.059761 0.132126 0.691000 75 103 51
-0.057970 0.132126 0.691000 127 179 90
-0.056180 0.132126 0.691000 134 186 97
-0.054389 0.132126 0.691000 146 200 115
-0.248810 0.128880 0.665000 120 161 87
-0.247086 0.128880 0.665000 158 199 125
-0.244994 0.128686 0.664000 128 185 90
-0.243273 0.128686 0.664000 96 153 58
-0.061463 0.133725 0.690000 48 85 15
-0.059675 0.133725 0.690000 117 154 84
-0.057886 0.133725 0.690000 140 196 97
-0.056098 0.133725 0.690000 144 200 101
-0.248810 0.130606 0.665000 64 91 42
-0.246715 0.130409 0.664000 147 174 125
-0.244994 0.130409 0.664000 146 201 109
-0.242907 0.130213 0.663000 119 174 82
-0.241189 0.130213 0.663000 96 153 58
-0.239109 0.130016 0.662000 65 122 27
-0.063159 0.135319 0.689000 43 66 32
-0.061374 0.135319 0.689000 99 151 58
-0.059675 0.135516 0.690000 140 192 99
-0.057886 0.135516 0.690000 139 198 93
-0.246715 0.132132 0.664000 87 103 69
-0.244625 0.131933 0.663000 150 199 115
-0.242907 0.131933 0.663000 152 201 117
-0.240825 0.131734 0.662000 121 180 77
-0.239109 0.131734 0.662000 87 146 43
-0.064851 0.136908 0.688000 33 68 14
-0.063159 0.137107 0.689000 90 125 71
-0.061374 0.137107 0.689000 128 187 80
-0.059588 0.137107 0.689000 136 195 88
-0.244256 0.133452 0.662000 102 146 80
-0.242540 0.133452 0.662000 159 203 137
-0.240461 0.133251 0.661000 144 202 102
-0.238748 0.133251 0.661000 117 175 75
-0.234966 0.133049 0.660000 47 97 8
-0.066537 0.138492 0.687000 34 53 25
-0.064756 0.138492 0.687000 75 125 44
-0.063068 0.138694 0.688000 126 176 95
-0.061285 0.138694 0.688000 136 198 90
-0.242174 0.134966 0.661000 132 165 121
-0.239733 0.134558 0.659000 154 211 120
-0.238026 0.134558 0.659000 147 204 113
-0.236318 0.134558 0.659000 117 170 72
-0.068218 0.140071 0.686000 27 60 6
-0.066440 0.140071 0.686000 75 108 54
-0.064756 0.140275 0.687000 114 172 74
-0.062976 0.140275 0.687000 133 191 93
-0.061285 0.140479 0.688000 143 201 101
-0.241441 0.136268 0.659000 67 91 63
-0.239733 0.136268 0.659000 140 187 113
-0.238026 0.136268 0.659000 163 210 136
-0.235959 0.136061 0.658000 146 202 105
-0.234254 0.136061 0.658000 108 164 67
-0.069792 0.141437 0.684000 35 52 24
-0.068118 0.141644 0.685000 65 113 34
-0.066343 0.141644 0.685000 120 168 89
-0.064568 0.141644 0.685000 133 192 89
-0.062884 0.141851 0.686000 139 198 95
-0.239370 0.137768 0.658000 75 108 52
-0.237664 0.137768 0.658000 157 190 134
-0.235601 0.137559 0.657000 160 213 117
-0.233898 0.137559 0.657000 140 193 97
-0.232195 0.137559 0.657000 101 156 62
-0.069690 0.143003 0.683000 71 103 52
-0.068019 0.143212 0.684000 109 167 69
-0.066343 0.143422 0.685000 128 186 88
-0.064568 0.143422 0.685000 146 202 103
-0.237664 0.139476 0.658000 91 113 82
-0.235601 0.139264 0.657000 152 201 115
-0.233898 0.139264 0.657000 159 208 122
-0.231842 0.139052 0.656000 131 187 88
-0.229791 0.138840 0.655000 96 152 53
-0.228093 0.138840 0.655000 71 121 42
-0.071355 0.144563 0.682000 63 111 32
-0.069690 0.144775 0.683000 115 163 84
-0.067920 0.144775 0.683000 121 180 73
-0.066246 0.144987 0.684000 142 201 94
-0.235959 0.141183 0.658000 101 139 80
-0.233898 0.140969 0.657000 160 198 139
-0.231842 0.140754 0.656000 155 211 114
-0.229791 0.140540 0.655000 131 187 90
-0.228093 0.140540 0.655000 101 157 60
-0.226050 0.140325 0.654000 69 125 28
-0.073015 0.146118 0.681000 71 105 56
-0.071355 0.146333 0.682000 111 169 69
-0.069588 0.146333 0.682000 131 189 89
-0.067920 0.146548 0.683000 140 199 92
-0.233542 0.142457 0.656000 100 123 87
-0.231488 0.142239 0.655000 155 201 121
-0.229791 0.142239 0.655000 158 204 124
-0.227745 0.142022 0.654000 136 193 91
-0.226050 0.142022 0.654000 107 164 62
-0.224355 0.142022 0.654000 78 129 45
-0.074670 0.147668 0.680000 78 128 47
-0.072908 0.147668 0.680000 125 175 94
-0.071250 0.147886 0.681000 135 194 87
-0.069588 0.148103 0.682000 144 203 96
-0.234254 0.144598 0.658000 47 62 37
-0.231842 0.144159 0.656000 93 129 68
-0.229791 0.143939 0.655000 157 193 132
-0.228093 0.143939 0.655000 152 208 111
-0.226396 0.143939 0.655000 137 193 96
-0.224355 0.143719 0.654000 114 172 72
-0.222661 0.143719 0.654000 76 134 34
-0.077965 0.148994 0.678000 41 84 27
-0.076320 0.149213 0.679000 92 135 78
-0.074560 0.149213 0.679000 126 184 84
-0.072908 0.149433 0.680000 136 194 94
-0.231488 0.145639 0.655000 43 67 26
-0.229791 0.145639 0.655000 102 126 85
-0.227745 0.145417 0.654000 151 200 114
-0.226050 0.145417 0.654000 157 206 120
-0.224355 0.145417 0.654000 140 198 98
-0.222661 0.145417 0.654000 117 175 75
-0.220628 0.145194 0.653000 82 133 47
-0.079722 0.150753 0.678000 61 92 48
-0.077965 0.150753 0.678000 96 151 68
-0.076320 0.150975 0.679000 129 184 101
-0.074560 0.150975 0.679000 130 192 86
-0.227745 0.147114 0.654000 91 126 68
-0.226050 0.147114 0.654000 158 193 135
-0.224012 0.146889 0.653000 155 210 116
-0.222320 0.146889 0.653000 147 202 108
-0.220628 0.146889 0.653000 118 176 78
-0.218935 0.146889 0.653000 92 150 52
-0.217243 0.146889 0.653000 56 103 31
-0.081359 0.152287 0.677000 74 121 49
-0.079722 0.152512 0.678000 115 162 90
-0.077965 0.152512 0.678000 128 188 92
-0.076208 0.152512 0.678000 135 195 99
-0.226050 0.148811 0.654000 88 107 77
-0.224012 0.148583 0.653000 147 190 115
-0.222320 0.148583 0.653000 161 204 129
-0.220628 0.148583 0.653000 152 208 111
-0.218600 0.148356 0.652000 134 190 93
-0.216911 0.148356 0.652000 102 159 66
-0.215221 0.148356 0.652000 68 125 32
-0.213531 0.148356 0.652000 50 93 36
-0.086494 0.153817 0.676000 49 68 42
-0.084742 0.153817 0.676000 51 92 27
-0.081359 0.154044 0.677000 121 179 81
-0.079722 0.154272 0.678000 131 189 91
-0.077965 0.154272 0.678000 143 205 101
-0.224012 0.150278 0.653000 73 99 57
-0.221980 0.150048 0.652000 144 170 128
-0.220290 0.150048 0.652000 161 213 124
-0.218600 0.150048 0.652000 153 205 116
-0.216911 0.150048 0.652000 139 198 95
-0.214891 0.149818 0.651000 115 174 71
-0.213204 0.149818 0.651000 81 136 53
-0.211516 0.149818 0.651000 52 107 24
-0.088116 0.155341 0.675000 37 72 14
-0.086494 0.155571 0.676000 72 107 49
-0.084742 0.155571 0.676000 106 164 64
-0.081359 0.155801 0.677000 131 190 83
-0.079722 0.156031 0.678000 147 206 99
-0.221980 0.151740 0.652000 72 87 62
-0.220290 0.151740 0.652000 120 159 95
-0.218600 0.151740 0.652000 163 202 138
-0.216578 0.151507 0.651000 152 208 111
-0.214891 0.151507 0.651000 143 199 102
-0.213204 0.151507 0.651000 115 177 73
-0.211516 0.151507 0.651000 81 143 39
-0.209507 0.151274 0.650000 71 121 44
-0.091207 0.156394 0.672000 45 75 27
-0.089732 0.156860 0.674000 61 91 43
-0.088116 0.157092 0.675000 91 142 46
-0.086366 0.157092 0.675000 122 173 77
-0.084742 0.157325 0.676000 126 190 72
-0.081359 0.157558 0.677000 152 210 110
-0.219952 0.153196 0.651000 55 79 38
-0.218600 0.153432 0.652000 104 128 87
-0.216578 0.153196 0.651000 153 200 117
-0.214891 0.153196 0.651000 158 205 122
-0.213204 0.153196 0.651000 149 208 105
-0.211192 0.152961 0.650000 122 181 78
-0.209507 0.152961 0.650000 104 163 58
-0.207823 0.152961 0.650000 78 137 32
-0.205821 0.152726 0.649000 54 100 24
-0.094408 0.157667 0.670000 40 69 26
-0.092810 0.157903 0.671000 53 82 39
-0.091207 0.158138 0.672000 80 128 40
-0.089599 0.158373 0.673000 117 165 77
-0.087985 0.158609 0.674000 129 189 79
-0.086366 0.158844 0.675000 136 196 86
-0.084742 0.159079 0.676000 150 209 102
-0.082991 0.159079 0.676000 153 212 105
-0.218265 0.154886 0.651000 53 64 43
-0.216578 0.154886 0.651000 75 101 50
-0.214891 0.154886 0.651000 146 172 121
-0.212876 0.154648 0.650000 161 211 120
-0.211192 0.154648 0.650000 154 204 113
-0.209507 0.154648 0.650000 137 197 87
-0.207503 0.154410 0.649000 129 189 79
-0.205821 0.154410 0.649000 102 164 58
-0.203824 0.154172 0.648000 79 141 35
-0.202145 0.154172 0.648000 56 98 26
-0.097589 0.158930 0.668000 38 67 24
-0.096001 0.159168 0.669000 56 85 42
-0.094408 0.159406 0.670000 85 134 50
-0.092810 0.159644 0.671000 119 168 84
-0.091207 0.159882 0.672000 130 190 78
-0.089599 0.160120 0.673000 139 199 87
-0.087985 0.160358 0.674000 144 203 96
-0.086366 0.160596 0.675000 158 217 110
-0.214561 0.156334 0.650000 69 81 55
-0.212876 0.156334 0.650000 113 147 82
-0.211192 0.156334 0.650000 164 198 133
-0.209507 0.156334 0.650000 152 209 105
-0.207503 0.156094 0.649000 145 202 98
-0.205821 0.156094 0.649000 133 196 83
-0.203824 0.155853 0.648000 120 183 70
-0.201833 0.155613 0.647000 101 163 59
-0.199847 0.155372 0.646000 76 138 34
-0.101051 0.160664 0.668000 42 74 25
-0.099320 0.160664 0.668000 66 98 49
-0.097589 0.160664 0.668000 82 132 53
-0.096001 0.160904 0.669000 110 160 81
-0.094408 0.161145 0.670000 126 185 78
-0.092810 0.161385 0.671000 133 192 85
-0.091207 0.161626 0.672000 137 196 82
-0.089599 0.161866 0.673000 153 212 98
-0.087985 0.162107 0.674000 159 212 116
-0.211192 0.158021 0.650000 79 98 70
-0.209507 0.158021 0.650000 138 181 106
-0.207503 0.157778 0.649000 161 204 129
-0.205504 0.157535 0.648000 151 211 99
-0.203824 0.157535 0.648000 140 200 88
-0.201521 0.157049 0.646000 135 199 79
-0.199847 0.157049 0.646000 115 179 59
-0.197866 0.156806 0.645000 93 151 51
-0.196194 0.156806 0.645000 72 130 30
-0.104357 0.162154 0.667000 45 76 21
-0.102629 0.162154 0.667000 67 98 43
-0.101051 0.162397 0.668000 90 140 59
-0.099320 0.162397 0.668000 112 162 81
-0.097589 0.162397 0.668000 118 178 68
-0.096001 0.162640 0.669000 129 189 79
-0.094408 0.162883 0.670000 138 197 83
-0.092810 0.163126 0.671000 153 212 98
-0.091071 0.163126 0.671000 159 213 110
-0.209185 0.159462 0.649000 54 78 39
-0.207503 0.159462 0.649000 97 121 82
-0.205504 0.159216 0.648000 146 193 108
-0.203510 0.158971 0.647000 162 209 124
-0.201521 0.158725 0.646000 153 212 98
-0.199538 0.158479 0.645000 146 205 91
-0.197559 0.158234 0.644000 136 197 82
-0.195890 0.158234 0.644000 120 181 66
-0.193920 0.157988 0.643000 102 161 56
-0.192253 0.157988 0.643000 76 135 30
-0.109543 0.163885 0.667000 46 69 35
-0.107814 0.163885 0.667000 49 85 22
-0.106086 0.163885 0.667000 78 114 51
-0.104357 0.163885 0.667000 106 154 62
-0.102629 0.163885 0.667000 120 168 76
-0.100900 0.163885 0.667000 125 183 74
-0.099320 0.164131 0.668000 137 195 86
-0.097589 0.164131 0.668000 145 204 90
-0.096001 0.164376 0.669000 153 212 98
-0.094408 0.164622 0.670000 168 220 119
-0.092810 0.164868 0.671000 148 200 99
-0.091071 0.164868 0.671000 103 139 76
-0.205187 0.160650 0.647000 55 81 30
-0.203510 0.160650 0.647000 107 133 82
-0.201521 0.160401 0.646000 148 191 103
-0.199538 0.160153 0.645000 172 215 127
-0.197559 0.159905 0.644000 157 214 108
-0.195890 0.159905 0.644000 146 203 97
-0.193920 0.159657 0.643000 133 196 85
-0.192253 0.159657 0.643000 114 177 66
-0.190587 0.159657 0.643000 101 161 51
-0.188921 0.159657 0.643000 86 146 36
-0.186963 0.159408 0.642000 75 123 33
-0.116981 0.166361 0.670000 49 71 40
-0.115073 0.166112 0.669000 46 79 33
-0.113339 0.166112 0.669000 59 92 46
-0.111438 0.165864 0.668000 66 112 34
-0.109707 0.165864 0.668000 87 133 55
-0.107814 0.165616 0.667000 107 160 52
-0.106086 0.165616 0.667000 120 173 65
-0.104357 0.165616 0.667000 125 184 66
-0.102629 0.165616 0.667000 137 196 78
-0.101051 0.165864 0.668000 148 206 95
-0.099320 0.165864 0.668000 159 217 106
-0.097589 0.165864 0.668000 164 213 116
-0.096001 0.166112 0.669000 142 191 94
-0.094408 0.166361 0.670000 95 129 66
-0.092672 0.166361 0.670000 57 91 28
-0.201209 0.161827 0.645000 61 84 32
-0.199228 0.161576 0.644000 113 136 84
-0.197559 0.161576 0.644000 147 196 112
-0.195890 0.161576 0.644000 170 219 135
-0.193920 0.161325 0.643000 161 219 119
-0.192253 0.161325 0.643000 152 210 110
-0.190587 0.161325 0.643000 135 198 85
-0.188627 0.161074 0.642000 128 191 78
-0.186963 0.161074 0.642000 117 178 61
-0.185299 0.161074 0.642000 96 157 40
-0.183349 0.160823 0.641000 88 140 49
-0.181688 0.160823 0.641000 71 123 32
-0.117156 0.168350 0.671000 82 122 53
-0.115245 0.168099 0.670000 92 144 55
-0.113170 0.167597 0.668000 110 162 73
-0.111438 0.167597 0.668000 119 181 73
-0.109707 0.167597 0.668000 128 190 82
-0.107814 0.167347 0.667000 143 206 93
-0.106086 0.167347 0.667000 149 212 99
-0.104357 0.167347 0.667000 157 215 104
-0.102629 0.167347 0.667000 160 218 107
-0.101051 0.167597 0.668000 161 213 120
-0.099320 0.167597 0.668000 132 184 91
-0.097589 0.167597 0.668000 80 114 53
-0.096001 0.167848 0.669000 49 83 22
-0.199228 0.163247 0.644000 55 67 41
-0.197559 0.163247 0.644000 64 89 43
-0.195890 0.163247 0.644000 105 130 84
-0.193920 0.162994 0.643000 146 196 117
-0.192253 0.162994 0.643000 167 217 138
-0.190291 0.162740 0.642000 159 218 115
-0.188627 0.162740 0.642000 151 210 107
-0.186963 0.162740 0.642000 139 200 83
-0.185011 0.162487 0.641000 129 190 73
-0.183349 0.162487 0.641000 124 187 76
-0.181405 0.162233 0.640000 122 185 74
-0.179465 0.161980 0.639000 110 166 69
-0.177809 0.161980 0.639000 91 147 50
-0.117156 0.170091 0.671000 122 180 71
-0.115245 0.169838 0.670000 122 186 70
-0.113170 0.169331 0.668000 134 198 82
-0.111438 0.169331 0.668000 144 209 97
-0.109707 0.169331 0.668000 153 218 106
-0.107814 0.169077 0.667000 158 222 115
-0.106086 0.169077 0.667000 164 228 121
-0.104357 0.169077 0.667000 157 207 118
-0.102629 0.169077 0.667000 123 173 84
-0.101051 0.169331 0.668000 68 101 43
-0.099320 0.169331 0.668000 48 81 23
-0.193920 0.164662 0.643000 53 79 37
-0.192253 0.164662 0.643000 94 120 78
-0.190291 0.164406 0.642000 134 177 98
-0.188627 0.164406 0.642000 171 214 135
-0.186963 0.164406 0.642000 172 229 123
-0.185011 0.164150 0.641000 167 224 118
-0.183349 0.164150 0.641000 152 212 100
-0.181405 0.163894 0.640000 145 205 93
-0.179465 0.163638 0.639000 134 193 79
-0.177809 0.163638 0.639000 123 182 68
-0.117156 0.171833 0.671000 147 206 88
-0.115245 0.171577 0.670000 150 211 94
-0.113339 0.171320 0.669000 161 222 105
-0.111438 0.171064 0.668000 162 224 120
-0.109707 0.171064 0.668000 156 218 114
-0.107976 0.171064 0.668000 125 174 90
-0.106086 0.170808 0.667000 94 143 59
-0.188627 0.166072 0.642000 64 88 47
-0.186963 0.166072 0.642000 96 136 65
-0.185011 0.165814 0.641000 142 182 111
-0.183349 0.165814 0.641000 166 216 116
-0.181405 0.165555 0.640000 172 222 122
-0.179465 0.165296 0.639000 169 224 114
-0.177809 0.165296 0.639000 159 214 104
-0.117156 0.173574 0.671000 165 222 116
-0.115245 0.173315 0.670000 153 202 105
-0.113339 0.173057 0.669000 127 176 79
-0.111438 0.172798 0.668000 82 123 56
-0.109707 0.172798 0.668000 48 89 22
-0.185011 0.167477 0.641000 52 72 39
-0.183063 0.167216 0.640000 74 107 49
-0.181405 0.167216 0.640000 107 140 82
-0.179465 0.166954 0.639000 144 191 106
-0.177809 0.166954 0.639000 166 213 128
-0.179184 0.168349 0.638000 46 73 26
-0.177531 0.168349 0.638000 58 85 38
-0.181743 0.206776 0.776000 170 234 143
-0.179732 0.206776 0.776000 168 232 141
-0.177721 0.206776 0.776000 169 233 142
-0.175710 0.206776 0.776000 169 233 142
-0.173699 0.206776 0.776000 167 234 140
-0.171466 0.206510 0.775000 166 233 139
-0.169458 0.206510 0.775000 170 232 137
-0.167449 0.206510 0.775000 170 232 137
-0.165441 0.206510 0.775000 171 223 132
-0.163433 0.206510 0.775000 163 215 124
-0.161424 0.206510 0.775000 161 204 118
-0.159416 0.206510 0.775000 151 194 108
-0.196073 0.209059 0.777000 57 81 38
-0.194059 0.209059 0.777000 59 92 46
-0.192045 0.209059 0.777000 65 98 52
-0.190032 0.209059 0.777000 63 107 54
-0.188018 0.209059 0.777000 67 111 58
-0.186005 0.209059 0.777000 72 121 67
-0.183754 0.208790 0.776000 75 124 70
-0.181743 0.208790 0.776000 76 125 71
-0.179732 0.208790 0.776000 75 124 70
-0.177721 0.208790 0.776000 72 121 67
-0.175710 0.208790 0.776000 70 119 65
-0.173699 0.208790 0.776000 65 116 59
-0.171466 0.208521 0.775000 59 110 53
-0.169458 0.208521 0.775000 61 108 50
-0.167449 0.208521 0.775000 58 105 47
-0.165441 0.208521 0.775000 62 97 43
-0.163433 0.208521 0.775000 50 85 31
-0.161424 0.208521 0.775000 51 74 24
-0.159416 0.208521 0.775000 49 72 22
