ply
format ascii 1.0
element vertex 1510
property float x
property float y
property float z
property uchar red
property uchar green
property uchar blue
end_header
-0.155472 -0.191877 0.635000 61 81 48
-0.154067 -0.192179 0.636000 71 91 58
-0.112737 -0.153804 0.509000 80 111 69
-0.109664 -0.153200 0.507000 76 104 66
-0.114058 -0.152482 0.509000 94 126 75
-0.112737 -0.152482 0.509000 92 124 73
-0.111198 -0.152182 0.508000 91 123 72
-0.109664 -0.151883 0.507000 84 116 65
-0.108135 -0.151583 0.506000 86 118 69
-0.106611 -0.151283 0.505000 82 114 65
-0.105092 -0.150984 0.504000 79 111 72
-0.103578 -0.150684 0.503000 79 111 72
-0.114058 -0.151159 0.509000 104 139 81
-0.112737 -0.151159 0.509000 105 140 82
-0.111198 -0.150862 0.508000 101 136 78
-0.109664 -0.150565 0.507000 98 133 75
-0.108135 -0.150269 0.506000 95 128 70
-0.106611 -0.149972 0.505000 88 121 63
-0.105092 -0.149675 0.504000 85 119 68
-0.103578 -0.149378 0.503000 79 113 62
-0.102070 -0.149081 0.502000 77 113 68
-0.100567 -0.148784 0.501000 71 107 62
-0.114058 -0.149837 0.509000 122 157 99
-0.112737 -0.149837 0.509000 119 154 96
-0.111198 -0.149543 0.508000 124 158 97
-0.109664 -0.149248 0.507000 119 153 92
-0.108135 -0.148954 0.506000 110 146 85
-0.106611 -0.148660 0.505000 107 143 82
-0.105092 -0.148365 0.504000 103 141 82
-0.103578 -0.148071 0.503000 95 133 74
-0.102070 -0.147776 0.502000 90 128 73
-0.099764 -0.146305 0.497000 84 122 67
-0.098277 -0.146010 0.496000 82 118 73
-0.096599 -0.145422 0.494000 78 114 69
-0.114058 -0.148515 0.509000 77 102 56
-0.112737 -0.148515 0.509000 92 117 71
-0.111198 -0.148223 0.508000 104 130 79
-0.109664 -0.147931 0.507000 117 143 92
-0.108135 -0.147640 0.506000 123 156 98
-0.106611 -0.147348 0.505000 123 156 98
-0.105092 -0.147056 0.504000 114 150 89
-0.103578 -0.146764 0.503000 108 144 83
-0.102070 -0.146472 0.502000 103 142 80
-0.099764 -0.145014 0.497000 101 140 78
-0.096403 -0.143846 0.493000 81 121 65
-0.094738 -0.143263 0.491000 73 114 67
-0.093274 -0.142971 0.490000 75 116 69
-0.114058 -0.147193 0.509000 41 52 22
-0.112516 -0.146903 0.508000 39 50 20
-0.111198 -0.146903 0.508000 40 53 20
-0.109664 -0.146614 0.507000 45 58 25
-0.108135 -0.146325 0.506000 50 71 29
-0.106611 -0.146036 0.505000 69 90 48
-0.105092 -0.145747 0.504000 95 120 72
-0.103578 -0.145457 0.503000 118 143 95
-0.101460 -0.144301 0.499000 118 149 92
-0.099764 -0.143722 0.497000 118 149 92
-0.098277 -0.143433 0.496000 110 145 87
-0.096208 -0.142276 0.492000 103 138 80
-0.094545 -0.141698 0.490000 95 135 79
-0.092893 -0.141120 0.488000 87 127 71
-0.091252 -0.140541 0.486000 83 122 71
-0.089620 -0.139963 0.484000 79 118 67
-0.106400 -0.144437 0.504000 42 52 29
-0.104883 -0.144151 0.503000 39 54 25
-0.103578 -0.144151 0.503000 45 60 31
-0.101257 -0.142718 0.498000 70 92 47
-0.099563 -0.142145 0.496000 100 122 77
-0.098078 -0.141858 0.495000 117 145 89
-0.096208 -0.140998 0.492000 124 152 96
-0.094545 -0.140425 0.490000 114 149 91
-0.092703 -0.139565 0.487000 106 141 83
-0.091064 -0.138992 0.485000 95 135 77
-0.089620 -0.138706 0.484000 89 129 71
-0.088182 -0.138419 0.483000 81 120 69
-0.086749 -0.138133 0.482000 83 122 71
-0.085321 -0.137846 0.481000 75 113 67
-0.101257 -0.141424 0.498000 38 50 24
-0.099563 -0.140856 0.496000 39 51 25
-0.097880 -0.140288 0.494000 46 63 22
-0.096012 -0.139436 0.491000 89 106 65
-0.094545 -0.139152 0.490000 118 146 94
-0.092703 -0.138300 0.487000 126 154 102
-0.091064 -0.137732 0.485000 114 149 91
-0.089435 -0.137164 0.483000 106 141 83
-0.088182 -0.137164 0.483000 89 132 73
-0.086749 -0.136880 0.482000 80 123 64
-0.084966 -0.136028 0.479000 74 116 62
-0.083549 -0.135744 0.478000 75 117 63
-0.082137 -0.135460 0.477000 85 115 76
-0.079495 -0.135176 0.476000 51 70 42
-0.095816 -0.137879 0.490000 34 44 19
-0.094159 -0.137317 0.488000 43 60 23
-0.092513 -0.136754 0.486000 76 93 56
-0.090876 -0.136191 0.484000 111 141 91
-0.089435 -0.135910 0.483000 121 151 101
-0.088182 -0.135910 0.483000 108 148 90
-0.086569 -0.135347 0.481000 101 141 83
-0.084966 -0.134784 0.479000 93 136 77
-0.083549 -0.134503 0.478000 81 124 65
-0.082137 -0.134221 0.477000 81 117 70
-0.080899 -0.134221 0.477000 78 114 67
-0.078260 -0.133940 0.476000 70 100 61
-0.092513 -0.135491 0.486000 36 43 19
-0.090876 -0.134934 0.484000 46 64 29
-0.089435 -0.134655 0.483000 81 99 64
-0.088000 -0.134376 0.482000 114 146 95
-0.086209 -0.133540 0.479000 117 149 98
-0.084789 -0.133261 0.478000 107 147 89
-0.083374 -0.132982 0.477000 97 137 79
-0.082137 -0.132982 0.477000 87 127 71
-0.080730 -0.132703 0.476000 77 117 61
-0.079495 -0.132703 0.476000 74 110 63
-0.078095 -0.132425 0.475000 73 109 62
-0.076701 -0.132146 0.474000 79 109 70
-0.089435 -0.133400 0.483000 35 46 25
-0.088000 -0.133124 0.482000 48 69 31
-0.086209 -0.132295 0.479000 90 111 73
-0.084789 -0.132019 0.478000 114 147 93
-0.083374 -0.131743 0.477000 109 142 88
-0.082137 -0.131743 0.477000 98 136 79
-0.080730 -0.131467 0.476000 92 130 73
-0.079328 -0.131191 0.475000 77 116 63
-0.077931 -0.130914 0.474000 74 113 60
-0.076539 -0.130638 0.473000 70 108 64
-0.086029 -0.130777 0.478000 33 47 25
-0.084612 -0.130504 0.477000 54 75 37
-0.083374 -0.130504 0.477000 106 127 89
-0.081964 -0.130230 0.476000 111 146 90
-0.080730 -0.130230 0.476000 107 142 86
-0.079328 -0.129957 0.475000 94 134 78
-0.077931 -0.129683 0.474000 80 120 64
-0.076377 -0.129136 0.472000 70 109 58
-0.074994 -0.128862 0.471000 65 104 53
-0.073772 -0.128862 0.471000 75 108 64
-0.083374 -0.129265 0.477000 36 50 28
-0.081964 -0.128994 0.476000 74 98 59
-0.080560 -0.128723 0.475000 110 134 95
-0.079161 -0.128452 0.474000 114 147 93
-0.077766 -0.128181 0.473000 106 139 85
-0.076377 -0.127910 0.472000 88 126 69
-0.074994 -0.127639 0.471000 76 114 57
-0.073615 -0.127368 0.470000 75 109 58
-0.072396 -0.127368 0.470000 68 102 51
-0.071025 -0.127097 0.469000 74 102 64
-0.081964 -0.127757 0.476000 37 51 29
-0.080560 -0.127489 0.475000 46 60 38
-0.079161 -0.127220 0.474000 97 118 78
-0.077602 -0.126684 0.472000 118 139 99
-0.076216 -0.126415 0.471000 105 138 82
-0.074994 -0.126415 0.471000 91 124 68
-0.073615 -0.126147 0.470000 80 113 57
-0.072242 -0.125878 0.469000 74 107 51
-0.070873 -0.125610 0.468000 73 104 58
-0.069510 -0.125342 0.467000 73 104 58
-0.078994 -0.125723 0.473000 40 51 21
-0.077602 -0.125457 0.472000 84 95 65
-0.076216 -0.125192 0.471000 113 136 86
-0.074834 -0.124926 0.470000 115 138 88
-0.073458 -0.124660 0.469000 96 129 71
-0.072088 -0.124394 0.468000 81 114 56
-0.070722 -0.124128 0.467000 74 107 53
-0.069362 -0.123863 0.466000 70 103 49
-0.068153 -0.123863 0.466000 72 101 58
-0.076054 -0.123705 0.470000 58 75 36
-0.074834 -0.123705 0.470000 104 121 82
-0.073458 -0.123442 0.469000 113 144 89
-0.072088 -0.123178 0.468000 101 132 77
-0.070571 -0.122652 0.466000 88 121 63
-0.069213 -0.122389 0.465000 75 108 50
-0.068006 -0.122389 0.465000 69 99 49
-0.074675 -0.122223 0.469000 41 51 26
-0.073302 -0.121963 0.468000 78 100 55
-0.071780 -0.121441 0.466000 115 137 92
-0.070571 -0.121441 0.466000 103 136 78
-0.069213 -0.121181 0.465000 93 126 68
-0.068006 -0.121181 0.465000 75 108 54
-0.066656 -0.120920 0.464000 75 108 54
-0.065453 -0.120920 0.464000 72 103 57
-0.073145 -0.120489 0.467000 32 47 18
-0.071780 -0.120231 0.466000 72 87 58
-0.070419 -0.119973 0.465000 109 140 87
-0.069213 -0.119973 0.465000 106 137 84
-0.067860 -0.119715 0.464000 89 122 66
-0.066656 -0.119715 0.464000 86 119 63
-0.065311 -0.119457 0.463000 72 106 55
-0.071780 -0.119020 0.466000 32 42 26
-0.070419 -0.118765 0.465000 61 84 48
-0.069064 -0.118509 0.464000 103 126 90
-0.067714 -0.118254 0.463000 103 136 82
-0.066225 -0.117743 0.461000 94 127 73
-0.065029 -0.117743 0.461000 81 113 62
-0.063695 -0.117488 0.460000 72 104 53
-0.062366 -0.117232 0.459000 72 105 59
-0.061175 -0.117232 0.459000 76 109 63
-0.068915 -0.117051 0.463000 57 74 48
-0.067421 -0.116546 0.461000 99 125 81
-0.066082 -0.116293 0.460000 112 138 94
-0.064888 -0.116293 0.460000 96 129 75
-0.063695 -0.116293 0.460000 81 114 60
-0.062366 -0.116040 0.459000 76 110 61
-0.061175 -0.116040 0.459000 75 109 60
-0.059984 -0.116040 0.459000 78 107 66
-0.084155 -0.166096 0.657000 71 100 59
-0.082450 -0.166096 0.657000 33 48 19
-0.067421 -0.115348 0.461000 43 60 30
-0.066082 -0.115098 0.460000 88 105 75
-0.064888 -0.115098 0.460000 113 140 93
-0.063556 -0.114848 0.459000 97 124 77
-0.062366 -0.114848 0.459000 81 114 60
-0.061175 -0.114848 0.459000 78 111 57
-0.059853 -0.114597 0.458000 75 109 60
-0.058665 -0.114597 0.458000 82 116 67
-0.082450 -0.164390 0.657000 75 99 60
-0.066082 -0.113903 0.460000 40 52 28
-0.064747 -0.113655 0.459000 90 109 69
-0.063556 -0.113655 0.459000 118 137 97
-0.062230 -0.113408 0.458000 99 132 78
-0.061041 -0.113408 0.458000 88 121 67
-0.059853 -0.113408 0.458000 78 113 59
-0.058537 -0.113160 0.457000 77 112 58
-0.057351 -0.113160 0.457000 80 111 65
-0.080746 -0.162683 0.657000 73 104 58
-0.079041 -0.162683 0.657000 40 55 26
-0.064747 -0.112463 0.459000 40 51 19
-0.063556 -0.112463 0.459000 91 102 70
-0.062230 -0.112218 0.458000 113 138 90
-0.061041 -0.112218 0.458000 102 127 79
-0.059723 -0.111973 0.457000 85 120 62
-0.058537 -0.111973 0.457000 77 112 54
-0.057226 -0.111728 0.456000 77 112 56
-0.055920 -0.111483 0.455000 79 114 58
-0.079162 -0.161221 0.658000 78 102 63
-0.077454 -0.161221 0.658000 35 59 20
-0.063556 -0.111270 0.459000 42 49 27
-0.062230 -0.111028 0.458000 86 107 65
-0.060908 -0.110785 0.457000 115 136 94
-0.059723 -0.110785 0.457000 98 133 75
-0.058409 -0.110543 0.456000 80 115 57
-0.057100 -0.110301 0.455000 80 116 55
-0.055797 -0.110058 0.454000 78 114 53
-0.054499 -0.109816 0.453000 85 115 67
-0.077572 -0.159754 0.659000 73 103 55
-0.075862 -0.159754 0.659000 40 55 26
-0.062230 -0.109838 0.458000 33 48 19
-0.060908 -0.109598 0.457000 87 102 73
-0.059592 -0.109358 0.456000 115 146 91
-0.058281 -0.109119 0.455000 99 130 75
-0.056975 -0.108879 0.454000 91 125 64
-0.055674 -0.108639 0.453000 86 120 59
-0.054499 -0.108639 0.453000 81 114 58
-0.053324 -0.108639 0.453000 84 117 61
-0.075862 -0.158042 0.659000 76 100 61
-0.074265 -0.158282 0.660000 34 58 19
-0.060775 -0.108174 0.456000 41 50 30
-0.059461 -0.107937 0.455000 86 110 67
-0.058281 -0.107937 0.455000 117 141 98
-0.056975 -0.107699 0.454000 101 134 76
-0.055674 -0.107462 0.453000 93 126 68
-0.054499 -0.107462 0.453000 86 119 61
-0.053206 -0.107225 0.452000 80 113 55
-0.052033 -0.107225 0.452000 81 113 64
-0.074378 -0.156805 0.661000 67 99 50
-0.072663 -0.156805 0.661000 45 60 33
-0.059461 -0.106755 0.455000 39 55 23
-0.058153 -0.106520 0.454000 90 106 74
-0.056975 -0.106520 0.454000 117 145 93
-0.055674 -0.106285 0.453000 102 130 78
-0.054378 -0.106051 0.452000 88 121 63
-0.053088 -0.105816 0.451000 82 115 57
-0.051918 -0.105816 0.451000 80 115 61
-0.074378 -0.155088 0.661000 83 118 64
-0.072773 -0.155322 0.662000 65 85 50
-0.084667 -0.153370 0.661000 48 58 35
-0.056849 -0.105109 0.453000 100 122 77
-0.055551 -0.104877 0.452000 114 136 91
-0.054258 -0.104645 0.451000 101 134 76
-0.052970 -0.104412 0.450000 94 127 69
-0.051803 -0.104412 0.450000 86 120 59
-0.050523 -0.104180 0.449000 85 119 58
-0.049358 -0.104180 0.449000 84 108 65
-0.071163 -0.153834 0.663000 55 79 36
-0.083078 -0.151883 0.662000 48 64 30
-0.055428 -0.103473 0.451000 107 123 89
-0.054138 -0.103243 0.450000 110 138 84
-0.052970 -0.103243 0.450000 99 127 73
-0.051688 -0.103014 0.449000 92 126 65
-0.050523 -0.103014 0.449000 86 120 59
-0.049248 -0.102785 0.448000 89 117 65
-0.048086 -0.102785 0.448000 85 113 61
-0.069547 -0.152341 0.664000 53 69 35
-0.055428 -0.102301 0.451000 61 71 48
-0.054138 -0.102074 0.450000 110 135 87
-0.052853 -0.101848 0.449000 109 134 86
-0.051688 -0.101848 0.449000 99 132 74
-0.050410 -0.101621 0.448000 88 121 63
-0.049248 -0.101621 0.448000 87 120 64
-0.048086 -0.101621 0.448000 89 122 66
-0.046923 -0.101621 0.448000 85 106 66
-0.067825 -0.150616 0.664000 49 70 30
-0.054018 -0.100681 0.449000 66 83 46
-0.052853 -0.100681 0.449000 121 138 101
-0.076438 -0.148892 0.664000 108 139 82
-0.050410 -0.100457 0.448000 96 127 70
-0.049248 -0.100457 0.448000 91 124 66
-0.047978 -0.100233 0.447000 86 119 61
-0.046819 -0.100233 0.447000 88 118 70
-0.067927 -0.149116 0.665000 78 108 60
-0.066202 -0.149116 0.665000 37 54 24
-0.052735 -0.099293 0.448000 79 89 62
-0.051573 -0.099293 0.448000 116 144 90
-0.050410 -0.099293 0.448000 105 133 79
-0.049248 -0.099293 0.448000 91 127 66
-0.047978 -0.099071 0.447000 89 125 64
-0.046819 -0.099071 0.447000 88 121 67
-0.045557 -0.098850 0.446000 88 121 67
-0.066202 -0.147388 0.665000 70 94 55
-0.064476 -0.147388 0.665000 31 55 16
-0.052735 -0.098129 0.448000 43 46 28
-0.051573 -0.098129 0.448000 81 101 56
-0.050298 -0.097910 0.447000 124 144 99
-0.049138 -0.097910 0.447000 106 140 79
-0.047978 -0.097910 0.447000 91 125 64
-0.046714 -0.097691 0.446000 89 122 64
-0.045455 -0.097472 0.445000 88 121 63
-0.044201 -0.097253 0.444000 94 124 76
-0.064476 -0.145661 0.665000 62 92 44
-0.051458 -0.096749 0.447000 43 54 22
-0.050298 -0.096749 0.447000 93 104 72
-0.049028 -0.096533 0.446000 118 147 88
-0.047871 -0.096533 0.446000 108 137 78
-0.046505 -0.096100 0.444000 93 129 66
-0.045353 -0.096100 0.444000 87 123 60
-0.044201 -0.096100 0.444000 86 119 65
-0.042952 -0.095883 0.443000 86 119 65
-0.062845 -0.144150 0.666000 63 82 42
-0.050185 -0.095374 0.446000 50 57 35
-0.049028 -0.095374 0.446000 108 131 79
-0.047656 -0.094946 0.444000 121 144 92
-0.046505 -0.094946 0.444000 99 133 70
-0.045250 -0.094732 0.443000 94 128 65
-0.044101 -0.094732 0.443000 88 122 61
-0.064573 -0.142419 0.666000 84 118 57
-0.062940 -0.142633 0.667000 80 107 60
-0.061209 -0.142633 0.667000 52 79 32
-0.048918 -0.094004 0.445000 58 77 35
-0.047656 -0.093793 0.444000 116 135 93
-0.046505 -0.093793 0.444000 109 141 79
-0.045250 -0.093582 0.443000 102 134 72
-0.044101 -0.093582 0.443000 91 125 62
-0.042952 -0.093582 0.443000 91 125 62
-0.041708 -0.093370 0.442000 92 123 68
-0.061209 -0.140901 0.667000 75 106 51
-0.059479 -0.140901 0.667000 47 65 32
-0.047656 -0.092639 0.444000 76 88 60
-0.046400 -0.092431 0.443000 115 144 85
-0.068131 -0.139168 0.667000 110 139 80
-0.044101 -0.092431 0.443000 99 133 68
-0.042855 -0.092222 0.442000 92 126 61
-0.041708 -0.092222 0.442000 89 123 62
-0.040561 -0.092222 0.442000 94 128 67
-0.059568 -0.139376 0.668000 66 92 48
-0.047549 -0.091280 0.443000 39 49 26
-0.046400 -0.091280 0.443000 92 112 65
-0.045148 -0.091074 0.442000 123 143 96
-0.044002 -0.091074 0.442000 104 136 72
-0.042855 -0.091074 0.442000 100 132 68
-0.041614 -0.090868 0.441000 91 125 62
-0.040470 -0.090868 0.441000 92 126 63
-0.039326 -0.090868 0.441000 93 124 71
-0.057921 -0.137847 0.669000 52 83 30
-0.046400 -0.090129 0.443000 42 56 20
-0.045148 -0.089926 0.442000 112 126 90
-0.044002 -0.089926 0.442000 115 144 85
-0.042855 -0.089926 0.442000 104 133 74
-0.041614 -0.089722 0.441000 95 129 66
-0.040378 -0.089519 0.440000 94 128 65
-0.039236 -0.089519 0.440000 92 125 67
-0.038095 -0.089519 0.440000 91 124 66
-0.056354 -0.136516 0.671000 45 65 30
-0.045148 -0.088777 0.442000 58 68 43
-0.044002 -0.088777 0.442000 118 141 89
-0.042758 -0.088577 0.441000 118 141 89
-0.041614 -0.088577 0.441000 99 133 70
-0.040378 -0.088376 0.440000 96 130 67
-0.039236 -0.088376 0.440000 91 126 68
-0.038095 -0.088376 0.440000 89 124 66
-0.036869 -0.088175 0.439000 68 94 50
-0.035649 -0.087974 0.438000 42 68 24
-0.043902 -0.087431 0.441000 67 84 43
-0.042661 -0.087233 0.440000 122 139 98
-0.041519 -0.087233 0.440000 107 141 78
-0.040378 -0.087233 0.440000 99 133 70
-0.039236 -0.087233 0.440000 94 130 69
-0.038008 -0.087034 0.439000 94 130 69
-0.036869 -0.087034 0.439000 94 126 75
-0.035730 -0.087034 0.439000 72 104 53
-0.043902 -0.086285 0.441000 40 52 24
-0.042661 -0.086090 0.440000 86 98 70
-0.041519 -0.086090 0.440000 114 145 90
-0.040286 -0.085894 0.439000 104 135 80
-0.039147 -0.085894 0.439000 96 132 71
-0.037922 -0.085698 0.438000 92 128 67
-0.036785 -0.085698 0.438000 91 124 70
-0.035649 -0.085698 0.438000 93 126 72
-0.034513 -0.085698 0.438000 53 76 42
-0.042564 -0.084754 0.439000 46 52 35
-0.041425 -0.084754 0.439000 103 127 84
-0.040286 -0.084754 0.439000 114 138 95
-0.039058 -0.084560 0.438000 98 134 73
-0.037922 -0.084560 0.438000 93 129 68
-0.036785 -0.084560 0.438000 90 125 69
-0.035649 -0.084560 0.438000 90 125 69
-0.034513 -0.084560 0.438000 81 107 67
-0.051512 -0.130509 0.676000 39 65 25
-0.041331 -0.083423 0.438000 54 70 36
-0.040194 -0.083423 0.438000 118 134 100
-0.039058 -0.083423 0.438000 103 134 77
-0.037922 -0.083423 0.438000 101 132 75
-0.036785 -0.083423 0.438000 92 127 71
-0.035568 -0.083232 0.437000 90 125 69
-0.053266 -0.128753 0.676000 87 118 72
-0.051512 -0.128753 0.676000 72 103 57
-0.049758 -0.128753 0.676000 44 61 33
-0.040194 -0.082285 0.438000 77 84 62
-0.039058 -0.082285 0.438000 116 144 92
-0.037835 -0.082097 0.437000 108 136 84
-0.036701 -0.082097 0.437000 97 132 74
-0.035568 -0.082097 0.437000 92 127 69
-0.034434 -0.082097 0.437000 86 120 71
-0.051588 -0.127184 0.677000 89 123 74
-0.049832 -0.127184 0.677000 63 86 52
-0.062219 -0.125611 0.678000 39 44 30
-0.038969 -0.080962 0.437000 100 121 79
-0.037835 -0.080962 0.437000 119 140 98
-0.036701 -0.080962 0.437000 103 136 78
-0.035568 -0.080962 0.437000 98 131 73
-0.034434 -0.080962 0.437000 89 123 72
-0.033300 -0.080962 0.437000 87 121 70
-0.049832 -0.125426 0.677000 89 118 75
-0.048076 -0.125426 0.677000 40 69 26
-0.038969 -0.079826 0.437000 50 66 32
-0.037835 -0.079826 0.437000 114 130 96
-0.036701 -0.079826 0.437000 110 141 86
-0.035568 -0.079826 0.437000 102 133 78
-0.034434 -0.079826 0.437000 94 129 73
-0.033300 -0.079826 0.437000 91 126 70
-0.049906 -0.123850 0.678000 86 118 69
-0.048147 -0.123850 0.678000 77 109 60
-0.046388 -0.123850 0.678000 38 53 26
-0.037749 -0.078511 0.436000 67 77 52
-0.036617 -0.078511 0.436000 118 144 93
-0.035568 -0.078691 0.437000 107 133 82
-0.034355 -0.078511 0.436000 97 132 74
-0.033224 -0.078511 0.436000 93 128 70
-0.032093 -0.078511 0.436000 91 126 72
-0.030962 -0.078511 0.436000 85 120 66
-0.046388 -0.122088 0.678000 65 85 50
-0.037749 -0.077378 0.436000 43 49 30
-0.036617 -0.077378 0.436000 86 110 67
-0.035486 -0.077378 0.436000 114 138 95
-0.034355 -0.077378 0.436000 101 134 76
-0.033224 -0.077378 0.436000 101 134 76
-0.032093 -0.077378 0.436000 96 131 73
-0.030962 -0.077378 0.436000 92 127 69
-0.046388 -0.120327 0.678000 89 115 71
-0.044629 -0.120327 0.678000 38 64 20
-0.036617 -0.076246 0.436000 50 68 33
-0.035486 -0.076246 0.436000 110 128 93
-0.034355 -0.076246 0.436000 108 139 86
-0.033224 -0.076246 0.436000 104 135 82
-0.032019 -0.076071 0.435000 96 131 75
-0.030891 -0.076071 0.435000 93 128 72
-0.046456 -0.118741 0.679000 96 126 76
-0.044694 -0.118741 0.679000 78 108 58
-0.042933 -0.118741 0.679000 40 55 26
-0.035405 -0.074941 0.435000 70 85 60
-0.034276 -0.074941 0.435000 118 145 96
-0.033148 -0.074941 0.435000 109 136 87
-0.032019 -0.074941 0.435000 101 134 78
-0.030820 -0.074769 0.434000 98 131 75
-0.029694 -0.074769 0.434000 96 127 72
-0.028568 -0.074769 0.434000 90 121 66
-0.042933 -0.116977 0.679000 71 90 52
-0.035405 -0.073811 0.435000 36 46 30
-0.034197 -0.073641 0.434000 98 122 81
-0.033071 -0.073641 0.434000 116 140 99
-0.031946 -0.073641 0.434000 102 135 77
-0.030820 -0.073641 0.434000 100 133 75
-0.029625 -0.073471 0.433000 94 127 69
-0.028502 -0.073471 0.433000 92 125 67
-0.042996 -0.115382 0.680000 89 113 70
-0.041171 -0.115213 0.679000 41 65 22
-0.034119 -0.072347 0.433000 53 70 40
-0.032995 -0.072347 0.433000 111 128 98
-0.031872 -0.072347 0.433000 108 139 84
-0.030749 -0.072347 0.433000 102 133 78
-0.029625 -0.072347 0.433000 98 133 75
-0.028502 -0.072347 0.433000 92 127 69
-0.027378 -0.072347 0.433000 93 123 73
-0.041232 -0.113616 0.680000 79 109 59
-0.039468 -0.113616 0.680000 33 50 22
-0.032995 -0.071222 0.433000 77 91 69
-0.031872 -0.071222 0.433000 112 139 90
-0.030749 -0.071222 0.433000 106 133 84
-0.029625 -0.071222 0.433000 100 135 77
-0.028436 -0.071057 0.432000 94 129 71
-0.027315 -0.071057 0.432000 90 125 71
-0.026194 -0.071057 0.432000 93 128 74
-0.039526 -0.112014 0.681000 61 84 48
-0.032995 -0.070097 0.433000 40 48 33
-0.031872 -0.070097 0.433000 90 114 73
-0.030678 -0.069935 0.432000 118 142 101
-0.029557 -0.069935 0.432000 101 136 80
-0.028436 -0.069935 0.432000 99 134 78
-0.027315 -0.069935 0.432000 93 128 74
-0.026194 -0.069935 0.432000 91 126 72
-0.025074 -0.069935 0.432000 87 113 71
-0.037814 -0.110407 0.682000 40 66 24
-0.031798 -0.068813 0.432000 46 64 31
-0.030678 -0.068813 0.432000 110 128 95
-0.029557 -0.068813 0.432000 107 140 84
-0.028436 -0.068813 0.432000 103 136 80
-0.027315 -0.068813 0.432000 98 133 77
-0.026134 -0.068653 0.431000 92 127 71
-0.025016 -0.068653 0.431000 93 124 78
-0.037870 -0.108794 0.683000 68 99 53
-0.030678 -0.067690 0.432000 76 86 61
-0.029557 -0.067690 0.432000 111 142 89
-0.028370 -0.067534 0.431000 108 139 86
-0.027252 -0.067534 0.431000 103 138 82
-0.026134 -0.067534 0.431000 103 138 82
-0.024958 -0.067377 0.430000 90 124 73
-0.023842 -0.067377 0.430000 91 125 74
-0.022726 -0.067377 0.430000 55 78 44
-0.030678 -0.066568 0.432000 43 49 30
-0.029488 -0.066414 0.431000 95 119 76
-0.028370 -0.066414 0.431000 117 141 98
-0.027189 -0.066260 0.430000 106 139 83
-0.026073 -0.066260 0.430000 103 136 80
-0.024958 -0.066260 0.430000 94 129 73
-0.023786 -0.066106 0.429000 89 124 68
-0.022674 -0.066106 0.429000 82 111 70
-0.034426 -0.105554 0.685000 40 69 28
-0.029488 -0.065294 0.431000 49 67 32
-0.028304 -0.065143 0.430000 117 135 100
-0.027189 -0.065143 0.430000 110 143 87
-0.026012 -0.064991 0.429000 105 138 82
-0.024899 -0.064991 0.429000 98 133 75
-0.023786 -0.064991 0.429000 91 126 68
-0.022674 -0.064991 0.429000 91 123 74
-0.034477 -0.103926 0.686000 71 103 54
-0.028238 -0.063877 0.429000 89 101 75
-0.027125 -0.063877 0.429000 116 144 92
-0.026012 -0.063877 0.429000 108 136 84
-0.024841 -0.063728 0.428000 101 137 76
-0.023731 -0.063728 0.428000 97 133 72
-0.022621 -0.063728 0.428000 88 125 73
-0.034527 -0.102292 0.687000 88 125 73
-0.032745 -0.102292 0.687000 43 66 32
-0.028238 -0.062763 0.429000 47 56 36
-0.027125 -0.062763 0.429000 101 123 76
-0.025952 -0.062616 0.428000 118 140 93
-0.024841 -0.062616 0.428000 105 139 78
-0.023731 -0.062616 0.428000 102 136 75
-0.022621 -0.062616 0.428000 94 129 73
-0.021510 -0.062616 0.428000 91 126 70
-0.032792 -0.100654 0.688000 81 110 69
-0.031007 -0.100654 0.688000 32 61 20
-0.027062 -0.061504 0.428000 54 73 35
-0.025952 -0.061504 0.428000 124 143 105
-0.024841 -0.061504 0.428000 110 139 80
-0.023731 -0.061504 0.428000 108 137 78
-0.022621 -0.061504 0.428000 96 131 73
-0.021510 -0.061504 0.428000 92 127 69
-0.032840 -0.099010 0.689000 100 129 84
-0.031052 -0.099010 0.689000 52 81 36
-0.043628 -0.097362 0.690000 38 53 26
-0.025952 -0.060392 0.428000 100 115 88
-0.024841 -0.060392 0.428000 114 140 87
-0.023731 -0.060392 0.428000 107 133 80
-0.022621 -0.060392 0.428000 101 135 74
-0.021510 -0.060392 0.428000 99 133 72
-0.020400 -0.060392 0.428000 96 128 79
-0.031097 -0.097362 0.690000 87 119 70
-0.029265 -0.097221 0.689000 38 57 29
-0.025952 -0.059281 0.428000 51 60 40
-0.024841 -0.059281 0.428000 116 136 91
-0.023731 -0.059281 0.428000 114 134 89
-0.022621 -0.059281 0.428000 102 133 76
-0.021510 -0.059281 0.428000 102 133 76
-0.020400 -0.059281 0.428000 94 127 73
-0.019289 -0.059281 0.428000 87 120 66
-0.029307 -0.095569 0.690000 68 90 59
-0.024841 -0.058169 0.428000 74 90 56
-0.023676 -0.058033 0.427000 118 134 100
-0.022621 -0.058169 0.428000 103 134 79
-0.021510 -0.058169 0.428000 102 133 78
-0.020352 -0.058033 0.427000 96 129 73
-0.019289 -0.058169 0.428000 94 127 71
-0.018179 -0.058169 0.428000 95 121 79
-0.027517 -0.093777 0.690000 45 71 29
-0.024841 -0.057057 0.428000 43 55 27
-0.023731 -0.057057 0.428000 104 116 88
-0.022568 -0.056924 0.427000 109 137 85
-0.021510 -0.057057 0.428000 104 132 80
-0.020352 -0.056924 0.427000 101 132 75
-0.019244 -0.056924 0.427000 96 127 70
-0.018137 -0.056924 0.427000 94 124 74
-0.017029 -0.056924 0.427000 80 110 60
-0.025764 -0.092118 0.691000 35 52 26
-0.023676 -0.055814 0.427000 73 80 58
-0.022568 -0.055814 0.427000 116 141 95
-0.021460 -0.055814 0.427000 109 134 88
-0.020352 -0.055814 0.427000 103 134 79
-0.019244 -0.055814 0.427000 99 130 75
-0.018137 -0.055814 0.427000 92 125 71
-0.017029 -0.055814 0.427000 96 129 75
-0.025764 -0.090322 0.691000 57 76 46
-0.022568 -0.054705 0.427000 94 115 77
-0.021460 -0.054705 0.427000 113 134 96
-0.020352 -0.054705 0.427000 102 135 81
-0.019244 -0.054705 0.427000 100 133 79
-0.018137 -0.054705 0.427000 93 126 72
-0.017029 -0.054705 0.427000 94 127 73
-0.025802 -0.088655 0.692000 83 107 68
-0.024006 -0.088655 0.692000 38 62 23
-0.022568 -0.053596 0.427000 62 75 44
-0.021460 -0.053596 0.427000 114 127 96
-0.020352 -0.053596 0.427000 106 137 84
-0.019244 -0.053596 0.427000 106 137 84
-0.018137 -0.053596 0.427000 102 135 79
-0.017029 -0.053596 0.427000 92 125 69
-0.025802 -0.086858 0.692000 97 123 79
-0.024006 -0.086858 0.692000 64 90 46
-0.021460 -0.052486 0.427000 84 91 69
-0.020352 -0.052486 0.427000 116 143 94
-0.019199 -0.052364 0.426000 108 135 86
-0.018094 -0.052364 0.426000 101 134 76
-0.016989 -0.052364 0.426000 96 129 71
-0.015884 -0.052364 0.426000 94 124 76
-0.024041 -0.085183 0.693000 93 123 75
-0.022243 -0.085183 0.693000 43 60 30
-0.021460 -0.051377 0.427000 44 47 31
-0.020305 -0.051257 0.426000 107 132 86
-0.019199 -0.051257 0.426000 117 142 96
-0.018094 -0.051257 0.426000 106 139 83
-0.016949 -0.051137 0.425000 108 141 85
-0.015846 -0.051137 0.425000 95 125 75
-0.024076 -0.083503 0.694000 99 129 79
-0.022275 -0.083503 0.694000 69 92 58
-0.020305 -0.050150 0.426000 81 98 61
-0.019154 -0.050032 0.425000 118 135 98
-0.018052 -0.050032 0.425000 106 137 82
-0.016949 -0.050032 0.425000 104 135 80
-0.015809 -0.049915 0.424000 95 127 76
-0.014709 -0.049915 0.424000 93 125 74
-0.013609 -0.049915 0.424000 97 123 83
-0.020504 -0.081818 0.695000 46 72 32
-0.020257 -0.048928 0.425000 43 54 24
-0.019154 -0.048928 0.425000 112 123 93
-0.018009 -0.048813 0.424000 115 143 91
-0.016909 -0.048813 0.424000 108 136 84
-0.015809 -0.048813 0.424000 105 138 84
-0.014674 -0.048698 0.423000 95 128 74
-0.013577 -0.048698 0.423000 98 129 83
-0.012480 -0.048698 0.423000 80 111 65
-0.019109 -0.047712 0.424000 75 79 56
-0.018009 -0.047712 0.424000 117 142 94
-0.016909 -0.047712 0.424000 110 135 87
-0.015772 -0.047599 0.423000 106 137 82
-0.014674 -0.047599 0.423000 101 132 77
-0.013577 -0.047599 0.423000 94 126 75
-0.012480 -0.047599 0.423000 95 127 76
-0.018782 -0.078544 0.698000 45 67 36
-0.019064 -0.046500 0.423000 41 47 28
-0.017967 -0.046500 0.423000 107 129 84
-0.016869 -0.046500 0.423000 113 135 90
-0.015772 -0.046500 0.423000 103 134 77
-0.014674 -0.046500 0.423000 103 134 77
-0.013577 -0.046500 0.423000 95 128 72
-0.012480 -0.046500 0.423000 93 126 70
-0.018809 -0.076841 0.699000 84 109 72
-0.017967 -0.045402 0.423000 69 88 50
-0.016869 -0.045402 0.423000 121 140 102
-0.015772 -0.045402 0.423000 106 137 80
-0.014674 -0.045402 0.423000 104 135 78
-0.013577 -0.045402 0.423000 99 132 76
-0.012480 -0.045402 0.423000 96 129 73
-0.018809 -0.075025 0.699000 103 129 85
-0.016995 -0.075025 0.699000 46 72 28
-0.016869 -0.044303 0.423000 100 115 86
-0.015772 -0.044303 0.423000 116 144 90
-0.014674 -0.044303 0.423000 109 137 83
-0.013577 -0.044303 0.423000 103 136 78
-0.012480 -0.044303 0.423000 98 131 73
-0.011382 -0.044303 0.423000 97 127 79
-0.017020 -0.073314 0.700000 81 111 63
-0.015203 -0.073314 0.700000 39 56 28
-0.016869 -0.043204 0.423000 58 68 45
-0.015772 -0.043204 0.423000 120 147 98
-0.014674 -0.043204 0.423000 112 139 90
-0.013577 -0.043204 0.423000 107 140 84
-0.012480 -0.043204 0.423000 102 135 79
-0.011382 -0.043204 0.423000 92 124 73
-0.017044 -0.071598 0.701000 87 119 68
-0.015225 -0.071598 0.701000 54 73 43
-0.016869 -0.042105 0.423000 43 49 32
-0.015772 -0.042105 0.423000 105 126 84
-0.014674 -0.042105 0.423000 119 140 98
-0.013577 -0.042105 0.423000 105 138 82
-0.012480 -0.042105 0.423000 102 135 79
-0.011382 -0.042105 0.423000 98 130 79
-0.010285 -0.042105 0.423000 98 130 79
-0.015247 -0.069876 0.702000 85 110 73
-0.013426 -0.069876 0.702000 28 53 16
-0.015772 -0.041006 0.423000 69 86 49
-0.014674 -0.041006 0.423000 123 140 103
-0.013577 -0.041006 0.423000 108 139 86
-0.012480 -0.041006 0.423000 106 137 84
-0.011382 -0.041006 0.423000 97 132 78
-0.010285 -0.041006 0.423000 93 128 74
-0.015269 -0.068149 0.703000 92 121 76
-0.013445 -0.068149 0.703000 50 79 34
-0.026212 -0.066323 0.703000 47 58 28
-0.014674 -0.039907 0.423000 112 123 93
-0.013577 -0.039907 0.423000 116 144 92
-0.012480 -0.039907 0.423000 106 134 82
-0.011382 -0.039907 0.423000 99 134 78
-0.010285 -0.039907 0.423000 92 127 71
-0.009187 -0.039907 0.423000 95 127 76
-0.013445 -0.066323 0.703000 82 114 63
-0.011621 -0.066323 0.703000 33 50 22
-0.014674 -0.038808 0.423000 74 81 57
-0.013545 -0.038716 0.422000 117 143 92
-0.012450 -0.038716 0.422000 106 132 81
-0.011355 -0.038716 0.422000 102 135 79
-0.017117 -0.064589 0.704000 100 133 77
-0.009187 -0.038808 0.423000 96 129 75
-0.013445 -0.064497 0.703000 98 131 77
-0.011621 -0.064497 0.703000 41 61 28
-0.014640 -0.037620 0.422000 44 50 31
-0.022628 -0.062849 0.705000 104 124 79
-0.012450 -0.037620 0.422000 118 138 93
-0.011355 -0.037620 0.422000 105 138 82
-0.010260 -0.037620 0.422000 100 133 77
-0.009166 -0.037620 0.422000 93 128 74
-0.013464 -0.062760 0.704000 97 132 78
-0.011637 -0.062760 0.704000 71 95 56
-0.009811 -0.062760 0.704000 32 56 17
-0.013545 -0.036524 0.422000 73 92 52
-0.012450 -0.036524 0.422000 122 141 101
-0.011355 -0.036524 0.422000 106 139 83
-0.010260 -0.036524 0.422000 103 136 80
-0.009166 -0.036524 0.422000 97 132 78
-0.008071 -0.036524 0.422000 94 129 75
-0.011654 -0.061017 0.705000 96 125 80
-0.009811 -0.060931 0.704000 33 62 17
-0.012450 -0.035428 0.422000 119 132 101
-0.011355 -0.035428 0.422000 111 138 89
-0.010260 -0.035428 0.422000 106 133 84
-0.009166 -0.035428 0.422000 98 133 79
-0.008071 -0.035428 0.422000 93 128 74
-0.011654 -0.059186 0.705000 102 134 85
-0.009825 -0.059186 0.705000 53 85 36
-0.012450 -0.034331 0.422000 89 99 72
-0.011355 -0.034331 0.422000 118 143 95
-0.010260 -0.034331 0.422000 109 134 86
-0.009166 -0.034331 0.422000 99 134 78
-0.008071 -0.034331 0.422000 98 133 77
-0.011687 -0.057517 0.707000 99 131 82
-0.009839 -0.057436 0.706000 93 125 76
-0.008019 -0.057517 0.707000 40 58 25
-0.012450 -0.033235 0.422000 46 55 35
-0.011355 -0.033235 0.422000 112 137 91
-0.010260 -0.033235 0.422000 111 136 90
-0.009166 -0.033235 0.422000 100 135 79
-0.008071 -0.033235 0.422000 99 134 78
-0.006976 -0.033235 0.422000 96 130 79
-0.009895 -0.055917 0.710000 99 133 82
-0.008041 -0.055838 0.709000 55 80 45
-0.011355 -0.032139 0.422000 85 109 68
-0.010260 -0.032139 0.422000 118 142 101
-0.009166 -0.032139 0.422000 103 138 82
-0.008052 -0.032063 0.421000 100 135 79
-0.006959 -0.032063 0.421000 94 128 77
-0.009922 -0.054225 0.712000 98 132 81
-0.008064 -0.054149 0.711000 88 116 78
-0.006211 -0.054072 0.710000 29 57 19
-0.011328 -0.030969 0.421000 51 69 36
-0.010236 -0.030969 0.421000 120 138 105
-0.009144 -0.030969 0.421000 104 139 85
-0.008052 -0.030969 0.421000 100 135 81
-0.006959 -0.030969 0.421000 95 133 78
-0.005867 -0.030969 0.421000 91 129 74
-0.004763 -0.030895 0.420000 99 130 86
-0.006228 -0.052375 0.712000 50 81 37
-0.010236 -0.029875 0.421000 88 103 74
-0.009122 -0.029804 0.420000 112 145 91
-0.008052 -0.029875 0.421000 102 135 81
-0.006943 -0.029804 0.420000 96 134 79
-0.005853 -0.029804 0.420000 91 129 74
-0.004763 -0.029804 0.420000 96 129 85
-0.006246 -0.050667 0.714000 79 112 68
-0.010212 -0.028713 0.420000 62 72 47
-0.009122 -0.028713 0.420000 116 143 94
-0.008032 -0.028713 0.420000 110 137 88
-0.006943 -0.028713 0.420000 97 135 80
-0.005853 -0.028713 0.420000 92 130 75
-0.004763 -0.028713 0.420000 88 124 77
-0.006254 -0.048881 0.715000 97 133 86
-0.004399 -0.048881 0.715000 36 55 25
-0.010212 -0.027622 0.420000 34 45 24
-0.009122 -0.027622 0.420000 103 127 84
-0.008032 -0.027622 0.420000 116 140 97
-0.006943 -0.027622 0.420000 101 136 82
-0.005839 -0.027556 0.419000 97 132 78
-0.004752 -0.027556 0.419000 89 128 77
-0.006272 -0.047155 0.717000 97 136 85
-0.004405 -0.047089 0.716000 63 87 55
-0.009122 -0.026531 0.420000 67 88 50
-0.008013 -0.026468 0.419000 123 144 106
-0.006926 -0.026468 0.419000 105 138 84
-0.005839 -0.026468 0.419000 102 135 81
-0.004752 -0.026468 0.419000 91 131 75
-0.003665 -0.026468 0.419000 90 130 74
-0.004412 -0.045292 0.717000 89 119 80
-0.002551 -0.045292 0.717000 32 62 23
-0.009100 -0.025379 0.419000 35 52 22
-0.008013 -0.025379 0.419000 113 130 100
-0.006926 -0.025379 0.419000 113 146 92
-0.005839 -0.025379 0.419000 103 136 82
-0.004752 -0.025379 0.419000 94 134 78
-0.003665 -0.025379 0.419000 90 130 74
-0.002578 -0.025379 0.419000 96 132 87
-0.002551 -0.043430 0.717000 51 87 42
-0.007994 -0.024233 0.418000 81 96 71
-0.006926 -0.024291 0.419000 116 146 96
-0.005839 -0.024291 0.419000 104 134 84
-0.004741 -0.024233 0.418000 96 136 80
-0.003656 -0.024233 0.418000 88 128 72
-0.002572 -0.024233 0.418000 94 130 83
-0.002555 -0.041625 0.718000 80 116 69
-0.000692 -0.041625 0.718000 28 50 21
-0.007994 -0.023147 0.418000 42 53 34
-0.006910 -0.023147 0.418000 122 149 102
-0.005825 -0.023147 0.418000 109 136 89
-0.004741 -0.023147 0.418000 96 136 80
-0.003656 -0.023147 0.418000 94 134 78
-0.002572 -0.023147 0.418000 92 129 79
-0.001487 -0.023147 0.418000 95 132 82
-0.000693 -0.039815 0.719000 45 69 37
-0.007994 -0.022061 0.418000 28 38 22
-0.006910 -0.022061 0.418000 105 129 88
-0.005825 -0.022061 0.418000 116 140 99
-0.004741 -0.022061 0.418000 99 137 82
-0.003656 -0.022061 0.418000 97 135 80
-0.002572 -0.022061 0.418000 94 131 79
-0.001487 -0.022061 0.418000 97 134 82
-0.000693 -0.037947 0.719000 80 105 68
-0.006910 -0.020975 0.418000 62 85 51
-0.005825 -0.020975 0.418000 123 146 112
-0.004741 -0.020975 0.418000 102 140 85
-0.003656 -0.020975 0.418000 99 137 82
-0.002572 -0.020975 0.418000 94 131 79
-0.001487 -0.020975 0.418000 91 128 76
-0.000694 -0.036130 0.720000 95 124 83
0.001174 -0.036130 0.720000 30 59 18
-0.006910 -0.019889 0.418000 40 57 29
-0.005825 -0.019889 0.418000 120 137 109
-0.004741 -0.019889 0.418000 108 142 91
-0.003656 -0.019889 0.418000 103 137 86
-0.002572 -0.019889 0.418000 95 132 80
-0.001487 -0.019889 0.418000 90 127 75
-0.000695 -0.034307 0.721000 103 134 90
0.001175 -0.034307 0.721000 45 76 32
-0.005825 -0.018803 0.418000 89 106 80
-0.004741 -0.018803 0.418000 119 151 102
-0.003656 -0.018803 0.418000 106 138 89
-0.002572 -0.018803 0.418000 95 133 78
-0.001484 -0.018759 0.417000 91 129 74
-0.000696 -0.032479 0.722000 102 133 87
0.001177 -0.032479 0.722000 80 111 65
-0.005825 -0.017718 0.418000 52 66 44
-0.004729 -0.017675 0.417000 118 147 102
-0.003648 -0.017675 0.417000 106 135 90
-0.002566 -0.017675 0.417000 97 135 80
-0.001484 -0.017675 0.417000 91 129 74
-0.000402 -0.017675 0.417000 94 128 77
0.000681 -0.017718 0.418000 100 134 83
0.003059 -0.030688 0.724000 45 65 32
-0.005811 -0.016592 0.417000 31 42 23
-0.004729 -0.016592 0.417000 99 125 83
-0.003648 -0.016592 0.417000 116 142 100
-0.002566 -0.016592 0.417000 101 139 84
-0.001484 -0.016592 0.417000 96 134 79
-0.000402 -0.016592 0.417000 91 129 74
0.000680 -0.016592 0.417000 102 140 85
0.003063 -0.028847 0.725000 63 87 48
-0.004729 -0.015509 0.417000 71 95 56
-0.003648 -0.015509 0.417000 121 145 106
-0.002566 -0.015509 0.417000 101 139 84
-0.001484 -0.015509 0.417000 96 134 79
-0.000402 -0.015509 0.417000 96 134 79
0.000680 -0.015509 0.417000 98 136 81
0.001762 -0.015509 0.417000 89 118 77
0.004958 -0.027038 0.727000 28 57 16
-0.004729 -0.014425 0.417000 44 62 27
-0.003648 -0.014425 0.417000 121 139 104
-0.002566 -0.014425 0.417000 105 140 86
-0.001484 -0.014425 0.417000 100 135 81
-0.000402 -0.014425 0.417000 98 133 79
0.000680 -0.014425 0.417000 96 131 77
0.001762 -0.014425 0.417000 104 133 90
0.002844 -0.014425 0.417000 45 74 31
-0.003648 -0.013342 0.417000 90 105 80
-0.002566 -0.013342 0.417000 115 147 96
-0.001484 -0.013342 0.417000 105 137 86
-0.000402 -0.013342 0.417000 98 133 77
0.000680 -0.013342 0.417000 93 128 72
0.001762 -0.013342 0.417000 102 132 84
0.002844 -0.013342 0.417000 72 102 54
-0.003648 -0.012259 0.417000 62 73 54
-0.002566 -0.012259 0.417000 118 148 98
-0.001484 -0.012259 0.417000 107 137 87
-0.000402 -0.012259 0.417000 99 134 78
0.000680 -0.012259 0.417000 93 128 72
0.001762 -0.012259 0.417000 99 131 82
0.004971 -0.021431 0.729000 92 124 75
0.006862 -0.021431 0.729000 39 56 28
-0.003648 -0.011175 0.417000 41 51 35
-0.002566 -0.011175 0.417000 117 143 99
-0.001484 -0.011175 0.417000 113 139 95
-0.000402 -0.011175 0.417000 100 135 79
0.000680 -0.011175 0.417000 96 131 75
0.001762 -0.011175 0.417000 95 127 76
0.002844 -0.011175 0.417000 100 132 81
0.006862 -0.019537 0.729000 47 65 32
-0.002566 -0.010092 0.417000 98 124 82
-0.001484 -0.010092 0.417000 116 142 100
-0.000402 -0.010092 0.417000 103 138 82
0.000680 -0.010092 0.417000 100 135 79
0.001762 -0.010092 0.417000 92 127 73
0.002844 -0.010092 0.417000 98 133 79
0.003925 -0.010092 0.417000 67 87 52
-0.002566 -0.009009 0.417000 61 84 50
-0.001484 -0.009009 0.417000 125 148 114
-0.000402 -0.009009 0.417000 104 139 83
0.000680 -0.009009 0.417000 100 135 79
0.001762 -0.009009 0.417000 96 131 75
0.002844 -0.009009 0.417000 97 132 76
0.006872 -0.015771 0.730000 96 120 79
0.008766 -0.015771 0.730000 32 56 15
-0.002566 -0.007926 0.417000 37 56 26
-0.001484 -0.007926 0.417000 121 140 110
-0.000402 -0.007926 0.417000 106 140 89
0.000680 -0.007926 0.417000 101 135 84
0.001762 -0.007926 0.417000 95 133 76
0.002844 -0.007926 0.417000 94 132 75
0.003925 -0.007926 0.417000 102 131 88
0.008766 -0.013875 0.730000 43 72 29
-0.001484 -0.006842 0.417000 99 118 90
-0.000402 -0.006842 0.417000 114 148 97
0.000680 -0.006842 0.417000 101 135 84
0.001762 -0.006842 0.417000 96 134 79
0.002844 -0.006842 0.417000 91 129 74
0.003925 -0.006842 0.417000 103 134 88
0.008766 -0.011978 0.730000 59 90 44
-0.001484 -0.005759 0.417000 76 93 67
-0.000402 -0.005759 0.417000 117 149 100
0.000680 -0.005759 0.417000 107 139 90
0.001762 -0.005759 0.417000 98 133 79
0.002844 -0.005759 0.417000 94 129 75
0.003925 -0.005759 0.417000 101 133 84
0.008778 -0.010095 0.731000 85 117 68
0.010674 -0.010095 0.731000 38 53 26
-0.001484 -0.004676 0.417000 47 61 41
-0.000402 -0.004676 0.417000 120 149 104
0.000680 -0.004676 0.417000 111 140 95
0.001762 -0.004676 0.417000 98 136 81
0.002844 -0.004676 0.417000 92 130 75
0.003925 -0.004676 0.417000 93 127 76
0.005007 -0.004676 0.417000 101 135 84
0.010674 -0.008196 0.731000 49 66 36
-0.001484 -0.003592 0.417000 35 43 28
-0.000401 -0.003584 0.416000 102 128 86
0.000680 -0.003592 0.417000 117 143 101
0.001762 -0.003592 0.417000 101 136 82
0.002844 -0.003592 0.417000 97 132 78
0.003925 -0.003592 0.417000 91 128 76
0.008790 -0.006306 0.732000 99 136 84
0.010674 -0.006297 0.731000 69 91 60
-0.000402 -0.002509 0.417000 72 96 57
0.000680 -0.002509 0.417000 124 148 109
0.001762 -0.002509 0.417000 103 141 84
0.002844 -0.002509 0.417000 96 134 77
0.003925 -0.002509 0.417000 93 133 77
0.008790 -0.004404 0.732000 96 136 80
0.010689 -0.004404 0.732000 82 107 72
0.012588 -0.004404 0.732000 37 62 27
-0.000402 -0.001426 0.417000 52 72 37
0.000678 -0.001422 0.416000 122 142 107
0.001758 -0.001422 0.416000 105 143 88
0.002837 -0.001422 0.416000 97 135 80
0.003916 -0.001422 0.416000 94 134 76
0.005007 -0.001426 0.417000 95 135 77
0.010689 -0.002503 0.732000 93 122 81
0.012588 -0.002503 0.732000 37 66 25
-0.000402 -0.000343 0.417000 40 60 27
0.000680 -0.000343 0.417000 113 133 100
0.001762 -0.000343 0.417000 110 145 91
0.002844 -0.000343 0.417000 100 135 81
0.003925 -0.000343 0.417000 93 133 73
0.005007 -0.000343 0.417000 91 131 71
0.010704 -0.000602 0.733000 100 131 87
0.012605 -0.000602 0.733000 42 73 29
0.000680 0.000741 0.417000 87 104 74
0.001762 0.000741 0.417000 115 148 94
0.002844 0.000741 0.417000 105 138 84
0.003925 0.000741 0.417000 94 134 74
0.005007 0.000741 0.417000 91 131 71
0.006089 0.000741 0.417000 105 138 92
0.012622 0.001304 0.734000 65 98 52
0.000680 0.001824 0.417000 62 74 46
0.001762 0.001824 0.417000 120 153 99
0.002844 0.001824 0.417000 106 139 85
0.003925 0.001824 0.417000 98 138 78
0.005007 0.001824 0.417000 94 134 74
0.006089 0.001824 0.417000 98 135 85
0.012640 0.003215 0.735000 90 127 77
0.000680 0.002907 0.417000 51 61 38
0.001762 0.002907 0.417000 116 146 96
0.002844 0.002907 0.417000 107 137 87
0.003925 0.002907 0.417000 98 138 80
0.005007 0.002907 0.417000 93 133 75
0.006089 0.002907 0.417000 93 132 79
0.007171 0.002907 0.417000 95 134 81
0.014566 0.005131 0.736000 47 66 36
0.001762 0.003991 0.417000 97 126 81
0.002844 0.003991 0.417000 117 146 101
0.003925 0.003991 0.417000 100 140 84
0.005007 0.003991 0.417000 95 135 79
0.006089 0.003991 0.417000 91 131 75
0.012691 0.007063 0.738000 100 140 84
0.014606 0.007063 0.738000 61 84 50
0.001762 0.005074 0.417000 80 106 64
0.002844 0.005074 0.417000 122 148 106
0.003925 0.005074 0.417000 100 140 84
0.005007 0.005074 0.417000 96 136 80
0.006089 0.005074 0.417000 93 132 79
0.012726 0.009004 0.740000 102 141 88
0.014626 0.008992 0.739000 76 101 64
0.001762 0.006157 0.417000 54 77 41
0.002844 0.006157 0.417000 123 146 110
0.003925 0.006157 0.417000 103 142 89
0.005007 0.006157 0.417000 97 136 83
0.006089 0.006157 0.417000 91 130 77
0.007171 0.006157 0.417000 94 133 80
0.014665 0.010941 0.741000 98 123 86
0.001762 0.007241 0.417000 40 60 27
0.002844 0.007241 0.417000 122 142 109
0.003925 0.007241 0.417000 108 145 93
0.005007 0.007241 0.417000 98 135 83
0.006089 0.007241 0.417000 95 133 78
0.007171 0.007241 0.417000 94 132 77
0.014705 0.012901 0.743000 107 136 95
0.016632 0.012901 0.743000 36 65 24
0.001762 0.008324 0.417000 36 53 27
0.002844 0.008324 0.417000 114 131 105
0.003925 0.008324 0.417000 112 146 95
0.005007 0.008324 0.417000 104 138 87
0.006089 0.008324 0.417000 95 133 76
0.007171 0.008324 0.417000 92 130 73
0.014725 0.014851 0.744000 106 135 92
0.016655 0.014851 0.744000 53 82 39
0.002844 0.009407 0.417000 83 99 78
0.003925 0.009407 0.417000 119 153 104
0.005007 0.009407 0.417000 104 138 89
0.006089 0.009407 0.417000 95 133 76
0.007171 0.009407 0.417000 92 130 73
0.008253 0.009407 0.417000 101 132 86
0.016677 0.016806 0.745000 75 106 60
0.002844 0.010490 0.417000 69 82 65
0.003925 0.010490 0.417000 120 151 105
0.005007 0.010490 0.417000 105 136 90
0.006089 0.010490 0.417000 95 135 77
0.007171 0.010490 0.417000 91 131 73
0.008253 0.010490 0.417000 100 134 85
0.016700 0.018767 0.746000 85 119 70
0.018635 0.018767 0.746000 35 54 26
0.002844 0.011574 0.417000 56 66 52
0.003925 0.011574 0.417000 113 142 99
0.005007 0.011574 0.417000 113 142 99
0.006089 0.011574 0.417000 95 135 77
0.007171 0.011574 0.417000 91 131 73
0.008253 0.011574 0.417000 94 131 81
0.016700 0.020705 0.746000 92 129 79
0.018635 0.020705 0.746000 40 62 33
0.002844 0.012657 0.417000 47 55 42
0.003925 0.012657 0.417000 103 129 87
0.005007 0.012657 0.417000 117 143 101
0.006089 0.012657 0.417000 96 136 78
0.007171 0.012657 0.417000 93 133 75
0.008253 0.012657 0.417000 92 129 79
0.009335 0.012657 0.417000 99 136 86
0.018635 0.022643 0.746000 49 73 41
0.003925 0.013740 0.417000 85 109 70
0.005007 0.013740 0.417000 117 141 102
0.006089 0.013740 0.417000 98 136 81
0.007171 0.013740 0.417000 94 132 77
0.008253 0.013740 0.417000 91 131 75
0.009335 0.013740 0.417000 98 138 82
0.018635 0.024581 0.746000 70 93 59
0.003925 0.014824 0.417000 70 93 57
0.005007 0.014824 0.417000 119 142 106
0.006089 0.014824 0.417000 99 137 82
0.007171 0.014824 0.417000 95 133 78
0.008253 0.014824 0.417000 91 131 75
0.009335 0.014824 0.417000 93 133 77
0.018660 0.026554 0.747000 81 106 69
0.003925 0.015907 0.417000 54 74 41
0.005007 0.015907 0.417000 121 141 108
0.006089 0.015907 0.417000 102 140 85
0.007171 0.015907 0.417000 97 135 80
0.008253 0.015907 0.417000 91 131 75
0.009335 0.015907 0.417000 94 134 78
0.018660 0.028495 0.747000 93 122 81
0.020598 0.028495 0.747000 35 64 23
0.003925 0.016990 0.417000 45 62 32
0.005007 0.016990 0.417000 116 133 103
0.006089 0.016990 0.417000 104 138 87
0.007171 0.016990 0.417000 99 133 82
0.008253 0.016990 0.417000 93 133 75
0.009335 0.016990 0.417000 94 134 76
0.018685 0.030476 0.748000 102 131 90
0.020626 0.030476 0.748000 44 73 32
0.003925 0.018073 0.417000 43 58 31
0.005007 0.018073 0.417000 109 124 97
0.006089 0.018073 0.417000 107 141 90
0.007171 0.018073 0.417000 101 135 84
0.008253 0.018073 0.417000 94 134 76
0.009335 0.018073 0.417000 95 135 77
0.018685 0.032420 0.748000 105 136 92
0.020626 0.032420 0.748000 52 83 39
0.005007 0.019157 0.417000 91 106 81
0.006089 0.019157 0.417000 114 148 97
0.007171 0.019157 0.417000 101 135 84
0.008253 0.019157 0.417000 95 133 76
0.009335 0.019157 0.417000 96 134 77
0.018710 0.034409 0.749000 105 136 90
0.020653 0.034409 0.749000 64 95 49
0.005007 0.020240 0.417000 81 92 71
0.006089 0.020240 0.417000 121 153 104
0.007171 0.020240 0.417000 105 137 88
0.008253 0.020240 0.417000 96 134 75
0.009335 0.020240 0.417000 95 133 74
0.018735 0.036403 0.750000 105 139 90
0.020681 0.036403 0.750000 66 100 51
0.005007 0.021323 0.417000 64 73 55
0.006089 0.021323 0.417000 119 151 102
0.007171 0.021323 0.417000 106 138 89
0.008253 0.021323 0.417000 97 135 76
0.009335 0.021323 0.417000 95 133 74
0.010417 0.021323 0.417000 103 137 86
0.020708 0.038402 0.751000 76 110 59
0.022657 0.038402 0.751000 40 57 29
0.005007 0.022407 0.417000 51 60 42
0.006089 0.022407 0.417000 117 147 99
0.007171 0.022407 0.417000 111 141 93
0.008253 0.022407 0.417000 96 134 75
0.009335 0.022407 0.417000 95 133 74
0.010417 0.022407 0.417000 98 132 81
0.020736 0.040407 0.752000 91 125 74
0.022687 0.040407 0.752000 41 60 32
0.005007 0.023490 0.417000 49 54 40
0.006089 0.023490 0.417000 117 144 97
0.007171 0.023490 0.417000 115 142 95
0.008253 0.023490 0.417000 96 136 76
0.009335 0.023490 0.417000 94 134 74
0.010417 0.023490 0.417000 94 132 77
0.011499 0.023490 0.417000 97 135 80
0.022747 0.042473 0.754000 45 67 36
0.006089 0.024573 0.417000 104 128 85
0.007171 0.024573 0.417000 116 140 97
0.008253 0.024573 0.417000 99 137 78
0.009335 0.024573 0.417000 95 133 74
0.010417 0.024573 0.417000 96 131 75
0.011499 0.024573 0.417000 103 138 82
0.022777 0.044491 0.755000 62 85 51
0.006089 0.025656 0.417000 90 111 71
0.007171 0.025656 0.417000 125 146 106
0.008253 0.025656 0.417000 103 138 80
0.009335 0.025656 0.417000 97 132 74
0.010417 0.025656 0.417000 94 129 73
0.011499 0.025656 0.417000 101 136 80
0.022808 0.046514 0.756000 82 105 69
0.006089 0.026740 0.417000 74 93 55
0.007171 0.026740 0.417000 128 147 109
0.008253 0.026740 0.417000 103 136 80
0.009335 0.026740 0.417000 100 133 77
0.010417 0.026740 0.417000 98 133 77
0.011526 0.026804 0.418000 103 138 82
0.012611 0.026804 0.418000 89 112 76
0.006089 0.027823 0.417000 64 82 47
0.007188 0.027890 0.418000 129 147 112
0.008273 0.027890 0.418000 108 141 87
0.009357 0.027890 0.418000 100 133 79
0.010442 0.027890 0.418000 96 131 75
0.011526 0.027890 0.418000 103 138 82
0.012611 0.027890 0.418000 93 117 78
0.024867 0.050642 0.759000 35 59 20
0.006104 0.028976 0.418000 52 69 39
0.007188 0.028976 0.418000 125 142 112
0.008273 0.028976 0.418000 112 144 93
0.009357 0.028976 0.418000 103 135 84
0.010442 0.028976 0.418000 98 133 79
0.011526 0.028976 0.418000 100 135 81
0.012611 0.028976 0.418000 98 122 83
0.024867 0.052614 0.759000 42 66 27
0.006104 0.030062 0.418000 44 61 33
0.007188 0.030062 0.418000 118 135 107
0.008273 0.030062 0.418000 113 145 96
0.009357 0.030062 0.418000 102 134 85
0.010442 0.030062 0.418000 96 134 79
0.011526 0.030062 0.418000 99 137 82
0.012611 0.030062 0.418000 104 130 90
0.024900 0.054657 0.760000 42 68 28
0.007188 0.031147 0.418000 115 132 104
0.008273 0.031147 0.418000 114 146 97
0.009357 0.031147 0.418000 102 134 85
0.010442 0.031147 0.418000 95 133 78
0.011526 0.031147 0.418000 96 134 79
0.012611 0.031147 0.418000 110 136 94
0.024933 0.056706 0.761000 51 77 35
0.007188 0.032233 0.418000 108 125 99
0.008273 0.032233 0.418000 112 145 99
0.009357 0.032233 0.418000 104 137 91
0.010442 0.032233 0.418000 94 131 79
0.011526 0.032233 0.418000 95 132 80
0.012611 0.032233 0.418000 112 138 96
0.024933 0.058683 0.761000 58 84 42
0.007188 0.033319 0.418000 93 109 86
0.008292 0.033399 0.419000 111 144 100
0.009380 0.033399 0.419000 101 134 90
0.010467 0.033399 0.419000 91 130 77
0.011526 0.033319 0.418000 96 135 82
0.012641 0.033399 0.419000 109 138 95
0.024966 0.060740 0.762000 60 89 46
0.007188 0.034405 0.418000 81 92 71
0.008292 0.034487 0.419000 117 148 104
0.009380 0.034487 0.419000 102 133 89
0.010467 0.034487 0.419000 91 130 77
0.011554 0.034487 0.419000 96 135 82
0.012641 0.034487 0.419000 105 136 92
0.024966 0.062719 0.762000 75 106 62
0.007188 0.035491 0.418000 65 72 50
0.008292 0.035576 0.419000 121 152 108
0.009380 0.035576 0.419000 106 137 93
0.010467 0.035576 0.419000 91 130 77
0.011554 0.035576 0.419000 91 130 77
0.012641 0.035576 0.419000 99 132 88
0.024966 0.064699 0.762000 86 119 75
0.007188 0.036577 0.418000 56 63 41
0.008292 0.036664 0.419000 120 149 106
0.009380 0.036664 0.419000 108 137 94
0.010467 0.036664 0.419000 93 132 79
0.011554 0.036664 0.419000 93 132 79
0.012641 0.036664 0.419000 99 132 86
0.024998 0.066766 0.763000 91 124 78
0.026978 0.066766 0.763000 46 60 38
0.007188 0.037663 0.418000 54 63 43
0.008292 0.037753 0.419000 117 146 103
0.009380 0.037753 0.419000 108 137 94
0.010467 0.037753 0.419000 94 131 79
0.011554 0.037753 0.419000 94 131 79
0.012641 0.037753 0.419000 99 132 86
0.024998 0.068748 0.763000 99 132 86
0.026978 0.068748 0.763000 41 55 33
0.007188 0.038749 0.418000 50 58 43
0.008292 0.038841 0.419000 103 132 89
0.009380 0.038841 0.419000 116 145 102
0.010467 0.038841 0.419000 95 132 80
0.011554 0.038841 0.419000 94 131 79
0.012641 0.038841 0.419000 101 133 84
0.025031 0.070823 0.764000 103 135 86
0.027013 0.070823 0.764000 44 59 34
0.008273 0.039835 0.418000 96 125 82
0.009380 0.039930 0.419000 116 145 102
0.010467 0.039930 0.419000 95 132 80
0.011554 0.039930 0.419000 94 131 79
0.012641 0.039930 0.419000 100 132 81
0.013728 0.039930 0.419000 103 135 84
0.027013 0.072808 0.764000 48 60 32
0.008292 0.041018 0.419000 89 115 75
0.009380 0.041018 0.419000 120 146 106
0.010467 0.041018 0.419000 98 136 81
0.011554 0.041018 0.419000 94 132 77
0.012641 0.041018 0.419000 98 131 77
0.013728 0.041018 0.419000 105 138 84
0.027049 0.074890 0.765000 57 73 41
0.008292 0.042107 0.419000 85 110 73
0.009380 0.042107 0.419000 120 145 108
0.010467 0.042107 0.419000 97 135 80
0.011554 0.042107 0.419000 95 133 78
0.012641 0.042107 0.419000 97 131 80
0.013728 0.042107 0.419000 105 139 88
0.027084 0.076978 0.766000 66 84 51
0.008292 0.043195 0.419000 82 105 69
0.009380 0.043195 0.419000 121 144 108
0.010467 0.043195 0.419000 99 136 84
0.011554 0.043195 0.419000 92 129 77
0.012641 0.043195 0.419000 96 130 81
0.013728 0.043195 0.419000 105 139 90
0.027155 0.079174 0.768000 66 86 53
0.008292 0.044284 0.419000 79 102 66
0.009380 0.044284 0.419000 121 144 108
0.010467 0.044284 0.419000 100 134 83
0.011554 0.044284 0.419000 93 127 76
0.012641 0.044284 0.419000 92 129 79
0.013761 0.044390 0.420000 102 139 89
0.027190 0.081275 0.769000 66 86 53
0.008292 0.045372 0.419000 73 93 58
0.009402 0.045481 0.420000 123 143 108
0.010492 0.045481 0.420000 101 135 84
0.011581 0.045481 0.420000 93 127 76
0.012641 0.045372 0.419000 92 129 79
0.013761 0.045481 0.420000 102 139 89
0.027261 0.083489 0.771000 75 98 64
0.008292 0.046461 0.419000 67 85 50
0.009402 0.046572 0.420000 123 141 106
0.010492 0.046572 0.420000 101 135 84
0.011581 0.046572 0.420000 93 127 76
0.012671 0.046572 0.420000 91 128 78
0.013761 0.046572 0.420000 101 138 88
0.027296 0.085603 0.772000 76 101 66
0.008312 0.047663 0.420000 63 81 46
0.009402 0.047663 0.420000 123 141 106
0.010492 0.047663 0.420000 103 137 86
0.011581 0.047663 0.420000 92 126 75
0.012671 0.047663 0.420000 88 127 74
0.013761 0.047663 0.420000 96 135 82
0.027367 0.087836 0.774000 77 102 67
0.008312 0.048754 0.420000 58 78 43
0.009424 0.048870 0.421000 121 141 106
0.010517 0.048870 0.421000 105 139 88
0.011609 0.048870 0.421000 96 130 79
0.012701 0.048870 0.421000 89 126 74
0.013793 0.048870 0.421000 91 128 76
0.027402 0.089963 0.775000 82 110 72
0.008332 0.049964 0.421000 55 78 44
0.009424 0.049964 0.421000 119 142 108
0.010517 0.049964 0.421000 102 139 87
0.011609 0.049964 0.421000 95 132 80
0.012701 0.049964 0.421000 90 127 75
0.013793 0.049964 0.421000 91 128 76
0.027437 0.092095 0.776000 90 118 80
0.008332 0.051057 0.421000 47 66 36
0.009424 0.051057 0.421000 119 138 108
0.010517 0.051057 0.421000 101 138 88
0.011609 0.051057 0.421000 95 132 82
0.012701 0.051057 0.421000 90 127 77
0.013793 0.051057 0.421000 89 126 76
0.027473 0.094232 0.777000 96 121 86
0.008332 0.052151 0.421000 38 57 27
0.009424 0.052151 0.421000 120 139 109
0.010517 0.052151 0.421000 103 136 90
0.011609 0.052151 0.421000 96 129 83
0.012701 0.052151 0.421000 89 125 78
0.025457 0.096250 0.777000 88 124 77
0.027473 0.096250 0.777000 97 125 89
0.029489 0.096250 0.777000 38 66 30
0.009447 0.053371 0.422000 120 137 107
0.010542 0.053371 0.422000 106 139 93
0.011636 0.053371 0.422000 97 130 84
0.012701 0.053245 0.421000 87 123 76
0.025490 0.098395 0.778000 88 124 77
0.027508 0.098395 0.778000 100 128 92
0.029527 0.098395 0.778000 37 65 29
0.009447 0.054467 0.422000 116 133 103
0.010542 0.054467 0.422000 108 144 97
0.011636 0.054467 0.422000 94 130 83
0.012731 0.054467 0.422000 84 120 73
0.013826 0.054467 0.422000 89 125 78
0.014921 0.054467 0.422000 97 125 89
0.029565 0.100545 0.779000 37 65 29
0.009447 0.055564 0.422000 111 128 98
0.010542 0.055564 0.422000 110 143 97
0.011636 0.055564 0.422000 93 126 80
0.012731 0.055564 0.422000 83 121 73
0.013826 0.055564 0.422000 86 124 76
0.014921 0.055564 0.422000 100 128 92
0.029603 0.102701 0.780000 37 65 29
0.009447 0.056660 0.422000 102 119 91
0.010542 0.056660 0.422000 101 134 90
0.011636 0.056660 0.422000 94 127 83
0.012731 0.056660 0.422000 83 121 73
0.013826 0.056660 0.422000 83 121 73
0.027614 0.104861 0.781000 98 128 91
0.029640 0.104861 0.781000 35 65 28
0.017550 0.107301 0.784000 94 111 85
0.010542 0.057756 0.422000 105 138 94
0.011636 0.057756 0.422000 93 126 82
0.012731 0.057756 0.422000 82 120 74
0.013826 0.057756 0.422000 83 121 75
0.027685 0.107164 0.783000 96 125 91
0.029678 0.107027 0.782000 34 63 29
0.009469 0.058992 0.423000 83 98 73
0.010567 0.058992 0.423000 110 143 99
0.011664 0.058992 0.423000 92 125 81
0.012761 0.058992 0.423000 83 119 74
0.013859 0.058992 0.423000 83 119 74
0.027756 0.109477 0.785000 94 123 91
0.029754 0.109337 0.784000 35 64 32
0.009469 0.060091 0.423000 86 100 78
0.010567 0.060091 0.423000 107 140 98
0.011664 0.060091 0.423000 89 122 80
0.012761 0.060091 0.423000 81 119 73
0.013859 0.060091 0.423000 81 119 73
0.027826 0.111800 0.787000 93 122 90
0.029868 0.111800 0.787000 36 65 33
0.009469 0.061190 0.423000 79 93 71
0.010567 0.061190 0.423000 105 137 98
0.011664 0.061190 0.423000 87 119 80
0.012761 0.061190 0.423000 80 118 74
0.013859 0.061190 0.423000 80 118 74
0.027897 0.114134 0.789000 92 121 89
0.029906 0.113989 0.788000 36 65 33
0.009469 0.062289 0.423000 72 86 64
0.010567 0.062289 0.423000 104 136 97
0.011664 0.062289 0.423000 87 119 80
0.012761 0.062289 0.423000 76 114 70
0.013859 0.062289 0.423000 79 117 73
0.027932 0.116331 0.790000 89 120 90
0.029944 0.116184 0.789000 34 65 35
0.009491 0.063537 0.424000 76 90 68
0.010591 0.063537 0.424000 103 135 96
0.011692 0.063537 0.424000 87 119 80
0.012792 0.063537 0.424000 77 115 71
0.013892 0.063537 0.424000 77 115 71
0.027968 0.118533 0.791000 89 120 90
0.030020 0.118533 0.791000 34 65 35
0.009491 0.064639 0.424000 80 96 75
0.010591 0.064639 0.424000 94 126 87
0.011692 0.064639 0.424000 87 119 80
0.012792 0.064639 0.424000 77 115 69
0.013892 0.064639 0.424000 76 114 68
0.014992 0.064639 0.424000 87 118 86
0.030020 0.120588 0.791000 35 66 34
0.009491 0.065740 0.424000 67 83 62
0.010591 0.065740 0.424000 103 138 98
0.011692 0.065740 0.424000 90 125 85
0.012792 0.065740 0.424000 77 115 69
0.013892 0.065740 0.424000 74 112 66
0.028003 0.122798 0.792000 87 116 84
0.030058 0.122798 0.792000 39 68 36
0.009491 0.066842 0.424000 63 81 60
0.010591 0.066842 0.424000 101 136 96
0.011692 0.066842 0.424000 85 120 80
0.012792 0.066842 0.424000 76 114 70
0.013892 0.066842 0.424000 73 111 67
0.028003 0.124856 0.792000 82 109 78
0.030058 0.124856 0.792000 43 70 39
0.009491 0.067943 0.424000 62 80 59
0.010591 0.067943 0.424000 99 131 92
0.011692 0.067943 0.424000 85 117 78
0.012792 0.067943 0.424000 78 114 71
0.013892 0.067943 0.424000 69 105 62
0.014992 0.067943 0.424000 77 99 70
0.030058 0.126913 0.792000 40 62 33
0.009491 0.069045 0.424000 63 81 60
0.010591 0.069045 0.424000 97 129 90
0.011692 0.069045 0.424000 86 118 79
0.012792 0.069045 0.424000 76 109 67
0.013892 0.069045 0.424000 71 104 62
0.015027 0.069208 0.425000 69 91 62
0.030096 0.129133 0.793000 39 61 32
0.009491 0.070146 0.424000 60 80 61
0.010591 0.070146 0.424000 97 129 90
0.011692 0.070146 0.424000 85 117 78
0.012822 0.070312 0.425000 76 112 67
0.013924 0.070312 0.425000 71 107 62
0.015027 0.070312 0.425000 69 91 62
0.009491 0.071248 0.424000 45 65 50
0.010616 0.071416 0.425000 98 130 91
0.011719 0.071416 0.425000 85 117 78
0.012822 0.071416 0.425000 76 112 67
0.013924 0.071416 0.425000 69 105 60
0.015027 0.071416 0.425000 60 84 54
0.009514 0.072520 0.425000 28 47 35
0.010616 0.072520 0.425000 94 124 87
0.011719 0.072520 0.425000 87 117 80
0.012822 0.072520 0.425000 78 111 67
0.013924 0.072520 0.425000 72 105 61
0.015027 0.072520 0.425000 46 70 42
0.010616 0.073624 0.425000 76 103 70
0.011719 0.073624 0.425000 89 116 83
0.012822 0.073624 0.425000 81 112 70
0.013924 0.073624 0.425000 84 115 73
0.015027 0.073624 0.425000 38 59 35
0.010616 0.074728 0.425000 64 88 56
0.011719 0.074728 0.425000 90 114 82
0.012822 0.074728 0.425000 88 114 74
0.013957 0.074904 0.426000 88 114 74
0.015062 0.074904 0.426000 35 53 32
0.010616 0.075832 0.425000 63 85 56
0.011719 0.075832 0.425000 93 115 86
0.012852 0.076011 0.426000 93 117 78
0.013957 0.076011 0.426000 79 103 64
0.011719 0.076936 0.425000 100 115 88
0.012852 0.077117 0.426000 99 117 84
