ply
format ascii 1.0
element vertex 1510
property float x
property float y
property float z
property uchar red
property uchar green
property uchar blue
end_header
0.334834 0.391969 0.511801 61 81 48
0.333452 0.393039 0.511695 71 91 58
0.292296 0.262331 0.488645 80 111 69
0.289259 0.260329 0.487880 76 104 66
0.293384 0.261769 0.490056 94 126 75
0.292083 0.261800 0.489837 92 124 73
0.290562 0.260800 0.489451 91 123 72
0.289047 0.259800 0.489067 84 116 65
0.287537 0.258800 0.488683 86 118 69
0.286031 0.257800 0.488301 82 114 65
0.284531 0.256800 0.487919 79 111 72
0.283036 0.255800 0.487538 79 111 72
0.293171 0.261237 0.491248 104 139 81
0.291869 0.261268 0.491029 105 140 82
0.290349 0.260270 0.490641 101 136 78
0.288834 0.259271 0.490254 98 133 75
0.287324 0.258272 0.489868 95 128 70
0.285820 0.257273 0.489483 88 121 63
0.284320 0.256274 0.489099 85 119 68
0.282826 0.255275 0.488716 79 113 62
0.281336 0.254276 0.488333 77 113 68
0.279852 0.253276 0.487951 71 107 62
0.292958 0.260706 0.492440 122 157 99
0.291656 0.260737 0.492221 119 154 96
0.290136 0.259740 0.491831 124 158 97
0.288622 0.258742 0.491441 119 153 92
0.287112 0.257744 0.491053 110 146 85
0.285608 0.256746 0.490666 107 143 82
0.284109 0.255748 0.490279 103 141 82
0.282615 0.254750 0.489893 95 133 74
0.281126 0.253752 0.489509 90 128 73
0.278843 0.248637 0.488453 84 122 67
0.277374 0.247638 0.488072 82 118 73
0.275716 0.245610 0.487524 78 114 69
0.292745 0.260175 0.493632 77 102 56
0.291443 0.260206 0.493413 92 117 71
0.289923 0.259209 0.493020 104 130 79
0.288409 0.258213 0.492629 117 143 92
0.286900 0.257216 0.492238 123 156 98
0.285396 0.256219 0.491848 123 156 98
0.283898 0.255222 0.491459 114 150 89
0.282404 0.254225 0.491071 108 144 83
0.280916 0.253228 0.490684 103 142 80
0.278634 0.248119 0.489617 101 140 78
0.275315 0.244067 0.488512 81 121 65
0.273670 0.242041 0.487962 73 114 67
0.272225 0.241042 0.487582 75 116 69
0.292531 0.259644 0.494824 41 52 22
0.291010 0.258648 0.494429 39 50 20
0.289711 0.258679 0.494210 40 53 20
0.288197 0.257684 0.493816 45 58 25
0.286688 0.256688 0.493423 50 71 29
0.285185 0.255692 0.493031 69 90 48
0.283686 0.254696 0.492640 95 120 72
0.282193 0.253700 0.492249 118 143 95
0.280100 0.249623 0.491341 118 149 92
0.278426 0.247600 0.490781 118 149 92
0.276958 0.246603 0.490395 110 145 87
0.274914 0.242525 0.489495 103 138 80
0.273273 0.240501 0.488940 95 135 79
0.271642 0.238477 0.488388 87 127 71
0.270021 0.236452 0.487837 83 122 71
0.268411 0.234427 0.487288 79 118 67
0.284764 0.254139 0.494037 42 52 29
0.283269 0.253144 0.493644 39 54 25
0.281982 0.253175 0.493427 45 60 31
0.279690 0.248077 0.492334 70 92 47
0.278019 0.246055 0.491770 100 122 77
0.276554 0.245059 0.491382 117 145 89
0.274708 0.242012 0.490647 124 152 96
0.273068 0.239990 0.490088 114 149 91
0.271249 0.236941 0.489358 106 141 83
0.269632 0.234918 0.488802 95 135 77
0.268208 0.233922 0.488421 89 129 71
0.266790 0.232925 0.488041 81 120 69
0.265376 0.231928 0.487662 83 122 71
0.263968 0.230931 0.487283 75 113 67
0.279481 0.247557 0.493500 38 50 24
0.277811 0.245538 0.492932 39 51 25
0.276151 0.243518 0.492364 46 63 22
0.274309 0.240473 0.491623 89 106 65
0.272862 0.239478 0.491235 118 146 94
0.271045 0.236433 0.490498 126 154 102
0.269429 0.234412 0.489938 114 149 91
0.267823 0.232391 0.489380 106 141 83
0.266587 0.232421 0.489172 89 132 73
0.265174 0.231425 0.488790 80 123 64
0.263416 0.228378 0.488063 74 116 62
0.262018 0.227382 0.487684 75 117 63
0.260625 0.226386 0.487306 85 115 76
0.258020 0.225418 0.486723 51 70 42
0.273910 0.238937 0.492594 34 44 19
0.272277 0.236919 0.492026 43 60 23
0.270653 0.234901 0.491461 76 93 56
0.269040 0.232882 0.490897 111 141 91
0.267620 0.231887 0.490511 121 151 101
0.266385 0.231917 0.490303 108 148 90
0.264795 0.229898 0.489743 101 141 83
0.263215 0.227878 0.489185 93 136 77
0.261818 0.226883 0.488803 81 124 65
0.260425 0.225888 0.488423 81 117 70
0.259205 0.225917 0.488217 78 114 67
0.256603 0.224950 0.487633 70 100 61
0.270450 0.234393 0.492599 36 43 19
0.268838 0.232377 0.492030 46 64 29
0.267418 0.231383 0.491642 81 99 64
0.266003 0.230389 0.491255 114 146 95
0.264239 0.227349 0.490513 117 149 98
0.262840 0.226355 0.490128 107 147 89
0.261446 0.225361 0.489745 97 137 79
0.260225 0.225390 0.489540 87 127 71
0.258839 0.224396 0.489157 77 117 61
0.257621 0.224425 0.488952 74 110 63
0.256242 0.223430 0.488572 73 109 62
0.254868 0.222435 0.488192 79 109 70
0.267215 0.230879 0.492773 35 46 25
0.265801 0.229886 0.492384 48 69 31
0.264039 0.226849 0.491634 90 111 73
0.262640 0.225856 0.491248 114 147 93
0.261246 0.224863 0.490862 109 142 88
0.260026 0.224892 0.490657 98 136 79
0.258639 0.223899 0.490272 92 130 73
0.257258 0.222905 0.489889 77 116 63
0.255882 0.221912 0.489506 74 113 60
0.254511 0.220918 0.489124 70 108 64
0.263662 0.225328 0.492573 33 47 25
0.262266 0.224336 0.492184 54 75 37
0.261046 0.224365 0.491979 106 127 89
0.259657 0.223373 0.491592 111 146 90
0.258440 0.223402 0.491387 107 142 86
0.257059 0.222409 0.491001 94 134 78
0.255683 0.221417 0.490616 80 120 64
0.254155 0.219403 0.490051 70 109 58
0.252792 0.218410 0.489669 65 104 53
0.251587 0.218438 0.489466 75 108 64
0.260846 0.223867 0.493096 36 50 28
0.259458 0.222876 0.492706 74 98 59
0.258075 0.221885 0.492318 110 134 95
0.256697 0.220893 0.491930 114 147 93
0.255325 0.219902 0.491543 106 139 85
0.253957 0.218910 0.491157 88 126 69
0.252595 0.217918 0.490772 76 114 57
0.251237 0.216926 0.490387 75 109 58
0.250035 0.216955 0.490185 68 102 51
0.248686 0.215963 0.489802 74 102 64
0.259258 0.222379 0.493821 37 51 29
0.257876 0.221389 0.493430 46 60 38
0.256499 0.220399 0.493040 97 118 78
0.254966 0.218389 0.492465 118 139 99
0.253602 0.217398 0.492077 105 138 82
0.252397 0.217427 0.491874 91 124 68
0.251040 0.216436 0.491488 80 113 57
0.249689 0.215445 0.491102 74 107 51
0.248342 0.214454 0.490717 73 104 58
0.247000 0.213462 0.490333 73 104 58
0.256138 0.218886 0.493962 40 51 21
0.254769 0.217896 0.493571 84 95 65
0.253404 0.216906 0.493180 113 136 86
0.252045 0.215917 0.492791 115 138 88
0.250692 0.214927 0.492402 96 129 71
0.249343 0.213937 0.492014 81 114 56
0.247999 0.212946 0.491627 74 107 53
0.246661 0.211956 0.491241 70 103 49
0.245469 0.211985 0.491041 72 101 58
0.253051 0.215397 0.494094 58 75 36
0.251849 0.215426 0.493891 104 121 82
0.250495 0.214437 0.493500 113 144 89
0.249147 0.213448 0.493110 101 132 77
0.247657 0.211441 0.492533 88 121 63
0.246322 0.210452 0.492145 75 108 50
0.245132 0.210480 0.491945 69 99 49
0.251498 0.213919 0.494801 41 51 26
0.250148 0.212931 0.494408 78 100 55
0.248654 0.210927 0.493825 115 137 92
0.247462 0.210955 0.493624 103 136 78
0.246127 0.209967 0.493234 93 126 68
0.244937 0.209995 0.493034 75 108 54
0.243610 0.209007 0.492645 75 108 54
0.242423 0.209035 0.492445 72 103 57
0.249801 0.211427 0.495310 32 47 18
0.248458 0.210440 0.494916 72 87 58
0.247121 0.209453 0.494523 109 140 87
0.245932 0.209481 0.494323 106 137 84
0.244602 0.208494 0.493931 89 122 66
0.243415 0.208522 0.493731 86 119 63
0.242094 0.207535 0.493341 72 106 55
0.248263 0.209954 0.496008 32 42 26
0.246926 0.208968 0.495612 61 84 48
0.245595 0.207982 0.495218 103 126 90
0.244268 0.206995 0.494824 103 136 82
0.242809 0.204994 0.494238 94 127 73
0.241630 0.205022 0.494039 81 113 62
0.240319 0.204035 0.493648 72 104 53
0.239012 0.203049 0.493258 72 105 59
0.237839 0.203077 0.493060 76 109 63
0.245258 0.206484 0.496108 57 74 48
0.243795 0.204485 0.495516 99 125 81
0.242479 0.203499 0.495121 112 138 94
0.241302 0.203527 0.494923 96 129 75
0.240126 0.203555 0.494725 81 114 60
0.238820 0.202569 0.494333 76 110 61
0.237646 0.202597 0.494135 75 109 60
0.236472 0.202625 0.493937 78 107 66
0.259365 0.403426 0.532001 71 100 59
0.257685 0.403466 0.531718 33 48 19
0.243602 0.204004 0.496595 43 60 30
0.242286 0.203019 0.496199 88 105 75
0.241110 0.203047 0.496000 113 140 93
0.239802 0.202062 0.495605 97 124 77
0.238628 0.202090 0.495407 81 114 60
0.237454 0.202118 0.495210 78 111 57
0.236156 0.201133 0.494816 75 109 60
0.234985 0.201161 0.494619 82 116 67
0.257410 0.402780 0.533257 75 99 60
0.242093 0.202539 0.497276 40 52 28
0.240783 0.201555 0.496878 90 109 69
0.239609 0.201583 0.496680 118 137 97
0.238307 0.200600 0.496283 99 132 78
0.237136 0.200628 0.496086 88 121 67
0.235964 0.200655 0.495889 78 113 59
0.234672 0.199671 0.495494 77 112 58
0.233503 0.199699 0.495297 80 111 65
0.255454 0.402135 0.534512 73 104 58
0.253774 0.402175 0.534229 40 55 26
0.240591 0.201076 0.497952 40 51 19
0.239417 0.201104 0.497755 91 102 70
0.238115 0.200122 0.497356 113 138 90
0.236944 0.200150 0.497158 102 127 79
0.235649 0.199167 0.496760 85 120 62
0.234481 0.199194 0.496564 77 112 54
0.233194 0.198211 0.496167 77 112 56
0.231912 0.197228 0.495771 79 114 58
0.253611 0.402500 0.535967 78 102 63
0.251928 0.402540 0.535684 35 59 20
0.239225 0.200625 0.498830 42 49 27
0.237923 0.199644 0.498428 86 107 65
0.236627 0.198662 0.498027 115 136 94
0.235458 0.198690 0.497831 98 133 75
0.234169 0.197708 0.497431 80 115 57
0.232885 0.196726 0.497033 80 116 55
0.231607 0.195743 0.496635 78 114 53
0.230334 0.194761 0.496238 85 115 67
0.251762 0.402864 0.537425 73 103 55
0.250076 0.402904 0.537142 40 55 26
0.237731 0.199166 0.499501 33 48 19
0.236435 0.198185 0.499098 87 102 73
0.235144 0.197204 0.498695 115 146 91
0.233859 0.196223 0.498294 99 130 75
0.232578 0.195242 0.497894 91 125 64
0.231302 0.194261 0.497494 86 120 59
0.230144 0.194288 0.497299 81 114 58
0.228985 0.194316 0.497104 84 117 61
0.249800 0.402216 0.538685 76 100 61
0.248219 0.403265 0.538603 34 58 19
0.236120 0.196700 0.499960 41 50 30
0.234832 0.195720 0.499556 86 110 67
0.233668 0.195748 0.499360 117 141 98
0.232388 0.194768 0.498957 101 134 76
0.231113 0.193788 0.498555 93 126 68
0.229954 0.193815 0.498360 86 119 61
0.228686 0.192835 0.497959 80 113 55
0.227530 0.192863 0.497765 81 113 64
0.248046 0.403584 0.540354 67 99 50
0.246355 0.403625 0.540069 45 60 33
0.234641 0.195245 0.500621 39 55 23
0.233359 0.194266 0.500215 90 106 74
0.232197 0.194294 0.500020 117 145 93
0.230923 0.193315 0.499616 102 130 78
0.229653 0.192336 0.499212 88 121 63
0.228389 0.191356 0.498810 82 115 57
0.227235 0.191384 0.498616 80 115 61
0.247769 0.402895 0.541902 83 118 64
0.246179 0.403942 0.541824 65 85 50
0.257635 0.401963 0.545157 48 58 35
0.231891 0.192815 0.500872 100 122 77
0.230620 0.191836 0.500465 114 136 91
0.229353 0.190858 0.500060 101 134 76
0.228092 0.189880 0.499656 94 127 69
0.226941 0.189907 0.499462 86 120 59
0.225687 0.188928 0.499059 85 119 58
0.224538 0.188956 0.498865 84 108 65
0.244306 0.404297 0.543297 55 79 36
0.255783 0.402318 0.546634 48 64 30
0.230318 0.190360 0.501310 107 123 89
0.229054 0.189383 0.500903 110 138 84
0.227903 0.189410 0.500709 99 127 73
0.226647 0.188432 0.500304 92 126 65
0.225499 0.188460 0.500110 86 120 59
0.224250 0.187482 0.499706 89 117 65
0.223105 0.187509 0.499513 85 113 61
0.242427 0.404651 0.544775 53 69 35
0.230129 0.189889 0.502367 61 71 48
0.228865 0.188913 0.501957 110 135 87
0.227607 0.187937 0.501548 109 134 86
0.226459 0.187964 0.501355 99 132 74
0.225208 0.186987 0.500948 88 121 63
0.224063 0.187015 0.500755 87 120 64
0.222917 0.187042 0.500562 89 122 66
0.221771 0.187069 0.500369 85 106 66
0.240450 0.403998 0.546044 49 70 30
0.228568 0.187441 0.502793 66 83 46
0.227419 0.187468 0.502600 121 138 101
0.248664 0.403103 0.549028 108 139 82
0.225021 0.186520 0.501997 96 127 70
0.223875 0.186547 0.501804 91 124 66
0.222633 0.185571 0.501395 86 119 61
0.221489 0.185599 0.501203 88 118 70
0.240264 0.404309 0.547813 78 108 60
0.238563 0.404349 0.547527 37 54 24
0.227125 0.185998 0.503432 79 89 62
0.225979 0.186025 0.503239 116 144 90
0.224833 0.186052 0.503046 105 133 79
0.223687 0.186079 0.502853 91 127 66
0.222445 0.185105 0.502442 89 125 64
0.221302 0.185132 0.502250 88 121 67
0.220068 0.184157 0.501840 88 121 67
0.238284 0.403655 0.549084 70 94 55
0.236583 0.403696 0.548798 31 55 16
0.226937 0.185530 0.504481 43 46 28
0.225791 0.185557 0.504288 81 101 56
0.224544 0.184584 0.503874 124 144 99
0.223401 0.184611 0.503681 106 140 79
0.222258 0.184638 0.503489 91 125 64
0.221022 0.183664 0.503077 89 122 64
0.219790 0.182691 0.502665 88 121 63
0.218564 0.181717 0.502255 94 124 76
0.236304 0.403001 0.550355 62 92 44
0.225500 0.184090 0.505113 43 54 22
0.224357 0.184117 0.504920 93 104 72
0.223116 0.183145 0.504505 118 147 88
0.221975 0.183172 0.504313 108 137 78
0.220649 0.181199 0.503677 93 129 66
0.219514 0.181226 0.503485 87 123 60
0.218378 0.181253 0.503294 86 119 65
0.217157 0.180280 0.502882 86 119 65
0.234407 0.403348 0.551847 63 82 42
0.224070 0.182652 0.505741 50 57 35
0.222929 0.182679 0.505549 108 131 79
0.221599 0.180709 0.504908 121 144 92
0.220463 0.180736 0.504716 99 133 70
0.219238 0.179764 0.504301 94 128 65
0.218105 0.179791 0.504110 88 122 61
0.235832 0.402612 0.553693 84 118 57
0.234210 0.403652 0.553629 80 107 60
0.232504 0.403693 0.553342 52 79 32
0.222645 0.181216 0.506366 58 77 35
0.221413 0.180245 0.505947 116 135 93
0.220277 0.180272 0.505756 109 141 79
0.219052 0.179301 0.505339 102 134 72
0.217919 0.179328 0.505148 91 125 62
0.216786 0.179355 0.504957 91 125 62
0.215571 0.178384 0.504541 92 123 68
0.232225 0.402997 0.554904 75 106 51
0.230519 0.403037 0.554616 47 65 32
0.221227 0.179782 0.506987 76 88 60
0.220000 0.178812 0.506567 115 144 85
0.238769 0.402138 0.557614 110 139 80
0.217734 0.178866 0.506185 99 133 68
0.216517 0.177896 0.505767 92 126 61
0.215386 0.177923 0.505576 89 123 62
0.214256 0.177950 0.505386 94 128 67
0.230315 0.403338 0.556405 66 92 48
0.220947 0.178323 0.507795 39 49 26
0.219814 0.178350 0.507604 92 112 65
0.218592 0.177381 0.507182 123 143 96
0.217462 0.177408 0.506992 104 136 72
0.216332 0.177435 0.506802 100 132 68
0.215120 0.176466 0.506381 91 125 62
0.213992 0.176493 0.506192 92 126 63
0.212864 0.176519 0.506002 93 124 71
0.228400 0.403678 0.557910 52 83 30
0.219628 0.177887 0.508641 42 56 20
0.218407 0.176920 0.508217 112 126 90
0.217277 0.176946 0.508027 115 144 85
0.216146 0.176973 0.507837 104 133 74
0.214935 0.176005 0.507414 95 129 66
0.213730 0.175037 0.506993 94 128 65
0.212604 0.175064 0.506803 92 125 67
0.211479 0.175091 0.506614 91 124 66
0.226549 0.405011 0.559650 45 65 30
0.218222 0.176458 0.509252 58 68 43
0.217092 0.176485 0.509062 118 141 89
0.215879 0.175518 0.508637 118 141 89
0.214751 0.175545 0.508447 99 133 70
0.213545 0.174578 0.508023 96 130 67
0.212420 0.174605 0.507833 91 126 68
0.211295 0.174632 0.507644 89 124 66
0.210099 0.173664 0.507222 68 94 50
0.208909 0.172697 0.506800 42 68 24
0.216822 0.175031 0.509859 67 84 43
0.215612 0.174065 0.509432 122 139 98
0.214486 0.174092 0.509243 107 141 78
0.213361 0.174119 0.509053 99 133 70
0.212236 0.174146 0.508864 94 130 69
0.211038 0.173179 0.508439 94 130 69
0.209915 0.173206 0.508250 94 126 75
0.208793 0.173233 0.508061 72 104 53
0.216637 0.174571 0.510892 40 52 24
0.215427 0.173606 0.510463 86 98 70
0.214302 0.173633 0.510273 114 145 90
0.213100 0.172668 0.509845 104 135 80
0.211977 0.172694 0.509656 96 132 71
0.210783 0.171729 0.509229 92 128 67
0.209663 0.171756 0.509040 91 124 70
0.208542 0.171782 0.508852 93 126 72
0.207422 0.171809 0.508663 53 76 42
0.215162 0.172156 0.511251 46 52 35
0.214039 0.172183 0.511062 103 127 84
0.212916 0.172209 0.510873 114 138 95
0.211720 0.171245 0.510443 98 134 73
0.210599 0.171272 0.510255 93 129 68
0.209479 0.171299 0.510066 90 125 69
0.208359 0.171325 0.509878 90 125 69
0.207239 0.171352 0.509689 81 107 67
0.220579 0.407288 0.566260 39 65 25
0.213777 0.170735 0.511846 54 70 36
0.212656 0.170761 0.511658 118 134 100
0.211536 0.170788 0.511469 103 134 77
0.210416 0.170815 0.511280 101 132 75
0.209296 0.170841 0.511092 92 127 71
0.208110 0.169878 0.510661 90 125 69
0.222025 0.406542 0.568134 87 118 72
0.220296 0.406583 0.567843 72 103 57
0.218567 0.406624 0.567552 44 61 33
0.212473 0.170304 0.512683 77 84 62
0.211352 0.170331 0.512495 116 144 92
0.210162 0.169369 0.512061 108 136 84
0.209044 0.169395 0.511873 97 132 74
0.207927 0.169422 0.511685 92 127 69
0.206809 0.169449 0.511497 86 120 71
0.220072 0.406866 0.569670 89 123 74
0.218341 0.406908 0.569378 63 86 52
0.230253 0.406900 0.573252 39 44 30
0.211097 0.168886 0.513273 100 121 79
0.209979 0.168913 0.513084 119 140 98
0.208861 0.168939 0.512896 103 136 78
0.207744 0.168966 0.512708 98 131 73
0.206626 0.168993 0.512520 89 123 72
0.205508 0.169019 0.512332 87 121 70
0.218057 0.406201 0.570963 89 118 75
0.216325 0.406242 0.570672 40 69 26
0.210913 0.168430 0.514296 50 66 32
0.209796 0.168457 0.514108 114 130 96
0.208678 0.168483 0.513920 110 141 86
0.207560 0.168510 0.513731 102 133 78
0.206443 0.168536 0.513543 94 129 73
0.205325 0.168563 0.513355 91 126 70
0.217830 0.406481 0.572796 86 118 69
0.216096 0.406523 0.572504 77 109 60
0.214361 0.406564 0.572212 38 53 26
0.209544 0.167015 0.514879 67 77 52
0.208429 0.167041 0.514692 118 144 93
0.207377 0.168054 0.514755 107 133 82
0.206198 0.167094 0.514316 97 132 74
0.205083 0.167121 0.514128 93 128 70
0.203968 0.167147 0.513941 91 126 72
0.202853 0.167174 0.513753 85 120 66
0.214077 0.405856 0.573800 65 85 50
0.209361 0.166560 0.515900 43 49 30
0.208246 0.166586 0.515712 86 110 67
0.207131 0.166613 0.515525 114 138 95
0.206016 0.166639 0.515337 101 134 76
0.204900 0.166666 0.515149 101 134 76
0.203785 0.166692 0.514962 96 131 73
0.202670 0.166719 0.514774 92 127 69
0.213793 0.405149 0.575388 89 115 71
0.212059 0.405190 0.575096 38 64 20
0.208063 0.166131 0.516734 50 68 33
0.206948 0.166158 0.516546 110 128 93
0.205833 0.166184 0.516358 108 139 86
0.204718 0.166211 0.516170 104 135 82
0.203547 0.165253 0.515728 96 131 75
0.202435 0.165280 0.515541 93 128 72
0.213559 0.405425 0.577229 96 126 76
0.211822 0.405467 0.576937 78 108 58
0.210086 0.405508 0.576644 40 55 26
0.206703 0.164720 0.517309 70 85 60
0.205590 0.164746 0.517121 118 145 96
0.204478 0.164773 0.516934 109 136 87
0.203365 0.164799 0.516747 101 134 78
0.202200 0.163843 0.516303 98 131 75
0.201090 0.163869 0.516116 96 127 72
0.199980 0.163896 0.515929 90 121 66
0.209801 0.404799 0.578234 71 90 52
0.206520 0.164266 0.518327 36 46 30
0.205348 0.163311 0.517880 98 122 81
0.204238 0.163337 0.517693 116 140 99
0.203128 0.163363 0.517506 102 135 77
0.202018 0.163390 0.517319 100 133 75
0.200859 0.162434 0.516874 94 127 69
0.199751 0.162461 0.516688 92 125 67
0.209561 0.405073 0.580082 89 113 70
0.207780 0.404132 0.579532 41 65 22
0.205107 0.161877 0.518634 53 70 40
0.204000 0.161903 0.518448 111 128 98
0.202892 0.161930 0.518261 108 139 84
0.201785 0.161956 0.518075 102 133 78
0.200677 0.161982 0.517888 98 133 75
0.199570 0.162009 0.517702 92 127 69
0.198462 0.162035 0.517515 93 123 73
0.207537 0.404405 0.581381 79 109 59
0.205797 0.404446 0.581089 33 50 22
0.203818 0.161451 0.519462 77 91 69
0.202711 0.161478 0.519275 112 139 90
0.201603 0.161504 0.519089 106 133 84
0.200496 0.161531 0.518902 100 135 77
0.199343 0.160577 0.518453 94 129 71
0.198238 0.160603 0.518267 90 125 71
0.197133 0.160630 0.518081 93 128 74
0.205551 0.404716 0.582942 61 84 48
0.203637 0.160999 0.520476 40 48 33
0.202529 0.161026 0.520289 90 114 73
0.201371 0.160073 0.519837 118 142 101
0.200266 0.160100 0.519651 101 136 80
0.199161 0.160126 0.519465 99 134 78
0.198057 0.160152 0.519279 93 128 74
0.196952 0.160179 0.519093 91 126 72
0.195847 0.160205 0.518907 87 113 71
0.203559 0.405026 0.584507 40 66 24
0.202295 0.159596 0.521035 46 64 31
0.201190 0.159623 0.520849 110 128 95
0.200085 0.159649 0.520662 107 140 84
0.198980 0.159675 0.520477 103 136 80
0.197875 0.159701 0.520290 98 133 77
0.196731 0.158750 0.519838 92 127 71
0.195628 0.158776 0.519653 93 124 78
0.203308 0.405293 0.586369 68 99 53
0.201009 0.159172 0.521860 76 86 61
0.199904 0.159198 0.521674 111 142 89
0.198755 0.158247 0.521219 108 139 86
0.197652 0.158274 0.521033 103 138 82
0.196550 0.158300 0.520847 103 138 82
0.195411 0.157349 0.520394 90 124 73
0.194311 0.157375 0.520208 91 125 74
0.193211 0.157402 0.520023 55 78 44
0.200828 0.158721 0.522872 43 49 30
0.199676 0.157771 0.522413 95 119 76
0.198574 0.157798 0.522228 117 141 98
0.197430 0.156848 0.521771 106 139 83
0.196330 0.156874 0.521586 103 136 80
0.195230 0.156900 0.521401 94 129 73
0.194097 0.155951 0.520945 89 124 68
0.192999 0.155977 0.520760 82 111 70
0.199299 0.405902 0.589519 40 69 28
0.199496 0.157321 0.523423 49 67 32
0.198350 0.156373 0.522963 117 135 100
0.197250 0.156399 0.522778 110 143 87
0.196111 0.155450 0.522319 105 138 82
0.195014 0.155477 0.522135 98 133 75
0.193917 0.155503 0.521950 91 126 68
0.192820 0.155529 0.521765 91 123 74
0.199041 0.406163 0.591394 71 103 54
0.198126 0.154950 0.523693 89 101 75
0.197029 0.154977 0.523509 116 144 92
0.195932 0.155003 0.523324 108 136 84
0.194799 0.154055 0.522864 101 137 76
0.193704 0.154081 0.522680 97 133 72
0.192609 0.154107 0.522495 88 125 73
0.198781 0.406421 0.593275 88 125 73
0.197024 0.406463 0.592979 43 66 32
0.197946 0.154503 0.524698 47 56 36
0.196849 0.154529 0.524513 101 123 76
0.195714 0.153582 0.524050 118 140 93
0.194619 0.153608 0.523866 105 139 78
0.193524 0.153634 0.523682 102 136 75
0.192430 0.153660 0.523498 94 129 73
0.191335 0.153686 0.523313 91 126 70
0.196761 0.406719 0.594864 81 110 69
0.195002 0.406761 0.594567 32 61 20
0.196629 0.153109 0.525237 54 73 35
0.195534 0.153135 0.525053 124 143 105
0.194440 0.153162 0.524868 110 139 80
0.193345 0.153188 0.524684 108 137 78
0.192250 0.153214 0.524500 96 131 73
0.191156 0.153240 0.524315 92 127 69
0.196498 0.406973 0.596753 100 129 84
0.194735 0.407015 0.596456 52 81 36
0.206822 0.406972 0.600430 38 53 26
0.195355 0.152689 0.526055 100 115 88
0.194260 0.152715 0.525871 114 140 87
0.193166 0.152741 0.525686 107 133 80
0.192071 0.152767 0.525502 101 135 74
0.190976 0.152793 0.525318 99 133 72
0.189882 0.152819 0.525133 96 128 79
0.194468 0.407267 0.598350 87 119 70
0.192684 0.406337 0.597773 38 57 29
0.195176 0.152242 0.527057 51 60 40
0.194081 0.152268 0.526873 116 136 91
0.192986 0.152294 0.526689 114 134 89
0.191892 0.152320 0.526504 102 133 76
0.190797 0.152346 0.526320 102 133 76
0.189702 0.152372 0.526136 94 127 73
0.188608 0.152399 0.525951 87 120 66
0.192414 0.406588 0.599669 68 90 59
0.193902 0.151821 0.527875 74 90 56
0.192776 0.150879 0.527404 118 134 100
0.191712 0.151874 0.527507 103 134 79
0.190618 0.151900 0.527322 102 133 78
0.189499 0.150957 0.526853 96 129 73
0.188428 0.151952 0.526954 94 127 71
0.187334 0.151978 0.526769 95 121 79
0.190360 0.405910 0.600987 45 71 29
0.193722 0.151375 0.528877 43 55 27
0.192628 0.151401 0.528693 104 116 88
0.191505 0.150459 0.528220 109 137 85
0.190438 0.151453 0.528325 104 132 80
0.189321 0.150511 0.527853 101 132 75
0.188228 0.150537 0.527669 96 127 70
0.187136 0.150563 0.527485 94 124 74
0.186044 0.150589 0.527301 80 110 60
0.188319 0.406200 0.602592 35 52 26
0.192418 0.149987 0.529404 73 80 58
0.191326 0.150013 0.529220 116 141 95
0.190234 0.150039 0.529036 109 134 88
0.189142 0.150065 0.528853 103 134 79
0.188049 0.150091 0.528669 99 130 75
0.186957 0.150118 0.528485 92 125 71
0.185865 0.150144 0.528301 96 129 75
0.188030 0.405479 0.604210 57 76 46
0.191147 0.149568 0.530220 94 115 77
0.190055 0.149594 0.530036 113 134 96
0.188963 0.149620 0.529852 102 135 81
0.187871 0.149646 0.529669 100 133 79
0.186778 0.149672 0.529485 93 126 72
0.185686 0.149698 0.529301 94 127 73
0.187752 0.405724 0.606119 83 107 68
0.185982 0.405766 0.605821 38 62 23
0.190968 0.149122 0.531220 62 75 44
0.189876 0.149148 0.531036 114 127 96
0.188784 0.149174 0.530852 106 137 84
0.187692 0.149200 0.530668 106 137 84
0.186599 0.149226 0.530485 102 135 79
0.185507 0.149252 0.530301 92 125 69
0.187462 0.405002 0.607739 97 123 79
0.185692 0.405044 0.607441 64 90 46
0.189697 0.148702 0.532036 84 91 69
0.188605 0.148728 0.531852 116 143 94
0.187494 0.147791 0.531372 108 135 86
0.186404 0.147817 0.531188 101 134 76
0.185315 0.147843 0.531005 96 129 71
0.184225 0.147869 0.530822 94 124 76
0.185410 0.405286 0.609357 93 123 75
0.183638 0.405328 0.609058 43 60 30
0.189518 0.148257 0.533036 44 47 31
0.188405 0.147320 0.532553 107 132 86
0.187315 0.147346 0.532369 117 142 96
0.186226 0.147372 0.532186 106 139 83
0.185123 0.146435 0.531705 108 141 85
0.184036 0.146461 0.531522 95 125 75
0.185128 0.405525 0.611277 99 129 79
0.183353 0.405568 0.610978 69 92 58
0.188226 0.146876 0.533551 81 98 61
0.187119 0.145940 0.533066 118 135 98
0.186032 0.145966 0.532883 106 137 82
0.184945 0.145992 0.532700 104 135 80
0.183848 0.145056 0.532217 95 127 76
0.182763 0.145081 0.532034 93 125 74
0.181679 0.145107 0.531852 97 123 83
0.181290 0.405848 0.612603 46 72 32
0.188028 0.145470 0.534244 43 54 24
0.186941 0.145496 0.534061 112 123 93
0.185839 0.144561 0.533575 115 143 91
0.184754 0.144587 0.533392 108 136 84
0.183670 0.144613 0.533210 105 138 84
0.182578 0.143678 0.532725 95 128 74
0.181496 0.143704 0.532543 98 129 83
0.180414 0.143730 0.532361 80 111 65
0.186746 0.144093 0.534750 75 79 56
0.185661 0.144119 0.534568 117 142 94
0.184577 0.144145 0.534385 110 135 87
0.183483 0.143211 0.533898 106 137 82
0.182401 0.143237 0.533716 101 132 77
0.181319 0.143262 0.533534 94 126 75
0.180237 0.143288 0.533352 95 127 76
0.178927 0.407319 0.616467 45 67 36
0.186551 0.142692 0.535435 41 47 28
0.185469 0.142718 0.535253 107 129 84
0.184387 0.142744 0.535071 113 135 90
0.183306 0.142769 0.534889 103 134 77
0.182224 0.142795 0.534706 103 134 77
0.181142 0.142821 0.534524 95 128 72
0.180060 0.142847 0.534342 93 126 70
0.178633 0.407550 0.618407 84 109 72
0.185292 0.142276 0.536243 69 88 50
0.184210 0.142302 0.536061 121 140 102
0.183128 0.142328 0.535879 106 137 80
0.182046 0.142354 0.535697 104 135 78
0.180964 0.142379 0.535515 99 132 76
0.179883 0.142405 0.535333 96 129 73
0.178340 0.406820 0.620044 103 129 85
0.176553 0.406863 0.619743 46 72 28
0.184033 0.141861 0.537052 100 115 86
0.182951 0.141886 0.536870 116 144 90
0.181869 0.141912 0.536688 109 137 83
0.180787 0.141938 0.536505 103 136 78
0.179705 0.141964 0.536323 98 131 73
0.178623 0.141989 0.536141 97 127 79
0.176255 0.407090 0.621689 81 111 63
0.174465 0.407133 0.621388 39 56 28
0.183856 0.141419 0.538042 58 68 45
0.182774 0.141445 0.537860 120 147 98
0.181692 0.141471 0.537678 112 139 90
0.180610 0.141496 0.537496 107 140 84
0.179528 0.141522 0.537314 102 135 79
0.178446 0.141548 0.537132 92 124 73
0.175957 0.407315 0.623640 87 119 68
0.174164 0.407358 0.623338 54 73 43
0.183678 0.140978 0.539033 43 49 32
0.182596 0.141003 0.538851 105 126 84
0.181515 0.141029 0.538669 119 140 98
0.180433 0.141055 0.538487 105 138 82
0.179351 0.141081 0.538304 102 135 79
0.178269 0.141106 0.538122 98 130 79
0.177187 0.141132 0.537940 98 130 79
0.173862 0.407581 0.625294 85 110 73
0.172066 0.407624 0.624991 28 53 16
0.182419 0.140562 0.539841 69 86 49
0.181337 0.140588 0.539659 123 140 103
0.180255 0.140613 0.539477 108 139 86
0.179173 0.140639 0.539295 106 137 84
0.178092 0.140665 0.539113 97 132 78
0.177010 0.140691 0.538931 93 128 74
0.173559 0.407803 0.627254 92 121 76
0.171761 0.407845 0.626951 50 79 34
0.184053 0.406812 0.630716 47 58 28
0.181160 0.140146 0.540650 112 123 93
0.180078 0.140172 0.540468 116 144 92
0.178996 0.140198 0.540286 106 134 82
0.177914 0.140223 0.540103 99 134 78
0.176832 0.140249 0.539921 92 127 71
0.175750 0.140275 0.539739 95 127 76
0.171466 0.407112 0.628597 82 114 63
0.169668 0.407155 0.628294 33 50 22
0.180983 0.139705 0.541640 74 81 57
0.179900 0.138779 0.541136 117 143 92
0.178820 0.138805 0.540954 106 132 81
0.177741 0.138830 0.540772 102 135 79
0.174761 0.407244 0.631170 100 133 77
0.175573 0.139834 0.540730 96 129 75
0.171172 0.406378 0.630243 98 131 77
0.169374 0.406421 0.629941 41 61 28
0.180802 0.138313 0.542306 44 50 31
0.179869 0.407331 0.634053 104 124 79
0.178644 0.138364 0.541942 118 138 93
0.177564 0.138390 0.541761 105 138 82
0.176485 0.138416 0.541579 100 133 77
0.175406 0.138441 0.541397 93 128 74
0.170865 0.406595 0.632212 97 132 78
0.169064 0.406638 0.631909 71 95 56
0.167264 0.406681 0.631606 32 56 17
0.179546 0.137898 0.543112 73 92 52
0.178467 0.137924 0.542930 122 141 101
0.177387 0.137949 0.542749 106 139 83
0.176308 0.137975 0.542567 103 136 80
0.175229 0.138001 0.542385 97 132 78
0.174149 0.138027 0.542204 94 129 75
0.168754 0.406853 0.633882 96 125 80
0.166969 0.405946 0.633255 33 62 17
0.178290 0.137483 0.543919 119 132 101
0.177211 0.137509 0.543737 111 138 89
0.176131 0.137535 0.543555 106 133 84
0.175052 0.137560 0.543374 98 133 79
0.173973 0.137586 0.543192 93 128 74
0.168459 0.406117 0.635533 102 134 85
0.166655 0.406160 0.635230 53 85 36
0.178113 0.137043 0.544907 89 99 72
0.177034 0.137068 0.544725 118 143 95
0.175954 0.137094 0.544543 109 134 86
0.174875 0.137120 0.544362 99 134 78
0.173796 0.137146 0.544180 98 133 77
0.168131 0.407277 0.637843 99 131 82
0.166341 0.406372 0.637209 93 125 76
0.164514 0.407363 0.637234 40 58 25
0.177936 0.136602 0.545895 46 55 35
0.176857 0.136628 0.545713 112 137 91
0.175778 0.136654 0.545532 111 136 90
0.174698 0.136679 0.545350 100 135 79
0.173619 0.136705 0.545168 99 134 78
0.172539 0.136731 0.544986 96 130 79
0.165969 0.409422 0.640188 99 133 82
0.164175 0.408519 0.639551 55 80 45
0.176680 0.136188 0.546702 85 109 68
0.175601 0.136213 0.546520 118 142 101
0.174521 0.136239 0.546338 103 138 82
0.173456 0.135319 0.545822 100 135 79
0.172380 0.135345 0.545641 94 128 77
0.165633 0.410573 0.642517 98 132 81
0.163834 0.409670 0.641878 88 116 78
0.162040 0.408768 0.641239 29 57 19
0.176510 0.134803 0.547352 51 69 36
0.175433 0.134828 0.547170 120 138 105
0.174357 0.134854 0.546989 104 139 85
0.173280 0.134880 0.546808 100 135 81
0.172203 0.134905 0.546627 95 133 78
0.171126 0.134931 0.546445 91 129 74
0.170072 0.134012 0.545929 99 130 86
0.161692 0.409916 0.643571 50 81 37
0.175257 0.134389 0.548156 88 103 74
0.174193 0.133471 0.547636 112 145 91
0.173103 0.134440 0.547794 102 135 81
0.172044 0.133522 0.547274 96 134 79
0.170970 0.133548 0.547093 91 129 74
0.169896 0.133574 0.546912 96 129 85
0.161343 0.411061 0.645913 79 112 68
0.175091 0.133007 0.548800 62 72 47
0.174017 0.133033 0.548619 116 143 94
0.172943 0.133058 0.548438 110 137 88
0.171868 0.133084 0.548257 97 135 80
0.170794 0.133110 0.548077 92 130 75
0.169720 0.133135 0.547896 88 124 77
0.161018 0.411258 0.647925 97 133 86
0.159189 0.411302 0.647617 36 55 25
0.174915 0.132569 0.549783 34 45 24
0.173841 0.132594 0.549603 103 127 84
0.172767 0.132620 0.549422 116 140 97
0.171692 0.132646 0.549241 101 136 82
0.170639 0.131730 0.548717 97 132 78
0.169568 0.131755 0.548537 89 128 77
0.160665 0.412395 0.650283 97 136 85
0.158860 0.411497 0.649633 63 87 55
0.173665 0.132156 0.550586 67 88 50
0.172607 0.131241 0.550059 123 144 106
0.171535 0.131267 0.549879 105 138 84
0.170464 0.131292 0.549698 102 135 81
0.169392 0.131318 0.549518 91 131 75
0.168320 0.131343 0.549338 90 130 74
0.158531 0.411691 0.651654 89 119 80
0.156697 0.411734 0.651345 32 62 23
0.173503 0.130779 0.551221 35 52 22
0.172431 0.130804 0.551040 113 130 100
0.171360 0.130830 0.550860 113 146 92
0.170288 0.130855 0.550680 103 136 82
0.169216 0.130881 0.550499 94 134 78
0.168145 0.130906 0.550319 90 130 74
0.167073 0.130932 0.550138 96 132 87
0.156397 0.410986 0.653024 51 87 42
0.172273 0.129428 0.551671 81 96 71
0.171184 0.130392 0.551841 116 146 96
0.170113 0.130418 0.551661 104 134 84
0.169066 0.129505 0.551131 96 136 80
0.167997 0.129530 0.550951 88 128 72
0.166928 0.129556 0.550771 94 130 83
0.156064 0.411176 0.655051 80 116 69
0.154227 0.411220 0.654742 28 50 21
0.172098 0.128992 0.552650 42 53 34
0.171029 0.129018 0.552470 122 149 102
0.169960 0.129043 0.552290 109 136 89
0.168891 0.129069 0.552110 96 136 80
0.167822 0.129094 0.551930 94 134 78
0.166752 0.129120 0.551750 92 129 79
0.165683 0.129145 0.551570 95 132 82
0.153891 0.411408 0.656774 45 69 37
0.171923 0.128556 0.553628 28 38 22
0.170854 0.128581 0.553448 105 129 88
0.169785 0.128607 0.553268 116 140 99
0.168715 0.128632 0.553088 99 137 82
0.167646 0.128658 0.552909 97 135 80
0.166577 0.128683 0.552729 94 131 79
0.165508 0.128709 0.552549 97 134 82
0.153589 0.410658 0.658457 80 105 68
0.170679 0.128145 0.554427 62 85 51
0.169609 0.128171 0.554247 123 146 112
0.168540 0.128196 0.554067 102 140 85
0.167471 0.128222 0.553887 99 137 82
0.166402 0.128247 0.553707 94 131 79
0.165333 0.128272 0.553527 91 128 76
0.153252 0.410843 0.660496 95 124 83
0.151410 0.410887 0.660186 30 59 18
0.170503 0.127709 0.555406 40 57 29
0.169434 0.127734 0.555226 120 137 109
0.168365 0.127760 0.555046 108 142 91
0.167296 0.127785 0.554866 103 137 86
0.166227 0.127811 0.554686 95 132 80
0.165158 0.127836 0.554506 90 127 75
0.152913 0.411026 0.662539 103 134 90
0.151069 0.411070 0.662229 45 76 32
0.169259 0.127298 0.556205 89 106 80
0.168190 0.127324 0.556025 119 151 102
0.167121 0.127349 0.555845 106 138 89
0.166052 0.127374 0.555665 95 133 78
0.165017 0.126466 0.555125 91 129 74
0.152573 0.411207 0.664587 102 133 87
0.150727 0.411251 0.664276 80 111 65
0.169084 0.126862 0.557184 52 66 44
0.168042 0.125955 0.556640 118 147 102
0.166976 0.125980 0.556461 106 135 90
0.165909 0.126006 0.556281 97 135 80
0.164843 0.126031 0.556102 91 129 74
0.163776 0.126057 0.555922 94 128 77
0.162669 0.127015 0.556104 100 134 83
0.148492 0.412407 0.666378 45 65 32
0.168934 0.125494 0.557796 31 42 23
0.167867 0.125520 0.557617 99 125 83
0.166801 0.125545 0.557437 116 142 100
0.165734 0.125571 0.557258 101 139 84
0.164668 0.125596 0.557078 96 134 79
0.163601 0.125621 0.556899 91 129 74
0.162535 0.125647 0.556719 102 140 85
0.148145 0.412582 0.668436 63 87 48
0.167693 0.125085 0.558593 71 95 56
0.166626 0.125110 0.558414 121 145 106
0.165560 0.125135 0.558234 101 139 84
0.164493 0.125161 0.558055 96 134 79
0.163426 0.125186 0.557875 96 134 79
0.162360 0.125212 0.557696 98 136 81
0.161293 0.125237 0.557516 89 118 77
0.145895 0.413731 0.670552 28 57 16
0.167518 0.124649 0.559570 44 62 27
0.166451 0.124675 0.559390 121 139 104
0.165385 0.124700 0.559211 105 140 86
0.164318 0.124726 0.559031 100 135 81
0.163252 0.124751 0.558852 98 133 79
0.162185 0.124776 0.558672 96 131 77
0.161119 0.124802 0.558493 104 133 90
0.160052 0.124827 0.558313 45 74 31
0.166277 0.124240 0.560367 90 105 80
0.165210 0.124265 0.560187 115 147 96
0.164144 0.124290 0.560008 105 137 86
0.163077 0.124316 0.559828 98 133 77
0.162010 0.124341 0.559649 93 128 72
0.160944 0.124367 0.559469 102 132 84
0.159877 0.124392 0.559289 72 102 54
0.166102 0.123804 0.561343 62 73 54
0.165035 0.123830 0.561164 118 148 98
0.163969 0.123855 0.560984 107 137 87
0.162902 0.123881 0.560805 99 134 78
0.161836 0.123906 0.560625 93 128 72
0.160769 0.123931 0.560446 99 131 82
0.144886 0.413309 0.676404 92 124 75
0.143021 0.413354 0.676090 39 56 28
0.165927 0.123369 0.562320 41 51 35
0.164861 0.123394 0.562140 117 143 99
0.163794 0.123420 0.561961 113 139 95
0.162727 0.123445 0.561781 100 135 79
0.161661 0.123471 0.561602 96 131 75
0.160594 0.123496 0.561422 95 127 76
0.159528 0.123522 0.561242 100 132 81
0.142715 0.412593 0.677797 47 65 32
0.164686 0.122959 0.563117 98 124 82
0.163619 0.122985 0.562937 116 142 100
0.162553 0.123010 0.562758 103 138 82
0.161486 0.123035 0.562578 100 135 79
0.160420 0.123061 0.562399 92 127 73
0.159353 0.123086 0.562219 98 133 79
0.158286 0.123112 0.562039 67 87 52
0.164511 0.122524 0.564093 61 84 50
0.163444 0.122549 0.563914 125 148 114
0.162378 0.122575 0.563734 104 139 83
0.161311 0.122600 0.563555 100 135 79
0.160245 0.122626 0.563375 96 131 75
0.159178 0.122651 0.563195 97 132 76
0.142053 0.411996 0.681591 96 120 79
0.140186 0.412040 0.681276 32 56 15
0.164336 0.122089 0.565070 37 56 26
0.163270 0.122114 0.564890 121 140 110
0.162203 0.122140 0.564711 106 140 89
0.161137 0.122165 0.564531 101 135 84
0.160070 0.122190 0.564352 95 133 76
0.159003 0.122216 0.564172 94 132 75
0.157937 0.122241 0.563992 102 131 88
0.139880 0.411278 0.682986 43 72 29
0.163095 0.121679 0.565867 99 118 90
0.162028 0.121704 0.565687 114 148 97
0.160962 0.121730 0.565508 101 135 84
0.159895 0.121755 0.565328 96 134 79
0.158829 0.121781 0.565148 91 129 74
0.157762 0.121806 0.564969 103 134 88
0.139574 0.410516 0.684695 59 90 44
0.162920 0.121244 0.566843 76 93 67
0.161854 0.121269 0.566664 117 149 100
0.160787 0.121295 0.566484 107 139 90
0.159721 0.121320 0.566305 98 133 79
0.158654 0.121345 0.566125 94 129 75
0.157587 0.121371 0.565945 101 133 84
0.139213 0.410676 0.686790 85 117 68
0.137343 0.410720 0.686475 38 53 26
0.162745 0.120808 0.567820 47 61 41
0.161679 0.120834 0.567640 120 149 104
0.160612 0.120859 0.567461 111 140 95
0.159546 0.120885 0.567281 98 136 81
0.158479 0.120910 0.567101 92 130 75
0.157413 0.120936 0.566922 93 127 76
0.156346 0.120961 0.566742 101 135 84
0.137037 0.409957 0.688187 49 66 36
0.162571 0.120373 0.568796 35 43 28
0.161547 0.119480 0.568224 102 128 86
0.160438 0.120424 0.568437 117 143 101
0.159371 0.120449 0.568258 101 136 82
0.158304 0.120475 0.568078 97 132 78
0.157238 0.120500 0.567898 91 128 76
0.138544 0.410069 0.690604 99 136 84
0.136731 0.409194 0.689899 69 91 60
0.161329 0.119963 0.569593 72 96 57
0.160263 0.119989 0.569414 124 148 109
0.159196 0.120014 0.569234 103 141 84
0.158130 0.120040 0.569054 96 134 77
0.157063 0.120065 0.568875 93 133 77
0.138238 0.409305 0.692318 96 136 80
0.136365 0.409350 0.692003 82 107 72
0.134493 0.409394 0.691688 37 62 27
0.161155 0.119528 0.570570 52 72 37
0.160135 0.118637 0.569994 122 142 107
0.159071 0.118662 0.569814 105 143 88
0.158007 0.118687 0.569635 97 135 80
0.156943 0.118713 0.569456 94 134 76
0.155822 0.119655 0.569672 95 135 77
0.136059 0.408586 0.693717 93 122 81
0.134186 0.408630 0.693402 37 66 25
0.160980 0.119093 0.571546 40 60 27
0.159913 0.119118 0.571367 113 133 100
0.158847 0.119144 0.571187 110 145 91
0.157780 0.119169 0.571007 100 135 81
0.156714 0.119195 0.570828 93 133 73
0.155647 0.119220 0.570648 91 131 71
0.135692 0.408738 0.695828 100 131 87
0.133817 0.408782 0.695512 42 73 29
0.159738 0.118683 0.572343 87 104 74
0.158672 0.118709 0.572164 115 148 94
0.157605 0.118734 0.571984 105 138 84
0.156539 0.118759 0.571804 94 134 74
0.155472 0.118785 0.571625 91 131 71
0.154406 0.118810 0.571445 105 138 92
0.133447 0.408932 0.697627 65 98 52
0.159564 0.118248 0.573320 62 74 46
0.158497 0.118273 0.573140 120 153 99
0.157431 0.118299 0.572960 106 139 85
0.156364 0.118324 0.572781 98 138 78
0.155298 0.118350 0.572601 94 134 74
0.154231 0.118375 0.572422 98 135 85
0.133077 0.409080 0.699747 90 127 77
0.159389 0.117813 0.574296 51 61 38
0.158322 0.117838 0.574117 116 146 96
0.157256 0.117864 0.573937 107 137 87
0.156189 0.117889 0.573757 98 138 80
0.155123 0.117914 0.573578 93 133 75
0.154056 0.117940 0.573398 93 132 79
0.152990 0.117965 0.573219 95 134 81
0.130822 0.409271 0.701555 47 66 36
0.158148 0.117403 0.575093 97 126 81
0.157081 0.117428 0.574914 117 146 101
0.156015 0.117454 0.574734 100 140 84
0.154948 0.117479 0.574554 95 135 79
0.153881 0.117505 0.574375 91 131 75
0.132268 0.410282 0.704406 100 140 84
0.130381 0.410327 0.704089 61 84 50
0.157973 0.116968 0.576070 80 106 64
0.156906 0.116993 0.575890 122 148 106
0.155840 0.117018 0.575710 100 140 84
0.154773 0.117044 0.575531 96 136 80
0.153707 0.117069 0.575351 93 132 79
0.131830 0.411334 0.706950 102 141 88
0.130005 0.410468 0.706224 76 101 64
0.157798 0.116532 0.577046 54 77 41
0.156732 0.116558 0.576867 123 146 110
0.155665 0.116583 0.576687 103 142 89
0.154598 0.116609 0.576507 97 136 83
0.153532 0.116634 0.576328 91 130 77
0.152465 0.116659 0.576148 94 133 80
0.129560 0.411516 0.708775 98 123 86
0.157623 0.116097 0.578023 40 60 27
0.156557 0.116123 0.577843 122 142 109
0.155490 0.116148 0.577663 108 145 93
0.154424 0.116173 0.577484 98 135 83
0.153357 0.116199 0.577304 95 133 78
0.152291 0.116224 0.577125 94 132 77
0.129114 0.412561 0.711334 107 136 95
0.127214 0.412606 0.711014 36 65 24
0.157449 0.115662 0.578999 36 53 27
0.156382 0.115687 0.578820 114 131 105
0.155315 0.115713 0.578640 112 146 95
0.154249 0.115738 0.578460 104 138 87
0.153182 0.115764 0.578281 95 133 76
0.152116 0.115789 0.578101 92 130 73
0.128734 0.412693 0.713489 106 135 92
0.126831 0.412739 0.713168 53 82 39
0.156207 0.115252 0.579796 83 99 78
0.155141 0.115278 0.579616 119 153 104
0.154074 0.115303 0.579437 104 138 89
0.153008 0.115328 0.579257 95 133 76
0.151941 0.115354 0.579078 92 130 73
0.150875 0.115379 0.578898 101 132 86
0.126448 0.412869 0.715327 75 106 60
0.156033 0.114817 0.580773 69 82 65
0.154966 0.114842 0.580593 120 151 105
0.153899 0.114868 0.580413 105 136 90
0.152833 0.114893 0.580234 95 135 77
0.151766 0.114919 0.580054 91 131 73
0.150700 0.114944 0.579875 100 134 85
0.126064 0.412997 0.717491 85 119 70
0.124156 0.413043 0.717169 35 54 26
0.155858 0.114382 0.581749 56 66 52
0.154791 0.114407 0.581569 113 142 99
0.153725 0.114433 0.581390 113 142 99
0.152658 0.114458 0.581210 95 135 77
0.151592 0.114483 0.581031 91 131 73
0.150525 0.114509 0.580851 94 131 81
0.125752 0.412219 0.719238 92 129 79
0.123844 0.412264 0.718916 40 62 33
0.155683 0.113946 0.582726 47 55 42
0.154616 0.113972 0.582546 103 129 87
0.153550 0.113997 0.582366 117 143 101
0.152483 0.114023 0.582187 96 136 78
0.151417 0.114048 0.582007 93 133 75
0.150350 0.114073 0.581828 92 129 79
0.149284 0.114099 0.581648 99 136 86
0.123531 0.411486 0.720663 49 73 41
0.154442 0.113537 0.583522 85 109 70
0.153375 0.113562 0.583343 117 141 102
0.152309 0.113587 0.583163 98 136 81
0.151242 0.113613 0.582984 94 132 77
0.150175 0.113638 0.582804 91 131 75
0.149109 0.113664 0.582625 98 138 82
0.123219 0.410707 0.722410 70 93 59
0.154267 0.113101 0.584499 70 93 57
0.153200 0.113127 0.584319 119 142 106
0.152134 0.113152 0.584140 99 137 82
0.151067 0.113178 0.583960 95 133 78
0.150001 0.113203 0.583781 91 131 75
0.148934 0.113228 0.583601 93 133 77
0.122830 0.410830 0.724585 81 106 69
0.154092 0.112666 0.585475 54 74 41
0.153026 0.112692 0.585296 121 141 108
0.151959 0.112717 0.585116 102 140 85
0.150892 0.112742 0.584937 97 135 80
0.149826 0.112768 0.584757 91 131 75
0.148759 0.112793 0.584578 94 134 78
0.122517 0.410050 0.726334 93 122 81
0.120606 0.410096 0.726012 35 64 23
0.153917 0.112231 0.586452 45 62 32
0.152851 0.112256 0.586272 116 133 103
0.151784 0.112282 0.586093 104 138 87
0.150718 0.112307 0.585913 99 133 82
0.149651 0.112333 0.585734 93 133 75
0.148585 0.112358 0.585554 94 134 76
0.122127 0.410170 0.728516 102 131 90
0.120214 0.410216 0.728194 44 73 32
0.153743 0.111796 0.587428 43 58 31
0.152676 0.111821 0.587249 109 124 97
0.151610 0.111847 0.587069 107 141 90
0.150543 0.111872 0.586890 101 135 84
0.149476 0.111897 0.586710 94 134 76
0.148410 0.111923 0.586531 95 135 77
0.121814 0.409390 0.730267 105 136 92
0.119901 0.409435 0.729945 52 83 39
0.152501 0.111386 0.588225 91 106 81
0.151435 0.111411 0.588046 114 148 97
0.150368 0.111437 0.587866 101 135 84
0.149302 0.111462 0.587687 95 133 76
0.148235 0.111488 0.587507 96 134 77
0.121423 0.409507 0.732456 105 136 90
0.119507 0.409552 0.732134 64 95 49
0.152327 0.110951 0.589202 81 92 71
0.151260 0.110976 0.589022 121 153 104
0.150193 0.111001 0.588843 105 137 88
0.149127 0.111027 0.588663 96 134 75
0.148060 0.111052 0.588484 95 133 74
0.121031 0.409621 0.734650 105 139 90
0.119113 0.409667 0.734327 66 100 51
0.152152 0.110515 0.590178 64 73 55
0.151085 0.110541 0.589999 119 151 102
0.150019 0.110566 0.589819 106 138 89
0.148952 0.110592 0.589640 97 135 76
0.147886 0.110617 0.589460 95 133 74
0.146819 0.110642 0.589281 103 137 86
0.118717 0.409780 0.736524 76 110 59
0.116796 0.409826 0.736201 40 57 29
0.151977 0.110080 0.591155 51 60 42
0.150910 0.110106 0.590975 117 147 99
0.149844 0.110131 0.590796 111 141 93
0.148777 0.110156 0.590616 96 134 75
0.147711 0.110182 0.590437 95 133 74
0.146644 0.110207 0.590257 98 132 81
0.118321 0.409891 0.738727 91 125 74
0.116398 0.409936 0.738403 41 60 32
0.151802 0.109645 0.592131 49 54 40
0.150736 0.109670 0.591952 117 144 97
0.149669 0.109696 0.591772 115 142 95
0.148603 0.109721 0.591593 96 136 76
0.147536 0.109747 0.591413 94 134 74
0.146469 0.109772 0.591234 94 132 77
0.145403 0.109797 0.591054 97 135 80
0.115914 0.410939 0.741055 45 67 36
0.150561 0.109235 0.592928 104 128 85
0.149494 0.109261 0.592749 116 140 97
0.148428 0.109286 0.592569 99 137 78
0.147361 0.109311 0.592390 95 133 74
0.146295 0.109337 0.592210 96 131 75
0.145228 0.109362 0.592031 103 138 82
0.115513 0.411044 0.743269 62 85 51
0.150386 0.108800 0.593905 90 111 71
0.149320 0.108825 0.593725 125 146 106
0.148253 0.108851 0.593546 103 138 80
0.147187 0.108876 0.593366 97 132 74
0.146120 0.108902 0.593187 94 129 73
0.145053 0.108927 0.593007 101 136 80
0.115112 0.411147 0.745487 82 105 69
0.150211 0.108365 0.594881 74 93 55
0.149145 0.108390 0.594702 128 147 109
0.148078 0.108416 0.594522 103 136 80
0.147012 0.108441 0.594343 100 133 77
0.145945 0.108466 0.594163 98 133 77
0.144796 0.109382 0.594437 103 138 82
0.143726 0.109408 0.594257 89 112 76
0.150037 0.107929 0.595858 64 82 47
0.148897 0.108844 0.596135 129 147 112
0.147828 0.108869 0.595955 108 141 87
0.146759 0.108895 0.595776 100 133 79
0.145690 0.108920 0.595596 96 131 75
0.144620 0.108946 0.595416 103 138 82
0.143551 0.108971 0.595236 93 117 78
0.112279 0.412284 0.750066 35 59 20
0.149791 0.108382 0.597294 52 69 39
0.148722 0.108408 0.597114 125 142 112
0.147653 0.108433 0.596934 112 144 93
0.146583 0.108459 0.596754 103 135 84
0.145514 0.108484 0.596574 98 133 79
0.144445 0.108510 0.596394 100 135 81
0.143376 0.108535 0.596214 98 122 83
0.111960 0.411492 0.751843 42 66 27
0.149616 0.107946 0.598273 44 61 33
0.148547 0.107971 0.598093 118 135 107
0.147477 0.107997 0.597913 113 145 96
0.146408 0.108022 0.597733 102 134 85
0.145339 0.108048 0.597553 96 134 79
0.144270 0.108073 0.597373 99 137 82
0.143201 0.108099 0.597193 104 130 90
0.111553 0.411587 0.754080 42 68 28
0.148371 0.107535 0.599072 115 132 104
0.147302 0.107561 0.598892 114 146 97
0.146233 0.107586 0.598712 102 134 85
0.145164 0.107612 0.598532 95 133 78
0.144095 0.107637 0.598352 96 134 79
0.143026 0.107662 0.598172 110 136 94
0.111145 0.411680 0.756321 51 77 35
0.148196 0.107099 0.600051 108 125 99
0.147127 0.107124 0.599871 112 145 99
0.146058 0.107150 0.599691 104 137 91
0.144989 0.107175 0.599511 94 131 79
0.143920 0.107201 0.599331 95 132 80
0.142851 0.107226 0.599151 112 138 96
0.110826 0.410885 0.758103 58 84 42
0.148021 0.106663 0.601030 93 109 86
0.146874 0.107572 0.601318 111 144 100
0.145802 0.107597 0.601138 101 134 90
0.144731 0.107623 0.600957 91 130 77
0.143745 0.106764 0.600310 96 135 82
0.142587 0.107674 0.600596 109 138 95
0.110416 0.410975 0.760352 60 89 46
0.147846 0.106226 0.602009 81 92 71
0.146698 0.107135 0.602299 117 148 104
0.145627 0.107160 0.602119 102 133 89
0.144555 0.107186 0.601938 91 130 77
0.143483 0.107211 0.601758 96 135 82
0.142412 0.107237 0.601578 105 136 92
0.110097 0.410180 0.762136 75 106 62
0.147671 0.105790 0.602987 65 72 50
0.146523 0.106697 0.603281 121 152 108
0.145451 0.106723 0.603100 106 137 93
0.144379 0.106748 0.602920 91 130 77
0.143308 0.106774 0.602739 91 130 77
0.142236 0.106799 0.602559 99 132 88
0.109777 0.409385 0.763921 86 119 75
0.147495 0.105354 0.603966 56 63 41
0.146347 0.106260 0.604262 120 149 106
0.145276 0.106285 0.604081 108 137 94
0.144204 0.106311 0.603901 93 132 79
0.143132 0.106337 0.603720 93 132 79
0.142060 0.106362 0.603540 99 132 86
0.109366 0.409470 0.766178 91 124 78
0.107415 0.409517 0.765850 46 60 38
0.147320 0.104917 0.604945 54 63 43
0.146172 0.105823 0.605243 117 146 103
0.145100 0.105848 0.605062 108 137 94
0.144028 0.105874 0.604882 94 131 79
0.142957 0.105899 0.604702 94 131 79
0.141885 0.105925 0.604521 99 132 86
0.109046 0.408674 0.767965 99 132 86
0.107095 0.408721 0.767637 41 55 33
0.147145 0.104481 0.605924 50 58 43
0.145996 0.105385 0.606224 103 132 89
0.144924 0.105411 0.606044 116 145 102
0.143853 0.105436 0.605863 95 132 80
0.142781 0.105462 0.605683 94 131 79
0.141709 0.105487 0.605502 101 133 84
0.108634 0.408757 0.770230 103 135 86
0.106680 0.408803 0.769901 44 59 34
0.145901 0.104070 0.606723 96 125 82
0.144749 0.104974 0.607025 116 145 102
0.143677 0.104999 0.606844 95 132 80
0.142605 0.105025 0.606664 94 131 79
0.141534 0.105050 0.606484 100 132 81
0.140462 0.105076 0.606303 103 135 84
0.106360 0.408006 0.771690 48 60 32
0.145645 0.104511 0.608186 89 115 75
0.144573 0.104536 0.608006 120 146 106
0.143501 0.104562 0.607826 98 136 81
0.142430 0.104587 0.607645 94 132 77
0.141358 0.104613 0.607465 98 131 77
0.140286 0.104638 0.607284 105 138 84
0.105943 0.408085 0.773961 57 73 41
0.145469 0.104073 0.609168 85 110 73
0.144398 0.104099 0.608987 120 145 108
0.143326 0.104124 0.608807 97 135 80
0.142254 0.104150 0.608626 95 133 78
0.141182 0.104176 0.608446 97 131 80
0.140111 0.104201 0.608266 105 139 88
0.105526 0.408163 0.776237 66 84 51
0.145294 0.103636 0.610149 82 105 69
0.144222 0.103662 0.609968 121 144 108
0.143150 0.103687 0.609788 99 136 84
0.142079 0.103713 0.609608 92 129 77
0.141007 0.103738 0.609427 96 130 81
0.139935 0.103764 0.609247 105 139 90
0.105011 0.409113 0.779005 66 86 53
0.145118 0.103199 0.611130 79 102 66
0.144046 0.103224 0.610950 121 144 108
0.142975 0.103250 0.610769 100 134 83
0.141903 0.103275 0.610589 93 127 76
0.140831 0.103301 0.610408 92 129 79
0.139665 0.104200 0.610718 102 139 89
0.104592 0.409185 0.781293 66 86 53
0.144942 0.102761 0.612111 73 93 58
0.143786 0.103659 0.612425 123 143 108
0.142711 0.103685 0.612244 101 135 84
0.141637 0.103711 0.612063 93 127 76
0.140656 0.102864 0.611390 92 129 79
0.139489 0.103762 0.611701 102 139 89
0.104074 0.410128 0.784077 75 98 64
0.144767 0.102324 0.613092 67 85 50
0.143610 0.103221 0.613408 123 141 106
0.142535 0.103247 0.613227 101 135 84
0.141461 0.103272 0.613046 93 127 76
0.140387 0.103298 0.612866 91 128 78
0.139313 0.103323 0.612685 101 138 88
0.103652 0.410195 0.786376 76 101 66
0.144508 0.102757 0.614572 63 81 46
0.143434 0.102783 0.614392 123 141 106
0.142359 0.102808 0.614211 103 137 86
0.141285 0.102834 0.614030 92 126 75
0.140211 0.102859 0.613849 88 127 74
0.139137 0.102885 0.613668 96 135 82
0.103132 0.411131 0.789176 77 102 67
0.144332 0.102319 0.615556 58 78 43
0.143171 0.103214 0.615876 121 141 106
0.142095 0.103239 0.615695 105 139 88
0.141018 0.103265 0.615513 96 130 79
0.139941 0.103291 0.615332 89 126 74
0.138864 0.103316 0.615151 91 128 76
0.102708 0.411193 0.791488 82 110 72
0.144072 0.102749 0.617043 55 78 44
0.142995 0.102774 0.616862 119 142 108
0.141918 0.102800 0.616681 102 139 87
0.140841 0.102826 0.616499 95 132 80
0.139765 0.102851 0.616318 90 127 75
0.138688 0.102877 0.616137 91 128 76
0.102284 0.411252 0.793803 90 118 80
0.143895 0.102309 0.618029 47 66 36
0.142818 0.102335 0.617848 119 138 108
0.141742 0.102361 0.617666 101 138 88
0.140665 0.102386 0.617485 95 132 82
0.139588 0.102412 0.617304 90 127 77
0.138511 0.102437 0.617123 89 126 76
0.101859 0.411310 0.796124 96 121 86
0.143719 0.101870 0.619015 38 57 27
0.142642 0.101895 0.618834 120 139 109
0.141565 0.101921 0.618652 103 136 90
0.140488 0.101947 0.618471 96 129 83
0.139412 0.101972 0.618290 89 125 78
0.103520 0.410452 0.798278 88 124 77
0.101533 0.410499 0.797943 97 125 89
0.099546 0.410546 0.797609 38 66 30
0.142378 0.102321 0.620330 120 137 107
0.141298 0.102347 0.620148 106 139 93
0.140219 0.102373 0.619966 97 130 84
0.139235 0.101533 0.619276 87 123 76
0.103096 0.410506 0.800606 88 124 77
0.101107 0.410554 0.800271 100 128 92
0.099117 0.410601 0.799936 37 65 29
0.142201 0.101881 0.621318 116 133 103
0.141121 0.101906 0.621136 108 144 97
0.140042 0.101932 0.620954 94 130 83
0.138963 0.101958 0.620773 84 120 73
0.137883 0.101984 0.620591 89 125 78
0.136804 0.102009 0.620409 97 125 89
0.098687 0.410653 0.802268 37 65 29
0.142024 0.101440 0.622306 111 128 98
0.140945 0.101466 0.622124 110 143 97
0.139865 0.101492 0.621943 93 126 80
0.138786 0.101517 0.621761 83 121 73
0.137706 0.101543 0.621579 86 124 76
0.136627 0.101569 0.621397 100 128 92
0.098256 0.410704 0.804604 37 65 29
0.141847 0.101000 0.623294 102 119 91
0.140768 0.101026 0.623112 101 134 90
0.139688 0.101051 0.622931 94 127 83
0.138609 0.101077 0.622749 83 121 73
0.137530 0.101103 0.622567 83 121 73
0.099822 0.410704 0.807282 98 128 91
0.097825 0.410752 0.806945 35 65 28
0.109214 0.412234 0.812351 94 111 85
0.140591 0.100585 0.624101 105 138 94
0.139511 0.100611 0.623919 93 126 82
0.138432 0.100637 0.623737 82 120 74
0.137353 0.100662 0.623556 83 121 75
0.099290 0.411612 0.810145 96 125 91
0.097392 0.410798 0.809291 34 63 29
0.141403 0.100979 0.625793 83 98 73
0.140321 0.101005 0.625610 110 143 99
0.139239 0.101030 0.625428 92 125 81
0.138157 0.101056 0.625246 83 119 74
0.137076 0.101082 0.625064 83 119 74
0.098756 0.412515 0.813018 94 123 91
0.096854 0.411703 0.812161 35 64 32
0.141226 0.100537 0.626783 86 100 78
0.140144 0.100563 0.626601 107 140 98
0.139062 0.100589 0.626419 89 122 80
0.137980 0.100615 0.626237 81 119 73
0.136898 0.100641 0.626055 81 119 73
0.098221 0.413414 0.815901 93 122 90
0.096208 0.413462 0.815562 36 65 33
0.141049 0.100096 0.627774 79 93 71
0.139967 0.100122 0.627591 105 137 98
0.138885 0.100147 0.627409 87 119 80
0.137803 0.100173 0.627227 80 118 74
0.136721 0.100199 0.627045 80 118 74
0.097683 0.414309 0.818792 92 121 89
0.095772 0.413499 0.817929 36 65 33
0.140871 0.099654 0.628764 72 86 64
0.139789 0.099680 0.628582 104 136 97
0.138708 0.099706 0.628400 87 119 80
0.137626 0.099732 0.628218 76 114 70
0.136544 0.099758 0.628036 79 117 73
0.097249 0.414343 0.821167 89 120 90
0.095335 0.413534 0.820300 34 65 35
0.140602 0.100069 0.630286 76 90 68
0.139518 0.100095 0.630103 103 135 96
0.138433 0.100120 0.629921 87 119 80
0.137349 0.100146 0.629738 77 115 71
0.136265 0.100172 0.629556 77 115 71
0.096813 0.414374 0.823546 89 120 90
0.094790 0.414423 0.823205 34 65 35
0.140425 0.099626 0.631279 80 96 75
0.139340 0.099652 0.631096 94 126 87
0.138256 0.099678 0.630914 87 119 80
0.137171 0.099704 0.630731 77 115 69
0.136087 0.099730 0.630549 76 114 68
0.135002 0.099755 0.630366 87 118 86
0.094458 0.413597 0.825058 35 66 34
0.140247 0.099184 0.632272 67 83 62
0.139162 0.099209 0.632089 103 138 98
0.138078 0.099235 0.631907 90 125 85
0.136994 0.099261 0.631724 77 115 69
0.135909 0.099287 0.631541 74 112 66
0.096045 0.413577 0.827784 87 116 84
0.094019 0.413625 0.827443 39 68 36
0.140069 0.098741 0.633265 63 81 60
0.138985 0.098767 0.633082 101 136 96
0.137900 0.098793 0.632899 85 120 80
0.136816 0.098819 0.632717 76 114 70
0.135731 0.098844 0.632534 73 111 67
0.095713 0.412750 0.829639 82 109 78
0.093687 0.412799 0.829298 43 70 39
0.139892 0.098299 0.634257 62 80 59
0.138807 0.098324 0.634075 99 131 92
0.137723 0.098350 0.633892 85 117 78
0.136638 0.098376 0.633710 78 114 71
0.135554 0.098402 0.633527 69 105 62
0.134469 0.098428 0.633345 77 99 70
0.093355 0.411972 0.831153 40 62 33
0.139714 0.097856 0.635250 63 81 60
0.138629 0.097882 0.635068 97 129 90
0.137545 0.097908 0.634885 86 118 79
0.136460 0.097934 0.634703 76 109 67
0.135376 0.097959 0.634520 71 104 62
0.134185 0.098836 0.634878 69 91 62
0.092914 0.411996 0.833548 39 61 32
0.139536 0.097413 0.636243 60 80 61
0.138452 0.097439 0.636061 97 129 90
0.137367 0.097465 0.635878 85 117 78
0.136181 0.098341 0.636240 76 112 67
0.135094 0.098367 0.636057 71 107 62
0.134007 0.098392 0.635874 69 91 62
0.139358 0.096971 0.637236 45 65 50
0.138177 0.097845 0.637601 98 130 91
0.137090 0.097871 0.637418 85 117 78
0.136003 0.097897 0.637235 76 112 67
0.134916 0.097923 0.637052 69 105 60
0.133829 0.097949 0.636869 60 84 54
0.139086 0.097376 0.638779 28 47 35
0.137999 0.097402 0.638596 94 124 87
0.136912 0.097428 0.638413 87 117 80
0.135825 0.097454 0.638230 78 111 67
0.134738 0.097479 0.638047 72 105 61
0.133651 0.097505 0.637864 46 70 42
0.137821 0.096958 0.639591 76 103 70
0.136734 0.096984 0.639408 89 116 83
0.135646 0.097010 0.639225 81 112 70
0.134559 0.097036 0.639042 84 115 73
0.133472 0.097062 0.638859 38 59 35
0.137642 0.096515 0.640587 64 88 56
0.136555 0.096540 0.640404 90 114 82
0.135468 0.096566 0.640221 88 114 74
0.134275 0.097438 0.640590 88 114 74
0.133186 0.097464 0.640407 35 53 32
0.137464 0.096071 0.641582 63 85 56
0.136377 0.096097 0.641399 93 115 86
0.135186 0.096967 0.641771 93 117 78
0.134097 0.096993 0.641588 79 103 64
0.136199 0.095653 0.642394 100 115 88
0.135008 0.096523 0.642769 99 117 84
