ply
format ascii 1.0
element vertex 1766
property float x
property float y
property float z
property uchar red
property uchar green
property uchar blue
end_header
0.252164 0.211972 0.536617 137 137 139
0.250430 0.212249 0.536256 119 119 123
0.248696 0.212526 0.535896 112 112 116
0.246962 0.212803 0.535536 108 108 108
0.245227 0.213080 0.535176 109 109 109
0.243493 0.213356 0.534815 105 111 109
0.241759 0.213633 0.534455 107 113 111
0.240025 0.213910 0.534095 114 120 118
0.238175 0.213209 0.533550 127 133 131
0.258830 0.211436 0.539950 152 156 151
0.256950 0.210740 0.539397 124 124 124
0.255216 0.211017 0.539036 104 104 104
0.253481 0.211294 0.538676 98 98 100
0.251747 0.211571 0.538316 102 102 104
0.250013 0.211847 0.537956 103 103 105
0.248279 0.212124 0.537595 103 103 105
0.246545 0.212401 0.537235 101 104 103
0.244810 0.212678 0.536875 100 103 102
0.243076 0.212955 0.536514 98 104 102
0.241342 0.213232 0.536154 99 105 103
0.239608 0.213509 0.535794 98 104 104
0.237874 0.213786 0.535434 94 100 100
0.236139 0.214063 0.535073 99 105 105
0.234405 0.214339 0.534713 121 127 127
0.265514 0.210896 0.543293 172 172 174
0.263775 0.211174 0.542932 150 153 156
0.262035 0.211451 0.542570 124 127 130
0.260149 0.210757 0.542013 100 103 102
0.258412 0.211034 0.541652 96 99 98
0.256675 0.211311 0.541291 98 101 100
0.254939 0.211589 0.540930 103 106 105
0.253202 0.211866 0.540570 103 106 105
0.251465 0.212143 0.540209 105 108 107
0.249728 0.212421 0.539848 109 109 109
0.247992 0.212698 0.539487 111 111 111
0.246255 0.212975 0.539126 114 117 116
0.244518 0.213252 0.538766 113 116 115
0.242659 0.212554 0.538214 107 113 111
0.240925 0.212830 0.537853 106 112 110
0.239191 0.213107 0.537493 106 112 110
0.237457 0.213384 0.537133 101 107 105
0.235722 0.213661 0.536773 100 106 104
0.233988 0.213938 0.536412 97 103 101
0.232254 0.214215 0.536052 105 111 111
0.230520 0.214492 0.535692 129 135 135
0.268574 0.209938 0.545720 144 143 145
0.266835 0.210216 0.545358 118 118 122
0.265096 0.210493 0.544997 105 105 109
0.263356 0.210771 0.544636 96 101 106
0.261617 0.211049 0.544274 99 104 109
0.259878 0.211326 0.543913 99 105 103
0.258139 0.211604 0.543552 103 109 107
0.256400 0.211882 0.543191 104 110 108
0.254660 0.212160 0.542829 108 114 112
0.252921 0.212437 0.542468 112 115 114
0.251182 0.212715 0.542107 116 119 118
0.249443 0.212993 0.541745 122 122 122
0.247703 0.213270 0.541384 115 115 115
0.245964 0.213548 0.541023 112 115 114
0.244101 0.212850 0.540467 112 115 114
0.242364 0.213128 0.540107 115 118 117
0.240508 0.212429 0.539553 116 119 118
0.238774 0.212706 0.539192 117 120 119
0.237039 0.212983 0.538832 112 115 114
0.235305 0.213260 0.538472 109 112 111
0.233571 0.213537 0.538112 101 104 103
0.231837 0.213813 0.537751 101 104 105
0.230103 0.214090 0.537391 96 99 100
0.228369 0.214367 0.537031 121 123 129
0.273373 0.208702 0.548508 152 151 153
0.271634 0.208980 0.548146 122 121 123
0.269895 0.209258 0.547785 106 105 109
0.268315 0.210504 0.547628 99 98 102
0.266573 0.210783 0.547266 101 104 107
0.264831 0.211061 0.546904 107 110 113
0.263090 0.211339 0.546542 107 110 113
0.261348 0.211617 0.546180 107 110 113
0.259606 0.211895 0.545819 110 113 114
0.257864 0.212173 0.545457 110 113 114
0.256123 0.212451 0.545095 114 117 116
0.254242 0.211757 0.544533 112 115 114
0.252639 0.213007 0.544371 113 116 115
0.250897 0.213285 0.544009 119 122 121
0.249024 0.212590 0.543449 139 139 139
0.247285 0.212868 0.543088 149 149 149
0.245546 0.213145 0.542727 153 153 153
0.243807 0.213423 0.542366 161 161 161
0.241946 0.212726 0.541808 164 165 161
0.240210 0.213003 0.541447 160 161 157
0.238357 0.212305 0.540892 158 159 155
0.236622 0.212581 0.540531 151 152 148
0.234888 0.212858 0.540171 133 133 133
0.233154 0.213135 0.539811 117 117 117
0.231420 0.213412 0.539451 110 110 112
0.229686 0.213689 0.539090 101 101 103
0.227951 0.213966 0.538730 97 96 103
0.226217 0.214243 0.538370 122 121 128
0.276434 0.207745 0.550934 133 133 135
0.274863 0.208989 0.550782 111 111 113
0.273121 0.209267 0.550420 101 100 104
0.271379 0.209545 0.550058 101 100 104
0.269638 0.209823 0.549696 107 107 109
0.268054 0.211070 0.549541 108 108 110
0.266466 0.212317 0.549384 110 110 112
0.264719 0.212596 0.549021 112 112 114
0.262972 0.212875 0.548658 113 116 117
0.261225 0.213154 0.548296 107 110 111
0.259479 0.213432 0.547933 110 113 114
0.257732 0.213711 0.547570 123 126 127
0.255985 0.213990 0.547207 140 140 140
0.254100 0.213298 0.546642 155 155 155
0.252356 0.213576 0.546280 173 173 173
0.250612 0.213854 0.545917 179 179 179
0.238055 0.212878 0.542788 171 172 168
0.236318 0.213156 0.542427 167 168 164
0.234582 0.213433 0.542067 160 160 160
0.232845 0.213710 0.541706 133 133 133
0.231003 0.213011 0.541150 121 121 121
0.229269 0.213288 0.540789 111 111 111
0.225898 0.214819 0.540263 100 103 104
0.224162 0.215097 0.539902 119 119 123
0.281411 0.207474 0.553935 146 146 148
0.279669 0.207752 0.553574 124 124 128
0.277927 0.208030 0.553212 104 104 108
0.276186 0.208308 0.552850 101 101 105
0.274444 0.208586 0.552488 104 104 108
0.272867 0.209830 0.552337 105 105 109
0.271123 0.210109 0.551974 108 108 112
0.269539 0.211355 0.551821 110 110 112
0.267792 0.211634 0.551458 115 115 117
0.266201 0.212881 0.551304 116 116 116
0.264604 0.214129 0.551148 114 114 114
0.262853 0.214408 0.550784 116 116 116
0.261101 0.214688 0.550421 132 132 132
0.259349 0.214968 0.550057 158 158 158
0.257597 0.215247 0.549693 178 178 178
0.255705 0.214557 0.549124 182 181 181
0.234164 0.213031 0.543768 170 169 169
0.232427 0.213308 0.543408 158 157 157
0.230691 0.213585 0.543047 127 126 126
0.228954 0.213863 0.542686 116 115 115
0.227217 0.214140 0.542325 115 115 119
0.225481 0.214417 0.541964 109 109 113
0.223744 0.214695 0.541604 103 103 107
0.222100 0.215950 0.541438 128 128 132
0.284840 0.208441 0.556799 137 136 138
0.283093 0.208719 0.556436 109 109 113
0.281169 0.208034 0.555857 101 101 105
0.279425 0.208313 0.555495 105 105 109
0.277681 0.208591 0.555133 103 103 107
0.275936 0.208870 0.554770 109 109 113
0.274192 0.209148 0.554408 110 110 114
0.272448 0.209427 0.554046 116 116 118
0.270866 0.210672 0.553896 112 112 114
0.269279 0.211917 0.553745 111 111 113
0.267687 0.213164 0.553593 115 115 117
0.265935 0.213444 0.553229 130 131 127
0.264183 0.213723 0.552865 155 156 152
0.262581 0.214971 0.552711 179 179 179
0.260827 0.215251 0.552346 181 181 181
0.232117 0.213881 0.545310 174 174 174
0.230377 0.214159 0.544949 163 162 162
0.228536 0.213461 0.544388 126 125 125
0.226899 0.214715 0.544226 115 114 116
0.225160 0.214992 0.543865 115 114 116
0.223421 0.215270 0.543504 108 108 112
0.221681 0.215548 0.543142 105 105 109
0.219942 0.215825 0.542781 141 144 147
0.290038 0.209122 0.560040 158 157 159
0.288286 0.209402 0.559676 131 130 132
0.286535 0.209682 0.559312 108 108 110
0.284783 0.209962 0.558948 104 104 106
0.282852 0.209278 0.558366 104 104 108
0.280926 0.208594 0.557784 107 107 111
0.279179 0.208873 0.557422 109 109 113
0.277433 0.209152 0.557059 111 111 115
0.275686 0.209431 0.556696 116 116 118
0.273939 0.209710 0.556333 116 116 118
0.272192 0.209988 0.555970 116 116 116
0.270607 0.211233 0.555822 131 131 131
0.268858 0.211513 0.555459 157 157 157
0.267265 0.212758 0.555309 173 173 173
0.265667 0.214005 0.555158 183 183 179
0.228220 0.214034 0.546292 173 172 172
0.226481 0.214312 0.545930 120 119 119
0.224742 0.214590 0.545569 113 112 112
0.223096 0.215844 0.545408 113 116 117
0.221354 0.216122 0.545047 98 101 102
0.219613 0.216400 0.544685 112 115 118
0.217957 0.217656 0.544522 155 158 161
0.293507 0.210078 0.562932 150 153 156
0.291751 0.210358 0.562567 117 120 123
0.289994 0.210639 0.562202 104 104 108
0.288051 0.209958 0.561615 107 107 111
0.286297 0.210238 0.561250 103 103 107
0.284362 0.209556 0.560664 102 102 106
0.282610 0.209836 0.560301 110 110 114
0.280682 0.209153 0.559716 112 112 116
0.278759 0.208469 0.559133 114 114 116
0.277013 0.208748 0.558770 112 112 114
0.275266 0.209026 0.558407 121 121 121
0.273519 0.209305 0.558044 140 140 140
0.271936 0.210549 0.557899 165 165 165
0.270187 0.210828 0.557536 180 180 180
0.268596 0.212073 0.557389 183 183 183
0.226161 0.214885 0.547839 168 167 167
0.224419 0.215163 0.547477 117 116 116
0.222770 0.216417 0.547318 115 115 117
0.221026 0.216695 0.546956 104 104 106
0.219370 0.217951 0.546796 96 99 102
0.217623 0.218230 0.546433 130 133 136
0.296797 0.210069 0.565611 155 155 159
0.295037 0.210350 0.565245 125 125 129
0.293278 0.210630 0.564880 103 105 111
0.291519 0.210911 0.564514 103 105 111
0.289571 0.210232 0.563923 105 105 109
0.287815 0.210513 0.563559 109 109 113
0.285875 0.209832 0.562969 114 114 118
0.284121 0.210112 0.562605 117 117 121
0.282188 0.209430 0.562017 118 118 120
0.280437 0.209710 0.561653 116 116 118
0.278512 0.209027 0.561067 118 118 118
0.276763 0.209306 0.560704 142 142 142
0.275014 0.209586 0.560340 169 169 169
0.273099 0.208901 0.559756 183 183 183
0.224190 0.216710 0.549596 161 161 157
0.222443 0.216989 0.549233 112 112 114
0.220697 0.217268 0.548870 114 114 116
0.218950 0.217546 0.548507 98 101 104
0.217288 0.218802 0.548348 107 110 113
0.215456 0.218104 0.547781 147 150 151
0.300094 0.210057 0.568297 152 152 156
0.298333 0.210338 0.567931 123 123 127
0.296571 0.210620 0.567565 107 106 113
0.294809 0.210901 0.567199 108 107 114
0.292855 0.210223 0.566604 101 104 107
0.291095 0.210504 0.566238 105 108 111
0.289336 0.210785 0.565873 107 110 113
0.287392 0.210106 0.565280 112 115 118
0.285453 0.209426 0.564688 115 115 119
0.283699 0.209706 0.564324 117 117 121
0.281767 0.209025 0.563733 128 128 128
0.280015 0.209305 0.563370 150 150 150
0.278091 0.208622 0.562781 176 176 176
0.276342 0.208901 0.562417 182 182 182
0.223865 0.217280 0.551516 185 186 182
0.222115 0.217559 0.551152 150 150 150
0.220366 0.217839 0.550789 110 110 110
0.218617 0.218118 0.550426 108 111 114
0.216952 0.219373 0.550269 103 106 109
0.215200 0.219653 0.549905 119 122 125
0.213448 0.219933 0.549541 163 166 169
0.303401 0.210043 0.570989 155 158 161
0.301637 0.210324 0.570623 122 125 128
0.299671 0.209649 0.570023 108 107 114
0.297909 0.209931 0.569657 100 99 106
0.296147 0.210212 0.569291 101 103 111
0.294385 0.210493 0.568925 102 104 112
0.292623 0.210774 0.568559 108 111 114
0.290672 0.210097 0.567962 110 113 116
0.288913 0.210378 0.567597 115 115 119
0.286970 0.209699 0.567001 122 122 126
0.285213 0.209980 0.566636 136 135 137
0.283277 0.209300 0.566043 159 158 160
0.281523 0.209580 0.565678 180 179 179
0.221877 0.219103 0.553288 179 180 176
0.220034 0.218408 0.552713 116 117 113
0.218282 0.218688 0.552349 114 117 118
0.216531 0.218968 0.551985 110 113 114
0.214779 0.219247 0.551621 103 106 109
0.213106 0.220503 0.551465 143 146 149
0.306505 0.209071 0.573451 164 174 177
0.304741 0.209352 0.573085 121 131 134
0.302977 0.209634 0.572718 105 110 115
0.301212 0.209916 0.572352 100 105 110
0.299448 0.210198 0.571985 103 105 111
0.297485 0.209523 0.571383 105 107 113
0.295723 0.209804 0.571017 105 107 113
0.293962 0.210085 0.570651 110 112 118
0.292200 0.210367 0.570285 117 120 123
0.290438 0.210648 0.569919 120 123 126
0.288490 0.209971 0.569320 136 136 138
0.286731 0.210252 0.568955 159 159 161
0.284790 0.209573 0.568358 176 176 178
0.219701 0.218977 0.554642 154 154 150
0.217947 0.219257 0.554278 107 108 104
0.216193 0.219537 0.553913 116 117 113
0.214438 0.219817 0.553549 107 110 109
0.212684 0.220097 0.553184 115 118 117
0.210930 0.220377 0.552820 162 162 164
0.309610 0.208099 0.575913 95 110 109
0.307845 0.208381 0.575546 126 141 140
0.306081 0.208662 0.575180 107 117 122
0.304317 0.208944 0.574813 94 104 109
0.302552 0.209226 0.574447 98 103 110
0.300788 0.209508 0.574080 101 106 113
0.299024 0.209789 0.573714 103 105 111
0.297259 0.210071 0.573347 115 117 123
0.295495 0.210353 0.572981 117 120 123
0.293538 0.209678 0.572377 114 117 120
0.291776 0.209959 0.572011 128 128 130
0.290014 0.210240 0.571645 159 159 161
0.288067 0.209563 0.571044 178 178 180
0.219279 0.218571 0.556361 183 184 178
0.217525 0.218851 0.555996 117 118 114
0.215771 0.219131 0.555632 114 115 111
0.214016 0.219411 0.555268 110 114 109
0.212262 0.219691 0.554903 105 109 104
0.210508 0.219971 0.554539 135 135 135
0.310950 0.207409 0.578008 141 147 149
0.309185 0.207691 0.577642 83 93 96
0.307421 0.207972 0.577275 89 99 102
0.305657 0.208254 0.576909 95 105 108
0.303892 0.208536 0.576542 102 112 115
0.302128 0.208817 0.576176 105 110 115
0.300364 0.209099 0.575809 112 117 122
0.298599 0.209381 0.575442 119 122 125
0.296835 0.209663 0.575076 120 123 126
0.295071 0.209944 0.574709 135 135 135
0.293307 0.210226 0.574343 162 162 162
0.291352 0.209551 0.573738 178 178 178
0.217188 0.219418 0.557932 149 150 146
0.215349 0.218725 0.557351 107 108 104
0.213595 0.219005 0.556986 113 117 112
0.211840 0.219285 0.556622 106 110 105
0.210160 0.220540 0.556472 111 111 111
0.208404 0.220821 0.556107 155 155 155
0.314054 0.206437 0.580470 150 153 154
0.312290 0.206719 0.580103 118 123 128
0.310525 0.207001 0.579737 93 98 103
0.308761 0.207282 0.579370 88 95 99
0.306997 0.207564 0.579004 99 106 110
0.305232 0.207846 0.578637 104 111 115
0.303468 0.208127 0.578271 109 116 120
0.301704 0.208409 0.577904 112 115 118
0.299939 0.208691 0.577538 113 116 119
0.298175 0.208972 0.577171 126 126 128
0.296411 0.209254 0.576805 155 155 157
0.294647 0.209536 0.576438 173 173 173
0.215008 0.219292 0.559289 129 129 129
0.213252 0.219573 0.558924 109 109 109
0.211495 0.219853 0.558559 114 114 114
0.209738 0.220134 0.558194 111 111 111
0.207981 0.220414 0.557829 122 122 122
0.206293 0.221670 0.557680 177 176 176
0.317158 0.205466 0.582932 168 167 167
0.315394 0.205747 0.582565 128 131 134
0.313851 0.206979 0.582449 99 102 105
0.312084 0.207261 0.582082 92 97 102
0.310101 0.206592 0.581465 98 103 108
0.308337 0.206874 0.581099 103 109 111
0.306572 0.207156 0.580732 106 112 114
0.304808 0.207437 0.580366 115 121 123
0.303044 0.207719 0.579999 119 125 127
0.301279 0.208001 0.579633 130 130 132
0.299515 0.208282 0.579266 158 158 160
0.297751 0.208564 0.578900 174 173 173
0.214586 0.218886 0.561010 165 165 165
0.212829 0.219166 0.560645 116 115 115
0.211072 0.219447 0.560280 116 115 115
0.209389 0.220701 0.560135 111 110 112
0.207629 0.220982 0.559769 108 107 109
0.205870 0.221263 0.559404 165 164 164
0.318727 0.205724 0.585281 137 136 138
0.316960 0.206006 0.584914 110 109 111
0.315193 0.206288 0.584547 100 100 104
0.313426 0.206570 0.584180 103 103 107
0.311659 0.206852 0.583813 105 108 111
0.309892 0.207134 0.583446 112 115 118
0.307912 0.206466 0.582828 113 119 119
0.306359 0.207698 0.582712 112 118 118
0.304384 0.207029 0.582095 127 130 131
0.302619 0.207311 0.581728 145 148 149
0.300855 0.207592 0.581362 175 175 175
0.212484 0.219732 0.562590 145 144 144
0.210725 0.220013 0.562224 112 111 111
0.209038 0.221267 0.562081 115 114 116
0.207277 0.221548 0.561715 106 105 107
0.205515 0.221830 0.561349 129 129 131
0.203753 0.222111 0.560983 172 172 174
0.321835 0.204751 0.587747 144 143 145
0.320068 0.205033 0.587380 111 110 112
0.318302 0.205315 0.587012 96 96 98
0.316535 0.205597 0.586645 100 100 102
0.314768 0.205879 0.586278 108 108 110
0.313001 0.206161 0.585911 110 110 112
0.311234 0.206443 0.585544 110 110 110
0.309467 0.206725 0.585177 118 118 118
0.307701 0.207007 0.584810 130 133 132
0.305724 0.206339 0.584190 158 161 160
0.303959 0.206621 0.583823 177 180 181
0.212061 0.219325 0.564313 180 179 179
0.210376 0.220578 0.564173 122 121 121
0.208615 0.220859 0.563807 116 116 118
0.206853 0.221140 0.563441 107 107 109
0.205091 0.221422 0.563075 105 105 107
0.203394 0.222677 0.562932 157 157 159
0.324944 0.203778 0.590212 161 161 163
0.323412 0.205006 0.590106 116 116 118
0.321642 0.205288 0.589738 100 100 102
0.319873 0.205571 0.589371 100 100 102
0.318104 0.205853 0.589003 107 107 107
0.316334 0.206136 0.588636 112 112 112
0.314343 0.205470 0.588010 114 114 116
0.312576 0.205752 0.587643 116 116 118
0.310809 0.206034 0.587276 129 129 129
0.309043 0.206316 0.586908 137 137 137
0.307276 0.206599 0.586541 129 133 128
0.210027 0.221142 0.566127 139 138 138
0.208262 0.221423 0.565760 117 117 117
0.206498 0.221705 0.565394 114 114 114
0.204734 0.221987 0.565027 101 101 103
0.202969 0.222269 0.564661 133 133 135
0.328053 0.202805 0.592677 172 172 174
0.326525 0.204031 0.592574 135 135 137
0.324756 0.204314 0.592207 99 102 103
0.322986 0.204596 0.591839 95 98 99
0.321217 0.204879 0.591472 105 108 107
0.319448 0.205161 0.591104 107 110 109
0.317678 0.205444 0.590737 116 116 116
0.315909 0.205726 0.590369 119 119 119
0.314140 0.206009 0.590002 115 115 115
0.312370 0.206291 0.589634 150 150 150
0.310384 0.205625 0.589007 178 179 175
0.209602 0.220733 0.567856 179 179 175
0.207838 0.221015 0.567489 115 115 115
0.206074 0.221297 0.567123 121 121 121
0.204309 0.221578 0.566756 109 109 111
0.202545 0.221860 0.566390 110 110 112
0.200781 0.222142 0.566023 151 151 153
0.331161 0.201831 0.595142 180 180 180
0.329638 0.203057 0.595043 158 158 158
0.327869 0.203339 0.594676 105 108 111
0.326099 0.203622 0.594308 93 96 99
0.324330 0.203904 0.593941 98 101 100
0.322561 0.204187 0.593573 105 108 107
0.320791 0.204469 0.593205 110 113 112
0.319022 0.204752 0.592838 116 119 118
0.317253 0.205034 0.592470 118 118 118
0.315483 0.205317 0.592103 132 132 132
0.313714 0.205599 0.591735 169 169 169
0.207414 0.220607 0.569218 129 129 129
0.205649 0.220888 0.568851 111 111 111
0.203885 0.221170 0.568485 109 112 115
0.202121 0.221452 0.568118 102 105 108
0.200417 0.222706 0.567982 127 130 131
0.198650 0.222988 0.567615 166 169 170
0.332751 0.202082 0.597512 158 158 160
0.330982 0.202365 0.597144 115 118 121
0.329212 0.202647 0.596777 93 96 99
0.327443 0.202930 0.596409 98 101 104
0.325674 0.203212 0.596042 98 101 104
0.323904 0.203495 0.595674 107 110 109
0.322135 0.203777 0.595307 110 113 112
0.320366 0.204060 0.594939 114 114 114
0.318596 0.204342 0.594571 125 125 125
0.316827 0.204625 0.594204 172 171 171
0.206989 0.220198 0.570947 166 169 168
0.205292 0.221451 0.570814 110 113 112
0.203525 0.221733 0.570447 121 124 125
0.201759 0.222015 0.570080 108 111 112
0.199992 0.222297 0.569713 112 118 118
0.198225 0.222579 0.569346 149 155 155
0.335864 0.201108 0.599981 167 166 168
0.334095 0.201390 0.599613 132 131 138
0.332326 0.201673 0.599246 98 97 104
0.330556 0.201955 0.598878 94 93 100
0.328787 0.202238 0.598511 100 99 106
0.327018 0.202520 0.598143 105 105 107
0.325248 0.202803 0.597775 115 115 117
0.323479 0.203085 0.597408 116 116 116
0.321710 0.203368 0.597040 128 128 128
0.319940 0.203650 0.596673 161 160 160
0.318171 0.203933 0.596305 183 182 182
0.204867 0.221042 0.572545 129 133 128
0.203101 0.221324 0.572178 113 116 117
0.201334 0.221606 0.571811 115 118 119
0.199567 0.221888 0.571444 105 111 111
0.197800 0.222170 0.571077 131 137 137
0.338977 0.200133 0.602449 173 172 174
0.337208 0.200416 0.602082 132 132 136
0.335439 0.200698 0.601714 100 100 104
0.333669 0.200981 0.601347 97 96 103
0.331900 0.201263 0.600979 101 100 107
0.330131 0.201546 0.600612 105 105 109
0.328361 0.201828 0.600244 115 115 119
0.326592 0.202111 0.599877 115 115 117
0.324823 0.202393 0.599509 122 122 124
0.323053 0.202676 0.599141 138 138 138
0.204442 0.220633 0.574276 162 162 162
0.202676 0.220915 0.573909 108 111 110
0.200909 0.221197 0.573542 119 122 121
0.199142 0.221479 0.573175 106 112 110
0.197375 0.221761 0.572808 110 116 114
0.195608 0.222043 0.572441 151 154 157
0.342352 0.200096 0.605200 178 178 180
0.340321 0.199441 0.604551 135 135 139
0.338552 0.199724 0.604183 110 110 114
0.336783 0.200006 0.603815 97 96 103
0.335013 0.200289 0.603448 102 101 108
0.333244 0.200571 0.603080 101 101 105
0.331475 0.200854 0.602713 105 105 109
0.329705 0.201136 0.602345 117 116 118
0.327936 0.201419 0.601978 118 117 119
0.326167 0.201701 0.601610 133 133 133
0.324397 0.201984 0.601243 168 168 168
0.202313 0.221475 0.575881 126 130 125
0.200484 0.220788 0.575273 113 117 112
0.198775 0.222040 0.575146 114 117 116
0.196950 0.221352 0.574539 106 109 108
0.195183 0.221634 0.574172 131 137 139
0.345469 0.199121 0.607672 176 176 178
0.343697 0.199403 0.607304 147 147 151
0.342186 0.200623 0.607221 125 125 129
0.340154 0.199969 0.606568 103 102 109
0.338382 0.200252 0.606200 100 99 106
0.336610 0.200535 0.605832 104 103 110
0.334588 0.199879 0.605182 112 111 118
0.332818 0.200162 0.604814 119 119 123
0.331049 0.200444 0.604446 118 118 122
0.329280 0.200727 0.604079 126 125 125
0.327510 0.201009 0.603711 158 157 157
0.201888 0.221066 0.577615 164 164 164
0.200119 0.221348 0.577247 109 109 109
0.198349 0.221631 0.576880 116 119 120
0.196580 0.221913 0.576512 113 116 117
0.194811 0.222196 0.576145 106 112 114
0.193041 0.222478 0.575777 149 155 157
0.347350 0.200298 0.610354 141 143 149
0.345308 0.199646 0.609697 112 114 120
0.343534 0.199929 0.609328 106 108 114
0.341759 0.200213 0.608959 105 107 113
0.339985 0.200496 0.608591 100 102 108
0.337956 0.199842 0.607936 100 102 108
0.336184 0.200125 0.607568 111 111 115
0.334162 0.199470 0.606915 114 114 118
0.332393 0.199752 0.606548 116 115 117
0.330624 0.200035 0.606180 147 146 148
0.328854 0.200317 0.605813 184 179 177
0.199693 0.220939 0.578981 135 135 135
0.197924 0.221221 0.578613 115 115 117
0.196154 0.221504 0.578246 116 116 118
0.194385 0.221786 0.577878 103 109 111
0.192616 0.222069 0.577511 131 137 139
0.352527 0.199969 0.613494 176 175 175
0.350748 0.200254 0.613125 152 155 158
0.348969 0.200538 0.612755 121 124 127
0.347189 0.200822 0.612386 108 110 116
0.345146 0.200171 0.611725 102 104 110
0.343369 0.200454 0.611356 101 103 109
0.341592 0.200738 0.610987 102 104 110
0.339558 0.200085 0.610329 105 105 109
0.337784 0.200369 0.609961 114 114 118
0.335758 0.199715 0.609304 118 118 122
0.333986 0.199998 0.608936 125 125 129
0.332214 0.200280 0.608568 152 151 151
0.199268 0.220529 0.580715 166 166 166
0.197498 0.220812 0.580347 114 114 116
0.195729 0.221094 0.579979 118 118 120
0.193960 0.221377 0.579612 105 111 113
0.192190 0.221659 0.579244 112 118 120
0.190421 0.221942 0.578877 168 174 174
0.354155 0.200206 0.615903 158 158 162
0.352373 0.200491 0.615533 128 128 132
0.350591 0.200775 0.615163 105 107 113
0.348809 0.201060 0.614793 107 109 115
0.347027 0.201344 0.614422 102 104 110
0.345246 0.201629 0.614052 102 104 110
0.343203 0.200978 0.613390 105 108 111
0.341164 0.200327 0.612728 106 109 112
0.339388 0.200611 0.612359 118 118 120
0.337357 0.199958 0.611699 118 118 120
0.335332 0.199305 0.611040 150 150 150
0.333560 0.199588 0.610672 172 172 172
0.197128 0.221370 0.582330 122 122 124
0.195356 0.221653 0.581962 118 118 120
0.193534 0.220967 0.581346 109 112 115
0.191765 0.221250 0.580978 105 108 111
0.189995 0.221532 0.580610 162 165 168
0.357290 0.199225 0.618389 159 159 163
0.355508 0.199509 0.618019 131 131 135
0.354002 0.200726 0.617947 112 111 118
0.352218 0.201011 0.617576 110 109 116
0.350433 0.201296 0.617206 100 103 106
0.348649 0.201580 0.616835 102 105 108
0.346865 0.201865 0.616464 102 105 108
0.344817 0.201216 0.615798 109 112 115
0.343035 0.201501 0.615428 113 116 117
0.340995 0.200850 0.614763 119 122 123
0.338960 0.200199 0.614100 140 140 140
0.337183 0.200483 0.613731 168 168 168
0.196757 0.221927 0.584318 161 161 163
0.194982 0.222211 0.583950 110 110 112
0.193158 0.221526 0.583330 112 112 116
0.191386 0.221809 0.582962 107 107 111
0.189570 0.221123 0.582344 132 131 138
0.187801 0.221405 0.581977 165 164 171
0.358926 0.199458 0.620807 128 131 134
0.357142 0.199743 0.620437 111 110 119
0.355357 0.200028 0.620066 109 108 117
0.353848 0.201244 0.619996 108 107 114
0.352061 0.201530 0.619624 98 97 104
0.350274 0.201815 0.619253 101 104 107
0.348487 0.202100 0.618882 107 110 113
0.346435 0.201452 0.618213 115 118 121
0.344651 0.201737 0.617842 120 123 126
0.342607 0.201088 0.617174 123 126 127
0.340825 0.201373 0.616804 163 166 167
0.196384 0.222483 0.586311 180 179 181
0.194607 0.222767 0.585942 122 121 123
0.192781 0.222083 0.585320 118 117 124
0.191007 0.222367 0.584951 115 114 121
0.189233 0.222650 0.584583 111 110 117
0.187417 0.221964 0.583962 159 158 165
0.362640 0.200333 0.623908 136 136 140
0.360850 0.200619 0.623536 117 122 129
0.358779 0.199975 0.622860 112 117 124
0.356992 0.200260 0.622489 109 111 119
0.355205 0.200545 0.622118 101 103 111
0.353693 0.201761 0.622049 103 105 111
0.351903 0.202047 0.621678 103 105 111
0.350114 0.202333 0.621306 115 115 119
0.348324 0.202619 0.620934 116 116 120
0.346006 0.201039 0.619961 121 124 125
0.344222 0.201324 0.619590 141 144 145
0.194282 0.224289 0.588196 133 133 135
0.192452 0.223606 0.587570 115 115 119
0.190626 0.222923 0.586945 117 117 121
0.188849 0.223207 0.586576 106 109 112
0.187032 0.222522 0.585953 145 148 151
0.365788 0.199347 0.626405 147 146 153
0.363999 0.199633 0.626033 117 116 123
0.362209 0.199919 0.625661 115 114 121
0.360420 0.200204 0.625290 111 116 125
0.358631 0.200490 0.624918 104 109 118
0.356841 0.200776 0.624546 100 105 112
0.355052 0.201062 0.624174 98 103 110
0.353262 0.201347 0.623803 106 108 116
0.351473 0.201633 0.623431 115 117 125
0.349684 0.201919 0.623059 115 115 119
0.347894 0.202204 0.622687 131 131 135
0.345841 0.201558 0.622012 174 174 174
0.193904 0.224842 0.590201 165 165 167
0.192072 0.224161 0.589572 108 111 114
0.190290 0.224445 0.589202 120 123 126
0.188508 0.224730 0.588832 108 111 114
0.186645 0.223079 0.587948 133 136 139
0.368937 0.198362 0.628901 151 151 155
0.367147 0.198648 0.628530 119 118 125
0.365358 0.198933 0.628158 118 117 124
0.362065 0.200432 0.627725 104 103 112
0.360273 0.200718 0.627353 91 96 105
0.358200 0.200076 0.626671 93 98 107
0.356411 0.200362 0.626299 103 105 113
0.354621 0.200647 0.625928 110 112 120
0.352832 0.200933 0.625556 112 111 118
0.351043 0.201219 0.625184 130 129 136
0.349253 0.201505 0.624812 160 159 161
0.193525 0.225395 0.592211 179 178 178
0.191691 0.224714 0.591579 120 123 126
0.189906 0.224999 0.591208 117 120 123
0.188122 0.225284 0.590837 112 118 120
0.186298 0.224602 0.590207 106 112 114
0.184516 0.224886 0.589837 157 160 163
0.372085 0.197376 0.631398 151 150 150
0.370296 0.197662 0.631027 129 128 130
0.368506 0.197948 0.630655 122 121 123
0.366717 0.198233 0.630283 117 116 123
0.363426 0.199731 0.629853 104 103 110
0.361634 0.200018 0.629481 100 99 106
0.359842 0.200304 0.629108 100 99 108
0.358050 0.200590 0.628736 107 106 115
0.355980 0.199948 0.628053 109 108 115
0.354191 0.200233 0.627681 129 128 135
0.352674 0.201448 0.627620 152 151 153
0.350612 0.200805 0.626938 182 181 183
0.191355 0.226232 0.593854 149 152 153
0.189521 0.225552 0.593219 109 112 113
0.187776 0.226803 0.593110 114 120 122
0.185948 0.226122 0.592477 104 110 112
0.184161 0.226408 0.592106 131 134 137
0.373444 0.196676 0.633523 131 130 130
0.371655 0.196962 0.633152 110 109 109
0.369865 0.197248 0.632780 113 112 114
0.368076 0.197533 0.632408 111 110 112
0.366287 0.197819 0.632036 104 104 108
0.364787 0.199031 0.631981 97 97 101
0.362995 0.199317 0.631609 98 98 102
0.361203 0.199603 0.631236 107 107 111
0.359693 0.200816 0.631179 117 116 123
0.357899 0.201102 0.630806 121 120 127
0.355827 0.200461 0.630120 150 150 154
0.354035 0.200747 0.629748 180 180 184
0.190925 0.225817 0.595607 174 177 178
0.189135 0.226103 0.595235 113 116 117
0.187346 0.226389 0.594864 113 119 121
0.185556 0.226674 0.594492 107 113 115
0.183803 0.227926 0.594384 122 125 128
0.181978 0.227246 0.593749 162 165 168
0.376899 0.196613 0.636343 142 142 146
0.375107 0.196899 0.635970 110 110 114
0.373315 0.197185 0.635598 115 114 116
0.371523 0.197471 0.635226 115 114 116
0.369731 0.197758 0.634853 109 108 112
0.367940 0.198044 0.634481 103 102 106
0.366148 0.198330 0.634109 107 107 111
0.364356 0.198616 0.633737 110 110 114
0.362850 0.199827 0.633683 122 122 126
0.361056 0.200114 0.633310 114 114 118
0.359543 0.201327 0.633255 143 143 147
0.357746 0.201614 0.632881 171 171 175
0.355673 0.200974 0.632192 184 183 187
0.188748 0.226653 0.597256 131 131 133
0.186956 0.226939 0.596884 112 118 118
0.185164 0.227225 0.596512 112 118 118
0.183372 0.227512 0.596140 109 112 115
0.181613 0.228764 0.596033 150 153 156
0.380674 0.197468 0.639495 153 153 157
0.378877 0.197755 0.639121 117 117 121
0.376774 0.197120 0.638423 103 102 109
0.374980 0.197407 0.638050 112 111 118
0.372884 0.196771 0.637354 108 108 112
0.371092 0.197057 0.636981 102 102 106
0.369301 0.197343 0.636609 104 103 107
0.367509 0.197629 0.636237 112 111 115
0.365717 0.197915 0.635865 118 117 121
0.364213 0.199126 0.635814 111 110 114
0.362419 0.199412 0.635441 127 126 130
0.360908 0.200624 0.635388 168 167 171
0.359111 0.200911 0.635015 186 185 189
0.188317 0.226239 0.599012 165 165 165
0.186525 0.226525 0.598640 107 110 111
0.184771 0.227775 0.598537 116 119 120
0.182976 0.228062 0.598164 106 109 112
0.181182 0.228348 0.597791 133 136 139
0.382352 0.197685 0.641958 132 132 136
0.380552 0.197973 0.641584 102 104 110
0.378445 0.197339 0.640882 103 105 111
0.376648 0.197626 0.640509 108 110 116
0.374851 0.197913 0.640135 105 107 113
0.372754 0.197278 0.639436 105 108 111
0.370959 0.197564 0.639063 106 109 112
0.369165 0.197851 0.638690 111 111 115
0.367370 0.198137 0.638318 118 118 122
0.365576 0.198424 0.637945 128 124 129
0.363782 0.198710 0.637572 160 156 161
0.362273 0.199921 0.637522 186 182 187
0.187928 0.226787 0.601041 174 174 176
0.186133 0.227074 0.600668 107 110 111
0.182579 0.228611 0.600193 113 116 117
0.180782 0.228898 0.599820 122 125 126
0.385518 0.196694 0.644468 146 145 149
0.383718 0.196982 0.644095 125 123 130
0.381919 0.197269 0.643721 106 104 111
0.380119 0.197556 0.643347 103 102 109
0.378320 0.197843 0.642973 105 104 111
0.376521 0.198131 0.642599 105 104 111
0.374721 0.198418 0.642226 104 103 110
0.372922 0.198705 0.641852 110 110 114
0.370825 0.198071 0.641150 110 110 114
0.369028 0.198358 0.640776 124 123 125
0.367231 0.198645 0.640403 151 150 152
0.365434 0.198932 0.640030 184 180 183
0.185702 0.226658 0.602426 120 123 124
0.182147 0.228195 0.601954 115 118 119
0.180350 0.228482 0.601581 109 112 113
0.178582 0.229734 0.601480 158 161 164
0.388684 0.195703 0.646979 167 163 164
0.386884 0.195990 0.646605 120 119 123
0.385085 0.196278 0.646231 116 115 119
0.383286 0.196565 0.645858 109 107 114
0.381486 0.196852 0.645484 102 100 107
0.379687 0.197140 0.645110 103 101 108
0.377887 0.197427 0.644736 106 104 111
0.376088 0.197714 0.644362 108 107 114
0.374288 0.198002 0.643989 104 103 110
0.372489 0.198289 0.643615 112 112 114
0.370689 0.198576 0.643241 137 137 139
0.368890 0.198863 0.642867 176 175 177
0.185308 0.227205 0.604461 133 133 135
0.183511 0.227492 0.604088 116 116 118
0.181715 0.227779 0.603715 117 120 121
0.179948 0.229030 0.603617 108 111 112
0.178149 0.229317 0.603243 144 147 150
0.390374 0.195916 0.649455 146 145 147
0.388572 0.196203 0.649081 112 111 113
0.386770 0.196491 0.648706 113 111 118
0.384968 0.196779 0.648332 112 110 117
0.383166 0.197066 0.647958 103 101 108
0.381364 0.197354 0.647583 109 107 114
0.379562 0.197642 0.647209 108 107 111
0.377454 0.197010 0.646499 116 115 119
0.375655 0.197298 0.646126 115 115 119
0.373856 0.197585 0.645752 126 126 130
0.372056 0.197872 0.645378 173 172 174
0.370257 0.198160 0.645004 188 187 189
0.184876 0.226789 0.606222 163 166 165
0.183079 0.227076 0.605849 112 115 114
0.181315 0.228326 0.605754 121 124 125
0.179515 0.228613 0.605380 108 111 112
0.177716 0.228901 0.605006 134 137 138
0.393545 0.194923 0.651969 173 173 175
0.391743 0.195211 0.651595 122 122 124
0.389941 0.195499 0.651221 111 110 117
0.388139 0.195786 0.650846 111 110 117
0.386655 0.196990 0.650812 109 107 114
0.384850 0.197278 0.650437 104 102 109
0.383046 0.197567 0.650063 104 104 108
0.381242 0.197855 0.649688 115 115 119
0.379129 0.197225 0.648975 116 116 118
0.377327 0.197512 0.648600 122 122 124
0.375525 0.197800 0.648226 155 154 156
0.373723 0.198088 0.647852 181 180 182
0.182647 0.226660 0.607609 119 122 123
0.180882 0.227910 0.607517 120 123 124
0.179083 0.228197 0.607143 115 118 119
0.177283 0.228484 0.606769 122 125 126
0.175484 0.228771 0.606396 173 176 177
0.395243 0.195132 0.654455 159 159 161
0.393439 0.195420 0.654080 110 112 118
0.391634 0.195708 0.653705 101 103 109
0.389830 0.195997 0.653330 108 110 116
0.388025 0.196285 0.652955 105 107 113
0.386221 0.196573 0.652580 105 105 109
0.384416 0.196861 0.652205 107 107 111
0.382612 0.197149 0.651831 118 118 122
0.380808 0.197437 0.651456 115 115 119
0.379003 0.197725 0.651081 132 132 134
0.377199 0.198013 0.650706 173 173 175
0.182249 0.227206 0.609654 136 139 138
0.180449 0.227493 0.609280 116 119 120
0.178650 0.227780 0.608906 119 122 123
0.176850 0.228068 0.608532 110 113 114
0.175051 0.228355 0.608159 162 165 166
0.398418 0.194138 0.656972 176 175 175
0.396614 0.194426 0.656597 138 137 144
0.394809 0.194715 0.656223 105 104 111
0.393005 0.195003 0.655848 100 105 112
0.391200 0.195291 0.655473 100 105 112
0.389718 0.196493 0.655444 99 105 107
0.387911 0.196782 0.655069 98 104 106
0.386104 0.197070 0.654694 109 112 115
0.384297 0.197359 0.654318 115 118 121
0.382490 0.197647 0.653943 118 118 120
0.380683 0.197936 0.653567 154 154 156
0.378876 0.198224 0.653192 183 182 184
0.181816 0.226789 0.611417 153 153 153
0.180017 0.227077 0.611043 109 112 111
0.178217 0.227364 0.610669 119 122 121
0.176418 0.227651 0.610296 112 115 116
0.174641 0.228901 0.610206 140 143 144
0.399789 0.193433 0.659115 154 154 158
0.398318 0.194633 0.659092 119 119 123
0.396511 0.194921 0.658716 103 105 113
0.394704 0.195210 0.658341 103 105 113
0.392897 0.195498 0.657966 102 104 112
0.391090 0.195787 0.657590 102 104 112
0.389283 0.196075 0.657215 108 111 114
0.387795 0.197278 0.657188 109 112 115
0.385985 0.197567 0.656812 112 115 116
0.384176 0.197856 0.656436 145 148 149
0.382366 0.198145 0.656060 178 178 178
0.181383 0.226373 0.613180 179 179 179
0.179584 0.226660 0.612806 113 116 117
0.177784 0.226947 0.612433 117 120 121
0.175985 0.227235 0.612059 110 116 116
0.174208 0.228483 0.611972 125 131 131
0.403304 0.193349 0.661988 169 169 171
0.401497 0.193637 0.661613 135 135 137
0.399690 0.193926 0.661238 108 107 114
0.398217 0.195126 0.661216 105 104 111
0.396407 0.195415 0.660840 99 101 107
0.394598 0.195704 0.660464 98 100 106
0.392788 0.195992 0.660088 99 101 107
0.390979 0.196281 0.659713 108 110 116
0.389169 0.196570 0.659337 117 117 121
0.387360 0.196859 0.658961 125 125 129
0.385866 0.198062 0.658935 164 164 166
0.179151 0.226243 0.614570 121 124 125
0.177379 0.227491 0.614486 114 117 118
0.175577 0.227779 0.614112 113 119 121
0.173775 0.228066 0.613737 113 119 121
0.171973 0.228354 0.613363 171 177 179
0.405019 0.193551 0.664493 152 155 156
0.403210 0.193840 0.664117 117 119 125
0.401400 0.194129 0.663741 110 112 118
0.399591 0.194418 0.663365 108 107 114
0.397781 0.194707 0.662989 105 104 111
0.395972 0.194996 0.662613 106 109 112
0.394162 0.195285 0.662237 101 104 107
0.392353 0.195574 0.661861 114 114 118
0.390866 0.196775 0.661840 115 115 119
0.389054 0.197064 0.661463 137 137 139
0.387242 0.197353 0.661087 175 175 177
0.178747 0.226786 0.616626 149 152 153
0.176945 0.227074 0.616252 107 110 111
0.175143 0.227362 0.615877 115 121 123
0.173341 0.227649 0.615503 104 110 112
0.171539 0.227937 0.615129 157 163 165
0.408897 0.194370 0.667741 170 173 174
0.407083 0.194660 0.667364 135 137 143
0.405268 0.194950 0.666987 106 108 114
0.403114 0.194330 0.666250 107 109 117
0.401639 0.195529 0.666233 102 104 112
0.399490 0.194909 0.665497 96 98 104
0.397678 0.195198 0.665121 103 105 111
0.396196 0.196398 0.665103 116 116 120
0.394381 0.196688 0.664726 112 112 116
0.392567 0.196977 0.664349 128 128 132
0.390752 0.197267 0.663972 169 169 173
0.389257 0.198469 0.663951 186 186 186
0.178314 0.226369 0.618391 169 172 173
0.176512 0.226657 0.618017 107 110 111
0.174710 0.226945 0.617643 115 121 123
0.172929 0.228192 0.617563 100 106 108
0.171124 0.228480 0.617188 151 154 155
0.410624 0.194567 0.670261 139 144 149
0.408807 0.194857 0.669883 113 118 123
0.406990 0.195147 0.669506 101 106 113
0.405173 0.195438 0.669128 103 108 115
0.403356 0.195728 0.668751 102 104 110
0.401539 0.196018 0.668374 102 104 110
0.399388 0.195399 0.667634 112 115 118
0.397905 0.196598 0.667619 112 115 118
0.396088 0.196888 0.667241 115 115 119
0.394271 0.197178 0.666864 144 144 148
0.392454 0.197468 0.666486 182 181 183
0.177880 0.225952 0.620157 176 176 178
0.176104 0.227198 0.620080 117 117 119
0.174299 0.227486 0.619705 123 126 127
0.172495 0.227774 0.619331 105 108 109
0.170690 0.228063 0.618956 138 141 142
0.414174 0.194472 0.673164 160 166 168
0.412355 0.194762 0.672786 118 124 126
0.410535 0.195053 0.672409 105 112 116
0.408716 0.195343 0.672031 106 113 117
0.406896 0.195634 0.671653 100 107 113
0.405077 0.195924 0.671275 100 107 113
0.403257 0.196215 0.670897 104 109 114
0.401102 0.195597 0.670154 111 116 121
0.399285 0.195887 0.669776 107 110 113
0.397468 0.196177 0.669399 130 133 136
0.395979 0.197377 0.669385 169 169 171
0.177474 0.226492 0.622223 179 182 183
0.175670 0.226781 0.621848 128 131 132
0.173865 0.227069 0.621474 124 124 126
0.172080 0.228316 0.621398 117 117 119
0.170273 0.228604 0.621022 120 123 124
0.417376 0.193470 0.675703 171 176 181
0.415556 0.193760 0.675325 129 134 139
0.413737 0.194051 0.674947 113 118 123
0.412268 0.195247 0.674940 104 109 114
0.410446 0.195537 0.674561 103 108 113
0.408624 0.195828 0.674183 93 98 103
0.406801 0.196119 0.673804 101 107 109
0.404979 0.196410 0.673426 107 113 115
0.402820 0.195794 0.672679 106 109 112
0.401000 0.196084 0.672301 119 122 125
0.399181 0.196375 0.671923 144 144 146
0.397361 0.196665 0.671545 185 185 187
0.175260 0.227320 0.623919 135 138 139
0.173453 0.227609 0.623544 117 120 121
0.171646 0.227897 0.623168 116 119 120
0.169839 0.228186 0.622793 112 112 114
0.168046 0.229433 0.622718 171 171 173
0.419118 0.193661 0.678239 164 170 172
0.417295 0.193952 0.677860 114 121 127
0.415473 0.194243 0.677482 97 104 110
0.413651 0.194534 0.677103 103 110 114
0.412179 0.195729 0.677098 97 104 108
0.410354 0.196021 0.676719 103 109 109
0.408530 0.196312 0.676340 105 111 111
0.406705 0.196603 0.675961 107 113 113
0.404881 0.196895 0.675582 110 116 116
0.403056 0.197186 0.675202 134 137 136
0.400897 0.196570 0.674454 169 172 171
0.174825 0.226902 0.625690 121 124 125
0.173039 0.228148 0.625619 119 122 125
0.171229 0.228437 0.625243 120 123 126
0.169420 0.228725 0.624867 111 111 115
0.167610 0.229014 0.624491 158 158 162
0.422323 0.192658 0.680781 179 182 181
0.419038 0.194142 0.680401 110 116 118
0.417214 0.194433 0.680022 101 111 116
0.415389 0.194725 0.679643 97 107 112
0.413565 0.195016 0.679264 98 108 111
0.411740 0.195307 0.678885 104 114 117
0.409916 0.195598 0.678506 108 114 114
0.408091 0.195890 0.678127 103 109 109
0.406267 0.196181 0.677748 123 126 125
0.404442 0.196472 0.677369 167 170 169
0.174413 0.227440 0.627767 169 172 171
0.172604 0.227729 0.627392 114 114 118
0.170794 0.228018 0.627016 122 122 126
0.168985 0.228307 0.626640 110 110 114
0.167188 0.229553 0.626569 125 125 129
0.424073 0.192846 0.683326 170 173 174
0.422249 0.193137 0.682947 123 126 127
0.420424 0.193428 0.682568 100 106 108
0.418600 0.193720 0.682189 98 104 106
0.416775 0.194011 0.681810 96 103 107
0.414950 0.194302 0.681431 103 110 114
0.413126 0.194593 0.681052 104 111 115
0.411301 0.194885 0.680673 113 120 124
0.409477 0.195176 0.680294 108 111 112
0.407652 0.195467 0.679915 147 150 151
0.406169 0.196663 0.679912 179 179 179
0.173978 0.227021 0.629540 178 181 182
0.172188 0.228266 0.629474 108 111 114
0.170359 0.227599 0.628789 119 122 125
0.168564 0.228845 0.628721 109 112 113
0.166764 0.230091 0.628652 130 133 134
0.164950 0.230381 0.628275 175 176 172
0.427283 0.191841 0.685872 180 183 184
0.425459 0.192132 0.685493 153 156 157
0.424000 0.193323 0.685498 108 114 116
0.422173 0.193615 0.685118 101 107 109
0.420346 0.193907 0.684739 100 108 109
0.418519 0.194199 0.684359 99 107 108
0.416691 0.194490 0.683980 99 107 108
0.414864 0.194782 0.683600 110 118 119
0.413037 0.195074 0.683221 111 117 119
0.411210 0.195365 0.682841 114 120 122
0.409383 0.195657 0.682461 158 158 160
0.407556 0.195949 0.682082 188 188 190
0.173564 0.227557 0.631626 177 180 181
0.171752 0.227847 0.631249 123 126 127
0.169957 0.229092 0.631184 114 117 118
0.168142 0.229381 0.630807 115 118 119
0.166339 0.230628 0.630741 122 125 126
0.164522 0.230918 0.630363 180 181 177
0.429041 0.192025 0.688427 175 175 177
0.427214 0.192317 0.688047 133 139 141
0.425387 0.192609 0.687667 101 107 109
0.423925 0.193800 0.687674 104 110 112
0.422095 0.194092 0.687294 104 110 112
0.420266 0.194384 0.686914 101 107 109
0.418436 0.194676 0.686534 103 109 111
0.416252 0.194067 0.685770 106 114 113
0.414425 0.194359 0.685390 106 114 113
0.412598 0.194651 0.685011 145 148 149
0.410771 0.194942 0.684631 160 163 164
0.171335 0.228382 0.633339 144 144 146
0.169536 0.229627 0.633276 111 111 113
0.167719 0.229917 0.632898 119 119 121
0.165902 0.230207 0.632521 112 112 114
0.164094 0.231454 0.632456 170 173 172
0.430429 0.191311 0.690596 162 164 170
0.428602 0.191603 0.690217 113 115 121
0.427144 0.192792 0.690227 107 112 117
0.425315 0.193084 0.689847 104 109 114
0.423485 0.193377 0.689467 103 109 111
0.421655 0.193669 0.689087 103 109 111
0.419826 0.193961 0.688707 108 111 112
0.417996 0.194253 0.688327 109 112 113
0.416167 0.194545 0.687947 134 137 138
0.414337 0.194837 0.687566 171 174 175
0.170916 0.228916 0.635434 153 153 155
0.169099 0.229206 0.635056 111 111 113
0.167282 0.229496 0.634679 117 120 121
0.165476 0.230742 0.634616 106 109 110
0.163656 0.231032 0.634238 156 159 160
0.433644 0.190305 0.693146 182 182 184
0.431817 0.190596 0.692766 149 149 151
0.430363 0.191785 0.692780 106 108 114
0.428534 0.192077 0.692400 106 108 114
0.426704 0.192369 0.692020 100 105 110
0.424875 0.192661 0.691640 105 110 115
0.423045 0.192953 0.691260 112 115 116
0.421576 0.194144 0.691270 110 113 114
0.419386 0.193537 0.690499 116 116 116
0.417556 0.193829 0.690119 152 152 152
0.415727 0.194122 0.689739 181 184 183
0.170497 0.229449 0.637533 159 159 161
0.168677 0.229740 0.637155 110 110 112
0.166858 0.230030 0.636777 119 122 125
0.165038 0.230321 0.636399 107 110 113
0.163226 0.231567 0.636338 149 155 155
0.435412 0.190485 0.695713 184 183 183
0.433582 0.190777 0.695333 132 132 134
0.431753 0.191069 0.694952 109 109 111
0.429923 0.191361 0.694572 107 112 117
0.428094 0.191653 0.694192 101 106 111
0.426264 0.191945 0.693812 104 109 114
0.424435 0.192237 0.693432 110 115 120
0.422968 0.193427 0.693446 110 113 116
0.421136 0.193720 0.693065 122 125 128
0.419304 0.194012 0.692685 176 176 176
0.417116 0.193406 0.691912 185 185 185
0.170076 0.229981 0.639638 171 174 175
0.168240 0.229319 0.638938 109 112 113
0.166420 0.229609 0.638560 117 123 125
0.164619 0.231808 0.638822 111 117 119
0.162794 0.232099 0.638443 140 146 146
0.436801 0.189769 0.697885 165 165 169
0.434972 0.190061 0.697505 125 125 129
0.433142 0.190354 0.697125 101 104 107
0.431313 0.190646 0.696745 106 109 112
0.429483 0.190938 0.696365 106 112 114
0.428024 0.192126 0.696383 107 113 115
0.426192 0.192418 0.696002 110 115 120
0.424359 0.192711 0.695621 113 118 123
0.422527 0.193003 0.695241 134 137 138
0.420695 0.193296 0.694860 179 182 183
0.169653 0.230512 0.641747 181 181 183
0.167829 0.230803 0.641368 111 111 113
0.166004 0.231095 0.640989 114 120 122
0.164180 0.231386 0.640610 112 118 120
0.162361 0.232631 0.640553 128 128 130
0.438191 0.189054 0.700058 149 148 155
0.436743 0.190239 0.700081 106 108 114
0.434911 0.190532 0.699700 107 109 115
0.433079 0.190824 0.699319 99 102 105
0.431247 0.191117 0.698939 106 109 112
0.429415 0.191409 0.698558 107 112 117
0.427583 0.191702 0.698178 108 113 118
0.425751 0.191994 0.697797 118 118 122
0.423919 0.192287 0.697417 158 158 162
0.422449 0.193476 0.697434 185 185 187
0.169230 0.231042 0.643861 186 186 188
0.167390 0.230381 0.643156 117 117 119
0.165566 0.230672 0.642777 114 117 118
0.163749 0.231917 0.642723 115 118 119
0.161927 0.233162 0.642668 122 122 122
0.441799 0.188938 0.703018 183 186 187
0.439967 0.189230 0.702637 134 139 144
0.438135 0.189523 0.702256 99 104 109
0.436303 0.189815 0.701876 104 109 114
0.434471 0.190108 0.701495 103 108 113
0.432639 0.190400 0.701115 110 110 114
0.430807 0.190693 0.700734 110 110 114
0.428974 0.190985 0.700353 108 111 114
0.427142 0.191278 0.699973 130 133 136
0.425676 0.192465 0.699994 176 175 177
0.423842 0.192758 0.699613 188 187 189
0.166976 0.231862 0.645601 137 136 136
0.165146 0.232154 0.645220 114 117 118
0.163317 0.232446 0.644840 119 122 123
0.161487 0.232738 0.644460 117 120 121
0.159660 0.233984 0.644407 173 176 177
0.443581 0.189112 0.705603 163 168 175
0.441746 0.189405 0.705222 120 125 132
0.439912 0.189698 0.704841 99 104 111
0.438077 0.189990 0.704460 103 108 115
0.436243 0.190283 0.704078 106 109 112
0.434408 0.190576 0.703697 105 108 111
0.432574 0.190869 0.703316 115 114 118
0.430739 0.191162 0.702935 112 111 115
0.428904 0.191455 0.702554 145 144 146
0.427070 0.191748 0.702173 183 182 184
0.166536 0.231439 0.647393 166 165 165
0.164706 0.231731 0.647013 115 115 117
0.162877 0.232023 0.646633 122 122 124
0.161051 0.233267 0.646582 114 117 118
0.159221 0.234513 0.646531 167 170 171
0.444974 0.188394 0.707782 154 160 162
0.443140 0.188687 0.707401 107 112 119
0.441305 0.188980 0.707019 103 108 115
0.439471 0.189273 0.706638 105 110 117
0.437636 0.189566 0.706257 105 110 117
0.435802 0.189859 0.705876 108 111 112
0.433967 0.190152 0.705495 106 109 110
0.432132 0.190445 0.705114 132 131 133
0.430298 0.190737 0.704733 163 162 164
0.428463 0.191030 0.704352 187 186 188
0.166107 0.231966 0.649519 172 172 172
0.164275 0.232258 0.649139 112 112 114
0.162443 0.232551 0.648758 121 121 123
0.160614 0.233795 0.648709 107 110 111
0.158780 0.234088 0.648328 152 155 156
0.448599 0.188272 0.710758 183 189 187
0.446762 0.188565 0.710376 136 141 146
0.444925 0.188859 0.709994 106 111 116
0.443088 0.189152 0.709613 103 105 113
0.440864 0.188555 0.708817 106 108 116
0.439414 0.189739 0.708849 105 107 113
0.437577 0.190032 0.708468 108 110 116
0.435740 0.190325 0.708086 111 111 113
0.433903 0.190619 0.707705 132 132 134
0.432065 0.190912 0.707323 180 179 181
0.165677 0.232492 0.651650 176 176 176
0.163842 0.232785 0.651269 115 118 119
0.162008 0.233077 0.650888 119 122 123
0.160173 0.233370 0.650507 110 116 116
0.158338 0.233663 0.650126 138 144 144
0.449995 0.187554 0.712939 178 184 186
0.448157 0.187847 0.712558 132 138 140
0.446320 0.188140 0.712176 100 105 110
0.444483 0.188433 0.711794 104 109 114
0.442646 0.188727 0.711413 106 108 114
0.440809 0.189020 0.711031 110 112 118
0.438972 0.189313 0.710649 116 119 122
0.437135 0.189607 0.710268 112 115 118
0.435298 0.189900 0.709886 147 147 149
0.433461 0.190193 0.709505 180 180 182
0.165236 0.232067 0.653448 177 180 181
0.163401 0.232360 0.653067 118 124 126
0.161566 0.232653 0.652686 118 124 126
0.159732 0.232946 0.652305 112 117 122
0.157897 0.234190 0.652260 136 141 146
0.451390 0.186835 0.715121 177 183 181
0.449553 0.187128 0.714739 124 131 135
0.447716 0.187422 0.714358 93 100 104
0.445879 0.187715 0.713976 100 107 111
0.444041 0.188008 0.713594 104 111 115
0.442204 0.188302 0.713213 106 109 112
0.440367 0.188595 0.712831 114 117 120
0.438530 0.188888 0.712449 115 115 117
0.436693 0.189181 0.712068 155 155 157
0.435234 0.190365 0.712104 184 183 183
0.164804 0.232591 0.655586 179 182 183
0.162967 0.232885 0.655205 125 131 133
0.161125 0.232228 0.654483 119 125 127
0.159292 0.233471 0.654441 112 119 123
0.157455 0.233764 0.654060 127 134 138
0.453188 0.187002 0.717728 169 177 178
0.451348 0.187295 0.717346 112 120 121
0.449509 0.187589 0.716963 96 103 109
0.447669 0.187883 0.716581 100 107 113
0.445829 0.188177 0.716199 106 111 116
0.443990 0.188470 0.715817 111 116 121
0.442150 0.188764 0.715435 112 115 118
0.439925 0.188170 0.714631 123 126 129
0.438088 0.188463 0.714249 167 167 167
0.436631 0.189645 0.714288 179 179 179
0.162525 0.232459 0.657005 129 135 137
0.160688 0.232753 0.656623 113 119 121
0.158851 0.233046 0.656241 113 118 123
0.157013 0.233339 0.655860 118 123 128
0.454990 0.187167 0.720340 162 165 166
0.453147 0.187461 0.719958 109 116 120
0.450906 0.186870 0.719148 97 104 108
0.449066 0.187163 0.718766 103 110 114
0.447227 0.187457 0.718384 105 112 116
0.445387 0.187751 0.718002 108 114 116
0.443547 0.188045 0.717619 108 114 116
0.441708 0.188338 0.717237 138 138 140
0.439868 0.188632 0.716855 178 178 180
0.162083 0.232034 0.658805 135 138 141
0.160246 0.232327 0.658423 114 117 120
0.158409 0.232621 0.658041 116 119 122
0.156570 0.233863 0.658003 112 115 118
0.456389 0.186446 0.722528 147 150 153
0.454547 0.186740 0.722145 112 115 118
0.452704 0.187034 0.721763 97 105 106
0.450463 0.186444 0.720950 102 110 111
0.448624 0.186738 0.720568 107 115 116
0.446784 0.187031 0.720186 106 114 115
0.444945 0.187325 0.719804 117 117 117
0.443105 0.187619 0.719422 157 157 157
0.441265 0.187912 0.719040 179 179 181
0.161646 0.232556 0.660952 144 144 146
0.159806 0.232850 0.660570 114 114 116
0.157967 0.233144 0.660188 121 121 125
0.156125 0.234386 0.660152 111 111 115
0.154283 0.234680 0.659769 176 175 177
0.458196 0.186608 0.725150 133 136 139
0.456352 0.186903 0.724767 108 111 114
0.454104 0.186314 0.723950 105 108 111
0.452261 0.186608 0.723568 104 110 112
0.450419 0.186902 0.723185 106 112 114
0.448181 0.186312 0.722371 109 112 111
0.446342 0.186606 0.721989 115 118 117
0.444502 0.186899 0.721606 165 165 165
0.443051 0.188079 0.721654 179 179 179
0.161208 0.233077 0.663105 157 157 157
0.159366 0.233372 0.662722 114 114 114
0.157524 0.233666 0.662340 123 123 123
0.155678 0.234908 0.662305 114 114 114
0.153834 0.235202 0.661922 170 169 171
0.460418 0.187649 0.728214 129 131 137
0.458160 0.187063 0.727394 101 103 109
0.455908 0.186476 0.726574 106 109 112
0.454063 0.186770 0.726191 108 111 114
0.451818 0.186182 0.725373 114 114 116
0.449976 0.186476 0.724990 111 111 113
0.447739 0.185886 0.724173 121 121 121
0.445899 0.186180 0.723791 168 168 168
0.444450 0.187358 0.723842 182 181 181
0.160769 0.233597 0.665262 169 168 168
0.158924 0.233892 0.664879 115 114 114
0.157079 0.234186 0.664496 124 124 124
0.155231 0.235428 0.664464 114 114 114
0.153378 0.236671 0.664431 156 155 157
0.464087 0.187511 0.731236 172 177 182
0.461823 0.186926 0.730411 117 122 127
0.459973 0.187221 0.730027 98 103 108
0.458123 0.187517 0.729643 100 105 110
0.455869 0.186930 0.728820 109 112 115
0.453620 0.186343 0.727998 110 113 116
0.451375 0.185755 0.727178 110 110 112
0.449533 0.186049 0.726795 135 135 137
0.447691 0.186343 0.726412 176 175 175
0.160328 0.234116 0.667425 182 181 181
0.158481 0.234411 0.667041 115 114 114
0.156634 0.234706 0.666657 118 118 120
0.154782 0.235948 0.666627 112 112 114
0.152933 0.236243 0.666243 146 146 148
0.465910 0.187665 0.733879 165 171 173
0.464056 0.187961 0.733494 110 117 123
0.462201 0.188258 0.733108 96 103 109
0.459937 0.187673 0.732281 102 110 111
0.457678 0.187088 0.731455 103 111 112
0.455829 0.187384 0.731071 110 113 114
0.453979 0.187679 0.730686 106 109 110
0.451331 0.186211 0.729422 142 142 142
0.449487 0.186505 0.729039 180 180 180
0.159886 0.234634 0.669592 187 186 186
0.158037 0.234929 0.669208 116 115 115
0.156187 0.235224 0.668824 119 122 125
0.154333 0.236466 0.668795 109 112 115
0.152473 0.237709 0.668766 133 136 137
0.467737 0.187818 0.736528 163 168 175
0.465880 0.188115 0.736142 108 113 120
0.463610 0.187532 0.735311 96 103 109
0.461755 0.187828 0.734926 102 109 115
0.459900 0.188124 0.734540 108 111 114
0.458046 0.188421 0.734155 114 117 120
0.455787 0.187836 0.733326 113 116 115
0.453534 0.187251 0.732499 144 147 146
0.451685 0.187546 0.732114 182 182 182
0.159444 0.235150 0.671765 188 187 187
0.155736 0.236687 0.671354 121 121 123
0.153882 0.236983 0.670969 112 112 114
0.152027 0.237279 0.670583 131 134 135
0.469568 0.187969 0.739183 162 167 172
0.467709 0.188266 0.738797 107 112 117
0.465849 0.188563 0.738410 101 106 111
0.463989 0.188859 0.738024 100 105 110
0.462130 0.189156 0.737638 105 110 115
0.459862 0.188574 0.736804 114 114 116
0.458005 0.188871 0.736419 118 118 120
0.455745 0.188287 0.735587 164 165 161
0.453890 0.188583 0.735202 179 180 176
0.158999 0.235666 0.673942 184 183 183
0.157145 0.235962 0.673556 132 131 131
0.155290 0.236258 0.673171 121 124 125
0.153435 0.236554 0.672786 110 113 114
0.151572 0.237796 0.672761 128 131 132
0.471403 0.188117 0.741844 150 157 161
0.469541 0.188415 0.741457 105 112 116
0.467679 0.188712 0.741070 101 106 111
0.465817 0.189009 0.740683 107 112 117
0.463542 0.188429 0.739846 110 113 116
0.461682 0.188726 0.739460 109 112 115
0.459823 0.189023 0.739073 125 125 125
0.457963 0.189320 0.738687 172 172 172
0.456103 0.189617 0.738301 181 180 180
0.156697 0.236476 0.675738 136 135 135
0.154836 0.237717 0.675716 120 123 126
0.152976 0.238014 0.675330 114 117 120
0.151116 0.238311 0.674943 123 126 127
0.473242 0.188264 0.744511 153 161 162
0.471377 0.188562 0.744123 104 111 115
0.469512 0.188860 0.743736 98 105 109
0.467648 0.189157 0.743349 107 112 117
0.465783 0.189455 0.742961 110 115 120
0.463918 0.189753 0.742574 107 110 111
0.461644 0.189173 0.741734 117 120 121
0.459782 0.189470 0.741347 176 176 176
0.156248 0.236990 0.677925 147 146 146
0.154388 0.237287 0.677538 114 117 118
0.152529 0.237583 0.677152 116 119 120
0.150659 0.238825 0.677131 120 123 124
0.475084 0.188409 0.747184 146 153 157
0.473217 0.188707 0.746796 103 110 114
0.471350 0.189005 0.746408 100 107 111
0.469483 0.189303 0.746020 103 110 114
0.467615 0.189601 0.745632 112 115 118
0.465335 0.189023 0.744788 110 113 116
0.463470 0.189321 0.744401 122 122 122
0.461605 0.189619 0.744014 175 175 175
0.155801 0.236559 0.679747 153 152 152
0.153935 0.237799 0.679729 109 109 111
0.152065 0.239040 0.679711 118 118 120
0.150201 0.239338 0.679323 116 116 118
0.478370 0.187381 0.749789 182 190 191
0.476502 0.187679 0.749401 159 167 168
0.474635 0.187977 0.749013 102 110 111
0.472768 0.188275 0.748625 100 108 109
0.470901 0.188573 0.748237 104 110 112
0.469033 0.188871 0.747849 112 118 120
0.467166 0.189169 0.747462 114 114 116
0.465299 0.189467 0.747074 125 125 127
0.463432 0.189766 0.746686 173 173 173
0.155350 0.237071 0.681941 156 155 155
0.153482 0.238311 0.681925 110 110 112
0.151617 0.238608 0.681538 118 118 120
0.149741 0.239849 0.681520 112 112 114
0.147874 0.240147 0.681133 160 160 162
0.477920 0.186948 0.751618 156 164 163
0.476053 0.187247 0.751231 102 110 109
0.474186 0.187545 0.750843 98 106 105
0.472319 0.187843 0.750455 104 112 111
0.470452 0.188141 0.750067 113 116 119
0.468584 0.188439 0.749679 114 117 120
0.466717 0.188737 0.749291 128 128 130
0.464850 0.189035 0.748903 178 178 180
0.154898 0.237581 0.684139 161 161 157
0.153026 0.238821 0.684126 106 109 110
0.151159 0.239119 0.683738 117 120 121
0.149292 0.239417 0.683350 114 114 114
0.147411 0.240658 0.683334 153 153 153
0.479339 0.186218 0.753836 157 165 164
0.477471 0.186516 0.753448 102 110 109
0.475604 0.186814 0.753060 98 106 105
0.474161 0.187985 0.753138 106 112 112
0.471870 0.187411 0.752284 106 112 112
0.470003 0.187709 0.751896 110 110 110
0.468135 0.188007 0.751509 126 126 126
0.466682 0.189179 0.751584 181 181 181
0.154445 0.238091 0.686343 166 166 162
0.152570 0.239330 0.686331 105 108 109
0.150700 0.239628 0.685943 121 124 125
0.148831 0.239927 0.685555 112 112 112
0.146946 0.241168 0.685541 150 150 150
0.480757 0.185488 0.756053 162 170 171
0.478890 0.185786 0.755665 102 110 111
0.477451 0.186955 0.755747 98 106 107
0.475581 0.187254 0.755358 103 111 112
0.473712 0.187552 0.754970 109 112 113
0.471842 0.187851 0.754582 110 113 114
0.469553 0.187277 0.753726 128 128 128
0.467686 0.187575 0.753338 178 178 178
0.153990 0.238599 0.688552 174 174 170
0.152120 0.238897 0.688163 109 112 111
0.150251 0.239196 0.687775 114 117 116
0.148368 0.240436 0.687764 110 110 110
0.146496 0.240735 0.687375 145 145 145
0.482175 0.184758 0.758271 169 175 175
0.480308 0.185056 0.757883 102 110 111
0.478871 0.186224 0.757967 97 105 106
0.477001 0.186522 0.757579 103 111 112
0.475132 0.186821 0.757190 104 112 113
0.473262 0.187119 0.756802 107 110 111
0.471392 0.187418 0.756414 122 125 126
0.469523 0.187716 0.756025 179 178 178
0.153534 0.239106 0.690765 179 179 175
0.151662 0.239405 0.690376 114 114 114
0.149790 0.239703 0.689988 117 117 117
0.147918 0.240002 0.689599 112 112 112
0.146045 0.240301 0.689210 136 136 136
0.483593 0.184027 0.760488 172 177 182
0.482161 0.185194 0.760576 107 112 117
0.480291 0.185493 0.760188 98 103 108
0.478422 0.185791 0.759799 105 110 115
0.476552 0.186090 0.759411 107 112 117
0.474682 0.186388 0.759022 111 116 121
0.472812 0.186687 0.758634 131 131 133
0.470943 0.186985 0.758246 176 176 178
0.153084 0.238672 0.692600 182 182 182
0.151212 0.238971 0.692211 118 117 117
0.149340 0.239270 0.691822 117 116 116
0.147467 0.239569 0.691433 112 112 112
0.145595 0.239868 0.691044 128 128 128
0.485451 0.184164 0.763185 171 174 175
0.483581 0.184463 0.762796 113 118 123
0.481711 0.184761 0.762408 97 102 107
0.479842 0.185060 0.762020 104 109 114
0.477972 0.185358 0.761631 110 115 120
0.476102 0.185657 0.761243 110 113 116
0.474232 0.185955 0.760854 121 124 127
0.472363 0.186254 0.760466 172 171 173
0.152634 0.238239 0.694434 180 180 180
0.150762 0.238538 0.694045 123 122 124
0.148889 0.238837 0.693656 115 114 116
0.147017 0.239136 0.693268 110 113 114
0.145145 0.239435 0.692879 112 115 116
0.486871 0.183433 0.765405 174 180 182
0.485001 0.183731 0.765017 112 118 120
0.483568 0.184897 0.765110 98 104 106
0.481695 0.185196 0.764721 104 110 112
0.479392 0.184627 0.763852 113 116 117
0.477522 0.184925 0.763463 113 116 117
0.475652 0.185224 0.763075 118 118 120
0.473783 0.185522 0.762686 172 172 174
0.152184 0.237806 0.696269 180 180 180
0.150311 0.238105 0.695880 126 125 127
0.148439 0.238403 0.695491 115 114 116
0.146567 0.238702 0.695102 110 112 118
0.144677 0.239941 0.695100 112 114 120
0.488734 0.183567 0.768111 183 186 187
0.486862 0.183866 0.767722 119 125 127
0.484990 0.184165 0.767333 94 100 102
0.483117 0.184464 0.766944 104 110 110
0.481245 0.184763 0.766555 110 116 116
0.479373 0.185062 0.766166 110 113 114
0.477501 0.185360 0.765777 115 118 119
0.475203 0.184791 0.764907 169 169 171
0.149850 0.238609 0.698105 122 122 126
0.147975 0.238908 0.697716 115 115 119
0.146101 0.239208 0.697326 112 114 120
0.144226 0.239507 0.696937 113 115 121
0.490156 0.182835 0.770334 181 184 187
0.488284 0.183134 0.769945 122 125 128
0.486412 0.183432 0.769556 93 99 101
0.484539 0.183731 0.769168 101 107 109
0.482667 0.184030 0.768779 111 117 117
0.480795 0.184329 0.768390 108 114 114
0.478923 0.184628 0.768001 126 126 128
0.476623 0.184060 0.767127 172 172 174
0.149388 0.239112 0.700335 130 133 136
0.147525 0.238474 0.699553 112 115 118
0.145650 0.238774 0.699163 111 116 121
0.143775 0.239073 0.698774 107 112 117
0.491578 0.182102 0.772558 180 183 184
0.489706 0.182401 0.772169 121 126 131
0.487834 0.182700 0.771780 94 99 104
0.485961 0.182999 0.771391 104 110 112
0.484089 0.183298 0.771002 106 112 114
0.482217 0.183597 0.770613 110 113 114
0.480345 0.183896 0.770224 120 123 124
0.478472 0.184195 0.769835 176 176 176
0.148936 0.238678 0.702175 144 147 150
0.147059 0.238978 0.701785 112 115 118
0.145182 0.239277 0.701395 114 116 122
0.143304 0.239577 0.701005 107 109 115
0.493000 0.181370 0.774781 178 180 186
0.491128 0.181669 0.774392 122 124 130
0.489255 0.181968 0.774003 98 103 108
0.487383 0.182267 0.773614 105 110 115
0.485511 0.182566 0.773225 108 114 116
0.483639 0.182865 0.772836 107 113 115
0.481767 0.183164 0.772447 122 122 122
0.479894 0.183463 0.772059 171 171 171
0.148472 0.239179 0.704412 152 155 158
0.146592 0.239480 0.704022 106 109 112
0.144730 0.238843 0.703234 113 115 121
0.142853 0.239142 0.702844 106 108 114
0.494873 0.181499 0.777502 176 182 182
0.492998 0.181799 0.777112 115 120 125
0.491123 0.182098 0.776723 96 101 106
0.489249 0.182397 0.776333 107 109 115
0.486933 0.181834 0.775449 112 114 120
0.485061 0.182132 0.775060 118 118 120
0.483189 0.182431 0.774671 121 121 123
0.481316 0.182730 0.774282 172 172 172
0.148007 0.239680 0.706655 156 159 162
0.146124 0.239980 0.706264 103 106 109
0.144260 0.239345 0.705473 113 116 119
0.142381 0.239645 0.705083 103 106 109
0.496750 0.181626 0.780228 168 176 177
0.494872 0.181926 0.779838 107 115 116
0.492547 0.181365 0.778949 98 100 106
0.490672 0.181664 0.778560 107 109 115
0.488798 0.181963 0.778170 110 112 118
0.486923 0.182263 0.777781 106 108 114
0.485048 0.182562 0.777391 128 128 130
0.482738 0.181998 0.776505 176 176 178
0.147554 0.239244 0.708499 157 160 163
0.145672 0.239545 0.708108 103 106 109
0.143789 0.239845 0.707717 112 115 118
0.141907 0.240146 0.707326 102 105 108
0.498175 0.180892 0.782457 166 174 173
0.496298 0.181192 0.782068 104 111 117
0.494421 0.181492 0.781678 89 96 102
0.492544 0.181791 0.781288 105 110 115
0.490222 0.181230 0.780397 110 115 120
0.488347 0.181529 0.780007 111 110 114
0.486472 0.181829 0.779618 126 125 129
0.484597 0.182128 0.779228 181 180 180
0.147072 0.240677 0.711155 162 165 168
0.145202 0.240044 0.710358 102 105 108
0.143317 0.240345 0.709966 112 115 118
0.141432 0.240646 0.709575 102 105 108
0.500058 0.181016 0.785193 156 163 167
0.498178 0.181316 0.784802 104 111 115
0.496298 0.181617 0.784412 97 104 110
0.494419 0.181917 0.784021 99 106 112
0.492092 0.181357 0.783127 114 116 122
0.490215 0.181657 0.782737 112 114 120
0.487896 0.181095 0.781844 126 125 127
0.486021 0.181395 0.781455 175 174 176
0.146618 0.240240 0.713004 160 163 166
0.144731 0.240542 0.712612 106 109 112
0.142844 0.240843 0.712220 112 115 118
0.140956 0.241144 0.711828 100 103 106
0.501944 0.181139 0.787934 154 161 165
0.500062 0.181439 0.787543 96 106 111
0.498179 0.181740 0.787152 95 105 110
0.495846 0.181181 0.786254 104 114 119
0.493966 0.181482 0.785863 103 113 118
0.491641 0.180922 0.784966 110 113 116
0.489763 0.181222 0.784576 120 123 126
0.487886 0.181522 0.784186 176 175 177
0.146149 0.240737 0.715264 160 163 166
0.144259 0.241038 0.714871 107 110 113
0.142369 0.241340 0.714479 112 115 118
0.140479 0.241642 0.714086 100 103 106
0.138589 0.241944 0.713693 148 151 152
0.503374 0.180402 0.790170 137 147 152
0.501491 0.180703 0.789779 96 106 111
0.499609 0.181003 0.789388 96 106 111
0.497727 0.181304 0.788997 101 111 116
0.495845 0.181604 0.788606 106 111 116
0.493962 0.181905 0.788215 103 108 113
0.491635 0.181347 0.787315 139 139 141
0.145678 0.241232 0.717529 160 163 164
0.143785 0.241534 0.717135 105 108 109
0.141893 0.241836 0.716742 110 113 114
0.139977 0.243072 0.716761 100 103 104
0.138082 0.243375 0.716367 149 152 151
0.504803 0.179666 0.792405 134 139 144
0.502921 0.179967 0.792014 91 101 104
0.501496 0.181123 0.792137 98 108 111
0.499611 0.181424 0.791745 104 111 115
0.497726 0.181725 0.791354 106 113 117
0.495392 0.181169 0.790450 103 106 107
0.493510 0.181469 0.790059 142 145 146
0.145206 0.241726 0.719798 160 163 166
0.143311 0.242028 0.719404 105 108 111
0.141416 0.242331 0.719011 109 112 115
0.139521 0.242633 0.718617 101 104 107
0.506697 0.179784 0.795158 119 124 129
0.504812 0.180085 0.794767 99 104 109
0.503387 0.181242 0.794892 96 104 105
0.501499 0.181543 0.794500 105 113 114
0.499612 0.181844 0.794108 103 109 109
0.497725 0.182146 0.793716 104 110 110
0.495838 0.182447 0.793324 152 152 152
0.144750 0.241287 0.721655 159 161 167
0.142855 0.241590 0.721261 105 107 113
0.140938 0.242825 0.721284 110 115 120
0.139040 0.243128 0.720890 100 105 110
0.510482 0.179600 0.798310 178 180 186
0.508595 0.179901 0.797918 121 123 129
0.507171 0.181056 0.798046 98 104 106
0.505281 0.181358 0.797654 98 104 106
0.503392 0.181660 0.797261 105 111 111
0.501502 0.181961 0.796868 104 110 110
0.500066 0.183119 0.796994 107 110 109
0.498173 0.183421 0.796601 148 151 150
0.144276 0.241780 0.723932 160 163 166
0.142379 0.242082 0.723538 103 106 109
0.140481 0.242385 0.723143 108 113 118
0.138584 0.242688 0.722749 98 103 108
0.136687 0.242991 0.722355 149 152 151
0.511432 0.181720 0.801731 113 118 123
0.509538 0.182023 0.801337 98 103 108
0.507643 0.182325 0.800944 104 110 112
0.505287 0.181774 0.800028 107 113 115
0.503395 0.182076 0.799634 105 111 109
0.501958 0.183233 0.799763 110 116 114
0.500063 0.183535 0.799369 165 165 165
0.143820 0.241340 0.725791 159 161 167
0.141922 0.241643 0.725397 101 103 109
0.140025 0.241946 0.725002 113 115 121
0.138128 0.242249 0.724608 100 102 108
0.136202 0.243484 0.724635 149 152 153
0.515239 0.181528 0.804902 165 170 179
0.513342 0.181831 0.804508 106 111 120
0.510977 0.181282 0.803587 98 105 109
0.509082 0.181584 0.803194 104 111 115
0.507187 0.181887 0.802800 108 114 116
0.505292 0.182189 0.802407 105 111 113
0.503397 0.182492 0.802013 115 118 117
0.501503 0.182794 0.801619 166 169 168
0.143344 0.241831 0.728075 161 160 167
0.141466 0.241204 0.727256 104 103 110
0.139569 0.241507 0.726861 110 112 118
0.137645 0.242741 0.726891 103 105 111
0.135745 0.243044 0.726496 151 151 155
0.517629 0.182486 0.808216 164 171 175
0.515254 0.181939 0.807291 106 112 123
0.512885 0.181392 0.806367 99 105 116
0.510988 0.181695 0.805973 104 111 117
0.509091 0.181997 0.805579 106 113 119
0.507193 0.182300 0.805185 106 112 112
0.504837 0.181751 0.804263 121 127 127
0.502942 0.182053 0.803870 171 171 171
0.142887 0.241391 0.729937 160 160 164
0.140987 0.241695 0.729542 104 104 108
0.139112 0.241068 0.728721 112 111 118
0.137188 0.242301 0.728753 102 101 108
0.519074 0.181742 0.810476 166 173 179
0.517171 0.182046 0.810080 107 114 120
0.515269 0.182350 0.809685 98 104 115
0.512898 0.181803 0.808758 104 110 121
0.510998 0.182106 0.808363 104 111 117
0.509098 0.182410 0.807969 105 112 118
0.506737 0.181861 0.807044 122 125 126
0.504840 0.182164 0.806650 171 174 175
0.142410 0.241880 0.732228 160 160 164
0.140507 0.242184 0.731833 104 104 108
0.138631 0.241558 0.731009 111 110 117
0.136731 0.241862 0.730614 103 102 109
0.519092 0.182150 0.812875 106 111 120
0.517187 0.182454 0.812480 96 101 110
0.514811 0.181909 0.811549 106 111 120
0.512909 0.182213 0.811154 106 111 120
0.511007 0.182517 0.810759 103 105 111
0.508641 0.181970 0.809830 134 136 142
0.506741 0.182273 0.809436 181 181 183
0.141952 0.241440 0.734092 159 159 163
0.140050 0.241743 0.733697 103 103 107
0.138147 0.242047 0.733302 110 109 116
0.136245 0.242351 0.732907 105 104 111
0.521016 0.182253 0.815676 126 132 134
0.518634 0.181709 0.814742 98 100 108
0.516729 0.182014 0.814346 106 108 116
0.514824 0.182318 0.813950 115 117 125
0.512919 0.182622 0.813555 105 107 115
0.510549 0.182076 0.812623 141 140 144
0.508647 0.182380 0.812227 180 179 183
0.141473 0.241927 0.736391 151 151 153
0.139568 0.242231 0.735996 102 102 104
0.137690 0.241607 0.735166 111 110 117
0.135788 0.241911 0.734771 108 107 114
0.522465 0.181507 0.817942 169 175 177
0.520557 0.181811 0.817545 100 106 108
0.518650 0.182116 0.817149 111 110 117
0.516743 0.182421 0.816753 114 113 120
0.514835 0.182725 0.816357 110 109 113
0.512928 0.183030 0.815960 139 138 142
0.140992 0.242413 0.738695 147 147 151
0.139110 0.241790 0.737862 105 105 109
0.137205 0.242094 0.737466 108 110 116
0.135300 0.242398 0.737071 105 107 113
0.522485 0.181912 0.820355 131 137 139
0.520575 0.182216 0.819958 100 106 108
0.518665 0.182521 0.819561 111 111 115
0.516755 0.182826 0.819165 108 108 112
0.514845 0.183131 0.818768 149 145 148
0.140534 0.241971 0.740564 135 135 139
0.138626 0.242276 0.740168 110 110 114
0.136719 0.242580 0.739772 107 109 115
0.134842 0.241957 0.738937 105 107 113
0.522504 0.182315 0.822773 133 136 139
0.520592 0.182620 0.822376 115 118 121
0.518206 0.182079 0.821433 118 118 120
0.516296 0.182384 0.821036 150 150 152
0.140051 0.242455 0.742876 121 121 123
0.138141 0.242760 0.742479 109 109 111
0.136260 0.242139 0.741641 108 108 112
0.134353 0.242443 0.741244 114 114 118
0.139592 0.242013 0.744747 116 116 118
0.137682 0.242318 0.744350 110 110 112
0.135772 0.242623 0.743954 108 108 110
0.133862 0.242928 0.743557 129 129 131
0.139108 0.242496 0.747066 111 111 113
0.137195 0.242801 0.746669 111 111 113
0.135313 0.242181 0.745825 109 108 108
0.133403 0.242486 0.745428 141 140 140
0.140537 0.242671 0.749787 166 166 166
0.138648 0.242053 0.748940 107 107 111
0.136735 0.242358 0.748542 109 109 113
0.134823 0.242664 0.748145 105 104 104
0.132911 0.242969 0.747748 154 153 153
0.140077 0.242228 0.751664 157 157 157
0.138162 0.242534 0.751266 103 106 109
0.136247 0.242839 0.750868 110 113 116
0.134332 0.243145 0.750470 103 103 105
0.139592 0.242707 0.753995 146 146 146
0.137675 0.243013 0.753597 100 105 110
0.135757 0.243319 0.753199 107 112 117
0.133872 0.242702 0.752346 109 112 113
0.139106 0.243185 0.756332 126 126 128
0.137186 0.243492 0.755933 104 109 114
0.135296 0.242876 0.755077 100 105 110
0.133379 0.243182 0.754679 119 122 123
0.138619 0.243662 0.758673 133 133 135
0.136697 0.243969 0.758274 102 105 108
0.134805 0.243354 0.757415 102 105 108
0.132885 0.243660 0.757016 129 132 133
0.136206 0.244445 0.760620 124 130 132
0.134281 0.244752 0.760220 129 135 137
