ply
format ascii 1.0
element vertex 807
property float x
property float y
property float z
property uchar red
property uchar green
property uchar blue
end_header
0.163320 -0.601562 0.362655 148 122 118
0.165487 -0.601775 0.362309 149 123 119
0.155022 -0.600461 0.366201 161 135 131
0.157189 -0.600674 0.365855 144 118 114
0.159356 -0.600888 0.365509 136 93 86
0.161523 -0.601101 0.365163 125 82 75
0.163690 -0.601315 0.364817 125 77 69
0.165857 -0.601528 0.364471 132 84 76
0.168024 -0.601741 0.364125 178 152 152
0.148890 -0.599573 0.369402 154 135 131
0.151057 -0.599787 0.369056 152 116 108
0.153224 -0.600000 0.368710 134 98 90
0.155391 -0.600213 0.368364 131 79 70
0.157558 -0.600427 0.368018 131 79 70
0.159725 -0.600640 0.367672 139 81 69
0.161892 -0.600854 0.367326 139 81 69
0.164059 -0.601067 0.366980 129 79 72
0.166226 -0.601281 0.366634 131 81 74
0.168393 -0.601494 0.366287 129 108 107
0.140592 -0.598472 0.372949 156 139 139
0.142759 -0.598686 0.372603 152 120 116
0.144926 -0.598899 0.372257 131 99 95
0.147093 -0.599112 0.371911 132 82 75
0.149260 -0.599326 0.371565 127 77 70
0.151427 -0.599539 0.371219 139 79 66
0.153594 -0.599753 0.370872 140 80 67
0.155761 -0.599966 0.370526 140 82 68
0.157928 -0.600180 0.370180 138 80 66
0.160095 -0.600393 0.369834 133 79 69
0.162262 -0.600607 0.369488 140 86 76
0.164429 -0.600820 0.369142 142 105 100
0.166440 -0.602034 0.368788 159 122 117
0.134267 -0.598580 0.376150 158 130 129
0.136436 -0.598794 0.375804 145 117 116
0.138606 -0.599008 0.375457 140 94 90
0.140962 -0.598225 0.375111 126 80 76
0.143129 -0.598438 0.374765 134 77 68
0.145296 -0.598652 0.374419 134 77 68
0.147463 -0.598865 0.374073 139 79 66
0.149630 -0.599079 0.373727 138 78 65
0.151797 -0.599292 0.373381 138 78 65
0.153964 -0.599506 0.373035 139 79 66
0.155962 -0.600717 0.372685 138 86 75
0.158132 -0.600931 0.372339 147 95 84
0.160301 -0.601145 0.371992 154 116 109
0.162471 -0.601359 0.371646 180 142 135
0.128128 -0.597692 0.379354 150 127 124
0.130298 -0.597905 0.379008 144 102 99
0.132467 -0.598119 0.378662 131 89 86
0.134637 -0.598333 0.378315 129 74 69
0.136806 -0.598547 0.377969 126 71 66
0.138976 -0.598760 0.377622 139 79 68
0.141145 -0.598974 0.377276 138 78 67
0.143315 -0.599188 0.376929 140 80 69
0.145665 -0.598405 0.376582 139 79 68
0.147654 -0.599615 0.376236 136 78 66
0.149824 -0.599829 0.375890 143 85 73
0.151993 -0.600043 0.375543 150 103 92
0.154163 -0.600256 0.375197 168 121 110
0.156332 -0.600470 0.374850 176 144 140
0.119820 -0.596589 0.382905 150 134 129
0.121989 -0.596803 0.382559 144 113 104
0.124159 -0.597017 0.382212 128 97 88
0.126329 -0.597230 0.381866 131 83 75
0.128498 -0.597444 0.381519 128 80 72
0.130668 -0.597658 0.381173 133 75 63
0.132837 -0.597872 0.380827 136 78 66
0.135007 -0.598085 0.380480 139 79 68
0.137176 -0.598299 0.380134 135 75 64
0.139346 -0.598513 0.379787 134 75 66
0.141516 -0.598726 0.379441 136 77 68
0.143685 -0.598940 0.379094 138 86 77
0.145855 -0.599154 0.378748 153 101 92
0.148024 -0.599368 0.378401 163 122 116
0.150194 -0.599581 0.378055 179 138 132
0.113463 -0.596693 0.386122 152 122 117
0.115851 -0.595914 0.385763 137 107 102
0.118021 -0.596128 0.385417 132 89 80
0.120190 -0.596342 0.385070 126 83 74
0.122360 -0.596555 0.384724 133 80 67
0.124324 -0.597763 0.384388 133 80 67
0.126699 -0.596983 0.384031 139 81 67
0.128868 -0.597197 0.383685 138 80 66
0.131038 -0.597410 0.383338 135 79 65
0.133207 -0.597624 0.382992 135 79 65
0.135377 -0.597838 0.382645 137 83 75
0.137547 -0.598051 0.382299 146 92 84
0.139716 -0.598265 0.381952 154 113 107
0.141886 -0.598479 0.381606 174 133 127
0.144055 -0.598693 0.381259 180 148 144
0.104918 -0.596581 0.389693 157 132 125
0.107092 -0.596795 0.389346 142 117 110
0.109267 -0.597009 0.388999 138 97 89
0.111442 -0.597223 0.388652 131 90 82
0.113834 -0.596445 0.388290 134 80 70
0.116006 -0.596659 0.387943 133 79 69
0.118178 -0.596873 0.387596 141 83 69
0.120350 -0.597087 0.387249 140 82 68
0.122522 -0.597301 0.386902 141 83 69
0.124694 -0.597515 0.386555 139 81 67
0.126867 -0.597729 0.386208 133 80 67
0.129039 -0.597943 0.385861 140 87 74
0.131211 -0.598157 0.385515 147 104 95
0.133383 -0.598371 0.385168 157 114 105
0.135747 -0.597590 0.384810 169 137 133
0.137917 -0.597804 0.384464 178 146 142
0.100707 -0.596895 0.392578 148 117 108
0.103114 -0.596118 0.392211 134 103 94
0.105289 -0.596333 0.391864 134 85 73
0.107463 -0.596547 0.391516 132 83 71
0.109638 -0.596761 0.391169 140 82 68
0.111813 -0.596975 0.390822 140 82 68
0.113987 -0.597189 0.390474 141 83 69
0.116377 -0.596411 0.390110 137 79 65
0.118549 -0.596625 0.389763 134 78 64
0.120721 -0.596839 0.389417 135 79 65
0.122893 -0.597053 0.389070 137 90 79
0.125065 -0.597267 0.388723 153 106 95
0.127237 -0.597481 0.388376 163 127 119
0.129409 -0.597695 0.388029 176 140 132
0.092127 -0.596778 0.396165 152 127 120
0.094307 -0.596992 0.395817 144 119 112
0.096724 -0.596217 0.395446 142 99 90
0.098901 -0.596432 0.395098 128 85 76
0.101078 -0.596646 0.394750 134 81 68
0.103485 -0.595870 0.394381 134 81 68
0.105660 -0.596084 0.394034 144 84 71
0.107834 -0.596299 0.393686 141 81 68
0.110009 -0.596513 0.393339 139 81 67
0.112184 -0.596727 0.392992 138 80 66
0.114575 -0.595950 0.392625 135 84 70
0.116533 -0.597156 0.392297 143 92 78
0.118708 -0.597370 0.391950 154 111 102
0.121091 -0.596592 0.391584 162 119 110
0.123263 -0.596806 0.391237 172 140 136
0.083528 -0.596658 0.399761 162 137 130
0.085710 -0.596873 0.399412 150 125 118
0.087893 -0.597088 0.399064 147 106 96
0.090319 -0.596314 0.398688 137 96 86
0.092499 -0.596529 0.398340 133 82 68
0.094918 -0.595755 0.397966 132 81 67
0.097095 -0.595969 0.397619 137 79 65
0.099507 -0.595194 0.397246 139 81 67
0.101681 -0.595408 0.396898 141 83 69
0.103856 -0.595622 0.396551 140 82 68
0.106257 -0.594846 0.396180 134 81 68
0.108429 -0.595060 0.395833 141 88 75
0.110601 -0.595274 0.395486 148 102 94
0.112773 -0.595488 0.395139 162 116 108
0.114946 -0.595702 0.394792 172 137 132
0.116904 -0.596907 0.394467 177 142 137
0.075171 -0.595549 0.403333 160 138 130
0.077354 -0.595764 0.402984 149 127 119
0.079536 -0.595979 0.402636 146 110 100
0.081718 -0.596194 0.402287 137 101 91
0.083900 -0.596409 0.401938 136 87 75
0.086332 -0.595636 0.401560 131 82 70
0.088511 -0.595851 0.401212 139 81 65
0.090935 -0.595077 0.400834 138 80 64
0.093112 -0.595292 0.400487 140 82 66
0.095528 -0.594517 0.400110 141 83 67
0.097703 -0.594731 0.399763 136 80 68
0.099878 -0.594946 0.399416 136 80 68
0.102283 -0.594170 0.399041 135 87 79
0.104456 -0.594384 0.398694 150 102 94
0.106854 -0.593608 0.398321 160 124 116
0.109023 -0.593822 0.397974 171 135 127
0.110972 -0.595026 0.397654 172 144 141
0.068997 -0.594655 0.406556 148 123 114
0.071179 -0.594870 0.406207 149 113 101
0.073361 -0.595085 0.405859 134 98 86
0.075544 -0.595300 0.405510 130 84 68
0.077467 -0.596502 0.405196 128 82 66
0.079908 -0.595730 0.404813 134 78 64
0.082090 -0.595945 0.404465 136 80 66
0.084273 -0.596160 0.404116 142 82 67
0.086704 -0.595387 0.403735 141 81 66
0.088883 -0.595602 0.403387 138 80 64
0.091307 -0.594829 0.403007 138 80 64
0.093484 -0.595043 0.402659 135 84 70
0.095899 -0.594269 0.402280 140 89 75
0.098074 -0.594483 0.401933 141 100 92
0.100482 -0.593708 0.401556 160 119 111
0.102654 -0.593922 0.401209 169 137 133
0.060640 -0.593546 0.410128 145 118 110
0.062822 -0.593761 0.409779 144 106 95
0.065004 -0.593976 0.409431 135 97 86
0.067187 -0.594191 0.409082 127 82 69
0.069369 -0.594406 0.408733 122 77 64
0.071551 -0.594621 0.408385 130 77 60
0.073734 -0.594836 0.408037 135 82 65
0.075916 -0.595051 0.407688 135 79 63
0.078098 -0.595266 0.407339 135 79 63
0.080280 -0.595481 0.406991 136 80 64
0.082463 -0.595696 0.406642 135 79 63
0.084896 -0.594924 0.406258 133 80 65
0.087075 -0.595139 0.405910 137 84 69
0.089255 -0.595353 0.405562 144 97 86
0.091678 -0.594580 0.405180 158 111 100
0.093855 -0.594795 0.404832 165 130 125
0.096032 -0.595009 0.404484 175 140 135
0.051706 -0.594403 0.413788 144 123 118
0.053893 -0.594619 0.413439 147 109 102
0.056364 -0.593851 0.413046 133 95 88
0.058830 -0.593082 0.412654 131 79 68
0.061012 -0.593297 0.412305 127 75 64
0.063194 -0.593512 0.411957 132 74 60
0.065377 -0.593727 0.411608 133 75 61
0.067830 -0.592957 0.411218 132 76 62
0.070009 -0.593172 0.410870 135 79 65
0.072189 -0.593387 0.410522 129 76 59
0.074369 -0.593602 0.410174 129 76 59
0.076288 -0.594802 0.409866 126 78 61
0.078470 -0.595017 0.409517 131 83 66
0.080653 -0.595232 0.409169 142 97 86
0.083088 -0.594461 0.408782 154 109 98
0.085268 -0.594675 0.408433 158 122 114
0.087447 -0.594890 0.408085 165 129 121
0.045221 -0.594489 0.417067 145 113 107
0.047704 -0.593723 0.416669 131 99 93
0.049892 -0.593938 0.416320 133 87 79
0.052367 -0.593171 0.415924 123 77 69
0.054838 -0.592403 0.415529 130 74 62
0.057303 -0.591635 0.415134 129 73 61
0.059482 -0.591850 0.414786 135 75 62
0.061662 -0.592065 0.414438 135 75 62
0.064117 -0.591296 0.414045 132 74 60
0.066294 -0.591510 0.413697 130 72 58
0.068201 -0.592709 0.413393 128 77 61
0.070381 -0.592924 0.413045 134 83 67
0.072561 -0.593138 0.412697 138 98 85
0.074741 -0.593353 0.412349 148 108 95
0.076920 -0.593568 0.412001 154 120 110
0.079100 -0.593782 0.411653 164 130 120
0.036530 -0.594357 0.420703 152 123 113
0.038722 -0.594573 0.420353 144 115 105
0.041215 -0.593808 0.419952 143 100 91
0.043405 -0.594024 0.419602 127 84 75
0.045890 -0.593258 0.419201 129 76 63
0.048370 -0.592491 0.418802 128 75 62
0.050555 -0.592707 0.418453 133 75 61
0.053028 -0.591939 0.418055 133 75 61
0.055495 -0.591172 0.417657 133 75 61
0.057957 -0.590404 0.417261 129 71 57
0.060134 -0.590618 0.416913 126 73 60
0.062311 -0.590833 0.416565 130 77 64
0.064489 -0.591047 0.416218 134 89 78
0.066666 -0.591262 0.415870 151 106 95
0.068843 -0.591476 0.415522 158 127 116
0.070753 -0.592675 0.415221 165 134 123
0.028134 -0.593243 0.424292 151 124 116
0.030326 -0.593459 0.423942 143 116 108
0.032519 -0.593675 0.423591 140 102 91
0.034711 -0.593891 0.423241 136 98 87
0.036904 -0.594107 0.422891 135 84 70
0.039399 -0.593342 0.422487 128 77 63
0.041589 -0.593558 0.422137 131 75 61
0.044076 -0.592793 0.421734 132 76 62
0.046558 -0.592027 0.421331 135 79 63
0.049035 -0.591261 0.420929 131 75 59
0.051218 -0.591476 0.420581 128 72 58
0.053687 -0.590708 0.420181 130 74 60
0.056151 -0.589941 0.419781 131 84 73
0.058328 -0.590155 0.419433 144 97 86
0.060506 -0.590370 0.419086 154 116 109
0.062960 -0.589601 0.418688 165 127 120
0.064860 -0.590799 0.418390 165 138 132
0.017546 -0.591913 0.428230 145 125 117
0.019738 -0.592129 0.427880 150 121 111
0.021931 -0.592345 0.427530 143 114 104
0.024123 -0.592561 0.427180 138 98 85
0.026316 -0.592777 0.426830 128 88 75
0.028508 -0.592993 0.426480 129 81 66
0.030701 -0.593209 0.426129 127 79 64
0.032893 -0.593425 0.425779 130 74 58
0.035085 -0.593641 0.425429 134 78 62
0.037582 -0.592877 0.425022 137 79 63
0.039772 -0.593093 0.424672 134 76 60
0.042262 -0.592328 0.424266 131 75 61
0.044449 -0.592543 0.423916 131 75 61
0.046931 -0.591778 0.423511 132 83 71
0.049408 -0.591012 0.423107 137 88 76
0.051879 -0.590245 0.422704 142 101 91
0.054346 -0.589478 0.422301 161 120 110
0.056523 -0.589692 0.421954 164 134 129
0.005107 -0.589391 0.432453 146 126 118
0.007297 -0.589607 0.432103 145 121 109
0.009150 -0.590799 0.431819 138 114 102
0.011342 -0.591015 0.431469 135 101 91
0.013535 -0.591231 0.431118 127 93 83
0.015727 -0.591447 0.430768 125 83 71
0.017920 -0.591663 0.430418 119 77 65
0.020112 -0.591879 0.430068 124 72 61
0.022305 -0.592095 0.429718 126 74 63
0.024497 -0.592311 0.429368 132 76 62
0.026690 -0.592527 0.429018 132 76 62
0.028882 -0.592743 0.428667 132 76 62
0.031075 -0.592959 0.428317 134 78 64
0.033267 -0.593175 0.427967 134 78 64
0.035460 -0.593391 0.427617 130 74 60
0.037652 -0.593607 0.427267 126 78 63
0.040146 -0.592843 0.426857 131 83 68
0.042635 -0.592078 0.426449 138 97 87
0.044822 -0.592294 0.426099 151 110 100
0.047304 -0.591528 0.425692 161 129 123
0.049780 -0.590763 0.425285 165 133 127
-0.007302 -0.586873 0.436666 139 119 111
-0.005114 -0.587088 0.436316 136 110 99
-0.002927 -0.587304 0.435967 130 104 93
-0.001089 -0.588494 0.435687 127 93 81
0.001101 -0.588710 0.435338 120 86 74
0.003291 -0.588926 0.434988 119 79 64
0.005139 -0.590117 0.434707 119 79 64
0.007331 -0.590333 0.434357 119 74 61
0.009524 -0.590549 0.434007 120 75 62
0.011716 -0.590765 0.433656 125 74 60
0.013909 -0.590981 0.433306 124 73 59
0.016101 -0.591197 0.432956 126 73 60
0.018294 -0.591413 0.432606 126 73 60
0.020486 -0.591629 0.432256 125 72 57
0.022679 -0.591845 0.431906 127 74 59
0.024871 -0.592061 0.431556 126 73 58
0.027064 -0.592277 0.431206 127 74 59
0.029256 -0.592493 0.430855 125 77 62
0.031449 -0.592709 0.430505 133 85 70
0.033641 -0.592925 0.430155 139 97 85
0.035834 -0.593141 0.429805 147 105 93
0.038026 -0.593357 0.429455 148 116 110
0.040520 -0.592593 0.429043 156 124 118
-0.022240 -0.585115 0.441294 143 119 105
-0.020053 -0.585330 0.440944 138 114 100
-0.017866 -0.585546 0.440595 131 102 90
-0.015678 -0.585761 0.440246 126 97 85
-0.013491 -0.585977 0.439896 128 90 79
-0.011303 -0.586192 0.439547 118 80 69
-0.009116 -0.586408 0.439198 113 71 57
-0.007285 -0.587597 0.438922 112 70 56
-0.005095 -0.587813 0.438572 116 70 54
-0.002905 -0.588029 0.438223 115 69 53
-0.000716 -0.588244 0.437873 117 69 52
0.001128 -0.589435 0.437595 122 74 57
0.003320 -0.589651 0.437245 122 74 57
0.005513 -0.589867 0.436895 120 72 55
0.007705 -0.590083 0.436545 122 74 57
0.009898 -0.590299 0.436194 122 74 57
0.012090 -0.590515 0.435844 122 74 57
0.014283 -0.590731 0.435494 120 72 55
0.016475 -0.590947 0.435144 119 71 56
0.018668 -0.591163 0.434794 125 77 62
0.020860 -0.591379 0.434444 126 81 68
0.023053 -0.591595 0.434094 135 90 77
0.025245 -0.591811 0.433744 141 100 90
0.027438 -0.592027 0.433393 151 110 100
0.029630 -0.592243 0.433043 155 124 115
0.031823 -0.592458 0.432693 159 128 119
-0.045928 -0.582495 0.447319 143 119 105
-0.043741 -0.582711 0.446970 140 111 99
-0.041554 -0.582926 0.446620 132 103 91
-0.038972 -0.582172 0.446189 128 97 84
-0.036787 -0.582387 0.445840 120 89 76
-0.034602 -0.582602 0.445491 122 86 74
-0.032804 -0.583788 0.445223 120 84 72
-0.030617 -0.584003 0.444874 121 79 67
-0.028429 -0.584219 0.444525 122 80 68
-0.026242 -0.584434 0.444175 124 80 64
-0.024055 -0.584650 0.443826 122 78 62
-0.021493 -0.583893 0.443398 120 76 58
-0.019680 -0.585081 0.443127 115 71 53
-0.017492 -0.585296 0.442778 122 74 57
-0.015305 -0.585512 0.442429 122 74 57
-0.013118 -0.585727 0.442079 121 70 54
-0.010930 -0.585943 0.441730 121 70 54
-0.009102 -0.587132 0.441457 121 70 54
-0.006912 -0.587347 0.441107 121 70 54
-0.004722 -0.587563 0.440758 120 72 55
-0.002532 -0.587779 0.440408 120 72 55
-0.000342 -0.587994 0.440058 115 69 51
0.001502 -0.589185 0.439783 115 69 51
0.003694 -0.589401 0.439433 115 71 55
0.005887 -0.589617 0.439083 120 76 60
0.008079 -0.589833 0.438732 120 78 64
0.010272 -0.590049 0.438382 128 86 72
0.012464 -0.590265 0.438032 136 99 85
0.014657 -0.590481 0.437682 144 107 93
0.016849 -0.590697 0.437332 148 117 106
0.019042 -0.590913 0.436982 156 125 114
-0.061706 -0.582671 0.452125 137 112 103
-0.059513 -0.582887 0.451774 133 108 99
-0.056907 -0.582136 0.451336 126 95 82
-0.054717 -0.582352 0.450987 120 89 76
-0.052117 -0.581599 0.450550 121 81 66
-0.050337 -0.582783 0.450287 118 78 63
-0.047743 -0.582030 0.449851 119 75 57
-0.045957 -0.583214 0.449588 116 72 54
-0.043767 -0.583430 0.449238 122 74 57
-0.041180 -0.582677 0.448803 120 72 55
-0.038993 -0.582892 0.448454 120 72 55
-0.036806 -0.583108 0.448105 120 72 55
-0.035007 -0.584293 0.447839 120 72 57
-0.032817 -0.584509 0.447489 119 71 56
-0.030627 -0.584724 0.447140 118 70 55
-0.028437 -0.584940 0.446790 120 72 57
-0.025869 -0.584185 0.446358 123 75 58
-0.024058 -0.585372 0.446091 122 74 57
-0.021494 -0.584616 0.445659 117 69 52
-0.019307 -0.584831 0.445310 118 70 53
-0.017488 -0.586019 0.445041 118 70 53
-0.015298 -0.586235 0.444692 115 67 50
-0.013108 -0.586450 0.444342 115 69 51
-0.010918 -0.586666 0.443992 115 69 51
-0.008728 -0.586882 0.443642 114 70 54
-0.006538 -0.587097 0.443293 122 78 62
-0.004701 -0.588287 0.443021 126 86 71
-0.002509 -0.588503 0.442671 132 92 77
-0.000316 -0.588719 0.442321 137 102 87
0.001876 -0.588935 0.441971 146 111 96
0.004068 -0.589151 0.441621 147 116 105
0.006261 -0.589367 0.441271 147 116 105
0.008115 -0.590558 0.440996 149 123 112
-0.070531 -0.582523 0.455806 133 104 92
-0.068336 -0.582739 0.455455 125 96 84
-0.065717 -0.581989 0.455013 122 85 71
-0.063524 -0.582205 0.454663 116 79 65
-0.061332 -0.582421 0.454313 119 74 61
-0.059139 -0.582637 0.453962 116 71 58
-0.056947 -0.582853 0.453612 119 73 55
-0.054343 -0.582102 0.453172 121 75 57
-0.052153 -0.582317 0.452822 121 70 54
-0.049963 -0.582533 0.452473 124 73 57
-0.047369 -0.581781 0.452034 121 70 54
-0.045583 -0.582965 0.451773 118 67 51
-0.043393 -0.583180 0.451423 119 68 52
-0.041203 -0.583396 0.451074 119 68 52
-0.039014 -0.583612 0.450724 117 69 54
-0.036824 -0.583827 0.450374 115 67 52
-0.034634 -0.584043 0.450025 116 69 56
-0.032444 -0.584259 0.449675 116 69 56
-0.030637 -0.585445 0.449411 115 70 57
-0.028064 -0.584690 0.448975 115 70 57
-0.025874 -0.584906 0.448626 117 75 61
-0.023684 -0.585122 0.448276 119 77 63
-0.021494 -0.585338 0.447926 121 81 66
-0.019304 -0.585553 0.447576 123 83 68
-0.017114 -0.585769 0.447227 123 86 70
-0.014924 -0.585985 0.446877 131 94 78
-0.013097 -0.587173 0.446610 137 103 91
-0.010905 -0.587389 0.446259 139 105 93
-0.008712 -0.587605 0.445909 139 113 102
-0.006520 -0.587821 0.445559 144 118 107
-0.004327 -0.588037 0.445209 148 123 114
-0.077178 -0.582589 0.459145 126 104 94
-0.074980 -0.582805 0.458794 130 90 77
-0.072783 -0.583022 0.458443 119 79 66
-0.070157 -0.582273 0.457996 119 71 56
-0.067962 -0.582489 0.457646 118 70 55
-0.065343 -0.581739 0.457201 121 70 54
-0.063150 -0.581955 0.456851 121 70 54
-0.060958 -0.582171 0.456500 119 71 54
-0.058765 -0.582387 0.456150 118 70 53
-0.056573 -0.582603 0.455800 115 67 50
-0.053969 -0.581852 0.455357 115 67 50
-0.051780 -0.582068 0.455008 114 68 52
-0.049590 -0.582283 0.454658 114 68 52
-0.047400 -0.582499 0.454308 117 71 55
-0.045210 -0.582715 0.453959 126 80 64
-0.043020 -0.582930 0.453609 129 84 71
-0.040830 -0.583146 0.453259 130 85 72
-0.038640 -0.583362 0.452909 132 91 81
-0.036450 -0.583578 0.452560 140 99 89
-0.034648 -0.584763 0.452299 135 101 91
-0.032456 -0.584979 0.451949 140 106 96
-0.030263 -0.585195 0.451599 143 114 104
-0.028071 -0.585411 0.451248 143 114 104
-0.025878 -0.585627 0.450898 141 114 106
-0.023686 -0.585843 0.450548 145 118 110
-0.021493 -0.586059 0.450198 149 124 115
-0.019301 -0.586275 0.449848 148 123 114
-0.081198 -0.581905 0.462040 121 96 87
-0.079001 -0.582122 0.461689 124 79 66
-0.076803 -0.582338 0.461338 116 71 58
-0.075039 -0.583519 0.461085 120 69 51
-0.072408 -0.582771 0.460636 119 68 50
-0.070210 -0.582987 0.460285 114 63 45
-0.067587 -0.582239 0.459836 115 64 46
-0.065392 -0.582455 0.459486 115 69 51
-0.062776 -0.581705 0.459038 118 72 54
-0.060584 -0.581921 0.458688 123 79 63
-0.058391 -0.582137 0.458338 129 85 69
-0.056199 -0.582353 0.457988 131 94 80
-0.054006 -0.582569 0.457638 137 100 86
-0.051406 -0.581818 0.457193 134 103 92
-0.049621 -0.583001 0.456938 139 108 97
-0.047026 -0.582249 0.456494 146 115 106
-0.045236 -0.583433 0.456237 148 117 108
-0.043044 -0.583649 0.455887 146 120 109
-0.040851 -0.583865 0.455537 144 118 107
-0.085219 -0.581221 0.464934 119 99 91
-0.083021 -0.581438 0.464583 121 76 63
-0.080823 -0.581654 0.464233 117 72 59
-0.078626 -0.581871 0.463882 125 72 55
-0.076864 -0.583051 0.463632 123 70 53
-0.074664 -0.583268 0.463281 119 71 54
-0.072464 -0.583485 0.462930 125 77 60
-0.069836 -0.582737 0.462478 126 82 66
-0.067638 -0.582953 0.462127 136 92 76
-0.065018 -0.582204 0.461676 138 103 88
-0.062823 -0.582421 0.461326 148 113 98
-0.060210 -0.581671 0.460876 145 116 104
-0.058017 -0.581887 0.460526 144 115 103
-0.055825 -0.582103 0.460176 140 118 110
-0.086593 -0.579792 0.467372 122 87 72
-0.084398 -0.580008 0.467021 111 76 61
-0.082203 -0.580224 0.466671 122 71 57
-0.078251 -0.581620 0.466075 118 70 55
-0.076053 -0.581837 0.465724 125 77 62
-0.073856 -0.582053 0.465373 131 94 80
-0.071658 -0.582269 0.465022 152 115 101
-0.069461 -0.582486 0.464671 151 122 110
-0.067263 -0.582702 0.464320 152 123 111
-0.065065 -0.582919 0.463969 144 124 114
-0.087964 -0.578363 0.469804 110 84 71
-0.085771 -0.578579 0.469454 118 70 53
-0.083579 -0.578795 0.469103 120 72 55
-0.081387 -0.579011 0.468753 119 71 56
-0.079634 -0.580190 0.468511 131 83 68
-0.077439 -0.580406 0.468160 137 101 89
-0.075678 -0.581586 0.467917 157 121 109
-0.073481 -0.581802 0.467566 147 122 113
-0.071283 -0.582019 0.467215 149 124 115
-0.091975 -0.577681 0.472692 118 100 91
-0.089330 -0.576935 0.472230 121 77 61
-0.087140 -0.577151 0.471880 119 75 59
-0.084950 -0.577367 0.471530 127 76 60
-0.083205 -0.578545 0.471291 128 77 61
-0.081012 -0.578761 0.470941 146 105 95
-0.078820 -0.578977 0.470591 162 121 111
-0.076627 -0.579193 0.470241 149 127 119
-0.091147 -0.576470 0.474765 111 82 70
-0.088957 -0.576685 0.474415 125 72 57
-0.086767 -0.576901 0.474065 130 77 62
-0.084130 -0.576155 0.473601 139 93 77
-0.081943 -0.576371 0.473252 160 114 98
-0.080197 -0.577548 0.473016 152 122 115
-0.093419 -0.576965 0.477418 121 80 63
-0.090773 -0.576220 0.476950 117 76 59
-0.088132 -0.575475 0.476483 128 75 60
-0.085945 -0.575690 0.476134 140 87 72
-0.083757 -0.575906 0.475784 154 114 101
-0.081570 -0.576121 0.475435 163 123 110
-0.095238 -0.576499 0.479956 118 97 82
-0.092589 -0.575754 0.479485 126 76 55
-0.090399 -0.575970 0.479135 128 78 57
-0.087759 -0.575225 0.478666 138 90 73
-0.085571 -0.575441 0.478316 165 117 100
-0.082938 -0.574695 0.477848 153 124 114
-0.097056 -0.576032 0.482494 130 97 82
-0.094864 -0.576248 0.482144 113 80 65
-0.092216 -0.575504 0.481670 127 74 57
-0.089573 -0.574760 0.481198 143 90 73
-0.087386 -0.574976 0.480849 155 113 101
-0.084750 -0.574230 0.480377 166 124 112
-0.096682 -0.575782 0.484682 122 81 64
-0.094490 -0.575998 0.484332 121 80 63
-0.091387 -0.574295 0.483730 137 84 67
-0.089200 -0.574511 0.483381 158 105 88
-0.086562 -0.573766 0.482906 157 121 109
-0.098963 -0.576275 0.487349 122 102 92
-0.096308 -0.575532 0.486870 125 74 58
-0.094116 -0.575748 0.486520 128 77 61
-0.091014 -0.574046 0.485913 148 97 81
-0.088827 -0.574261 0.485564 166 115 99
-0.086190 -0.573517 0.485087 154 125 115
-0.098588 -0.576024 0.489540 104 78 65
-0.095934 -0.575282 0.489058 125 69 53
-0.093742 -0.575498 0.488707 141 85 69
-0.091095 -0.574755 0.488226 156 112 96
-0.088453 -0.574012 0.487746 169 125 109
-0.100873 -0.576515 0.492216 123 89 77
-0.098214 -0.575774 0.491730 113 79 67
-0.096019 -0.575990 0.491380 136 81 62
-0.093824 -0.576206 0.491029 152 97 78
-0.091175 -0.575464 0.490545 164 127 113
-0.088531 -0.574721 0.490062 166 129 115
-0.100498 -0.576265 0.494409 122 80 66
-0.098300 -0.576481 0.494058 115 73 59
-0.096103 -0.576697 0.493707 143 92 74
-0.093905 -0.576914 0.493356 160 109 91
-0.091254 -0.576172 0.492869 156 125 114
-0.100586 -0.576971 0.496742 123 75 58
-0.098386 -0.577188 0.496390 126 78 61
-0.096186 -0.577404 0.496039 150 99 83
-0.093986 -0.577621 0.495688 173 122 106
-0.091785 -0.577838 0.495336 152 127 118
-0.102876 -0.577460 0.499432 110 89 74
-0.100673 -0.577677 0.499080 123 70 55
-0.098931 -0.578851 0.498870 139 86 71
-0.096725 -0.579068 0.498518 154 108 92
-0.094520 -0.579285 0.498166 171 125 109
-0.102500 -0.577208 0.501630 108 80 63
-0.100760 -0.578382 0.501423 125 72 55
-0.098554 -0.578599 0.501071 142 89 72
-0.096349 -0.578816 0.500719 163 123 110
-0.094598 -0.579991 0.500510 163 123 110
-0.104327 -0.576740 0.504179 127 92 75
-0.102589 -0.577913 0.503976 102 67 50
-0.100383 -0.578130 0.503624 135 80 61
-0.098637 -0.579304 0.503419 159 104 85
-0.096886 -0.580478 0.503213 164 128 116
-0.104418 -0.577444 0.506529 119 78 61
-0.102212 -0.577661 0.506176 113 72 55
-0.100468 -0.578835 0.505974 146 90 74
-0.098719 -0.580008 0.505772 173 117 101
-0.096509 -0.580226 0.505419 161 130 119
-0.104041 -0.577193 0.508729 116 70 54
-0.102300 -0.578365 0.508530 124 78 62
-0.100553 -0.579538 0.508330 153 102 86
-0.098342 -0.579756 0.507977 175 124 108
-0.096588 -0.580930 0.507776 158 131 123
-0.105870 -0.576724 0.511282 111 92 79
-0.104131 -0.577896 0.511086 120 69 51
-0.102386 -0.579068 0.510889 132 81 63
-0.100176 -0.579286 0.510536 155 107 92
-0.097965 -0.579504 0.510183 174 126 111
-0.096210 -0.580678 0.509985 154 134 126
-0.105962 -0.577426 0.513642 110 84 71
-0.103754 -0.577644 0.513289 127 71 55
-0.102009 -0.578816 0.513095 149 93 77
-0.099799 -0.579034 0.512742 166 122 106
-0.098046 -0.580207 0.512546 171 127 111
-0.105585 -0.577175 0.515845 104 73 60
-0.103842 -0.578346 0.515653 133 75 59
-0.101632 -0.578564 0.515300 159 101 85
-0.099421 -0.578782 0.514947 166 126 113
-0.097668 -0.579955 0.514754 168 128 115
-0.107416 -0.576705 0.518400 123 86 70
-0.105675 -0.577877 0.518212 115 78 62
-0.103465 -0.578094 0.517859 138 82 66
-0.101255 -0.578312 0.517506 164 108 92
-0.099503 -0.579484 0.517316 173 135 124
-0.107040 -0.576453 0.520604 115 74 57
-0.105298 -0.577624 0.520418 111 70 53
-0.103088 -0.577842 0.520065 142 86 72
-0.100878 -0.578060 0.519712 176 120 106
-0.099126 -0.579232 0.519524 162 131 122
-0.107131 -0.577154 0.522976 116 70 52
-0.104921 -0.577372 0.522623 121 75 57
-0.102711 -0.577590 0.522270 153 100 85
-0.100961 -0.578761 0.522086 181 128 113
-0.098748 -0.578979 0.521733 160 133 127
-0.108965 -0.576685 0.525535 109 90 77
-0.106754 -0.576902 0.525182 114 63 47
-0.104544 -0.577120 0.524829 136 85 69
-0.102334 -0.577338 0.524476 160 108 97
-0.100584 -0.578509 0.524294 182 130 119
-0.108588 -0.576432 0.527741 101 77 61
-0.106377 -0.576650 0.527388 121 68 51
-0.104167 -0.576868 0.527035 144 91 74
-0.102419 -0.578038 0.526856 167 120 107
-0.100206 -0.578256 0.526502 179 132 119
-0.108210 -0.576180 0.529946 110 81 67
-0.106000 -0.576398 0.529593 131 76 57
-0.103790 -0.576616 0.529240 156 101 82
-0.102042 -0.577786 0.529064 177 135 123
-0.099829 -0.578004 0.528711 174 132 120
-0.110044 -0.575710 0.532505 122 87 72
-0.107833 -0.575928 0.532152 113 78 63
-0.105623 -0.576146 0.531799 147 89 73
-0.103877 -0.577316 0.531626 165 107 91
-0.101664 -0.577533 0.531272 177 139 128
-0.099451 -0.577751 0.530919 171 133 122
-0.109667 -0.575458 0.534711 122 80 66
-0.107456 -0.575676 0.534358 115 73 59
-0.105246 -0.575894 0.534005 149 93 79
-0.103499 -0.577063 0.533834 169 113 99
-0.101287 -0.577281 0.533480 169 135 127
-0.109289 -0.575206 0.536916 119 73 57
-0.107079 -0.575424 0.536563 122 76 60
-0.105335 -0.576593 0.536395 150 99 83
-0.103122 -0.576811 0.536042 180 129 113
-0.100909 -0.577029 0.535689 166 137 127
-0.108912 -0.574954 0.539122 125 74 58
-0.107170 -0.576122 0.538957 135 84 68
-0.104957 -0.576340 0.538604 161 110 96
-0.102744 -0.576558 0.538250 187 136 122
-0.100532 -0.576776 0.537897 162 140 130
-0.111218 -0.575434 0.541872 106 84 74
-0.109005 -0.575652 0.541519 122 66 54
-0.106793 -0.575870 0.541165 153 97 85
-0.104580 -0.576088 0.540812 171 122 110
-0.102367 -0.576306 0.540458 187 138 126
-0.100154 -0.576524 0.540105 159 140 134
-0.110841 -0.575181 0.544080 108 82 69
-0.108628 -0.575399 0.543727 125 69 55
-0.106415 -0.575617 0.543373 156 100 86
-0.104202 -0.575835 0.543020 173 131 119
-0.101989 -0.576053 0.542667 176 134 122
-0.112676 -0.574711 0.546642 125 92 77
-0.110463 -0.574929 0.546288 102 69 54
-0.108250 -0.575147 0.545935 144 86 70
-0.106038 -0.575365 0.545582 171 113 97
-0.103825 -0.575583 0.545228 173 135 124
-0.101612 -0.575801 0.544875 172 134 123
-0.112299 -0.574458 0.548850 121 79 65
-0.110086 -0.574676 0.548497 113 71 57
-0.107873 -0.574894 0.548143 151 93 79
-0.105660 -0.575112 0.547790 185 127 113
-0.103447 -0.575330 0.547437 172 141 130
-0.111921 -0.574206 0.551058 125 79 63
-0.109708 -0.574424 0.550705 125 79 63
-0.107495 -0.574642 0.550352 152 96 82
-0.105283 -0.574860 0.549998 187 131 117
-0.103070 -0.575078 0.549645 167 140 132
-0.113756 -0.573735 0.553620 112 93 80
-0.111544 -0.573953 0.553267 127 71 57
-0.109331 -0.574171 0.552913 144 88 74
-0.107118 -0.574389 0.552560 156 105 91
-0.104905 -0.574607 0.552206 189 138 124
-0.102692 -0.574825 0.551853 161 141 133
-0.113379 -0.573483 0.555828 106 82 68
-0.111166 -0.573701 0.555475 125 67 51
-0.108953 -0.573919 0.555121 157 99 83
-0.106740 -0.574137 0.554768 164 119 106
-0.104527 -0.574355 0.554415 184 139 126
-0.113001 -0.573231 0.558036 99 70 56
-0.110789 -0.573449 0.557683 134 74 59
-0.108576 -0.573667 0.557330 165 105 90
-0.106363 -0.573884 0.556976 174 133 123
-0.104150 -0.574102 0.556623 179 138 128
-0.114837 -0.572760 0.560598 123 88 73
-0.112624 -0.572978 0.560245 109 74 59
-0.110411 -0.573196 0.559891 141 83 67
-0.108198 -0.573414 0.559538 166 108 92
-0.105519 -0.572684 0.558973 179 143 135
-0.103308 -0.572902 0.558620 174 138 130
-0.114459 -0.572508 0.562806 118 79 61
-0.112246 -0.572726 0.562453 114 75 57
-0.109562 -0.571997 0.561885 151 95 79
-0.107352 -0.572214 0.561532 179 123 107
-0.105142 -0.572432 0.561179 174 143 134
-0.114082 -0.572255 0.565014 119 73 55
-0.111869 -0.572473 0.564661 125 79 61
-0.109185 -0.571744 0.564091 160 102 86
-0.106975 -0.571962 0.563738 188 130 114
-0.104764 -0.572180 0.563385 166 139 131
-0.115917 -0.571785 0.567576 112 95 81
-0.113229 -0.571057 0.567002 118 67 51
-0.111018 -0.571275 0.566649 133 82 66
-0.108808 -0.571492 0.566296 165 112 97
-0.106598 -0.571710 0.565943 189 136 121
-0.104387 -0.571928 0.565590 161 141 133
-0.115539 -0.571532 0.569784 105 84 69
-0.112852 -0.570805 0.569208 122 69 52
-0.110641 -0.571022 0.568855 147 94 77
-0.108431 -0.571240 0.568502 179 131 116
-0.106221 -0.571458 0.568149 182 134 119
-0.115162 -0.571280 0.571992 103 75 58
-0.112474 -0.570553 0.571414 132 75 56
-0.110264 -0.570770 0.571061 157 100 81
-0.108054 -0.570988 0.570708 185 140 129
-0.105844 -0.571206 0.570355 183 138 127
-0.116997 -0.570809 0.574554 125 92 75
-0.114784 -0.571027 0.574201 109 76 59
-0.112097 -0.570300 0.573619 142 83 65
-0.109887 -0.570518 0.573266 162 103 85
-0.107677 -0.570736 0.572913 183 145 134
-0.105467 -0.570953 0.572560 177 139 128
-0.116620 -0.570557 0.576762 119 79 64
-0.114407 -0.570775 0.576409 107 67 52
-0.112194 -0.570993 0.576056 152 94 78
-0.109510 -0.570266 0.575472 176 118 102
-0.107300 -0.570484 0.575119 186 150 140
-0.116242 -0.570304 0.578970 115 71 55
-0.114029 -0.570522 0.578617 117 73 57
-0.111817 -0.570740 0.578264 157 104 89
-0.109604 -0.570958 0.577910 188 135 120
-0.107391 -0.571176 0.577557 175 143 137
-0.118078 -0.569834 0.581532 115 102 89
-0.115865 -0.570052 0.581179 113 65 48
-0.113652 -0.570270 0.580825 131 83 66
-0.111439 -0.570488 0.580472 163 110 95
-0.109226 -0.570706 0.580119 190 137 122
-0.107013 -0.570924 0.579765 173 146 140
-0.117700 -0.569582 0.583740 111 94 80
-0.115487 -0.569800 0.583387 125 72 55
-0.113274 -0.570018 0.583034 136 83 66
-0.111062 -0.570235 0.582680 175 124 110
-0.108849 -0.570453 0.582327 189 138 124
-0.106636 -0.570671 0.581973 172 147 140
-0.117802 -0.570272 0.586190 104 83 68
-0.115587 -0.570490 0.585837 127 69 53
-0.113371 -0.570708 0.585483 152 94 78
-0.111156 -0.570927 0.585129 183 135 120
-0.108471 -0.570201 0.584535 188 140 125
-0.117903 -0.570962 0.588646 104 78 65
-0.115686 -0.571180 0.588292 130 72 56
-0.113468 -0.571399 0.587937 160 102 86
-0.111250 -0.571617 0.587583 187 142 129
-0.109032 -0.571836 0.587229 186 141 128
-0.117525 -0.570709 0.590859 103 78 69
-0.115307 -0.570927 0.590505 129 80 68
-0.113089 -0.571146 0.590151 157 108 96
-0.110871 -0.571364 0.589796 181 145 135
-0.108653 -0.571582 0.589442 180 144 134
-0.117147 -0.570456 0.593072 100 86 78
-0.114929 -0.570674 0.592718 125 93 87
-0.112711 -0.570893 0.592364 155 123 117
-0.110493 -0.571111 0.592010 166 145 140
