ply
format ascii 1.0
element vertex 807
property float x
property float y
property float z
property uchar red
property uchar green
property uchar blue
end_header
-0.049326 -0.130955 0.851000 148 122 118
-0.047121 -0.130955 0.851000 149 123 119
-0.058145 -0.128747 0.851000 161 135 131
-0.055940 -0.128747 0.851000 144 118 114
-0.053735 -0.128747 0.851000 136 93 86
-0.051530 -0.128747 0.851000 125 82 75
-0.049326 -0.128747 0.851000 125 77 69
-0.047121 -0.128747 0.851000 132 84 76
-0.044916 -0.128747 0.851000 178 152 152
-0.064759 -0.126540 0.851000 154 135 131
-0.062555 -0.126540 0.851000 152 116 108
-0.060350 -0.126540 0.851000 134 98 90
-0.058145 -0.126540 0.851000 131 79 70
-0.055940 -0.126540 0.851000 131 79 70
-0.053735 -0.126540 0.851000 139 81 69
-0.051530 -0.126540 0.851000 139 81 69
-0.049326 -0.126540 0.851000 129 79 72
-0.047121 -0.126540 0.851000 131 81 74
-0.044916 -0.126540 0.851000 129 108 107
-0.073579 -0.124332 0.851000 156 139 139
-0.071374 -0.124332 0.851000 152 120 116
-0.069169 -0.124332 0.851000 131 99 95
-0.066964 -0.124332 0.851000 132 82 75
-0.064759 -0.124332 0.851000 127 77 70
-0.062555 -0.124332 0.851000 139 79 66
-0.060350 -0.124332 0.851000 140 80 67
-0.058145 -0.124332 0.851000 140 82 68
-0.055940 -0.124332 0.851000 138 80 66
-0.053735 -0.124332 0.851000 133 79 69
-0.051530 -0.124332 0.851000 140 86 76
-0.049326 -0.124332 0.851000 142 105 100
-0.047176 -0.124478 0.852000 159 122 117
-0.080287 -0.122268 0.852000 158 130 129
-0.078080 -0.122268 0.852000 145 117 116
-0.075873 -0.122268 0.852000 140 94 90
-0.073579 -0.122124 0.851000 126 80 76
-0.071374 -0.122124 0.851000 134 77 68
-0.069169 -0.122124 0.851000 134 77 68
-0.066964 -0.122124 0.851000 139 79 66
-0.064759 -0.122124 0.851000 138 78 65
-0.062555 -0.122124 0.851000 138 78 65
-0.060350 -0.122124 0.851000 139 79 66
-0.058213 -0.122268 0.852000 138 86 75
-0.056006 -0.122268 0.852000 147 95 84
-0.053798 -0.122268 0.852000 154 116 109
-0.051591 -0.122268 0.852000 180 142 135
-0.086910 -0.120057 0.852000 150 127 124
-0.084702 -0.120057 0.852000 144 102 99
-0.082495 -0.120057 0.852000 131 89 86
-0.080287 -0.120057 0.852000 129 74 69
-0.078080 -0.120057 0.852000 126 71 66
-0.075873 -0.120057 0.852000 139 79 68
-0.073665 -0.120057 0.852000 138 78 67
-0.071458 -0.120057 0.852000 140 80 69
-0.069169 -0.119916 0.851000 139 79 68
-0.067043 -0.120057 0.852000 136 78 66
-0.064836 -0.120057 0.852000 143 85 73
-0.062628 -0.120057 0.852000 150 103 92
-0.060421 -0.120057 0.852000 168 121 110
-0.058213 -0.120057 0.852000 176 144 140
-0.095739 -0.117847 0.852000 150 134 129
-0.093532 -0.117847 0.852000 144 113 104
-0.091325 -0.117847 0.852000 128 97 88
-0.089117 -0.117847 0.852000 131 83 75
-0.086910 -0.117847 0.852000 128 80 72
-0.084702 -0.117847 0.852000 133 75 63
-0.082495 -0.117847 0.852000 136 78 66
-0.080287 -0.117847 0.852000 139 79 68
-0.078080 -0.117847 0.852000 135 75 64
-0.075873 -0.117847 0.852000 134 75 66
-0.073665 -0.117847 0.852000 136 77 68
-0.071458 -0.117847 0.852000 138 86 77
-0.069250 -0.117847 0.852000 153 101 92
-0.067043 -0.117847 0.852000 163 122 116
-0.064836 -0.117847 0.852000 179 138 132
-0.102482 -0.115772 0.853000 152 122 117
-0.100154 -0.115637 0.852000 137 107 102
-0.097947 -0.115637 0.852000 132 89 80
-0.095739 -0.115637 0.852000 126 83 74
-0.093532 -0.115637 0.852000 133 80 67
-0.091432 -0.115772 0.853000 133 80 67
-0.089117 -0.115637 0.852000 139 81 67
-0.086910 -0.115637 0.852000 138 80 66
-0.084702 -0.115637 0.852000 135 79 65
-0.082495 -0.115637 0.852000 135 79 65
-0.080287 -0.115637 0.852000 137 83 75
-0.078080 -0.115637 0.852000 146 92 84
-0.075873 -0.115637 0.852000 154 113 107
-0.073665 -0.115637 0.852000 174 133 127
-0.071458 -0.115637 0.852000 180 148 144
-0.111452 -0.113692 0.854000 157 132 125
-0.109240 -0.113692 0.854000 142 117 110
-0.107027 -0.113692 0.854000 138 97 89
-0.104815 -0.113692 0.854000 131 90 82
-0.102482 -0.113559 0.853000 134 80 70
-0.100272 -0.113559 0.853000 133 79 69
-0.098062 -0.113559 0.853000 141 83 69
-0.095852 -0.113559 0.853000 140 82 68
-0.093642 -0.113559 0.853000 141 83 69
-0.091432 -0.113559 0.853000 139 81 67
-0.089222 -0.113559 0.853000 133 80 67
-0.087012 -0.113559 0.853000 140 87 74
-0.084802 -0.113559 0.853000 147 104 95
-0.082592 -0.113559 0.853000 157 114 105
-0.080287 -0.113426 0.852000 169 137 133
-0.078080 -0.113426 0.852000 178 146 142
-0.116013 -0.111607 0.855000 148 117 108
-0.113665 -0.111477 0.854000 134 103 94
-0.111452 -0.111477 0.854000 134 85 73
-0.109240 -0.111477 0.854000 132 83 71
-0.107027 -0.111477 0.854000 140 82 68
-0.104815 -0.111477 0.854000 140 82 68
-0.102602 -0.111477 0.854000 141 83 69
-0.100272 -0.111346 0.853000 137 79 65
-0.098062 -0.111346 0.853000 134 78 64
-0.095852 -0.111346 0.853000 135 79 65
-0.093642 -0.111346 0.853000 137 90 79
-0.091432 -0.111346 0.853000 153 106 95
-0.089222 -0.111346 0.853000 163 127 119
-0.087012 -0.111346 0.853000 176 140 132
-0.125020 -0.109517 0.856000 152 127 120
-0.122802 -0.109517 0.856000 144 119 112
-0.120444 -0.109389 0.855000 142 99 90
-0.118229 -0.109389 0.855000 128 85 76
-0.116013 -0.109389 0.855000 134 81 68
-0.113665 -0.109261 0.854000 134 81 68
-0.111452 -0.109261 0.854000 144 84 71
-0.109240 -0.109261 0.854000 141 81 68
-0.107027 -0.109261 0.854000 139 81 67
-0.104815 -0.109261 0.854000 138 80 66
-0.102482 -0.109133 0.853000 135 84 70
-0.100389 -0.109261 0.854000 143 92 78
-0.098177 -0.109261 0.854000 154 111 102
-0.095852 -0.109133 0.853000 162 119 110
-0.093642 -0.109133 0.853000 172 140 136
-0.134048 -0.107422 0.857000 162 137 130
-0.131827 -0.107422 0.857000 150 125 118
-0.129607 -0.107422 0.857000 147 106 96
-0.127238 -0.107297 0.856000 137 96 86
-0.125020 -0.107297 0.856000 133 82 68
-0.122659 -0.107171 0.855000 132 81 67
-0.120444 -0.107171 0.855000 137 79 65
-0.118090 -0.107046 0.854000 139 81 67
-0.115878 -0.107046 0.854000 141 83 69
-0.113665 -0.107046 0.854000 140 82 68
-0.111322 -0.106921 0.853000 134 81 68
-0.109112 -0.106921 0.853000 141 88 75
-0.106902 -0.106921 0.853000 148 102 94
-0.104692 -0.106921 0.853000 162 116 108
-0.102482 -0.106921 0.853000 172 137 132
-0.100389 -0.107046 0.854000 177 142 137
-0.142929 -0.105199 0.857000 160 138 130
-0.140709 -0.105199 0.857000 149 127 119
-0.138488 -0.105199 0.857000 146 110 100
-0.136268 -0.105199 0.857000 137 101 91
-0.134048 -0.105199 0.857000 136 87 75
-0.131674 -0.105076 0.856000 131 82 70
-0.129456 -0.105076 0.856000 139 81 65
-0.127089 -0.104953 0.855000 138 80 64
-0.124874 -0.104953 0.855000 140 82 66
-0.122515 -0.104830 0.854000 141 83 67
-0.120303 -0.104830 0.854000 136 80 68
-0.118090 -0.104830 0.854000 136 80 68
-0.115742 -0.104708 0.853000 135 87 79
-0.113532 -0.104708 0.853000 150 102 94
-0.111191 -0.104585 0.852000 160 124 116
-0.108984 -0.104585 0.852000 171 135 127
-0.106902 -0.104708 0.853000 172 144 141
-0.149590 -0.102975 0.857000 148 123 114
-0.147370 -0.102975 0.857000 149 113 101
-0.145150 -0.102975 0.857000 134 98 86
-0.142929 -0.102975 0.857000 130 84 68
-0.140873 -0.103095 0.858000 128 82 66
-0.138488 -0.102975 0.857000 134 78 64
-0.136268 -0.102975 0.857000 136 80 66
-0.134048 -0.102975 0.857000 142 82 67
-0.131674 -0.102855 0.856000 141 81 66
-0.129456 -0.102855 0.856000 138 80 64
-0.127089 -0.102735 0.855000 138 80 64
-0.124874 -0.102735 0.855000 135 84 70
-0.122515 -0.102615 0.854000 140 89 75
-0.120303 -0.102615 0.854000 141 100 92
-0.117952 -0.102495 0.853000 160 119 111
-0.115742 -0.102495 0.853000 169 137 133
-0.158472 -0.100752 0.857000 145 118 110
-0.156252 -0.100752 0.857000 144 106 95
-0.154031 -0.100752 0.857000 135 97 86
-0.151811 -0.100752 0.857000 127 82 69
-0.149590 -0.100752 0.857000 122 77 64
-0.147370 -0.100752 0.857000 130 77 60
-0.145150 -0.100752 0.857000 135 82 65
-0.142929 -0.100752 0.857000 135 79 63
-0.140709 -0.100752 0.857000 135 79 63
-0.138488 -0.100752 0.857000 136 80 64
-0.136268 -0.100752 0.857000 135 79 63
-0.133891 -0.100634 0.856000 133 80 65
-0.131674 -0.100634 0.856000 137 84 69
-0.129456 -0.100634 0.856000 144 97 86
-0.127089 -0.100517 0.855000 158 111 100
-0.124874 -0.100517 0.855000 165 130 125
-0.122659 -0.100517 0.855000 175 140 135
-0.167744 -0.098759 0.859000 144 123 118
-0.165518 -0.098759 0.859000 147 109 102
-0.163103 -0.098644 0.858000 133 95 88
-0.160692 -0.098529 0.857000 131 79 68
-0.158472 -0.098529 0.857000 127 75 64
-0.156252 -0.098529 0.857000 132 74 60
-0.154031 -0.098529 0.857000 133 75 61
-0.151634 -0.098414 0.856000 132 76 62
-0.149416 -0.098414 0.856000 135 79 65
-0.147198 -0.098414 0.856000 129 76 59
-0.144980 -0.098414 0.856000 129 76 59
-0.142929 -0.098529 0.857000 126 78 61
-0.140709 -0.098529 0.857000 131 83 66
-0.138488 -0.098529 0.857000 142 97 86
-0.136109 -0.098414 0.856000 154 109 98
-0.133891 -0.098414 0.856000 158 122 114
-0.131674 -0.098414 0.856000 165 129 121
-0.174624 -0.096642 0.860000 145 113 107
-0.172195 -0.096530 0.859000 131 99 93
-0.169970 -0.096530 0.859000 133 87 79
-0.167549 -0.096418 0.858000 123 77 69
-0.165133 -0.096305 0.857000 130 74 62
-0.162723 -0.096193 0.856000 129 73 61
-0.160505 -0.096193 0.856000 135 75 62
-0.158287 -0.096193 0.856000 135 75 62
-0.155887 -0.096081 0.855000 132 74 60
-0.153672 -0.096081 0.855000 130 72 58
-0.151634 -0.096193 0.856000 128 77 61
-0.149416 -0.096193 0.856000 134 83 67
-0.147198 -0.096193 0.856000 138 98 85
-0.144980 -0.096193 0.856000 148 108 95
-0.142762 -0.096193 0.856000 154 120 110
-0.140545 -0.096193 0.856000 164 130 120
-0.183750 -0.094521 0.861000 152 123 113
-0.181519 -0.094521 0.861000 144 115 105
-0.179080 -0.094411 0.860000 143 100 91
-0.176852 -0.094411 0.860000 127 84 75
-0.174421 -0.094302 0.859000 129 76 63
-0.171995 -0.094192 0.858000 128 75 62
-0.169772 -0.094192 0.858000 133 75 61
-0.167353 -0.094082 0.857000 133 75 61
-0.164940 -0.093972 0.856000 133 75 61
-0.162532 -0.093862 0.855000 129 71 57
-0.160317 -0.093862 0.855000 126 73 60
-0.158102 -0.093862 0.855000 130 77 64
-0.155887 -0.093862 0.855000 134 89 78
-0.153672 -0.093862 0.855000 151 106 95
-0.151456 -0.093862 0.855000 158 127 116
-0.149416 -0.093972 0.856000 165 134 123
-0.192673 -0.092287 0.861000 151 124 116
-0.190442 -0.092287 0.861000 143 116 108
-0.188211 -0.092287 0.861000 140 102 91
-0.185980 -0.092287 0.861000 136 98 87
-0.183750 -0.092287 0.861000 135 84 70
-0.181308 -0.092180 0.860000 128 77 63
-0.179080 -0.092180 0.860000 131 75 61
-0.176646 -0.092073 0.859000 132 76 62
-0.174218 -0.091966 0.858000 135 79 63
-0.171794 -0.091859 0.857000 131 75 59
-0.169574 -0.091859 0.857000 128 72 58
-0.167158 -0.091752 0.856000 130 74 60
-0.164748 -0.091644 0.855000 131 84 73
-0.162532 -0.091644 0.855000 144 97 86
-0.160317 -0.091644 0.855000 154 116 109
-0.157917 -0.091537 0.854000 165 127 120
-0.155887 -0.091644 0.855000 165 138 132
-0.203826 -0.090054 0.861000 145 125 117
-0.201596 -0.090054 0.861000 150 121 111
-0.199365 -0.090054 0.861000 143 114 104
-0.197134 -0.090054 0.861000 138 98 85
-0.194903 -0.090054 0.861000 128 88 75
-0.192673 -0.090054 0.861000 129 81 66
-0.190442 -0.090054 0.861000 127 79 64
-0.188211 -0.090054 0.861000 130 74 58
-0.185980 -0.090054 0.861000 134 78 62
-0.183536 -0.089949 0.860000 137 79 63
-0.181308 -0.089949 0.860000 134 76 60
-0.178872 -0.089845 0.859000 131 75 61
-0.176646 -0.089845 0.859000 131 75 61
-0.174218 -0.089740 0.858000 132 83 71
-0.171794 -0.089635 0.857000 137 88 76
-0.169376 -0.089531 0.856000 142 101 91
-0.166963 -0.089426 0.855000 161 120 110
-0.164748 -0.089426 0.855000 164 134 129
-0.216959 -0.087718 0.860000 146 126 118
-0.214730 -0.087718 0.860000 145 121 109
-0.212749 -0.087820 0.861000 138 114 102
-0.210519 -0.087820 0.861000 135 101 91
-0.208288 -0.087820 0.861000 127 93 83
-0.206057 -0.087820 0.861000 125 83 71
-0.203826 -0.087820 0.861000 119 77 65
-0.201596 -0.087820 0.861000 124 72 61
-0.199365 -0.087820 0.861000 126 74 63
-0.197134 -0.087820 0.861000 132 76 62
-0.194903 -0.087820 0.861000 132 76 62
-0.192673 -0.087820 0.861000 132 76 62
-0.190442 -0.087820 0.861000 134 78 64
-0.188211 -0.087820 0.861000 134 78 64
-0.185980 -0.087820 0.861000 130 74 60
-0.183750 -0.087820 0.861000 126 78 63
-0.181308 -0.087718 0.860000 131 83 68
-0.178872 -0.087616 0.859000 138 97 87
-0.176646 -0.087616 0.859000 151 110 100
-0.174218 -0.087514 0.858000 161 129 123
-0.171794 -0.087412 0.857000 165 133 127
-0.230060 -0.085388 0.859000 139 119 111
-0.227834 -0.085388 0.859000 136 110 99
-0.225609 -0.085388 0.859000 130 104 93
-0.223643 -0.085487 0.860000 127 93 81
-0.221415 -0.085487 0.860000 120 86 74
-0.219187 -0.085487 0.860000 119 79 64
-0.217211 -0.085586 0.861000 119 79 64
-0.214980 -0.085586 0.861000 119 74 61
-0.212749 -0.085586 0.861000 120 75 62
-0.210519 -0.085586 0.861000 125 74 60
-0.208288 -0.085586 0.861000 124 73 59
-0.206057 -0.085586 0.861000 126 73 60
-0.203826 -0.085586 0.861000 126 73 60
-0.201596 -0.085586 0.861000 125 72 57
-0.199365 -0.085586 0.861000 127 74 59
-0.197134 -0.085586 0.861000 126 73 58
-0.194903 -0.085586 0.861000 127 74 59
-0.192673 -0.085586 0.861000 125 77 62
-0.190442 -0.085586 0.861000 133 85 70
-0.188211 -0.085586 0.861000 139 97 85
-0.185980 -0.085586 0.861000 147 105 93
-0.183750 -0.085586 0.861000 148 116 110
-0.181308 -0.085487 0.860000 156 124 118
-0.245639 -0.083159 0.859000 143 119 105
-0.243413 -0.083159 0.859000 138 114 100
-0.241187 -0.083159 0.859000 131 102 90
-0.238962 -0.083159 0.859000 126 97 85
-0.236736 -0.083159 0.859000 128 90 79
-0.234511 -0.083159 0.859000 118 80 69
-0.232285 -0.083159 0.859000 113 71 57
-0.230327 -0.083256 0.860000 112 70 56
-0.228099 -0.083256 0.860000 116 70 54
-0.225871 -0.083256 0.860000 115 69 53
-0.223643 -0.083256 0.860000 117 69 52
-0.221672 -0.083353 0.861000 122 74 57
-0.219442 -0.083353 0.861000 122 74 57
-0.217211 -0.083353 0.861000 120 72 55
-0.214980 -0.083353 0.861000 122 74 57
-0.212749 -0.083353 0.861000 122 74 57
-0.210519 -0.083353 0.861000 122 74 57
-0.208288 -0.083353 0.861000 120 72 55
-0.206057 -0.083353 0.861000 119 71 56
-0.203826 -0.083353 0.861000 125 77 62
-0.201596 -0.083353 0.861000 126 81 68
-0.199365 -0.083353 0.861000 135 90 77
-0.197134 -0.083353 0.861000 141 100 90
-0.194903 -0.083353 0.861000 151 110 100
-0.192673 -0.083353 0.861000 155 124 115
-0.190442 -0.083353 0.861000 159 128 119
-0.270120 -0.080931 0.859000 143 119 105
-0.267894 -0.080931 0.859000 140 111 99
-0.265669 -0.080931 0.859000 132 103 91
-0.263136 -0.080836 0.858000 128 97 84
-0.260913 -0.080836 0.858000 120 89 76
-0.258690 -0.080836 0.858000 122 86 74
-0.256766 -0.080931 0.859000 120 84 72
-0.254541 -0.080931 0.859000 121 79 67
-0.252315 -0.080931 0.859000 122 80 68
-0.250090 -0.080931 0.859000 124 80 64
-0.247864 -0.080931 0.859000 122 78 62
-0.245353 -0.080836 0.858000 120 76 58
-0.243413 -0.080931 0.859000 115 71 53
-0.241187 -0.080931 0.859000 122 74 57
-0.238962 -0.080931 0.859000 122 74 57
-0.236736 -0.080931 0.859000 121 70 54
-0.234511 -0.080931 0.859000 121 70 54
-0.232556 -0.081025 0.860000 121 70 54
-0.230327 -0.081025 0.860000 121 70 54
-0.228099 -0.081025 0.860000 120 72 55
-0.225871 -0.081025 0.860000 120 72 55
-0.223643 -0.081025 0.860000 115 69 51
-0.221672 -0.081119 0.861000 115 69 51
-0.219442 -0.081119 0.861000 115 71 55
-0.217211 -0.081119 0.861000 120 76 60
-0.214980 -0.081119 0.861000 120 78 64
-0.212749 -0.081119 0.861000 128 86 72
-0.210519 -0.081119 0.861000 136 99 85
-0.208288 -0.081119 0.861000 144 107 93
-0.206057 -0.081119 0.861000 148 117 106
-0.203826 -0.081119 0.861000 156 125 114
-0.286364 -0.078885 0.861000 137 112 103
-0.284133 -0.078885 0.861000 133 108 99
-0.281575 -0.078794 0.860000 126 95 82
-0.279347 -0.078794 0.860000 120 89 76
-0.276796 -0.078702 0.859000 121 81 66
-0.274890 -0.078794 0.860000 118 78 63
-0.272345 -0.078702 0.859000 119 75 57
-0.270434 -0.078794 0.860000 116 72 54
-0.268206 -0.078794 0.860000 122 74 57
-0.265669 -0.078702 0.859000 120 72 55
-0.263443 -0.078702 0.859000 120 72 55
-0.261217 -0.078702 0.859000 120 72 55
-0.259293 -0.078794 0.860000 120 72 57
-0.257065 -0.078794 0.860000 119 71 56
-0.254837 -0.078794 0.860000 118 70 55
-0.252609 -0.078794 0.860000 120 72 57
-0.250090 -0.078702 0.859000 123 75 58
-0.248153 -0.078794 0.860000 122 74 57
-0.245639 -0.078702 0.859000 117 69 52
-0.243413 -0.078702 0.859000 118 70 53
-0.241468 -0.078794 0.860000 118 70 53
-0.239240 -0.078794 0.860000 115 67 50
-0.237012 -0.078794 0.860000 115 69 51
-0.234784 -0.078794 0.860000 115 69 51
-0.232556 -0.078794 0.860000 114 70 54
-0.230327 -0.078794 0.860000 122 78 62
-0.228365 -0.078885 0.861000 126 86 71
-0.226134 -0.078885 0.861000 132 92 77
-0.223903 -0.078885 0.861000 137 102 87
-0.221672 -0.078885 0.861000 146 111 96
-0.219442 -0.078885 0.861000 147 116 105
-0.217211 -0.078885 0.861000 147 116 105
-0.215230 -0.078977 0.862000 149 123 112
-0.295630 -0.076741 0.862000 133 104 92
-0.293396 -0.076741 0.862000 125 96 84
-0.290825 -0.076652 0.861000 122 85 71
-0.288595 -0.076652 0.861000 116 79 65
-0.286364 -0.076652 0.861000 119 74 61
-0.284133 -0.076652 0.861000 116 71 58
-0.281902 -0.076652 0.861000 119 73 55
-0.279347 -0.076563 0.860000 121 75 57
-0.277119 -0.076563 0.860000 121 70 54
-0.274890 -0.076563 0.860000 124 73 57
-0.272345 -0.076474 0.859000 121 70 54
-0.270434 -0.076563 0.860000 118 67 51
-0.268206 -0.076563 0.860000 119 68 52
-0.265978 -0.076563 0.860000 119 68 52
-0.263750 -0.076563 0.860000 117 69 54
-0.261522 -0.076563 0.860000 115 67 52
-0.259293 -0.076563 0.860000 116 69 56
-0.257065 -0.076563 0.860000 116 69 56
-0.255133 -0.076652 0.861000 115 70 57
-0.252609 -0.076563 0.860000 115 70 57
-0.250381 -0.076563 0.860000 117 75 61
-0.248153 -0.076563 0.860000 119 77 63
-0.245925 -0.076563 0.860000 121 81 66
-0.243696 -0.076563 0.860000 123 83 68
-0.241468 -0.076563 0.860000 123 86 70
-0.239240 -0.076563 0.860000 131 94 78
-0.237288 -0.076652 0.861000 137 103 91
-0.235057 -0.076652 0.861000 139 105 93
-0.232826 -0.076652 0.861000 139 113 102
-0.230595 -0.076652 0.861000 144 118 107
-0.228365 -0.076652 0.861000 148 123 114
-0.302680 -0.074591 0.863000 126 104 94
-0.300445 -0.074591 0.863000 130 90 77
-0.298209 -0.074591 0.863000 119 79 66
-0.295630 -0.074504 0.862000 119 71 56
-0.293396 -0.074504 0.862000 118 70 55
-0.290825 -0.074418 0.861000 121 70 54
-0.288595 -0.074418 0.861000 121 70 54
-0.286364 -0.074418 0.861000 119 71 54
-0.284133 -0.074418 0.861000 118 70 53
-0.281902 -0.074418 0.861000 115 67 50
-0.279347 -0.074332 0.860000 115 67 50
-0.277119 -0.074332 0.860000 114 68 52
-0.274890 -0.074332 0.860000 114 68 52
-0.272662 -0.074332 0.860000 117 71 55
-0.270434 -0.074332 0.860000 126 80 64
-0.268206 -0.074332 0.860000 129 84 71
-0.265978 -0.074332 0.860000 130 85 72
-0.263750 -0.074332 0.860000 132 91 81
-0.261522 -0.074332 0.860000 140 99 89
-0.259595 -0.074418 0.861000 135 101 91
-0.257364 -0.074418 0.861000 140 106 96
-0.255133 -0.074418 0.861000 143 114 104
-0.252903 -0.074418 0.861000 143 114 104
-0.250672 -0.074418 0.861000 141 114 106
-0.248441 -0.074418 0.861000 145 118 110
-0.246210 -0.074418 0.861000 149 124 115
-0.243980 -0.074418 0.861000 148 123 114
-0.307152 -0.072352 0.863000 121 96 87
-0.304916 -0.072352 0.863000 124 79 66
-0.302680 -0.072352 0.863000 116 71 58
-0.300793 -0.072436 0.864000 120 69 51
-0.298209 -0.072352 0.863000 119 68 50
-0.295973 -0.072352 0.863000 114 63 45
-0.293396 -0.072268 0.862000 115 64 46
-0.291163 -0.072268 0.862000 115 69 51
-0.288595 -0.072184 0.861000 118 72 54
-0.286364 -0.072184 0.861000 123 79 63
-0.284133 -0.072184 0.861000 129 85 69
-0.281902 -0.072184 0.861000 131 94 80
-0.279672 -0.072184 0.861000 137 100 86
-0.277119 -0.072100 0.860000 134 103 92
-0.275210 -0.072184 0.861000 139 108 97
-0.272662 -0.072100 0.860000 146 115 106
-0.270749 -0.072184 0.861000 148 117 108
-0.268518 -0.072184 0.861000 146 120 109
-0.266287 -0.072184 0.861000 144 118 107
-0.311624 -0.070113 0.863000 119 99 91
-0.309388 -0.070113 0.863000 121 76 63
-0.307152 -0.070113 0.863000 117 72 59
-0.304916 -0.070113 0.863000 125 72 55
-0.303031 -0.070194 0.864000 123 70 53
-0.300793 -0.070194 0.864000 119 71 54
-0.298554 -0.070194 0.864000 125 77 60
-0.295973 -0.070113 0.863000 126 82 66
-0.293737 -0.070113 0.863000 136 92 76
-0.291163 -0.070032 0.862000 138 103 88
-0.288930 -0.070032 0.862000 148 113 98
-0.286364 -0.069951 0.861000 145 116 104
-0.284133 -0.069951 0.861000 144 115 103
-0.281902 -0.069951 0.861000 140 118 110
-0.313496 -0.067796 0.862000 122 87 72
-0.311263 -0.067796 0.862000 111 76 61
-0.309030 -0.067796 0.862000 122 71 57
-0.304916 -0.067874 0.863000 118 70 55
-0.302680 -0.067874 0.863000 125 77 62
-0.300445 -0.067874 0.863000 131 94 80
-0.298209 -0.067874 0.863000 152 115 101
-0.295973 -0.067874 0.863000 151 122 110
-0.293737 -0.067874 0.863000 152 123 111
-0.291501 -0.067874 0.863000 144 124 114
-0.315363 -0.065483 0.861000 110 84 71
-0.313133 -0.065483 0.861000 118 70 53
-0.310902 -0.065483 0.861000 120 72 55
-0.308671 -0.065483 0.861000 119 71 56
-0.306796 -0.065559 0.862000 131 83 68
-0.304563 -0.065559 0.862000 137 101 89
-0.302680 -0.065635 0.863000 157 121 109
-0.300445 -0.065635 0.863000 147 122 113
-0.298209 -0.065635 0.863000 149 124 115
-0.319825 -0.063250 0.861000 118 100 91
-0.317225 -0.063176 0.860000 121 77 61
-0.314997 -0.063176 0.860000 119 75 59
-0.312769 -0.063176 0.860000 127 76 60
-0.310902 -0.063250 0.861000 128 77 61
-0.308671 -0.063250 0.861000 146 105 95
-0.306441 -0.063250 0.861000 162 121 111
-0.304210 -0.063250 0.861000 149 127 119
-0.319454 -0.060945 0.860000 111 82 70
-0.317225 -0.060945 0.860000 125 72 57
-0.314997 -0.060945 0.860000 130 77 62
-0.312405 -0.060874 0.859000 139 93 77
-0.310180 -0.060874 0.859000 160 114 98
-0.308313 -0.060945 0.860000 152 122 115
-0.322056 -0.058782 0.861000 121 80 63
-0.319454 -0.058714 0.860000 117 76 59
-0.316856 -0.058646 0.859000 128 75 60
-0.314631 -0.058646 0.859000 140 87 72
-0.312405 -0.058646 0.859000 154 114 101
-0.310180 -0.058646 0.859000 163 123 110
-0.324286 -0.056548 0.861000 118 97 82
-0.321682 -0.056483 0.860000 126 76 55
-0.319454 -0.056483 0.860000 128 78 57
-0.316856 -0.056417 0.859000 138 90 73
-0.314631 -0.056417 0.859000 165 117 100
-0.312042 -0.056351 0.858000 153 124 114
-0.326517 -0.054315 0.861000 130 97 82
-0.324286 -0.054315 0.861000 113 80 65
-0.321682 -0.054252 0.860000 127 74 57
-0.319082 -0.054189 0.859000 143 90 73
-0.316856 -0.054189 0.859000 155 113 101
-0.314265 -0.054126 0.858000 166 124 112
-0.326517 -0.052081 0.861000 122 81 64
-0.324286 -0.052081 0.861000 121 80 63
-0.321308 -0.051960 0.859000 137 84 67
-0.319082 -0.051960 0.859000 158 105 88
-0.316488 -0.051900 0.858000 157 121 109
-0.329130 -0.049905 0.862000 122 102 92
-0.326517 -0.049847 0.861000 125 74 58
-0.324286 -0.049847 0.861000 128 77 61
-0.321308 -0.049732 0.859000 148 97 81
-0.319082 -0.049732 0.859000 166 115 99
-0.316488 -0.049674 0.858000 154 125 115
-0.329130 -0.047669 0.862000 104 78 65
-0.326517 -0.047614 0.861000 125 69 53
-0.324286 -0.047614 0.861000 141 85 69
-0.321682 -0.047558 0.860000 156 112 96
-0.319082 -0.047503 0.859000 169 125 109
-0.331747 -0.045485 0.863000 123 89 77
-0.329130 -0.045433 0.862000 113 79 67
-0.326896 -0.045433 0.862000 136 81 62
-0.324663 -0.045433 0.862000 152 97 78
-0.322056 -0.045380 0.861000 164 127 113
-0.319454 -0.045327 0.860000 166 129 115
-0.331747 -0.043247 0.863000 122 80 66
-0.329512 -0.043247 0.863000 115 73 59
-0.327276 -0.043247 0.863000 143 92 74
-0.325040 -0.043247 0.863000 160 109 91
-0.322430 -0.043196 0.862000 156 125 114
-0.332132 -0.041055 0.864000 123 75 58
-0.329893 -0.041055 0.864000 126 78 61
-0.327655 -0.041055 0.864000 150 99 83
-0.325416 -0.041055 0.864000 173 122 106
-0.323178 -0.041055 0.864000 152 127 118
-0.334757 -0.038859 0.865000 110 89 74
-0.332516 -0.038859 0.865000 123 70 55
-0.330657 -0.038904 0.866000 139 86 71
-0.328413 -0.038904 0.866000 154 108 92
-0.326170 -0.038904 0.866000 171 125 109
-0.334757 -0.036615 0.865000 108 80 63
-0.332901 -0.036657 0.866000 125 72 55
-0.330657 -0.036657 0.866000 142 89 72
-0.328413 -0.036657 0.866000 163 123 110
-0.326546 -0.036699 0.867000 163 123 110
-0.336999 -0.034371 0.865000 127 92 75
-0.335144 -0.034410 0.866000 102 67 50
-0.332901 -0.034410 0.866000 135 80 61
-0.331039 -0.034450 0.867000 159 104 85
-0.329172 -0.034490 0.868000 164 128 116
-0.337388 -0.032164 0.866000 119 78 61
-0.335144 -0.032164 0.866000 113 72 55
-0.333285 -0.032201 0.867000 146 90 74
-0.331421 -0.032238 0.868000 173 117 101
-0.329172 -0.032238 0.868000 161 130 119
-0.337388 -0.029917 0.866000 116 70 54
-0.335531 -0.029951 0.867000 124 78 62
-0.333670 -0.029986 0.868000 153 102 86
-0.331421 -0.029986 0.868000 175 124 108
-0.329551 -0.030021 0.869000 158 131 123
-0.339632 -0.027670 0.866000 111 92 79
-0.337778 -0.027702 0.867000 120 69 51
-0.335918 -0.027734 0.868000 132 81 63
-0.333670 -0.027734 0.868000 155 107 92
-0.331421 -0.027734 0.868000 174 126 111
-0.329551 -0.027766 0.869000 154 134 126
-0.340024 -0.025453 0.867000 110 84 71
-0.337778 -0.025453 0.867000 127 71 55
-0.335918 -0.025482 0.868000 149 93 77
-0.333670 -0.025482 0.868000 166 122 106
-0.331802 -0.025512 0.869000 171 127 111
-0.340024 -0.023204 0.867000 104 73 60
-0.338167 -0.023230 0.868000 133 75 59
-0.335918 -0.023230 0.868000 159 101 85
-0.333670 -0.023230 0.868000 166 126 113
-0.331802 -0.023257 0.869000 168 128 115
-0.342270 -0.020954 0.867000 123 86 70
-0.340416 -0.020979 0.868000 115 78 62
-0.338167 -0.020979 0.868000 138 82 66
-0.335918 -0.020979 0.868000 164 108 92
-0.334054 -0.021003 0.869000 173 135 124
-0.342270 -0.018705 0.867000 115 74 57
-0.340416 -0.018727 0.868000 111 70 53
-0.338167 -0.018727 0.868000 142 86 72
-0.335918 -0.018727 0.868000 176 120 106
-0.334054 -0.018748 0.869000 162 131 122
-0.342665 -0.016475 0.868000 116 70 52
-0.340416 -0.016475 0.868000 121 75 57
-0.338167 -0.016475 0.868000 153 100 85
-0.336305 -0.016494 0.869000 181 128 113
-0.334054 -0.016494 0.869000 160 133 127
-0.344914 -0.014223 0.868000 109 90 77
-0.342665 -0.014223 0.868000 114 63 47
-0.340416 -0.014223 0.868000 136 85 69
-0.338167 -0.014223 0.868000 160 108 97
-0.336305 -0.014239 0.869000 182 130 119
-0.344914 -0.011971 0.868000 101 77 61
-0.342665 -0.011971 0.868000 121 68 51
-0.340416 -0.011971 0.868000 144 91 74
-0.338557 -0.011985 0.869000 167 120 107
-0.336305 -0.011985 0.869000 179 132 119
-0.344914 -0.009719 0.868000 110 81 67
-0.342665 -0.009719 0.868000 131 76 57
-0.340416 -0.009719 0.868000 156 101 82
-0.338557 -0.009731 0.869000 177 135 123
-0.336305 -0.009731 0.869000 174 132 120
-0.347163 -0.007468 0.868000 122 87 72
-0.344914 -0.007468 0.868000 113 78 63
-0.342665 -0.007468 0.868000 147 89 73
-0.340808 -0.007476 0.869000 165 107 91
-0.338557 -0.007476 0.869000 177 139 128
-0.336305 -0.007476 0.869000 171 133 122
-0.347163 -0.005216 0.868000 122 80 66
-0.344914 -0.005216 0.868000 115 73 59
-0.342665 -0.005216 0.868000 149 93 79
-0.340808 -0.005222 0.869000 169 113 99
-0.338557 -0.005222 0.869000 169 135 127
-0.347163 -0.002964 0.868000 119 73 57
-0.344914 -0.002964 0.868000 122 76 60
-0.343060 -0.002967 0.869000 150 99 83
-0.340808 -0.002967 0.869000 180 129 113
-0.338557 -0.002967 0.869000 166 137 127
-0.347163 -0.000712 0.868000 125 74 58
-0.345311 -0.000713 0.869000 135 84 68
-0.343060 -0.000713 0.869000 161 110 96
-0.340808 -0.000713 0.869000 187 136 122
-0.338557 -0.000713 0.869000 162 140 130
-0.349814 0.001542 0.869000 106 84 74
-0.347563 0.001542 0.869000 122 66 54
-0.345311 0.001542 0.869000 153 97 85
-0.343060 0.001542 0.869000 171 122 110
-0.340808 0.001542 0.869000 187 138 126
-0.338557 0.001542 0.869000 159 140 134
-0.349814 0.003796 0.869000 108 82 69
-0.347563 0.003796 0.869000 125 69 55
-0.345311 0.003796 0.869000 156 100 86
-0.343060 0.003796 0.869000 173 131 119
-0.340808 0.003796 0.869000 176 134 122
-0.352066 0.006050 0.869000 125 92 77
-0.349814 0.006050 0.869000 102 69 54
-0.347563 0.006050 0.869000 144 86 70
-0.345311 0.006050 0.869000 171 113 97
-0.343060 0.006050 0.869000 173 135 124
-0.340808 0.006050 0.869000 172 134 123
-0.352066 0.008305 0.869000 121 79 65
-0.349814 0.008305 0.869000 113 71 57
-0.347563 0.008305 0.869000 151 93 79
-0.345311 0.008305 0.869000 185 127 113
-0.343060 0.008305 0.869000 172 141 130
-0.352066 0.010559 0.869000 125 79 63
-0.349814 0.010559 0.869000 125 79 63
-0.347563 0.010559 0.869000 152 96 82
-0.345311 0.010559 0.869000 187 131 117
-0.343060 0.010559 0.869000 167 140 132
-0.354317 0.012814 0.869000 112 93 80
-0.352066 0.012814 0.869000 127 71 57
-0.349814 0.012814 0.869000 144 88 74
-0.347563 0.012814 0.869000 156 105 91
-0.345311 0.012814 0.869000 189 138 124
-0.343060 0.012814 0.869000 161 141 133
-0.354317 0.015068 0.869000 106 82 68
-0.352066 0.015068 0.869000 125 67 51
-0.349814 0.015068 0.869000 157 99 83
-0.347563 0.015068 0.869000 164 119 106
-0.345311 0.015068 0.869000 184 139 126
-0.354317 0.017323 0.869000 99 70 56
-0.352066 0.017323 0.869000 134 74 59
-0.349814 0.017323 0.869000 165 105 90
-0.347563 0.017323 0.869000 174 133 123
-0.345311 0.017323 0.869000 179 138 128
-0.356569 0.019577 0.869000 123 88 73
-0.354317 0.019577 0.869000 109 74 59
-0.352066 0.019577 0.869000 141 83 67
-0.349814 0.019577 0.869000 166 108 92
-0.347163 0.019555 0.868000 179 143 135
-0.344914 0.019555 0.868000 174 138 130
-0.356569 0.021832 0.869000 118 79 61
-0.354317 0.021832 0.869000 114 75 57
-0.351661 0.021806 0.868000 151 95 79
-0.349412 0.021806 0.868000 179 123 107
-0.347163 0.021806 0.868000 174 143 134
-0.356569 0.024086 0.869000 119 73 55
-0.354317 0.024086 0.869000 125 79 61
-0.351661 0.024058 0.868000 160 102 86
-0.349412 0.024058 0.868000 188 130 114
-0.347163 0.024058 0.868000 166 139 131
-0.358820 0.026340 0.869000 112 95 81
-0.356158 0.026310 0.868000 118 67 51
-0.353909 0.026310 0.868000 133 82 66
-0.351661 0.026310 0.868000 165 112 97
-0.349412 0.026310 0.868000 189 136 121
-0.347163 0.026310 0.868000 161 141 133
-0.358820 0.028595 0.869000 105 84 69
-0.356158 0.028562 0.868000 122 69 52
-0.353909 0.028562 0.868000 147 94 77
-0.351661 0.028562 0.868000 179 131 116
-0.349412 0.028562 0.868000 182 134 119
-0.358820 0.030849 0.869000 103 75 58
-0.356158 0.030814 0.868000 132 75 56
-0.353909 0.030814 0.868000 157 100 81
-0.351661 0.030814 0.868000 185 140 129
-0.349412 0.030814 0.868000 183 138 127
-0.361072 0.033104 0.869000 125 92 75
-0.358820 0.033104 0.869000 109 76 59
-0.356158 0.033066 0.868000 142 83 65
-0.353909 0.033066 0.868000 162 103 85
-0.351661 0.033066 0.868000 183 145 134
-0.349412 0.033066 0.868000 177 139 128
-0.361072 0.035358 0.869000 119 79 64
-0.358820 0.035358 0.869000 107 67 52
-0.356569 0.035358 0.869000 152 94 78
-0.353909 0.035318 0.868000 176 118 102
-0.351661 0.035318 0.868000 186 150 140
-0.361072 0.037613 0.869000 115 71 55
-0.358820 0.037613 0.869000 117 73 57
-0.356569 0.037613 0.869000 157 104 89
-0.354317 0.037613 0.869000 188 135 120
-0.352066 0.037613 0.869000 175 143 137
-0.363323 0.039867 0.869000 115 102 89
-0.361072 0.039867 0.869000 113 65 48
-0.358820 0.039867 0.869000 131 83 66
-0.356569 0.039867 0.869000 163 110 95
-0.354317 0.039867 0.869000 190 137 122
-0.352066 0.039867 0.869000 173 146 140
-0.363323 0.042122 0.869000 111 94 80
-0.361072 0.042122 0.869000 125 72 55
-0.358820 0.042122 0.869000 136 83 66
-0.356569 0.042122 0.869000 175 124 110
-0.354317 0.042122 0.869000 189 138 124
-0.352066 0.042122 0.869000 172 147 140
-0.363741 0.044427 0.870000 104 83 68
-0.361487 0.044427 0.870000 127 69 53
-0.359233 0.044427 0.870000 152 94 78
-0.356979 0.044427 0.870000 183 135 120
-0.354317 0.044376 0.869000 188 140 125
-0.364159 0.046738 0.871000 104 78 65
-0.361903 0.046738 0.871000 130 72 56
-0.359646 0.046738 0.871000 160 102 86
-0.357389 0.046738 0.871000 187 142 129
-0.355133 0.046738 0.871000 186 141 128
-0.364159 0.048997 0.871000 103 78 69
-0.361903 0.048997 0.871000 129 80 68
-0.359646 0.048997 0.871000 157 108 96
-0.357389 0.048997 0.871000 181 145 135
-0.355133 0.048997 0.871000 180 144 134
-0.364159 0.051257 0.871000 100 86 78
-0.361903 0.051257 0.871000 125 93 87
-0.359646 0.051257 0.871000 155 123 117
-0.357389 0.051257 0.871000 166 145 140
