ply
format ascii 1.0
element vertex 1866
property float x
property float y
property float z
property uchar red
property uchar green
property uchar blue
end_header
-0.046035 -0.171717 0.532000 111 172 73
-0.044656 -0.171717 0.532000 110 171 81
-0.043195 -0.171394 0.531000 110 171 81
-0.041582 -0.170426 0.528000 111 167 95
-0.046035 -0.170336 0.532000 122 183 82
-0.044572 -0.170015 0.531000 117 182 84
-0.043195 -0.170015 0.531000 111 176 78
-0.041582 -0.169055 0.528000 106 172 81
-0.040060 -0.168414 0.526000 106 172 81
-0.038623 -0.168094 0.525000 112 169 94
-0.046035 -0.168954 0.532000 144 204 112
-0.044572 -0.168637 0.531000 131 196 98
-0.042951 -0.167684 0.528000 123 188 90
-0.041503 -0.167366 0.527000 115 182 84
-0.039984 -0.166731 0.525000 111 178 80
-0.038549 -0.166414 0.524000 108 173 79
-0.037190 -0.166414 0.524000 105 170 76
-0.035763 -0.166096 0.523000 108 166 95
-0.054654 -0.177653 0.564000 96 154 56
-0.052437 -0.175133 0.556000 50 96 27
-0.049344 -0.169463 0.538000 47 93 24
-0.046035 -0.167573 0.532000 108 151 94
-0.044572 -0.167258 0.531000 133 188 109
-0.042951 -0.166313 0.528000 146 201 122
-0.041424 -0.165683 0.526000 137 199 102
-0.039984 -0.165368 0.525000 128 190 93
-0.038549 -0.165053 0.524000 122 185 83
-0.037190 -0.165053 0.524000 120 183 81
-0.035763 -0.164738 0.523000 112 176 85
-0.034341 -0.164423 0.522000 103 167 76
-0.055623 -0.179312 0.574000 71 131 37
-0.053757 -0.178062 0.570000 48 90 36
-0.046035 -0.166192 0.532000 56 84 57
-0.044572 -0.165879 0.531000 56 93 52
-0.042869 -0.164630 0.527000 84 121 80
-0.041424 -0.164317 0.526000 134 186 111
-0.039984 -0.164005 0.525000 148 200 125
-0.038549 -0.163693 0.524000 141 202 103
-0.037190 -0.163693 0.524000 126 187 88
-0.035763 -0.163380 0.523000 120 186 85
-0.034276 -0.162755 0.521000 117 183 82
-0.032861 -0.162443 0.520000 113 176 92
-0.031453 -0.162131 0.519000 111 174 90
-0.030049 -0.161818 0.518000 100 157 95
-0.042869 -0.163261 0.527000 63 85 65
-0.041345 -0.162642 0.525000 60 98 52
-0.039908 -0.162332 0.524000 109 147 101
-0.038549 -0.162332 0.524000 143 196 116
-0.037119 -0.162022 0.523000 145 198 118
-0.035695 -0.161712 0.522000 132 194 97
-0.034276 -0.161403 0.521000 130 192 95
-0.032861 -0.161093 0.520000 119 186 92
-0.031453 -0.160783 0.519000 122 189 95
-0.029991 -0.160163 0.517000 126 187 113
-0.039908 -0.160971 0.524000 58 80 60
-0.038476 -0.160664 0.523000 67 106 55
-0.037119 -0.160664 0.523000 128 167 116
-0.035695 -0.160357 0.522000 145 201 113
-0.034210 -0.159743 0.520000 142 198 110
-0.032861 -0.159743 0.520000 131 196 100
-0.031453 -0.159435 0.519000 130 195 99
-0.029991 -0.158821 0.517000 126 190 101
-0.028650 -0.158821 0.517000 124 188 99
-0.027310 -0.158821 0.517000 119 182 112
-0.063400 -0.180019 0.591000 130 159 116
-0.061868 -0.180019 0.591000 154 212 114
-0.060335 -0.180019 0.591000 171 229 131
-0.058703 -0.179715 0.590000 165 233 130
-0.037049 -0.159002 0.522000 58 84 60
-0.035627 -0.158697 0.521000 91 135 69
-0.034210 -0.158393 0.520000 139 183 117
-0.032798 -0.158088 0.519000 148 208 116
-0.031331 -0.157479 0.517000 137 197 105
-0.029991 -0.157479 0.517000 131 197 96
-0.028650 -0.157479 0.517000 128 194 93
-0.027310 -0.157479 0.517000 123 190 103
-0.025919 -0.157174 0.516000 123 190 103
-0.063722 -0.179391 0.594000 106 136 97
-0.062077 -0.179089 0.593000 157 217 123
-0.060539 -0.179089 0.593000 166 226 132
-0.059002 -0.179089 0.593000 167 238 131
-0.035558 -0.157042 0.520000 61 85 55
-0.034144 -0.156740 0.519000 68 92 62
-0.032672 -0.156136 0.517000 112 157 86
-0.031331 -0.156136 0.517000 151 196 125
-0.029991 -0.156136 0.517000 147 207 111
-0.028650 -0.156136 0.517000 137 197 101
-0.027310 -0.156136 0.517000 129 198 101
-0.025919 -0.155834 0.516000 129 198 101
-0.024581 -0.155834 0.516000 123 193 107
-0.023198 -0.155532 0.515000 116 186 100
-0.064366 -0.179645 0.600000 84 113 83
-0.062705 -0.179346 0.599000 162 221 132
-0.061152 -0.179346 0.599000 168 227 138
-0.059599 -0.179346 0.599000 163 234 125
-0.058045 -0.179346 0.599000 159 230 121
-0.032672 -0.154794 0.517000 58 88 51
-0.031331 -0.154794 0.517000 89 119 82
-0.029991 -0.154794 0.517000 139 189 110
-0.028650 -0.154794 0.517000 157 207 128
-0.027257 -0.154495 0.516000 139 204 106
-0.025919 -0.154495 0.516000 138 203 105
-0.024533 -0.154195 0.515000 134 206 108
-0.023198 -0.154195 0.515000 129 201 103
-0.021862 -0.154195 0.515000 126 195 114
-0.020487 -0.153896 0.514000 106 175 94
-0.064580 -0.178681 0.602000 47 73 49
-0.062914 -0.178384 0.601000 150 203 121
-0.061356 -0.178384 0.601000 172 225 143
-0.059798 -0.178384 0.601000 162 234 120
-0.058239 -0.178384 0.601000 170 242 128
-0.029991 -0.153452 0.517000 69 107 59
-0.028595 -0.153155 0.516000 119 157 109
-0.027257 -0.153155 0.516000 149 210 122
-0.025919 -0.153155 0.516000 149 210 122
-0.024533 -0.152858 0.515000 136 205 106
-0.023198 -0.152858 0.515000 132 201 102
-0.021820 -0.152561 0.514000 126 199 107
-0.020487 -0.152561 0.514000 124 197 105
-0.019117 -0.152264 0.513000 113 176 102
-0.063124 -0.177412 0.603000 118 168 89
-0.061560 -0.177412 0.603000 173 223 144
-0.059997 -0.177412 0.603000 164 236 120
-0.058433 -0.177412 0.603000 171 243 127
-0.028595 -0.151815 0.516000 62 86 58
-0.027204 -0.151521 0.515000 90 141 75
-0.025869 -0.151521 0.515000 150 201 135
-0.024533 -0.151521 0.515000 144 211 117
-0.023153 -0.151227 0.514000 140 207 113
-0.021820 -0.151227 0.514000 133 205 107
-0.020487 -0.151227 0.514000 130 202 104
-0.019117 -0.150933 0.513000 125 195 107
-0.017787 -0.150933 0.513000 119 189 101
-0.063752 -0.177596 0.609000 67 111 45
-0.061969 -0.177013 0.607000 174 218 152
-0.060295 -0.176721 0.606000 174 246 132
-0.058724 -0.176721 0.606000 173 245 131
-0.027204 -0.150184 0.515000 59 89 52
-0.025869 -0.150184 0.515000 84 114 77
-0.024533 -0.150184 0.515000 138 196 116
-0.023153 -0.149892 0.514000 159 217 137
-0.021820 -0.149892 0.514000 143 212 115
-0.020447 -0.149601 0.513000 141 210 113
-0.019117 -0.149601 0.513000 136 210 111
-0.017752 -0.149309 0.512000 132 206 107
-0.016457 -0.149601 0.513000 132 198 118
-0.015097 -0.149309 0.512000 117 183 103
-0.063961 -0.176593 0.611000 55 93 38
-0.062275 -0.176304 0.610000 166 204 149
-0.060693 -0.176304 0.610000 173 242 134
-0.059111 -0.176304 0.610000 168 237 129
-0.057530 -0.176304 0.610000 170 237 141
-0.024533 -0.148847 0.515000 69 108 55
-0.023153 -0.148558 0.514000 126 165 112
-0.021820 -0.148558 0.514000 154 219 125
-0.020447 -0.148269 0.513000 146 211 117
-0.019117 -0.148269 0.513000 137 210 107
-0.017752 -0.147980 0.512000 136 209 106
-0.016425 -0.147980 0.512000 136 210 113
-0.015097 -0.147980 0.512000 134 208 111
-0.013769 -0.147980 0.512000 122 180 111
-0.012442 -0.147980 0.512000 82 140 71
-0.062581 -0.175579 0.613000 130 161 119
-0.060793 -0.175006 0.611000 182 245 143
-0.059208 -0.175006 0.611000 169 232 130
-0.057718 -0.175293 0.612000 175 243 142
-0.023153 -0.147223 0.514000 65 91 65
-0.021778 -0.146937 0.513000 94 147 78
-0.020447 -0.146937 0.513000 150 203 134
-0.019117 -0.146937 0.513000 146 216 112
-0.017752 -0.146650 0.512000 142 212 108
-0.016425 -0.146650 0.512000 135 210 104
-0.015097 -0.146650 0.512000 133 208 102
-0.013769 -0.146650 0.512000 138 205 118
-0.012442 -0.146650 0.512000 123 190 103
-0.011114 -0.146650 0.512000 90 141 86
-0.009787 -0.146650 0.512000 55 106 51
-0.063194 -0.175691 0.619000 89 113 81
-0.061290 -0.174839 0.616000 171 231 137
-0.059596 -0.174555 0.615000 182 242 148
-0.058001 -0.174555 0.615000 179 248 142
-0.056498 -0.174839 0.616000 151 220 114
-0.021778 -0.145605 0.513000 42 77 37
-0.020407 -0.145321 0.512000 81 116 76
-0.019080 -0.145321 0.512000 141 204 118
-0.017752 -0.145321 0.512000 153 216 130
-0.016425 -0.145321 0.512000 142 213 106
-0.015097 -0.145321 0.512000 138 209 102
-0.013743 -0.145037 0.511000 137 207 103
-0.012417 -0.145037 0.511000 143 213 109
-0.011092 -0.145037 0.511000 131 195 116
-0.009767 -0.145037 0.511000 95 159 80
-0.063398 -0.174646 0.621000 62 82 63
-0.061589 -0.174083 0.619000 157 210 130
-0.059984 -0.174083 0.619000 192 245 165
-0.058379 -0.174083 0.619000 184 253 147
-0.056957 -0.174646 0.621000 175 244 138
-0.019080 -0.143991 0.512000 65 107 53
-0.017752 -0.143991 0.512000 128 170 116
-0.016425 -0.143991 0.512000 157 219 124
-0.015068 -0.143710 0.511000 151 213 118
-0.013743 -0.143710 0.511000 139 211 97
-0.012417 -0.143710 0.511000 141 213 99
-0.011092 -0.143710 0.511000 141 210 111
-0.009767 -0.143710 0.511000 137 206 107
-0.008442 -0.143710 0.511000 113 170 104
-0.007117 -0.143710 0.511000 62 119 53
-0.061788 -0.173034 0.621000 118 165 93
-0.060177 -0.173034 0.621000 193 240 168
-0.058567 -0.173034 0.621000 192 255 155
-0.057049 -0.173312 0.622000 186 255 149
-0.055703 -0.174148 0.625000 115 173 102
-0.016425 -0.142662 0.512000 109 158 86
-0.015068 -0.142383 0.511000 161 210 138
-0.013743 -0.142383 0.511000 150 219 113
-0.012417 -0.142383 0.511000 144 213 107
-0.011092 -0.142383 0.511000 141 212 101
-0.009767 -0.142383 0.511000 142 213 102
-0.008442 -0.142383 0.511000 137 205 115
-0.007117 -0.142383 0.511000 120 188 98
-0.005792 -0.142383 0.511000 68 118 66
-0.062783 -0.174182 0.631000 92 136 70
-0.060856 -0.173353 0.628000 187 231 165
-0.059227 -0.173353 0.628000 193 255 158
-0.056149 -0.173906 0.630000 150 215 133
-0.054602 -0.174182 0.631000 33 98 16
-0.015097 -0.141333 0.512000 96 127 85
-0.013769 -0.141333 0.512000 154 214 122
-0.012442 -0.141333 0.512000 155 215 123
-0.011092 -0.141057 0.511000 146 216 103
-0.009767 -0.141057 0.511000 143 213 100
-0.008442 -0.141057 0.511000 141 212 105
-0.007117 -0.141057 0.511000 141 212 105
-0.005792 -0.141057 0.511000 124 186 109
-0.004467 -0.141057 0.511000 80 142 65
-0.061146 -0.172543 0.631000 168 206 158
-0.059510 -0.172543 0.631000 192 255 164
-0.057874 -0.172543 0.631000 193 255 165
-0.056238 -0.172543 0.631000 172 239 152
-0.054775 -0.173090 0.633000 68 135 48
-0.015097 -0.140003 0.512000 67 87 68
-0.013743 -0.139730 0.511000 80 124 60
-0.012442 -0.140003 0.512000 148 192 128
-0.011114 -0.140003 0.512000 161 225 118
-0.009767 -0.139730 0.511000 150 214 107
-0.008442 -0.139730 0.511000 141 213 99
-0.007117 -0.139730 0.511000 144 216 102
-0.005792 -0.139730 0.511000 141 210 111
-0.004467 -0.139730 0.511000 127 196 97
-0.003142 -0.139730 0.511000 93 145 83
-0.061340 -0.171447 0.633000 118 149 115
-0.059605 -0.171176 0.632000 188 252 161
-0.057966 -0.171176 0.632000 198 255 171
-0.056416 -0.171447 0.633000 187 255 163
-0.054861 -0.171717 0.634000 122 190 98
-0.053469 -0.172530 0.637000 41 83 42
-0.013769 -0.138674 0.512000 63 92 58
-0.012442 -0.138674 0.512000 71 100 66
-0.011114 -0.138674 0.512000 130 183 101
-0.009787 -0.138674 0.512000 165 218 136
-0.008442 -0.138403 0.511000 156 224 109
-0.007117 -0.138403 0.511000 146 214 99
-0.005792 -0.138403 0.511000 135 210 95
-0.004467 -0.138403 0.511000 139 214 99
-0.003142 -0.138403 0.511000 131 196 110
-0.001817 -0.138403 0.511000 103 168 82
-0.061534 -0.170340 0.635000 71 98 67
-0.059793 -0.170071 0.634000 174 229 146
-0.058149 -0.170071 0.634000 202 255 174
-0.056505 -0.170071 0.634000 192 255 164
-0.055121 -0.170876 0.637000 158 227 130
-0.053637 -0.171413 0.639000 54 99 49
-0.011114 -0.137345 0.512000 62 101 50
-0.009787 -0.137345 0.512000 117 156 105
-0.008459 -0.137345 0.512000 157 220 118
-0.007117 -0.137076 0.511000 157 220 118
-0.005792 -0.137076 0.511000 143 215 99
-0.004467 -0.137076 0.511000 139 211 95
-0.003142 -0.137076 0.511000 142 215 112
-0.001817 -0.137076 0.511000 133 206 103
-0.000492 -0.137076 0.511000 116 177 103
-0.061922 -0.169753 0.639000 59 82 59
-0.060076 -0.169222 0.637000 143 195 122
-0.058424 -0.169222 0.637000 203 255 182
-0.056773 -0.169222 0.637000 195 255 165
-0.055294 -0.169753 0.639000 178 247 148
-0.053721 -0.170019 0.640000 104 156 94
-0.009787 -0.136015 0.512000 60 84 56
-0.008459 -0.136015 0.512000 97 148 78
-0.007131 -0.136015 0.512000 161 212 142
-0.005792 -0.135750 0.511000 160 229 121
-0.004476 -0.136015 0.512000 153 222 114
-0.003149 -0.136015 0.512000 140 214 104
-0.001817 -0.135750 0.511000 139 213 103
-0.000492 -0.135750 0.511000 136 208 112
0.000833 -0.135750 0.511000 122 194 98
0.002158 -0.135750 0.511000 81 133 73
-0.060359 -0.168357 0.640000 84 131 69
-0.058608 -0.168094 0.639000 191 238 176
-0.056951 -0.168094 0.639000 197 255 168
-0.055381 -0.168357 0.640000 190 255 161
-0.053889 -0.168884 0.642000 141 199 126
-0.052306 -0.169147 0.643000 37 95 22
-0.008459 -0.134686 0.512000 55 88 42
-0.007131 -0.134686 0.512000 87 120 74
-0.005804 -0.134686 0.512000 152 212 120
-0.004476 -0.134686 0.512000 171 231 139
-0.003149 -0.134686 0.512000 148 222 110
-0.001817 -0.134423 0.511000 142 216 104
-0.000493 -0.134686 0.512000 135 211 100
0.000833 -0.134423 0.511000 135 211 100
0.002158 -0.134423 0.511000 125 190 106
0.003483 -0.134423 0.511000 80 145 61
-0.060548 -0.167217 0.642000 51 93 41
-0.058791 -0.166956 0.641000 166 208 156
-0.057129 -0.166956 0.641000 198 255 168
-0.055467 -0.166956 0.641000 191 255 161
-0.053889 -0.167217 0.642000 176 239 155
-0.052306 -0.167477 0.643000 63 126 42
-0.007131 -0.133357 0.512000 63 81 58
-0.005804 -0.133357 0.512000 73 117 53
-0.004476 -0.133357 0.512000 150 194 130
-0.003149 -0.133357 0.512000 160 229 121
-0.001821 -0.133357 0.512000 158 227 119
-0.000493 -0.133357 0.512000 147 222 105
0.000834 -0.133357 0.512000 137 212 95
0.002158 -0.133096 0.511000 141 212 105
0.003490 -0.133357 0.512000 135 206 99
0.004817 -0.133357 0.512000 98 149 81
-0.058883 -0.165550 0.642000 109 144 106
-0.057218 -0.165550 0.642000 190 255 163
-0.055554 -0.165550 0.642000 194 255 167
-0.053973 -0.165808 0.643000 183 251 159
-0.052306 -0.165808 0.643000 116 184 92
-0.050796 -0.166323 0.645000 41 81 39
-0.005804 -0.132027 0.512000 61 89 53
-0.004476 -0.132027 0.512000 67 95 59
-0.003149 -0.132027 0.512000 136 192 104
-0.001821 -0.132027 0.512000 173 229 141
-0.000493 -0.132027 0.512000 163 233 118
0.000834 -0.132027 0.512000 151 221 106
0.002162 -0.132027 0.512000 143 215 99
0.003490 -0.132027 0.512000 139 211 95
0.004817 -0.132027 0.512000 141 205 114
0.006145 -0.132027 0.512000 101 165 74
-0.058975 -0.164138 0.643000 71 99 72
-0.057307 -0.164138 0.643000 176 237 149
-0.055640 -0.164138 0.643000 199 255 172
-0.053973 -0.164138 0.643000 187 255 159
-0.052387 -0.164393 0.644000 157 226 129
-0.050796 -0.164649 0.645000 41 89 38
-0.003149 -0.130698 0.512000 59 102 45
-0.001824 -0.130953 0.513000 134 177 120
-0.000493 -0.130698 0.512000 168 232 125
0.000834 -0.130698 0.512000 171 235 128
0.002162 -0.130698 0.512000 154 225 107
0.003490 -0.130698 0.512000 146 217 99
0.004817 -0.130698 0.512000 149 218 112
0.006145 -0.130698 0.512000 140 209 103
0.007487 -0.130953 0.513000 109 162 91
-0.059066 -0.162721 0.644000 49 70 48
-0.057397 -0.162721 0.644000 144 198 122
-0.055727 -0.162721 0.644000 197 251 175
-0.054057 -0.162721 0.644000 185 255 153
-0.052387 -0.162721 0.644000 176 246 144
-0.050875 -0.163227 0.646000 71 126 61
-0.001824 -0.129621 0.513000 63 87 55
-0.000494 -0.129621 0.513000 114 163 89
0.000836 -0.129621 0.513000 168 217 143
0.002166 -0.129621 0.513000 172 240 127
0.003496 -0.129621 0.513000 158 226 113
0.004827 -0.129621 0.513000 144 216 102
0.006157 -0.129621 0.513000 144 216 102
0.007487 -0.129621 0.513000 136 205 110
0.008817 -0.129621 0.513000 100 169 74
-0.057486 -0.161299 0.645000 84 132 67
-0.055727 -0.161049 0.644000 192 240 175
-0.054141 -0.161299 0.645000 179 249 147
-0.052468 -0.161299 0.645000 181 251 149
-0.050953 -0.161799 0.647000 118 182 103
-0.000494 -0.128289 0.513000 56 89 45
0.000836 -0.128289 0.513000 107 140 96
0.002166 -0.128289 0.513000 158 218 126
0.003496 -0.128289 0.513000 176 236 144
0.004836 -0.128539 0.514000 157 227 114
0.006169 -0.128539 0.514000 150 220 107
0.007487 -0.128289 0.513000 147 221 111
0.008834 -0.128539 0.514000 140 214 104
0.010167 -0.128539 0.514000 115 175 92
-0.057575 -0.159872 0.646000 52 94 40
-0.055900 -0.159872 0.646000 167 209 155
-0.054225 -0.159872 0.646000 180 249 152
-0.052631 -0.160120 0.647000 179 248 151
-0.049428 -0.160615 0.649000 39 104 18
0.000838 -0.127205 0.514000 64 82 59
0.002170 -0.127205 0.514000 88 132 68
0.003503 -0.127205 0.514000 160 204 140
0.004836 -0.127205 0.514000 172 239 133
0.006169 -0.127205 0.514000 165 232 126
0.007502 -0.127205 0.514000 146 221 106
0.008834 -0.127205 0.514000 151 226 111
0.010167 -0.127205 0.514000 145 213 112
0.011522 -0.127452 0.515000 111 179 78
-0.056159 -0.158929 0.649000 138 176 130
-0.054393 -0.158685 0.648000 180 249 154
-0.052712 -0.158685 0.648000 172 241 146
-0.051111 -0.158929 0.649000 172 241 144
-0.049504 -0.159174 0.650000 92 161 64
-0.047892 -0.159419 0.651000 33 75 34
0.002170 -0.125870 0.514000 59 87 51
0.003510 -0.126115 0.515000 89 117 81
0.004836 -0.125870 0.514000 150 206 118
0.006181 -0.126115 0.515000 182 238 150
0.007516 -0.126115 0.515000 166 236 123
0.008852 -0.126115 0.515000 156 226 113
0.010187 -0.126115 0.515000 148 220 106
0.011522 -0.126115 0.515000 146 218 104
0.012883 -0.126360 0.516000 123 183 98
0.014221 -0.126360 0.516000 77 137 52
-0.056332 -0.157729 0.651000 81 110 78
-0.054560 -0.157487 0.650000 171 237 146
-0.052875 -0.157487 0.650000 174 240 149
-0.051190 -0.157487 0.650000 177 250 147
-0.049580 -0.157729 0.651000 132 205 102
-0.047966 -0.157971 0.652000 32 82 32
0.003510 -0.124778 0.515000 66 83 67
0.004845 -0.124778 0.515000 72 114 60
0.006181 -0.124778 0.515000 152 194 140
0.007516 -0.124778 0.515000 179 246 138
0.008852 -0.124778 0.515000 172 239 131
0.010187 -0.124778 0.515000 160 232 116
0.011545 -0.125020 0.516000 157 229 113
0.012883 -0.125020 0.516000 142 212 108
0.014221 -0.125020 0.516000 125 195 91
0.015589 -0.125262 0.517000 90 140 81
-0.056505 -0.156518 0.653000 54 77 54
-0.054728 -0.156278 0.652000 135 190 107
-0.053038 -0.156278 0.652000 187 242 159
-0.051347 -0.156278 0.652000 172 246 138
-0.049656 -0.156278 0.652000 167 241 133
-0.048039 -0.156518 0.653000 68 125 63
0.006181 -0.123441 0.515000 71 97 71
0.007516 -0.123441 0.515000 136 194 110
0.008869 -0.123680 0.516000 183 241 157
0.010207 -0.123680 0.516000 172 243 125
0.011545 -0.123680 0.516000 166 237 119
0.012883 -0.123680 0.516000 156 228 114
0.014248 -0.123920 0.517000 146 218 104
0.015589 -0.123920 0.517000 140 200 115
0.016929 -0.123920 0.517000 97 157 72
-0.054812 -0.154823 0.653000 93 140 66
-0.053119 -0.154823 0.653000 193 240 166
-0.051426 -0.154823 0.653000 169 240 133
-0.049733 -0.154823 0.653000 174 245 138
-0.048039 -0.154823 0.653000 121 182 108
-0.046417 -0.155060 0.654000 25 86 12
0.007531 -0.122341 0.516000 62 106 51
0.008869 -0.122341 0.516000 138 182 127
0.010207 -0.122341 0.516000 183 247 140
0.011545 -0.122341 0.516000 182 246 139
0.012908 -0.122578 0.517000 167 238 120
0.014248 -0.122578 0.517000 158 229 111
0.015589 -0.122578 0.517000 151 219 118
0.016929 -0.122578 0.517000 138 206 105
0.018270 -0.122578 0.517000 94 144 81
-0.054896 -0.153362 0.654000 62 101 39
-0.053200 -0.153362 0.654000 177 216 154
-0.051426 -0.153127 0.653000 170 241 134
-0.049733 -0.153127 0.653000 173 244 137
-0.048113 -0.153362 0.654000 154 220 129
-0.046417 -0.153362 0.654000 43 109 18
0.008886 -0.121235 0.517000 64 91 60
0.010226 -0.121235 0.517000 127 186 99
0.011567 -0.121235 0.517000 182 241 154
0.012908 -0.121235 0.517000 183 251 138
0.014248 -0.121235 0.517000 173 241 128
0.015589 -0.121235 0.517000 165 234 126
0.016929 -0.121235 0.517000 158 227 119
0.018270 -0.121235 0.517000 147 207 122
0.019610 -0.121235 0.517000 96 156 71
-0.054896 -0.151664 0.654000 48 79 33
-0.053200 -0.151664 0.654000 138 169 123
-0.051505 -0.151664 0.654000 179 247 146
-0.049809 -0.151664 0.654000 170 238 137
-0.048113 -0.151664 0.654000 169 238 139
-0.046417 -0.151664 0.654000 80 149 50
-0.044790 -0.151896 0.655000 38 74 38
0.010226 -0.119893 0.517000 55 95 39
0.011567 -0.119893 0.517000 129 169 113
0.012908 -0.119893 0.517000 177 240 138
0.014248 -0.119893 0.517000 186 249 147
0.015589 -0.119893 0.517000 171 242 133
0.016929 -0.119893 0.517000 165 236 127
0.018270 -0.119893 0.517000 161 228 130
0.019610 -0.119893 0.517000 146 213 115
0.020992 -0.120125 0.518000 108 159 91
-0.053282 -0.150195 0.655000 69 97 59
-0.051505 -0.149966 0.654000 171 231 135
-0.049809 -0.149966 0.654000 177 237 141
-0.048186 -0.150195 0.655000 171 242 135
-0.046488 -0.150195 0.655000 134 205 98
-0.044790 -0.150195 0.655000 38 79 30
0.011567 -0.118551 0.517000 53 77 49
0.012908 -0.118551 0.517000 108 160 87
0.014248 -0.118551 0.517000 175 227 154
0.015589 -0.118551 0.517000 185 254 148
0.016929 -0.118551 0.517000 180 249 143
0.018305 -0.118780 0.518000 165 236 127
0.019648 -0.118780 0.518000 164 235 126
0.020992 -0.118780 0.518000 157 218 128
-0.053363 -0.148721 0.656000 49 71 44
-0.051583 -0.148494 0.655000 138 192 107
-0.049885 -0.148494 0.655000 183 237 152
-0.048186 -0.148494 0.655000 170 241 130
-0.046559 -0.148721 0.656000 160 231 120
-0.044926 -0.148948 0.657000 56 104 39
0.012933 -0.117435 0.518000 48 84 41
0.014276 -0.117435 0.518000 105 141 98
0.015619 -0.117435 0.518000 170 232 135
0.016962 -0.117435 0.518000 190 252 155
0.018305 -0.117435 0.518000 175 245 130
0.019648 -0.117435 0.518000 170 240 125
0.020992 -0.117435 0.518000 168 237 129
0.022378 -0.117662 0.519000 151 220 112
-0.051741 -0.147242 0.657000 107 153 84
-0.049961 -0.147018 0.656000 187 233 164
-0.048334 -0.147242 0.657000 173 240 132
-0.046630 -0.147242 0.657000 169 236 128
-0.044926 -0.147242 0.657000 111 163 88
-0.043289 -0.147466 0.658000 29 81 6
0.014276 -0.116090 0.518000 55 75 56
0.015619 -0.116090 0.518000 84 135 67
0.016962 -0.116090 0.518000 165 216 148
0.018305 -0.116090 0.518000 187 255 140
0.019686 -0.116314 0.519000 184 252 137
0.021032 -0.116314 0.519000 172 243 125
0.022378 -0.116314 0.519000 167 238 120
0.023769 -0.116538 0.520000 153 218 120
-0.051820 -0.145757 0.658000 57 95 38
-0.050113 -0.145757 0.658000 181 219 162
-0.048407 -0.145757 0.658000 178 242 135
-0.046701 -0.145757 0.658000 176 240 133
-0.045063 -0.145979 0.659000 142 197 114
-0.043420 -0.146201 0.660000 31 86 3
0.015619 -0.114745 0.518000 47 80 38
0.016995 -0.114967 0.519000 91 124 82
0.018341 -0.114967 0.519000 160 222 125
0.019686 -0.114967 0.519000 191 253 156
0.021032 -0.114967 0.519000 178 249 131
0.022421 -0.115188 0.520000 171 242 124
0.023769 -0.115188 0.520000 174 244 131
0.025166 -0.115410 0.521000 152 222 109
-0.050190 -0.144268 0.659000 128 161 115
-0.048481 -0.144268 0.659000 187 248 147
-0.046772 -0.144268 0.659000 182 243 142
-0.045132 -0.144487 0.660000 170 227 134
-0.043486 -0.144706 0.661000 66 123 30
0.016995 -0.113619 0.519000 56 74 53
0.018376 -0.113838 0.520000 85 131 64
0.019724 -0.113838 0.520000 161 207 140
0.021073 -0.113838 0.520000 186 253 143
0.022464 -0.114057 0.521000 177 244 134
0.023815 -0.114057 0.521000 173 244 124
0.025214 -0.114276 0.522000 175 246 126
0.026568 -0.114276 0.522000 153 216 116
0.029331 -0.114495 0.523000 58 102 49
-0.050342 -0.142990 0.661000 80 109 75
-0.048628 -0.142990 0.661000 184 241 150
-0.046914 -0.142990 0.661000 187 244 153
-0.045268 -0.143206 0.662000 175 236 137
-0.043618 -0.143422 0.663000 119 180 81
-0.041962 -0.143639 0.664000 30 71 26
0.019724 -0.112488 0.520000 86 116 77
0.021113 -0.112704 0.521000 153 210 119
0.022464 -0.112704 0.521000 191 248 157
0.023861 -0.112921 0.522000 177 248 130
0.025214 -0.112921 0.522000 179 250 132
0.026568 -0.112921 0.522000 174 246 132
0.029331 -0.113137 0.523000 112 170 90
0.030687 -0.113137 0.523000 52 110 30
-0.050570 -0.141915 0.664000 49 72 47
-0.048775 -0.141701 0.663000 159 213 126
-0.047056 -0.141701 0.663000 193 247 160
-0.045405 -0.141915 0.664000 177 239 133
-0.043683 -0.141915 0.664000 155 217 111
-0.042025 -0.142128 0.665000 51 95 40
0.021113 -0.111352 0.521000 79 119 61
0.022507 -0.111565 0.522000 158 198 140
0.023861 -0.111565 0.522000 186 250 141
0.025214 -0.111565 0.522000 181 245 136
0.027975 -0.111779 0.523000 176 249 130
0.029331 -0.111779 0.523000 156 223 125
0.030687 -0.111779 0.523000 111 178 80
-0.050646 -0.140402 0.665000 43 63 44
-0.048849 -0.140190 0.664000 120 170 93
-0.047127 -0.140190 0.664000 195 245 168
-0.045473 -0.140402 0.665000 183 246 135
-0.043749 -0.140402 0.665000 171 234 123
-0.042025 -0.140402 0.665000 85 132 60
-0.040300 -0.140402 0.665000 28 75 3
0.022507 -0.110210 0.522000 79 108 78
0.023861 -0.110210 0.522000 154 210 124
0.026619 -0.110421 0.523000 177 247 132
0.027975 -0.110421 0.523000 177 247 132
0.029387 -0.110632 0.524000 174 245 136
0.030746 -0.110632 0.524000 152 223 114
0.032105 -0.110632 0.524000 118 174 102
0.033463 -0.110632 0.524000 55 111 39
-0.048922 -0.138675 0.665000 64 102 43
-0.047198 -0.138675 0.665000 191 229 170
-0.045473 -0.138675 0.665000 188 248 138
-0.043749 -0.138675 0.665000 177 237 127
-0.042088 -0.138884 0.666000 138 189 103
-0.040361 -0.138884 0.666000 29 80 0
0.023861 -0.108855 0.522000 72 114 62
0.026619 -0.109063 0.523000 186 249 147
0.027975 -0.109063 0.523000 183 246 144
0.029387 -0.109272 0.524000 176 248 134
0.030746 -0.109272 0.524000 171 243 129
0.032105 -0.109272 0.524000 164 226 131
0.033527 -0.109480 0.525000 123 185 90
-0.048922 -0.136948 0.665000 45 77 28
-0.047269 -0.137154 0.666000 150 182 133
-0.045542 -0.137154 0.666000 192 249 143
-0.043815 -0.137154 0.666000 181 238 132
-0.042088 -0.137154 0.666000 161 216 122
-0.040422 -0.137360 0.667000 41 96 2
0.026619 -0.107705 0.523000 144 199 118
0.028028 -0.107911 0.524000 191 246 165
0.029387 -0.107911 0.524000 180 248 135
0.030746 -0.107911 0.524000 174 242 129
0.032105 -0.107911 0.524000 176 244 131
0.033527 -0.108117 0.525000 162 230 117
-0.047269 -0.135425 0.666000 115 141 99
-0.045542 -0.135425 0.666000 188 245 141
-0.043815 -0.135425 0.666000 183 240 136
-0.042151 -0.135628 0.667000 173 231 133
-0.040422 -0.135628 0.667000 88 146 48
0.026619 -0.106347 0.523000 70 113 56
0.028028 -0.106551 0.524000 146 189 132
0.029387 -0.106551 0.524000 186 253 147
0.030804 -0.106754 0.525000 179 246 140
0.032166 -0.106754 0.525000 173 243 128
0.033591 -0.106957 0.526000 168 238 123
0.035021 -0.107161 0.527000 164 226 131
-0.047340 -0.133897 0.667000 67 87 52
-0.045610 -0.133897 0.667000 181 234 138
-0.043881 -0.133897 0.667000 190 243 147
-0.042151 -0.133897 0.667000 179 240 141
-0.040422 -0.133897 0.667000 129 190 91
0.028028 -0.105190 0.524000 73 100 71
0.029387 -0.105190 0.524000 145 202 111
0.030804 -0.105391 0.525000 189 246 155
0.032227 -0.105592 0.526000 175 245 130
0.033655 -0.105792 0.527000 174 244 129
0.035154 -0.106194 0.529000 170 237 129
0.036595 -0.106395 0.530000 162 229 121
-0.047340 -0.132165 0.667000 47 65 44
-0.045610 -0.132165 0.667000 154 205 121
-0.043881 -0.132165 0.667000 195 246 162
-0.042151 -0.132165 0.667000 182 243 142
-0.040482 -0.132363 0.668000 157 218 117
-0.038750 -0.132363 0.668000 43 88 30
0.029443 -0.104028 0.525000 61 104 47
0.030863 -0.104226 0.526000 136 179 122
0.032288 -0.104424 0.527000 186 253 143
0.033719 -0.104622 0.528000 179 246 136
0.035221 -0.105019 0.530000 174 242 129
0.036664 -0.105217 0.531000 174 242 129
0.038113 -0.105415 0.532000 163 228 132
-0.045679 -0.130629 0.668000 108 154 76
-0.043946 -0.130629 0.668000 195 241 163
-0.042214 -0.130629 0.668000 183 244 143
-0.040482 -0.130629 0.668000 176 237 136
-0.038808 -0.130824 0.669000 66 116 53
0.030863 -0.102860 0.526000 64 90 64
0.032350 -0.103251 0.528000 132 188 102
0.033846 -0.103642 0.530000 189 245 159
0.035287 -0.103838 0.531000 186 254 139
0.036733 -0.104034 0.532000 175 243 128
0.038113 -0.104034 0.532000 175 244 136
0.039566 -0.104229 0.533000 161 230 122
-0.045747 -0.129087 0.669000 62 104 32
-0.044012 -0.129087 0.669000 181 223 151
-0.042278 -0.129087 0.669000 185 247 143
-0.040543 -0.129087 0.669000 178 240 136
-0.038808 -0.129087 0.669000 111 164 95
-0.037129 -0.129280 0.670000 21 74 5
0.032411 -0.102073 0.529000 61 103 51
0.033910 -0.102459 0.531000 142 184 132
0.035287 -0.102459 0.531000 187 254 146
0.036733 -0.102652 0.532000 180 247 139
0.038184 -0.102845 0.533000 179 249 136
0.039566 -0.102845 0.533000 180 250 137
0.041102 -0.103231 0.535000 157 222 136
-0.045815 -0.127541 0.670000 39 80 15
-0.044078 -0.127541 0.670000 159 200 135
-0.042341 -0.127541 0.670000 178 240 136
-0.040603 -0.127541 0.670000 178 240 136
-0.038866 -0.127541 0.670000 147 204 127
-0.037184 -0.127731 0.671000 24 81 4
0.033910 -0.101081 0.531000 71 98 67
0.035354 -0.101271 0.532000 143 198 115
0.036733 -0.101271 0.532000 192 247 164
0.038184 -0.101461 0.533000 180 251 140
0.039715 -0.101842 0.535000 177 248 137
0.041102 -0.101842 0.535000 170 242 142
0.044040 -0.102223 0.537000 108 160 98
-0.045884 -0.125989 0.671000 37 73 26
-0.044144 -0.125989 0.671000 131 167 120
-0.042404 -0.125989 0.671000 178 236 136
-0.040664 -0.125989 0.671000 178 236 136
-0.038924 -0.125989 0.671000 163 222 133
-0.037240 -0.126176 0.672000 55 114 25
0.035354 -0.099890 0.532000 64 107 50
0.036802 -0.100077 0.533000 145 188 131
0.038256 -0.100265 0.534000 186 254 153
0.039715 -0.100453 0.535000 181 249 148
0.042569 -0.100641 0.536000 177 251 141
0.044040 -0.100828 0.537000 162 225 143
0.045518 -0.101016 0.538000 113 176 94
-0.044210 -0.124432 0.672000 79 109 70
-0.042404 -0.124246 0.671000 173 230 135
-0.040664 -0.124246 0.671000 177 234 139
-0.038982 -0.124432 0.672000 169 229 133
-0.037295 -0.124617 0.673000 84 144 48
-0.035550 -0.124617 0.673000 29 69 27
0.036871 -0.098879 0.534000 69 96 65
0.038327 -0.099064 0.535000 139 194 113
0.041179 -0.099249 0.536000 178 252 144
0.042648 -0.099434 0.537000 178 252 144
0.044122 -0.099619 0.538000 180 249 154
0.045518 -0.099619 0.538000 158 227 132
0.047000 -0.099805 0.539000 104 156 94
-0.044275 -0.122869 0.673000 51 78 45
-0.042530 -0.122869 0.673000 161 216 124
-0.040785 -0.122869 0.673000 176 231 139
-0.039040 -0.122869 0.673000 170 233 133
-0.037295 -0.122869 0.673000 126 189 89
-0.035603 -0.123052 0.674000 30 73 25
0.039789 -0.097857 0.536000 145 187 135
0.041256 -0.098040 0.537000 190 255 157
0.042727 -0.098223 0.538000 185 253 152
0.044122 -0.098223 0.538000 183 253 149
0.045602 -0.098405 0.539000 178 248 144
0.047000 -0.098405 0.539000 153 218 136
0.048487 -0.098588 0.540000 96 161 79
-0.044341 -0.121302 0.674000 42 66 38
-0.042594 -0.121302 0.674000 123 173 92
-0.040846 -0.121302 0.674000 180 230 149
-0.039098 -0.121302 0.674000 169 232 130
-0.037351 -0.121302 0.674000 153 216 114
-0.035656 -0.121482 0.675000 44 87 30
0.039789 -0.096466 0.536000 65 95 70
0.041332 -0.096826 0.538000 148 211 127
0.042807 -0.097006 0.539000 191 254 170
0.044204 -0.097006 0.539000 185 255 147
0.045602 -0.097006 0.539000 178 249 140
0.047087 -0.097186 0.540000 171 243 145
0.048487 -0.097186 0.540000 147 219 121
-0.042594 -0.119552 0.674000 90 138 71
-0.040846 -0.119552 0.674000 174 222 155
-0.039098 -0.119552 0.674000 167 230 128
-0.037406 -0.119729 0.675000 162 225 123
-0.035656 -0.119729 0.675000 87 131 65
0.041332 -0.095429 0.538000 66 114 63
0.042807 -0.095606 0.539000 154 202 151
0.044204 -0.095606 0.539000 187 255 157
0.045687 -0.095784 0.540000 184 253 154
0.047087 -0.095784 0.540000 183 255 151
0.048667 -0.096138 0.542000 177 250 145
-0.042657 -0.117977 0.675000 47 92 32
-0.040906 -0.117977 0.675000 166 211 151
-0.039156 -0.117977 0.675000 160 222 125
-0.037406 -0.117977 0.675000 167 229 132
-0.035709 -0.118152 0.676000 119 168 96
-0.033956 -0.118152 0.676000 26 75 3
0.042807 -0.094207 0.539000 75 108 80
0.044287 -0.094381 0.540000 144 207 125
0.045771 -0.094556 0.541000 190 253 171
0.047261 -0.094731 0.542000 183 255 151
0.048846 -0.095081 0.544000 186 255 154
0.050349 -0.095255 0.545000 181 253 155
-0.042720 -0.116396 0.676000 41 79 24
-0.040906 -0.116224 0.675000 155 193 138
-0.039214 -0.116396 0.676000 168 228 132
-0.037461 -0.116396 0.676000 165 225 129
-0.035709 -0.116396 0.676000 137 191 115
-0.034006 -0.116569 0.677000 29 83 7
0.044287 -0.092979 0.540000 66 116 57
0.045771 -0.093152 0.541000 152 202 143
0.047349 -0.093496 0.543000 191 255 165
0.048936 -0.093840 0.545000 186 255 160
0.050534 -0.094185 0.547000 189 255 164
0.051952 -0.094185 0.547000 181 255 156
-0.042720 -0.114641 0.676000 42 74 23
-0.040967 -0.114641 0.676000 112 144 93
-0.039214 -0.114641 0.676000 166 226 130
-0.037461 -0.114641 0.676000 159 219 123
-0.035709 -0.114641 0.676000 154 212 130
-0.034006 -0.114811 0.677000 42 100 18
0.045941 -0.092086 0.543000 75 111 77
0.047523 -0.092425 0.545000 153 216 134
0.049026 -0.092595 0.546000 195 255 176
0.050534 -0.092764 0.547000 185 255 161
0.052047 -0.092934 0.548000 190 255 166
0.053566 -0.093104 0.549000 181 248 161
-0.042720 -0.112886 0.676000 46 75 30
-0.040967 -0.112886 0.676000 76 105 60
-0.039214 -0.112886 0.676000 166 226 130
-0.037461 -0.112886 0.676000 155 215 119
-0.035761 -0.113053 0.677000 158 219 129
-0.034006 -0.113053 0.677000 59 120 30
0.046110 -0.091010 0.545000 51 73 57
0.047610 -0.091177 0.546000 62 110 59
0.049116 -0.091344 0.547000 148 196 145
0.050626 -0.091511 0.548000 190 255 170
0.052142 -0.091678 0.549000 187 255 167
0.055190 -0.092012 0.551000 181 249 157
0.056824 -0.092346 0.553000 143 201 128
-0.041028 -0.111295 0.677000 58 85 52
-0.039272 -0.111295 0.677000 159 218 129
-0.037517 -0.111295 0.677000 154 213 124
-0.035761 -0.111295 0.677000 155 220 124
-0.034056 -0.111460 0.678000 90 155 59
-0.032298 -0.111460 0.678000 29 66 25
0.047697 -0.089924 0.547000 45 80 53
0.049205 -0.090088 0.548000 72 107 80
0.052237 -0.090417 0.550000 196 255 183
0.053859 -0.090746 0.552000 193 255 167
0.055390 -0.090910 0.553000 194 255 168
0.056927 -0.091075 0.554000 181 244 158
0.058469 -0.091239 0.555000 137 200 114
-0.041028 -0.109538 0.677000 40 67 38
-0.039272 -0.109538 0.677000 143 201 117
-0.037517 -0.109538 0.677000 154 212 128
-0.035814 -0.109699 0.678000 154 221 123
-0.034056 -0.109699 0.678000 123 190 92
-0.032298 -0.109699 0.678000 30 73 25
0.052427 -0.089313 0.552000 167 216 162
0.054054 -0.089636 0.554000 199 255 174
0.055490 -0.089636 0.554000 194 255 169
0.057030 -0.089798 0.555000 194 255 167
0.058574 -0.089960 0.556000 172 239 145
0.060016 -0.089960 0.556000 128 189 117
-0.041088 -0.107939 0.678000 41 64 41
-0.039330 -0.107939 0.678000 136 189 111
-0.037572 -0.107939 0.678000 158 211 133
-0.035814 -0.107939 0.678000 146 214 113
-0.034056 -0.107939 0.678000 138 206 105
-0.032298 -0.107939 0.678000 33 79 26
0.050811 -0.087561 0.550000 47 78 44
0.052617 -0.088198 0.554000 96 127 93
0.054151 -0.088357 0.555000 167 230 148
0.055691 -0.088516 0.556000 199 255 180
0.057132 -0.088516 0.556000 189 255 161
0.058679 -0.088676 0.557000 191 255 163
0.060124 -0.088676 0.557000 165 232 147
-0.041088 -0.106179 0.678000 51 69 48
-0.039330 -0.106179 0.678000 117 162 89
-0.037572 -0.106179 0.678000 170 215 142
-0.035814 -0.106179 0.678000 142 208 107
-0.034056 -0.106179 0.678000 147 213 112
-0.032346 -0.106335 0.679000 54 104 45
0.054249 -0.087073 0.556000 87 137 74
0.055691 -0.087073 0.556000 173 223 160
0.057235 -0.087229 0.557000 195 255 169
0.058785 -0.087386 0.558000 191 255 165
0.060340 -0.087543 0.559000 182 253 160
-0.039330 -0.104418 0.678000 88 130 58
-0.037572 -0.104418 0.678000 171 213 141
-0.035814 -0.104418 0.678000 144 210 107
-0.034106 -0.104572 0.679000 149 215 112
-0.032346 -0.104572 0.679000 74 124 63
0.054346 -0.085783 0.557000 43 80 39
0.055891 -0.085937 0.558000 96 133 92
0.057543 -0.086245 0.560000 170 235 149
0.058995 -0.086245 0.560000 196 255 175
0.060555 -0.086399 0.561000 189 255 163
0.062231 -0.086707 0.563000 183 255 157
-0.039388 -0.102809 0.679000 58 99 36
-0.037628 -0.102809 0.679000 171 212 149
-0.035867 -0.102809 0.679000 147 213 112
-0.034106 -0.102809 0.679000 152 218 117
-0.032393 -0.102961 0.680000 90 141 75
-0.030630 -0.102961 0.680000 23 74 8
0.056091 -0.084791 0.560000 52 77 56
0.057749 -0.085094 0.562000 93 149 81
0.059311 -0.085245 0.563000 176 232 164
0.062342 -0.085397 0.564000 186 255 162
0.063804 -0.085397 0.564000 179 250 157
0.065382 -0.085548 0.565000 157 228 135
-0.039446 -0.101195 0.680000 47 86 33
-0.037683 -0.101195 0.680000 160 199 146
-0.035920 -0.101195 0.680000 151 216 120
-0.034157 -0.101195 0.680000 151 216 120
-0.032393 -0.101195 0.680000 119 171 96
-0.030675 -0.101344 0.681000 22 74 0
0.057852 -0.083784 0.563000 44 84 44
0.059417 -0.083932 0.564000 102 142 102
0.060879 -0.083932 0.564000 173 240 153
0.062452 -0.084081 0.565000 186 253 166
0.063917 -0.084081 0.565000 179 251 151
0.065614 -0.084379 0.567000 172 244 144
-0.039446 -0.099430 0.680000 37 74 33
-0.037683 -0.099430 0.680000 126 163 122
-0.035920 -0.099430 0.680000 153 215 122
-0.034157 -0.099430 0.680000 150 212 119
-0.032441 -0.099576 0.681000 140 195 112
-0.030720 -0.099722 0.682000 29 84 1
0.059522 -0.082614 0.565000 53 76 53
0.061095 -0.082761 0.566000 111 163 99
0.062673 -0.082907 0.567000 182 234 170
0.064370 -0.083199 0.569000 185 254 155
0.065961 -0.083345 0.570000 181 250 151
-0.039504 -0.097808 0.681000 39 71 34
-0.037738 -0.097808 0.681000 112 144 107
-0.035973 -0.097808 0.681000 155 215 123
-0.034207 -0.097808 0.681000 145 205 113
-0.032489 -0.097951 0.682000 149 205 117
-0.030720 -0.097951 0.682000 37 93 5
0.061419 -0.081722 0.569000 48 86 40
0.063115 -0.082009 0.571000 130 168 122
0.064596 -0.082009 0.571000 180 246 157
0.099095 -0.098669 0.687000 94 89 58
-0.039562 -0.096181 0.682000 45 75 38
-0.037794 -0.096181 0.682000 100 130 93
-0.036025 -0.096181 0.682000 161 218 123
-0.034257 -0.096181 0.682000 145 202 107
-0.032489 -0.096181 0.682000 150 209 120
-0.030765 -0.096322 0.683000 49 108 19
0.099240 -0.097027 0.688000 134 131 101
-0.037849 -0.094548 0.683000 70 95 60
-0.036025 -0.094410 0.682000 159 215 118
-0.034307 -0.094548 0.683000 146 202 105
-0.032536 -0.094548 0.683000 150 210 118
-0.030765 -0.094548 0.683000 87 147 55
-0.029079 -0.094825 0.685000 32 67 27
0.099240 -0.095240 0.688000 119 122 99
-0.037849 -0.092775 0.683000 54 77 43
-0.036078 -0.092775 0.683000 153 208 114
-0.034307 -0.092775 0.683000 148 203 109
-0.032536 -0.092775 0.683000 151 213 120
-0.030810 -0.092911 0.684000 106 168 75
-0.029079 -0.093047 0.685000 33 70 29
-0.037960 -0.091268 0.685000 51 71 38
-0.036131 -0.091135 0.684000 153 205 116
-0.034357 -0.091135 0.684000 150 202 113
-0.032584 -0.091135 0.684000 149 211 118
-0.030855 -0.091268 0.685000 112 174 81
-0.029079 -0.091268 0.685000 32 73 28
-0.037960 -0.089489 0.685000 51 68 40
-0.036184 -0.089489 0.685000 147 197 116
-0.034408 -0.089489 0.685000 153 203 122
-0.032632 -0.089489 0.685000 140 201 111
-0.030855 -0.089489 0.685000 120 181 91
-0.029122 -0.089620 0.686000 36 77 30
-0.038016 -0.087839 0.686000 49 65 44
-0.036184 -0.087711 0.685000 128 178 101
-0.034408 -0.087711 0.685000 163 213 136
-0.032679 -0.087839 0.686000 138 202 111
-0.030900 -0.087839 0.686000 126 190 99
-0.029122 -0.087839 0.686000 38 80 28
-0.038126 -0.086309 0.688000 50 65 49
-0.036237 -0.086058 0.686000 102 150 81
-0.034458 -0.086058 0.686000 159 207 138
-0.032679 -0.086058 0.686000 138 202 111
-0.030945 -0.086183 0.687000 137 201 110
-0.029164 -0.086183 0.687000 43 88 30
-0.038126 -0.084522 0.688000 51 66 52
-0.036290 -0.084400 0.687000 84 131 69
-0.034508 -0.084400 0.687000 159 206 144
-0.032727 -0.084400 0.687000 139 203 112
-0.030945 -0.084400 0.687000 141 205 114
-0.036342 -0.082736 0.688000 74 121 63
-0.034508 -0.082616 0.687000 159 206 148
-0.030990 -0.082736 0.688000 144 208 117
-0.029206 -0.082736 0.688000 57 104 42
-0.036342 -0.080950 0.688000 67 114 56
-0.034558 -0.080950 0.688000 161 208 150
-0.032774 -0.080950 0.688000 135 200 106
-0.030990 -0.080950 0.688000 146 211 117
-0.029249 -0.081067 0.689000 63 111 46
-0.036395 -0.079278 0.689000 63 109 54
-0.034558 -0.079163 0.688000 160 206 151
-0.032774 -0.079163 0.688000 134 199 105
-0.031036 -0.079278 0.689000 146 211 117
-0.029249 -0.079278 0.689000 71 119 54
-0.036395 -0.077490 0.689000 60 106 51
-0.034609 -0.077490 0.689000 156 202 147
-0.032822 -0.077490 0.689000 134 199 103
-0.031036 -0.077490 0.689000 146 211 115
-0.029249 -0.077490 0.689000 82 130 65
-0.036395 -0.075701 0.689000 53 99 44
-0.034609 -0.075701 0.689000 152 198 143
-0.032822 -0.075701 0.689000 134 199 101
-0.031036 -0.075701 0.689000 142 207 109
-0.029291 -0.075810 0.690000 93 144 76
-0.036395 -0.073912 0.689000 50 94 39
-0.034609 -0.073912 0.689000 154 198 143
-0.032822 -0.073912 0.689000 139 204 106
-0.031081 -0.074019 0.690000 142 207 109
-0.029291 -0.074019 0.690000 96 147 79
-0.027542 -0.074126 0.691000 33 84 16
-0.036448 -0.072227 0.690000 42 86 31
-0.034659 -0.072227 0.690000 150 194 139
-0.032870 -0.072227 0.690000 140 202 107
-0.031081 -0.072227 0.690000 144 206 111
-0.029291 -0.072227 0.690000 103 151 84
-0.027542 -0.072332 0.691000 33 81 14
-0.036448 -0.070436 0.690000 41 85 30
-0.034659 -0.070436 0.690000 144 188 133
-0.032870 -0.070436 0.690000 140 202 107
-0.031081 -0.070436 0.690000 144 206 111
-0.029334 -0.070538 0.691000 107 155 88
-0.027542 -0.070538 0.691000 29 77 10
-0.036448 -0.068644 0.690000 43 87 34
-0.034659 -0.068644 0.690000 144 188 135
-0.032870 -0.068644 0.690000 139 204 110
-0.031081 -0.068644 0.690000 141 206 112
-0.029334 -0.068744 0.691000 108 159 91
-0.027582 -0.068843 0.692000 27 78 10
-0.036448 -0.066853 0.690000 45 89 36
-0.034659 -0.066853 0.690000 143 187 134
-0.032870 -0.066853 0.690000 135 200 106
-0.031126 -0.066950 0.691000 141 206 112
-0.029334 -0.066950 0.691000 110 161 93
-0.027582 -0.067047 0.692000 29 80 12
-0.036448 -0.065061 0.690000 46 88 34
-0.034659 -0.065061 0.690000 142 184 130
-0.032870 -0.065061 0.690000 135 200 106
-0.031126 -0.065156 0.691000 139 204 110
-0.029334 -0.065156 0.691000 115 168 99
-0.027622 -0.065344 0.693000 29 82 13
-0.036501 -0.063361 0.691000 48 90 36
-0.034659 -0.063270 0.690000 144 186 132
-0.032917 -0.063361 0.691000 138 203 107
-0.031126 -0.063361 0.691000 138 203 107
-0.029376 -0.063453 0.692000 116 167 99
-0.027622 -0.063545 0.693000 34 85 17
-0.036501 -0.061567 0.691000 46 88 34
-0.034709 -0.061567 0.691000 142 184 130
-0.032917 -0.061567 0.691000 134 199 103
-0.031126 -0.061567 0.691000 134 199 103
-0.029376 -0.061656 0.692000 114 167 98
-0.027662 -0.061835 0.694000 33 86 17
-0.036501 -0.059773 0.691000 49 91 37
-0.034709 -0.059773 0.691000 142 184 130
-0.032917 -0.059773 0.691000 133 198 104
-0.031126 -0.059773 0.691000 134 199 105
-0.029376 -0.059860 0.692000 110 163 94
-0.027662 -0.060033 0.694000 33 86 17
-0.036501 -0.057979 0.691000 51 93 41
-0.034709 -0.057979 0.691000 143 185 133
-0.032917 -0.057979 0.691000 134 198 107
-0.031171 -0.058063 0.692000 138 202 111
-0.029419 -0.058147 0.693000 110 161 95
-0.027702 -0.058315 0.695000 33 84 18
-0.036501 -0.056185 0.691000 52 93 44
-0.034709 -0.056185 0.691000 144 185 136
-0.032917 -0.056185 0.691000 133 197 106
-0.031171 -0.056266 0.692000 137 201 110
-0.029419 -0.056348 0.693000 117 165 100
-0.027741 -0.056592 0.696000 38 86 21
-0.036501 -0.054391 0.691000 56 98 46
-0.034709 -0.054391 0.691000 146 188 136
-0.032917 -0.054391 0.691000 128 192 101
-0.031171 -0.054470 0.692000 138 202 111
-0.029461 -0.054627 0.694000 99 147 82
-0.027781 -0.054863 0.697000 41 89 24
-0.036501 -0.052597 0.691000 57 101 48
-0.034709 -0.052597 0.691000 148 192 139
-0.032917 -0.052597 0.691000 130 191 101
-0.031171 -0.052673 0.692000 140 201 111
-0.029461 -0.052825 0.694000 91 137 70
-0.027821 -0.053130 0.698000 43 89 22
-0.036501 -0.050803 0.691000 58 102 47
-0.034709 -0.050803 0.691000 148 192 137
-0.032917 -0.050803 0.691000 129 190 100
-0.031216 -0.050950 0.693000 140 201 111
-0.029504 -0.051097 0.695000 79 123 59
-0.027861 -0.051391 0.699000 44 88 24
-0.036501 -0.049009 0.691000 59 103 48
-0.034709 -0.049009 0.691000 147 191 136
-0.032917 -0.049009 0.691000 127 191 100
-0.031216 -0.049150 0.693000 138 202 111
-0.029546 -0.049363 0.696000 67 110 49
-0.027861 -0.049576 0.699000 44 87 26
-0.036501 -0.047214 0.691000 65 110 52
-0.034709 -0.047214 0.691000 149 194 136
-0.032917 -0.047214 0.691000 126 190 101
-0.031216 -0.047351 0.693000 138 202 113
-0.029546 -0.047556 0.696000 61 104 47
-0.036501 -0.045420 0.691000 78 123 65
-0.034709 -0.045420 0.691000 150 195 137
-0.032917 -0.045420 0.691000 126 189 103
-0.031216 -0.045552 0.693000 135 198 112
-0.029546 -0.045749 0.696000 58 100 46
-0.038403 -0.043752 0.693000 43 60 44
-0.036501 -0.043626 0.691000 99 144 86
-0.034709 -0.043626 0.691000 149 194 136
-0.032917 -0.043626 0.691000 128 191 107
-0.031216 -0.043752 0.693000 130 193 109
-0.029631 -0.044068 0.698000 45 88 38
-0.038403 -0.041953 0.693000 45 65 48
-0.036501 -0.041832 0.691000 110 157 95
-0.034709 -0.041832 0.691000 145 192 130
-0.032917 -0.041832 0.691000 128 193 111
-0.031216 -0.041953 0.693000 121 186 104
-0.029631 -0.042256 0.698000 37 80 34
-0.038403 -0.040154 0.693000 43 63 44
-0.036501 -0.040038 0.691000 121 172 102
-0.034709 -0.040038 0.691000 134 185 115
-0.032965 -0.040096 0.692000 126 191 109
-0.031261 -0.040212 0.694000 114 179 97
-0.029716 -0.040559 0.700000 32 75 37
-0.038403 -0.038355 0.693000 44 67 44
-0.036501 -0.038244 0.691000 129 183 109
-0.034709 -0.038244 0.691000 132 186 112
-0.032965 -0.038299 0.692000 123 190 107
-0.031261 -0.038410 0.694000 106 173 90
-0.029716 -0.038742 0.700000 29 72 38
-0.038348 -0.036502 0.692000 49 77 52
-0.036448 -0.036397 0.690000 130 189 113
-0.034709 -0.036450 0.691000 127 186 110
-0.033013 -0.036555 0.693000 126 191 109
-0.031351 -0.036713 0.696000 97 162 80
-0.038348 -0.034706 0.692000 57 87 62
-0.036501 -0.034656 0.691000 131 195 118
-0.034709 -0.034656 0.691000 124 188 111
-0.033013 -0.034756 0.693000 132 194 115
-0.031441 -0.035007 0.698000 81 143 64
-0.038293 -0.032861 0.691000 78 111 83
-0.036501 -0.032861 0.691000 132 196 119
-0.034709 -0.032861 0.691000 122 186 109
-0.033060 -0.033004 0.694000 139 199 118
-0.031486 -0.033242 0.699000 59 119 38
-0.038293 -0.031067 0.691000 94 130 96
-0.036501 -0.031067 0.691000 135 200 118
-0.034759 -0.031112 0.692000 121 186 104
-0.033108 -0.031247 0.695000 140 198 118
-0.031531 -0.031472 0.700000 36 94 14
-0.040200 -0.029358 0.693000 39 76 37
-0.038237 -0.029231 0.690000 107 144 105
-0.036501 -0.029273 0.691000 136 201 117
-0.034810 -0.029358 0.693000 117 182 98
-0.033156 -0.029485 0.696000 135 189 115
-0.305595 -0.028513 0.717000 45 57 49
-0.303736 -0.028513 0.717000 41 53 45
-0.301877 -0.028513 0.717000 39 51 43
-0.040142 -0.027519 0.692000 38 76 32
-0.038237 -0.027439 0.690000 129 167 123
-0.036501 -0.027479 0.691000 132 197 113
-0.034810 -0.027559 0.693000 121 186 102
-0.033251 -0.027757 0.698000 110 163 94
-0.307454 -0.026651 0.717000 47 55 52
-0.305595 -0.026651 0.717000 44 55 51
-0.303736 -0.026651 0.717000 40 51 47
-0.301877 -0.026651 0.717000 38 52 43
-0.300017 -0.026651 0.717000 38 52 43
-0.040026 -0.025648 0.690000 38 81 31
-0.038182 -0.025611 0.689000 141 184 134
-0.036501 -0.025685 0.691000 129 194 112
-0.034860 -0.025796 0.694000 128 193 111
-0.033298 -0.025982 0.699000 85 137 75
-0.309313 -0.024790 0.717000 54 62 59
-0.307454 -0.024790 0.717000 50 58 55
-0.305595 -0.024790 0.717000 43 54 50
-0.303736 -0.024790 0.717000 39 50 46
-0.301877 -0.024790 0.717000 39 52 47
-0.300017 -0.024790 0.717000 42 55 50
-0.039968 -0.023822 0.689000 61 107 52
-0.038126 -0.023787 0.688000 145 191 136
-0.036501 -0.023891 0.691000 124 189 107
-0.034910 -0.024029 0.695000 133 198 116
-0.033346 -0.024202 0.700000 70 120 61
-0.307454 -0.022928 0.717000 57 65 62
-0.305595 -0.022928 0.717000 45 58 53
-0.303736 -0.022928 0.717000 39 52 47
-0.301877 -0.022928 0.717000 37 50 45
-0.300017 -0.022928 0.717000 42 55 50
-0.041876 -0.022097 0.691000 41 63 45
-0.039794 -0.021937 0.686000 96 146 87
-0.038071 -0.021969 0.687000 144 194 135
-0.036501 -0.022097 0.691000 127 190 106
-0.034910 -0.022225 0.695000 139 202 118
-0.033441 -0.022448 0.702000 51 94 37
-0.305595 -0.021067 0.717000 47 60 55
-0.303736 -0.021067 0.717000 42 55 50
-0.301877 -0.021067 0.717000 39 52 47
-0.300017 -0.021067 0.717000 44 57 52
-0.041816 -0.020273 0.690000 42 67 46
-0.039736 -0.020126 0.685000 116 166 103
-0.038126 -0.020214 0.688000 138 188 125
-0.036554 -0.020332 0.692000 130 190 107
-0.034960 -0.020450 0.696000 136 196 113
-0.305595 -0.019205 0.717000 40 56 45
-0.303736 -0.019205 0.717000 35 51 40
-0.301877 -0.019205 0.717000 32 51 39
-0.300017 -0.019205 0.717000 41 60 48
-0.041755 -0.018455 0.689000 48 76 51
-0.039736 -0.018348 0.685000 129 185 115
-0.038182 -0.018455 0.689000 131 187 117
-0.036607 -0.018562 0.693000 131 194 112
-0.035111 -0.018723 0.699000 121 184 102
-0.305169 -0.017319 0.716000 71 89 68
-0.303312 -0.017319 0.716000 76 94 73
-0.301456 -0.017319 0.716000 52 75 52
-0.300017 -0.017343 0.717000 40 63 40
-0.041634 -0.016618 0.687000 56 86 59
-0.039736 -0.016569 0.685000 131 192 118
-0.038237 -0.016690 0.690000 120 181 107
-0.036659 -0.016787 0.694000 133 197 120
-0.035161 -0.016932 0.700000 73 137 60
-0.306596 -0.015438 0.715000 84 96 86
-0.304742 -0.015438 0.715000 104 131 100
-0.302889 -0.015438 0.715000 111 138 107
-0.301035 -0.015438 0.715000 103 132 98
-0.300017 -0.015482 0.717000 55 84 50
-0.298158 -0.015482 0.717000 57 77 62
-0.041452 -0.014769 0.684000 77 113 79
-0.038126 -0.014855 0.688000 118 182 103
-0.036607 -0.014963 0.693000 137 198 124
-0.035262 -0.015158 0.702000 43 104 30
-0.304881 -0.013506 0.711000 87 100 87
-0.303464 -0.013525 0.712000 122 155 113
-0.301618 -0.013525 0.712000 112 145 103
-0.300192 -0.013544 0.713000 101 137 92
-0.298762 -0.013563 0.714000 74 110 65
-0.298158 -0.013620 0.717000 63 83 66
-0.043162 -0.012974 0.683000 29 70 32
-0.041270 -0.012936 0.681000 113 154 116
-0.038071 -0.013050 0.687000 123 190 105
-0.036554 -0.013145 0.692000 128 186 113
-0.035362 -0.013373 0.704000 28 86 13
-0.304452 -0.011644 0.710000 82 97 79
-0.302611 -0.011644 0.710000 130 167 117
-0.300770 -0.011644 0.710000 103 140 90
-0.299350 -0.011660 0.711000 93 138 80
-0.298344 -0.011693 0.713000 79 124 66
-0.297327 -0.011726 0.715000 59 80 58
-0.043162 -0.011201 0.683000 40 85 39
-0.039736 -0.011234 0.685000 120 187 102
-0.038237 -0.011316 0.690000 124 191 106
-0.037029 -0.011496 0.701000 108 163 98
-0.304024 -0.009786 0.709000 71 89 68
-0.301759 -0.009773 0.708000 130 169 116
-0.299923 -0.009773 0.708000 104 143 90
-0.298087 -0.009773 0.708000 92 139 79
-0.297507 -0.009814 0.711000 90 137 77
-0.296911 -0.009855 0.714000 56 80 50
-0.042910 -0.009372 0.679000 67 117 65
-0.041270 -0.009400 0.681000 139 189 137
-0.038237 -0.009524 0.690000 135 200 116
-0.037135 -0.009704 0.703000 72 124 64
-0.300907 -0.007912 0.706000 131 170 117
-0.299076 -0.007912 0.706000 118 157 104
-0.297245 -0.007912 0.706000 93 143 80
-0.296252 -0.007934 0.708000 90 140 77
-0.295663 -0.007968 0.711000 62 89 56
-0.044604 -0.007598 0.678000 37 64 42
-0.042910 -0.007609 0.679000 101 156 93
-0.041391 -0.007654 0.683000 136 191 128
-0.038403 -0.007766 0.693000 132 197 113
-0.300480 -0.006070 0.705000 124 158 107
-0.298652 -0.006070 0.705000 126 160 109
-0.296824 -0.006070 0.705000 89 140 74
-0.295415 -0.006079 0.706000 88 139 73
-0.295247 -0.006113 0.710000 66 98 59
-0.295059 -0.006148 0.714000 61 93 54
-0.044604 -0.005838 0.678000 42 73 39
-0.042846 -0.005838 0.678000 123 182 106
-0.041331 -0.005872 0.682000 127 186 110
-0.038403 -0.005967 0.693000 107 172 90
-0.300054 -0.004234 0.704000 109 141 92
-0.298229 -0.004234 0.704000 136 168 119
-0.296403 -0.004234 0.704000 95 143 76
-0.294996 -0.004240 0.705000 95 143 76
-0.294416 -0.004258 0.708000 75 116 71
-0.294233 -0.004282 0.712000 52 93 48
-0.042846 -0.004077 0.678000 128 191 107
-0.041149 -0.004083 0.679000 123 186 102
-0.038126 -0.004137 0.688000 67 129 50
-0.300054 -0.002406 0.704000 86 115 72
-0.297805 -0.002402 0.703000 147 176 133
-0.295982 -0.002402 0.703000 110 161 93
-0.294578 -0.002406 0.704000 93 144 76
-0.293168 -0.002409 0.705000 86 129 79
-0.292993 -0.002423 0.709000 44 87 37
-0.041088 -0.002317 0.678000 126 187 99
-0.299628 -0.000577 0.703000 60 85 48
-0.296958 -0.000575 0.701000 147 172 135
-0.294719 -0.000575 0.700000 116 164 99
-0.294159 -0.000577 0.703000 100 148 83
-0.292752 -0.000578 0.704000 96 142 87
-0.292167 -0.000580 0.707000 46 92 37
-0.296534 0.001243 0.700000 134 154 121
-0.293877 0.001239 0.698000 126 172 105
-0.292904 0.001243 0.700000 104 150 83
-0.292336 0.001248 0.703000 102 147 85
-0.291565 0.001261 0.710000 58 82 52
-0.295687 0.003052 0.698000 103 119 96
-0.292614 0.003038 0.695000 131 175 109
-0.291230 0.003043 0.696000 116 160 94
-0.291089 0.003060 0.700000 90 138 71
-0.290514 0.003073 0.703000 85 133 66
-0.290333 0.003091 0.707000 53 81 43
-0.293569 0.004829 0.693000 78 95 77
-0.291772 0.004829 0.693000 136 177 114
-0.289841 0.004857 0.697000 97 145 76
-0.290514 0.004899 0.703000 99 147 78
-0.290930 0.006609 0.691000 133 171 114
-0.289975 0.006628 0.693000 142 180 123
-0.288861 0.006686 0.699000 93 145 70
-0.289101 0.006734 0.704000 72 111 60
-0.288908 0.006772 0.708000 51 90 39
-0.049731 0.006466 0.676000 37 77 35
-0.047979 0.006466 0.676000 122 162 120
-0.046226 0.006466 0.676000 126 189 105
-0.290509 0.008391 0.690000 91 125 76
-0.289138 0.008403 0.691000 150 184 135
-0.287621 0.008464 0.696000 94 146 71
-0.288691 0.008549 0.703000 79 126 64
-0.051484 0.008221 0.676000 46 66 49
-0.049731 0.008221 0.676000 75 124 70
-0.047979 0.008221 0.676000 132 181 127
-0.046226 0.008221 0.676000 127 187 102
-0.290509 0.010183 0.690000 61 91 52
-0.288720 0.010183 0.690000 146 176 137
-0.287762 0.010212 0.692000 126 178 103
-0.286637 0.010301 0.698000 87 140 69
-0.286868 0.010375 0.703000 54 107 36
-0.051484 0.009976 0.676000 41 71 46
-0.049731 0.009976 0.676000 105 161 93
-0.047979 0.009976 0.676000 129 185 117
-0.046226 0.009976 0.676000 130 188 106
-0.288301 0.011957 0.689000 115 139 109
-0.286931 0.011974 0.690000 139 188 114
-0.285555 0.011992 0.691000 125 174 100
-0.285816 0.012078 0.696000 93 151 71
-0.051484 0.011731 0.676000 74 109 80
-0.049731 0.011731 0.676000 127 185 112
-0.047979 0.011731 0.676000 127 185 112
-0.286628 0.013666 0.685000 67 88 66
-0.285683 0.013706 0.687000 142 186 122
-0.284315 0.013726 0.688000 130 174 110
-0.282942 0.013746 0.689000 105 163 83
-0.282379 0.013806 0.692000 90 148 68
-0.053158 0.013466 0.675000 30 76 37
-0.051408 0.013466 0.675000 109 155 116
-0.049658 0.013466 0.675000 131 194 112
-0.047908 0.013466 0.675000 127 190 108
-0.281940 0.015287 0.678000 110 150 92
-0.280182 0.015287 0.678000 132 172 114
-0.278835 0.015309 0.679000 116 171 92
-0.277074 0.015309 0.679000 90 145 66
-0.276936 0.015399 0.683000 80 130 69
-0.054909 0.015219 0.675000 36 62 47
-0.053080 0.015196 0.674000 72 125 72
-0.051408 0.015219 0.675000 128 181 128
-0.049658 0.015219 0.675000 132 191 113
-0.047908 0.015219 0.675000 144 203 125
-0.281525 0.017022 0.677000 78 110 59
-0.279769 0.017022 0.677000 148 180 129
-0.278014 0.017022 0.677000 130 183 105
-0.275850 0.016997 0.676000 104 157 79
-0.274097 0.016997 0.676000 85 138 69
-0.054827 0.016946 0.674000 56 89 63
-0.053080 0.016946 0.674000 111 169 100
-0.051332 0.016946 0.674000 130 188 119
-0.049584 0.016946 0.674000 138 195 120
-0.278943 0.018724 0.675000 132 158 118
-0.277192 0.018724 0.675000 140 189 115
-0.275442 0.018724 0.675000 123 172 98
-0.273286 0.018696 0.674000 91 148 71
-0.056491 0.018669 0.673000 34 74 32
-0.054827 0.018696 0.674000 91 131 89
-0.053080 0.018696 0.674000 127 186 108
-0.051332 0.018696 0.674000 136 195 117
-0.049584 0.018696 0.674000 151 204 133
-0.278529 0.020446 0.674000 71 93 66
-0.276371 0.020416 0.673000 143 187 121
-0.274626 0.020416 0.673000 139 183 117
-0.272881 0.020416 0.673000 109 164 85
-0.056491 0.020416 0.673000 50 102 42
-0.054746 0.020416 0.673000 120 172 112
-0.053080 0.020446 0.674000 123 183 98
-0.051332 0.020446 0.674000 147 207 122
-0.049584 0.020446 0.674000 142 190 125
-0.275550 0.022098 0.671000 127 162 106
-0.273810 0.022098 0.671000 153 188 132
-0.272070 0.022098 0.671000 123 178 95
-0.270330 0.022098 0.671000 106 161 78
-0.058063 0.022098 0.671000 49 79 54
-0.056491 0.022163 0.673000 97 155 82
-0.054746 0.022163 0.673000 126 184 111
-0.053001 0.022163 0.673000 137 197 114
-0.051256 0.022163 0.673000 150 210 127
-0.275139 0.023804 0.670000 67 96 53
-0.273402 0.023804 0.670000 150 179 136
-0.271665 0.023804 0.670000 139 192 110
-0.269524 0.023769 0.669000 112 165 83
-0.267790 0.023769 0.669000 92 148 76
-0.059803 0.023840 0.671000 36 77 32
-0.058063 0.023840 0.671000 81 122 77
-0.056323 0.023840 0.671000 121 184 100
-0.054665 0.023875 0.672000 131 194 110
-0.052922 0.023875 0.672000 149 208 130
-0.272994 0.025506 0.669000 110 132 103
-0.271259 0.025506 0.669000 149 198 124
-0.269121 0.025468 0.668000 133 182 108
-0.267389 0.025468 0.668000 101 161 78
-0.265260 0.025430 0.667000 83 143 60
-0.061451 0.025544 0.670000 44 66 50
-0.059803 0.025582 0.671000 54 104 41
-0.058063 0.025582 0.671000 115 165 102
-0.056407 0.025620 0.672000 118 183 97
-0.054665 0.025620 0.672000 139 204 118
-0.053001 0.025658 0.673000 142 199 133
-0.272586 0.027202 0.668000 66 83 67
-0.270854 0.027202 0.668000 133 173 115
-0.268719 0.027161 0.667000 151 191 133
-0.266989 0.027161 0.667000 119 177 93
-0.265260 0.027161 0.667000 106 164 80
-0.061451 0.027283 0.670000 48 76 49
-0.059714 0.027283 0.670000 103 162 86
-0.057976 0.027283 0.670000 121 180 104
-0.056323 0.027324 0.671000 137 200 116
-0.054583 0.027324 0.671000 149 212 128
-0.270448 0.028893 0.667000 74 105 63
-0.268719 0.028893 0.667000 155 186 144
-0.266589 0.028850 0.666000 135 190 109
-0.264862 0.028850 0.666000 116 171 90
-0.263135 0.028850 0.666000 93 150 73
-0.063000 0.028936 0.668000 42 83 38
-0.061268 0.028936 0.668000 95 136 91
-0.059625 0.028980 0.669000 119 179 96
-0.057976 0.029023 0.670000 132 192 109
-0.056239 0.029023 0.670000 151 210 134
-0.268316 0.030579 0.666000 109 131 104
-0.266589 0.030579 0.666000 147 197 120
-0.264464 0.030533 0.665000 132 182 105
-0.262740 0.030533 0.665000 106 166 83
-0.261015 0.030533 0.665000 79 139 56
-0.064635 0.030625 0.667000 43 68 47
-0.063000 0.030671 0.668000 82 132 69
-0.061268 0.030671 0.668000 117 167 104
-0.059536 0.030671 0.668000 130 190 105
-0.057890 0.030717 0.669000 148 208 123
-0.056155 0.030717 0.669000 142 185 126
-0.268316 0.032308 0.666000 74 89 71
-0.266188 0.032260 0.665000 134 180 113
-0.264464 0.032260 0.665000 154 200 133
-0.262740 0.032260 0.665000 126 187 99
-0.261015 0.032260 0.665000 105 166 78
-0.258901 0.032211 0.664000 82 135 68
-0.066364 0.032357 0.667000 36 72 38
-0.064635 0.032357 0.667000 72 108 74
-0.062905 0.032357 0.667000 108 166 86
-0.061268 0.032405 0.668000 118 176 96
-0.059536 0.032405 0.668000 152 210 126
-0.057890 0.032454 0.669000 149 207 123
-0.266188 0.033986 0.665000 77 110 64
-0.264464 0.033986 0.665000 151 184 138
-0.262345 0.033935 0.664000 144 202 118
-0.260623 0.033935 0.664000 119 177 93
-0.258511 0.033884 0.663000 96 156 75
-0.256792 0.033884 0.663000 70 130 49
-0.067992 0.034037 0.666000 43 68 51
-0.066265 0.034037 0.666000 60 109 53
-0.064635 0.034089 0.667000 104 153 97
-0.062905 0.034089 0.667000 122 181 92
-0.061176 0.034089 0.667000 151 210 121
-0.059536 0.034140 0.668000 161 215 141
-0.264066 0.035659 0.664000 98 122 92
-0.261950 0.035606 0.663000 155 202 130
-0.260230 0.035606 0.663000 149 196 124
-0.258121 0.035552 0.662000 113 172 85
-0.256405 0.035552 0.662000 90 149 62
-0.254304 0.035498 0.661000 77 124 62
-0.069719 0.035767 0.666000 37 68 38
-0.067992 0.035767 0.666000 59 90 60
-0.066265 0.035767 0.666000 99 156 79
-0.064635 0.035820 0.667000 121 178 101
-0.062905 0.035820 0.667000 148 209 119
-0.061176 0.035820 0.667000 163 224 134
-0.059446 0.035820 0.667000 108 159 93
-0.261555 0.037271 0.662000 110 145 91
-0.259838 0.037271 0.662000 169 204 150
-0.257342 0.037158 0.660000 140 195 114
-0.255630 0.037158 0.660000 110 165 84
-0.253534 0.037102 0.659000 90 145 66
-0.069719 0.037496 0.666000 49 93 38
-0.067992 0.037496 0.666000 105 149 94
-0.066265 0.037496 0.666000 122 183 93
-0.064538 0.037496 0.666000 141 202 112
-0.062905 0.037552 0.667000 163 227 138
-0.061176 0.037552 0.667000 127 191 102
-0.261159 0.038931 0.661000 56 83 50
-0.258660 0.038813 0.659000 122 149 116
-0.256952 0.038813 0.659000 162 212 135
-0.254468 0.038695 0.657000 139 189 112
-0.252765 0.038695 0.657000 98 156 72
-0.073063 0.039166 0.665000 39 70 36
-0.071339 0.039166 0.665000 55 86 52
-0.069614 0.039166 0.665000 99 154 75
-0.067992 0.039225 0.666000 126 181 102
-0.066265 0.039225 0.666000 135 200 104
-0.064538 0.039225 0.666000 161 226 130
-0.062811 0.039225 0.666000 139 198 120
-0.258268 0.040462 0.658000 62 82 65
-0.256172 0.040401 0.657000 129 169 111
-0.254468 0.040401 0.657000 172 212 154
-0.252380 0.040339 0.656000 135 191 105
-0.250679 0.040339 0.656000 110 166 80
-0.248978 0.040339 0.656000 87 146 70
-0.073063 0.040893 0.665000 51 98 38
-0.071339 0.040893 0.665000 103 150 90
-0.069614 0.040893 0.665000 125 187 94
-0.067890 0.040893 0.665000 135 197 104
-0.066265 0.040954 0.666000 160 225 131
-0.064538 0.040954 0.666000 137 202 108
-0.255782 0.042043 0.656000 67 98 56
-0.254081 0.042043 0.656000 144 175 133
-0.252380 0.042043 0.656000 164 214 135
-0.250297 0.041978 0.655000 143 193 114
-0.248598 0.041978 0.655000 107 167 82
-0.246900 0.041978 0.655000 86 146 61
-0.076396 0.042555 0.664000 37 72 34
-0.074675 0.042555 0.664000 54 89 51
-0.072953 0.042555 0.664000 105 165 82
-0.071339 0.042619 0.665000 122 182 99
-0.069614 0.042619 0.665000 139 205 104
-0.067890 0.042619 0.665000 161 227 126
-0.066165 0.042619 0.665000 148 204 132
-0.253694 0.043679 0.655000 78 100 73
-0.251995 0.043679 0.655000 141 182 117
-0.250297 0.043679 0.655000 174 215 150
-0.248598 0.043679 0.655000 135 194 107
-0.246900 0.043679 0.655000 101 160 73
-0.244827 0.043612 0.654000 97 155 82
-0.078001 0.044213 0.663000 44 67 42
-0.076396 0.044279 0.664000 62 108 41
-0.074675 0.044279 0.664000 111 157 90
-0.072953 0.044279 0.664000 119 185 84
-0.071339 0.044346 0.665000 132 198 97
-0.069614 0.044346 0.665000 158 224 133
-0.067890 0.044346 0.665000 146 212 121
-0.251995 0.045380 0.655000 72 104 55
-0.250297 0.045380 0.655000 145 177 128
-0.248598 0.045380 0.655000 164 217 137
-0.246523 0.045311 0.654000 136 189 109
-0.244827 0.045311 0.654000 104 164 81
-0.243131 0.045311 0.654000 92 152 69
-0.079720 0.045934 0.663000 45 81 34
-0.078001 0.045934 0.663000 77 113 66
-0.076281 0.045934 0.663000 102 159 68
-0.074675 0.046003 0.664000 123 180 89
-0.072953 0.046003 0.664000 135 200 102
-0.071339 0.046073 0.665000 161 226 128
-0.069614 0.046073 0.665000 146 209 127
-0.249915 0.047009 0.654000 70 89 63
-0.248219 0.047009 0.654000 136 180 112
-0.246523 0.047009 0.654000 176 220 152
-0.244827 0.047009 0.654000 145 203 121
-0.243131 0.047009 0.654000 112 170 88
-0.241436 0.047009 0.654000 82 144 67
-0.239740 0.047009 0.654000 64 126 49
-0.081439 0.047655 0.663000 53 80 47
-0.079720 0.047655 0.663000 90 139 67
-0.078001 0.047655 0.663000 111 160 88
-0.076281 0.047655 0.663000 124 184 88
-0.074675 0.047727 0.664000 154 214 118
-0.072953 0.047727 0.664000 166 233 139
-0.071231 0.047727 0.664000 131 198 104
-0.248219 0.048707 0.654000 64 97 51
-0.246523 0.048707 0.654000 142 175 129
-0.244827 0.048707 0.654000 171 224 144
-0.243131 0.048707 0.654000 150 203 123
-0.241066 0.048632 0.653000 109 172 86
-0.239373 0.048632 0.653000 88 151 65
-0.237680 0.048632 0.653000 65 122 56
-0.083033 0.049302 0.662000 53 92 39
-0.081439 0.049377 0.663000 95 134 81
-0.079720 0.049377 0.663000 112 171 82
-0.078001 0.049377 0.663000 128 187 98
-0.076281 0.049377 0.663000 160 222 127
-0.074675 0.049451 0.664000 168 230 135
-0.072953 0.049451 0.664000 123 179 109
-0.246523 0.050405 0.654000 68 91 66
-0.244827 0.050405 0.654000 130 174 110
-0.242760 0.050328 0.653000 172 216 152
-0.241066 0.050328 0.653000 154 213 124
-0.239373 0.050328 0.653000 115 174 85
-0.237680 0.050328 0.653000 87 150 66
-0.235987 0.050328 0.653000 73 136 52
-0.086466 0.051021 0.662000 38 73 33
-0.084749 0.051021 0.662000 68 103 63
-0.083033 0.051021 0.662000 107 161 85
-0.081439 0.051098 0.663000 125 179 103
-0.079720 0.051098 0.663000 133 193 99
-0.078001 0.051098 0.663000 169 229 135
-0.076281 0.051098 0.663000 176 236 151
-0.074562 0.051098 0.663000 115 175 90
-0.244453 0.052023 0.653000 74 100 60
-0.242760 0.052023 0.653000 127 153 113
-0.241066 0.052023 0.653000 169 219 140
-0.239373 0.052023 0.653000 160 210 131
-0.237680 0.052023 0.653000 119 184 90
-0.235625 0.051943 0.652000 85 150 56
-0.233935 0.051943 0.652000 69 127 58
-0.231888 0.051864 0.651000 56 114 45
-0.088049 0.052660 0.661000 52 76 48
-0.086466 0.052740 0.662000 77 125 56
-0.084749 0.052740 0.662000 117 165 96
-0.083033 0.052740 0.662000 132 194 101
-0.081439 0.052820 0.663000 137 199 106
-0.079599 0.052740 0.662000 174 235 145
-0.078001 0.052820 0.663000 170 231 141
-0.076281 0.052820 0.663000 100 149 95
-0.242760 0.053719 0.653000 65 79 59
-0.240697 0.053636 0.652000 114 149 93
-0.239007 0.053636 0.652000 172 207 151
-0.237316 0.053636 0.652000 157 216 127
-0.235264 0.053554 0.651000 135 194 105
-0.233217 0.053472 0.650000 95 159 68
-0.231532 0.053472 0.650000 80 144 53
-0.091200 0.054212 0.659000 48 69 47
-0.089491 0.054212 0.659000 61 104 45
-0.088049 0.054377 0.661000 107 150 91
-0.086335 0.054377 0.661000 126 186 94
-0.084621 0.054377 0.661000 136 196 104
-0.083033 0.054459 0.662000 152 217 121
-0.081316 0.054459 0.662000 169 234 138
-0.079720 0.054541 0.663000 146 204 133
-0.078001 0.054541 0.663000 65 123 52
-0.238640 0.055244 0.651000 112 135 101
-0.236952 0.055244 0.651000 152 205 125
-0.235264 0.055244 0.651000 161 214 134
-0.233217 0.055159 0.650000 137 202 106
-0.231532 0.055159 0.650000 103 168 72
-0.229493 0.055075 0.649000 91 151 70
-0.094331 0.055753 0.657000 45 60 44
-0.091062 0.055838 0.658000 89 125 78
-0.089491 0.055923 0.659000 118 173 90
-0.087916 0.056008 0.660000 129 184 101
-0.086335 0.056093 0.661000 135 197 104
-0.084621 0.056093 0.661000 165 227 134
-0.083033 0.056178 0.662000 165 225 142
-0.081316 0.056178 0.662000 129 189 106
-0.079720 0.056263 0.663000 44 85 36
-0.236952 0.056935 0.651000 79 114 58
-0.234903 0.056847 0.650000 153 188 132
-0.233217 0.056847 0.650000 161 221 129
-0.231176 0.056760 0.649000 150 210 118
-0.229139 0.056672 0.648000 118 180 87
-0.227459 0.056672 0.648000 91 153 60
-0.225082 0.056497 0.646000 76 130 56
-0.096034 0.057459 0.657000 46 77 35
-0.094331 0.057459 0.657000 73 104 62
-0.091062 0.057547 0.658000 119 171 98
-0.089491 0.057634 0.659000 133 197 106
-0.087916 0.057722 0.660000 146 210 119
-0.086335 0.057809 0.661000 174 235 147
-0.084621 0.057809 0.661000 153 214 126
-0.083033 0.057897 0.662000 103 150 88
-0.081439 0.057984 0.663000 34 81 19
-0.234903 0.058535 0.650000 76 98 69
-0.233217 0.058535 0.650000 123 170 96
-0.231176 0.058445 0.649000 168 215 141
-0.229493 0.058445 0.649000 155 215 121
-0.227459 0.058355 0.648000 138 198 104
-0.225082 0.058175 0.646000 107 166 77
-0.223061 0.058084 0.645000 92 151 62
-0.221388 0.058084 0.645000 72 120 55
-0.099290 0.059075 0.656000 45 75 38
-0.097589 0.059075 0.656000 70 100 63
-0.096034 0.059165 0.657000 91 139 70
-0.094331 0.059165 0.657000 116 164 95
-0.091062 0.059255 0.658000 148 207 118
-0.089356 0.059255 0.658000 167 228 138
-0.087783 0.059345 0.659000 174 235 145
-0.086335 0.059525 0.661000 136 189 120
-0.084621 0.059525 0.661000 57 110 41
-0.232858 0.060130 0.649000 58 86 48
-0.231176 0.060130 0.649000 94 122 84
-0.229139 0.060037 0.648000 154 202 123
-0.227459 0.060037 0.648000 165 213 134
-0.225082 0.059852 0.646000 150 207 114
-0.223061 0.059759 0.645000 123 180 87
-0.221388 0.059759 0.645000 101 157 71
-0.219375 0.059666 0.644000 88 144 58
-0.102535 0.060686 0.655000 49 78 46
-0.100991 0.060778 0.656000 66 95 63
-0.099290 0.060778 0.656000 86 137 69
-0.097589 0.060778 0.656000 105 156 88
-0.096034 0.060871 0.657000 123 183 91
-0.094331 0.060871 0.657000 140 200 108
-0.092627 0.060871 0.657000 163 223 129
-0.089356 0.060964 0.658000 159 211 136
-0.087783 0.061056 0.659000 97 149 74
-0.086204 0.061149 0.660000 40 71 37
-0.229493 0.061815 0.649000 70 102 53
-0.227459 0.061720 0.648000 141 173 124
-0.225430 0.061624 0.647000 168 217 131
-0.223407 0.061529 0.646000 164 213 127
-0.221388 0.061434 0.645000 140 197 102
-0.219375 0.061339 0.644000 116 173 78
-0.217705 0.061339 0.644000 73 131 47
-0.216035 0.061339 0.644000 67 125 41
-0.105932 0.062386 0.655000 53 82 50
-0.104234 0.062386 0.655000 66 95 63
-0.102535 0.062386 0.655000 83 134 68
-0.100991 0.062482 0.656000 110 161 95
-0.099290 0.062482 0.656000 121 186 90
-0.097589 0.062482 0.656000 134 199 103
-0.095888 0.062482 0.656000 160 222 125
-0.094187 0.062482 0.656000 181 243 146
-0.092627 0.062577 0.657000 176 234 154
-0.089356 0.062672 0.658000 70 111 66
-0.087783 0.062767 0.659000 35 76 31
-0.227459 0.063402 0.648000 67 86 60
-0.225779 0.063402 0.648000 110 145 87
-0.223752 0.063304 0.647000 169 204 146
-0.221732 0.063206 0.646000 167 218 132
-0.219716 0.063109 0.645000 160 211 125
-0.217705 0.063011 0.644000 127 190 90
-0.216035 0.063011 0.644000 99 162 62
-0.214033 0.062913 0.643000 83 141 59
-0.107795 0.064185 0.656000 66 97 55
-0.106094 0.064185 0.656000 92 138 71
-0.104234 0.064087 0.655000 120 166 99
-0.102535 0.064087 0.655000 123 184 94
-0.100837 0.064087 0.655000 136 197 107
-0.099139 0.064087 0.655000 153 220 124
-0.097589 0.064185 0.656000 175 242 146
-0.095888 0.064185 0.656000 186 246 161
-0.094187 0.064185 0.656000 142 202 117
-0.092627 0.064283 0.657000 83 127 74
-0.090923 0.064283 0.657000 35 79 26
-0.224444 0.065185 0.649000 81 103 72
-0.222418 0.065085 0.648000 143 184 117
-0.220397 0.064984 0.647000 169 210 143
-0.218043 0.064783 0.645000 163 220 127
-0.216371 0.064783 0.645000 147 204 111
-0.214366 0.064683 0.644000 127 189 92
-0.212696 0.064683 0.644000 94 156 59
-0.210698 0.064582 0.643000 87 144 67
-0.112726 0.065788 0.655000 56 88 39
-0.111027 0.065788 0.655000 72 104 55
-0.107795 0.065888 0.656000 121 168 96
-0.105932 0.065788 0.655000 131 187 101
-0.104234 0.065788 0.655000 146 202 116
-0.102535 0.065788 0.655000 155 219 128
-0.100837 0.065788 0.655000 174 238 147
-0.099290 0.065888 0.656000 182 245 159
-0.097589 0.065888 0.656000 161 224 138
-0.095888 0.065888 0.656000 93 140 82
-0.092627 0.065988 0.657000 45 71 45
-0.221078 0.066870 0.649000 98 122 90
-0.219058 0.066767 0.648000 150 200 123
-0.216706 0.066561 0.646000 168 218 141
-0.215031 0.066561 0.646000 160 222 125
-0.213026 0.066458 0.645000 144 206 109
-0.211026 0.066355 0.644000 115 182 86
-0.209031 0.066252 0.643000 95 162 66
-0.207364 0.066252 0.643000 89 149 68
-0.116123 0.067488 0.655000 66 104 49
-0.114424 0.067488 0.655000 87 125 70
-0.112726 0.067488 0.655000 102 155 75
-0.111027 0.067488 0.655000 122 175 95
-0.107795 0.067591 0.656000 140 199 110
-0.105932 0.067488 0.655000 163 222 135
-0.104234 0.067488 0.655000 180 239 152
-0.102535 0.067488 0.655000 182 242 161
-0.100837 0.067488 0.655000 163 223 142
-0.097589 0.067591 0.656000 49 99 40
-0.219396 0.068555 0.649000 65 96 54
-0.217377 0.068449 0.648000 119 150 108
-0.215697 0.068449 0.648000 145 201 115
-0.213356 0.068238 0.646000 172 228 142
-0.211353 0.068133 0.645000 155 220 122
-0.209356 0.068027 0.644000 138 203 105
-0.207364 0.067921 0.643000 113 178 80
-0.205696 0.067921 0.643000 95 160 62
-0.203712 0.067816 0.642000 85 143 61
-0.117641 0.069083 0.654000 94 138 72
-0.114424 0.069189 0.655000 121 176 93
-0.112726 0.069189 0.655000 133 193 99
-0.111027 0.069189 0.655000 147 207 113
-0.107795 0.069295 0.656000 186 246 154
-0.106094 0.069295 0.656000 185 242 165
-0.104393 0.069295 0.656000 149 206 129
-0.102692 0.069295 0.656000 107 149 97
-0.216030 0.070240 0.649000 56 94 46
-0.214017 0.070132 0.648000 107 145 97
-0.211681 0.069915 0.646000 153 207 122
-0.209681 0.069807 0.645000 173 227 142
-0.207364 0.069591 0.643000 158 219 118
-0.205696 0.069591 0.643000 143 204 103
-0.203712 0.069483 0.642000 118 182 77
-0.201732 0.069374 0.641000 103 167 62
-0.199758 0.069266 0.640000 89 151 58
-0.197479 0.069050 0.638000 79 141 48
-0.116123 0.070890 0.655000 138 196 98
-0.114424 0.070890 0.655000 156 214 116
-0.112726 0.070890 0.655000 177 237 143
-0.111027 0.070890 0.655000 186 246 152
-0.109329 0.070890 0.655000 185 238 158
-0.106094 0.070998 0.656000 89 130 81
-0.104393 0.070998 0.656000 52 93 44
-0.211681 0.071593 0.646000 68 107 56
-0.209681 0.071482 0.645000 109 148 97
-0.207364 0.071260 0.643000 161 209 128
-0.205376 0.071149 0.642000 171 219 138
-0.203712 0.071149 0.642000 157 221 116
-0.201732 0.071039 0.641000 148 212 107
-0.199446 0.070817 0.639000 127 192 80
-0.197170 0.070595 0.637000 114 179 67
-0.195211 0.070485 0.636000 106 159 61
-0.116123 0.072590 0.655000 180 240 148
-0.114424 0.072590 0.655000 186 246 154
-0.112726 0.072590 0.655000 179 231 158
-0.111027 0.072590 0.655000 121 173 100
-0.207364 0.072930 0.643000 64 93 48
-0.205376 0.072816 0.642000 107 136 91
-0.203394 0.072703 0.641000 149 199 118
-0.201732 0.072703 0.641000 171 221 140
-0.199446 0.072476 0.639000 172 229 125
-0.197170 0.072249 0.637000 165 222 118
-0.195211 0.072136 0.636000 148 205 99
-0.192953 0.071909 0.634000 134 191 85
-0.191309 0.071909 0.634000 118 175 71
-0.189366 0.071796 0.633000 97 154 50
-0.114424 0.074291 0.655000 92 144 82
-0.203394 0.074367 0.641000 64 93 48
-0.201418 0.074251 0.640000 80 109 64
-0.199446 0.074135 0.639000 141 184 107
-0.197170 0.073903 0.637000 172 215 138
-0.195211 0.073787 0.636000 181 234 136
-0.192953 0.073555 0.634000 176 229 131
-0.191309 0.073555 0.634000 165 222 116
-0.189366 0.073439 0.633000 150 207 101
-0.199446 0.075794 0.639000 64 90 50
-0.197170 0.075557 0.637000 78 104 64
-0.195211 0.075438 0.636000 108 145 75
-0.192953 0.075201 0.634000 151 188 118
-0.191309 0.075201 0.634000 183 229 135
-0.189366 0.075083 0.633000 194 240 146
-0.192953 0.076847 0.634000 61 81 48
-0.191008 0.076726 0.633000 73 102 43
-0.189366 0.076726 0.633000 113 142 83
-0.207315 0.100749 0.781000 60 90 51
-0.205290 0.100749 0.781000 56 86 47
-0.203265 0.100749 0.781000 44 86 45
-0.201240 0.100749 0.781000 42 84 43
-0.199215 0.100749 0.781000 39 87 49
-0.197189 0.100749 0.781000 37 85 47
-0.195164 0.100749 0.781000 38 89 52
-0.193139 0.100749 0.781000 40 91 54
-0.190869 0.100620 0.780000 39 87 49
-0.188847 0.100620 0.780000 39 87 49
-0.186824 0.100620 0.780000 51 91 51
-0.184802 0.100620 0.780000 49 89 49
-0.182545 0.100491 0.779000 57 86 45
-0.180525 0.100491 0.779000 57 86 45
