ply
format ascii 1.0
element vertex 1893
property float x
property float y
property float z
property uchar red
property uchar green
property uchar blue
end_header
0.001957 -0.211611 0.458000 69 86 68
0.003141 -0.211611 0.458000 51 76 57
0.004324 -0.211611 0.458000 46 71 52
-0.000411 -0.210885 0.459000 125 137 113
0.000773 -0.210426 0.458000 64 87 64
0.001957 -0.210426 0.458000 64 87 64
0.003141 -0.210426 0.458000 64 91 69
0.004324 -0.210426 0.458000 58 85 63
0.005508 -0.210426 0.458000 56 85 63
0.006691 -0.210426 0.458000 57 86 64
-0.001597 -0.209698 0.459000 113 132 106
-0.000410 -0.209241 0.458000 77 96 70
0.000773 -0.209241 0.458000 70 98 71
0.001957 -0.209241 0.458000 72 100 73
0.003141 -0.209241 0.458000 66 96 69
0.004324 -0.209241 0.458000 65 95 68
0.005508 -0.209241 0.458000 62 92 67
-0.002783 -0.208510 0.459000 121 135 113
-0.001594 -0.208056 0.458000 77 101 71
-0.000410 -0.208056 0.458000 77 101 71
0.000773 -0.208056 0.458000 73 107 76
0.001957 -0.208056 0.458000 69 103 72
0.003141 -0.208056 0.458000 69 103 72
0.004324 -0.208056 0.458000 66 100 69
0.005508 -0.208056 0.458000 65 93 68
-0.005167 -0.207774 0.460000 131 133 120
-0.003970 -0.207322 0.459000 125 142 114
-0.002777 -0.206870 0.458000 90 107 79
-0.001594 -0.206870 0.458000 78 109 77
-0.000410 -0.206870 0.458000 76 107 75
0.000773 -0.206870 0.458000 75 114 79
0.001957 -0.206870 0.458000 73 112 77
0.003141 -0.206870 0.458000 69 105 73
0.004324 -0.206870 0.458000 63 99 67
0.005508 -0.206870 0.458000 76 98 78
-0.006356 -0.206583 0.460000 125 137 113
-0.005156 -0.206134 0.459000 125 137 113
-0.003970 -0.206134 0.459000 88 111 77
-0.002777 -0.205685 0.458000 81 104 70
-0.001594 -0.205685 0.458000 81 115 80
-0.000409 -0.205236 0.457000 81 115 80
0.000773 -0.205685 0.458000 72 113 77
0.001957 -0.205685 0.458000 69 110 74
0.003141 -0.205685 0.458000 66 101 72
0.004324 -0.205685 0.458000 66 101 72
-0.007545 -0.205393 0.460000 134 140 123
-0.006356 -0.205393 0.460000 125 142 112
-0.005156 -0.204946 0.459000 103 120 90
-0.003961 -0.204500 0.458000 82 110 74
-0.002777 -0.204500 0.458000 85 113 77
-0.001594 -0.204500 0.458000 77 113 77
-0.000409 -0.204053 0.457000 75 111 75
0.000772 -0.204053 0.457000 69 110 76
0.001957 -0.204500 0.458000 65 106 72
0.003141 -0.204500 0.458000 69 99 74
0.004324 -0.204500 0.458000 71 101 76
-0.008752 -0.204646 0.461000 126 137 116
-0.007545 -0.204202 0.460000 131 142 121
-0.006356 -0.204202 0.460000 101 125 93
-0.005156 -0.203759 0.459000 82 106 74
-0.003970 -0.203759 0.459000 80 111 77
-0.002777 -0.203315 0.458000 84 115 81
-0.001594 -0.203315 0.458000 79 118 85
-0.000409 -0.202871 0.457000 72 111 78
0.000773 -0.203315 0.458000 66 105 79
0.001957 -0.203315 0.458000 64 103 77
0.003141 -0.203315 0.458000 77 104 82
-0.008733 -0.203012 0.460000 127 146 120
-0.007545 -0.203012 0.460000 102 121 95
-0.006342 -0.202571 0.459000 82 113 83
-0.005156 -0.202571 0.459000 78 109 79
-0.003961 -0.202129 0.458000 79 115 83
-0.002777 -0.202129 0.458000 80 116 84
-0.001594 -0.202129 0.458000 79 117 89
-0.000409 -0.201688 0.457000 77 115 87
0.000773 -0.202129 0.458000 70 104 84
0.001957 -0.202129 0.458000 70 104 84
-0.009944 -0.202260 0.461000 137 148 127
-0.008733 -0.201822 0.460000 110 139 109
-0.007545 -0.201822 0.460000 81 110 80
-0.006342 -0.201383 0.459000 77 113 81
-0.005156 -0.201383 0.459000 79 115 83
-0.003961 -0.200944 0.458000 79 117 87
-0.002777 -0.200944 0.458000 77 115 85
-0.001594 -0.200944 0.458000 77 114 91
-0.000410 -0.200944 0.458000 77 114 91
0.000772 -0.200505 0.457000 87 115 102
-0.011135 -0.201067 0.461000 133 151 128
-0.009922 -0.200631 0.460000 121 139 116
-0.008733 -0.200631 0.460000 79 117 89
-0.007545 -0.200631 0.460000 75 113 85
-0.006342 -0.200195 0.459000 74 116 85
-0.005156 -0.200195 0.459000 77 119 88
-0.003961 -0.199759 0.458000 78 118 89
-0.002777 -0.199759 0.458000 77 117 88
-0.001594 -0.199759 0.458000 82 114 95
-0.000409 -0.199323 0.457000 84 116 97
-0.012326 -0.199874 0.461000 136 146 123
-0.011111 -0.199441 0.460000 122 150 123
-0.009922 -0.199441 0.460000 82 110 83
-0.008733 -0.199441 0.460000 74 116 85
-0.007528 -0.199007 0.459000 75 117 86
-0.006342 -0.199007 0.459000 72 117 87
-0.005156 -0.199007 0.459000 73 118 88
-0.003961 -0.198574 0.458000 82 119 94
-0.002777 -0.198574 0.458000 81 118 93
-0.001594 -0.198574 0.458000 88 114 101
-0.013518 -0.198681 0.461000 139 151 125
-0.012326 -0.198681 0.461000 135 147 121
-0.011111 -0.198250 0.460000 83 118 89
-0.009922 -0.198250 0.460000 79 114 85
-0.008733 -0.198250 0.460000 73 120 87
-0.007545 -0.198250 0.460000 73 120 87
-0.006342 -0.197820 0.459000 72 119 88
-0.005156 -0.197820 0.459000 74 121 90
-0.003961 -0.197389 0.458000 88 122 102
-0.002777 -0.197389 0.458000 91 125 105
-0.014709 -0.197488 0.461000 143 145 127
-0.013518 -0.197488 0.461000 135 154 126
-0.012326 -0.197488 0.461000 91 110 82
-0.011111 -0.197060 0.460000 71 112 78
-0.009922 -0.197060 0.460000 76 117 83
-0.008733 -0.197060 0.460000 74 121 88
-0.007528 -0.196632 0.459000 73 120 87
-0.006342 -0.196632 0.459000 76 120 95
-0.005156 -0.196632 0.459000 81 125 100
-0.003970 -0.196632 0.459000 96 127 113
-0.015900 -0.196295 0.461000 142 149 127
-0.014709 -0.196295 0.461000 148 155 133
-0.013518 -0.196295 0.461000 88 114 88
-0.012300 -0.195870 0.460000 80 106 80
-0.011111 -0.195870 0.460000 73 118 88
-0.009922 -0.195870 0.460000 74 119 89
-0.008733 -0.195870 0.460000 74 120 92
-0.007528 -0.195444 0.459000 74 120 92
-0.006342 -0.195444 0.459000 85 123 104
-0.005156 -0.195444 0.459000 90 128 109
-0.017092 -0.195103 0.461000 140 142 126
-0.015900 -0.195103 0.461000 143 158 133
-0.014709 -0.195103 0.461000 105 120 95
-0.013488 -0.194679 0.460000 70 105 78
-0.012300 -0.194679 0.460000 80 115 88
-0.011111 -0.194679 0.460000 75 119 92
-0.009922 -0.194679 0.460000 75 119 92
-0.008733 -0.194679 0.460000 76 120 95
-0.007528 -0.194256 0.459000 81 125 100
-0.006342 -0.194256 0.459000 91 127 111
-0.018283 -0.193910 0.461000 138 148 125
-0.017092 -0.193910 0.461000 146 156 133
-0.015900 -0.193910 0.461000 96 123 94
-0.014709 -0.193910 0.461000 76 103 74
-0.013488 -0.193489 0.460000 77 117 88
-0.012300 -0.193489 0.460000 79 119 90
-0.011111 -0.193489 0.460000 75 119 94
-0.009922 -0.193489 0.460000 77 121 96
-0.008733 -0.193489 0.460000 85 125 106
-0.007528 -0.193068 0.459000 88 128 109
-0.019474 -0.192717 0.461000 145 148 132
-0.018283 -0.192717 0.461000 134 156 127
-0.017092 -0.192717 0.461000 102 124 95
-0.015866 -0.192299 0.460000 77 113 81
-0.014677 -0.192299 0.460000 81 117 85
-0.013488 -0.192299 0.460000 76 121 91
-0.012300 -0.192299 0.460000 77 122 92
-0.011111 -0.192299 0.460000 77 121 98
-0.009922 -0.192299 0.460000 80 124 101
-0.008714 -0.191880 0.459000 93 126 111
-0.020666 -0.191524 0.461000 133 145 121
-0.019474 -0.191524 0.461000 153 165 141
-0.018283 -0.191524 0.461000 100 131 99
-0.017055 -0.191108 0.460000 83 114 82
-0.015866 -0.191108 0.460000 83 124 90
-0.014677 -0.191108 0.460000 78 119 85
-0.013488 -0.191108 0.460000 78 120 91
-0.012300 -0.191108 0.460000 77 119 90
-0.011111 -0.191108 0.460000 84 123 101
-0.009900 -0.190693 0.459000 88 127 105
-0.021857 -0.190331 0.461000 135 141 124
-0.020666 -0.190331 0.461000 153 175 148
-0.019432 -0.189918 0.460000 119 141 114
-0.018243 -0.189918 0.460000 80 119 86
-0.017055 -0.189918 0.460000 81 120 87
-0.015866 -0.189918 0.460000 81 124 90
-0.014677 -0.189918 0.460000 79 122 88
-0.013488 -0.189918 0.460000 80 120 91
-0.012273 -0.189505 0.459000 84 124 95
-0.011087 -0.189505 0.459000 95 128 113
-0.022998 -0.188727 0.460000 129 143 121
-0.021810 -0.188727 0.460000 158 172 150
-0.020621 -0.188727 0.460000 126 157 127
-0.019432 -0.188727 0.460000 80 111 81
-0.018243 -0.188727 0.460000 76 118 87
-0.017055 -0.188727 0.460000 78 120 89
-0.015831 -0.188317 0.459000 81 123 92
-0.014645 -0.188317 0.459000 83 125 94
-0.013459 -0.188317 0.459000 85 124 100
-0.012273 -0.188317 0.459000 87 126 102
-0.024187 -0.187537 0.460000 137 140 124
-0.022998 -0.187537 0.460000 157 179 152
-0.021762 -0.187129 0.459000 138 160 133
-0.020576 -0.187129 0.459000 72 110 80
-0.019390 -0.187129 0.459000 75 113 83
-0.018204 -0.187129 0.459000 78 120 89
-0.017018 -0.187129 0.459000 79 121 90
-0.015831 -0.187129 0.459000 79 123 96
-0.014645 -0.187129 0.459000 81 125 98
-0.013459 -0.187129 0.459000 89 125 107
-0.025321 -0.185941 0.459000 134 141 119
-0.024135 -0.185941 0.459000 165 172 150
-0.022948 -0.185941 0.459000 135 164 134
-0.021715 -0.185536 0.458000 87 116 86
-0.020531 -0.185536 0.458000 75 114 81
-0.019348 -0.185536 0.458000 82 121 88
-0.018164 -0.185536 0.458000 82 124 93
-0.016980 -0.185536 0.458000 79 121 90
-0.015797 -0.185536 0.458000 82 123 101
-0.014613 -0.185536 0.458000 85 126 104
-0.026565 -0.185156 0.460000 137 139 123
-0.025321 -0.184754 0.459000 152 167 140
-0.024082 -0.184351 0.458000 157 172 145
-0.022898 -0.184351 0.458000 91 125 92
-0.021715 -0.184351 0.458000 80 114 81
-0.020531 -0.184351 0.458000 81 121 90
-0.019348 -0.184351 0.458000 85 125 94
-0.018164 -0.184351 0.458000 81 120 94
-0.016980 -0.184351 0.458000 78 117 91
-0.015797 -0.184351 0.458000 86 124 107
-0.027754 -0.183966 0.460000 135 141 122
-0.026565 -0.183966 0.460000 151 157 138
-0.025321 -0.183566 0.459000 151 170 140
-0.024082 -0.183166 0.458000 108 127 97
-0.022898 -0.183166 0.458000 78 117 82
-0.021715 -0.183166 0.458000 86 125 90
-0.020531 -0.183166 0.458000 81 123 92
-0.019348 -0.183166 0.458000 83 125 94
-0.018164 -0.183166 0.458000 80 119 93
-0.016980 -0.183166 0.458000 86 125 99
-0.028942 -0.182775 0.460000 142 139 125
-0.027693 -0.182378 0.459000 150 160 135
-0.026507 -0.182378 0.459000 161 171 146
-0.025266 -0.181981 0.458000 111 135 105
-0.024082 -0.181981 0.458000 87 111 81
-0.022848 -0.181583 0.457000 80 121 85
-0.021667 -0.181583 0.457000 84 125 89
-0.020486 -0.181583 0.457000 81 123 92
-0.019305 -0.181583 0.457000 84 126 95
-0.018124 -0.181583 0.457000 85 122 101
-0.016943 -0.181583 0.457000 94 131 110
-0.028942 -0.181585 0.460000 148 147 132
-0.027633 -0.180795 0.458000 162 174 146
-0.026449 -0.180795 0.458000 123 135 107
-0.025266 -0.180795 0.458000 79 110 78
-0.024029 -0.180401 0.457000 87 118 86
-0.022848 -0.180401 0.457000 81 124 90
-0.021667 -0.180401 0.457000 82 125 91
-0.020486 -0.180401 0.457000 82 124 95
-0.019305 -0.180401 0.457000 86 128 99
-0.018124 -0.180401 0.457000 95 126 110
-0.030131 -0.180395 0.460000 143 150 128
-0.028879 -0.180002 0.459000 162 169 147
-0.027633 -0.179610 0.458000 117 141 111
-0.026449 -0.179610 0.458000 88 112 82
-0.025211 -0.179218 0.457000 86 125 92
-0.024029 -0.179218 0.457000 86 125 92
-0.022848 -0.179218 0.457000 78 120 89
-0.021667 -0.179218 0.457000 81 123 92
-0.020486 -0.179218 0.457000 86 123 100
-0.019305 -0.179218 0.457000 89 126 103
-0.031320 -0.179204 0.460000 143 146 125
-0.030066 -0.178815 0.459000 161 178 150
-0.028816 -0.178425 0.458000 131 148 120
-0.027633 -0.178425 0.458000 80 111 81
-0.026449 -0.178425 0.458000 86 117 87
-0.025211 -0.178035 0.457000 85 123 93
-0.024029 -0.178035 0.457000 82 120 90
-0.022848 -0.178035 0.457000 83 122 96
-0.021667 -0.178035 0.457000 87 126 100
-0.020486 -0.178035 0.457000 92 123 107
-0.032509 -0.178014 0.460000 136 146 121
-0.031320 -0.178014 0.460000 161 171 146
-0.030000 -0.177240 0.458000 127 154 123
-0.028816 -0.177240 0.458000 79 106 75
-0.027633 -0.177240 0.458000 82 116 83
-0.026392 -0.176853 0.457000 87 121 88
-0.025211 -0.176853 0.457000 86 124 94
-0.024029 -0.176853 0.457000 85 123 93
-0.022848 -0.176853 0.457000 84 121 98
-0.021667 -0.176853 0.457000 94 131 108
-0.033697 -0.176823 0.460000 144 147 131
-0.032509 -0.176823 0.460000 155 174 144
-0.031184 -0.176055 0.458000 139 158 128
-0.030000 -0.176055 0.458000 83 114 80
-0.028816 -0.176055 0.458000 79 110 76
-0.027573 -0.175670 0.457000 84 123 88
-0.026392 -0.175670 0.457000 86 125 90
-0.025211 -0.175670 0.457000 87 125 97
-0.024029 -0.175670 0.457000 88 126 98
-0.022848 -0.175670 0.457000 94 125 109
-0.034962 -0.176015 0.461000 138 147 127
-0.033697 -0.175633 0.460000 161 170 150
-0.032438 -0.175251 0.459000 147 171 139
-0.031184 -0.174869 0.458000 92 116 84
-0.030000 -0.174869 0.458000 76 112 76
-0.028816 -0.174869 0.458000 86 122 86
-0.027573 -0.174488 0.457000 85 126 92
-0.026392 -0.174488 0.457000 86 127 93
-0.025211 -0.174488 0.457000 87 124 99
-0.024029 -0.174488 0.457000 89 126 101
-0.036075 -0.174443 0.460000 144 145 132
-0.034886 -0.174443 0.460000 155 170 145
-0.033624 -0.174063 0.459000 157 172 147
-0.032367 -0.173684 0.458000 101 130 98
-0.031184 -0.173684 0.458000 86 115 83
-0.030000 -0.173684 0.458000 82 121 86
-0.028754 -0.173305 0.457000 84 123 88
-0.027573 -0.173305 0.457000 85 125 94
-0.026392 -0.173305 0.457000 86 126 95
-0.025211 -0.173305 0.457000 91 127 109
-0.036075 -0.173252 0.460000 158 161 143
-0.034810 -0.172876 0.459000 161 180 154
-0.033551 -0.172499 0.458000 114 133 107
-0.032367 -0.172499 0.458000 77 116 83
-0.031184 -0.172499 0.458000 85 124 91
-0.030000 -0.172499 0.458000 82 125 91
-0.028816 -0.172499 0.458000 82 125 91
-0.027633 -0.172499 0.458000 84 125 99
-0.026392 -0.172122 0.457000 88 129 103
-0.037264 -0.172062 0.460000 150 154 133
-0.035996 -0.171688 0.459000 174 178 157
-0.034810 -0.171688 0.459000 132 159 130
-0.033551 -0.171314 0.458000 80 107 78
-0.032367 -0.171314 0.458000 78 120 89
-0.031184 -0.171314 0.458000 82 124 93
-0.030000 -0.171314 0.458000 80 125 95
-0.028816 -0.171314 0.458000 82 127 97
-0.027633 -0.171314 0.458000 88 128 109
-0.026449 -0.171314 0.458000 91 131 112
-0.038452 -0.170871 0.460000 143 142 125
-0.037102 -0.170128 0.458000 168 178 151
-0.035918 -0.170128 0.458000 149 159 132
-0.034734 -0.170128 0.458000 80 114 83
-0.033551 -0.170128 0.458000 83 117 86
-0.032367 -0.170128 0.458000 82 127 97
-0.031184 -0.170128 0.458000 81 126 96
-0.030000 -0.170128 0.458000 82 126 101
-0.028816 -0.170128 0.458000 83 127 102
-0.027633 -0.170128 0.458000 94 131 118
-0.039641 -0.169681 0.460000 145 148 125
-0.038369 -0.169312 0.459000 172 175 152
-0.037102 -0.168943 0.458000 158 176 143
-0.035918 -0.168943 0.458000 97 115 82
-0.034734 -0.168943 0.458000 78 117 84
-0.033551 -0.168943 0.458000 87 126 93
-0.032367 -0.168943 0.458000 80 129 100
-0.031184 -0.168943 0.458000 78 127 98
-0.030000 -0.168943 0.458000 90 130 111
-0.028816 -0.168943 0.458000 92 132 113
-0.040830 -0.168491 0.460000 145 144 127
-0.039555 -0.168124 0.459000 169 181 153
-0.038369 -0.168124 0.459000 173 185 157
-0.037102 -0.167758 0.458000 99 128 94
-0.035918 -0.167758 0.458000 86 115 81
-0.034734 -0.167758 0.458000 80 126 91
-0.033551 -0.167758 0.458000 80 126 91
-0.032367 -0.167758 0.458000 80 127 96
-0.031184 -0.167758 0.458000 82 129 98
-0.030000 -0.167758 0.458000 93 129 113
-0.042019 -0.167300 0.460000 138 142 119
-0.040830 -0.167300 0.460000 169 173 150
-0.039555 -0.166936 0.459000 170 189 161
-0.038369 -0.166936 0.459000 119 138 110
-0.037102 -0.166573 0.458000 79 115 83
-0.035840 -0.166209 0.457000 89 125 93
-0.034734 -0.166573 0.458000 80 127 94
-0.033551 -0.166573 0.458000 80 127 94
-0.032367 -0.166573 0.458000 82 126 99
-0.031184 -0.166573 0.458000 89 133 106
-0.043301 -0.166471 0.461000 143 140 126
-0.042019 -0.166110 0.460000 163 170 144
-0.040741 -0.165749 0.459000 180 187 161
-0.039555 -0.165749 0.459000 113 137 107
-0.038285 -0.165388 0.458000 87 111 81
-0.037102 -0.165388 0.458000 83 125 94
-0.035840 -0.165026 0.457000 84 126 95
-0.034734 -0.165388 0.458000 80 127 96
-0.033551 -0.165388 0.458000 80 127 96
-0.032367 -0.165388 0.458000 89 126 105
-0.043301 -0.165278 0.461000 161 160 143
-0.042019 -0.164919 0.460000 174 189 160
-0.040741 -0.164561 0.459000 130 145 116
-0.039555 -0.164561 0.459000 83 114 84
-0.038285 -0.164202 0.458000 90 121 91
-0.037102 -0.164202 0.458000 84 126 95
-0.035840 -0.163844 0.457000 82 124 93
-0.034734 -0.164202 0.458000 80 124 97
-0.033551 -0.164202 0.458000 83 127 100
-0.032367 -0.164202 0.458000 105 131 118
-0.044493 -0.164085 0.461000 144 148 125
-0.043207 -0.163729 0.460000 179 183 160
-0.042019 -0.163729 0.460000 132 156 124
-0.040741 -0.163373 0.459000 89 113 81
-0.039555 -0.163373 0.459000 86 122 88
-0.038285 -0.163017 0.458000 87 123 89
-0.037102 -0.163017 0.458000 86 126 95
-0.035918 -0.163017 0.458000 86 126 95
-0.034734 -0.163017 0.458000 89 126 103
-0.033551 -0.163017 0.458000 93 130 107
-0.045684 -0.162892 0.461000 146 148 132
-0.044493 -0.162892 0.461000 161 174 141
-0.043207 -0.162539 0.460000 160 173 140
-0.042019 -0.162539 0.460000 79 111 74
-0.040741 -0.162185 0.459000 78 110 73
-0.039555 -0.162185 0.459000 85 126 90
-0.038285 -0.161832 0.458000 85 126 90
-0.037102 -0.161832 0.458000 87 127 98
-0.035918 -0.161832 0.458000 88 128 99
-0.034734 -0.161832 0.458000 96 127 111
-0.045684 -0.161699 0.461000 165 169 146
-0.044493 -0.161699 0.461000 160 184 145
-0.043207 -0.161348 0.460000 100 124 85
-0.041927 -0.160997 0.459000 77 117 77
-0.040741 -0.160997 0.459000 87 127 87
-0.039555 -0.160997 0.459000 88 131 97
-0.038369 -0.160997 0.459000 88 131 97
-0.037102 -0.160647 0.458000 90 130 101
-0.035918 -0.160647 0.458000 92 132 103
-0.046875 -0.160506 0.461000 154 164 137
-0.045684 -0.160506 0.461000 177 187 160
-0.044396 -0.160158 0.460000 104 132 94
-0.043207 -0.160158 0.460000 87 115 77
-0.041927 -0.159810 0.459000 82 126 85
-0.040741 -0.159810 0.459000 88 132 91
-0.039555 -0.159810 0.459000 83 128 96
-0.038285 -0.159461 0.458000 83 128 96
-0.037102 -0.159461 0.458000 94 131 110
-0.035918 -0.159461 0.458000 95 132 111
-0.048067 -0.159313 0.461000 158 160 144
-0.046774 -0.158967 0.460000 177 189 161
-0.045585 -0.158967 0.460000 124 136 108
-0.044396 -0.158967 0.460000 80 115 77
-0.043207 -0.158967 0.460000 84 119 81
-0.041927 -0.158622 0.459000 80 126 87
-0.040741 -0.158622 0.459000 83 129 90
-0.039555 -0.158622 0.459000 83 128 98
-0.038285 -0.158276 0.458000 86 131 101
-0.037102 -0.158276 0.458000 100 133 118
-0.049258 -0.158120 0.461000 147 150 132
-0.047963 -0.157777 0.460000 179 182 164
-0.046774 -0.157777 0.460000 146 163 135
-0.045585 -0.157777 0.460000 96 113 85
-0.044300 -0.157434 0.459000 82 121 84
-0.043114 -0.157434 0.459000 86 125 88
-0.041927 -0.157434 0.459000 82 128 93
-0.040741 -0.157434 0.459000 84 130 95
-0.039469 -0.157091 0.458000 90 131 107
-0.038285 -0.157091 0.458000 91 132 108
-0.037102 -0.157091 0.458000 102 132 122
-0.050340 -0.156587 0.460000 148 146 134
-0.049151 -0.156587 0.460000 172 179 157
-0.047963 -0.156587 0.460000 165 172 150
-0.046672 -0.156246 0.459000 95 119 89
-0.045486 -0.156246 0.459000 85 109 79
-0.044300 -0.156246 0.459000 84 125 89
-0.043114 -0.156246 0.459000 88 129 93
-0.041927 -0.156246 0.459000 84 129 99
-0.040652 -0.155906 0.458000 89 134 104
-0.039469 -0.155906 0.458000 97 135 116
-0.038285 -0.155906 0.458000 100 138 119
-0.051529 -0.155396 0.460000 148 150 132
-0.050340 -0.155396 0.460000 160 162 144
-0.049044 -0.155058 0.459000 175 190 163
-0.047858 -0.155058 0.459000 115 130 103
-0.046672 -0.155058 0.459000 85 114 82
-0.045387 -0.154721 0.458000 94 123 91
-0.044300 -0.155058 0.459000 88 129 95
-0.043020 -0.154721 0.458000 90 131 97
-0.041836 -0.154721 0.458000 85 126 100
-0.040652 -0.154721 0.458000 93 134 108
-0.039469 -0.154721 0.458000 102 135 120
-0.051529 -0.154206 0.460000 160 167 141
-0.050231 -0.153871 0.459000 186 193 167
-0.049044 -0.153871 0.459000 124 146 115
-0.047754 -0.153535 0.458000 90 112 81
-0.046570 -0.153535 0.458000 90 124 91
-0.045387 -0.153535 0.458000 94 128 95
-0.044203 -0.153535 0.458000 89 128 95
-0.043020 -0.153535 0.458000 89 128 95
-0.041836 -0.153535 0.458000 97 131 111
-0.040652 -0.153535 0.458000 97 131 111
-0.052718 -0.153015 0.460000 155 157 139
-0.051417 -0.152683 0.459000 182 198 166
-0.050231 -0.152683 0.459000 143 159 127
-0.048938 -0.152350 0.458000 87 115 79
-0.047754 -0.152350 0.458000 94 122 86
-0.046570 -0.152350 0.458000 93 129 95
-0.045387 -0.152350 0.458000 90 126 92
-0.044203 -0.152350 0.458000 88 126 98
-0.043020 -0.152350 0.458000 91 129 101
-0.041836 -0.152350 0.458000 105 133 120
-0.053906 -0.151825 0.460000 151 155 134
-0.052718 -0.151825 0.460000 185 189 168
-0.051417 -0.151495 0.459000 142 165 131
-0.050121 -0.151165 0.458000 90 113 79
-0.048831 -0.150835 0.457000 84 119 81
-0.046570 -0.151165 0.458000 89 128 93
-0.045387 -0.151165 0.458000 91 130 95
-0.044203 -0.151165 0.458000 91 125 103
-0.043020 -0.151165 0.458000 98 132 110
-0.055095 -0.150635 0.460000 155 152 138
-0.053906 -0.150635 0.460000 170 180 155
-0.052603 -0.150307 0.459000 167 177 152
-0.051305 -0.149980 0.458000 93 121 85
-0.050121 -0.149980 0.458000 86 114 78
-0.048831 -0.149652 0.457000 88 124 88
-0.047650 -0.149652 0.457000 93 129 93
-0.046469 -0.149652 0.457000 92 130 100
-0.045288 -0.149652 0.457000 87 125 95
-0.043020 -0.149980 0.458000 105 133 118
-0.055095 -0.149444 0.460000 168 168 148
-0.053789 -0.149119 0.459000 173 191 158
-0.052603 -0.149119 0.459000 120 138 105
-0.051305 -0.148795 0.458000 75 109 74
-0.050121 -0.148795 0.458000 89 123 88
-0.048831 -0.148470 0.457000 91 130 95
-0.047650 -0.148470 0.457000 89 128 93
-0.046469 -0.148470 0.457000 91 128 103
-0.045288 -0.148470 0.457000 95 132 107
-0.056284 -0.148254 0.460000 151 155 130
-0.055095 -0.148254 0.460000 189 193 168
-0.053789 -0.147932 0.459000 123 148 113
-0.052488 -0.147609 0.458000 82 107 72
-0.051305 -0.147609 0.458000 86 125 88
-0.050012 -0.147287 0.457000 91 130 93
-0.048831 -0.147287 0.457000 91 131 100
-0.047650 -0.147287 0.457000 91 131 100
-0.046469 -0.147287 0.457000 96 133 112
-0.045288 -0.147287 0.457000 100 137 116
-0.056284 -0.147063 0.460000 184 194 167
-0.054975 -0.146744 0.459000 150 160 133
-0.053789 -0.146744 0.459000 77 108 74
-0.052488 -0.146424 0.458000 85 116 82
-0.051305 -0.146424 0.458000 86 132 95
-0.050121 -0.146424 0.458000 84 130 93
-0.048831 -0.146104 0.457000 85 127 98
-0.047650 -0.146104 0.457000 86 128 99
-0.046469 -0.146104 0.457000 99 130 114
-0.057473 -0.145873 0.460000 180 183 162
-0.056284 -0.145873 0.460000 161 176 147
-0.054975 -0.145556 0.459000 97 112 83
-0.053789 -0.145556 0.459000 83 119 85
-0.052488 -0.145239 0.458000 89 125 91
-0.051305 -0.145239 0.458000 82 130 94
-0.050012 -0.144922 0.457000 83 131 95
-0.048831 -0.144922 0.457000 90 131 105
-0.047650 -0.144922 0.457000 91 132 106
-0.058661 -0.144683 0.460000 173 177 154
-0.057473 -0.144683 0.460000 174 178 155
-0.056162 -0.144368 0.459000 110 132 101
-0.054975 -0.144368 0.459000 86 108 77
-0.053672 -0.144054 0.458000 90 126 92
-0.052488 -0.144054 0.458000 91 127 93
-0.051305 -0.144054 0.458000 85 127 98
-0.050012 -0.143739 0.457000 89 131 102
-0.048831 -0.143739 0.457000 97 131 111
-0.059850 -0.143492 0.460000 153 156 138
-0.058661 -0.143492 0.460000 174 189 160
-0.057348 -0.143180 0.459000 136 151 122
-0.056162 -0.143180 0.459000 85 114 80
-0.054975 -0.143180 0.459000 89 118 84
-0.053672 -0.142868 0.458000 93 129 95
-0.052488 -0.142868 0.458000 91 127 93
-0.051305 -0.142868 0.458000 93 127 103
-0.050121 -0.142868 0.458000 100 134 110
-0.061039 -0.142302 0.460000 147 154 130
-0.059720 -0.141993 0.459000 179 186 162
-0.058534 -0.141993 0.459000 142 165 131
-0.057348 -0.141993 0.459000 88 111 77
-0.056039 -0.141683 0.458000 92 124 87
-0.054856 -0.141683 0.458000 94 126 89
-0.053672 -0.141683 0.458000 93 129 95
-0.052488 -0.141683 0.458000 91 127 93
-0.051305 -0.141683 0.458000 101 133 112
-0.060906 -0.140805 0.459000 173 190 160
-0.059720 -0.140805 0.459000 153 170 140
-0.058406 -0.140498 0.458000 89 119 82
-0.057223 -0.140498 0.458000 92 122 85
-0.056039 -0.140498 0.458000 93 129 93
-0.054856 -0.140498 0.458000 93 129 93
-0.053672 -0.140498 0.458000 95 130 101
-0.052488 -0.140498 0.458000 98 133 104
-0.062092 -0.139617 0.459000 181 184 163
-0.060906 -0.139617 0.459000 156 178 147
-0.059590 -0.139313 0.458000 95 117 86
-0.058406 -0.139313 0.458000 83 119 85
-0.057223 -0.139313 0.458000 91 127 93
-0.056039 -0.139313 0.458000 89 128 95
-0.054856 -0.139313 0.458000 88 127 94
-0.053672 -0.139313 0.458000 95 127 104
-0.063279 -0.138429 0.459000 167 171 148
-0.061957 -0.138128 0.458000 178 182 159
-0.060774 -0.138128 0.458000 104 131 100
-0.059590 -0.138128 0.458000 85 112 81
-0.058406 -0.138128 0.458000 85 124 91
-0.057223 -0.138128 0.458000 89 128 95
-0.056039 -0.138128 0.458000 88 128 97
-0.054856 -0.138128 0.458000 92 132 101
-0.053672 -0.138128 0.458000 101 130 110
-0.064324 -0.136942 0.458000 155 152 138
-0.063141 -0.136942 0.458000 174 186 158
-0.061822 -0.136643 0.457000 133 145 117
-0.060641 -0.136643 0.457000 78 112 81
-0.059460 -0.136643 0.457000 88 122 91
-0.058279 -0.136643 0.457000 87 127 96
-0.057098 -0.136643 0.457000 91 131 100
-0.055917 -0.136643 0.457000 92 132 101
-0.054736 -0.136643 0.457000 98 138 107
-0.065508 -0.135757 0.458000 145 148 125
-0.064324 -0.135757 0.458000 180 183 160
-0.063003 -0.135461 0.457000 153 175 144
-0.061822 -0.135461 0.457000 92 114 83
-0.060641 -0.135461 0.457000 84 123 90
-0.059460 -0.135461 0.457000 87 126 93
-0.058279 -0.135461 0.457000 91 131 100
-0.057098 -0.135461 0.457000 91 131 100
-0.055917 -0.135461 0.457000 100 135 108
-0.065508 -0.134572 0.458000 174 184 159
-0.064184 -0.134278 0.457000 181 191 166
-0.063003 -0.134278 0.457000 93 120 87
-0.061822 -0.134278 0.457000 82 109 76
-0.060508 -0.133984 0.456000 86 126 95
-0.059460 -0.134278 0.457000 87 127 96
-0.058279 -0.134278 0.457000 92 131 105
-0.057098 -0.134278 0.457000 100 139 113
-0.055917 -0.134278 0.457000 108 137 117
-0.066692 -0.133387 0.458000 165 164 147
-0.065365 -0.133095 0.457000 183 198 169
-0.064043 -0.132804 0.456000 126 141 112
-0.062865 -0.132804 0.456000 90 121 89
-0.061687 -0.132804 0.456000 90 121 89
-0.060508 -0.132804 0.456000 88 128 97
-0.058279 -0.133095 0.457000 95 129 109
-0.057098 -0.133095 0.457000 104 138 118
-0.067875 -0.132201 0.458000 154 158 135
-0.066546 -0.131913 0.457000 187 191 168
-0.065365 -0.131913 0.457000 141 163 132
-0.064043 -0.131624 0.456000 93 115 84
-0.062865 -0.131624 0.456000 89 128 93
-0.061687 -0.131624 0.456000 92 131 96
-0.060508 -0.131624 0.456000 90 130 99
-0.058279 -0.131913 0.457000 105 134 116
-0.057098 -0.131913 0.457000 107 136 118
-0.069059 -0.131016 0.458000 147 146 129
-0.067727 -0.130730 0.457000 174 184 157
-0.066546 -0.130730 0.457000 178 188 161
-0.065222 -0.130444 0.456000 97 131 98
-0.064043 -0.130444 0.456000 84 118 85
-0.062865 -0.130444 0.456000 88 131 97
-0.061687 -0.130444 0.456000 89 132 98
-0.060508 -0.130444 0.456000 90 124 100
-0.059330 -0.130444 0.456000 98 132 108
-0.069059 -0.129831 0.458000 174 178 155
-0.067727 -0.129547 0.457000 178 200 169
-0.066400 -0.129264 0.456000 111 133 102
-0.065222 -0.129264 0.456000 80 121 87
-0.064043 -0.129264 0.456000 87 128 94
-0.062865 -0.129264 0.456000 86 131 99
-0.061687 -0.129264 0.456000 80 125 93
-0.060508 -0.129264 0.456000 107 141 119
-0.059330 -0.129264 0.456000 111 145 123
-0.070242 -0.128646 0.458000 157 165 136
-0.068908 -0.128365 0.457000 191 199 170
-0.067579 -0.128084 0.456000 126 155 123
-0.066400 -0.128084 0.456000 87 116 84
-0.065222 -0.128084 0.456000 84 127 93
-0.064043 -0.128084 0.456000 90 133 99
-0.062865 -0.128084 0.456000 89 131 102
-0.061687 -0.128084 0.456000 92 134 105
-0.060508 -0.128084 0.456000 110 142 123
-0.071582 -0.127739 0.459000 155 153 134
-0.070242 -0.127461 0.458000 180 193 160
-0.068908 -0.127182 0.457000 153 166 133
-0.067579 -0.126904 0.456000 80 114 81
-0.066400 -0.126904 0.456000 87 121 88
-0.065222 -0.126904 0.456000 89 131 100
-0.064043 -0.126904 0.456000 90 132 101
-0.062865 -0.126904 0.456000 98 135 112
-0.061687 -0.126904 0.456000 107 144 121
-0.072927 -0.126827 0.460000 152 155 132
-0.071582 -0.126551 0.459000 167 170 147
-0.070242 -0.126275 0.458000 159 182 146
-0.068908 -0.126000 0.457000 104 127 91
-0.067579 -0.125724 0.456000 81 120 85
-0.066400 -0.125724 0.456000 89 128 93
-0.065222 -0.125724 0.456000 90 132 103
-0.064043 -0.125724 0.456000 86 128 99
-0.062865 -0.125724 0.456000 107 141 119
-0.072768 -0.125363 0.459000 156 169 138
-0.071426 -0.125090 0.458000 176 189 158
-0.070089 -0.124817 0.457000 103 133 96
-0.068908 -0.124817 0.457000 91 121 84
-0.067579 -0.124544 0.456000 91 132 96
-0.066400 -0.124544 0.456000 91 132 96
-0.065222 -0.124544 0.456000 87 127 98
-0.064043 -0.124544 0.456000 98 138 109
-0.073954 -0.124175 0.459000 161 165 144
-0.072768 -0.124175 0.459000 179 197 164
-0.071426 -0.123905 0.458000 132 150 117
-0.070089 -0.123634 0.457000 83 117 82
-0.068908 -0.123634 0.457000 94 128 93
-0.067579 -0.123364 0.456000 94 135 99
-0.066400 -0.123364 0.456000 88 129 93
-0.065222 -0.123364 0.456000 96 133 108
-0.064043 -0.123364 0.456000 115 152 127
-0.075304 -0.123256 0.460000 158 162 139
-0.073954 -0.122988 0.459000 181 185 162
-0.072610 -0.122720 0.458000 140 162 131
-0.071270 -0.122452 0.457000 95 117 86
-0.070089 -0.122452 0.457000 87 126 89
-0.068908 -0.122452 0.457000 93 132 95
-0.067579 -0.122184 0.456000 94 133 100
-0.066400 -0.122184 0.456000 87 126 93
-0.065222 -0.122184 0.456000 121 155 131
-0.075140 -0.121800 0.459000 167 177 152
-0.073793 -0.121534 0.458000 168 178 153
-0.072451 -0.121269 0.457000 101 128 97
-0.071270 -0.121269 0.457000 90 117 86
-0.070089 -0.121269 0.457000 92 133 97
-0.068757 -0.121004 0.456000 93 134 98
-0.067579 -0.121004 0.456000 91 129 101
-0.066400 -0.121004 0.456000 107 145 117
-0.076327 -0.120612 0.459000 160 162 144
-0.074977 -0.120349 0.458000 173 192 162
-0.073632 -0.120086 0.457000 120 139 109
-0.072451 -0.120086 0.457000 80 119 84
-0.071114 -0.119824 0.456000 91 130 95
-0.069936 -0.119824 0.456000 92 135 101
-0.068757 -0.119824 0.456000 92 135 101
-0.067579 -0.119824 0.456000 102 134 111
-0.066400 -0.119824 0.456000 129 161 138
-0.077513 -0.119424 0.459000 143 150 126
-0.076160 -0.119164 0.458000 183 190 166
-0.074813 -0.118904 0.457000 132 159 128
-0.073632 -0.118904 0.457000 87 114 83
-0.072451 -0.118904 0.457000 86 127 91
-0.071114 -0.118644 0.456000 91 132 96
-0.069936 -0.118644 0.456000 92 132 103
-0.068757 -0.118644 0.456000 88 128 99
-0.067579 -0.118644 0.456000 130 157 137
-0.077344 -0.117979 0.458000 172 182 155
-0.075994 -0.117721 0.457000 170 180 153
-0.074813 -0.117721 0.457000 95 122 89
-0.073471 -0.117464 0.456000 95 122 89
-0.072292 -0.117464 0.456000 92 133 97
-0.071114 -0.117464 0.456000 91 132 96
-0.069936 -0.117464 0.456000 88 123 96
-0.068757 -0.117464 0.456000 116 151 124
-0.078356 -0.116539 0.457000 166 168 150
-0.077175 -0.116539 0.457000 174 192 159
-0.075828 -0.116284 0.456000 124 142 109
-0.074649 -0.116284 0.456000 84 118 83
-0.073471 -0.116284 0.456000 94 128 93
-0.072292 -0.116284 0.456000 94 133 98
-0.071114 -0.116284 0.456000 91 130 95
-0.069936 -0.116284 0.456000 108 137 115
-0.068757 -0.116284 0.456000 137 166 144
-0.079537 -0.115356 0.457000 143 150 124
-0.078356 -0.115356 0.457000 181 188 162
-0.077006 -0.115103 0.456000 139 164 129
-0.075828 -0.115103 0.456000 91 116 81
-0.074649 -0.115103 0.456000 90 126 90
-0.073471 -0.115103 0.456000 97 133 97
-0.072292 -0.115103 0.456000 100 135 106
-0.071114 -0.115103 0.456000 101 136 107
-0.069936 -0.115103 0.456000 136 158 140
-0.080895 -0.114423 0.458000 153 153 133
-0.079537 -0.114173 0.457000 173 189 157
-0.078185 -0.113923 0.456000 160 176 144
-0.077006 -0.113923 0.456000 89 119 82
-0.075828 -0.113923 0.456000 87 117 80
-0.074649 -0.113923 0.456000 91 127 91
-0.073471 -0.113923 0.456000 95 131 95
-0.072292 -0.113923 0.456000 92 121 101
-0.071114 -0.113923 0.456000 126 155 135
-0.080718 -0.112991 0.457000 167 170 147
-0.079363 -0.112743 0.456000 171 189 154
-0.078185 -0.112743 0.456000 115 133 98
-0.077006 -0.112743 0.456000 85 117 80
-0.075828 -0.112743 0.456000 93 125 88
-0.074486 -0.112496 0.455000 94 129 100
-0.073310 -0.112496 0.455000 87 122 93
-0.072134 -0.112496 0.455000 117 144 126
-0.081899 -0.111808 0.457000 157 162 134
-0.080541 -0.111563 0.456000 183 188 160
-0.079363 -0.111563 0.456000 127 152 117
-0.078185 -0.111563 0.456000 88 113 78
-0.076837 -0.111319 0.455000 90 124 89
-0.075661 -0.111319 0.455000 96 130 95
-0.074486 -0.111319 0.455000 89 124 97
-0.073310 -0.111319 0.455000 105 140 113
-0.072134 -0.111319 0.455000 140 164 150
-0.083080 -0.110625 0.457000 152 151 134
-0.081720 -0.110383 0.456000 176 192 160
-0.080541 -0.110383 0.456000 159 175 143
-0.079189 -0.110141 0.455000 94 124 87
-0.078013 -0.110141 0.455000 93 123 86
-0.076837 -0.110141 0.455000 96 130 97
-0.075661 -0.110141 0.455000 96 130 97
-0.074486 -0.110141 0.455000 101 128 108
-0.073310 -0.110141 0.455000 146 173 153
-0.082898 -0.109203 0.456000 172 176 153
-0.081720 -0.109203 0.456000 176 196 163
-0.080365 -0.108964 0.455000 111 131 98
-0.079189 -0.108964 0.455000 91 125 90
-0.078013 -0.108964 0.455000 98 132 97
-0.076837 -0.108964 0.455000 98 132 99
-0.075661 -0.108964 0.455000 95 129 96
-0.074486 -0.108964 0.455000 127 154 134
-0.084077 -0.108023 0.456000 159 166 140
-0.082898 -0.108023 0.456000 179 186 160
-0.081720 -0.108023 0.456000 123 151 115
-0.080365 -0.107786 0.455000 93 121 85
-0.079189 -0.107786 0.455000 91 132 94
-0.078013 -0.107786 0.455000 94 135 97
-0.076837 -0.107786 0.455000 90 125 96
-0.075661 -0.107786 0.455000 100 135 106
-0.074486 -0.107786 0.455000 144 166 150
-0.085255 -0.106843 0.456000 152 151 134
-0.084077 -0.106843 0.456000 178 190 162
-0.082898 -0.106843 0.456000 157 169 141
-0.081541 -0.106609 0.455000 90 121 87
-0.080365 -0.106609 0.455000 98 129 95
-0.079189 -0.106609 0.455000 94 135 101
-0.078013 -0.106609 0.455000 90 131 97
-0.076837 -0.106609 0.455000 99 129 104
-0.075661 -0.106609 0.455000 139 169 144
-0.085255 -0.105663 0.456000 169 173 150
-0.084077 -0.105663 0.456000 166 188 157
-0.082717 -0.105431 0.455000 103 125 94
-0.081541 -0.105431 0.455000 93 129 95
-0.080365 -0.105431 0.455000 100 136 102
-0.079189 -0.105431 0.455000 95 132 107
-0.078013 -0.105431 0.455000 98 135 110
-0.076837 -0.105431 0.455000 132 154 136
-0.086434 -0.104483 0.456000 155 167 139
-0.085255 -0.104483 0.456000 185 197 169
-0.083892 -0.104254 0.455000 120 149 117
-0.082717 -0.104254 0.455000 93 122 90
-0.081541 -0.104254 0.455000 91 131 100
-0.080365 -0.104254 0.455000 91 131 100
-0.079189 -0.104254 0.455000 93 130 107
-0.078013 -0.104254 0.455000 115 152 129
-0.076837 -0.104254 0.455000 141 160 148
-0.087612 -0.103303 0.456000 159 162 141
-0.086434 -0.103303 0.456000 174 191 161
-0.085068 -0.103076 0.455000 136 153 123
-0.083892 -0.103076 0.455000 84 118 87
-0.082717 -0.103076 0.455000 94 128 97
-0.081541 -0.103076 0.455000 91 133 104
-0.080365 -0.103076 0.455000 89 131 102
-0.079189 -0.103076 0.455000 99 131 112
-0.078013 -0.103076 0.455000 139 171 152
-0.087420 -0.101899 0.455000 172 176 153
-0.086244 -0.101899 0.455000 151 175 143
-0.085068 -0.101899 0.455000 98 122 90
-0.083892 -0.101899 0.455000 90 126 94
-0.082717 -0.101899 0.455000 96 132 100
-0.081541 -0.101899 0.455000 92 133 107
-0.080365 -0.101899 0.455000 90 131 105
-0.079189 -0.101899 0.455000 134 163 145
-0.088596 -0.100722 0.455000 155 167 139
-0.087420 -0.100722 0.455000 171 183 155
-0.086244 -0.100722 0.455000 107 136 104
-0.085068 -0.100722 0.455000 94 123 91
-0.083708 -0.100500 0.454000 92 130 100
-0.082717 -0.100722 0.455000 94 132 102
-0.081541 -0.100722 0.455000 93 127 105
-0.080365 -0.100722 0.455000 117 151 129
-0.079189 -0.100722 0.455000 147 171 157
-0.089772 -0.099544 0.455000 154 153 138
-0.088596 -0.099544 0.455000 175 192 164
-0.087420 -0.099544 0.455000 132 149 121
-0.086054 -0.099325 0.454000 89 120 90
-0.084881 -0.099325 0.454000 97 128 98
-0.083708 -0.099325 0.454000 95 133 103
-0.082717 -0.099544 0.455000 92 130 100
-0.081541 -0.099544 0.455000 107 136 116
-0.080365 -0.099544 0.455000 141 170 150
-0.089772 -0.098367 0.455000 176 179 161
-0.088596 -0.098367 0.455000 142 166 136
-0.087228 -0.098150 0.454000 92 116 86
-0.086054 -0.098150 0.454000 89 123 90
-0.084881 -0.098150 0.454000 95 129 96
-0.083708 -0.098150 0.454000 95 133 103
-0.082535 -0.098150 0.454000 94 132 102
-0.081541 -0.098367 0.455000 137 162 143
-0.080365 -0.098367 0.455000 149 174 155
-0.090947 -0.097189 0.455000 154 169 144
-0.089772 -0.097189 0.455000 169 184 159
-0.088401 -0.096976 0.454000 102 131 99
-0.087228 -0.096976 0.454000 91 120 88
-0.086054 -0.096976 0.454000 92 131 96
-0.084881 -0.096976 0.454000 91 130 95
-0.083708 -0.096976 0.454000 88 121 93
-0.082535 -0.096976 0.454000 124 157 129
-0.081541 -0.097189 0.455000 149 171 153
-0.092326 -0.096223 0.456000 144 146 128
-0.090947 -0.096012 0.455000 175 194 168
-0.089772 -0.096012 0.455000 135 154 128
-0.088401 -0.095801 0.454000 79 118 83
-0.087228 -0.095801 0.454000 89 128 93
-0.086054 -0.095801 0.454000 102 143 109
-0.084881 -0.095801 0.454000 90 131 97
-0.083708 -0.095801 0.454000 106 136 111
-0.082535 -0.095801 0.454000 143 173 148
-0.093504 -0.095043 0.456000 147 150 129
-0.092123 -0.094834 0.455000 176 179 158
-0.090947 -0.094834 0.455000 152 174 145
-0.089574 -0.094626 0.454000 97 119 90
-0.088401 -0.094626 0.454000 86 125 92
-0.087228 -0.094626 0.454000 92 131 98
-0.086054 -0.094626 0.454000 92 132 101
-0.084881 -0.094626 0.454000 88 128 97
-0.083708 -0.094626 0.454000 139 164 143
-0.082535 -0.094626 0.454000 151 176 155
-0.093299 -0.093657 0.455000 161 165 142
-0.092123 -0.093657 0.455000 181 185 162
-0.090748 -0.093451 0.454000 125 147 118
-0.089574 -0.093451 0.454000 89 111 82
-0.088401 -0.093451 0.454000 89 128 95
-0.087228 -0.093451 0.454000 91 130 97
-0.086054 -0.093451 0.454000 86 124 96
-0.084881 -0.093451 0.454000 116 154 126
-0.083708 -0.093451 0.454000 146 171 150
-0.094683 -0.092683 0.456000 156 150 135
-0.093299 -0.092479 0.455000 178 185 159
-0.091921 -0.092276 0.454000 163 170 144
-0.090548 -0.092073 0.453000 93 120 89
-0.088401 -0.092276 0.454000 97 133 101
-0.087228 -0.092276 0.454000 91 127 95
-0.086054 -0.092276 0.454000 102 134 111
-0.084881 -0.092276 0.454000 146 178 155
-0.094475 -0.091302 0.455000 175 173 154
-0.092889 -0.090901 0.453000 168 183 154
-0.091718 -0.090901 0.453000 114 129 100
-0.090548 -0.090901 0.453000 94 123 91
-0.089377 -0.090901 0.453000 101 130 98
-0.088206 -0.090901 0.453000 103 134 104
-0.086054 -0.091101 0.454000 134 161 139
-0.084881 -0.091101 0.454000 148 175 153
-0.095651 -0.090124 0.455000 151 154 129
-0.094475 -0.090124 0.455000 184 187 162
-0.092889 -0.089728 0.453000 134 153 125
-0.091718 -0.089728 0.453000 95 114 86
-0.090548 -0.089728 0.453000 99 130 98
-0.089377 -0.089728 0.453000 103 134 102
-0.088206 -0.089728 0.453000 99 129 102
-0.086054 -0.089926 0.454000 154 179 160
-0.095651 -0.088947 0.455000 172 179 153
-0.094060 -0.088556 0.453000 170 177 151
-0.092889 -0.088556 0.453000 88 115 82
-0.091516 -0.088361 0.452000 96 123 90
-0.090548 -0.088556 0.453000 101 135 102
-0.089377 -0.088556 0.453000 98 132 99
-0.088206 -0.088556 0.453000 108 135 113
-0.087036 -0.088556 0.453000 144 171 149
-0.096827 -0.087770 0.455000 170 168 149
-0.095441 -0.087577 0.454000 183 198 169
-0.093852 -0.087191 0.452000 115 130 101
-0.092684 -0.087191 0.452000 87 121 86
-0.091516 -0.087191 0.452000 92 126 91
-0.090348 -0.087191 0.452000 99 132 104
-0.089377 -0.087384 0.453000 94 127 99
-0.088206 -0.087384 0.453000 133 160 142
-0.096614 -0.086402 0.454000 182 186 163
-0.095020 -0.086021 0.452000 132 156 124
-0.093852 -0.086021 0.452000 90 114 82
-0.092479 -0.085831 0.451000 93 129 97
-0.091313 -0.085831 0.451000 96 132 100
-0.090348 -0.086021 0.452000 91 124 98
-0.089180 -0.086021 0.452000 111 144 118
-0.088206 -0.086211 0.453000 153 175 157
-0.097787 -0.085227 0.454000 168 179 149
-0.096188 -0.084851 0.452000 170 181 151
-0.095020 -0.084851 0.452000 98 127 93
-0.093644 -0.084664 0.451000 99 128 94
-0.092479 -0.084664 0.451000 94 133 100
-0.091313 -0.084664 0.451000 96 135 102
-0.090148 -0.084664 0.451000 105 132 110
-0.089180 -0.084851 0.452000 155 182 160
-0.098960 -0.084052 0.454000 158 158 138
-0.097356 -0.083682 0.452000 184 197 166
-0.096188 -0.083682 0.452000 128 141 110
-0.094810 -0.083497 0.451000 87 118 84
-0.093644 -0.083497 0.451000 99 130 96
-0.092479 -0.083497 0.451000 101 137 105
-0.091313 -0.083497 0.451000 91 127 95
-0.090148 -0.083497 0.451000 127 149 129
-0.089180 -0.083682 0.452000 159 181 161
-0.098306 -0.082330 0.451000 177 177 153
-0.097141 -0.082330 0.451000 143 163 130
-0.095763 -0.082147 0.450000 98 118 85
-0.094600 -0.082147 0.450000 95 129 94
-0.093437 -0.082147 0.450000 97 131 96
-0.092274 -0.082147 0.450000 105 139 108
-0.091313 -0.082330 0.451000 102 136 105
-0.090148 -0.082330 0.451000 152 172 153
-0.099472 -0.081162 0.451000 165 169 144
-0.098306 -0.081162 0.451000 182 186 161
-0.096926 -0.080982 0.450000 100 127 94
-0.095763 -0.080982 0.450000 87 114 81
-0.094600 -0.080982 0.450000 93 129 93
-0.093437 -0.080982 0.450000 98 134 98
-0.092274 -0.080982 0.450000 108 137 107
-0.091313 -0.081162 0.451000 143 172 142
-0.100637 -0.079995 0.451000 160 159 142
-0.099472 -0.079995 0.451000 178 188 161
-0.098088 -0.079818 0.450000 135 145 118
-0.096926 -0.079818 0.450000 82 113 79
-0.095763 -0.079818 0.450000 98 129 95
-0.094600 -0.079818 0.450000 100 136 102
-0.093437 -0.079818 0.450000 96 132 98
-0.092274 -0.079818 0.450000 129 152 127
-0.091313 -0.079995 0.451000 153 176 151
-0.100637 -0.078828 0.451000 172 176 155
-0.099251 -0.078653 0.450000 156 173 143
-0.098088 -0.078653 0.450000 101 118 88
-0.096926 -0.078653 0.450000 86 122 88
-0.095763 -0.078653 0.450000 96 132 98
-0.094600 -0.078653 0.450000 101 137 103
-0.093437 -0.078653 0.450000 96 132 98
-0.092274 -0.078653 0.450000 150 171 147
-0.101803 -0.077661 0.451000 158 165 141
-0.100414 -0.077489 0.450000 173 180 156
-0.099251 -0.077489 0.450000 119 143 111
-0.098088 -0.077489 0.450000 95 119 87
-0.096926 -0.077489 0.450000 95 134 99
-0.095763 -0.077489 0.450000 99 138 103
-0.094600 -0.077489 0.450000 99 129 102
-0.093437 -0.077489 0.450000 128 158 131
-0.101803 -0.076494 0.451000 181 191 164
-0.100414 -0.076324 0.450000 147 157 130
-0.099251 -0.076324 0.450000 91 120 88
-0.098088 -0.076324 0.450000 98 127 95
-0.096926 -0.076324 0.450000 97 133 101
-0.095763 -0.076324 0.450000 94 130 98
-0.094600 -0.076324 0.450000 122 148 122
-0.093437 -0.076324 0.450000 151 177 151
-0.102968 -0.075327 0.451000 168 168 148
-0.101577 -0.075160 0.450000 171 188 158
-0.100414 -0.075160 0.450000 104 121 91
-0.099251 -0.075160 0.450000 85 119 86
-0.098088 -0.075160 0.450000 98 132 99
-0.096926 -0.075160 0.450000 103 138 109
-0.095763 -0.075160 0.450000 95 130 101
-0.094600 -0.075160 0.450000 147 168 144
-0.093437 -0.075160 0.450000 154 175 151
-0.102968 -0.074160 0.451000 184 187 162
-0.101577 -0.073995 0.450000 142 162 129
-0.100414 -0.073995 0.450000 91 111 78
-0.099251 -0.073995 0.450000 94 128 95
-0.098088 -0.073995 0.450000 102 136 103
-0.096926 -0.073995 0.450000 98 131 103
-0.095763 -0.073995 0.450000 118 151 123
-0.094600 -0.073995 0.450000 157 178 156
-0.104134 -0.072993 0.451000 173 180 154
-0.102968 -0.072993 0.451000 181 188 162
-0.101577 -0.072831 0.450000 101 126 91
-0.100414 -0.072831 0.450000 98 123 88
-0.099251 -0.072831 0.450000 95 131 97
-0.098088 -0.072831 0.450000 100 136 102
-0.096926 -0.072831 0.450000 96 126 99
-0.095763 -0.072831 0.450000 147 177 150
-0.102740 -0.071666 0.450000 139 152 121
-0.101577 -0.071666 0.450000 85 116 82
-0.100414 -0.071666 0.450000 103 134 100
-0.099251 -0.071666 0.450000 101 135 102
-0.098088 -0.071666 0.450000 99 133 100
-0.096926 -0.071666 0.450000 126 149 126
-0.095763 -0.071666 0.450000 156 179 156
-0.105299 -0.070658 0.451000 179 182 159
-0.103903 -0.070502 0.450000 170 188 155
-0.102740 -0.070502 0.450000 104 122 89
-0.101577 -0.070502 0.450000 92 123 89
-0.100414 -0.070502 0.450000 105 136 102
-0.099251 -0.070502 0.450000 103 136 108
-0.098088 -0.070502 0.450000 106 139 111
-0.096926 -0.070502 0.450000 161 179 158
-0.105066 -0.069337 0.450000 186 190 167
-0.103903 -0.069337 0.450000 132 154 123
-0.102740 -0.069337 0.450000 93 115 84
-0.101577 -0.069337 0.450000 95 129 96
-0.100414 -0.069337 0.450000 103 137 104
-0.099251 -0.069337 0.450000 103 132 110
-0.098088 -0.069337 0.450000 125 154 132
-0.096926 -0.069337 0.450000 161 174 157
-0.106229 -0.068173 0.450000 169 179 152
-0.105066 -0.068173 0.450000 174 184 157
-0.103903 -0.068173 0.450000 101 128 97
-0.102740 -0.068173 0.450000 100 127 96
-0.101577 -0.068173 0.450000 99 137 107
-0.100414 -0.068173 0.450000 101 139 109
-0.099251 -0.068173 0.450000 106 133 113
-0.098088 -0.068173 0.450000 149 176 156
-0.106229 -0.067008 0.450000 179 196 166
-0.105066 -0.067008 0.450000 131 148 118
-0.103903 -0.067008 0.450000 82 116 83
-0.102740 -0.067008 0.450000 101 135 102
-0.101577 -0.067008 0.450000 101 139 111
-0.100414 -0.067008 0.450000 98 136 108
-0.099251 -0.067008 0.450000 133 155 137
-0.098088 -0.067008 0.450000 151 173 155
-0.107392 -0.065844 0.450000 180 183 165
-0.106229 -0.065844 0.450000 161 183 152
-0.105066 -0.065844 0.450000 99 121 90
-0.103903 -0.065844 0.450000 78 117 84
-0.102740 -0.065844 0.450000 105 144 111
-0.101577 -0.065844 0.450000 97 131 107
-0.100414 -0.065844 0.450000 105 139 115
-0.099251 -0.065844 0.450000 155 172 156
-0.107392 -0.064679 0.450000 189 199 176
-0.106229 -0.064679 0.450000 122 146 114
-0.105066 -0.064679 0.450000 95 119 87
-0.103903 -0.064679 0.450000 92 131 98
-0.102740 -0.064679 0.450000 103 142 109
-0.101577 -0.064679 0.450000 97 129 108
-0.100414 -0.064679 0.450000 141 173 152
-0.099251 -0.064679 0.450000 163 173 159
-0.108555 -0.063515 0.450000 172 187 158
-0.107392 -0.063515 0.450000 164 179 150
-0.106229 -0.063515 0.450000 93 122 90
-0.104832 -0.063374 0.449000 101 130 98
-0.103903 -0.063515 0.450000 104 139 110
-0.102740 -0.063515 0.450000 104 139 110
-0.101577 -0.063515 0.450000 107 132 115
-0.100414 -0.063515 0.450000 156 181 164
-0.108555 -0.062350 0.450000 178 193 164
-0.107392 -0.062350 0.450000 126 141 112
-0.106229 -0.062350 0.450000 89 123 90
-0.104832 -0.062212 0.449000 99 133 100
-0.103903 -0.062350 0.450000 105 140 111
-0.102740 -0.062350 0.450000 102 137 108
-0.101577 -0.062350 0.450000 143 160 146
-0.100414 -0.062350 0.450000 157 174 160
-0.109718 -0.061186 0.450000 186 190 167
-0.108555 -0.061186 0.450000 157 176 146
-0.107153 -0.061050 0.449000 93 112 82
-0.105993 -0.061050 0.449000 87 123 91
-0.104832 -0.061050 0.449000 104 140 108
-0.103903 -0.061186 0.450000 106 138 115
-0.102740 -0.061186 0.450000 110 142 119
-0.101577 -0.061186 0.450000 160 175 161
-0.109718 -0.060021 0.450000 174 181 155
-0.108555 -0.060021 0.450000 112 136 104
-0.107153 -0.059888 0.449000 92 116 84
-0.105993 -0.059888 0.449000 95 130 101
-0.104832 -0.059888 0.449000 104 139 110
-0.103903 -0.060021 0.450000 104 133 111
-0.102740 -0.060021 0.450000 133 162 140
-0.101577 -0.060021 0.450000 163 173 159
-0.110881 -0.058857 0.450000 172 182 155
-0.109718 -0.058857 0.450000 156 166 139
-0.108314 -0.058726 0.449000 95 122 89
-0.107153 -0.058726 0.449000 93 120 87
-0.105993 -0.058726 0.449000 100 135 106
-0.104832 -0.058726 0.449000 102 137 108
-0.103903 -0.058857 0.450000 123 145 125
-0.102740 -0.058857 0.450000 158 180 160
-0.112043 -0.057692 0.450000 168 172 151
-0.110881 -0.057692 0.450000 174 190 158
-0.109718 -0.057692 0.450000 125 141 109
-0.108314 -0.057564 0.449000 87 116 82
-0.107153 -0.057564 0.449000 102 131 97
-0.105993 -0.057564 0.449000 105 138 112
-0.104832 -0.057564 0.449000 99 132 106
-0.103903 -0.057692 0.450000 146 166 147
-0.102740 -0.057692 0.450000 154 174 155
-0.112043 -0.056528 0.450000 174 181 159
-0.110881 -0.056528 0.450000 152 169 139
-0.109474 -0.056402 0.449000 101 118 88
-0.108314 -0.056402 0.449000 97 128 96
-0.107153 -0.056402 0.449000 107 138 106
-0.105993 -0.056402 0.449000 103 137 113
-0.104832 -0.056402 0.449000 110 144 120
-0.103903 -0.056528 0.450000 165 182 166
-0.112043 -0.055363 0.450000 182 192 169
-0.110634 -0.055240 0.449000 114 136 107
-0.109474 -0.055240 0.449000 97 119 90
-0.108314 -0.055240 0.449000 98 134 102
-0.107153 -0.055240 0.449000 101 137 105
-0.105993 -0.055240 0.449000 95 127 106
-0.104832 -0.055240 0.449000 133 165 144
-0.103672 -0.055240 0.449000 163 178 164
-0.113206 -0.054199 0.450000 168 178 155
-0.112043 -0.054199 0.450000 171 181 158
-0.110634 -0.054078 0.449000 98 122 92
-0.109474 -0.054078 0.449000 103 127 97
-0.108314 -0.054078 0.449000 102 138 106
-0.107153 -0.054078 0.449000 98 134 102
-0.105993 -0.054078 0.449000 110 137 117
-0.104832 -0.054078 0.449000 155 182 162
-0.113206 -0.053034 0.450000 176 191 166
-0.111795 -0.052916 0.449000 136 151 126
-0.110634 -0.052916 0.449000 86 117 85
-0.109474 -0.052916 0.449000 101 132 100
-0.108314 -0.052916 0.449000 104 139 110
-0.107153 -0.052916 0.449000 98 133 104
-0.105993 -0.052916 0.449000 139 161 143
-0.104832 -0.052916 0.449000 158 180 162
-0.114369 -0.051870 0.450000 176 179 161
-0.113206 -0.051870 0.450000 164 183 155
-0.111795 -0.051754 0.449000 104 123 95
-0.110634 -0.051754 0.449000 80 116 84
-0.109474 -0.051754 0.449000 98 134 102
-0.108314 -0.051754 0.449000 105 140 111
-0.107153 -0.051754 0.449000 104 139 110
-0.105993 -0.051754 0.449000 157 177 162
-0.114369 -0.050705 0.450000 187 191 170
-0.112955 -0.050592 0.449000 137 159 128
-0.111795 -0.050592 0.449000 95 117 86
-0.110634 -0.050592 0.449000 94 128 95
-0.109474 -0.050592 0.449000 104 138 105
-0.108314 -0.050592 0.449000 101 131 106
-0.107153 -0.050592 0.449000 132 162 137
-0.105993 -0.050592 0.449000 158 175 161
-0.115532 -0.049540 0.450000 165 175 150
-0.114369 -0.049540 0.450000 181 191 166
-0.112955 -0.049430 0.449000 101 125 93
-0.111795 -0.049430 0.449000 98 122 90
-0.110634 -0.049430 0.449000 102 136 103
-0.109474 -0.049430 0.449000 106 140 107
-0.108314 -0.049430 0.449000 106 133 111
-0.107392 -0.049540 0.450000 146 173 151
-0.115532 -0.048376 0.450000 175 190 161
-0.114369 -0.048376 0.450000 155 170 141
-0.112955 -0.048268 0.449000 92 121 89
-0.111795 -0.048268 0.449000 101 130 98
-0.110634 -0.048268 0.449000 104 138 107
-0.109474 -0.048268 0.449000 101 135 104
-0.108314 -0.048268 0.449000 131 156 137
-0.107392 -0.048376 0.450000 153 178 159
-0.116695 -0.047211 0.450000 167 169 153
-0.115532 -0.047211 0.450000 172 191 161
-0.114115 -0.047107 0.449000 118 137 107
-0.112955 -0.047107 0.449000 91 127 93
-0.111795 -0.047107 0.449000 101 137 103
-0.110634 -0.047107 0.449000 103 138 109
-0.109474 -0.047107 0.449000 100 135 106
-0.108555 -0.047211 0.450000 150 170 155
-0.116695 -0.046047 0.450000 172 175 157
-0.115532 -0.046047 0.450000 156 180 150
-0.114115 -0.045945 0.449000 95 119 89
-0.112955 -0.045945 0.449000 92 131 96
-0.111795 -0.045945 0.449000 102 141 106
-0.110634 -0.045945 0.449000 101 136 109
-0.109718 -0.046047 0.450000 115 150 123
-0.108555 -0.046047 0.450000 159 175 164
-0.116695 -0.044882 0.450000 183 190 168
-0.115532 -0.044882 0.450000 114 143 111
-0.114115 -0.044783 0.449000 87 116 84
-0.112955 -0.044783 0.449000 97 138 104
-0.111795 -0.044783 0.449000 104 145 111
-0.110634 -0.044783 0.449000 104 136 115
-0.109718 -0.044882 0.450000 127 159 138
-0.108555 -0.044882 0.450000 156 172 163
-0.117858 -0.043718 0.450000 170 182 158
-0.116436 -0.043621 0.449000 171 183 159
-0.115276 -0.043621 0.449000 84 120 84
-0.114115 -0.043621 0.449000 91 127 91
-0.112955 -0.043621 0.449000 98 141 107
-0.111795 -0.043621 0.449000 103 146 112
-0.110881 -0.043718 0.450000 120 147 127
-0.109718 -0.043718 0.450000 153 180 160
-0.117858 -0.042553 0.450000 172 191 165
-0.116436 -0.042459 0.449000 143 162 136
-0.115276 -0.042459 0.449000 78 117 82
-0.114115 -0.042459 0.449000 92 131 96
-0.112955 -0.042459 0.449000 104 144 113
-0.111795 -0.042459 0.449000 101 141 110
-0.110881 -0.042553 0.450000 141 163 143
-0.117596 -0.041297 0.449000 173 194 170
-0.116436 -0.041297 0.449000 106 127 103
-0.115276 -0.041297 0.449000 89 128 95
-0.114115 -0.041297 0.449000 101 140 107
-0.112955 -0.041297 0.449000 108 143 114
-0.111795 -0.041297 0.449000 103 138 109
-0.110881 -0.041389 0.450000 159 176 158
-0.118757 -0.040135 0.449000 177 183 166
-0.117596 -0.040135 0.449000 131 154 129
-0.116436 -0.040135 0.449000 92 115 90
-0.115276 -0.040135 0.449000 94 133 100
-0.114115 -0.040135 0.449000 101 140 107
-0.112955 -0.040135 0.449000 102 135 107
-0.111795 -0.040135 0.449000 129 162 134
-0.110881 -0.040224 0.450000 163 179 158
-0.118757 -0.038973 0.449000 178 189 168
-0.117334 -0.038886 0.448000 107 133 107
-0.116177 -0.038886 0.448000 93 119 93
-0.115019 -0.038886 0.448000 100 138 108
-0.113861 -0.038886 0.448000 103 141 111
-0.112955 -0.038973 0.449000 106 136 109
-0.111795 -0.038973 0.449000 149 179 152
-0.119650 -0.037727 0.448000 169 181 157
-0.118492 -0.037727 0.448000 157 169 145
-0.117072 -0.037643 0.447000 92 119 90
-0.115917 -0.037643 0.447000 100 127 98
-0.115019 -0.037727 0.448000 105 140 113
-0.113861 -0.037727 0.448000 102 137 110
-0.112955 -0.037811 0.449000 122 148 124
-0.111795 -0.037811 0.449000 159 185 161
-0.119383 -0.036486 0.447000 174 186 162
-0.118228 -0.036486 0.447000 119 131 107
-0.116810 -0.036404 0.446000 95 124 94
-0.115658 -0.036404 0.446000 105 134 104
-0.114762 -0.036486 0.447000 107 141 119
-0.113607 -0.036486 0.447000 98 132 110
-0.112703 -0.036568 0.448000 138 160 144
-0.111795 -0.036649 0.449000 156 178 162
-0.119116 -0.035250 0.446000 159 176 150
-0.117963 -0.035250 0.446000 102 119 93
-0.116810 -0.035250 0.446000 95 128 100
-0.115658 -0.035250 0.446000 102 135 107
-0.114505 -0.035250 0.446000 108 140 121
-0.113607 -0.035329 0.447000 103 135 116
-0.112703 -0.035408 0.448000 155 175 160
-0.120268 -0.034096 0.446000 179 182 166
-0.118849 -0.034020 0.445000 135 157 130
-0.117699 -0.034020 0.445000 91 113 86
-0.116549 -0.034020 0.445000 95 130 103
-0.115658 -0.034096 0.446000 108 143 116
-0.114505 -0.034096 0.446000 106 135 115
-0.113353 -0.034096 0.446000 122 151 131
-0.112452 -0.034172 0.447000 164 179 165
-0.119999 -0.032868 0.445000 177 186 168
-0.118849 -0.032868 0.445000 102 126 98
-0.117699 -0.032868 0.445000 88 112 84
-0.116549 -0.032868 0.445000 98 133 106
-0.115399 -0.032868 0.445000 107 142 115
-0.114505 -0.032942 0.446000 107 134 112
-0.113353 -0.032942 0.446000 148 175 153
-0.121149 -0.031716 0.445000 173 184 163
-0.119999 -0.031716 0.445000 171 182 161
-0.118849 -0.031716 0.445000 90 114 86
-0.117699 -0.031716 0.445000 94 118 90
-0.116549 -0.031716 0.445000 106 139 111
-0.115399 -0.031716 0.445000 108 141 113
-0.114249 -0.031716 0.445000 120 142 122
-0.113353 -0.031788 0.446000 161 183 163
-0.121149 -0.030565 0.445000 178 189 168
-0.119999 -0.030565 0.445000 134 145 124
-0.118582 -0.030496 0.444000 96 123 94
-0.117699 -0.030565 0.445000 96 123 94
-0.116549 -0.030565 0.445000 111 144 116
-0.115399 -0.030565 0.445000 110 143 115
-0.114249 -0.030565 0.445000 139 159 140
-0.113099 -0.030565 0.445000 156 176 157
-0.122299 -0.029413 0.445000 164 169 155
-0.121149 -0.029413 0.445000 168 183 158
-0.119729 -0.029347 0.444000 110 125 100
-0.118582 -0.029347 0.444000 102 129 100
-0.117434 -0.029347 0.444000 103 130 101
-0.116549 -0.029413 0.445000 112 142 115
-0.115399 -0.029413 0.445000 108 138 111
-0.114249 -0.029413 0.445000 158 175 157
-0.113099 -0.029413 0.445000 157 174 156
-0.122299 -0.028262 0.445000 172 177 163
-0.120876 -0.028198 0.444000 154 173 147
-0.119729 -0.028198 0.444000 97 116 90
-0.118582 -0.028198 0.444000 100 131 101
-0.117434 -0.028198 0.444000 111 142 112
-0.116287 -0.028198 0.444000 110 140 113
-0.115399 -0.028262 0.445000 117 147 120
-0.114249 -0.028262 0.445000 167 180 163
-0.122024 -0.027049 0.444000 178 187 169
-0.120876 -0.027049 0.444000 122 146 116
-0.119729 -0.027049 0.444000 92 116 86
-0.118582 -0.027049 0.444000 101 134 106
-0.117434 -0.027049 0.444000 109 142 114
-0.116287 -0.027049 0.444000 107 135 110
-0.115139 -0.027049 0.444000 139 167 142
-0.114249 -0.027110 0.445000 163 173 159
-0.123449 -0.025958 0.445000 159 174 149
-0.122024 -0.025900 0.444000 164 179 154
-0.120876 -0.025900 0.444000 96 123 90
-0.119459 -0.025842 0.443000 97 124 91
-0.118314 -0.025842 0.443000 103 137 106
-0.117434 -0.025900 0.444000 108 142 111
-0.116287 -0.025900 0.444000 107 132 111
-0.115139 -0.025900 0.444000 156 181 160
-0.123171 -0.024751 0.444000 171 188 158
-0.122024 -0.024751 0.444000 149 166 136
-0.120604 -0.024695 0.443000 92 120 84
-0.119459 -0.024695 0.443000 104 132 96
-0.118314 -0.024695 0.443000 106 140 109
-0.117434 -0.024751 0.444000 104 138 107
-0.116287 -0.024751 0.444000 131 153 133
-0.115139 -0.024751 0.444000 161 183 163
-0.123171 -0.023602 0.444000 172 189 159
-0.121749 -0.023549 0.443000 129 146 116
-0.120604 -0.023549 0.443000 93 122 88
-0.119459 -0.023549 0.443000 106 135 101
-0.118314 -0.023549 0.443000 105 140 111
-0.117434 -0.023602 0.444000 100 135 106
-0.116287 -0.023602 0.444000 148 170 150
-0.115139 -0.023602 0.444000 162 184 164
-0.124319 -0.022453 0.444000 165 171 154
-0.122894 -0.022403 0.443000 164 186 155
-0.121474 -0.022352 0.442000 98 120 89
-0.120332 -0.022352 0.442000 95 129 96
-0.119190 -0.022352 0.442000 104 138 105
-0.118047 -0.022352 0.442000 103 136 110
-0.117170 -0.022403 0.443000 111 144 118
-0.116287 -0.022453 0.444000 166 182 161
-0.124039 -0.021256 0.443000 172 178 161
-0.122616 -0.021208 0.442000 141 165 135
-0.121199 -0.021160 0.441000 95 119 89
-0.119190 -0.021208 0.442000 107 143 111
-0.118047 -0.021208 0.442000 106 136 111
-0.117170 -0.021256 0.443000 136 166 141
-0.116287 -0.021304 0.444000 165 179 159
-0.123759 -0.020064 0.442000 181 192 171
-0.122339 -0.020019 0.441000 110 139 107
-0.121199 -0.020019 0.441000 94 123 91
-0.119190 -0.020064 0.442000 108 146 116
-0.118047 -0.020064 0.442000 110 140 115
-0.117170 -0.020110 0.443000 154 184 159
-0.123479 -0.018878 0.441000 167 182 157
-0.122339 -0.018878 0.441000 97 128 96
-0.121199 -0.018878 0.441000 96 127 95
-0.119190 -0.018921 0.442000 108 146 118
-0.118314 -0.018963 0.443000 115 142 120
-0.117170 -0.018963 0.443000 159 186 164
-0.124618 -0.017737 0.441000 167 184 158
-0.123479 -0.017737 0.441000 150 167 141
-0.122339 -0.017737 0.441000 90 121 89
-0.121199 -0.017737 0.441000 100 131 99
-0.119190 -0.017777 0.442000 109 144 117
-0.118314 -0.017817 0.443000 137 159 139
-0.117434 -0.017857 0.444000 160 182 162
-0.124618 -0.016595 0.441000 178 193 166
-0.123199 -0.016558 0.440000 124 139 112
-0.122339 -0.016595 0.441000 94 125 93
-0.121199 -0.016595 0.441000 107 138 106
-0.119190 -0.016633 0.442000 106 139 113
-0.118314 -0.016671 0.443000 162 179 161
-0.124336 -0.015419 0.440000 162 181 155
-0.123199 -0.015419 0.440000 100 119 93
-0.122062 -0.015419 0.440000 96 127 97
-0.121199 -0.015454 0.441000 111 142 112
-0.119190 -0.015489 0.442000 115 144 122
-0.118314 -0.015524 0.443000 171 184 169
-0.124336 -0.014280 0.440000 139 161 134
-0.123199 -0.014280 0.440000 95 117 90
-0.122062 -0.014280 0.440000 95 128 100
-0.121199 -0.014313 0.441000 109 142 114
-0.119190 -0.014345 0.442000 137 162 141
-0.118314 -0.014378 0.443000 166 176 162
-0.125473 -0.013142 0.440000 176 185 167
-0.124336 -0.013142 0.440000 116 143 114
-0.123199 -0.013142 0.440000 95 122 93
-0.122062 -0.013142 0.440000 104 138 107
-0.121199 -0.013172 0.441000 108 142 111
-0.119190 -0.013201 0.442000 145 167 147
-0.118314 -0.013231 0.443000 158 166 153
-0.125473 -0.012003 0.440000 168 179 158
-0.124336 -0.012003 0.440000 95 124 92
-0.123199 -0.012003 0.440000 101 130 98
-0.122062 -0.012003 0.440000 104 140 108
-0.121199 -0.012030 0.441000 105 141 109
-0.119190 -0.012058 0.442000 156 179 156
-0.125188 -0.010840 0.439000 138 154 131
-0.124053 -0.010840 0.439000 95 124 92
-0.123199 -0.010864 0.440000 105 134 102
-0.122062 -0.010864 0.440000 107 143 111
-0.121199 -0.010889 0.441000 107 143 111
-0.119190 -0.010914 0.442000 161 182 160
-0.126610 -0.009726 0.440000 171 188 162
-0.125188 -0.009704 0.439000 121 138 112
-0.124053 -0.009704 0.439000 92 123 91
-0.123199 -0.009726 0.440000 104 135 103
-0.122062 -0.009726 0.440000 109 143 112
-0.121199 -0.009748 0.441000 105 139 108
-0.119190 -0.009770 0.442000 163 181 160
-0.126322 -0.008568 0.439000 158 177 149
-0.125188 -0.008568 0.439000 102 121 93
-0.124053 -0.008568 0.439000 96 130 97
-0.122919 -0.008568 0.439000 102 136 103
-0.122062 -0.008587 0.440000 114 145 115
-0.121199 -0.008607 0.441000 113 144 114
-0.126322 -0.007432 0.439000 147 166 138
-0.125188 -0.007432 0.439000 97 116 88
-0.124053 -0.007432 0.439000 99 133 100
-0.122919 -0.007432 0.439000 106 140 107
-0.122062 -0.007449 0.440000 106 136 109
-0.121199 -0.007465 0.441000 129 159 132
-0.127457 -0.006296 0.439000 169 178 158
-0.126322 -0.006296 0.439000 120 142 113
-0.125188 -0.006296 0.439000 100 122 93
-0.124053 -0.006296 0.439000 102 136 105
-0.123199 -0.006310 0.440000 109 143 112
-0.122062 -0.006310 0.440000 112 142 115
-0.121199 -0.006324 0.441000 137 167 140
-0.127457 -0.005160 0.439000 168 180 156
-0.126322 -0.005160 0.439000 97 124 93
-0.125188 -0.005160 0.439000 99 126 95
-0.124053 -0.005160 0.439000 105 139 106
-0.123199 -0.005171 0.440000 111 145 112
-0.122062 -0.005171 0.440000 110 136 110
-0.121199 -0.005183 0.441000 150 176 150
-0.127457 -0.004023 0.439000 157 171 149
-0.126322 -0.004023 0.439000 94 123 89
-0.125188 -0.004023 0.439000 100 129 95
-0.124053 -0.004023 0.439000 109 143 110
-0.123199 -0.004033 0.440000 110 144 111
-0.122062 -0.004033 0.440000 129 152 127
-0.121199 -0.004042 0.441000 158 181 156
-0.127457 -0.002887 0.439000 145 162 136
-0.126322 -0.002887 0.439000 91 122 88
-0.125188 -0.002887 0.439000 101 132 98
-0.124053 -0.002887 0.439000 111 145 112
-0.123199 -0.002894 0.440000 104 138 105
-0.122062 -0.002894 0.440000 147 170 147
-0.121199 -0.002901 0.441000 156 179 156
-0.128591 -0.001751 0.439000 169 188 162
-0.127457 -0.001751 0.439000 132 151 125
-0.126322 -0.001751 0.439000 91 122 88
-0.125188 -0.001751 0.439000 105 136 102
-0.124053 -0.001751 0.439000 107 143 111
-0.123199 -0.001755 0.440000 103 139 107
-0.122062 -0.001755 0.440000 158 180 160
-0.121199 -0.001759 0.441000 154 176 156
-0.128591 -0.000615 0.439000 166 188 161
-0.127457 -0.000615 0.439000 107 129 102
-0.126322 -0.000615 0.439000 95 129 96
-0.125188 -0.000615 0.439000 108 142 109
-0.124053 -0.000615 0.439000 105 138 110
-0.123199 -0.000617 0.440000 110 143 115
-0.122062 -0.000617 0.440000 156 176 159
-0.128591 0.000521 0.439000 162 186 158
-0.127457 0.000521 0.439000 95 119 91
-0.126322 0.000521 0.439000 93 129 95
-0.125188 0.000521 0.439000 110 146 112
-0.124053 0.000521 0.439000 108 138 111
-0.123199 0.000522 0.440000 118 148 121
-0.122339 0.000523 0.441000 170 185 169
-0.129726 0.001657 0.439000 172 180 165
-0.128591 0.001657 0.439000 136 165 135
-0.127457 0.001657 0.439000 89 118 88
-0.126322 0.001657 0.439000 102 138 106
-0.125188 0.001657 0.439000 111 147 115
-0.124053 0.001657 0.439000 112 140 115
-0.123199 0.001661 0.440000 151 179 154
-0.122339 0.001664 0.441000 162 175 158
-0.129726 0.002793 0.439000 177 188 169
-0.128591 0.002793 0.439000 109 137 110
-0.127457 0.002793 0.439000 87 115 88
-0.126322 0.002793 0.439000 102 137 110
-0.125188 0.002793 0.439000 115 150 123
-0.124053 0.002793 0.439000 123 149 125
-0.123199 0.002799 0.440000 157 183 159
-0.129726 0.003929 0.439000 168 179 158
-0.128591 0.003929 0.439000 96 127 97
-0.127457 0.003929 0.439000 91 122 92
-0.126322 0.003929 0.439000 104 139 110
-0.125188 0.003929 0.439000 110 145 116
-0.124336 0.003938 0.440000 133 156 133
-0.123199 0.003938 0.440000 155 178 155
-0.129726 0.005065 0.439000 157 171 149
-0.128591 0.005065 0.439000 93 122 90
-0.127457 0.005065 0.439000 99 128 96
-0.126322 0.005065 0.439000 116 150 119
-0.125188 0.005065 0.439000 112 146 115
-0.124336 0.005076 0.440000 135 153 132
-0.123199 0.005076 0.440000 157 175 154
-0.130860 0.006201 0.439000 167 184 156
-0.129726 0.006201 0.439000 128 145 117
-0.128591 0.006201 0.439000 92 123 91
-0.127457 0.006201 0.439000 100 131 99
-0.126322 0.006201 0.439000 125 156 126
-0.125188 0.006201 0.439000 112 143 113
-0.124336 0.006215 0.440000 150 164 144
-0.130860 0.007337 0.439000 171 188 160
-0.129726 0.007337 0.439000 116 133 105
-0.128591 0.007337 0.439000 98 132 99
-0.127457 0.007337 0.439000 105 139 106
-0.126322 0.007337 0.439000 117 147 120
-0.125188 0.007337 0.439000 111 141 114
-0.124336 0.007354 0.440000 164 177 160
-0.130860 0.008473 0.439000 162 181 155
-0.129726 0.008473 0.439000 104 123 97
-0.128591 0.008473 0.439000 96 132 100
-0.127457 0.008473 0.439000 102 138 106
-0.126322 0.008473 0.439000 113 146 120
-0.125473 0.008492 0.440000 122 155 129
-0.124336 0.008492 0.440000 166 181 163
-0.130860 0.009609 0.439000 146 168 141
-0.129726 0.009609 0.439000 100 122 95
-0.128591 0.009609 0.439000 100 135 106
-0.127457 0.009609 0.439000 107 142 113
-0.126322 0.009609 0.439000 104 137 111
-0.125473 0.009631 0.440000 131 164 138
-0.124336 0.009631 0.440000 161 177 156
-0.131995 0.010745 0.439000 176 181 167
-0.130860 0.010745 0.439000 122 148 122
-0.129726 0.010745 0.439000 94 120 94
-0.128591 0.010745 0.439000 98 136 106
-0.127457 0.010745 0.439000 106 144 114
-0.126322 0.010745 0.439000 103 136 110
-0.125473 0.010770 0.440000 145 178 152
-0.131995 0.011881 0.439000 174 179 165
-0.130860 0.011881 0.439000 101 129 102
-0.129726 0.011881 0.439000 96 124 97
-0.128591 0.011881 0.439000 99 137 107
-0.127457 0.011881 0.439000 109 147 117
-0.126322 0.011881 0.439000 115 143 118
-0.125473 0.011908 0.440000 158 186 161
-0.131995 0.013017 0.439000 172 178 161
-0.130860 0.013017 0.439000 96 124 99
-0.129726 0.013017 0.439000 105 133 108
-0.128591 0.013017 0.439000 105 143 115
-0.127457 0.013017 0.439000 106 144 116
-0.126322 0.013017 0.439000 122 148 122
-0.131995 0.014153 0.439000 148 159 138
-0.130562 0.014121 0.438000 99 128 98
-0.129726 0.014153 0.439000 106 135 105
-0.128591 0.014153 0.439000 101 139 109
-0.127457 0.014153 0.439000 102 140 110
-0.126322 0.014153 0.439000 134 160 136
-0.133129 0.015289 0.439000 176 191 166
-0.131995 0.015289 0.439000 125 140 115
-0.130562 0.015255 0.438000 102 129 98
-0.129430 0.015255 0.438000 108 135 104
-0.128591 0.015289 0.439000 108 141 113
-0.127457 0.015289 0.439000 103 136 108
-0.126322 0.015289 0.439000 153 176 153
-0.133129 0.016425 0.439000 172 189 163
-0.131694 0.016388 0.438000 117 134 108
-0.130562 0.016388 0.438000 100 127 96
-0.129430 0.016388 0.438000 111 138 107
-0.128298 0.016388 0.438000 112 143 113
-0.127457 0.016425 0.439000 105 136 106
-0.126322 0.016425 0.439000 162 183 161
-0.132826 0.017522 0.438000 159 178 152
-0.131694 0.017522 0.438000 109 128 102
-0.130562 0.017522 0.438000 103 130 99
-0.129430 0.017522 0.438000 115 142 111
-0.128298 0.017522 0.438000 118 145 116
-0.127457 0.017562 0.439000 120 147 118
-0.126322 0.017562 0.439000 165 181 160
-0.132826 0.018655 0.438000 154 173 147
-0.131393 0.018612 0.437000 100 119 93
-0.130264 0.018612 0.437000 106 133 102
-0.129430 0.018655 0.438000 114 141 110
-0.128298 0.018655 0.438000 122 146 118
-0.127166 0.018655 0.438000 131 155 127
-0.133958 0.019788 0.438000 176 181 167
-0.132523 0.019743 0.437000 141 160 132
-0.131393 0.019743 0.437000 99 118 90
-0.130264 0.019743 0.437000 105 134 102
-0.129135 0.019743 0.437000 116 145 113
-0.128298 0.019788 0.438000 115 138 113
-0.127166 0.019788 0.438000 139 162 137
-0.133652 0.020874 0.437000 178 186 171
-0.132219 0.020826 0.436000 122 141 113
-0.131093 0.020826 0.436000 105 124 96
-0.129966 0.020826 0.436000 110 141 109
-0.128839 0.020826 0.436000 115 146 114
-0.128005 0.020874 0.437000 110 136 112
-0.126876 0.020874 0.437000 146 172 148
-0.133652 0.022005 0.437000 171 182 163
-0.132219 0.021955 0.436000 116 140 110
-0.131093 0.021955 0.436000 102 126 96
-0.129966 0.021955 0.436000 109 143 112
-0.128839 0.021955 0.436000 113 147 116
-0.128005 0.022005 0.437000 111 137 113
-0.126876 0.022005 0.437000 157 183 159
-0.133346 0.023083 0.436000 169 183 161
-0.132219 0.023083 0.436000 103 132 100
-0.130792 0.023030 0.435000 102 131 99
-0.129668 0.023030 0.435000 111 145 114
-0.128839 0.023083 0.436000 112 146 115
-0.127712 0.023083 0.436000 120 143 120
-0.126876 0.023136 0.437000 161 184 161
-0.133040 0.024156 0.435000 155 170 145
-0.131916 0.024156 0.435000 99 128 94
-0.130792 0.024156 0.435000 106 135 101
-0.129668 0.024156 0.435000 112 146 113
-0.128544 0.024156 0.435000 111 145 112
-0.127712 0.024211 0.436000 137 160 137
-0.134164 0.025281 0.435000 172 187 162
-0.133040 0.025281 0.435000 137 152 127
-0.131916 0.025281 0.435000 96 123 90
-0.130792 0.025281 0.435000 113 140 107
-0.129668 0.025281 0.435000 113 147 114
-0.128544 0.025281 0.435000 108 142 109
-0.127712 0.025340 0.436000 153 174 152
-0.134164 0.026407 0.435000 175 190 165
-0.133040 0.026407 0.435000 128 143 118
-0.131916 0.026407 0.435000 94 121 88
-0.130792 0.026407 0.435000 115 142 109
-0.129668 0.026407 0.435000 115 149 118
-0.128544 0.026407 0.435000 108 142 111
-0.127712 0.026468 0.436000 159 176 158
-0.133856 0.027470 0.434000 164 183 157
-0.132734 0.027470 0.434000 113 132 106
-0.131613 0.027470 0.434000 94 123 91
-0.130491 0.027470 0.434000 109 138 106
-0.129668 0.027533 0.435000 113 146 118
-0.128544 0.027533 0.435000 113 146 118
-0.127419 0.027533 0.435000 162 182 163
-0.133856 0.028593 0.434000 155 174 146
-0.132734 0.028593 0.434000 101 120 92
-0.131613 0.028593 0.434000 99 130 98
-0.130491 0.028593 0.434000 112 143 111
-0.129370 0.028593 0.434000 113 143 118
-0.128544 0.028659 0.435000 117 147 122
-0.127419 0.028659 0.435000 158 175 159
-0.133856 0.029716 0.434000 132 154 123
-0.132734 0.029716 0.434000 99 121 90
-0.131613 0.029716 0.434000 101 135 102
-0.130491 0.029716 0.434000 112 146 113
-0.129370 0.029716 0.434000 112 140 113
-0.128544 0.029784 0.435000 131 159 132
-0.127712 0.029853 0.436000 158 173 157
-0.134977 0.030839 0.434000 177 183 166
-0.133856 0.030839 0.434000 112 136 104
-0.132734 0.030839 0.434000 102 126 94
-0.131613 0.030839 0.434000 107 138 104
-0.130491 0.030839 0.434000 117 148 114
-0.129668 0.030910 0.435000 113 139 113
-0.128544 0.030910 0.435000 150 176 150
-0.134977 0.031962 0.434000 178 181 165
-0.133856 0.031962 0.434000 109 133 101
-0.132734 0.031962 0.434000 103 127 95
-0.131613 0.031962 0.434000 107 138 106
-0.130491 0.031962 0.434000 114 145 113
-0.129668 0.032036 0.435000 116 142 118
-0.128544 0.032036 0.435000 152 178 154
-0.134977 0.033085 0.434000 174 177 159
-0.133856 0.033085 0.434000 104 126 95
-0.132734 0.033085 0.434000 106 128 97
-0.131613 0.033085 0.434000 108 139 107
-0.130491 0.033085 0.434000 114 145 113
-0.129668 0.033161 0.435000 115 143 118
-0.128544 0.033161 0.435000 149 177 152
-0.134977 0.034208 0.434000 163 170 148
-0.133547 0.034129 0.433000 99 123 91
-0.132734 0.034208 0.434000 105 129 97
-0.131613 0.034208 0.434000 111 145 114
-0.130491 0.034208 0.434000 113 147 116
-0.129668 0.034287 0.435000 123 151 126
-0.128544 0.034287 0.435000 152 180 155
-0.134977 0.035331 0.434000 152 163 142
-0.133547 0.035250 0.433000 95 122 91
-0.132734 0.035331 0.434000 104 131 100
-0.131613 0.035331 0.434000 119 153 122
-0.130491 0.035331 0.434000 110 144 113
-0.129668 0.035413 0.435000 137 163 139
-0.128544 0.035413 0.435000 153 179 155
-0.134977 0.036454 0.434000 133 147 127
-0.133547 0.036370 0.433000 94 123 93
-0.132734 0.036454 0.434000 106 135 105
-0.131613 0.036454 0.434000 111 145 114
-0.130491 0.036454 0.434000 103 137 106
-0.129668 0.036538 0.435000 144 167 144
-0.136099 0.037578 0.434000 167 183 162
-0.134666 0.037491 0.433000 111 127 106
-0.133547 0.037491 0.433000 100 129 99
-0.132734 0.037578 0.434000 108 137 107
-0.131613 0.037578 0.434000 110 144 113
-0.130491 0.037578 0.434000 103 137 106
-0.129370 0.037578 0.434000 151 169 148
-0.136099 0.038701 0.434000 169 183 161
-0.134666 0.038611 0.433000 110 124 102
-0.133547 0.038611 0.433000 91 120 88
-0.132734 0.038701 0.434000 109 138 106
-0.131613 0.038701 0.434000 110 141 109
-0.130491 0.038701 0.434000 106 137 105
-0.129370 0.038701 0.434000 165 181 160
-0.135785 0.039732 0.433000 162 177 148
-0.134666 0.039732 0.433000 105 120 91
-0.133547 0.039732 0.433000 102 129 96
-0.132429 0.039732 0.433000 111 138 105
-0.131310 0.039732 0.433000 111 142 110
-0.130491 0.039824 0.434000 117 148 116
-0.129370 0.039824 0.434000 158 174 153
-0.135785 0.040853 0.433000 146 164 131
-0.134355 0.040758 0.432000 104 122 89
-0.132429 0.040853 0.433000 114 141 108
-0.131310 0.040853 0.433000 111 142 112
-0.130491 0.040947 0.434000 122 153 123
-0.129370 0.040947 0.434000 160 175 157
-0.135785 0.041973 0.433000 134 153 123
-0.134355 0.041876 0.432000 101 120 90
-0.133547 0.041973 0.433000 107 136 102
-0.132429 0.041973 0.433000 113 142 108
-0.131310 0.041973 0.433000 114 142 115
-0.130491 0.042070 0.434000 129 157 130
-0.129370 0.042070 0.434000 163 178 160
-0.135785 0.043094 0.433000 122 141 113
-0.134355 0.042994 0.432000 101 120 92
-0.131310 0.043094 0.433000 113 141 114
-0.130491 0.043193 0.434000 143 171 144
-0.129370 0.043193 0.434000 161 177 156
-0.136904 0.044214 0.433000 176 186 161
-0.135785 0.044214 0.433000 115 135 102
-0.134355 0.044112 0.432000 111 131 98
-0.132429 0.044214 0.433000 113 144 110
-0.131310 0.044214 0.433000 112 135 110
-0.130491 0.044316 0.434000 151 174 149
-0.136904 0.045335 0.433000 176 183 157
-0.135785 0.045335 0.433000 109 132 96
-0.134355 0.045230 0.432000 109 132 96
-0.132429 0.045335 0.433000 117 149 112
-0.131310 0.045335 0.433000 124 146 119
-0.130491 0.045439 0.434000 159 181 154
-0.136904 0.046455 0.433000 174 178 153
-0.135785 0.046455 0.433000 102 125 89
-0.134666 0.046455 0.433000 111 134 98
-0.133547 0.046455 0.433000 111 143 106
-0.132429 0.046455 0.433000 117 149 112
-0.131310 0.046455 0.433000 125 147 120
-0.130491 0.046562 0.434000 154 176 149
-0.136904 0.047576 0.433000 160 167 143
-0.135785 0.047576 0.433000 99 122 88
-0.134666 0.047576 0.433000 110 133 99
-0.133547 0.047576 0.433000 110 141 109
-0.132429 0.047576 0.433000 108 139 107
-0.131310 0.047576 0.433000 132 153 129
-0.130491 0.047686 0.434000 154 175 151
-0.137221 0.048809 0.434000 146 156 131
-0.135785 0.048696 0.433000 97 121 89
-0.134666 0.048696 0.433000 110 134 102
-0.133547 0.048696 0.433000 114 145 115
-0.132429 0.048696 0.433000 107 138 108
-0.131310 0.048696 0.433000 150 171 149
-0.130491 0.048809 0.434000 153 174 152
-0.138342 0.049932 0.434000 175 187 161
-0.137221 0.049932 0.434000 121 133 107
-0.135785 0.049817 0.433000 99 123 91
-0.134666 0.049817 0.433000 110 134 102
-0.133547 0.049817 0.433000 114 142 115
-0.132429 0.049817 0.433000 105 133 106
-0.131310 0.049817 0.433000 161 178 160
-0.138342 0.051055 0.434000 171 183 157
-0.136904 0.050937 0.433000 113 125 99
-0.135785 0.050937 0.433000 101 128 95
-0.134666 0.050937 0.433000 108 135 102
-0.133547 0.050937 0.433000 113 141 114
-0.132429 0.050937 0.433000 109 137 110
-0.131310 0.050937 0.433000 155 169 149
-0.138342 0.052178 0.434000 162 174 148
-0.136904 0.052058 0.433000 109 121 95
-0.135785 0.052058 0.433000 104 132 96
-0.134666 0.052058 0.433000 108 136 100
-0.133547 0.052058 0.433000 118 141 116
-0.132429 0.052058 0.433000 125 148 123
-0.131310 0.052058 0.433000 165 174 156
-0.138342 0.053301 0.434000 150 162 134
-0.136904 0.053178 0.433000 103 115 87
-0.135785 0.053178 0.433000 102 129 96
-0.134666 0.053178 0.433000 110 137 104
-0.133547 0.053178 0.433000 110 134 106
-0.132429 0.053178 0.433000 132 156 128
-0.131310 0.053178 0.433000 170 176 157
-0.138342 0.054424 0.434000 139 151 123
-0.136904 0.054299 0.433000 102 114 86
-0.135785 0.054299 0.433000 107 134 103
-0.134666 0.054299 0.433000 113 140 109
-0.133547 0.054299 0.433000 109 130 106
-0.132429 0.054299 0.433000 140 161 137
-0.131310 0.054299 0.433000 171 174 156
-0.138023 0.055419 0.433000 118 135 107
-0.136904 0.055419 0.433000 107 124 96
-0.135785 0.055419 0.433000 108 135 106
-0.134666 0.055419 0.433000 113 140 111
-0.133547 0.055419 0.433000 109 130 108
-0.132429 0.055419 0.433000 147 168 146
-0.138023 0.056540 0.433000 106 123 93
-0.136904 0.056540 0.433000 107 124 94
-0.135472 0.056409 0.432000 108 135 106
-0.134355 0.056409 0.432000 113 140 111
-0.133547 0.056540 0.433000 111 132 108
-0.132429 0.056540 0.433000 155 176 152
-0.138023 0.057660 0.433000 104 119 90
-0.136904 0.057660 0.433000 110 125 96
-0.135472 0.057527 0.432000 111 135 103
-0.134355 0.057527 0.432000 118 142 110
-0.132429 0.057660 0.433000 158 175 149
-0.135472 0.058645 0.432000 112 137 102
-0.134355 0.058645 0.432000 117 142 107
-0.133239 0.058645 0.432000 131 143 119
-0.135472 0.059763 0.432000 116 141 106
-0.134355 0.059763 0.432000 113 138 103
