ply
format ascii 1.0
element vertex 1908
property float x
property float y
property float z
property uchar red
property uchar green
property uchar blue
end_header
0.238098 0.398643 0.493016 71 97 57
0.217370 0.307714 0.478753 95 133 76
0.215898 0.306710 0.478383 92 129 77
0.214432 0.305706 0.478013 91 128 76
0.212971 0.304702 0.477645 85 118 74
0.211515 0.303698 0.477277 75 108 64
0.217140 0.307141 0.480039 108 153 82
0.215603 0.305102 0.479531 106 150 82
0.214203 0.305135 0.479295 100 144 76
0.212742 0.304132 0.478925 98 142 78
0.209613 0.297979 0.477649 101 141 83
0.208178 0.296976 0.477282 100 140 82
0.206747 0.295972 0.476917 97 133 86
0.205370 0.296005 0.476685 87 123 76
0.216909 0.306567 0.481326 125 172 98
0.215373 0.304530 0.480813 123 171 94
0.213973 0.304564 0.480577 125 173 96
0.209386 0.297415 0.478914 112 158 82
0.207951 0.296413 0.478545 113 159 83
0.206522 0.295410 0.478177 109 153 87
0.205145 0.295443 0.477946 103 147 81
0.203767 0.295476 0.477714 98 141 82
0.202348 0.294473 0.477348 101 144 85
0.216679 0.305994 0.482612 139 184 113
0.215144 0.303959 0.482095 143 186 111
0.213744 0.303992 0.481859 138 181 106
0.212284 0.302991 0.481484 138 179 103
0.210772 0.300956 0.480970 139 180 104
0.209160 0.296851 0.480180 134 177 100
0.207725 0.295850 0.479809 125 168 91
0.206296 0.294848 0.479438 121 167 91
0.204919 0.294881 0.479206 115 161 85
0.203542 0.294914 0.478975 112 159 85
0.202165 0.294946 0.478743 113 160 86
0.200748 0.293944 0.478375 105 151 84
0.199374 0.293977 0.478143 107 153 86
0.197999 0.294010 0.477912 99 143 90
0.196593 0.293008 0.477545 93 137 84
0.216449 0.305420 0.483899 69 97 43
0.214915 0.303387 0.483377 76 105 46
0.213514 0.303421 0.483141 85 114 55
0.212055 0.302421 0.482763 103 132 69
0.210543 0.300388 0.482245 123 152 89
0.208933 0.296287 0.481445 131 168 100
0.207499 0.295287 0.481072 142 179 111
0.206070 0.294286 0.480699 141 183 111
0.204693 0.294319 0.480467 138 180 108
0.203316 0.294352 0.480235 128 178 101
0.201939 0.294384 0.480004 118 168 91
0.200523 0.293384 0.479633 117 167 90
0.199148 0.293416 0.479402 116 166 89
0.197774 0.293449 0.479170 115 161 92
0.196399 0.293482 0.478939 107 153 84
0.195025 0.293514 0.478707 106 151 91
0.193624 0.292513 0.478340 107 152 92
0.213223 0.301817 0.484278 53 67 29
0.211767 0.300818 0.483898 47 61 21
0.210146 0.296723 0.483087 48 62 22
0.208707 0.295723 0.482711 49 71 26
0.207273 0.294724 0.482335 72 94 49
0.205845 0.293724 0.481960 99 132 74
0.204468 0.293757 0.481728 122 155 97
0.203091 0.293790 0.481496 137 182 111
0.201713 0.293823 0.481264 142 187 116
0.200336 0.293855 0.481033 142 190 113
0.198923 0.292855 0.480660 134 182 105
0.197549 0.292888 0.480429 127 175 98
0.196174 0.292921 0.480197 123 171 94
0.194771 0.291921 0.479827 122 169 97
0.193399 0.291953 0.479596 119 166 94
0.192004 0.290953 0.479226 111 156 96
0.190634 0.290986 0.478996 111 156 96
0.189247 0.289985 0.478628 107 145 97
0.187864 0.288984 0.478261 83 121 73
0.186500 0.289017 0.478031 57 87 50
0.207047 0.294161 0.483598 48 58 33
0.205619 0.293162 0.483221 40 57 29
0.204242 0.293195 0.482989 44 61 33
0.202865 0.293228 0.482757 51 77 33
0.201488 0.293261 0.482525 89 115 71
0.200111 0.293293 0.482293 120 156 93
0.198698 0.292294 0.481919 142 178 115
0.197357 0.293359 0.481830 144 189 116
0.195949 0.292360 0.481456 139 184 111
0.194574 0.292393 0.481224 131 180 106
0.193174 0.291393 0.480852 128 177 103
0.191802 0.291426 0.480621 123 171 102
0.190410 0.290427 0.480250 118 166 97
0.189023 0.289427 0.479879 117 164 102
0.187641 0.288428 0.479510 114 161 99
0.186276 0.288460 0.479280 110 152 100
0.184902 0.287460 0.478912 87 129 77
0.183540 0.287493 0.478682 65 97 58
0.201262 0.292699 0.483786 46 57 36
0.199885 0.292731 0.483554 46 65 27
0.198508 0.292764 0.483322 69 88 50
0.197131 0.292797 0.483091 94 122 66
0.195754 0.292830 0.482859 136 164 108
0.194349 0.291832 0.482483 143 187 119
0.192975 0.291865 0.482252 142 186 118
0.191578 0.290866 0.481877 134 181 107
0.190186 0.289868 0.481503 129 176 102
0.188799 0.288869 0.481131 121 170 98
0.187417 0.287871 0.480759 119 168 96
0.186041 0.286872 0.480388 119 167 100
0.184679 0.286905 0.480158 112 160 93
0.183317 0.286937 0.479929 108 151 94
0.181955 0.286969 0.479700 95 138 81
0.180593 0.287002 0.479471 70 105 67
0.179232 0.287034 0.479241 45 80 42
0.246619 0.355971 0.501648 135 155 120
0.244863 0.353951 0.501069 133 169 92
0.242692 0.347820 0.499853 128 164 87
0.240966 0.345800 0.499279 142 181 101
0.196938 0.293265 0.484499 46 62 30
0.195528 0.292268 0.484120 55 71 39
0.194151 0.292301 0.483888 76 106 56
0.192774 0.292333 0.483656 114 144 94
0.191375 0.291336 0.483279 137 176 110
0.189981 0.290339 0.482902 142 181 115
0.188592 0.289342 0.482527 132 177 104
0.187194 0.287314 0.482008 129 174 101
0.185817 0.286316 0.481635 125 172 98
0.184456 0.286349 0.481405 122 169 95
0.183094 0.286381 0.481176 114 161 89
0.181732 0.286414 0.480947 113 160 88
0.180370 0.286446 0.480718 106 151 93
0.179009 0.286479 0.480488 90 135 77
0.177647 0.286511 0.480259 69 101 62
0.248586 0.361466 0.504295 78 103 55
0.246367 0.355343 0.503056 148 173 125
0.244720 0.354353 0.502635 130 166 89
0.242973 0.352335 0.502053 134 170 93
0.241029 0.348264 0.501149 134 167 98
0.240249 0.371959 0.504332 43 60 30
0.193979 0.293796 0.485446 40 55 30
0.192597 0.293829 0.485213 41 56 31
0.191193 0.292833 0.484833 56 80 39
0.189794 0.291837 0.484453 96 120 79
0.188417 0.291870 0.484221 134 168 105
0.187026 0.290874 0.483843 149 183 120
0.185629 0.288848 0.483319 141 187 111
0.184250 0.287852 0.482943 137 183 107
0.182877 0.286855 0.482568 125 173 94
0.181513 0.286887 0.482338 119 167 88
0.180146 0.284861 0.481820 120 167 93
0.178787 0.284893 0.481591 118 165 91
0.177428 0.284926 0.481362 114 157 98
0.176068 0.284958 0.481134 98 141 82
0.248445 0.361858 0.505883 132 163 106
0.246225 0.355741 0.504630 135 166 109
0.244468 0.353726 0.504041 129 167 92
0.243039 0.354788 0.503947 147 185 110
0.188224 0.293364 0.485781 48 68 35
0.186828 0.292369 0.485399 79 99 66
0.185437 0.291374 0.485018 115 150 94
0.184052 0.290378 0.484639 146 181 125
0.182665 0.288355 0.484112 145 191 115
0.181293 0.287359 0.483735 137 183 107
0.179925 0.286363 0.483358 128 174 96
0.178564 0.284339 0.482836 127 173 95
0.177205 0.284371 0.482607 123 171 94
0.175846 0.284404 0.482378 114 162 85
0.174486 0.284436 0.482149 111 157 92
0.173127 0.284468 0.481920 92 138 73
0.248303 0.362248 0.507475 150 184 121
0.246855 0.363310 0.507380 141 175 112
0.243838 0.364409 0.507021 142 179 109
0.183834 0.290844 0.486047 78 101 65
0.182452 0.289850 0.485666 117 155 96
0.181071 0.287828 0.485135 148 186 127
0.179702 0.286834 0.484756 148 191 114
0.178341 0.283784 0.484080 138 181 104
0.176982 0.283817 0.483851 130 179 95
0.175623 0.283849 0.483622 121 170 86
0.174264 0.283881 0.483394 116 166 89
0.172905 0.283914 0.483165 113 163 86
0.171545 0.283946 0.482936 109 152 91
0.170186 0.283978 0.482707 78 121 60
0.250181 0.366692 0.510018 103 120 90
0.248272 0.363659 0.509242 149 185 120
0.246709 0.363696 0.508979 140 176 111
0.245360 0.365781 0.509055 141 181 110
0.244105 0.368890 0.509298 108 148 77
0.180850 0.288296 0.486541 85 106 68
0.179478 0.286276 0.486007 127 161 98
0.178119 0.283230 0.485325 152 186 123
0.176759 0.283262 0.485096 141 187 109
0.175400 0.283294 0.484867 132 178 100
0.174041 0.283327 0.484638 121 171 92
0.172682 0.283359 0.484409 117 167 88
0.171323 0.283391 0.484180 118 167 93
0.169963 0.283424 0.483952 118 167 93
0.168604 0.283456 0.483723 110 150 92
0.250038 0.367074 0.511629 125 143 110
0.248464 0.367111 0.511364 139 179 108
0.246999 0.368171 0.511272 130 170 99
0.245637 0.370254 0.511350 141 181 110
0.244264 0.372337 0.511426 82 122 51
0.179254 0.285718 0.487259 52 71 31
0.177896 0.282675 0.486569 83 102 62
0.176537 0.282707 0.486340 128 164 99
0.175177 0.282740 0.486111 144 180 115
0.173818 0.282772 0.485882 134 184 105
0.172459 0.282804 0.485654 129 179 100
0.171100 0.282837 0.485425 123 173 92
0.169741 0.282869 0.485196 119 169 88
0.168381 0.282902 0.484967 122 169 95
0.167046 0.281908 0.484589 116 163 89
0.250122 0.369496 0.513596 136 157 119
0.248541 0.369534 0.513330 141 184 109
0.247068 0.370593 0.513238 132 175 100
0.245697 0.372674 0.513320 145 185 116
0.244523 0.376798 0.513747 54 94 25
0.177666 0.284169 0.488125 47 56 36
0.176314 0.282153 0.487585 45 65 30
0.174955 0.282185 0.487356 85 105 70
0.173596 0.282217 0.487127 127 166 100
0.172236 0.282250 0.486898 147 186 120
0.170877 0.282282 0.486669 138 187 103
0.169518 0.282314 0.486440 129 178 94
0.168159 0.282347 0.486212 124 171 88
0.166823 0.281355 0.485831 126 173 90
0.165467 0.281387 0.485602 123 168 97
0.164081 0.282444 0.485525 110 155 84
0.162722 0.282476 0.485296 87 118 72
0.250090 0.370891 0.515400 145 165 120
0.248504 0.370929 0.515133 135 176 98
0.247026 0.371987 0.515042 146 187 109
0.245860 0.376108 0.515481 143 179 114
0.174732 0.281630 0.488600 49 60 39
0.173373 0.281663 0.488371 51 77 37
0.172014 0.281695 0.488143 101 127 87
0.170654 0.281727 0.487914 137 180 105
0.169295 0.281760 0.487685 148 191 116
0.167936 0.281792 0.487456 141 188 103
0.166577 0.281825 0.487227 132 179 94
0.165244 0.280833 0.486844 126 173 90
0.163858 0.281889 0.486770 126 173 90
0.162499 0.281922 0.486541 121 162 97
0.161140 0.281954 0.486312 102 143 78
0.249943 0.371263 0.517032 152 171 120
0.248465 0.372321 0.516945 141 183 102
0.247306 0.376436 0.517393 144 186 105
0.244411 0.379571 0.517389 25 61 0
0.173150 0.281108 0.489616 50 61 40
0.171791 0.281140 0.489387 48 59 38
0.170432 0.281173 0.489158 60 92 43
0.169073 0.281205 0.488929 117 149 100
0.167713 0.281238 0.488701 146 189 112
0.166354 0.281270 0.488472 144 187 110
0.164995 0.281302 0.488243 134 181 96
0.163636 0.281335 0.488014 131 178 93
0.162276 0.281367 0.487785 127 173 95
0.160917 0.281399 0.487556 127 173 95
0.159558 0.281432 0.487328 115 155 97
0.158199 0.281464 0.487099 83 123 65
0.250134 0.374688 0.519217 153 173 117
0.247151 0.376801 0.519042 148 187 105
0.245862 0.379895 0.519315 124 158 93
0.244353 0.380952 0.519224 27 61 0
0.168850 0.280650 0.490174 52 67 42
0.167491 0.280683 0.489945 83 114 57
0.166157 0.279694 0.489557 136 167 110
0.164772 0.280748 0.489487 147 190 111
0.163413 0.280780 0.489258 140 183 104
0.162054 0.280812 0.489030 133 181 100
0.160695 0.280845 0.488801 123 171 90
0.159335 0.280877 0.488572 118 167 93
0.157976 0.280910 0.488343 113 162 88
0.156617 0.280942 0.488114 103 142 89
0.155258 0.280974 0.487886 66 105 52
0.252161 0.380100 0.522061 69 91 30
0.250322 0.378104 0.521420 151 173 112
0.248712 0.378143 0.521149 134 174 89
0.247210 0.379198 0.521062 150 190 105
0.245703 0.380254 0.520974 107 141 76
0.244394 0.383345 0.521251 25 59 0
0.167268 0.280128 0.491189 42 59 29
0.165909 0.280161 0.490961 58 75 45
0.164578 0.279172 0.490571 107 139 77
0.163190 0.280225 0.490503 151 183 121
0.161831 0.280258 0.490274 151 197 117
0.160472 0.280290 0.490045 139 185 105
0.159113 0.280322 0.489816 129 179 98
0.157753 0.280355 0.489588 123 173 92
0.156394 0.280387 0.489359 120 166 97
0.155035 0.280420 0.489130 113 159 90
0.153676 0.280452 0.488901 94 131 81
0.252011 0.380458 0.523727 74 95 32
0.250282 0.379480 0.523268 157 178 115
0.248667 0.379519 0.522996 142 182 97
0.247160 0.380573 0.522911 151 191 106
0.245751 0.382645 0.523010 101 135 74
0.244536 0.386749 0.523478 25 59 0
0.164327 0.279638 0.491976 50 66 34
0.162968 0.279671 0.491747 87 103 71
0.161608 0.279703 0.491519 126 163 93
0.160249 0.279736 0.491290 155 192 122
0.158890 0.279768 0.491061 145 194 110
0.157531 0.279800 0.490832 135 184 100
0.156171 0.279833 0.490603 127 175 96
0.154812 0.279865 0.490374 121 169 90
0.153453 0.279897 0.490146 128 169 104
0.152094 0.279930 0.489917 103 144 79
0.251975 0.381828 0.525588 73 96 32
0.250129 0.379836 0.524936 159 182 118
0.248512 0.379875 0.524664 141 186 99
0.247108 0.381944 0.524768 151 196 109
0.245797 0.385029 0.525060 98 132 71
0.244572 0.389129 0.525536 23 57 0
0.162745 0.279116 0.492992 43 51 36
0.161386 0.279148 0.492763 53 77 36
0.160026 0.279181 0.492534 99 123 82
0.158667 0.279213 0.492305 146 189 114
0.157308 0.279246 0.492077 154 197 122
0.155949 0.279278 0.491848 141 188 105
0.154590 0.279310 0.491619 132 179 96
0.153230 0.279343 0.491390 129 172 95
0.151871 0.279375 0.491161 129 172 95
0.150512 0.279408 0.490932 118 156 97
0.252050 0.384208 0.527650 69 93 34
0.250198 0.382219 0.526992 159 183 124
0.248573 0.382257 0.526718 145 189 105
0.247160 0.384325 0.526826 151 195 111
0.245840 0.387406 0.527123 104 140 79
0.244303 0.388460 0.527038 20 56 0
0.159767 0.279644 0.493945 49 60 39
0.158405 0.279676 0.493716 77 109 58
0.157043 0.279709 0.493487 142 174 123
0.155726 0.278723 0.493092 151 197 119
0.154367 0.278756 0.492863 150 196 118
0.153008 0.278788 0.492635 139 186 103
0.151648 0.278820 0.492406 130 177 94
0.150289 0.278853 0.492177 125 166 92
0.148930 0.278885 0.491948 123 164 90
0.250153 0.383582 0.528868 159 182 128
0.248631 0.384634 0.528787 148 192 110
0.247104 0.385686 0.528705 153 197 115
0.245675 0.387752 0.528816 124 160 95
0.244135 0.388804 0.528732 19 55 0
0.158022 0.283187 0.495638 44 63 35
0.156692 0.282203 0.495239 64 83 55
0.155458 0.279185 0.494504 105 143 86
0.154144 0.278201 0.494108 152 190 133
0.152785 0.278233 0.493879 148 194 114
0.151426 0.278266 0.493650 141 187 107
0.150066 0.278298 0.493421 135 182 99
0.148707 0.278331 0.493193 123 170 87
0.147348 0.278363 0.492964 119 160 95
0.145989 0.278395 0.492735 97 138 73
0.250217 0.385953 0.530949 157 177 130
0.248579 0.385992 0.530674 144 187 108
0.247046 0.387043 0.530593 157 200 121
0.245509 0.388094 0.530512 131 168 98
0.243966 0.389146 0.530431 22 59 0
0.155053 0.282693 0.496432 51 76 41
0.153873 0.278662 0.495522 88 113 78
0.152562 0.277679 0.495123 140 179 113
0.151203 0.277711 0.494895 156 195 129
0.149844 0.277744 0.494666 153 199 119
0.148485 0.277776 0.494437 144 190 110
0.147125 0.277808 0.494208 129 175 99
0.145703 0.278857 0.494146 129 175 99
0.144341 0.278889 0.493917 116 156 98
0.249948 0.385285 0.532449 147 167 120
0.248418 0.386335 0.532371 146 187 109
0.246778 0.386374 0.532095 161 202 124
0.245240 0.387424 0.532017 142 178 105
0.243796 0.389486 0.532134 28 64 0
0.153408 0.283180 0.497629 50 63 46
0.152288 0.278139 0.496540 67 94 45
0.150980 0.277156 0.496139 136 163 114
0.149621 0.277189 0.495910 154 197 122
0.148203 0.278236 0.495852 154 197 122
0.146841 0.278269 0.495623 146 192 114
0.145480 0.278301 0.495393 131 177 99
0.144118 0.278334 0.495164 131 176 103
0.142687 0.279381 0.495103 117 162 89
0.249789 0.385626 0.534149 147 166 124
0.248149 0.385665 0.533873 152 193 115
0.246613 0.386715 0.533797 163 204 126
0.245072 0.387764 0.533720 147 185 112
0.243526 0.388813 0.533643 29 67 0
0.150703 0.277616 0.497557 59 76 48
0.149342 0.277648 0.497328 103 137 76
0.147921 0.278695 0.497271 157 191 130
0.146618 0.277713 0.496869 165 208 129
0.145192 0.278760 0.496812 153 196 117
0.143828 0.278792 0.496582 136 182 102
0.142394 0.279839 0.496524 130 176 96
0.141027 0.279871 0.496293 125 164 100
0.249630 0.385966 0.535854 138 157 119
0.247987 0.386005 0.535578 166 207 131
0.246344 0.386044 0.535301 165 206 130
0.244803 0.387092 0.535227 152 192 121
0.149062 0.278105 0.498750 49 69 36
0.147697 0.278138 0.498520 80 100 67
0.146271 0.279183 0.498465 141 181 112
0.144904 0.279216 0.498235 165 205 136
0.143537 0.279248 0.498005 154 198 116
0.142170 0.279281 0.497775 145 189 107
0.140803 0.279314 0.497545 136 179 100
0.137992 0.280392 0.497257 103 138 80
0.249469 0.386303 0.537564 123 143 110
0.247824 0.386343 0.537287 167 205 132
0.246178 0.386382 0.537010 160 198 125
0.244634 0.387429 0.536938 154 194 123
0.241722 0.391540 0.537197 26 50 18
0.147354 0.279605 0.500124 52 63 42
0.145984 0.279638 0.499894 67 95 41
0.144615 0.279670 0.499663 138 166 112
0.143245 0.279703 0.499433 159 201 120
0.141876 0.279735 0.499202 159 201 120
0.140507 0.279768 0.498972 146 191 104
0.139062 0.280813 0.498916 129 174 87
0.137768 0.279833 0.498511 125 167 95
0.136318 0.280878 0.498454 105 147 75
0.249308 0.386639 0.539279 106 123 95
0.247660 0.386678 0.539001 158 193 123
0.246012 0.386717 0.538724 163 198 128
0.242912 0.388810 0.538582 81 123 51
0.241545 0.391871 0.538922 25 50 15
0.145697 0.280090 0.501327 48 62 26
0.144325 0.280122 0.501096 67 81 45
0.142953 0.280155 0.500865 123 158 90
0.141581 0.280188 0.500634 164 199 131
0.140209 0.280220 0.500403 160 204 120
0.138837 0.280253 0.500172 150 194 110
0.137387 0.281297 0.500118 130 176 96
0.136093 0.280318 0.499710 128 174 94
0.134721 0.280351 0.499479 117 155 98
0.249361 0.388984 0.541419 87 102 73
0.247495 0.387011 0.540720 151 186 118
0.245845 0.387051 0.540442 162 197 129
0.244194 0.387090 0.540165 162 203 127
0.242836 0.390148 0.540513 95 136 60
0.241368 0.392199 0.540650 19 47 9
0.142660 0.280605 0.502302 53 73 26
0.141285 0.280638 0.502070 122 142 95
0.139911 0.280671 0.501839 159 200 124
0.138536 0.280703 0.501608 165 206 130
0.137162 0.280736 0.501376 156 204 123
0.135787 0.280769 0.501145 138 186 105
0.134412 0.280802 0.500913 137 182 111
0.133038 0.280834 0.500682 114 159 88
0.249197 0.389313 0.543148 62 74 46
0.247539 0.389352 0.542868 152 185 118
0.245779 0.388387 0.542377 161 194 127
0.244223 0.389431 0.542310 158 199 121
0.242662 0.390476 0.542242 120 161 83
0.241190 0.392526 0.542384 23 52 7
0.141060 0.280077 0.503329 48 58 35
0.139611 0.281119 0.503280 97 128 75
0.138311 0.280142 0.502866 159 190 137
0.136936 0.280175 0.502635 165 211 133
0.135562 0.280208 0.502403 156 202 124
0.134187 0.280241 0.502172 149 197 118
0.132813 0.280273 0.501940 141 189 110
0.131438 0.280306 0.501709 131 169 112
0.249140 0.390644 0.545096 49 59 34
0.247372 0.389679 0.544601 144 176 112
0.245711 0.389719 0.544322 164 196 132
0.244051 0.389759 0.544042 159 202 123
0.242583 0.391806 0.544189 147 190 111
0.241012 0.392850 0.544122 30 62 13
0.139386 0.280557 0.504541 44 62 29
0.138009 0.280590 0.504309 93 111 78
0.136632 0.280622 0.504077 148 188 119
0.135254 0.280655 0.503845 167 207 138
0.133877 0.280688 0.503613 164 210 130
0.132500 0.280721 0.503381 152 198 118
0.131123 0.280754 0.503150 139 184 111
0.129746 0.280786 0.502918 130 175 102
0.247308 0.391007 0.546556 117 149 87
0.245642 0.391047 0.546275 161 193 131
0.243976 0.391087 0.545995 157 203 125
0.242407 0.392129 0.545930 155 201 123
0.240832 0.393172 0.545865 39 73 22
0.137783 0.280028 0.505570 47 56 38
0.136406 0.280060 0.505338 74 104 54
0.135029 0.280093 0.505106 142 172 122
0.133652 0.280126 0.504874 168 212 130
0.132275 0.280159 0.504642 165 209 127
0.130897 0.280192 0.504410 147 191 107
0.129520 0.280225 0.504179 145 189 105
0.128048 0.281265 0.504130 134 173 107
0.247242 0.392331 0.548520 90 121 64
0.245470 0.391369 0.548019 165 196 139
0.243802 0.391409 0.547739 144 190 112
0.242229 0.392450 0.547676 157 203 125
0.240558 0.392490 0.547395 66 100 49
0.238978 0.393532 0.547330 19 53 2
0.136180 0.279499 0.506599 41 60 30
0.134803 0.279531 0.506367 66 85 55
0.133426 0.279564 0.506135 138 178 109
0.132049 0.279597 0.505903 167 207 138
0.130672 0.279630 0.505671 164 209 122
0.129202 0.280669 0.505626 151 196 109
0.127822 0.280702 0.505393 144 187 108
0.126442 0.280735 0.505161 138 181 102
0.246968 0.391649 0.550050 72 99 41
0.245297 0.391689 0.549768 164 191 133
0.243626 0.391729 0.549487 151 195 113
0.241955 0.391768 0.549206 160 204 122
0.240377 0.392809 0.549144 113 148 94
0.238885 0.394851 0.549302 19 54 0
0.134577 0.278969 0.507628 41 50 32
0.133200 0.279002 0.507396 57 87 37
0.131735 0.280040 0.507353 130 160 110
0.130355 0.280073 0.507121 162 206 124
0.128976 0.280106 0.506889 165 209 127
0.127596 0.280139 0.506657 151 195 113
0.126118 0.281177 0.506612 143 187 105
0.124735 0.281210 0.506379 141 181 110
0.246797 0.391967 0.551803 53 74 22
0.245124 0.392007 0.551522 157 178 126
0.243450 0.392047 0.551240 154 196 115
0.241777 0.392086 0.550958 159 201 120
0.240196 0.393126 0.550899 127 165 106
0.238700 0.395166 0.551061 19 57 0
0.132888 0.279444 0.508849 42 59 29
0.131509 0.279477 0.508617 57 74 44
0.130129 0.279510 0.508384 118 155 87
0.128655 0.280547 0.508343 168 205 137
0.127273 0.280580 0.508110 156 203 120
0.125891 0.280613 0.507878 152 199 116
0.124407 0.281650 0.507834 143 189 111
0.122918 0.282688 0.507791 139 185 107
0.121424 0.283726 0.507746 94 128 77
0.244949 0.392322 0.553280 142 159 118
0.243273 0.392362 0.552998 160 198 121
0.241692 0.393401 0.552941 154 192 115
0.240013 0.393441 0.552658 142 181 117
0.238514 0.395479 0.552824 37 76 12
0.129811 0.279950 0.509841 46 71 25
0.128335 0.280986 0.509802 119 144 98
0.126950 0.281019 0.509569 161 204 125
0.125466 0.282056 0.509528 164 207 128
0.123976 0.283092 0.509486 148 195 112
0.122586 0.283125 0.509252 146 193 110
0.121089 0.284162 0.509210 131 175 109
0.119697 0.284195 0.508975 95 139 73
0.244873 0.393634 0.555271 116 132 98
0.243192 0.393674 0.554988 162 200 127
0.241511 0.393714 0.554705 157 195 122
0.239922 0.394752 0.554649 155 194 128
0.238416 0.396787 0.554819 62 101 35
0.236900 0.398823 0.554987 30 54 26
0.128013 0.281424 0.511265 54 66 42
0.126626 0.281457 0.511032 117 151 88
0.125138 0.282492 0.510993 166 200 137
0.123646 0.283527 0.510953 155 202 119
0.122253 0.283561 0.510719 150 197 114
0.120861 0.283594 0.510484 146 192 114
0.119358 0.284630 0.510443 139 185 107
0.117963 0.284663 0.510208 96 130 79
0.244796 0.394941 0.557271 67 82 53
0.243109 0.394981 0.556988 158 193 125
0.241423 0.395021 0.556704 164 199 131
0.239828 0.396058 0.556649 159 201 131
0.238228 0.397095 0.556594 96 138 68
0.236709 0.399129 0.556766 21 48 15
0.126203 0.282893 0.512697 49 68 28
0.124810 0.282926 0.512462 116 135 95
0.123315 0.283961 0.512425 158 201 122
0.121920 0.283994 0.512190 159 202 123
0.120525 0.284027 0.511955 146 193 108
0.119019 0.285062 0.511916 149 196 111
0.117622 0.285095 0.511680 143 185 115
0.244716 0.396244 0.559281 52 64 40
0.243025 0.396284 0.558997 150 184 119
0.241334 0.396324 0.558712 159 193 128
0.239642 0.396364 0.558427 158 200 128
0.238039 0.397400 0.558374 129 171 99
0.236431 0.398437 0.558319 22 52 13
0.124481 0.283358 0.513937 48 58 33
0.123086 0.283391 0.513702 101 137 76
0.121585 0.284425 0.513666 161 197 136
0.120188 0.284458 0.513430 156 203 118
0.118790 0.284492 0.513195 149 196 111
0.117393 0.284525 0.512960 148 191 112
0.115879 0.285559 0.512921 143 186 107
0.242939 0.397583 0.561015 137 166 105
0.241242 0.397623 0.560729 162 191 130
0.239546 0.397664 0.560444 157 199 127
0.237850 0.397704 0.560158 146 188 116
0.122754 0.283821 0.515180 42 63 23
0.121356 0.283855 0.514945 115 136 96
0.119959 0.283888 0.514710 156 202 126
0.118561 0.283921 0.514475 155 201 125
0.117050 0.284954 0.514439 146 192 112
0.115650 0.284987 0.514203 146 192 112
0.114250 0.285021 0.513968 142 182 111
0.242756 0.397884 0.562805 107 133 78
0.241057 0.397924 0.562519 167 193 138
0.239358 0.397965 0.562233 161 204 129
0.237659 0.398005 0.561947 152 195 120
0.235960 0.398046 0.561661 74 112 57
0.234261 0.398086 0.561375 20 58 3
0.121127 0.283284 0.516225 50 62 38
0.119730 0.283318 0.515989 107 143 82
0.118220 0.284349 0.515957 160 196 135
0.116820 0.284383 0.515721 155 201 121
0.115420 0.284416 0.515485 150 196 116
0.113781 0.286447 0.515652 147 190 111
0.112376 0.286480 0.515415 138 181 102
0.242478 0.397191 0.564361 62 85 35
0.240779 0.397231 0.564075 165 188 138
0.239080 0.397272 0.563789 162 203 129
0.237381 0.397312 0.563503 153 194 120
0.235682 0.397353 0.563217 101 141 83
0.234064 0.398386 0.563168 15 55 0
0.119391 0.283745 0.517474 42 66 27
0.117991 0.283778 0.517238 103 127 88
0.116476 0.284809 0.517207 155 198 123
0.114956 0.285840 0.517175 164 207 132
0.112023 0.286904 0.516905 141 185 101
0.110491 0.287935 0.516870 141 182 108
0.108953 0.288967 0.516835 95 136 62
0.242294 0.397489 0.566158 37 59 14
0.240592 0.397529 0.565872 142 164 119
0.238890 0.397570 0.565585 168 206 133
0.237189 0.397610 0.565299 160 198 125
0.235487 0.397651 0.565013 133 173 113
0.233786 0.397691 0.564726 18 58 0
0.117649 0.284203 0.518727 43 60 34
0.114726 0.285266 0.518461 158 193 137
0.113200 0.286296 0.518431 155 199 115
0.111547 0.288323 0.518604 148 192 108
0.110009 0.289353 0.518571 147 191 107
0.108593 0.289387 0.518333 138 182 98
0.240313 0.396835 0.567430 100 120 85
0.238612 0.396875 0.567143 167 202 132
0.236910 0.396916 0.566857 165 200 130
0.235208 0.396956 0.566571 148 187 123
0.233588 0.397988 0.566526 37 76 12
0.115785 0.285655 0.520193 42 67 30
0.114259 0.286684 0.520165 105 130 93
0.112728 0.287713 0.520136 158 201 122
0.111192 0.288742 0.520106 160 203 124
0.109777 0.288776 0.519867 144 189 100
0.108233 0.289805 0.519836 144 189 100
0.106815 0.289839 0.519597 132 169 101
0.240125 0.397130 0.569234 77 92 65
0.238421 0.397170 0.568947 162 196 131
0.236717 0.397211 0.568660 165 199 134
0.235013 0.397252 0.568373 155 195 124
0.233309 0.397292 0.568086 77 117 46
0.231683 0.398322 0.568043 20 45 8
0.113791 0.288097 0.521878 44 59 34
0.112376 0.288131 0.521640 110 146 85
0.110836 0.289159 0.521611 162 198 137
0.109418 0.289193 0.521373 151 198 113
0.107872 0.290221 0.521343 145 192 107
0.106451 0.290255 0.521104 146 189 110
0.105031 0.290289 0.520865 130 173 94
0.239936 0.397423 0.571043 46 57 36
0.238142 0.396475 0.570507 153 187 126
0.236438 0.396516 0.570220 169 203 142
0.234734 0.396556 0.569933 154 194 123
0.233110 0.397585 0.569893 119 159 88
0.231403 0.397626 0.569606 23 52 9
0.112022 0.288546 0.523148 40 66 22
0.110480 0.289574 0.523122 117 143 99
0.109059 0.289607 0.522883 156 202 124
0.107639 0.289641 0.522644 152 198 120
0.106086 0.290669 0.522616 144 191 108
0.104663 0.290703 0.522376 139 186 103
0.239657 0.396726 0.572605 37 46 26
0.237950 0.396767 0.572318 126 152 97
0.236243 0.396808 0.572031 175 201 146
0.234537 0.396848 0.571743 161 201 132
0.232830 0.396889 0.571456 142 182 113
0.231201 0.397917 0.571417 47 77 29
0.110247 0.288994 0.524423 47 64 36
0.108699 0.290020 0.524398 110 149 85
0.107276 0.290054 0.524158 162 201 137
0.105721 0.291081 0.524132 157 204 121
0.104161 0.292107 0.524105 146 193 110
0.102595 0.293134 0.524077 144 190 114
0.237758 0.397057 0.574133 56 81 33
0.236048 0.397098 0.573846 162 187 139
0.234339 0.397138 0.573558 169 206 138
0.232630 0.397179 0.573270 157 194 126
0.230997 0.398206 0.573233 78 110 59
0.229360 0.399234 0.573196 14 46 0
0.108339 0.290431 0.525917 46 72 28
0.106783 0.291456 0.525894 130 156 112
0.105355 0.291490 0.525653 162 208 128
0.103656 0.293508 0.525843 156 202 122
0.102223 0.293542 0.525602 144 190 110
0.100649 0.294568 0.525575 142 188 108
0.237651 0.398330 0.576208 40 64 23
0.235852 0.397385 0.575665 149 173 132
0.234141 0.397426 0.575377 171 205 140
0.232429 0.397467 0.575089 164 198 133
0.230793 0.398493 0.575054 127 162 106
0.229079 0.398534 0.574765 20 55 0
0.106418 0.291864 0.527420 60 76 53
0.104855 0.292889 0.527397 134 173 107
0.103421 0.292923 0.527156 166 205 139
0.101712 0.294938 0.527349 157 204 121
0.100273 0.294972 0.527107 146 193 110
0.098692 0.295997 0.527081 141 182 115
0.237456 0.398614 0.578035 29 49 14
0.235656 0.397671 0.577489 122 142 107
0.233941 0.397712 0.577201 177 211 146
0.232227 0.397753 0.576912 170 204 139
0.230589 0.398778 0.576879 146 181 123
0.228945 0.399803 0.576845 37 72 14
0.105922 0.293259 0.529171 43 53 39
0.104353 0.294283 0.529150 59 89 41
0.102914 0.294317 0.528908 142 172 124
0.101337 0.295341 0.528885 160 206 128
0.099896 0.295375 0.528643 149 195 117
0.098455 0.295409 0.528400 145 191 115
0.095425 0.296468 0.528133 96 128 79
0.235541 0.398938 0.579578 92 104 76
0.233822 0.398979 0.579288 175 207 145
0.232102 0.399020 0.578999 173 205 143
0.230383 0.399061 0.578709 155 191 126
0.228736 0.400085 0.578677 79 115 50
0.227014 0.400126 0.578387 21 45 13
0.103983 0.294684 0.530690 40 60 27
0.102542 0.294718 0.530447 84 104 71
0.101101 0.294753 0.530205 146 185 119
0.099660 0.294787 0.529962 166 205 139
0.096632 0.295844 0.529698 146 192 112
0.095039 0.296867 0.529675 137 176 114
0.235342 0.399219 0.581414 55 65 42
0.233620 0.399260 0.581124 161 189 133
0.231898 0.399301 0.580834 174 202 146
0.230251 0.400324 0.580804 160 197 129
0.228527 0.400365 0.580514 119 156 88
0.226802 0.400406 0.580224 17 43 3
0.102306 0.294130 0.531767 42 54 30
0.099282 0.295186 0.531505 156 187 132
0.097839 0.295221 0.531262 161 204 127
0.096248 0.296243 0.531242 157 200 123
0.094652 0.297265 0.531221 154 196 126
0.092899 0.299275 0.531422 129 171 101
0.235225 0.400478 0.583518 40 48 33
0.233498 0.400519 0.583227 115 143 91
0.231771 0.400560 0.582937 170 198 146
0.230044 0.400602 0.582646 162 199 129
0.228316 0.400643 0.582355 147 184 114
0.226589 0.400684 0.582064 36 65 20
0.100489 0.294563 0.533070 43 64 24
0.098903 0.295584 0.533053 112 133 93
0.097312 0.296605 0.533035 160 200 129
0.095716 0.297626 0.533017 166 206 135
0.094115 0.298647 0.532997 161 204 129
0.092508 0.299669 0.532977 154 197 122
0.233294 0.400795 0.585075 70 95 47
0.231488 0.399856 0.584518 168 193 145
0.229761 0.399897 0.584227 165 202 132
0.228033 0.399938 0.583936 156 193 123
0.226376 0.400959 0.583910 90 121 68
0.224646 0.401001 0.583619 16 47 0
0.098524 0.295979 0.534606 47 62 35
0.096784 0.297985 0.534818 118 150 88
0.095182 0.299005 0.534801 165 197 135
0.093576 0.300025 0.534783 159 202 127
0.092117 0.300060 0.534537 159 202 127
0.090502 0.301081 0.534518 151 186 128
0.233011 0.400089 0.586658 40 61 23
0.231281 0.400130 0.586367 154 175 137
0.229552 0.400171 0.586076 173 207 142
0.227822 0.400212 0.585785 164 198 133
0.226092 0.400254 0.585494 122 155 101
0.224429 0.401274 0.585468 17 50 0
0.096254 0.299361 0.536610 58 80 35
0.094647 0.300380 0.536594 140 162 117
0.093186 0.300415 0.536348 165 203 128
0.091571 0.301434 0.536331 160 198 123
0.090107 0.301469 0.536085 159 199 128
0.232806 0.400361 0.588513 33 50 20
0.231074 0.400402 0.588221 127 144 114
0.229342 0.400444 0.587929 170 204 143
0.227609 0.400485 0.587638 167 201 140
0.225877 0.400526 0.587346 141 176 120
0.224145 0.400567 0.587054 40 75 19
0.094259 0.300767 0.538164 72 89 59
0.092795 0.300802 0.537918 150 185 117
0.091177 0.301820 0.537903 169 204 136
0.089554 0.302839 0.537887 158 199 121
0.087926 0.303858 0.537870 158 199 121
0.230790 0.399695 0.589807 69 83 61
0.229058 0.399737 0.589515 164 195 140
0.227326 0.399778 0.589224 175 206 151
0.225593 0.399819 0.588932 151 186 130
0.223861 0.399861 0.588640 72 107 51
0.222192 0.400879 0.588619 12 39 6
0.093870 0.301152 0.539739 41 55 33
0.092252 0.302169 0.539727 100 133 75
0.090628 0.303187 0.539713 165 198 140
0.088843 0.305187 0.539932 159 202 123
0.087207 0.306205 0.539917 160 203 124
0.230581 0.399965 0.591668 43 54 35
0.228847 0.400006 0.591376 139 167 115
0.227112 0.400047 0.591084 179 207 155
0.225377 0.400089 0.590792 157 193 132
0.223642 0.400130 0.590500 118 154 93
0.221907 0.400171 0.590207 22 50 12
0.091554 0.304514 0.541781 52 78 36
0.088286 0.306548 0.541756 162 205 128
0.086804 0.306583 0.541506 158 201 124
0.085160 0.307600 0.541492 158 199 123
0.230372 0.400232 0.593533 34 44 28
0.228635 0.400273 0.593241 109 133 90
0.226828 0.399339 0.592672 178 202 159
0.225093 0.399381 0.592380 169 205 140
0.223423 0.400397 0.592363 141 177 112
0.221685 0.400439 0.592071 45 74 29
0.089370 0.306888 0.543600 63 82 54
0.087728 0.307904 0.543588 145 186 112
0.086241 0.307940 0.543338 155 196 122
0.084591 0.308956 0.543325 157 201 117
0.083102 0.308991 0.543074 151 195 111
0.228350 0.399564 0.594831 77 103 63
0.226613 0.399606 0.594539 168 194 154
0.224875 0.399647 0.594246 165 204 138
0.223138 0.399688 0.593954 144 183 117
0.221462 0.400704 0.593939 84 116 67
0.219781 0.401720 0.593923 16 48 0
0.088816 0.308242 0.545441 38 51 34
0.087168 0.309256 0.545431 103 137 76
0.085676 0.309292 0.545179 160 194 133
0.084021 0.310307 0.545168 155 198 112
0.082195 0.312302 0.545394 154 197 111
0.228137 0.399828 0.596703 39 62 26
0.226397 0.399870 0.596411 150 173 137
0.224657 0.399911 0.596118 166 205 139
0.222917 0.399953 0.595825 153 192 126
0.221238 0.400967 0.595811 112 147 93
0.219554 0.401982 0.595797 13 48 0
0.086290 0.312562 0.547768 56 86 38
0.084626 0.313576 0.547757 142 172 124
0.083121 0.313612 0.547504 161 203 120
0.081450 0.314626 0.547492 151 193 110
0.079774 0.315641 0.547479 154 195 121
0.227923 0.400090 0.598580 30 48 13
0.226180 0.400132 0.598287 113 131 96
0.224438 0.400173 0.597993 167 206 140
0.222759 0.401187 0.597983 160 199 133
0.221014 0.401228 0.597689 132 168 107
0.219327 0.402242 0.597677 34 70 9
0.085567 0.314881 0.549878 31 51 18
0.084057 0.314917 0.549624 85 105 72
0.082547 0.314953 0.549370 159 200 124
0.081037 0.314989 0.549116 152 193 117
0.079188 0.316980 0.549348 155 196 122
0.225963 0.400392 0.600168 72 84 58
0.224218 0.400433 0.599874 159 198 132
0.222536 0.401446 0.599865 159 198 132
0.220788 0.401487 0.599571 144 184 115
0.217348 0.402542 0.599266 22 45 9
0.083323 0.317230 0.551748 50 65 40
0.081806 0.317266 0.551492 146 178 114
0.080288 0.317302 0.551237 161 193 129
0.076737 0.320305 0.551461 153 188 120
0.225812 0.401619 0.602342 47 56 36
0.224062 0.401661 0.602047 144 180 117
0.222312 0.401703 0.601752 161 197 134
0.220562 0.401744 0.601458 150 192 120
0.218811 0.401786 0.601163 114 156 84
0.217116 0.402798 0.601154 18 47 4
0.225592 0.401874 0.604234 38 44 25
0.223840 0.401916 0.603939 131 163 101
0.222087 0.401958 0.603644 161 193 131
0.220334 0.401999 0.603349 152 193 119
0.218582 0.402041 0.603054 135 176 102
0.216883 0.403052 0.603047 32 63 17
0.223552 0.401201 0.605544 83 106 54
0.221800 0.401242 0.605249 163 186 134
0.220106 0.402252 0.605245 148 189 115
0.218351 0.402294 0.604950 144 185 111
0.216650 0.403304 0.604945 55 87 36
0.214892 0.403346 0.604649 20 52 1
0.223329 0.401452 0.607443 45 67 22
0.221574 0.401494 0.607148 147 169 124
0.219819 0.401536 0.606852 151 191 120
0.218120 0.402545 0.606850 145 185 114
0.216362 0.402587 0.606554 89 124 70
0.214655 0.403596 0.606551 14 49 0
0.223105 0.401702 0.609347 30 51 13
0.221347 0.401744 0.609051 121 142 104
0.219589 0.401786 0.608755 148 188 119
0.217831 0.401827 0.608459 146 186 117
0.216127 0.402835 0.608459 122 160 103
0.214367 0.402877 0.608162 17 55 0
0.221119 0.401991 0.610960 101 119 84
0.219359 0.402033 0.610663 155 191 126
0.217599 0.402075 0.610367 149 185 120
0.215838 0.402117 0.610070 134 172 113
0.214078 0.402159 0.609774 38 76 17
0.220831 0.401273 0.612571 54 71 43
0.219071 0.401315 0.612275 148 184 123
0.217310 0.401357 0.611979 149 185 124
0.215550 0.401399 0.611682 141 180 114
0.213839 0.402405 0.611685 82 121 55
0.220602 0.401517 0.614486 38 54 33
0.218839 0.401559 0.614190 127 162 108
0.217076 0.401601 0.613893 150 185 131
0.215313 0.401643 0.613596 144 183 117
0.213551 0.401685 0.613299 106 145 79
0.211788 0.401727 0.613003 22 46 5
0.220313 0.400798 0.616100 38 48 32
0.218550 0.400840 0.615804 88 120 71
0.216787 0.400882 0.615507 152 184 135
0.215025 0.400924 0.615210 141 181 112
0.213262 0.400966 0.614913 130 170 101
0.211499 0.401008 0.614617 39 66 19
0.218318 0.401081 0.617725 59 85 43
0.216499 0.400162 0.617121 152 178 136
0.214736 0.400204 0.616824 134 174 103
0.212973 0.400246 0.616527 137 177 106
0.211256 0.401249 0.616537 61 94 40
0.218028 0.400361 0.619342 46 70 31
0.216263 0.400403 0.619045 133 157 118
0.214447 0.399485 0.618438 144 184 115
0.212732 0.400487 0.618450 139 179 110
0.210967 0.400529 0.618153 98 133 77
0.209201 0.400571 0.617856 16 51 0
0.217739 0.399640 0.620958 32 55 19
0.215974 0.399682 0.620661 120 143 107
0.214208 0.399724 0.620364 145 184 118
0.212443 0.399767 0.620067 134 173 107
0.210677 0.399809 0.619769 120 159 95
0.208912 0.399851 0.619472 23 62 0
0.217450 0.398920 0.622575 31 50 20
0.215684 0.398962 0.622277 88 107 77
0.213919 0.399004 0.621980 144 185 120
0.212153 0.399046 0.621683 130 171 106
0.210388 0.399088 0.621386 134 173 109
0.208623 0.399130 0.621089 44 83 19
0.215447 0.399198 0.624211 45 64 38
0.213630 0.398284 0.623597 141 180 118
0.211864 0.398326 0.623299 130 169 107
0.210099 0.398368 0.623002 136 177 112
0.208375 0.399367 0.623020 65 106 41
0.215157 0.398477 0.625829 37 54 28
0.213389 0.398519 0.625532 131 169 110
0.211621 0.398561 0.625234 135 173 114
0.209853 0.398603 0.624936 131 175 107
0.208085 0.398645 0.624639 101 145 77
0.206356 0.399643 0.624658 20 45 10
0.214919 0.398710 0.627769 43 54 33
0.213100 0.397797 0.627150 117 152 96
0.211332 0.397839 0.626853 141 176 120
0.209564 0.397882 0.626555 128 174 105
0.207837 0.398879 0.626577 120 166 97
0.206104 0.399875 0.626598 21 46 9
0.214679 0.398941 0.629714 46 52 35
0.212858 0.398029 0.629092 100 130 80
0.211088 0.398072 0.628794 149 179 129
0.209317 0.398114 0.628496 127 174 102
0.207546 0.398156 0.628198 125 172 100
0.205814 0.399152 0.628222 36 65 24
0.212568 0.397307 0.630713 67 93 49
0.210797 0.397349 0.630415 153 179 135
0.209027 0.397391 0.630117 123 169 102
0.207256 0.397433 0.629819 130 176 109
0.205523 0.398428 0.629845 62 96 47
0.212325 0.397536 0.632662 40 66 26
0.210552 0.397578 0.632364 147 173 133
0.208737 0.396669 0.631738 128 172 106
0.207006 0.397663 0.631767 134 178 112
0.205270 0.398657 0.631795 85 122 72
0.203563 0.400602 0.632147 14 51 1
0.212128 0.398713 0.634946 35 59 20
0.210261 0.396855 0.633987 137 161 122
0.208488 0.396897 0.633689 130 174 106
0.206754 0.397890 0.633719 131 175 107
0.205015 0.398883 0.633749 105 145 89
0.203305 0.400826 0.634106 18 58 2
0.211883 0.398937 0.636907 38 57 19
0.210059 0.398030 0.636275 107 126 88
0.208281 0.398072 0.635976 141 183 113
0.206502 0.398115 0.635676 130 172 102
0.204760 0.399107 0.635708 122 162 102
0.203047 0.401048 0.636069 26 66 6
0.209811 0.398253 0.638238 79 92 59
0.208030 0.398295 0.637938 144 183 117
0.206249 0.398337 0.637638 126 165 99
0.204504 0.399328 0.637672 131 170 106
0.202754 0.400320 0.637704 39 78 14
0.209562 0.398473 0.640205 61 73 47
0.207779 0.398516 0.639905 139 175 112
0.205995 0.398558 0.639605 129 165 102
0.204248 0.399548 0.639640 131 170 104
0.202494 0.400538 0.639675 69 108 42
0.200736 0.401529 0.639708 29 49 16
0.209313 0.398692 0.642177 45 57 33
0.207527 0.398734 0.641877 126 161 103
0.205741 0.398777 0.641576 132 167 109
0.203955 0.398820 0.641275 127 166 100
0.202201 0.399809 0.641312 97 136 70
0.200473 0.401744 0.641685 25 48 12
0.209062 0.398908 0.644154 36 48 24
0.207274 0.398951 0.643853 113 148 92
0.205485 0.398994 0.643552 137 172 116
0.203697 0.399036 0.643251 124 163 97
0.201940 0.400024 0.643289 113 152 86
0.200208 0.401958 0.643667 27 51 12
0.208853 0.400067 0.646479 37 47 24
0.207020 0.399165 0.645834 97 128 75
0.205229 0.399208 0.645532 144 175 122
0.203438 0.399251 0.645231 121 162 95
0.201679 0.400238 0.645271 119 160 93
0.199914 0.401225 0.645311 42 68 26
0.208600 0.400278 0.648467 50 56 37
0.206765 0.399378 0.647819 67 95 41
0.204972 0.399421 0.647517 146 174 120
0.203178 0.399463 0.647215 121 163 93
0.201385 0.399506 0.646913 119 161 91
0.199620 0.400492 0.646956 56 85 42
0.206510 0.399588 0.649810 48 74 23
0.204678 0.398689 0.649159 147 173 122
0.202884 0.398731 0.648858 126 167 100
0.201122 0.399716 0.648902 118 159 92
0.199325 0.399759 0.648600 67 96 53
0.206216 0.398855 0.651454 40 62 17
0.204384 0.397957 0.650802 140 162 117
0.202590 0.398000 0.650500 132 171 105
0.200827 0.398984 0.650547 124 163 97
0.199031 0.399026 0.650245 84 116 67
0.205921 0.398122 0.653098 31 51 16
0.204125 0.398165 0.652796 123 143 108
0.202297 0.397268 0.652142 131 172 107
0.200533 0.398251 0.652191 125 166 101
0.198737 0.398293 0.651889 98 133 79
0.196965 0.399277 0.651937 18 53 0
0.205627 0.397389 0.654743 26 48 17
0.203831 0.397432 0.654441 103 125 94
0.202003 0.396536 0.653784 132 173 108
0.200239 0.397518 0.653836 125 166 101
0.198442 0.397560 0.653533 108 148 90
0.196671 0.398543 0.653584 19 59 1
0.205333 0.396656 0.656387 26 48 17
0.203536 0.396699 0.656085 90 112 81
0.201740 0.396742 0.655783 139 180 117
0.199944 0.396785 0.655480 122 163 100
0.198148 0.396828 0.655178 118 158 100
0.196376 0.397809 0.655231 23 63 5
0.205075 0.396860 0.658392 26 45 17
0.203242 0.395966 0.657729 84 103 75
0.201446 0.396009 0.657427 139 180 115
0.199650 0.396052 0.657125 124 165 100
0.197854 0.396095 0.656822 124 165 102
0.196081 0.397075 0.656878 41 82 19
0.202948 0.395233 0.659374 72 89 61
0.201152 0.395276 0.659072 138 179 112
0.199356 0.395319 0.658769 121 162 95
0.197560 0.395362 0.658467 124 165 100
0.195787 0.396341 0.658524 58 99 34
0.202654 0.394500 0.661018 48 63 36
0.200857 0.394543 0.660716 139 179 108
0.199061 0.394586 0.660414 123 163 92
0.197265 0.394629 0.660111 123 167 101
0.195515 0.396542 0.660534 60 104 38
0.202359 0.393767 0.662663 40 52 26
0.200563 0.393810 0.662360 134 174 103
0.198767 0.393853 0.662058 122 162 91
0.196996 0.394830 0.662121 120 164 98
0.195219 0.395807 0.662183 75 119 53
0.202065 0.393035 0.664307 33 45 21
0.200269 0.393077 0.664005 130 169 103
0.198473 0.393120 0.663702 127 166 100
0.196701 0.394096 0.663768 116 160 96
0.194924 0.395072 0.663832 88 132 68
0.201771 0.392302 0.665952 31 42 21
0.199975 0.392344 0.665649 122 158 97
0.198178 0.392387 0.665347 132 168 107
0.196406 0.393362 0.665414 118 164 97
0.194629 0.394337 0.665481 99 145 78
0.445924 0.399718 0.714272 26 36 22
0.444089 0.399762 0.713963 25 35 21
0.442255 0.399806 0.713654 22 30 15
0.440420 0.399849 0.713345 25 33 18
0.438586 0.399893 0.713037 27 32 18
0.437110 0.400860 0.713156 29 34 20
0.201508 0.392499 0.667970 31 42 23
0.199680 0.391611 0.667294 103 138 82
0.197884 0.391654 0.666991 132 167 111
0.196112 0.392628 0.667061 118 164 99
0.194334 0.393602 0.667130 102 148 83
0.445623 0.398970 0.715951 27 37 25
0.443789 0.399014 0.715643 22 32 20
0.441954 0.399057 0.715334 22 32 16
0.440120 0.399101 0.715025 25 35 19
0.438646 0.400066 0.715147 25 33 18
0.436809 0.400110 0.714838 27 35 20
0.434972 0.400154 0.714529 30 38 23
0.201182 0.390836 0.669241 34 44 28
0.199386 0.390878 0.668938 86 120 69
0.197590 0.390921 0.668636 134 168 117
0.195817 0.391894 0.668708 119 164 102
0.194039 0.392867 0.668779 108 153 91
0.447157 0.398178 0.717940 29 38 29
0.445323 0.398221 0.717631 27 37 25
0.443488 0.398265 0.717322 26 36 24
0.441654 0.398309 0.717013 25 35 21
0.439819 0.398352 0.716705 27 37 23
0.438345 0.399317 0.716829 28 36 21
0.436508 0.399361 0.716520 25 33 18
0.434671 0.399404 0.716211 25 30 16
0.432834 0.399448 0.715902 31 36 22
0.200918 0.391032 0.671263 33 46 31
0.199092 0.390146 0.670583 75 108 62
0.197296 0.390188 0.670280 137 170 124
0.195522 0.391160 0.670355 115 160 100
0.193764 0.393061 0.670805 114 159 99
0.447229 0.398348 0.720057 32 40 29
0.445392 0.398392 0.719748 27 36 27
0.443188 0.397516 0.719002 26 35 26
0.441353 0.397560 0.718693 26 36 24
0.439881 0.398524 0.718820 25 35 23
0.438044 0.398567 0.718511 28 36 23
0.436207 0.398611 0.718202 28 36 23
0.434370 0.398655 0.717893 27 32 18
0.432533 0.398699 0.717583 29 34 20
0.200623 0.390298 0.672910 30 45 31
0.198797 0.389413 0.672227 64 97 53
0.197001 0.389455 0.671925 137 170 126
0.195228 0.390426 0.672002 120 163 104
0.193468 0.392325 0.672456 116 159 100
0.445091 0.397643 0.721430 27 36 29
0.443254 0.397686 0.721121 25 34 27
0.441417 0.397730 0.720812 27 36 27
0.439580 0.397774 0.720502 25 34 25
0.437743 0.397818 0.720193 28 35 27
0.435906 0.397861 0.719884 27 34 26
0.434069 0.397905 0.719575 25 30 20
0.432232 0.397949 0.719265 30 35 25
0.198503 0.388680 0.673872 54 90 45
0.196707 0.388723 0.673569 134 170 125
0.194933 0.389692 0.673648 117 160 99
0.193173 0.391589 0.674108 116 159 98
0.444790 0.396893 0.723112 26 34 31
0.442953 0.396937 0.722803 25 33 30
0.441116 0.396981 0.722494 27 35 32
0.439279 0.397024 0.722184 26 34 31
0.437442 0.397068 0.721875 27 36 29
0.435605 0.397112 0.721566 27 36 29
0.433768 0.397156 0.721256 27 34 26
0.432282 0.398117 0.721387 30 37 29
0.198182 0.387021 0.675131 48 84 41
0.196413 0.387990 0.675214 135 171 128
0.194638 0.388958 0.675295 117 160 99
0.192858 0.389927 0.675376 119 162 101
0.444489 0.396143 0.724794 34 42 39
0.442652 0.396187 0.724485 31 39 36
0.440815 0.396231 0.724175 31 39 38
0.438978 0.396275 0.723866 32 40 39
0.437141 0.396318 0.723557 27 38 36
0.435304 0.396362 0.723248 24 35 33
0.433820 0.397323 0.723381 29 38 31
0.431981 0.397367 0.723071 33 42 35
0.197862 0.385365 0.676386 44 80 37
0.196118 0.387257 0.676858 131 167 124
0.194343 0.388224 0.676942 122 165 104
0.192582 0.390117 0.677411 119 162 101
0.444188 0.395394 0.726476 43 50 44
0.442351 0.395438 0.726166 35 42 36
0.440514 0.395481 0.725857 26 34 31
0.438677 0.395525 0.725548 27 35 32
0.436840 0.395569 0.725239 27 38 34
0.435003 0.395613 0.724929 26 37 33
0.433519 0.396572 0.725065 32 40 37
0.197543 0.383710 0.677637 42 78 35
0.195801 0.385600 0.678114 130 166 123
0.194028 0.386567 0.678200 117 161 97
0.192268 0.388457 0.678674 116 160 96
0.441320 0.392859 0.726950 34 41 33
0.439488 0.392903 0.726642 29 38 31
0.438016 0.393861 0.726782 22 31 24
0.436539 0.394819 0.726921 22 30 27
0.434702 0.394863 0.726611 29 37 34
0.197199 0.381135 0.678491 44 77 35
0.195461 0.383023 0.678973 128 161 119
0.193734 0.385834 0.679845 113 157 91
0.191973 0.387722 0.680323 119 163 97
0.441019 0.392112 0.728628 37 45 34
0.439187 0.392155 0.728319 35 44 35
0.437356 0.392199 0.728011 29 38 29
0.435881 0.393156 0.728153 19 31 23
0.434401 0.394113 0.728293 27 39 31
0.196857 0.378565 0.679335 43 74 32
0.195146 0.381372 0.680217 127 158 116
0.193439 0.385101 0.681489 116 160 94
0.191661 0.386065 0.681579 119 163 97
0.440719 0.391364 0.730305 41 51 37
0.438887 0.391408 0.729996 27 44 28
0.437055 0.391451 0.729688 22 39 23
0.435580 0.392407 0.729832 17 33 22
0.434100 0.393364 0.729975 29 45 34
0.196517 0.375998 0.680170 47 76 33
0.194787 0.377882 0.680664 129 158 115
0.193126 0.383447 0.682738 117 161 95
0.191366 0.385331 0.683226 119 163 97
0.439691 0.388794 0.731070 86 102 81
0.438226 0.389749 0.731218 83 107 79
0.436397 0.389792 0.730910 69 93 65
0.434923 0.390747 0.731057 46 68 50
0.433799 0.392614 0.731657 33 55 37
0.196178 0.373436 0.680996 44 73 30
0.194453 0.375317 0.681495 127 156 113
0.192794 0.380876 0.683584 119 163 97
0.191071 0.384597 0.684873 121 165 99
0.438665 0.386228 0.731826 107 125 102
0.436843 0.386271 0.731519 84 114 77
0.435738 0.388135 0.732128 67 97 60
0.434623 0.390000 0.732734 62 88 64
0.433145 0.390954 0.732882 32 58 34
0.195865 0.371796 0.682214 38 69 25
0.194141 0.373675 0.682718 127 158 114
0.192501 0.380146 0.685222 119 163 99
0.190760 0.382945 0.686120 122 166 102
0.437640 0.383666 0.732572 107 128 104
0.435824 0.383710 0.732267 81 111 72
0.434723 0.385571 0.732880 67 97 58
0.433968 0.388343 0.733952 69 93 65
0.432491 0.389296 0.734103 38 62 34
0.195575 0.371076 0.683830 31 62 20
0.193831 0.372035 0.683936 127 158 116
0.192208 0.379417 0.686859 117 161 97
0.190466 0.382212 0.687764 121 165 101
0.436255 0.380201 0.732847 106 125 99
0.434806 0.381152 0.733005 78 109 67
0.433710 0.383012 0.733624 65 96 54
0.432958 0.385780 0.734703 66 90 60
0.432191 0.388548 0.735780 39 63 33
0.195263 0.369439 0.685041 36 67 25
0.193561 0.372230 0.685960 126 157 115
0.191915 0.378687 0.688496 120 164 100
0.190172 0.381479 0.689409 119 163 99
0.435234 0.377648 0.733572 107 124 98
0.433430 0.377691 0.733268 83 112 69
0.432698 0.380456 0.734358 71 100 57
0.432305 0.384128 0.735909 62 86 54
0.431891 0.387801 0.737457 38 62 30
0.194974 0.368720 0.686655 41 72 28
0.193251 0.370592 0.687173 124 155 111
0.191622 0.377957 0.690134 122 166 102
0.189892 0.381661 0.691460 116 160 96
0.434577 0.376006 0.734756 104 121 93
0.432775 0.376049 0.734453 87 116 71
0.431688 0.377904 0.735083 65 94 49
0.430944 0.380666 0.736178 63 88 51
0.431239 0.386147 0.738669 34 59 22
0.194685 0.368000 0.688269 43 74 30
0.192961 0.369871 0.688792 126 157 113
0.191312 0.376313 0.691362 116 160 96
0.189583 0.380013 0.692698 117 161 97
0.433920 0.374366 0.735935 103 120 92
0.432121 0.374409 0.735632 95 124 79
0.431035 0.376262 0.736268 71 100 55
0.430646 0.379926 0.737839 61 84 48
0.430237 0.383590 0.739407 48 71 35
0.429807 0.387255 0.740971 43 57 37
0.194375 0.366368 0.689470 44 77 31
0.192653 0.368236 0.689998 122 155 109
0.191019 0.375584 0.692997 113 159 94
0.189289 0.379280 0.694342 118 164 99
0.433264 0.372728 0.737109 103 120 90
0.431468 0.372771 0.736807 90 120 72
0.430384 0.374622 0.737448 71 101 53
0.429643 0.377377 0.738558 62 86 47
0.429587 0.381941 0.740606 47 71 32
0.429159 0.385602 0.742180 44 58 36
0.194065 0.364737 0.690667 47 80 36
0.192363 0.367516 0.691615 121 154 110
0.190710 0.373943 0.694218 114 160 93
0.188995 0.378547 0.695987 118 164 97
0.431888 0.369286 0.737330 102 117 88
0.430458 0.370232 0.737503 89 119 69
0.429733 0.372984 0.738623 69 99 49
0.428640 0.374833 0.739267 69 93 50
0.428588 0.379392 0.741328 42 66 23
0.428858 0.384854 0.743858 44 59 34
0.193757 0.363109 0.691858 51 82 38
0.192074 0.366795 0.693231 126 157 113
0.190418 0.373215 0.695850 116 162 93
0.188700 0.377814 0.697631 114 160 91
0.429092 0.366795 0.737713 93 125 76
0.429084 0.371348 0.739794 65 97 48
0.427992 0.373195 0.740443 71 98 51
0.428291 0.378650 0.742991 46 73 26
0.428558 0.384107 0.745535 47 62 37
0.193469 0.362393 0.693465 56 87 43
0.191785 0.366075 0.694848 127 158 114
0.190126 0.372488 0.697483 113 157 89
0.188406 0.377081 0.699276 117 161 93
0.429144 0.362421 0.737728 95 110 83
0.428080 0.368813 0.740481 68 100 51
0.427697 0.372460 0.742092 73 103 55
0.426944 0.375206 0.743222 46 76 28
0.428258 0.383359 0.747212 46 61 36
0.193162 0.360768 0.694650 66 97 51
0.191496 0.365354 0.696464 124 155 109
0.189804 0.369942 0.698273 105 149 83
0.188099 0.375439 0.700499 115 159 93
0.428135 0.359898 0.738388 90 105 80
0.427078 0.366282 0.741159 72 104 55
0.427051 0.370825 0.743261 67 96 51
0.427265 0.380812 0.747930 43 60 32
0.192874 0.360052 0.696255 81 113 64
0.191189 0.363726 0.697656 123 155 106
0.189455 0.365584 0.698207 106 150 86
0.187758 0.371075 0.700448 110 154 90
0.186021 0.375658 0.702262 32 58 16
0.427128 0.357379 0.739039 70 85 60
0.426790 0.361017 0.740677 106 137 91
0.425000 0.365596 0.742494 61 93 44
0.428004 0.382763 0.751048 35 54 26
0.194361 0.360202 0.698582 27 40 23
0.192587 0.359337 0.697860 91 125 76
0.190868 0.361193 0.698417 120 154 105
0.189152 0.363956 0.699399 112 155 94
0.187420 0.366719 0.700379 105 148 87
0.185718 0.374018 0.703481 25 54 13
0.426122 0.354864 0.739680 54 69 44
0.425076 0.356702 0.740356 107 138 92
0.424726 0.360335 0.742002 79 110 64
0.194031 0.357674 0.699330 30 45 27
0.192281 0.357716 0.699035 102 139 89
0.190580 0.360476 0.700027 112 149 99
0.188849 0.362329 0.700588 113 156 97
0.187108 0.364183 0.701146 99 142 83
0.185399 0.370568 0.703841 23 51 15
0.423686 0.348767 0.738357 48 60 36
0.421943 0.348809 0.738064 107 138 92
0.421965 0.353334 0.740210 86 117 71
0.421612 0.356963 0.741864 66 100 51
0.193745 0.356960 0.700932 29 44 26
0.191995 0.357002 0.700637 109 147 92
0.190244 0.357044 0.700343 109 147 92
0.188507 0.357990 0.700479 116 156 100
0.186808 0.362557 0.702335 94 134 78
0.421970 0.344473 0.737988 45 57 33
0.420592 0.345410 0.738187 107 136 91
0.418505 0.344556 0.737405 86 115 70
0.416773 0.344597 0.737113 66 100 51
0.193417 0.354439 0.701666 35 51 30
0.189973 0.357233 0.702379 108 146 89
0.188258 0.359987 0.703383 118 158 100
0.186508 0.360933 0.703519 86 126 68
0.193111 0.352824 0.702827 62 81 55
0.191369 0.352866 0.702534 115 153 96
0.189641 0.353810 0.702676 108 146 89
0.186190 0.357504 0.703828 66 106 46
0.192826 0.352113 0.704422 71 90 64
0.191083 0.352155 0.704129 112 152 92
0.189326 0.351294 0.703397 108 148 88
0.187598 0.352238 0.703542 124 162 105
0.194261 0.350460 0.705869 25 47 16
0.192521 0.350501 0.705576 81 103 72
0.190781 0.350543 0.705283 109 150 87
0.189041 0.350584 0.704990 109 150 87
0.187301 0.350626 0.704697 120 158 103
0.193955 0.348851 0.707018 27 50 16
0.192217 0.348892 0.706726 98 121 87
0.190480 0.348933 0.706433 110 148 89
0.188743 0.348975 0.706141 113 151 92
0.193649 0.347243 0.708162 26 54 16
0.191914 0.347285 0.707870 111 139 101
0.190180 0.347326 0.707578 105 146 83
0.188458 0.348266 0.707731 114 155 92
0.195100 0.346494 0.710043 35 45 29
0.193365 0.346535 0.709751 44 75 33
0.191630 0.346577 0.709459 117 148 106
0.189895 0.346618 0.709167 103 144 79
0.188161 0.346659 0.708874 118 159 94
0.410622 0.328987 0.742141 97 131 82
0.408920 0.329027 0.741855 79 113 64
0.194793 0.344890 0.711179 26 40 20
0.193061 0.344931 0.710888 78 110 61
0.191328 0.344972 0.710596 119 151 102
0.189596 0.345014 0.710305 110 146 83
0.411695 0.327364 0.743477 101 116 89
0.409996 0.327405 0.743191 110 142 93
0.408297 0.327445 0.742905 77 109 60
0.194509 0.344183 0.712765 27 41 19
0.192777 0.344224 0.712474 96 129 75
0.191045 0.344265 0.712182 119 152 98
0.189312 0.344307 0.711891 114 150 87
0.411068 0.325785 0.744521 81 92 73
0.409372 0.325825 0.744235 117 149 100
0.407675 0.325866 0.743950 89 121 72
0.405638 0.325019 0.743154 63 99 54
0.194204 0.342582 0.713895 43 60 34
0.192474 0.342623 0.713604 106 139 81
0.190744 0.342664 0.713313 110 143 85
0.189029 0.343600 0.713477 126 160 99
0.410442 0.324207 0.745561 60 68 53
0.408748 0.324247 0.745275 120 149 104
0.406711 0.323402 0.744478 101 130 85
0.405020 0.323443 0.744193 64 101 51
0.195650 0.341835 0.715770 24 43 15
0.193920 0.341876 0.715479 66 85 57
0.192190 0.341917 0.715188 109 143 82
0.190461 0.341958 0.714896 117 151 90
0.188731 0.342000 0.714605 132 163 106
0.407780 0.321788 0.745795 115 141 99
0.406091 0.321828 0.745511 110 136 94
0.404062 0.320984 0.744712 68 107 56
0.402376 0.321024 0.744428 56 95 44
0.195343 0.340237 0.716892 27 47 14
0.193616 0.340278 0.716601 95 115 82
0.191889 0.340319 0.716311 99 135 70
0.190162 0.340360 0.716020 120 156 91
0.188434 0.340402 0.715729 123 154 97
0.407158 0.320215 0.746824 103 127 86
0.405130 0.319372 0.746022 124 148 107
0.403446 0.319412 0.745739 74 112 57
0.401762 0.319452 0.745456 60 98 43
0.400078 0.319492 0.745172 52 81 47
0.196762 0.338600 0.718300 34 44 30
0.195037 0.338641 0.718010 41 67 27
0.193312 0.338682 0.717720 109 135 95
0.191588 0.338723 0.717429 105 144 78
0.189863 0.338764 0.717139 126 165 99
0.406193 0.317762 0.747327 66 87 49
0.404512 0.317802 0.747044 125 146 108
0.402491 0.316960 0.746242 89 127 70
0.400813 0.317000 0.745959 60 98 41
0.399134 0.317040 0.745677 63 93 56
0.196454 0.337007 0.719413 32 42 26
0.194732 0.337048 0.719123 66 95 50
0.193010 0.337089 0.718833 115 144 99
0.191288 0.337130 0.718543 112 153 86
0.189581 0.338061 0.718718 130 171 104
0.405573 0.316195 0.748344 40 59 29
0.403895 0.316235 0.748061 118 137 107
0.401877 0.315394 0.747257 102 140 83
0.400538 0.316315 0.747496 67 105 48
0.398525 0.315474 0.746693 71 107 64
0.196147 0.335415 0.720521 33 47 27
0.194450 0.336345 0.720700 99 132 78
0.192728 0.336386 0.720410 114 147 93
0.191006 0.336427 0.720120 124 163 97
0.189284 0.336468 0.719830 119 158 92
0.402937 0.313790 0.748549 86 103 75
0.401264 0.313829 0.748267 112 150 95
0.399590 0.313869 0.747986 75 113 58
0.397917 0.313909 0.747704 59 98 47
0.197558 0.333785 0.721913 35 52 26
0.195865 0.334713 0.722095 52 69 43
0.194146 0.334754 0.721805 101 136 78
0.192426 0.334795 0.721516 112 147 89
0.190690 0.333948 0.720757 132 171 105
0.188987 0.334877 0.720937 84 123 57
0.402323 0.312228 0.749555 51 65 43
0.400652 0.312267 0.749273 120 157 105
0.398981 0.312307 0.748992 90 127 75
0.397310 0.312347 0.748711 64 106 54
0.197250 0.332197 0.723011 26 48 17
0.195536 0.332238 0.722722 89 111 80
0.193821 0.332279 0.722434 110 146 83
0.192126 0.333207 0.722618 115 151 88
0.190409 0.333248 0.722329 135 169 108
0.188692 0.333288 0.722040 48 82 21
0.400378 0.311585 0.750803 105 137 88
0.398707 0.311625 0.750522 115 147 98
0.397036 0.311665 0.750241 73 115 63
0.198655 0.330571 0.724392 40 49 31
0.196943 0.330612 0.724104 42 73 29
0.195231 0.330653 0.723816 101 132 88
0.193519 0.330694 0.723528 108 147 81
0.191808 0.330734 0.723240 126 165 99
0.190112 0.331661 0.723426 116 147 94
0.399767 0.310026 0.751802 64 88 49
0.398098 0.310066 0.751521 124 148 109
0.396430 0.310106 0.751240 95 133 85
0.394432 0.309268 0.750430 69 107 59
0.198346 0.328988 0.725481 36 50 30
0.196637 0.329029 0.725193 75 109 58
0.194928 0.329070 0.724905 103 137 86
0.193239 0.329995 0.725095 112 151 87
0.191527 0.330036 0.724807 129 168 104
0.397491 0.308509 0.752516 116 135 107
0.395493 0.307673 0.751703 111 149 101
0.393830 0.307712 0.751423 87 125 77
0.391840 0.306875 0.750611 60 97 56
0.198038 0.327407 0.726564 58 76 53
0.196332 0.327448 0.726277 99 137 80
0.194648 0.328372 0.726470 102 140 83
0.192938 0.328413 0.726182 122 161 99
0.191229 0.328454 0.725895 110 149 87
0.396550 0.306079 0.752970 84 98 76
0.394889 0.306119 0.752691 122 155 109
0.392900 0.305283 0.751877 104 137 91
0.391242 0.305322 0.751598 67 103 58
0.199465 0.326670 0.728414 42 64 33
0.197759 0.326711 0.728127 78 100 69
0.196052 0.326751 0.727840 99 138 76
0.194345 0.326792 0.727552 112 151 89
0.192639 0.326833 0.727265 134 169 113
0.395944 0.304527 0.753953 42 53 34
0.393955 0.303693 0.753137 116 142 100
0.392300 0.303732 0.752858 129 155 113
0.390644 0.303772 0.752579 87 122 68
0.388665 0.302937 0.751765 55 90 36
0.200860 0.325052 0.729777 38 48 34
0.199156 0.325092 0.729490 44 73 32
0.197452 0.325133 0.729203 93 122 81
0.195772 0.326055 0.729402 104 143 79
0.194066 0.326096 0.729115 130 169 105
0.192359 0.326136 0.728827 99 131 82
0.393023 0.301271 0.753574 66 87 49
0.391372 0.301310 0.753296 140 161 123
0.389397 0.300476 0.752479 116 149 91
0.387749 0.300515 0.752202 74 107 49
0.200581 0.324356 0.731337 47 63 42
0.198877 0.324397 0.731051 80 115 59
0.197173 0.324437 0.730764 104 139 83
0.195469 0.324478 0.730477 122 161 97
0.193765 0.324519 0.730190 130 169 105
0.192061 0.324559 0.729903 56 81 44
0.390774 0.299764 0.754265 115 130 101
0.388802 0.298931 0.753447 129 160 105
0.387156 0.298971 0.753170 99 130 75
0.385511 0.299010 0.752893 59 94 40
0.201972 0.322741 0.732693 34 53 23
0.200271 0.322782 0.732406 65 84 54
0.198598 0.323702 0.732611 92 131 67
0.196894 0.323742 0.732324 115 154 90
0.195190 0.323783 0.732037 137 175 116
0.193485 0.323823 0.731750 92 130 71
0.390177 0.298221 0.755230 64 70 53
0.388532 0.298260 0.754953 128 153 107
0.386565 0.297428 0.754133 121 146 100
0.384922 0.297467 0.753857 80 113 59
0.383279 0.297506 0.753580 60 93 39
0.201694 0.322047 0.734251 47 71 28
0.199992 0.322087 0.733964 91 115 72
0.198290 0.322128 0.733678 108 149 84
0.196589 0.322168 0.733391 132 173 108
0.194910 0.323087 0.733597 126 164 109
0.387938 0.296719 0.755914 95 114 76
0.386295 0.296758 0.755638 132 151 113
0.384653 0.296797 0.755361 112 145 89
0.383010 0.296836 0.755084 80 113 57
0.203081 0.320435 0.735598 44 59 34
0.201382 0.320475 0.735312 71 104 50
0.199713 0.321393 0.735522 102 135 81
0.198012 0.321434 0.735236 122 163 98
0.196310 0.321474 0.734949 136 177 112
0.387345 0.295179 0.756870 51 66 37
0.385705 0.295218 0.756594 123 138 109
0.384065 0.295257 0.756318 131 162 107
0.382424 0.295296 0.756042 104 135 80
0.380784 0.295335 0.755766 75 108 50
0.204501 0.319701 0.737439 37 57 22
0.202802 0.319742 0.737153 76 96 61
0.201103 0.319782 0.736867 97 133 72
0.199404 0.319823 0.736581 119 155 94
0.197733 0.320739 0.736793 140 175 117
0.385436 0.294549 0.758096 73 82 62
0.383478 0.293720 0.757270 133 161 109
0.381524 0.292890 0.756445 125 153 101
0.379889 0.292929 0.756170 88 122 57
0.204186 0.318133 0.738493 59 89 41
0.202489 0.318173 0.738207 95 125 77
0.200825 0.319089 0.738423 110 146 81
0.199126 0.319129 0.738137 135 171 106
0.197427 0.319170 0.737851 127 159 110
0.382892 0.292184 0.758218 88 109 67
0.380941 0.291356 0.757391 144 165 123
0.379309 0.291395 0.757116 120 154 89
0.377366 0.290567 0.756291 78 112 47
0.205526 0.315653 0.739322 51 68 38
0.203871 0.316567 0.739542 82 118 57
0.202211 0.317481 0.739760 106 142 81
0.200515 0.317522 0.739475 129 168 102
0.198848 0.318436 0.739692 133 172 106
0.381989 0.289785 0.758606 39 55 23
0.380359 0.289824 0.758332 110 126 94
0.378417 0.288996 0.757504 142 176 113
0.376789 0.289035 0.757230 121 155 92
0.374855 0.288208 0.756404 79 115 54
0.205210 0.314090 0.740363 86 110 67
0.203557 0.315003 0.740586 99 139 70
0.201900 0.315916 0.740807 119 159 90
0.200206 0.315956 0.740522 132 171 105
0.379777 0.288293 0.759268 48 59 38
0.378150 0.288332 0.758994 123 151 97
0.375904 0.286641 0.757610 141 169 115
0.374282 0.286679 0.757337 111 150 88
0.208180 0.310706 0.740946 57 74 46
0.206540 0.311617 0.741173 80 113 55
0.203244 0.313441 0.741625 121 163 93
0.201589 0.314353 0.741849 138 180 110
0.377260 0.285940 0.759368 70 94 53
0.375638 0.285978 0.759095 137 161 120
0.373709 0.285153 0.758265 139 175 114
0.372090 0.285192 0.757992 104 140 79
0.370169 0.284366 0.757163 61 99 42
0.209494 0.308239 0.741742 44 70 28
0.207861 0.309149 0.741973 81 107 65
0.206223 0.310060 0.742202 97 133 68
0.204580 0.310970 0.742431 121 157 92
0.375064 0.284453 0.760021 81 98 70
0.373138 0.283629 0.759189 134 169 111
0.371521 0.283667 0.758916 135 170 112
0.369904 0.283706 0.758644 97 136 72
0.368286 0.283744 0.758372 56 95 31
0.212521 0.306606 0.743324 39 56 30
0.209220 0.307555 0.743276 75 108 52
0.207586 0.308464 0.743510 98 131 75
0.205908 0.308504 0.743227 119 158 92
0.372873 0.282969 0.760669 91 117 75
0.371256 0.283007 0.760397 141 167 125
0.369639 0.283046 0.760125 132 168 105
0.367723 0.282222 0.759292 89 125 62
0.366109 0.282261 0.759020 55 90 32
0.213868 0.305015 0.744619 40 51 32
0.212197 0.305054 0.744338 42 68 28
0.210573 0.305963 0.744575 77 103 63
0.208900 0.306002 0.744293 96 135 71
0.207269 0.306911 0.744529 124 163 99
0.370991 0.282347 0.761878 97 114 86
0.369074 0.281525 0.761042 143 176 120
0.367459 0.281563 0.760770 136 169 113
0.365844 0.281602 0.760499 93 129 66
0.363937 0.280779 0.759665 59 95 32
0.215265 0.304293 0.746430 41 60 30
0.213594 0.304333 0.746149 58 77 47
0.211923 0.304373 0.745867 88 121 65
0.210299 0.305280 0.746107 107 140 84
0.208626 0.305319 0.745825 125 166 101
0.368809 0.280866 0.762521 98 125 78
0.367194 0.280904 0.762249 145 172 125
0.365285 0.280082 0.761412 134 170 107
0.363673 0.280121 0.761141 100 136 73
0.362061 0.280159 0.760869 62 102 42
0.360449 0.280198 0.760598 50 90 30
0.216662 0.303571 0.748241 50 62 36
0.214991 0.303611 0.747960 66 97 44
0.213320 0.303651 0.747679 87 118 65
0.211649 0.303691 0.747397 108 147 81
0.209978 0.303731 0.747116 124 163 97
0.208308 0.303770 0.746835 145 184 122
0.366633 0.279386 0.763160 99 116 86
0.365021 0.279424 0.762888 143 177 116
0.363409 0.279463 0.762617 143 177 116
0.361508 0.278642 0.761779 104 145 78
0.359898 0.278680 0.761508 65 106 39
0.358289 0.278719 0.761237 46 80 31
0.219730 0.302810 0.750334 52 55 37
0.218059 0.302850 0.750052 47 71 28
0.216388 0.302889 0.749771 77 101 58
0.214717 0.302929 0.749490 97 136 70
0.213047 0.302969 0.749208 108 147 81
0.211376 0.303009 0.748927 125 167 97
0.209705 0.303049 0.748646 138 180 110
0.364757 0.278767 0.764364 94 116 71
0.363145 0.278805 0.764093 149 171 126
0.361244 0.277985 0.763253 142 178 113
0.359635 0.278023 0.762982 117 153 88
0.358025 0.278062 0.762711 82 121 59
0.356135 0.277242 0.761873 62 101 39
0.219395 0.301264 0.751333 54 70 38
0.217785 0.302168 0.751582 74 108 47
0.216115 0.302208 0.751301 93 127 66
0.214444 0.302247 0.751020 103 144 70
0.212773 0.302287 0.750738 133 174 100
0.362881 0.278147 0.765569 81 93 65
0.360980 0.277328 0.764727 139 171 111
0.359371 0.277367 0.764456 146 178 118
0.357478 0.276547 0.763615 124 164 95
0.355871 0.276586 0.763344 90 130 61
0.353986 0.275767 0.762504 61 99 42
0.222327 0.298779 0.752355 55 65 42
0.220790 0.300544 0.753142 67 95 43
0.219122 0.300583 0.752861 85 113 61
0.217454 0.300623 0.752580 101 141 72
0.215785 0.300663 0.752299 119 159 90
0.214170 0.301566 0.752549 152 192 121
0.360717 0.276671 0.766200 72 93 51
0.358822 0.275853 0.765356 123 144 102
0.356932 0.275035 0.764513 150 184 119
0.355328 0.275074 0.764243 134 168 103
0.353723 0.275112 0.763973 97 137 68
0.351844 0.274293 0.763132 69 109 40
0.350242 0.274332 0.762862 50 88 42
0.223650 0.297199 0.753622 50 75 29
0.222120 0.298962 0.754414 81 106 60
0.220517 0.299863 0.754669 87 127 58
0.218849 0.299903 0.754388 99 139 70
0.217180 0.299942 0.754107 130 175 104
0.358559 0.275198 0.766828 54 66 42
0.356669 0.274381 0.765983 111 139 85
0.355065 0.274419 0.765712 151 179 125
0.353184 0.273602 0.764868 138 178 109
0.351582 0.273640 0.764599 117 157 88
0.349980 0.273678 0.764329 77 117 57
0.347839 0.272005 0.762914 54 94 34
0.223378 0.296521 0.755142 84 118 53
0.221782 0.297421 0.755401 108 142 77
0.220181 0.298322 0.755659 123 168 95
0.356407 0.273726 0.767452 45 61 27
0.354802 0.273764 0.767181 98 114 80
0.352921 0.272948 0.766335 144 176 112
0.351045 0.272132 0.765490 150 182 118
0.349174 0.271315 0.764645 132 173 106
0.347309 0.270499 0.763801 96 137 70
0.345714 0.270537 0.763533 75 110 54
0.343856 0.269720 0.762690 53 88 32
0.342264 0.269758 0.762422 54 80 40
0.223106 0.295844 0.756663 115 160 89
0.221509 0.296743 0.756924 134 179 108
0.352659 0.272294 0.767802 73 93 48
0.350509 0.270625 0.766376 134 154 109
0.348642 0.269810 0.765529 153 189 124
0.347047 0.269848 0.765261 142 178 113
0.345187 0.269032 0.764416 118 158 89
0.343595 0.269070 0.764148 88 128 59
0.342004 0.269108 0.763880 70 108 49
0.340154 0.268292 0.763036 52 90 31
0.350248 0.269974 0.767838 57 67 42
0.348651 0.270012 0.767569 100 123 73
0.346786 0.269197 0.766721 154 177 127
0.345192 0.269235 0.766452 148 185 115
0.343335 0.268421 0.765605 136 173 103
0.341482 0.267606 0.764759 112 152 81
0.339893 0.267644 0.764491 91 131 60
0.338304 0.267682 0.764224 64 102 45
0.346525 0.268547 0.768180 71 84 53
0.344665 0.267733 0.767330 131 159 103
0.343074 0.267771 0.767062 154 182 126
0.341482 0.267809 0.766794 144 185 111
0.339633 0.266995 0.765946 126 167 93
0.338044 0.267033 0.765679 103 143 72
0.336202 0.266219 0.764832 85 125 54
0.334616 0.266257 0.764565 65 100 46
0.344405 0.267084 0.768788 49 68 28
0.342813 0.267122 0.768520 86 105 65
0.340962 0.266309 0.767669 135 168 110
0.339372 0.266347 0.767401 153 186 128
0.337783 0.266385 0.767134 144 184 115
0.335942 0.265572 0.766284 130 170 101
0.334356 0.265610 0.766017 112 152 83
0.332522 0.264796 0.765169 95 135 66
0.330938 0.264834 0.764903 82 116 55
0.329112 0.264021 0.764056 59 93 32
0.244154 0.283181 0.760539 42 62 29
0.242620 0.284074 0.760820 49 69 36
0.241081 0.284968 0.761100 53 86 32
0.239443 0.285007 0.760825 65 98 44
0.237897 0.285900 0.761104 77 122 49
0.340701 0.265660 0.769124 45 66 28
0.339112 0.265698 0.768856 99 120 82
0.337269 0.264886 0.768004 139 173 112
0.335682 0.264924 0.767737 152 186 125
0.334096 0.264962 0.767470 147 184 116
0.332263 0.264150 0.766620 133 170 102
0.330435 0.263338 0.765770 116 157 83
0.328853 0.263376 0.765504 98 139 65
0.327033 0.262563 0.764656 85 120 52
0.325454 0.262601 0.764390 73 108 40
0.247046 0.281584 0.762024 48 72 33
0.245519 0.282476 0.762309 69 93 54
0.243987 0.283368 0.762593 77 112 54
0.242450 0.284260 0.762876 85 120 62
0.240813 0.284299 0.762600 96 142 66
0.239175 0.284338 0.762324 110 156 80
0.237628 0.285231 0.762605 118 168 91
0.337009 0.264239 0.769457 51 70 32
0.335422 0.264277 0.769190 104 123 85
0.333587 0.263466 0.768337 137 171 108
0.332003 0.263504 0.768070 157 191 128
0.330176 0.262692 0.767218 149 186 116
0.328353 0.261881 0.766367 144 181 111
0.326774 0.261919 0.766101 128 166 91
0.325195 0.261956 0.765836 110 148 73
0.323383 0.261145 0.764986 93 130 60
0.321576 0.260333 0.764138 80 117 47
0.320003 0.260371 0.763873 71 103 43
0.249818 0.279137 0.762940 67 95 41
0.248301 0.280027 0.763229 81 109 55
0.246779 0.280918 0.763517 92 128 65
0.245252 0.281809 0.763803 103 139 76
0.243719 0.282701 0.764090 110 152 80
0.242182 0.283592 0.764375 121 163 91
0.240544 0.283631 0.764099 134 182 105
0.238907 0.283670 0.763824 147 195 118
0.237359 0.284562 0.764107 150 199 127
0.333080 0.261972 0.769199 45 66 28
0.331498 0.262009 0.768932 88 109 71
0.329674 0.261199 0.768079 128 160 96
0.327854 0.260389 0.767226 158 190 126
0.326278 0.260427 0.766960 156 194 119
0.324701 0.260464 0.766695 147 185 110
0.322892 0.259654 0.765844 132 170 93
0.321318 0.259691 0.765579 112 150 73
0.319972 0.260577 0.765899 99 140 66
0.318396 0.260614 0.765633 92 133 59
0.316597 0.259803 0.764784 81 120 54
0.314803 0.258993 0.763936 71 110 44
0.260286 0.273950 0.763502 46 63 26
0.258674 0.273988 0.763231 49 70 28
0.257184 0.274877 0.763526 58 79 37
0.255570 0.274916 0.763255 67 95 41
0.254073 0.275805 0.763549 80 108 54
0.252686 0.277545 0.764409 85 119 56
0.249551 0.278473 0.764428 108 145 77
0.248034 0.279363 0.764719 115 152 84
0.246512 0.280253 0.765009 123 164 90
0.244984 0.281143 0.765298 133 174 100
0.243451 0.282033 0.765587 142 188 110
0.241914 0.282924 0.765874 156 202 124
0.240276 0.282963 0.765599 157 202 129
0.238638 0.283002 0.765323 143 188 115
0.329172 0.259708 0.768934 45 66 28
0.327596 0.259746 0.768669 78 99 61
0.326020 0.259783 0.768404 119 148 85
0.324443 0.259821 0.768138 154 183 120
0.322867 0.259858 0.767873 166 202 127
0.321520 0.260743 0.768195 164 200 125
0.319941 0.260781 0.767929 151 192 116
0.318362 0.260818 0.767663 135 176 100
0.316561 0.260009 0.766811 122 163 87
0.314765 0.259199 0.765960 110 151 75
0.312974 0.258389 0.765110 106 144 69
0.310760 0.255884 0.763090 93 131 56
0.309196 0.255921 0.762827 77 114 44
0.261634 0.273253 0.765249 71 99 43
0.260022 0.273292 0.764978 77 105 49
0.258409 0.273330 0.764707 83 115 51
0.256920 0.274218 0.765005 96 128 64
0.255305 0.274257 0.764733 104 142 67
0.253808 0.275145 0.765030 111 149 74
0.252305 0.276033 0.765326 118 156 83
0.249285 0.277810 0.765915 143 181 108
0.247767 0.278699 0.766209 156 194 121
0.246245 0.279588 0.766501 161 202 128
0.244614 0.279627 0.766227 161 202 128
0.243084 0.280516 0.766518 152 187 119
0.241548 0.281405 0.766809 124 159 91
0.240008 0.282294 0.767098 82 112 64
0.325761 0.259140 0.769847 40 58 25
0.324185 0.259178 0.769582 51 69 36
0.322608 0.259215 0.769316 70 96 45
0.321261 0.260099 0.769641 126 152 101
0.319683 0.260136 0.769375 146 181 111
0.318328 0.261020 0.769698 162 197 127
0.316525 0.260212 0.768843 165 203 128
0.314727 0.259403 0.767989 161 199 124
0.312934 0.258594 0.767136 142 183 105
0.310932 0.256939 0.765696 135 176 98
0.308940 0.255283 0.764258 129 170 92
0.307167 0.254474 0.763409 125 166 88
0.305606 0.254511 0.763146 120 159 79
0.304045 0.254548 0.762883 103 142 62
0.261370 0.272595 0.766726 128 162 88
0.259757 0.272634 0.766454 132 166 92
0.258145 0.272672 0.766183 131 167 90
0.256655 0.273559 0.766483 138 174 97
0.255041 0.273598 0.766211 151 189 112
0.253543 0.274485 0.766511 158 196 119
0.252040 0.275372 0.766809 164 200 125
0.249019 0.277147 0.767403 163 198 130
0.247501 0.278035 0.767699 146 181 113
0.245977 0.278923 0.767994 116 144 92
0.244449 0.279811 0.768288 66 94 42
0.242916 0.280699 0.768581 51 70 32
0.321232 0.260299 0.771679 41 53 27
0.319650 0.260337 0.771412 45 62 21
0.318069 0.260375 0.771146 80 97 56
0.316487 0.260412 0.770880 102 133 76
0.314687 0.259605 0.770023 136 167 110
0.312676 0.257952 0.768577 156 193 125
0.310888 0.257144 0.767722 165 202 134
0.309106 0.256336 0.766869 167 208 130
0.307120 0.254682 0.765427 162 203 125
0.305351 0.253874 0.764575 158 197 115
0.303790 0.253911 0.764312 153 192 110
0.261105 0.271938 0.768202 170 206 129
0.259493 0.271976 0.767930 172 208 131
0.257881 0.272014 0.767659 173 209 132
0.256391 0.272900 0.767962 170 206 129
0.254776 0.272939 0.767690 160 200 129
0.253278 0.273825 0.767991 148 188 117
0.251775 0.274711 0.768292 113 144 87
0.248753 0.276484 0.768891 59 78 36
0.247234 0.277371 0.769189 39 58 16
0.245710 0.278258 0.769486 43 55 27
0.314428 0.258960 0.771469 43 58 29
0.312634 0.258154 0.770610 49 73 32
0.310844 0.257347 0.769753 75 99 58
0.309060 0.256540 0.768896 123 151 95
0.307280 0.255733 0.768041 140 168 112
0.305300 0.254081 0.766595 150 185 115
0.303737 0.254119 0.766332 165 200 130
0.260841 0.271280 0.769678 152 181 118
0.259229 0.271318 0.769406 139 168 105
0.257617 0.271356 0.769135 126 150 93
0.256126 0.272241 0.769440 83 107 50
0.254511 0.272280 0.769168 45 69 26
0.253013 0.273165 0.769472 39 63 20
0.305044 0.253443 0.768027 49 71 24
0.303481 0.253481 0.767763 59 81 34
0.260577 0.270622 0.771154 47 64 23
0.258965 0.270660 0.770882 43 60 19
0.257353 0.270699 0.770611 44 55 23
