ply
format ascii 1.0
element vertex 330
property float x
property float y
property float z
property uchar red
property uchar green
property uchar blue
end_header
-0.137721 -0.184426 0.511000 169 176 184
-0.136668 -0.183463 0.512000 171 174 173
-0.135346 -0.183463 0.512000 173 176 175
-0.137991 -0.182138 0.512000 55 61 72
-0.136668 -0.182138 0.512000 149 155 157
-0.135346 -0.182138 0.512000 171 177 179
-0.136668 -0.180814 0.512000 93 100 104
-0.135346 -0.180814 0.512000 153 160 164
-0.134023 -0.180814 0.512000 171 178 172
-0.139313 -0.179490 0.512000 44 56 60
-0.137991 -0.179490 0.512000 43 55 59
-0.136668 -0.179490 0.512000 38 45 51
-0.135346 -0.179490 0.512000 104 111 117
-0.134023 -0.179490 0.512000 164 171 165
-0.132701 -0.179490 0.512000 175 182 176
-0.137991 -0.178166 0.512000 44 58 62
-0.136668 -0.178166 0.512000 40 49 59
-0.135346 -0.178166 0.512000 41 50 60
-0.134023 -0.178166 0.512000 122 127 134
-0.137991 -0.176841 0.512000 44 56 62
-0.136668 -0.176841 0.512000 42 48 59
-0.135346 -0.176841 0.512000 41 47 58
-0.053404 -0.111703 0.477000 37 49 51
-0.053404 -0.110469 0.477000 44 56 60
-0.053292 -0.109006 0.476000 57 69 73
-0.052172 -0.109235 0.477000 144 156 160
-0.050833 -0.107775 0.476000 135 143 144
-0.055751 -0.106544 0.476000 46 64 71
-0.053292 -0.106544 0.476000 70 80 83
-0.055751 -0.105313 0.476000 45 61 69
-0.054522 -0.105313 0.476000 29 45 53
-0.053292 -0.105313 0.476000 77 87 90
-0.058088 -0.103863 0.475000 41 55 61
-0.056861 -0.103863 0.475000 21 35 41
-0.054522 -0.104082 0.476000 31 47 55
-0.053292 -0.104082 0.476000 76 88 90
-0.050833 -0.104082 0.476000 130 141 137
-0.049604 -0.104082 0.476000 129 140 136
-0.048374 -0.104082 0.476000 128 139 135
-0.059314 -0.102635 0.475000 74 87 84
-0.058088 -0.102635 0.475000 40 54 60
-0.056861 -0.102635 0.475000 21 35 41
-0.055634 -0.102635 0.475000 47 60 69
-0.054407 -0.102635 0.475000 30 43 52
-0.059314 -0.101406 0.475000 73 86 85
-0.058088 -0.101406 0.475000 32 49 54
-0.056861 -0.101406 0.475000 29 46 51
-0.055634 -0.101406 0.475000 40 56 64
-0.054292 -0.101193 0.474000 26 42 50
-0.053180 -0.101406 0.475000 74 87 86
-0.059314 -0.100177 0.475000 74 87 86
-0.058088 -0.100177 0.475000 28 47 51
-0.056861 -0.100177 0.475000 26 45 49
-0.055634 -0.100177 0.475000 39 56 61
-0.054292 -0.099967 0.474000 28 45 50
-0.053180 -0.100177 0.475000 66 78 80
-0.056861 -0.098949 0.475000 25 42 45
-0.055634 -0.098949 0.475000 36 53 56
-0.054407 -0.098949 0.475000 39 56 59
-0.051953 -0.098949 0.475000 48 62 64
-0.050620 -0.098741 0.474000 42 54 56
-0.056861 -0.097720 0.475000 43 57 59
-0.055634 -0.097720 0.475000 46 63 66
-0.054407 -0.097720 0.475000 46 63 66
-0.055634 -0.096492 0.475000 38 52 54
-0.054407 -0.096492 0.475000 35 49 51
0.079709 -0.080882 0.463000 65 113 64
0.080905 -0.080882 0.463000 65 113 64
0.078513 -0.079684 0.463000 71 99 74
0.079709 -0.079684 0.463000 69 106 67
0.081079 -0.079856 0.464000 72 109 70
0.082278 -0.079856 0.464000 69 112 64
0.083476 -0.079856 0.464000 74 117 69
0.084675 -0.079856 0.464000 84 127 77
0.085873 -0.079856 0.464000 94 137 87
0.077317 -0.078487 0.463000 83 105 89
0.078513 -0.078487 0.463000 80 102 86
0.079881 -0.078656 0.464000 72 100 73
0.082278 -0.078656 0.464000 67 108 63
0.083476 -0.078656 0.464000 70 111 66
0.084675 -0.078656 0.464000 71 114 64
0.086058 -0.078826 0.465000 74 117 67
0.078682 -0.077456 0.464000 83 102 90
0.082278 -0.077456 0.464000 68 104 70
0.083476 -0.077456 0.464000 68 104 70
0.084857 -0.077623 0.465000 64 109 61
0.086058 -0.077623 0.465000 68 113 65
0.087259 -0.077623 0.465000 69 117 66
0.088460 -0.077623 0.465000 84 132 81
0.086243 -0.076585 0.466000 65 107 66
0.088650 -0.076585 0.466000 74 122 71
0.085040 -0.075379 0.466000 65 101 69
0.086058 -0.075218 0.465000 67 103 71
0.087447 -0.075379 0.466000 64 109 63
0.088650 -0.075379 0.466000 69 114 68
-0.061404 -0.073697 0.463000 103 109 109
-0.059012 -0.073697 0.463000 86 94 95
-0.057816 -0.073697 0.463000 68 76 77
-0.055544 -0.073856 0.464000 25 37 39
0.083836 -0.074174 0.466000 76 97 86
0.085040 -0.074174 0.466000 70 99 79
0.086243 -0.074174 0.466000 68 97 77
0.087447 -0.074174 0.466000 65 104 67
0.088650 -0.074174 0.466000 66 105 68
-0.060208 -0.072499 0.463000 90 97 101
-0.059012 -0.072499 0.463000 83 93 100
-0.057816 -0.072499 0.463000 51 61 68
-0.056620 -0.072499 0.463000 22 36 42
-0.055544 -0.072656 0.464000 28 42 48
-0.054463 -0.072812 0.465000 32 44 46
0.085040 -0.072969 0.466000 76 97 86
0.086243 -0.072969 0.466000 74 95 84
0.087447 -0.072969 0.466000 70 100 75
0.088650 -0.072969 0.466000 68 98 73
-0.061404 -0.071302 0.463000 100 107 113
-0.059012 -0.071302 0.463000 46 58 64
-0.055544 -0.071456 0.464000 29 43 47
-0.054463 -0.071610 0.465000 44 57 56
0.087447 -0.071764 0.466000 71 92 79
-0.064851 -0.069953 0.462000 122 125 126
-0.061271 -0.069953 0.462000 39 45 56
-0.060078 -0.069953 0.462000 41 47 58
-0.055544 -0.070255 0.464000 42 57 56
-0.054463 -0.070407 0.465000 58 71 66
-0.066044 -0.068758 0.462000 122 125 128
-0.064851 -0.068758 0.462000 88 91 94
-0.062464 -0.068758 0.462000 27 32 39
-0.061271 -0.068758 0.462000 32 39 47
-0.060078 -0.068758 0.462000 32 39 47
-0.059012 -0.068907 0.463000 31 41 46
-0.055544 -0.069055 0.464000 64 75 73
-0.054463 -0.069204 0.465000 53 66 61
-0.067237 -0.067563 0.462000 118 124 122
-0.066044 -0.067563 0.462000 65 71 73
-0.064851 -0.067563 0.462000 32 38 40
-0.061271 -0.067563 0.462000 31 41 46
-0.060078 -0.067563 0.462000 34 44 49
-0.058884 -0.067563 0.462000 45 55 62
-0.055544 -0.067855 0.464000 45 58 57
-0.068431 -0.066368 0.462000 96 104 101
-0.067237 -0.066368 0.462000 59 67 64
-0.066044 -0.066368 0.462000 32 40 41
-0.062464 -0.066368 0.462000 33 40 44
-0.061271 -0.066368 0.462000 37 47 54
-0.060078 -0.066368 0.462000 52 62 69
-0.067237 -0.065173 0.462000 29 37 38
-0.066044 -0.065173 0.462000 34 41 45
-0.064851 -0.065173 0.462000 36 43 47
-0.063658 -0.065173 0.462000 32 40 41
-0.062464 -0.065173 0.462000 34 42 43
-0.061271 -0.065173 0.462000 54 64 67
-0.060078 -0.065173 0.462000 64 74 77
-0.184384 -0.020326 0.448000 113 126 123
-0.183226 -0.020326 0.448000 115 128 125
-0.182069 -0.020326 0.448000 113 128 125
-0.180912 -0.020326 0.448000 112 127 124
-0.001555 -0.019124 0.447000 157 166 159
0.001892 -0.016661 0.443000 153 164 162
-0.000395 -0.015446 0.441000 38 52 56
0.001883 -0.015446 0.441000 77 87 92
0.003022 -0.015446 0.441000 124 135 135
0.004161 -0.015446 0.441000 148 159 159
0.003016 -0.014273 0.440000 43 56 65
0.005288 -0.014273 0.440000 116 128 130
0.006425 -0.014273 0.440000 145 157 159
-0.000393 -0.013105 0.439000 40 56 66
0.003009 -0.013105 0.439000 38 55 67
0.005276 -0.013105 0.439000 38 54 64
-0.001527 -0.011969 0.439000 43 54 65
-0.000393 -0.011969 0.439000 44 55 66
0.003009 -0.011969 0.439000 39 57 66
0.004143 -0.011969 0.439000 40 58 67
0.005276 -0.011969 0.439000 38 55 67
0.009812 -0.011969 0.439000 82 92 97
0.010946 -0.011969 0.439000 116 126 131
-0.003786 -0.010809 0.438000 127 135 134
-0.002655 -0.010809 0.438000 90 98 97
-0.001523 -0.010809 0.438000 50 57 63
-0.000392 -0.010809 0.438000 39 46 52
0.000741 -0.010834 0.439000 42 53 64
0.003009 -0.010834 0.439000 39 57 66
0.004143 -0.010834 0.439000 39 57 66
0.005276 -0.010834 0.439000 40 58 67
0.012080 -0.010834 0.439000 47 59 65
0.015481 -0.010834 0.439000 136 146 149
0.016615 -0.010834 0.439000 148 159 155
0.018883 -0.010834 0.439000 153 165 157
-0.002655 -0.009676 0.438000 145 153 150
-0.001523 -0.009676 0.438000 128 136 137
-0.000392 -0.009676 0.438000 85 93 94
0.000739 -0.009676 0.438000 45 57 63
0.001871 -0.009676 0.438000 38 50 56
0.003002 -0.009676 0.438000 39 55 63
0.006396 -0.009676 0.438000 41 57 65
0.018883 -0.009698 0.439000 124 132 131
0.020017 -0.009698 0.439000 139 147 146
0.021151 -0.009698 0.439000 148 156 157
0.022285 -0.009698 0.439000 149 157 158
0.038159 -0.009698 0.439000 142 156 158
0.039293 -0.009698 0.439000 142 157 156
0.000738 -0.008524 0.437000 121 133 135
0.001871 -0.008544 0.438000 80 92 94
0.003002 -0.008544 0.438000 44 58 62
0.005264 -0.008544 0.438000 34 52 61
0.024552 -0.008563 0.439000 100 110 117
0.025686 -0.008563 0.439000 117 127 130
0.029088 -0.008563 0.439000 138 149 147
0.030153 -0.008544 0.438000 142 151 144
0.031284 -0.008544 0.438000 142 151 144
0.032342 -0.008524 0.437000 143 150 144
0.034678 -0.008544 0.438000 140 148 149
0.035809 -0.008544 0.438000 128 136 137
0.036941 -0.008544 0.438000 106 118 124
0.039293 -0.008563 0.439000 74 88 92
0.029022 -0.007411 0.438000 46 56 59
0.030084 -0.007394 0.437000 48 56 57
0.031213 -0.007394 0.437000 50 58 59
0.032268 -0.007377 0.436000 52 60 61
0.033470 -0.007394 0.437000 50 58 59
0.034599 -0.007394 0.437000 47 57 64
0.036941 -0.007411 0.438000 41 54 63
0.038072 -0.007411 0.438000 38 51 60
0.039293 -0.007428 0.439000 36 50 56
0.040427 -0.007428 0.439000 37 51 57
0.030015 -0.006249 0.436000 44 56 60
0.031141 -0.006249 0.436000 45 57 61
0.032268 -0.006249 0.436000 44 56 60
0.033394 -0.006249 0.436000 43 55 59
0.034520 -0.006249 0.436000 41 55 61
0.035728 -0.006263 0.437000 42 56 62
0.030015 -0.005121 0.436000 43 57 61
0.031141 -0.005121 0.436000 44 58 62
0.032268 -0.005121 0.436000 42 56 62
0.033394 -0.005121 0.436000 43 57 63
0.034520 -0.005121 0.436000 43 57 63
0.035646 -0.005121 0.436000 42 56 62
0.039024 -0.005121 0.436000 45 59 65
0.040150 -0.005121 0.436000 45 59 65
0.041182 -0.005110 0.435000 45 59 65
0.042403 -0.005121 0.436000 43 57 63
0.030084 -0.004003 0.437000 44 54 59
0.031141 -0.003994 0.436000 45 55 60
0.033394 -0.003994 0.436000 45 55 62
0.034520 -0.003994 0.436000 44 56 62
0.035564 -0.003985 0.435000 43 55 61
0.040058 -0.003985 0.435000 44 56 60
0.041182 -0.003985 0.435000 44 56 60
0.030153 -0.002879 0.438000 41 48 54
0.031213 -0.002873 0.437000 40 47 53
0.034520 -0.002866 0.436000 40 50 55
0.035564 -0.002860 0.435000 38 48 53
0.030153 -0.001746 0.438000 77 87 90
0.031213 -0.001742 0.437000 73 83 86
0.032342 -0.001742 0.437000 79 86 92
0.034520 -0.001738 0.436000 80 90 95
0.035564 -0.001734 0.435000 86 96 101
0.004029 0.019281 0.427000 164 170 170
0.005144 0.019326 0.428000 162 168 166
0.006250 0.019326 0.428000 160 166 164
0.004029 0.020385 0.427000 145 151 149
0.005132 0.020385 0.427000 160 166 164
0.006235 0.020385 0.427000 163 169 167
0.007338 0.020385 0.427000 161 167 165
0.006235 0.021490 0.427000 153 156 155
0.007338 0.021490 0.427000 163 169 167
0.008441 0.021490 0.427000 161 167 165
0.006235 0.022594 0.427000 134 138 133
0.007338 0.022594 0.427000 144 148 143
0.008441 0.022594 0.427000 158 162 157
0.009521 0.022541 0.426000 164 172 169
0.010622 0.022541 0.426000 163 171 168
0.011722 0.022541 0.426000 161 169 166
0.008421 0.023643 0.426000 141 145 140
0.009521 0.023643 0.426000 149 155 153
0.010622 0.023643 0.426000 162 168 166
0.011695 0.023588 0.425000 164 172 169
0.012822 0.023643 0.426000 161 169 166
0.009499 0.024687 0.425000 128 131 130
0.010597 0.024687 0.425000 140 143 142
0.011695 0.024687 0.425000 148 154 152
0.012792 0.024687 0.425000 157 163 161
0.013890 0.024687 0.425000 163 169 167
0.014988 0.024687 0.425000 162 168 166
0.011667 0.025725 0.424000 127 130 129
0.012762 0.025725 0.424000 138 141 140
0.013857 0.025725 0.424000 148 151 150
0.014988 0.025786 0.425000 164 167 166
0.016085 0.025786 0.425000 168 174 172
0.017183 0.025786 0.425000 164 170 168
0.018281 0.025786 0.425000 161 167 165
0.014952 0.026822 0.424000 138 142 137
0.016048 0.026822 0.424000 141 147 145
0.017143 0.026822 0.424000 161 167 165
0.018238 0.026822 0.424000 164 170 168
0.016048 0.027919 0.424000 125 132 126
0.022565 0.027853 0.423000 164 174 162
0.022405 0.028742 0.420000 156 166 154
0.023490 0.028742 0.420000 163 173 161
0.025720 0.028810 0.421000 165 178 165
0.028983 0.028810 0.421000 164 176 166
0.023490 0.029828 0.420000 134 141 133
0.025720 0.029899 0.421000 155 163 150
0.027895 0.029899 0.421000 167 175 162
0.030070 0.029899 0.421000 169 176 168
0.032321 0.029970 0.422000 163 172 165
0.033411 0.029970 0.422000 163 172 165
0.030070 0.030988 0.421000 157 164 156
0.032321 0.031061 0.422000 169 176 170
0.033411 0.031061 0.422000 169 176 170
0.035591 0.031061 0.422000 168 175 169
0.036768 0.031135 0.423000 168 175 169
0.037861 0.031135 0.423000 168 175 169
0.037861 0.032229 0.423000 166 170 165
0.038953 0.032229 0.423000 169 173 168
0.040046 0.032229 0.423000 170 176 176
0.041138 0.032229 0.423000 165 171 171
0.042231 0.032229 0.423000 167 173 173
0.043323 0.032229 0.423000 168 174 174
0.045509 0.032229 0.423000 168 174 174
0.046601 0.032229 0.423000 168 174 172
0.047694 0.032229 0.423000 165 171 169
0.040046 0.033323 0.423000 141 147 145
0.041138 0.033323 0.423000 149 155 153
0.043323 0.033323 0.423000 161 167 167
0.045509 0.033323 0.423000 163 169 169
0.046601 0.033323 0.423000 165 171 171
0.047694 0.033323 0.423000 164 170 170
0.053282 0.033402 0.424000 170 176 174
0.054377 0.033402 0.424000 170 176 174
0.055472 0.033402 0.424000 168 174 172
