ply
format ascii 1.0
element vertex 1766
property float x
property float y
property float z
property uchar red
property uchar green
property uchar blue
end_header
0.166772 0.209890 0.575508 137 137 139
0.164990 0.209899 0.575319 119 119 123
0.163207 0.209909 0.575130 112 112 116
0.161424 0.209918 0.574941 108 108 108
0.159641 0.209927 0.574752 109 109 109
0.157859 0.209936 0.574563 105 111 109
0.156076 0.209945 0.574374 107 113 111
0.154293 0.209954 0.574185 114 120 118
0.152533 0.208991 0.573753 127 133 131
0.173729 0.210266 0.578209 152 156 151
0.171938 0.209304 0.577771 124 124 124
0.170155 0.209313 0.577582 104 104 104
0.168372 0.209322 0.577393 98 98 100
0.166590 0.209331 0.577204 102 102 104
0.164807 0.209341 0.577015 103 103 105
0.163024 0.209350 0.576826 103 103 105
0.161242 0.209359 0.576637 101 104 103
0.159459 0.209368 0.576448 100 103 102
0.157676 0.209377 0.576259 98 104 102
0.155893 0.209386 0.576070 99 105 103
0.154111 0.209395 0.575881 98 104 104
0.152328 0.209404 0.575692 94 100 100
0.150545 0.209413 0.575503 99 105 105
0.148763 0.209422 0.575314 121 127 127
0.180705 0.210641 0.580917 172 172 174
0.178918 0.210650 0.580727 150 153 156
0.177130 0.210659 0.580538 124 127 130
0.175331 0.209698 0.580097 100 103 102
0.173546 0.209707 0.579907 96 99 98
0.171761 0.209716 0.579718 98 101 100
0.169975 0.209725 0.579529 103 106 105
0.168190 0.209734 0.579340 103 106 105
0.166405 0.209743 0.579150 105 108 107
0.164619 0.209752 0.578961 109 109 109
0.162834 0.209761 0.578772 111 111 111
0.161049 0.209770 0.578583 114 117 116
0.159264 0.209779 0.578393 113 116 115
0.157493 0.208818 0.577955 107 113 111
0.155711 0.208827 0.577766 106 112 110
0.153928 0.208836 0.577577 106 112 110
0.152145 0.208845 0.577388 101 107 105
0.150363 0.208854 0.577199 100 106 104
0.148580 0.208863 0.577010 97 103 101
0.146797 0.208872 0.576821 105 111 111
0.145014 0.208881 0.576632 129 135 135
0.184098 0.210062 0.582997 144 143 145
0.182310 0.210071 0.582807 118 118 122
0.180522 0.210080 0.582618 105 105 109
0.178734 0.210089 0.582428 96 101 106
0.176946 0.210098 0.582239 99 104 109
0.175159 0.210108 0.582049 99 105 103
0.173371 0.210117 0.581859 103 109 107
0.171583 0.210126 0.581670 104 110 108
0.169795 0.210135 0.581480 108 114 112
0.168007 0.210144 0.581291 112 115 114
0.166219 0.210153 0.581101 116 119 118
0.164431 0.210162 0.580912 122 122 122
0.162643 0.210171 0.580722 115 115 115
0.160856 0.210180 0.580533 112 115 114
0.159081 0.209220 0.580092 112 115 114
0.157295 0.209229 0.579903 115 118 117
0.155528 0.208268 0.579462 116 119 118
0.153745 0.208277 0.579273 117 120 119
0.151963 0.208286 0.579084 112 115 114
0.150180 0.208295 0.578895 109 112 111
0.148397 0.208304 0.578707 101 104 103
0.146615 0.208313 0.578517 101 104 105
0.144832 0.208322 0.578328 96 99 100
0.143049 0.208332 0.578140 121 123 129
0.189278 0.209474 0.585266 152 151 153
0.187491 0.209483 0.585077 122 121 123
0.185703 0.209492 0.584887 106 105 109
0.183938 0.210470 0.584955 99 98 102
0.182147 0.210479 0.584766 101 104 107
0.180357 0.210489 0.584576 107 110 113
0.178566 0.210498 0.584386 107 110 113
0.176776 0.210507 0.584196 107 110 113
0.174985 0.210516 0.584006 110 113 114
0.173195 0.210525 0.583817 110 113 114
0.171405 0.210534 0.583627 114 117 116
0.169612 0.209574 0.583181 112 115 114
0.167824 0.210552 0.583247 113 116 115
0.166033 0.210562 0.583057 119 122 121
0.164248 0.209602 0.582613 139 139 139
0.162460 0.209611 0.582423 149 149 149
0.160672 0.209620 0.582234 153 153 153
0.158885 0.209629 0.582044 161 161 161
0.157112 0.208669 0.581601 164 165 161
0.155327 0.208678 0.581412 160 161 157
0.153563 0.207718 0.580969 158 159 155
0.151780 0.207727 0.580781 151 152 148
0.149997 0.207736 0.580591 133 133 133
0.148215 0.207745 0.580402 117 117 117
0.146432 0.207754 0.580214 110 110 112
0.144649 0.207763 0.580025 101 101 103
0.142866 0.207773 0.579836 97 96 103
0.141084 0.207782 0.579647 122 121 128
0.192671 0.208895 0.587346 133 133 135
0.190916 0.209872 0.587418 111 111 113
0.189126 0.209881 0.587228 101 100 104
0.187335 0.209891 0.587038 101 100 104
0.185545 0.209900 0.586849 107 107 109
0.183777 0.210877 0.586919 108 108 110
0.182004 0.211854 0.586989 110 110 112
0.180208 0.211863 0.586798 112 112 114
0.178413 0.211872 0.586608 113 116 117
0.176617 0.211882 0.586418 107 110 111
0.174822 0.211891 0.586227 110 113 114
0.173026 0.211900 0.586037 123 126 127
0.171230 0.211909 0.585847 140 140 140
0.169433 0.210950 0.585398 155 155 155
0.167640 0.210959 0.585208 173 173 173
0.165847 0.210968 0.585018 179 179 179
0.153359 0.208127 0.582921 171 172 168
0.151574 0.208136 0.582732 167 168 164
0.149788 0.208146 0.582542 160 160 160
0.148003 0.208155 0.582353 133 133 133
0.146249 0.207195 0.581910 121 121 121
0.144467 0.207204 0.581721 111 111 111
0.140862 0.208191 0.581596 100 103 104
0.139077 0.208200 0.581407 119 119 123
0.197895 0.209274 0.589881 146 146 148
0.196104 0.209284 0.589691 124 124 128
0.194314 0.209293 0.589501 104 104 108
0.192523 0.209302 0.589311 101 101 105
0.190733 0.209311 0.589121 104 104 108
0.188972 0.210287 0.589195 105 105 109
0.187179 0.210296 0.589005 108 108 112
0.185411 0.211273 0.589078 110 110 112
0.183616 0.211282 0.588887 115 115 117
0.181840 0.212258 0.588959 116 116 116
0.180059 0.213235 0.589031 114 114 114
0.178258 0.213244 0.588840 116 116 116
0.176457 0.213253 0.588649 132 132 132
0.174657 0.213262 0.588458 158 158 158
0.172856 0.213272 0.588267 178 178 178
0.171051 0.212313 0.587816 182 181 181
0.149605 0.207586 0.584241 170 169 169
0.147820 0.207595 0.584052 158 157 157
0.146035 0.207604 0.583862 127 126 126
0.144250 0.207613 0.583673 116 115 115
0.142464 0.207622 0.583484 115 115 119
0.140679 0.207631 0.583295 109 109 113
0.138894 0.207640 0.583105 103 103 107
0.137064 0.208617 0.583172 128 128 132
0.201388 0.210627 0.592499 137 136 138
0.199592 0.210637 0.592309 109 109 113
0.197754 0.209679 0.591851 101 101 105
0.195961 0.209689 0.591661 105 105 109
0.194168 0.209698 0.591471 103 103 107
0.192375 0.209707 0.591281 109 109 113
0.190582 0.209716 0.591091 110 110 114
0.188789 0.209725 0.590901 116 116 118
0.187023 0.210701 0.590976 112 112 114
0.185252 0.211676 0.591051 111 111 113
0.183476 0.212652 0.591126 115 115 117
0.181675 0.212661 0.590935 130 131 127
0.179874 0.212670 0.590744 155 156 152
0.178088 0.213646 0.590817 179 179 179
0.176285 0.213655 0.590626 181 181 181
0.147608 0.208002 0.586010 174 174 174
0.145820 0.208011 0.585820 163 162 162
0.144067 0.207053 0.585372 126 125 125
0.142244 0.208029 0.585441 115 114 116
0.140456 0.208038 0.585252 115 114 116
0.138668 0.208047 0.585062 108 108 112
0.136881 0.208057 0.584873 105 105 109
0.135093 0.208066 0.584683 141 144 147
0.206702 0.211968 0.595321 158 157 159
0.204901 0.211977 0.595130 131 130 132
0.203100 0.211986 0.594939 108 108 110
0.201299 0.211995 0.594748 104 104 106
0.199453 0.211039 0.594287 104 104 108
0.197613 0.210083 0.593827 107 107 111
0.195817 0.210092 0.593636 109 109 113
0.194021 0.210101 0.593446 111 111 115
0.192226 0.210110 0.593256 116 116 118
0.190430 0.210119 0.593065 116 116 118
0.188635 0.210128 0.592875 116 116 116
0.186866 0.211103 0.592953 131 131 131
0.185068 0.211112 0.592762 157 157 157
0.183292 0.212087 0.592839 173 173 173
0.181510 0.213062 0.592915 183 183 179
0.143849 0.207459 0.587332 173 172 172
0.142061 0.207469 0.587142 120 119 119
0.140273 0.207478 0.586953 113 112 112
0.138443 0.208453 0.587024 113 116 117
0.136652 0.208462 0.586834 98 101 102
0.134862 0.208471 0.586644 112 115 118
0.133021 0.209446 0.586714 155 158 161
0.210239 0.213314 0.597964 150 153 156
0.208433 0.213323 0.597772 117 120 123
0.206627 0.213333 0.597581 104 104 108
0.204769 0.212377 0.597116 107 107 111
0.202966 0.212386 0.596925 103 103 107
0.201115 0.211431 0.596461 102 102 106
0.199314 0.211440 0.596270 110 110 114
0.197471 0.210484 0.595807 112 112 116
0.195633 0.209529 0.595345 114 114 116
0.193837 0.209538 0.595154 112 112 114
0.192042 0.209547 0.594964 121 121 121
0.190246 0.209556 0.594774 140 140 140
0.188480 0.210530 0.594854 165 165 165
0.186682 0.210539 0.594664 180 180 180
0.184908 0.211513 0.594743 183 183 183
0.141840 0.207873 0.589107 168 167 167
0.140050 0.207882 0.588917 117 116 116
0.138216 0.208857 0.588990 115 115 117
0.136423 0.208866 0.588800 104 104 106
0.134582 0.209840 0.588873 96 99 102
0.132787 0.209849 0.588682 130 133 136
0.213731 0.213693 0.600342 155 155 159
0.211923 0.213703 0.600150 125 125 129
0.210114 0.213712 0.599959 103 105 111
0.208306 0.213721 0.599767 103 105 111
0.206442 0.212766 0.599299 105 105 109
0.204636 0.212776 0.599108 109 109 113
0.202781 0.211821 0.598641 114 114 118
0.200977 0.211830 0.598450 117 117 121
0.199130 0.210875 0.597984 118 118 120
0.197329 0.210885 0.597793 116 116 118
0.195489 0.209930 0.597327 118 118 118
0.193690 0.209939 0.597137 142 142 142
0.191892 0.209948 0.596946 169 169 169
0.190062 0.208993 0.596482 183 183 183
0.139785 0.209249 0.591152 161 161 157
0.137989 0.209259 0.590962 112 112 114
0.136194 0.209268 0.590771 114 114 116
0.134398 0.209277 0.590581 98 101 104
0.132552 0.210251 0.590655 107 110 113
0.130807 0.209295 0.590200 147 150 151
0.217233 0.214071 0.602726 152 152 156
0.215422 0.214080 0.602534 123 123 127
0.213611 0.214089 0.602342 107 106 113
0.211800 0.214099 0.602150 108 107 114
0.209929 0.213145 0.601679 101 104 107
0.208121 0.213154 0.601487 105 108 111
0.206312 0.213163 0.601296 107 110 113
0.204451 0.212209 0.600826 112 115 118
0.202596 0.211255 0.600356 115 115 119
0.200793 0.211265 0.600165 117 117 121
0.198945 0.210311 0.599697 128 128 128
0.197144 0.210320 0.599506 150 150 150
0.195304 0.209366 0.599038 176 176 176
0.193506 0.209375 0.598848 182 182 182
0.139560 0.209650 0.593129 185 186 182
0.137762 0.209659 0.592938 150 150 150
0.135964 0.209668 0.592747 110 110 110
0.134166 0.209678 0.592557 108 111 114
0.132316 0.210650 0.592633 103 106 109
0.130516 0.210660 0.592443 119 122 125
0.128715 0.210669 0.592252 163 166 169
0.220745 0.214447 0.605116 155 158 161
0.218931 0.214456 0.604924 122 125 128
0.217048 0.213503 0.604449 108 107 114
0.215237 0.213512 0.604257 100 99 106
0.213425 0.213521 0.604065 101 103 111
0.211614 0.213531 0.603873 102 104 112
0.209803 0.213540 0.603681 108 111 114
0.207935 0.212587 0.603208 110 113 116
0.206127 0.212596 0.603016 115 115 119
0.204266 0.211643 0.602544 122 122 126
0.202460 0.211652 0.602352 136 135 137
0.200608 0.210699 0.601881 159 158 160
0.198805 0.210708 0.601690 180 179 179
0.137490 0.211021 0.595190 179 180 176
0.135733 0.210067 0.594728 116 117 113
0.133933 0.210077 0.594538 114 117 118
0.132132 0.210086 0.594347 110 113 114
0.130331 0.210095 0.594156 103 106 109
0.128474 0.211067 0.594234 143 146 149
0.224186 0.213859 0.607226 164 174 177
0.222373 0.213869 0.607034 121 131 134
0.220559 0.213878 0.606842 105 110 115
0.218745 0.213887 0.606649 100 105 110
0.216932 0.213896 0.606457 103 105 111
0.215051 0.212944 0.605980 105 107 113
0.213240 0.212954 0.605788 105 107 113
0.211429 0.212963 0.605596 110 112 118
0.209618 0.212972 0.605404 117 120 123
0.207807 0.212981 0.605212 120 123 126
0.205941 0.212029 0.604737 136 136 138
0.204133 0.212038 0.604545 159 159 161
0.202275 0.211086 0.604071 176 176 178
0.135502 0.210465 0.596714 154 154 150
0.133699 0.210474 0.596523 107 108 104
0.131896 0.210483 0.596332 116 117 113
0.130092 0.210492 0.596141 107 110 109
0.128289 0.210501 0.595950 115 118 117
0.126486 0.210511 0.595758 162 162 164
0.227628 0.213272 0.609336 95 110 109
0.225814 0.213282 0.609144 126 141 140
0.224001 0.213291 0.608952 107 117 122
0.222187 0.213300 0.608759 94 104 109
0.220373 0.213309 0.608567 98 103 110
0.218560 0.213319 0.608375 101 106 113
0.216746 0.213328 0.608183 103 105 111
0.214932 0.213337 0.607990 115 117 123
0.213119 0.213346 0.607798 117 120 123
0.211243 0.212395 0.607319 114 117 120
0.209432 0.212404 0.607127 128 128 130
0.207621 0.212413 0.606935 159 159 161
0.205756 0.211462 0.606457 178 178 180
0.135318 0.209899 0.598430 183 184 178
0.133514 0.209908 0.598239 117 118 114
0.131711 0.209918 0.598048 114 115 111
0.129908 0.209927 0.597857 110 114 109
0.128104 0.209936 0.597665 105 109 104
0.126301 0.209945 0.597474 135 135 135
0.229256 0.212694 0.611254 141 147 149
0.227442 0.212704 0.611062 83 93 96
0.225628 0.212713 0.610869 89 99 102
0.223815 0.212722 0.610677 95 105 108
0.222001 0.212731 0.610485 102 112 115
0.220187 0.212741 0.610293 105 110 115
0.218374 0.212750 0.610100 112 117 122
0.216560 0.212759 0.609908 119 122 125
0.214746 0.212768 0.609716 120 123 126
0.212933 0.212778 0.609524 135 135 135
0.211119 0.212787 0.609331 162 162 162
0.209247 0.211836 0.608850 178 178 178
0.133280 0.210303 0.600232 149 150 146
0.131526 0.209352 0.599763 107 108 104
0.129723 0.209361 0.599572 113 117 112
0.127919 0.209370 0.599381 106 110 105
0.126056 0.210340 0.599466 111 111 111
0.124250 0.210349 0.599275 155 155 155
0.232697 0.212107 0.613364 150 153 154
0.230884 0.212116 0.613172 118 123 128
0.229070 0.212126 0.612979 93 98 103
0.227256 0.212135 0.612787 88 95 99
0.225443 0.212144 0.612595 99 106 110
0.223629 0.212153 0.612403 104 111 115
0.221815 0.212163 0.612210 109 116 120
0.220002 0.212172 0.612018 112 115 118
0.218188 0.212181 0.611826 113 116 119
0.216374 0.212190 0.611634 126 126 128
0.214561 0.212200 0.611441 155 155 157
0.212747 0.212209 0.611249 173 173 173
0.131289 0.209746 0.601758 129 129 129
0.129483 0.209755 0.601567 109 109 109
0.127677 0.209765 0.601376 114 114 114
0.125871 0.209774 0.601184 111 111 111
0.124065 0.209783 0.600993 122 122 122
0.122194 0.210752 0.601079 177 176 176
0.236139 0.211520 0.615474 168 167 167
0.234325 0.211529 0.615282 128 131 134
0.232603 0.212496 0.615387 99 102 105
0.230787 0.212506 0.615194 92 97 102
0.228884 0.211557 0.614705 98 103 108
0.227070 0.211566 0.614513 103 109 111
0.225257 0.211575 0.614320 106 112 114
0.223443 0.211585 0.614128 115 121 123
0.221629 0.211594 0.613936 119 125 127
0.219816 0.211603 0.613744 130 130 132
0.218002 0.211612 0.613551 158 158 160
0.216188 0.211622 0.613359 174 173 173
0.131104 0.209180 0.603477 165 165 165
0.129298 0.209189 0.603285 116 115 115
0.127492 0.209198 0.603094 116 115 115
0.125626 0.210166 0.603183 111 110 112
0.123817 0.210176 0.602992 108 107 109
0.122009 0.210185 0.602800 165 164 164
0.237866 0.211899 0.617692 137 136 138
0.236050 0.211908 0.617500 110 109 111
0.234233 0.211918 0.617307 100 100 104
0.232417 0.211927 0.617115 103 103 107
0.230601 0.211936 0.616922 105 108 111
0.228785 0.211945 0.616730 112 115 118
0.226885 0.210997 0.616238 113 119 119
0.225152 0.211964 0.616345 112 118 118
0.223257 0.211016 0.615854 127 130 131
0.221444 0.211025 0.615661 145 148 149
0.219630 0.211034 0.615469 175 175 175
0.129057 0.209581 0.605287 145 144 144
0.127249 0.209590 0.605096 112 111 111
0.125380 0.210557 0.605188 115 114 116
0.123568 0.210566 0.604996 106 105 107
0.121757 0.210576 0.604804 129 129 131
0.119946 0.210585 0.604612 172 172 174
0.241312 0.211311 0.619805 144 143 145
0.239496 0.211320 0.619613 111 110 112
0.237680 0.211330 0.619420 96 96 98
0.235864 0.211339 0.619228 100 100 102
0.234047 0.211348 0.619035 108 108 110
0.232231 0.211357 0.618843 110 110 112
0.230415 0.211367 0.618650 110 110 110
0.228599 0.211376 0.618458 118 118 118
0.226782 0.211385 0.618265 130 133 132
0.224885 0.210438 0.617771 158 161 160
0.223071 0.210447 0.617579 177 180 181
0.128872 0.209014 0.607008 180 179 179
0.127005 0.209980 0.607103 122 121 121
0.125194 0.209989 0.606911 116 116 118
0.123383 0.209999 0.606719 107 107 109
0.121572 0.210008 0.606527 105 105 107
0.119692 0.210974 0.606620 157 157 159
0.244759 0.210723 0.621918 161 161 163
0.243049 0.211688 0.622032 116 116 118
0.241230 0.211697 0.621839 100 100 102
0.239411 0.211706 0.621646 100 100 102
0.237592 0.211716 0.621454 107 107 107
0.235774 0.211725 0.621261 112 112 112
0.233861 0.210779 0.620763 114 114 116
0.232045 0.210788 0.620571 116 116 118
0.230229 0.210797 0.620378 129 129 129
0.228412 0.210806 0.620185 137 137 137
0.226596 0.210816 0.619993 129 133 128
0.126761 0.210369 0.609114 139 138 138
0.124947 0.210378 0.608922 117 117 117
0.123134 0.210387 0.608730 114 114 114
0.121320 0.210396 0.608538 101 101 103
0.119506 0.210406 0.608345 133 133 135
0.248205 0.210135 0.624031 172 172 174
0.246500 0.211099 0.624148 135 135 137
0.244681 0.211108 0.623955 99 102 103
0.242863 0.211118 0.623762 95 98 99
0.241044 0.211127 0.623570 105 108 107
0.239225 0.211136 0.623377 107 110 109
0.237406 0.211145 0.623184 116 116 116
0.235587 0.211155 0.622991 119 119 119
0.233768 0.211164 0.622798 115 115 115
0.231950 0.211173 0.622606 150 150 150
0.230043 0.210228 0.622106 178 179 175
0.126575 0.209800 0.610840 179 179 175
0.124761 0.209809 0.610648 115 115 115
0.122948 0.209818 0.610455 121 121 121
0.121134 0.209828 0.610263 109 109 111
0.119320 0.209837 0.610071 110 110 112
0.117507 0.209846 0.609879 151 151 153
0.251652 0.209547 0.626144 180 180 180
0.249952 0.210510 0.626264 158 158 158
0.248133 0.210519 0.626071 105 108 111
0.246314 0.210529 0.625879 93 96 99
0.244495 0.210538 0.625686 98 101 100
0.242676 0.210547 0.625493 105 108 107
0.240857 0.210557 0.625300 110 113 112
0.239039 0.210566 0.625107 116 119 118
0.237220 0.210575 0.624914 118 118 118
0.235401 0.210584 0.624722 132 132 132
0.233582 0.210594 0.624529 169 169 169
0.124576 0.209240 0.612373 129 129 129
0.122762 0.209250 0.612181 111 111 111
0.120948 0.209259 0.611989 109 112 115
0.119135 0.209268 0.611796 102 105 108
0.117249 0.210232 0.611896 127 130 131
0.115432 0.210241 0.611704 166 169 170
0.253403 0.209921 0.628380 158 158 160
0.251584 0.209931 0.628187 115 118 121
0.249765 0.209940 0.627995 93 96 99
0.247946 0.209949 0.627802 98 101 104
0.246128 0.209958 0.627609 98 101 104
0.244309 0.209968 0.627416 107 110 109
0.242490 0.209977 0.627223 110 113 112
0.240671 0.209986 0.627030 114 114 114
0.238852 0.209995 0.626838 125 125 125
0.237033 0.210005 0.626645 172 171 171
0.124390 0.208672 0.614099 166 169 168
0.122511 0.209635 0.614202 110 113 112
0.120695 0.209644 0.614009 121 124 125
0.118879 0.209653 0.613817 108 111 112
0.117063 0.209663 0.613624 112 118 118
0.115246 0.209672 0.613432 149 155 155
0.256854 0.209332 0.630496 167 166 168
0.255035 0.209342 0.630303 132 131 138
0.253217 0.209351 0.630111 98 97 104
0.251398 0.209360 0.629918 94 93 100
0.249579 0.209370 0.629725 100 99 106
0.247760 0.209379 0.629532 105 105 107
0.245941 0.209388 0.629339 115 115 117
0.244122 0.209397 0.629147 116 116 116
0.242304 0.209407 0.628954 128 128 128
0.240485 0.209416 0.628761 161 160 160
0.238666 0.209425 0.628568 183 182 182
0.122325 0.209065 0.615930 129 133 128
0.120509 0.209075 0.615737 113 116 117
0.118693 0.209084 0.615545 115 118 119
0.116877 0.209093 0.615352 105 111 111
0.115060 0.209102 0.615160 131 137 137
0.260306 0.208744 0.632612 173 172 174
0.258487 0.208753 0.632419 132 132 136
0.256668 0.208762 0.632227 100 100 104
0.254849 0.208771 0.632034 97 96 103
0.253030 0.208781 0.631841 101 100 107
0.251211 0.208790 0.631648 105 105 109
0.249393 0.208799 0.631455 115 115 119
0.247574 0.208808 0.631263 115 115 117
0.245755 0.208818 0.631070 122 122 124
0.243936 0.208827 0.630877 138 138 138
0.122139 0.208496 0.617658 162 162 162
0.120323 0.208505 0.617465 108 111 110
0.118507 0.208514 0.617273 119 122 121
0.116691 0.208524 0.617080 106 112 110
0.114874 0.208533 0.616888 110 116 114
0.113058 0.208542 0.616695 151 154 157
0.263893 0.209105 0.635053 178 178 180
0.261938 0.208164 0.634535 135 135 139
0.260119 0.208173 0.634343 110 110 114
0.258300 0.208183 0.634150 97 96 103
0.256482 0.208192 0.633957 102 101 108
0.254663 0.208201 0.633764 101 101 105
0.252844 0.208210 0.633571 105 105 109
0.251025 0.208220 0.633379 117 116 118
0.249206 0.208229 0.633186 118 117 119
0.247387 0.208238 0.632993 133 133 133
0.245569 0.208247 0.632800 168 168 168
0.120069 0.208887 0.619496 126 130 125
0.118321 0.207945 0.619001 113 117 112
0.116431 0.208906 0.619110 114 117 116
0.114688 0.207963 0.618616 106 109 108
0.112872 0.207973 0.618423 131 137 139
0.267349 0.208516 0.637172 176 176 178
0.265527 0.208525 0.636979 147 147 151
0.263842 0.209484 0.637112 125 125 129
0.261885 0.208543 0.636592 103 102 109
0.260063 0.208553 0.636399 100 99 106
0.258242 0.208562 0.636206 104 103 110
0.256295 0.207622 0.635687 112 111 118
0.254476 0.207631 0.635495 119 119 123
0.252658 0.207640 0.635302 118 118 122
0.250839 0.207649 0.635109 126 125 125
0.249020 0.207659 0.634916 158 157 157
0.119883 0.208317 0.621226 164 164 164
0.118064 0.208326 0.621033 109 109 109
0.116245 0.208335 0.620841 116 119 120
0.114426 0.208345 0.620648 113 116 117
0.112607 0.208354 0.620455 106 112 114
0.110788 0.208363 0.620262 149 155 157
0.269270 0.209833 0.639758 141 143 149
0.267303 0.208893 0.639234 112 114 120
0.265479 0.208903 0.639041 106 108 114
0.263655 0.208912 0.638847 105 107 113
0.261831 0.208921 0.638654 100 102 108
0.259877 0.207982 0.638132 100 102 108
0.258055 0.207991 0.637939 111 111 115
0.256109 0.207051 0.637418 114 114 118
0.254290 0.207060 0.637225 116 115 117
0.252471 0.207070 0.637032 147 146 148
0.250652 0.207079 0.636839 184 179 177
0.117877 0.207756 0.622764 135 135 135
0.116059 0.207765 0.622571 115 115 117
0.114240 0.207774 0.622378 116 116 118
0.112421 0.207784 0.622185 103 109 111
0.110602 0.207793 0.621993 131 137 139
0.274713 0.210180 0.642410 176 175 175
0.272884 0.210189 0.642216 152 155 158
0.271055 0.210199 0.642022 121 124 127
0.269225 0.210208 0.641828 108 110 116
0.267256 0.209269 0.641302 102 104 110
0.265429 0.209279 0.641108 101 103 109
0.263603 0.209288 0.640914 102 104 110
0.261644 0.208349 0.640389 105 105 109
0.259820 0.208359 0.640196 114 114 118
0.257869 0.207420 0.639672 118 118 122
0.256047 0.207429 0.639479 125 125 129
0.254226 0.207438 0.639286 152 151 151
0.117691 0.207185 0.624494 166 166 166
0.115872 0.207195 0.624301 114 114 116
0.114053 0.207204 0.624109 118 118 120
0.112235 0.207213 0.623916 105 111 113
0.110416 0.207223 0.623723 112 118 120
0.108597 0.207232 0.623530 168 174 174
0.276507 0.210544 0.644680 158 158 162
0.274676 0.210554 0.644485 128 128 132
0.272844 0.210563 0.644291 105 107 113
0.271012 0.210572 0.644097 107 109 115
0.269180 0.210582 0.643903 102 104 110
0.267349 0.210591 0.643709 102 104 110
0.265380 0.209653 0.643180 105 108 111
0.263416 0.208715 0.642652 106 109 112
0.261589 0.208725 0.642459 118 118 120
0.259633 0.207787 0.641931 118 118 120
0.257682 0.206849 0.641405 150 150 150
0.255861 0.206858 0.641212 172 172 172
0.115612 0.207573 0.626344 122 122 124
0.113790 0.207582 0.626151 118 118 120
0.112048 0.206643 0.625646 109 112 115
0.110229 0.206652 0.625453 105 108 111
0.108411 0.206661 0.625261 162 165 168
0.279983 0.209951 0.646811 159 159 163
0.278151 0.209961 0.646617 131 131 135
0.276472 0.210916 0.646761 112 111 118
0.274638 0.210926 0.646566 110 109 116
0.272804 0.210935 0.646372 100 103 106
0.270969 0.210944 0.646177 102 105 108
0.269135 0.210954 0.645983 102 105 108
0.267161 0.210017 0.645451 109 112 115
0.265329 0.210026 0.645257 113 116 117
0.263363 0.209089 0.644727 119 122 123
0.261402 0.208152 0.644196 140 140 140
0.259575 0.208161 0.644003 168 168 168
0.115351 0.207949 0.628391 161 161 163
0.113527 0.207958 0.628198 110 110 112
0.111782 0.207020 0.627690 112 112 116
0.109961 0.207029 0.627497 107 107 111
0.108224 0.206091 0.626991 132 131 138
0.106405 0.206100 0.626798 165 164 171
0.281787 0.210313 0.649089 128 131 134
0.279953 0.210323 0.648895 111 110 119
0.278119 0.210332 0.648700 109 108 117
0.276437 0.211287 0.648847 108 107 114
0.274600 0.211296 0.648652 98 97 104
0.272763 0.211306 0.648457 101 104 107
0.270926 0.211315 0.648263 107 110 113
0.268947 0.210379 0.647728 115 118 121
0.267113 0.210388 0.647534 120 123 126
0.265142 0.209452 0.647000 123 126 127
0.263310 0.209461 0.646806 163 166 167
0.115089 0.208324 0.630443 180 179 181
0.113262 0.208333 0.630250 122 121 123
0.111516 0.207396 0.629740 118 117 124
0.109692 0.207405 0.629546 115 114 121
0.107868 0.207414 0.629353 111 110 117
0.106131 0.206477 0.628844 159 158 165
0.285598 0.211609 0.651913 136 136 140
0.283758 0.211618 0.651718 117 122 129
0.281759 0.210683 0.651179 112 117 124
0.279922 0.210692 0.650984 109 111 119
0.278085 0.210701 0.650789 101 103 111
0.276400 0.211656 0.650938 103 105 111
0.274561 0.211665 0.650743 103 105 111
0.272721 0.211674 0.650548 115 115 119
0.270882 0.211684 0.650353 116 116 120
0.268759 0.209804 0.649473 121 124 125
0.266925 0.209813 0.649279 141 144 145
0.112920 0.209652 0.632625 133 133 135
0.111168 0.208716 0.632112 115 115 119
0.109422 0.207779 0.631600 117 117 121
0.107595 0.207788 0.631406 106 109 112
0.105857 0.206852 0.630895 145 148 151
0.289088 0.211013 0.654053 147 146 153
0.287249 0.211023 0.653858 117 116 123
0.285409 0.211032 0.653663 115 114 121
0.283570 0.211041 0.653468 111 116 125
0.281730 0.211051 0.653273 104 109 118
0.279891 0.211060 0.653078 100 105 112
0.278051 0.211069 0.652883 98 103 110
0.276212 0.211079 0.652688 106 108 116
0.274372 0.211088 0.652493 115 117 125
0.272533 0.211098 0.652298 115 115 119
0.270694 0.211107 0.652103 131 131 135
0.268713 0.210172 0.651563 174 174 174
0.112654 0.210023 0.634690 165 165 167
0.110901 0.209087 0.634174 108 111 114
0.109069 0.209097 0.633980 120 123 126
0.107237 0.209106 0.633785 108 111 114
0.105582 0.207225 0.632951 133 136 139
0.292579 0.210418 0.656193 151 151 155
0.290739 0.210427 0.655998 119 118 125
0.288900 0.210436 0.655803 118 117 124
0.285385 0.211398 0.655762 104 103 112
0.283543 0.211408 0.655567 91 96 105
0.281542 0.210474 0.655023 93 98 107
0.279702 0.210483 0.654828 103 105 113
0.277863 0.210493 0.654633 110 112 120
0.276023 0.210502 0.654438 112 111 118
0.274184 0.210511 0.654243 130 129 136
0.272345 0.210521 0.654048 160 159 161
0.112388 0.210392 0.636759 179 178 178
0.110632 0.209457 0.636240 120 123 126
0.108798 0.209467 0.636046 117 120 123
0.106964 0.209476 0.635851 112 118 120
0.105218 0.208541 0.635334 106 112 114
0.103386 0.208550 0.635140 157 160 163
0.296069 0.209822 0.658333 151 150 150
0.294230 0.209831 0.658138 129 128 130
0.292390 0.209841 0.657943 122 121 123
0.290551 0.209850 0.657748 117 116 123
0.287039 0.210811 0.657710 104 103 110
0.285196 0.210821 0.657515 100 99 106
0.283354 0.210830 0.657320 100 99 108
0.281512 0.210839 0.657124 107 106 115
0.279514 0.209906 0.656578 109 108 115
0.277674 0.209916 0.656383 129 128 135
0.275986 0.210868 0.656539 152 151 153
0.273996 0.209935 0.655993 182 181 183
0.110282 0.210769 0.638638 149 152 153
0.108526 0.209835 0.638117 109 112 113
0.106603 0.210788 0.638248 114 120 122
0.104853 0.209854 0.637727 104 110 112
0.103016 0.209863 0.637533 131 134 137
0.297720 0.209236 0.660278 131 130 130
0.295881 0.209245 0.660083 110 109 109
0.294041 0.209255 0.659888 113 112 114
0.292202 0.209264 0.659693 111 110 112
0.290362 0.209273 0.659498 104 104 108
0.288692 0.210224 0.659658 97 97 101
0.286850 0.210234 0.659463 98 98 102
0.285008 0.210243 0.659267 107 107 111
0.283327 0.211194 0.659426 117 116 123
0.281482 0.211203 0.659231 121 120 127
0.279482 0.210271 0.658682 150 150 154
0.277640 0.210281 0.658486 180 180 184
0.110094 0.210192 0.640388 174 177 178
0.108254 0.210202 0.640193 113 116 117
0.106415 0.210211 0.639998 113 119 121
0.104575 0.210220 0.639803 107 113 115
0.102644 0.211173 0.639935 122 125 128
0.100896 0.210239 0.639413 162 165 168
0.301398 0.209581 0.662777 142 142 146
0.299555 0.209590 0.662582 110 110 114
0.297713 0.209600 0.662387 115 114 116
0.295871 0.209609 0.662192 115 114 116
0.294029 0.209618 0.661996 109 108 112
0.292187 0.209628 0.661801 103 102 106
0.290345 0.209637 0.661606 107 107 111
0.288503 0.209647 0.661411 110 110 114
0.286827 0.210597 0.661573 122 122 126
0.284983 0.210606 0.661377 114 114 118
0.283299 0.211556 0.661538 143 143 147
0.281452 0.211565 0.661342 171 171 175
0.279449 0.210634 0.660790 184 183 187
0.107982 0.210567 0.642273 131 131 133
0.106140 0.210576 0.642078 112 118 118
0.104298 0.210586 0.641883 112 118 118
0.102456 0.210595 0.641688 109 112 115
0.100519 0.211546 0.641822 150 153 156
0.305276 0.210864 0.665645 153 153 157
0.303429 0.210873 0.665450 117 117 121
0.301395 0.209943 0.664892 103 102 109
0.299551 0.209952 0.664696 112 111 118
0.297525 0.209022 0.664139 108 108 112
0.295683 0.209031 0.663944 102 102 106
0.293841 0.209041 0.663749 104 103 107
0.291999 0.209050 0.663554 112 111 115
0.290156 0.209060 0.663358 118 117 121
0.288483 0.210009 0.663523 111 110 114
0.286638 0.210018 0.663327 127 126 130
0.284957 0.210967 0.663491 168 167 171
0.283110 0.210977 0.663296 186 185 189
0.107793 0.209989 0.644026 165 165 165
0.105951 0.209999 0.643831 107 110 111
0.104020 0.210949 0.643968 116 119 120
0.102175 0.210958 0.643772 106 109 112
0.100330 0.210968 0.643577 133 136 139
0.307128 0.211214 0.667964 132 132 136
0.305279 0.211224 0.667768 102 104 110
0.303240 0.210294 0.667207 103 105 111
0.301393 0.210303 0.667011 108 110 116
0.299545 0.210313 0.666815 105 107 113
0.297517 0.209383 0.666256 105 108 111
0.295672 0.209393 0.666060 106 109 112
0.293828 0.209402 0.665865 111 111 115
0.291983 0.209412 0.665669 118 118 122
0.290139 0.209421 0.665474 128 124 129
0.288294 0.209430 0.665278 160 156 161
0.286615 0.210379 0.665445 186 182 187
0.107520 0.210352 0.646114 174 174 176
0.105675 0.210361 0.645918 107 110 111
0.101894 0.211320 0.645862 113 116 117
0.100046 0.211330 0.645666 122 125 126
0.310638 0.210615 0.670116 146 145 149
0.308789 0.210625 0.669920 125 123 130
0.306939 0.210634 0.669724 106 104 111
0.305089 0.210643 0.669528 103 102 109
0.303239 0.210653 0.669332 105 104 111
0.301389 0.210662 0.669135 105 104 111
0.299540 0.210672 0.668939 104 103 110
0.297690 0.210681 0.668743 110 110 114
0.295662 0.209753 0.668181 110 110 114
0.293815 0.209762 0.667985 124 123 125
0.291967 0.209771 0.667790 151 150 152
0.290120 0.209781 0.667594 184 180 183
0.105486 0.209783 0.647673 120 123 124
0.101704 0.210741 0.647620 115 118 119
0.099857 0.210751 0.647424 109 112 113
0.097912 0.211699 0.647565 158 161 164
0.314148 0.210016 0.672268 167 163 164
0.312299 0.210026 0.672072 120 119 123
0.310449 0.210035 0.671876 116 115 119
0.308599 0.210045 0.671680 109 107 114
0.306749 0.210054 0.671484 102 100 107
0.304899 0.210063 0.671288 103 101 108
0.303050 0.210073 0.671091 106 104 111
0.301200 0.210082 0.670895 108 107 114
0.299350 0.210092 0.670699 104 103 110
0.297500 0.210101 0.670503 112 112 114
0.295650 0.210111 0.670307 137 137 139
0.293801 0.210120 0.670111 176 175 177
0.105209 0.210143 0.649769 133 133 135
0.103362 0.210153 0.649573 116 116 118
0.101515 0.210162 0.649377 117 120 121
0.099572 0.211110 0.649521 108 111 112
0.097723 0.211119 0.649325 144 147 150
0.316015 0.210363 0.674598 146 145 147
0.314162 0.210373 0.674402 112 111 113
0.312310 0.210382 0.674205 113 111 118
0.310458 0.210392 0.674009 112 110 117
0.308605 0.210401 0.673812 103 101 108
0.306753 0.210410 0.673616 109 107 114
0.304901 0.210420 0.673420 108 107 111
0.302860 0.209493 0.672851 116 115 119
0.301010 0.209502 0.672655 115 115 119
0.299161 0.209512 0.672459 126 126 130
0.297311 0.209521 0.672263 173 172 174
0.295461 0.209531 0.672067 188 187 189
0.105020 0.209564 0.651526 163 166 165
0.103173 0.209573 0.651330 112 115 114
0.101233 0.210521 0.651477 121 124 125
0.099383 0.210530 0.651281 108 111 112
0.097533 0.210539 0.651084 134 137 138
0.319530 0.209764 0.676753 173 173 175
0.317677 0.209773 0.676557 122 122 124
0.315825 0.209782 0.676360 111 110 117
0.313973 0.209792 0.676164 111 110 117
0.312321 0.210737 0.676343 109 107 114
0.310466 0.210746 0.676147 104 102 109
0.308611 0.210756 0.675950 104 104 108
0.306756 0.210765 0.675753 115 115 119
0.304711 0.209839 0.675182 116 116 118
0.302858 0.209848 0.674986 122 122 124
0.301006 0.209858 0.674789 155 154 156
0.299154 0.209867 0.674593 181 180 182
0.102984 0.208994 0.653088 119 122 123
0.101043 0.209941 0.653237 120 123 124
0.099193 0.209950 0.653040 115 118 119
0.097344 0.209959 0.652844 122 125 126
0.095494 0.209969 0.652648 173 176 177
0.321406 0.210108 0.679091 159 159 161
0.319551 0.210117 0.678895 110 112 118
0.317696 0.210127 0.678698 101 103 109
0.315841 0.210136 0.678501 108 110 116
0.313986 0.210146 0.678305 105 107 113
0.312131 0.210155 0.678108 105 105 109
0.310276 0.210165 0.677911 107 107 111
0.308421 0.210174 0.677715 118 118 122
0.306566 0.210184 0.677518 115 115 119
0.304711 0.210193 0.677321 132 132 134
0.302856 0.210202 0.677125 173 173 175
0.102703 0.209351 0.655192 136 139 138
0.100854 0.209361 0.654996 116 119 120
0.099004 0.209370 0.654800 119 122 123
0.097154 0.209379 0.654604 110 113 114
0.095304 0.209389 0.654408 162 165 166
0.324926 0.209507 0.681249 176 175 175
0.323071 0.209517 0.681053 138 137 144
0.321216 0.209526 0.680856 105 104 111
0.319361 0.209536 0.680659 100 105 112
0.317506 0.209545 0.680463 100 105 112
0.315856 0.210489 0.680647 99 105 107
0.313999 0.210498 0.680450 98 104 106
0.312141 0.210508 0.680254 109 112 115
0.310284 0.210517 0.680057 115 118 121
0.308426 0.210527 0.679860 118 118 120
0.306569 0.210536 0.679663 154 154 156
0.304711 0.210545 0.679466 183 182 184
0.102514 0.208771 0.656952 153 153 153
0.100664 0.208781 0.656756 109 112 111
0.098814 0.208790 0.656560 119 122 121
0.096964 0.208799 0.656364 112 115 116
0.095013 0.209744 0.656517 140 143 144
0.326590 0.208916 0.683211 154 154 158
0.324954 0.209859 0.683399 119 119 123
0.323096 0.209868 0.683202 103 105 113
0.321238 0.209878 0.683005 103 105 113
0.319381 0.209887 0.682808 102 104 112
0.317523 0.209897 0.682612 102 104 112
0.315666 0.209906 0.682415 108 111 114
0.314011 0.210849 0.682601 109 112 115
0.312151 0.210858 0.682404 112 115 116
0.310291 0.210868 0.682207 145 148 149
0.308430 0.210877 0.682010 178 178 178
0.102324 0.208191 0.658712 179 179 179
0.100475 0.208201 0.658516 113 116 117
0.098625 0.208210 0.658320 117 120 121
0.096775 0.208219 0.658124 110 116 116
0.094823 0.209163 0.658279 125 131 131
0.330336 0.209248 0.685757 169 169 171
0.328478 0.209257 0.685560 135 135 137
0.326621 0.209267 0.685363 108 107 114
0.324981 0.210209 0.685554 105 104 111
0.323121 0.210218 0.685357 99 101 107
0.321261 0.210228 0.685160 98 100 106
0.319401 0.210237 0.684962 99 101 107
0.317540 0.210247 0.684765 108 110 116
0.315680 0.210256 0.684568 117 117 121
0.313820 0.210266 0.684371 125 125 129
0.312160 0.211207 0.684559 164 164 166
0.100285 0.207621 0.660276 121 124 125
0.098338 0.208564 0.660434 114 117 118
0.096486 0.208573 0.660238 113 119 121
0.094633 0.208583 0.660041 113 119 121
0.092781 0.208592 0.659845 171 177 179
0.332231 0.209587 0.688112 152 155 156
0.330371 0.209597 0.687915 117 119 125
0.328511 0.209606 0.687718 110 112 118
0.326650 0.209616 0.687521 108 107 114
0.324790 0.209625 0.687324 105 104 111
0.322930 0.209635 0.687126 106 109 112
0.321070 0.209644 0.686929 101 104 107
0.319210 0.209654 0.686732 114 114 118
0.317557 0.210595 0.686924 115 115 119
0.315694 0.210604 0.686726 137 137 139
0.313832 0.210614 0.686529 175 175 177
0.100001 0.207973 0.662393 149 152 153
0.098148 0.207983 0.662196 107 110 111
0.096296 0.207992 0.662000 115 121 123
0.094444 0.208002 0.661804 104 110 112
0.092591 0.208011 0.661607 157 163 165
0.336226 0.210846 0.691065 170 173 174
0.334360 0.210856 0.690867 135 137 143
0.332495 0.210865 0.690669 106 108 114
0.330405 0.209944 0.690078 107 109 117
0.328765 0.210884 0.690274 102 104 112
0.326680 0.209963 0.689683 96 98 104
0.324817 0.209973 0.689486 103 105 111
0.323169 0.210913 0.689681 116 116 120
0.321304 0.210922 0.689483 112 112 116
0.319438 0.210932 0.689285 128 128 132
0.317573 0.210941 0.689087 169 169 173
0.315912 0.211882 0.689281 186 186 186
0.099811 0.207393 0.664155 169 172 173
0.097959 0.207402 0.663959 107 110 111
0.096106 0.207412 0.663762 115 121 123
0.094151 0.208353 0.663924 100 106 108
0.092296 0.208363 0.663728 151 154 155
0.338135 0.211182 0.693434 139 144 149
0.336267 0.211191 0.693236 113 118 123
0.334399 0.211201 0.693038 101 106 113
0.332531 0.211210 0.692840 103 108 115
0.330663 0.211220 0.692642 102 104 110
0.328796 0.211229 0.692444 102 104 110
0.326708 0.210309 0.691851 112 115 118
0.325060 0.211248 0.692048 112 115 118
0.323192 0.211258 0.691850 115 115 119
0.321324 0.211267 0.691652 144 144 148
0.319456 0.211277 0.691454 182 181 183
0.099621 0.206812 0.665917 176 176 178
0.097671 0.207753 0.666083 117 117 119
0.095816 0.207762 0.665886 123 126 127
0.093961 0.207772 0.665689 105 108 109
0.092106 0.207781 0.665493 138 141 142
0.341919 0.211506 0.696007 160 166 168
0.340049 0.211515 0.695809 118 124 126
0.338178 0.211525 0.695610 105 112 116
0.336308 0.211534 0.695412 106 113 117
0.334437 0.211544 0.695214 100 107 113
0.332567 0.211554 0.695015 100 107 113
0.330696 0.211563 0.694817 104 109 114
0.328604 0.210644 0.694221 111 116 121
0.326736 0.210653 0.694023 107 110 113
0.324869 0.210663 0.693825 130 133 136
0.323215 0.211601 0.694024 169 169 171
0.099336 0.207162 0.668044 179 182 183
0.097481 0.207171 0.667847 128 131 132
0.095626 0.207181 0.667651 124 124 126
0.093668 0.208121 0.667817 117 117 119
0.091810 0.208130 0.667621 120 123 124
0.345468 0.210900 0.698183 171 176 181
0.343598 0.210910 0.697985 129 134 139
0.341727 0.210919 0.697786 113 118 123
0.340094 0.211857 0.697990 104 109 114
0.338221 0.211867 0.697791 103 108 113
0.336348 0.211876 0.697593 93 98 103
0.334475 0.211886 0.697394 101 107 109
0.332602 0.211895 0.697196 107 113 115
0.330505 0.210977 0.696597 106 109 112
0.328634 0.210986 0.696398 119 122 125
0.326764 0.210996 0.696200 144 144 146
0.324894 0.211005 0.696002 185 185 187
0.097193 0.207519 0.669978 135 138 139
0.095335 0.207529 0.669782 117 120 121
0.093477 0.207538 0.669585 116 119 120
0.091620 0.207548 0.669388 112 112 114
0.089654 0.208487 0.669556 171 171 173
0.347394 0.211232 0.700566 164 170 172
0.345521 0.211241 0.700368 114 121 127
0.343648 0.211251 0.700169 97 104 110
0.341775 0.211260 0.699971 103 110 114
0.340139 0.212197 0.700176 97 104 108
0.338263 0.212207 0.699978 103 109 109
0.336388 0.212216 0.699779 105 111 111
0.334512 0.212226 0.699580 107 113 113
0.332637 0.212235 0.699381 110 116 116
0.330761 0.212245 0.699182 134 137 136
0.328664 0.211327 0.698581 169 172 171
0.097002 0.206937 0.671746 121 124 125
0.095043 0.207875 0.671917 119 122 125
0.093183 0.207885 0.671720 120 123 126
0.091323 0.207894 0.671523 111 111 115
0.089463 0.207904 0.671326 158 158 162
0.350948 0.210625 0.702745 179 182 181
0.347449 0.211571 0.702756 110 116 118
0.345574 0.211580 0.702557 101 111 116
0.343698 0.211590 0.702359 97 107 112
0.341822 0.211599 0.702160 98 108 111
0.339947 0.211609 0.701961 104 114 117
0.338071 0.211618 0.701762 108 114 114
0.336196 0.211628 0.701563 103 109 109
0.334320 0.211638 0.701364 123 126 125
0.332444 0.211647 0.701166 167 170 169
0.096713 0.207283 0.673884 169 172 171
0.094853 0.207292 0.673687 114 114 118
0.092993 0.207301 0.673490 122 122 126
0.091133 0.207311 0.673293 110 110 114
0.089163 0.208249 0.673466 125 125 129
0.352884 0.210954 0.705137 170 173 174
0.351008 0.210963 0.704938 123 126 127
0.349133 0.210973 0.704739 100 106 108
0.347257 0.210983 0.704541 98 104 106
0.345381 0.210992 0.704342 96 103 107
0.343506 0.211002 0.704143 103 110 114
0.341630 0.211011 0.703944 104 111 115
0.339755 0.211021 0.703745 113 120 124
0.337879 0.211030 0.703546 108 111 112
0.336003 0.211040 0.703348 147 150 151
0.334356 0.211975 0.703557 179 179 179
0.096522 0.206699 0.675654 178 181 182
0.094561 0.207636 0.675830 108 111 114
0.092802 0.206718 0.675260 119 122 125
0.090835 0.207655 0.675435 109 112 113
0.088863 0.208592 0.675611 130 133 134
0.086998 0.208602 0.675413 175 176 172
0.356443 0.210347 0.707319 180 183 184
0.354567 0.210356 0.707120 153 156 157
0.352946 0.211290 0.707335 108 114 116
0.351067 0.211300 0.707136 101 107 109
0.349189 0.211310 0.706937 100 108 109
0.347311 0.211319 0.706738 99 107 108
0.345433 0.211329 0.706539 99 107 108
0.343555 0.211338 0.706340 110 118 119
0.341677 0.211348 0.706141 111 117 119
0.339798 0.211357 0.705941 114 120 122
0.337920 0.211367 0.705742 158 158 160
0.336042 0.211377 0.705543 188 188 190
0.096232 0.207043 0.677800 177 180 181
0.094370 0.207052 0.677603 123 126 127
0.092402 0.207988 0.677781 114 117 118
0.090537 0.207998 0.677583 115 118 119
0.088562 0.208934 0.677760 122 125 126
0.086694 0.208943 0.677562 180 181 177
0.358388 0.210673 0.709719 175 175 177
0.356510 0.210682 0.709520 133 139 141
0.354631 0.210692 0.709321 101 107 109
0.353007 0.211626 0.709538 104 110 112
0.351126 0.211635 0.709339 104 110 112
0.349245 0.211645 0.709140 101 107 109
0.347365 0.211654 0.708940 103 109 111
0.345241 0.210740 0.708326 106 114 113
0.343362 0.210749 0.708127 106 114 113
0.341484 0.210759 0.707927 145 148 149
0.339606 0.210769 0.707728 160 163 164
0.094077 0.207394 0.679753 144 144 146
0.092107 0.208329 0.679934 111 111 113
0.090239 0.208339 0.679736 119 119 121
0.088371 0.208348 0.679538 112 112 114
0.086390 0.209283 0.679717 170 173 172
0.360073 0.210074 0.711705 162 164 170
0.358195 0.210084 0.711506 113 115 121
0.356576 0.211017 0.711726 107 112 117
0.354695 0.211026 0.711527 104 109 114
0.352814 0.211036 0.711328 103 109 111
0.350933 0.211045 0.711128 103 109 111
0.349053 0.211055 0.710929 108 111 112
0.347172 0.211065 0.710729 109 112 113
0.345291 0.211074 0.710530 134 137 138
0.343410 0.211084 0.710331 171 174 175
0.093783 0.207734 0.681909 153 153 155
0.091915 0.207743 0.681711 111 111 113
0.090047 0.207753 0.681513 117 120 121
0.088069 0.208687 0.681695 106 109 110
0.086199 0.208697 0.681496 156 159 160
0.363637 0.209466 0.713890 182 182 184
0.361759 0.209476 0.713691 149 149 151
0.360145 0.210408 0.713914 106 108 114
0.358264 0.210417 0.713715 106 108 114
0.356383 0.210427 0.713516 100 105 110
0.354502 0.210436 0.713316 105 110 115
0.352622 0.210446 0.713117 112 115 116
0.350991 0.211378 0.713338 110 113 114
0.348860 0.210465 0.712718 116 116 116
0.346979 0.210475 0.712519 152 152 152
0.345099 0.210484 0.712319 181 184 183
0.093489 0.208072 0.684069 159 159 161
0.091618 0.208082 0.683871 110 110 112
0.089748 0.208091 0.683672 119 122 125
0.087878 0.208101 0.683474 107 110 113
0.085894 0.209035 0.683658 149 155 155
0.365594 0.209789 0.716302 184 183 183
0.363713 0.209799 0.716102 132 132 134
0.361833 0.209808 0.715903 109 109 111
0.359952 0.209818 0.715704 107 112 117
0.358071 0.209828 0.715504 101 106 111
0.356190 0.209837 0.715305 104 109 114
0.354310 0.209847 0.715106 110 115 120
0.352682 0.210778 0.715330 110 113 116
0.350798 0.210787 0.715130 122 125 128
0.348915 0.210797 0.714931 176 176 176
0.346787 0.209885 0.714308 185 185 185
0.093194 0.208409 0.686234 171 174 175
0.091427 0.207495 0.685650 109 112 113
0.089556 0.207505 0.685452 117 123 125
0.087464 0.209361 0.686024 111 117 119
0.085589 0.209371 0.685825 140 146 146
0.367282 0.209190 0.718291 165 165 169
0.365401 0.209199 0.718091 125 125 129
0.363521 0.209209 0.717892 101 104 107
0.361640 0.209219 0.717692 106 109 112
0.359759 0.209228 0.717493 106 112 114
0.358139 0.210159 0.717721 107 113 115
0.356256 0.210168 0.717521 110 115 120
0.354372 0.210178 0.717321 113 118 123
0.352489 0.210187 0.717122 134 137 138
0.350606 0.210197 0.716922 179 182 183
0.092899 0.208744 0.688405 181 181 183
0.091023 0.208754 0.688206 111 111 113
0.089148 0.208764 0.688007 114 120 122
0.087272 0.208773 0.687808 112 118 120
0.085283 0.209705 0.687997 128 128 130
0.368970 0.208591 0.720279 149 148 155
0.367363 0.209520 0.720511 106 108 114
0.365479 0.209530 0.720311 107 109 115
0.363596 0.209539 0.720111 99 102 105
0.361713 0.209549 0.719912 106 109 112
0.359829 0.209558 0.719712 107 112 117
0.357946 0.209568 0.719512 108 113 118
0.356063 0.209578 0.719313 118 118 122
0.354179 0.209587 0.719113 158 158 162
0.352548 0.210517 0.719342 185 185 187
0.092603 0.209078 0.690580 186 186 188
0.090831 0.208166 0.689990 117 117 119
0.088956 0.208175 0.689791 114 117 118
0.086969 0.209107 0.689982 115 118 119
0.084977 0.210038 0.690173 122 122 122
0.372820 0.208901 0.722901 183 186 187
0.370936 0.208910 0.722702 134 139 144
0.369053 0.208920 0.722502 99 104 109
0.367170 0.208929 0.722302 104 109 114
0.365286 0.208939 0.722103 103 108 113
0.363403 0.208949 0.721903 110 110 114
0.361520 0.208958 0.721703 110 110 114
0.359636 0.208968 0.721504 108 111 114
0.357753 0.208977 0.721304 130 133 136
0.356127 0.209906 0.721536 176 175 177
0.354241 0.209916 0.721336 188 187 189
0.090426 0.209420 0.692560 137 136 136
0.088545 0.209429 0.692361 114 117 118
0.086665 0.209439 0.692162 119 122 123
0.084784 0.209448 0.691962 117 120 121
0.082786 0.210379 0.692155 173 176 177
0.374793 0.209219 0.725329 163 168 175
0.372907 0.209228 0.725129 120 125 132
0.371021 0.209238 0.724930 99 104 111
0.369135 0.209248 0.724730 103 108 115
0.367249 0.209257 0.724530 106 109 112
0.365363 0.209267 0.724330 105 108 111
0.363477 0.209276 0.724130 115 114 118
0.361591 0.209286 0.723930 112 111 115
0.359706 0.209296 0.723730 145 144 146
0.357820 0.209305 0.723530 183 182 184
0.090233 0.208830 0.694350 166 165 165
0.088353 0.208839 0.694150 115 115 117
0.086472 0.208849 0.693951 122 122 124
0.084477 0.209779 0.694146 114 117 118
0.082476 0.210709 0.694341 167 170 171
0.376486 0.208618 0.727324 154 160 162
0.374600 0.208627 0.727124 107 112 119
0.372714 0.208637 0.726924 103 108 115
0.370828 0.208647 0.726724 105 110 117
0.368942 0.208656 0.726524 105 110 117
0.367056 0.208666 0.726324 108 111 112
0.365170 0.208675 0.726124 106 109 110
0.363284 0.208685 0.725924 132 131 133
0.361398 0.208695 0.725724 163 162 164
0.359512 0.208704 0.725524 187 186 188
0.089934 0.209160 0.696537 172 172 172
0.088050 0.209169 0.696337 112 112 114
0.086167 0.209179 0.696138 121 121 123
0.084169 0.210108 0.696335 107 110 111
0.082283 0.210117 0.696135 152 155 156
0.380354 0.208924 0.729960 183 189 187
0.378466 0.208933 0.729760 136 141 146
0.376577 0.208943 0.729560 106 111 116
0.374689 0.208952 0.729359 103 105 113
0.372521 0.208046 0.728718 106 108 116
0.370912 0.208972 0.728959 105 107 113
0.369023 0.208981 0.728759 108 110 116
0.367135 0.208991 0.728559 111 111 113
0.365246 0.209001 0.728358 132 132 134
0.363358 0.209010 0.728158 180 179 181
0.089634 0.209487 0.698729 176 176 176
0.087748 0.209497 0.698529 115 118 119
0.085862 0.209507 0.698329 119 122 123
0.083976 0.209516 0.698129 110 116 116
0.082090 0.209526 0.697929 138 144 144
0.382049 0.208322 0.731957 178 184 186
0.380161 0.208331 0.731757 132 138 140
0.378272 0.208341 0.731556 100 105 110
0.376384 0.208351 0.731356 104 109 114
0.374495 0.208360 0.731156 106 108 114
0.372607 0.208370 0.730956 110 112 118
0.370718 0.208380 0.730756 116 119 122
0.368830 0.208389 0.730555 112 115 118
0.366941 0.208399 0.730355 147 147 149
0.365053 0.208408 0.730155 180 180 182
0.089440 0.208896 0.700523 177 180 181
0.087554 0.208906 0.700323 118 124 126
0.085669 0.208915 0.700123 118 124 126
0.083783 0.208925 0.699923 112 117 122
0.081779 0.209852 0.700125 136 141 146
0.383744 0.207720 0.733954 177 183 181
0.381856 0.207730 0.733754 124 131 135
0.379967 0.207739 0.733553 93 100 104
0.378079 0.207749 0.733353 100 107 111
0.376190 0.207759 0.733153 104 111 115
0.374302 0.207768 0.732953 106 109 112
0.372413 0.207778 0.732753 114 117 120
0.370525 0.207787 0.732552 115 115 117
0.368636 0.207797 0.732352 155 155 157
0.367019 0.208722 0.732597 184 183 183
0.089139 0.209222 0.702723 179 182 183
0.087251 0.209231 0.702522 125 131 133
0.085475 0.208324 0.701918 119 125 127
0.083474 0.209251 0.702122 112 119 123
0.081585 0.209260 0.701922 127 134 138
0.385736 0.208032 0.736401 169 177 178
0.383845 0.208042 0.736201 112 120 121
0.381954 0.208052 0.736000 96 103 109
0.380063 0.208061 0.735800 100 107 113
0.378172 0.208071 0.735599 106 111 116
0.376281 0.208080 0.735399 111 116 121
0.374390 0.208090 0.735198 112 115 118
0.372220 0.207186 0.734549 123 126 129
0.370331 0.207195 0.734349 167 167 167
0.368717 0.208119 0.734597 179 179 179
0.087057 0.208639 0.704319 129 135 137
0.085169 0.208649 0.704119 113 119 121
0.083280 0.208658 0.703919 113 118 123
0.081392 0.208668 0.703718 118 123 128
0.387733 0.208343 0.738854 162 165 166
0.385839 0.208353 0.738653 109 116 120
0.383651 0.207449 0.738000 97 104 108
0.381760 0.207459 0.737799 103 110 114
0.379869 0.207468 0.737599 105 112 116
0.377978 0.207478 0.737398 108 114 116
0.376087 0.207487 0.737198 108 114 116
0.374196 0.207497 0.736997 138 138 140
0.372305 0.207507 0.736797 178 178 180
0.086864 0.208047 0.706116 135 138 141
0.084975 0.208057 0.705916 114 117 120
0.083087 0.208066 0.705715 116 119 122
0.081080 0.208991 0.705924 112 115 118
0.389433 0.207739 0.740856 147 150 153
0.387539 0.207749 0.740656 112 115 118
0.385645 0.207759 0.740455 97 105 106
0.383458 0.206856 0.739799 102 110 111
0.381567 0.206866 0.739599 107 115 116
0.379676 0.206875 0.739398 106 114 115
0.377785 0.206885 0.739198 117 117 117
0.375893 0.206895 0.738997 157 157 157
0.374002 0.206904 0.738797 179 179 181
0.086559 0.208369 0.708325 144 144 146
0.084668 0.208379 0.708124 114 114 116
0.082777 0.208389 0.707924 121 121 125
0.080767 0.209313 0.708135 111 111 115
0.078874 0.209322 0.707934 176 175 177
0.391436 0.208048 0.743318 133 136 139
0.389540 0.208057 0.743117 108 111 114
0.387345 0.207155 0.742457 105 108 111
0.385451 0.207165 0.742257 104 110 112
0.383558 0.207175 0.742056 106 112 114
0.381373 0.206273 0.741398 109 112 111
0.379482 0.206282 0.741197 115 118 117
0.377591 0.206292 0.740997 165 165 165
0.375983 0.207213 0.741253 179 179 179
0.086254 0.208690 0.710539 157 157 157
0.084361 0.208700 0.710338 114 114 114
0.082467 0.208709 0.710137 123 123 123
0.080454 0.209633 0.710350 114 114 114
0.078558 0.209642 0.710149 170 169 171
0.393751 0.209265 0.746246 129 131 137
0.391546 0.208364 0.745583 101 103 109
0.389346 0.207463 0.744921 106 109 112
0.387450 0.207472 0.744720 108 111 114
0.385257 0.206571 0.744058 114 114 116
0.383364 0.206581 0.743857 111 111 113
0.381179 0.205680 0.743197 121 121 121
0.379288 0.205689 0.742996 168 168 168
0.377683 0.206610 0.743255 182 181 181
0.085949 0.209009 0.712757 169 168 168
0.084052 0.209019 0.712556 115 114 114
0.082156 0.209028 0.712355 124 124 124
0.080140 0.209951 0.712571 114 114 114
0.078120 0.210874 0.712785 156 155 157
0.397670 0.209559 0.748922 172 177 182
0.395457 0.208659 0.748256 117 122 127
0.393556 0.208669 0.748055 98 103 108
0.391655 0.208678 0.747853 100 105 110
0.389452 0.207778 0.747188 109 112 115
0.387255 0.206878 0.746524 110 113 116
0.385063 0.205977 0.745860 110 110 112
0.383170 0.205987 0.745659 135 135 137
0.381276 0.205997 0.745458 176 175 175
0.085642 0.209327 0.714981 182 181 181
0.083744 0.209336 0.714780 115 114 114
0.081845 0.209346 0.714578 118 118 120
0.079826 0.210268 0.714796 112 112 114
0.077925 0.210277 0.714594 146 146 148
0.399692 0.209861 0.751403 165 171 173
0.397786 0.209871 0.751201 110 117 123
0.395879 0.209881 0.750998 96 103 109
0.393667 0.208981 0.750330 102 110 111
0.391460 0.208082 0.749662 103 111 112
0.389558 0.208092 0.749460 110 113 114
0.387657 0.208101 0.749259 106 109 110
0.385165 0.206293 0.748127 142 142 142
0.383268 0.206302 0.747926 180 180 180
0.085336 0.209642 0.717210 187 186 186
0.083434 0.209652 0.717008 116 115 115
0.081533 0.209662 0.716807 119 122 125
0.079512 0.210583 0.717026 109 112 115
0.077485 0.211504 0.717245 133 136 137
0.401719 0.210162 0.753889 163 168 175
0.399810 0.210172 0.753686 108 113 120
0.397590 0.209273 0.753014 96 103 109
0.395684 0.209283 0.752812 102 109 115
0.393777 0.209293 0.752610 108 111 114
0.391871 0.209303 0.752408 114 117 120
0.389664 0.208404 0.751738 113 116 115
0.387462 0.207505 0.751068 144 147 146
0.385561 0.207515 0.750866 182 182 182
0.085028 0.209957 0.719443 188 187 187
0.081103 0.210887 0.719463 121 121 123
0.079196 0.210896 0.719261 112 112 114
0.077290 0.210906 0.719059 131 134 135
0.403751 0.210461 0.756380 162 167 172
0.401839 0.210471 0.756177 107 112 117
0.399928 0.210481 0.755975 101 106 111
0.398016 0.210490 0.755772 100 105 110
0.396104 0.210500 0.755569 105 110 115
0.393887 0.209602 0.754895 114 114 116
0.391978 0.209612 0.754693 118 118 120
0.389769 0.208714 0.754020 164 165 161
0.387862 0.208724 0.753818 179 180 176
0.084721 0.210269 0.721682 184 183 183
0.082814 0.210279 0.721479 132 131 131
0.080907 0.210289 0.721277 121 124 125
0.079001 0.210298 0.721075 110 113 114
0.076971 0.211218 0.721299 128 131 132
0.405787 0.210759 0.758877 150 157 161
0.403873 0.210768 0.758674 105 112 116
0.401959 0.210778 0.758471 101 106 111
0.400044 0.210788 0.758268 107 112 117
0.397820 0.209891 0.757591 110 113 116
0.395908 0.209901 0.757388 109 112 115
0.393997 0.209911 0.757185 125 125 125
0.392085 0.209920 0.756983 172 172 172
0.390173 0.209930 0.756780 181 180 180
0.082503 0.210590 0.723723 136 135 135
0.080476 0.211509 0.723949 120 123 126
0.078564 0.211518 0.723746 114 117 120
0.076652 0.211528 0.723544 123 126 127
0.407828 0.211054 0.761379 153 161 162
0.405911 0.211064 0.761176 104 111 115
0.403995 0.211074 0.760973 98 105 109
0.402078 0.211084 0.760770 107 112 117
0.400161 0.211093 0.760566 110 115 120
0.398244 0.211103 0.760363 107 110 111
0.396020 0.210207 0.759683 117 120 121
0.394105 0.210217 0.759480 176 176 176
0.082192 0.210899 0.725971 147 146 146
0.080280 0.210909 0.725768 114 117 118
0.078368 0.210919 0.725565 116 119 120
0.076333 0.211837 0.725793 120 123 124
0.409874 0.211349 0.763887 146 153 157
0.407954 0.211358 0.763683 103 110 114
0.406035 0.211368 0.763480 100 107 111
0.404115 0.211378 0.763276 103 110 114
0.402196 0.211388 0.763073 112 115 118
0.399964 0.210492 0.762390 110 113 116
0.398047 0.210502 0.762187 122 122 122
0.396131 0.210512 0.761984 175 175 175
0.081996 0.210300 0.727789 153 152 152
0.079965 0.211217 0.728020 109 109 111
0.077930 0.212134 0.728251 118 118 120
0.076013 0.212144 0.728048 116 116 118
0.413516 0.210727 0.766120 182 190 191
0.411597 0.210737 0.765917 159 167 168
0.409677 0.210747 0.765713 102 110 111
0.407758 0.210757 0.765510 100 108 109
0.405838 0.210766 0.765306 104 110 112
0.403919 0.210776 0.765103 112 118 120
0.401999 0.210786 0.764899 114 114 116
0.400080 0.210796 0.764696 125 125 127
0.398160 0.210805 0.764492 173 173 173
0.081684 0.210607 0.730045 156 155 155
0.079650 0.211523 0.730278 110 110 112
0.077734 0.211533 0.730075 118 118 120
0.075693 0.212449 0.730307 112 112 114
0.073773 0.212459 0.730104 160 160 162
0.413319 0.210125 0.767946 156 164 163
0.411400 0.210135 0.767743 102 110 109
0.409481 0.210145 0.767539 98 106 105
0.407561 0.210155 0.767336 104 112 111
0.405642 0.210164 0.767132 113 116 119
0.403722 0.210174 0.766929 114 117 120
0.401803 0.210184 0.766725 128 128 130
0.399883 0.210194 0.766522 178 178 180
0.081371 0.210912 0.732305 161 161 157
0.079335 0.211828 0.732540 106 109 110
0.077415 0.211837 0.732337 117 120 121
0.075496 0.211847 0.732133 114 114 114
0.073450 0.212763 0.732368 153 153 153
0.415042 0.209514 0.769976 157 165 164
0.413123 0.209523 0.769772 102 110 109
0.411203 0.209533 0.769569 98 106 105
0.409608 0.210446 0.769854 106 112 112
0.407364 0.209553 0.769162 106 112 112
0.405445 0.209563 0.768958 110 110 110
0.403526 0.209572 0.768755 126 126 126
0.401920 0.210485 0.769039 181 181 181
0.081058 0.211216 0.734570 166 166 162
0.079019 0.212131 0.734808 105 108 109
0.077097 0.212140 0.734604 121 124 125
0.075175 0.212150 0.734400 112 112 112
0.073125 0.213065 0.734637 150 150 150
0.416765 0.208902 0.772005 162 170 171
0.414846 0.208912 0.771802 102 110 111
0.413255 0.209823 0.772090 98 106 107
0.411333 0.209833 0.771886 103 111 112
0.409411 0.209843 0.771682 109 112 113
0.407489 0.209853 0.771478 110 113 114
0.405248 0.208961 0.770784 128 128 128
0.403329 0.208970 0.770581 178 178 178
0.080744 0.211518 0.736840 174 174 170
0.078822 0.211528 0.736636 109 112 111
0.076900 0.211538 0.736432 114 117 116
0.074853 0.212452 0.736672 110 110 110
0.072928 0.212461 0.736468 145 145 145
0.418488 0.208290 0.774035 169 175 175
0.416568 0.208300 0.773831 102 110 111
0.414980 0.209211 0.774122 97 105 106
0.413058 0.209221 0.773918 103 111 112
0.411136 0.209230 0.773714 104 112 113
0.409214 0.209240 0.773511 107 110 111
0.407292 0.209250 0.773307 122 125 126
0.405370 0.209260 0.773103 179 178 178
0.080429 0.211819 0.739115 179 179 175
0.078505 0.211828 0.738911 114 114 114
0.076580 0.211838 0.738707 117 117 117
0.074656 0.211848 0.738503 112 112 112
0.072731 0.211858 0.738299 136 136 136
0.420211 0.207679 0.776065 172 177 182
0.418628 0.208589 0.776358 107 112 117
0.416705 0.208598 0.776154 98 103 108
0.414783 0.208608 0.775951 105 110 115
0.412861 0.208618 0.775747 107 112 117
0.410939 0.208628 0.775543 111 116 121
0.409017 0.208638 0.775339 131 131 133
0.407095 0.208647 0.775136 176 176 178
0.080232 0.211215 0.740946 182 182 182
0.078308 0.211225 0.740742 118 117 117
0.076383 0.211235 0.740538 117 116 116
0.074458 0.211245 0.740334 112 112 112
0.072534 0.211254 0.740130 128 128 128
0.422275 0.207966 0.778594 171 174 175
0.420353 0.207976 0.778390 113 118 123
0.418431 0.207986 0.778187 97 102 107
0.416509 0.207996 0.777983 104 109 114
0.414587 0.208005 0.777779 110 115 120
0.412665 0.208015 0.777575 110 113 116
0.410742 0.208025 0.777372 121 124 127
0.408820 0.208035 0.777168 172 171 173
0.080035 0.210612 0.742777 180 180 180
0.078111 0.210621 0.742573 123 122 124
0.076186 0.210631 0.742369 115 114 116
0.074261 0.210641 0.742165 110 113 114
0.072337 0.210651 0.741961 112 115 116
0.424000 0.207354 0.780626 174 180 182
0.422078 0.207364 0.780423 112 118 120
0.420494 0.208272 0.780721 98 104 106
0.418570 0.208282 0.780517 104 110 112
0.416312 0.207393 0.779811 113 116 117
0.414390 0.207403 0.779608 113 116 117
0.412468 0.207413 0.779404 118 118 120
0.410546 0.207422 0.779200 172 172 174
0.079838 0.210008 0.744608 180 180 180
0.077913 0.210018 0.744404 126 125 127
0.075989 0.210028 0.744200 115 114 116
0.074064 0.210038 0.743996 110 112 118
0.072011 0.210948 0.744245 112 114 120
0.426071 0.207639 0.783164 183 186 187
0.424146 0.207649 0.782960 119 125 127
0.422222 0.207658 0.782756 94 100 102
0.420297 0.207668 0.782552 104 110 110
0.418372 0.207678 0.782348 110 116 116
0.416448 0.207688 0.782144 110 113 114
0.414523 0.207698 0.781940 115 118 119
0.412271 0.206810 0.781232 169 169 171
0.077595 0.210314 0.746691 122 122 126
0.075668 0.210324 0.746487 115 115 119
0.073741 0.210334 0.746282 112 114 120
0.071814 0.210344 0.746078 113 115 121
0.427798 0.207026 0.785199 181 184 187
0.425874 0.207035 0.784995 122 125 128
0.423949 0.207045 0.784791 93 99 101
0.422024 0.207055 0.784587 101 107 109
0.420100 0.207065 0.784383 111 117 117
0.418175 0.207075 0.784179 108 114 114
0.416251 0.207084 0.783975 126 126 128
0.413996 0.206197 0.783265 172 172 174
0.077276 0.210609 0.748983 130 133 136
0.075470 0.209720 0.748320 112 115 118
0.073543 0.209730 0.748116 111 116 121
0.071616 0.209740 0.747912 107 112 117
0.429526 0.206412 0.787234 180 183 184
0.427601 0.206422 0.787030 121 126 131
0.425676 0.206432 0.786826 94 99 104
0.423752 0.206442 0.786622 104 110 112
0.421827 0.206452 0.786418 106 112 114
0.419903 0.206461 0.786214 110 113 114
0.417978 0.206471 0.786010 120 123 124
0.416053 0.206481 0.785806 176 176 176
0.077079 0.210004 0.750819 144 147 150
0.075149 0.210014 0.750614 112 115 118
0.073219 0.210024 0.750410 114 116 122
0.071289 0.210034 0.750205 107 109 115
0.431253 0.205799 0.789269 178 180 186
0.429328 0.205809 0.789065 122 124 130
0.427404 0.205819 0.788861 98 103 108
0.425479 0.205828 0.788657 105 110 115
0.423555 0.205838 0.788453 108 114 116
0.421630 0.205848 0.788249 107 113 115
0.419705 0.205858 0.788045 122 122 122
0.417781 0.205868 0.787841 171 171 171
0.076759 0.210297 0.753118 152 155 158
0.074827 0.210306 0.752913 106 109 112
0.073021 0.209419 0.752246 113 115 121
0.071092 0.209429 0.752041 106 108 114
0.433336 0.206080 0.791821 176 182 182
0.431408 0.206090 0.791616 115 120 125
0.429481 0.206100 0.791412 96 101 106
0.427554 0.206109 0.791208 107 109 115
0.425282 0.205225 0.790488 112 114 120
0.423357 0.205235 0.790284 118 118 120
0.421433 0.205245 0.790080 121 121 123
0.419508 0.205254 0.789876 172 172 172
0.076439 0.210587 0.755422 156 159 162
0.074504 0.210597 0.755217 103 106 109
0.072696 0.209710 0.754547 113 116 119
0.070764 0.209720 0.754342 103 106 109
0.435423 0.206359 0.794378 168 176 177
0.433493 0.206369 0.794173 107 115 116
0.431211 0.205485 0.793450 98 100 106
0.429284 0.205495 0.793246 107 109 115
0.427357 0.205505 0.793041 110 112 118
0.425429 0.205515 0.792837 106 108 114
0.423502 0.205525 0.792633 128 128 130
0.421236 0.204641 0.791911 176 176 178
0.076241 0.209981 0.757263 157 160 163
0.074306 0.209991 0.757058 103 106 109
0.072371 0.210000 0.756853 112 115 118
0.070436 0.210010 0.756648 102 105 108
0.437155 0.205744 0.796418 166 174 173
0.435225 0.205754 0.796214 104 111 117
0.433295 0.205764 0.796009 89 96 102
0.431366 0.205774 0.795805 105 110 115
0.429086 0.204891 0.795079 110 115 120
0.427159 0.204901 0.794875 111 110 114
0.425232 0.204911 0.794671 126 125 129
0.423305 0.204920 0.794466 181 180 180
0.075797 0.211164 0.760045 162 165 168
0.073982 0.210279 0.759369 102 105 108
0.072045 0.210289 0.759164 112 115 118
0.070107 0.210299 0.758958 102 105 108
0.439249 0.206021 0.798983 156 163 167
0.437317 0.206031 0.798778 104 111 115
0.435384 0.206041 0.798574 97 104 110
0.433452 0.206051 0.798369 99 106 112
0.431168 0.205169 0.797640 114 116 122
0.429238 0.205179 0.797436 112 114 120
0.426962 0.204297 0.796708 126 125 127
0.425035 0.204306 0.796504 175 174 176
0.075598 0.210556 0.761891 160 163 166
0.073658 0.210566 0.761685 106 109 112
0.071718 0.210576 0.761480 112 115 118
0.069778 0.210585 0.761274 100 103 106
0.441348 0.206297 0.801554 154 161 165
0.439413 0.206306 0.801349 96 106 111
0.437478 0.206316 0.801144 95 105 110
0.435186 0.205435 0.800412 104 114 119
0.433254 0.205445 0.800207 103 113 118
0.430970 0.204564 0.799476 110 113 116
0.429040 0.204574 0.799272 120 123 126
0.427111 0.204583 0.799067 176 175 177
0.075277 0.210841 0.764212 160 163 166
0.073334 0.210851 0.764006 107 110 113
0.071391 0.210861 0.763800 112 115 118
0.069449 0.210871 0.763594 100 103 106
0.067506 0.210881 0.763389 148 151 152
0.443085 0.205680 0.803600 137 147 152
0.441150 0.205690 0.803395 96 106 111
0.439215 0.205700 0.803189 96 106 111
0.437280 0.205709 0.802984 101 111 116
0.435345 0.205719 0.802779 106 111 116
0.433410 0.205729 0.802574 103 108 113
0.431124 0.204849 0.801841 139 139 141
0.074954 0.211124 0.766539 160 163 164
0.073009 0.211134 0.766332 105 108 109
0.071064 0.211144 0.766126 110 113 114
0.068987 0.212047 0.766397 100 103 104
0.067039 0.212057 0.766191 149 152 151
0.444821 0.205063 0.805646 134 139 144
0.442886 0.205073 0.805441 91 101 104
0.441315 0.205972 0.805768 98 108 111
0.439378 0.205982 0.805562 104 111 115
0.437440 0.205992 0.805357 106 113 117
0.435147 0.205113 0.804620 103 106 107
0.433212 0.205122 0.804415 142 145 146
0.074631 0.211406 0.768870 160 163 166
0.072683 0.211416 0.768663 105 108 111
0.070735 0.211426 0.768457 109 112 115
0.068788 0.211436 0.768250 101 104 107
0.446929 0.205335 0.808227 119 124 129
0.444992 0.205345 0.808022 99 104 109
0.443421 0.206244 0.808351 96 104 105
0.441481 0.206253 0.808146 105 113 114
0.439540 0.206263 0.807940 103 109 109
0.437600 0.206273 0.807734 104 110 110
0.435660 0.206283 0.807528 152 152 152
0.074432 0.210796 0.770723 159 161 167
0.072484 0.210806 0.770516 105 107 113
0.070407 0.211707 0.770792 110 115 120
0.068456 0.211716 0.770585 100 105 110
0.450982 0.205596 0.811020 178 180 186
0.449042 0.205606 0.810814 121 123 129
0.447473 0.206503 0.811146 98 104 106
0.445531 0.206513 0.810940 98 104 106
0.443588 0.206523 0.810734 105 111 111
0.441645 0.206533 0.810528 104 110 110
0.440063 0.207431 0.810859 107 110 109
0.438118 0.207440 0.810653 148 151 150
0.074108 0.211075 0.773061 160 163 166
0.072157 0.211085 0.772854 103 106 109
0.070207 0.211095 0.772648 108 113 118
0.068257 0.211105 0.772441 98 103 108
0.066306 0.211115 0.772234 149 152 151
0.451912 0.207648 0.814488 113 118 123
0.449964 0.207658 0.814282 98 103 108
0.448016 0.207668 0.814075 104 110 112
0.445700 0.206791 0.813329 107 113 115
0.443755 0.206801 0.813122 105 111 109
0.442172 0.207698 0.813456 110 116 114
0.440225 0.207708 0.813249 165 165 165
0.073908 0.210463 0.774917 159 161 167
0.071958 0.210473 0.774710 101 103 109
0.070007 0.210483 0.774503 113 115 121
0.068057 0.210493 0.774297 100 102 108
0.065971 0.211393 0.774577 149 152 153
0.455989 0.207903 0.817298 165 170 179
0.454038 0.207913 0.817091 106 111 120
0.451712 0.207037 0.816341 98 105 109
0.449764 0.207047 0.816135 104 111 115
0.447816 0.207057 0.815928 108 114 116
0.445868 0.207067 0.815722 105 111 113
0.443921 0.207077 0.815515 115 118 117
0.441973 0.207087 0.815309 166 169 168
0.073583 0.210741 0.777263 161 160 167
0.071758 0.209862 0.776566 104 103 110
0.069807 0.209872 0.776359 110 112 118
0.067724 0.210770 0.776642 103 105 111
0.065771 0.210780 0.776435 151 151 155
0.458506 0.209052 0.820454 164 171 175
0.456169 0.208177 0.819700 106 112 123
0.453838 0.207302 0.818947 99 105 116
0.451888 0.207312 0.818740 104 111 117
0.449937 0.207322 0.818533 106 113 119
0.447987 0.207332 0.818327 106 112 112
0.445669 0.206456 0.817575 121 127 127
0.443721 0.206466 0.817368 171 171 171
0.073383 0.210128 0.779121 160 160 164
0.071430 0.210138 0.778914 104 104 108
0.069607 0.209260 0.778214 112 111 118
0.067524 0.210158 0.778500 102 101 108
0.460261 0.208429 0.822521 166 173 179
0.458305 0.208439 0.822314 107 114 120
0.456350 0.208449 0.822107 98 104 115
0.454016 0.207575 0.821351 104 110 121
0.452063 0.207585 0.821144 104 111 117
0.450110 0.207595 0.820937 105 112 118
0.447787 0.206720 0.820182 122 125 126
0.445837 0.206730 0.819975 171 174 175
0.073058 0.210403 0.781474 160 160 164
0.071102 0.210413 0.781267 104 104 108
0.069277 0.209536 0.780565 111 110 117
0.067324 0.209546 0.780358 103 102 109
0.460446 0.208700 0.824934 106 111 120
0.458488 0.208710 0.824726 96 101 110
0.456149 0.207836 0.823967 106 111 120
0.454194 0.207846 0.823760 106 111 120
0.452238 0.207856 0.823553 103 105 111
0.449910 0.206982 0.822795 134 136 142
0.447957 0.206992 0.822588 181 181 183
0.072858 0.209790 0.783334 159 159 163
0.070902 0.209800 0.783127 103 103 107
0.068946 0.209810 0.782920 110 109 116
0.066991 0.209819 0.782713 105 104 111
0.462591 0.208958 0.827559 126 132 134
0.460245 0.208086 0.826797 98 100 108
0.458287 0.208096 0.826589 106 108 116
0.456329 0.208106 0.826382 115 117 125
0.454371 0.208116 0.826174 105 107 115
0.452038 0.207243 0.825413 141 140 144
0.450082 0.207253 0.825206 180 179 183
0.072531 0.210062 0.785695 151 151 153
0.070573 0.210072 0.785487 102 102 104
0.068746 0.209196 0.784780 111 110 117
0.066790 0.209206 0.784573 108 107 114
0.464351 0.208334 0.829632 169 175 177
0.462390 0.208344 0.829424 100 106 108
0.460429 0.208354 0.829216 111 110 117
0.458468 0.208364 0.829008 114 113 120
0.456508 0.208373 0.828801 110 109 113
0.454547 0.208384 0.828593 139 138 142
0.072205 0.210332 0.788061 147 147 151
0.070373 0.209458 0.787350 105 105 109
0.068414 0.209468 0.787143 108 110 116
0.066456 0.209478 0.786935 105 107 113
0.464539 0.208600 0.832057 131 137 139
0.462576 0.208610 0.831849 100 106 108
0.460613 0.208620 0.831641 111 111 115
0.458650 0.208630 0.831433 108 108 112
0.456686 0.208640 0.831225 149 145 148
0.072004 0.209718 0.789926 135 135 139
0.070043 0.209728 0.789718 110 110 114
0.068082 0.209738 0.789510 107 109 115
0.066256 0.208864 0.788798 105 107 113
0.464728 0.208865 0.834487 133 136 139
0.462762 0.208875 0.834279 115 118 121
0.460412 0.208004 0.833509 118 118 120
0.458448 0.208014 0.833301 150 150 152
0.071676 0.209986 0.792299 121 121 123
0.069713 0.209996 0.792091 109 109 111
0.067881 0.209123 0.791376 108 108 112
0.065921 0.209133 0.791168 114 114 118
0.071475 0.209370 0.794167 116 116 118
0.069512 0.209380 0.793958 110 110 112
0.067549 0.209390 0.793750 108 108 110
0.065585 0.209400 0.793542 129 129 131
0.071147 0.209636 0.796547 111 111 113
0.069181 0.209646 0.796338 111 111 113
0.067347 0.208774 0.795618 109 108 108
0.065384 0.208784 0.795410 141 140 140
0.072787 0.209890 0.799141 166 166 166
0.070945 0.209019 0.798417 107 107 111
0.068980 0.209029 0.798209 109 109 113
0.067014 0.209039 0.798000 105 104 104
0.065048 0.209049 0.797792 154 153 153
0.072585 0.209273 0.801013 157 157 157
0.070616 0.209283 0.800805 103 106 109
0.068648 0.209293 0.800596 110 113 116
0.066679 0.209303 0.800387 103 103 105
0.072258 0.209534 0.803406 146 146 146
0.070287 0.209544 0.803197 100 105 110
0.068316 0.209554 0.802988 107 112 117
0.066478 0.208686 0.802260 109 112 113
0.071930 0.209794 0.805804 126 126 128
0.069957 0.209804 0.805595 104 109 114
0.068114 0.208936 0.804864 100 105 110
0.066143 0.208946 0.804655 119 122 123
0.071602 0.210053 0.808206 133 133 135
0.069626 0.210063 0.807997 102 105 108
0.067781 0.209196 0.807263 102 105 108
0.065807 0.209206 0.807054 129 132 133
0.069295 0.210320 0.810404 124 130 132
0.067316 0.210330 0.810194 129 135 137
