ply
format ascii 1.0
element vertex 1791
property float x
property float y
property float z
property uchar red
property uchar green
property uchar blue
end_header
0.263491 0.075813 0.488809 117 170 88
0.261665 0.074150 0.488238 118 166 89
0.260212 0.074434 0.487974 109 157 80
0.263021 0.074769 0.490135 119 173 88
0.261382 0.074079 0.489715 116 170 85
0.259748 0.073389 0.489296 115 169 84
0.258119 0.072697 0.488877 121 171 92
0.256672 0.072980 0.488614 116 166 87
0.255225 0.073262 0.488350 107 153 88
0.253606 0.072569 0.487934 78 124 59
0.262738 0.074698 0.491614 138 184 106
0.261099 0.074008 0.491192 133 182 96
0.259466 0.073318 0.490770 127 176 90
0.257837 0.072627 0.490349 125 174 88
0.256214 0.071934 0.489929 125 174 88
0.254596 0.071241 0.489510 124 174 95
0.253153 0.071522 0.489247 123 173 94
0.251542 0.070828 0.488829 111 158 96
0.250103 0.071109 0.488567 89 136 74
0.248663 0.071390 0.488305 63 101 57
0.262455 0.074626 0.493093 101 132 77
0.260817 0.073937 0.492668 122 163 89
0.259003 0.072273 0.492084 140 181 107
0.257378 0.071581 0.491661 137 184 101
0.255933 0.071863 0.491398 135 182 99
0.254315 0.071170 0.490976 131 180 96
0.252702 0.070476 0.490555 127 176 92
0.251262 0.070757 0.490293 124 177 99
0.249822 0.071038 0.490031 124 177 99
0.248383 0.071319 0.489769 109 159 96
0.246782 0.070623 0.489351 86 136 73
0.245345 0.070903 0.489089 59 99 57
0.263626 0.074271 0.494837 39 56 28
0.262171 0.074555 0.494573 36 53 25
0.260534 0.073866 0.494145 35 59 16
0.258721 0.072202 0.493555 62 86 43
0.257096 0.071511 0.493130 103 139 76
0.255476 0.070818 0.492705 133 169 106
0.254034 0.071100 0.492442 137 183 103
0.252592 0.071381 0.492180 136 182 102
0.250982 0.070687 0.491757 129 179 98
0.249542 0.070968 0.491495 125 175 94
0.248102 0.071249 0.491233 122 175 97
0.246502 0.070552 0.490812 121 174 96
0.245065 0.070833 0.490550 110 160 97
0.243473 0.070135 0.490131 84 134 71
0.307889 0.138118 0.513958 93 116 80
0.258440 0.072131 0.495027 44 58 36
0.256815 0.071440 0.494599 36 59 25
0.255196 0.070747 0.494171 43 66 32
0.253581 0.070054 0.493745 75 110 54
0.252141 0.070335 0.493483 110 145 89
0.250702 0.070616 0.493221 137 183 107
0.249262 0.070897 0.492959 136 182 106
0.247660 0.070201 0.492535 129 182 102
0.246223 0.070482 0.492273 125 178 98
0.244628 0.069784 0.491851 125 179 103
0.243194 0.070064 0.491589 128 182 106
0.241759 0.070344 0.491328 111 164 97
0.240324 0.070625 0.491067 92 145 78
0.306868 0.135150 0.515088 132 159 112
0.302237 0.130004 0.513434 121 164 87
0.253301 0.069984 0.495209 41 60 30
0.251861 0.070264 0.494947 43 62 32
0.250421 0.070546 0.494685 79 114 58
0.248818 0.069850 0.494258 121 156 100
0.247380 0.070131 0.493996 139 184 111
0.245943 0.070411 0.493735 135 180 107
0.244349 0.069714 0.493309 126 180 104
0.242914 0.069994 0.493048 126 180 104
0.241480 0.070274 0.492787 127 184 109
0.239896 0.069575 0.492364 126 183 108
0.238463 0.069855 0.492103 111 163 101
0.236887 0.069154 0.491681 78 130 68
0.235316 0.068452 0.491260 44 76 37
0.309124 0.138600 0.517761 78 109 56
0.308188 0.141807 0.518004 136 167 114
0.306080 0.140203 0.517345 121 167 89
0.304211 0.139559 0.516867 130 176 98
0.249975 0.069499 0.495981 39 57 24
0.248538 0.069780 0.495719 46 64 31
0.247100 0.070060 0.495458 73 104 49
0.245505 0.069364 0.495029 132 163 108
0.244070 0.069644 0.494768 143 190 116
0.242635 0.069924 0.494507 136 183 109
0.241200 0.070204 0.494246 126 178 103
0.239617 0.069505 0.493820 127 179 104
0.238185 0.069784 0.493559 131 185 111
0.236609 0.069084 0.493135 123 177 103
0.234897 0.067402 0.492548 111 156 98
0.309277 0.140444 0.519793 106 141 87
0.308801 0.145576 0.520408 127 162 108
0.306404 0.150075 0.520533 130 176 100
0.305191 0.152328 0.520592 48 81 35
0.246660 0.069014 0.496749 45 63 30
0.245225 0.069294 0.496488 57 75 42
0.243791 0.069574 0.496227 87 120 64
0.242356 0.069854 0.495966 134 167 111
0.240770 0.069155 0.495537 140 187 113
0.239338 0.069435 0.495276 135 182 108
0.237760 0.068735 0.494849 127 180 102
0.236330 0.069014 0.494588 129 182 104
0.234619 0.067332 0.493996 132 183 113
0.233056 0.066629 0.493571 122 173 103
0.309663 0.143249 0.522020 127 162 104
0.307515 0.148706 0.522344 129 175 99
0.306536 0.151920 0.522594 117 163 87
0.305992 0.157064 0.523210 22 53 11
0.306092 0.165106 0.524372 31 62 20
0.243511 0.069503 0.497686 38 57 29
0.242076 0.069783 0.497425 51 70 42
0.240492 0.069085 0.496993 100 135 81
0.239059 0.069365 0.496732 136 171 117
0.237482 0.068665 0.496302 138 186 109
0.235909 0.067964 0.495873 134 182 105
0.234342 0.067262 0.495445 126 179 101
0.232779 0.066560 0.495018 130 183 105
0.231222 0.065856 0.494591 129 182 113
0.229802 0.066133 0.494333 115 168 99
0.311230 0.143807 0.524187 45 62 36
0.308621 0.147338 0.524149 123 162 100
0.307881 0.151512 0.524597 135 180 107
0.307120 0.155690 0.525040 94 139 66
0.240213 0.069015 0.498449 35 57 26
0.238780 0.069294 0.498189 59 81 50
0.237204 0.068595 0.497756 111 149 90
0.235632 0.067894 0.497324 142 180 121
0.234065 0.067193 0.496893 138 188 111
0.232503 0.066490 0.496464 129 179 102
0.230946 0.065786 0.496035 128 183 104
0.229526 0.066064 0.495776 130 185 106
0.228106 0.066341 0.495518 124 177 108
0.226559 0.065635 0.495091 97 150 81
0.312566 0.150453 0.527207 54 71 43
0.310193 0.147894 0.526330 134 175 110
0.308994 0.150143 0.526408 125 166 101
0.308244 0.154318 0.526865 137 183 107
0.307700 0.159460 0.527507 70 116 40
0.238355 0.068246 0.499470 49 60 41
0.236925 0.068525 0.499210 38 64 24
0.235495 0.068804 0.498949 83 109 69
0.233787 0.067123 0.498342 116 160 96
0.232363 0.067401 0.498083 138 182 118
0.230804 0.066698 0.497651 130 182 107
0.229250 0.065994 0.497220 125 177 102
0.227830 0.066271 0.496961 130 184 108
0.226283 0.065566 0.496531 123 177 101
0.224866 0.065842 0.496273 107 157 94
0.223449 0.066119 0.496016 73 123 60
0.312477 0.151332 0.529099 72 89 59
0.310337 0.149735 0.528407 140 179 113
0.309132 0.151984 0.528490 132 171 105
0.308833 0.158085 0.529340 138 181 106
0.307824 0.161303 0.529609 61 104 29
0.235217 0.068734 0.500403 44 58 38
0.233649 0.068033 0.499967 42 71 30
0.232085 0.067331 0.499531 90 119 78
0.230660 0.067609 0.499272 131 179 112
0.229105 0.066906 0.498838 138 186 119
0.227554 0.066202 0.498405 123 180 103
0.226134 0.066479 0.498146 123 180 103
0.224590 0.065773 0.497714 120 177 102
0.223173 0.066050 0.497456 113 170 95
0.221756 0.066326 0.497198 97 147 88
0.312624 0.153171 0.531192 87 103 69
0.310246 0.150615 0.530299 141 178 108
0.309499 0.154788 0.530777 135 172 102
0.308961 0.159927 0.531446 138 180 108
0.232079 0.069222 0.501336 39 55 34
0.230383 0.067539 0.500721 63 96 54
0.228828 0.066836 0.500284 113 146 104
0.227405 0.067114 0.500025 136 187 117
0.225857 0.066409 0.499590 136 187 117
0.224315 0.065703 0.499155 128 186 106
0.222897 0.065980 0.498897 123 181 101
0.221362 0.065273 0.498464 123 180 105
0.219947 0.065549 0.498207 106 163 88
0.312768 0.155010 0.533296 89 106 69
0.310386 0.152455 0.532394 134 172 99
0.309863 0.157590 0.533079 140 178 105
0.308859 0.160806 0.533365 138 178 107
0.307615 0.163062 0.533451 47 87 16
0.228681 0.067748 0.501910 42 62 43
0.227256 0.068026 0.501650 83 122 71
0.225581 0.066340 0.501033 137 176 125
0.224161 0.066617 0.500775 137 190 112
0.222621 0.065911 0.500338 129 182 104
0.221087 0.065204 0.499903 124 179 98
0.219672 0.065480 0.499645 123 178 97
0.218257 0.065756 0.499388 122 173 105
0.310990 0.156217 0.534901 144 182 109
0.309995 0.159430 0.535196 143 181 108
0.308757 0.161685 0.535289 137 177 108
0.307509 0.163941 0.535379 41 81 12
0.226979 0.067956 0.503099 37 61 33
0.225430 0.067252 0.502658 69 93 65
0.223885 0.066547 0.502218 125 166 103
0.222346 0.065841 0.501779 146 187 124
0.220811 0.065134 0.501341 131 181 100
0.219396 0.065411 0.501084 128 178 97
0.217869 0.064702 0.500647 124 177 95
0.216457 0.064978 0.500390 118 171 89
0.215045 0.065254 0.500133 105 152 92
0.313285 0.159647 0.537738 102 119 78
0.311358 0.159017 0.537226 154 192 119
0.310124 0.161270 0.537324 147 185 112
0.308426 0.161601 0.537015 134 173 107
0.307402 0.164820 0.537312 37 76 10
0.223731 0.067460 0.503845 53 82 41
0.222070 0.065772 0.503220 96 125 84
0.220536 0.065065 0.502780 137 182 111
0.219121 0.065341 0.502522 134 179 108
0.217595 0.064633 0.502083 126 177 93
0.216182 0.064909 0.501826 125 176 92
0.214770 0.065184 0.501569 122 174 99
0.213254 0.064474 0.501131 115 167 92
0.211844 0.064749 0.500875 80 123 75
0.313189 0.160524 0.539668 96 113 74
0.311491 0.160856 0.539359 151 189 116
0.309794 0.161187 0.539050 151 189 116
0.308322 0.162480 0.538946 134 176 106
0.307294 0.165698 0.539251 39 81 11
0.221794 0.065702 0.504661 45 59 37
0.220260 0.064996 0.504218 67 99 48
0.218732 0.064288 0.503776 130 162 111
0.217320 0.064564 0.503519 141 189 112
0.215907 0.064840 0.503262 131 179 102
0.214495 0.065115 0.503005 122 175 95
0.212979 0.064405 0.502565 121 174 94
0.211570 0.064680 0.502308 117 168 102
0.210160 0.064955 0.502051 93 144 78
0.208654 0.064243 0.501613 41 76 36
0.312859 0.160441 0.541394 88 107 69
0.311161 0.160772 0.541085 141 181 110
0.309692 0.162065 0.540984 147 187 116
0.308217 0.163358 0.540882 134 176 106
0.305475 0.166910 0.540883 27 51 21
0.219985 0.064926 0.505657 44 63 33
0.218457 0.064219 0.505212 55 74 44
0.217045 0.064495 0.504955 112 151 89
0.215633 0.064770 0.504698 144 183 121
0.214115 0.064061 0.504255 135 185 108
0.212705 0.064336 0.503998 129 179 102
0.211194 0.063625 0.503556 122 176 100
0.209787 0.063900 0.503300 122 176 100
0.208284 0.063188 0.502860 107 152 92
0.206880 0.063462 0.502604 53 98 38
0.312994 0.162278 0.543544 85 103 68
0.311061 0.161650 0.543022 140 182 112
0.309361 0.161981 0.542713 146 188 118
0.308112 0.164236 0.542824 137 182 111
0.305363 0.167789 0.542831 25 49 19
0.216770 0.064425 0.506391 45 70 33
0.215358 0.064701 0.506133 92 117 80
0.213840 0.063992 0.505688 138 184 115
0.212431 0.064267 0.505431 140 186 117
0.210921 0.063556 0.504987 130 183 105
0.209513 0.063831 0.504731 125 178 100
0.208011 0.063119 0.504288 127 179 106
0.206606 0.063393 0.504032 104 156 83
0.205201 0.063667 0.503777 61 102 53
0.312663 0.162194 0.545275 73 92 62
0.310960 0.162527 0.544965 139 183 115
0.309257 0.162859 0.544655 148 192 124
0.307780 0.164153 0.544558 141 186 115
0.305029 0.167705 0.544573 23 47 15
0.214976 0.063648 0.507378 45 60 42
0.213566 0.063923 0.507121 71 105 56
0.212156 0.064198 0.506865 135 169 120
0.210647 0.063487 0.506418 143 193 114
0.209239 0.063762 0.506162 135 185 106
0.207737 0.063050 0.505716 125 178 96
0.206333 0.063324 0.505461 123 176 94
0.204928 0.063598 0.505205 111 159 94
0.203523 0.063872 0.504949 71 119 54
0.312563 0.163071 0.547223 56 75 47
0.310629 0.162443 0.546696 140 186 119
0.309153 0.163736 0.546602 147 193 126
0.305965 0.165364 0.546196 55 101 32
0.304915 0.168584 0.546529 25 50 15
0.211780 0.063144 0.508105 55 74 48
0.210273 0.062433 0.507656 117 161 95
0.208869 0.062707 0.507400 146 190 124
0.207464 0.062981 0.507145 138 192 107
0.206059 0.063255 0.506889 129 183 98
0.204655 0.063529 0.506633 120 174 98
0.203250 0.063804 0.506378 120 174 98
0.201845 0.064078 0.506122 86 135 79
0.313389 0.167785 0.550053 47 66 40
0.310755 0.164280 0.548865 142 188 123
0.309048 0.164613 0.548554 148 194 129
0.307340 0.164947 0.548243 144 190 121
0.305854 0.166242 0.548150 60 106 37
0.304581 0.168499 0.548273 23 48 13
0.210000 0.062364 0.509084 45 74 29
0.208595 0.062638 0.508829 106 135 90
0.207191 0.062912 0.508573 143 189 113
0.205695 0.062199 0.508123 148 194 118
0.204292 0.062473 0.507868 129 182 102
0.202890 0.062747 0.507613 125 178 98
0.201488 0.063020 0.507358 117 170 99
0.200167 0.064283 0.507294 95 148 77
0.313286 0.168661 0.552021 39 56 30
0.310880 0.166116 0.551044 139 183 119
0.308941 0.165490 0.550511 150 194 130
0.307231 0.165824 0.550200 147 194 122
0.305521 0.166158 0.549889 69 116 44
0.304248 0.168415 0.550017 20 45 10
0.208322 0.062569 0.510257 43 60 32
0.206824 0.061857 0.509804 96 131 73
0.205422 0.062131 0.509549 147 182 124
0.204019 0.062404 0.509294 143 193 116
0.202617 0.062678 0.509039 134 184 107
0.201215 0.062952 0.508783 121 176 97
0.199813 0.063225 0.508528 111 166 87
0.198411 0.063499 0.508273 108 153 93
0.197084 0.064763 0.508211 59 104 44
0.312951 0.168576 0.553770 32 49 23
0.310775 0.166992 0.553009 132 171 109
0.308834 0.166367 0.552474 152 191 129
0.306898 0.165740 0.551939 148 195 123
0.305629 0.167997 0.552073 80 127 55
0.304132 0.169293 0.551983 15 43 7
0.206551 0.061788 0.511230 43 61 26
0.205149 0.062062 0.510975 86 104 69
0.203746 0.062336 0.510720 138 179 112
0.202344 0.062609 0.510464 150 191 124
0.200942 0.062883 0.510209 141 194 114
0.199540 0.063157 0.509954 124 177 97
0.198138 0.063430 0.509699 124 173 101
0.196811 0.064694 0.509639 112 161 89
0.195406 0.064968 0.509384 69 105 58
0.312846 0.169451 0.555746 33 49 26
0.310668 0.167868 0.554980 122 158 97
0.308725 0.167243 0.554441 153 189 128
0.307010 0.167578 0.554129 148 195 123
0.305295 0.167913 0.553817 102 149 77
0.304015 0.170171 0.553954 10 40 3
0.204876 0.061993 0.512400 49 60 39
0.203474 0.062267 0.512145 55 82 35
0.202071 0.062541 0.511890 131 158 111
0.200669 0.062814 0.511635 150 197 123
0.199267 0.063088 0.511379 148 195 121
0.197942 0.064351 0.511323 136 186 107
0.196463 0.063635 0.510869 121 171 92
0.195133 0.064899 0.510812 116 164 99
0.193728 0.065173 0.510556 71 119 54
0.310561 0.168744 0.556955 112 145 87
0.308616 0.168119 0.556414 151 184 126
0.306898 0.168454 0.556101 149 194 123
0.305181 0.168790 0.555788 119 164 93
0.303680 0.170087 0.555703 15 47 10
0.200396 0.062746 0.513060 116 154 95
0.198994 0.063019 0.512805 155 193 134
0.197669 0.064282 0.512752 148 198 119
0.196264 0.064556 0.512496 129 179 100
0.194859 0.064830 0.512240 121 170 96
0.193385 0.064114 0.511784 116 165 91
0.192050 0.065379 0.511729 74 113 60
0.310453 0.169619 0.558936 94 127 71
0.308506 0.168995 0.558391 151 184 128
0.306786 0.169331 0.558078 148 193 122
0.305066 0.169666 0.557765 129 174 103
0.303562 0.170964 0.557682 22 54 15
0.302053 0.172262 0.557597 26 58 19
0.200205 0.063665 0.514691 48 74 34
0.198800 0.063939 0.514436 112 138 98
0.197395 0.064213 0.514180 151 196 123
0.195991 0.064487 0.513924 148 193 120
0.194586 0.064761 0.513668 144 192 111
0.193181 0.065036 0.513413 126 174 93
0.191776 0.065310 0.513157 121 165 97
0.190436 0.066575 0.513103 74 118 50
0.310343 0.170494 0.560922 79 112 58
0.308395 0.169871 0.560374 153 186 132
0.306672 0.170207 0.560060 146 191 118
0.304949 0.170543 0.559747 137 182 109
0.303443 0.171841 0.559665 44 77 31
0.301931 0.173139 0.559583 15 48 2
0.198527 0.063870 0.515864 49 66 40
0.197122 0.064144 0.515608 108 143 85
0.195717 0.064419 0.515352 151 186 128
0.194312 0.064693 0.515097 156 202 122
0.192908 0.064967 0.514841 148 194 114
0.191503 0.065241 0.514585 130 179 95
0.190098 0.065515 0.514330 118 167 83
0.188754 0.066781 0.514278 76 116 60
0.187347 0.067056 0.514022 36 76 20
0.310233 0.171369 0.562912 56 86 38
0.308282 0.170746 0.562362 149 179 131
0.306337 0.170122 0.561812 144 186 116
0.304832 0.171419 0.561734 145 187 117
0.303107 0.171756 0.561419 63 97 46
0.301595 0.173055 0.561340 13 47 0
0.196848 0.064076 0.517036 42 65 29
0.195517 0.065339 0.516989 98 121 85
0.194039 0.064624 0.516525 146 188 118
0.192634 0.064898 0.516269 161 203 133
0.191230 0.065172 0.516013 152 200 119
0.189825 0.065446 0.515758 135 183 102
0.188480 0.066712 0.515709 123 169 100
0.187073 0.066987 0.515453 85 131 62
0.309897 0.171284 0.564669 40 66 24
0.307947 0.170661 0.564116 147 173 131
0.306221 0.170998 0.563802 148 190 120
0.304496 0.171335 0.563488 147 189 119
0.302771 0.171672 0.563174 84 119 65
0.301258 0.172970 0.563097 11 46 0
0.195243 0.065270 0.518420 44 60 37
0.193835 0.065544 0.518164 83 118 64
0.192428 0.065819 0.517908 146 181 127
0.191021 0.066094 0.517652 160 206 130
0.189614 0.066368 0.517396 153 199 123
0.188207 0.066643 0.517139 136 185 111
0.186799 0.066918 0.516883 118 167 93
0.185392 0.067192 0.516627 89 125 78
0.183985 0.067467 0.516371 40 76 29
0.309561 0.171199 0.566426 28 54 14
0.307833 0.171536 0.566111 127 153 113
0.305886 0.170914 0.565556 148 193 122
0.304160 0.171250 0.565242 145 190 119
0.302650 0.172548 0.565168 101 139 82
0.300922 0.172885 0.564853 9 47 0
0.193562 0.065475 0.519595 35 59 27
0.192087 0.064760 0.519126 74 98 66
0.190747 0.066025 0.519083 145 186 119
0.189340 0.066299 0.518826 162 203 136
0.187933 0.066574 0.518570 155 203 124
0.186525 0.066849 0.518314 133 181 102
0.185064 0.066131 0.517847 125 170 108
0.183711 0.067398 0.517802 90 135 73
0.307497 0.171452 0.567868 101 121 86
0.305769 0.171789 0.567553 152 194 124
0.304041 0.172126 0.567239 148 190 120
0.302314 0.172463 0.566924 110 150 90
0.300797 0.173762 0.566852 11 51 0
0.190473 0.065956 0.520513 79 111 60
0.189066 0.066231 0.520257 150 182 131
0.187659 0.066505 0.520001 162 208 132
0.186252 0.066780 0.519745 153 199 123
0.184844 0.067054 0.519489 131 178 104
0.183437 0.067329 0.519233 121 168 94
0.182030 0.067604 0.518976 93 133 77
0.307382 0.172326 0.569871 80 98 65
0.305651 0.172664 0.569556 152 192 123
0.303705 0.172042 0.568995 144 184 115
0.302191 0.173339 0.568926 129 170 107
0.300461 0.173677 0.568611 22 63 0
0.188792 0.066162 0.521688 80 99 69
0.187385 0.066436 0.521432 143 179 114
0.185978 0.066711 0.521176 162 198 133
0.184570 0.066986 0.520919 148 195 112
0.183163 0.067260 0.520663 129 176 93
0.181756 0.067535 0.520407 128 175 101
0.180349 0.067810 0.520151 93 140 66
0.178942 0.068084 0.519895 46 77 35
0.307045 0.172242 0.571630 69 84 55
0.305315 0.172579 0.571315 151 187 122
0.303584 0.172917 0.571000 147 183 118
0.301854 0.173255 0.570685 140 179 113
0.300124 0.173592 0.570370 40 79 13
0.187169 0.067358 0.523082 73 101 49
0.185704 0.066642 0.522606 148 176 124
0.184244 0.065925 0.522132 155 201 121
0.182889 0.067191 0.522094 146 192 112
0.181482 0.067466 0.521838 134 182 101
0.180075 0.067741 0.521582 125 173 92
0.178668 0.068015 0.521326 94 134 76
0.177301 0.069284 0.521286 41 81 23
0.306928 0.173116 0.573641 50 62 38
0.304978 0.172495 0.573074 139 173 110
0.303248 0.172832 0.572759 153 187 124
0.301517 0.173170 0.572444 145 185 116
0.299787 0.173508 0.572129 73 113 44
0.298265 0.174807 0.572064 16 41 4
0.185430 0.066573 0.524037 81 100 62
0.184023 0.066848 0.523781 143 186 111
0.182615 0.067122 0.523525 157 200 125
0.181208 0.067397 0.523269 142 193 109
0.179801 0.067672 0.523013 129 180 96
0.178394 0.067946 0.522756 126 175 103
0.177026 0.069215 0.522719 90 139 67
0.175617 0.069490 0.522462 41 72 30
0.306591 0.173031 0.575403 36 47 26
0.304858 0.173369 0.575087 120 152 92
0.302911 0.172747 0.574519 159 191 131
0.301181 0.173085 0.574204 146 188 118
0.299660 0.174384 0.574141 105 147 77
0.297927 0.174722 0.573825 16 45 4
0.183749 0.066779 0.525212 82 118 57
0.182342 0.067053 0.524956 144 180 119
0.180934 0.067328 0.524699 154 202 121
0.179527 0.067603 0.524443 144 192 111
0.178162 0.068871 0.524409 132 182 103
0.176752 0.069146 0.524152 127 177 98
0.175342 0.069421 0.523896 88 128 70
0.304521 0.173284 0.576849 111 140 81
0.302788 0.173622 0.576533 161 190 131
0.301055 0.173961 0.576218 145 190 117
0.299323 0.174299 0.575903 124 169 96
0.297797 0.175598 0.575842 25 58 14
0.183475 0.066710 0.526643 34 59 22
0.182117 0.067977 0.526612 81 106 69
0.180660 0.067259 0.526130 139 184 113
0.179297 0.068527 0.526099 151 196 125
0.177887 0.068802 0.525842 141 192 108
0.176478 0.069077 0.525586 128 179 95
0.175068 0.069352 0.525329 130 177 103
0.173692 0.070622 0.525295 86 133 59
0.304400 0.174159 0.578869 81 107 52
0.302665 0.174497 0.578553 163 189 134
0.300718 0.173876 0.577980 145 190 117
0.299194 0.175175 0.577922 135 180 107
0.297459 0.175513 0.577606 40 76 29
0.181842 0.067907 0.528045 42 58 37
0.180432 0.068183 0.527789 84 121 69
0.179023 0.068458 0.527532 146 183 131
0.177613 0.068733 0.527275 151 199 118
0.176203 0.069008 0.527019 140 188 107
0.174829 0.070277 0.526988 127 177 96
0.173417 0.070553 0.526731 124 174 93
0.172005 0.070829 0.526474 73 112 59
0.304062 0.174074 0.580634 48 74 23
0.302327 0.174412 0.580318 160 186 135
0.300592 0.174751 0.580002 145 190 117
0.298856 0.175090 0.579686 137 182 109
0.297121 0.175428 0.579370 62 101 48
0.295589 0.176728 0.579313 9 48 0
0.180158 0.068114 0.529222 38 63 28
0.178748 0.068389 0.528965 87 112 77
0.177379 0.069657 0.528938 146 191 118
0.175967 0.069933 0.528681 146 191 118
0.174555 0.070208 0.528424 136 187 103
0.173142 0.070484 0.528167 133 184 100
0.171730 0.070760 0.527910 119 165 96
0.301989 0.174327 0.582082 133 157 114
0.300254 0.174666 0.581766 148 193 120
0.298519 0.175005 0.581450 139 184 111
0.296989 0.176304 0.581396 91 131 71
0.295454 0.177605 0.581342 6 46 0
0.178516 0.069312 0.530631 43 59 36
0.177104 0.069588 0.530374 101 136 82
0.175692 0.069863 0.530117 151 186 132
0.174280 0.070139 0.529860 147 195 116
0.172868 0.070415 0.529603 141 189 110
0.171455 0.070690 0.529346 131 179 100
0.170071 0.071961 0.529318 123 171 92
0.301864 0.175201 0.584112 100 120 85
0.300126 0.175541 0.583796 151 193 123
0.298388 0.175880 0.583480 145 187 117
0.296650 0.176219 0.583163 122 166 102
0.295115 0.177519 0.583111 14 58 0
0.176829 0.069519 0.531810 38 61 27
0.175417 0.069794 0.531553 106 129 95
0.174005 0.070070 0.531296 150 192 122
0.172593 0.070346 0.531039 152 194 124
0.171180 0.070621 0.530782 133 183 102
0.169795 0.071892 0.530757 131 181 100
0.168380 0.072168 0.530499 119 163 97
0.301949 0.177035 0.586416 76 94 61
0.299997 0.176415 0.585831 153 194 127
0.298257 0.176755 0.585514 147 188 121
0.296516 0.177094 0.585197 137 181 117
0.294978 0.178395 0.585147 41 85 21
0.175142 0.069725 0.532989 43 59 36
0.173764 0.070995 0.532968 107 140 84
0.172349 0.071271 0.532710 156 189 133
0.170935 0.071547 0.532453 144 192 111
0.169520 0.071823 0.532195 131 179 98
0.168129 0.073095 0.532172 136 182 104
0.166712 0.073371 0.531914 117 163 85
0.301610 0.176949 0.588188 52 67 40
0.299867 0.177289 0.587871 148 189 124
0.298124 0.177629 0.587553 148 189 124
0.296381 0.177970 0.587236 143 189 122
0.294639 0.178310 0.586919 72 118 51
0.293293 0.180573 0.587139 11 40 8
0.173489 0.070925 0.534406 43 64 26
0.172074 0.071201 0.534149 119 140 102
0.170688 0.072472 0.534129 153 196 119
0.169270 0.072749 0.533871 143 186 109
0.167877 0.074021 0.533849 136 183 100
0.166457 0.074298 0.533591 128 175 92
0.165037 0.074575 0.533333 107 147 87
0.301481 0.177823 0.590233 36 52 29
0.299528 0.177204 0.589642 128 168 110
0.297785 0.177544 0.589325 153 193 135
0.296042 0.177884 0.589008 141 189 120
0.294500 0.179185 0.588962 91 139 70
0.292953 0.180487 0.588916 11 41 4
0.171859 0.073120 0.536068 50 61 40
0.170440 0.073397 0.535810 131 163 103
0.169020 0.073674 0.535551 158 190 130
0.167623 0.074947 0.535532 139 185 105
0.166201 0.075225 0.535273 132 178 98
0.164779 0.075502 0.535015 134 179 108
0.163372 0.076777 0.534994 99 144 73
0.299396 0.178078 0.591690 84 123 70
0.297446 0.177459 0.591097 154 193 140
0.295703 0.177799 0.590780 141 189 120
0.294161 0.179100 0.590737 117 165 96
0.292613 0.180401 0.590693 16 49 7
0.170218 0.075317 0.537739 56 77 37
0.168794 0.075595 0.537480 139 160 120
0.167369 0.075873 0.537220 154 196 124
0.165944 0.076151 0.536961 141 183 111
0.164519 0.076429 0.536702 136 184 107
0.163110 0.077704 0.536683 133 181 104
0.299057 0.177992 0.593464 62 96 47
0.297311 0.178333 0.593147 157 191 142
0.295566 0.178674 0.592829 146 195 123
0.294021 0.179975 0.592788 133 182 110
0.292273 0.180316 0.592470 30 66 19
0.168541 0.076520 0.539173 68 83 56
0.167114 0.076798 0.538913 134 173 109
0.165686 0.077077 0.538653 151 190 126
0.164259 0.077355 0.538394 134 182 103
0.162832 0.077634 0.538134 137 185 106
0.161417 0.078910 0.538117 128 172 108
0.298924 0.178866 0.595520 50 79 34
0.297176 0.179207 0.595201 156 185 140
0.295428 0.179548 0.594883 154 201 129
0.293680 0.179889 0.594565 143 190 118
0.291933 0.180230 0.594247 60 99 48
0.290379 0.181533 0.594207 5 44 0
0.166857 0.077723 0.540611 64 94 44
0.165428 0.078002 0.540351 143 173 123
0.163998 0.078281 0.540091 146 192 116
0.162568 0.078561 0.539831 138 184 108
0.161138 0.078840 0.539570 133 180 106
0.159709 0.079119 0.539310 125 172 98
0.298583 0.178780 0.597297 35 61 21
0.296836 0.179121 0.596978 141 167 127
0.295088 0.179462 0.596660 159 203 135
0.293340 0.179804 0.596342 148 192 124
0.291592 0.180145 0.596024 96 133 81
0.290039 0.181447 0.595987 9 46 0
0.165168 0.078928 0.542054 83 103 70
0.163736 0.079208 0.541793 145 187 117
0.162303 0.079487 0.541532 148 190 120
0.160871 0.079767 0.541272 135 183 106
0.159439 0.080046 0.541011 133 181 104
0.158007 0.080326 0.540750 117 157 99
0.296495 0.179036 0.598756 111 131 98
0.294748 0.179377 0.598437 161 202 135
0.293000 0.179718 0.598119 151 192 125
0.291448 0.181020 0.598085 122 161 97
0.289698 0.181361 0.597766 17 56 0
0.164889 0.078858 0.543510 41 55 35
0.163457 0.079137 0.543249 92 124 73
0.162025 0.079417 0.542989 150 182 131
0.160592 0.079696 0.542728 149 195 119
0.159160 0.079976 0.542467 142 188 112
0.157733 0.081253 0.542456 137 183 114
0.156299 0.081533 0.542195 109 155 86
0.296155 0.178950 0.600533 63 80 50
0.294408 0.179291 0.600214 158 197 133
0.292660 0.179632 0.599896 154 193 129
0.291107 0.180934 0.599865 138 178 107
0.289357 0.181276 0.599546 41 81 10
0.163193 0.080063 0.544959 43 63 30
0.161746 0.079347 0.544445 113 133 100
0.160324 0.080623 0.544437 151 193 123
0.158889 0.080903 0.544176 147 189 119
0.157454 0.081183 0.543915 136 183 109
0.156019 0.081463 0.543653 133 180 106
0.296017 0.179823 0.602600 45 62 34
0.294067 0.179206 0.601991 150 186 123
0.292320 0.179547 0.601673 160 196 133
0.290767 0.180848 0.601644 147 189 117
0.289016 0.181190 0.601326 68 110 38
0.161479 0.080273 0.546157 53 64 45
0.160044 0.080553 0.545896 118 153 97
0.158610 0.080833 0.545635 155 190 134
0.157175 0.081113 0.545373 142 189 115
0.155740 0.081393 0.545112 141 188 114
0.154305 0.082671 0.545105 130 176 111
0.295677 0.179738 0.604380 34 49 22
0.293927 0.180079 0.604061 131 165 104
0.292176 0.180421 0.603742 166 200 139
0.290426 0.180762 0.603424 153 195 125
0.288676 0.181104 0.603105 97 139 69
0.287115 0.182407 0.603077 12 41 0
0.159765 0.080482 0.547355 58 84 42
0.158330 0.080762 0.547093 139 165 123
0.156896 0.081042 0.546832 145 190 119
0.155462 0.082320 0.546828 142 187 116
0.154025 0.082601 0.546566 140 189 117
0.293586 0.179994 0.605841 103 131 77
0.291836 0.180335 0.605522 172 200 146
0.290085 0.180677 0.605203 155 195 126
0.288335 0.181018 0.604885 125 165 96
0.286774 0.182321 0.604859 22 51 6
0.158051 0.080692 0.548552 64 81 55
0.156620 0.081970 0.548550 139 178 114
0.155183 0.082250 0.548289 152 191 127
0.153744 0.083529 0.548286 141 190 116
0.150858 0.085090 0.548019 112 155 98
0.293444 0.180867 0.607918 65 95 45
0.291691 0.181209 0.607599 161 191 141
0.289745 0.180591 0.606983 162 202 133
0.288185 0.181893 0.606960 140 180 111
0.286433 0.182235 0.606641 37 67 17
0.156340 0.081899 0.550012 81 113 62
0.153464 0.083458 0.549750 144 192 115
0.152019 0.084738 0.549748 138 186 109
0.150563 0.087018 0.550006 136 182 113
0.149107 0.088300 0.550003 101 147 78
0.293102 0.180781 0.609700 30 59 14
0.291350 0.181123 0.609381 154 183 138
0.289597 0.181465 0.609062 166 206 137
0.287844 0.181807 0.608743 148 188 119
0.286091 0.182149 0.608423 69 100 47
0.154623 0.083107 0.551476 109 134 99
0.153181 0.084386 0.551477 148 193 122
0.151729 0.086665 0.551741 141 186 115
0.150267 0.088945 0.552003 141 189 112
0.148814 0.089229 0.551739 130 178 101
0.292761 0.180695 0.611482 29 50 10
0.291009 0.181037 0.611163 147 168 128
0.289256 0.181379 0.610844 169 206 138
0.287503 0.181721 0.610525 158 195 127
0.285750 0.182064 0.610206 95 128 72
0.283998 0.182406 0.609887 23 56 0
0.154343 0.084034 0.553206 54 72 51
0.152897 0.085313 0.553210 125 164 102
0.151442 0.087592 0.553478 151 190 128
0.149976 0.089873 0.553745 139 185 107
0.148511 0.091156 0.553745 136 182 104
0.147054 0.091441 0.553480 125 164 100
0.292617 0.181568 0.613569 28 47 7
0.290667 0.180951 0.612945 115 134 94
0.288915 0.181293 0.612626 171 204 135
0.287162 0.181636 0.612307 168 201 132
0.285409 0.181978 0.611988 117 150 92
0.283656 0.182320 0.611669 25 58 0
0.152613 0.086240 0.554948 59 85 41
0.151154 0.088519 0.555221 139 165 121
0.149693 0.089802 0.555224 152 195 120
0.148227 0.091085 0.555227 141 184 109
0.146770 0.091369 0.554962 139 182 107
0.290520 0.181825 0.615034 72 90 55
0.288765 0.182167 0.614715 168 201 134
0.287010 0.182510 0.614395 166 199 132
0.285068 0.181892 0.613770 135 169 108
0.283315 0.182234 0.613451 36 70 9
0.152323 0.088165 0.556962 45 62 32
0.150865 0.089446 0.556968 86 103 73
0.149401 0.090729 0.556974 147 183 118
0.147932 0.092013 0.556979 147 183 118
0.146473 0.092298 0.556713 140 183 106
0.144996 0.093583 0.556716 140 183 106
0.290178 0.181739 0.616819 49 66 38
0.288423 0.182081 0.616499 157 191 128
0.286668 0.182424 0.616180 165 199 136
0.284913 0.182766 0.615860 143 179 116
0.283157 0.183109 0.615541 55 91 28
0.150575 0.090373 0.558721 52 66 46
0.149108 0.091656 0.558729 110 143 89
0.147636 0.092940 0.558735 156 189 135
0.146174 0.093226 0.558469 142 188 112
0.144678 0.095511 0.558746 142 188 112
0.143211 0.095798 0.558479 129 167 108
0.290030 0.182612 0.618916 30 46 23
0.288082 0.181995 0.618284 139 172 114
0.286326 0.182338 0.617965 167 200 142
0.284571 0.182680 0.617645 147 186 120
0.282816 0.183023 0.617326 85 124 58
0.148814 0.092583 0.560488 50 79 38
0.147327 0.094867 0.560772 128 157 116
0.145845 0.096152 0.560780 148 191 116
0.144358 0.097439 0.560786 143 186 111
0.142885 0.097726 0.560518 141 183 113
0.289688 0.182525 0.620703 28 44 23
0.287740 0.181909 0.620069 116 149 93
0.285985 0.182252 0.619749 165 198 142
0.284229 0.182594 0.619430 153 195 125
0.282474 0.182937 0.619110 116 158 88
0.280719 0.183280 0.618791 24 53 12
0.148498 0.095507 0.562809 36 55 29
0.147016 0.096792 0.562819 70 89 63
0.145528 0.098079 0.562828 139 178 112
0.144053 0.098367 0.562560 146 185 119
0.142558 0.099655 0.562568 141 184 107
0.141081 0.099943 0.562299 141 184 107
0.287398 0.181823 0.621853 82 113 60
0.285643 0.182166 0.621534 165 196 143
0.283888 0.182508 0.621214 160 200 131
0.282132 0.182851 0.620895 132 172 103
0.280377 0.183194 0.620575 28 57 14
0.145225 0.099006 0.564608 95 128 72
0.143729 0.100294 0.564618 152 185 129
0.142250 0.100583 0.564349 140 183 106
0.140770 0.100872 0.564079 145 188 111
0.139290 0.101160 0.563810 132 167 109
0.287246 0.182696 0.623958 54 79 31
0.285301 0.182080 0.623319 162 187 139
0.283546 0.182422 0.622999 157 194 126
0.281791 0.182765 0.622680 144 181 113
0.280036 0.183108 0.622360 40 69 24
0.144921 0.099933 0.566392 48 74 32
0.143441 0.100221 0.566123 133 159 117
0.141962 0.100510 0.565853 144 187 112
0.140458 0.101800 0.565865 138 181 106
0.138976 0.102089 0.565595 139 179 110
0.286903 0.182610 0.625745 39 64 18
0.284960 0.181994 0.625103 152 177 131
0.283204 0.182336 0.624784 152 191 125
0.281449 0.182679 0.624464 149 188 122
0.279694 0.183022 0.624145 65 97 48
0.144616 0.100859 0.568181 35 55 22
0.143134 0.101148 0.567912 88 108 75
0.141630 0.102438 0.567926 144 186 116
0.140145 0.102727 0.567655 140 182 112
0.138633 0.104018 0.567668 138 183 110
0.137117 0.105310 0.567680 131 176 103
0.286561 0.182524 0.627532 26 52 12
0.284618 0.181908 0.626888 131 157 117
0.282863 0.182250 0.626568 153 194 129
0.281108 0.182593 0.626249 151 192 127
0.279352 0.182936 0.625929 82 115 61
0.142806 0.103074 0.569992 39 55 32
0.141296 0.104364 0.570008 121 157 94
0.139806 0.104655 0.569737 148 184 121
0.138262 0.106948 0.570037 136 182 106
0.136767 0.107239 0.569764 137 183 107
0.286219 0.182438 0.629319 19 43 11
0.284276 0.181822 0.628673 110 134 102
0.282521 0.182164 0.628353 155 199 133
0.280766 0.182507 0.628034 152 196 130
0.279188 0.183810 0.628039 101 136 78
0.277430 0.184153 0.627719 15 50 0
0.140961 0.106291 0.572101 66 97 42
0.139466 0.106583 0.571829 145 176 121
0.137943 0.107875 0.571845 138 184 108
0.136416 0.109168 0.571860 136 182 106
0.284119 0.182695 0.630787 92 114 85
0.282179 0.182078 0.630138 154 195 130
0.280424 0.182421 0.629818 158 199 134
0.278846 0.183724 0.629827 130 164 101
0.277088 0.184067 0.629507 24 58 0
0.140646 0.107217 0.573912 37 58 16
0.139123 0.108509 0.573931 123 144 102
0.137595 0.109803 0.573948 143 186 111
0.136093 0.110096 0.573675 131 174 99
0.283777 0.182609 0.632574 75 92 64
0.282019 0.182952 0.632254 159 193 130
0.280083 0.182335 0.631603 160 194 131
0.278504 0.183638 0.631614 139 173 110
0.276746 0.183981 0.631294 36 70 7
0.138779 0.110436 0.576043 73 89 57
0.137274 0.110729 0.575769 146 182 117
0.283435 0.182523 0.634361 56 68 42
0.281677 0.182866 0.634041 151 183 121
0.279741 0.182249 0.633387 156 188 126
0.277986 0.182592 0.633068 147 183 120
0.276404 0.183895 0.633081 59 95 32
0.138486 0.110362 0.577573 48 59 38
0.283093 0.182437 0.636148 39 49 24
0.281335 0.182780 0.635828 144 176 112
0.279399 0.182163 0.635172 158 190 126
0.277644 0.182506 0.634853 147 186 120
0.276062 0.183809 0.634868 91 130 64
0.282751 0.182350 0.637935 35 45 20
0.280813 0.181735 0.637276 123 155 93
0.279058 0.182077 0.636957 159 191 129
0.277302 0.182420 0.636637 146 188 116
0.275547 0.182762 0.636318 100 142 70
0.273962 0.184066 0.636335 21 47 7
0.280471 0.181649 0.639061 79 111 51
0.278716 0.181991 0.638741 154 186 126
0.276961 0.182334 0.638422 146 189 114
0.275205 0.182676 0.638102 110 153 78
0.273450 0.183019 0.637783 21 47 3
0.121274 0.201787 0.606683 93 103 76
0.280130 0.181563 0.640846 57 88 31
0.278374 0.181905 0.640526 151 182 125
0.276619 0.182248 0.640207 147 190 115
0.274864 0.182590 0.639887 129 172 97
0.273109 0.182933 0.639567 35 62 13
0.120937 0.201702 0.608440 60 70 45
0.279788 0.181477 0.642630 47 75 23
0.278033 0.181819 0.642311 148 176 124
0.276277 0.182162 0.641991 149 190 114
0.274522 0.182504 0.641672 137 178 102
0.272767 0.182847 0.641352 46 77 24
0.120601 0.201618 0.610197 53 57 32
0.279446 0.181391 0.644415 39 65 14
0.277691 0.181733 0.644095 143 169 118
0.275936 0.182076 0.643776 152 193 115
0.274180 0.182418 0.643456 139 180 102
0.272425 0.182761 0.643137 53 88 34
0.125448 0.200522 0.612897 155 168 126
0.123720 0.200859 0.612582 142 155 113
0.121992 0.201196 0.612268 108 108 73
0.120215 0.202536 0.612261 42 42 7
0.279282 0.182263 0.646551 33 58 10
0.277349 0.181647 0.645880 133 158 110
0.275594 0.181990 0.645561 151 194 115
0.273839 0.182332 0.645241 140 183 104
0.272084 0.182675 0.644921 73 111 56
0.128529 0.200763 0.615595 93 100 74
0.125112 0.200437 0.614653 149 153 107
0.123384 0.200774 0.614339 152 156 110
0.121609 0.202114 0.614335 140 133 84
0.119878 0.202451 0.614020 75 68 19
0.278940 0.182177 0.648339 31 53 8
0.277008 0.181561 0.647665 123 145 100
0.275252 0.181904 0.647345 148 191 116
0.273497 0.182246 0.647026 144 187 112
0.271742 0.182589 0.646706 83 122 69
0.126462 0.201016 0.617039 57 60 42
0.124732 0.201354 0.616724 95 92 60
0.123002 0.201691 0.616409 134 131 99
0.121272 0.202029 0.616094 154 140 94
0.119542 0.202367 0.615779 148 134 88
0.117811 0.202704 0.615464 97 84 46
0.278598 0.182091 0.650126 32 51 11
0.276666 0.181475 0.649449 116 135 95
0.274911 0.181818 0.649130 147 187 118
0.273156 0.182160 0.648810 145 185 116
0.271400 0.182503 0.648491 101 141 85
0.120935 0.201944 0.617854 81 67 32
0.119205 0.202282 0.617539 135 121 86
0.117475 0.202620 0.617224 154 137 100
0.276498 0.182348 0.651593 104 120 86
0.274569 0.181732 0.650914 145 186 119
0.272814 0.182074 0.650595 145 186 119
0.271059 0.182417 0.650275 110 150 94
0.269467 0.183720 0.650313 16 56 0
0.276156 0.182262 0.653380 80 96 64
0.274227 0.181646 0.652699 146 187 122
0.272472 0.181988 0.652380 146 187 122
0.270717 0.182331 0.652060 119 159 101
0.269125 0.183634 0.652100 20 60 2
0.275814 0.182175 0.655167 59 76 46
0.274056 0.182519 0.654847 144 184 124
0.272298 0.182862 0.654527 145 185 125
0.270541 0.183205 0.654207 129 169 109
0.268783 0.183548 0.653887 36 76 16
0.275472 0.182089 0.656955 47 66 38
0.273714 0.182432 0.656635 140 180 120
0.271789 0.181816 0.655949 145 185 125
0.270034 0.182159 0.655629 134 175 110
0.268441 0.183462 0.655675 56 97 32
0.275129 0.182003 0.658742 38 57 31
0.273372 0.182346 0.658422 139 180 117
0.271447 0.181730 0.657734 145 186 123
0.269692 0.182073 0.657414 137 177 108
0.268098 0.183376 0.657462 69 109 40
0.274787 0.181917 0.660529 30 48 25
0.272861 0.181302 0.659838 137 178 113
0.271106 0.181644 0.659518 141 182 117
0.269350 0.181987 0.659199 139 180 106
0.267595 0.182330 0.658879 75 116 42
0.274445 0.181831 0.662316 30 44 22
0.272687 0.182174 0.661996 131 170 104
0.270764 0.181558 0.661303 139 178 112
0.269009 0.181901 0.660983 138 179 101
0.267414 0.183203 0.661036 85 126 48
0.265656 0.183546 0.660716 18 44 4
0.513837 0.153781 0.714314 25 27 16
0.511536 0.153239 0.713549 22 24 13
0.509733 0.153591 0.713221 18 26 15
0.274273 0.182703 0.664480 33 44 23
0.272345 0.182088 0.663783 123 158 90
0.270422 0.181472 0.663087 142 177 109
0.268667 0.181815 0.662768 137 178 100
0.266912 0.182158 0.662448 95 136 58
0.265314 0.183460 0.662503 21 47 5
0.517097 0.152988 0.716807 15 24 17
0.515291 0.153340 0.716478 18 27 20
0.513486 0.153693 0.716149 18 26 13
0.511185 0.153151 0.715382 16 24 11
0.509382 0.153503 0.715054 16 24 11
0.507580 0.153855 0.714726 16 24 11
0.505777 0.154206 0.714397 20 28 17
0.273931 0.182616 0.666270 34 46 22
0.272003 0.182002 0.665571 112 147 77
0.270081 0.181386 0.664872 141 176 106
0.268325 0.181729 0.664553 136 180 98
0.266570 0.182072 0.664233 100 144 62
0.264972 0.183374 0.664291 16 45 2
0.516243 0.152007 0.718200 18 28 16
0.514440 0.152359 0.717871 15 25 13
0.512637 0.152711 0.717543 17 27 13
0.510834 0.153063 0.717215 15 25 11
0.509032 0.153414 0.716887 15 25 11
0.507229 0.153766 0.716559 18 28 14
0.505426 0.154118 0.716231 20 30 18
0.273757 0.183488 0.668442 36 50 28
0.271661 0.181916 0.667358 102 135 66
0.269903 0.182259 0.667038 143 176 107
0.267984 0.181643 0.666337 134 178 96
0.266388 0.182945 0.666398 110 154 72
0.515892 0.151919 0.720033 18 28 14
0.514089 0.152271 0.719704 17 27 13
0.512286 0.152622 0.719376 18 28 14
0.510483 0.152974 0.719048 17 27 13
0.508681 0.153326 0.718720 15 28 13
0.506878 0.153678 0.718392 16 29 14
0.505075 0.154030 0.718064 16 29 16
0.273414 0.183401 0.670234 34 48 26
0.271319 0.181830 0.669145 95 128 59
0.269561 0.182173 0.668825 142 175 106
0.267803 0.182516 0.668505 134 180 100
0.266046 0.182859 0.668185 116 162 82
0.515541 0.151830 0.721866 21 31 17
0.513239 0.151289 0.721090 19 29 15
0.511439 0.151641 0.720763 18 28 16
0.510132 0.152886 0.720881 19 29 17
0.508330 0.153238 0.720553 16 29 16
0.506527 0.153590 0.720225 17 30 17
0.504724 0.153942 0.719897 17 27 15
0.273071 0.183315 0.672026 30 44 22
0.271143 0.182701 0.671319 88 123 55
0.269219 0.182087 0.670612 143 178 110
0.267461 0.182430 0.670292 135 181 103
0.265703 0.182773 0.669972 121 167 89
0.514689 0.150850 0.723248 21 31 19
0.512889 0.151201 0.722921 19 29 17
0.511089 0.151553 0.722593 18 27 18
0.509288 0.151904 0.722265 18 27 18
0.507488 0.152255 0.721938 19 29 17
0.505688 0.152607 0.721610 19 29 17
0.503887 0.152958 0.721282 17 27 15
0.270800 0.182615 0.673108 85 119 54
0.268877 0.182001 0.672399 143 177 112
0.267119 0.182344 0.672079 133 180 106
0.265361 0.182687 0.671759 125 172 98
0.514339 0.150762 0.725079 22 32 20
0.512538 0.151113 0.724751 18 28 16
0.510738 0.151464 0.724424 18 27 18
0.508938 0.151816 0.724096 18 27 18
0.507137 0.152167 0.723768 19 29 17
0.505337 0.152519 0.723440 19 29 17
0.503537 0.152870 0.723113 19 27 16
0.270457 0.182529 0.674898 82 116 53
0.268697 0.182872 0.674578 145 179 116
0.266777 0.182258 0.673867 133 180 108
0.263416 0.183903 0.673616 16 51 13
0.511691 0.150133 0.726127 24 33 24
0.509893 0.150484 0.725800 24 33 24
0.508095 0.150834 0.725472 22 31 22
0.506297 0.151185 0.725145 22 29 21
0.504987 0.152430 0.725271 20 27 19
0.503186 0.152782 0.724943 25 30 20
0.270115 0.182443 0.676688 78 112 51
0.268354 0.182786 0.676368 146 180 119
0.266594 0.183130 0.676047 133 179 110
0.264834 0.183473 0.675727 126 172 103
0.263074 0.183817 0.675406 18 53 15
0.511341 0.150045 0.727955 27 37 25
0.509543 0.150395 0.727628 21 30 21
0.507745 0.150746 0.727300 21 30 21
0.505947 0.151097 0.726973 20 27 19
0.504149 0.151448 0.726646 21 28 20
0.502836 0.152694 0.726774 32 34 25
0.269772 0.182356 0.678478 71 104 46
0.268012 0.182700 0.678157 142 175 117
0.266252 0.183043 0.677837 121 169 100
0.264491 0.183387 0.677516 125 173 104
0.262731 0.183731 0.677196 20 57 16
0.510494 0.149065 0.729323 24 34 22
0.508699 0.149415 0.728996 19 28 19
0.506904 0.149765 0.728669 17 26 17
0.503799 0.151360 0.728474 26 33 25
0.269429 0.182270 0.680267 68 101 45
0.267669 0.182614 0.679947 138 171 115
0.265909 0.182957 0.679627 118 166 97
0.264149 0.183301 0.679306 126 174 105
0.262388 0.183644 0.678986 23 61 17
0.509649 0.148085 0.730686 24 34 22
0.507856 0.148435 0.730360 19 32 19
0.506554 0.149677 0.730495 15 28 15
0.504759 0.150028 0.730168 19 29 17
0.269087 0.182184 0.682057 65 98 42
0.267327 0.182527 0.681737 137 170 114
0.265566 0.182871 0.681416 119 167 98
0.263806 0.183214 0.681096 127 175 106
0.262046 0.183558 0.680775 24 62 16
0.508309 0.146213 0.731579 25 38 23
0.506521 0.146562 0.731253 24 44 27
0.505714 0.148697 0.731856 12 32 15
0.504410 0.149940 0.731993 19 32 19
0.268744 0.182098 0.683847 64 97 41
0.266984 0.182441 0.683526 139 172 116
0.265224 0.182785 0.683206 123 172 100
0.263463 0.183128 0.682886 126 175 103
0.261703 0.183472 0.682565 26 62 15
0.505681 0.145583 0.732604 43 71 44
0.504386 0.146824 0.732746 25 53 26
0.503573 0.148959 0.733353 28 43 27
0.268402 0.182011 0.685637 64 97 43
0.266641 0.182355 0.685316 139 172 118
0.264724 0.181741 0.684590 126 173 101
0.261361 0.183386 0.684355 30 63 17
0.506916 0.141234 0.733187 94 118 88
0.505635 0.142472 0.733334 92 116 86
0.503858 0.142819 0.733010 69 101 64
0.503059 0.144951 0.733625 50 82 45
0.502250 0.147085 0.734238 41 59 38
0.268059 0.181925 0.687426 56 89 35
0.265981 0.180355 0.686288 139 172 118
0.264382 0.181655 0.686377 126 172 103
0.262624 0.181998 0.686057 129 175 106
0.505081 0.138474 0.733573 102 131 97
0.503807 0.139711 0.733724 91 120 86
0.502529 0.140948 0.733874 65 98 54
0.501734 0.143079 0.734494 49 82 38
0.501415 0.146104 0.735584 36 54 31
0.267394 0.179926 0.688392 52 84 33
0.265639 0.180269 0.688073 138 170 119
0.263884 0.180611 0.687753 126 172 103
0.262129 0.180954 0.687434 128 174 105
0.504241 0.137497 0.734895 100 132 95
0.502476 0.137841 0.734573 89 121 84
0.501202 0.139078 0.734727 66 102 55
0.500411 0.141207 0.735353 39 75 28
0.500096 0.144232 0.736452 21 43 14
0.266892 0.178884 0.689762 53 85 34
0.265140 0.179226 0.689443 138 170 119
0.263387 0.179568 0.689124 133 179 112
0.261634 0.179910 0.688805 128 174 107
0.260182 0.182169 0.689311 28 64 19
0.502907 0.135629 0.735733 101 137 94
0.501639 0.136864 0.735891 85 121 78
0.500367 0.138099 0.736047 66 103 53
0.499090 0.139336 0.736202 38 75 25
0.499264 0.143252 0.737786 17 41 9
0.266391 0.177842 0.691127 48 80 29
0.264483 0.177227 0.690392 138 170 119
0.262891 0.178525 0.690490 126 172 107
0.261293 0.179824 0.690587 128 174 109
0.259690 0.181124 0.690683 23 59 16
0.502564 0.135543 0.737523 102 138 93
0.500804 0.135886 0.737203 81 117 72
0.499533 0.137121 0.737362 61 98 48
0.498258 0.138358 0.737520 44 81 31
0.497948 0.141380 0.738636 20 42 11
0.266050 0.177756 0.692907 56 88 37
0.264143 0.177141 0.692169 138 170 119
0.262396 0.177482 0.691851 121 167 102
0.260800 0.178781 0.691951 126 172 107
0.259348 0.181038 0.692468 20 56 13
0.502987 0.133333 0.738666 38 52 30
0.501232 0.133676 0.738346 103 139 92
0.500461 0.135800 0.738992 78 114 67
0.499190 0.137035 0.739154 56 93 43
0.497914 0.138271 0.739315 38 75 25
0.497603 0.141293 0.740438 25 47 16
0.265551 0.176714 0.694264 61 94 40
0.263490 0.175143 0.693103 139 172 118
0.261901 0.176440 0.693207 122 168 101
0.260308 0.177738 0.693310 126 172 105
0.258858 0.179995 0.693832 23 56 14
0.501653 0.131468 0.739478 41 56 31
0.499902 0.131809 0.739159 104 141 91
0.499135 0.133932 0.739811 77 114 64
0.498358 0.136058 0.740462 61 100 47
0.497084 0.137293 0.740626 31 70 17
0.496774 0.140314 0.741757 31 53 24
0.265052 0.175673 0.695617 70 103 49
0.263151 0.175057 0.694875 138 171 117
0.261408 0.175397 0.694557 130 174 110
0.259967 0.177652 0.695087 124 168 104
0.258517 0.179909 0.695614 20 52 13
0.499824 0.128713 0.739791 50 62 36
0.498575 0.129943 0.739962 105 142 92
0.498303 0.132956 0.741108 84 121 71
0.498015 0.135971 0.742251 62 101 48
0.496741 0.137206 0.742418 34 73 20
0.496429 0.140227 0.743557 27 49 22
0.264554 0.174632 0.696964 75 106 53
0.262501 0.173060 0.695793 138 169 116
0.260916 0.174355 0.695903 127 171 107
0.259477 0.176609 0.696438 123 167 103
0.258175 0.179823 0.697397 18 50 11
0.497249 0.128077 0.740755 108 145 93
0.497471 0.131979 0.742400 82 119 67
0.497185 0.134994 0.743551 61 100 47
0.495913 0.136229 0.743721 37 76 23
0.495601 0.139248 0.744867 28 50 23
0.263900 0.172635 0.697876 79 110 57
0.262162 0.172974 0.697560 137 168 115
0.260425 0.173314 0.697243 128 172 106
0.258987 0.175567 0.697784 122 166 100
0.257687 0.178779 0.698751 15 47 8
0.497660 0.125874 0.741853 59 74 45
0.496150 0.130113 0.743194 82 119 67
0.496355 0.134017 0.744846 60 99 48
0.495570 0.136142 0.745511 33 72 21
0.495257 0.139162 0.746665 21 45 17
0.263405 0.171595 0.699211 81 112 55
0.261670 0.171933 0.698895 136 167 110
0.260086 0.173229 0.699010 129 170 103
0.258648 0.175481 0.699556 122 163 96
0.257346 0.178694 0.700530 14 44 5
0.496828 0.124899 0.743121 70 85 56
0.495321 0.129137 0.744473 77 114 62
0.495039 0.132149 0.745640 59 98 47
0.495227 0.136056 0.747300 31 70 19
0.494431 0.138183 0.747968 25 51 25
0.265120 0.173081 0.702161 27 40 23
0.263067 0.171510 0.700975 86 118 58
0.261332 0.171848 0.700659 136 168 108
0.259597 0.172187 0.700343 128 170 100
0.258159 0.174439 0.700894 119 161 91
0.257005 0.178608 0.702310 17 46 5
0.495996 0.123925 0.744384 62 77 50
0.495741 0.126932 0.745565 106 143 91
0.494212 0.131173 0.746922 63 102 51
0.494401 0.135079 0.748593 32 71 20
0.494088 0.138097 0.749763 30 53 28
0.264623 0.172041 0.703493 25 39 19
0.262729 0.171425 0.702739 95 127 65
0.260994 0.171763 0.702423 136 168 106
0.259259 0.172102 0.702107 129 169 98
0.257672 0.173397 0.702228 113 153 82
0.256519 0.177565 0.703654 16 42 2
0.495660 0.123840 0.746143 65 80 53
0.494912 0.125957 0.746830 106 143 93
0.493386 0.130197 0.748199 63 102 51
0.493575 0.134102 0.749880 32 71 20
0.493263 0.137119 0.751059 33 55 28
0.264127 0.171001 0.704819 22 36 14
0.262236 0.170385 0.704063 102 136 73
0.260503 0.170723 0.703748 137 171 108
0.258770 0.171061 0.703433 133 170 100
0.257334 0.173312 0.703994 105 142 72
0.256178 0.177480 0.705431 18 42 3
0.494830 0.122867 0.747398 67 82 55
0.494083 0.124983 0.748091 105 142 92
0.492075 0.128330 0.748968 61 98 48
0.492750 0.133125 0.751163 34 71 21
0.492920 0.137032 0.752851 35 54 26
0.263789 0.170916 0.706584 21 38 12
0.261899 0.170300 0.705825 115 151 88
0.260166 0.170638 0.705510 133 169 106
0.258433 0.170976 0.705194 133 173 104
0.256996 0.173227 0.705761 88 128 59
0.255838 0.177394 0.707208 20 44 5
0.493016 0.120116 0.747635 61 76 51
0.493256 0.124009 0.749347 109 146 96
0.492501 0.126126 0.750043 87 124 74
0.491444 0.131257 0.751935 32 69 17
0.492577 0.136946 0.754643 41 56 29
0.263451 0.170831 0.708348 19 38 12
0.261561 0.170215 0.707587 122 161 99
0.259829 0.170553 0.707271 130 169 107
0.258096 0.170891 0.706956 133 172 106
0.256657 0.173142 0.707528 78 117 51
0.255354 0.176352 0.708542 21 45 6
0.491696 0.118254 0.748366 69 84 59
0.492429 0.123035 0.750597 110 146 99
0.491676 0.125151 0.751299 85 121 74
0.490139 0.129390 0.752698 33 70 18
0.492713 0.137751 0.756942 37 54 24
0.262957 0.169792 0.709664 24 43 17
0.261070 0.169175 0.708901 126 165 103
0.259340 0.169513 0.708586 122 161 99
0.257759 0.170806 0.708718 130 171 104
0.256173 0.172101 0.708849 68 109 42
0.488904 0.113727 0.747551 57 75 52
0.490626 0.120283 0.750820 112 149 99
0.490852 0.124177 0.752550 87 124 74
0.492370 0.137664 0.758737 35 52 22
0.262620 0.169707 0.711426 33 52 22
0.260733 0.169091 0.710660 131 170 106
0.259003 0.169428 0.710345 122 161 97
0.257421 0.170722 0.710480 129 170 105
0.255835 0.172016 0.710613 50 91 26
0.487359 0.114865 0.749486 115 152 102
0.487112 0.117866 0.750716 89 126 76
0.487818 0.122650 0.752969 62 100 45
0.262282 0.169622 0.713188 56 74 41
0.260396 0.169006 0.712419 134 173 109
0.258666 0.169344 0.712104 122 161 97
0.256936 0.169681 0.711789 129 169 109
0.255497 0.171931 0.712377 33 73 13
0.261790 0.168583 0.714494 87 106 68
0.260060 0.168921 0.714179 130 172 102
0.258329 0.169259 0.713864 124 166 96
0.256599 0.169596 0.713549 123 163 105
0.255159 0.171846 0.714142 16 56 0
0.263498 0.170067 0.717485 17 38 0
0.261453 0.168499 0.716253 102 123 83
0.259571 0.167882 0.715480 122 165 90
0.257993 0.169174 0.715623 124 167 92
0.256262 0.169512 0.715308 118 158 102
0.254822 0.171761 0.715906 8 48 0
0.263003 0.169029 0.718788 16 42 0
0.261116 0.168414 0.718012 113 139 95
0.259234 0.167797 0.717237 123 166 91
0.257656 0.169089 0.717382 130 173 98
0.256072 0.170382 0.717527 105 143 86
0.254628 0.172631 0.718129 10 48 0
0.262666 0.168944 0.720550 21 50 5
0.260626 0.167376 0.719308 127 156 111
0.258898 0.167713 0.718993 121 167 91
0.257319 0.169004 0.719141 129 175 99
0.255735 0.170297 0.719288 83 114 59
0.254433 0.173502 0.720357 18 49 0
0.262173 0.167907 0.721845 32 64 15
0.260290 0.167291 0.721064 128 160 111
0.258562 0.167628 0.720750 121 167 91
0.256982 0.168920 0.720900 130 176 100
0.255398 0.170212 0.721050 54 85 32
0.261836 0.167822 0.723605 47 81 30
0.259953 0.167206 0.722821 131 165 114
0.258226 0.167544 0.722507 119 164 91
0.256646 0.168835 0.722660 127 172 99
0.255206 0.171082 0.723279 39 69 21
0.261345 0.166784 0.724892 75 113 56
0.259617 0.167122 0.724578 130 168 111
0.257889 0.167459 0.724263 124 169 98
0.256309 0.168750 0.724419 117 162 91
0.254868 0.170997 0.725043 25 54 11
0.263050 0.168267 0.727912 23 40 22
0.261008 0.166700 0.726649 108 146 87
0.259129 0.166084 0.725861 125 163 104
0.257553 0.167374 0.726020 128 169 102
0.255972 0.168665 0.726178 103 144 77
0.262556 0.167230 0.729197 35 56 34
0.260518 0.165663 0.727929 119 159 99
0.258793 0.166000 0.727615 122 162 102
0.257365 0.168243 0.728252 131 172 105
0.255781 0.169534 0.728412 80 121 54
0.254624 0.173690 0.729996 23 43 8
0.260029 0.164626 0.729204 123 167 103
0.258457 0.165915 0.729369 121 165 101
0.257029 0.168158 0.730011 134 173 111
0.255590 0.170403 0.730652 42 81 19
0.259541 0.163590 0.730474 126 170 106
0.258121 0.165831 0.731123 119 163 99
0.256692 0.168073 0.731771 126 166 108
0.262489 0.161883 0.732364 18 46 8
0.260617 0.161267 0.731567 117 145 107
0.258902 0.161601 0.731255 122 168 101
0.257636 0.164794 0.732394 126 172 105
0.255059 0.171187 0.734663 12 51 0
0.261528 0.157995 0.732160 36 69 25
0.259974 0.159280 0.732336 126 159 115
0.258568 0.161517 0.732998 115 161 92
0.257450 0.165662 0.734631 126 172 103
0.254865 0.172055 0.736915 9 47 0
0.260726 0.155059 0.732426 74 111 59
0.259180 0.156342 0.732606 127 164 112
0.258234 0.161433 0.734742 116 164 95
0.257114 0.165577 0.736385 124 172 103
0.261937 0.153694 0.733971 24 42 19
0.258849 0.156259 0.734337 126 166 108
0.257900 0.161349 0.736486 120 166 97
0.256778 0.165493 0.738140 116 162 93
0.261607 0.153611 0.735697 45 67 38
0.258670 0.157126 0.736563 122 166 102
0.257717 0.162217 0.738725 129 173 109
0.262974 0.153196 0.737732 20 44 12
0.261276 0.153528 0.737423 75 99 67
0.258338 0.157043 0.738297 122 166 98
0.257532 0.163084 0.740968 128 168 108
0.254961 0.169470 0.743318 25 47 20
0.262643 0.153113 0.739458 25 54 13
0.260946 0.153444 0.739149 108 137 96
0.258006 0.156959 0.740031 126 171 100
0.257197 0.163000 0.742717 113 151 94
0.261995 0.151132 0.740177 46 78 29
0.260615 0.153361 0.740875 127 159 110
0.257826 0.157826 0.742267 129 175 106
0.255728 0.167058 0.746159 14 48 0
0.456748 0.078674 0.760696 127 145 110
0.455143 0.078987 0.760404 126 166 108
0.261666 0.151049 0.741898 80 119 66
0.258741 0.154559 0.742798 119 165 96
0.257795 0.159644 0.745013 125 171 102
0.455494 0.076820 0.761196 88 103 76
0.453894 0.077132 0.760905 137 172 118
0.452294 0.077444 0.760614 121 156 102
0.262548 0.147790 0.742399 33 55 28
0.261336 0.150966 0.743619 117 157 97
0.258410 0.154476 0.744526 129 173 107
0.257612 0.160510 0.747262 88 132 66
0.454242 0.074966 0.761686 53 67 45
0.452179 0.074389 0.760828 132 166 115
0.262220 0.147707 0.744112 67 96 62
0.261164 0.151832 0.745851 129 173 107
0.258384 0.156292 0.747276 135 173 114
0.257728 0.163277 0.750536 53 91 32
0.451401 0.073423 0.761876 108 139 93
0.450276 0.074622 0.762157 135 166 120
0.263577 0.147296 0.746132 23 59 16
0.261892 0.147625 0.745825 105 141 98
0.260991 0.152697 0.748089 127 172 101
0.258204 0.157159 0.749523 118 153 99
0.450625 0.072457 0.762920 68 94 52
0.449037 0.072767 0.762631 139 165 123
0.263087 0.146266 0.747328 59 97 42
0.261723 0.148490 0.748056 125 163 108
0.260661 0.152614 0.749815 126 170 102
0.449383 0.070604 0.763383 33 56 20
0.447801 0.070912 0.763095 124 147 111
0.264279 0.144908 0.748825 41 63 36
0.262599 0.145236 0.748519 101 142 77
0.261553 0.149356 0.750291 128 169 104
0.258940 0.154760 0.752269 119 160 93
0.447492 0.070835 0.764704 87 106 78
0.445910 0.071144 0.764416 135 178 119
0.265963 0.146391 0.751886 24 49 14
0.263952 0.144826 0.750533 77 102 67
0.262593 0.147048 0.751272 117 162 91
0.261698 0.152116 0.753576 121 166 95
0.446721 0.069869 0.765732 36 50 30
0.445141 0.070178 0.765445 130 167 117
0.265305 0.144415 0.752547 42 73 31
0.263787 0.145690 0.752767 117 148 106
0.262585 0.148860 0.754036 123 170 98
0.259670 0.152365 0.754993 124 159 101
0.444834 0.070100 0.767051 91 124 82
0.443254 0.070409 0.766764 140 173 131
0.266491 0.143060 0.754032 27 41 21
0.264320 0.140549 0.752141 79 118 65
0.263460 0.145608 0.754478 124 163 110
0.262415 0.149725 0.756282 119 166 94
0.444067 0.069135 0.768073 37 65 29
0.442489 0.069442 0.767786 132 160 124
0.440912 0.069750 0.767498 131 176 118
0.265665 0.140141 0.754143 56 78 51
0.263995 0.140467 0.753839 109 155 90
0.262971 0.144579 0.755658 120 166 101
0.260706 0.151867 0.758754 113 157 89
0.259625 0.155990 0.760562 32 58 18
0.441726 0.068476 0.768803 92 111 83
0.440151 0.068784 0.768516 136 176 118
0.438576 0.069091 0.768229 128 168 110
0.266673 0.137843 0.755076 35 66 24
0.265174 0.139114 0.755307 99 130 88
0.263833 0.141331 0.756071 122 168 99
0.263127 0.147336 0.758966 120 166 97
0.259753 0.158750 0.763894 28 48 15
0.440963 0.067511 0.769814 48 62 40
0.439391 0.067818 0.769528 115 149 98
0.437818 0.068125 0.769242 135 169 118
0.436246 0.068431 0.768956 115 161 96
0.434227 0.067848 0.768082 81 127 62
0.432214 0.067263 0.767209 52 93 44
0.268014 0.137437 0.757072 33 48 30
0.266012 0.135872 0.755695 68 105 53
0.264849 0.139032 0.757003 120 157 105
0.263834 0.143141 0.758844 127 174 102
0.263280 0.150092 0.762289 127 174 102
0.438179 0.065963 0.769944 64 93 50
0.436611 0.066269 0.769658 139 168 125
0.435044 0.066575 0.769373 119 163 97
0.433476 0.066880 0.769088 100 144 78
0.431466 0.066295 0.768213 74 117 60
0.264851 0.131068 0.754685 105 149 85
0.263699 0.134225 0.756002 122 166 102
0.262857 0.139276 0.758395 125 172 100
0.261413 0.151286 0.764242 49 78 37
0.435856 0.065303 0.770658 102 124 93
0.434291 0.065608 0.770374 136 177 114
0.432726 0.065913 0.770089 119 160 97
0.431161 0.066219 0.769804 95 141 74
0.269031 0.136949 0.760761 33 66 24
0.266178 0.130665 0.756660 99 132 90
0.265032 0.133821 0.757986 127 172 101
0.261663 0.144250 0.762491 81 122 57
0.435551 0.065226 0.772250 54 68 46
0.433539 0.064642 0.771369 126 161 107
0.431977 0.064947 0.771084 135 170 116
0.429972 0.064361 0.770205 109 155 86
0.268630 0.127113 0.757296 36 54 31
0.266703 0.135304 0.761061 123 163 105
0.265376 0.137517 0.761848 123 168 95
0.263875 0.138787 0.762089 128 173 100
0.262449 0.150788 0.768003 35 68 14
0.432789 0.063676 0.772359 80 109 66
0.431229 0.063980 0.772075 138 167 124
0.429227 0.063394 0.771194 126 172 105
0.268311 0.127032 0.758964 78 102 70
0.267013 0.129239 0.759762 113 157 91
0.264554 0.134603 0.761899 128 170 100
0.264532 0.144374 0.767066 117 159 89
0.430481 0.063014 0.773061 106 130 98
0.428924 0.063318 0.772777 131 175 111
0.427367 0.063622 0.772494 122 166 102
0.266522 0.128215 0.760884 121 166 95
0.430178 0.062937 0.774644 54 72 49
0.428180 0.062351 0.773758 120 158 103
0.426625 0.062655 0.773475 134 172 117
0.266643 0.160266 0.779870 30 63 9
0.427878 0.062275 0.775339 73 102 59
0.426323 0.062578 0.775056 136 165 122
0.424333 0.061991 0.774169 128 175 103
0.422780 0.062294 0.773886 120 167 95
0.421228 0.062597 0.773604 91 140 68
0.425583 0.061612 0.776030 99 118 90
0.424030 0.061915 0.775748 131 172 105
0.422478 0.062218 0.775465 124 165 98
0.420496 0.061629 0.774577 111 159 82
0.418946 0.061931 0.774294 80 128 51
0.424844 0.060645 0.776999 34 48 26
0.423294 0.060948 0.776717 111 142 87
0.421744 0.061250 0.776435 139 170 115
0.420194 0.061553 0.776152 123 169 93
0.418644 0.061855 0.775870 105 151 75
0.422559 0.059981 0.777681 49 70 30
0.421011 0.060283 0.777399 122 143 103
0.419035 0.059693 0.776507 140 180 111
0.417490 0.059995 0.776225 129 169 100
0.420280 0.059316 0.778359 60 72 44
0.418306 0.058726 0.777464 123 157 96
0.416764 0.059027 0.777183 142 176 115
0.415222 0.059328 0.776902 126 171 98
0.413679 0.059629 0.776622 110 155 82
0.273879 0.114220 0.766167 99 131 82
0.418006 0.058650 0.779032 67 92 46
0.416464 0.058952 0.778751 133 158 112
0.414499 0.058360 0.777856 136 178 106
0.412959 0.058661 0.777575 125 167 95
0.276600 0.112574 0.767821 54 77 41
0.275178 0.113826 0.768100 89 128 64
0.273565 0.114141 0.767806 124 163 99
0.415739 0.057984 0.779702 73 91 58
0.413777 0.057392 0.778804 132 168 105
0.412239 0.057692 0.778524 140 176 113
0.410285 0.057099 0.777627 117 167 88
0.277897 0.112181 0.769751 55 93 38
0.276287 0.112495 0.769458 98 136 81
0.274677 0.112809 0.769165 115 161 85
0.413478 0.057317 0.780367 63 90 43
0.411521 0.056724 0.779467 133 160 113
0.409986 0.057024 0.779188 136 182 106
0.408037 0.056430 0.778290 122 168 92
0.406093 0.055835 0.777392 108 161 83
0.404563 0.056133 0.777114 94 147 69
0.279000 0.110851 0.771102 78 111 69
0.277584 0.112102 0.771388 99 146 74
0.275973 0.112416 0.771095 121 168 96
0.274363 0.112730 0.770802 123 169 91
0.411222 0.056649 0.781028 66 83 53
0.409271 0.056056 0.780127 127 161 100
0.407739 0.056355 0.779848 143 177 116
0.405795 0.055760 0.778948 119 167 90
0.404265 0.056058 0.778669 119 167 90
0.402329 0.055462 0.777771 99 146 74
0.280294 0.110458 0.773029 78 121 62
0.278687 0.110772 0.772737 105 148 89
0.277079 0.111086 0.772444 114 164 85
0.275472 0.111400 0.772151 120 170 91
0.408973 0.055981 0.781685 66 88 43
0.407440 0.056280 0.781406 128 150 105
0.405497 0.055685 0.780503 139 181 109
0.403967 0.055983 0.780225 134 176 104
0.402438 0.056282 0.779946 120 168 89
0.400504 0.055685 0.779046 106 154 75
0.281391 0.109130 0.774372 94 132 77
0.279786 0.109443 0.774079 105 154 80
0.278374 0.110693 0.774371 116 165 91
0.276766 0.111007 0.774078 126 176 99
0.407142 0.056205 0.782964 54 66 40
0.405610 0.056504 0.782685 121 152 95
0.403670 0.055908 0.781780 147 178 121
0.402140 0.056207 0.781502 131 179 102
0.400207 0.055610 0.780599 118 166 89
0.398680 0.055908 0.780321 105 154 70
0.282284 0.106869 0.775120 99 144 71
0.280881 0.108116 0.775416 112 157 84
0.279474 0.109365 0.775711 113 163 86
0.277869 0.109678 0.775419 129 179 102
0.405311 0.056429 0.784243 46 64 31
0.403372 0.055833 0.783336 109 127 94
0.401842 0.056132 0.783057 140 181 114
0.399910 0.055536 0.782152 144 185 118
0.398382 0.055834 0.781874 126 173 90
0.396855 0.056132 0.781596 109 156 73
0.287326 0.100877 0.774952 37 66 21
0.284559 0.103364 0.775556 91 132 65
0.283169 0.104609 0.775857 117 158 91
0.281773 0.105855 0.776157 119 168 84
0.280373 0.107103 0.776456 125 174 90
0.278967 0.108350 0.776754 134 180 102
0.403074 0.055759 0.784891 40 51 32
0.401544 0.056057 0.784613 89 118 73
0.399613 0.055461 0.783705 138 167 122
0.398085 0.055759 0.783427 148 191 112
0.396558 0.056057 0.783149 136 179 100
0.394636 0.055459 0.782242 126 174 84
0.393111 0.055756 0.781965 107 155 65
0.287017 0.100799 0.776566 79 125 56
0.285636 0.102042 0.776871 99 145 76
0.282657 0.103597 0.776886 122 170 89
0.281462 0.105777 0.777781 124 171 88
0.280061 0.107024 0.778083 130 177 94
0.399315 0.055386 0.785258 73 92 64
0.397788 0.055684 0.784980 129 165 104
0.396260 0.055982 0.784702 150 186 125
0.394339 0.055384 0.783793 139 183 99
0.392814 0.055681 0.783515 124 168 84
0.391290 0.055979 0.783238 111 159 80
0.289456 0.098239 0.777562 74 118 52
0.288084 0.099480 0.777871 100 144 78
0.286499 0.099789 0.777583 109 162 80
0.285120 0.101031 0.777891 108 161 79
0.282347 0.103519 0.778505 135 184 100
0.280953 0.104764 0.778810 134 174 103
0.397491 0.055609 0.786533 59 83 44
0.395963 0.055907 0.786255 110 134 95
0.394043 0.055309 0.785343 141 181 112
0.392518 0.055607 0.785066 148 188 119
0.390993 0.055904 0.784788 130 178 99
0.389082 0.055304 0.783878 119 167 88
0.387560 0.055601 0.783601 106 155 81
0.293454 0.095375 0.778831 48 78 41
0.292095 0.096613 0.779145 70 113 54
0.290515 0.096921 0.778858 91 134 75
0.289148 0.098161 0.779171 97 147 68
0.287565 0.098470 0.778883 113 163 84
0.286191 0.099711 0.779194 115 168 88
0.284606 0.100021 0.778906 122 175 95
0.283224 0.101263 0.779216 134 181 107
0.395666 0.055832 0.787808 38 54 31
0.393746 0.055234 0.786894 72 96 53
0.392221 0.055532 0.786616 131 155 112
0.390696 0.055830 0.786339 146 188 116
0.388401 0.054332 0.784792 141 183 111
0.386881 0.054629 0.784515 131 179 100
0.385361 0.054925 0.784238 122 170 91
0.295852 0.092824 0.779799 48 79 35
0.294502 0.094060 0.780117 78 121 60
0.293147 0.095297 0.780435 89 132 71
0.291787 0.096536 0.780752 93 142 68
0.290207 0.096844 0.780464 110 159 85
0.288840 0.098084 0.780780 116 166 87
0.287257 0.098393 0.780492 127 177 98
0.285882 0.099634 0.780806 137 184 112
0.284297 0.099943 0.780517 125 172 100
0.391924 0.055457 0.788167 55 69 47
0.390399 0.055755 0.787889 101 132 79
0.388105 0.054258 0.786337 145 176 123
0.386203 0.053656 0.785424 151 193 121
0.384685 0.053952 0.785147 141 183 111
0.383168 0.054249 0.784871 129 178 94
0.381650 0.054545 0.784595 119 168 84
0.299800 0.089972 0.781037 36 67 21
0.298462 0.091205 0.781361 58 89 43
0.296892 0.091512 0.781075 77 123 56
0.295546 0.092747 0.781397 101 147 80
0.293974 0.093054 0.781111 105 154 80
0.292840 0.095220 0.782039 109 158 84
0.291480 0.096458 0.782358 118 168 91
0.289900 0.096767 0.782071 131 181 104
0.288532 0.098006 0.782389 137 182 109
0.286949 0.098315 0.782101 132 177 104
0.390102 0.055680 0.789439 37 54 26
0.387809 0.054183 0.787882 71 88 60
0.385907 0.053582 0.786967 122 153 96
0.384390 0.053878 0.786690 151 182 125
0.382496 0.053275 0.785776 148 194 114
0.380981 0.053571 0.785500 143 189 109
0.379466 0.053867 0.785224 133 183 94
0.377951 0.054163 0.784948 119 169 80
0.300828 0.088662 0.782304 74 111 59
0.299263 0.088968 0.782019 91 139 72
0.297927 0.090201 0.782346 100 148 81
0.296586 0.091435 0.782671 103 156 78
0.295240 0.092670 0.782996 109 162 84
0.293668 0.092977 0.782710 119 169 90
0.292533 0.095143 0.783643 126 176 97
0.290956 0.095451 0.783356 140 187 113
0.289592 0.096689 0.783677 137 184 110
0.288012 0.096998 0.783390 115 148 92
0.385612 0.053508 0.788509 46 63 33
0.384095 0.053804 0.788233 85 102 72
0.382201 0.053201 0.787316 130 164 103
0.380686 0.053497 0.787040 153 187 126
0.379171 0.053793 0.786765 150 194 110
0.377656 0.054088 0.786489 146 190 106
0.376141 0.054384 0.786213 131 179 89
0.374627 0.054680 0.785937 119 167 77
0.373112 0.054975 0.785661 114 161 76
0.306296 0.085515 0.783801 63 96 52
0.304736 0.085819 0.783517 75 115 55
0.303176 0.086123 0.783233 90 130 70
0.301852 0.087354 0.783565 100 147 75
0.300523 0.088586 0.783895 104 151 79
0.298958 0.088891 0.783610 103 156 78
0.297622 0.090124 0.783939 114 167 89
0.296281 0.091358 0.784268 127 177 100
0.294934 0.092593 0.784595 135 185 108
0.293362 0.092900 0.784309 141 188 114
0.292008 0.094136 0.784635 136 183 109
0.290649 0.095373 0.784960 113 148 92
0.289285 0.096612 0.785284 59 94 38
0.381906 0.053127 0.788856 44 62 29
0.380391 0.053423 0.788581 81 99 66
0.378506 0.052819 0.787662 121 153 93
0.376993 0.053114 0.787387 147 179 119
0.375481 0.053409 0.787112 154 196 113
0.373968 0.053704 0.786836 149 191 108
0.372456 0.054000 0.786561 143 190 105
0.371302 0.055197 0.786926 130 177 92
0.369431 0.054590 0.786010 112 161 77
0.367919 0.054885 0.785735 102 151 67
0.366407 0.055180 0.785460 94 142 61
0.341668 0.170807 0.846507 40 66 26
0.308864 0.083906 0.785335 79 119 59
0.307307 0.084210 0.785052 89 134 63
0.305992 0.085438 0.785387 101 146 75
0.304433 0.085743 0.785103 102 151 67
0.302873 0.086047 0.784819 105 154 70
0.301548 0.087277 0.785153 118 166 85
0.300219 0.088509 0.785486 122 170 89
0.298654 0.088814 0.785202 128 178 101
0.297317 0.090047 0.785533 134 184 107
0.295975 0.091281 0.785864 141 182 115
0.294405 0.091587 0.785578 128 169 102
0.293056 0.092823 0.785908 98 129 83
0.378211 0.052745 0.789200 41 57 23
0.376699 0.053040 0.788925 79 95 61
0.375186 0.053335 0.788649 112 141 82
0.373674 0.053630 0.788374 147 176 117
0.372162 0.053925 0.788099 153 194 118
0.370649 0.054221 0.787823 153 194 118
0.369137 0.054516 0.787548 145 194 110
0.367625 0.054811 0.787273 138 187 103
0.366112 0.055106 0.786997 128 178 89
0.364252 0.054498 0.786081 114 164 75
0.363087 0.055697 0.786447 106 153 70
0.384145 0.161389 0.855554 40 74 25
0.382350 0.161739 0.855227 33 67 18
0.380554 0.162089 0.854900 31 62 20
0.378759 0.162440 0.854573 35 66 24
0.357215 0.166645 0.850652 31 51 16
0.355420 0.166995 0.850325 34 58 19
0.353625 0.167345 0.849998 36 60 21
0.351829 0.167696 0.849671 37 63 19
0.350034 0.168046 0.849344 44 70 26
0.348239 0.168397 0.849018 52 82 32
0.309869 0.082602 0.786579 102 150 71
0.308561 0.083829 0.786919 105 153 74
0.307004 0.084133 0.786635 112 160 79
0.305689 0.085362 0.786973 119 167 86
0.304129 0.085666 0.786690 128 176 95
0.302569 0.085971 0.786406 127 175 94
0.301244 0.087201 0.786742 135 183 104
0.299914 0.088432 0.787078 141 189 110
0.298349 0.088738 0.786793 138 177 113
0.297012 0.089970 0.787127 110 149 85
0.295444 0.090276 0.786842 80 109 66
0.374527 0.052361 0.789540 37 53 19
0.373017 0.052655 0.789266 59 75 41
0.371867 0.053851 0.789636 93 119 66
0.369998 0.053245 0.788716 133 159 106
0.368842 0.054442 0.789086 147 187 118
0.366978 0.053834 0.788166 158 198 129
0.365468 0.054129 0.787891 152 198 118
0.363958 0.054424 0.787616 150 196 116
0.362448 0.054718 0.787342 148 195 112
0.360938 0.055013 0.787067 143 190 107
0.309566 0.082526 0.788160 128 178 99
0.308258 0.083753 0.788502 133 183 104
0.306701 0.084057 0.788219 140 188 109
0.305385 0.085285 0.788560 142 190 111
0.303825 0.085590 0.788276 143 188 115
0.302502 0.086819 0.788615 139 184 111
0.300940 0.087124 0.788331 127 162 104
0.370061 0.054072 0.790899 47 59 33
0.368548 0.054368 0.790623 67 88 48
0.366684 0.053760 0.789701 97 118 78
0.365174 0.054055 0.789426 128 160 98
0.363664 0.054350 0.789152 152 184 122
0.362154 0.054644 0.788877 159 200 126
0.360645 0.054939 0.788602 166 207 133
0.309263 0.082450 0.789741 146 191 118
0.307955 0.083677 0.790086 145 190 117
0.306397 0.083981 0.789802 139 178 116
0.305082 0.085209 0.790146 117 156 94
0.303522 0.085513 0.789862 85 117 66
0.363370 0.054276 0.790687 57 72 45
0.361860 0.054570 0.790412 88 110 63
0.360351 0.054865 0.790137 113 135 88
0.308960 0.082374 0.791322 96 129 75
0.371579 0.163875 0.865194 37 53 21
0.369781 0.164226 0.864866 38 54 22
0.367983 0.164577 0.864539 39 57 24
0.366185 0.164927 0.864212 38 56 23
0.364387 0.165278 0.863885 36 54 21
0.362590 0.165629 0.863557 35 53 20
0.360792 0.165980 0.863230 34 54 21
0.358994 0.166331 0.862903 33 53 20
