ply
format ascii 1.0
element vertex 1791
property float x
property float y
property float z
property uchar red
property uchar green
property uchar blue
end_header
-0.014135 0.040300 0.582000 117 170 88
-0.012583 0.040162 0.580000 118 166 89
-0.011080 0.040162 0.580000 109 157 80
-0.014111 0.041739 0.581000 119 173 88
-0.012583 0.041667 0.580000 116 170 85
-0.011061 0.041595 0.579000 115 169 84
-0.009544 0.041523 0.578000 121 171 92
-0.008046 0.041523 0.578000 116 166 87
-0.006548 0.041523 0.578000 107 153 88
-0.005042 0.041451 0.577000 78 124 59
-0.014111 0.043246 0.581000 138 184 106
-0.012583 0.043172 0.580000 133 182 96
-0.011061 0.043098 0.579000 127 176 90
-0.009544 0.043023 0.578000 125 174 88
-0.008032 0.042949 0.577000 125 174 88
-0.006526 0.042874 0.576000 124 174 95
-0.005033 0.042874 0.576000 123 173 94
-0.003534 0.042800 0.575000 111 158 96
-0.002044 0.042800 0.575000 89 136 74
-0.000554 0.042800 0.575000 63 101 57
-0.014111 0.044754 0.581000 101 132 77
-0.012583 0.044677 0.580000 122 163 89
-0.011042 0.044523 0.578000 140 181 107
-0.009528 0.044446 0.577000 137 184 101
-0.008032 0.044446 0.577000 135 182 99
-0.006526 0.044369 0.576000 131 180 96
-0.005024 0.044292 0.575000 127 176 92
-0.003534 0.044292 0.575000 124 177 99
-0.002044 0.044292 0.575000 124 177 99
-0.000554 0.044292 0.575000 109 159 96
0.000935 0.044215 0.574000 86 136 73
0.002422 0.044215 0.574000 59 99 57
-0.015617 0.046262 0.581000 39 56 28
-0.014111 0.046262 0.581000 36 53 25
-0.012583 0.046182 0.580000 35 59 16
-0.011042 0.046023 0.578000 62 86 43
-0.009528 0.045943 0.577000 103 139 76
-0.008018 0.045864 0.576000 133 169 106
-0.006526 0.045864 0.576000 137 183 103
-0.005033 0.045864 0.576000 136 182 102
-0.003534 0.045784 0.575000 129 179 98
-0.002044 0.045784 0.575000 125 175 94
-0.000554 0.045784 0.575000 122 175 97
0.000935 0.045704 0.574000 121 174 96
0.002422 0.045704 0.574000 110 160 97
0.003903 0.045625 0.573000 84 134 71
-0.049706 0.053689 0.653000 93 116 80
-0.011042 0.047523 0.578000 44 58 36
-0.009528 0.047441 0.577000 36 59 25
-0.008018 0.047358 0.576000 43 66 32
-0.006514 0.047276 0.575000 75 110 54
-0.005024 0.047276 0.575000 110 145 89
-0.003534 0.047276 0.575000 137 183 107
-0.002044 0.047276 0.575000 136 182 106
-0.000553 0.047194 0.574000 129 182 102
0.000935 0.047194 0.574000 125 178 98
0.002418 0.047112 0.573000 125 179 103
0.003903 0.047112 0.573000 128 182 106
0.005388 0.047112 0.573000 111 164 97
0.006873 0.047112 0.573000 92 145 78
-0.049477 0.055129 0.650000 132 159 112
-0.045683 0.054621 0.644000 121 164 87
-0.006514 0.048768 0.575000 41 60 30
-0.005024 0.048768 0.575000 43 62 32
-0.003534 0.048768 0.575000 79 114 58
-0.002040 0.048684 0.574000 121 156 100
-0.000553 0.048684 0.574000 139 184 111
0.000935 0.048684 0.574000 135 180 107
0.002418 0.048599 0.573000 126 180 104
0.003903 0.048599 0.573000 126 180 104
0.005388 0.048599 0.573000 127 184 109
0.006861 0.048514 0.572000 126 183 108
0.008343 0.048514 0.572000 111 163 101
0.009809 0.048429 0.571000 78 130 68
0.011269 0.048344 0.570000 44 76 37
-0.051477 0.057166 0.654000 78 109 56
-0.050010 0.057428 0.657000 136 167 114
-0.048160 0.057253 0.655000 121 167 89
-0.046392 0.057166 0.654000 130 176 98
-0.003528 0.050173 0.574000 39 57 24
-0.002040 0.050173 0.574000 46 64 31
-0.000553 0.050173 0.574000 73 104 49
0.000933 0.050086 0.573000 132 163 108
0.002418 0.050086 0.573000 143 190 116
0.003903 0.050086 0.573000 136 183 109
0.005388 0.050086 0.573000 126 178 103
0.006861 0.049998 0.572000 127 179 104
0.008343 0.049998 0.572000 131 185 111
0.009809 0.049911 0.571000 123 177 103
0.011249 0.049736 0.569000 111 156 98
-0.051634 0.059043 0.656000 106 141 87
-0.050314 0.059493 0.661000 127 162 108
-0.047172 0.059853 0.665000 130 176 100
-0.045585 0.060033 0.667000 48 81 35
-0.000552 0.051573 0.573000 45 63 30
0.000933 0.051573 0.573000 57 75 42
0.002418 0.051573 0.573000 87 120 64
0.003903 0.051573 0.573000 134 167 111
0.005379 0.051483 0.572000 140 187 113
0.006861 0.051483 0.572000 135 182 108
0.008329 0.051393 0.571000 127 180 102
0.009809 0.051393 0.571000 129 182 104
0.011249 0.051213 0.569000 132 183 113
0.012701 0.051123 0.568000 122 173 103
-0.051870 0.061023 0.659000 127 162 104
-0.048822 0.061486 0.664000 129 175 99
-0.047314 0.061764 0.667000 117 163 87
-0.045927 0.062227 0.672000 22 53 11
-0.044712 0.062968 0.680000 31 62 20
0.002418 0.053059 0.573000 38 57 29
0.003903 0.053059 0.573000 51 70 42
0.005379 0.052967 0.572000 100 135 81
0.006861 0.052967 0.572000 136 171 117
0.008329 0.052874 0.571000 138 186 109
0.009791 0.052782 0.570000 134 182 105
0.011249 0.052689 0.569000 126 179 101
0.012701 0.052596 0.568000 130 183 105
0.014148 0.052504 0.567000 129 182 113
0.015618 0.052504 0.567000 115 168 99
-0.053659 0.062828 0.660000 45 62 36
-0.050467 0.063114 0.663000 123 162 100
-0.049043 0.063495 0.667000 135 180 107
-0.047598 0.063875 0.671000 94 139 66
0.005379 0.054451 0.572000 35 57 26
0.006861 0.054451 0.572000 59 81 50
0.008329 0.054356 0.571000 111 149 90
0.009791 0.054261 0.570000 142 180 121
0.011249 0.054166 0.569000 138 188 111
0.012701 0.054070 0.568000 129 179 102
0.014148 0.053975 0.567000 128 183 104
0.015618 0.053975 0.567000 130 185 106
0.017087 0.053975 0.567000 124 177 108
0.018524 0.053880 0.566000 97 150 81
-0.054228 0.065226 0.667000 54 71 43
-0.052264 0.064932 0.664000 134 175 110
-0.050695 0.065128 0.666000 125 166 101
-0.049263 0.065519 0.670000 137 183 107
-0.047882 0.066008 0.675000 70 116 40
0.006849 0.055838 0.571000 49 60 41
0.008329 0.055838 0.571000 38 64 24
0.009809 0.055838 0.571000 83 109 69
0.011249 0.055642 0.569000 116 160 96
0.012724 0.055642 0.569000 138 182 118
0.014173 0.055544 0.568000 130 182 107
0.015618 0.055447 0.567000 125 177 102
0.017087 0.055447 0.567000 130 184 108
0.018524 0.055349 0.566000 123 177 101
0.019991 0.055349 0.566000 107 157 94
0.021457 0.055349 0.566000 73 123 60
-0.054310 0.067057 0.668000 72 89 59
-0.052421 0.066856 0.666000 140 179 113
-0.050847 0.067057 0.668000 132 171 105
-0.049557 0.067659 0.674000 138 181 106
-0.048023 0.067960 0.677000 61 104 29
0.009809 0.057320 0.571000 44 58 38
0.011269 0.057219 0.570000 42 71 30
0.012724 0.057119 0.569000 90 119 78
0.014198 0.057119 0.569000 131 179 112
0.015645 0.057018 0.568000 138 186 119
0.017087 0.056918 0.567000 123 180 103
0.018557 0.056918 0.567000 123 180 103
0.019991 0.056818 0.566000 120 177 102
0.021457 0.056818 0.566000 113 170 95
0.022924 0.056818 0.566000 97 147 88
-0.054472 0.068996 0.670000 87 103 69
-0.052500 0.068687 0.667000 141 178 108
-0.051076 0.069099 0.671000 135 172 102
-0.049704 0.069614 0.676000 138 180 108
0.012768 0.058801 0.571000 39 55 34
0.014198 0.058595 0.569000 63 96 54
0.015645 0.058492 0.568000 113 146 104
0.017117 0.058492 0.568000 136 187 117
0.018557 0.058389 0.567000 136 187 117
0.019991 0.058286 0.566000 128 186 106
0.021457 0.058286 0.566000 123 181 101
0.022884 0.058183 0.565000 123 180 105
0.024348 0.058183 0.565000 106 163 88
-0.054635 0.070946 0.672000 89 106 69
-0.052657 0.070629 0.669000 134 172 99
-0.051304 0.071157 0.674000 140 178 105
-0.049778 0.071474 0.677000 138 178 107
-0.048165 0.071685 0.679000 47 87 16
0.015673 0.060072 0.569000 42 62 43
0.017147 0.060072 0.569000 83 122 71
0.018557 0.059861 0.567000 137 176 125
0.020026 0.059861 0.567000 137 190 112
0.021457 0.059755 0.566000 129 182 104
0.022884 0.059650 0.565000 124 179 98
0.024348 0.059650 0.565000 123 178 97
0.025812 0.059650 0.565000 122 173 105
-0.052972 0.072798 0.673000 144 182 109
-0.051456 0.073123 0.676000 143 181 108
-0.049851 0.073339 0.678000 137 177 108
-0.048236 0.073555 0.680000 41 81 12
0.017147 0.061548 0.569000 37 61 33
0.018589 0.061440 0.568000 69 93 65
0.020026 0.061332 0.567000 125 166 103
0.021457 0.061224 0.566000 146 187 124
0.022884 0.061116 0.565000 131 181 100
0.024348 0.061116 0.565000 128 178 97
0.025767 0.061008 0.564000 124 177 95
0.027228 0.061008 0.564000 118 171 89
0.028690 0.061008 0.564000 105 152 92
-0.055041 0.074988 0.677000 102 119 78
-0.053208 0.074877 0.676000 154 192 119
-0.051608 0.075098 0.678000 147 185 112
-0.049851 0.075098 0.678000 134 173 107
-0.048307 0.075431 0.681000 37 76 10
0.020061 0.062914 0.568000 53 82 41
0.021457 0.062693 0.566000 96 125 84
0.022884 0.062582 0.565000 137 182 111
0.024348 0.062582 0.565000 134 179 108
0.025767 0.062471 0.564000 126 177 93
0.027228 0.062471 0.564000 125 176 92
0.028690 0.062471 0.564000 122 174 99
0.030098 0.062360 0.563000 115 167 92
0.031557 0.062360 0.563000 80 123 75
-0.055123 0.076858 0.678000 96 113 74
-0.053366 0.076858 0.678000 151 189 116
-0.051608 0.076858 0.678000 151 189 116
-0.049925 0.076971 0.679000 134 176 106
-0.048378 0.077311 0.682000 39 81 11
0.021457 0.064161 0.566000 45 59 37
0.022884 0.064048 0.565000 67 99 48
0.024305 0.063935 0.564000 130 162 111
0.025767 0.063935 0.564000 141 189 112
0.027228 0.063935 0.564000 131 179 102
0.028690 0.063935 0.564000 122 175 95
0.030098 0.063821 0.563000 121 174 94
0.031557 0.063821 0.563000 117 168 102
0.033016 0.063821 0.563000 93 144 78
0.034414 0.063708 0.562000 41 76 36
-0.055123 0.078617 0.678000 88 107 69
-0.053366 0.078617 0.678000 141 181 110
-0.051685 0.078733 0.679000 147 187 116
-0.049998 0.078849 0.680000 134 176 106
-0.046679 0.079197 0.683000 27 51 21
0.022884 0.065514 0.565000 44 63 33
0.024305 0.065398 0.564000 55 74 44
0.025767 0.065398 0.564000 112 151 89
0.027228 0.065398 0.564000 144 183 121
0.028639 0.065282 0.563000 135 185 108
0.030098 0.065282 0.563000 129 179 102
0.031501 0.065166 0.562000 122 176 100
0.032958 0.065166 0.562000 122 176 100
0.034353 0.065050 0.561000 107 152 92
0.035807 0.065050 0.561000 53 98 38
-0.055285 0.080614 0.680000 85 103 68
-0.053444 0.080495 0.679000 140 182 112
-0.051685 0.080495 0.679000 146 188 118
-0.050072 0.080732 0.681000 137 182 111
-0.046747 0.081088 0.684000 25 49 19
0.025767 0.066862 0.564000 45 70 33
0.027228 0.066862 0.564000 92 117 80
0.028639 0.066743 0.563000 138 184 115
0.030098 0.066743 0.563000 140 186 117
0.031501 0.066625 0.562000 130 183 105
0.032958 0.066625 0.562000 125 178 100
0.034353 0.066506 0.561000 127 179 106
0.035807 0.066506 0.561000 104 156 83
0.037261 0.066506 0.561000 61 102 53
-0.055285 0.082378 0.680000 73 92 62
-0.053523 0.082378 0.680000 139 183 115
-0.051761 0.082378 0.680000 148 192 124
-0.050072 0.082499 0.681000 141 186 115
-0.046747 0.082863 0.684000 23 47 15
0.027180 0.068204 0.563000 45 60 42
0.028639 0.068204 0.563000 71 105 56
0.030098 0.068204 0.563000 135 169 120
0.031501 0.068083 0.562000 143 193 114
0.032958 0.068083 0.562000 135 185 106
0.034353 0.067962 0.561000 125 178 96
0.035807 0.067962 0.561000 123 176 94
0.037261 0.067962 0.561000 111 159 94
0.038714 0.067962 0.561000 71 119 54
-0.055367 0.084267 0.681000 56 75 47
-0.053523 0.084143 0.680000 140 186 119
-0.051837 0.084267 0.681000 147 193 126
-0.048378 0.084390 0.682000 55 101 32
-0.046816 0.084762 0.685000 25 50 15
0.030045 0.069542 0.562000 55 74 48
0.031445 0.069418 0.561000 117 161 95
0.032899 0.069418 0.561000 146 190 124
0.034353 0.069418 0.561000 138 192 107
0.035807 0.069418 0.561000 129 183 98
0.037261 0.069418 0.561000 120 174 98
0.038714 0.069418 0.561000 120 174 98
0.040168 0.069418 0.561000 86 135 79
-0.055773 0.086665 0.686000 47 66 40
-0.053680 0.086160 0.682000 142 188 123
-0.051913 0.086160 0.682000 148 194 129
-0.050146 0.086160 0.682000 144 190 121
-0.048449 0.086286 0.683000 60 106 37
-0.046816 0.086539 0.685000 23 48 13
0.031445 0.070874 0.561000 45 74 29
0.032899 0.070874 0.561000 106 135 90
0.034353 0.070874 0.561000 143 189 113
0.035743 0.070747 0.560000 148 194 118
0.037194 0.070747 0.560000 129 182 102
0.038645 0.070747 0.560000 125 178 98
0.040097 0.070747 0.560000 117 170 99
0.041622 0.070874 0.561000 95 148 77
-0.055854 0.088575 0.687000 39 56 30
-0.053838 0.088188 0.684000 139 183 119
-0.051989 0.088059 0.683000 150 194 130
-0.050219 0.088059 0.683000 147 194 122
-0.048449 0.088059 0.683000 69 116 44
-0.046816 0.088317 0.685000 20 45 10
0.032899 0.072329 0.561000 43 60 32
0.034292 0.072200 0.560000 96 131 73
0.035743 0.072200 0.560000 147 182 124
0.037194 0.072200 0.560000 143 193 116
0.038645 0.072200 0.560000 134 184 107
0.040097 0.072200 0.560000 121 176 97
0.041548 0.072200 0.560000 111 166 87
0.042999 0.072200 0.560000 108 153 93
0.044530 0.072329 0.561000 59 104 44
-0.055854 0.090357 0.687000 32 49 23
-0.053917 0.090094 0.685000 132 171 109
-0.052065 0.089963 0.684000 152 191 129
-0.050219 0.089831 0.683000 148 195 123
-0.048591 0.090094 0.685000 80 127 55
-0.046884 0.090226 0.686000 15 43 7
0.034292 0.073654 0.560000 43 61 26
0.035743 0.073654 0.560000 86 104 69
0.037194 0.073654 0.560000 138 179 112
0.038645 0.073654 0.560000 150 191 124
0.040097 0.073654 0.560000 141 194 114
0.041548 0.073654 0.560000 124 177 97
0.042999 0.073654 0.560000 124 173 101
0.044530 0.073785 0.561000 112 161 89
0.045984 0.073785 0.561000 69 105 58
-0.055936 0.092274 0.688000 33 49 26
-0.053995 0.092006 0.686000 122 158 97
-0.052141 0.091872 0.685000 153 189 128
-0.050366 0.091872 0.685000 148 195 123
-0.048591 0.091872 0.685000 102 149 77
-0.046952 0.092140 0.687000 10 40 3
0.035743 0.075107 0.560000 49 60 39
0.037194 0.075107 0.560000 55 82 35
0.038645 0.075107 0.560000 131 158 111
0.040097 0.075107 0.560000 150 197 123
0.041548 0.075107 0.560000 148 195 121
0.043076 0.075241 0.561000 136 186 107
0.044451 0.075107 0.560000 121 171 92
0.045984 0.075241 0.561000 116 164 99
0.047438 0.075241 0.561000 71 119 54
-0.054074 0.093923 0.687000 112 145 87
-0.052217 0.093786 0.686000 151 184 126
-0.050440 0.093786 0.686000 149 194 123
-0.048662 0.093786 0.686000 119 164 93
-0.046952 0.093923 0.687000 15 47 10
0.040097 0.076560 0.560000 116 154 95
0.041548 0.076560 0.560000 155 193 134
0.043076 0.076697 0.561000 148 198 119
0.044530 0.076697 0.561000 129 179 100
0.045984 0.076697 0.561000 121 170 96
0.047353 0.076560 0.560000 116 165 91
0.048892 0.076697 0.561000 74 113 60
-0.054153 0.095845 0.688000 94 127 71
-0.052294 0.095706 0.687000 151 184 128
-0.050513 0.095706 0.687000 148 193 122
-0.048733 0.095706 0.687000 129 174 103
-0.047021 0.095845 0.688000 22 54 15
-0.045303 0.095984 0.689000 26 58 19
0.040168 0.078153 0.561000 48 74 34
0.041622 0.078153 0.561000 112 138 98
0.043076 0.078153 0.561000 151 196 123
0.044530 0.078153 0.561000 148 193 120
0.045984 0.078153 0.561000 144 192 111
0.047438 0.078153 0.561000 126 174 93
0.048892 0.078153 0.561000 121 165 97
0.050435 0.078292 0.562000 74 118 50
-0.054231 0.097772 0.689000 79 112 58
-0.052370 0.097630 0.688000 153 186 132
-0.050587 0.097630 0.688000 146 191 118
-0.048804 0.097630 0.688000 137 182 109
-0.047089 0.097772 0.689000 44 77 31
-0.045369 0.097914 0.690000 15 48 2
0.041622 0.079608 0.561000 49 66 40
0.043076 0.079608 0.561000 108 143 85
0.044530 0.079608 0.561000 151 186 128
0.045984 0.079608 0.561000 156 202 122
0.047438 0.079608 0.561000 148 194 114
0.048892 0.079608 0.561000 130 179 95
0.050345 0.079608 0.561000 118 167 83
0.051892 0.079750 0.562000 76 116 60
0.053348 0.079750 0.562000 36 76 20
-0.054310 0.099705 0.690000 56 86 38
-0.052446 0.099560 0.689000 149 179 131
-0.050587 0.099416 0.688000 144 186 116
-0.048875 0.099560 0.689000 145 187 117
-0.047089 0.099560 0.689000 63 97 46
-0.045369 0.099705 0.690000 13 47 0
0.043076 0.081064 0.561000 42 65 29
0.044609 0.081209 0.562000 98 121 85
0.045984 0.081064 0.561000 146 188 118
0.047438 0.081064 0.561000 161 203 133
0.048892 0.081064 0.561000 152 200 119
0.050345 0.081064 0.561000 135 183 102
0.051892 0.081209 0.562000 123 169 100
0.053348 0.081209 0.562000 85 131 62
-0.054310 0.101495 0.690000 40 66 24
-0.052446 0.101348 0.689000 147 173 131
-0.050660 0.101348 0.689000 148 190 120
-0.048875 0.101348 0.689000 147 189 119
-0.047089 0.101348 0.689000 84 119 65
-0.045369 0.101495 0.690000 11 46 0
0.044609 0.082667 0.562000 44 60 37
0.046066 0.082667 0.562000 83 118 64
0.047522 0.082667 0.562000 146 181 127
0.048979 0.082667 0.562000 160 206 130
0.050435 0.082667 0.562000 153 199 123
0.051892 0.082667 0.562000 136 185 111
0.053348 0.082667 0.562000 118 167 93
0.054805 0.082667 0.562000 89 125 78
0.056261 0.082667 0.562000 40 76 29
-0.054310 0.103286 0.690000 28 54 14
-0.052522 0.103286 0.690000 127 153 113
-0.050660 0.103136 0.689000 148 193 122
-0.048875 0.103136 0.689000 145 190 119
-0.047157 0.103286 0.690000 101 139 82
-0.045369 0.103286 0.690000 9 47 0
0.046066 0.084125 0.562000 35 59 27
0.047438 0.083976 0.561000 74 98 66
0.048979 0.084125 0.562000 145 186 119
0.050435 0.084125 0.562000 162 203 136
0.051892 0.084125 0.562000 155 203 124
0.053348 0.084125 0.562000 133 181 102
0.054707 0.083976 0.561000 125 170 108
0.056261 0.084125 0.562000 90 135 73
-0.052522 0.105076 0.690000 101 121 86
-0.050734 0.105076 0.690000 152 194 124
-0.048946 0.105076 0.690000 148 190 120
-0.047157 0.105076 0.690000 110 150 90
-0.045435 0.105229 0.691000 11 51 0
0.048979 0.085584 0.562000 79 111 60
0.050435 0.085584 0.562000 150 182 131
0.051892 0.085584 0.562000 162 208 132
0.053348 0.085584 0.562000 153 199 123
0.054805 0.085584 0.562000 131 178 104
0.056261 0.085584 0.562000 121 168 94
0.057717 0.085584 0.562000 93 133 77
-0.052598 0.107022 0.691000 80 98 65
-0.050807 0.107022 0.691000 152 192 123
-0.048946 0.106867 0.690000 144 184 115
-0.047226 0.107022 0.691000 129 170 107
-0.045435 0.107022 0.691000 22 63 0
0.050435 0.087042 0.562000 80 99 69
0.051892 0.087042 0.562000 143 179 114
0.053348 0.087042 0.562000 162 198 133
0.054805 0.087042 0.562000 148 195 112
0.056261 0.087042 0.562000 129 176 93
0.057717 0.087042 0.562000 128 175 101
0.059174 0.087042 0.562000 93 140 66
0.060630 0.087042 0.562000 46 77 35
-0.052598 0.108815 0.691000 69 84 55
-0.050807 0.108815 0.691000 151 187 122
-0.049016 0.108815 0.691000 147 183 118
-0.047226 0.108815 0.691000 140 179 113
-0.045435 0.108815 0.691000 40 79 13
0.051984 0.088658 0.563000 73 101 49
0.053348 0.088501 0.562000 148 176 124
0.054707 0.088343 0.561000 155 201 121
0.056261 0.088501 0.562000 146 192 112
0.057717 0.088501 0.562000 134 182 101
0.059174 0.088501 0.562000 125 173 92
0.060630 0.088501 0.562000 94 134 76
0.062197 0.088658 0.563000 41 81 23
-0.052674 0.110768 0.692000 50 62 38
-0.050807 0.110608 0.691000 139 173 110
-0.049016 0.110608 0.691000 153 187 124
-0.047226 0.110608 0.691000 145 185 116
-0.045435 0.110608 0.691000 73 113 44
-0.043707 0.110768 0.692000 16 41 4
0.053348 0.089959 0.562000 81 100 62
0.054805 0.089959 0.562000 143 186 111
0.056261 0.089959 0.562000 157 200 125
0.057717 0.089959 0.562000 142 193 109
0.059174 0.089959 0.562000 129 180 96
0.060630 0.089959 0.562000 126 175 103
0.062197 0.090119 0.563000 90 139 67
0.063656 0.090119 0.563000 41 72 30
-0.052674 0.112564 0.692000 36 47 26
-0.050881 0.112564 0.692000 120 152 92
-0.049016 0.112401 0.691000 159 191 131
-0.047226 0.112401 0.691000 146 188 118
-0.045501 0.112564 0.692000 105 147 77
-0.043707 0.112564 0.692000 16 45 4
0.054805 0.091417 0.562000 82 118 57
0.056261 0.091417 0.562000 144 180 119
0.057717 0.091417 0.562000 154 202 121
0.059174 0.091417 0.562000 144 192 111
0.060738 0.091580 0.563000 132 182 103
0.062197 0.091580 0.563000 127 177 98
0.063656 0.091580 0.563000 88 128 70
-0.050881 0.114360 0.692000 111 140 81
-0.049087 0.114360 0.692000 161 190 131
-0.047294 0.114360 0.692000 145 190 117
-0.045501 0.114360 0.692000 124 169 96
-0.043770 0.114525 0.693000 25 58 14
0.054805 0.092876 0.562000 34 59 22
0.056361 0.093041 0.563000 81 106 69
0.057717 0.092876 0.562000 139 184 113
0.059279 0.093041 0.563000 151 196 125
0.060738 0.093041 0.563000 141 192 108
0.062197 0.093041 0.563000 128 179 95
0.063656 0.093041 0.563000 130 177 103
0.065231 0.093206 0.564000 86 133 59
-0.050954 0.116323 0.693000 81 107 52
-0.049158 0.116323 0.693000 163 189 134
-0.047294 0.116155 0.692000 145 190 117
-0.045566 0.116323 0.693000 135 180 107
-0.043770 0.116323 0.693000 40 76 29
0.056361 0.094502 0.563000 42 58 37
0.057820 0.094502 0.563000 84 121 69
0.059279 0.094502 0.563000 146 183 131
0.060738 0.094502 0.563000 151 199 118
0.062197 0.094502 0.563000 140 188 107
0.063769 0.094670 0.564000 127 177 96
0.065231 0.094670 0.564000 124 174 93
0.066693 0.094670 0.564000 73 112 59
-0.050954 0.118121 0.693000 48 74 23
-0.049158 0.118121 0.693000 160 186 135
-0.047362 0.118121 0.693000 145 190 117
-0.045566 0.118121 0.693000 137 182 109
-0.043770 0.118121 0.693000 62 101 48
-0.042035 0.118292 0.694000 9 48 0
0.057820 0.095963 0.563000 38 63 28
0.059279 0.095963 0.563000 87 112 77
0.060846 0.096133 0.564000 146 191 118
0.062308 0.096133 0.564000 146 191 118
0.063769 0.096133 0.564000 136 187 103
0.065231 0.096133 0.564000 133 184 100
0.066693 0.096133 0.564000 119 165 96
-0.049158 0.119920 0.693000 133 157 114
-0.047362 0.119920 0.693000 148 193 120
-0.045566 0.119920 0.693000 139 184 111
-0.043834 0.120093 0.694000 91 131 71
-0.042096 0.120266 0.695000 6 46 0
0.059385 0.097597 0.564000 43 59 36
0.060846 0.097597 0.564000 101 136 82
0.062308 0.097597 0.564000 151 186 132
0.063769 0.097597 0.564000 147 195 116
0.065231 0.097597 0.564000 141 189 110
0.066693 0.097597 0.564000 131 179 100
0.068275 0.097770 0.565000 123 171 92
-0.049229 0.121894 0.694000 100 120 85
-0.047431 0.121894 0.694000 151 193 123
-0.045632 0.121894 0.694000 145 187 117
-0.043834 0.121894 0.694000 122 166 102
-0.042096 0.122069 0.695000 14 58 0
0.060846 0.099061 0.564000 38 61 27
0.062308 0.099061 0.564000 106 129 95
0.063769 0.099061 0.564000 150 192 122
0.065231 0.099061 0.564000 152 194 124
0.066693 0.099061 0.564000 133 183 102
0.068275 0.099236 0.565000 131 181 100
0.069739 0.099236 0.565000 119 163 97
-0.049371 0.124051 0.696000 76 94 61
-0.047499 0.123873 0.695000 153 194 127
-0.045698 0.123873 0.695000 147 188 121
-0.043897 0.123873 0.695000 137 181 117
-0.042156 0.124051 0.696000 41 85 21
0.062308 0.100524 0.564000 43 59 36
0.063883 0.100702 0.565000 107 140 84
0.065347 0.100702 0.565000 156 189 133
0.066811 0.100702 0.565000 144 192 111
0.068275 0.100702 0.565000 131 179 98
0.069863 0.100881 0.566000 136 182 104
0.071330 0.100881 0.566000 117 163 85
-0.049371 0.125857 0.696000 52 67 40
-0.047567 0.125857 0.696000 148 189 124
-0.045764 0.125857 0.696000 148 189 124
-0.043960 0.125857 0.696000 143 189 122
-0.042156 0.125857 0.696000 72 118 51
-0.040468 0.126219 0.698000 11 40 8
0.063883 0.102169 0.565000 43 64 26
0.065347 0.102169 0.565000 119 140 102
0.066929 0.102349 0.566000 153 196 119
0.068396 0.102349 0.566000 143 186 109
0.069986 0.102530 0.567000 136 183 100
0.071456 0.102530 0.567000 128 175 92
0.072925 0.102530 0.567000 107 147 87
-0.049442 0.127847 0.697000 36 52 29
-0.047567 0.127663 0.696000 128 168 110
-0.045764 0.127663 0.696000 153 193 135
-0.043960 0.127663 0.696000 141 189 120
-0.042217 0.127847 0.697000 91 139 70
-0.040468 0.128030 0.698000 11 41 4
0.065578 0.104002 0.567000 50 61 40
0.067047 0.104002 0.567000 131 163 103
0.068517 0.104002 0.567000 158 190 130
0.070110 0.104185 0.568000 139 185 105
0.071582 0.104185 0.568000 132 178 98
0.073054 0.104185 0.568000 134 179 108
0.074657 0.104369 0.569000 99 144 73
-0.047636 0.129656 0.697000 84 123 70
-0.045764 0.129470 0.696000 154 193 140
-0.043960 0.129470 0.696000 141 189 120
-0.042217 0.129656 0.697000 117 165 96
-0.040468 0.129842 0.698000 16 49 7
0.067284 0.105845 0.569000 56 77 37
0.068759 0.105845 0.569000 139 160 120
0.070233 0.105845 0.569000 154 196 124
0.071708 0.105845 0.569000 141 183 111
0.073182 0.105845 0.569000 136 184 107
0.074788 0.106031 0.570000 133 181 104
-0.047636 0.131464 0.697000 62 96 47
-0.045829 0.131464 0.697000 157 191 142
-0.044023 0.131464 0.697000 146 195 123
-0.042277 0.131653 0.698000 133 182 110
-0.040468 0.131653 0.698000 30 66 19
0.068879 0.107510 0.570000 68 83 56
0.070357 0.107510 0.570000 134 173 109
0.071834 0.107510 0.570000 151 190 126
0.073311 0.107510 0.570000 134 182 103
0.074788 0.107510 0.570000 137 185 106
0.076399 0.107699 0.571000 128 172 108
-0.047704 0.133464 0.698000 50 79 34
-0.045895 0.133464 0.698000 156 185 140
-0.044086 0.133464 0.698000 154 201 129
-0.042277 0.133464 0.698000 143 190 118
-0.040468 0.133464 0.698000 60 99 48
-0.038715 0.133655 0.699000 5 44 0
0.070480 0.109181 0.571000 64 94 44
0.071960 0.109181 0.571000 143 173 123
0.073440 0.109181 0.571000 146 192 116
0.074919 0.109181 0.571000 138 184 108
0.076399 0.109181 0.571000 133 180 106
0.077879 0.109181 0.571000 125 172 98
-0.047704 0.135276 0.698000 35 61 21
-0.045895 0.135276 0.698000 141 167 127
-0.044086 0.135276 0.698000 159 203 135
-0.042277 0.135276 0.698000 148 192 124
-0.040468 0.135276 0.698000 96 133 81
-0.038715 0.135469 0.699000 9 46 0
0.072086 0.110856 0.572000 83 103 70
0.073568 0.110856 0.572000 145 187 117
0.075051 0.110856 0.572000 148 190 120
0.076533 0.110856 0.572000 135 183 106
0.078015 0.110856 0.572000 133 181 104
0.079498 0.110856 0.572000 117 157 99
-0.045895 0.137087 0.698000 111 131 98
-0.044086 0.137087 0.698000 161 202 135
-0.042277 0.137087 0.698000 151 192 125
-0.040526 0.137283 0.699000 122 161 97
-0.038715 0.137283 0.699000 17 56 0
0.072086 0.112340 0.572000 41 55 35
0.073568 0.112340 0.572000 92 124 73
0.075051 0.112340 0.572000 150 182 131
0.076533 0.112340 0.572000 149 195 119
0.078015 0.112340 0.572000 142 188 112
0.079637 0.112537 0.573000 137 183 114
0.081122 0.112537 0.573000 109 155 86
-0.045895 0.138898 0.698000 63 80 50
-0.044086 0.138898 0.698000 158 197 133
-0.042277 0.138898 0.698000 154 193 129
-0.040526 0.139097 0.699000 138 178 107
-0.038715 0.139097 0.699000 41 81 10
0.073697 0.114024 0.573000 43 63 30
0.075051 0.113825 0.572000 113 133 100
0.076667 0.114024 0.573000 151 193 123
0.078152 0.114024 0.573000 147 189 119
0.079637 0.114024 0.573000 136 183 109
0.081122 0.114024 0.573000 133 180 106
-0.045961 0.140911 0.699000 45 62 34
-0.044086 0.140709 0.698000 150 186 123
-0.042277 0.140709 0.698000 160 196 133
-0.040526 0.140911 0.699000 147 189 117
-0.038715 0.140911 0.699000 68 110 38
0.075182 0.115511 0.573000 53 64 45
0.076667 0.115511 0.573000 118 153 97
0.078152 0.115511 0.573000 155 190 134
0.079637 0.115511 0.573000 142 189 115
0.081122 0.115511 0.573000 141 188 114
0.082751 0.115712 0.574000 130 176 111
-0.045961 0.142725 0.699000 34 49 22
-0.044149 0.142725 0.699000 131 165 104
-0.042338 0.142725 0.699000 166 200 139
-0.040526 0.142725 0.699000 153 195 125
-0.038715 0.142725 0.699000 97 139 69
-0.036956 0.142929 0.700000 12 41 0
0.076667 0.116998 0.573000 58 84 42
0.078152 0.116998 0.573000 139 165 123
0.079637 0.116998 0.573000 145 190 119
0.081263 0.117202 0.574000 142 187 116
0.082751 0.117202 0.574000 140 189 117
-0.044149 0.144539 0.699000 103 131 77
-0.042338 0.144539 0.699000 172 200 146
-0.040526 0.144539 0.699000 155 195 126
-0.038715 0.144539 0.699000 125 165 96
-0.036956 0.144746 0.700000 22 51 6
0.078152 0.118485 0.573000 64 81 55
0.079776 0.118691 0.574000 139 178 114
0.081263 0.118691 0.574000 152 191 127
0.082895 0.118898 0.575000 141 190 116
0.086025 0.119105 0.576000 112 155 98
-0.044213 0.146562 0.700000 65 95 45
-0.042398 0.146562 0.700000 161 191 141
-0.040526 0.146353 0.699000 162 202 133
-0.038770 0.146562 0.700000 140 180 111
-0.036956 0.146562 0.700000 37 67 17
0.079776 0.120181 0.574000 81 113 62
0.082895 0.120390 0.575000 144 192 115
0.084532 0.120600 0.576000 138 186 109
0.086323 0.121018 0.578000 136 182 113
0.087973 0.121228 0.579000 101 147 78
-0.044213 0.148379 0.700000 30 59 14
-0.042398 0.148379 0.700000 154 183 138
-0.040584 0.148379 0.700000 166 206 137
-0.038770 0.148379 0.700000 148 188 119
-0.036956 0.148379 0.700000 69 100 47
0.081405 0.121882 0.575000 109 134 99
0.083039 0.122094 0.576000 148 193 122
0.084825 0.122518 0.578000 141 186 115
0.086622 0.122942 0.580000 141 189 112
0.088125 0.122942 0.580000 130 178 101
-0.044213 0.150195 0.700000 29 50 10
-0.042398 0.150195 0.700000 147 168 128
-0.040584 0.150195 0.700000 169 206 138
-0.038770 0.150195 0.700000 158 195 127
-0.036956 0.150195 0.700000 95 128 72
-0.035142 0.150195 0.700000 23 56 0
0.081546 0.123589 0.576000 54 72 51
0.083183 0.123804 0.577000 125 164 102
0.084972 0.124233 0.579000 151 190 128
0.086771 0.124662 0.581000 139 185 107
0.088429 0.124877 0.582000 136 182 104
0.089937 0.124877 0.582000 125 164 100
-0.044276 0.152229 0.701000 28 47 7
-0.042398 0.152012 0.700000 115 134 94
-0.040584 0.152012 0.700000 171 204 135
-0.038770 0.152012 0.700000 168 201 132
-0.036956 0.152012 0.700000 117 150 92
-0.035142 0.152012 0.700000 25 58 0
0.083328 0.125518 0.578000 59 85 41
0.085119 0.125952 0.580000 139 165 121
0.086771 0.126170 0.581000 152 195 120
0.088429 0.126387 0.582000 141 184 109
0.089937 0.126387 0.582000 139 182 107
-0.042459 0.154048 0.701000 72 90 55
-0.040642 0.154048 0.701000 168 201 134
-0.038826 0.154048 0.701000 166 199 132
-0.036956 0.153828 0.700000 135 169 108
-0.035142 0.153828 0.700000 36 70 9
0.083616 0.127458 0.580000 45 62 32
0.085266 0.127677 0.581000 86 103 73
0.086921 0.127897 0.582000 147 183 118
0.088581 0.128117 0.583000 147 183 118
0.090092 0.128117 0.583000 140 183 106
0.091760 0.128337 0.584000 140 183 106
-0.042459 0.155867 0.701000 49 66 38
-0.040642 0.155867 0.701000 157 191 128
-0.038826 0.155867 0.701000 165 199 136
-0.037009 0.155867 0.701000 143 179 116
-0.035192 0.155867 0.701000 55 91 28
0.085413 0.129407 0.582000 52 66 46
0.087070 0.129630 0.583000 110 143 89
0.088733 0.129852 0.584000 156 189 135
0.090246 0.129852 0.584000 142 188 112
0.092074 0.130297 0.586000 142 188 112
0.093593 0.130297 0.586000 129 167 108
-0.042520 0.157911 0.702000 30 46 23
-0.040642 0.157686 0.701000 139 172 114
-0.038826 0.157686 0.701000 167 200 142
-0.037009 0.157686 0.701000 147 186 120
-0.035192 0.157686 0.701000 85 124 58
0.087220 0.131368 0.584000 50 79 38
0.089037 0.131817 0.586000 128 157 116
0.090710 0.132042 0.587000 148 191 116
0.092388 0.132267 0.588000 143 186 111
0.093912 0.132267 0.588000 141 183 113
-0.042520 0.159733 0.702000 28 44 23
-0.040642 0.159505 0.701000 116 149 93
-0.038826 0.159505 0.701000 165 198 142
-0.037009 0.159505 0.701000 153 195 125
-0.035192 0.159505 0.701000 116 158 88
-0.033376 0.159505 0.701000 24 53 12
0.087668 0.133566 0.587000 36 55 29
0.089341 0.133793 0.588000 70 89 63
0.091019 0.134021 0.589000 139 178 112
0.092546 0.134021 0.589000 146 185 119
0.094232 0.134248 0.590000 141 184 107
0.095761 0.134248 0.590000 141 184 107
-0.040642 0.161324 0.701000 82 113 60
-0.038826 0.161324 0.701000 165 196 143
-0.037009 0.161324 0.701000 160 200 131
-0.035192 0.161324 0.701000 132 172 103
-0.033376 0.161324 0.701000 28 57 14
0.091174 0.135779 0.590000 95 128 72
0.092860 0.136009 0.591000 152 185 129
0.094391 0.136009 0.591000 140 183 106
0.095923 0.136009 0.591000 145 188 111
0.097455 0.136009 0.591000 132 167 109
-0.040700 0.163376 0.702000 54 79 31
-0.038826 0.163143 0.701000 162 187 139
-0.037009 0.163143 0.701000 157 194 126
-0.035192 0.163143 0.701000 144 181 113
-0.033376 0.163143 0.701000 40 69 24
0.091328 0.137543 0.591000 48 74 32
0.092860 0.137543 0.591000 133 159 117
0.094391 0.137543 0.591000 144 187 112
0.096085 0.137776 0.592000 138 181 106
0.097620 0.137776 0.592000 139 179 110
-0.040700 0.165198 0.702000 39 64 18
-0.038826 0.164962 0.701000 152 177 131
-0.037009 0.164962 0.701000 152 191 125
-0.035192 0.164962 0.701000 149 188 122
-0.033376 0.164962 0.701000 65 97 48
0.091483 0.139312 0.592000 35 55 22
0.093017 0.139312 0.592000 88 108 75
0.094711 0.139547 0.593000 144 186 116
0.096248 0.139547 0.593000 140 182 112
0.097949 0.139783 0.594000 138 183 110
0.099656 0.140018 0.595000 131 176 103
-0.040700 0.167019 0.702000 26 52 12
-0.038826 0.166782 0.701000 131 157 117
-0.037009 0.166782 0.701000 153 194 129
-0.035192 0.166782 0.701000 151 192 127
-0.033376 0.166782 0.701000 82 115 61
0.093331 0.141324 0.594000 39 55 32
0.095030 0.141562 0.595000 121 157 94
0.096572 0.141562 0.595000 148 184 121
0.098444 0.142038 0.597000 136 182 106
0.099991 0.142038 0.597000 137 183 107
-0.040700 0.168841 0.702000 19 43 11
-0.038826 0.168601 0.701000 110 134 102
-0.037009 0.168601 0.701000 155 199 133
-0.035192 0.168601 0.701000 152 196 130
-0.033423 0.168841 0.702000 101 136 78
-0.031604 0.168841 0.702000 15 50 0
0.095350 0.143587 0.597000 66 97 42
0.096897 0.143587 0.597000 145 176 121
0.098609 0.143828 0.598000 138 184 108
0.100326 0.144068 0.599000 136 182 106
-0.038881 0.170663 0.702000 92 114 85
-0.037009 0.170420 0.701000 154 195 130
-0.035192 0.170420 0.701000 158 199 134
-0.033423 0.170663 0.702000 130 164 101
-0.031604 0.170663 0.702000 24 58 0
0.095509 0.145379 0.598000 37 58 16
0.097222 0.145623 0.599000 123 144 102
0.098939 0.145866 0.600000 143 186 111
0.100494 0.145866 0.600000 131 174 99
-0.038881 0.172485 0.702000 75 92 64
-0.037062 0.172485 0.702000 159 193 130
-0.035192 0.172239 0.701000 160 194 131
-0.033423 0.172485 0.702000 139 173 110
-0.031604 0.172485 0.702000 36 70 7
0.097546 0.147668 0.601000 73 89 57
0.099104 0.147668 0.601000 146 182 117
-0.038881 0.174306 0.702000 56 68 42
-0.037062 0.174306 0.702000 151 183 121
-0.035192 0.174058 0.701000 156 188 126
-0.033376 0.174058 0.701000 147 183 120
-0.031604 0.174306 0.702000 59 95 32
0.097546 0.149228 0.601000 48 59 38
-0.038881 0.176128 0.702000 39 49 24
-0.037062 0.176128 0.702000 144 176 112
-0.035192 0.175877 0.701000 158 190 126
-0.033376 0.175877 0.701000 147 186 120
-0.031604 0.176128 0.702000 91 130 64
-0.038881 0.177950 0.702000 35 45 20
-0.037009 0.177696 0.701000 123 155 93
-0.035192 0.177696 0.701000 159 191 129
-0.033376 0.177696 0.701000 146 188 116
-0.031559 0.177696 0.701000 100 142 70
-0.029785 0.177950 0.702000 21 47 7
-0.037009 0.179515 0.701000 79 111 51
-0.035192 0.179515 0.701000 154 186 126
-0.033376 0.179515 0.701000 146 189 114
-0.031559 0.179515 0.701000 110 153 78
-0.029742 0.179515 0.701000 21 47 3
0.126297 0.176698 0.690000 93 103 76
-0.037009 0.181334 0.701000 57 88 31
-0.035192 0.181334 0.701000 151 182 125
-0.033376 0.181334 0.701000 147 190 115
-0.031559 0.181334 0.701000 129 172 97
-0.029742 0.181334 0.701000 35 62 13
0.126297 0.178489 0.690000 60 70 45
-0.037009 0.183153 0.701000 47 75 23
-0.035192 0.183153 0.701000 148 176 124
-0.033376 0.183153 0.701000 149 190 114
-0.031559 0.183153 0.701000 137 178 102
-0.029742 0.183153 0.701000 46 77 24
0.126297 0.180279 0.690000 53 57 32
-0.037009 0.184972 0.701000 39 65 14
-0.035192 0.184972 0.701000 143 169 118
-0.033376 0.184972 0.701000 152 193 115
-0.031559 0.184972 0.701000 139 180 102
-0.029742 0.184972 0.701000 53 88 34
0.120932 0.182070 0.690000 155 168 126
0.122721 0.182070 0.690000 142 155 113
0.124509 0.182070 0.690000 108 108 73
0.126480 0.182334 0.691000 42 42 7
-0.037062 0.187058 0.702000 33 58 10
-0.035192 0.186792 0.701000 133 158 110
-0.033376 0.186792 0.701000 151 194 115
-0.031559 0.186792 0.701000 140 183 104
-0.029742 0.186792 0.701000 73 111 56
0.117526 0.184127 0.691000 93 100 74
0.120932 0.183860 0.690000 149 153 107
0.122721 0.183860 0.690000 152 156 110
0.124689 0.184127 0.691000 140 133 84
0.126480 0.184127 0.691000 75 68 19
-0.037062 0.188880 0.702000 31 53 8
-0.035192 0.188611 0.701000 123 145 100
-0.033376 0.188611 0.701000 148 191 116
-0.031559 0.188611 0.701000 144 187 112
-0.029742 0.188611 0.701000 83 122 69
0.119317 0.185920 0.691000 57 60 42
0.121108 0.185920 0.691000 95 92 60
0.122898 0.185920 0.691000 134 131 99
0.124689 0.185920 0.691000 154 140 94
0.126480 0.185920 0.691000 148 134 88
0.128271 0.185920 0.691000 97 84 46
-0.037062 0.190701 0.702000 32 51 11
-0.035192 0.190430 0.701000 116 135 95
-0.033376 0.190430 0.701000 147 187 118
-0.031559 0.190430 0.701000 145 185 116
-0.029742 0.190430 0.701000 101 141 85
0.124689 0.187713 0.691000 81 67 32
0.126480 0.187713 0.691000 135 121 86
0.128271 0.187713 0.691000 154 137 100
-0.035242 0.192523 0.702000 104 120 86
-0.033376 0.192249 0.701000 145 186 119
-0.031559 0.192249 0.701000 145 186 119
-0.029742 0.192249 0.701000 110 150 94
-0.027965 0.192523 0.702000 16 56 0
-0.035242 0.194345 0.702000 80 96 64
-0.033376 0.194068 0.701000 146 187 122
-0.031559 0.194068 0.701000 146 187 122
-0.029742 0.194068 0.701000 119 159 101
-0.027965 0.194345 0.702000 20 60 2
-0.035242 0.196167 0.702000 59 76 46
-0.033423 0.196167 0.702000 144 184 124
-0.031604 0.196167 0.702000 145 185 125
-0.029785 0.196167 0.702000 129 169 109
-0.027965 0.196167 0.702000 36 76 16
-0.035242 0.197988 0.702000 47 66 38
-0.033423 0.197988 0.702000 140 180 120
-0.031559 0.197706 0.701000 145 185 125
-0.029742 0.197706 0.701000 134 175 110
-0.027965 0.197988 0.702000 56 97 32
-0.035242 0.199810 0.702000 38 57 31
-0.033423 0.199810 0.702000 139 180 117
-0.031559 0.199525 0.701000 145 186 123
-0.029742 0.199525 0.701000 137 177 108
-0.027965 0.199810 0.702000 69 109 40
-0.035242 0.201632 0.702000 30 48 25
-0.033376 0.201344 0.701000 137 178 113
-0.031559 0.201344 0.701000 141 182 117
-0.029742 0.201344 0.701000 139 180 106
-0.027925 0.201344 0.701000 75 116 42
-0.035242 0.203453 0.702000 30 44 22
-0.033423 0.203453 0.702000 131 170 104
-0.031559 0.203163 0.701000 139 178 112
-0.029742 0.203163 0.701000 138 179 101
-0.027965 0.203453 0.702000 85 126 48
-0.026146 0.203453 0.702000 18 44 4
-0.280973 0.210831 0.721000 25 27 16
-0.278718 0.210538 0.720000 22 24 13
-0.276852 0.210538 0.720000 18 26 15
-0.035293 0.205567 0.703000 33 44 23
-0.033423 0.205275 0.702000 123 158 90
-0.031559 0.204983 0.701000 142 177 109
-0.029742 0.204983 0.701000 137 178 100
-0.027925 0.204983 0.701000 95 136 58
-0.026146 0.205275 0.702000 21 47 5
-0.284710 0.212702 0.721000 15 24 17
-0.282842 0.212702 0.721000 18 27 20
-0.280973 0.212702 0.721000 18 26 13
-0.278718 0.212407 0.720000 16 24 11
-0.276852 0.212407 0.720000 16 24 11
-0.274986 0.212407 0.720000 16 24 11
-0.273120 0.212407 0.720000 20 28 17
-0.035293 0.207392 0.703000 34 46 22
-0.033423 0.207097 0.702000 112 147 77
-0.031559 0.206802 0.701000 141 176 106
-0.029742 0.206802 0.701000 136 180 98
-0.027925 0.206802 0.701000 100 144 62
-0.026146 0.207097 0.702000 16 45 2
-0.284316 0.214275 0.720000 18 28 16
-0.282450 0.214275 0.720000 15 25 13
-0.280584 0.214275 0.720000 17 27 13
-0.278718 0.214275 0.720000 15 25 11
-0.276852 0.214275 0.720000 15 25 11
-0.274986 0.214275 0.720000 18 28 14
-0.273120 0.214275 0.720000 20 30 18
-0.035343 0.209514 0.704000 36 50 28
-0.033423 0.208918 0.702000 102 135 66
-0.031604 0.208918 0.702000 143 176 107
-0.029742 0.208621 0.701000 134 178 96
-0.027965 0.208918 0.702000 110 154 72
-0.284316 0.216144 0.720000 18 28 14
-0.282450 0.216144 0.720000 17 27 13
-0.280584 0.216144 0.720000 18 28 14
-0.278718 0.216144 0.720000 17 27 13
-0.276852 0.216144 0.720000 15 28 13
-0.274986 0.216144 0.720000 16 29 14
-0.273120 0.216144 0.720000 16 29 16
-0.035343 0.211340 0.704000 34 48 26
-0.033423 0.210740 0.702000 95 128 59
-0.031604 0.210740 0.702000 142 175 106
-0.029785 0.210740 0.702000 134 180 100
-0.027965 0.210740 0.702000 116 162 82
-0.284316 0.218012 0.720000 21 31 17
-0.282057 0.217709 0.719000 19 29 15
-0.280194 0.217709 0.719000 18 28 16
-0.278718 0.218012 0.720000 19 29 17
-0.276852 0.218012 0.720000 16 29 16
-0.274986 0.218012 0.720000 17 30 17
-0.273120 0.218012 0.720000 17 27 15
-0.035343 0.213167 0.704000 30 44 22
-0.033471 0.212864 0.703000 88 123 55
-0.031604 0.212562 0.702000 143 178 110
-0.029785 0.212562 0.702000 135 181 103
-0.027965 0.212562 0.702000 121 167 89
-0.283921 0.219575 0.719000 21 31 19
-0.282057 0.219575 0.719000 19 29 17
-0.280194 0.219575 0.719000 18 27 18
-0.278331 0.219575 0.719000 18 27 18
-0.276467 0.219575 0.719000 19 29 17
-0.274604 0.219575 0.719000 19 29 17
-0.272741 0.219575 0.719000 17 27 15
-0.033471 0.214689 0.703000 85 119 54
-0.031604 0.214383 0.702000 143 177 112
-0.029785 0.214383 0.702000 133 180 106
-0.027965 0.214383 0.702000 125 172 98
-0.283921 0.221441 0.719000 22 32 20
-0.282057 0.221441 0.719000 18 28 16
-0.280194 0.221441 0.719000 18 27 18
-0.278331 0.221441 0.719000 18 27 18
-0.276467 0.221441 0.719000 19 29 17
-0.274604 0.221441 0.719000 19 29 17
-0.272741 0.221441 0.719000 19 27 16
-0.033471 0.216513 0.703000 82 116 53
-0.031649 0.216513 0.703000 145 179 116
-0.029785 0.216205 0.702000 133 180 108
-0.026183 0.216513 0.703000 16 51 13
-0.281665 0.222996 0.718000 24 33 24
-0.279804 0.222996 0.718000 24 33 24
-0.277943 0.222996 0.718000 22 31 22
-0.276083 0.222996 0.718000 22 29 21
-0.274604 0.223307 0.719000 20 27 19
-0.272741 0.223307 0.719000 25 30 20
-0.033471 0.218337 0.703000 78 112 51
-0.031649 0.218337 0.703000 146 180 119
-0.029827 0.218337 0.703000 133 179 110
-0.028005 0.218337 0.703000 126 172 103
-0.026183 0.218337 0.703000 18 53 15
-0.281665 0.224859 0.718000 27 37 25
-0.279804 0.224859 0.718000 21 30 21
-0.277943 0.224859 0.718000 21 30 21
-0.276083 0.224859 0.718000 20 27 19
-0.274222 0.224859 0.718000 21 28 20
-0.272741 0.225172 0.719000 32 34 25
-0.033471 0.220162 0.703000 71 104 46
-0.031649 0.220162 0.703000 142 175 117
-0.029827 0.220162 0.703000 121 169 100
-0.028005 0.220162 0.703000 125 173 104
-0.026183 0.220162 0.703000 20 57 16
-0.281273 0.226407 0.717000 24 34 22
-0.279415 0.226407 0.717000 19 28 19
-0.277556 0.226407 0.717000 17 26 17
-0.274222 0.226722 0.718000 26 33 25
-0.033471 0.221986 0.703000 68 101 45
-0.031649 0.221986 0.703000 138 171 115
-0.029827 0.221986 0.703000 118 166 97
-0.028005 0.221986 0.703000 126 174 105
-0.026183 0.221986 0.703000 23 61 17
-0.280880 0.227949 0.716000 24 34 22
-0.279025 0.227949 0.716000 19 32 19
-0.277556 0.228267 0.717000 15 28 15
-0.275698 0.228267 0.717000 19 29 17
-0.033471 0.223810 0.703000 65 98 42
-0.031649 0.223810 0.703000 137 170 114
-0.029827 0.223810 0.703000 119 167 98
-0.028005 0.223810 0.703000 127 175 106
-0.026183 0.223810 0.703000 24 62 16
-0.280096 0.229165 0.714000 25 38 23
-0.278245 0.229165 0.714000 24 44 27
-0.277169 0.229807 0.716000 12 32 15
-0.275698 0.230128 0.717000 19 32 19
-0.033471 0.225634 0.703000 64 97 41
-0.031649 0.225634 0.703000 139 172 116
-0.029827 0.225634 0.703000 123 172 100
-0.028005 0.225634 0.703000 126 175 103
-0.026183 0.225634 0.703000 26 62 15
-0.277856 0.230694 0.713000 43 71 44
-0.276395 0.231018 0.714000 25 53 26
-0.275314 0.231665 0.716000 28 43 27
-0.033471 0.227459 0.703000 64 97 43
-0.031649 0.227459 0.703000 139 172 118
-0.029785 0.227135 0.702000 126 173 101
-0.026183 0.227459 0.703000 30 63 17
-0.279972 0.231240 0.709000 94 118 88
-0.278527 0.231566 0.710000 92 116 86
-0.276687 0.231566 0.710000 69 101 64
-0.275621 0.232218 0.712000 50 82 45
-0.274545 0.232871 0.714000 41 59 38
-0.033471 0.229283 0.703000 56 89 35
-0.031559 0.228631 0.701000 139 172 118
-0.029785 0.228957 0.702000 126 172 103
-0.027965 0.228957 0.702000 129 175 106
-0.278787 0.232094 0.706000 102 131 97
-0.277350 0.232422 0.707000 91 120 86
-0.275907 0.232751 0.708000 65 98 54
-0.274847 0.233409 0.710000 49 82 38
-0.274160 0.234395 0.713000 36 54 31
-0.033376 0.230450 0.701000 52 84 33
-0.031559 0.230450 0.701000 138 170 119
-0.029742 0.230450 0.701000 126 172 103
-0.027925 0.230450 0.701000 128 174 105
-0.278392 0.233594 0.705000 100 132 95
-0.276565 0.233594 0.705000 89 121 84
-0.275128 0.233926 0.706000 66 102 55
-0.274072 0.234588 0.708000 39 75 28
-0.273391 0.235582 0.711000 21 43 14
-0.033328 0.231938 0.700000 53 85 34
-0.031514 0.231938 0.700000 138 170 119
-0.029700 0.231938 0.700000 133 179 112
-0.027886 0.231938 0.700000 128 174 107
-0.026146 0.232600 0.702000 28 64 19
-0.277603 0.234756 0.703000 101 137 94
-0.276173 0.235090 0.704000 85 121 78
-0.274738 0.235424 0.705000 66 103 53
-0.273298 0.235758 0.706000 38 75 25
-0.273007 0.237093 0.710000 17 41 9
-0.033280 0.233420 0.699000 48 80 29
-0.031424 0.233086 0.698000 138 170 119
-0.029657 0.233420 0.699000 126 172 107
-0.027886 0.233754 0.700000 128 174 109
-0.026109 0.234088 0.701000 23 59 16
-0.277603 0.236580 0.703000 102 138 93
-0.275781 0.236580 0.703000 81 117 72
-0.274348 0.236917 0.704000 61 98 48
-0.272911 0.237253 0.705000 44 81 31
-0.272238 0.238263 0.708000 20 42 11
-0.033280 0.235234 0.699000 56 88 37
-0.031424 0.234898 0.698000 138 170 119
-0.029615 0.234898 0.698000 121 167 102
-0.027846 0.235234 0.699000 126 172 107
-0.026109 0.235907 0.701000 20 56 13
-0.278629 0.237726 0.701000 38 52 30
-0.276813 0.237726 0.701000 103 139 92
-0.275781 0.238404 0.703000 78 114 67
-0.274348 0.238744 0.704000 56 93 43
-0.272911 0.239083 0.705000 38 75 25
-0.272238 0.240100 0.708000 25 47 16
-0.033233 0.236709 0.698000 61 94 40
-0.031334 0.236031 0.696000 139 172 118
-0.029572 0.236370 0.697000 122 168 101
-0.027806 0.236709 0.698000 126 172 105
-0.026072 0.237387 0.700000 23 56 14
-0.277835 0.238862 0.699000 41 56 31
-0.276023 0.238862 0.699000 104 141 91
-0.274996 0.239545 0.701000 77 114 64
-0.273959 0.240229 0.703000 61 100 47
-0.272524 0.240570 0.704000 31 70 17
-0.271853 0.241596 0.707000 31 53 24
-0.033185 0.238178 0.697000 70 103 49
-0.031334 0.237837 0.696000 138 171 117
-0.029530 0.237837 0.696000 130 174 110
-0.027806 0.238520 0.698000 124 168 104
-0.026072 0.239204 0.700000 20 52 13
-0.276642 0.239643 0.696000 50 62 36
-0.275233 0.239987 0.697000 105 142 92
-0.274604 0.241020 0.700000 84 121 71
-0.273959 0.242053 0.703000 62 101 48
-0.272524 0.242397 0.704000 34 73 20
-0.271853 0.243430 0.707000 27 49 22
-0.033138 0.239643 0.696000 75 106 53
-0.031244 0.238954 0.694000 138 169 116
-0.029488 0.239299 0.695000 127 171 107
-0.027766 0.239987 0.697000 123 167 103
-0.026072 0.241020 0.700000 18 50 11
-0.274443 0.241102 0.695000 108 145 93
-0.274211 0.242490 0.699000 82 119 67
-0.273569 0.243530 0.702000 61 100 47
-0.272137 0.243877 0.703000 37 76 23
-0.271469 0.244918 0.706000 28 50 23
-0.033042 0.240755 0.694000 79 110 57
-0.031244 0.240755 0.694000 137 168 115
-0.029445 0.240755 0.694000 128 172 106
-0.027726 0.241449 0.696000 122 166 100
-0.026034 0.242490 0.699000 15 47 8
-0.275450 0.242207 0.693000 59 74 45
-0.273427 0.243605 0.697000 82 119 67
-0.273179 0.245003 0.701000 60 99 48
-0.272137 0.245702 0.703000 33 72 21
-0.271469 0.246750 0.706000 21 45 17
-0.032995 0.242207 0.693000 81 112 55
-0.031199 0.242207 0.693000 136 167 110
-0.029445 0.242556 0.694000 129 170 103
-0.027726 0.243255 0.696000 122 163 96
-0.026034 0.244304 0.699000 14 44 5
-0.275052 0.243653 0.692000 70 85 56
-0.273035 0.245061 0.696000 77 114 62
-0.272400 0.246118 0.699000 59 98 47
-0.272137 0.247526 0.703000 31 70 19
-0.271084 0.248230 0.705000 25 51 25
-0.034891 0.244709 0.695000 27 40 23
-0.032995 0.244005 0.693000 86 118 58
-0.031199 0.244005 0.693000 136 168 108
-0.029403 0.244005 0.693000 128 170 100
-0.027686 0.244709 0.695000 119 161 91
-0.026034 0.246118 0.699000 17 46 5
-0.274655 0.245094 0.691000 62 77 50
-0.274049 0.246158 0.694000 106 143 91
-0.272010 0.247577 0.698000 63 102 51
-0.271750 0.248995 0.702000 32 71 20
-0.271084 0.250060 0.705000 30 53 28
-0.034841 0.246158 0.694000 25 39 19
-0.032995 0.245803 0.693000 95 127 65
-0.031199 0.245803 0.693000 136 168 106
-0.029403 0.245803 0.693000 129 169 98
-0.027647 0.246158 0.694000 113 153 82
-0.025997 0.247577 0.698000 16 42 2
-0.274655 0.246887 0.691000 65 80 53
-0.273654 0.247602 0.693000 106 143 93
-0.271621 0.249031 0.697000 63 102 51
-0.271363 0.250460 0.701000 32 71 20
-0.270700 0.251532 0.704000 33 55 28
-0.034791 0.247602 0.693000 22 36 14
-0.032947 0.247244 0.692000 102 136 73
-0.031154 0.247244 0.692000 137 171 108
-0.029360 0.247244 0.692000 133 170 100
-0.027647 0.247959 0.694000 105 142 72
-0.025997 0.249388 0.698000 18 42 3
-0.274257 0.248320 0.690000 67 82 55
-0.273259 0.249040 0.692000 105 142 92
-0.270841 0.250120 0.695000 61 98 48
-0.270976 0.251919 0.700000 34 71 21
-0.270700 0.253359 0.704000 35 54 26
-0.034791 0.249400 0.693000 21 38 12
-0.032947 0.249040 0.692000 115 151 88
-0.031154 0.249040 0.692000 133 169 106
-0.029360 0.249040 0.692000 133 173 104
-0.027647 0.249760 0.694000 88 128 59
-0.025997 0.251199 0.698000 20 44 5
-0.273065 0.249023 0.687000 61 76 51
-0.272864 0.250473 0.691000 109 146 96
-0.271858 0.251198 0.693000 87 124 74
-0.270201 0.253011 0.698000 32 69 17
-0.270700 0.255186 0.704000 41 56 29
-0.034791 0.251198 0.693000 19 38 12
-0.032947 0.250836 0.692000 122 161 99
-0.031154 0.250836 0.692000 130 169 107
-0.029360 0.250836 0.692000 133 172 106
-0.027647 0.251561 0.694000 78 117 51
-0.025960 0.252648 0.697000 21 45 6
-0.272270 0.250076 0.685000 69 84 59
-0.272469 0.251901 0.690000 110 146 99
-0.271465 0.252631 0.692000 85 121 74
-0.269427 0.254092 0.696000 33 70 18
-0.271084 0.257377 0.705000 37 54 24
-0.034740 0.252631 0.692000 24 43 17
-0.032899 0.252266 0.691000 126 165 103
-0.031109 0.252266 0.691000 122 161 99
-0.029360 0.252631 0.692000 130 171 104
-0.027607 0.252997 0.693000 68 109 42
-0.270283 0.250015 0.680000 57 75 52
-0.271284 0.252589 0.687000 112 149 99
-0.271073 0.254060 0.691000 87 124 74
-0.271084 0.259207 0.705000 35 52 22
-0.034740 0.254427 0.692000 33 52 22
-0.032899 0.254060 0.691000 131 170 106
-0.031109 0.254060 0.691000 122 161 97
-0.029360 0.254427 0.692000 129 170 105
-0.027607 0.254795 0.693000 50 91 26
-0.268915 0.252150 0.681000 115 152 102
-0.268327 0.253261 0.684000 89 126 76
-0.268503 0.255112 0.689000 62 100 45
-0.034740 0.256223 0.692000 56 74 41
-0.032899 0.255853 0.691000 134 173 109
-0.031109 0.255853 0.691000 122 161 97
-0.029318 0.255853 0.691000 129 169 109
-0.027607 0.256593 0.693000 33 73 13
-0.034690 0.257646 0.691000 87 106 68
-0.032899 0.257646 0.691000 130 172 102
-0.031109 0.257646 0.691000 124 166 96
-0.029318 0.257646 0.691000 123 163 105
-0.027607 0.258392 0.693000 16 56 0
-0.036587 0.260190 0.693000 17 38 0
-0.034690 0.259439 0.691000 102 123 83
-0.032852 0.259064 0.690000 122 165 90
-0.031109 0.259439 0.691000 124 167 92
-0.029318 0.259439 0.691000 118 158 102
-0.027607 0.260190 0.693000 8 48 0
-0.036534 0.261610 0.692000 16 42 0
-0.034690 0.261232 0.691000 113 139 95
-0.032852 0.260854 0.690000 123 166 91
-0.031109 0.261232 0.691000 130 173 98
-0.029360 0.261610 0.692000 105 143 86
-0.027647 0.262366 0.694000 10 48 0
-0.036534 0.263406 0.692000 21 50 5
-0.034640 0.262645 0.690000 127 156 111
-0.032852 0.262645 0.690000 121 167 91
-0.031109 0.263025 0.691000 129 175 99
-0.029360 0.263406 0.692000 83 114 59
-0.027686 0.264548 0.695000 18 49 0
-0.036481 0.264818 0.691000 32 64 15
-0.034640 0.264435 0.690000 128 160 111
-0.032852 0.264435 0.690000 121 167 91
-0.031109 0.264818 0.691000 130 176 100
-0.029360 0.265202 0.692000 54 85 32
-0.036481 0.266612 0.691000 47 81 30
-0.034640 0.266226 0.690000 131 165 114
-0.032852 0.266226 0.690000 119 164 91
-0.031109 0.266612 0.691000 127 172 99
-0.029403 0.267383 0.693000 39 69 21
-0.036428 0.268016 0.690000 75 113 56
-0.034640 0.268016 0.690000 130 168 111
-0.032852 0.268016 0.690000 124 169 98
-0.031109 0.268405 0.691000 117 162 91
-0.029403 0.269182 0.693000 25 54 11
-0.038327 0.270589 0.692000 23 40 22
-0.036428 0.269807 0.690000 108 146 87
-0.034590 0.269416 0.689000 125 163 104
-0.032852 0.269807 0.690000 128 169 102
-0.031109 0.270198 0.691000 103 144 77
-0.038272 0.271991 0.691000 35 56 34
-0.036375 0.271204 0.689000 119 159 99
-0.034590 0.271204 0.689000 122 162 102
-0.032899 0.271991 0.691000 131 172 105
-0.031154 0.272385 0.692000 80 121 54
-0.029530 0.273959 0.696000 23 43 8
-0.036323 0.272596 0.688000 123 167 103
-0.034590 0.272992 0.689000 121 165 101
-0.032899 0.273784 0.691000 134 173 111
-0.031199 0.274577 0.693000 42 81 19
-0.036270 0.273982 0.687000 126 170 106
-0.034590 0.274780 0.689000 119 163 99
-0.032899 0.275577 0.691000 126 166 108
-0.039773 0.275363 0.686000 18 46 8
-0.037939 0.274962 0.685000 117 145 107
-0.036164 0.274962 0.685000 122 168 101
-0.034540 0.276166 0.688000 126 172 105
-0.031244 0.278575 0.694000 12 51 0
-0.039541 0.275528 0.682000 36 69 25
-0.037829 0.275932 0.683000 126 159 115
-0.036164 0.276740 0.685000 115 161 92
-0.034590 0.278356 0.689000 126 172 103
-0.031289 0.280780 0.695000 9 47 0
-0.039367 0.276078 0.679000 74 111 59
-0.037663 0.276484 0.680000 127 164 112
-0.036164 0.278517 0.685000 116 164 95
-0.034590 0.280144 0.689000 124 172 103
-0.041066 0.277430 0.678000 24 42 19
-0.037663 0.278249 0.680000 126 166 108
-0.036164 0.280295 0.685000 120 166 97
-0.034590 0.281932 0.689000 116 162 93
-0.041066 0.279190 0.678000 45 67 38
-0.037718 0.280425 0.681000 122 166 102
-0.036217 0.282484 0.686000 129 173 109
-0.042823 0.280949 0.678000 20 44 12
-0.041066 0.280949 0.678000 75 99 67
-0.037718 0.282192 0.681000 122 166 98
-0.036270 0.284679 0.687000 128 168 108
-0.032995 0.287165 0.693000 25 47 20
-0.042823 0.282709 0.678000 25 54 13
-0.041066 0.282709 0.678000 108 137 96
-0.037718 0.283960 0.681000 126 171 100
-0.036270 0.286461 0.687000 113 151 94
-0.042697 0.283629 0.676000 46 78 29
-0.041066 0.284468 0.678000 127 159 110
-0.037773 0.286146 0.682000 129 175 106
-0.034690 0.289922 0.691000 14 48 0
-0.248136 0.270607 0.641000 127 145 110
-0.246475 0.270607 0.641000 126 166 108
-0.042697 0.285383 0.676000 80 119 66
-0.039367 0.286650 0.679000 119 165 96
-0.037884 0.288760 0.684000 125 171 102
-0.247362 0.271421 0.639000 88 103 76
-0.245706 0.271421 0.639000 137 172 118
-0.244050 0.271421 0.639000 121 156 102
-0.044251 0.285863 0.673000 33 55 28
-0.042697 0.287137 0.676000 117 157 97
-0.039367 0.288412 0.679000 129 173 107
-0.037939 0.290960 0.685000 88 132 66
-0.246588 0.272225 0.637000 53 67 45
-0.244552 0.271797 0.636000 132 166 115
-0.044251 0.287610 0.673000 67 96 62
-0.042760 0.289319 0.677000 129 173 107
-0.039483 0.291028 0.681000 135 173 114
-0.038106 0.294020 0.688000 53 91 32
-0.244168 0.273018 0.635000 108 139 93
-0.242904 0.273448 0.636000 135 166 120
-0.045995 0.289356 0.673000 23 59 16
-0.044251 0.289356 0.673000 105 141 98
-0.042823 0.291506 0.678000 127 172 101
-0.039541 0.293225 0.682000 118 153 99
-0.243783 0.274233 0.634000 68 94 52
-0.242140 0.274233 0.634000 139 165 123
-0.045927 0.290670 0.672000 59 97 42
-0.044317 0.291535 0.674000 125 163 108
-0.042823 0.293265 0.678000 126 170 102
-0.243014 0.275008 0.632000 33 56 20
-0.241376 0.275008 0.632000 124 147 111
-0.047598 0.291979 0.671000 41 63 36
-0.045859 0.291979 0.671000 101 142 77
-0.044383 0.293719 0.675000 128 169 104
-0.041187 0.295895 0.680000 119 160 93
-0.241376 0.276648 0.632000 87 106 78
-0.239739 0.276648 0.632000 135 178 119
-0.049484 0.294595 0.673000 24 49 14
-0.047598 0.293720 0.671000 77 102 67
-0.045995 0.294595 0.673000 117 162 91
-0.044580 0.296784 0.678000 121 166 95
-0.240995 0.277848 0.631000 36 50 30
-0.239359 0.277848 0.631000 130 167 117
-0.049337 0.295461 0.671000 42 73 31
-0.047669 0.295901 0.672000 117 148 106
-0.046132 0.297222 0.675000 123 170 98
-0.042823 0.298543 0.678000 124 159 101
-0.239359 0.279485 0.631000 91 124 82
-0.237724 0.279485 0.631000 140 173 131
-0.051000 0.296759 0.670000 27 41 21
-0.049043 0.295431 0.667000 79 118 65
-0.047669 0.297645 0.672000 124 163 110
-0.046201 0.299417 0.676000 119 166 94
-0.238980 0.280677 0.630000 37 65 29
-0.237347 0.280677 0.630000 132 160 124
-0.235715 0.280677 0.630000 131 176 118
-0.050771 0.297161 0.667000 56 78 51
-0.049043 0.297161 0.667000 109 155 90
-0.047598 0.298944 0.671000 120 166 101
-0.044580 0.302062 0.678000 113 157 89
-0.043076 0.303844 0.682000 32 58 18
-0.236970 0.281864 0.629000 92 111 83
-0.235340 0.281864 0.629000 136 176 118
-0.233710 0.281864 0.629000 128 168 110
-0.052342 0.297996 0.665000 35 66 24
-0.050695 0.298444 0.666000 99 130 88
-0.049116 0.299340 0.668000 122 168 99
-0.047811 0.302029 0.674000 120 166 97
-0.043265 0.306958 0.685000 28 48 15
-0.236594 0.283046 0.628000 48 62 40
-0.234966 0.283046 0.628000 115 149 98
-0.233339 0.283046 0.628000 135 169 118
-0.231711 0.283046 0.628000 115 161 96
-0.229717 0.282595 0.627000 81 127 62
-0.227729 0.282144 0.626000 52 93 44
-0.054066 0.299722 0.665000 33 48 30
-0.052185 0.298820 0.663000 68 105 53
-0.050695 0.300172 0.666000 120 157 105
-0.049263 0.301975 0.670000 127 174 102
-0.048023 0.305130 0.677000 127 174 102
-0.234218 0.283769 0.626000 64 93 50
-0.232596 0.283769 0.626000 139 168 125
-0.230973 0.283769 0.626000 119 163 97
-0.229351 0.283769 0.626000 100 144 78
-0.227365 0.283315 0.625000 74 117 60
-0.051791 0.298274 0.658000 105 149 85
-0.050314 0.299634 0.661000 122 166 102
-0.048969 0.301901 0.666000 125 172 100
-0.046337 0.307340 0.678000 49 78 37
-0.232224 0.284937 0.625000 102 124 93
-0.230604 0.284937 0.625000 136 177 114
-0.228985 0.284937 0.625000 119 160 97
-0.227365 0.284937 0.625000 95 141 74
-0.055789 0.303173 0.665000 33 66 24
-0.053497 0.299982 0.658000 99 132 90
-0.052028 0.301350 0.661000 127 172 101
-0.047598 0.305909 0.671000 81 122 57
-0.232224 0.286559 0.625000 54 68 46
-0.230235 0.286101 0.624000 126 161 107
-0.228618 0.286101 0.624000 135 170 116
-0.226637 0.285642 0.623000 109 155 86
-0.056648 0.300314 0.655000 36 54 31
-0.053903 0.303982 0.663000 123 163 105
-0.052342 0.304899 0.665000 123 168 95
-0.050695 0.305357 0.666000 128 173 100
-0.048094 0.310859 0.678000 35 68 14
-0.229866 0.287259 0.623000 80 109 66
-0.228252 0.287259 0.623000 138 167 124
-0.226273 0.286798 0.622000 126 172 105
-0.056648 0.302014 0.655000 78 102 70
-0.055118 0.302936 0.657000 113 157 91
-0.052106 0.305241 0.662000 128 170 100
-0.051152 0.309852 0.672000 117 159 89
-0.227885 0.288412 0.622000 106 130 98
-0.226273 0.288412 0.622000 131 175 111
-0.224662 0.288412 0.622000 122 166 102
-0.055034 0.304177 0.656000 121 166 95
-0.227885 0.290026 0.622000 54 72 49
-0.225910 0.289560 0.621000 120 158 103
-0.224300 0.289560 0.621000 134 172 117
-0.052446 0.321267 0.689000 30 63 9
-0.225910 0.291171 0.621000 73 102 59
-0.224300 0.291171 0.621000 136 165 122
-0.222332 0.290702 0.620000 128 175 103
-0.220726 0.290702 0.620000 120 167 95
-0.219119 0.290702 0.620000 91 140 68
-0.223939 0.292311 0.620000 99 118 90
-0.222332 0.292311 0.620000 131 172 105
-0.220726 0.292311 0.620000 124 165 98
-0.218765 0.291840 0.619000 111 159 82
-0.217161 0.291840 0.619000 80 128 51
-0.223578 0.293446 0.619000 34 48 26
-0.221974 0.293446 0.619000 111 142 87
-0.220370 0.293446 0.619000 139 170 115
-0.218765 0.293446 0.619000 123 169 93
-0.217161 0.293446 0.619000 105 151 75
-0.221615 0.294576 0.618000 49 70 30
-0.220014 0.294576 0.618000 122 143 103
-0.218059 0.294099 0.617000 140 180 111
-0.216460 0.294099 0.617000 129 169 100
-0.219658 0.295700 0.617000 60 72 44
-0.217705 0.295221 0.616000 123 157 96
-0.216109 0.295221 0.616000 142 176 115
-0.214512 0.295221 0.616000 126 171 98
-0.212916 0.295221 0.616000 110 155 82
-0.065710 0.308640 0.644000 99 131 82
-0.217705 0.296819 0.616000 67 92 46
-0.216109 0.296819 0.616000 133 158 112
-0.214164 0.296337 0.615000 136 178 106
-0.212570 0.296337 0.615000 125 167 95
-0.068941 0.309829 0.643000 54 77 41
-0.067379 0.310311 0.644000 89 128 64
-0.065710 0.310311 0.644000 124 163 99
-0.215758 0.297933 0.615000 73 91 58
-0.213816 0.297449 0.614000 132 168 105
-0.212225 0.297449 0.614000 140 176 113
-0.210290 0.296964 0.613000 117 167 88
-0.070607 0.311498 0.643000 55 93 38
-0.068941 0.311498 0.643000 98 136 81
-0.067275 0.311498 0.643000 115 161 85
-0.213816 0.299042 0.614000 63 90 43
-0.211879 0.298555 0.613000 133 160 113
-0.210290 0.298555 0.613000 136 182 106
-0.208361 0.298068 0.612000 122 168 92
-0.206437 0.297581 0.611000 108 161 83
-0.204854 0.297581 0.611000 94 147 69
-0.072161 0.312679 0.642000 78 111 69
-0.070607 0.313166 0.643000 99 146 74
-0.068941 0.313166 0.643000 121 168 96
-0.067275 0.313166 0.643000 123 169 91
-0.211879 0.300146 0.613000 66 83 53
-0.209947 0.299656 0.612000 127 161 100
-0.208361 0.299656 0.612000 143 177 116
-0.206437 0.299167 0.611000 119 167 90
-0.204854 0.299167 0.611000 119 167 90
-0.202938 0.298677 0.610000 99 146 74
-0.073825 0.314345 0.642000 78 121 62
-0.072161 0.314345 0.642000 105 148 89
-0.070498 0.314345 0.642000 114 164 85
-0.068834 0.314345 0.642000 120 170 91
-0.209947 0.301244 0.612000 66 88 43
-0.208361 0.301244 0.612000 128 150 105
-0.206437 0.300752 0.611000 139 181 109
-0.204854 0.300752 0.611000 134 176 104
-0.203270 0.300752 0.611000 120 168 89
-0.201357 0.300260 0.610000 106 154 75
-0.075371 0.315519 0.641000 94 132 77
-0.073710 0.315519 0.641000 105 154 80
-0.072161 0.316011 0.642000 116 165 91
-0.070498 0.316011 0.642000 126 176 99
-0.208361 0.302833 0.612000 54 66 40
-0.206775 0.302833 0.612000 121 152 95
-0.204854 0.302338 0.611000 147 178 121
-0.203270 0.302338 0.611000 131 179 102
-0.201357 0.301843 0.610000 118 166 89
-0.199776 0.301843 0.610000 105 154 70
-0.076792 0.316193 0.639000 99 144 71
-0.075254 0.316688 0.640000 112 157 84
-0.073710 0.317182 0.641000 113 163 86
-0.072049 0.317182 0.641000 129 179 102
-0.206775 0.304421 0.612000 46 64 31
-0.204854 0.303923 0.611000 109 127 94
-0.203270 0.303923 0.611000 140 181 114
-0.201357 0.303426 0.610000 144 185 118
-0.199776 0.303426 0.610000 126 173 90
-0.198195 0.303426 0.610000 109 156 73
-0.082764 0.315364 0.634000 37 66 21
-0.079728 0.316359 0.636000 91 132 65
-0.078203 0.316856 0.637000 117 158 91
-0.076672 0.317354 0.638000 119 168 84
-0.075136 0.317851 0.639000 125 174 90
-0.073595 0.318348 0.640000 134 180 102
-0.204854 0.305509 0.611000 40 51 32
-0.203270 0.305509 0.611000 89 118 73
-0.201357 0.305009 0.610000 138 167 122
-0.199776 0.305009 0.610000 148 191 112
-0.198195 0.305009 0.610000 136 179 100
-0.196292 0.304509 0.609000 126 174 84
-0.194714 0.304509 0.609000 107 155 65
-0.082764 0.317009 0.634000 79 125 56
-0.081248 0.317509 0.635000 99 145 76
-0.078080 0.318009 0.636000 122 170 89
-0.076672 0.319009 0.638000 124 171 88
-0.075136 0.319509 0.639000 130 177 94
-0.201357 0.306592 0.610000 73 92 64
-0.199776 0.306592 0.610000 129 165 104
-0.198195 0.306592 0.610000 150 186 125
-0.196292 0.306089 0.609000 139 183 99
-0.194714 0.306089 0.609000 124 168 84
-0.193135 0.306089 0.609000 111 159 80
-0.085778 0.317649 0.632000 74 118 52
-0.084273 0.318152 0.633000 100 144 78
-0.082633 0.318152 0.633000 109 162 80
-0.081120 0.318654 0.634000 108 161 79
-0.078080 0.319660 0.636000 135 184 100
-0.076552 0.320162 0.637000 134 174 103
-0.199776 0.308175 0.610000 59 83 44
-0.198195 0.308175 0.610000 110 134 95
-0.196292 0.307669 0.609000 141 181 112
-0.194714 0.307669 0.609000 148 188 119
-0.193135 0.307669 0.609000 130 178 99
-0.191243 0.307164 0.608000 119 167 88
-0.189667 0.307164 0.608000 106 155 81
-0.090405 0.318279 0.630000 48 78 41
-0.088913 0.318784 0.631000 70 113 54
-0.087278 0.318784 0.631000 91 134 75
-0.085778 0.319289 0.632000 97 147 68
-0.084140 0.319289 0.632000 113 163 84
-0.082633 0.319794 0.633000 115 168 88
-0.080993 0.319794 0.633000 122 175 95
-0.079477 0.320300 0.634000 134 181 107
-0.198195 0.309758 0.610000 38 54 31
-0.196292 0.309250 0.609000 72 96 53
-0.194714 0.309250 0.609000 131 155 112
-0.193135 0.309250 0.609000 146 188 116
-0.190928 0.308234 0.607000 141 183 111
-0.189355 0.308234 0.607000 131 179 100
-0.187782 0.308234 0.607000 122 170 91
-0.093373 0.318898 0.628000 48 79 35
-0.091891 0.319406 0.629000 78 121 60
-0.090405 0.319914 0.630000 89 132 71
-0.088913 0.320421 0.631000 93 142 68
-0.087278 0.320421 0.631000 110 159 85
-0.085778 0.320929 0.632000 116 166 87
-0.084140 0.320929 0.632000 127 177 98
-0.082633 0.321437 0.633000 137 184 112
-0.080993 0.321437 0.633000 125 172 100
-0.194714 0.310830 0.609000 55 69 47
-0.193135 0.310830 0.609000 101 132 79
-0.190928 0.309809 0.607000 145 176 123
-0.189043 0.309299 0.606000 151 193 121
-0.187473 0.309299 0.606000 141 183 111
-0.185902 0.309299 0.606000 129 178 94
-0.184332 0.309299 0.606000 119 168 84
-0.097942 0.319507 0.626000 36 67 21
-0.096474 0.320017 0.627000 58 89 43
-0.094849 0.320017 0.627000 77 123 56
-0.093373 0.320528 0.628000 101 147 80
-0.091745 0.320528 0.628000 105 154 80
-0.090405 0.321548 0.630000 109 158 84
-0.088913 0.322059 0.631000 118 168 91
-0.087278 0.322059 0.631000 131 181 104
-0.085778 0.322569 0.632000 137 182 109
-0.084140 0.322569 0.632000 132 177 104
-0.193135 0.312411 0.609000 37 54 26
-0.190928 0.311385 0.607000 71 88 60
-0.189043 0.310872 0.606000 122 153 96
-0.187473 0.310872 0.606000 151 182 125
-0.185595 0.310359 0.605000 148 194 114
-0.184027 0.310359 0.605000 143 189 109
-0.182459 0.310359 0.605000 133 183 94
-0.180892 0.310359 0.605000 119 169 80
-0.099406 0.320618 0.625000 74 111 59
-0.097786 0.320618 0.625000 91 139 72
-0.096320 0.321131 0.626000 100 148 81
-0.094849 0.321644 0.627000 103 156 78
-0.093373 0.322157 0.628000 109 162 84
-0.091745 0.322157 0.628000 119 169 90
-0.090405 0.323183 0.630000 126 176 97
-0.088772 0.323183 0.630000 140 187 113
-0.087278 0.323696 0.631000 137 184 110
-0.085642 0.323696 0.631000 115 148 92
-0.189043 0.312444 0.606000 46 63 33
-0.187473 0.312444 0.606000 85 102 72
-0.185595 0.311929 0.605000 130 164 103
-0.184027 0.311929 0.605000 153 187 126
-0.182459 0.311929 0.605000 150 194 110
-0.180892 0.311929 0.605000 146 190 106
-0.179324 0.311929 0.605000 131 179 89
-0.177756 0.311929 0.605000 119 167 77
-0.176188 0.311929 0.605000 114 161 76
-0.105546 0.321209 0.623000 63 96 52
-0.103931 0.321209 0.623000 75 115 55
-0.102317 0.321209 0.623000 90 130 70
-0.100864 0.321725 0.624000 100 147 75
-0.099406 0.322240 0.625000 104 151 79
-0.097786 0.322240 0.625000 103 156 78
-0.096320 0.322756 0.626000 114 167 89
-0.094849 0.323271 0.627000 127 177 100
-0.093373 0.323787 0.628000 135 185 108
-0.091745 0.323787 0.628000 141 188 114
-0.090261 0.324303 0.629000 136 183 109
-0.088772 0.324818 0.630000 113 148 92
-0.087278 0.325334 0.631000 59 94 38
-0.185595 0.313499 0.605000 44 62 29
-0.184027 0.313499 0.605000 81 99 66
-0.182158 0.312980 0.604000 121 153 93
-0.180593 0.312980 0.604000 147 179 119
-0.179027 0.312980 0.604000 154 196 113
-0.177462 0.312980 0.604000 149 191 108
-0.175897 0.312980 0.604000 143 190 105
-0.174620 0.313499 0.605000 130 177 92
-0.172766 0.312980 0.604000 112 161 77
-0.171201 0.312980 0.604000 102 151 67
-0.169635 0.312980 0.604000 94 142 61
-0.134666 0.372053 0.718000 40 66 26
-0.108600 0.322308 0.622000 79 119 59
-0.106988 0.322308 0.622000 89 134 63
-0.105546 0.322826 0.623000 101 146 75
-0.103931 0.322826 0.623000 102 151 67
-0.102317 0.322826 0.623000 105 154 70
-0.100864 0.323344 0.624000 118 166 85
-0.099406 0.323862 0.625000 122 170 89
-0.097786 0.323862 0.625000 128 178 101
-0.096320 0.324380 0.626000 134 184 107
-0.094849 0.324898 0.627000 141 182 115
-0.093224 0.324898 0.627000 128 169 102
-0.091745 0.325417 0.628000 98 129 83
-0.182158 0.314548 0.604000 41 57 23
-0.180593 0.314548 0.604000 79 95 61
-0.179027 0.314548 0.604000 112 141 82
-0.177462 0.314548 0.604000 147 176 117
-0.175897 0.314548 0.604000 153 194 118
-0.174331 0.314548 0.604000 153 194 118
-0.172766 0.314548 0.604000 145 194 110
-0.171201 0.314548 0.604000 138 187 103
-0.169635 0.314548 0.604000 128 178 89
-0.167792 0.314027 0.603000 114 164 75
-0.166505 0.314548 0.604000 106 153 70
-0.179074 0.373395 0.717000 40 74 25
-0.177216 0.373395 0.717000 33 67 18
-0.175358 0.373395 0.717000 31 62 20
-0.173499 0.373395 0.717000 35 66 24
-0.151201 0.373395 0.717000 31 51 16
-0.149343 0.373395 0.717000 34 58 19
-0.147485 0.373395 0.717000 36 60 21
-0.145627 0.373395 0.717000 37 63 19
-0.143769 0.373395 0.717000 44 70 26
-0.141911 0.373395 0.717000 52 82 32
-0.110035 0.323401 0.621000 102 150 71
-0.108600 0.323922 0.622000 105 153 74
-0.106988 0.323922 0.622000 112 160 79
-0.105546 0.324442 0.623000 119 167 86
-0.103931 0.324442 0.623000 128 176 95
-0.102317 0.324442 0.623000 127 175 94
-0.100864 0.324963 0.624000 135 183 104
-0.099406 0.325484 0.625000 141 189 110
-0.097786 0.325484 0.625000 138 177 113
-0.096320 0.326005 0.626000 110 149 85
-0.094698 0.326005 0.626000 80 109 66
-0.178731 0.315592 0.603000 37 53 19
-0.177168 0.315592 0.603000 59 75 41
-0.175897 0.316115 0.604000 93 119 66
-0.174043 0.315592 0.603000 133 159 106
-0.172766 0.316115 0.604000 147 187 118
-0.170917 0.315592 0.603000 158 198 129
-0.169355 0.315592 0.603000 152 198 118
-0.167792 0.315592 0.603000 150 196 116
-0.166229 0.315592 0.603000 148 195 112
-0.164666 0.315592 0.603000 143 190 107
-0.110035 0.325012 0.621000 128 178 99
-0.108600 0.325536 0.622000 133 183 104
-0.106988 0.325536 0.622000 140 188 109
-0.105546 0.326059 0.623000 142 190 111
-0.103931 0.326059 0.623000 143 188 115
-0.102481 0.326583 0.624000 139 184 111
-0.100864 0.326583 0.624000 127 162 104
-0.174331 0.317682 0.604000 47 59 33
-0.172766 0.317682 0.604000 67 88 48
-0.170917 0.317157 0.603000 97 118 78
-0.169355 0.317157 0.603000 128 160 98
-0.167792 0.317157 0.603000 152 184 122
-0.166229 0.317157 0.603000 159 200 126
-0.164666 0.317157 0.603000 166 207 133
-0.110035 0.326624 0.621000 146 191 118
-0.108600 0.327150 0.622000 145 190 117
-0.106988 0.327150 0.622000 139 178 116
-0.105546 0.327676 0.623000 117 156 94
-0.103931 0.327676 0.623000 85 117 66
-0.167792 0.318721 0.603000 57 72 45
-0.166229 0.318721 0.603000 88 110 63
-0.164666 0.318721 0.603000 113 135 88
-0.110035 0.328235 0.621000 96 129 75
-0.168159 0.385095 0.718000 37 53 21
-0.166298 0.385095 0.718000 38 54 22
-0.164438 0.385095 0.718000 39 57 24
-0.162577 0.385095 0.718000 38 56 23
-0.160716 0.385095 0.718000 36 54 21
-0.158855 0.385095 0.718000 35 53 20
-0.156995 0.385095 0.718000 34 54 21
-0.155134 0.385095 0.718000 33 53 20
