ply
format ascii 1.0
element vertex 2697
property float x
property float y
property float z
property uchar red
property uchar green
property uchar blue
end_header
0.421856 0.391210 0.595968 106 105 88
0.426961 0.386716 0.599334 135 133 121
0.426684 0.386027 0.600880 132 128 121
0.425739 0.388030 0.601187 126 122 115
0.424783 0.390034 0.601493 117 115 107
0.425832 0.388320 0.603036 125 120 118
0.448057 0.371703 0.618600 61 79 56
0.446386 0.371743 0.618318 34 52 29
0.445121 0.372753 0.618363 33 49 28
0.449453 0.370981 0.620410 75 90 63
0.447783 0.371021 0.620129 93 122 81
0.446520 0.372030 0.620176 101 130 89
0.445657 0.374009 0.620551 76 98 67
0.452521 0.370220 0.622502 54 66 42
0.450850 0.370260 0.622221 75 104 61
0.449180 0.370300 0.621940 93 122 79
0.447919 0.371308 0.621990 89 125 78
0.447061 0.373284 0.622370 98 134 87
0.444509 0.375300 0.622464 74 99 64
0.453917 0.369499 0.624313 53 72 34
0.452247 0.369539 0.624032 82 101 63
0.450576 0.369578 0.623750 90 124 73
0.449318 0.370585 0.623803 90 124 73
0.446786 0.372599 0.623906 105 142 90
0.446725 0.376508 0.624954 95 119 87
0.446643 0.380417 0.625999 49 73 41
0.455314 0.368777 0.626123 60 70 45
0.453644 0.368817 0.625842 77 104 55
0.451973 0.368857 0.625561 97 124 75
0.450717 0.369863 0.625616 89 129 71
0.448189 0.371874 0.625725 99 136 86
0.448543 0.376744 0.627120 85 122 72
0.456287 0.367091 0.627593 64 85 45
0.454619 0.367131 0.627312 88 109 69
0.453370 0.368135 0.627372 80 115 57
0.452116 0.369140 0.627430 87 122 64
0.449592 0.371149 0.627544 101 141 83
0.450365 0.376979 0.629291 81 111 72
0.457256 0.365407 0.629058 70 85 58
0.456014 0.366411 0.629120 85 117 66
0.454767 0.367414 0.629182 86 118 67
0.453515 0.368417 0.629243 87 128 65
0.451408 0.371388 0.629704 102 141 88
0.451781 0.376248 0.631126 66 105 52
0.457792 0.362763 0.630170 62 85 51
0.456983 0.364728 0.630582 91 114 80
0.455740 0.365730 0.630647 85 120 66
0.454913 0.367695 0.631057 93 128 74
0.452814 0.370663 0.631526 98 136 79
0.459109 0.358162 0.630851 36 52 29
0.458320 0.360124 0.631271 74 90 67
0.457520 0.362086 0.631690 89 120 78
0.456710 0.364048 0.632107 87 118 76
0.455890 0.366011 0.632522 91 128 76
0.453801 0.368975 0.633001 103 138 84
0.454569 0.378672 0.635897 29 52 18
0.459619 0.355529 0.631935 48 58 42
0.457974 0.355568 0.631658 70 94 62
0.458048 0.359448 0.632787 92 116 84
0.457248 0.361408 0.633210 87 124 74
0.457286 0.365289 0.634333 92 129 79
0.454785 0.367290 0.634470 101 138 86
0.460120 0.352901 0.633007 49 67 44
0.458915 0.353899 0.633086 77 95 72
0.457704 0.354897 0.633164 89 122 78
0.458207 0.359732 0.634656 91 124 80
0.458256 0.363609 0.635790 92 129 77
0.457437 0.365567 0.636215 98 135 83
0.457418 0.377200 0.639590 26 51 14
0.461491 0.352193 0.634785 53 63 47
0.459851 0.352232 0.634509 76 100 68
0.458646 0.353229 0.634590 94 118 86
0.458729 0.357100 0.635739 84 123 72
0.459651 0.362888 0.637598 90 129 78
0.458836 0.364845 0.638029 98 135 85
0.458842 0.376465 0.641437 28 57 16
0.461097 0.347657 0.635120 55 70 45
0.458589 0.345782 0.634125 93 108 83
0.457401 0.346778 0.634211 89 120 78
0.457943 0.351602 0.635734 93 124 82
0.458890 0.357383 0.637611 89 128 75
0.458562 0.364162 0.639560 90 123 77
0.460688 0.376686 0.643641 31 50 20
0.460685 0.343131 0.635432 70 79 59
0.459066 0.343169 0.635160 83 106 70
0.457885 0.344164 0.635250 93 116 80
0.456699 0.345158 0.635339 87 121 72
0.458188 0.355751 0.638766 99 136 86
0.462115 0.375949 0.645490 25 51 11
0.461594 0.341477 0.636822 67 84 54
0.459977 0.341515 0.636549 94 111 81
0.458360 0.341554 0.636277 90 120 72
0.457181 0.342547 0.636370 92 122 74
0.456433 0.344495 0.636826 89 127 72
0.462498 0.339825 0.638205 75 86 65
0.460884 0.339863 0.637933 87 113 71
0.459712 0.340855 0.638030 92 118 76
0.458095 0.340894 0.637758 91 126 70
0.456478 0.340932 0.637485 96 131 75
0.463398 0.338175 0.639583 73 91 58
0.461786 0.338214 0.639312 92 110 77
0.460619 0.339205 0.639411 83 117 66
0.459005 0.339243 0.639140 90 124 73
0.457391 0.339282 0.638868 89 127 70
0.464293 0.336528 0.640956 77 91 69
0.463134 0.337518 0.641059 87 113 71
0.461522 0.337556 0.640787 95 121 79
0.459910 0.337594 0.640516 88 126 71
0.458298 0.337633 0.640245 92 130 75
0.465639 0.335833 0.642700 60 82 51
0.464030 0.335871 0.642429 90 112 81
0.462420 0.335910 0.642158 83 117 68
0.461258 0.336898 0.642263 90 124 75
0.459646 0.336937 0.641992 95 133 78
0.466072 0.333240 0.643684 79 94 69
0.464467 0.333278 0.643414 89 118 77
0.463766 0.335215 0.643902 92 121 80
0.462157 0.335253 0.643631 87 125 70
0.460994 0.336241 0.643739 95 133 78
0.466954 0.331599 0.645040 75 98 62
0.465809 0.332585 0.645153 96 119 83
0.464205 0.332624 0.644883 92 125 71
0.463051 0.333610 0.644994 93 126 72
0.461893 0.334596 0.645105 95 133 78
0.467372 0.329014 0.646005 76 88 64
0.466234 0.329999 0.646121 88 117 72
0.465090 0.330984 0.646237 93 122 77
0.463942 0.331969 0.646351 92 125 69
0.462338 0.332007 0.646081 98 131 75
0.467782 0.326433 0.646958 71 91 56
0.466650 0.327417 0.647079 90 110 75
0.465514 0.328400 0.647198 92 125 69
0.464373 0.329384 0.647316 91 124 68
0.463227 0.330368 0.647433 100 133 77
0.468647 0.324801 0.648292 81 93 69
0.467521 0.325783 0.648415 86 115 70
0.465930 0.325821 0.648148 88 117 72
0.464796 0.326804 0.648269 90 125 69
0.463656 0.327787 0.648390 98 133 77
0.469509 0.323171 0.649620 77 99 68
0.468387 0.324153 0.649747 82 104 73
0.466798 0.324190 0.649479 85 119 70
0.465669 0.325172 0.649604 86 120 71
0.464078 0.325210 0.649337 94 132 77
0.470366 0.321544 0.650943 78 89 70
0.469249 0.322524 0.651073 86 119 77
0.467663 0.322562 0.650806 84 117 75
0.466538 0.323542 0.650934 84 123 70
0.464949 0.323580 0.650666 91 130 77
0.471219 0.319918 0.652260 70 89 61
0.470106 0.320897 0.652393 86 105 77
0.468523 0.320935 0.652126 81 119 71
0.467403 0.321914 0.652258 90 128 80
0.465817 0.321952 0.651991 93 132 81
0.197966 0.392155 0.628341 140 120 80
0.196233 0.393149 0.628370 150 130 90
0.194494 0.394143 0.628397 127 109 57
0.192732 0.394185 0.628100 95 77 25
0.190986 0.395179 0.628126 144 122 67
0.471120 0.316415 0.652767 84 93 73
0.470018 0.317393 0.652904 88 114 74
0.469379 0.319311 0.653442 91 117 77
0.468263 0.320289 0.653576 86 125 72
0.466680 0.320327 0.653310 93 132 79
0.201129 0.389453 0.629886 141 119 80
0.199377 0.389495 0.629591 165 143 104
0.195897 0.390529 0.629328 138 110 52
0.194184 0.392473 0.629685 114 92 28
0.192443 0.393466 0.629714 127 105 41
0.190681 0.393508 0.629417 167 142 75
0.188932 0.394501 0.629445 170 145 78
0.187178 0.395494 0.629472 160 141 85
0.471485 0.313857 0.653663 74 89 60
0.469289 0.315810 0.653943 84 116 67
0.468184 0.316787 0.654082 89 121 72
0.467538 0.318703 0.654623 90 127 75
0.200811 0.387788 0.631160 187 153 100
0.199061 0.387830 0.630866 167 133 80
0.197312 0.387872 0.630571 131 99 34
0.193854 0.389855 0.630639 111 88 13
0.192136 0.391797 0.631000 123 100 25
0.190392 0.392789 0.631031 151 128 51
0.188630 0.392831 0.630734 155 132 55
0.186878 0.393823 0.630764 159 142 76
0.185121 0.394815 0.630793 156 139 73
0.472319 0.312242 0.654955 66 72 55
0.470753 0.312279 0.654692 90 111 71
0.470132 0.314193 0.655242 97 118 78
0.467458 0.315206 0.655119 90 125 69
0.200524 0.387074 0.632762 179 149 90
0.198747 0.386167 0.632136 137 107 48
0.197000 0.386209 0.631842 142 115 37
0.195275 0.387199 0.631879 165 138 60
0.191812 0.389181 0.631950 160 141 58
0.190088 0.391120 0.632315 143 125 46
0.188341 0.392112 0.632348 146 128 49
0.186589 0.393103 0.632380 153 139 81
0.184824 0.393145 0.632083 150 136 78
0.473148 0.310628 0.656242 63 75 47
0.472062 0.311603 0.656389 91 103 75
0.470496 0.311640 0.656125 87 117 67
0.469403 0.312614 0.656271 89 119 69
0.468304 0.313589 0.656415 93 128 70
0.200238 0.386360 0.634364 131 111 46
0.198433 0.384507 0.633401 155 135 70
0.196688 0.384548 0.633107 186 169 85
0.194944 0.384590 0.632814 177 160 76
0.193239 0.386527 0.633186 138 126 38
0.191507 0.387517 0.633224 106 94 6
0.189770 0.388506 0.633261 105 95 23
0.188027 0.389496 0.633298 136 126 54
0.186280 0.390486 0.633333 117 108 62
0.184535 0.392425 0.633699 70 61 15
0.473973 0.309018 0.657523 60 66 47
0.472892 0.309991 0.657673 86 105 67
0.471329 0.310028 0.657410 101 120 82
0.469766 0.310065 0.657147 92 125 69
0.468674 0.311038 0.657295 92 125 69
0.200070 0.389433 0.637315 117 103 43
0.198147 0.383795 0.634998 191 177 117
0.196377 0.382889 0.634368 187 174 91
0.194658 0.383878 0.634411 130 117 34
0.192913 0.383919 0.634117 102 99 15
0.191203 0.385855 0.634493 95 92 8
0.187727 0.387832 0.634573 79 81 18
0.185992 0.389768 0.634944 48 43 10
0.475278 0.308344 0.659215 51 61 36
0.473717 0.308381 0.658952 87 97 72
0.472157 0.308418 0.658689 89 115 71
0.470596 0.308455 0.658426 90 116 72
0.469036 0.308492 0.658164 87 122 66
0.198049 0.389702 0.638969 172 158 110
0.196262 0.388798 0.638333 129 119 49
0.194415 0.385057 0.636684 115 105 35
0.192647 0.384153 0.636052 104 108 35
0.190916 0.385141 0.636095 104 108 35
0.189181 0.386128 0.636138 92 107 51
0.185694 0.388104 0.636220 44 50 15
0.183943 0.389092 0.636259 43 49 14
0.475022 0.307707 0.660643 82 98 64
0.473462 0.307744 0.660381 96 112 78
0.471901 0.307781 0.660118 88 120 69
0.470340 0.307818 0.659855 89 121 70
0.195998 0.389025 0.640286 121 113 58
0.194214 0.388122 0.639648 102 94 39
0.192398 0.385330 0.638332 109 118 57
0.190629 0.384427 0.637697 117 126 65
0.188880 0.384468 0.637403 100 124 67
0.185398 0.386442 0.637490 67 84 43
0.183649 0.387429 0.637533 33 50 9
0.193968 0.389291 0.641945 50 45 16
0.192184 0.388390 0.641306 51 61 18
0.190390 0.386544 0.640325 109 119 76
0.188593 0.383754 0.639005 105 128 74
0.186854 0.384740 0.639051 98 121 67
0.185110 0.385726 0.639097 81 107 63
0.181607 0.387698 0.639186 32 47 22
0.191931 0.389556 0.643609 32 40 9
0.190133 0.387712 0.642623 49 57 26
0.188358 0.386812 0.641982 102 124 77
0.186567 0.384025 0.640655 107 129 82
0.184807 0.383124 0.640017 85 114 69
0.183068 0.385051 0.640408 86 115 70
0.179559 0.387021 0.640501 27 49 18
0.186310 0.386135 0.643297 107 124 85
0.184520 0.382410 0.641619 98 124 80
0.182776 0.383393 0.641670 96 122 78
0.181026 0.384377 0.641719 79 107 69
0.177510 0.386345 0.641816 32 48 25
0.184241 0.382637 0.643569 103 127 86
0.182480 0.380797 0.642579 100 124 83
0.180734 0.381779 0.642632 87 118 76
0.178984 0.382762 0.642684 79 110 68
0.175462 0.385669 0.643131 24 46 17
0.183986 0.386621 0.646923 40 60 25
0.182197 0.381024 0.644529 100 120 85
0.180446 0.380125 0.643885 102 133 89
0.178698 0.381107 0.643939 94 125 81
0.176941 0.383029 0.644342 79 106 73
0.173414 0.384993 0.644446 29 43 23
0.183721 0.389655 0.649949 22 37 12
0.180161 0.380351 0.645836 102 128 88
0.178413 0.379454 0.645190 102 128 88
0.176662 0.380435 0.645247 88 117 76
0.174899 0.382354 0.645653 80 109 68
0.178125 0.379679 0.647143 99 124 89
0.176384 0.377845 0.646143 95 124 83
0.174625 0.379762 0.646554 90 119 78
0.172847 0.382618 0.647316 76 101 66
0.177836 0.379902 0.649101 51 70 44
0.176098 0.377133 0.647740 97 126 85
0.174361 0.376237 0.647091 101 130 89
0.172589 0.379090 0.647862 86 115 72
0.170802 0.381943 0.648629 69 98 55
0.175813 0.376421 0.649337 46 69 33
0.174084 0.374591 0.648329 100 123 87
0.172345 0.374632 0.648036 101 130 85
0.170566 0.377482 0.648813 88 117 72
0.168756 0.381268 0.649942 67 90 54
0.173799 0.373881 0.649922 56 73 43
0.172070 0.372987 0.649270 102 128 84
0.170320 0.373964 0.649336 98 124 80
0.168533 0.376810 0.650118 85 111 67
0.166711 0.380593 0.651255 75 101 57
0.171786 0.372279 0.650860 70 94 51
0.170063 0.371386 0.650206 105 129 86
0.168296 0.373295 0.650636 102 129 82
0.166518 0.375205 0.651063 81 108 61
0.164687 0.378983 0.652209 75 97 66
0.171466 0.374368 0.653542 22 42 9
0.169764 0.371611 0.652158 73 93 60
0.168044 0.370720 0.651502 106 133 86
0.166291 0.371694 0.651573 94 121 74
0.164488 0.374535 0.652367 85 111 71
0.162621 0.379242 0.653882 71 97 57
0.169436 0.373698 0.654845 23 40 14
0.167743 0.370944 0.653455 71 97 55
0.166006 0.370985 0.653163 98 124 82
0.164247 0.371959 0.653235 87 116 71
0.162432 0.374797 0.654034 83 112 67
0.160548 0.379499 0.655558 64 84 51
0.167405 0.373028 0.656149 23 44 6
0.165782 0.367484 0.653652 81 102 64
0.164030 0.368456 0.653727 99 128 83
0.162248 0.370359 0.654168 93 122 77
0.160399 0.374125 0.655340 77 103 63
0.158500 0.378823 0.656873 63 89 49
0.165416 0.370498 0.656713 32 47 18
0.163770 0.366819 0.654944 87 113 71
0.162015 0.367790 0.655021 102 128 86
0.160226 0.369692 0.655466 90 115 78
0.158335 0.374384 0.657013 78 103 66
0.156451 0.378147 0.658188 61 77 56
0.163486 0.366114 0.656527 32 55 21
0.161783 0.365226 0.655865 93 116 82
0.159999 0.367125 0.656315 95 120 83
0.158205 0.369024 0.656764 84 109 72
0.156299 0.373712 0.658320 84 102 81
0.161394 0.368233 0.658939 41 56 31
0.159745 0.365490 0.657528 101 120 94
0.157984 0.366460 0.657609 113 132 106
0.156218 0.367429 0.657690 119 136 120
0.154299 0.372111 0.659256 116 133 117
0.152355 0.376794 0.660818 73 85 77
0.480012 0.276563 0.679992 125 108 67
0.479011 0.277514 0.680204 88 99 51
0.477502 0.277550 0.679950 95 106 58
0.157796 0.362972 0.658070 131 146 128
0.156003 0.364867 0.658529 132 149 135
0.154199 0.366763 0.658986 133 150 136
0.152345 0.369585 0.659814 88 102 93
0.150307 0.376118 0.662133 42 56 47
0.480760 0.275000 0.681157 137 127 86
0.479256 0.275035 0.680903 110 100 59
0.478258 0.275984 0.681118 91 110 61
0.476751 0.276020 0.680864 90 109 60
0.155860 0.360457 0.658605 115 131 120
0.153990 0.364203 0.659821 133 149 138
0.152221 0.365170 0.659906 95 109 98
0.150446 0.366137 0.659990 80 94 83
0.480003 0.273474 0.682063 110 109 65
0.478501 0.273509 0.681810 97 96 52
0.477505 0.274457 0.682028 91 114 62
0.476000 0.274493 0.681774 92 115 63
0.157462 0.355090 0.658571 33 42 35
0.155721 0.356056 0.658662 65 79 68
0.154050 0.355171 0.657996 124 138 127
0.152344 0.355212 0.657709 127 141 130
0.150638 0.355253 0.657422 124 138 127
0.148931 0.355293 0.657134 85 94 87
0.480232 0.271003 0.682743 137 117 77
0.478735 0.271039 0.682491 93 101 56
0.477747 0.271986 0.682712 98 106 61
0.476247 0.272021 0.682460 89 115 62
0.475251 0.272968 0.682680 92 118 65
0.155513 0.353510 0.659464 31 43 35
0.153809 0.353551 0.659177 110 122 114
0.152146 0.352668 0.658510 144 158 147
0.150489 0.351784 0.657843 129 143 132
0.148790 0.351824 0.657557 74 86 78
0.147092 0.351865 0.657271 61 73 65
0.478961 0.268573 0.683161 113 103 60
0.477470 0.268608 0.682910 88 107 58
0.476486 0.269554 0.683134 89 108 59
0.475496 0.270499 0.683358 88 114 59
0.474502 0.271445 0.683580 90 116 61
0.153569 0.351933 0.660354 72 81 74
0.151909 0.351050 0.659684 135 149 140
0.150211 0.351091 0.659398 142 156 147
0.148512 0.351131 0.659112 118 131 126
0.146813 0.351172 0.658827 78 91 86
0.479694 0.267020 0.684299 121 118 73
0.478204 0.267055 0.684048 98 95 50
0.477225 0.268000 0.684276 88 111 59
0.475733 0.268035 0.684025 88 111 59
0.474746 0.268980 0.684251 90 112 55
0.151631 0.350357 0.661240 73 85 77
0.149932 0.350398 0.660954 133 145 137
0.148234 0.350438 0.660668 150 164 155
0.146585 0.349556 0.659998 108 122 113
0.144889 0.349597 0.659712 88 99 95
0.480422 0.265469 0.685431 146 122 81
0.478935 0.265504 0.685181 104 108 62
0.477449 0.265540 0.684931 98 102 56
0.476471 0.266483 0.685161 85 113 57
0.474982 0.266519 0.684910 89 117 61
0.151352 0.349664 0.662795 37 49 41
0.149654 0.349705 0.662509 96 108 100
0.148003 0.348824 0.661836 145 159 150
0.146307 0.348864 0.661551 137 151 142
0.144611 0.348905 0.661265 114 126 116
0.480178 0.264862 0.686792 130 111 68
0.478691 0.264898 0.686542 91 105 54
0.477205 0.264933 0.686292 91 105 54
0.475718 0.264969 0.686041 86 112 57
0.474232 0.265004 0.685791 90 116 61
0.149421 0.348091 0.663674 38 50 42
0.147725 0.348132 0.663389 108 120 110
0.146079 0.347252 0.662715 137 149 139
0.144439 0.346372 0.662041 133 146 133
0.142692 0.347333 0.662144 115 128 115
0.479418 0.263350 0.687667 115 103 58
0.477934 0.263386 0.687417 88 109 55
0.476450 0.263421 0.687167 87 108 54
0.149143 0.347399 0.665227 27 36 27
0.147495 0.346521 0.664550 67 76 67
0.145802 0.346561 0.664265 140 149 140
0.144162 0.345682 0.663589 146 156 144
0.142471 0.345723 0.663305 137 147 135
0.140780 0.345763 0.663020 105 115 103
0.480141 0.261805 0.688786 120 113 66
0.478659 0.261840 0.688537 108 101 54
0.477178 0.261875 0.688287 85 109 52
0.147267 0.344912 0.665707 34 44 32
0.145576 0.344952 0.665422 93 103 91
0.143885 0.344992 0.665138 147 157 145
0.142250 0.344114 0.664460 148 158 146
0.140562 0.344155 0.664176 128 141 126
0.138874 0.344195 0.663892 101 114 99
0.145350 0.343345 0.666575 35 43 32
0.143716 0.342468 0.665895 107 120 105
0.141974 0.343426 0.666006 138 151 136
0.140345 0.342549 0.665328 98 116 95
0.138659 0.342589 0.665044 72 90 69
0.143440 0.341780 0.667439 45 55 41
0.141754 0.341821 0.667155 112 122 108
0.140128 0.340945 0.666474 92 114 87
0.138445 0.340985 0.666191 76 98 71
0.136762 0.341025 0.665908 63 84 60
0.143219 0.340177 0.668582 27 37 23
0.141593 0.339303 0.667899 71 81 67
0.139912 0.339343 0.667616 95 117 88
0.138232 0.339383 0.667333 88 110 81
0.136551 0.339423 0.667051 75 99 69
0.141318 0.338617 0.669438 29 37 24
0.139637 0.338657 0.669155 84 103 75
0.138020 0.337783 0.668471 94 113 85
0.136341 0.337823 0.668189 76 101 66
0.134663 0.337863 0.667906 67 92 57
0.561135 0.395377 0.772335 102 102 53
0.559266 0.395421 0.772020 97 97 48
0.557396 0.395466 0.771706 88 111 57
0.555526 0.395511 0.771391 92 115 61
0.139423 0.337058 0.670290 45 64 36
0.137745 0.337098 0.670008 92 111 83
0.136066 0.337138 0.669725 84 109 72
0.134388 0.337178 0.669443 74 99 62
0.132781 0.336305 0.668758 61 80 54
0.563222 0.395467 0.774866 138 121 80
0.561350 0.395512 0.774551 88 96 44
0.559478 0.395557 0.774236 96 104 52
0.557090 0.394703 0.773417 93 114 62
0.555733 0.395646 0.773605 95 116 64
0.139148 0.336373 0.671827 36 53 27
0.137534 0.335501 0.671139 73 90 64
0.135858 0.335541 0.670856 94 119 82
0.134182 0.335581 0.670574 75 100 63
0.132507 0.335621 0.670292 70 92 61
0.563439 0.395600 0.777087 124 109 68
0.561564 0.395645 0.776772 88 100 47
0.559171 0.394793 0.775950 95 107 54
0.557814 0.395734 0.776140 88 109 55
0.555426 0.394882 0.775320 92 113 59
0.137259 0.334817 0.672673 33 47 25
0.135650 0.333946 0.671983 92 117 80
0.133977 0.333986 0.671701 81 106 69
0.132304 0.334026 0.671420 75 100 65
0.130631 0.334066 0.671138 60 85 50
0.565531 0.395687 0.779629 128 120 78
0.563654 0.395731 0.779313 104 96 54
0.561777 0.395776 0.778997 87 106 55
0.559382 0.394925 0.778172 90 109 58
0.557507 0.394969 0.777857 89 110 58
0.555632 0.395014 0.777541 93 114 62
0.137049 0.333224 0.673796 29 39 23
0.135376 0.333264 0.673515 64 87 53
0.133703 0.333303 0.673233 88 111 77
0.132030 0.333343 0.672951 77 102 65
0.130432 0.332473 0.672261 73 98 61
0.566273 0.396710 0.782372 108 107 65
0.563346 0.394965 0.781032 101 100 58
0.561989 0.395905 0.781227 83 106 54
0.559592 0.395055 0.780400 85 108 56
0.557714 0.395099 0.780084 92 108 58
0.555837 0.395144 0.779768 106 122 72
0.135170 0.331672 0.674634 39 57 24
0.133499 0.331712 0.674353 90 108 75
0.131829 0.331752 0.674072 79 103 64
0.130159 0.331791 0.673791 74 98 59
0.128488 0.331831 0.673509 63 82 54
0.568374 0.396791 0.784927 140 130 102
0.564082 0.395987 0.783778 93 101 56
0.562200 0.396032 0.783461 82 108 55
0.559801 0.395182 0.782632 82 108 55
0.557921 0.395227 0.782315 93 104 58
0.556041 0.395272 0.781999 122 133 87
0.134896 0.330990 0.676164 29 41 15
0.133226 0.331030 0.675882 62 74 48
0.131629 0.330162 0.675188 88 112 71
0.129961 0.330202 0.674907 72 96 55
0.128293 0.330241 0.674626 70 89 59
0.568592 0.396914 0.787170 129 125 98
0.566704 0.396959 0.786852 83 101 55
0.564817 0.397004 0.786534 86 104 58
0.562929 0.397049 0.786217 83 109 56
0.560009 0.395308 0.784868 82 108 55
0.558127 0.395353 0.784551 110 117 70
0.556244 0.395398 0.784234 136 143 96
0.133023 0.329441 0.676995 41 51 28
0.131355 0.329481 0.676715 91 112 74
0.129764 0.328614 0.676018 78 99 61
0.128098 0.328654 0.675738 76 99 65
0.569335 0.397927 0.789937 107 112 82
0.567442 0.397972 0.789618 83 105 58
0.565549 0.398017 0.789300 83 105 58
0.563138 0.397171 0.788463 84 107 55
0.561248 0.397216 0.788145 83 106 54
0.558845 0.396369 0.787309 130 127 84
0.132893 0.326949 0.677685 30 39 21
0.131230 0.326989 0.677405 78 98 65
0.129568 0.327028 0.677125 84 104 71
0.127984 0.326162 0.676428 73 98 61
0.126324 0.326201 0.676148 69 94 57
0.571974 0.398891 0.793033 63 74 42
0.570602 0.399827 0.793235 94 105 73
0.569224 0.400763 0.793437 79 104 56
0.566801 0.399917 0.792595 79 104 56
0.564901 0.399963 0.792275 88 107 56
0.563000 0.400008 0.791955 103 122 71
0.131032 0.325405 0.678507 52 71 41
0.129372 0.325445 0.678227 85 104 74
0.127712 0.325484 0.677948 73 99 59
0.126134 0.324619 0.677249 75 101 61
0.572191 0.399006 0.795295 78 91 58
0.571341 0.400830 0.796023 90 103 70
0.569435 0.400876 0.795702 81 106 58
0.567530 0.400921 0.795382 81 106 58
0.565624 0.400967 0.795061 93 107 58
0.563719 0.401012 0.794740 112 126 77
0.130910 0.322920 0.679181 27 46 18
0.129255 0.322960 0.678902 83 102 74
0.127600 0.322999 0.678623 75 101 59
0.126028 0.322134 0.677923 69 95 53
0.572934 0.400007 0.798089 89 106 69
0.571028 0.400053 0.797768 87 104 67
0.569645 0.400987 0.797973 83 109 58
0.567737 0.401032 0.797652 84 110 59
0.130790 0.320439 0.679845 27 42 17
0.129140 0.320478 0.679567 70 85 60
0.127490 0.320518 0.679290 75 101 59
0.125840 0.320557 0.679012 70 96 54
0.124190 0.320596 0.678734 65 85 52
0.574527 0.399184 0.800154 65 72 50
0.573149 0.400117 0.800362 89 108 66
0.571765 0.401050 0.800570 83 102 60
0.570376 0.401983 0.800777 84 107 55
0.128948 0.318903 0.680651 51 65 43
0.127382 0.318041 0.679947 82 106 65
0.125653 0.318982 0.680096 74 98 57
0.124092 0.318119 0.679393 74 94 59
0.574215 0.398407 0.801898 71 81 56
0.573363 0.400225 0.802641 87 108 66
0.571106 0.402975 0.803590 86 109 57
0.570225 0.404794 0.804327 86 109 57
0.128757 0.317330 0.681730 33 47 27
0.127112 0.317369 0.681453 79 103 64
0.125467 0.317409 0.681176 76 100 61
0.123822 0.317448 0.680899 70 93 57
0.575808 0.397584 0.803964 50 62 36
0.574431 0.398515 0.804177 83 95 69
0.572186 0.401262 0.805135 82 107 59
0.571834 0.403964 0.806412 87 108 56
0.570947 0.405780 0.807153 87 108 56
0.128567 0.315759 0.682804 32 45 28
0.126924 0.315798 0.682527 54 77 41
0.125282 0.315837 0.682251 79 102 66
0.123639 0.315877 0.681974 70 93 57
0.121997 0.315916 0.681698 71 94 58
0.575496 0.396806 0.805708 58 73 44
0.574647 0.398620 0.806461 89 104 75
0.572919 0.402249 0.807961 80 107 58
0.573080 0.405832 0.809779 86 105 54
0.571149 0.405878 0.809454 97 116 65
0.126655 0.315128 0.684031 42 61 31
0.125013 0.315167 0.683754 90 109 79
0.123370 0.315206 0.683478 72 96 57
0.121818 0.314347 0.682769 67 91 52
0.575714 0.396912 0.807992 71 89 56
0.574862 0.398724 0.808749 92 110 77
0.573649 0.403231 0.810796 80 107 58
0.572764 0.405044 0.811547 92 106 57
0.571868 0.406857 0.812296 107 121 72
0.126469 0.313560 0.685098 33 50 22
0.124829 0.313599 0.684822 85 102 74
0.123189 0.313638 0.684546 76 100 61
0.121549 0.313677 0.684270 67 91 52
0.119909 0.313716 0.683994 76 93 65
0.575401 0.396133 0.809739 81 101 68
0.573160 0.398871 0.810719 80 107 60
0.573856 0.403328 0.813099 78 105 58
0.572967 0.405138 0.813855 89 100 54
0.571551 0.406067 0.814069 126 137 91
0.126200 0.312891 0.686600 27 42 17
0.124560 0.312930 0.686324 70 85 60
0.122920 0.312969 0.686047 81 105 66
0.121280 0.313008 0.685771 67 91 52
0.119734 0.312150 0.685058 76 95 65
0.576997 0.395309 0.811807 54 63 43
0.575618 0.396236 0.812030 88 109 69
0.573371 0.398970 0.813017 82 109 62
0.573540 0.402541 0.814865 82 109 62
0.572650 0.404349 0.815625 105 109 65
0.571234 0.405277 0.815842 133 137 93
0.124291 0.312261 0.687825 53 67 47
0.122740 0.311404 0.687109 78 101 65
0.121103 0.311443 0.686833 70 93 57
0.119466 0.311482 0.686558 73 93 60
0.573580 0.399068 0.815318 81 108 59
0.573745 0.402634 0.817176 83 110 61
0.572333 0.403560 0.817395 127 125 86
0.124109 0.310697 0.688883 45 56 37
0.122561 0.309841 0.688165 79 102 66
0.120835 0.310775 0.688332 71 94 58
0.119291 0.309919 0.687615 74 94 59
0.573789 0.399163 0.817625 82 108 57
0.572908 0.400967 0.818396 81 107 56
0.571498 0.401892 0.818619 136 132 94
0.123928 0.309135 0.689937 36 46 30
0.122382 0.308281 0.689217 77 100 64
0.120750 0.308320 0.688943 72 95 59
0.119118 0.308358 0.688668 68 92 53
0.117583 0.307504 0.687950 65 89 50
0.573997 0.399256 0.819936 79 105 54
0.573113 0.401058 0.820712 76 102 51
0.571182 0.401104 0.820387 111 105 67
0.123747 0.307576 0.690986 35 45 31
0.122205 0.306722 0.690265 67 90 54
0.120575 0.306761 0.689990 71 94 58
0.118946 0.306800 0.689716 67 93 53
0.117413 0.305946 0.688996 70 96 56
0.573682 0.398470 0.821699 78 104 51
0.572276 0.399393 0.821927 67 93 40
0.570348 0.399439 0.821603 93 87 49
0.123567 0.306018 0.692031 37 45 32
0.121938 0.306057 0.691757 57 77 44
0.120401 0.305204 0.691033 79 99 66
0.118774 0.305243 0.690759 67 93 51
0.117147 0.305282 0.690485 69 95 53
0.573889 0.398560 0.824018 79 102 50
0.571960 0.398606 0.823693 61 84 32
0.570032 0.398652 0.823368 80 76 38
0.121852 0.303611 0.692345 51 69 36
0.120228 0.303650 0.692072 83 101 68
0.118603 0.303688 0.691798 66 92 50
0.116979 0.303727 0.691525 64 90 48
0.115455 0.302875 0.690801 57 79 48
0.121495 0.303838 0.694287 44 62 29
0.119961 0.302987 0.693559 82 100 67
0.118337 0.303025 0.693285 69 93 52
0.116811 0.302175 0.692559 65 89 48
0.115291 0.301323 0.691834 62 84 53
0.121320 0.302285 0.695320 33 50 20
0.119789 0.301435 0.694590 81 98 68
0.118167 0.301474 0.694317 69 95 53
0.116645 0.300624 0.693589 67 93 51
0.115025 0.300663 0.693316 67 90 56
0.121237 0.299847 0.695890 36 51 24
0.119618 0.299886 0.695617 82 97 70
0.117999 0.299925 0.695344 71 97 55
0.116479 0.299076 0.694614 67 93 51
0.114862 0.299114 0.694342 70 90 55
0.121064 0.298300 0.696911 39 51 27
0.119447 0.298339 0.696639 70 82 58
0.117831 0.298377 0.696367 74 100 58
0.116214 0.298416 0.696095 66 92 50
0.114597 0.298454 0.695822 70 91 53
0.577216 0.396275 0.834630 72 103 46
0.575283 0.396321 0.834304 76 107 50
0.573349 0.396367 0.833979 60 80 35
0.571416 0.396413 0.833653 39 59 14
0.119183 0.297679 0.698119 54 68 46
0.117566 0.297718 0.697847 73 99 57
0.116049 0.296871 0.697113 68 94 52
0.114435 0.296909 0.696841 67 93 53
0.577424 0.396355 0.836970 70 103 47
0.575488 0.396402 0.836644 70 103 47
0.573552 0.396448 0.836318 58 75 34
0.571616 0.396494 0.835992 41 58 17
0.119013 0.296135 0.699134 44 58 38
0.117399 0.296173 0.698862 73 99 59
0.115785 0.296212 0.698591 69 95 55
0.114171 0.296250 0.698319 64 90 50
0.580097 0.397256 0.840214 71 103 52
0.577632 0.396434 0.839315 70 103 47
0.575693 0.396480 0.838988 70 103 47
0.573754 0.396526 0.838662 56 70 30
0.571816 0.396572 0.838336 42 56 16
0.118749 0.295476 0.700612 47 55 40
0.117233 0.294631 0.699873 79 103 64
0.115622 0.294670 0.699602 69 93 54
0.114010 0.294708 0.699331 64 90 50
0.580306 0.397331 0.842566 73 106 52
0.578362 0.397378 0.842239 71 104 50
0.576418 0.397424 0.841912 73 106 52
0.573956 0.396603 0.841011 54 66 29
0.118581 0.293935 0.701620 44 49 35
0.117068 0.293091 0.700879 81 99 64
0.115459 0.293130 0.700608 75 93 58
0.113954 0.292286 0.699869 68 92 53
0.580514 0.397405 0.844923 71 104 50
0.578044 0.396585 0.844018 71 103 52
0.576100 0.396631 0.843691 64 96 45
0.574156 0.396677 0.843364 47 59 24
0.118511 0.291515 0.702151 41 49 36
0.117004 0.290672 0.701409 79 97 64
0.115400 0.290710 0.701139 74 92 59
0.113796 0.290748 0.700869 67 93 53
0.112192 0.290787 0.700599 74 100 60
0.582670 0.397429 0.847613 74 107 53
0.580195 0.396610 0.846705 71 104 50
0.578249 0.396657 0.846377 71 102 49
0.576302 0.396703 0.846050 65 96 43
0.573838 0.395884 0.845144 45 58 27
0.118442 0.289099 0.702673 41 49 36
0.116941 0.288257 0.701929 73 92 62
0.115342 0.288295 0.701660 73 92 62
0.113743 0.288333 0.701390 64 89 52
0.582350 0.396634 0.849397 74 107 51
0.579876 0.395816 0.848487 70 103 47
0.577930 0.395863 0.848159 77 110 56
0.575983 0.395909 0.847832 57 90 36
0.574037 0.395955 0.847504 46 61 32
0.118375 0.286687 0.703185 41 46 34
0.116779 0.286725 0.702916 75 92 64
0.115286 0.285884 0.702171 75 92 64
0.113692 0.285922 0.701903 65 88 52
0.584510 0.396655 0.852094 88 109 71
0.582558 0.396702 0.851766 77 110 54
0.580082 0.395885 0.850853 72 105 49
0.578133 0.395932 0.850525 74 104 54
0.576184 0.395978 0.850197 51 81 31
0.573718 0.395161 0.849286 45 60 35
0.118310 0.284280 0.703688 39 44 32
0.116719 0.284318 0.703420 66 83 55
0.115128 0.284355 0.703152 73 90 62
0.113537 0.284393 0.702884 65 88 52
0.111945 0.284431 0.702616 75 98 62
0.584720 0.396721 0.854469 85 109 70
0.582239 0.395906 0.853553 72 105 47
0.580287 0.395952 0.853224 68 101 43
0.578336 0.395999 0.852896 71 101 51
0.576384 0.396045 0.852567 56 86 36
0.573916 0.395229 0.851653 47 58 37
0.118148 0.282753 0.704663 46 51 39
0.116560 0.282791 0.704395 64 81 51
0.114971 0.282829 0.704128 76 93 63
0.113382 0.282867 0.703861 68 92 53
0.111793 0.282905 0.703593 70 94 55
0.584929 0.396785 0.856847 84 108 69
0.582446 0.395970 0.855929 69 104 48
0.580492 0.396017 0.855600 68 103 47
0.578016 0.395202 0.854682 76 103 54
0.576065 0.395249 0.854354 56 83 34
0.116299 0.282143 0.705850 61 78 48
0.114815 0.281304 0.705099 80 97 67
0.113228 0.281342 0.704832 65 89 50
0.111642 0.281380 0.704565 67 91 52
0.584608 0.395986 0.858639 81 105 66
0.582125 0.395173 0.857718 72 107 53
0.580172 0.395220 0.857389 68 103 49
0.578218 0.395266 0.857060 76 103 56
0.576264 0.395313 0.856731 42 69 22
0.116039 0.281494 0.707305 64 80 48
0.114555 0.280657 0.706552 82 98 66
0.112969 0.280695 0.706285 68 92 53
0.111382 0.280733 0.706018 67 91 52
0.584288 0.395188 0.860430 80 106 66
0.582331 0.395235 0.860101 68 105 53
0.580375 0.395281 0.859771 63 100 48
0.577897 0.394469 0.858849 76 102 58
0.575943 0.394515 0.858520 39 65 21
0.115881 0.279972 0.708271 62 78 46
0.114295 0.280010 0.708004 83 99 67
0.112709 0.280048 0.707737 68 92 51
0.111123 0.280086 0.707470 67 91 50
0.584495 0.395248 0.862818 81 107 67
0.582536 0.395294 0.862488 69 103 52
0.580054 0.394483 0.861563 64 98 47
0.578098 0.394530 0.861233 75 101 61
0.576141 0.394576 0.860904 35 61 21
0.115518 0.280198 0.710214 57 69 41
0.114035 0.279363 0.709456 83 95 67
0.112449 0.279400 0.709189 69 90 52
0.110863 0.279438 0.708922 69 90 52
0.587194 0.396115 0.866141 86 115 72
0.584702 0.395305 0.865211 80 109 66
0.582215 0.394495 0.864282 68 102 51
0.580256 0.394542 0.863952 64 98 47
0.577777 0.393731 0.863025 70 95 58
0.575820 0.393778 0.862695 38 63 26
0.115361 0.278678 0.711175 59 71 43
0.113775 0.278715 0.710908 81 93 65
0.112189 0.278753 0.710641 67 88 50
0.110603 0.278791 0.710374 69 90 52
0.586872 0.395314 0.867939 90 119 76
0.584908 0.395360 0.867609 80 109 66
0.582943 0.395407 0.867278 69 103 52
0.580457 0.394598 0.866347 63 97 46
0.577976 0.393789 0.865416 64 90 50
0.576017 0.393835 0.865086 44 70 30
0.115101 0.278030 0.712628 58 73 46
0.113515 0.278068 0.712361 81 96 69
0.112038 0.277235 0.711599 70 91 53
0.110454 0.277273 0.711333 70 91 53
0.589578 0.396175 0.871278 61 72 51
0.587608 0.396222 0.870946 94 123 80
0.585112 0.395414 0.870011 78 107 64
0.583146 0.395461 0.869680 68 103 49
0.580657 0.394652 0.868746 65 100 46
0.578693 0.394699 0.868415 63 89 49
0.576729 0.394746 0.868084 40 66 26
0.114841 0.277383 0.714080 53 68 41
0.113362 0.276551 0.713316 81 96 69
0.111778 0.276589 0.713049 70 91 53
0.110306 0.275756 0.712286 71 92 54
0.589787 0.396225 0.873688 67 78 57
0.587815 0.396272 0.873356 95 121 77
0.585317 0.395465 0.872418 80 106 62
0.583347 0.395512 0.872086 72 104 53
0.581378 0.395559 0.871755 67 99 48
0.579409 0.395606 0.871423 60 86 46
0.576923 0.394799 0.870487 33 59 19
0.114582 0.276736 0.715532 53 68 41
0.113210 0.275036 0.714266 81 96 69
0.111628 0.275074 0.714000 69 90 52
0.110160 0.274242 0.713235 70 91 53
0.590526 0.397125 0.876712 70 82 58
0.587492 0.395467 0.875161 95 121 77
0.585520 0.395514 0.874829 83 109 65
0.583548 0.395561 0.874497 74 106 57
0.581576 0.395608 0.874165 68 100 51
0.579604 0.395655 0.873833 55 80 43
0.577632 0.395702 0.873501 35 60 23
0.114427 0.275221 0.716482 58 73 46
0.113058 0.273523 0.715212 80 95 68
0.111700 0.271825 0.713943 70 90 55
0.590202 0.396318 0.878522 74 86 62
0.588225 0.396366 0.878189 87 113 69
0.585722 0.395561 0.877245 84 110 66
0.583748 0.395608 0.876913 70 102 51
0.582294 0.396507 0.877191 65 97 46
0.580317 0.396554 0.876858 54 80 40
0.577824 0.395749 0.875916 38 64 24
0.114589 0.271108 0.715913 55 70 43
0.113015 0.271145 0.715648 80 95 68
0.111552 0.270316 0.714880 69 92 56
0.590408 0.396362 0.880946 75 87 63
0.587901 0.395559 0.879999 85 111 67
0.586449 0.396456 0.880280 83 109 65
0.583947 0.395653 0.879334 68 101 47
0.581970 0.395700 0.879001 65 98 44
0.578016 0.395794 0.878335 34 60 20
0.114437 0.269600 0.716847 60 77 49
0.112974 0.268772 0.716076 78 95 67
0.111517 0.267943 0.715306 69 92 56
0.110064 0.267115 0.714536 68 91 55
0.590083 0.395554 0.882758 75 87 63
0.588104 0.395602 0.882425 85 111 67
0.585600 0.394799 0.881476 81 107 63
0.584145 0.395696 0.881759 72 105 49
0.581646 0.394893 0.880811 64 97 41
0.580186 0.395790 0.881092 60 86 44
0.578206 0.395837 0.880759 37 63 21
0.114392 0.267230 0.717266 63 80 52
0.112826 0.267267 0.717003 74 91 63
0.111372 0.266440 0.716231 69 93 54
0.109808 0.266477 0.715968 70 94 55
0.589759 0.394747 0.884571 77 89 65
0.587780 0.394794 0.884238 85 112 65
0.585800 0.394841 0.883904 77 104 57
0.583821 0.394888 0.883571 68 101 45
0.581841 0.394935 0.883238 66 99 43
0.579862 0.394982 0.882905 56 80 39
0.577882 0.395030 0.882571 36 60 19
0.114242 0.265727 0.718188 63 80 50
0.112788 0.264901 0.717414 73 90 60
0.111227 0.264938 0.717151 65 89 50
0.109667 0.264975 0.716888 68 92 53
0.589435 0.393939 0.886383 78 90 64
0.587455 0.393986 0.886050 94 121 72
0.585476 0.394033 0.885717 80 107 58
0.583496 0.394080 0.885383 73 101 47
0.581517 0.394127 0.885050 70 98 44
0.579537 0.394175 0.884717 59 80 42
0.578071 0.395070 0.885002 36 57 19
0.114093 0.264227 0.719105 64 82 49
0.112532 0.264264 0.718843 76 94 61
0.110971 0.264301 0.718580 65 89 48
0.109526 0.263476 0.717805 67 91 50
0.589639 0.393977 0.888819 76 86 61
0.587657 0.394025 0.888485 96 122 71
0.585151 0.393225 0.887529 83 109 58
0.583172 0.393273 0.887196 74 102 48
0.581192 0.393320 0.886863 69 97 43
0.579213 0.393367 0.886529 67 88 48
0.577747 0.394261 0.886817 34 55 15
0.115398 0.263553 0.720797 38 43 33
0.113944 0.262729 0.720018 66 84 51
0.112386 0.262766 0.719756 73 91 58
0.110828 0.262803 0.719493 65 89 50
0.109270 0.262840 0.719231 74 98 59
0.589314 0.393169 0.890634 79 86 62
0.587332 0.393216 0.890300 92 118 67
0.585350 0.393263 0.889966 81 107 56
0.582847 0.392465 0.889008 75 104 45
0.581386 0.393358 0.889299 71 100 41
0.579404 0.393405 0.888965 58 79 37
0.577422 0.393452 0.888632 34 55 13
0.115353 0.261195 0.721188 38 43 31
0.113797 0.261232 0.720926 73 90 60
0.112242 0.261270 0.720664 73 90 60
0.110686 0.261307 0.720402 67 91 52
0.109015 0.262204 0.720658 75 99 60
0.588989 0.392360 0.892448 79 89 64
0.587007 0.392407 0.892115 98 124 73
0.584503 0.391610 0.891154 86 112 61
0.583043 0.392501 0.891447 72 104 44
0.581061 0.392549 0.891114 69 101 41
0.579079 0.392596 0.890780 65 86 44
0.577097 0.392643 0.890446 35 56 14
0.115098 0.260561 0.722612 42 50 35
0.113542 0.260598 0.722350 74 91 61
0.111987 0.260635 0.722088 74 91 61
0.110431 0.260672 0.721826 67 90 54
0.588665 0.391551 0.894263 75 85 60
0.586683 0.391598 0.893929 95 123 71
0.584700 0.391645 0.893596 81 109 57
0.582718 0.391693 0.893262 71 104 46
0.580736 0.391740 0.892928 66 99 41
0.578754 0.391787 0.892595 66 87 47
0.576772 0.391834 0.892261 40 61 21
0.114949 0.259068 0.723512 47 56 38
0.113396 0.259105 0.723251 78 96 63
0.111843 0.259142 0.722989 73 91 58
0.110290 0.259179 0.722728 64 89 52
0.588340 0.390742 0.896078 71 81 54
0.586358 0.390789 0.895744 94 125 72
0.584376 0.390837 0.895411 79 110 57
0.581874 0.390041 0.894445 68 101 45
0.580412 0.390931 0.894743 65 98 42
0.578429 0.390978 0.894410 62 83 43
0.576959 0.391868 0.894706 51 72 32
0.114801 0.257577 0.724408 47 58 39
0.113251 0.257614 0.724147 76 99 65
0.111700 0.257650 0.723886 69 92 58
0.110150 0.257687 0.723625 66 91 54
0.588015 0.389933 0.897893 68 78 53
0.585509 0.389139 0.896924 94 124 74
0.583530 0.389187 0.896591 78 108 58
0.581550 0.389234 0.896258 72 105 49
0.579571 0.389281 0.895924 67 100 44
0.578105 0.390169 0.896224 64 85 47
0.576634 0.391058 0.896523 42 63 25
0.116306 0.255195 0.725031 34 48 28
0.114761 0.255232 0.724770 53 67 47
0.113216 0.255268 0.724510 68 93 56
0.111671 0.255305 0.724250 66 91 54
0.110125 0.255342 0.723990 67 96 55
0.579762 0.389313 0.898373 65 96 41
0.577780 0.389361 0.898039 64 85 47
0.575798 0.389408 0.897705 42 63 25
0.116263 0.252854 0.725383 33 47 27
0.114723 0.252891 0.725124 66 80 60
0.113183 0.252927 0.724864 66 91 54
0.111642 0.252964 0.724605 66 91 54
0.110102 0.253001 0.724346 69 95 55
0.114578 0.251408 0.726001 75 89 67
0.113041 0.251445 0.725742 68 91 55
0.111503 0.251481 0.725483 67 90 54
0.109965 0.251518 0.725224 69 94 59
1.168408 1.315163 1.614176 71 78 56
1.163598 1.315278 1.613367 96 122 78
1.158789 1.315392 1.612557 82 108 64
1.153979 1.315507 1.611747 71 102 49
1.149170 1.315621 1.610938 66 97 44
1.144360 1.315736 1.610128 62 86 47
1.139551 1.315851 1.609318 46 70 31
0.115864 0.250744 0.727667 39 53 31
0.114326 0.250781 0.727408 76 90 68
0.112789 0.250817 0.727150 66 91 54
0.111251 0.250854 0.726891 66 91 54
0.109713 0.250890 0.726632 74 98 66
0.455002 0.176624 0.743389 67 76 56
0.453661 0.176656 0.743164 96 122 80
0.452321 0.176688 0.742938 84 110 68
1.153191 1.313544 1.616151 73 103 55
1.148382 1.313659 1.615341 65 95 47
1.143572 1.313773 1.614531 63 86 50
1.138762 1.313888 1.613722 43 66 30
0.115718 0.249264 0.728537 45 62 36
0.114183 0.249301 0.728278 75 92 66
0.112648 0.249338 0.728020 62 90 52
0.111113 0.249374 0.727762 64 92 54
0.109578 0.249411 0.727503 73 97 65
0.454783 0.176077 0.744617 61 69 54
0.453442 0.176109 0.744391 95 121 81
0.452101 0.176140 0.744166 85 111 71
0.450760 0.176172 0.743940 80 111 65
1.147594 1.311696 1.619745 71 102 56
1.142784 1.311811 1.618935 68 91 57
1.137974 1.311925 1.618125 49 72 38
0.115467 0.248638 0.729942 52 71 45
0.113932 0.248675 0.729684 73 92 66
0.112396 0.248711 0.729425 62 91 50
0.110861 0.248748 0.729167 62 91 50
0.109326 0.248784 0.728909 71 93 62
0.454039 0.174695 0.745196 61 69 56
0.452701 0.174726 0.744971 97 123 83
0.451362 0.174758 0.744745 85 111 71
1.153164 1.312124 1.626901 73 106 60
1.146806 1.309734 1.624148 64 97 51
1.141996 1.309848 1.623338 71 96 59
1.137186 1.309963 1.622529 44 69 32
0.115322 0.247162 0.730805 65 84 54
0.113789 0.247198 0.730547 69 88 58
0.112257 0.247235 0.730289 65 94 51
0.110724 0.247271 0.730031 68 97 54
0.109192 0.247308 0.729773 69 88 58
0.453820 0.174148 0.746421 59 64 52
0.452481 0.174180 0.746196 96 122 82
0.451143 0.174212 0.745971 85 111 71
1.152374 1.310158 1.631312 72 106 57
1.147557 1.310273 1.630501 62 96 47
1.141208 1.307885 1.627742 73 99 59
1.136398 1.308000 1.626932 52 78 38
1.131589 1.308115 1.626122 48 62 40
0.116708 0.245651 0.731920 41 46 32
0.115178 0.245687 0.731663 70 90 57
0.113648 0.245724 0.731405 71 91 58
0.112118 0.245760 0.731148 64 90 48
0.110588 0.245797 0.730890 74 100 58
0.451742 0.172801 0.746768 95 119 80
0.450406 0.172833 0.746543 88 112 73
1.153131 1.310691 1.637680 72 105 51
1.146768 1.308307 1.634911 68 101 47
1.141950 1.308422 1.634100 67 93 51
1.135610 1.306037 1.631336 56 82 40
1.130801 1.306152 1.630526 53 64 43
0.116668 0.243331 0.732225 45 50 36
0.115143 0.243368 0.731968 74 94 59
0.113618 0.243404 0.731712 67 87 52
0.111981 0.244288 0.732002 64 90 48
0.451523 0.172256 0.747991 95 116 78
0.450187 0.172288 0.747766 91 112 74
1.152341 1.308722 1.642097 72 103 46
1.147516 1.308838 1.641285 68 99 42
1.141161 1.306456 1.638511 67 92 46
1.136344 1.306571 1.637700 56 81 35
1.130013 1.304189 1.634929 50 65 40
0.116418 0.242709 0.733621 50 59 41
0.114893 0.242745 0.733364 67 91 52
0.113369 0.242782 0.733108 67 91 52
0.450784 0.170880 0.748556 94 115 77
0.449451 0.170912 0.748331 93 114 76
0.448117 0.170944 0.748107 80 108 52
1.146725 1.306869 1.645703 71 99 43
1.140372 1.304491 1.642921 66 93 44
1.135555 1.304605 1.642110 59 86 37
1.129225 1.302227 1.639333 46 62 39
0.117797 0.241205 0.734721 43 52 32
0.116274 0.241241 0.734465 60 69 49
0.114752 0.241277 0.734208 70 94 53
0.113230 0.241314 0.733952 68 92 51
0.111708 0.241350 0.733696 68 92 53
0.450046 0.169507 0.749116 94 113 75
0.448716 0.169538 0.748892 97 116 78
0.447385 0.169570 0.748668 81 109 53
1.145935 1.304900 1.650120 69 97 41
1.141110 1.305015 1.649308 66 94 42
1.134765 1.302639 1.646521 56 84 32
1.129948 1.302754 1.645710 45 61 38
0.117755 0.238894 0.735004 41 50 30
0.116132 0.239775 0.735303 75 84 64
0.114612 0.239811 0.735047 67 91 50
0.113092 0.239848 0.734792 67 91 50
0.111572 0.239884 0.734536 71 92 54
0.449309 0.168135 0.749672 88 105 68
0.447981 0.168166 0.749448 109 126 89
0.446653 0.168198 0.749225 80 108 52
1.145144 1.302931 1.654538 70 98 42
1.140319 1.303046 1.653726 67 94 45
1.135494 1.303161 1.652913 61 88 39
1.129159 1.300789 1.650120 43 59 36
0.117507 0.238275 0.736393 47 59 33
0.116096 0.237468 0.735580 78 90 64
0.114582 0.237504 0.735325 68 92 49
0.113067 0.237540 0.735070 67 91 48
0.111438 0.238420 0.735371 78 98 63
0.448573 0.166765 0.750223 81 95 59
0.447248 0.166797 0.750000 109 123 87
0.445922 0.166828 0.749776 89 117 61
1.145886 1.303445 1.660947 70 98 42
1.141053 1.303560 1.660133 59 86 37
1.134704 1.301192 1.657331 58 85 36
1.129879 1.301307 1.656518 49 66 40
0.117363 0.236814 0.737222 54 69 42
0.115848 0.236850 0.736967 82 97 70
0.114334 0.236886 0.736712 68 92 49
0.112819 0.236922 0.736457 69 93 50
0.111304 0.236958 0.736202 78 98 65
0.109790 0.236994 0.735947 40 60 27
0.448356 0.166224 0.751437 71 84 51
0.447030 0.166256 0.751213 112 125 92
0.445192 0.165461 0.750324 86 117 62
1.146625 1.303954 1.667370 74 105 50
1.140261 1.301588 1.664558 64 94 44
1.135429 1.301703 1.663744 60 90 40
1.129088 1.299338 1.660936 51 68 40
0.117220 0.235354 0.738046 58 77 47
0.115708 0.235390 0.737791 73 92 62
0.114196 0.235426 0.737537 67 93 49
0.112684 0.235462 0.737282 69 95 51
0.447621 0.164858 0.751981 65 81 49
0.446298 0.164889 0.751758 109 125 93
0.444975 0.164921 0.751535 89 120 65
1.145832 1.301978 1.671801 78 109 54
1.140992 1.302094 1.670986 67 98 45
1.134637 1.299731 1.668169 62 93 40
1.129804 1.299847 1.667355 48 67 37
0.118587 0.233861 0.739120 37 45 32
0.116972 0.234737 0.739430 69 91 60
0.115568 0.233933 0.738611 71 93 62
0.113948 0.234809 0.738921 66 95 52
0.112436 0.234845 0.738667 67 96 53
0.447405 0.164318 0.753192 50 66 34
0.446081 0.164349 0.752969 104 120 88
0.444758 0.164381 0.752746 87 118 65
1.146567 1.302477 1.678245 75 106 53
1.140199 1.300119 1.675418 67 98 43
1.135358 1.300234 1.674603 62 93 38
1.129013 1.297875 1.671780 57 76 46
1.124180 1.297990 1.670966 44 63 33
0.118340 0.233245 0.740502 46 56 40
0.116830 0.233281 0.740247 74 99 62
0.115321 0.233317 0.739993 68 93 56
0.113811 0.233353 0.739739 68 97 56
0.446671 0.162954 0.753729 48 61 30
0.445350 0.162986 0.753507 106 119 88
0.444030 0.163017 0.753284 90 121 68
1.147300 1.302970 1.684703 76 107 54
1.140925 1.300614 1.681868 69 100 45
1.134565 1.298259 1.679034 64 95 40
1.129725 1.298374 1.678220 51 71 38
1.124885 1.298489 1.677405 45 65 32
0.118093 0.232629 0.741884 57 68 49
0.116583 0.232665 0.741630 77 103 63
0.115074 0.232701 0.741375 68 94 54
0.113564 0.232737 0.741121 69 97 59
0.445134 0.162447 0.754716 102 115 84
0.443814 0.162479 0.754493 97 127 77
0.442493 0.162510 0.754271 73 103 53
1.141649 1.301104 1.688331 68 99 46
1.135283 1.298752 1.685490 66 97 44
1.130435 1.298867 1.684674 57 77 42
1.124092 1.296514 1.681836 45 65 30
0.119457 0.231140 0.742947 35 46 25
0.117950 0.231176 0.742693 74 85 64
0.116443 0.231212 0.742440 70 96 56
0.114936 0.231247 0.742186 68 94 54
0.113429 0.231283 0.741932 78 103 68
0.444404 0.161087 0.755246 94 105 75
0.443086 0.161118 0.755024 102 132 84
0.441768 0.161150 0.754802 82 112 64
1.140854 1.299123 1.692777 66 99 45
1.135998 1.299239 1.691960 61 94 40
1.131142 1.299354 1.691142 58 79 41
1.126287 1.299470 1.690325 47 68 30
0.119312 0.229689 0.743752 42 54 28
0.117807 0.229724 0.743499 79 91 65
0.116303 0.229760 0.743245 68 94 52
0.114799 0.229796 0.742992 69 95 53
0.113182 0.230668 0.743312 78 100 69
0.444188 0.160549 0.756453 85 95 68
0.442870 0.160580 0.756231 97 127 79
0.441552 0.160612 0.756009 90 120 72
1.141574 1.299603 1.699262 65 98 44
1.136710 1.299719 1.698443 61 94 40
1.131847 1.299835 1.697624 56 80 39
1.125491 1.297488 1.694770 46 70 29
0.119168 0.228240 0.744552 58 74 42
0.117666 0.228275 0.744299 77 93 61
0.116164 0.228311 0.744046 67 93 51
0.114662 0.228347 0.743793 70 96 54
0.113160 0.228383 0.743541 76 95 67
0.443460 0.159192 0.756976 74 81 59
0.442144 0.159223 0.756754 101 127 83
0.440829 0.159254 0.756533 88 114 70
0.439514 0.159286 0.756312 71 104 50
1.135914 1.297734 1.702896 64 97 43
1.131050 1.297850 1.702077 63 84 42
1.126187 1.297966 1.701258 51 72 30
0.119025 0.226793 0.745347 66 84 51
0.117526 0.226829 0.745095 76 94 61
0.116026 0.226864 0.744842 69 95 53
0.114416 0.227734 0.745168 71 97 55
0.442732 0.157837 0.757495 69 75 56
0.441419 0.157868 0.757274 102 126 85
0.440107 0.157899 0.757053 89 113 72
0.439298 0.158749 0.757516 78 111 57
1.136623 1.298205 1.709400 67 100 46
1.131752 1.298322 1.708580 61 85 42
1.126881 1.298438 1.707760 53 77 34
1.122010 1.298554 1.706940 50 62 38
0.120379 0.225312 0.746390 54 63 45
0.118883 0.225348 0.746138 76 94 59
0.117386 0.225384 0.745886 74 92 57
0.115889 0.225419 0.745634 69 95 55
0.440695 0.156515 0.757788 103 127 88
0.439385 0.156546 0.757567 92 116 77
1.142207 1.298554 1.716740 82 115 61
1.137329 1.298670 1.715919 66 99 45
1.132450 1.298787 1.715097 66 92 48
1.127572 1.298903 1.714276 49 75 31
1.122693 1.299019 1.713455 50 62 38
0.120337 0.223038 0.746591 63 72 54
0.118845 0.223073 0.746339 72 95 59
0.117353 0.223109 0.746088 70 93 57
0.115862 0.223144 0.745837 69 94 57
0.440480 0.155980 0.758988 92 112 79
0.439170 0.156011 0.758767 98 118 85
1.142919 1.299013 1.723274 82 115 61
1.138033 1.299129 1.722451 70 103 49
1.133146 1.299245 1.721629 59 89 39
1.128260 1.299362 1.720806 51 81 31
1.123374 1.299478 1.719984 48 60 36
0.120092 0.222429 0.747956 76 88 64
0.118705 0.221634 0.747118 69 93 54
-0.025528 1.331818 1.530192 71 95 56
0.115617 0.222536 0.747203 74 99 62
-0.035331 1.332051 1.528542 68 93 56
-0.040690 1.335493 1.530057 44 58 38
0.439757 0.154630 0.759495 72 92 59
0.438450 0.154661 0.759275 105 125 92
1.143628 1.299465 1.729822 84 117 63
1.138734 1.299581 1.728998 67 100 46
1.133840 1.299698 1.728174 61 91 41
1.128946 1.299815 1.727350 61 91 41
1.125531 1.302378 1.728595 47 62 35
0.121439 0.220955 0.748983 56 68 40
0.120052 0.220161 0.748143 78 90 62
0.118566 0.220196 0.747893 68 94 54
0.116972 0.221062 0.748231 70 96 56
-0.031672 1.333254 1.536208 77 100 64
-0.036583 1.333371 1.535381 56 79 43
0.439035 0.153282 0.759998 67 85 52
0.437730 0.153313 0.759778 107 125 92
0.436425 0.153345 0.759558 91 124 70
1.141433 1.303285 1.738332 78 111 57
1.136522 1.303402 1.737505 67 97 47
1.131610 1.303519 1.736678 62 92 42
1.126698 1.303636 1.735851 51 68 40
0.121295 0.219519 0.749754 65 83 48
0.119809 0.219554 0.749504 71 89 54
0.118322 0.219590 0.749254 67 96 53
-0.027565 1.331133 1.541532 68 97 54
-0.032476 1.331250 1.540705 77 100 66
-0.037388 1.331367 1.539878 42 65 31
0.438821 0.152750 0.761193 59 72 41
0.437516 0.152781 0.760973 109 122 91
0.436211 0.152812 0.760753 99 132 78
0.434906 0.152843 0.760533 82 115 61
1.138700 1.306278 1.746174 67 99 50
1.135257 1.308836 1.747429 58 90 41
1.130323 1.308954 1.746598 59 76 48
1.125388 1.309071 1.745767 46 63 35
0.122538 0.218877 0.751366 59 61 48
0.121052 0.218912 0.751115 74 92 57
0.119565 0.218948 0.750865 73 91 56
0.118079 0.218983 0.750615 68 97 52
-0.028370 1.329129 1.546029 71 100 55
-0.033281 1.329246 1.545202 72 90 57
0.437302 0.152248 0.762168 100 112 84
0.435997 0.152279 0.761948 106 138 87
0.434692 0.152310 0.761728 79 111 60
0.433387 0.152341 0.761509 67 99 48
1.137414 1.311697 1.756130 64 96 45
1.132464 1.311815 1.755296 61 80 50
1.127514 1.311933 1.754463 44 63 33
0.122393 0.217444 0.752129 71 77 58
0.120909 0.217479 0.751879 71 95 56
-0.019351 1.326890 1.552180 69 93 54
-0.024263 1.327007 1.551353 71 100 57
-0.029174 1.327124 1.550526 76 105 62
-0.034753 1.332202 1.553270 49 61 35
0.437088 0.151716 0.763363 87 96 78
0.435282 0.150935 0.762442 108 139 93
0.434478 0.151778 0.762923 87 118 72
0.432676 0.150998 0.762004 70 102 51
1.141542 1.317791 1.767657 68 100 49
1.133619 1.313040 1.762625 62 85 49
1.128658 1.313159 1.761790 41 64 28
0.122249 0.216013 0.752888 70 80 57
0.120767 0.216048 0.752639 73 99 59
0.119286 0.216083 0.752389 71 97 57
-0.026025 1.332434 1.561236 75 100 63
-0.030960 1.332552 1.560405 77 102 65
-0.036563 1.337624 1.563160 47 56 36
0.436371 0.150373 0.763854 64 72 59
0.435569 0.151214 0.764338 109 138 97
0.433766 0.150435 0.763416 99 128 87
0.432463 0.150466 0.763196 80 115 61
1.142207 1.318191 1.774318 59 94 40
1.137224 1.318310 1.773479 61 87 47
1.130776 1.315997 1.770537 52 78 38
0.123584 0.214548 0.753891 58 75 47
0.122105 0.214584 0.753642 72 89 61
0.120626 0.214619 0.753393 71 97 57
-0.022941 1.338549 1.572597 71 97 57
-0.027901 1.338667 1.571762 84 107 73
-0.032862 1.338785 1.570927 53 76 42
0.436157 0.149841 0.765047 48 53 43
0.434855 0.149872 0.764828 104 129 92
0.433552 0.149903 0.764609 103 128 91
0.432249 0.149934 0.764389 87 122 68
1.142870 1.318586 1.780993 58 93 39
1.137879 1.318704 1.780153 61 87 47
1.131424 1.316395 1.777202 44 70 30
1.126441 1.316514 1.776363 50 61 42
0.123535 0.212298 0.754036 67 84 54
0.122062 0.212333 0.753788 75 92 62
0.120486 0.213192 0.754144 71 97 57
-0.024696 1.343936 1.582570 76 102 62
-0.029679 1.344055 1.581731 81 98 70
-0.034662 1.344174 1.580892 49 66 38
0.434641 0.149341 0.766020 95 118 82
0.433339 0.149372 0.765801 109 132 96
1.150509 1.322087 1.791351 85 120 66
1.145500 1.322207 1.790508 72 107 53
1.140491 1.322326 1.789665 67 96 53
1.135482 1.322445 1.788821 46 75 32
1.127079 1.316906 1.783042 50 66 43
-0.005864 1.343895 1.592311 56 61 47
-0.010855 1.344013 1.591471 76 99 65
-0.015846 1.344132 1.590631 71 94 60
-0.020837 1.344251 1.589790 69 97 59
-0.025828 1.344370 1.588950 75 103 65
-0.030819 1.344489 1.588110 66 78 54
-0.035810 1.344608 1.587270 46 58 34
0.433928 0.148002 0.766503 81 101 68
0.432628 0.148033 0.766284 112 132 99
0.431328 0.148064 0.766065 92 127 73
1.146156 1.322584 1.797220 76 111 57
1.139670 1.320282 1.794250 67 99 50
1.134662 1.320401 1.793407 50 82 33
1.129653 1.320521 1.792564 50 69 43
-0.007349 1.347606 1.601150 65 70 56
-0.012651 1.350189 1.602136 76 101 66
-0.017668 1.350309 1.601291 71 96 61
-0.022684 1.350428 1.600447 71 99 61
-0.027701 1.350548 1.599602 78 106 68
-0.032717 1.350667 1.598758 51 60 40
0.433715 0.147472 0.767693 57 74 48
0.432415 0.147503 0.767474 115 132 106
0.431115 0.147534 0.767256 99 133 82
1.145334 1.320537 1.801813 84 118 67
1.140317 1.320657 1.800969 62 96 45
1.135301 1.320776 1.800124 50 84 33
1.130284 1.320896 1.799280 50 72 41
1.123823 1.318596 1.796307 42 64 33
-0.004092 1.353644 1.612707 55 66 45
-0.009127 1.353764 1.611859 79 90 69
-0.014456 1.356345 1.612847 68 96 58
-0.019498 1.356465 1.611998 71 99 61
-0.024540 1.356585 1.611149 82 105 71
-0.029582 1.356705 1.610301 72 95 61
-0.034624 1.356825 1.609452 46 55 37
0.433003 0.146136 0.768169 38 54 31
0.432202 0.146972 0.768665 111 127 104
0.430408 0.146198 0.767732 100 134 85
1.144512 1.318490 1.806406 93 127 78
1.139495 1.318610 1.805562 65 100 46
1.134479 1.318729 1.804717 57 92 38
1.129462 1.318849 1.803872 54 77 41
1.124446 1.318968 1.803028 48 71 35
-0.005198 1.354047 1.619161 60 77 51
-0.010528 1.356624 1.620156 74 91 65
-0.015578 1.356745 1.619306 73 99 59
-0.020628 1.356865 1.618456 76 102 62
-0.025677 1.356985 1.617606 90 108 75
-0.030727 1.357105 1.616756 56 74 41
0.431493 0.145638 0.769138 93 107 87
0.429702 0.144864 0.768204 108 141 95
0.428407 0.144895 0.767986 100 133 87
1.142092 1.322192 1.815162 73 108 52
1.137058 1.322312 1.814315 63 98 42
1.132023 1.322431 1.813467 61 82 42
1.128431 1.324964 1.814762 55 76 36
-0.001622 1.357595 1.628951 58 60 49
-0.006682 1.357715 1.628099 72 91 61
-0.011742 1.357836 1.627247 74 93 63
-0.017099 1.360411 1.628245 74 99 62
-0.022167 1.360532 1.627392 78 103 66
-0.027234 1.360652 1.626539 69 84 57
-0.032302 1.360773 1.625686 43 58 31
0.430785 0.144305 0.769607 62 70 55
0.429490 0.144336 0.769389 110 141 99
0.428195 0.144367 0.769171 108 139 97
1.141267 1.320137 1.819772 76 111 55
1.137689 1.322667 1.821076 70 105 49
1.132647 1.322787 1.820227 60 86 42
1.127605 1.322907 1.819379 51 77 33
1.123996 1.325437 1.820678 56 63 41
-0.002727 1.357981 1.635444 69 74 60
-0.007794 1.358102 1.634591 72 94 63
-0.012862 1.358222 1.633738 72 94 63
-0.017929 1.358343 1.632885 74 99 62
-0.023303 1.360915 1.633887 82 107 70
-0.028378 1.361036 1.633032 64 73 53
0.430077 0.142975 0.770072 41 49 36
0.428785 0.143006 0.769854 107 135 99
0.427002 0.142234 0.768916 115 143 107
1.141905 1.320489 1.826541 91 128 76
1.136863 1.320609 1.825693 63 100 48
1.133268 1.323136 1.827002 59 88 43
1.128218 1.323256 1.826151 50 79 34
1.123169 1.323376 1.825301 53 65 39
0.001511 1.355792 1.640937 57 68 49
-0.003557 1.355913 1.640084 78 89 70
-0.008625 1.356034 1.639231 71 96 61
-0.013692 1.356154 1.638378 74 99 64
-0.019059 1.358723 1.639388 80 105 70
-0.024135 1.358844 1.638534 70 95 60
-0.029210 1.358965 1.637679 53 62 44
0.427589 0.140876 0.769591 82 106 78
0.426301 0.140907 0.769374 112 136 108
0.425014 0.140938 0.769157 97 134 84
1.132441 1.321075 1.831625 57 90 44
1.127391 1.321195 1.830775 55 88 42
1.124249 1.324521 1.832808 54 71 41
0.000680 1.353724 1.645577 66 83 57
-0.004387 1.353845 1.644723 79 96 70
-0.009455 1.353966 1.643870 70 99 65
-0.014816 1.356531 1.644889 72 101 67
-0.019891 1.356652 1.644035 85 107 80
-0.024966 1.356773 1.643180 48 70 43
0.427378 0.140351 0.770769 52 73 49
0.426090 0.140382 0.770553 116 137 113
0.424803 0.140412 0.770336 99 135 88
1.131613 1.319015 1.836248 61 100 49
1.123420 1.322456 1.837440 54 76 45
1.119782 1.324977 1.838756 42 64 33
0.004917 1.351536 1.651069 67 69 56
-0.000150 1.351656 1.650216 72 94 65
-0.005497 1.354218 1.651245 74 96 67
-0.010572 1.354339 1.650390 68 99 65
-0.015647 1.354460 1.649536 70 101 67
-0.020723 1.354581 1.648681 81 99 76
-0.025798 1.354702 1.647827 43 61 38
0.425391 0.139058 0.771004 107 123 102
0.424106 0.139088 0.770787 108 141 95
1.135835 1.316834 1.841722 94 127 81
1.132711 1.320150 1.843776 70 109 58
1.127651 1.320271 1.842925 52 91 40
1.124019 1.322789 1.844249 57 85 49
1.118951 1.322909 1.843396 38 66 30
0.003822 1.351906 1.657600 71 80 62
-0.001253 1.352027 1.656746 71 95 63
-0.006329 1.352147 1.655891 74 98 66
-0.011404 1.352268 1.655037 73 102 68
-0.016479 1.352389 1.654183 78 107 73
-0.021554 1.352510 1.653328 59 75 54
0.425180 0.138533 0.772180 84 94 78
0.423895 0.138564 0.771964 110 141 97
1.136941 1.317965 1.849261 109 140 96
1.131881 1.318085 1.848409 76 115 62
1.128256 1.320600 1.849742 63 102 49
1.123189 1.320721 1.848889 58 88 49
1.119540 1.323236 1.850218 42 72 33
0.008065 1.349714 1.663101 61 76 51
0.002990 1.349835 1.662247 76 91 66
-0.002085 1.349956 1.661392 72 100 64
-0.007160 1.350076 1.660538 74 102 66
-0.012235 1.350197 1.659684 83 107 75
-0.017311 1.350318 1.658829 74 98 66
-0.022792 1.353687 1.660497 49 59 43
0.423199 0.137243 0.772408 110 139 98
0.422400 0.138070 0.772924 111 140 99
1.132493 1.318411 1.855235 76 113 61
1.128859 1.320923 1.856573 64 101 49
1.123784 1.321044 1.855719 53 84 42
1.118709 1.321165 1.854864 44 75 33
1.115514 1.324475 1.856927 52 68 45
0.011973 1.350764 1.671146 62 63 52
0.006887 1.350885 1.670290 72 89 59
0.001802 1.351006 1.669434 76 93 63
-0.003284 1.351127 1.668578 73 101 63
-0.008369 1.351248 1.667722 76 104 66
-0.013455 1.351369 1.666865 91 113 84
-0.018540 1.351490 1.666009 53 75 46
0.422989 0.136720 0.773582 85 108 74
0.421707 0.136750 0.773366 113 136 102
1.133103 1.318731 1.862074 95 132 80
1.128028 1.318852 1.861220 77 114 62
1.124852 1.322157 1.863295 66 99 55
1.119766 1.322278 1.862439 53 86 42
1.114681 1.322400 1.861583 49 67 44
0.011139 1.348688 1.675802 66 71 57
0.006054 1.348809 1.674946 77 97 62
0.000968 1.348931 1.674090 76 96 61
-0.004117 1.349052 1.673234 73 101 63
-0.009203 1.349173 1.672378 82 110 72
-0.014288 1.349294 1.671522 76 92 71
-0.019373 1.349415 1.670665 47 63 42
0.422779 0.136196 0.774756 60 82 55
0.421497 0.136227 0.774540 117 139 112
0.420215 0.136257 0.774324 107 141 92
1.129104 1.319961 1.868807 94 128 79
1.124018 1.320082 1.867951 70 106 59
1.118933 1.320203 1.867095 54 90 43
1.115255 1.322710 1.868441 47 69 42
1.110162 1.322831 1.867583 43 65 38
0.015391 1.346492 1.681314 65 74 54
0.010306 1.346613 1.680458 76 85 65
0.004958 1.349159 1.681522 75 98 62
-0.000135 1.349281 1.680665 75 98 62
-0.005228 1.349402 1.679808 80 105 68
-0.010321 1.349523 1.678950 85 110 73
-0.015415 1.349645 1.678093 53 63 49
0.420805 0.134910 0.774976 95 113 92
0.419525 0.134940 0.774760 115 148 102
1.129700 1.320267 1.875676 96 129 83
1.124607 1.320389 1.874818 77 114 64
1.119514 1.320510 1.873961 55 92 42
1.114421 1.320632 1.873104 50 77 46
1.109327 1.320753 1.872246 38 65 34
0.014310 1.346838 1.687900 72 87 60
0.009217 1.346960 1.687043 77 92 65
0.004123 1.347081 1.686186 74 99 62
-0.000970 1.347202 1.685328 75 100 63
-0.006063 1.347324 1.684471 87 106 76
-0.011156 1.347445 1.683613 69 88 58
-0.016249 1.347566 1.682756 58 63 53
0.420595 0.134388 0.776147 64 79 63
0.418837 0.133625 0.775192 115 144 101
0.417560 0.133656 0.774977 102 131 88
0.416283 0.133686 0.774762 95 132 82
1.118679 1.318432 1.878624 68 105 55
1.113586 1.318553 1.877767 59 89 50
1.108493 1.318674 1.876909 39 69 30
0.018568 1.344639 1.693421 59 64 50
0.013475 1.344760 1.692564 77 97 64
0.008382 1.344881 1.691706 76 96 63
0.003024 1.347422 1.692783 74 102 64
-0.002077 1.347543 1.691924 85 113 75
-0.007178 1.347665 1.691066 81 100 72
-0.012279 1.347786 1.690207 45 64 36
0.418628 0.133104 0.776361 106 131 94
0.417351 0.133135 0.776146 113 138 101
0.416074 0.133165 0.775931 105 139 90
0.414797 0.133196 0.775716 82 116 67
1.114156 1.318851 1.884652 64 97 53
1.109055 1.318972 1.883794 48 81 37
1.103954 1.319094 1.882935 42 63 39
0.022591 1.344854 1.700888 52 66 46
0.017490 1.344976 1.700029 74 88 68
0.012389 1.345097 1.699171 74 102 66
0.007289 1.345219 1.698312 73 101 65
0.002188 1.345340 1.697453 75 105 66
-0.002913 1.345462 1.696594 85 115 76
-0.008014 1.345583 1.695736 61 75 53
0.418419 0.132583 0.777530 81 100 70
0.417141 0.132614 0.777315 121 140 110
0.415864 0.132644 0.777100 105 139 90
0.414587 0.132674 0.776885 91 125 76
0.412843 0.131914 0.775927 71 104 58
1.108219 1.316891 1.888464 55 88 42
1.103118 1.317012 1.887605 49 73 43
1.098017 1.317134 1.886746 44 68 38
0.021439 1.345989 1.708163 63 82 56
0.016328 1.346110 1.707303 78 97 71
0.011554 1.343016 1.703841 69 101 62
0.006453 1.343137 1.702982 71 103 64
0.001352 1.343259 1.702123 85 113 77
-0.004116 1.346597 1.703861 75 103 67
-0.009227 1.346719 1.703001 48 59 40
0.417732 0.131272 0.777952 47 63 40
0.416457 0.131303 0.777737 114 130 107
0.414710 0.130543 0.776776 105 139 90
0.413908 0.131363 0.777308 99 133 84
0.412634 0.131394 0.777094 82 119 69
1.109242 1.317969 1.896115 56 93 43
1.104131 1.318091 1.895254 52 80 44
1.099020 1.318213 1.894394 45 73 37
0.025713 1.343781 1.713703 60 68 53
0.020602 1.343903 1.712843 74 99 64
0.015491 1.344025 1.711982 75 100 65
0.010380 1.344146 1.711122 72 103 61
0.005008 1.346677 1.712218 79 110 68
-0.000111 1.346799 1.711356 85 107 78
-0.005230 1.346921 1.710495 49 71 42
0.416249 0.130783 0.778904 82 93 74
0.414974 0.130813 0.778690 118 144 102
0.413230 0.130054 0.777727 113 139 97
0.411958 0.130085 0.777513 85 122 70
1.109797 1.318250 1.903037 63 100 48
1.104678 1.318372 1.902175 55 88 46
1.099560 1.318494 1.901313 44 77 35
1.094441 1.318616 1.900451 44 62 39
0.029762 1.343979 1.721213 55 69 47
0.024643 1.344101 1.720351 73 87 65
0.019525 1.344223 1.719490 71 99 61
0.014406 1.344345 1.718628 72 100 62
0.009288 1.344467 1.717766 78 106 68
0.004169 1.344589 1.716905 87 115 77
-0.000950 1.344711 1.716043 67 83 60
-0.006068 1.344833 1.715181 49 65 42
0.415566 0.129475 0.779320 52 57 43
0.414294 0.129505 0.779106 115 136 98
0.413022 0.129535 0.778892 115 136 98
0.411750 0.129566 0.778677 96 131 77
1.108958 1.316162 1.907723 71 106 52
1.103840 1.316284 1.906861 57 93 46
1.098721 1.316406 1.906000 49 85 38
1.093602 1.316527 1.905138 43 65 36
0.137577 0.184034 0.772826 69 86 60
0.136074 0.184868 0.773245 81 98 72
0.018686 1.342134 1.724176 72 100 62
0.013567 1.342256 1.723314 75 103 65
0.008449 1.342378 1.722453 85 108 74
0.003330 1.342500 1.721591 78 101 67
-0.001788 1.342622 1.720729 54 65 46
0.413614 0.128199 0.779517 82 99 69
0.412345 0.128230 0.779303 125 142 112
0.411075 0.128260 0.779089 106 140 89
1.108119 1.314073 1.912409 85 119 68
1.103001 1.314195 1.911548 68 106 58
1.097882 1.314317 1.910686 56 94 46
1.092764 1.314439 1.909824 47 75 39
1.089004 1.316922 1.911214 42 70 34
0.138842 0.182618 0.773709 70 75 61
0.137419 0.182652 0.773470 71 93 62
0.135918 0.183486 0.773891 77 99 68
0.017847 1.340045 1.728863 74 102 64
0.012729 1.340167 1.728001 81 109 71
0.007610 1.340289 1.727139 94 111 81
0.002491 1.340411 1.726277 52 69 39
0.413406 0.127681 0.780679 44 58 36
0.412137 0.127712 0.780465 111 125 103
0.410867 0.127742 0.780252 108 142 93
0.409598 0.127772 0.780038 98 132 83
1.103543 1.314464 1.918496 74 113 62
1.098417 1.314586 1.917634 62 101 50
1.093291 1.314708 1.916770 56 85 44
1.088164 1.314830 1.915908 46 75 34
1.083038 1.314952 1.915044 45 62 36
0.037271 1.339864 1.738990 54 69 44
0.138682 0.181239 0.774348 76 91 66
0.137186 0.182072 0.774772 72 102 65
0.135763 0.182106 0.774533 73 103 66
0.017009 1.337957 1.733549 80 108 70
0.012141 1.335682 1.730700 93 121 83
0.007030 1.335804 1.729839 67 77 54
0.001919 1.335926 1.728979 57 67 44
0.411929 0.127194 0.781628 75 88 71
0.410194 0.126439 0.780657 110 143 99
0.408927 0.126469 0.780443 105 138 94
1.102703 1.312372 1.923190 90 129 78
1.097577 1.312494 1.922327 74 113 62
1.092451 1.312616 1.921464 53 86 42
1.087324 1.312738 1.920601 53 86 42
1.082198 1.312860 1.919738 45 64 34
0.141359 0.179795 0.775459 61 63 50
0.139870 0.180626 0.775887 68 90 59
0.138450 0.180660 0.775648 76 98 67
0.137029 0.180693 0.775409 73 103 64
0.135609 0.180727 0.775170 75 105 66
0.016170 1.335868 1.738235 90 115 80
0.011303 1.333596 1.735379 78 103 68
0.006192 1.333718 1.734519 60 63 47
0.411254 0.125892 0.782030 53 63 51
0.409987 0.125922 0.781817 92 117 82
0.408720 0.125952 0.781603 116 141 106
0.407453 0.125982 0.781390 97 134 84
1.096737 1.310402 1.927020 89 126 76
1.091611 1.310524 1.926157 69 103 54
1.088292 1.313782 1.928324 62 96 47
1.083156 1.313904 1.927459 47 71 32
1.078019 1.314027 1.926595 41 65 26
0.141126 0.179216 0.776756 72 83 62
0.139709 0.179250 0.776518 70 100 63
0.138291 0.179284 0.776279 71 101 64
0.136797 0.180114 0.776709 75 105 66
0.020450 1.333657 1.743784 86 116 77
0.015577 1.331389 1.740919 90 109 81
0.010466 1.331511 1.740059 50 69 41
0.409779 0.125405 0.782976 63 82 56
0.408512 0.125435 0.782763 118 137 111
0.407245 0.125465 0.782550 106 140 91
0.405978 0.125496 0.782337 93 127 78
1.092587 1.311564 1.933892 74 112 57
1.087451 1.311686 1.933027 67 105 50
1.082314 1.311808 1.932162 54 80 36
1.077177 1.311931 1.931298 44 70 26
1.073372 1.314402 1.932709 46 61 34
0.142379 0.177809 0.777620 66 83 55
0.140964 0.177842 0.777382 76 93 65
0.139549 0.177876 0.777144 67 102 62
0.138059 0.178705 0.777577 68 103 63
0.136641 0.178739 0.777338 80 112 73
0.019851 1.329182 1.746459 90 122 83
0.014740 1.329303 1.745599 62 73 54
0.009968 1.326242 1.742060 53 64 45
0.409571 0.124888 0.784136 38 53 35
0.408305 0.124918 0.783923 83 98 80
0.407038 0.124949 0.783710 111 144 98
0.405771 0.124979 0.783496 100 133 87
0.404504 0.125009 0.783283 86 126 70
1.087962 1.311936 1.940016 68 108 52
1.082818 1.312058 1.939150 49 82 36
1.077674 1.312181 1.938284 46 79 33
1.072530 1.312303 1.937418 46 64 31
0.143627 0.176403 0.778479 65 70 56
0.142147 0.177231 0.778916 75 100 65
0.140732 0.177265 0.778678 75 100 65
0.139317 0.177299 0.778440 68 104 61
0.137902 0.177332 0.778201 77 113 70
0.023891 1.329358 1.754018 96 120 88
0.019013 1.327096 1.751138 60 84 52
0.013902 1.327218 1.750278 53 61 48
0.408097 0.124401 0.785083 48 58 46
0.406830 0.124432 0.784870 102 130 92
0.405563 0.124462 0.784656 110 138 100
1.092263 1.309714 1.945592 93 132 79
1.087119 1.309836 1.944726 82 121 68
1.081975 1.309959 1.943860 60 96 49
1.076831 1.310081 1.942994 51 87 40
1.071687 1.310204 1.942128 61 81 46
1.066542 1.310327 1.941262 43 63 28
0.144871 0.175000 0.779332 63 75 51
0.143461 0.175034 0.779095 81 93 69
0.141983 0.175860 0.779534 74 102 64
0.140570 0.175894 0.779297 74 102 64
0.139158 0.175928 0.779059 79 109 70
0.027944 1.329527 1.761594 95 125 86
0.023052 1.327269 1.758705 75 91 68
0.017934 1.327391 1.757843 51 67 44
0.406622 0.123915 0.786030 65 87 60
0.404900 0.123165 0.785049 118 140 113
0.403636 0.123195 0.784836 99 136 84
1.088077 1.310856 1.952503 89 126 74
1.082923 1.310979 1.951636 83 120 68
1.077768 1.311102 1.950768 61 98 46
1.072614 1.311225 1.949900 53 79 37
1.067459 1.311348 1.949032 44 70 28
1.062305 1.311470 1.948165 49 59 34
0.146171 0.172807 0.779498 66 68 55
0.144703 0.173633 0.779942 69 89 56
0.046690 1.338036 1.779259 78 98 65
0.141820 0.174492 0.780148 74 103 62
0.140410 0.174526 0.779911 78 107 66
0.032231 1.327313 1.767151 95 120 85
0.027104 1.327435 1.766288 81 106 71
0.021978 1.327557 1.765425 61 71 55
0.404693 0.122649 0.786206 97 111 91
0.403429 0.122679 0.785993 107 140 94
1.088582 1.311089 1.959530 94 127 81
1.082078 1.308876 1.956355 94 133 80
1.076924 1.308999 1.955487 74 113 60
1.071769 1.309121 1.954619 60 89 44
1.066615 1.309244 1.953752 53 82 37
1.061461 1.309367 1.952884 52 69 39
0.147404 0.171410 0.780338 61 73 49
0.145940 0.172234 0.780785 72 84 60
0.144536 0.172267 0.780548 74 99 62
0.143131 0.172301 0.780312 77 102 65
0.141657 0.173126 0.780757 73 103 64
0.036018 1.330637 1.777477 86 116 77
0.031096 1.328386 1.774568 91 110 82
0.026264 1.325343 1.770981 56 75 47
0.404486 0.122133 0.787364 53 58 44
0.403222 0.122163 0.787151 106 132 90
0.401508 0.121416 0.786167 108 134 92
1.082574 1.309106 1.963387 97 135 80
1.077412 1.309229 1.962518 83 121 66
1.072250 1.309352 1.961649 71 104 58
1.067088 1.309475 1.960780 48 81 35
1.061926 1.309598 1.959911 50 72 41
1.058500 1.312833 1.962118 39 61 30
0.064632 1.347547 1.804543 60 62 51
0.147233 0.170048 0.780935 70 90 57
0.145772 0.170871 0.781385 76 96 63
0.144369 0.170904 0.781149 71 102 60
0.142901 0.171728 0.781598 77 108 66
0.039836 1.333946 1.787843 87 115 79
0.034889 1.331699 1.784922 90 118 82
0.030031 1.328661 1.781321 64 78 58
0.024887 1.328783 1.780455 53 67 47
0.402563 0.120871 0.787534 62 85 51
0.401301 0.120901 0.787322 113 136 102
0.400039 0.120931 0.787109 98 136 81
0.398777 0.120961 0.786897 94 132 77
1.073169 1.310353 1.969466 80 117 67
1.067997 1.310476 1.968595 63 100 50
1.062825 1.310599 1.967724 63 92 58
1.057653 1.310722 1.966853 37 66 32
1.052480 1.310846 1.965983 42 60 37
0.148403 0.169443 0.782453 77 88 69
0.147004 0.169476 0.782217 75 106 64
0.145604 0.169510 0.781981 72 103 61
0.144140 0.170332 0.782433 72 105 63
0.043683 1.337239 1.798247 86 119 77
0.038712 1.334996 1.795315 97 119 90
0.033540 1.335119 1.794445 60 82 53
0.028666 1.332085 1.790831 58 63 49
0.401094 0.120386 0.788477 87 104 78
0.399833 0.120416 0.788265 106 140 89
0.398571 0.120446 0.788052 99 133 82
0.397309 0.120476 0.787840 86 125 74
1.068465 1.310693 1.975654 69 108 57
1.063285 1.310816 1.974782 57 92 52
1.056805 1.308612 1.971589 40 75 35
1.051633 1.308735 1.970718 42 64 37
0.149628 0.168051 0.783278 64 83 55
0.148174 0.168872 0.783734 74 93 65
0.146774 0.168905 0.783499 72 105 63
0.145374 0.168939 0.783263 70 103 61
0.046847 1.349184 1.816277 83 115 76
0.042093 1.343793 1.810572 96 128 89
0.037165 1.340765 1.806940 66 80 60
0.032475 1.335372 1.801245 53 67 47
0.400888 0.119871 0.789632 54 65 46
0.399626 0.119901 0.789420 102 131 90
0.398364 0.119931 0.789208 109 138 97
0.397102 0.119961 0.788995 97 135 87
0.395840 0.119991 0.788783 84 122 74
1.065484 1.314127 1.984959 69 107 63
1.060286 1.314251 1.984084 54 92 48
1.055088 1.314374 1.983209 49 76 43
1.049890 1.314498 1.982334 40 67 34
0.150796 0.167448 0.784793 64 74 58
0.149399 0.167481 0.784558 74 99 62
0.148002 0.167514 0.784322 75 100 63
0.146605 0.167547 0.784087 70 103 59
0.145145 0.168367 0.784544 77 110 66
0.045795 1.349411 1.823138 99 124 89
0.040765 1.347175 1.820182 70 95 60
0.035539 1.347300 1.819302 55 57 44
0.398974 0.118613 0.789795 53 75 46
0.397715 0.118643 0.789583 113 135 106
1.076788 1.314853 1.994586 98 134 87
0.395634 0.119476 0.789938 99 135 88
1.066372 1.315101 1.992833 82 120 72
1.061164 1.315225 1.991956 56 94 46
1.055956 1.315349 1.991079 58 88 49
1.050748 1.315473 1.990203 45 75 36
1.045539 1.315597 1.989326 46 63 37
0.151965 0.166844 0.786307 68 85 57
0.150568 0.166877 0.786072 78 95 67
0.149170 0.166911 0.785837 75 101 59
0.147773 0.166944 0.785601 74 100 58
0.054739 1.355669 1.837340 79 108 65
0.049477 1.355794 1.836454 97 126 83
0.044478 1.352776 1.832791 83 98 71
0.039704 1.347401 1.827049 52 67 40
0.397508 0.118129 0.790736 83 98 80
1.079012 1.318137 2.004828 112 145 103
0.394990 0.118189 0.790312 103 136 94
1.068560 1.318385 2.003068 91 130 79
1.060310 1.313100 1.996724 76 115 64
1.055102 1.313224 1.995848 64 97 53
1.052882 1.318759 2.000429 49 82 38
1.047656 1.318883 1.999549 50 72 41
1.042430 1.319008 1.998670 46 68 37
0.153181 0.165456 0.787122 69 79 63
0.151787 0.165490 0.786887 72 92 57
0.150339 0.166307 0.787351 86 106 71
0.148941 0.166341 0.787116 76 101 55
0.059138 1.353396 1.843043 88 113 67
0.053633 1.356660 1.844948 102 126 87
0.048361 1.356785 1.844060 74 98 59
0.043353 1.353772 1.840386 60 66 47
0.396043 0.117645 0.791677 97 124 91
0.394784 0.117675 0.791465 114 141 108
0.393524 0.117705 0.791253 101 140 89
1.062478 1.316377 2.006973 89 128 77
1.058539 1.318818 2.008441 73 110 60
1.053305 1.318942 2.007560 59 96 46
1.048072 1.319067 2.006679 58 86 48
1.042838 1.319192 2.005798 44 72 34
0.154347 0.164854 0.788633 65 84 58
0.152953 0.164887 0.788399 76 95 69
0.151558 0.164921 0.788164 75 101 59
0.150163 0.164954 0.787929 83 109 67
0.148712 0.165770 0.788395 82 108 64
0.057629 1.359868 1.855565 99 125 81
0.052339 1.359994 1.854675 86 101 72
0.047049 1.360120 1.853784 54 69 40
0.395836 0.117131 0.792830 52 70 49
0.394577 0.117161 0.792618 105 123 102
0.393318 0.117191 0.792406 108 144 97
1.062915 1.316557 2.014114 96 132 85
1.060681 1.322078 2.018727 86 125 72
1.055430 1.322203 2.017843 72 111 58
1.050178 1.322328 2.016959 59 92 46
1.044927 1.322453 2.016075 51 84 38
1.041349 1.325662 2.018323 52 69 43
1.036087 1.325788 2.017437 43 60 34
0.155557 0.163470 0.789440 71 82 63
0.154165 0.163503 0.789205 73 100 67
0.152724 0.164318 0.789675 73 100 67
0.151329 0.164351 0.789441 76 105 62
0.149935 0.164385 0.789206 81 110 67
0.061882 1.359930 1.863408 105 125 90
0.056584 1.360056 1.862516 94 114 79
0.051287 1.360183 1.861624 60 66 47
0.394371 0.116647 0.793770 59 69 55
0.393112 0.116677 0.793558 107 135 99
0.391852 0.116707 0.793346 110 138 102
1.059821 1.319935 2.023535 99 137 82
1.056272 1.323139 2.025798 83 121 66
1.051010 1.323265 2.024912 64 101 49
1.047431 1.326470 2.027170 61 98 46
1.042159 1.326596 2.026282 58 83 46
1.036887 1.326721 2.025395 45 70 33
0.156763 0.162088 0.790241 59 81 52
0.155373 0.162121 0.790007 77 99 70
0.153937 0.162935 0.790480 75 107 68
0.152545 0.162968 0.790246 71 103 64
0.151153 0.163001 0.790011 85 114 73
0.066311 1.357642 1.869150 97 126 85
0.060557 1.364019 1.873902 92 109 81
0.055239 1.364146 1.873007 56 73 45
0.392905 0.116163 0.794711 64 80 57
0.391646 0.116193 0.794499 117 133 110
0.390387 0.116223 0.794287 110 144 93
1.057111 1.324067 2.033772 96 130 79
1.051839 1.324193 2.032884 88 126 71
1.049507 1.329701 2.037515 68 106 51
1.044218 1.329827 2.036624 61 94 50
1.038928 1.329953 2.035733 44 77 33
1.033638 1.330079 2.034843 45 64 38
0.157964 0.160707 0.791036 69 84 59
0.156578 0.160740 0.790802 71 101 62
0.155146 0.161554 0.791279 73 103 64
0.153756 0.161587 0.791045 71 106 66
0.152317 0.162400 0.791520 74 109 69
0.070321 1.361596 1.880562 102 130 94
0.064838 1.364064 1.881791 88 116 80
0.059513 1.364190 1.880895 65 74 56
0.391440 0.115679 0.795652 76 84 69
0.390181 0.115709 0.795440 116 145 102
1.059220 1.327291 2.044139 106 135 92
1.053930 1.327417 2.043248 91 129 72
1.049900 1.329846 2.044729 80 118 61
1.044602 1.329973 2.043838 72 111 58
1.039305 1.330099 2.042946 59 98 45
1.034007 1.330225 2.042054 47 75 39
1.028710 1.330351 2.041162 38 66 30
0.101357 1.358666 1.890802 62 86 54
0.157777 0.159363 0.791592 76 100 68
0.156393 0.159396 0.791359 69 105 62
0.154963 0.160208 0.791839 73 109 66
0.153529 0.161020 0.792317 82 118 75
0.074617 1.361637 1.888460 99 135 92
0.069291 1.361763 1.887564 95 114 88
0.063744 1.365007 1.889510 52 71 45
0.389547 0.114429 0.795799 84 104 71
0.388291 0.114459 0.795587 116 136 103
1.054329 1.327558 2.050471 101 139 82
1.049032 1.327685 2.049580 96 134 77
1.043734 1.327811 2.048688 83 123 67
1.038437 1.327937 2.047796 69 109 53
1.033139 1.328063 2.046904 61 94 48
1.031114 1.334326 2.052342 40 73 27
1.025796 1.334453 2.051447 43 62 32
0.110891 1.361686 1.902479 59 73 51
0.105697 1.358702 1.898716 68 82 60
0.158973 0.157987 0.792377 65 97 58
0.157591 0.158020 0.792144 71 103 64
0.156166 0.158831 0.792627 71 107 62
0.154782 0.158864 0.792394 80 116 71
0.078877 1.362448 1.897090 106 134 98
0.073541 1.362576 1.896191 89 117 81
0.068205 1.362703 1.895293 62 70 57
0.388085 0.113946 0.796738 89 99 76
1.053461 1.325397 2.055321 115 147 98
1.048164 1.325523 2.054430 105 137 88
1.042866 1.325649 2.053538 90 130 74
1.040878 1.331903 2.059001 83 123 67
1.035560 1.332030 2.058106 74 112 57
1.030243 1.332156 2.057211 57 95 40
1.024925 1.332283 2.056316 46 72 32
1.019607 1.332410 2.055420 45 71 31
1.014289 1.332536 2.054525 50 64 42
0.115353 1.359381 1.908263 64 69 55
0.161543 0.156581 0.793388 67 89 58
0.160164 0.156614 0.793156 74 96 65
0.158785 0.156646 0.792924 73 108 68
0.157405 0.156679 0.792692 75 110 70
0.155983 0.157489 0.793177 84 120 77
0.083338 1.360144 1.902873 98 134 91
0.077808 1.363379 1.904841 86 102 79
0.072462 1.363506 1.903941 51 67 44
1.052593 1.323235 2.060172 93 114 76
1.047296 1.323361 2.059280 118 139 101
1.041998 1.323487 2.058388 104 142 87
1.036701 1.323614 2.057496 94 132 77
1.031403 1.323740 2.056604 81 119 62
1.026106 1.323866 2.055712 70 108 51
1.020808 1.323992 2.054821 52 83 37
1.015511 1.324118 2.053929 44 75 29
1.010213 1.324244 2.053037 45 64 38
0.119814 1.357077 1.914046 66 77 56
0.162728 0.155210 0.794161 75 86 65
0.161351 0.155242 0.793930 75 103 67
0.159974 0.155275 0.793698 79 107 71
0.158559 0.156084 0.794187 82 115 73
0.157179 0.156116 0.793954 87 120 78
0.087624 1.360943 1.911536 109 134 99
0.082278 1.361070 1.910636 85 110 75
0.076932 1.361197 1.909736 57 62 48
1.049771 1.327309 2.070530 99 109 86
1.044454 1.327436 2.069634 115 147 96
1.035833 1.321452 2.062346 105 137 86
1.030535 1.321578 2.061455 89 127 68
1.025238 1.321704 2.060563 84 122 63
1.019940 1.321830 2.059671 71 108 58
1.014643 1.321957 2.058779 57 94 44
1.009345 1.322083 2.057887 43 70 39
1.002855 1.319916 2.054606 43 70 39
0.997566 1.320042 2.053715 46 59 42
0.124276 1.354772 1.919830 68 76 61
0.118940 1.354899 1.918932 74 93 65
0.162534 0.153873 0.794698 81 100 72
0.161125 0.154680 0.795190 81 109 71
0.159749 0.154713 0.794958 82 110 72
0.158333 0.155521 0.795449 87 118 76
0.092094 1.358634 1.917330 106 137 95
0.086748 1.358761 1.916430 91 106 81
0.081402 1.358888 1.915530 51 66 41
1.043582 1.325266 2.074503 101 122 82
1.034965 1.319290 2.067197 125 146 106
1.029667 1.319416 2.066305 101 136 78
1.024370 1.319543 2.065413 94 129 71
1.019072 1.319669 2.064521 81 119 62
1.012568 1.317506 2.061230 68 106 49
1.007278 1.317632 2.060340 53 88 48
0.999208 1.312416 2.053857 48 83 43
0.993937 1.312541 2.052970 45 66 44
0.988665 1.312667 2.052082 42 63 41
0.166504 0.150895 0.794466 64 80 57
0.165111 0.151701 0.794963 81 97 74
0.118066 1.352722 1.923817 79 107 69
0.162340 0.152539 0.795229 78 106 68
0.160934 0.153345 0.795724 80 111 69
0.159523 0.154151 0.796219 91 122 80
0.096564 1.356325 1.923125 111 136 101
0.091218 1.356452 1.922225 85 110 75
0.085872 1.356580 1.921325 53 59 42
1.042711 1.323096 2.079372 50 64 44
1.034097 1.317128 2.072047 105 119 99
1.028799 1.317255 2.071155 118 148 98
1.023502 1.317381 2.070263 101 131 81
1.016991 1.315221 2.066964 96 134 75
1.011701 1.315347 2.066073 78 116 57
1.003617 1.310139 2.059572 67 105 57
0.998345 1.310264 2.058684 59 97 49
0.993073 1.310390 2.057796 50 77 48
0.986234 1.307466 2.053708 43 70 41
0.979417 1.304543 2.049622 47 65 44
0.167669 0.149532 0.795217 61 76 58
0.166280 0.150337 0.795717 73 102 68
0.164886 0.151142 0.796217 79 108 74
0.117191 1.350545 1.928702 80 111 69
0.162116 0.151979 0.796485 82 113 71
0.160709 0.152784 0.796982 99 128 87
0.101034 1.354016 1.928920 103 132 91
0.095688 1.354143 1.928020 75 92 66
0.090342 1.354271 1.927120 46 63 37
1.036522 1.321053 2.083346 54 62 51
0.379954 0.110010 0.799822 96 119 83
0.378702 0.110040 0.799611 124 147 111
1.016124 1.313063 2.071807 103 141 84
1.008025 1.307862 2.065286 88 126 69
1.002753 1.307987 2.064398 80 119 66
0.997481 1.308113 2.063511 67 106 53
0.990634 1.305194 2.059411 59 91 54
0.983807 1.302274 2.055315 51 83 46
0.978556 1.302400 2.054430 47 70 45
0.970602 1.297195 2.047934 42 65 40
0.168829 0.148172 0.795961 68 92 64
0.167468 0.148205 0.795732 76 100 72
0.166081 0.149008 0.796236 73 105 66
0.164690 0.149812 0.796738 78 110 71
0.163293 0.150616 0.797240 85 116 72
0.110981 1.348495 1.932689 100 131 87
0.105646 1.348622 1.931791 107 130 94
0.100158 1.351834 1.933814 68 91 55
0.094812 1.351962 1.932914 53 62 44
0.379749 0.109499 0.800968 52 66 44
0.378497 0.109529 0.800757 105 119 97
0.377245 0.109559 0.800546 116 148 99
0.375994 0.109589 0.800335 112 144 95
1.001889 1.305836 2.069225 90 130 74
0.995034 1.302922 2.065114 74 114 58
0.988198 1.300007 2.061007 67 103 56
0.982947 1.300132 2.060122 56 92 45
0.974978 1.294935 2.053607 51 82 48
0.969744 1.295060 2.052725 36 67 33
0.964511 1.295184 2.051844 43 64 40
0.147457 1.345427 1.943862 59 75 54
0.169985 0.146814 0.796701 74 90 69
0.168627 0.146847 0.796472 71 101 64
0.167245 0.147649 0.796979 77 107 70
0.165883 0.147682 0.796750 73 106 62
0.164494 0.148484 0.797255 85 118 74
0.163130 0.148517 0.797025 107 136 95
0.110107 1.346317 1.937574 107 136 95
0.104628 1.349525 1.939609 72 84 58
0.099282 1.349653 1.938709 50 62 36
0.378292 0.109018 0.801903 50 60 48
0.376637 0.108289 0.800883 99 122 88
0.375388 0.108319 0.800672 121 144 110
1.001025 1.303685 2.074052 105 143 88
0.995753 1.303810 2.073164 95 133 78
0.988910 1.300900 2.069046 79 118 65
0.982086 1.297989 2.064930 66 105 52
0.974120 1.292799 2.058398 54 90 45
0.967731 1.290646 2.055098 57 93 48
0.962505 1.290771 2.054218 45 72 41
0.957279 1.290895 2.053338 45 72 41
0.952053 1.291020 2.052458 50 64 42
0.151866 1.346198 1.952603 66 72 55
0.171122 0.146228 0.798174 67 91 59
0.169763 0.146260 0.797945 76 100 68
0.168404 0.146292 0.797716 77 110 66
0.167045 0.146325 0.797487 82 115 71
0.165660 0.147126 0.797996 86 117 75
0.119790 1.346962 1.947203 107 138 96
0.114444 1.347089 1.946303 111 131 98
0.109098 1.347217 1.945403 64 84 51
0.375183 0.107810 0.801816 98 111 94
0.373935 0.107839 0.801606 118 147 102
0.372685 0.107869 0.801395 114 143 98
0.371436 0.107899 0.801185 90 129 76
0.981226 1.295846 2.069739 81 120 67
0.973263 1.290664 2.063190 75 116 67
0.968029 1.290788 2.062309 61 102 53
0.961649 1.288638 2.059002 57 90 48
0.956423 1.288763 2.058123 43 76 34
0.948557 1.283579 2.051590 47 69 38
0.941850 1.280669 2.047485 46 68 37
0.173628 0.144841 0.799133 71 88 58
0.172271 0.144873 0.798905 79 96 66
0.170899 0.145673 0.799418 75 108 64
0.169540 0.145705 0.799189 78 111 67
0.168181 0.145738 0.798960 82 115 69
0.166822 0.145770 0.798732 90 123 77
0.124181 1.346957 1.955217 113 138 101
0.118827 1.347085 1.954315 90 115 78
0.113474 1.347212 1.953414 61 72 53
0.373730 0.107330 0.802749 90 107 77
0.372481 0.107359 0.802539 125 142 112
0.371232 0.107389 0.802329 108 145 95
0.369983 0.107419 0.802118 92 129 79
0.975114 1.293828 2.073663 81 123 71
0.967172 1.288653 2.067101 79 121 69
0.961938 1.288777 2.066219 65 103 55
0.955567 1.286630 2.062907 53 91 43
0.947703 1.281453 2.056359 49 78 37
0.940999 1.278548 2.052244 45 74 33
0.935801 1.278672 2.051369 50 65 38
0.166082 1.349884 1.973292 64 76 52
0.160708 1.350012 1.972387 71 83 59
0.173405 0.144287 0.800375 74 100 60
0.172049 0.144320 0.800147 82 108 68
0.170693 0.144352 0.799918 80 111 65
0.169317 0.145151 0.800433 87 118 72
0.167959 0.145183 0.800205 99 130 84
0.128463 1.350780 1.966958 116 147 101
0.123196 1.347840 1.963086 90 107 81
0.117833 1.347968 1.962183 52 69 43
0.372276 0.106850 0.803682 84 93 75
0.371027 0.106879 0.803472 122 151 110
0.369778 0.106909 0.803262 118 147 106
0.368143 0.106183 0.802238 94 136 84
0.366896 0.106213 0.802028 82 124 72
0.961081 1.286642 2.071011 76 120 65
0.955847 1.286766 2.070130 69 113 58
0.949484 1.284622 2.066812 65 99 50
0.941642 1.279452 2.060250 53 87 38
0.934949 1.276551 2.056128 49 69 36
0.929751 1.276674 2.055253 48 68 35
0.170558 1.350624 1.982109 68 77 59
0.175903 0.142904 0.801326 69 92 56
0.174549 0.142936 0.801098 82 105 69
0.173183 0.143734 0.801617 87 113 69
0.171827 0.143766 0.801389 91 117 73
0.170471 0.143798 0.801160 95 124 81
0.169095 0.144596 0.801677 106 135 92
0.132957 1.348459 1.972783 116 138 107
0.127583 1.348587 1.971879 74 96 65
0.122209 1.348715 1.970974 53 61 46
0.370822 0.106370 0.804616 73 92 66
0.369185 0.105645 0.803589 121 140 114
0.367938 0.105674 0.803379 113 149 102
0.366692 0.105704 0.803169 98 134 87
0.365445 0.105734 0.802959 81 126 66
0.954989 1.284631 2.074922 77 122 62
0.949756 1.284755 2.074041 77 115 56
0.940789 1.277327 2.065018 63 101 42
0.934097 1.274429 2.060887 56 82 38
0.928900 1.274553 2.060012 52 78 34
0.178395 0.139994 0.800768 60 82 51
0.177044 0.140790 0.801292 71 93 62
0.175688 0.141587 0.801815 75 106 60
0.174327 0.142384 0.802337 81 112 66
0.172973 0.142416 0.802109 86 115 70
0.171605 0.143213 0.802630 101 130 85
0.170248 0.143245 0.802402 115 141 101
0.137370 1.349197 1.981600 112 138 98
0.131986 1.349325 1.980694 74 84 68
0.126602 1.349453 1.979787 52 62 46
0.368981 0.105136 0.804730 67 78 59
0.367734 0.105166 0.804520 103 128 91
0.366488 0.105195 0.804310 122 147 110
0.365241 0.105225 0.804100 102 142 84
0.363995 0.105255 0.803891 90 130 72
0.362748 0.105284 0.803681 85 124 60
0.942546 1.280482 2.075502 80 119 55
0.934727 1.275326 2.068910 75 108 54
0.929519 1.275450 2.068033 61 94 40
0.924311 1.275574 2.067157 56 79 45
0.184954 1.348135 1.996950 63 82 56
0.179520 0.138649 0.801474 74 93 67
0.178174 0.139445 0.802001 77 108 66
0.176823 0.140240 0.802527 80 111 69
0.175467 0.141036 0.803052 81 113 64
0.174105 0.141831 0.803577 87 119 70
0.172751 0.141863 0.803349 103 132 87
0.171382 0.142659 0.803872 114 143 98
0.141747 1.352217 1.992691 104 119 94
0.136427 1.349291 1.988780 59 74 49
0.367530 0.104657 0.805661 50 64 42
0.366283 0.104687 0.805451 98 112 90
0.365037 0.104716 0.805242 121 153 102
0.363791 0.104746 0.805032 112 144 93
0.362544 0.104776 0.804822 97 133 70
0.361298 0.104805 0.804612 90 126 63
0.936464 1.278473 2.079407 91 126 68
0.928666 1.273324 2.072802 75 110 52
0.189501 1.351902 2.008849 66 82 59
0.180643 0.138069 0.802930 65 93 57
0.179300 0.138101 0.802704 80 108 72
0.177953 0.138895 0.803233 82 115 69
0.176607 0.138927 0.803007 84 117 71
0.175253 0.139722 0.803535 99 131 82
0.173894 0.140516 0.804062 107 139 90
0.172530 0.141311 0.804588 118 138 105
0.146202 1.352933 2.001560 79 99 66
0.140789 1.353062 2.000649 62 64 53
0.364833 0.104208 0.806383 92 112 79
0.363586 0.104237 0.806173 119 139 106
0.362340 0.104267 0.805963 108 141 83
0.361093 0.104297 0.805753 102 135 77
0.359847 0.104326 0.805543 90 126 65
0.199401 1.346392 2.012587 69 80 59
0.183103 0.136696 0.803853 73 97 65
0.181762 0.136728 0.803627 76 100 68
0.180423 0.137521 0.804160 73 106 62
0.179080 0.137553 0.803934 80 113 69
0.177736 0.137585 0.803708 80 114 65
0.176387 0.138378 0.804239 92 126 77
0.175032 0.139172 0.804769 110 136 94
0.173673 0.139965 0.805299 106 132 90
0.150673 1.353641 2.010451 67 78 57
0.145250 1.353770 2.009538 55 66 45
0.363382 0.103729 0.807314 80 88 73
0.362136 0.103758 0.807104 114 138 95
0.360889 0.103788 0.806895 121 145 102
0.359273 0.103067 0.805862 107 143 82
0.358030 0.103096 0.805652 96 132 71
0.209376 1.346969 2.022405 61 72 53
0.203964 1.347098 2.021494 62 86 54
0.184225 0.136117 0.805306 68 92 60
0.182884 0.136149 0.805080 71 103 64
0.181543 0.136181 0.804855 76 108 69
0.180203 0.136973 0.805390 82 115 71
0.178860 0.137005 0.805164 89 122 78
0.177516 0.137037 0.804938 108 140 91
0.176166 0.137829 0.805471 112 144 95
0.160567 1.356492 2.022558 99 116 86
0.155127 1.356621 2.021642 54 71 41
0.361931 0.103250 0.808246 55 67 43
0.360314 0.102529 0.807210 109 121 97
0.359438 0.103309 0.807826 125 153 101
0.357826 0.102589 0.806791 119 147 95
0.356582 0.102618 0.806582 108 143 85
0.355338 0.102648 0.806372 89 124 66
0.213902 1.344631 2.028271 54 76 45
0.186673 0.134747 0.806220 67 89 58
0.185335 0.134779 0.805995 70 103 61
0.183996 0.134811 0.805769 76 109 67
0.182664 0.135602 0.806308 77 113 68
0.181323 0.135634 0.806082 92 128 83
0.179982 0.135666 0.805857 101 134 90
0.178639 0.136456 0.806394 113 146 102
0.177296 0.136488 0.806168 117 140 106
0.165089 1.357179 2.031503 74 97 63
0.159601 1.360345 2.033633 60 66 49
0.358866 0.102051 0.808139 88 106 71
0.357622 0.102081 0.807930 125 143 108
0.356378 0.102111 0.807721 119 152 96
0.355134 0.102140 0.807511 108 141 85
0.353890 0.102170 0.807302 91 129 70
0.352646 0.102200 0.807092 87 125 66
0.223840 1.342165 2.035049 55 74 46
0.218427 1.342294 2.034138 66 85 57
0.187777 0.133412 0.806902 68 97 52
0.186454 0.134201 0.807445 80 109 64
0.185116 0.134233 0.807220 83 117 66
0.183777 0.134265 0.806995 87 121 70
0.182444 0.135054 0.807536 92 128 81
0.181103 0.135086 0.807310 105 141 94
0.179762 0.135118 0.807084 118 144 104
0.178419 0.135908 0.807624 102 128 88
0.169628 1.357856 2.040471 64 73 53
0.164139 1.361019 2.042610 56 65 45
0.357418 0.101573 0.809069 76 85 65
0.356174 0.101603 0.808859 115 136 94
0.354930 0.101633 0.808650 128 149 107
0.353686 0.101662 0.808441 112 147 89
0.352443 0.101692 0.808231 94 129 71
0.351199 0.101722 0.808022 86 126 66
0.228365 1.339827 2.040916 66 82 59
0.222953 1.339956 2.040004 67 96 55
0.188876 0.132078 0.807579 74 103 62
0.187558 0.132867 0.808125 78 111 57
0.186235 0.133655 0.808671 84 117 63
0.184896 0.133687 0.808445 84 119 65
0.183558 0.133719 0.808220 98 133 79
0.182225 0.134507 0.808764 115 146 100
0.180884 0.134539 0.808538 110 141 95
0.179655 1.352340 2.044237 87 102 73
0.174194 1.355498 2.046390 51 66 37
0.355970 0.101095 0.809998 55 65 40
0.354726 0.101125 0.809789 100 110 85
0.353483 0.101155 0.809579 124 150 99
0.352239 0.101184 0.809370 123 149 98
0.350995 0.101214 0.809161 107 143 82
0.349751 0.101244 0.808951 92 128 67
0.348507 0.101273 0.808742 85 120 62
0.238303 1.337361 2.047693 67 81 59
0.232891 1.337490 2.046782 64 89 54
0.191301 0.130715 0.808474 74 99 64
0.222066 1.337748 2.044960 79 111 62
0.188657 0.131534 0.808800 85 117 68
0.187339 0.132321 0.809348 92 125 71
0.186003 0.132353 0.809123 100 133 79
0.184677 0.133141 0.809671 116 148 97
0.183338 0.133172 0.809445 123 155 104
0.189644 1.346834 2.047978 95 119 80
0.184213 1.349986 2.050145 59 83 44
0.178760 1.353139 2.052310 59 62 44
0.353279 0.100647 0.810718 70 83 52
0.352035 0.100677 0.810509 119 132 101
0.350791 0.100706 0.810300 126 154 98
0.349547 0.100736 0.810090 122 150 94
0.348303 0.100766 0.809881 101 137 74
0.347059 0.100795 0.809671 89 125 62
0.248371 1.337910 2.057585 60 74 54
0.194956 0.127061 0.807253 73 98 63
0.193662 0.127847 0.807808 77 102 67
0.192389 0.129386 0.809140 74 105 61
0.191083 0.130172 0.809693 86 117 73
0.221179 1.335539 2.049915 91 124 70
0.188439 0.130990 0.810020 100 133 79
0.187105 0.131022 0.809796 111 142 89
0.185784 0.131808 0.810346 122 153 100
0.184458 0.132594 0.810896 109 133 94
0.194173 1.342220 2.051552 69 93 54
0.188753 1.344614 2.052959 52 63 42
0.350587 0.100199 0.811438 99 118 80
0.348994 0.099483 0.810395 125 144 106
0.346512 0.099542 0.809977 117 148 91
0.345270 0.099572 0.809768 98 136 77
0.344029 0.099601 0.809559 81 119 60
0.258588 1.340709 2.069847 60 74 54
0.253043 1.338580 2.066587 64 88 56
0.196060 0.126491 0.808684 75 99 67
0.194769 0.127275 0.809242 78 109 65
0.193446 0.127307 0.809020 86 117 73
0.192171 0.128844 0.810356 86 118 67
0.190843 0.128876 0.810132 93 125 74
0.189534 0.129661 0.810687 107 140 86
0.214947 1.336472 2.057072 115 148 94
0.186887 0.130478 0.811017 120 144 101
0.204148 1.339745 2.058356 85 109 66
0.198715 1.339874 2.057441 59 70 49
0.348791 0.098977 0.811531 64 73 53
0.347550 0.099006 0.811323 99 118 78
0.346308 0.099036 0.811114 129 148 108
0.345067 0.099065 0.810905 123 156 100
0.343826 0.099095 0.810696 108 141 85
0.269246 1.350256 2.089216 66 80 58
0.199805 0.125858 0.810560 71 94 60
0.198485 0.125889 0.810338 78 101 67
0.197164 0.125920 0.810116 79 110 64
0.195843 0.125952 0.809893 81 112 66
0.194552 0.126735 0.810454 88 120 71
0.193229 0.126767 0.810231 96 128 79
0.191930 0.127550 0.810790 106 138 87
0.190625 0.128334 0.811348 115 147 96
0.219481 1.334130 2.062950 123 147 104
0.214058 1.334260 2.062037 100 124 81
0.208636 1.334389 2.061124 69 84 59
0.203213 1.334518 2.060211 48 63 38
0.346105 0.098529 0.812250 85 95 72
0.344864 0.098559 0.812041 112 136 95
0.343622 0.098588 0.811832 125 149 108
0.342381 0.098618 0.811623 114 149 93
0.203504 0.124474 0.811648 67 81 61
0.202186 0.124505 0.811426 68 93 58
0.200909 0.125287 0.811992 76 101 66
0.199589 0.125319 0.811769 74 103 58
0.198268 0.125350 0.811547 80 109 64
0.196948 0.125382 0.811325 85 117 66
0.195627 0.125413 0.811102 89 121 70
0.194335 0.126195 0.811665 97 131 80
0.193012 0.126227 0.811442 112 146 95
0.229532 1.334664 2.072877 122 151 106
0.224099 1.334793 2.071962 113 142 97
0.218666 1.334922 2.071048 69 86 60
0.213233 1.335052 2.070133 51 68 42
0.343419 0.098082 0.812969 85 94 74
0.342178 0.098111 0.812760 119 143 100
0.205821 0.122375 0.811716 70 81 62
0.204557 0.123155 0.812286 68 92 60
0.203242 0.123187 0.812065 75 99 67
0.201970 0.123967 0.812633 72 105 61
0.200693 0.124748 0.813201 76 109 65
0.199372 0.124780 0.812978 79 113 62
0.198052 0.124811 0.812756 90 124 73
0.196731 0.124843 0.812534 100 134 83
0.195411 0.124874 0.812311 112 146 95
0.194090 0.124906 0.812089 120 149 106
0.234254 1.337567 2.084274 116 145 102
0.228711 1.334697 2.080210 85 104 78
0.223270 1.334826 2.079294 51 70 44
0.341640 0.096863 0.813055 60 70 45
0.307259 1.372555 2.142524 60 75 50
0.301675 1.372688 2.141584 67 82 57
0.206866 0.121059 0.812345 70 93 59
0.205606 0.121839 0.812918 78 101 67
0.204342 0.122618 0.813490 81 112 68
0.203072 0.123398 0.814062 79 110 66
0.201754 0.123430 0.813840 85 119 70
0.200476 0.124209 0.814410 89 123 74
0.199156 0.124241 0.814187 105 139 88
0.197835 0.124272 0.813965 113 147 96
0.196515 0.124304 0.813743 122 153 109
0.195194 0.124335 0.813520 112 143 99
0.239034 1.341203 2.096499 86 105 79
0.233563 1.341333 2.095578 55 74 48
0.211766 0.118906 0.812831 63 81 58
0.210461 0.118937 0.812612 67 85 62
0.209214 0.119715 0.813189 71 96 59
0.207961 0.120493 0.813766 78 103 66
0.206651 0.120525 0.813545 79 110 66
0.205391 0.121303 0.814120 85 116 72
0.204126 0.122082 0.814695 92 124 75
0.202856 0.122860 0.815268 94 126 77
0.201538 0.122892 0.815046 102 134 83
0.200220 0.122923 0.814824 115 147 96
0.198940 0.123702 0.815396 124 153 108
0.197619 0.123734 0.815174 115 144 99
0.196298 0.123765 0.814952 93 109 86
0.243968 1.347813 2.111939 50 66 43
0.212792 0.117596 0.813445 62 89 60
0.211552 0.118373 0.814026 67 97 60
0.210247 0.118404 0.813807 75 105 68
0.208999 0.119182 0.814386 80 111 65
0.207747 0.119959 0.814965 88 119 73
0.206489 0.120736 0.815543 88 120 69
0.205226 0.121514 0.816121 96 128 77
0.203910 0.121545 0.815899 108 140 89
0.202640 0.122322 0.816475 114 146 95
0.201322 0.122354 0.816253 122 151 106
0.200004 0.122385 0.816031 116 145 100
0.260463 1.363090 2.138860 89 105 82
0.254623 1.357250 2.131558 60 76 53
0.296356 0.018046 0.725754 126 148 119
0.215184 0.117003 0.815076 71 101 64
0.213881 0.117034 0.814857 67 103 60
0.212579 0.117065 0.814638 78 114 71
0.211338 0.117841 0.815221 83 116 70
0.210033 0.117872 0.815002 92 125 79
0.208785 0.118648 0.815584 93 127 76
0.207532 0.119424 0.816165 97 131 80
0.206274 0.120200 0.816745 108 140 89
0.205010 0.120977 0.817325 115 147 96
0.203695 0.121008 0.817103 121 145 104
0.202380 0.121039 0.816882 110 134 93
0.201106 0.121816 0.817460 78 94 71
0.199827 0.122593 0.818037 52 68 45
0.218724 0.114891 0.815312 65 95 56
0.217501 0.115666 0.815901 73 103 64
0.216201 0.115697 0.815682 70 106 59
0.214901 0.115728 0.815463 80 116 69
0.213668 0.116502 0.816050 81 120 67
0.212365 0.116533 0.815831 88 127 74
0.211124 0.117308 0.816416 96 133 83
0.209819 0.117339 0.816197 105 142 92
0.208571 0.118114 0.816781 114 148 99
0.207317 0.118889 0.817365 117 151 102
0.206059 0.119665 0.817947 123 147 108
0.204795 0.120440 0.818529 113 137 98
0.281265 1.363973 2.159213 72 84 60
0.202208 0.121247 0.818888 57 69 45
0.221025 0.113558 0.816126 74 105 63
0.219730 0.113589 0.815908 79 110 68
0.218511 0.114362 0.816500 76 113 63
0.217288 0.115135 0.817091 81 118 68
0.215988 0.115166 0.816872 80 120 64
0.214688 0.115197 0.816653 91 131 75
0.213454 0.115971 0.817243 97 137 81
0.212152 0.116002 0.817023 109 149 93
0.210911 0.116775 0.817611 113 150 100
0.209605 0.116807 0.817392 116 153 103
0.208357 0.117581 0.817978 118 143 106
0.207103 0.118355 0.818564 96 121 84
0.205843 0.119129 0.819149 70 79 59
0.227099 0.111393 0.816771 67 91 61
0.225901 0.112165 0.817369 65 95 56
0.224608 0.112196 0.817151 70 100 61
0.222107 0.112998 0.817530 79 112 66
0.220812 0.113029 0.817312 81 118 66
0.219517 0.113060 0.817094 84 121 69
0.217001 0.113863 0.817469 92 130 75
0.215775 0.114636 0.818062 104 142 87
0.214475 0.114667 0.817843 112 150 95
0.213241 0.115439 0.818435 122 154 103
0.211938 0.115470 0.818216 123 155 104
0.210697 0.116243 0.818806 105 130 95
0.209450 0.117016 0.819396 85 110 75
0.208142 0.117047 0.819176 54 70 49
0.229467 0.110805 0.818386 71 95 63
0.228177 0.110836 0.818169 75 108 66
0.226888 0.110867 0.817952 78 111 69
0.225689 0.111637 0.818552 82 116 67
0.224397 0.111668 0.818334 85 119 70
0.221895 0.112470 0.818715 91 126 68
0.220600 0.112501 0.818497 97 133 72
0.219305 0.112532 0.818279 101 137 76
0.216789 0.113334 0.818657 120 158 101
0.215562 0.114105 0.819253 127 157 109
0.214262 0.114136 0.819034 117 147 99
0.213028 0.114908 0.819628 88 107 77
0.211725 0.114939 0.819409 59 78 48
0.210483 0.115710 0.820001 50 65 51
0.234198 0.108679 0.818791 71 94 58
0.230445 0.109510 0.818963 87 118 74
0.229157 0.109540 0.818746 88 119 75
0.227966 0.110310 0.819350 89 123 74
0.226676 0.110340 0.819133 86 120 71
0.225477 0.111110 0.819735 92 127 71
0.224185 0.111141 0.819518 97 132 76
0.221683 0.111941 0.819901 111 147 86
0.220388 0.111972 0.819683 120 153 95
0.219093 0.112003 0.819465 123 156 98
0.217874 0.112773 0.820064 118 144 100
0.216576 0.112804 0.819845 95 121 77
0.215349 0.113574 0.820443 68 85 57
0.214049 0.113605 0.820224 54 71 43
0.237726 0.107326 0.819790 75 104 61
0.236444 0.107356 0.819574 80 109 66
0.235272 0.108124 0.820183 82 111 66
0.233987 0.108155 0.819967 83 112 67
0.232703 0.108185 0.819751 91 123 74
0.231521 0.108954 0.820358 93 125 76
0.230234 0.108984 0.820142 93 125 74
0.228947 0.109015 0.819925 101 133 82
0.227755 0.109783 0.820531 103 136 82
0.226465 0.109814 0.820314 112 145 91
0.225265 0.110583 0.820919 116 149 95
0.223973 0.110613 0.820701 120 153 99
0.221471 0.111413 0.821087 122 150 98
0.220176 0.111444 0.820868 105 126 88
0.218881 0.111475 0.820650 83 104 66
0.217661 0.112244 0.821252 51 67 44
0.216436 0.113013 0.821852 49 65 42
0.249632 0.102819 0.818958 62 86 56
0.248502 0.103585 0.819577 63 87 57
0.247230 0.103615 0.819363 63 87 55
0.245957 0.103646 0.819148 71 95 63
0.244686 0.103676 0.818934 73 98 61
0.243542 0.104442 0.819551 75 100 63
0.242393 0.105208 0.820167 78 107 64
0.241239 0.105975 0.820781 74 103 60
0.239959 0.106005 0.820566 81 113 62
0.238680 0.106036 0.820351 85 117 66
0.237516 0.106802 0.820964 85 117 66
0.236234 0.106833 0.820748 89 121 70
0.235062 0.107600 0.821360 91 125 74
0.233777 0.107631 0.821143 96 130 79
0.232492 0.107661 0.820927 98 132 81
0.231310 0.108428 0.821537 105 139 88
0.230023 0.108459 0.821320 107 141 90
0.228736 0.108490 0.821104 108 142 91
0.227543 0.109257 0.821712 118 147 102
0.226253 0.109288 0.821495 121 150 105
0.225054 0.110055 0.822102 118 142 103
0.223761 0.110086 0.821884 104 128 89
0.221259 0.110885 0.822272 57 70 39
0.219964 0.110915 0.822054 55 64 44
0.248293 0.103066 0.820741 75 108 66
0.247021 0.103096 0.820527 80 113 71
0.245882 0.103861 0.821147 82 115 73
0.244608 0.103892 0.820932 84 115 69
0.243461 0.104657 0.821551 85 116 70
0.242184 0.104687 0.821336 81 113 64
0.241029 0.105453 0.821953 91 123 74
0.239750 0.105483 0.821738 90 125 71
0.238470 0.105514 0.821522 96 131 77
0.237306 0.106279 0.822138 94 129 75
0.236023 0.106310 0.821922 103 138 84
0.234851 0.107076 0.822536 106 141 87
0.233566 0.107106 0.822320 110 145 91
0.232282 0.107137 0.822103 114 146 97
0.231099 0.107903 0.822716 121 153 104
0.229812 0.107934 0.822499 119 145 105
0.228525 0.107964 0.822282 106 132 92
0.227332 0.108731 0.822893 84 99 74
0.226042 0.108761 0.822676 62 77 52
0.224842 0.109528 0.823285 60 69 49
0.248085 0.102547 0.821906 87 123 76
0.246813 0.102577 0.821692 89 122 76
0.245673 0.103341 0.822314 90 123 77
0.244399 0.103372 0.822099 95 127 78
0.243252 0.104136 0.822720 102 134 85
0.241975 0.104166 0.822505 103 135 86
0.240820 0.104930 0.823125 108 140 91
0.239540 0.104961 0.822909 113 145 94
0.238260 0.104991 0.822694 119 151 100
0.237096 0.105756 0.823312 118 145 98
0.235813 0.105787 0.823096 120 147 100
0.234641 0.106551 0.823712 116 140 99
0.233356 0.106582 0.823496 99 123 82
0.232071 0.106613 0.823280 84 103 73
0.230786 0.106643 0.823063 65 84 54
0.229601 0.107408 0.823678 56 68 44
0.228314 0.107439 0.823461 57 69 45
0.249148 0.101997 0.823285 100 134 85
0.247876 0.102028 0.823071 106 140 91
0.246604 0.102058 0.822856 109 140 94
0.245464 0.102821 0.823481 110 141 95
0.244190 0.102851 0.823266 118 147 102
0.243042 0.103615 0.823889 118 147 102
0.241765 0.103645 0.823674 119 143 100
0.240610 0.104408 0.824296 116 140 97
0.239330 0.104439 0.824081 112 133 95
0.238051 0.104469 0.823865 102 123 85
0.236885 0.105233 0.824485 84 99 70
0.235603 0.105263 0.824270 62 77 48
0.234430 0.106027 0.824888 59 71 47
0.233145 0.106058 0.824672 55 67 43
0.248940 0.101478 0.824449 116 141 106
0.247668 0.101509 0.824235 113 138 103
0.246396 0.101539 0.824021 108 132 100
0.245256 0.102301 0.824648 95 119 87
0.243981 0.102331 0.824433 87 106 76
0.242833 0.103093 0.825059 73 92 62
0.241556 0.103124 0.824844 68 78 51
0.240279 0.103154 0.824629 60 70 43
0.239121 0.103917 0.825252 57 64 42
0.248731 0.100959 0.825614 55 68 53
0.247459 0.100990 0.825400 54 67 52
