ply
format ascii 1.0
element vertex 1866
property float x
property float y
property float z
property uchar red
property uchar green
property uchar blue
end_header
0.228380 0.292149 0.470624 111 172 73
0.227021 0.292182 0.470396 110 171 81
0.225574 0.291171 0.470044 110 171 81
0.223964 0.288073 0.469450 111 167 95
0.228158 0.291594 0.471870 122 183 82
0.226709 0.290585 0.471515 117 182 84
0.225351 0.290617 0.471287 111 176 78
0.223743 0.287523 0.470685 106 172 81
0.222230 0.285470 0.470210 106 172 81
0.220807 0.284460 0.469861 112 169 94
0.227935 0.291039 0.473115 144 204 112
0.226486 0.290031 0.472758 131 196 98
0.224871 0.286940 0.472148 123 188 90
0.223438 0.285931 0.471795 115 182 84
0.221929 0.283880 0.471315 111 178 80
0.220509 0.282871 0.470964 108 173 79
0.219170 0.282903 0.470738 105 170 76
0.217757 0.281893 0.470388 108 166 95
0.236379 0.323626 0.479500 96 154 56
0.234151 0.315342 0.478205 50 96 27
0.231006 0.296659 0.475605 47 93 24
0.227712 0.290484 0.474360 108 151 94
0.226264 0.289477 0.474001 133 188 109
0.224650 0.286389 0.473384 146 201 122
0.223134 0.284341 0.472899 137 199 102
0.221709 0.283333 0.472544 128 190 93
0.220290 0.282324 0.472190 122 185 83
0.218950 0.282356 0.471964 120 183 81
0.217538 0.281348 0.471612 112 176 85
0.216131 0.280339 0.471260 103 167 76
0.237147 0.333424 0.482164 71 131 37
0.235288 0.329304 0.481381 48 90 36
0.227489 0.289929 0.475605 56 84 57
0.226042 0.288923 0.475244 56 93 52
0.224344 0.284799 0.474488 84 121 80
0.222914 0.283792 0.474130 134 186 111
0.221490 0.282785 0.473773 148 200 125
0.220070 0.281778 0.473416 141 202 103
0.218731 0.281810 0.473191 126 187 88
0.217319 0.280802 0.472836 120 186 85
0.215842 0.278755 0.472352 117 183 82
0.214443 0.277747 0.471999 113 176 92
0.213049 0.276740 0.471647 111 174 90
0.211661 0.275732 0.471296 100 157 95
0.224123 0.284249 0.475722 63 85 65
0.222612 0.282205 0.475227 60 98 52
0.221190 0.281199 0.474868 109 147 101
0.219851 0.281231 0.474643 143 196 116
0.218437 0.280225 0.474285 145 198 118
0.217028 0.279218 0.473928 132 194 97
0.215624 0.278212 0.473572 130 192 95
0.214226 0.277205 0.473216 119 186 92
0.212832 0.276198 0.472862 122 189 95
0.211382 0.274153 0.472378 126 187 113
0.220971 0.280653 0.476095 58 80 60
0.219555 0.279647 0.475734 67 106 55
0.218218 0.279679 0.475509 128 167 116
0.216809 0.278674 0.475150 145 201 113
0.215337 0.276631 0.474657 142 198 110
0.214008 0.276663 0.474433 131 196 100
0.212615 0.275657 0.474077 130 195 99
0.211165 0.273613 0.473588 126 190 101
0.209844 0.273645 0.473366 124 188 99
0.208522 0.273676 0.473143 119 182 112
0.244154 0.349088 0.489615 130 159 116
0.242643 0.349124 0.489360 154 212 114
0.241133 0.349160 0.489106 171 229 131
0.239520 0.348161 0.488710 165 233 130
0.217925 0.278097 0.476596 58 84 60
0.216519 0.277093 0.476235 91 135 69
0.215119 0.276088 0.475874 139 183 117
0.213724 0.275084 0.475515 148 208 116
0.212270 0.273043 0.475021 137 197 105
0.210949 0.273074 0.474798 131 197 96
0.209627 0.273106 0.474576 128 194 93
0.208306 0.273137 0.474353 123 190 103
0.206931 0.272132 0.473997 123 190 103
0.244233 0.351574 0.491434 106 136 97
0.242609 0.350576 0.491034 157 217 123
0.241093 0.350612 0.490778 166 226 132
0.239577 0.350648 0.490523 167 238 131
0.216231 0.275514 0.477315 61 85 55
0.214833 0.274511 0.476953 68 92 62
0.213376 0.272472 0.476453 112 157 86
0.212054 0.272503 0.476231 151 196 125
0.210732 0.272535 0.476008 147 207 111
0.209411 0.272566 0.475786 137 197 101
0.208089 0.272598 0.475563 129 198 101
0.206715 0.271594 0.475205 129 198 101
0.205396 0.271625 0.474983 123 193 107
0.204029 0.270621 0.474625 116 186 100
0.244636 0.357154 0.493711 84 113 83
0.242996 0.356157 0.493306 162 221 132
0.241465 0.356194 0.493048 168 227 138
0.239934 0.356230 0.492790 163 234 125
0.238402 0.356267 0.492532 159 230 121
0.213159 0.271933 0.477663 58 88 51
0.211837 0.271964 0.477441 89 119 82
0.210516 0.271995 0.477218 139 189 110
0.209194 0.272027 0.476996 157 207 128
0.207818 0.271024 0.476634 139 204 106
0.206499 0.271055 0.476412 138 203 105
0.205130 0.270052 0.476052 134 206 108
0.203813 0.270084 0.475831 129 201 103
0.202497 0.270115 0.475609 126 195 114
0.201138 0.269111 0.475251 106 175 94
0.244601 0.358593 0.495416 47 73 49
0.242956 0.357597 0.495007 150 203 121
0.241420 0.357634 0.494748 172 225 143
0.239884 0.357670 0.494490 162 234 120
0.238347 0.357707 0.494231 170 242 128
0.210299 0.271456 0.478428 69 107 59
0.208921 0.270454 0.478064 119 157 109
0.207602 0.270486 0.477842 149 210 122
0.206282 0.270517 0.477620 149 210 122
0.204914 0.269515 0.477258 136 205 106
0.203598 0.269546 0.477036 132 201 102
0.202237 0.268544 0.476675 126 199 107
0.200923 0.268575 0.476454 124 197 105
0.199570 0.267573 0.476094 113 176 102
0.242915 0.359032 0.496718 118 168 89
0.241374 0.359069 0.496458 173 223 144
0.239832 0.359106 0.496199 164 236 120
0.238291 0.359143 0.495939 171 243 127
0.208704 0.269916 0.479272 62 86 58
0.207331 0.268915 0.478906 90 141 75
0.206015 0.268946 0.478685 150 201 135
0.204698 0.268978 0.478463 144 211 117
0.203336 0.267977 0.478099 140 207 113
0.202022 0.268008 0.477878 133 205 107
0.200708 0.268039 0.477657 130 202 104
0.199355 0.267038 0.477295 125 195 107
0.198044 0.267069 0.477074 119 189 101
0.243291 0.364584 0.499055 67 111 45
0.241530 0.362561 0.498485 174 218 152
0.239878 0.361568 0.498071 174 246 132
0.238329 0.361605 0.497810 173 245 131
0.207116 0.268378 0.480112 59 89 52
0.205799 0.268409 0.479890 84 114 77
0.204483 0.268440 0.479668 138 196 116
0.203120 0.267440 0.479302 159 217 137
0.201806 0.267472 0.479081 143 212 115
0.200452 0.266471 0.478716 141 210 113
0.199140 0.266502 0.478495 136 210 111
0.197793 0.265502 0.478132 132 206 107
0.196517 0.266565 0.478054 132 198 118
0.195175 0.265564 0.477691 117 183 103
0.243244 0.366007 0.500794 55 93 38
0.241581 0.365015 0.500375 166 204 149
0.240021 0.365052 0.500112 173 242 134
0.238462 0.365090 0.499850 168 237 129
0.236903 0.365127 0.499587 170 237 141
0.204267 0.267903 0.480874 69 108 55
0.202905 0.266904 0.480505 126 165 112
0.201591 0.266935 0.480284 154 219 125
0.200237 0.265936 0.479917 146 211 117
0.198925 0.265967 0.479696 137 210 107
0.197579 0.264968 0.479330 136 209 106
0.196270 0.264999 0.479110 136 210 113
0.194961 0.265030 0.478890 134 208 111
0.193652 0.265061 0.478669 122 180 111
0.192343 0.265093 0.478449 82 140 71
0.241629 0.367463 0.502278 130 161 119
0.239865 0.365444 0.501698 182 245 143
0.238303 0.365481 0.501435 169 232 130
0.236835 0.366547 0.501330 175 243 142
0.202690 0.266368 0.481708 65 91 65
0.201333 0.265370 0.481338 94 147 78
0.200022 0.265401 0.481118 150 203 134
0.198710 0.265432 0.480897 146 216 112
0.197364 0.264434 0.480529 142 212 108
0.196055 0.264465 0.480308 135 210 104
0.194746 0.264496 0.480088 133 208 102
0.193438 0.264527 0.479868 138 205 118
0.192129 0.264558 0.479647 123 190 103
0.190820 0.264590 0.479427 90 141 86
0.189511 0.264621 0.479207 55 106 51
0.241978 0.372986 0.504679 89 113 81
0.240101 0.369943 0.503931 171 231 137
0.238430 0.368953 0.503506 182 242 148
0.236858 0.368990 0.503241 179 248 142
0.235377 0.370055 0.503135 151 220 114
0.201118 0.264835 0.482539 42 77 37
0.199767 0.263837 0.482168 81 116 76
0.198459 0.263869 0.481947 141 204 118
0.197150 0.263900 0.481727 153 216 130
0.195841 0.263931 0.481507 142 213 106
0.194532 0.263962 0.481286 138 209 102
0.193196 0.262964 0.480917 137 207 103
0.191890 0.262995 0.480697 143 213 109
0.190584 0.263027 0.480478 131 195 116
0.189278 0.263058 0.480258 95 159 80
0.241920 0.374393 0.506454 62 82 63
0.240136 0.372378 0.505861 157 210 130
0.238554 0.372416 0.505595 192 245 165
0.236972 0.372454 0.505328 184 253 147
0.235570 0.374544 0.505385 175 244 138
0.198244 0.263334 0.483146 65 107 53
0.196935 0.263366 0.482925 128 170 116
0.195626 0.263397 0.482705 157 219 124
0.194289 0.262400 0.482333 151 213 118
0.192982 0.262431 0.482113 139 211 97
0.191676 0.262462 0.481893 141 213 99
0.190370 0.262494 0.481674 141 210 111
0.189064 0.262525 0.481454 137 206 107
0.187757 0.262556 0.481234 113 170 104
0.186451 0.262587 0.481014 62 119 53
0.240072 0.373783 0.507640 118 165 93
0.238485 0.373820 0.507373 193 240 168
0.236897 0.373858 0.507106 192 255 155
0.235400 0.374921 0.507002 186 255 149
0.234072 0.378035 0.507225 115 173 102
0.195412 0.262863 0.483903 109 158 86
0.194075 0.261867 0.483529 161 210 138
0.192768 0.261898 0.483309 150 219 113
0.191462 0.261929 0.483089 144 213 107
0.190156 0.261961 0.482870 141 212 101
0.188850 0.261992 0.482650 142 213 102
0.187543 0.262023 0.482430 137 205 115
0.186237 0.262054 0.482210 120 188 98
0.184931 0.262085 0.481990 68 118 66
0.240783 0.383375 0.510769 92 136 70
0.238886 0.380341 0.509996 187 231 165
0.237281 0.380379 0.509726 193 255 158
0.234244 0.382504 0.509517 150 215 133
0.232718 0.383567 0.509412 33 98 16
0.193889 0.262360 0.484881 96 127 85
0.192580 0.262391 0.484661 154 214 122
0.191271 0.262422 0.484440 155 215 123
0.189942 0.261427 0.484065 146 216 103
0.188635 0.261459 0.483846 143 213 100
0.187329 0.261490 0.483626 141 212 105
0.186023 0.261521 0.483406 141 212 105
0.184717 0.261552 0.483186 124 186 109
0.183410 0.261583 0.482966 80 142 65
0.238906 0.382755 0.511975 168 206 158
0.237293 0.382794 0.511703 192 255 164
0.235680 0.382832 0.511431 193 255 165
0.234067 0.382870 0.511160 172 239 152
0.232622 0.384955 0.511224 68 135 48
0.193674 0.261826 0.486079 67 87 68
0.192340 0.260832 0.485701 80 124 60
0.191057 0.261888 0.485639 148 192 128
0.189748 0.261919 0.485418 161 225 118
0.188421 0.260926 0.485042 150 214 107
0.187115 0.260957 0.484822 141 213 99
0.185809 0.260988 0.484602 144 216 102
0.184503 0.261019 0.484382 141 210 111
0.183196 0.261050 0.484162 127 196 97
0.181890 0.261081 0.483942 93 145 83
0.238829 0.384141 0.513795 118 149 115
0.237120 0.383157 0.513351 188 252 161
0.235504 0.383196 0.513079 198 255 171
0.233975 0.384257 0.512978 187 255 163
0.232440 0.385317 0.512875 122 190 98
0.231062 0.388423 0.513112 41 83 42
0.192151 0.261323 0.487057 63 92 58
0.190842 0.261354 0.486837 71 100 66
0.189533 0.261385 0.486617 130 183 101
0.188224 0.261416 0.486396 165 218 136
0.186901 0.260424 0.486018 156 224 109
0.185595 0.260455 0.485798 146 214 99
0.184289 0.260486 0.485578 135 210 95
0.182982 0.260517 0.485358 139 214 99
0.181676 0.260548 0.485138 131 196 110
0.180370 0.260579 0.484918 103 168 82
0.238750 0.385522 0.515625 71 98 67
0.237036 0.384540 0.515178 174 229 146
0.235416 0.384579 0.514905 202 255 174
0.233795 0.384617 0.514632 192 255 164
0.232424 0.387720 0.514876 158 227 130
0.230956 0.389801 0.514946 54 99 49
0.189319 0.260851 0.487815 62 101 50
0.188010 0.260882 0.487595 117 156 105
0.186701 0.260913 0.487374 157 220 118
0.185381 0.259922 0.486994 157 220 118
0.184075 0.259953 0.486774 143 215 99
0.182768 0.259984 0.486554 139 211 95
0.181462 0.260015 0.486334 142 215 112
0.180156 0.260046 0.486114 133 206 103
0.178849 0.260077 0.485894 116 177 103
0.238856 0.388940 0.517817 59 82 59
0.237042 0.386939 0.517190 143 195 122
0.235413 0.386977 0.516916 203 255 182
0.233785 0.387016 0.516641 195 255 165
0.232322 0.389095 0.516717 178 247 148
0.230769 0.390154 0.516616 104 156 94
0.187796 0.260348 0.488793 60 84 56
0.186487 0.260379 0.488573 97 148 78
0.185178 0.260410 0.488352 161 212 142
0.183861 0.259420 0.487970 160 229 121
0.182560 0.260473 0.487912 153 222 114
0.181251 0.260504 0.487691 140 214 104
0.179942 0.259513 0.487310 139 213 103
0.178635 0.259544 0.487090 136 208 112
0.177329 0.259575 0.486870 122 194 98
0.176023 0.259606 0.486650 81 133 73
0.237045 0.389331 0.519216 84 131 69
0.235321 0.388351 0.518762 191 238 176
0.233688 0.388390 0.518487 197 255 168
0.232137 0.389448 0.518390 190 255 161
0.230660 0.391525 0.518467 141 199 126
0.229096 0.392583 0.518367 37 95 22
0.186272 0.259845 0.489771 55 88 42
0.184963 0.259876 0.489551 87 120 74
0.183655 0.259908 0.489330 152 212 120
0.182346 0.259939 0.489110 171 231 139
0.181037 0.259970 0.488890 148 222 110
0.179728 0.258980 0.488506 142 216 104
0.178419 0.260032 0.488449 135 211 100
0.177115 0.259042 0.488066 135 211 100
0.175809 0.259073 0.487846 125 190 106
0.174503 0.259104 0.487626 80 145 61
0.236956 0.390699 0.521075 51 93 41
0.235228 0.389720 0.520619 166 208 156
0.233589 0.389759 0.520343 198 255 168
0.231950 0.389798 0.520067 191 255 161
0.230391 0.390855 0.519970 176 239 155
0.228827 0.391913 0.519872 63 126 42
0.184749 0.259342 0.490749 63 81 58
0.183440 0.259373 0.490529 73 117 53
0.182131 0.259405 0.490308 150 194 130
0.180822 0.259436 0.490088 160 229 121
0.179514 0.259467 0.489868 158 227 119
0.178205 0.259498 0.489647 147 222 105
0.176896 0.259529 0.489427 137 212 95
0.175595 0.258540 0.489042 141 212 105
0.174278 0.259592 0.488986 135 206 99
0.172970 0.259623 0.488766 98 149 81
0.235046 0.390068 0.522301 109 144 106
0.233404 0.390108 0.522025 190 255 163
0.231763 0.390147 0.521749 194 255 167
0.230201 0.391203 0.521654 183 251 159
0.228557 0.391242 0.521377 116 184 92
0.227061 0.393315 0.521462 41 81 39
0.183226 0.258839 0.491727 61 89 53
0.181917 0.258871 0.491507 67 95 59
0.180608 0.258902 0.491286 136 192 104
0.179299 0.258933 0.491066 173 229 141
0.177990 0.258964 0.490846 163 233 118
0.176682 0.258995 0.490625 151 221 106
0.175373 0.259026 0.490405 143 215 99
0.174064 0.259058 0.490185 139 211 95
0.172755 0.259089 0.489964 141 205 114
0.171446 0.259120 0.489744 101 165 74
0.234863 0.390415 0.523989 71 99 72
0.233219 0.390454 0.523712 176 237 149
0.231575 0.390493 0.523436 199 255 172
0.229932 0.390532 0.523159 187 255 159
0.228364 0.391587 0.523065 157 226 129
0.226791 0.392643 0.522971 41 89 38
0.180394 0.258368 0.492485 59 102 45
0.179084 0.259417 0.492435 134 177 120
0.177776 0.258430 0.492044 168 232 125
0.176467 0.258461 0.491824 171 235 128
0.175158 0.258492 0.491603 154 225 107
0.173849 0.258524 0.491383 146 217 99
0.172541 0.258555 0.491163 149 218 112
0.171232 0.258586 0.490942 140 209 103
0.169904 0.259635 0.490889 109 162 91
0.234679 0.390759 0.525681 49 70 48
0.233033 0.390798 0.525404 144 198 122
0.231387 0.390837 0.525127 197 251 175
0.229740 0.390876 0.524850 185 255 153
0.228094 0.390915 0.524573 176 246 144
0.226594 0.392985 0.524666 71 126 61
0.178869 0.258882 0.493635 63 87 55
0.177558 0.258913 0.493415 114 163 89
0.176246 0.258944 0.493194 168 217 143
0.174935 0.258975 0.492973 172 240 127
0.173624 0.259007 0.492752 158 226 113
0.172312 0.259038 0.492531 144 216 102
0.171001 0.259069 0.492311 144 216 102
0.169689 0.259100 0.492090 136 205 110
0.168378 0.259132 0.491869 100 169 74
0.232846 0.391140 0.527101 84 132 67
0.231117 0.390165 0.526634 192 240 175
0.229548 0.391218 0.526546 179 249 147
0.227899 0.391258 0.526268 181 251 149
0.226395 0.393325 0.526365 118 182 103
0.177343 0.258378 0.494615 56 89 45
0.176031 0.258409 0.494394 107 140 96
0.174720 0.258440 0.494174 158 218 126
0.173409 0.258471 0.493953 176 236 144
0.172083 0.259519 0.493905 157 227 114
0.170769 0.259550 0.493684 150 220 107
0.169474 0.258565 0.493291 147 221 111
0.168141 0.259613 0.493241 140 214 104
0.166827 0.259644 0.493020 115 175 92
0.232658 0.391480 0.528802 52 94 40
0.231007 0.391519 0.528524 167 209 155
0.229355 0.391559 0.528246 180 249 152
0.227778 0.392611 0.528158 179 248 151
0.224610 0.394716 0.527980 39 104 18
0.175809 0.258889 0.495772 64 82 59
0.174495 0.258920 0.495550 88 132 68
0.173181 0.258951 0.495329 160 204 140
0.171868 0.258983 0.495108 172 239 133
0.170554 0.259014 0.494887 165 232 126
0.169240 0.259045 0.494666 146 221 106
0.167926 0.259077 0.494444 151 226 111
0.166612 0.259108 0.494223 145 213 112
0.165270 0.260155 0.494175 111 179 78
0.230974 0.393881 0.530616 138 176 130
0.229238 0.392908 0.530144 180 249 154
0.227582 0.392948 0.529865 172 241 146
0.225997 0.393999 0.529778 172 241 144
0.224407 0.395051 0.529691 92 161 64
0.222812 0.396102 0.529602 33 75 34
0.174280 0.258384 0.496753 59 87 51
0.172953 0.259429 0.496710 89 117 81
0.171652 0.258446 0.496311 150 206 118
0.170320 0.259492 0.496267 182 238 150
0.169004 0.259523 0.496045 166 236 123
0.167687 0.259555 0.495824 156 226 113
0.166371 0.259586 0.495602 148 220 106
0.165054 0.259617 0.495380 146 218 104
0.163707 0.260663 0.495334 123 183 98
0.162388 0.260695 0.495112 77 137 52
0.230860 0.395225 0.532527 81 110 78
0.229119 0.394254 0.532051 171 237 146
0.227458 0.394294 0.531772 174 240 149
0.225796 0.394333 0.531492 177 250 147
0.224203 0.395384 0.531406 132 205 102
0.222605 0.396434 0.531320 32 82 32
0.172738 0.258892 0.497915 66 83 67
0.171421 0.258923 0.497694 72 114 60
0.170105 0.258955 0.497472 152 194 140
0.168788 0.258986 0.497251 179 246 138
0.167472 0.259017 0.497029 172 239 131
0.166155 0.259049 0.496807 160 232 116
0.164810 0.260093 0.496763 157 229 113
0.163491 0.260125 0.496541 142 212 108
0.162172 0.260156 0.496319 125 195 91
0.160817 0.261201 0.496274 90 140 81
0.230744 0.396565 0.534447 54 77 54
0.228999 0.395595 0.533968 135 190 107
0.227332 0.395635 0.533687 187 242 159
0.225665 0.395675 0.533407 172 246 138
0.223999 0.395715 0.533126 167 241 133
0.222398 0.396764 0.533042 68 125 63
0.169889 0.258417 0.498678 71 97 71
0.168573 0.258449 0.498456 136 194 110
0.167232 0.259492 0.498415 183 241 157
0.165913 0.259524 0.498193 172 243 125
0.164594 0.259555 0.497971 166 237 119
0.163275 0.259587 0.497749 156 228 114
0.161922 0.260630 0.497706 146 218 104
0.160600 0.260662 0.497484 140 200 115
0.159279 0.260693 0.497261 97 157 72
0.228801 0.395924 0.535694 93 140 66
0.227132 0.395964 0.535413 193 240 166
0.225463 0.396004 0.535132 169 240 133
0.223793 0.396043 0.534851 174 245 138
0.222124 0.396083 0.534570 121 182 108
0.220518 0.397132 0.534487 25 86 12
0.168335 0.258923 0.499845 62 106 51
0.167016 0.258954 0.499623 138 182 127
0.165697 0.258985 0.499401 183 247 140
0.164378 0.259017 0.499179 182 246 139
0.163027 0.260060 0.499139 167 238 120
0.161705 0.260091 0.498916 158 229 111
0.160384 0.260123 0.498694 151 219 118
0.159062 0.260154 0.498471 138 206 105
0.157741 0.260186 0.498249 94 144 81
0.228603 0.396251 0.537425 62 101 39
0.226931 0.396290 0.537143 177 216 154
0.225189 0.395322 0.536660 170 241 134
0.223520 0.395362 0.536379 173 244 137
0.221916 0.396410 0.536299 154 220 129
0.220244 0.396450 0.536018 43 109 18
0.166775 0.259426 0.501016 64 91 60
0.165454 0.259457 0.500794 127 186 99
0.164132 0.259489 0.500571 182 241 154
0.162811 0.259520 0.500349 183 251 138
0.161489 0.259552 0.500126 173 241 128
0.160167 0.259583 0.499904 165 234 126
0.158846 0.259615 0.499681 158 227 119
0.157524 0.259646 0.499459 147 207 122
0.156202 0.259678 0.499236 96 156 71
0.228329 0.395568 0.538956 48 79 33
0.226657 0.395608 0.538674 138 169 123
0.224985 0.395648 0.538393 179 247 146
0.223313 0.395688 0.538111 170 238 137
0.221642 0.395728 0.537830 169 238 139
0.219970 0.395768 0.537548 80 149 50
0.218357 0.396814 0.537469 38 74 38
0.165237 0.258918 0.502004 55 95 39
0.163916 0.258950 0.501781 129 169 113
0.162594 0.258981 0.501559 177 240 138
0.161272 0.259012 0.501336 186 249 147
0.159951 0.259044 0.501114 171 242 133
0.158629 0.259075 0.500891 165 236 127
0.157308 0.259107 0.500669 161 228 130
0.155986 0.259138 0.500446 146 213 115
0.154616 0.260179 0.500408 108 159 91
0.226455 0.395932 0.540411 69 97 59
0.224711 0.394966 0.539923 171 231 135
0.223039 0.395006 0.539642 177 237 141
0.221432 0.396051 0.539566 171 242 135
0.219757 0.396091 0.539284 134 205 98
0.218083 0.396131 0.539002 38 79 30
0.163699 0.258410 0.502991 53 77 49
0.162377 0.258442 0.502769 108 160 87
0.161056 0.258473 0.502546 175 227 154
0.159734 0.258505 0.502324 185 254 148
0.158413 0.258536 0.502101 180 249 143
0.157048 0.259576 0.502066 165 236 127
0.155723 0.259608 0.501843 164 235 126
0.154399 0.259639 0.501620 157 218 128
0.226252 0.396253 0.542153 49 71 44
0.224506 0.395288 0.541663 138 192 107
0.222832 0.395328 0.541381 183 237 152
0.221157 0.395368 0.541099 170 241 130
0.219544 0.396413 0.541024 160 231 120
0.217926 0.397458 0.540949 56 104 39
0.162127 0.258909 0.504170 48 84 41
0.160803 0.258941 0.503947 105 141 98
0.159479 0.258973 0.503724 170 232 135
0.158155 0.259004 0.503501 190 252 155
0.156831 0.259036 0.503278 175 245 130
0.155506 0.259067 0.503056 170 240 125
0.154182 0.259099 0.502833 168 237 129
0.152807 0.260138 0.502798 151 220 112
0.224368 0.396612 0.543617 107 153 84
0.222623 0.395649 0.543124 187 233 164
0.221009 0.396692 0.543052 173 240 132
0.219330 0.396732 0.542769 169 236 128
0.217650 0.396772 0.542486 111 163 88
0.216026 0.397816 0.542412 29 81 6
0.160586 0.258401 0.505160 55 75 56
0.159262 0.258432 0.504937 84 135 67
0.157938 0.258464 0.504714 165 216 148
0.156614 0.258495 0.504491 187 255 140
0.155243 0.259533 0.504460 184 252 137
0.153916 0.259565 0.504236 172 243 125
0.152589 0.259596 0.504013 167 238 120
0.151208 0.260635 0.503980 153 218 120
0.224161 0.396930 0.545368 57 95 38
0.222479 0.396970 0.545085 181 219 162
0.220797 0.397010 0.544802 178 242 135
0.219115 0.397050 0.544519 176 240 133
0.217490 0.398093 0.544447 142 197 114
0.215861 0.399136 0.544375 31 86 3
0.159045 0.257892 0.506149 47 80 38
0.157679 0.258929 0.506121 91 124 82
0.156352 0.258960 0.505898 160 222 125
0.155025 0.258992 0.505674 191 253 156
0.153699 0.259023 0.505451 178 249 131
0.152320 0.260060 0.505421 171 242 124
0.150990 0.260092 0.505197 174 244 131
0.149604 0.261129 0.505165 152 222 109
0.222268 0.397285 0.546840 128 161 115
0.220584 0.397325 0.546557 187 248 147
0.218899 0.397365 0.546273 182 243 142
0.217272 0.398407 0.546203 170 227 134
0.215639 0.399449 0.546133 66 123 30
0.157461 0.258387 0.507336 56 74 53
0.156090 0.259423 0.507309 85 131 64
0.154760 0.259455 0.507085 161 207 140
0.153431 0.259486 0.506861 186 253 143
0.152049 0.260522 0.506833 177 244 134
0.150717 0.260554 0.506609 173 244 124
0.149328 0.261590 0.506579 175 246 126
0.147993 0.261622 0.506354 153 216 116
0.145259 0.262690 0.506098 58 102 49
0.222121 0.398598 0.548818 80 109 75
0.220431 0.398639 0.548533 184 241 150
0.218742 0.398679 0.548249 187 244 153
0.217109 0.399720 0.548181 175 236 137
0.215471 0.400761 0.548111 119 180 81
0.213828 0.401802 0.548041 30 71 26
0.154543 0.258912 0.508302 86 116 77
0.153163 0.259947 0.508277 153 210 119
0.151831 0.259979 0.508052 191 248 157
0.150443 0.261014 0.508025 177 248 130
0.149109 0.261046 0.507801 179 250 132
0.147775 0.261078 0.507576 174 246 132
0.145040 0.262145 0.507322 112 170 90
0.143703 0.262177 0.507097 52 110 30
0.222036 0.400908 0.551024 49 72 47
0.220277 0.399948 0.550519 159 213 126
0.218583 0.399989 0.550234 193 247 160
0.216944 0.401029 0.550167 177 239 133
0.215247 0.401069 0.549881 155 217 111
0.213601 0.402110 0.549813 51 95 40
0.152945 0.259404 0.509496 79 119 61
0.151559 0.260438 0.509472 158 198 140
0.150225 0.260470 0.509247 186 250 141
0.148890 0.260501 0.509022 181 245 136
0.146158 0.261568 0.508771 176 249 130
0.144821 0.261599 0.508546 156 223 125
0.143484 0.261631 0.508321 111 178 80
0.221822 0.401213 0.552801 43 63 44
0.220061 0.400255 0.552293 120 170 93
0.218363 0.400296 0.552007 195 245 168
0.216722 0.401335 0.551942 183 246 135
0.215022 0.401375 0.551656 171 234 123
0.213322 0.401416 0.551370 85 132 60
0.211622 0.401456 0.551083 28 75 3
0.151340 0.259893 0.510693 79 108 78
0.150006 0.259925 0.510469 154 210 124
0.147276 0.260990 0.510221 177 247 132
0.145939 0.261022 0.509996 177 247 132
0.144535 0.262055 0.509971 174 245 136
0.143196 0.262087 0.509745 152 223 114
0.141856 0.262119 0.509520 118 174 102
0.140517 0.262151 0.509294 55 111 39
0.219843 0.400560 0.554071 64 102 43
0.218143 0.400601 0.553785 191 229 170
0.216444 0.400641 0.553498 188 248 138
0.214744 0.400682 0.553212 177 237 127
0.213094 0.401720 0.553148 138 189 103
0.211392 0.401760 0.552862 29 80 0
0.149787 0.259381 0.511690 72 114 62
0.147057 0.260445 0.511445 186 249 147
0.145720 0.260476 0.511220 183 246 144
0.144316 0.261509 0.511197 176 248 134
0.142976 0.261541 0.510972 171 243 129
0.141637 0.261573 0.510746 164 226 131
0.140222 0.262605 0.510722 123 185 90
0.219565 0.399867 0.555627 45 77 28
0.217923 0.400903 0.555567 150 182 133
0.216220 0.400944 0.555280 192 249 143
0.214518 0.400985 0.554994 181 238 132
0.212815 0.401025 0.554707 161 216 122
0.211160 0.402062 0.554645 41 96 2
0.146838 0.259899 0.512669 144 199 118
0.145436 0.260930 0.512649 191 246 165
0.144096 0.260962 0.512424 180 248 135
0.142757 0.260994 0.512198 174 242 129
0.141417 0.261026 0.511972 176 244 131
0.140002 0.262058 0.511951 162 230 117
0.217644 0.400209 0.557126 115 141 99
0.215941 0.400249 0.556839 188 245 141
0.214239 0.400290 0.556553 183 240 136
0.212586 0.401326 0.556493 173 231 133
0.210881 0.401367 0.556206 88 146 48
0.146619 0.259353 0.513893 70 113 56
0.145216 0.260384 0.513875 146 189 132
0.143877 0.260416 0.513650 186 253 147
0.142467 0.261446 0.513631 179 246 140
0.141125 0.261478 0.513405 173 243 128
0.139707 0.262509 0.513385 168 238 123
0.138284 0.263539 0.513365 164 226 131
0.217422 0.400508 0.558915 67 87 52
0.215716 0.400549 0.558628 181 234 138
0.214011 0.400590 0.558341 190 243 147
0.212306 0.400630 0.558054 179 240 141
0.210601 0.400671 0.557767 129 190 91
0.144997 0.259837 0.515102 73 100 71
0.143657 0.259869 0.514876 145 202 111
0.142247 0.260898 0.514860 189 246 155
0.140831 0.261928 0.514843 175 245 130
0.139410 0.262957 0.514825 174 244 129
0.137906 0.264985 0.515014 170 237 129
0.136472 0.266015 0.514993 162 229 121
0.217142 0.399813 0.560476 47 65 44
0.215437 0.399853 0.560189 154 205 121
0.213732 0.399894 0.559902 195 246 162
0.212027 0.399935 0.559615 182 243 142
0.210368 0.400969 0.559559 157 218 117
0.208661 0.401009 0.559272 43 88 30
0.143369 0.260319 0.516315 61 104 47
0.141955 0.261347 0.516300 136 179 122
0.140537 0.262376 0.516285 186 253 143
0.139113 0.263404 0.516269 179 246 136
0.137605 0.265430 0.516462 174 242 129
0.136169 0.266459 0.516444 174 242 129
0.134727 0.267488 0.516425 163 228 132
0.215211 0.400150 0.561985 108 154 76
0.213504 0.400191 0.561698 195 241 163
0.211796 0.400231 0.561410 183 244 143
0.210088 0.400272 0.561123 176 237 136
0.208424 0.401305 0.561069 66 116 53
0.141735 0.260798 0.517531 64 90 64
0.140242 0.262821 0.517732 132 188 102
0.138738 0.264844 0.517931 189 245 159
0.137304 0.265872 0.517915 186 254 139
0.135864 0.266900 0.517899 175 243 128
0.134504 0.266933 0.517670 175 244 136
0.133057 0.267961 0.517652 161 230 122
0.214984 0.400444 0.563786 62 104 32
0.213274 0.400485 0.563498 181 223 151
0.211564 0.400526 0.563210 185 247 143
0.209854 0.400567 0.562922 178 240 136
0.208144 0.400607 0.562634 111 164 95
0.206474 0.401640 0.562582 21 74 5
0.139946 0.263265 0.519183 61 103 51
0.138439 0.265286 0.519386 142 184 132
0.137081 0.265318 0.519158 187 254 146
0.135642 0.266345 0.519144 180 247 139
0.134197 0.267372 0.519129 179 249 136
0.132834 0.267405 0.518900 180 250 137
0.131291 0.269427 0.519096 157 222 136
0.214757 0.400737 0.565591 39 80 15
0.213044 0.400778 0.565303 159 200 135
0.211331 0.400819 0.565015 178 240 136
0.209619 0.400859 0.564726 178 240 136
0.207906 0.400900 0.564438 147 204 127
0.206233 0.401932 0.564387 24 81 4
0.138216 0.264732 0.520629 71 98 67
0.136779 0.265758 0.520618 143 198 115
0.135419 0.265790 0.520389 192 247 164
0.133973 0.266816 0.520376 180 251 140
0.132435 0.268836 0.520579 177 248 137
0.131067 0.268869 0.520349 170 242 142
0.128141 0.270922 0.520317 108 160 98
0.214528 0.401027 0.567401 37 73 26
0.212813 0.401068 0.567113 131 167 120
0.211098 0.401109 0.566824 178 236 136
0.209382 0.401150 0.566535 178 236 136
0.207667 0.401191 0.566246 163 222 133
0.205991 0.402221 0.566197 55 114 25
0.136556 0.265203 0.521863 64 107 50
0.135113 0.266228 0.521853 145 188 131
0.133664 0.267253 0.521843 186 254 153
0.132211 0.268278 0.521831 181 249 148
0.129382 0.269336 0.521588 177 251 141
0.127916 0.270361 0.521574 162 225 143
0.126444 0.271387 0.521560 113 176 94
0.212581 0.401356 0.568927 79 109 70
0.210817 0.400409 0.568394 173 230 135
0.209101 0.400450 0.568106 177 234 139
0.207428 0.401479 0.568059 169 229 133
0.205749 0.402509 0.568012 84 144 48
0.204028 0.402550 0.567723 29 69 27
0.134806 0.266663 0.523322 69 96 65
0.133354 0.267687 0.523313 139 194 113
0.130528 0.268744 0.523073 178 252 144
0.129064 0.269769 0.523062 178 252 144
0.127594 0.270793 0.523050 180 249 154
0.126219 0.270826 0.522819 158 227 132
0.124742 0.271850 0.522806 104 156 94
0.212349 0.401643 0.570746 51 78 45
0.210628 0.401684 0.570456 161 216 124
0.208908 0.401725 0.570167 176 231 139
0.207187 0.401766 0.569877 170 233 133
0.205467 0.401807 0.569587 126 189 89
0.203783 0.402835 0.569542 30 73 25
0.131673 0.268152 0.524558 145 187 135
0.130211 0.269176 0.524550 190 255 157
0.128744 0.270199 0.524541 185 253 152
0.127369 0.270232 0.524310 183 253 149
0.125894 0.271255 0.524299 178 248 144
0.124516 0.271288 0.524067 153 218 136
0.123034 0.272312 0.524056 96 161 79
0.212115 0.401927 0.572570 42 66 38
0.210392 0.401968 0.572280 123 173 92
0.208669 0.402009 0.571990 180 230 149
0.206946 0.402050 0.571700 169 232 130
0.205223 0.402091 0.571409 153 216 114
0.203536 0.403119 0.571366 44 87 30
0.131449 0.267593 0.525813 65 95 70
0.129894 0.269605 0.526032 148 211 127
0.128424 0.270627 0.526025 191 254 170
0.127046 0.270660 0.525793 185 255 147
0.125668 0.270693 0.525561 178 249 140
0.124188 0.271716 0.525552 171 243 145
0.122808 0.271749 0.525320 147 219 121
0.210110 0.401265 0.573857 90 138 71
0.208387 0.401306 0.573567 174 222 155
0.206664 0.401347 0.573277 167 230 128
0.204979 0.402373 0.573236 162 225 123
0.203253 0.402415 0.572946 87 131 65
0.129669 0.269044 0.527291 66 114 63
0.128198 0.270065 0.527286 154 202 151
0.126821 0.270098 0.527054 187 255 157
0.125342 0.271120 0.527048 184 253 154
0.123962 0.271152 0.526816 183 255 151
0.122371 0.273163 0.527034 177 250 145
0.209872 0.401546 0.575687 47 92 32
0.208147 0.401587 0.575397 166 211 151
0.206421 0.401628 0.575106 160 222 125
0.204696 0.401669 0.574816 167 229 132
0.203005 0.402695 0.574777 119 168 96
0.201277 0.402736 0.574486 26 75 3
0.127973 0.269503 0.528548 75 108 80
0.126497 0.270523 0.528545 144 207 125
0.125015 0.271544 0.528540 190 253 171
0.123529 0.272565 0.528535 183 255 151
0.121932 0.274573 0.528757 186 255 154
0.120433 0.275594 0.528750 181 253 155
0.209634 0.401825 0.577522 41 79 24
0.207864 0.400883 0.576977 155 193 138
0.206178 0.401907 0.576940 168 228 132
0.204450 0.401948 0.576650 165 225 129
0.202722 0.401990 0.576359 137 191 115
0.201026 0.403014 0.576321 29 83 7
0.126270 0.269960 0.529808 66 116 57
0.124789 0.270980 0.529807 152 202 143
0.123199 0.272986 0.530034 191 255 165
0.121598 0.274992 0.530260 186 255 160
0.119987 0.276999 0.530484 189 255 164
0.118589 0.277032 0.530249 181 255 156
0.209351 0.401120 0.579104 42 74 23
0.207623 0.401161 0.578814 112 144 93
0.205895 0.401202 0.578523 166 226 130
0.204167 0.401243 0.578232 159 219 123
0.202439 0.401284 0.577941 154 212 130
0.200742 0.402308 0.577905 42 100 18
0.124359 0.272386 0.531539 75 111 77
0.122763 0.274391 0.531770 153 216 134
0.121263 0.275410 0.531768 195 255 176
0.119758 0.276429 0.531764 185 255 161
0.118248 0.277448 0.531760 190 255 166
0.116733 0.278467 0.531755 181 248 161
0.209068 0.400415 0.580687 46 75 30
0.207340 0.400456 0.580396 76 105 60
0.205612 0.400497 0.580105 166 226 130
0.203884 0.400538 0.579814 155 215 119
0.202189 0.401561 0.579781 158 219 129
0.200459 0.401602 0.579490 59 120 30
0.123928 0.273789 0.533280 51 73 57
0.122430 0.274807 0.533281 62 110 59
0.120927 0.275825 0.533280 148 196 145
0.119419 0.276843 0.533279 190 255 170
0.117906 0.277861 0.533276 187 255 167
0.114865 0.279897 0.533269 181 249 157
0.113217 0.281901 0.533497 143 201 128
0.207098 0.400731 0.582240 58 85 52
0.205367 0.400772 0.581948 159 218 129
0.203636 0.400813 0.581657 154 213 124
0.201906 0.400854 0.581366 155 220 124
0.200206 0.401876 0.581334 90 155 59
0.198472 0.401917 0.581042 29 66 25
0.122096 0.275221 0.534796 45 80 53
0.120591 0.276238 0.534797 72 107 80
0.117564 0.278272 0.534797 196 255 183
0.115927 0.280273 0.535031 193 255 167
0.114399 0.281290 0.535029 194 255 168
0.112865 0.282308 0.535026 181 244 158
0.111326 0.283326 0.535021 137 200 114
0.206814 0.400024 0.583824 40 67 38
0.205083 0.400066 0.583533 143 201 117
0.203353 0.400107 0.583241 154 212 128
0.201655 0.401127 0.583213 154 221 123
0.199922 0.401169 0.582921 123 190 92
0.198188 0.401210 0.582629 30 73 25
0.117107 0.279663 0.536561 167 216 162
0.115465 0.281663 0.536799 199 255 174
0.114049 0.281696 0.536561 194 255 169
0.112512 0.282713 0.536559 194 255 167
0.110970 0.283730 0.536557 172 239 145
0.109549 0.283763 0.536318 128 189 117
0.206570 0.400296 0.585675 41 64 41
0.204837 0.400337 0.585383 136 189 111
0.203104 0.400379 0.585091 158 211 133
0.201371 0.400420 0.584800 146 214 113
0.199638 0.400461 0.584508 138 206 105
0.197904 0.400503 0.584216 33 79 26
0.118509 0.277091 0.537608 47 78 44
0.116649 0.281051 0.538334 96 127 93
0.115117 0.282066 0.538336 167 230 148
0.113580 0.283082 0.538337 199 255 180
0.112158 0.283116 0.538098 189 255 161
0.110613 0.284131 0.538097 191 255 163
0.109189 0.284165 0.537857 165 232 147
0.206286 0.399589 0.587262 51 69 48
0.204553 0.399630 0.586970 117 162 89
0.202820 0.399671 0.586678 170 215 142
0.201087 0.399713 0.586387 142 208 107
0.199354 0.399754 0.586095 147 213 112
0.197647 0.400773 0.586070 54 104 45
0.114768 0.282468 0.539877 87 137 74
0.113347 0.282502 0.539638 173 223 160
0.111804 0.283516 0.539640 195 255 169
0.110256 0.284531 0.539642 191 255 165
0.108703 0.285546 0.539643 182 253 160
0.204269 0.398923 0.588557 88 130 58
0.202536 0.398964 0.588265 171 213 141
0.200803 0.399006 0.587973 144 210 107
0.199098 0.400023 0.587951 149 215 112
0.197363 0.400064 0.587659 74 124 63
0.114418 0.282868 0.541423 43 80 39
0.112875 0.283881 0.541428 96 133 92
0.111205 0.285875 0.541676 170 235 149
0.109773 0.285909 0.541435 196 255 175
0.108214 0.286923 0.541437 189 255 163
0.106521 0.288917 0.541681 183 255 157
0.204021 0.399191 0.590417 58 99 36
0.202285 0.399232 0.590124 171 212 149
0.200550 0.399273 0.589832 147 213 112
0.198814 0.399315 0.589540 152 218 117
0.197104 0.400331 0.589519 90 141 75
0.195366 0.400373 0.589227 23 74 8
0.112402 0.285256 0.543228 52 77 56
0.110725 0.287248 0.543479 93 149 81
0.109164 0.288261 0.543483 176 232 164
0.106155 0.289308 0.543244 186 255 162
0.104713 0.289343 0.543001 179 250 157
0.103137 0.290356 0.543003 157 228 135
0.203773 0.399456 0.592281 47 86 33
0.202034 0.399498 0.591989 160 199 146
0.200296 0.399539 0.591696 151 216 120
0.198558 0.399580 0.591403 151 216 120
0.196819 0.399622 0.591111 119 171 96
0.195104 0.400637 0.591091 22 74 0
0.110367 0.287639 0.545043 44 84 44
0.108802 0.288651 0.545049 102 142 102
0.107361 0.288686 0.544807 173 240 153
0.105789 0.289698 0.544811 186 253 166
0.104344 0.289732 0.544568 179 251 151
0.102629 0.291722 0.544818 172 244 144
0.203488 0.398747 0.593873 37 74 33
0.201749 0.398788 0.593580 126 163 122
0.200011 0.398830 0.593287 153 215 122
0.198273 0.398871 0.592995 150 212 119
0.196560 0.399886 0.592978 140 195 112
0.194841 0.400900 0.592961 29 84 1
0.108440 0.289040 0.546620 53 76 53
0.106868 0.290051 0.546627 111 163 99
0.105290 0.291062 0.546633 182 234 170
0.103574 0.293050 0.546888 185 254 155
0.101983 0.294062 0.546892 181 250 151
0.203238 0.399009 0.595744 39 71 34
0.201497 0.399051 0.595451 112 144 107
0.199756 0.399092 0.595158 155 215 123
0.198015 0.399134 0.594865 145 205 113
0.196299 0.400147 0.594850 149 205 117
0.194556 0.400189 0.594557 37 93 5
0.106244 0.292387 0.548709 48 86 40
0.104527 0.294373 0.548968 130 168 122
0.103068 0.294408 0.548723 180 246 157
0.066465 0.408103 0.574364 94 89 58
0.202987 0.399270 0.597620 45 75 38
0.201243 0.399311 0.597327 100 130 93
0.199500 0.399353 0.597034 161 218 123
0.197757 0.399394 0.596740 145 202 107
0.196013 0.399436 0.596447 150 209 120
0.194292 0.400448 0.596433 49 108 19
0.066012 0.408362 0.576220 134 131 101
0.200989 0.399570 0.599208 70 95 60
0.199214 0.398641 0.598630 159 215 118
0.197497 0.399653 0.598620 146 202 105
0.195751 0.399694 0.598326 150 210 118
0.194005 0.399736 0.598032 87 147 55
0.192297 0.401718 0.598302 32 67 27
0.065724 0.407644 0.577831 119 122 99
0.200703 0.398857 0.600806 54 77 43
0.198957 0.398899 0.600512 153 208 114
0.197211 0.398940 0.600218 148 203 109
0.195465 0.398982 0.599924 151 213 120
0.193740 0.399992 0.599915 106 168 75
0.192010 0.401003 0.599905 33 70 29
0.200478 0.400080 0.602983 51 71 38
0.198699 0.399154 0.602399 153 205 116
0.196951 0.399196 0.602105 150 202 113
0.195202 0.399237 0.601810 149 211 118
0.193474 0.400247 0.601803 112 174 81
0.191723 0.400289 0.601508 32 73 28
0.200191 0.399365 0.604586 51 68 40
0.198440 0.399407 0.604291 147 197 116
0.196689 0.399449 0.603996 153 203 122
0.194938 0.399491 0.603701 140 201 111
0.193187 0.399532 0.603407 120 181 91
0.191454 0.400541 0.603401 36 77 30
0.199934 0.399616 0.606483 49 65 44
0.198153 0.398693 0.605894 128 178 101
0.196402 0.398734 0.605599 163 213 136
0.194673 0.399742 0.605597 138 202 111
0.192920 0.399783 0.605302 126 190 99
0.191166 0.399825 0.605006 38 80 28
0.199706 0.400830 0.608680 50 65 49
0.197893 0.398943 0.607793 102 150 81
0.196140 0.398984 0.607498 159 207 138
0.194386 0.399026 0.607202 138 202 111
0.192652 0.400033 0.607201 137 201 110
0.190895 0.400075 0.606906 43 88 30
0.199417 0.400112 0.610290 51 66 52
0.197632 0.399191 0.609696 84 131 69
0.195876 0.399232 0.609401 159 206 144
0.194120 0.399274 0.609105 139 203 112
0.192364 0.399316 0.608809 141 205 114
0.197371 0.399436 0.611604 74 121 63
0.195588 0.398516 0.611009 159 206 148
0.192094 0.399562 0.610716 144 208 117
0.190336 0.399604 0.610420 57 104 42
0.197082 0.398719 0.613215 67 114 56
0.195324 0.398761 0.612919 161 208 150
0.193565 0.398803 0.612623 135 200 106
0.191806 0.398844 0.612327 146 211 117
0.190063 0.399848 0.612331 63 111 46
0.196819 0.398961 0.615130 63 109 54
0.195035 0.398043 0.614529 160 206 151
0.193277 0.398085 0.614233 134 199 105
0.191535 0.399087 0.614240 146 211 117
0.189774 0.399129 0.613944 71 119 54
0.196531 0.398243 0.616742 60 106 51
0.194769 0.398285 0.616446 156 202 147
0.193008 0.398327 0.616149 134 199 103
0.191247 0.398369 0.615853 146 211 115
0.189486 0.398411 0.615556 82 130 65
0.196242 0.397524 0.618355 53 99 44
0.194481 0.397566 0.618059 152 198 143
0.192720 0.397608 0.617762 134 199 101
0.190958 0.397650 0.617465 142 207 109
0.189211 0.398650 0.617477 93 144 76
0.195954 0.396805 0.619968 50 94 39
0.194192 0.396847 0.619671 154 198 143
0.192431 0.396889 0.619375 139 204 106
0.190686 0.397889 0.619389 142 207 109
0.188922 0.397931 0.619092 96 147 79
0.187169 0.398930 0.619105 33 84 16
0.195688 0.397043 0.621894 42 86 31
0.193925 0.397085 0.621598 150 194 139
0.192161 0.397127 0.621301 140 202 107
0.190397 0.397169 0.621004 144 206 111
0.188633 0.397211 0.620707 103 151 84
0.186880 0.398209 0.620722 33 81 14
0.195399 0.396323 0.623509 41 85 30
0.193636 0.396365 0.623212 144 188 133
0.191872 0.396407 0.622916 140 202 107
0.190108 0.396449 0.622619 144 206 111
0.188357 0.397447 0.622636 107 155 88
0.186590 0.397489 0.622339 29 77 10
0.195110 0.395603 0.625124 43 87 34
0.193347 0.395645 0.624827 144 188 135
0.191583 0.395687 0.624530 139 204 110
0.189819 0.395729 0.624233 141 206 112
0.188067 0.396726 0.624254 108 159 91
0.186311 0.397722 0.624273 27 78 10
0.194821 0.394884 0.626739 45 89 36
0.193057 0.394926 0.626442 143 187 134
0.191294 0.394968 0.626145 135 200 106
0.189544 0.395963 0.626168 141 206 112
0.187778 0.396005 0.625871 110 161 93
0.186021 0.397000 0.625893 29 80 12
0.194532 0.394164 0.628354 46 88 34
0.192768 0.394206 0.628057 142 184 130
0.191005 0.394248 0.627760 135 200 106
0.189255 0.395242 0.627786 139 204 110
0.187488 0.395284 0.627488 115 168 99
0.185740 0.397231 0.627834 29 82 13
0.194265 0.394395 0.630295 48 90 36
0.192479 0.393486 0.629672 144 186 132
0.190732 0.394479 0.629700 138 203 107
0.188965 0.394521 0.629403 138 203 107
0.187210 0.395515 0.629430 116 167 99
0.185450 0.396508 0.629456 34 85 17
0.193975 0.393674 0.631912 46 88 34
0.192209 0.393716 0.631615 142 184 130
0.190442 0.393758 0.631317 134 199 103
0.188676 0.393800 0.631020 134 199 103
0.186920 0.394793 0.631049 114 167 98
0.185168 0.396736 0.631404 33 86 17
0.193686 0.392953 0.633530 49 91 37
0.191919 0.392995 0.633232 142 184 130
0.190153 0.393038 0.632935 133 198 104
0.188387 0.393080 0.632637 134 199 105
0.186630 0.394071 0.632669 110 163 94
0.184877 0.396012 0.633028 33 86 17
0.193396 0.392233 0.635147 51 93 41
0.191630 0.392275 0.634849 143 185 133
0.189864 0.392317 0.634552 134 198 107
0.188110 0.393307 0.634586 138 202 111
0.186350 0.394297 0.634620 110 161 95
0.184594 0.396236 0.634983 33 84 18
0.193107 0.391512 0.636764 52 93 44
0.191341 0.391554 0.636467 144 185 136
0.189574 0.391596 0.636169 133 197 106
0.187820 0.392585 0.636206 137 201 110
0.186060 0.393574 0.636242 117 165 100
0.184309 0.396458 0.636943 38 86 21
0.192817 0.390791 0.638381 56 98 46
0.191051 0.390833 0.638084 146 188 136
0.189285 0.390875 0.637787 128 192 101
0.187530 0.391863 0.637826 138 202 111
0.185779 0.393797 0.638200 99 147 82
0.184024 0.396678 0.638908 41 89 24
0.192528 0.390070 0.639999 57 101 48
0.190762 0.390112 0.639701 148 192 139
0.188995 0.390154 0.639404 130 191 101
0.187240 0.391141 0.639445 140 201 111
0.185488 0.393074 0.639824 91 137 70
0.183738 0.396896 0.640877 43 89 22
0.192239 0.389349 0.641616 58 102 47
0.190472 0.389391 0.641318 148 192 137
0.188706 0.389433 0.641021 129 190 100
0.186961 0.391363 0.641406 140 201 111
0.185206 0.393294 0.641789 79 123 59
0.183452 0.397112 0.642851 44 88 24
0.191949 0.388628 0.643233 59 103 48
0.190183 0.388671 0.642936 147 191 136
0.188416 0.388713 0.642638 127 191 100
0.186671 0.390640 0.643028 138 202 111
0.184922 0.393512 0.643758 67 110 49
0.183159 0.396383 0.644487 44 87 26
0.191660 0.387908 0.644850 65 110 52
0.189893 0.387950 0.644553 149 194 136
0.188127 0.387992 0.644256 126 190 101
0.186380 0.389918 0.644650 138 202 113
0.184631 0.392785 0.645387 61 104 47
0.191370 0.387187 0.646468 78 123 65
0.189604 0.387229 0.646170 150 195 137
0.187837 0.387271 0.645873 126 189 103
0.186090 0.389195 0.646272 135 198 112
0.184339 0.392059 0.647016 58 100 46
0.192886 0.388303 0.649087 43 60 44
0.191081 0.386466 0.648085 99 144 86
0.189314 0.386508 0.647787 149 194 136
0.187548 0.386550 0.647490 128 191 107
0.185800 0.388472 0.647894 130 193 109
0.184061 0.393213 0.649345 45 88 38
0.192596 0.387580 0.650708 45 65 48
0.190791 0.385745 0.649702 110 157 95
0.189025 0.385787 0.649405 145 192 130
0.187259 0.385829 0.649107 128 193 111
0.185510 0.387749 0.649516 121 186 104
0.183769 0.392485 0.650979 37 80 34
0.192305 0.386857 0.652330 43 63 44
0.190502 0.385024 0.651319 121 172 102
0.188736 0.385067 0.651022 134 185 115
0.186980 0.386046 0.651080 126 191 109
0.185228 0.387964 0.651493 114 179 97
0.183488 0.393632 0.653322 32 75 37
0.192015 0.386134 0.653952 44 67 44
0.190213 0.384304 0.652937 129 183 109
0.188446 0.384346 0.652639 132 186 112
0.186690 0.385324 0.652700 123 190 107
0.184937 0.387240 0.653117 106 173 90
0.183194 0.392902 0.654960 29 72 38
0.191707 0.384476 0.655213 49 77 52
0.189908 0.382647 0.654193 130 189 113
0.188157 0.383625 0.654256 127 186 110
0.186410 0.385538 0.654680 126 191 109
0.184661 0.388387 0.655461 97 162 80
0.191417 0.383754 0.656832 57 87 62
0.189634 0.382862 0.656171 131 195 118
0.187867 0.382904 0.655874 124 188 111
0.186120 0.384815 0.656301 132 194 115
0.184383 0.389530 0.657814 81 143 64
0.191111 0.382099 0.658086 78 111 83
0.189344 0.382141 0.657788 132 196 119
0.187578 0.382183 0.657491 122 186 109
0.185839 0.385026 0.658288 139 199 118
0.184098 0.389735 0.659812 59 119 38
0.190821 0.381378 0.659703 94 130 96
0.189055 0.381420 0.659406 135 200 118
0.187300 0.382395 0.659476 121 186 104
0.185557 0.385234 0.660280 140 198 118
0.183811 0.389939 0.661815 36 94 14
0.192335 0.382478 0.662360 39 76 37
0.190516 0.379726 0.660949 107 144 105
0.188765 0.380700 0.661023 136 201 117
0.187021 0.382604 0.661466 117 182 98
0.185274 0.385440 0.662276 135 189 115
0.452746 0.397876 0.716766 45 57 49
0.450913 0.397920 0.716457 41 53 45
0.449081 0.397963 0.716148 39 51 43
0.192027 0.380825 0.663609 38 76 32
0.190227 0.379007 0.662564 129 167 123
0.188476 0.379979 0.662640 132 197 113
0.186730 0.381881 0.663087 121 186 102
0.184998 0.386575 0.664649 110 163 94
0.454279 0.397084 0.718752 47 55 52
0.452446 0.397128 0.718444 44 55 51
0.450613 0.397172 0.718135 40 51 47
0.448780 0.397215 0.717827 38 52 43
0.446947 0.397259 0.717518 38 52 43
0.191702 0.378245 0.664476 38 81 31
0.189923 0.377358 0.663804 141 184 134
0.188187 0.379258 0.664257 129 194 112
0.186450 0.382088 0.665084 128 193 111
0.184713 0.386776 0.666657 85 137 75
0.455811 0.396293 0.720739 54 62 59
0.453979 0.396336 0.720430 50 58 55
0.452146 0.396380 0.720122 43 54 50
0.450313 0.396424 0.719813 39 50 46
0.448480 0.396467 0.719505 39 52 47
0.446647 0.396511 0.719196 42 55 50
0.191395 0.376597 0.665713 61 107 52
0.189619 0.375711 0.665038 145 191 136
0.187897 0.378537 0.665875 124 189 107
0.186169 0.382292 0.667085 133 198 116
0.184428 0.386975 0.668669 70 120 61
0.453678 0.395588 0.722109 57 65 62
0.451845 0.395632 0.721800 45 58 53
0.450012 0.395676 0.721491 39 52 47
0.448180 0.395719 0.721183 37 50 45
0.446347 0.395763 0.720874 42 55 50
0.192907 0.377690 0.668384 41 63 45
0.191056 0.373097 0.666183 96 146 87
0.189317 0.374066 0.666268 144 194 135
0.187608 0.377816 0.667492 127 190 106
0.185878 0.381567 0.668712 139 202 118
0.184148 0.388099 0.671066 51 94 37
0.451545 0.394884 0.723478 47 60 55
0.449712 0.394928 0.723170 42 55 50
0.447879 0.394972 0.722861 39 52 47
0.446046 0.395015 0.722552 44 57 52
0.192598 0.376043 0.669618 42 67 46
0.190752 0.371456 0.667406 116 166 103
0.189043 0.374276 0.668259 138 188 125
0.187330 0.378021 0.669491 130 190 107
0.185596 0.381768 0.670720 136 196 113
0.451245 0.394136 0.725156 40 56 45
0.449412 0.394180 0.724848 35 51 40
0.447579 0.394224 0.724539 32 51 39
0.445746 0.394267 0.724231 41 60 48
0.192291 0.374399 0.670847 48 76 51
0.190466 0.370741 0.669009 129 185 115
0.188768 0.374483 0.670254 131 187 117
0.187051 0.378225 0.671495 131 194 112
0.185329 0.383817 0.673502 121 184 102
0.450566 0.392473 0.726385 71 89 68
0.448735 0.392517 0.726077 76 94 73
0.446905 0.392560 0.725769 52 75 52
0.445446 0.393519 0.725909 40 63 40
0.191966 0.371833 0.671683 56 86 59
0.190179 0.370027 0.670612 131 192 118
0.188493 0.374688 0.672254 120 181 107
0.186771 0.378426 0.673504 133 197 120
0.185044 0.384012 0.675524 73 137 60
0.451715 0.390769 0.727918 84 96 86
0.449888 0.390812 0.727610 104 131 100
0.448060 0.390856 0.727302 111 138 107
0.446232 0.390899 0.726995 103 132 98
0.445145 0.392771 0.727587 55 84 50
0.443313 0.392815 0.727278 57 77 62
0.191625 0.368348 0.672120 77 113 79
0.188178 0.372123 0.673090 118 182 103
0.186470 0.376779 0.674739 137 198 124
0.184766 0.385127 0.677940 43 104 30
0.449895 0.386371 0.727776 87 100 87
0.448455 0.387327 0.727923 122 155 113
0.446635 0.387371 0.727617 112 145 103
0.445187 0.388327 0.727763 101 137 92
0.443735 0.389284 0.727908 74 110 65
0.443012 0.392067 0.728956 63 83 66
0.193067 0.366671 0.673622 29 70 32
0.191287 0.364869 0.672542 113 154 116
0.187878 0.370483 0.674308 123 190 105
0.186170 0.375134 0.675970 128 186 113
0.184486 0.386239 0.680365 28 86 13
0.449217 0.384717 0.728983 82 97 79
0.447402 0.384760 0.728678 130 167 117
0.445587 0.384804 0.728372 103 140 90
0.444144 0.385759 0.728522 93 138 80
0.443066 0.387627 0.729125 79 124 66
0.441978 0.389495 0.729726 59 80 58
0.192781 0.365959 0.675220 40 85 39
0.189318 0.367883 0.675422 120 187 102
0.187626 0.372529 0.677099 124 191 106
0.185963 0.382699 0.681134 108 163 98
0.448540 0.383066 0.730187 71 89 68
0.446351 0.382198 0.729423 130 169 116
0.444541 0.382241 0.729119 104 143 90
0.442731 0.382284 0.728814 92 139 79
0.442029 0.385061 0.729880 90 137 77
0.441312 0.387838 0.730943 56 80 50
0.192419 0.361568 0.675227 67 117 65
0.190716 0.363449 0.675730 139 189 137
0.187337 0.371809 0.678713 135 200 116
0.185687 0.383808 0.683567 72 124 64
0.445301 0.379639 0.730159 131 170 117
0.443497 0.379682 0.729855 118 157 104
0.441692 0.379725 0.729552 93 143 80
0.440625 0.381589 0.730166 90 140 77
0.439914 0.384362 0.731238 62 89 56
0.193849 0.359900 0.676708 37 64 42
0.192135 0.360860 0.676816 101 156 93
0.190463 0.364575 0.678123 136 191 128
0.187080 0.373845 0.681525 132 197 113
0.444630 0.377994 0.731349 124 158 107
0.442827 0.378037 0.731045 126 160 109
0.441025 0.378080 0.730742 89 140 74
0.439591 0.379032 0.730900 88 139 73
0.439250 0.382711 0.732441 66 98 59
0.438888 0.386391 0.733978 61 93 54
0.193565 0.359193 0.678295 42 73 39
0.191832 0.359234 0.678003 123 182 106
0.190161 0.362945 0.679320 127 186 110
0.186790 0.373122 0.683147 107 172 90
0.443959 0.376351 0.732534 109 141 92
0.442159 0.376394 0.732231 136 168 119
0.440359 0.376436 0.731928 95 143 76
0.438928 0.377387 0.732089 95 143 76
0.438222 0.380155 0.733176 75 116 71
0.437863 0.383830 0.734723 52 93 48
0.191548 0.358527 0.679590 128 191 107
0.189830 0.359485 0.679703 123 186 102
0.186449 0.367816 0.682751 67 129 50
0.443664 0.375616 0.734181 86 115 72
0.441492 0.374752 0.733411 147 176 133
0.439694 0.374795 0.733109 110 161 93
0.438265 0.375745 0.733272 93 144 76
0.436830 0.376695 0.733435 86 129 79
0.436478 0.380366 0.734993 44 87 37
0.189531 0.357861 0.680885 126 187 99
0.442994 0.373976 0.735359 60 85 48
0.440453 0.372207 0.734118 147 172 135
0.438291 0.371344 0.733347 116 164 99
0.437603 0.374105 0.734452 100 148 83
0.436170 0.375053 0.734617 96 142 87
0.435457 0.377815 0.735717 46 92 37
0.439787 0.370571 0.735287 134 154 121
0.437259 0.368804 0.734043 126 172 105
0.436208 0.370657 0.734684 104 150 83
0.435511 0.373414 0.735794 102 147 85
0.434431 0.379835 0.738477 58 82 52
0.438751 0.368034 0.735977 103 119 96
0.435860 0.365365 0.734255 131 175 109
0.434450 0.366311 0.734429 116 160 94
0.434126 0.369969 0.736021 90 138 71
0.433420 0.372724 0.737137 85 133 66
0.433057 0.376383 0.738722 53 81 43
0.436604 0.362792 0.735228 78 95 77
0.434832 0.362834 0.734930 136 177 114
0.432742 0.366530 0.736234 97 145 76
0.433125 0.371990 0.738782 99 147 78
0.433806 0.360308 0.735595 133 171 114
0.432770 0.362154 0.736253 142 180 123
0.431389 0.367649 0.738520 93 145 70
0.431392 0.372202 0.740602 72 111 60
0.431013 0.375853 0.742204 51 90 39
0.196726 0.352299 0.689436 37 77 35
0.194998 0.352340 0.689146 122 162 120
0.193270 0.352381 0.688855 126 189 105
0.433149 0.358687 0.736732 91 125 76
0.431750 0.359629 0.736915 150 184 135
0.430017 0.364218 0.738717 94 146 71
0.430739 0.370566 0.741771 79 126 64
0.198171 0.351552 0.691310 46 66 49
0.196443 0.351593 0.691019 75 124 70
0.194715 0.351635 0.690728 132 181 127
0.192987 0.351676 0.690437 127 187 102
0.432860 0.357967 0.738346 61 91 52
0.431096 0.358009 0.738050 146 176 137
0.430056 0.359850 0.738717 126 178 103
0.428660 0.365334 0.741009 87 140 69
0.428648 0.369876 0.743113 54 107 36
0.197888 0.350847 0.692892 41 71 46
0.196159 0.350888 0.692601 105 161 93
0.194431 0.350929 0.692310 129 185 117
0.192703 0.350971 0.692019 130 188 106
0.430443 0.356390 0.739179 115 139 109
0.429043 0.357331 0.739367 139 188 114
0.427638 0.358272 0.739555 125 174 100
0.427655 0.362808 0.741676 93 151 71
0.197604 0.350142 0.694474 74 109 80
0.195876 0.350183 0.694183 127 185 112
0.194148 0.350224 0.693892 127 185 112
0.428699 0.352081 0.738843 67 88 66
0.427670 0.353918 0.739522 142 186 122
0.426273 0.354858 0.739713 130 174 110
0.424870 0.355797 0.739902 105 163 83
0.424170 0.358533 0.741063 90 148 68
0.199020 0.348490 0.695916 30 76 37
0.197295 0.348531 0.695626 109 155 116
0.195569 0.348572 0.695335 131 194 112
0.193844 0.348613 0.695045 127 190 108
0.424135 0.345132 0.736727 110 150 92
0.422402 0.345173 0.736435 132 172 114
0.421025 0.346111 0.736632 116 171 92
0.419289 0.346153 0.736339 90 145 66
0.418956 0.349782 0.737997 80 130 69
0.200463 0.347745 0.697786 36 62 47
0.198709 0.346881 0.697063 72 125 72
0.197012 0.347827 0.697205 128 181 128
0.195287 0.347868 0.696915 132 191 113
0.193561 0.347909 0.696624 144 203 125
0.423491 0.343529 0.737822 78 110 59
0.421760 0.343570 0.737531 148 180 129
0.420030 0.343612 0.737239 130 183 105
0.417946 0.342757 0.736458 104 157 79
0.416218 0.342798 0.736167 85 138 69
0.200150 0.346137 0.698930 56 89 63
0.198427 0.346178 0.698640 111 169 100
0.196704 0.346219 0.698350 130 188 119
0.194981 0.346260 0.698060 138 195 120
0.420762 0.341075 0.738128 132 158 118
0.419037 0.341116 0.737838 140 189 115
0.417311 0.341157 0.737547 123 172 98
0.415236 0.340304 0.736765 91 148 71
0.201558 0.344491 0.700359 34 74 32
0.199867 0.345434 0.700508 91 131 89
0.198145 0.345475 0.700217 127 186 108
0.196422 0.345516 0.699927 136 195 117
0.194699 0.345557 0.699637 151 204 133
0.420122 0.339477 0.739212 71 93 66
0.418045 0.338625 0.738427 143 187 121
0.416324 0.338666 0.738137 139 183 117
0.414604 0.338707 0.737848 109 164 85
0.201276 0.343789 0.701934 50 102 42
0.199555 0.343830 0.701644 120 172 112
0.197862 0.344772 0.701795 123 183 98
0.196139 0.344813 0.701505 147 207 122
0.194416 0.344854 0.701215 142 190 125
0.417055 0.336138 0.739007 127 162 106
0.415340 0.336179 0.738718 153 188 132
0.413624 0.336219 0.738429 123 178 95
0.411909 0.336260 0.738140 106 161 78
0.202645 0.341245 0.702911 49 79 54
0.200994 0.343087 0.703509 97 155 82
0.199273 0.343128 0.703219 126 184 111
0.197553 0.343169 0.702930 137 197 114
0.195833 0.343210 0.702640 150 210 127
0.416420 0.334546 0.740077 67 96 53
0.414708 0.334587 0.739789 150 179 136
0.412995 0.334628 0.739500 139 192 110
0.410936 0.333777 0.738713 112 165 83
0.409226 0.333818 0.738425 92 148 76
0.204080 0.340505 0.704770 36 77 32
0.202364 0.340545 0.704481 81 122 77
0.200649 0.340586 0.704193 121 184 100
0.198963 0.341526 0.704349 131 194 110
0.197245 0.341567 0.704060 149 208 130
0.414076 0.332998 0.740855 110 132 103
0.412366 0.333038 0.740567 149 198 124
0.410310 0.332188 0.739778 133 182 108
0.408603 0.332229 0.739490 101 161 78
0.406555 0.331379 0.738703 83 143 60
0.205475 0.338866 0.706180 44 66 50
0.203798 0.339805 0.706341 54 104 41
0.202083 0.339845 0.706052 115 165 102
0.200399 0.340784 0.706211 118 183 97
0.198681 0.340825 0.705922 139 204 118
0.196989 0.341765 0.706080 142 199 133
0.413446 0.331410 0.741916 66 83 67
0.411738 0.331451 0.741629 133 173 115
0.409686 0.330602 0.740838 151 191 133
0.407981 0.330643 0.740551 119 177 93
0.406275 0.330683 0.740264 106 164 80
0.205194 0.338167 0.707748 48 76 49
0.203482 0.338208 0.707460 103 162 86
0.201769 0.338248 0.707171 121 180 104
0.200087 0.339186 0.707333 137 200 116
0.198372 0.339227 0.707045 149 212 128
0.411111 0.329866 0.742686 74 105 63
0.409406 0.329906 0.742399 155 186 144
0.407359 0.329058 0.741607 135 190 109
0.405656 0.329099 0.741320 116 171 90
0.403954 0.329139 0.741033 93 150 73
0.206545 0.335635 0.708695 42 83 38
0.204838 0.335676 0.708408 95 136 91
0.203166 0.336613 0.708574 119 179 96
0.201488 0.337550 0.708739 132 192 109
0.199776 0.337590 0.708451 151 210 134
0.408783 0.328323 0.743452 109 131 104
0.407080 0.328363 0.743165 147 197 120
0.405038 0.327516 0.742371 132 182 105
0.403338 0.327557 0.742085 106 166 83
0.401639 0.327597 0.741799 79 139 56
0.207931 0.334003 0.710089 43 68 47
0.206266 0.334939 0.710259 82 132 69
0.204558 0.334979 0.709971 117 167 104
0.202850 0.335020 0.709684 130 190 105
0.201175 0.335956 0.709852 148 208 123
0.199465 0.335996 0.709564 142 185 126
0.408504 0.327628 0.745011 74 89 71
0.406460 0.326782 0.744214 134 180 113
0.404760 0.326823 0.743928 154 200 133
0.403060 0.326863 0.743642 126 187 99
0.401360 0.326904 0.743356 105 166 78
0.399329 0.326057 0.742561 82 135 68
0.209356 0.333267 0.711937 36 72 38
0.207651 0.333307 0.711650 72 108 74
0.205946 0.333348 0.711363 108 166 86
0.204278 0.334282 0.711535 118 176 96
0.202571 0.334323 0.711247 152 210 126
0.200895 0.335258 0.711418 149 207 123
0.406181 0.326088 0.745770 77 110 64
0.404481 0.326129 0.745484 151 184 138
0.402446 0.325284 0.744687 144 202 118
0.400748 0.325324 0.744401 119 177 93
0.398720 0.324479 0.743604 96 156 75
0.397025 0.324519 0.743319 70 130 49
0.210735 0.331638 0.713322 43 68 51
0.209033 0.331679 0.713036 60 109 53
0.207372 0.332612 0.713211 104 153 97
0.205667 0.332652 0.712924 122 181 92
0.203962 0.332693 0.712637 151 210 121
0.202291 0.333626 0.712811 161 215 141
0.403865 0.324551 0.746526 98 122 92
0.401832 0.323707 0.745727 155 202 130
0.400137 0.323747 0.745441 149 196 124
0.398112 0.322903 0.744643 113 172 85
0.396420 0.322943 0.744358 90 149 62
0.394403 0.322098 0.743561 77 124 62
0.212159 0.330903 0.715168 37 68 38
0.210456 0.330943 0.714881 59 90 60
0.208754 0.330984 0.714594 99 156 79
0.207092 0.331916 0.714772 121 178 101
0.205387 0.331957 0.714485 148 209 119
0.203682 0.331997 0.714198 163 224 134
0.201977 0.332038 0.713911 108 159 93
0.401219 0.322131 0.746762 110 145 91
0.399527 0.322172 0.746477 169 204 150
0.397175 0.320445 0.745162 140 195 114
0.395488 0.320485 0.744878 110 165 84
0.393476 0.319641 0.744079 90 145 66
0.211880 0.330208 0.716726 49 93 38
0.210177 0.330248 0.716440 105 149 94
0.208475 0.330289 0.716153 122 183 93
0.206772 0.330330 0.715866 141 202 112
0.205108 0.331261 0.716046 163 227 138
0.203403 0.331301 0.715759 127 191 102
0.400608 0.320558 0.747793 56 83 50
0.398254 0.318833 0.746472 122 149 116
0.396570 0.318874 0.746189 162 212 135
0.394231 0.317148 0.744871 139 189 112
0.392552 0.317188 0.744588 98 156 72
0.214952 0.328543 0.718387 39 70 36
0.213252 0.328583 0.718101 55 86 52
0.211553 0.328624 0.717815 99 154 75
0.209898 0.329554 0.717998 126 181 102
0.208196 0.329594 0.717712 135 200 104
0.206493 0.329635 0.717425 161 226 130
0.204791 0.329675 0.717139 139 198 120
0.397647 0.317264 0.747494 62 82 65
0.395636 0.316423 0.746691 129 169 111
0.393956 0.316463 0.746408 172 212 154
0.391953 0.315621 0.745607 135 191 105
0.390276 0.315661 0.745324 110 166 80
0.388599 0.315701 0.745042 87 146 70
0.214674 0.327849 0.719943 51 98 38
0.212974 0.327890 0.719657 103 150 90
0.211274 0.327930 0.719371 125 187 94
0.209574 0.327971 0.719085 135 197 104
0.207917 0.328900 0.719271 160 225 131
0.206214 0.328940 0.718984 137 202 108
0.395032 0.314857 0.747707 67 98 56
0.393355 0.314897 0.747424 144 175 133
0.391678 0.314937 0.747142 164 214 135
0.389680 0.314096 0.746339 143 193 114
0.388006 0.314136 0.746057 107 167 82
0.386331 0.314176 0.745775 86 146 61
0.217738 0.326187 0.721596 37 72 34
0.216040 0.326228 0.721310 54 89 51
0.214343 0.326268 0.721024 105 165 82
0.212695 0.327196 0.721214 122 182 99
0.210995 0.327236 0.720927 139 205 104
0.209295 0.327277 0.720641 161 227 126
0.207596 0.327317 0.720355 148 204 132
0.392755 0.313333 0.748435 78 100 73
0.391080 0.313373 0.748153 141 182 117
0.389406 0.313413 0.747872 174 215 150
0.387731 0.313453 0.747590 135 194 107
0.386057 0.313493 0.747308 101 160 73
0.384070 0.312653 0.746504 97 155 82
0.219097 0.324569 0.722956 44 67 42
0.217459 0.325495 0.723150 62 108 41
0.215762 0.325535 0.722864 111 157 90
0.214065 0.325576 0.722578 119 185 84
0.212417 0.326502 0.722770 132 198 97
0.210717 0.326543 0.722484 158 224 133
0.209017 0.326583 0.722198 146 212 121
0.390806 0.312690 0.749686 72 104 55
0.389131 0.312730 0.749405 145 177 128
0.387457 0.312770 0.749123 164 217 137
0.385468 0.311931 0.748316 136 189 109
0.383796 0.311971 0.748034 104 164 81
0.382124 0.312010 0.747753 92 152 69
0.220514 0.323837 0.724793 45 81 34
0.218819 0.323877 0.724508 77 113 66
0.217125 0.323917 0.724222 102 159 68
0.215484 0.324843 0.724418 123 180 89
0.213787 0.324883 0.724132 135 200 102
0.212138 0.325809 0.724326 161 226 128
0.210438 0.325849 0.724040 146 209 127
0.388537 0.311169 0.750409 70 89 63
0.386866 0.311209 0.750128 136 180 112
0.385194 0.311248 0.749847 176 220 152
0.383522 0.311288 0.749565 145 203 121
0.381850 0.311328 0.749284 112 170 88
0.380178 0.311368 0.749002 82 144 67
0.378507 0.311408 0.748721 64 126 49
0.221931 0.323105 0.726630 53 80 47
0.220237 0.323145 0.726345 90 139 67
0.218542 0.323185 0.726059 111 160 88
0.216847 0.323226 0.725774 124 184 88
0.215206 0.324150 0.725972 154 214 118
0.213508 0.324190 0.725686 166 233 139
0.211811 0.324231 0.725400 131 198 104
0.386592 0.310526 0.751659 64 97 51
0.384920 0.310566 0.751377 142 175 129
0.383248 0.310606 0.751096 171 224 144
0.381576 0.310646 0.750814 150 203 123
0.379598 0.309809 0.750005 109 172 86
0.377929 0.309849 0.749724 88 151 65
0.376259 0.309888 0.749443 65 122 56
0.223282 0.321490 0.727979 53 92 39
0.221654 0.322413 0.728182 95 134 81
0.219959 0.322453 0.727896 112 171 82
0.218264 0.322494 0.727611 128 187 98
0.216569 0.322534 0.727326 160 222 127
0.214928 0.323457 0.727526 168 230 135
0.213230 0.323498 0.727240 123 179 109
0.384646 0.309884 0.752908 68 91 66
0.382974 0.309924 0.752626 130 174 110
0.380994 0.309088 0.751814 172 216 152
0.379324 0.309128 0.751533 154 213 124
0.377655 0.309168 0.751252 115 174 85
0.375986 0.309207 0.750971 87 150 66
0.374317 0.309247 0.750690 73 136 52
0.226390 0.320719 0.730098 38 73 33
0.224697 0.320759 0.729813 68 103 63
0.223005 0.320799 0.729529 107 161 85
0.221376 0.321721 0.729733 125 179 103
0.219681 0.321762 0.729448 133 193 99
0.217986 0.321802 0.729163 169 229 135
0.216291 0.321842 0.728877 176 236 151
0.214597 0.321883 0.728592 115 175 90
0.382389 0.308367 0.753623 74 100 60
0.380720 0.308407 0.753342 127 153 113
0.379051 0.308447 0.753061 169 219 140
0.377382 0.308486 0.752780 160 210 131
0.375712 0.308526 0.752499 119 184 90
0.373745 0.307691 0.751687 85 150 56
0.372079 0.307731 0.751406 69 127 58
0.370119 0.306895 0.750595 56 114 45
0.227732 0.319108 0.731439 52 76 48
0.226112 0.320028 0.731648 77 125 56
0.224420 0.320069 0.731363 117 165 96
0.222728 0.320109 0.731078 132 194 101
0.221098 0.321030 0.731285 137 199 106
0.219343 0.320190 0.730508 174 235 145
0.217709 0.321110 0.730714 170 231 141
0.216014 0.321151 0.730429 100 149 95
0.380447 0.307726 0.754871 65 79 59
0.378472 0.306892 0.754054 114 149 93
0.376806 0.306931 0.753774 172 207 151
0.375139 0.306971 0.753493 157 216 127
0.373175 0.306137 0.752679 135 194 105
0.371216 0.305303 0.751865 95 159 68
0.369554 0.305342 0.751585 80 144 53
0.230679 0.316579 0.732561 48 69 47
0.228994 0.316619 0.732277 61 104 45
0.227455 0.318418 0.732986 107 150 91
0.225765 0.318458 0.732701 126 186 94
0.224075 0.318499 0.732417 136 196 104
0.222450 0.319418 0.732627 152 217 121
0.220758 0.319459 0.732342 169 234 138
0.219126 0.320378 0.732551 146 204 133
0.217431 0.320419 0.732266 65 123 52
0.376230 0.305378 0.754762 112 135 101
0.374566 0.305418 0.754482 152 205 125
0.372902 0.305458 0.754202 161 214 134
0.370943 0.304624 0.753386 137 202 106
0.369282 0.304664 0.753106 103 168 72
0.367331 0.303831 0.752292 91 151 70
0.233607 0.314056 0.733670 45 60 44
0.230326 0.315014 0.733604 89 125 78
0.228718 0.315932 0.733819 118 173 90
0.227106 0.316850 0.734034 129 184 101
0.225488 0.317769 0.734248 135 197 104
0.223798 0.317809 0.733964 165 227 134
0.222173 0.318728 0.734177 165 225 142
0.220481 0.318768 0.733892 129 189 106
0.218848 0.319687 0.734103 44 85 36
0.374293 0.304739 0.756006 79 114 58
0.372333 0.303907 0.755187 153 188 132
0.370671 0.303946 0.754907 161 221 129
0.368718 0.303114 0.754090 150 210 118
0.366770 0.302282 0.753273 118 180 87
0.365113 0.302321 0.752994 91 153 60
0.362889 0.300616 0.751642 76 130 56
0.235012 0.313330 0.735490 46 77 35
0.233332 0.313370 0.735208 73 104 62
0.230050 0.314327 0.735144 119 171 98
0.228442 0.315245 0.735362 133 197 106
0.226829 0.316162 0.735579 146 210 119
0.225211 0.317079 0.735795 174 235 147
0.223522 0.317120 0.735511 153 214 126
0.221896 0.318037 0.735726 103 150 88
0.220265 0.318955 0.735940 34 81 19
0.372060 0.303229 0.756708 76 98 69
0.370399 0.303268 0.756429 123 170 96
0.368446 0.302437 0.755609 168 215 141
0.366787 0.302477 0.755329 155 215 121
0.364842 0.301645 0.754511 138 198 104
0.362619 0.299942 0.753154 107 166 77
0.360686 0.299111 0.752338 92 151 62
0.359038 0.299150 0.752060 72 120 55
0.238006 0.311689 0.737087 45 75 38
0.236329 0.311729 0.736805 70 100 63
0.234736 0.312645 0.737028 91 139 70
0.233057 0.312685 0.736745 116 164 95
0.229774 0.313641 0.736684 148 207 118
0.228092 0.313681 0.736401 167 228 138
0.226482 0.314597 0.736621 174 235 145
0.224934 0.316390 0.737342 136 189 120
0.223245 0.316430 0.737058 57 110 41
0.369833 0.301721 0.757407 58 86 48
0.368174 0.301760 0.757128 94 122 84
0.366227 0.300930 0.756306 154 202 123
0.364571 0.300969 0.756027 165 213 134
0.362348 0.299269 0.754666 150 207 114
0.360416 0.298438 0.753847 123 180 87
0.358767 0.298477 0.753570 101 157 71
0.356843 0.297646 0.752752 88 144 58
0.240991 0.310050 0.738678 49 78 46
0.239408 0.310965 0.738905 66 95 63
0.237732 0.311005 0.738623 86 137 69
0.236055 0.311045 0.738340 105 156 88
0.234461 0.311960 0.738566 123 183 91
0.232782 0.312000 0.738283 140 200 108
0.231102 0.312040 0.738000 163 223 129
0.227817 0.312995 0.737941 159 211 136
0.226206 0.313910 0.738163 97 149 74
0.224589 0.314825 0.738384 40 71 37
0.366243 0.301123 0.758367 70 102 53
0.364299 0.300293 0.757544 141 173 124
0.362360 0.299464 0.756722 168 217 131
0.360426 0.298634 0.755900 164 213 127
0.358497 0.297804 0.755079 140 197 102
0.356573 0.296974 0.754260 116 173 78
0.354927 0.297014 0.753982 73 131 47
0.353281 0.297053 0.753705 67 125 41
0.244066 0.309287 0.740775 53 82 50
0.242391 0.309327 0.740493 66 95 63
0.240717 0.309367 0.740211 83 134 68
0.239134 0.310281 0.740440 110 161 95
0.237457 0.310321 0.740158 121 186 90
0.235780 0.310361 0.739876 134 199 103
0.234103 0.310401 0.739593 160 222 125
0.232426 0.310440 0.739311 181 243 146
0.230827 0.311354 0.739538 176 234 154
0.227541 0.312308 0.739481 70 111 66
0.225930 0.313222 0.739705 35 76 31
0.364028 0.299617 0.759061 67 86 60
0.362371 0.299657 0.758782 110 145 87
0.360435 0.298828 0.757958 169 204 146
0.358504 0.298000 0.757134 167 218 132
0.356578 0.297171 0.756311 160 211 125
0.354657 0.296342 0.755490 127 190 90
0.353011 0.296381 0.755213 99 162 62
0.351098 0.295552 0.754392 83 141 59
0.245567 0.309437 0.743105 66 97 55
0.243890 0.309477 0.742823 92 138 71
0.242117 0.308644 0.742026 120 166 99
0.240443 0.308684 0.741744 123 184 94
0.238768 0.308724 0.741462 136 197 107
0.237094 0.308764 0.741180 153 220 124
0.235505 0.309676 0.741411 175 242 146
0.233828 0.309716 0.741129 186 246 161
0.232151 0.309756 0.740846 142 202 117
0.230552 0.310669 0.741076 83 127 74
0.228872 0.310709 0.740793 35 79 26
0.360723 0.299887 0.760567 81 103 72
0.358787 0.299060 0.759741 143 184 117
0.356856 0.298232 0.758915 169 210 143
0.354659 0.296537 0.757543 163 220 127
0.353010 0.296576 0.757266 147 204 111
0.351095 0.295748 0.756443 127 189 92
0.349449 0.295788 0.756166 94 156 59
0.347541 0.294959 0.755344 87 144 67
0.250215 0.307761 0.744968 56 88 39
0.248540 0.307801 0.744686 72 104 55
0.245292 0.308752 0.744640 121 168 96
0.243517 0.307921 0.743841 131 187 101
0.241843 0.307961 0.743559 146 202 116
0.240168 0.308001 0.743277 155 219 128
0.238494 0.308041 0.742995 174 238 147
0.236907 0.308952 0.743229 182 245 159
0.235230 0.308992 0.742946 161 224 138
0.233553 0.309032 0.742664 93 140 82
0.230277 0.309984 0.742613 45 71 45
0.357133 0.299289 0.761528 98 122 90
0.355202 0.298463 0.760700 150 200 123
0.353009 0.296770 0.759324 168 218 141
0.351357 0.296809 0.759046 160 222 125
0.349443 0.295982 0.758220 144 206 109
0.347533 0.295155 0.757396 115 182 86
0.345628 0.294328 0.756572 95 162 66
0.343985 0.294367 0.756295 89 149 68
0.253289 0.306998 0.747065 66 104 49
0.251615 0.307038 0.746783 87 125 70
0.249940 0.307078 0.746501 102 155 75
0.248266 0.307118 0.746219 122 175 95
0.245017 0.308068 0.746176 140 199 110
0.243243 0.307238 0.745374 163 222 135
0.241568 0.307278 0.745092 180 239 152
0.239894 0.307317 0.744810 182 242 161
0.238220 0.307357 0.744528 163 223 142
0.234955 0.308308 0.744482 49 99 40
0.355202 0.298652 0.762767 65 96 54
0.353275 0.297826 0.761937 119 150 108
0.351618 0.297866 0.761659 145 201 115
0.349436 0.296175 0.760280 172 228 142
0.347524 0.295349 0.759452 155 220 122
0.345617 0.294523 0.758626 138 203 105
0.343715 0.293696 0.757800 113 178 80
0.342072 0.293735 0.757523 95 160 62
0.340178 0.292909 0.756699 85 143 61
0.254574 0.305406 0.748355 94 138 72
0.251340 0.306355 0.748316 121 176 93
0.249666 0.306395 0.748034 133 193 99
0.247992 0.306435 0.747752 147 207 113
0.244742 0.307384 0.747711 186 246 154
0.243065 0.307424 0.747429 185 242 165
0.241388 0.307464 0.747146 149 206 129
0.239711 0.307504 0.746864 107 149 97
0.351612 0.298054 0.763728 56 94 46
0.349690 0.297229 0.762896 107 145 97
0.347514 0.295540 0.761514 153 207 122
0.345605 0.294715 0.760684 173 227 142
0.343446 0.293026 0.759305 158 219 118
0.341802 0.293065 0.759028 143 204 103
0.339909 0.292239 0.758201 118 182 77
0.338020 0.291414 0.757375 103 167 62
0.336137 0.290588 0.756550 89 151 58
0.334017 0.288898 0.755177 79 141 48
0.252740 0.305632 0.750131 138 196 98
0.251066 0.305672 0.749849 156 214 116
0.249392 0.305712 0.749567 177 237 143
0.247717 0.305752 0.749285 186 246 152
0.246043 0.305791 0.749003 185 238 158
0.242791 0.306739 0.748964 89 130 81
0.241114 0.306779 0.748682 52 93 44
0.347243 0.294866 0.763026 68 107 56
0.345334 0.294042 0.762194 109 148 97
0.343177 0.292355 0.760810 161 209 128
0.341281 0.291531 0.759980 171 219 138
0.339640 0.291570 0.759704 157 221 116
0.337752 0.290745 0.758876 148 212 107
0.335625 0.289057 0.757497 127 192 80
0.333508 0.287369 0.756119 114 179 67
0.331640 0.286544 0.755295 106 159 61
0.252466 0.304949 0.751664 180 240 148
0.250792 0.304988 0.751382 186 246 154
0.249117 0.305028 0.751100 179 231 158
0.247443 0.305068 0.750818 121 173 100
0.342907 0.291684 0.762315 64 93 48
0.341012 0.290861 0.761483 107 136 91
0.339122 0.290038 0.760652 149 199 118
0.337483 0.290077 0.760376 171 221 140
0.335357 0.288391 0.758992 172 229 125
0.333241 0.286704 0.757610 165 222 118
0.331374 0.285880 0.756783 148 205 99
0.329275 0.284194 0.755404 134 191 85
0.327655 0.284232 0.755131 118 175 71
0.325803 0.283408 0.754307 97 154 50
0.250517 0.304305 0.752915 92 144 82
0.338853 0.289369 0.762152 64 93 48
0.336969 0.288546 0.761319 80 109 64
0.335089 0.287724 0.760488 141 184 107
0.332974 0.286040 0.759101 172 215 138
0.331107 0.285217 0.758272 181 234 136
0.329010 0.283532 0.756888 176 229 131
0.327389 0.283571 0.756615 165 222 116
0.325538 0.282748 0.755788 150 207 101
0.334822 0.287057 0.761983 64 90 50
0.332707 0.285375 0.760592 78 104 64
0.330841 0.284553 0.759760 108 145 75
0.328744 0.282871 0.758372 151 188 118
0.327123 0.282910 0.758099 183 229 135
0.325273 0.282087 0.757270 194 240 146
0.328479 0.282210 0.759856 61 81 48
0.326625 0.281389 0.759024 73 102 43
0.325007 0.281427 0.758751 113 142 83
0.332091 0.406839 0.842565 60 90 51
0.330095 0.406887 0.842229 56 86 47
0.328098 0.406935 0.841893 44 86 45
0.326102 0.406982 0.841557 42 84 43
0.324105 0.407030 0.841221 39 87 49
0.322109 0.407077 0.840885 37 85 47
0.320112 0.407125 0.840549 38 89 52
0.318116 0.407172 0.840212 40 91 54
0.315944 0.406362 0.839320 39 87 49
0.313951 0.406410 0.838984 39 87 49
0.311957 0.406457 0.838648 51 91 51
0.309963 0.406505 0.838313 49 89 49
0.307804 0.405694 0.837422 57 86 45
0.305813 0.405741 0.837087 57 86 45
